<svg xmlns="http://www.w3.org/2000/svg" width="128" height="128" fill="none" xmlns:v="https://vecta.io/nano"><path fill-rule="evenodd" d="M64 128c35.345 0 64-28.655 64-64S99.345 0 64 0 0 28.655 0 64s28.655 64 64 64zm.261-6.006c32.029 0 57.991-25.965 57.991-57.991S96.29 6.009 64.261 6.009 6.271 31.971 6.271 64s25.962 57.994 57.99 57.994zM64 117.551c29.576 0 53.551-23.975 53.551-53.551S93.576 10.449 64 10.449 10.449 34.424 10.449 64 34.424 117.551 64 117.551zm.132-6.529c26.04 0 47.151-21.111 47.151-47.151S90.172 16.72 64.132 16.72 16.981 37.828 16.981 63.871s21.108 47.151 47.151 47.151zm-.396-38.326a45.65 45.65 0 0 0-7.631.636l3.794-6.589a58.71 58.71 0 0 1 3.836-.126c2.981 0 6.012.246 8.942.717l-14.733-25.59-24.527 42.598-3.506-6.087 27.976-48.589.057.099.054-.096 33.763 58.639h-7.009l-7.892-13.706c-4.112-1.243-8.507-1.906-13.126-1.906zm30.209 11.749L61.256 27.673h7.009l29.183 50.684zM61.503 55.682L48.082 78.994c4.803-1.453 10.455-2.101 15.789-2.101l1.297.015c3.029.072 6.091.393 9.023.943l4.478 7.778c-4.584-1.672-9.545-2.657-14.798-2.657-7.769 0-14.904 1.927-21.117 5.277l.099-.177-.135.234h-7.009L58 49.592z" fill="url(#A)"/><defs><linearGradient id="A" x1="100.847" y1="120.459" x2="26.006" y2="5.782" gradientUnits="userSpaceOnUse"><stop offset=".008" stop-color="#645aff"/><stop offset=".504" stop-color="#e40c5b"/><stop offset="1" stop-color="#ff4c3b"/></linearGradient></defs></svg>