<svg xmlns="http://www.w3.org/2000/svg" xmlns:xlink="http://www.w3.org/1999/xlink" width="128" height="128" xmlns:v="https://vecta.io/nano"><style><![CDATA[.B{color-interpolation-filters:sRGB}]]></style><defs><filter id="A" x="-.054" y="-.035" width="1.108" height="1.069" class="B"><feGaussianBlur stdDeviation=".829"/></filter><filter id="B" x="-.043" y="-.055" width="1.085" height="1.11" class="B"><feGaussianBlur stdDeviation=".268"/></filter><filter id="C" x="-.037" y="-.067" width="1.074" height="1.134" class="B"><feGaussianBlur stdDeviation=".34"/></filter><path id="D" d="M65.304 53.11c-4.298 23.403-6.178 44.276-19.251 44.276-14.854 0-37.077-24.08-37.702-47.404C7.614 22.475 19.41 7.737 34.263 7.737c19.397 0 35.188 22.788 31.04 45.373z"/><path id="E" d="M38.07 62.355c0 1.611-6.016.798-10.254-.338-4.52-1.211-11.851-8.49-11.851-10.101s6.646-.421 10.623.645c4.46 1.195 11.482 8.183 11.482 9.794z"/><path id="F" d="M47.308 62.335c.222 1.199 4.588-.234 7.587-1.662 3.198-1.524 7.654-7.951 7.432-9.15s-5.006.601-7.819 1.942c-3.156 1.503-7.422 7.671-7.2 8.871z"/></defs><g transform="matrix(1.351532 -.051434 .052398 1.326685 11.043568 -3.821887)"><g fill="none" stroke="#00f666" stroke-width="2.239" stroke-miterlimit="3.2"><use xlink:href="#D" paint-order="stroke fill markers" filter="url(#A)"/><use xlink:href="#D" paint-order="stroke fill markers"/></g><g fill="#00f666"><use xlink:href="#E" paint-order="stroke fill markers" filter="url(#C)"/><use xlink:href="#F" paint-order="stroke fill markers" filter="url(#B)"/><use xlink:href="#E" paint-order="stroke fill markers"/><use xlink:href="#F" paint-order="stroke fill markers"/></g></g></svg>