<?xml version="1.0" encoding="UTF-8" standalone="no"?>
<svg
   width="128"
   height="128"
   viewBox="0 0 128 128"
   version="1.1"
   id="svg266"
   sodipodi:docname="AltLayer - Original - Complete - Blue.svg"
   inkscape:export-filename="..\transparentSVGs\chain\altlayer.png"
   inkscape:export-xdpi="96"
   inkscape:export-ydpi="96"
   xmlns:inkscape="http://www.inkscape.org/namespaces/inkscape"
   xmlns:sodipodi="http://sodipodi.sourceforge.net/DTD/sodipodi-0.dtd"
   xmlns="http://www.w3.org/2000/svg"
   xmlns:svg="http://www.w3.org/2000/svg"
   xmlns:rdf="http://www.w3.org/1999/02/22-rdf-syntax-ns#"
   xmlns:cc="http://creativecommons.org/ns#"
   xmlns:dc="http://purl.org/dc/elements/1.1/">
  <defs
     id="defs270" />
  <sodipodi:namedview
     id="namedview268"
     pagecolor="#ffffff"
     bordercolor="#000000"
     borderopacity="0.25"
     inkscape:showpageshadow="2"
     inkscape:pageopacity="0.0"
     inkscape:pagecheckerboard="0"
     inkscape:deskcolor="#d1d1d1"
     showgrid="false" />
  <title
     id="title239">AltLayer - Original - Complete - Blue</title>
  <path
     d="m 67.751142,124.24724 c 0.897066,10e-4 1.785667,-0.1746 2.614983,-0.51792 0.828663,-0.34333 1.581757,-0.84691 2.215634,-1.48144 L 125.9987,68.830947 c 0.63452,-0.634464 1.13746,-1.387558 1.48078,-2.216355 C 127.8228,65.785799 128,64.89746 128,64.000326 c 0,-0.897133 -0.17719,-1.785473 -0.52052,-2.614333 -0.34332,-0.828793 -0.84626,-1.581823 -1.48078,-2.21609 L 72.581759,5.7530313 C 71.947882,5.1179694 71.194788,4.6144059 70.366125,4.2712769 69.536809,3.9281499 68.648208,3.7522235 67.751142,3.7536004 Z"
     id="路径"
     style="fill:#6667ab;fill-opacity:1;stroke-width:0.999999"
     inkscape:label="path4" />
  <path
     d="m 60.250816,101.76841 c -1.747689,0 -3.495375,-0.41238 -4.828341,-1.25408 L 1.9994218,67.027557 c -2.66589573,-1.671399 -2.66589573,-4.38267 0,-6.054006 L 55.418371,27.486907 c 1.332964,-0.8357 3.080652,-1.254527 4.828341,-1.254527 z"
     id="path242"
     opacity="0.5"
     style="fill:#6667ab;fill-opacity:1;stroke-width:0.999999"
     inkscape:label="path3" />
  <path
     d="m 60.250816,79.186645 c -1.747689,0 -3.495375,-0.412379 -4.828341,-1.252115 L 1.9994218,44.447624 c -2.66589573,-1.671335 -2.66589573,-4.382671 0,-6.056028 L 55.418371,4.9069857 C 56.743064,4.0651219 58.499023,3.652445 60.250816,3.652445 Z"
     id="path244"
     opacity="0.5"
     style="fill:#6667ab;fill-opacity:1;stroke-width:0.999999"
     inkscape:label="path2" />
  <path
     d="m 60.250816,124.34756 c -1.747689,0 -3.495375,-0.41238 -4.828341,-1.25407 L 1.9994218,89.608795 c -2.66589573,-1.673616 -2.66589573,-4.385015 0,-6.056025 L 55.418371,50.065995 c 1.332964,-0.835636 3.080652,-1.252443 4.828341,-1.252443 z"
     id="path246"
     opacity="0.5"
     style="fill:#6667ab;fill-opacity:1;stroke-width:0.999999"
     inkscape:label="path1" />
  <metadata
     id="metadata389">
    <rdf:RDF>
      <cc:Work
         rdf:about="">
        <dc:title>AltLayer - Original - Complete - Blue</dc:title>
      </cc:Work>
    </rdf:RDF>
  </metadata>
</svg>
