<svg xmlns="http://www.w3.org/2000/svg" width="128" height="128" viewBox="0 0 33.867 33.867" xmlns:v="https://vecta.io/nano"><defs><linearGradient x1="24.97" y1="40.241" x2="4.094" y2="10.731" gradientUnits="userSpaceOnUse" spreadMethod="pad" id="A"><stop offset="0" stop-color="#3c6"/><stop offset="1" stop-color="#0ff"/></linearGradient><linearGradient x1="28.113" y1="38.014" x2="8.248" y2="9.934" gradientUnits="userSpaceOnUse" spreadMethod="pad" id="B"><stop offset="0" stop-color="#3c6"/><stop offset="1" stop-color="#0ff"/></linearGradient><linearGradient x1="26.876" y1="38.888" x2="7.012" y2="10.809" gradientUnits="userSpaceOnUse" spreadMethod="pad" id="C"><stop offset="0" stop-color="#3c6"/><stop offset="1" stop-color="#0ff"/></linearGradient><linearGradient x1="27.023" y1="46.175" x2="2.124" y2="10.979" gradientUnits="userSpaceOnUse" spreadMethod="pad" id="D"><stop offset="0" stop-color="#3c6"/><stop offset="1" stop-color="#0ff"/></linearGradient></defs><path d="M12.928 16.763l-1.091 2.182-2.789 5.578h2.196l2.789-5.578h5.801l-1.091-2.182h2.196l-4.006-8.011zm4.005-3.62l1.81 3.62h-3.619z" fill="url(#B)"/><path d="M22.623 24.523h-11.38l-1.091 2.182h13.562l.881 1.762h2.195l-.881-1.762-1.091-2.182z" fill="url(#C)"/><path d="M14.079 5.709l.029.002h0L4.601 24.724 3.51 26.906.03 33.867h33.807l-3.48-6.961-1.091-2.182L21.7 9.588h0L16.933 0h0zM6.03 26.906l1.091-2.182 9.813-19.626 7.754 15.509h-8.925l-1.09 2.182h11.107l.968 1.935 1.091 2.182 2.535 5.068H3.495z" fill="url(#A)"/><path d="M7.006 28.467l-1.091 2.182h19.773l.002.005.009-.002-1.079-2.184z" fill="url(#D)"/></svg>