<svg xmlns="http://www.w3.org/2000/svg" width="128" height="128" fill="none" xmlns:v="https://vecta.io/nano"><circle cx="64" cy="64" fill="#fff" r="64"/><path d="M97.306 43.871H86.531c-1.198 0-2.394-.543-3.265-1.413l-4.354-4.891c-1.306-1.413-3.375-1.522-4.898-.326l-.326.326-3.701 4.239c-1.198 1.413-3.048 2.174-4.898 2.174H6.204c-1.633 4.783-2.721 9.892-3.156 15.001h55.728c.979 0 1.96-.435 2.613-1.087l5.225-5.435c.653-.652 1.524-1.087 2.503-1.087h.217c.979 0 1.96.435 2.612 1.196l4.354 4.891c.871.978 2.068 1.522 3.265 1.522h45.388c-.436-5.109-1.524-10.219-3.156-15.001h-24.49zM61.606 73.873l-4.354-4.891c-1.306-1.413-3.374-1.522-4.898-.326l-.326.326-3.81 4.239c-1.198 1.413-2.939 2.174-4.789 2.174H3.918c.979 5.218 2.722 10.327 5.007 15.219H36.68c.979 0 1.851-.435 2.613-1.087l5.225-5.435c.653-.652 1.524-1.087 2.503-1.087h.217c.979 0 1.96.435 2.612 1.196l4.354 4.891c.871.978 2.068 1.522 3.265 1.522h61.606c2.286-4.783 4.028-9.892 5.007-15.219H64.871c-1.306 0-2.503-.543-3.265-1.522zm21.333-47.396l5.225-5.435c.653-.652 1.524-1.087 2.503-1.087h.217c.979 0 1.96.435 2.612 1.087l4.354 4.891c.871.978 2.068 1.413 3.266 1.413h11.755C92.408.389 53.987-4.937 26.884 15.39c-4.463 3.37-8.49 7.391-11.973 11.958h65.415c1.089.217 1.96-.217 2.613-.87zm-42.122 79.137c-1.306 0-2.503-.543-3.265-1.413l-4.354-4.891c-1.306-1.413-3.483-1.522-4.899-.217l-.217.217-3.81 4.239c-1.198 1.413-2.939 2.174-4.789 2.174h-.217c22.966 24.567 61.823 25.764 86.531 2.609.979-.87 1.85-1.848 2.83-2.826h-67.81v.109z" fill="#000"/></svg>