<svg xmlns="http://www.w3.org/2000/svg" width="128" height="128" viewBox="0 0 33.867 33.867" xmlns:v="https://vecta.io/nano"><path d="M11.749 5.42H8.647a.51.51 0 0 0-.479.335L.016 28.105c-.061.166.062.342.239.342h3.102a.51.51 0 0 0 .479-.335l8.153-22.35c.061-.166-.062-.342-.239-.342zm3.773 9.365c-.081-.223-.397-.223-.479 0l-1.608 4.409a.51.51 0 0 0 0 .349l3.126 8.569a.51.51 0 0 0 .479.335h3.102c.177 0 .3-.176.239-.342zm7.907 4.315c.081.223.397.223.479 0l4.865-13.338c.061-.166-.062-.342-.239-.342h-3.102a.51.51 0 0 0-.479.335l-3.132 8.587a.51.51 0 0 0 0 .349zM17.313 5.752c-.073-.2-.263-.333-.475-.333h-3.112a.51.51 0 0 0-.479.335l-8.153 22.35c-.061.166.063.342.239.342h3.102a.51.51 0 0 0 .479-.335L15.156 11c.041-.112.2-.112.24 0l6.242 17.112a.51.51 0 0 0 .479.335h3.102c.177 0 .3-.176.239-.342zm16.299-.333H30.51a.51.51 0 0 0-.479.335l-5.671 15.548a.51.51 0 0 0 0 .349l1.608 4.409c.081.223.397.223.479 0l5.614-15.391 1.79-4.908c.061-.166-.062-.342-.239-.342z" fill="#ef8220"/></svg>