<svg xmlns="http://www.w3.org/2000/svg" width="128" height="128" fill="#1b4add" xmlns:v="https://vecta.io/nano"><path d="M64.19 7.934c.305 0 .61.084.884.242l46.939 27.305a1.74 1.74 0 0 1 .873 1.526l-.179 54.304a1.76 1.76 0 0 1-.884 1.526l-47.118 26.999c-.263.158-.579.231-.884.231s-.61-.084-.884-.242L15.999 92.52a1.74 1.74 0 0 1-.873-1.526l.179-54.304a1.76 1.76 0 0 1 .884-1.526L63.306 8.165c.263-.158.568-.231.884-.231M64.211 0a9.62 9.62 0 0 0-4.851 1.284L12.243 28.273c-3.009 1.726-4.861 4.914-4.882 8.386l-.179 54.304c-.011 3.462 1.831 6.671 4.819 8.418l46.939 27.305c1.494.873 3.167 1.305 4.851 1.315a9.62 9.62 0 0 0 4.851-1.284l47.118-26.999c3.009-1.726 4.861-4.914 4.882-8.386l.179-54.294c.011-3.462-1.831-6.671-4.819-8.418L69.061 1.315C67.557.442 65.884 0 64.211 0zm9.512 29.599h-6.881a1.24 1.24 0 0 0-1.157.81L43.567 91.058a.61.61 0 0 0 .579.821h6.881a1.24 1.24 0 0 0 1.157-.81L74.312 30.41c.126-.389-.168-.81-.589-.81zm-12.037 0h-6.881a1.24 1.24 0 0 0-1.157.81L31.529 91.058a.61.61 0 0 0 .579.821h6.881a1.24 1.24 0 0 0 1.157-.81L62.274 30.41c.137-.389-.158-.81-.589-.81zm8.912 23.517a.62.62 0 0 0-1.157 0l-3.577 9.807a1.28 1.28 0 0 0 0 .842l9.964 27.315a1.24 1.24 0 0 0 1.157.81h6.881a.61.61 0 0 0 .579-.821zm25.874 37.942l-19.855-54.43a.62.62 0 0 0-1.157 0l-3.577 9.807a1.28 1.28 0 0 0 0 .842L87.866 91.08a1.24 1.24 0 0 0 1.157.81h6.881c.41-.011.715-.431.568-.831z"/></svg>