<svg xmlns="http://www.w3.org/2000/svg" width="128" height="128" xmlns:v="https://vecta.io/nano"><path d="M540 75.5c2.9 0 5.8.8 8.4 2.2l447.7 258.5c5.2 3 8.4 8.6 8.4 14.5v516.9c0 6-3.2 11.5-8.4 14.5l-447.7 258.5c-2.5 1.5-5.5 2.2-8.4 2.2s-5.8-.8-8.4-2.2L83.9 882.3c-5.2-3-8.4-8.6-8.4-14.5v-517c0-6 3.2-11.5 8.4-14.5L531.6 77.8c2.6-1.5 5.5-2.3 8.4-2.3M540 0c-15.9 0-31.9 4.1-46.2 12.4L46.2 270.8a92.35 92.35 0 0 0-46.2 80v516.9a92.35 92.35 0 0 0 46.2 80l447.7 258.5c14.3 8.2 30.2 12.4 46.2 12.4s31.9-4.1 46.2-12.4L1034 947.7a92.35 92.35 0 0 0 46.2-80V350.8a92.35 92.35 0 0 0-46.2-80L586.2 12.4C571.9 4.1 555.9 0 540 0zM425.9 344.5h-58.5c-4.4 0-8.3 2.7-9.8 6.9L169.5 867c-1.2 3.4 1.3 7 4.9 7h58.5c4.4 0 8.3-2.7 9.8-6.9l188.1-515.7c1.2-3.3-1.3-6.9-4.9-6.9zm75.7 199.9c-1.7-4.6-8.1-4.6-9.8 0l-30.4 83.4c-.8 2.3-.8 4.8 0 7.2l84.7 232.2c1.5 4.1 5.4 6.9 9.8 6.9h58.5c3.6 0 6.1-3.6 4.9-7zm26.5-199.9h-58.5c-4.4 0-8.3 2.7-9.8 6.9L271.8 867c-1.2 3.4 1.3 7 4.9 7h58.5c4.4 0 8.3-2.7 9.8-6.9l188.1-515.7c1.2-3.3-1.3-6.9-5-6.9zm24.6 59.7c-1.7-4.6-8.1-4.6-9.8 0l-30.4 83.4c-.8 2.3-.8 4.8 0 7.2l135.9 372.4c1.5 4.1 5.4 6.9 9.8 6.9h58.5c3.6 0 6.1-3.6 4.9-7zm352.9-59.7h-58.5c-4.4 0-8.3 2.7-9.8 6.9L701.5 723.8c-.8 2.3-.8 4.8 0 7.2l30.4 83.4c1.7 4.6 8.1 4.6 9.8 0l168.8-462.8c1.3-3.5-1.3-7.1-4.9-7.1zM680.8 674.1c1.7 4.6 8.1 4.6 9.8 0l117.7-322.6c1.2-3.4-1.3-7-4.9-7h-58.5c-4.4 0-8.3 2.7-9.8 6.9l-84.7 232.2c-.8 2.3-.8 4.8 0 7.2z" transform="matrix(.105039 0 0 .105039 7.268668 -.000001)" fill="#e57310"/></svg>