<svg xmlns="http://www.w3.org/2000/svg" width="128" height="128" viewBox="0 0 33.867 33.867" xmlns:v="https://vecta.io/nano"><path d="M20.75 15.517l2.487-4.22 6.704 10.441.003 2.003-.022-13.788a1.038 1.038 0 0 0-.48-.827L17.372 2.184a1.064 1.064 0 0 0-.922.004 1.05 1.05 0 0 0-.108.063l-.042.027L4.585 9.066l-.046.021a1.066 1.066 0 0 0-.173.101 1.035 1.035 0 0 0-.417.659 1.066 1.066 0 0 0-.015.122l.018 11.236 6.244-9.678c.786-1.283 2.499-1.697 4.089-1.674l1.866.048L5.156 27.534l1.296.746L17.579 9.918l4.918-.018-11.099 18.825 4.626 2.662.553.318a1.062 1.062 0 0 0 .745.015l12.239-7.092-2.341 1.356zm.949 13.667l-4.671-7.332 2.851-4.839 6.135 9.67z" fill="#2d374b"/><path d="M17.027 21.852l4.671 7.332 4.315-2.501-6.135-9.669zm12.917 1.889l-.003-2.003-6.704-10.441-2.488 4.219 6.471 10.466 2.341-1.356a1.038 1.038 0 0 0 .383-.755z" fill="#28a0f0"/><path d="M1.852 25.631l3.304 1.904L16.152 9.901l-1.866-.048c-1.59-.022-3.303.391-4.089 1.674l-6.244 9.678-2.1 3.227v1.199zm20.646-15.73l-4.918.018L6.453 28.281l3.889 2.239 1.058-1.794z" fill="#fff"/><path d="M32.016 9.876a3.133 3.133 0 0 0-1.471-2.518L18.318.326a3.18 3.18 0 0 0-2.805 0C15.411.377 3.622 7.214 3.622 7.214a3.141 3.141 0 0 0-.468.277A3.109 3.109 0 0 0 1.851 9.87v14.562l2.1-3.227-.016-11.236a1.044 1.044 0 0 1 .432-.781A7026.36 7026.36 0 0 1 16.45 2.189a1.064 1.064 0 0 1 .922-.004l12.069 6.942a1.038 1.038 0 0 1 .48.827v13.919a1.014 1.014 0 0 1-.361.755l-2.341 1.356-1.207.7-4.315 2.501-4.376 2.536a1.061 1.061 0 0 1-.745-.015l-5.178-2.978-1.058 1.794 4.653 2.679.404.228.335.183a3.024 3.024 0 0 0 1.235.254 3.111 3.111 0 0 0 1.139-.214l12.711-7.361a3.108 3.108 0 0 0 1.198-2.341z" fill="#96bedc"/></svg>