<svg xmlns="http://www.w3.org/2000/svg" width="128" height="128" fill="none" xmlns:v="https://vecta.io/nano"><path d="M109.714 0H18.286A18.29 18.29 0 0 0 0 18.286v91.429A18.29 18.29 0 0 0 18.286 128h91.429A18.29 18.29 0 0 0 128 109.714V18.286A18.29 18.29 0 0 0 109.714 0z" fill="url(#A)"/><path opacity=".95" d="M57.905 33.524H27.429a9.14 9.14 0 0 0-9.143 9.143v42.667a9.14 9.14 0 0 0 1.763 5.381c1.142 1.562 2.751 2.721 4.594 3.311a9.14 9.14 0 0 0 10.222-3.389L65.341 47.97c.973-1.367 1.551-2.975 1.672-4.648a9.14 9.14 0 0 0-.99-4.839c-.767-1.491-1.931-2.743-3.363-3.618a9.14 9.14 0 0 0-4.754-1.34zM33.524 54.857a6.09 6.09 0 0 1-3.386-1.027 6.1 6.1 0 0 1-2.592-6.257c.235-1.183.816-2.268 1.668-3.121s1.938-1.433 3.121-1.668a6.1 6.1 0 0 1 3.522.347 6.09 6.09 0 0 1 2.735 2.245 6.1 6.1 0 0 1 1.027 3.386c0 1.617-.642 3.167-1.785 4.31s-2.693 1.785-4.31 1.785zm47.238 36.572a7.62 7.62 0 0 0 7.619-7.619 7.62 7.62 0 0 0-7.619-7.619 7.62 7.62 0 0 0-7.619 7.619 7.62 7.62 0 0 0 7.619 7.619z" fill="#0d0a03"/><path opacity=".95" d="M109.714 42.667v42.667c.003 2.282-.846 4.482-2.382 6.169a9.14 9.14 0 0 1-12.279 1.135c-1.819-1.377-3.058-3.384-3.473-5.628a10.08 10.08 0 0 1-.152-1.676v-6.949a9.14 9.14 0 0 0-1.79-5.357c-1.147-1.552-2.756-2.701-4.596-3.283s-3.817-.566-5.648.044-3.422 1.785-4.544 3.355l-4.754 6.674-7.65 10.728c-1.459 1.855-3.579 3.074-5.916 3.402a9.14 9.14 0 0 1-10.265-7.414 9.14 9.14 0 0 1 1.37-6.685L78.11 37.181a9.14 9.14 0 0 1 3.185-2.672c1.253-.634 2.634-.971 4.038-.985h15.238a9.14 9.14 0 0 1 9.143 9.143z" fill="#fffdfa"/><defs><radialGradient id="A" cx="0" cy="0" r="1" gradientUnits="userSpaceOnUse" gradientTransform="matrix(63.999999,0,0,63.999999,63.999999,63.999999)"><stop offset=".474" stop-color="#ffc640"/><stop offset="1" stop-color="#f2af13"/></radialGradient></defs></svg>