<svg xmlns="http://www.w3.org/2000/svg" xmlns:xlink="http://www.w3.org/1999/xlink" width="128" height="128" viewBox="0 0 33.867 33.867" xmlns:v="https://vecta.io/nano"><defs><linearGradient id="A" x1="20.147" y1="13.903" x2="17.941" y2="13.502" xlink:href="#Z"><stop stop-color="#231f20"/><stop offset="1" stop-color="#fff"/></linearGradient><linearGradient id="B" x1="22.875" y1="19.776" x2="24.614" y2="20.177" xlink:href="#Z"><stop stop-color="#231f20"/><stop offset="1" stop-color="#fff"/></linearGradient><linearGradient id="C" x1="16.39" y1="10.286" x2="15.788" y2="8.213" xlink:href="#Z"><stop stop-color="#231f20"/><stop offset="1" stop-color="#fff"/></linearGradient><linearGradient id="D" x1="12.346" y1="15.861" x2="13.215" y2="17.667" xlink:href="#Z"><stop stop-color="#231f20"/><stop offset="1" stop-color="#fff"/></linearGradient><linearGradient id="E" x1="13.365" y1="20.536" x2="10.556" y2="21.873" xlink:href="#Z"><stop stop-color="#231f20"/><stop offset="1" stop-color="#fff"/></linearGradient><linearGradient id="F" x1="18.2" y1="21.376" x2="19.604" y2="19.437" xlink:href="#Z"><stop stop-color="#231f20"/><stop offset="1" stop-color="#fff"/></linearGradient><linearGradient id="G" x1="23.066" y1="24.219" x2="22.21" y2="21.021" xlink:href="#Z"><stop stop-color="#231f20"/><stop offset="1" stop-color="#fff"/></linearGradient><linearGradient id="H" x1="7.556" y1="18.602" x2="10.753" y2="19.459" xlink:href="#Z"><stop stop-color="#231f20"/><stop offset="1" stop-color="#fff"/></linearGradient><linearGradient id="I" x1="20.177" y1="7.978" x2="17.836" y2="10.318" xlink:href="#Z"><stop stop-color="#231f20"/><stop offset="1" stop-color="#fff"/></linearGradient><linearGradient id="J" x1="6.004" y1="21.37" x2="3.772" y2="14.118" xlink:href="#Z"><stop stop-color="#231f20"/><stop offset="1" stop-color="#fff"/></linearGradient><linearGradient id="K" x1="26.238" y1="24.184" x2="21.073" y2="29.742" xlink:href="#Z"><stop stop-color="#231f20"/><stop offset="1" stop-color="#fff"/></linearGradient><linearGradient id="L" x1="18.56" y1="5.25" x2="25.956" y2="6.944" xlink:href="#Z"><stop stop-color="#231f20"/><stop offset="1" stop-color="#fff"/></linearGradient><linearGradient id="M" x1="30.384" y1="22.773" x2="31.988" y2="17.892" xlink:href="#Z"><stop stop-color="#231f20"/><stop offset="1" stop-color="#fff"/></linearGradient><linearGradient id="N" x1="5.621" y1="23.499" x2="10.235" y2="28.313" xlink:href="#Z"><stop stop-color="#231f20"/><stop offset="1" stop-color="#fff"/></linearGradient><linearGradient id="O" x1="16.046" y1="2.459" x2="10.53" y2="4.064" xlink:href="#Z"><stop stop-color="#231f20"/><stop offset="1" stop-color="#fff"/></linearGradient><linearGradient id="P" x1="15.261" y1="4.061" x2="13.499" y2="7.213" xlink:href="#Z"><stop stop-color="#fff" stop-opacity="0"/><stop offset="1" stop-color="#fff"/></linearGradient><radialGradient id="Q" cx="0" cy="0" r="1" gradientTransform="matrix(-1.8729515,3.2440472,-3.2440472,-1.8729515,11.901762,8.6127658)" xlink:href="#Z"><stop stop-color="#fff"/><stop offset="1" stop-color="#fff" stop-opacity="0"/></radialGradient><radialGradient id="R" cx="0" cy="0" r="1" gradientTransform="matrix(-3.2191915,5.5758033,-5.5758033,-3.2191915,17.183158,22.528776)" xlink:href="#Z"><stop stop-color="#fff"/><stop offset="1" stop-color="#fff" stop-opacity="0"/></radialGradient><linearGradient id="S" x1="28.916" y1="21.922" x2="27.067" y2="18.82" xlink:href="#Z"><stop stop-color="#fff" stop-opacity="0"/><stop offset="1" stop-color="#fff"/></linearGradient><radialGradient id="T" cx="0" cy="0" r="1" gradientTransform="matrix(-1.8729515,-3.2440472,3.2440472,-1.8729515,26.653749,16.736784)" xlink:href="#Z"><stop stop-color="#fff"/><stop offset="1" stop-color="#fff" stop-opacity="0"/></radialGradient><radialGradient id="U" cx="0" cy="0" r="1" gradientTransform="matrix(-3.2191915,-5.5758033,5.5758033,-3.2191915,11.551468,14.467039)" xlink:href="#Z"><stop stop-color="#fff"/><stop offset="1" stop-color="#fff" stop-opacity="0"/></radialGradient><linearGradient id="V" x1="6.622" y1="24.816" x2="10.233" y2="24.766" xlink:href="#Z"><stop stop-color="#fff" stop-opacity="0"/><stop offset="1" stop-color="#fff"/></linearGradient><radialGradient id="W" cx="0" cy="0" r="1" gradientTransform="matrix(3.7459031,0,0,3.7459031,12.243251,25.449664)" xlink:href="#Z"><stop stop-color="#fff"/><stop offset="1" stop-color="#fff" stop-opacity="0"/></radialGradient><radialGradient id="X" cx="0" cy="0" r="1" gradientTransform="matrix(6.4383833,0,0,6.4383833,21.760014,13.505677)" xlink:href="#Z"><stop stop-color="#fff"/><stop offset="1" stop-color="#fff" stop-opacity="0"/></radialGradient><linearGradient id="Y" x1="5.377" y1="28.49" x2="26.97" y2="6.897" xlink:href="#Z"><stop offset=".001" stop-color="#e6007a"/><stop offset=".207" stop-color="#703ac2"/><stop offset=".456" stop-color="#0070eb"/><stop offset=".768" stop-color="#0297fb"/><stop offset="1" stop-color="#0ae2ff"/></linearGradient><linearGradient id="Z" gradientUnits="userSpaceOnUse"/></defs><path d="M33.827 15.784C33.192 6.454 25.114-.595 15.784.04 11.136.356 7.055 2.52 4.208 5.765h0L4.2 5.759l-.056.079C1.315 9.099-.276 13.435.04 18.082c.03.443.082.879.145 1.311l.009.059c.043.285.092.567.148.847a16.98 16.98 0 0 0 .174.769h0c1.956 7.799 9.263 13.323 17.567 12.758 9.33-.635 16.379-8.713 15.744-18.043zm-3.686.251c.078 1.149.006 2.273-.199 3.355-.003-.006-.005-.013-.007-.019h0c-1.228-3.001-3.656-5.167-5.791-6.364.432-5.085-1.293-7.227-3.245-7.575-.053-.01-.106-.019-.161-.026a2.83 2.83 0 0 0-3.165 2.446 2.83 2.83 0 0 0 2.847 3.185c.009.172.014.354.015.545-1.805-.447-3.493-.535-5.031-.397-.575.038-1.151.111-1.724.218.192-1.717.836-3.644 2.086-5.055 1.208-1.364 3.005-2.145 4.964-1.945a5.34 5.34 0 0 1 1.125.249c.016.005.034.01.05.016 4.54 1.848 7.88 6.156 8.235 11.366zm-11.802 2.586a12.04 12.04 0 0 1-1.452 1.719 12.64 12.64 0 0 1-2.04-2.871l-.08-.159c-.306-.648-.563-1.351-.762-2.118a12.64 12.64 0 0 1 3.51-.332l.178.01a12.04 12.04 0 0 1 2.212.398 12.64 12.64 0 0 1-1.467 3.205l-.098.149zM12.553 4.443l-.01.012c-1.984 2.562-2.646 5.746-2.616 8.194-4.619 2.168-5.612 4.733-4.937 6.598a2.44 2.44 0 0 0 .058.152 2.83 2.83 0 0 0 3.701 1.518 2.83 2.83 0 0 0 1.518-3.701c-.053-.126-.116-.244-.184-.357.146-.094.303-.191.469-.289.515 1.787 1.277 3.299 2.166 4.562a14.7 14.7 0 0 0 1.048 1.381c-1.583.692-3.575 1.099-5.422.721-1.785-.365-3.36-1.53-4.166-3.327-.153-.341-.272-.729-.347-1.098-.046-.322-.084-.647-.107-.977-.413-6.066 3.351-11.466 8.827-13.388zm5.279 25.698c-3.602.245-6.969-.984-9.514-3.167 3.211.437 6.3-.582 8.404-1.832 4.189 2.919 6.907 2.496 8.186.979.035-.041.07-.083.103-.126a2.83 2.83 0 0 0-.536-3.964 2.83 2.83 0 0 0-3.964.536 2.82 2.82 0 0 0-.218.338 12.82 12.82 0 0 1-.482-.26c1.291-1.34 2.212-2.759 2.862-4.161a14.72 14.72 0 0 0 .673-1.602c1.392 1.025 2.741 2.547 3.338 4.336.577 1.728.355 3.675-.798 5.272-.219.303-.496.6-.778.849-2.03 1.597-4.527 2.616-7.276 2.803z" fill="url(#Y)"/><path style="mix-blend-mode:overlay" opacity=".9" d="M20.899 5.432l-.161-.026c-.274-.035-.544-.028-.804.013 1.62.881 2.801 3.337 2.18 8.18a14.43 14.43 0 0 1-1.371 4.531c-.558 1.204-1.318 2.42-2.338 3.589a13.26 13.26 0 0 0 1.406.924c1.291-1.34 2.212-2.759 2.862-4.161.689-1.401 1.166-2.927 1.371-4.531.739-5.767-1.076-8.149-3.145-8.519z" fill="url(#X)"/><g style="mix-blend-mode:overlay" opacity=".8"><path d="M22.115 13.6c.621-4.843-.56-7.299-2.18-8.18l-.187.038c1.586.912 2.727 3.365 2.115 8.142a14.43 14.43 0 0 1-1.371 4.531c-.54 1.165-1.269 2.34-2.24 3.472l.154.117a15.07 15.07 0 0 0 2.338-3.589 14.43 14.43 0 0 0 1.371-4.531z" fill="#fff"/></g><path style="mix-blend-mode:overlay" opacity=".5" d="M15.958 24.585l-.445-.359c-2.391.997-5.704 1.623-8.995.859.539.687 1.14 1.321 1.801 1.888 3.211.437 6.3-.582 8.404-1.832l-.764-.557z" fill="url(#W)"/><path style="mix-blend-mode:overlay" opacity=".6" d="M15.512 24.227l-.219-.183c-2.409.962-5.738 1.538-9.021.72l.245.322c3.291.764 6.604.138 8.995-.859z" fill="url(#V)"/><path style="mix-blend-mode:overlay" opacity=".9" d="M4.99 19.249l.058.152c.107.255.248.485.413.689-.047-1.843 1.489-4.094 5.994-5.978 1.492-.624 3.053-.974 4.61-1.078 1.322-.119 2.755-.069 4.277.231a13.26 13.26 0 0 0 .097-1.679c-1.807-.448-3.495-.536-5.035-.397-1.558.104-3.118.454-4.61 1.078-5.364 2.243-6.52 5.006-5.805 6.983z" fill="url(#U)"/><g style="mix-blend-mode:overlay" opacity=".8"><path d="M11.456 14.113c-4.505 1.884-6.041 4.134-5.994 5.978l.126.143c-.003-1.829 1.55-4.044 5.994-5.902a14.43 14.43 0 0 1 4.61-1.078c1.278-.115 2.661-.07 4.127.203l.024-.192c-1.522-.3-2.955-.35-4.277-.231-1.558.104-3.118.454-4.61 1.078z" fill="#fff"/></g><path style="mix-blend-mode:overlay" opacity=".4" d="M24.048 13.952l-.088.565c2.059 1.572 4.257 4.129 5.241 7.36.325-.81.574-1.648.735-2.503-1.227-2.999-3.653-5.165-5.788-6.362l-.1.94z" fill="url(#T)"/><path style="mix-blend-mode:overlay" opacity=".5" d="M23.96 14.517l-.049.281c2.038 1.605 4.201 4.2 5.134 7.452l.157-.373c-.984-3.231-3.182-5.789-5.241-7.36z" fill="url(#S)"/><path style="mix-blend-mode:overlay" opacity=".9" d="M24.909 26.117l.103-.126c.168-.22.296-.457.39-.703-1.573.962-4.29.757-8.174-2.202-1.286-.98-2.37-2.157-3.239-3.453-.764-1.086-1.437-2.351-1.939-3.819a13.25 13.25 0 0 0-1.503.756c.515 1.788 1.284 3.295 2.173 4.559.869 1.297 1.952 2.473 3.239 3.453 4.625 3.524 7.595 3.143 8.95 1.536z" fill="url(#R)"/><g style="mix-blend-mode:overlay" opacity=".8"><path d="M17.228 23.086c3.884 2.959 6.601 3.164 8.174 2.202l.061-.181c-1.582.918-4.277.679-8.109-2.24a14.43 14.43 0 0 1-3.239-3.453 15.07 15.07 0 0 1-1.887-3.676l-.178.075c.502 1.468 1.175 2.734 1.939 3.819.869 1.297 1.952 2.473 3.239 3.453z" fill="#fff"/></g><path style="mix-blend-mode:overlay" opacity=".3" d="M10.793 12.262l.533-.206c.331-2.569 1.447-5.752 3.753-8.219-.864.123-1.714.327-2.535.616-1.984 2.562-2.646 5.746-2.616 8.194l.864-.384z" fill="url(#Q)"/><path style="mix-blend-mode:overlay" opacity=".4" d="M11.326 12.055l.268-.098c.371-2.567 1.537-5.738 3.887-8.172l-.401.051c-2.307 2.468-3.422 5.65-3.753 8.219z" fill="url(#P)"/><path style="mix-blend-mode:multiply" opacity=".4" d="M15.784.04C11.136.356 7.055 2.52 4.208 5.765l-.064.074h0c.554.55 2.366 1.634 3.101 2.087 1.442-1.551 3.255-2.761 5.308-3.482a10.87 10.87 0 0 1 .45-.545C14.915 1.74 17.527.599 20.557.599c.337 0 1.024.054 1.039.055A16.86 16.86 0 0 0 15.784.04z" fill="url(#O)"/><path style="mix-blend-mode:multiply" opacity=".4" d="M17.832 30.141c-3.602.245-6.969-.984-9.514-3.167h0 0a10.95 10.95 0 0 1-.712-.12c-2.826-.577-5.12-2.269-6.634-4.893-.169-.292-.319-.59-.455-.892 1.956 7.799 9.263 13.322 17.566 12.757.037-.855-.215-2.839-.251-3.686z" fill="url(#N)"/><path style="mix-blend-mode:multiply" opacity=".4" d="M33.827 15.784c-.52-.053-3.061.147-3.686.251.078 1.149.006 2.273-.199 3.355l.246.657c.913 2.736.595 5.568-.92 8.192l-.534.825c3.441-3.342 5.444-8.118 5.093-13.281z" fill="url(#M)"/><path style="mix-blend-mode:multiply" opacity=".5" d="M20.732 4.404a5.34 5.34 0 0 1 1.125.249l.05.016a13.28 13.28 0 0 1 3.95 2.497c.563-.629 1.633-1.327 1.633-1.327s-1.638-1.676-4.144-2.196c-1.754-.364-5.71-.717-8.206 3.529l.024-.023a7.13 7.13 0 0 1 .603-.801c1.208-1.364 3.005-2.145 4.964-1.945z" fill="url(#L)"/><path style="mix-blend-mode:multiply" opacity=".5" d="M25.885 26.487c-.219.303-.496.6-.778.849l-.039.035c-1.245.969-2.65 1.7-4.138 2.172.263.802.333 2.078.333 2.078s2.27-.581 3.973-2.491c1.192-1.337 3.476-4.587 1.046-8.871l.008.033c.149.299.286.605.392.922.577 1.728.355 3.675-.798 5.272z" fill="url(#K)"/><path style="mix-blend-mode:multiply" opacity=".5" d="M4.185 19.913c-.153-.341-.272-.73-.347-1.099l-.011-.051a13.28 13.28 0 0 1 .188-4.669c-.827-.173-1.966-.751-1.966-.751s-.632 2.257.17 4.686c.562 1.701 2.234 5.304 7.159 5.342l-.032-.01a7.13 7.13 0 0 1-.995-.122c-1.785-.365-3.36-1.53-4.166-3.327z" fill="url(#J)"/><path style="mix-blend-mode:multiply" opacity=".6" d="M20.019 11.018a2.83 2.83 0 0 0 .401.02s-.088-1.759-.304-2.662-.535-1.5-.885-1.839c-.251-.242-1.042-.544-1.658 1.316a2.83 2.83 0 0 0 2.446 3.165z" fill="url(#I)"/><path style="mix-blend-mode:multiply" opacity=".5" d="M10.268 17.219c-.053-.126-.116-.244-.184-.357 0 0-1.479.956-2.153 1.595s-1.032 1.213-1.15 1.686c-.085.338.05 1.175 1.969.778a2.83 2.83 0 0 0 1.518-3.701z" fill="url(#H)"/><path style="mix-blend-mode:multiply" opacity=".6" d="M20.512 22.562c-.082.109-.153.222-.218.338 0 0 1.568.803 2.458 1.067s1.567.287 2.035.153c.335-.096.993-.631-.311-2.094a2.83 2.83 0 0 0-3.964.535z" fill="url(#G)"/><path style="mix-blend-mode:multiply" opacity=".3" d="M19.903 15.267a12.64 12.64 0 0 1-1.467 3.205l-.098.149a12.04 12.04 0 0 1-1.452 1.719 13.59 13.59 0 0 0 1.267 1.191c.578.456 1.145.823 1.657 1.114 1.291-1.34 2.212-2.759 2.862-4.161a14.72 14.72 0 0 0 .673-1.602c-.596-.439-1.199-.788-1.755-1.025-.575-.245-1.137-.438-1.687-.589z" fill="url(#F)"/><path style="mix-blend-mode:multiply" opacity=".3" d="M8.318 26.974c3.211.437 6.3-.582 8.404-1.832l-.764-.557a14.27 14.27 0 0 1-2.19-2.072c-1.583.692-3.575 1.099-5.422.721-1.785-.365-3.36-1.53-4.166-3.327-.153-.341-.272-.729-.347-1.098a13.2 13.2 0 0 0 4.486 8.165z" fill="url(#E)"/><path style="mix-blend-mode:multiply" opacity=".3" d="M16.886 20.34c-.846-.9-1.525-1.869-2.04-2.871l-.08-.159c-.306-.648-.563-1.351-.762-2.118a13.59 13.59 0 0 0-1.661.501c-.683.272-1.283.579-1.79.877.515 1.787 1.277 3.299 2.166 4.562a14.7 14.7 0 0 0 1.048 1.381c.679-.297 1.284-.645 1.768-1.009a13.3 13.3 0 0 0 1.352-1.164z" fill="url(#D)"/><path style="mix-blend-mode:multiply" opacity=".3" d="M12.543 4.455c-1.984 2.562-2.646 5.746-2.616 8.194l.868-.385c.941-.393 1.909-.677 2.887-.86.192-1.717.836-3.644 2.086-5.055 1.208-1.364 3.005-2.145 4.964-1.945a5.34 5.34 0 0 1 1.125.249l.05.016c-1.805-.737-3.799-1.084-5.871-.943a13.2 13.2 0 0 0-3.482.718z" fill="url(#C)"/><path style="mix-blend-mode:multiply" opacity=".3" d="M29.935 19.371c-1.228-3.001-3.656-5.167-5.791-6.364l-.1.944a14.27 14.27 0 0 1-.698 2.93c1.392 1.025 2.741 2.547 3.338 4.336.577 1.728.355 3.675-.798 5.272-.219.303-.496.6-.778.849 2.474-1.943 4.232-4.759 4.835-7.948l-.007-.019z" fill="url(#B)"/><path style="mix-blend-mode:multiply" opacity=".3" d="M13.671 13.44a13.3 13.3 0 0 0 .332 1.752 12.64 12.64 0 0 1 3.51-.332l.178.01a12.04 12.04 0 0 1 2.212.398c.163-.541.299-1.103.397-1.69.106-.73.14-1.405.136-1.995-1.805-.447-3.493-.535-5.031-.397-.575.038-1.151.111-1.724.218-.082.737-.083 1.435-.01 2.036z" fill="url(#A)"/></svg>