<svg xmlns="http://www.w3.org/2000/svg" width="128" height="128" viewBox="0 0 33.867 33.867" xmlns:v="https://vecta.io/nano"><path d="M16.933 1.058c-2.255 0-4.316 1.274-5.325 3.291L1.687 24.193c-.923 1.845-.824 4.037.261 5.792s3.001 2.823 5.064 2.823h19.844c2.063 0 3.979-1.068 5.064-2.823s1.183-3.947.261-5.792L22.258 4.349c-1.008-2.017-3.07-3.291-5.325-3.291m0 2.425a3.51 3.51 0 0 1 3.155 1.95l9.922 19.844c.551 1.102.493 2.385-.154 3.432s-1.769 1.673-3.001 1.673H7.011c-1.232 0-2.353-.626-3.001-1.673s-.705-2.331-.154-3.432l9.922-19.844a3.51 3.51 0 0 1 3.155-1.95" fill="#5deb5a"/></svg>