<svg xmlns="http://www.w3.org/2000/svg" width="128" height="128" viewBox="0 0 33.867 33.867" xmlns:v="https://vecta.io/nano"><path d="M6.46 5.795h20.924v19.03H6.46z"/><path fill-rule="evenodd" d="M33.867 16.933c0 9.352-7.581 16.933-16.933 16.933S0 26.285 0 16.933 7.581 0 16.933 0s16.933 7.581 16.933 16.933zm-21.732 6.739H8.849c-.691 0-1.032 0-1.24-.133-.225-.146-.362-.387-.379-.653-.013-.245.158-.545.499-1.144L15.843 7.44c.345-.607.52-.911.74-1.023.237-.121.52-.121.757 0 .22.112.395.416.74 1.023l1.668 2.912.008.015c.373.652.562.982.645 1.329a2.47 2.47 0 0 1 0 1.156c-.083.349-.27.682-.649 1.344L15.49 21.73l-.011.019c-.375.657-.566.99-.829 1.241a2.48 2.48 0 0 1-1.011.587c-.345.096-.732.096-1.506.096zm8.299 0h4.709c.695 0 1.044 0 1.252-.137.225-.146.366-.391.379-.657.012-.237-.155-.525-.482-1.09l-.034-.059-2.359-4.035-.027-.045c-.331-.561-.499-.844-.714-.953a.83.83 0 0 0-.753 0c-.216.112-.391.408-.736 1.003l-2.35 4.035-.008.014c-.344.594-.516.891-.504 1.134.017.266.154.512.379.657.204.133.553.133 1.248.133z" fill="#fff"/></svg>