<svg xmlns="http://www.w3.org/2000/svg" width="128" height="128" xmlns:v="https://vecta.io/nano"><path d="M108.771 40.626c0-9.105-4.463-17.164-11.323-22.111L115.963 0l-11.068.051-14.715 14.715c-2.729-.918-5.636-1.403-8.671-1.403H30.859v71.74l60.978-60.978c5.483 3.443 9.156 9.564 9.156 16.526 0 10.737-8.748 19.484-19.484 19.484h-1.607L12.037 128h11.017l13.313-13.313h45.14c15.047 0 27.263-12.241 27.263-27.263 0-9.921-5.33-18.592-13.262-23.361 7.931-4.82 13.262-13.517 13.262-23.437zM38.637 66.283v-45.14h42.871a20.18 20.18 0 0 1 2.168.128zm62.355 21.091c0 10.737-8.748 19.484-19.484 19.484H44.146l38.816-38.816c10.048.765 18.031 9.105 18.031 19.331z" fill="#4520e6"/></svg>