<?xml version="1.0" encoding="UTF-8" standalone="no"?>
<svg
   width="112.00001"
   height="127.99999"
   viewBox="0 0 112.00001 127.99999"
   fill="none"
   version="1.1"
   id="svg4"
   sodipodi:docname="beaneco.svg"
   xml:space="preserve"
   inkscape:export-filename="..\transparentSVGs\beaneco.png"
   inkscape:export-xdpi="96"
   inkscape:export-ydpi="96"
   xmlns:inkscape="http://www.inkscape.org/namespaces/inkscape"
   xmlns:sodipodi="http://sodipodi.sourceforge.net/DTD/sodipodi-0.dtd"
   xmlns="http://www.w3.org/2000/svg"
   xmlns:svg="http://www.w3.org/2000/svg"><defs
     id="defs8" /><sodipodi:namedview
     id="namedview6"
     pagecolor="#ffffff"
     bordercolor="#000000"
     borderopacity="0.25"
     inkscape:showpageshadow="2"
     inkscape:pageopacity="0.0"
     inkscape:pagecheckerboard="0"
     inkscape:deskcolor="#d1d1d1"
     showgrid="false" /><path
     d="m 103.53824,102.25557 c 5.37867,-3.247467 8.34614,-8.167473 8.39254,-14.662946 0.0923,-15.666683 0.0923,-31.380299 0,-47.046875 -0.0464,-6.448006 -2.82827,-11.463158 -8.25334,-14.711055 C 90.648625,18.001513 77.620345,10.311638 64.545132,2.5262493 58.749393,-0.91269834 52.953653,-0.81717291 47.157967,2.6695401 36.911184,8.8309971 26.6644,14.896923 16.417669,21.010583 c -2.781976,1.671735 -5.610246,3.247896 -8.3458206,4.967365 -4.17289,2.579256 -6.7693565,6.35254 -7.74303002,11.272118 -0.5563857,2.913603 -0.1854616,5.827153 -0.3245583,8.740702 -0.046366,1.098561 0.2781929,1.385122 1.34459982,1.385122 C 22.723329,47.3281 44.144204,47.3281 65.518466,47.3281 c 0.695468,0 1.391468,0 2.086936,0.09552 2.178669,0.286614 4.033604,2.101602 4.497071,4.250938 0.741867,3.58203 -1.808002,6.782567 -5.470939,6.782567 -10.849611,0 -21.699116,0 -32.54862,0 -2.92107,0 -5.100219,2.053868 -5.100219,4.871471 -0.04635,7.881075 -0.04635,15.71415 0,23.595224 0,2.865603 2.040056,4.919472 4.775632,4.919472 11.081345,0 22.162796,0.09547 33.243874,-0.04747 6.676807,-0.09547 11.684279,-3.438936 14.466148,-9.648543 2.78187,-6.161073 1.993602,-12.131746 -2.086402,-17.529084 -0.509867,-0.668268 -0.1856,-0.955201 0.1392,-1.385068 3.152537,-4.250672 4.172804,-9.02721 3.01387,-14.233295 -1.715735,-7.689875 -8.206942,-12.84828 -16.089083,-12.84828 -17.757885,0 -35.46953,0 -53.227521,0 -0.417281,0 -0.834561,0 -1.437335,0 0.64912,-0.955308 1.437335,-1.337388 2.225549,-1.767255 12.796866,-7.642141 25.640133,-15.236442 38.436999,-22.878584 2.410829,-1.432908 4.729232,-1.432908 7.140434,0 12.843213,7.689875 25.732826,15.332016 38.622442,22.974104 2.549868,1.528428 3.755738,3.63003 3.755738,6.6391 -0.0464,5.636059 0,11.272118 0,16.860337 0,9.64801 0,19.296554 0,28.992564 0,2.817602 -1.06667,4.966938 -3.431468,6.352006 -12.982419,7.737606 -25.964299,15.427746 -38.946712,23.117356 -2.411202,1.43307 -4.729605,1.48107 -7.140434,0.048 -12.75052,-7.59414 -25.501039,-15.23629 -38.344253,-22.782956 -2.781922,-1.624001 -4.080164,-3.868804 -4.033817,-7.164274 0.09275,-8.979742 0,-17.958951 0.0464,-26.938694 0,-0.907734 -0.2318396,-1.241601 -1.1591466,-1.194134 -2.64283,0.048 -5.285675,0.048 -7.8821417,0 -0.74184932,0 -1.06640762,0.143466 -1.06640762,1.003201 0.046366,9.361609 -0.046366,18.675219 0.046366,28.036828 0.046365,6.591474 3.01375532,11.606412 8.57759632,14.901879 12.9823586,7.73814 26.0110656,15.52322 39.0397726,23.21336 5.517499,3.24747 11.174198,3.24747 16.691537,0 13.075213,-7.69014 26.150426,-15.47522 39.178708,-23.30883 z M 66.631534,80.762217 c -4.265604,0 -8.531209,0 -12.750413,0 -4.358511,0 -8.763262,0 -13.121614,0 -0.741814,0 -1.020001,-0.190933 -0.973654,-1.002668 0.04635,-3.057069 0.04635,-6.161606 0,-9.218676 0,-0.811734 0.23184,-1.002667 0.973654,-1.002667 8.670356,0.04747 17.340818,0 26.011227,0.04747 3.152537,0 5.563739,2.531736 5.470939,5.68374 -0.0928,3.104536 -2.503469,5.445338 -5.610139,5.492805 z"
     fill="#000000"
     id="path2"
     style="fill:#fcd535;fill-opacity:1;stroke-width:1" /></svg>
