<svg xmlns="http://www.w3.org/2000/svg" width="128" height="128" xmlns:v="https://vecta.io/nano"><g transform="matrix(2 0 0 2 -572 -1402)"><circle cx="318" cy="733" r="32" fill="#ea5615"/><path d="M326.224 731.827a7.3 7.3 0 0 0 3.184-6.289c0-4.631-2.774-7.718-7.567-8.573v-1.76h-4.83v1.52h-4.321v-1.52h-4.829v1.52h-3.959l5.948 8.012h-3.623v16.527h3.623l-5.948 8.013h3.959v1.518h4.83v-1.518h4.32v1.518h4.83v-1.535c5.772-.246 10.257-3.623 10.257-9.462 0-4.517-2.51-6.821-5.874-7.972m-13.182-8.945h5.022c2.825 0 4.483 1.328 4.483 3.543 0 2.17-1.7 3.588-4.3 3.588h-5.205zm7.26 20.239h-7.26v-7.75h7.085c3.183 0 5.02 1.373 5.02 3.9s-1.882 3.85-4.845 3.85z" fill="#fff"/></g></svg>