<svg xmlns="http://www.w3.org/2000/svg" width="128" height="128" viewBox="0 0 33.867 33.867" xmlns:v="https://vecta.io/nano"><path fill="#f7931a" d="M33.358 21.03c-2.262 9.072-11.45 14.592-20.522 12.33S-1.754 21.91.509 12.839A16.93 16.93 0 0 1 21.027.507C30.099 2.768 35.62 11.958 33.358 21.03h0z"/><path fill="#fff" d="M24.4 14.521c.337-2.253-1.379-3.465-3.725-4.273l.761-3.053-1.858-.463-.741 2.972-1.489-.35.746-2.992-1.857-.463-.761 3.052-1.186-.279.002-.01-2.562-.64-.494 1.985 1.35.335c.752.188.889.686.866 1.081l-.867 3.478c.052.013.119.032.193.062l-.196-.049-1.215 4.872c-.092.229-.325.572-.851.441.019.027-1.351-.337-1.351-.337l-.923 2.127 2.418.603 1.325.342-.769 3.088 1.856.463.761-3.055 1.481.384-.759 3.04 1.858.463.769-3.082c3.169.6 5.551.358 6.554-2.508.808-2.307-.04-3.638-1.707-4.506 1.214-.28 2.129-1.079 2.372-2.728H24.4zm-4.245 5.953c-.574 2.307-4.459 1.06-5.719.747l1.02-4.09c1.259.314 5.299.937 4.699 3.343zm.575-5.987c-.524 2.099-3.757 1.033-4.806.771l.925-3.71c1.049.261 4.427.749 3.881 2.939z"/></svg>