<svg xmlns="http://www.w3.org/2000/svg" width="128" height="128" fill="#fff" xmlns:v="https://vecta.io/nano"><path d="M114.14 88.186h-.544a17.121 17.121 0 0 1-6.522 4.62h-.272a15.762 15.762 0 0 1-7.066 1.359 19.839 19.839 0 0 1-10.327-2.174h-.815a18.48 18.48 0 0 1-7.338-7.066v-.544l-6.794 6.794-1.902 10.055h.272a35.057 35.057 0 0 0 26.361 11.686h1.087a38.59 38.59 0 0 0 18.752-4.892h0a42.667 42.667 0 0 0 8.696-5.979H128zM20.11 55.031h0l2.718 10.055.544-.815a18.208 18.208 0 0 1 12.229-8.153h.272a18.48 18.48 0 0 1 5.435-.544 20.382 20.382 0 0 1 7.881 2.446h0a28.535 28.535 0 0 1 8.696 7.338l.544.544 6.251-8.968h0l1.902-9.512h0l-.815-.544a38.59 38.59 0 0 0-14.403-8.425 34.786 34.786 0 0 0-8.968-1.631h-.272a41.308 41.308 0 0 0-19.567 5.163h0l-2.718 11.958zM79.626 81.12h0v-6.25a18.48 18.48 0 0 1 4.076-12.229h.272l1.087-1.359a19.839 19.839 0 0 1 14.132-5.979h2.718a21.741 21.741 0 0 1 11.414 5.707h.272l13.588-13.588h-.544a38.59 38.59 0 0 0-25.274-11.142H98.65a45.113 45.113 0 0 0-16.577 3.261 34.514 34.514 0 0 0-9.24 6.251h-.544l-2.718 2.989h0l-2.174 9.512-7.338 9.783v7.066a20.11 20.11 0 0 1-11.414 17.936h0a20.382 20.382 0 0 1-28.263-17.936v-6.794l-3.533-13.86 2.989-12.773V21.333L0 14.539l.544 44.84h0v16.034a3.533 3.533 0 0 0 .272 1.631h.272a37.775 37.775 0 0 0 14.675 27.992h0a41.308 41.308 0 0 0 25.002 8.425h1.631a36.144 36.144 0 0 0 24.73-9.512h0l2.718-2.989h0l2.174-11.142 7.609-8.968z"/></svg>