<svg xmlns="http://www.w3.org/2000/svg" width="128" height="128" viewBox="0 0 33.867 33.867" xmlns:v="https://vecta.io/nano"><defs><linearGradient id="A" x1="5.885" y1="25.768" x2="28.319" y2="25.768" gradientUnits="userSpaceOnUse"><stop offset=".218" stop-color="#4a0ee1"/><stop offset=".862" stop-color="#10dcb7"/></linearGradient></defs><path d="M6.228 6.874l10.638 6.084a.32.32 90.089 0 1-.001.555l-4.208 2.389a.38.38 179.209 0 1-.366.005l-1.658-.882v3.276l12.047-6.783-12.047-6.631v2.659a.317.317 149.891 0 1-.475.275l-4.193-2.4a.161.161 59.891 0 1-.081-.139V2.273C6.008 1.22 6.837.393 7.682 0h2.951l16.572 9.107.733.975.005 3.057-.737 1.058L6.403 26.453a.344.344 29.748 0 1-.519-.297V7.074a.23.23 149.883 0 1 .344-.2z" fill="#4a0ee1"/><path d="M5.884 31.205v-2.98a.289.289 119.743 0 1 .142-.249l4.33-2.552a.183.183 29.743 0 1 .276.158v2.886l12.126-6.992-2.541-1.352a.294.294 88.864 0 1-.01-.514l3.812-2.227a.577.577 179.743 0 1 .578-.003l2.607 1.492.778 1.154-.001 2.92-.777 1.016-16.572 9.905H7.674c-.864-.539-1.774-1.653-1.79-2.662z" fill="url(#A)" paint-order="markers fill stroke"/></svg>