<?xml version="1.0" encoding="UTF-8" standalone="no"?>
<svg
   width="128"
   height="128"
   viewBox="0 0 33.867 33.867"
   version="1.1"
   id="svg13"
   sodipodi:docname="bitgert.svg"
   inkscape:version="1.2.2 (732a01da63, 2022-12-09)"
   xmlns:inkscape="http://www.inkscape.org/namespaces/inkscape"
   xmlns:sodipodi="http://sodipodi.sourceforge.net/DTD/sodipodi-0.dtd"
   xmlns="http://www.w3.org/2000/svg"
   xmlns:svg="http://www.w3.org/2000/svg">
  <sodipodi:namedview
     id="namedview15"
     pagecolor="#ffffff"
     bordercolor="#000000"
     borderopacity="0.25"
     inkscape:showpageshadow="2"
     inkscape:pageopacity="0.0"
     inkscape:pagecheckerboard="0"
     inkscape:deskcolor="#d1d1d1"
     showgrid="false"
     showguides="true"
     inkscape:zoom="5.6568543"
     inkscape:cx="68.677746"
     inkscape:cy="62.225397"
     inkscape:window-width="1920"
     inkscape:window-height="1009"
     inkscape:window-x="-8"
     inkscape:window-y="-8"
     inkscape:window-maximized="1"
     inkscape:current-layer="svg13">
    <inkscape:grid
       type="xygrid"
       id="grid856" />
  </sodipodi:namedview>
  <defs
     id="defs7">
    <inkscape:path-effect
       effect="fillet_chamfer"
       id="path-effect1156"
       is_visible="true"
       lpeversion="1"
       nodesatellites_param="F,1,0,1,0,0.03,0,1 @ F,1,0,1,0,0.03,0,1 @ F,1,0,1,0,0.03,0,1 @ F,1,0,1,0,0.03,0,1 @ F,1,0,1,0,0.03,0,1 @ F,1,0,1,0,0.03,0,1 @ F,1,0,1,0,0.03,0,1 @ F,1,0,1,0,0.03,0,1 @ F,1,0,1,0,0.03,0,1 @ F,1,0,1,0,0.03,0,1"
       unit="px"
       method="auto"
       mode="F"
       radius="3"
       chamfer_steps="1"
       flexible="true"
       use_knot_distance="true"
       apply_no_radius="true"
       apply_with_radius="true"
       only_selected="false"
       hide_knots="false" />
    <inkscape:path-effect
       effect="fillet_chamfer"
       id="path-effect1154"
       is_visible="true"
       lpeversion="1"
       nodesatellites_param="F,1,0,1,0,0.03,0,1 @ F,1,0,1,0,0.03,0,1 @ F,1,0,1,0,0.03,0,1 @ F,1,0,1,0,0.03,0,1 @ F,1,0,1,0,0.03,0,1 @ F,1,0,1,0,0.03,0,1 @ F,1,0,1,0,0.03,0,1 @ F,1,0,1,0,0.03,0,1 @ F,1,0,1,0,0.03,0,1 @ F,1,0,1,0,0.03,0,1 @ F,1,0,1,0,0.03,0,1 @ F,1,0,1,0,0.03,0,1 @ F,1,0,1,0,0.03,0,1 @ F,1,0,1,0,0.03,0,1"
       unit="px"
       method="auto"
       mode="F"
       radius="3"
       chamfer_steps="1"
       flexible="true"
       use_knot_distance="true"
       apply_no_radius="true"
       apply_with_radius="true"
       only_selected="false"
       hide_knots="false" />
    <linearGradient
       id="A"
       x1="6.086"
       y1="25.734"
       x2="27.769"
       y2="25.734"
       gradientUnits="userSpaceOnUse"
       gradientTransform="translate(0.0439103,-0.2612532)">
      <stop
         offset=".218"
         stop-color="#4a0ee1"
         id="stop2" />
      <stop
         offset=".862"
         stop-color="#10dcb7"
         id="stop4" />
    </linearGradient>
  </defs>
  <path
     d="M 6.4614333,7.2119343 17.072354,13.280595 a 0.09267329,0.09267329 90.088707 0 1 -2.5e-4,0.161033 l -4.519752,2.566423 a 0.11007773,0.11007773 179.20934 0 1 -0.106045,0.0015 l -1.643541,-0.874166 a 0.05706146,0.05706146 149.00396 0 0 -0.08386,0.05038 l -1.4e-5,2.670159 a 0.23432314,0.23432314 30.308706 0 0 0.349292,0.204181 l 10.946423,-6.163683 a 0.22198448,0.22198448 89.723932 0 0 -0.0019,-0.387897 L 10.800336,5.3365767 a 0.05494506,0.05494506 149.41508 0 0 -0.08144,0.048135 l 2.9e-5,2.8472129 a 0.09200175,0.09200175 149.89077 0 1 -0.137699,0.079851 L 6.206971,5.8084292 A 0.15512998,0.15512998 59.891061 0 1 6.1288946,5.6737888 l 0,-2.7567451 c 0,-0.083891 -8.195e-4,-0.22014 0.00825,-0.3034979 0.1575051,-1.4473402 2.5342651,-2.5718423 4.0687506,-2.23391951 0.294712,0.0649011 0.728159,0.30628639 0.993536,0.45213264 l 15.42274,8.47606027 c 0.06277,0.034497 0.165075,0.089946 0.223224,0.1316892 0.969453,0.6959436 1.102661,3.1126376 0.372106,4.3268746 -0.202578,0.3367 -0.758379,0.686784 -1.099807,0.887936 L 6.6305721,26.135182 A 0.33276426,0.33276426 29.747741 0 1 6.1288946,25.848476 V 7.4048307 A 0.22221625,0.22221625 149.88318 0 1 6.4614333,7.2119343 Z"
     fill="#4a0ee1"
     id="path348"
     sodipodi:nodetypes="cccccccccsssccc"
     inkscape:path-effect="#path-effect1154"
     inkscape:original-d="m 6.1288946,7.0217468 11.0846234,6.3395832 -4.713786,2.6766 -1.780822,-0.947184 -1.6e-5,3.166 11.643142,-6.55599 -11.643142,-6.4090092 3.2e-5,3.0988341 L 6.1288946,5.7637468 V 2.7651453 c 0,-1.6963109 3.1034342,-3.01447126 4.5900314,-2.19746437 l 16.0169,8.80259997 c 1.254613,0.6895121 1.271192,4.0878611 8e-5,4.9198191 L 6.1288946,26.430746 Z" />
  <path
     d="m 6.1288947,30.637037 2.8e-6,-2.789339 A 0.27974321,0.27974321 119.74266 0 1 6.2665983,27.6067 l 4.3722207,-2.57695 a 0.05312461,0.05312461 29.742525 0 1 0.0801,0.04577 l 10e-6,2.600376 a 0.23447876,0.23447876 30.0166 0 0 0.351599,0.203132 L 22.35332,21.373668 a 0.05472267,0.05472267 89.025637 0 0 -0.0016,-0.09572 L 19.66792,19.849891 a 0.0853336,0.0853336 88.864288 0 1 -0.003,-0.149018 l 4.187491,-2.445922 a 0.16739659,0.16739659 179.74295 0 1 0.167558,-7.52e-4 l 2.579548,1.475838 c 0.0753,0.04308 0.190841,0.122619 0.253121,0.182974 1.074665,1.041457 1.170052,3.325223 0.291901,4.434834 -0.191074,0.241436 -0.623846,0.50774 -0.889223,0.666363 L 10.85463,33.219636 c -0.07494,0.0448 -0.196249,0.11818 -0.275329,0.155098 -1.5204902,0.709829 -4.3471348,-0.886344 -4.4476515,-2.555342 -0.00303,-0.05027 -0.00275,-0.13198 -0.00275,-0.182355 z"
     fill="url(#A)"
     paint-order="markers fill stroke"
     id="path11"
     style="display:inline;fill:url(#A)"
     sodipodi:nodetypes="sccccccccss"
     inkscape:path-effect="#path-effect1156"
     inkscape:original-d="m 6.1288946,30.728249 3.1e-6,-3.040389 4.5900203,-2.70532 1.1e-5,3.099206 11.719943,-6.757405 -2.906001,-1.546311 4.403147,-2.571888 2.799877,1.601895 c 1.337869,1.113035 1.334795,4.042959 -2.6e-5,4.918959 l -16.016937,9.57375 C 9.2134482,34.200614 6.1288928,32.482171 6.1288946,30.728249 Z" />
</svg>
