<svg xmlns="http://www.w3.org/2000/svg" width="128" height="128" viewBox="0 0 33.867 33.867" xmlns:v="https://vecta.io/nano"><defs><linearGradient id="A" x1="6.086" y1="25.734" x2="27.769" y2="25.734" gradientUnits="userSpaceOnUse"><stop offset=".218" stop-color="#4a0ee1"/><stop offset=".862" stop-color="#10dcb7"/></linearGradient></defs><path d="M6.086 16.933V7.283l2.774 1.436 4.427 2.554c4.342 2.494 4.314 2.282.579 4.377-1.386.777-1.257.767-2.217.177-.424-.261-.974-.53-.974-.475v1.583 1.583c0 .049.797-.368 1.553-.818l7.973-4.621c1.282-.736 1.633-.864 1.504-1.15-.059-.13-1.399-.878-2.879-1.731l-4.115-2.383-2.691-1.547-1.345-.715v1.083c0 1.01.127 1.992-.548 1.621l-2.38-1.307-1.662-.925V3.862C6.086.868 6.975 0 9.252 0c1.477 0 1.525.018 4.115 1.533l3.403 1.978c11.804 6.831 11 6.208 11 8.514 0 2.124-.17 2.306-4.431 4.751l-3.165 1.829-6.964 4.028L8.8 25.192c-1.163.68-2.714 1.5-2.714 1.5z" fill="#4a0ee1"/><path d="M7.404 33.561c-1.101-.671-1.318-1.264-1.318-3.592v-2.085l1.324-.796 1.87-1.091c1.511-.693 1.372.035 1.434 1.429l.041.917 1.899-1.093 3.324-1.925 3.676-2.119c2.627-1.501 2.498-1.305 1.308-1.99-1.52-.875-1.491-1.056.348-2.169 2.354-1.426 2.648-1.563 2.945-1.38l1.027.587c2.102 1.169 2.487 1.724 2.487 3.587 0 2.075-.157 2.232-4.982 5.007l-1.051.611-1.348.779-3.182 1.86-2.156 1.239c-.033 0-.698.455-1.543.898-2.616 1.37-2.75 1.633-4.254 1.633-1.051 0-1.455-.067-1.847-.306z" fill="url(#A)" paint-order="markers fill stroke"/></svg>