<svg xmlns="http://www.w3.org/2000/svg" xmlns:xlink="http://www.w3.org/1999/xlink" width="128" height="128" viewBox="0 0 33.867 33.867" xmlns:v="https://vecta.io/nano"><g fill="#02d767"><use xlink:href="#B"/><path d="M10.84 6.315L8.509 8.588l.015.014-6.219 6.063v-.01L0 16.9l.009.008-.009.01 2.279 2.241 8.486 8.393s2.006-2.592.034-4.532l-6.211-6.114 6.215-6.067 3.138 3.091c2.675 2.635 4.582-.058 4.582-.058zm22.997 10.642l.03-.028L23.138 6.375s-1.971 2.522-.104 4.357l6.335 6.233-6.201 6.051-2.901-2.851c-2.078-2.045-4.833-.193-4.833-.193l7.645 7.518 2.327-2.271 8.446-8.242z"/><use xlink:href="#B" x="12.405" y="0.025"/></g><defs ><path id="B" d="M9.199 15.408l-.023.022a2.1 2.1 0 0 0-.006 3.015l.023.022a2.21 2.21 0 0 0 3.078.006l.023-.022a2.1 2.1 0 0 0 .006-3.015l-.023-.022a2.21 2.21 0 0 0-3.078-.006z"/></defs></svg>