<svg xmlns="http://www.w3.org/2000/svg" width="128" height="128" xmlns:v="https://vecta.io/nano"><path d="M63.882.001a59.442 60.547 0 0 0-14.409 1.701v79.662a2.909 2.963 0 0 1-2.882 2.916h-5.769a2.146 2.185 0 0 1-2.162-2.185V5.103A62.723 63.888 0 0 0 0 63.876a63.431 64.61 0 0 0 64.121 64.12A63.187 64.361 0 0 0 128 64.119 63.736 64.921 0 0 0 63.882.001zm-1.201 90.592a2.657 2.706 0 0 1-2.643 2.672h-5.769a2.657 2.706 0 0 1-2.643-2.672V50.032a2.657 2.706 0 0 1 2.643-2.672h5.769a2.657 2.706 0 0 1 2.643 2.672zm12.967 3.887a2.657 2.706 0 0 1-2.643 2.672h-5.769a2.657 2.706 0 0 1-2.643-2.672V46.148a2.657 2.706 0 0 1 2.643-2.672h5.769a2.657 2.706 0 0 1 2.643 2.672zm12.967-7.276a2.657 2.706 0 0 1-2.643 2.672H80.22a2.657 2.706 0 0 1-2.643-2.672V53.919a2.657 2.706 0 0 1 2.643-2.672h5.769a2.657 2.706 0 0 1 2.643 2.672z" fill="#ff005c"/></svg>