<svg xmlns="http://www.w3.org/2000/svg" width="128" height="128" viewBox="0 0 33.867 33.867" xmlns:v="https://vecta.io/nano"><circle cx="16.933" cy="16.933" r="16.933"/><g fill="#fff"><path d="M29.361 14.329a12.58 12.58 0 0 0-.739-2.372 12.81 12.81 0 0 0-1.166-2.152c-.453-.67-.969-1.295-1.542-1.866a12.77 12.77 0 0 0-1.867-1.542 13.25 13.25 0 0 0-2.151-1.166 12.58 12.58 0 0 0-9.823 0c-1.502.634-2.867 1.554-4.017 2.709-.573.571-1.089 1.195-1.542 1.865a13.25 13.25 0 0 0-1.166 2.152 12.58 12.58 0 0 0 0 9.823c.311.751.713 1.464 1.166 2.151.453.67.969 1.296 1.542 1.867a12.77 12.77 0 0 0 1.867 1.542c.671.453 1.399.842 2.151 1.166a12.58 12.58 0 0 0 9.823 0c.751-.311 1.464-.713 2.151-1.166a12.54 12.54 0 0 0 1.867-1.542 12.77 12.77 0 0 0 1.542-1.867c.453-.671.842-1.399 1.166-2.151a12.58 12.58 0 0 0 .739-7.452zM16.997 27.923c-6.103 0-11.041-4.951-11.041-11.042S10.907 5.84 16.997 5.84s11.042 4.951 11.042 11.042-4.95 11.042-11.042 11.042zm.196-.959h.298c.052 0 .103 0 .155-.014h.014c.052 0 .09 0 .142-.013h.039c.039 0 .078 0 .116-.013h.039c.039 0 .078-.013.13-.013h.025c.052 0 .104-.014.156-.014s.091-.013.143-.025h.025c.039 0 .078-.013.116-.013h.026c.052-.014.091-.014.143-.026a2.02 2.02 0 0 0 .297-.065h.026c.038-.013.09-.013.129-.026h.013l.298-.077a11.59 11.59 0 0 1-2.889-.272c-1.427-.311-2.787-.868-3.94-1.828-1.842-1.533-2.898-3.811-2.877-6.207a7.54 7.54 0 0 1 1.775-4.821c1.477-1.749 3.577-2.67 5.728-2.722h.298V9.093h-.337a9.72 9.72 0 0 0-1.944.233 9.31 9.31 0 0 0-1.866.635 9.55 9.55 0 0 0-1.711 1.037 9.12 9.12 0 0 0-1.49 1.426 8.82 8.82 0 0 0-1.075 1.594 9.11 9.11 0 0 0-.713 1.723 9.42 9.42 0 0 0-.349 1.802l-.039.569v.337c.013.661.091 1.309.233 1.944a9.36 9.36 0 0 0 .635 1.867c.325.712.908 1.762 1.776 2.553a10.02 10.02 0 0 0 6.22 2.152z"/><path d="M20.017 25.305a13.18 13.18 0 0 1-1.905-.207c-2.669-.479-4.964-2.112-5.805-4.574-1.024-2.994.544-6.234 3.524-7.218.568-.19 1.163-.287 1.762-.286.765 0 1.529.156 2.23.44l.725-1.542-.66-.246c-.742-.233-1.516-.351-2.294-.35a7.27 7.27 0 0 0-2.293.376c-.944.311-1.813.814-2.553 1.477a7.43 7.43 0 0 0-.972 1.05 7.05 7.05 0 0 0-.739 1.205c-.418.856-.665 1.785-.726 2.735a7.37 7.37 0 0 0 .388 2.902c.33.96.86 1.839 1.556 2.579.635.687 1.374 1.205 2.267 1.685.933.492 2.087.751 3.291.921.778.103 1.815.129 2.424.129l1.037-.402.739-.376.7-.44a.72.72 0 0 0 .104-.078c-1.426.247-1.789.233-2.799.22z"/><path d="M23.206 23.374l-1.62.064c-1.154 0-2.566-.103-3.771-.505-1.867-.621-3.629-2.215-3.629-4.186a3.55 3.55 0 0 1 3.551-3.551 3.56 3.56 0 0 1 3.098 1.814l1.542-.764a5.01 5.01 0 0 0-.921-1.231c-.986-.988-2.324-1.543-3.72-1.543s-2.734.555-3.72 1.543-1.542 2.324-1.542 3.719c.003.724.158 1.439.455 2.1.271.596.648 1.154 1.127 1.672.842.906 1.995 1.632 3.227 2.047 1.179.388 2.916.531 4.601.415.466-.039.816-.078 1.412-.207.575-.454 1.097-.971 1.556-1.542l-1.646.156z"/></g></svg>