<svg xmlns="http://www.w3.org/2000/svg" width="128" height="128" viewBox="0 0 33.867 33.867" xmlns:v="https://vecta.io/nano"><g transform="matrix(.042391 0 0 .042391 6.524414 -.088708)"><path d="M114.1 555.7c-14.7 0-27.2-10.5-29.7-25.1L.4 37.2a30.5 30.5 0 0 1 5.1-22.5C10.1 8.1 17.1 3.8 25.1 2.5c16.4-2.7 32 8.3 34.8 24.7l83.9 493.4a30.5 30.5 0 0 1-5.1 22.5c-4.7 6.6-11.6 10.9-19.5 12.3-1.7.2-3.4.3-5.1.3zm140.6-227.5c-48 0-92.6 14.4-129.9 39l10.2 59.7C167.1 399 209 382 254.7 382c100.7 0 182.6 81.9 182.6 182.6s-81.9 182.6-182.6 182.6S72.1 665.3 72.1 564.6a180.19 180.19 0 0 1 4.3-39.1l-16.2-95.1a234.97 234.97 0 0 0-41.9 134.2c0 130.3 106 236.4 236.4 236.4s236.4-106.1 236.4-236.4-106-236.4-236.4-236.4z" fill="#cbff00"/><g fill="#1cd7d1"><circle cx="241.8" cy="670.3" r="32.2"/><circle cx="342.4" cy="632.8" r="32.2"/><circle cx="263.3" cy="563.8" r="32.2"/><circle cx="163.3" cy="596.7" r="32.2"/><circle cx="362.9" cy="530.8" r="32.2"/><circle cx="284.8" cy="457.3" r="32.2"/><circle cx="183.9" cy="494.7" r="32.2"/></g></g></svg>