<svg xmlns="http://www.w3.org/2000/svg" width="128" height="128" fill="none" xmlns:v="https://vecta.io/nano"><path d="M109.887 121.963c0 3.335-21.625 6.037-48.302 6.037s-48.302-2.703-48.302-6.037 21.626-6.037 48.302-6.037 48.302 2.703 48.302 6.037z" fill="#000" fill-opacity=".2"/><path d="M92.796 103.181l-1.887-5.29 8.75-8.532 3.431 2.389c1.659-.114 5.113-.41 5.662-.682.686-.342 8.578.17 9.264.682s3.26 3.583 3.432 3.925c.137.273.4 3.64.514 5.289l-2.058 4.778c-.343.341-4.289 2.901-4.632 3.242-.275.273-3.432.114-4.975 0v4.607l-6.691 7.167-7.034-1.024-5.147-4.266-.857-5.631z" fill="#fff"/><path d="M109.47 111.088c-5.124 6.377-12.596 3.223-15.691.848l-2.827.431c.587 1.639 3.82 4.828 3.948 4.828s3.469 2.375 5.124 3.563l4.964-1.188 4.483-2.375c2.135-4.693 5.124-12.484 0-6.106z" fill="#d9d9d9"/><path fill-rule="evenodd" d="M101.071 86.943l1.161 1.426a13.24 13.24 0 0 0 1.951 1.899c.886.697 1.679 1.1 2.229 1.172.077.011.276.013.664-.047a18.84 18.84 0 0 0 1.359-.28l.443-.104 3.385-.677c2.883-.389 6.471-.209 9.323 2.801 2.767 2.921 3.094 6.354 2.607 9.133-.478 2.722-1.754 4.985-2.509 5.938l-.015.018-.015.018c-1.553 1.854-3.864 2.707-5.828 3.11-1.179.241-2.327.34-3.287.368-.156 1.373-.47 2.819-1.169 4.261-.992 2.049-2.684 3.949-5.466 5.68-3.071 1.911-6.081 1.885-8.785.621-2.57-1.201-4.776-3.473-6.62-5.89-1.921-2.517-1.635-5.531-.815-7.931.619-1.811 1.607-3.486 2.537-4.756l-4.067-4.691zm-8.227 12.31l3.82 4.406-.949 1.087c-.919 1.053-2.143 2.863-2.798 4.779-.663 1.94-.633 3.617.311 4.853 1.736 2.275 3.538 4.024 5.358 4.875 1.687.788 3.452.845 5.495-.426 2.333-1.452 3.54-2.903 4.211-4.288.684-1.413.884-2.904.966-4.596l.082-1.692 1.721.099c.872.05 2.459.049 4.071-.281 1.634-.336 3.04-.956 3.876-1.941.447-.575 1.455-2.318 1.826-4.432.364-2.079.095-4.343-1.742-6.281-1.752-1.849-3.961-2.088-6.364-1.765-1.047.142-2.048.378-3.027.61l-.475.112-1.62.331c-.501.077-1.081.132-1.642.058-1.497-.196-2.892-1.077-3.909-1.877a16.32 16.32 0 0 1-1.235-1.079z" fill="#000"/><g fill="#7cc150"><path d="M30.813 76.402l-6.22-3.947 17.548-1.114 13.017-6.412c4.058-4.106 12.409-12.418 13.355-12.823s4.001-8.267 5.41-12.147l2.029-18.222 30.543 29.227 4.945 13.966-7.365 18.775c-.271 1.485-14.034 14.013-21.361 19.692l-17.92 2.868-8.815-4.247-7.237-11.24z"/><path d="M64.241 58.075C50.682 73.686 31.267 79.027 20.879 70.004s-7.818-28.993 5.742-44.605S59.594 4.447 69.982 13.47s7.818 28.993-5.742 44.605z"/></g><g fill="#000" fill-rule="evenodd"><path d="M40.47 70.004c7.117-1.959 14.805-6.785 21.207-14.156s10.105-15.659 11.047-22.98c.946-7.35-.9-13.301-4.969-16.835s-10.22-4.529-17.364-2.563c-7.117 1.958-14.805 6.784-21.207 14.156s-10.105 15.659-11.047 22.98c-.946 7.349.901 13.301 4.969 16.834s10.22 4.529 17.364 2.563zm-19.591 0c10.388 9.023 29.802 3.682 43.362-11.929s16.13-35.582 5.742-44.605S40.18 9.788 26.621 25.399s-16.13 35.582-5.742 44.605z"/><path d="M104.012 51.894L70.588 19.233l2.341-2.429 33.489 32.723.03.032c6.127 6.445 8.738 18.712 1.386 30.271-10.375 16.313-19.024 22.866-27.812 25.89-5.398 1.858-10.544 3.435-15.495 2.828-5.113-.627-9.718-3.521-14.223-9.828-4.351-6.091-7.112-9.945-9.821-12.724-2.634-2.703-5.223-4.386-9.254-6.01-3.017-1.216-5.933-3.554-8.221-5.887-2.276-2.321-5.9-8.62-6.665-10.369l3.108-1.338c.533 1.219 3.843 7.179 5.986 9.365 2.131 2.174 4.664 4.148 7.067 5.116 4.406 1.774 7.408 3.703 10.415 6.787 2.921 2.996 5.841 7.084 10.105 13.054l.046.064c4.134 5.788 7.977 7.959 11.874 8.436 4.058.497 8.484-.781 13.969-2.669 7.813-2.688 15.924-8.577 26.057-24.508 6.526-10.26 4.076-20.818-.956-26.144z"/></g><path d="M27.58 35.229c.822.791 9.471 5.826 13.692 8.244l5.134-1.814.685-4.947-2.224-4.122-7.017-8.409-5.477-6.266 1.711-4.287-.856-6.431-2.567-4.782h-7.36l-6.333 2.968-1.883 6.595-3.252.824c-1.597.44-4.929 1.451-5.477 1.979S4.304 17.64 3.619 18.74c.228 2.253.89 7.156 1.711 8.739 1.027 1.979 3.081 2.308 4.279 2.308s6.675.165 7.359 0c.548-.132 3.08-1.044 4.279-1.484l6.333 6.926z" fill="#fff"/><path d="M21.712 21.845c-6.124 5.313-12.758-1.078-15.309-4.939H4.489l-.87 4.939 4.175 5.96 7.481 2.043 5.393-2.043 4.349 4.428 16.695 11.909 2.964-3.223z" fill="#d9d9d9"/><path fill-rule="evenodd" d="M19.003 1.974C21.957.044 25.759-.41 29.005.348c3.397.793 5.313 2.746 6.332 4.976.965 2.111 1.094 4.409 1.176 5.881v.007c.09 1.609-.48 3.271-1.091 4.571-.352.751-.751 1.45-1.129 2.043 4.762 5.21 12.827 14.906 14.528 17.372 1.272 1.845.533 3.987-.289 5.429-.885 1.552-2.26 3.03-3.532 4.111s-2.795 1.356-4.411 1.006c-1.512-.327-3.132-1.2-4.869-2.406-2.572-1.786-10.61-8.574-15.091-12.411-4.961 3.127-10.469 1.311-12.703-.029l-.099-.059-.09-.073C4.48 28.14 2.462 22.741 4.342 16.96c.975-2.999 3.195-4.746 5.489-5.66 1.506-.6 3.086-.863 4.486-.904.2-3.867 2.046-6.698 4.686-8.422zm1.847 2.784c-1.99 1.301-3.444 3.583-3.154 7.249l.162 2.052-2.057-.269c-1.236-.162-3.067-.054-4.718.603-1.611.642-2.947 1.756-3.543 3.59-1.459 4.488.152 8.377 2.228 10.122 1.905 1.095 6.32 2.312 9.893-.589l1.095-.889 1.069.919c4.239 3.645 13.225 11.258 15.823 13.062 1.623 1.127 2.803 1.695 3.657 1.88.749.162 1.156.02 1.51-.28 1.08-.919 2.158-2.108 2.794-3.222.699-1.226.548-1.75.44-1.905-1.678-2.435-10.618-13.165-15.13-17.974l-.972-1.035.872-1.12a14.53 14.53 0 0 0 1.558-2.576c.529-1.127.827-2.188.782-2.979-.086-1.529-.21-3.227-.882-4.696-.619-1.354-1.727-2.567-4.041-3.108-2.466-.576-5.3-.197-7.386 1.166z" fill="#000"/></svg>