<svg xmlns="http://www.w3.org/2000/svg" width="128" height="128" viewBox="0 0 33.867 33.867" fill="#f0b90b" xmlns:v="https://vecta.io/nano"><path d="M5.776 16.933l.018 6.55 5.566 3.275v3.835l-8.823-5.175v-10.4zm0-6.55V14.2l-3.241-1.917V8.466l3.241-1.917 3.257 1.917zm7.908-1.917l3.241-1.917 3.257 1.917-3.257 1.917zm-5.566 13.66v-3.835l3.241 1.917v3.817zm5.566 6.006l3.241 1.917 3.257-1.917v3.817l-3.257 1.917-3.241-1.917zM24.831 8.466l3.241-1.917 3.257 1.917v3.817L28.073 14.2v-3.817zm3.241 15.018l.018-6.55 3.241-1.917v10.401l-8.823 5.175v-3.835zm-5.565.541v-3.817l3.241-1.917v3.835zm3.241-12.284l.018 3.835-5.582 3.275v6.566l-3.241 1.9-3.241-1.9v-6.566L8.12 15.576v-3.835l3.255-1.917 5.548 3.291 5.582-3.291 3.257 1.917zM8.118 5.193L16.925 0l8.823 5.193-3.241 1.917-5.582-3.291L11.36 7.11z"/></svg>