<svg xmlns="http://www.w3.org/2000/svg" width="128" height="128" viewBox="0 0 33.867 33.867" xmlns:v="https://vecta.io/nano"><circle cx="16.933" cy="16.933" r="16.933"/><path d="M9.307 16.933l.012 4.478 3.805 2.239v2.621l-6.031-3.537v-7.11zm0-4.478v2.609l-2.216-1.311v-2.609l2.216-1.311 2.227 1.311zm5.406-1.311l2.216-1.311 2.227 1.311-2.227 1.311zm-3.805 9.339v-2.621l2.216 1.311v2.609zm3.805 4.106l2.216 1.311 2.227-1.311v2.609l-2.227 1.311-2.216-1.311zm7.62-13.444l2.216-1.311 2.227 1.311v2.609l-2.227 1.311v-2.609zm2.216 10.266l.012-4.478 2.216-1.311v7.11l-6.031 3.537v-2.621zm-3.806-2.239l2.216-1.311v2.621l-2.216 1.298zm2.216-5.788l.012 2.621-3.815 2.239v4.488L16.94 24.03l-2.216-1.298v-4.488l-3.815-2.239v-2.621l2.225-1.311 3.792 2.25 3.815-2.25 2.227 1.311zM10.908 8.908l6.02-3.549 6.031 3.549-2.216 1.311-3.815-2.25-3.805 2.25z" fill="#f0b90b"/></svg>