<svg xmlns="http://www.w3.org/2000/svg" width="128" height="128" fill="none" xmlns:v="https://vecta.io/nano"><path d="M8.556 7.531h0V56.33c0 1.666 1.331 3.015 2.969 3.008l21.824-.099c2.269-.01 3.681-2.512 2.546-4.512l-2.828-4.986h0c-1.224-2.158-3.936-2.897-6.056-1.651h0l-.301.177h0c-2.096 1.231-4.776.501-5.986-1.632a4.53 4.53 0 0 1-.361-3.643h0l4.539-13.827h0c.71-2.162 2.893-3.446 5.088-2.992h0l14.05 2.908h0c1.23.254 2.293 1.034 2.921 2.14 1.21 2.132.492 4.859-1.603 6.09h0l-.302.177h0c-2.12 1.246-2.847 4.005-1.623 6.163h0l2.786 4.911a2.93 2.93 0 0 0 5.113.012l10.91-19.035c.825-1.439.343-3.287-1.075-4.12l-41.528-24.4h0c-4.926-2.894-11.083.724-11.083 6.512zm107.215 50.003h0l-41.527-24.4c-1.418-.833-3.231-.334-4.044 1.113L59.372 53.53c-1.126 2.005.297 4.5 2.566 4.5h7.135c1.632 0 2.956-1.346 2.956-3.008v-3.309c0-1.661 1.323-3.008 2.956-3.008h2.068c.846 0 1.652.369 2.213 1.014l10.79 12.399a3.05 3.05 0 0 1 .001 3.987L79.265 78.521c-.561.645-1.367 1.015-2.214 1.015h-2.067c-1.632 0-2.956-1.347-2.956-3.008V73.22c0-1.661-1.323-3.008-2.956-3.008h-7.05c-2.269 0-3.692 2.495-2.566 4.5l10.743 19.133c.813 1.447 2.626 1.946 4.044 1.113l41.527-24.4h0c4.926-2.894 4.926-10.13 0-13.024z" fill="#34c88a"/><path d="M19.618 126.981l41.527-24.399c1.418-.833 1.9-2.681 1.075-4.12L51.225 79.277a2.93 2.93 0 0 0-5.113.012l-3.568 6.288c-.816 1.439-.332 3.278 1.082 4.109l2.815 1.654c1.414.831 1.898 2.67 1.082 4.109l-1.034 1.823a2.96 2.96 0 0 1-1.969 1.443l-15.946 3.31c-1.463.304-2.919-.551-3.393-1.992l-5.17-15.718c-.269-.817-.18-1.712.243-2.459l1.034-1.822c.816-1.439 2.624-1.932 4.037-1.101l2.816 1.654c1.414.831 3.221.338 4.037-1.101l3.525-6.214c1.135-2-.277-4.501-2.546-4.512l-21.653-.098c-1.637-.007-2.969 1.341-2.969 3.008v48.799c0 5.788 6.157 9.406 11.083 6.512z" fill="#163f59"/></svg>