<svg xmlns="http://www.w3.org/2000/svg" width="128" height="128" viewBox="0 0 33.867 33.867" fill="#0033ad" xmlns:v="https://vecta.io/nano"><path d="M9.284 16.82c-.072 1.255.894 2.33 2.149 2.402h.135a2.27 2.27 0 0 0 2.276-2.285 2.27 2.27 0 0 0-2.285-2.276 2.28 2.28 0 0 0-2.276 2.158zm-8.507-.587a.73.73 0 0 0-.777.695c-.018.406.289.759.695.777.406.027.75-.289.777-.695s-.289-.75-.695-.777zM9.14 3.581c.361-.181.506-.632.325-.993s-.632-.506-.993-.325-.506.623-.325.984a.73.73 0 0 0 .993.334zm2.312 4.037a1.14 1.14 0 0 0 .506-1.526 1.14 1.14 0 0 0-1.526-.506 1.14 1.14 0 0 0-.506 1.526 1.14 1.14 0 0 0 1.526.506zm-7.785 2.773c.433.28 1.011.163 1.3-.271.28-.433.163-1.011-.271-1.3-.433-.28-1.011-.163-1.3.271s-.163 1.02.271 1.3zm1.382 5.436c-.632-.036-1.165.443-1.201 1.075s.443 1.165 1.075 1.201 1.165-.443 1.201-1.075a1.14 1.14 0 0 0-1.075-1.201zm-1.255 7.649a.941.941 0 1 0 .849 1.68.94.94 0 0 0 .415-1.264c-.235-.461-.804-.65-1.264-.415zM8.219 13.47a1.33 1.33 0 0 0 1.463-2.239 1.33 1.33 0 0 0-1.851.388c-.406.614-.235 1.445.388 1.851zm14.042-5.942c.524.343 1.237.199 1.58-.325s.199-1.237-.325-1.58-1.237-.199-1.58.325c-.352.533-.208 1.237.325 1.58zm2.33-4.019c.343.226.795.126 1.02-.217s.126-.795-.217-1.02a.74.74 0 0 0-1.02.208.76.76 0 0 0 .217 1.03zm-2.158 11.135c-1.255-.072-2.339.894-2.402 2.149-.072 1.255.894 2.339 2.149 2.402h.126a2.28 2.28 0 0 0 2.276-2.285c.009-1.201-.939-2.203-2.149-2.267zm-10.232-1.336c.388.768 1.174 1.255 2.041 1.255a2.28 2.28 0 0 0 2.276-2.285 2.3 2.3 0 0 0-.244-1.03c-.569-1.129-1.942-1.58-3.061-1.011a2.29 2.29 0 0 0-1.011 3.07zm17.872-2.917a.94.94 0 0 0 .406-1.264.94.94 0 1 0-1.679.849c.244.461.804.65 1.273.415zm-5.78.722a1.34 1.34 0 0 0-.596 1.797 1.34 1.34 0 0 0 1.797.596 1.34 1.34 0 0 0 .596-1.797c-.334-.659-1.138-.921-1.797-.596zm-7.45-7.947a.95.95 0 0 0 .993-.885c.036-.515-.37-.957-.885-.993-.515-.027-.957.361-.993.876-.027.524.37.966.885 1.002zm-.009 5.897a1.33 1.33 0 0 0 1.409-1.264 1.33 1.33 0 0 0-1.264-1.409 1.33 1.33 0 0 0-1.409 1.264c-.036.741.524 1.373 1.264 1.409zM9.573 22.754a1.34 1.34 0 0 0 .596-1.797 1.34 1.34 0 0 0-1.797-.596 1.34 1.34 0 0 0-.596 1.797 1.34 1.34 0 0 0 1.797.596zm8.128-11.731c-.686 1.057-.397 2.465.659 3.152s2.465.397 3.152-.659.397-2.465-.659-3.152a2.26 2.26 0 0 0-1.246-.37c-.768 0-1.481.388-1.905 1.03zm3.964 9.536c-.569-1.129-1.942-1.58-3.061-1.011-1.129.569-1.58 1.942-1.011 3.061.569 1.129 1.942 1.58 3.061 1.011a2.27 2.27 0 0 0 1.02-3.043c0-.009 0-.009-.009-.018zm3.983-.162a1.338 1.338 0 1 0-1.463 2.24 1.33 1.33 0 0 0 1.851-.388c.406-.614.235-1.445-.388-1.851zm4.371-3.423c.036-.632-.443-1.165-1.075-1.201s-1.165.443-1.201 1.075.443 1.165 1.075 1.201c.623.036 1.165-.452 1.201-1.075zm3.152-.813a.73.73 0 0 0-.777.695c-.018.406.289.759.695.777.406.027.75-.289.777-.695.018-.406-.289-.75-.695-.777zm-2.972 7.315c-.433-.28-1.011-.163-1.3.271-.28.433-.163 1.011.271 1.3.433.28 1.011.163 1.3-.271s.163-1.02-.271-1.3zM9.266 30.357a.74.74 0 0 0-1.02.208.74.74 0 0 0 .208 1.02.74.74 0 0 0 1.02-.208c.235-.334.135-.795-.208-1.02zm15.461-.072c-.361.181-.506.632-.325.993s.632.506.993.325.506-.623.325-.984a.73.73 0 0 0-.993-.334zm-8.561-7.441c.686-1.057.397-2.465-.659-3.161-1.057-.686-2.465-.397-3.161.659s-.397 2.465.659 3.161a2.26 2.26 0 0 0 1.246.37c.777.009 1.49-.379 1.915-1.03zm-4.561 3.495c-.524-.343-1.237-.199-1.58.325s-.199 1.237.325 1.58 1.237.199 1.58-.325a1.13 1.13 0 0 0-.325-1.58zm5.319 4.362a.95.95 0 0 0-.993.885c-.036.515.37.957.885.993.515.027.957-.361.993-.876.027-.524-.37-.966-.885-1.002zm.009-5.897a1.338 1.338 0 1 0-.144 2.673c.741.036 1.373-.524 1.409-1.264.045-.731-.524-1.373-1.264-1.409zm5.482 1.445a1.141 1.141 0 1 0 1.039 2.032 1.14 1.14 0 0 0 .506-1.526c-.289-.56-.975-.795-1.544-.506z"/></svg>