<?xml version="1.0" encoding="UTF-8" standalone="no"?>
<svg
   class="h-6 w-6 fill-current"
   width="128"
   height="128"
   viewBox="0 0 128 128"
   version="1.1"
   id="svg3301"
   sodipodi:docname="cartesi.svg"
   inkscape:export-filename="..\transparentSVGs\cartesi.png"
   inkscape:export-xdpi="96"
   inkscape:export-ydpi="96"
   xmlns:inkscape="http://www.inkscape.org/namespaces/inkscape"
   xmlns:sodipodi="http://sodipodi.sourceforge.net/DTD/sodipodi-0.dtd"
   xmlns="http://www.w3.org/2000/svg"
   xmlns:svg="http://www.w3.org/2000/svg">
  <defs
     id="defs3305" />
  <sodipodi:namedview
     id="namedview3303"
     pagecolor="#ffffff"
     bordercolor="#000000"
     borderopacity="0.25"
     inkscape:showpageshadow="2"
     inkscape:pageopacity="0.0"
     inkscape:pagecheckerboard="0"
     inkscape:deskcolor="#d1d1d1"
     showgrid="false" />
  <path
     id="Path_141"
     data-name="Path 141"
     d="m 110.67018,41.797621 a 2.5117004,2.5117004 0 0 0 -2.35182,-1.629769 H 84.196755 L 69.755767,1.6258874 A 2.5117004,2.5117004 0 0 0 65.552408,0.81616061 L 29.640766,40.17301 H 4.6217551 A 2.5065429,2.5065429 0 0 0 2.269937,43.561485 l 15.065045,40.17689 A 2.5117004,2.5117004 0 0 0 19.6868,85.368144 H 43.462854 L 59.451091,128 83.557225,101.62457 98.37471,85.368144 h 25.00354 a 2.5065429,2.5065429 0 0 0 2.35181,-3.388475 z M 66.485915,7.2424001 79.498276,41.936873 64.943824,57.7807 58.955971,41.792464 A 2.5117004,2.5117004 0 0 0 56.604153,40.162695 H 36.42803 Z M 8.2474745,45.201568 H 54.86092 L 61.127277,61.911854 44.195219,80.339586 H 21.430033 Z M 79.848986,98.220623 61.282002,118.54631 48.130388,83.475343 63.087125,67.172499 69.27612,83.722903 a 2.5117004,2.5117004 0 0 0 2.351818,1.629768 H 91.587446 Z M 73.396959,80.329271 66.908829,63.025873 83.304508,45.175781 h 23.270622 l 13.18255,35.15349 z"
     fill="#1e1941"
     style="stroke-width:1" />
</svg>
