<svg xmlns="http://www.w3.org/2000/svg" width="128" height="128" viewBox="0 0 33.867 33.867" xmlns:v="https://vecta.io/nano"><path d="M13.368 30.302c5.415 0 9.804-4.388 9.804-9.804s-4.388-9.804-9.804-9.804-9.804 4.388-9.804 9.804 4.388 9.804 9.804 9.804zm0 3.565A13.37 13.37 0 0 1 0 20.498 13.37 13.37 0 0 1 13.368 7.13a13.37 13.37 0 0 1 13.368 13.368 13.37 13.37 0 0 1-13.368 13.368z" fill="#fbcc5c"/><path d="M20.498 23.172c5.415 0 9.804-4.388 9.804-9.804s-4.388-9.804-9.804-9.804-9.804 4.388-9.804 9.804 4.388 9.804 9.804 9.804zm0 3.565A13.37 13.37 0 0 1 7.13 13.368 13.37 13.37 0 0 1 20.498 0a13.37 13.37 0 0 1 13.368 13.368 13.37 13.37 0 0 1-13.368 13.368z" fill="#35d07f"/><path d="M20.94 26.737a9.76 9.76 0 0 0 1.943-3.854c1.412-.353 2.727-1.016 3.854-1.943a13.27 13.27 0 0 1-1.041 4.759c-1.508.635-3.119.987-4.756 1.037zm-9.957-15.753c-1.412.353-2.727 1.016-3.854 1.943.05-1.636.403-3.248 1.041-4.756 1.508-.635 3.123-.987 4.756-1.041a9.76 9.76 0 0 0-1.943 3.854z" fill="#5ea33b"/></svg>