<svg xmlns="http://www.w3.org/2000/svg" width="128" height="128" xmlns:v="https://vecta.io/nano"><g transform="matrix(.217724 0 0 .217724 -23.684098 -16.533419)"><circle cx="406.243" cy="361.438" r="285.5" fill="#fed62e"/><g fill="#fff"><path d="M357.177 554.814l-18.12-28.373-2.033-19.003 2.652-14.407 6.452-17.766 13.081-17.943 20.506-16.175 10.783-11.844 7.159-20.86 2.108-18.738-2.108-38.714-.265-30.582 3.624-16.175 9.281-10.341 9.546-1.945 10.43 2.652 8.662 10.43 6.894 16.705 1.945 27.312.884 24.749 1.414 23.069 3.977 17.943 11.402 16.352 14.319 14.672 12.816 14.054 13.965 20.594 8.308 17.147 2.475 12.198-2.917 17.766-5.16 7.002c-10.489 23.289-25.728 32.078-39.342 37.992-3.196.595-5.569 3.356-8.354 5.034l-26.517 6.01-20.683-.619-17.897-6.927c-11.364-3.191-20.729-7.131-31.468-17.447l-7.911-3.645"/><circle cx="269.548" cy="443.761" r="10"/><circle cx="515.891" cy="439.844" r="10"/><circle cx="564.721" cy="369.993" r="18"/><circle cx="312.392" cy="373.054" r="18"/></g><path d="M599.256 314.486c-7.584-22.678-19.173-44.392-32.203-60.337-9.94-12.165-23.327-25.449-34.992-34.723-3.286-2.613-5.974-4.974-5.974-5.248 0-.689 5.338-4.439 14.142-9.936 22.007-13.74 47.347-25.819 64.638-30.813 3.724-1.075 6.771-2.114 6.773-2.309s-2.276-2.848-5.061-5.897c-3.947-4.322-4.843-5.682-4.063-6.171 2.025-1.271 23.103-7.883 32.759-10.278 5.477-1.358 12.071-2.657 14.653-2.886 4.576-.406 4.727-.366 6.01 1.599 1.143 1.749 1.296 3.28 1.163 11.586-.157 9.782-1.087 24.096-2.345 36.088-1.283 12.231-3.686 29.336-4.201 29.908-.279.309-2.947-3.588-5.93-8.662s-5.736-9.225-6.12-9.225-.697 1.047-.697 2.327c0 3.517-1.996 18.057-3.951 28.785-5.839 32.043-16.136 61.291-28.318 80.433-1.299 2.042-2.646 3.712-2.994 3.712s-1.829-3.58-3.292-7.955zm-393.43 2.045c-4.968-8.682-11.406-24.058-15.216-36.339-7.608-24.524-11.253-48.145-12.992-84.194l-.488-10.124-4.314 5.881a384.85 384.85 0 0 0-7.976 11.361c-2.014 3.014-3.926 5.48-4.248 5.48-1.074 0-3.557-30.065-3.806-46.075-.157-10.102-.118-10.413 1.553-12.198 2.223-2.375 4.008-2.342 14.715.272 8.742 2.135 26.265 7.005 27.235 7.57.292.17-2.838 4.028-6.955 8.573l-7.486 8.264 6.955.818c24.307 2.858 52.388 14.468 82.233 34l8.102 5.303-2.497 2.217c-1.373 1.219-6.366 5.511-11.096 9.537-20.374 17.343-35.975 37.169-47.725 60.649-4.304 8.601-9.645 21.677-11.588 28.374-.705 2.43-1.498 4.419-1.761 4.419s-1.454-1.704-2.646-3.787z" fill="#fed62e" stroke="#fed62e" stroke-width="40.418" stroke-linejoin="round" stroke-miterlimit="3.2"/><path d="M208.714 322.463c-22.465-37.681-31.565-85.273-31.565-141.179 0-6.451 0-6.451 5.624-6.451 37.824.031 79.908 25.6 101.331 40.492-28.825 25.417-56.812 62.758-75.409 107.207m393.266 2.351c24.571-34.406 38.069-94.526 38.069-150.432 0-6.451 0-6.451-5.624-6.451-37.824.031-88.587 31.198-110.009 46.09 28.825 25.417 58.985 66.412 77.583 110.862" fill="#fff"/><path d="M126.944 272.237c-8.976-22.957-13.25-45.335-13.225-69.237.015-14.342.419-18.532 3.091-32.03 3.72-18.798 5.191-30.034 5.191-39.659 0-6.663.246-7.522 3.082-10.752 1.729-1.969 4.693-3.958 6.75-4.529 17.08-4.744 82.035 8.853 110.516 23.134 17.194 8.622 32.792 20.188 47.852 35.484 5.335 5.419 10.982 11.487 12.548 13.486l2.848 3.634 5.952-3.543c8.847-5.266 25.508-12.521 37.993-16.544 35.901-11.567 73.288-12.598 110.945-3.059 10.148 2.571 26.203 8.191 32.414 11.348l3.4 1.728 10.6-10.975c32.785-33.945 62.96-48.297 123.584-58.778 18.006-3.113 30.248-3.704 36.698-1.771 4.454 1.334 9.797 6.813 9.861 10.112.268 13.671 1.498 25.542 3.949 38.113 4.283 21.967 5.34 32.437 4.611 45.658-2.627 47.634-22.115 93.988-58.548 139.26-5.393 6.701-10.761 13.041-11.93 14.089-1.548 1.388-2.125 3.084-2.125 6.25 0 2.39-.337 4.323-.75 4.297s-2.325-2.545-4.25-5.597c-4.312-6.835-15.722-17.73-23.226-22.176-35.326-20.931-82.28-6.682-99.918 30.321-5.53 11.601-7.257 19.148-7.207 31.5.051 12.592 1.862 20.208 7.612 32 3.361 6.893 5.861 10.224 13.224 17.622 7.776 7.812 10.438 9.775 18.547 13.673 18.19 8.744 36.484 10.073 54.268 3.943 4.785-1.649 8.7-2.683 8.7-2.296 0 1.145-9.781 15.033-15.666 22.245-7.212 8.838-22.982 23.887-32.625 31.133-8.538 6.416-21.851 14.873-22.458 14.265-.213-.213.335-2.794 1.217-5.736s1.864-8.724 2.181-12.849c1.067-13.873-2.164-24.261-12.457-40.046-7.164-10.985-12.207-16.521-28.89-31.712-11.675-10.632-15.848-16.787-20.215-29.824-4.343-12.962-5.947-24.75-7.133-52.418-1.784-41.597-4.135-52.312-13.542-61.719-4.745-4.745-5.719-5.281-9.596-5.277-5.377.005-9.798 2.609-13.795 8.127-6.768 9.343-7.916 20.583-6.001 58.76 2.719 54.208-2.526 70.849-28.291 89.751-5.076 3.724-11.288 8.917-13.805 11.539-6.044 6.298-13.35 19.337-16.563 29.556-2.273 7.233-2.535 9.488-2.144 18.5.692 15.974 6.022 27.516 19.01 41.165l5.773 6.234c0 .675-15.889-3.598-27-7.261-73.891-24.36-126.801-87.784-134.624-161.374l-.691-6.499-10.271-11.001c-24.772-26.532-44.182-53.571-56.533-78.751-4.049-7.372-6.199-14.476-8.938-21.513zM312.5 474.559c3.3-.86 9.825-3.46 14.5-5.778 11.101-5.505 24.711-18.705 30.19-29.281 6.332-12.222 8.31-20.316 8.31-34 0-9.782-.433-13.386-2.342-19.5-7.666-24.551-24.607-41.492-49.158-49.158-6.264-1.956-9.56-2.33-20-2.271-10.598.06-13.666.458-20.167 2.617-15.792 5.245-30.316 16.156-38.851 29.185-9.04 13.801-13.288 31.592-11.224 47.014 4.238 31.671 25.742 55.008 57.242 62.12 7.848 1.772 22.782 1.322 31.5-.948zm-27.086-17.968c-3.897-.74-8.104-1.889-9.348-2.555-2.221-1.189-2.227-1.235-.302-2.583 3.28-2.298 4.617-6.768 3.256-10.89-2.351-7.122-10.722-9.014-16.097-3.639-1.608 1.608-2.923 3.858-2.923 5 0 3.226-1.461 2.511-6.483-3.173-5.691-6.442-12.014-19.223-13.448-27.184-3.576-19.853 1.885-37.553 15.914-51.583 12.362-12.362 26.231-17.676 43.517-16.675 15.218.881 27.617 6.51 38.102 17.298 21.419 22.036 21.275 57.178-.326 79.552-13.32 13.797-32.958 20.019-51.863 16.432zm35.646-69.012c4.549-3.01 6.939-7.948 6.939-14.332 0-12.241-13.2-20.042-24.688-14.59-7.129 3.383-10.946 13.498-7.87 20.859 2.159 5.167 4.23 7.375 9.058 9.659 5.042 2.384 11.485 1.763 16.561-1.595zm298.256-69.207c21.099-32.703 34.101-83.53 37.757-147.601 1.602-28.078 1.83-27.748-16.334-23.723-39.001 8.643-76.778 26.254-106.239 49.527-12.794 10.106-16.132 13.284-14.866 14.15 21.88 14.958 43.11 36.289 57.379 57.654 11.003 16.475 23.007 44.951 26.946 63.924l1.201 5.784 4.862-6.422c2.674-3.532 6.857-9.514 9.295-13.294zM208.023 325c8.84-33.32 25.93-62.97 50.455-87.536 6.897-6.909 23.07-20.581 30.248-25.571l2.226-1.547-3.226-2.99c-18.599-17.24-52.538-37.16-80.726-47.382-12.714-4.61-40.39-11.974-45.005-11.974-2.045 0-3.453.769-4.593 2.508-1.422 2.17-1.552 4.499-.966 17.25 3.291 71.611 16.681 123.836 40.723 158.838 5.747 8.367 7.416 10.206 7.942 8.749.366-1.015 1.68-5.67 2.921-10.345zM424.5 519.596c-9.963-3.164-23.565-12.029-26.75-17.435-4.682-7.945-.082-14.607 12.25-17.745 10.374-2.639 33.196-2.66 44.5-.041 12.361 2.864 14.5 4.394 14.5 10.369 0 5.854-12.886 20.474-21.5 24.392-4.759 2.165-16.868 2.407-23 .459zM541 453.375c-3.868-.75-12.205-3.497-15.193-5.007-2.561-1.294-2.623-1.495-1.256-4.115 1.822-3.493 1.808-4.694-.099-8.714-2.687-5.663-9.949-7.296-14.95-3.362-2.72 2.14-2.794 2.144-4.211.25-6.702-8.958-11.231-21.045-11.954-31.901-1.792-26.911 15.31-51.484 41.163-59.147 9.244-2.74 24.027-2.478 33.5.593 10.646 3.451 21.229 10.909 27.737 19.545 28.217 37.441 3.637 90.356-42.737 92.004-5.225.186-10.625.12-12-.147zm33.73-69.023c12.871-9.61 8.429-29.34-6.997-31.079-8.836-.996-16.425 4.156-18.729 12.714-1.985 7.37 2.38 16.456 9.447 19.662 4.192 1.902 12.927 1.206 16.279-1.296z" fill="#373636"/><path d="M423.5 599.663c-6.766-2.255-12.006-5.361-16.631-9.857C402.336 585.4 395.346 576 396.602 576c.384 0 4.308.731 8.719 1.625 12.994 2.633 36.709 1.499 52.117-2.491 6.566-1.7 12.18-2.85 12.476-2.554 1.107 1.107-5.497 11.907-10.089 16.5-6.888 6.888-15.694 10.945-24.93 11.484-4.628.27-8.891-.067-11.394-.901z" fill="#fa7f5b"/><g fill="#f0a841"><path d="M388.5 663.343c-32.997-3.927-62.184-11.718-90-24.023-99.332-43.943-166.302-126.128-180.578-221.607-6.014-40.22-1.698-89.609 11.021-126.12 1.132-3.249 2.058-6.598 2.058-7.444s1.293 2.851.953 2.851c-.835 0-9.383 48.024-9.398 74-.015 26.162.238 30.96 2.235 42.403 7.049 40.39 20.655 74.273 43.002 107.097 29.369 43.137 70.886 78.72 121.207 103.881 49.63 24.816 101.361 36.172 143.789 31.564 69.492-7.546 144.699-49.947 194.851-109.855 13.203-15.771 25.598-34.236 34.401-51.247 3.798-7.339 6.917-13.083 6.932-12.765.065 1.385-5.592 14.339-10.883 24.922-14.523 29.05-32.172 53.248-56.532 77.509-47.4 47.205-111.021 80.046-170.558 88.042-9.383 1.26-34.617 1.731-42.5.792z"/><path d="M305.596 191.767c72.496-43.893 147.354-32.062 190.703-10.07l-8.572 12.581c-55.093-23.807-132.384-17.678-176.414 5.91l-5.716-8.42" opacity=".575"/></g></g></svg>