<svg xmlns="http://www.w3.org/2000/svg" width="128" height="128" fill="none" xmlns:v="https://vecta.io/nano"><path d="M115.218.079c-3.136 0-5.848 1.79-7.187 4.4l-88.142-.171C18.519 1.789 15.851.079 12.782.079a8.08 8.08 0 1 0 0 16.161h.102c.192-.001.38-.018.569-.032l18.839 41.494a8.04 8.04 0 0 0-1.281 4.361 8.08 8.08 0 0 0 6.884 7.981l20.167 44.418a8.05 8.05 0 0 0-1.887 5.192c.003 4.404 3.528 7.977 7.909 8.071l.038.083.036-.079c.036 0 .071.005.107.005h.13a8.02 8.02 0 0 0 7.951-8.08v-.009c-.001-2.069-.786-3.95-2.065-5.379l20.071-44.14a8.01 8.01 0 0 0 7.658-8.063v-.009a8.04 8.04 0 0 0-1.725-4.975l18.577-40.856c.119.005.236.018.356.018h.083a8.04 8.04 0 0 0 7.997-8.08 8.08 8.08 0 0 0-8.08-8.08zM64.256 111.564c-.219 0-.434.016-.649.033L44.022 68.456c1.916-1.477 3.156-3.788 3.159-6.394v-.009c0-.231-.016-.458-.035-.683l17.076-12.457 17.625 12.966c-.001.062-.009.121-.009.183.001 2.356 1.016 4.469 2.625 5.946l-19.811 43.576c-.132-.006-.263-.02-.397-.02zm-5.304-66.529L44.206 55.793a8.05 8.05 0 0 0-5.114-1.821 8.12 8.12 0 0 0-1.574.157L20.571 16.8zm-36.357-34.49l83.437.145L64.238 41.18zm67.323 43.427c-2.092.001-3.991.803-5.426 2.108L69.508 45.057l37.987-27.711L90.82 54.025a8.15 8.15 0 0 0-.901-.053z" stroke="#aaa" fill="#cc0124" stroke-width=".159"/></svg>