<svg xmlns="http://www.w3.org/2000/svg" width="128" height="128" fill="none" xmlns:v="https://vecta.io/nano"><path d="M97.28 0H30.72C13.754 0 0 13.754 0 30.72v66.56C0 114.247 13.754 128 30.72 128h66.56c16.967 0 30.72-13.753 30.72-30.72V30.72C128 13.754 114.247 0 97.28 0z" fill="url(#A)"/><path fill-rule="evenodd" d="M63.999 104.961c22.622 0 40.96-18.338 40.96-40.96s-18.338-40.96-40.96-40.96-40.96 18.338-40.96 40.96 18.338 40.96 40.96 40.96zM56.77 42.915a.6.6 0 0 1 .599-.599h13.259a.6.6 0 0 1 .599.599v14.009H56.772v14.152h14.455v14.01a.6.6 0 0 1-.599.599H57.369a.6.6 0 0 1-.599-.599V71.533H42.914a.6.6 0 0 1-.599-.599V57.523a.6.6 0 0 1 .599-.599h13.857zm14.456 14.009h13.86a.6.6 0 0 1 .599.599v13.411a.6.6 0 0 1-.599.599H71.229z" fill="#0c0b0b"/><defs><linearGradient id="A" x1="122.667" y1="6.095" x2="-37.333" y2="188.19" gradientUnits="userSpaceOnUse"><stop stop-color="#bdfde2"/><stop offset="1" stop-color="#9bdaf6"/></linearGradient></defs></svg>