<svg xmlns="http://www.w3.org/2000/svg" width="128" height="128" viewBox="0 0 96 96" preserveAspectRatio="xMidYMid" xmlns:v="https://vecta.io/nano"><path d="M72.978 29.689l19.509-17.901a8.53 8.53 113.73 0 0 2.763-6.285 3.596 3.596 42.486 0 0-3.75-3.435H25.586a3 3 135 0 0-3 3v12.853h8.783v-6.935h49.568l-11.405 9.877-65.782.026a3.001 3.001 134.989 0 0-3 3.001v67.045a3 3 45 0 0 3 3h68.346l20.968-19.701a6.935 6.935 113.393 0 0 2.186-5.054 2.963 2.963 44.286 0 0-3-2.926H31.411l-.043-33.203h-8.783v39.24a3 3 45 0 0 3 3h54.874l-11.222 9.877H9.976V29.689h63.002z" fill="red" paint-order="normal"/></svg>