<svg xmlns="http://www.w3.org/2000/svg" width="128" height="128" viewBox="0 0 96 96" preserveAspectRatio="xMidYMid" xmlns:v="https://vecta.io/nano"><path d="M73.374 29.399l19.819-18.185A8.665 8.665 0 0 0 96 4.829a3.653 3.653 0 0 0-3.81-3.49H25.23a3.048 3.048 0 0 0-3.048 3.048v13.057h8.922v-7.045H81.46L69.874 20.432l-66.826.026A3.049 3.049 0 0 0 0 23.508v68.109a3.048 3.048 0 0 0 3.048 3.048h69.431l21.301-20.014A7.045 7.045 0 0 0 96 69.516a3.01 3.01 0 0 0-3.048-2.972H31.148l-.044-33.73h-8.922v39.863a3.048 3.048 0 0 0 3.048 3.048h55.745l-11.4 10.034H9.372v-56.36z" fill="red" paint-order="normal"/></svg>