<svg xmlns="http://www.w3.org/2000/svg" width="128" height="128" xmlns:v="https://vecta.io/nano"><path d="M64.107 12.8c1.173 0 2.24.32 3.2.853l39.36 22.72a6.4 6.4 0 0 1 3.2 5.547v44.16a6.4 6.4 0 0 1-3.2 5.547l-39.36 22.72c-.96.533-2.027.853-3.2.853s-2.24-.32-3.2-.853L21.44 91.627a6.4 6.4 0 0 1-3.2-5.547V41.92a6.4 6.4 0 0 1 3.2-5.547l39.36-22.72c1.067-.533 2.133-.853 3.307-.853m0-12.8c-3.307 0-6.613.853-9.6 2.56L15.04 25.28c-5.973 3.413-9.6 9.813-9.6 16.64v44.16c0 6.827 3.627 13.227 9.6 16.64l39.36 22.72c2.987 1.707 6.293 2.56 9.6 2.56s6.613-.853 9.6-2.56l39.36-22.72c5.973-3.413 9.6-9.813 9.6-16.64V41.92c0-6.827-3.627-13.227-9.6-16.64L73.707 2.56C70.72.853 67.413 0 64.107 0z" fill="#ff9500"/></svg>