<svg xmlns="http://www.w3.org/2000/svg" width="128" height="128" viewBox="0 0 33.867 33.867" xmlns:v="https://vecta.io/nano"><circle cx="16.933" cy="16.933" r="16.933" fill="#2e3148"/><circle cx="16.933" cy="16.933" r="9.826" fill="#1b1e36"/><g fill="#6f7390"><path d="M16.968 2.16c-1.828 0-3.31 6.63-3.31 14.808s1.482 14.808 3.31 14.808 3.31-6.63 3.31-14.808S18.796 2.16 16.968 2.16zm.229 28.78c-.209.279-.418.07-.418.07-.842-.975-1.263-2.787-1.263-2.787-1.472-4.738-1.122-14.912-1.122-14.912.692-8.077 1.951-9.985 2.379-10.409a.261.261 0 0 1 .335-.027c.622.44 1.143 2.282 1.143 2.282 1.539 5.714 1.4 11.08 1.4 11.08.139 4.669-.771 9.895-.771 9.895-.701 3.972-1.683 4.809-1.683 4.809z"/><path d="M29.812 9.599c-.91-1.586-7.398.428-14.495 4.497S3.214 22.751 4.123 24.337s7.398-.428 14.495-4.497 12.104-8.655 11.194-10.24zM4.963 24.119c-.348-.044-.27-.33-.27-.33.427-1.215 1.787-2.482 1.787-2.482 3.379-3.635 12.379-8.394 12.379-8.394 7.35-3.419 9.632-3.275 10.212-3.116a.261.261 0 0 1 .19.279c-.07.759-1.411 2.127-1.411 2.127-4.188 4.18-8.911 6.73-8.911 6.73-3.98 2.445-8.967 4.255-8.967 4.255-3.794 1.367-5.008.932-5.008.932h0z"/><path d="M29.78 24.39c.917-1.582-4.077-6.188-11.149-10.288S5.072 7.962 4.156 9.547s4.077 6.188 11.153 10.288 13.555 6.139 14.471 4.555zM4.764 10.158c-.135-.321.151-.399.151-.399 1.266-.239 3.044.306 3.044.306 4.838 1.102 13.465 6.506 13.465 6.506 6.642 4.648 7.661 6.695 7.814 7.276a.261.261 0 0 1-.145.304c-.693.317-2.548-.155-2.548-.155-5.718-1.533-10.29-4.342-10.29-4.342-4.109-2.216-8.171-5.626-8.171-5.626-3.087-2.599-3.319-3.867-3.319-3.867z"/></g><g fill="#b7b9c8"><circle cx="16.933" cy="16.933" r="1.742"/><ellipse cx="24.076" cy="10.244" rx="1.01" ry="1.045"/><ellipse cx="7.491" cy="13.798" rx="1.01" ry="1.045"/><ellipse cx="14.878" cy="26.619" rx="1.01" ry="1.045"/></g></svg>