<svg xmlns="http://www.w3.org/2000/svg" width="128" height="128" fill="#ffffff" xmlns:v="https://vecta.io/nano"><path d="M88.47 94.256l-5.362-.031-3.246-6.016-3.515-6.557c-.18-.334-.468-.584-.81-.701a1.34 1.34 0 0 0-1.035.066h-5.598l2.729-5.11h6.903zM72.525 84.124l-9.813 18.296-19.626.016 2.599-5.06h13.49a1.53 1.53 0 0 0 .19-.013h.028a1.38 1.38 0 0 0 .609-.247c.183-.131.336-.305.447-.509L67.2 84.129zm12.461 19.857l-9.869 18.913-9.902-18.908 9.91-18.371 2.254 4.175zm-12.369 20.463H52.916l-9.838-18.895 19.633-.021zm-15.934-30.18H37.065L15.743 54.46h19.638zM38.927 44.957l-3.536 6.418-19.64-.024 2.525-4.661h13.648c.064 0 .129-.006.192-.016l.065-.012.118-.027.072-.026.106-.039.065-.034.101-.054c.021-.013.041-.028.06-.044.033-.02.066-.043.096-.067l.055-.052.084-.081.055-.064.07-.085c.022-.031.036-.057.053-.085a.93.93 0 0 0 .053-.081l3.159-5.798zm30.208 29.386l-9.946 18.385-21.305-39.786 3.536-6.42 12.786.006zm30.8-41.378L78.553 72.8h-6.931l-6.329-11.793 8.157-15.215.019-.031 6.837-12.762 12.471-.034zm12.526 19.876L91.029 92.723l-9.954-18.372 21.422-39.9 6.1 11.353a1.48 1.48 0 0 0 .24.329zM128 23.561l-9.81 18.273-9.807-18.296 9.747-18.395zm-12.317 19.872l-4.959.033-6.967-12.894a1.5 1.5 0 0 0-.526-.568 1.36 1.36 0 0 0-.718-.209 1.33 1.33 0 0 0-.241.023l-9.489.029h-4.154l-2.473-4.729h19.701zm-.044-39.854l-9.777 18.429H86.154l9.907-18.429zM82.411 24.328l2.899 5.529-5.016.029-3.592-6.347L86.573 5.11l2.619 4.887-6.782 12.775a.61.61 0 0 0-.041.091l-.041.091c-.012.031-.024.075-.036.111l-.024.08a.92.92 0 0 0-.029.155.28.28 0 0 0 0 .041 1.76 1.76 0 0 0 0 .399v.041l.026.155c0 .023.014.041.019.062a1.69 1.69 0 0 0 .041.132c.017.044.022.047.034.073a1.12 1.12 0 0 0 .05.124zm-4.6 7.137l-6.412 11.959H41.433l-9.838-18.371 42.622.07 2.352 4.144zm6.268-27.909l-9.882 18.449-42.608-.07 9.843-18.379zM34.682 37.022l-1.048 1.919-1.674 3.087-9.78-18.462 9.867-18.434 2.607 4.882-6.794 12.69a1.68 1.68 0 0 0-.183.979v.036c0 .041.014.083.024.124s0 .026 0 .036v.039a1.51 1.51 0 0 0 .048.148l.079.171v.013zm-5.235 6.561H9.672L0 25.118l19.669.005zm.094-40.002l-9.867 18.434L.026 22.01 9.898 3.576z" fill="#000"/></svg>