<svg xmlns="http://www.w3.org/2000/svg" width="128" height="128" fill="none" xmlns:v="https://vecta.io/nano"><circle cx="64" cy="64" r="64" fill="#050505"/><path d="M77.764 87.019l-3.016-.018-1.826-3.384-1.977-3.689a.82.82 0 0 0-.455-.394.76.76 0 0 0-.582.037h-3.149l1.535-2.874h3.883zm-8.969-5.699l-5.52 10.292-11.04.009 1.462-2.846h7.588a.89.89 0 0 0 .107-.007h.016a.78.78 0 0 0 .342-.139.85.85 0 0 0 .251-.286l3.797-7.019zm7.01 11.169l-5.551 10.638-5.57-10.636 5.574-10.334 1.268 2.348zM68.847 104H57.765l-5.534-10.628 11.044-.012zm-8.963-16.977H48.849l-11.993-22.39h11.046zm-9.988-27.734l-1.989 3.61-11.048-.013 1.42-2.622h7.677c.036 0 .072-.003.108-.009l.036-.007.066-.015.041-.014.059-.022.037-.019.057-.03c.012-.008.023-.015.034-.025.019-.011.037-.024.054-.038l.031-.029.047-.045.031-.036.039-.048.03-.048a.52.52 0 0 0 .03-.045l1.777-3.261zm16.993 16.529l-5.595 10.341L49.31 63.78l1.989-3.611 7.192.003zm17.324-23.275L72.186 74.95h-3.899l-3.56-6.634 4.588-8.558.011-.018 3.846-7.179 7.015-.019zm7.046 11.18L79.204 86.157l-5.599-10.334 12.05-22.444 3.431 6.386a.83.83 0 0 0 .135.185zM100 47.253l-5.518 10.279-5.516-10.292 5.483-10.347zm-6.929 11.178l-2.789.019-3.919-7.253c-.071-.133-.173-.243-.296-.319a.78.78 0 0 0-.404-.118.76.76 0 0 0-.135.013l-5.338.016h-2.337l-1.391-2.66h11.082zm-.024-22.418l-5.5 10.366H76.462l5.573-10.366zM74.356 47.684l1.631 3.11-2.821.016-2.02-3.57 5.553-10.366 1.473 2.749-3.815 7.186c-.009.016-.017.033-.023.051l-.023.051c-.007.017-.013.042-.02.063l-.013.045a.54.54 0 0 0-.017.087.17.17 0 0 0 0 .023.99.99 0 0 0 0 .224v.023l.015.087c0 .013.008.023.011.035a.9.9 0 0 0 .023.074c.01.025.012.026.019.041a.85.85 0 0 0 .028.07zm-2.587 4.015l-3.607 6.727H51.306l-5.534-10.334 23.975.039 1.323 2.331zM75.294 36l-5.558 10.378-23.967-.039L51.306 36zM47.508 54.825l-.589 1.079-.942 1.737-5.501-10.385 5.55-10.369 1.466 2.746-3.822 7.138a.94.94 0 0 0-.103.551v.02c0 .023.008.047.014.07s0 .015 0 .02.001.015 0 .022a.85.85 0 0 0 .027.083l.045.096v.007zm-2.944 3.69H33.441L28 48.129l11.064.003zm.053-22.5l-5.55 10.369-11.052-.003 5.553-10.369z" fill="#fff"/></svg>