<svg xmlns="http://www.w3.org/2000/svg" width="128" height="128" viewBox="0 0 33.867 33.867" xmlns:v="https://vecta.io/nano"><path d="M16.929 0a16.94 16.94 0 0 1 16.938 16.933 16.94 16.94 0 0 1-16.658 16.931l-.28.002V19.595l-2.15 2.15-.275 5.365 2.242 6.748a16.826 16.826 0 0 1-3.849-.494l-.308-.079-1.085-3.262-3.075 1.542a17.13 17.13 0 0 1-3.109-2.312l-.233-.223 5.696-2.854.166-3.264-3.265.167-2.855 5.693a16.94 16.94 0 0 1-2.37-3.062l-.166-.279 1.543-3.075-3.264-1.084a16.957 16.957 0 0 1-.565-3.824L0 17.115l6.751 2.242 5.367-.274 2.149-2.15-2.15-2.151-5.367-.274L0 16.751a16.83 16.83 0 0 1 .494-3.848l.078-.308 3.264-1.084-1.543-3.075a17.046 17.046 0 0 1 2.312-3.109l.223-.233 2.855 5.693 3.265.167-.167-3.265-5.696-2.853a16.922 16.922 0 0 1 3.064-2.369l.279-.166 3.075 1.542L12.589.582a16.922 16.922 0 0 1 3.826-.566l.331-.007-2.242 6.748.275 5.365 2.15 2.15zm3.764 4.31v25.246c5.437-1.623 9.41-6.668 9.41-12.623 0-5.889-3.887-10.888-9.232-12.568z" fill="#ff00af" fill-rule="evenodd"/></svg>