<svg xmlns="http://www.w3.org/2000/svg" width="128" height="128" viewBox="0 0 33.867 33.867" xmlns:v="https://vecta.io/nano"><defs><linearGradient id="A" x1="7.319" y1="24.299" x2="27.691" y2="2.067" gradientUnits="userSpaceOnUse"><stop stop-color="#eb1357"/><stop offset="1" stop-color="#db23c8"/></linearGradient></defs><path d="M33.866 12.887l-7.653 4.893c6.037-4.775 6.037-9.919 6.037-9.919l-8.01 7.819c5.391-8.843 3.418-12.484 3.418-12.484l-6.38 10.654c-1.4-.382-2.842-.575-4.291-.574h-.102c-1.449-.001-2.891.192-4.291.574h0L6.214 3.195S3.98 6.538 9.371 15.381l-7.736-7.52s-.789 4.571 5.661 9.635c-.033.052-7.295-4.609-7.295-4.609s-.186 4.391 6.213 7.913v.114c0 4.775 4.769 9.706 10.68 9.758h.102c5.902-.052 10.68-4.983 10.68-9.758V20.8c6.376-3.523 6.19-7.913 6.19-7.913zM13.323 25.712s-1.895.123-2.986-.991-.957-3.044-.957-3.044 1.895-.128 2.986.991.957 3.044.957 3.044zm10.216-.991c-1.091 1.114-2.981.991-2.981.991s-.121-1.93.971-3.044 2.981-.991 2.981-.991.107 1.93-.989 3.044z" fill="url(#A)"/></svg>