<svg xmlns="http://www.w3.org/2000/svg" width="128" height="128" xmlns:v="https://vecta.io/nano"><defs><linearGradient id="A" x1="0" y1="119.712" x2="128" y2="8.288" gradientUnits="userSpaceOnUse"><stop offset="0" stop-color="#0be2ff"/><stop offset="1" stop-color="#7c64ff"/></linearGradient></defs><path d="M33.07 8.288a2.117 2.117 0 0 0-1.843 1.075l-4.935 8.733 25.773 44.833a2.148 2.148 0 0 1 0 2.142l-25.781 44.825 4.943 8.741a2.118 2.118 0 0 0 1.843 1.075H94.93a2.139 2.139 0 0 0 1.853-1.07l30.93-53.572a2.139 2.139 0 0 0 0-2.14L96.783 9.358a2.139 2.139 0 0 0-1.853-1.07zm16.187 15.881h36.505a2.139 2.139 0 0 1 1.853 1.07l21.761 37.692a2.139 2.139 0 0 1 0 2.14l-21.761 37.691a2.139 2.139 0 0 1-1.853 1.07H49.257a.713.713 0 0 1-.618-1.07L70.401 65.07a2.139 2.139 0 0 0 0-2.139L48.639 25.239a.713.713 0 0 1 .618-1.07zM16.762 34.728a.713.713 0 0 0-.374.314L.287 62.93a2.139 2.139 0 0 0 0 2.14l16.101 27.888a.713.713 0 0 0 1.235 0L33.724 65.07a2.139 2.139 0 0 0 0-2.14L17.623 35.042a.713.713 0 0 0-.861-.314z" fill="url(#A)" paint-order="stroke fill markers"/></svg>