<?xml version="1.0" encoding="UTF-8" standalone="no"?>
<!-- Generator: Adobe Illustrator 26.1.0, SVG Export Plug-In . SVG Version: 6.00 Build 0)  -->

<svg
   version="1.1"
   id="Layer_1"
   x="0px"
   y="0px"
   viewBox="0 0 128 128"
   xml:space="preserve"
   sodipodi:docname="dfkchain.svg"
   inkscape:export-filename="..\transparentSVGs\new\dfkchain.svg"
   inkscape:export-xdpi="96"
   inkscape:export-ydpi="96"
   width="128"
   height="128"
   xmlns:inkscape="http://www.inkscape.org/namespaces/inkscape"
   xmlns:sodipodi="http://sodipodi.sourceforge.net/DTD/sodipodi-0.dtd"
   xmlns:xlink="http://www.w3.org/1999/xlink"
   xmlns="http://www.w3.org/2000/svg"
   xmlns:svg="http://www.w3.org/2000/svg"><defs
   id="defs67869"><linearGradient
     inkscape:collect="always"
     id="linearGradient70100"><stop
       style="stop-color:#c2e76b;stop-opacity:1;"
       offset="0.63551402"
       id="stop70096" /><stop
       style="stop-color:#41ff00;stop-opacity:0;"
       offset="0.81842458"
       id="stop70098" /></linearGradient><linearGradient
     id="linearGradient70018"
     inkscape:swatch="solid"><stop
       style="stop-color:#060606;stop-opacity:1;"
       offset="0"
       id="stop70016" /></linearGradient><radialGradient
     inkscape:collect="always"
     xlink:href="#linearGradient70100"
     id="radialGradient71187"
     cx="107.95019"
     cy="107.95019"
     fx="107.95019"
     fy="107.95019"
     r="74.950195"
     gradientUnits="userSpaceOnUse" /></defs><sodipodi:namedview
   id="namedview67867"
   pagecolor="#ffffff"
   bordercolor="#000000"
   borderopacity="0.25"
   inkscape:showpageshadow="2"
   inkscape:pageopacity="0.0"
   inkscape:pagecheckerboard="0"
   inkscape:deskcolor="#d1d1d1"
   showgrid="true"
   showguides="true"><inkscape:grid
     type="xygrid"
     id="grid70022"
     originx="0"
     originy="0" /></sodipodi:namedview>
<style
   type="text/css"
   id="style67856">
	.st0{fill:#FFFDEF;}
	.st1{fill:#254263;}
</style>
<polygon
   class="st0"
   points="150.7,5 65.3,5 5,65.3 5,150.7 65.3,211 150.7,211 211,150.7 211,65.3 "
   id="polygon67858"
   style="display:inline;fill:#000000;fill-opacity:1"
   transform="matrix(0.59259259,0,0,0.59259259,-0.02962935,2.8e-7)" />
<g
   id="g67864"
   transform="matrix(0.59259259,0,0,0.59259259,-0.02962935,2.8e-7)">
	<path
   class="st1"
   d="M 152.7,0 H 63.3 L 0,63.3 v 89.5 L 63.3,216 h 89.5 l 63.3,-63.3 V 63.3 Z m 49.8,147.1 -55.4,55.4 H 68.9 L 13.5,147.1 V 68.9 L 68.9,13.5 h 78.3 l 55.4,55.4 z"
   id="path67860"
   style="display:inline;fill:#fec526;fill-opacity:1" />
	<path
   class="st1"
   d="M 139.9,31 H 76.1 L 31,76.1 v 63.7 l 45.1,45.1 h 63.7 l 45.1,-45.1 v -44 h -13.5 v 38.5 l -32,32 -7.6,-18.3 21.3,-21.3 V 121 h -13.4 -0.1 v 0.1 l -18.5,18.5 H 94.9 L 76.4,121.1 V 94.9 L 94.9,76.4 h 26.2 l 18.5,18.5 v 0.2 h 0.2 13.3 V 89.3 L 131.9,68 l 7.6,-18.3 10.1,10 c -0.5,1.5 -0.7,3 -0.7,4.6 0,8.2 6.7,14.9 14.9,14.9 8.2,0 14.9,-6.7 14.9,-14.9 0,-8.2 -6.7,-14.9 -14.9,-14.9 -1.6,0 -3.2,0.3 -4.6,0.7 z M 89,44.5 h 38 l -7.6,18.3 H 96.6 Z M 62.8,119.4 44.5,127 V 89 l 18.3,7.6 z m 33.8,33.7 h 22.8 l 7.6,18.3 H 89 Z M 84.1,148 76.5,166.3 49.7,139.5 68,131.9 Z M 68,84.1 49.7,76.5 76.5,49.7 84.1,68 Z"
   id="path67862"
   style="display:inline;fill:#80bc00;fill-opacity:1" />
<g
   id="g70088"><path
     id="path70090"
     style="display:inline;fill:url(#radialGradient71187);fill-opacity:1"
     class="st1"
     d="M 135,42 H 81 L 42,81 v 54 l 39,39 h 54 l 3.69922,-4.16992 -9.25781,-22.29883 21.6582,-21.66016 V 123 h -10.57227 l -18.59961,18.59961 H 94.072266 L 74.400391,121.92773 V 94.072266 L 94.072266,74.400391 h 27.855464 l 18.69922,18.699218 h 10.47266 v -2.972656 l -21.55859,-21.662109 9.25195,-22.279297 z m -46,0.5 h 40.99609 l -9.25976,22.300781 H 95.263672 L 86.003906,42.5 Z M 78.347656,48.931641 86.458984,68.46875 68.46875,86.458984 46.169922,77.201172 77.201172,46.169922 Z M 45.267578,87.152344 64.800781,95.263672 V 120.73633 L 42.5,129.99609 V 86.003906 Z m 24.146484,43.333986 17.044922,17.04492 -9.257812,22.29883 -31.03125,-31.03125 22.298828,-9.25781 z m 27.185547,20.61328 h 24.136721 l 9.25976,22.30078 H 86.003906 l 9.259766,-22.30078 z"
     sodipodi:nodetypes="ccccccccccccccccccccccccccccccccccccccccccccccccccccc" /></g></g>
</svg>
