<svg xmlns="http://www.w3.org/2000/svg" width="128" height="128" viewBox="0 0 33.867 33.867" xmlns:v="https://vecta.io/nano"><defs><linearGradient id="A" x1="16.933" y1="33.867" x2="16.933" y2="0" gradientUnits="userSpaceOnUse"><stop stop-color="#7774f4"/><stop offset=".715" stop-color="#9157f9"/><stop offset="1" stop-color="#b133ff"/></linearGradient><linearGradient id="B" x1="16.969" y1="3.696" x2="16.969" y2="27.021" gradientUnits="userSpaceOnUse"><stop stop-color="#fbf476"/><stop offset=".45" stop-color="#ffa725"/></linearGradient></defs><path d="M16.933.318C7.757.318.318 7.757.318 16.933s7.439 16.615 16.615 16.615 16.615-7.439 16.615-16.615S26.11.318 16.933.318z" fill="url(#A)" stroke="#000" stroke-width=".637"/><path d="M3.958 15.847l-.852.852-.852-.852.852-.852zm27.637-.196l-.852.852-.852-.852.852-.852zM1.746 18.7l3.369-.84.6 2.407-.481.12.12.481-.481.12.12.481-1.444.36-.12-.481-.481.12-.12-.481-.481.12zm.721.843l.24.963.481-.12.12.481 1.444-.36-.12-.481.481-.12-.24-.963zm.901 4.38l.416-.27-.27-.416 2.08-1.351.27.416.416-.27 1.351 2.08-.416.27.27.416-2.08 1.351-.27-.416-.416.27zm.686.146l.811 1.248 2.08-1.351-.811-1.248zm2.67 4.113l.312-.385-.386-.312.312-.386-.386-.312.937-1.156.385.312.312-.385.386.312.312-.386 1.928 1.561-.312.386-1.542-1.249-.312.385-.385-.312-.937 1.157.385.312-.312.385.771.624.624-.771-.385-.312.312-.386 1.157.937-1.249 1.542zm3.713 2.469l1.188-3.263 3.263 1.188-.17.466-2.331-.848-.339.932 1.865.679-.17.466-1.865-.679-.339.932 2.331.848-.17.466zm5.648 1.426v-.496h-.496v-.496h-.496v-1.488h.496v-.496h.496v-.496h1.984v.496h.496v.496h-.992v-.496h-.992v.496h-.496v1.488h.496v.496h.992v-.496h.992v.496h-.496v.496zm4.356-.35l-1.205-3.257.93-.344.516 1.396 1.396-.516-.516-1.396.93-.344 1.205 3.257-.93.344-.516-1.396-1.396.516.516 1.396zm4.791-2.071l-1.561-1.927.385-.312-.312-.386.386-.312-.312-.385 1.156-.937.312.385.385-.312.312.386.386-.312 1.561 1.928-.771.624-.624-.771-1.157.937.624.771zm-.166-1.781l1.157-.936-.625-.771-.385.312-.312-.385-.385.312.312.385-.385.312zm3.857-1.639l-.416-.27.54-.832-2.08-1.351-.54.832-.416-.27 1.621-2.496.416.27-.54.832 2.08 1.351.54-.832.416.27zm2.293-4.137l-3.369-.84.24-.963.481.12.12-.481.481.12.12-.481.481.12.12-.481-1.444-.36.24-.963 3.369.84-.24.963-.963-.24-.12.481-.481-.12-.12.481-.481-.12-.12.481 1.925.48z"/><path d="M18.9 6.458l-.245.263c-.732-.16-1.615-.242-2.358-.242-.561 0-1.111.047-1.647.138-.806-.241-1.441-.47-2.214-1.282l-.194-.207c-.396-.423-.913-.975-1.443-1.341-.313-.216-.667-.395-1.036-.429-.392-.036-.767.095-1.082.429-.556.591-1.048 1.763-1.335 3.267-.286 1.498-.377 3.375-.103 5.45-.488 1.166-.758 2.446-.758 3.787 0 2.004.601 3.869 1.633 5.422 1.565 3.339 4.956 5.652 8.889 5.652 4.585 0 8.435-3.145 9.511-7.394.598-1.081.932-2.286.932-3.556 0-2.584-1.383-4.884-3.537-6.447-.621-1.192-.649-2.029-.679-2.941l-.021-.52-.019-.494-.012-.34c-.011-.251-.031-.499-.088-.715s-.164-.44-.369-.597-.46-.216-.747-.216c-.187 0-.375.066-.542.147a3.72 3.72 0 0 0-.534.326c-.36.258-.746.597-1.096.928s-.674.664-.908.912z" fill="url(#B)" stroke="#000" stroke-width=".688"/><g fill-rule="evenodd"><path d="M7.19 18.885c.272.956.691 1.851 1.23 2.659 1.506 3.235 4.785 5.477 8.588 5.477 4.439 0 8.165-3.055 9.189-7.178.585-1.044.911-2.205.911-3.428s-.327-2.387-.913-3.432c-.363-.122-.677-.123-.924.014-.382.212-.563.729-.565 1.47-.001.469-.484.838-.932.703-1.305-.395-2.571-.342-3.631.247-.267.148-.511.326-.733.529-1.015.929-3.315 1.529-4.383.662-2.065-1.676-4.279-2.295-5.887-1.4-1.169.65-1.819 1.988-1.948 3.679z" fill="#fff"/><path d="M16.377 24.891c-2.998.276-6.003-1.898-8.104-3.681 1.43 3.413 4.803 5.811 8.736 5.811 4.429 0 8.147-3.041 9.181-7.149l-.197.444c-.2.449-.759.606-1.163.325-.061.329-.193.637-.382.913-.528.668-1.215 1.104-2.065 1.261-.193.032-.391.049-.595.049-.561 0-1.086-.129-1.539-.353.108.358-.874 2.103-3.872 2.379z" fill="#f7ecdf"/></g><path d="M9.505 10.135c-.542-1.774-.403-3.945 0-5.198.706 2.362 2.415 3.752 2.415 3.752-.713.155-1.731.754-2.415 1.446zm11.089 6.274c.536-1.143 3.685-1.347 4.181 0 .276.749-.837 2.454-1.578 2.564-1.065.158-3.195-1.302-2.603-2.564z"/><path opacity=".5" d="M17.417 10.923c-.428.332-2.02.36-2.179-.126s.867-1.533 1.615-1.202c.623.276 1.117.899.564 1.328zm4.98-.643c-.297.445-1.095.396-1.412 0s-.268-1.147.559-1.086c.69.051 1.052.787.853 1.086z" fill="#fff"/><path d="M20.084 22.82c-.178-.158.045-.361.261-.262.43.196.922.307 1.443.307 1.34 0 2.48-.735 2.904-1.761.038-.093.177-.084.177.017 0 1.341-1.249 2.428-2.791 2.428-.781 0-1.488-.279-1.994-.729z"/><path fill-rule="evenodd" d="M28.476 10.295L8.888 12.612l.111.94 2.977-.352.111.94.94-.111.111.94.94-.111h0l.111.94 3.134-.371-.111-.94h0l.94-.111-.111-.94.94-.111-.111-.94 9.715-1.149zm-7.724 1.867l6.895-.816.111.94-6.895.816zm6.066.236l-5.014.593.111.94.941-.111h0l.111.94 3.134-.371-.111-.94h0l.94-.111z"/><g fill="#fff"><path d="M25.766 11.569l.94-.111.111.94-.94.111z"/><path d="M24.937 12.62l.94-.111.111.94-.94.111zm-7.946-.014l.94-.111.111.94-.94.111z"/><path d="M16.163 13.657l.94-.111.111.94-.94.111z"/></g><path d="M21.505 21.332c1.899.762 3.017-.705 2.919-1.255l-1.318.151z"/></svg>