<?xml version="1.0" encoding="UTF-8" standalone="no"?>
<svg
   width="128"
   height="127.59633"
   viewBox="0 0 128 127.59633"
   fill="none"
   version="1.1"
   id="svg29"
   sodipodi:docname="dymension.svg"
   inkscape:export-filename="..\transparentSVGs\dymension.png"
   inkscape:export-xdpi="96"
   inkscape:export-ydpi="96"
   xmlns:inkscape="http://www.inkscape.org/namespaces/inkscape"
   xmlns:sodipodi="http://sodipodi.sourceforge.net/DTD/sodipodi-0.dtd"
   xmlns="http://www.w3.org/2000/svg"
   xmlns:svg="http://www.w3.org/2000/svg">
  <sodipodi:namedview
     id="namedview31"
     pagecolor="#ffffff"
     bordercolor="#000000"
     borderopacity="0.25"
     inkscape:showpageshadow="2"
     inkscape:pageopacity="0.0"
     inkscape:pagecheckerboard="0"
     inkscape:deskcolor="#d1d1d1"
     showgrid="false" />
  <path
     d="M 6.5000714,79.399117 C 3.6263592,76.534139 1.699124,73.225213 0.71842803,69.473324 c -0.95790404,-3.774875 -0.95790404,-7.54975 0,-11.324625 C 1.699124,54.351167 3.6149321,51.031076 6.465823,48.188756 c 2.8965331,-2.887963 6.237803,-4.809551 10.02381,-5.764434 3.786039,-0.955211 7.572046,-0.955211 11.358052,0 3.785875,0.954883 7.115817,2.864978 9.989661,5.730284 l 7.115652,7.094965 10.537207,-10.506013 -7.11598,-7.094637 c -2.873844,-2.865306 -4.801013,-6.174002 -5.781837,-9.926089 -0.957839,-3.774809 -0.969003,-7.538257 -0.03415,-11.290343 0.958167,-3.774809 2.885336,-7.1061952 5.781837,-9.9941584 2.873515,-2.8652405 6.203456,-4.7753646 9.989496,-5.73043825 3.786039,-0.95507259 7.560586,-0.94373385 11.32364,0.0340809 3.786039,0.95507035 7.11598,2.86526675 9.989824,5.73047435 2.873843,2.8652404 4.78952,6.1852324 5.747359,9.9600414 0.980824,3.752086 0.991988,7.515534 0.03415,11.290343 -0.935182,3.797565 -2.839366,7.129083 -5.713209,9.994061 l -7.081503,7.060815 10.502729,10.471863 7.081503,-7.060815 c 2.873843,-2.865306 6.192292,-4.786894 9.955346,-5.764434 3.78604,-0.955211 7.56058,-0.944047 11.32397,0.03382 3.78604,0.955211 7.12714,2.876798 10.02364,5.764762 2.87385,2.865306 4.78952,6.185068 5.74736,9.959943 0.98083,3.752218 0.98083,7.504107 0,11.256325 -0.95784,3.774875 -2.87351,7.094965 -5.74736,9.959943 -2.8965,2.887963 -6.2376,4.809551 -10.02364,5.764762 -3.76339,0.932226 -7.53793,0.920734 -11.32397,-0.03415 -3.740397,-0.955211 -7.047353,-2.865306 -9.921196,-5.730612 l -7.081503,-7.060487 -10.536879,10.505684 7.081503,7.060816 c 2.873843,2.864978 4.778027,6.173904 5.713209,9.92579 0.957838,3.774882 0.957838,7.549762 0,11.324632 -0.957839,3.77488 -2.885008,7.10613 -5.781509,9.99409 -2.850858,2.84232 -6.1808,4.75275 -9.989824,5.73029 -3.78604,0.95521 -7.571751,0.95521 -11.35779,0 -3.740397,-0.95489 -7.047681,-2.86498 -9.921196,-5.73029 -2.896501,-2.88796 -4.835163,-6.20805 -5.815987,-9.95994 -0.957839,-3.77487 -0.957839,-7.54975 0,-11.324622 1.003809,-3.774882 2.930979,-7.083479 5.781837,-9.9258 l 7.15013,-7.129115 -10.502729,-10.471535 -7.15013,7.128787 c -2.850859,2.842649 -6.192293,4.741251 -10.023909,5.696462 -3.786007,0.954883 -7.571947,0.954883 -11.357954,0 -3.763218,-0.977868 -7.0816989,-2.899456 -9.9554116,-5.764762 z m 8.5527056,-8.52729 c 1.299994,1.296054 2.805281,2.160308 4.515829,2.592107 1.733369,0.455113 3.455343,0.466277 5.165858,0.03415 1.710548,-0.431799 3.215835,-1.296054 4.515862,-2.592107 l 7.150098,-7.129115 -7.115915,-7.094638 c -1.300027,-1.296381 -2.816676,-2.149143 -4.550045,-2.558285 -1.710515,-0.432127 -3.421062,-0.432127 -5.13161,0 -1.710548,0.432127 -3.227262,1.307546 -4.550077,2.626257 -1.300027,1.296382 -2.178073,2.785842 -2.634203,4.46838 -0.433343,1.705524 -0.433343,3.411047 0,5.116571 0.45613,1.728181 1.334176,3.240298 2.634203,4.53668 z m 41.874022,-41.750491 7.115981,7.094932 7.081502,-7.060815 c 1.32298,-1.318908 2.189861,-2.819729 2.600316,-4.502498 0.433113,-1.70549 0.421948,-3.422343 -0.03448,-5.150589 -0.433112,-1.705491 -1.299994,-3.206313 -2.599988,-4.502497 -1.299994,-1.296185 -2.805215,-2.160276 -4.515664,-2.592337 -1.710778,-0.432062 -3.421227,-0.432062 -5.131676,0 -1.687792,0.409306 -3.193014,1.273429 -4.515993,2.592337 -1.299994,1.296184 -2.189204,2.797006 -2.668288,4.502497 -0.43344,1.705491 -0.43344,3.410982 0,5.116472 0.479084,1.705491 1.368294,3.206313 2.668288,4.502498 z m 32.789136,34.689675 7.081503,7.060816 c 1.299994,1.296054 2.794053,2.171473 4.481842,2.626257 1.71045,0.432127 5.41308,0.420963 7.10088,-0.03415 1.71045,-0.431799 3.22716,-1.307218 4.55014,-2.626257 1.32265,-1.319039 2.18953,-2.819663 2.59999,-4.50253 0.45609,-1.682866 0.46759,-3.376897 0.0341,-5.082421 -0.43344,-1.705524 -1.3,-3.206148 -2.59999,-4.50253 -1.32298,-1.318711 -2.83969,-2.19413 -4.55014,-2.626257 -1.71045,-0.432127 -5.42458,-0.432127 -7.13503,0 -1.665129,0.432127 -3.159191,1.307546 -4.481842,2.626257 z M 56.926799,112.62202 c 1.300322,1.29639 2.805544,2.16031 4.515993,2.59244 1.710449,0.43213 3.409734,0.42063 5.097526,-0.0341 1.710449,-0.43213 3.215671,-1.29605 4.515664,-2.59244 1.322651,-1.31871 2.201026,-2.83082 2.634138,-4.53635 0.456426,-1.68286 0.467591,-3.37689 0.03448,-5.08242 -0.410455,-1.72818 -1.265844,-3.240298 -2.565838,-4.53668 l -7.08183,-7.060815 -7.150131,7.129115 c -1.299994,1.296054 -2.17804,2.78552 -2.634138,4.46838 -0.433441,1.70553 -0.433441,3.41105 0,5.11657 0.433441,1.7052 1.311487,3.21764 2.634138,4.53635 z M 53.54005,63.811011 64.04278,74.282874 74.579659,63.776862 64.07693,53.305327 Z"
     fill="#f1e1d4"
     id="path2"
     style="stroke-width:1" />
  <defs
     id="defs27" />
</svg>
