<svg xmlns="http://www.w3.org/2000/svg" width="128" height="128" fill="none" xmlns:v="https://vecta.io/nano"><rect width="128" height="128" rx="64" fill="#003034"/><path d="M64.059 29.404c0 3.329.357 3.685 3.923 3.685 5.231 0 15.455 5.231 19.378 9.867 4.28 5.112 7.609 12.483 7.609 17.12 0 3.567.357 3.923 3.686 3.923h3.686l-.832-5.588c-2.378-16.287-15.93-29.84-32.099-32.099l-5.35-.713zm-7.489 22.47c-1.783 1.07-3.924 3.447-4.756 5.231-.951 2.259-2.259 3.328-4.042 3.328-1.902 0-2.734.713-2.734 2.378 0 1.546.832 2.378 2.259 2.378s3.091 1.664 4.518 4.399c4.042 8.441 15.098 10.937 21.994 5.112 2.615-2.259 2.615-2.378.476-4.161-1.903-1.427-2.497-1.427-4.756 0-1.308.951-3.567 1.783-4.874 1.783-3.21 0-7.728-3.21-7.728-5.469 0-1.308 2.378-1.664 12.483-1.664 6.895 0 12.483-.238 12.483-.476s.357-1.308.713-2.377c.594-1.427 0-1.903-2.021-1.903s-3.328-1.07-4.399-3.567c-2.972-6.657-12.84-9.154-19.616-4.993zm12.602 5.231l2.615 2.734-7.014.357c-8.203.476-9.392-.357-5.588-3.447 3.685-2.972 6.657-2.854 9.986.357zM26.373 69.35c2.259 16.049 16.287 30.078 32.337 32.337l5.35.713v-3.804c0-3.329-.357-3.686-3.804-3.686-4.756 0-12.126-3.329-17.239-7.609-4.636-3.923-9.867-14.147-9.867-19.378 0-3.567-.357-3.923-3.685-3.923h-3.804z" fill="#cdf6ed"/></svg>