<?xml version="1.0" encoding="UTF-8" standalone="no"?>
<svg
   width="127.9199"
   height="128"
   viewBox="0 0 127.9199 128"
   fill="none"
   version="1.1"
   id="svg3446"
   sodipodi:docname="eclipse.svg"
   inkscape:export-filename="eclipse.png"
   inkscape:export-xdpi="96"
   inkscape:export-ydpi="96"
   xmlns:inkscape="http://www.inkscape.org/namespaces/inkscape"
   xmlns:sodipodi="http://sodipodi.sourceforge.net/DTD/sodipodi-0.dtd"
   xmlns="http://www.w3.org/2000/svg"
   xmlns:svg="http://www.w3.org/2000/svg">
  <defs
     id="defs3450" />
  <sodipodi:namedview
     id="namedview3448"
     pagecolor="#ffffff"
     bordercolor="#000000"
     borderopacity="0.25"
     inkscape:showpageshadow="2"
     inkscape:pageopacity="0.0"
     inkscape:pagecheckerboard="0"
     inkscape:deskcolor="#d1d1d1"
     showgrid="false" />
  <style
     type="text/css"
     fill="none"
     id="style3442"> .svgimg{fill:currentColor;) </style>
  <path
     class="svgimg"
     d="m 56.253418,107.19957 a 2.8889311,2.8889311 0 1 0 0,-5.77786 2.8889311,2.8889311 0 0 0 0,5.77786 z m -1.687023,11.99988 a 4.200918,4.200918 0 1 0 0,-8.40056 4.200918,4.200918 0 0 0 0,8.40056 z m 9.770142,-4.88699 a 3.24157,3.24157 0 1 0 0,-6.48314 3.24157,3.24157 0 0 0 0,6.48314 z m -0.277757,13.6869 a 4.8537115,4.8537115 0 1 0 0,-9.70614 4.8537115,4.8537115 0 0 0 0,9.70614 z M 41.410686,101.20283 a 2.8889325,2.8889325 0 1 0 0,-5.777864 2.8889325,2.8889325 0 0 0 0,5.777864 z m -5.649863,10.53173 a 4.200918,4.200918 0 1 0 0,-8.40055 4.200918,4.200918 0 0 0 0,8.40055 z m 10.531734,-0.84223 a 3.2415676,3.2415676 0 1 0 0,-6.48313 3.2415676,3.2415676 0 0 0 0,6.48313 z m -4.875471,12.65779 a 4.8537115,4.8537115 0 1 0 0,-9.70614 4.8537115,4.8537115 0 0 0 0,9.70614 z M 29.99448,89.97606 a 2.8889311,2.8889311 0 1 0 0,-5.777862 2.8889311,2.8889311 0 0 0 0,5.777862 z m -8.753832,7.673523 a 4.200918,4.200918 0 1 0 0,-8.400555 4.200918,4.200918 0 0 0 0,8.400555 z m 9.689503,3.171807 a 3.2415676,3.2415676 0 1 0 0,-6.483133 3.2415676,3.2415676 0 0 0 0,6.483133 z m -8.730793,9.95446 a 4.8537115,4.8537115 0 1 0 0,-9.70614 4.8537115,4.8537115 0 0 0 0,9.70614 z m 1.542385,-35.543962 a 2.8889315,2.8889315 0 1 0 0,-5.777863 2.8889315,2.8889315 0 0 0 0,5.777863 z m -10.521495,3.842521 a 4.200918,4.200918 0 1 0 0,-8.401836 4.200918,4.200918 0 0 0 0,8.401836 z m 7.367607,6.568895 a 3.241568,3.241568 0 1 0 0,-6.483136 3.241568,3.241568 0 0 0 0,6.483136 z m -11.2549274,5.9737 a 4.8537115,4.8537115 0 1 0 0,-9.706143 4.8537115,4.8537115 0 0 0 0,9.706143 z M 23.603504,59.221808 a 2.8889311,2.8889311 0 1 0 0,-5.777862 2.8889311,2.8889311 0 0 0 0,5.777862 z M 12.920731,58.846772 a 4.200278,4.200278 0 1 0 0,-8.400556 4.200278,4.200278 0 0 0 0,8.400556 z m 3.929561,8.810151 a 3.2409276,3.2409276 0 1 0 0,-6.481855 3.2409276,3.2409276 0 0 0 0,6.481855 z M 4.7748931,68.99195 a 4.8537115,4.8537115 0 1 0 0,-9.706143 4.8537115,4.8537115 0 0 0 0,9.706143 z M 29.606644,44.377796 a 2.8889311,2.8889311 0 1 0 0,-5.776582 2.8889311,2.8889311 0 0 0 0,5.777862 z M 20.380497,40.03992 a 4.200918,4.200918 0 1 0 0,-8.400556 4.200918,4.200918 0 0 0 0,8.400556 z m -0.110079,9.573024 a 3.2409276,3.2409276 0 1 0 0,-6.481855 3.2415676,3.2415676 0 0 0 0,6.483135 z M 9.2228487,46.348977 a 4.8537115,4.8537115 0 1 0 0,-9.706143 4.8537115,4.8537115 0 0 0 0,9.706143 z M 40.833412,32.96287 a 2.8889311,2.8889311 0 1 0 0,-5.777862 2.8889311,2.8889311 0 0 0 0,5.777862 z m -6.361536,-7.441845 a 4.200918,4.200918 0 1 0 0,-8.400556 4.200918,4.200918 0 0 0 0,8.400556 z m -4.131799,8.729512 a 3.2409276,3.2409276 0 1 0 0,-6.481855 3.2409276,3.2409276 0 0 0 0,6.481855 z M 21.99712,27.132529 a 4.8537115,4.8537115 0 1 0 0,-9.706143 4.8537115,4.8537115 0 0 0 0,9.706143 z m 33.574065,-0.421116 a 2.8889311,2.8889311 0 1 0 0,-5.777862 2.8889311,2.8889311 0 0 0 0,5.777862 z M 53.04705,17.500625 a 4.200918,4.200918 0 1 0 0,-8.400556 4.200918,4.200918 0 0 0 0,8.400556 z m -7.528885,6.407616 a 3.2409276,3.2409276 0 1 0 0,-6.481855 3.2409276,3.2409276 0 0 0 0,6.481855 z m -4.362196,-9.642144 a 4.8537115,4.8537115 0 1 0 0,-9.7061426 4.8537115,4.8537115 0 0 0 0,9.7061426 z m 30.425296,12.307077 a 2.8895711,2.8895711 0 1 0 0,-5.779142 2.8889311,2.8889311 0 0 0 0,5.777862 z m 1.693423,-9.372066 a 4.200918,4.200918 0 1 0 0,-8.400556 4.200918,4.200918 0 0 0 0,8.400556 z m -9.776543,2.96957 a 3.2415676,3.2415676 0 1 0 0,-6.483135 3.2415676,3.2415676 0 0 0 0,6.483135 z M 63.775903,9.7067829 a 4.8537115,4.8537115 0 1 0 0,-9.70614283354 4.8537115,4.8537115 0 0 0 0,9.70614283354 z M 86.430396,32.576314 a 2.8895711,2.8895711 0 1 0 0,-5.779142 2.8889311,2.8889311 0 0 0 0,5.777862 z m 5.649864,-7.916721 a 4.200918,4.200918 0 1 0 0,-8.400556 4.200918,4.200918 0 0 0 0,8.400556 z M 81.548525,23.590804 a 3.2409276,3.2409276 0 1 0 0,-6.481855 3.2409276,3.2409276 0 0 0 0,6.481855 z m 4.876751,-9.434786 a 4.8537115,4.8537115 0 1 0 0,-9.7061425 4.8537115,4.8537115 0 0 0 0,9.7061425 z m 11.421326,29.645784 a 2.8889311,2.8889311 0 1 0 0,-5.777862 2.8889311,2.8889311 0 0 0 0,5.777862 z m 8.748708,-5.05083 a 4.200918,4.200918 0 1 0 0,-8.400556 4.200918,4.200918 0 0 0 0,8.400556 z m -9.684379,-5.089229 a 3.2415676,3.2415676 0 1 0 0,-6.483135 3.2415676,3.2415676 0 0 0 0,6.483135 z m 8.730789,-6.730172 a 4.8537115,4.8537115 0 1 0 0,-9.707423 4.8537115,4.8537115 0 0 0 0,9.706143 z m -1.54238,31.608004 a 2.8889315,2.8889315 0 1 0 0,-5.777863 2.8889315,2.8889315 0 0 0 0,5.777863 z m 10.52149,-1.213428 a 4.200918,4.200918 0 1 0 0,-8.400556 4.200918,4.200918 0 0 0 0,8.400556 z m -7.37272,-8.486315 a 3.241568,3.241568 0 1 0 0,-6.483136 3.241568,3.241568 0 0 0 0,6.483136 z m 11.26004,-2.750693 a 4.8537115,4.8537115 0 1 0 0,-9.706143 4.8537115,4.8537115 0 0 0 0,9.706143 z m -14.27697,28.460515 a 2.8889311,2.8889311 0 1 0 0,-5.777862 2.8889311,2.8889311 0 0 0 0,5.777862 z m 10.68917,3.00541 a 4.200918,4.200918 0 1 0 0,-8.401836 4.200918,4.200918 0 0 0 0,8.400556 z m -3.92956,-10.735252 a 3.2415676,3.2415676 0 1 0 0,-6.483135 3.2415676,3.2415676 0 0 0 0,6.483135 z m 12.0754,1.889261 a 4.8537115,4.8537115 0 1 0 0,-9.707423 4.8537115,4.8537115 0 0 0 0,9.707423 z M 98.228038,89.398786 a 2.8889311,2.8889311 0 1 0 0,-5.777862 2.8889311,2.8889311 0 0 0 0,5.777862 z m 9.227422,6.96185 a 4.200918,4.200918 0 1 0 0,-8.400556 4.200918,4.200918 0 0 0 0,8.400556 z m 0.1152,-11.491725 a 3.2415676,3.2415676 0 1 0 0,-6.483135 3.2415676,3.2415676 0 0 0 0,6.483135 z m 11.04757,6.488255 a 4.8537115,4.8537115 0 1 0 0,-9.706143 4.8537115,4.8537115 0 0 0 0,9.706143 z m -31.61056,9.457824 a 2.8889311,2.8889311 0 1 0 0,-5.77786 2.8889311,2.8889311 0 0 0 0,5.77786 z m 6.361537,10.05814 a 4.200918,4.200918 0 1 0 0,-8.39927 4.200918,4.200918 0 0 0 0,8.40055 z m 4.131798,-10.64181 a 3.2409295,3.2409295 0 1 0 0,-6.481858 3.2409295,3.2409295 0 0 0 0,6.481858 z m 8.342955,10.34229 a 4.8537115,4.8537115 0 1 0 0,-9.70614 4.8537115,4.8537115 0 0 0 0,9.70614 z m -33.580462,-3.50716 a 2.8889311,2.8889311 0 1 0 0,-5.77786 2.8889311,2.8889311 0 0 0 0,5.77786 z m 2.530534,11.8322 a 4.200918,4.200918 0 1 0 0,-8.40055 4.200918,4.200918 0 0 0 0,8.40183 z m 7.528885,-8.33016 a 3.2415676,3.2415676 0 1 0 0,-6.48313 3.2415676,3.2415676 0 0 0 0,6.48313 z m 4.362197,12.87284 a 4.853715,4.853715 0 1 0 0,-9.70743 4.853715,4.853715 0 0 0 0,9.70743 z"
     fill="#020202"
     id="path3444"
     style="fill:#ff4301;fill-opacity:1;stroke-width:1" />
</svg>
