<svg xmlns="http://www.w3.org/2000/svg" width="128" height="128" viewBox="0 0 33.867 33.867" xmlns:v="https://vecta.io/nano"><path d="M14.893 28.363c.273 0 .526-.146.662-.382s.137-.528 0-.764-.389-.382-.662-.382c-.422 0-.765.342-.765.764s.342.764.765.764zm-.447 3.175a1.11 1.11 0 0 0 .979-1.673 1.11 1.11 0 0 0-2.072.561 1.11 1.11 0 0 0 1.093 1.111zm2.587-1.293a.86.86 0 0 0 .743-.429c.153-.265.153-.592 0-.858a.86.86 0 0 0-1.601.429.86.86 0 0 0 .858.858zm-.074 3.621c.464.008.896-.236 1.13-.636s.234-.896 0-1.296-.666-.643-1.13-.636c-.701.011-1.264.583-1.264 1.284s.563 1.273 1.264 1.284zm-5.996-7.09c.273 0 .526-.145.663-.382s.137-.528 0-.765-.39-.382-.663-.382c-.422 0-.764.343-.764.764s.342.764.764.764zm-1.496 2.787a1.11 1.11 0 0 0 .979-1.673 1.11 1.11 0 0 0-2.072.561 1.11 1.11 0 0 0 1.093 1.111zm2.788-.223a.86.86 0 0 0 .744-.429c.154-.266.154-.593 0-.858a.86.86 0 0 0-1.601.429.86.86 0 0 0 .857.858zm-1.291 3.349c.464.008.896-.236 1.13-.636s.234-.896 0-1.296-.666-.643-1.13-.636c-.701.011-1.264.583-1.264 1.284s.563 1.273 1.264 1.284zm-3.024-8.883c.273 0 .526-.146.662-.382s.137-.528 0-.764-.389-.382-.662-.382c-.422 0-.765.342-.765.764s.342.764.765.764zm-2.318 2.03a1.11 1.11 0 0 0 .979-1.673 1.11 1.11 0 0 0-2.072.561 1.11 1.11 0 0 0 1.093 1.111zm2.565.839a.86.86 0 0 0 .744-.429c.153-.265.153-.593 0-.858a.86.86 0 0 0-1.601.429.86.86 0 0 0 .858.858zm-2.311 2.634c.464.008.896-.236 1.13-.636s.234-.896 0-1.296-.666-.643-1.13-.636c-.701.011-1.264.583-1.264 1.284s.563 1.273 1.264 1.284zm.408-9.404c.273 0 .526-.146.663-.382s.137-.528 0-.765-.389-.382-.663-.382c-.422 0-.764.342-.764.764s.342.764.764.764zM3.5 20.922a1.11 1.11 0 0 0 .963-1.667 1.11 1.11 0 0 0-2.075.556A1.11 1.11 0 0 0 3.5 20.922zM5.45 22.66a.86.86 0 0 0 .858-.858.86.86 0 0 0-.858-.858.86.86 0 0 0-.858.858.86.86 0 0 0 .858.858zM2.47 24.24c.464.008.896-.236 1.13-.636s.234-.896 0-1.296-.666-.643-1.13-.636c-.701.011-1.264.583-1.264 1.284s.563 1.273 1.264 1.284zm3.778-8.571c.273 0 .526-.145.663-.382s.137-.528 0-.765-.39-.382-.663-.382c-.422 0-.764.343-.764.764s.342.764.764.764zM3.42 15.57a1.11 1.11 0 1 0 0-2.223 1.11 1.11 0 1 0 0 2.223zm1.04 2.331a.86.86 0 0 0 .744-.429c.153-.265.153-.593 0-.858a.86.86 0 0 0-1.601.429.86.86 0 0 0 .857.857zm-3.197.353c.464.008.896-.236 1.13-.636s.234-.896 0-1.296-.666-.643-1.13-.636C.562 15.697 0 16.269 0 16.97s.563 1.273 1.264 1.284zm6.574-6.512c.277.006.536-.139.676-.377s.14-.535 0-.774-.399-.383-.676-.377c-.422 0-.765.342-.765.764s.342.764.765.764zm-2.443-1.148a1.11 1.11 0 0 0 .979-1.673 1.11 1.11 0 0 0-2.072.561 1.11 1.11 0 0 0 1.093 1.111zm-.029 2.533a.86.86 0 0 0 .743-.429c.153-.265.153-.592 0-.857a.86.86 0 0 0-1.601.429.86.86 0 0 0 .858.858zm-2.925-.864c.464.008.896-.236 1.13-.636s.234-.896 0-1.296-.666-.643-1.13-.636c-.701.011-1.264.583-1.264 1.284s.563 1.273 1.264 1.284zm8.369-3.542c.273 0 .526-.146.662-.382s.137-.528 0-.764-.389-.382-.662-.382c-.422 0-.765.342-.765.764s.342.764.765.764zM9.126 6.752a1.11 1.11 0 0 0 .979-1.673 1.11 1.11 0 0 0-2.072.561 1.11 1.11 0 0 0 1.093 1.111zm-1.094 2.31a.86.86 0 0 0 .744-.429c.153-.265.153-.593 0-.858a.86.86 0 0 0-1.601.429.86.86 0 0 0 .857.857zM5.823 7.179c.464.008.896-.236 1.13-.636s.234-.896 0-1.296-.666-.643-1.13-.636c-.701.011-1.264.583-1.264 1.284s.563 1.273 1.264 1.284zm8.889-.111c.273 0 .526-.146.662-.382s.137-.528 0-.764-.389-.382-.662-.382c-.422 0-.765.342-.765.764s.342.764.765.764zm-.668-2.437a1.11 1.11 0 0 0 .979-1.673 1.11 1.11 0 0 0-2.072.561 1.11 1.11 0 0 0 1.093 1.111zM12.05 6.326a.86.86 0 0 0 .744-.429c.153-.265.153-.593 0-.858a.86.86 0 0 0-1.601.429.86.86 0 0 0 .857.857zm-1.155-2.551c.464.008.896-.236 1.13-.636s.234-.896 0-1.296-.666-.643-1.13-.636c-.701.011-1.264.583-1.264 1.284s.563 1.273 1.264 1.284zm8.055 3.256c.273 0 .526-.145.663-.382s.137-.528 0-.765-.39-.382-.663-.382c-.422 0-.764.343-.764.764s.342.764.764.764zm.448-2.48a1.11 1.11 0 0 0 .979-1.673 1.11 1.11 0 0 0-2.072.561 1.11 1.11 0 0 0 1.093 1.111zm-2.588.786a.86.86 0 0 0 .744-.429c.153-.265.153-.593 0-.858a.86.86 0 0 0-1.601.429.86.86 0 0 0 .858.858zm.074-2.769c.464.008.896-.236 1.13-.636s.234-.896 0-1.296-.666-.643-1.13-.636c-.701.011-1.264.583-1.264 1.284s.563 1.273 1.264 1.284zm5.998 6.051c.423 0 .765-.342.765-.765s-.343-.765-.765-.765-.765.342-.765.764.342.764.765.764zm1.496-2.095a1.11 1.11 0 0 0 .979-1.673 1.11 1.11 0 0 0-2.072.561 1.11 1.11 0 0 0 1.093 1.111zm-2.788-.283a.86.86 0 0 0 .743-.429c.153-.265.153-.592 0-.857a.86.86 0 0 0-1.601.429.86.86 0 0 0 .858.857zm1.291-2.496c.464.008.896-.236 1.13-.636s.234-.896 0-1.296-.666-.643-1.13-.636c-.701.011-1.264.583-1.264 1.284s.563 1.273 1.264 1.284zm3.024 7.844c.273 0 .526-.146.662-.382s.137-.528 0-.764-.389-.382-.662-.382c-.422 0-.765.342-.765.764s.342.764.765.764zm2.316-1.336A1.11 1.11 0 0 0 29.2 8.58a1.11 1.11 0 0 0-2.072.561 1.11 1.11 0 0 0 1.093 1.111zm-2.564-1.347a.86.86 0 0 0 .744-.429c.153-.265.153-.593 0-.858a.86.86 0 0 0-1.601.429.86.86 0 0 0 .858.858zm2.311-1.781c.459 0 .884-.244 1.113-.642s.23-.887 0-1.285-.654-.642-1.113-.642c-.701.011-1.264.583-1.264 1.284s.563 1.273 1.264 1.284zm-.408 8.363c.273 0 .526-.146.663-.382s.137-.528 0-.765-.389-.382-.663-.382c-.422 0-.764.342-.764.764s.342.764.764.764zm2.786-.321a1.11 1.11 0 0 0 .979-1.673 1.11 1.11 0 0 0-2.072.561 1.11 1.11 0 0 0 1.093 1.111zm-1.952-2.245a.86.86 0 0 0 .743-.429c.153-.265.153-.592 0-.858a.86.86 0 0 0-1.601.429.86.86 0 0 0 .858.858zm2.981-.728c.464.008.896-.236 1.13-.636s.234-.896 0-1.296-.666-.643-1.13-.636c-.701.011-1.264.583-1.264 1.284s.563 1.273 1.264 1.284zm-3.78 7.53c.273 0 .526-.146.662-.382s.137-.528 0-.764-.389-.382-.662-.382c-.422 0-.765.342-.765.764s.342.764.765.764zm2.83.795a1.11 1.11 0 0 0 .964-1.668 1.11 1.11 0 0 0-.964-.555 1.11 1.11 0 0 0-1.093 1.111 1.11 1.11 0 0 0 1.093 1.111zm-1.04-2.84a.86.86 0 0 0 .743-.429c.153-.265.153-.592 0-.858a.86.86 0 0 0-1.601.429.86.86 0 0 0 .858.858zm3.197.5c.459 0 .883-.245 1.113-.642s.23-.887 0-1.284-.654-.642-1.113-.642c-.71 0-1.285.575-1.285 1.284s.575 1.284 1.285 1.284zm-6.576 5.474c.273 0 .526-.146.662-.382s.137-.528 0-.764-.389-.382-.662-.382c-.422 0-.765.342-.765.764s.342.764.765.764zm2.443 1.842a1.11 1.11 0 0 0 .979-1.673 1.11 1.11 0 0 0-2.072.561 1.11 1.11 0 0 0 1.093 1.111zm.03-3.041a.86.86 0 0 0 .744-.429c.153-.265.153-.593 0-.858a.86.86 0 0 0-1.601.429.86.86 0 0 0 .858.858zm2.925 1.717c.464.008.896-.236 1.13-.636s.234-.896 0-1.296-.666-.643-1.13-.636c-.701.011-1.264.583-1.264 1.284s.563 1.273 1.264 1.284zm-8.369 2.502c.273 0 .526-.145.663-.382s.137-.528 0-.765-.39-.382-.663-.382c-.422 0-.764.343-.764.764s.342.764.764.764zm1.684 2.661a1.11 1.11 0 0 0 .986-1.675 1.11 1.11 0 0 0-.986-.547 1.11 1.11 0 0 0-1.093 1.111 1.11 1.11 0 0 0 1.093 1.111zm1.094-2.816a.86.86 0 0 0 .743-.429c.153-.265.153-.592 0-.857a.86.86 0 0 0-1.601.429.86.86 0 0 0 .858.857zm2.209 2.736c.464.008.896-.236 1.13-.636s.234-.896 0-1.296-.666-.643-1.13-.636c-.701.011-1.264.583-1.264 1.284s.563 1.273 1.264 1.284zm-8.89-.928c.273 0 .526-.145.663-.382s.137-.528 0-.765-.39-.382-.663-.382c-.422 0-.764.343-.764.764s.342.764.764.764zm.67 3.131a1.11 1.11 0 0 0 .979-1.673 1.11 1.11 0 0 0-.979-.55 1.11 1.11 0 1 0 0 2.223zm1.993-2.204a.86.86 0 0 0 .744-.429c.153-.265.153-.593 0-.858a.86.86 0 0 0-1.601.429.86.86 0 0 0 .858.858zm1.155 3.406c.459 0 .884-.245 1.113-.642s.23-.887 0-1.285-.654-.642-1.113-.642c-.709 0-1.285.575-1.285 1.284s.575 1.284 1.285 1.284z" fill="#ff4301"/></svg>