<?xml version="1.0" encoding="UTF-8" standalone="no"?>
<svg
   width="128"
   height="128"
   viewBox="0 0 128 128"
   fill="none"
   version="1.1"
   id="svg21515"
   sodipodi:docname="empirelion.svg"
   inkscape:export-filename="..\transparentSVGs\new\empirenetwork.png"
   inkscape:export-xdpi="96"
   inkscape:export-ydpi="96"
   xmlns:inkscape="http://www.inkscape.org/namespaces/inkscape"
   xmlns:sodipodi="http://sodipodi.sourceforge.net/DTD/sodipodi-0.dtd"
   xmlns:xlink="http://www.w3.org/1999/xlink"
   xmlns="http://www.w3.org/2000/svg"
   xmlns:svg="http://www.w3.org/2000/svg">
  <defs
     id="defs21519">
    <linearGradient
       inkscape:collect="always"
       id="linearGradient56926">
      <stop
         style="stop-color:#a77e4f;stop-opacity:1;"
         offset="0"
         id="stop56922" />
      <stop
         style="stop-color:#d9b880;stop-opacity:1;"
         offset="0.9985528"
         id="stop56924" />
    </linearGradient>
    <linearGradient
       inkscape:collect="always"
       id="linearGradient50802">
      <stop
         style="stop-color:#a77e4f;stop-opacity:1;"
         offset="0.23299566"
         id="stop50798" />
      <stop
         style="stop-color:#f7d294;stop-opacity:1;"
         offset="0.64327061"
         id="stop50806" />
      <stop
         style="stop-color:#c7a473;stop-opacity:1;"
         offset="0.8465991"
         id="stop50800" />
    </linearGradient>
    <linearGradient
       inkscape:collect="always"
       id="linearGradient48410">
      <stop
         style="stop-color:#d7ad66;stop-opacity:1;"
         offset="0"
         id="stop48406" />
      <stop
         style="stop-color:#f7d294;stop-opacity:1;"
         offset="0.5"
         id="stop48414" />
      <stop
         style="stop-color:#ae8454;stop-opacity:1;"
         offset="1"
         id="stop48408" />
    </linearGradient>
    <linearGradient
       inkscape:collect="always"
       id="linearGradient46120">
      <stop
         style="stop-color:#c29a6a;stop-opacity:1;"
         offset="0"
         id="stop46116" />
      <stop
         style="stop-color:#f8d395;stop-opacity:1;"
         offset="0.5"
         id="stop46124" />
      <stop
         style="stop-color:#c69e6d;stop-opacity:1;"
         offset="1"
         id="stop46118" />
    </linearGradient>
    <linearGradient
       inkscape:collect="always"
       id="linearGradient41471">
      <stop
         style="stop-color:#bd9566;stop-opacity:1;"
         offset="0"
         id="stop41469" />
      <stop
         style="stop-color:#fed99a;stop-opacity:1;"
         offset="0.09044862"
         id="stop41477" />
      <stop
         style="stop-color:#a88050;stop-opacity:1;"
         offset="1"
         id="stop41467" />
    </linearGradient>
    <linearGradient
       inkscape:collect="always"
       id="linearGradient38448">
      <stop
         style="stop-color:#b38b5e;stop-opacity:1;"
         offset="0"
         id="stop38444" />
      <stop
         style="stop-color:#fbd697;stop-opacity:1;"
         offset="0.5"
         id="stop38456" />
      <stop
         style="stop-color:#ba9264;stop-opacity:1;"
         offset="1"
         id="stop38446" />
    </linearGradient>
    <linearGradient
       inkscape:collect="always"
       id="linearGradient24203">
      <stop
         style="stop-color:#a3794b;stop-opacity:1;"
         offset="0.1577424"
         id="stop24201" />
      <stop
         style="stop-color:#fcd798;stop-opacity:1;"
         offset="0.5"
         id="stop26763" />
      <stop
         style="stop-color:#ac8453;stop-opacity:1;"
         offset="0.76700437"
         id="stop24199" />
    </linearGradient>
    <linearGradient
       inkscape:collect="always"
       xlink:href="#linearGradient24203"
       id="linearGradient24205"
       x1="0.4006356"
       y1="28.121649"
       x2="25.599365"
       y2="0.8783505"
       gradientUnits="userSpaceOnUse" />
    <linearGradient
       inkscape:collect="always"
       xlink:href="#linearGradient38448"
       id="linearGradient38450"
       x1="16.201136"
       y1="7.9764304"
       x2="20.193476"
       y2="7.9764304"
       gradientUnits="userSpaceOnUse"
       gradientTransform="matrix(4.3296927,0,0,4.3296927,6.8480601,0.35351669)" />
    <linearGradient
       inkscape:collect="always"
       xlink:href="#linearGradient41471"
       id="linearGradient41473"
       x1="10.925735"
       y1="2.9034581"
       x2="20.388937"
       y2="2.9034581"
       gradientUnits="userSpaceOnUse"
       gradientTransform="matrix(4.3296927,0,0,4.3296927,6.8480601,0.35351669)" />
    <linearGradient
       inkscape:collect="always"
       xlink:href="#linearGradient46120"
       id="linearGradient46122"
       x1="2.5158856"
       y1="6.0753694"
       x2="2.5158856"
       y2="17.87015"
       gradientUnits="userSpaceOnUse"
       gradientTransform="matrix(4.3296927,0,0,4.3296927,6.8480601,0.35351669)" />
    <linearGradient
       inkscape:collect="always"
       xlink:href="#linearGradient48410"
       id="linearGradient48412"
       x1="6.6299973"
       y1="9.8617496"
       x2="6.6299973"
       y2="24.377649"
       gradientUnits="userSpaceOnUse"
       gradientTransform="matrix(4.3296927,0,0,4.3296927,6.8480601,0.35351669)" />
    <linearGradient
       inkscape:collect="always"
       xlink:href="#linearGradient50802"
       id="linearGradient50804"
       x1="10.859835"
       y1="13.34195"
       x2="21.042236"
       y2="26.85725"
       gradientUnits="userSpaceOnUse"
       gradientTransform="matrix(4.3296927,0,0,4.3296927,6.8480601,0.35351669)" />
    <linearGradient
       inkscape:collect="always"
       xlink:href="#linearGradient56926"
       id="linearGradient56928"
       x1="18.688236"
       y1="10.512609"
       x2="19.826256"
       y2="14.18945"
       gradientUnits="userSpaceOnUse"
       gradientTransform="matrix(4.3296927,0,0,4.3296927,6.8480601,0.35351669)" />
    <filter
       style="color-interpolation-filters:sRGB"
       inkscape:label="Drop Shadow"
       id="filter66843"
       x="-0.038097162"
       y="-0.035238024"
       width="1.0920681"
       height="1.0851586">
      <feFlood
         flood-opacity="0.498039"
         flood-color="rgb(0,0,0)"
         result="flood"
         id="feFlood66833" />
      <feComposite
         in="flood"
         in2="SourceGraphic"
         operator="in"
         result="composite1"
         id="feComposite66835" />
      <feGaussianBlur
         in="composite1"
         stdDeviation="0.4"
         result="blur"
         id="feGaussianBlur66837" />
      <feOffset
         dx="0.4"
         dy="0.4"
         result="offset"
         id="feOffset66839" />
      <feComposite
         in="SourceGraphic"
         in2="offset"
         operator="over"
         result="composite2"
         id="feComposite66841" />
    </filter>
  </defs>
  <sodipodi:namedview
     id="namedview21517"
     pagecolor="#ffffff"
     bordercolor="#000000"
     borderopacity="0.25"
     inkscape:showpageshadow="2"
     inkscape:pageopacity="0.0"
     inkscape:pagecheckerboard="0"
     inkscape:deskcolor="#d1d1d1"
     showgrid="false" />
  <path
     d="m 11.082535,6.3511695 2.316,0.79982 c -0.4918,0.51223 -1.0806,1.37161 -1.4447,1.98424 -0.6739,-0.64156 -0.9837,-1.87022 -0.8713,-2.78406 z m 9.11112,1.58773 c -0.6875,0.30972 -0.63986,0.81514 -0.2978,1.37842 -0.2859,-0.23314 -0.54457,-0.35227 -0.62965,-0.46969 -0.32163,0.10381 -0.80322,0.12253 -1.22526,0.12253 -0.6807,0 -0.76919,-0.43735 -0.98361,-0.57349 -0.21442,-0.13614 -0.856,-0.01021 -0.856,-0.01021 0,0 0.45779,-0.62284 1.54861,-0.56498 1.09082,0.05956 1.13847,0.34205 2.44371,0.11742 z m 5.14438,2.6581505 c -0.01191,0.4407 0.108912,0.7794 0.192298,1.1129 0.137841,0.5463 0.05616,1.0177 -0.12933,1.3546 -0.357368,0.6467 -1.102738,0.7879 -1.410748,-0.0068 -0.38119,-0.9904 0.76238,-1.797001 1.34778,-2.4607 z m -1.13506,3.4886 c 0,0 0.96659,0.8627 1.00573,1.6983 0.03914,0.837299 -1.12486,1.541799 -1.12486,1.541799 0,0 -0.36587,-0.6007 -1.22866,-0.430599 -0.86278,0.1702 -1.16399,0.6671 -1.16399,0.6671 -0.84407,-0.4662 -2.21227,-2.008 -2.19526,-3.0461 1.27631,0.6092 2.19526,0.5275 3.45625,-0.1991 0.70623,-0.4067 0.95809,-0.3574 1.25079,-0.2314 z M 5.4497356,4.4213895 c 1.8038,-1.54519 3.8255,-2.18164 5.9424994,-2.08975 -0.3302,-0.35396 -0.5139,-0.82364 -0.4748,-1.453289 1.6133,1.255889 5.0355,0.484999 6.70829,0.387999 0.69601,-0.04084 1.63027,0.17528 2.22928,0.78961 1.1623,1.18782 0.17188,2.02678 -0.57349,3.05294 0.03234,-0.4799 0.0068,-1.23888 -0.23483,-1.66261 -0.5803,-1.01935 -2.51689,-0.81854 -3.47325,-0.62114 0.7998,0.20591 1.59111,0.73345 2.0625,1.28652 -1.489,-0.42033 -4.0604,-0.6841 -5.3877,-0.44245 1.1657,0.61943 2.2531,1.51455 2.2531,1.51455 -3.2708,-0.45437 -5.7059994,-1.54689 -9.0515994,-0.76238 z m 3.2588,0.86619 c -2.2582,-0.20251 -3.8102,0.10891 -5.2737,1.9468 -1.0976,1.37841 -2.66829998,4.0178705 -3.03420001,5.6991705 l 1.63710001,-0.3557 c -0.4986,2.471 -0.1719,5.290699 -0.1719,5.290699 0,0 1.2406,-4.8653 3.4511,-6.863099 -0.1957,0.0221 -0.9002,0.1378 -1.5639,0.2519 0.8067,-2.6871005 3.3491,-4.6407105 4.9555,-5.9697705 z M 10.948035,17.603149 c -0.8577,4.3003 4.9759,6.1195 3.2027,10.5185 3.0053,-1.4857 4.08081,-2.8556 2.2191,-6.0821 -0.0902,0.5531 -0.2246,1.1436 -0.5037,1.6354 -1.5248,-3.1703 -3.5363,-3.2299 -4.9181,-6.0718 z m 10.27177,-7.319199 c 0,0 0.55817,0.194 0.91214,0.0102 0.35396,-0.182101 0.96659,0.0221 1.86852,0.0323 0.90192,0.0102 1.04147,-0.1395 1.01934,-0.3658995 -0.02212,-0.22631 -3.00698,-2.34158 -3.00698,-2.34158 0,0 1.05168,0.33354 1.2678,0.35396 0.21442,0.02213 0.11912,-0.40161 -0.34375,-0.7811 -0.46288,-0.37949 -2.77895,-2.06251 -2.77895,-2.06251 l -0.39992,0.67389 c -1.6626,-0.9666 -3.08016,-1.31035 -4.95717,-1.40224 0.3931,0.16507 0.97,0.41522 1.3137,0.66538 0,0 -1.1044,0.31142 -1.7766,0.86619 l -4.2254,-0.86619 c 0,0 -0.5105999,2.0472 0.4169,3.26906 -0.6261999,-0.46969 -1.0005994,-1.03467 -1.2201994,-1.57412 -1.0499,0.76749 -2.5815,1.96382 -3.509,3.02571 0.6773,0.02722 1.3512,0.05275 1.9111,0.07317 -2.7381,2.5151795 -3.543,6.1364805 -2.8385,9.6863795 0.3437,-0.501999 0.8458,-1.116399 1.2287,-1.5656 0.6041,3.743801 1.7987,3.919101 2.4811,6.2181 0.2978,1.004101 -0.0374,3.0887 -0.0374,3.0887 3.6620994,-2.0863 3.3506994,-3.3609 2.4555994,-4.9112 -1.0856999,-1.8805 -3.1992994,-4.1097 -2.2905994,-7.957399 -0.4969,0.280799 -0.8917,0.536099 -1.2065,0.7658 0.0204,-2.5748 2.0336,-4.8959 4.3445994,-5.8693405 -1.8736999,3.2877405 -0.9241,5.7042405 0.8032,7.6238405 1.7,1.8889 4.19648,3.1465 5.14776,5.518799 0.15316,-1.1232 0.17869,-2.6616 -0.1038,-3.7745 4.76659,2.5356 2.35862,4.749601 3.28266,8.173501 1.88894,-3.0564 4.519846,-3.1006 3.76087,-6.311801 -0.29441,-1.2423 -0.0987,-2.3535 -0.0987,-2.3535 0,0 -1.38863,0.9802 -1.95361,3.0155 -1.95871,-3.007 -3.61111,-5.2601 -7.09968,-6.6045 0.422,1.264401 0.5769,1.7953 0.291,2.5577 -0.9785,-2.7211 -5.3282,-3.7149 -3.6741,-7.2902695 0.0647,1.9008695 1.1742,2.4964695 2.9321,2.6683695 -0.9002,-0.7828 -1.1282,-1.7647 -1.1282,-1.7647 1.9553,1.3818 3.47493,-1.6796595 5.83185,-0.2519 -2.76533,-0.1872 -3.14482,3.0342 -0.5905,3.5873 1.70855,0.371 4.0961,-0.3914 4.27649,-0.9768 0.35737,-0.9683 -0.25186,-1.6422 -1.15889,-1.9792 -0.90363,-0.3386 -1.14698,-0.8695 -1.14698,-0.8695 z"
     fill="#d7ad66"
     id="path21499"
     style="display:inline;fill:url(#linearGradient24205);fill-opacity:1;filter:url(#filter66843)"
     transform="matrix(4.3296927,0,0,4.3296927,6.8480601,0.35351669)" />
  <path
     d="m 40.243133,43.051861 c -11.855131,10.890045 -15.340101,26.569161 -12.289832,41.9387 1.488548,-2.173501 3.662054,-4.833232 5.319893,-6.778562 1.208417,13.299512 8.627779,19.370612 10.926845,27.689251 -0.01472,-9.976483 -8.119905,-15.50983 -9.254285,-32.470968 L 29.854469,78.83114 C 26.207136,58.5028 40.243133,43.051861 40.243133,43.051861 Z"
     fill="#d7ad66"
     id="path21501"
     style="fill:url(#linearGradient48412);fill-opacity:1;stroke-width:4.32969" />
  <path
     d="m 53.867808,58.12006 c 0.68539,5.982769 3.735658,11.089209 7.766169,15.576069 7.360478,8.17879 18.169469,13.623378 22.288219,23.894704 0.663136,-4.863111 0.77363,-11.523477 -0.449465,-16.342425 20.637869,10.978368 10.212099,20.564312 14.212952,35.388752 -1.318868,-6.59456 0.63365,-13.35105 0.20631,-19.532552 -0.655776,-9.416648 -6.50597,-14.736109 -17.108608,-19.680185 0.62629,1.849212 1.156808,7.353117 1.45889,11.656399 C 74.233383,78.485631 57.036277,73.47531 53.867808,58.12006 Z"
     fill="#d7ad66"
     id="path21503"
     style="fill:url(#linearGradient50804);fill-opacity:1;stroke-width:4.32969" />
  <path
     d="M 90.93461,21.663093 C 98.206848,11.753076 90.37465,6.7354382 79.941477,9.4321439 82.726595,7.9438121 84.295978,7.3985739 84.951754,7.1259764 78.453145,6.8975419 60.084813,11.480478 54.153134,4.1861021 c 6.992454,5.4007851 21.787447,2.0777892 29.008205,1.6504486 3.01351,-0.1768247 7.058568,0.7589085 9.659458,3.4187686 4.715555,4.8260487 1.230499,8.3185087 -1.886187,12.4077737 z"
     fill="#d7ad66"
     id="path21505"
     style="fill:url(#linearGradient41473);fill-opacity:1;stroke-width:4.32969" />
  <path
     d="m 26.899454,26.657999 c -1.782968,1.259941 -3.492331,2.910377 -5.179612,5.025042 -4.75227,5.968091 -11.552918,17.395755 -13.1371529,24.6757 L 15.670829,54.818669 C 13.512044,65.516907 14.926555,77.72577 14.926555,77.72577 13.504684,64.338364 17.719206,52.821815 17.719206,52.821815 l -6.439984,1.274661 c 1.739237,-4.936282 4.45049,-11.685583 8.134626,-17.9558 2.416401,-4.140832 5.069204,-7.228032 7.485606,-9.482677 z"
     fill="#d7ad66"
     id="path21507"
     style="fill:url(#linearGradient46122);fill-opacity:1;stroke-width:4.32969" />
  <path
     d="M 92.755938,45.903832 C 80.782866,45.093313 79.139791,59.040985 90.199255,61.435738 91.002369,61.61239 91.834969,61.72323 92.689651,61.789474 81.36495,59.571806 82.278601,46.132435 92.755941,45.903832 Z"
     fill="#d7ad66"
     id="path21509"
     style="fill:url(#linearGradient56928);fill-opacity:1;stroke-width:4.32969" />
  <path
     d="m 94.2796,34.725732 c 0,0 -3.13145,0.257877 -6.469167,-0.736827 -4.347141,-1.289426 -8.635355,-1.694641 -10.816438,2.674625 0,0 1.982133,-2.69675 6.705049,-2.446233 4.722915,0.257919 4.929225,1.481014 10.580556,0.508435 z"
     fill="#d7ad66"
     id="path21511"
     style="display:inline;fill:url(#linearGradient38450);fill-opacity:1;stroke-width:4.32969" />
</svg>
