<svg xmlns="http://www.w3.org/2000/svg" width="128" height="128" xmlns:v="https://vecta.io/nano"><circle cx="64" cy="64" r="50" fill="#fff"/><path d="M64 0C28.661 0 0 28.661 0 64s28.661 64 64 64 64-28.661 64-64h0c.103-35.339-28.559-64-64-64zm-2.876 95.538c-3.493 2.465-7.705 3.904-11.917 3.904-7.396 0-14.177-4.006-19.313-11.403-4.623-7.088-7.191-15.307-7.396-23.73 0-.308.205-.616.514-.719l5.034-2.26c.411-.205.822 0 1.027.411 0 .103.103.205.103.308h0c0 8.424 2.26 16.334 6.266 22.189 3.801 5.547 8.732 8.526 13.868 8.526 2.774 0 5.547-.822 7.807-2.363a.8.8 0 0 1 1.027.205c1.027 1.335 2.055 2.568 3.185 3.801.103.308.103.822-.205 1.13zm37.085-7.499c-5.034 7.294-11.917 11.403-19.313 11.403s-14.177-4.109-19.313-11.403c-4.828-6.986-7.499-16.231-7.499-25.99 0-9.04 5.239-16.128 11.814-16.128s11.814 7.088 11.814 16.128c.103 7.91-1.746 15.615-5.445 22.6-.205.411-.719.514-1.027.308-.103 0-.103-.103-.205-.205-.616-.719-1.233-1.438-1.746-2.157-.616-.925-1.13-1.746-1.644-2.774a.88.88 0 0 1 0-.719c2.363-5.445 3.493-11.3 3.493-17.156 0-4.417-2.26-9.451-5.239-9.451s-5.239 5.034-5.239 9.451c0 8.424 2.26 16.334 6.266 22.189 3.801 5.547 8.732 8.526 13.868 8.526s10.067-3.082 13.868-8.526c4.006-5.856 6.266-13.766 6.266-22.189s-2.26-16.334-6.266-22.189c-1.13-1.746-2.568-3.287-4.109-4.623-.308-.308-.308-.822-.103-1.13.103-.103.205-.205.308-.205l5.034-2.26c.308-.103.616-.103.822.205 1.335 1.335 2.465 2.774 3.493 4.212 4.828 6.986 7.499 16.231 7.499 25.99s-2.568 19.108-7.396 26.093z" fill="#a566ff"/></svg>