<svg xmlns="http://www.w3.org/2000/svg" width="128" height="128" xmlns:v="https://vecta.io/nano"><path d="M119.742 64.008l-16.327 39.416L64 119.751l-39.416-16.327L8.257 64.008l16.327-39.416L64 8.265l39.416 16.327z" fill="#fff"/><path fill-rule="evenodd" d="M59.936 80.446H84.71V91.96H43.29V81.499l16.3-18.045-16.222-16.905V36.055H84.71v11.511H60.462l15.037 15.746-15.563 17.136z"/><path d="M64.001 11.648l37.025 15.333 15.335 37.026-15.335 37.026-37.027 15.337-37.025-15.338-15.337-37.026 15.337-37.025zm0-11.648a5.03 5.03 0 0 0-1.92.381l-41.706 17.28a5.009 5.009 0 0 0-2.713 2.711L.381 62.082a5.014 5.014 0 0 0 0 3.835l17.28 41.708a5 5 0 0 0 2.713 2.711l41.708 17.28a4.981 4.981 0 0 0 3.835 0l41.71-17.28a5.008 5.008 0 0 0 2.711-2.711l17.28-41.709a5.014 5.014 0 0 0 0-3.835l-17.28-41.708a5.019 5.019 0 0 0-2.713-2.711L65.918.381A5.048 5.048 0 0 0 64.001 0z"/></svg>