<svg xmlns="http://www.w3.org/2000/svg" width="128" height="128" fill="none" xmlns:v="https://vecta.io/nano"><path d="M63.047 98.308L49.62 90.833l13.427 19.343z" fill="#b9a6ff"/><path d="M86.217 69.861L64.501 82.543c-.071 0-21.716-12.683-21.716-12.683l-13.745 6.2 35.426 19.768L99.892 76.06l-13.675-6.2z" fill="#957bd9"/><path d="M65.917 110.176l13.427-19.343-13.427 7.475z" fill="#6481f8"/><path d="M65.917 127.11l32.521-46.905-13.356 7.44-19.166 27.632v11.833z" fill="#7da2f5"/><path d="M65.917 17.607V78.54l29.546-17.536z" fill="#6481f8"/><path d="M30.562 80.205l32.486 46.905v-11.833l-19.13-27.632z" fill="#cab7ff"/><path d="M63.048 17.607L33.502 61.004 63.048 78.54z" fill="#b9a6ff"/><path d="M65.917 12.47l32.025 47.046L104 55.938 65.917 0z" fill="#7da2f5"/><path d="M63.048 0L25 55.938l6.023 3.578L63.048 12.47z" fill="#cab7ff"/></svg>