<svg xmlns="http://www.w3.org/2000/svg" xmlns:xlink="http://www.w3.org/1999/xlink" width="128" height="128" viewBox="0 0 33.867 33.867" xmlns:v="https://vecta.io/nano"><defs><linearGradient id="A" x1="415.447" y1="357.319" x2="577.915" y2="194.851" xlink:href="#Q"><stop offset=".324" stop-color="#ac9cf2"/><stop offset=".326" stop-color="#ac9cf2"/><stop offset=".465" stop-color="#b1b3ea"/><stop offset=".613" stop-color="#b4c3e5"/><stop offset=".78" stop-color="#b6cde2"/><stop offset="1" stop-color="#b7d0e1"/></linearGradient><linearGradient id="B" x1="664.553" y1="357.319" x2="502.085" y2="194.851" xlink:href="#Q"><stop offset=".324" stop-color="#b2dbf5"/><stop offset=".443" stop-color="#c4e3f4"/><stop offset=".598" stop-color="#d4eaf4"/><stop offset=".771" stop-color="#deeff3"/><stop offset="1" stop-color="#e1f0f3"/></linearGradient><linearGradient id="C" x1="471.745" y1="369.411" x2="594.27" y2="369.411" xlink:href="#Q"><stop offset=".324" stop-color="#d6cdfb"/><stop offset=".428" stop-color="#d9d4fa"/><stop offset=".655" stop-color="#dcdef9"/><stop offset=".953" stop-color="#dde1f9"/></linearGradient><linearGradient id="D" x1="608.255" y1="369.411" x2="485.73" y2="369.411" xlink:href="#Q"><stop offset=".324" stop-color="#ecf2f2"/><stop offset=".365" stop-color="#eef4f3"/><stop offset=".619" stop-color="#f8faf6"/><stop offset=".953" stop-color="#fbfcf7"/></linearGradient><linearGradient id="E" x1="418.128" y1="471.67" x2="540" y2="471.67" xlink:href="#Q"><stop offset=".324" stop-color="#6e89d3"/><stop offset=".326" stop-color="#6e89d3"/><stop offset=".5" stop-color="#6a83e3"/><stop offset=".695" stop-color="#6880ed"/><stop offset=".953" stop-color="#677ff0"/></linearGradient><linearGradient id="F" x1="661.872" y1="471.67" x2="540" y2="471.67" xlink:href="#Q"><stop offset=".324" stop-color="#c4c5fc"/><stop offset=".544" stop-color="#c8cbf8"/><stop offset=".953" stop-color="#cacef6"/></linearGradient><linearGradient id="G" x1="468.089" y1="282.51" x2="481.823" y2="255.855" xlink:href="#Q"><stop offset="0" stop-color="#718bd4"/><stop offset=".012" stop-color="#758ed5"/><stop offset=".058" stop-color="#7790d6"/><stop offset=".099" stop-color="#7a92d7"/><stop offset=".259" stop-color="#889ddd"/><stop offset=".473" stop-color="#9aaae4"/><stop offset=".695" stop-color="#aeb9ec"/><stop offset="1" stop-color="#c6cbf5"/></linearGradient><radialGradient id="H" cx="406.412" cy="425.219" r="3.241" gradientTransform="matrix(0.7431,0.6691,-0.6691,0.7431,464.6135,-326.5226)" xlink:href="#Q"><stop offset="0" stop-color="#dadcf4"/></radialGradient><linearGradient id="I" x1="474.419" y1="401.468" x2="488.153" y2="374.813" xlink:href="#Q"><stop offset="0" stop-color="#718bd4"/><stop offset=".012" stop-color="#758ed5"/><stop offset=".058" stop-color="#7790d6"/><stop offset=".099" stop-color="#7a92d7"/><stop offset=".259" stop-color="#889ddd"/><stop offset=".473" stop-color="#9aaae4"/><stop offset=".695" stop-color="#aeb9ec"/><stop offset="1" stop-color="#c6cbf5"/></linearGradient><radialGradient id="J" cx="490.715" cy="509.385" r="3.241" gradientTransform="matrix(0.7431,0.6691,-0.6691,0.7431,464.6135,-326.5226)" xlink:href="#Q"><stop offset="0" stop-color="#dadcf4"/></radialGradient><linearGradient id="K" x1="596.459" y1="282.51" x2="610.193" y2="255.855" xlink:href="#Q"><stop offset="0" stop-color="#718bd4"/><stop offset=".012" stop-color="#758ed5"/><stop offset=".058" stop-color="#7790d6"/><stop offset=".099" stop-color="#7a92d7"/><stop offset=".259" stop-color="#889ddd"/><stop offset=".473" stop-color="#9aaae4"/><stop offset=".695" stop-color="#aeb9ec"/><stop offset="1" stop-color="#c6cbf5"/></linearGradient><radialGradient id="L" cx="501.81" cy="339.322" r="3.241" gradientTransform="matrix(0.7431,0.6691,-0.6691,0.7431,464.6135,-326.5226)" xlink:href="#Q"><stop offset="0" stop-color="#dadcf4"/></radialGradient><linearGradient id="M" x1="589.441" y1="401.468" x2="603.175" y2="374.813" xlink:href="#Q"><stop offset="0" stop-color="#718bd4"/><stop offset=".012" stop-color="#758ed5"/><stop offset=".058" stop-color="#7790d6"/><stop offset=".099" stop-color="#7a92d7"/><stop offset=".259" stop-color="#889ddd"/><stop offset=".473" stop-color="#9aaae4"/><stop offset=".695" stop-color="#aeb9ec"/><stop offset="1" stop-color="#c6cbf5"/></linearGradient><radialGradient id="N" cx="576.192" cy="432.421" r="3.241" gradientTransform="matrix(0.7431,0.6691,-0.6691,0.7431,464.6135,-326.5226)" xlink:href="#Q"><stop offset="0" stop-color="#dadcf4"/></radialGradient><linearGradient id="O" x1="533.641" y1="321.648" x2="547.375" y2="294.994" xlink:href="#Q"><stop offset="0" stop-color="#718bd4"/><stop offset=".012" stop-color="#758ed5"/><stop offset=".058" stop-color="#7790d6"/><stop offset=".099" stop-color="#7a92d7"/><stop offset=".259" stop-color="#889ddd"/><stop offset=".473" stop-color="#9aaae4"/><stop offset=".695" stop-color="#aeb9ec"/><stop offset="1" stop-color="#c6cbf5"/></linearGradient><radialGradient id="P" cx="481.315" cy="410.441" r="3.241" gradientTransform="matrix(0.7431,0.6691,-0.6691,0.7431,464.6135,-326.5226)" xlink:href="#Q"><stop offset="0" stop-color="#dadcf4"/></radialGradient><linearGradient id="Q" gradientUnits="userSpaceOnUse"/></defs><g transform="matrix(.08344 0 0 .08344 -28.124083 -12.977282)"><path d="M540 156.94V308.6L418.13 360z" fill="url(#A)"/><path d="M540 156.94V308.6L661.87 360z" fill="url(#B)"/><path d="M418.13 359.54L540 430.69V308.13z" fill="url(#C)"/><path d="M661.87 359.54L540 430.69V308.13z" fill="url(#D)"/><path d="M540 560V454.49l-121.87-71.15z" fill="url(#E)"/><path d="M540 560V454.49l121.87-71.15z" fill="url(#F)"/></g><path d="M11.452 9.448l.554 10.099M22.158 9.448l-.554 10.099" fill="#dadcf4" stroke="#b0b4e9" stroke-width=".334"/><g fill="none"><path d="M16.948 12.802l-4.941 6.66" stroke="#b0b4e9" stroke-width=".334"/><path d="M16.755 12.802l4.941 6.66" stroke="#b0b4e9" stroke-width=".334"/></g><g transform="matrix(.08344 0 0 .08344 -28.124083 -12.977282)"><linearGradient gradientUnits="userSpaceOnUse" x1="468.089" y1="282.51" x2="481.823" y2="255.855"><stop offset="0" stop-color="#718bd4"/><stop offset=".012" stop-color="#758ed5"/><stop offset=".058" stop-color="#7790d6"/><stop offset=".099" stop-color="#7a92d7"/><stop offset=".259" stop-color="#889ddd"/><stop offset=".473" stop-color="#9aaae4"/><stop offset=".695" stop-color="#aeb9ec"/><stop offset="1" stop-color="#c6cbf5"/></linearGradient><circle cx="474.63" cy="269.82" r="14.99" fill="url(#G)"/><radialGradient cx="406.412" cy="425.219" r="3.241" gradientTransform="matrix(0.7431,0.6691,-0.6691,0.7431,464.6135,-326.5226)" gradientUnits="userSpaceOnUse"><stop offset="0" stop-color="#dadcf4"/></radialGradient><path d="M485.12 264.13c-.79.88-2.85.32-4.6-1.25s-2.52-3.56-1.73-4.44 2.85-.32 4.6 1.25 2.52 3.56 1.73 4.44z" fill="url(#H)"/><linearGradient gradientUnits="userSpaceOnUse" x1="474.419" y1="401.468" x2="488.153" y2="374.813"><stop offset="0" stop-color="#718bd4"/><stop offset=".012" stop-color="#758ed5"/><stop offset=".058" stop-color="#7790d6"/><stop offset=".099" stop-color="#7a92d7"/><stop offset=".259" stop-color="#889ddd"/><stop offset=".473" stop-color="#9aaae4"/><stop offset=".695" stop-color="#aeb9ec"/><stop offset="1" stop-color="#c6cbf5"/></linearGradient><circle cx="480.96" cy="388.78" r="14.99" fill="url(#I)"/><radialGradient cx="490.715" cy="509.385" r="3.241" gradientTransform="matrix(0.7431,0.6691,-0.6691,0.7431,464.6135,-326.5226)" gradientUnits="userSpaceOnUse"><stop offset="0" stop-color="#dadcf4"/></radialGradient><path d="M491.45 383.09c-.79.88-2.85.32-4.6-1.25s-2.52-3.56-1.73-4.44 2.85-.32 4.6 1.25 2.52 3.56 1.73 4.44z" fill="url(#J)"/><linearGradient gradientUnits="userSpaceOnUse" x1="596.459" y1="282.51" x2="610.193" y2="255.855"><stop offset="0" stop-color="#718bd4"/><stop offset=".012" stop-color="#758ed5"/><stop offset=".058" stop-color="#7790d6"/><stop offset=".099" stop-color="#7a92d7"/><stop offset=".259" stop-color="#889ddd"/><stop offset=".473" stop-color="#9aaae4"/><stop offset=".695" stop-color="#aeb9ec"/><stop offset="1" stop-color="#c6cbf5"/></linearGradient><circle cx="603" cy="269.82" r="14.99" fill="url(#K)"/><radialGradient cx="501.81" cy="339.322" r="3.241" gradientTransform="matrix(0.7431,0.6691,-0.6691,0.7431,464.6135,-326.5226)" gradientUnits="userSpaceOnUse"><stop offset="0" stop-color="#dadcf4"/></radialGradient><path d="M613.49 264.13c-.79.88-2.85.32-4.6-1.25s-2.52-3.56-1.73-4.44 2.85-.32 4.6 1.25 2.52 3.56 1.73 4.44z" fill="url(#L)"/><linearGradient gradientUnits="userSpaceOnUse" x1="589.441" y1="401.468" x2="603.175" y2="374.813"><stop offset="0" stop-color="#718bd4"/><stop offset=".012" stop-color="#758ed5"/><stop offset=".058" stop-color="#7790d6"/><stop offset=".099" stop-color="#7a92d7"/><stop offset=".259" stop-color="#889ddd"/><stop offset=".473" stop-color="#9aaae4"/><stop offset=".695" stop-color="#aeb9ec"/><stop offset="1" stop-color="#c6cbf5"/></linearGradient><circle cx="595.98" cy="388.78" r="14.99" fill="url(#M)"/><radialGradient cx="576.192" cy="432.421" r="3.241" gradientTransform="matrix(0.7431,0.6691,-0.6691,0.7431,464.6135,-326.5226)" gradientUnits="userSpaceOnUse"><stop offset="0" stop-color="#dadcf4"/></radialGradient><path d="M606.47 383.09c-.79.88-2.85.32-4.6-1.25s-2.52-3.56-1.73-4.44 2.85-.32 4.6 1.25 2.53 3.56 1.73 4.44z" fill="url(#N)"/><linearGradient gradientUnits="userSpaceOnUse" x1="533.641" y1="321.648" x2="547.375" y2="294.994"><stop offset="0" stop-color="#718bd4"/><stop offset=".012" stop-color="#758ed5"/><stop offset=".058" stop-color="#7790d6"/><stop offset=".099" stop-color="#7a92d7"/><stop offset=".259" stop-color="#889ddd"/><stop offset=".473" stop-color="#9aaae4"/><stop offset=".695" stop-color="#aeb9ec"/><stop offset="1" stop-color="#c6cbf5"/></linearGradient><circle cx="540.18" cy="308.96" r="14.99" fill="url(#O)"/><radialGradient cx="481.315" cy="410.441" r="3.241" gradientTransform="matrix(0.7431,0.6691,-0.6691,0.7431,464.6135,-326.5226)" gradientUnits="userSpaceOnUse"><stop offset="0" stop-color="#dadcf4"/></radialGradient><path d="M550.67 303.27c-.79.88-2.85.32-4.6-1.25s-2.52-3.56-1.73-4.44 2.85-.32 4.6 1.25 2.53 3.56 1.73 4.44z" fill="url(#P)"/></g></svg>