<svg xmlns="http://www.w3.org/2000/svg" width="128" height="128" viewBox="0 0 33.867 33.867" xmlns:v="https://vecta.io/nano"><path d="M6.551 18.433l10.425 5.55 10.339-5.55-10.339 15.316L6.551 18.433zm.398-1.534l10.038-5.356 9.908 5.317-9.902 5.362zm10.027-7.073L6.551 15.314 16.931.118l10.385 15.231z" fill="#3ab83a"/><g fill="#0b8311"><path d="M16.976 23.983l10.339-5.55-10.339 15.316zm.011-12.441l9.908 5.317-9.902 5.362zm-.011-1.716L16.93.118l10.385 15.231z"/><path d="M6.949 16.899l10.039.824 9.908-.858-9.902 5.363z"/></g><path d="M16.987 17.723l9.908-.858-9.902 5.363z" fill="#146714"/></svg>