<svg xmlns="http://www.w3.org/2000/svg" width="128" height="128" viewBox="0 0 33.867 33.867" xmlns:v="https://vecta.io/nano"><circle cx="16.933" cy="16.933" r="16.933"/><path d="M13.881 9.069c-4.619 1.776-5.043 6.325-6.367 8.449-1.34 2.15-4.411 3.336-3.991 4.431s3.494-.081 5.926.618c2.403.691 5.757 3.788 10.376 2.012a8.28 8.28 0 0 0 4.841-4.973c.084-.237-.073-.49-.323-.513a.38.38 0 0 0-.375.206 6.55 6.55 0 0 1-3.516 3.19c-2.627 1.01-5.501.217-7.266-1.772a6.55 6.55 0 0 1-1.015-1.534 6.55 6.55 0 0 1-.208-.48 6.65 6.65 0 0 1-.166-.496c1.388-.648 2.991-1.335 4.807-2.033 1.781-.685 3.402-1.24 4.845-1.684.976-.3 1.871-.55 2.679-.755l.173-.043a.25.25 0 0 1 .293.153l.001.002c.027.07.05.14.074.21a8.4 8.4 0 0 1 .359 1.369c.035.201.254.31.433.213.663-.357 1.27-.704 1.812-1.039 2.02-1.246 3.14-2.303 2.91-2.902s-1.768-.634-4.101-.206a36.93 36.93 0 0 0-2.45.545l-.465.121a59.73 59.73 0 0 0-2.351.679 77.93 77.93 0 0 0-4.844 1.687 78.71 78.71 0 0 0-4.445 1.863c-.017-2.661 1.589-5.177 4.216-6.187 1.591-.612 3.273-.562 4.744.015a.38.38 0 0 0 .417-.098c.17-.184.118-.478-.103-.598-2.056-1.113-4.567-1.355-6.92-.451z" fill="#fff"/></svg>