<svg xmlns="http://www.w3.org/2000/svg" width="128" height="128" xmlns:v="https://vecta.io/nano"><circle cx="64" cy="64" r="64" fill="#4d0ea7"/><path fill="#fff" d="M58.976 20.015c-3.407.643-9.048 1.69-12.101 3.174l.535-.873a33.098 33.098 0 0 0-4.948 2.722l.235-1.056a31.346 31.346 0 0 0-9.724 8.569l-.441-1.587c-6.986 7.664-6.946 14.701-7.135 14.86l-1.023-1.531c-3.013 5.094-2.227 13.353-1.44 14.709l-2.613-3.237c-1.479 7.894-.535 16.097 2.486 21.706l-2.454-2.587c.566 5.054 1.999 7.292 2.093 7.426L19 80.089c1.235 9.759 11.101 16.812 11.101 16.812l-2.966-.246c2.36 2.491 7.364 4.625 7.364 4.625h-2.407C43.681 108.96 64.004 109 64.004 109s20.314 0 31.903-7.719H93.5s4.988-2.134 7.364-4.625l-2.966.246s9.866-7.053 11.101-16.812l-3.454 2.221c.087-.134 1.518-2.38 2.085-7.425l-2.455 2.586c3.061-5.609 3.934-13.812 2.486-21.706l-2.635 3.237c.787-1.356 1.636-9.615-1.417-14.709l-1.023 1.532c-.189-.159-.149-7.197-7.136-14.885l-.44 1.587a31.349 31.349 0 0 0-9.709-8.568l.236 1.056a33.133 33.133 0 0 0-4.95-2.722l.512.84c-4.563-2.174-13.8-3.847-19.111-4.133zM48.827 80.391c-.378 2.721-4.957 3.752-7.46.698-2.1-2.578.182-5.68.182-5.68-.724-2.34-5.901-2.69-5.901-2.69a16.867 16.867 0 0 1 7.868.476c3.281 1.142 5.814 3.595 5.311 7.197zm24.067 17.534a27.229 27.229 0 0 1-8.009 5.553 2.339 2.339 0 0 1-1.771 0 27.329 27.329 0 0 1-8.009-5.553c-1.999-1.928-2.998-3.372-2.998-5.165a5.55 5.55 0 0 1 .59-2.26 15.438 15.438 0 0 1 3.736-5.225 15.28 15.28 0 0 1 5.525-3.232 6.573 6.573 0 0 1 4.083 0 15.28 15.28 0 0 1 5.525 3.232 15.438 15.438 0 0 1 3.736 5.225 5.538 5.538 0 0 1 .59 2.285c0 1.769-.991 3.213-2.998 5.141zm13.769-16.836c-2.503 3.055-7.081 2.023-7.46-.698-.503-3.602 2.03-6.053 5.335-7.196a16.867 16.867 0 0 1 7.868-.476s-5.178.349-5.901 2.689c-.055 0 2.227 3.095.157 5.68z"/></svg>