<svg xmlns="http://www.w3.org/2000/svg" width="128" height="128" viewBox="0 0 33.867 33.867" xmlns:v="https://vecta.io/nano"><path d="M15.476.346c.818-.432 2.062-.432 2.88 0l8.345 4.408c.493.26.763.648.811 1.048h.008v22.157c-.011.437-.284.87-.819 1.153l-8.345 4.408c-.818.432-2.062.432-2.88 0l-8.345-4.408c-.533-.282-.789-.718-.802-1.153v-.112V5.951v-.092-.057h.004c.037-.405.295-.782.798-1.048zm10.731 17.818l-7.851 4.147c-.818.432-2.062.432-2.88 0l-7.833-4.138v9.743l7.833 4.116c.463.247.944.488 1.413.499h.027c.468.002.922-.236 1.382-.461l7.908-4.19zM4.972 27.478c0 .849.099 1.407.295 1.8.162.326.406.575.851.878l.025.017.336.216.154.095.474.286-.68 1.124-.531-.32-.089-.055-.399-.256c-1.268-.855-1.74-1.787-1.75-3.725v-.059zm11.287-15.253c-.061.021-.118.045-.17.072l-8.345 4.408-.025.014-.007.004.013.008.019.01 8.345 4.408c.052.027.109.052.17.072zm1.313 0v8.997a1.19 1.19 0 0 0 .17-.072l8.345-4.408.025-.014.007-.004-.013-.008-.019-.01-8.345-4.408a1.19 1.19 0 0 0-.17-.072zm8.634-4.851l-7.486 3.954 7.486 3.954zm-18.564.009v7.89l7.468-3.945zm10.1-5.876c-.434-.229-1.219-.229-1.653 0L7.744 5.916l-.025.014-.007.004.013.008.019.01 8.345 4.408c.434.229 1.219.229 1.653 0l8.345-4.408.025-.014.007-.004-.013-.008-.019-.01zm9.697.483l.531.32.089.055.399.256c1.268.855 1.74 1.787 1.75 3.725v.059h-1.313c0-.849-.099-1.407-.295-1.8-.162-.326-.406-.575-.851-.878l-.025-.017-.336-.216-.154-.095-.474-.286z" fill="#1969ff"/></svg>