<svg xmlns="http://www.w3.org/2000/svg" width="128" height="128" viewBox="0 0 33.867 33.867" xmlns:v="https://vecta.io/nano"><circle fill="#1969ff" cx="16.933" cy="16.933" r="16.933"/><path d="M15.907 5.385c.57-.301 1.439-.301 2.009 0l5.821 3.069c.344.181.532.451.566.73h.006V24.61c-.008.304-.198.606-.572.803l-5.821 3.069c-.57.301-1.439.301-2.009 0l-5.821-3.069c-.372-.196-.551-.5-.559-.803v-.078V9.287v-.064-.04h.003c.026-.282.206-.545.557-.73zm7.476 12.375l-5.469 2.893c-.57.301-1.436.301-2.006 0l-5.457-2.886v6.796l5.457 2.871c.322.173.658.341.984.348h.019c.326.001.642-.165.963-.321l5.509-2.922zm-14.77 6.515c0 .591.068.98.203 1.254.112.227.28.4.587.611l.018.012.232.15.107.066.327.199-.469.783-.366-.223-.062-.038-.276-.178c-.875-.595-1.202-1.245-1.208-2.595v-.041zm7.857-10.616c-.042.015-.082.031-.118.051l-5.812 3.079c-.006.003-.012.006-.018.01l-.005.003.009.005.013.007 5.812 3.079a.83.83 0 0 0 .118.051zm.926 0v6.284a.83.83 0 0 0 .118-.051l5.812-3.079c.006-.003.012-.006.017-.01l.005-.003-.009-.005-.013-.007-5.812-3.079a.84.84 0 0 0-.118-.051zm5.986-3.373l-5.226 2.745 5.226 2.745zm-12.932 0v5.49l5.226-2.745zm7.059-4.08c-.303-.16-.85-.16-1.152 0L10.54 9.281c-.006.003-.012.006-.018.01l-.005.003.009.005.013.007 5.818 3.076c.303.16.85.16 1.152 0l5.818-3.076c.006-.003.012-.006.017-.01l.005-.003-.009-.005-.013-.007zm6.739.31l.366.223.062.038.276.178c.875.595 1.202 1.245 1.208 2.595v.041h-.907c0-.591-.068-.98-.203-1.254-.112-.227-.28-.4-.587-.611l-.018-.012-.232-.15-.107-.066-.327-.199z" fill="#fff"/></svg>