<svg xmlns="http://www.w3.org/2000/svg" width="128" height="128" xmlns:v="https://vecta.io/nano"><path d="M0 0h128v128H0z" fill="#fff"/><path d="M0 0v128h128V0zm44.748 14.848h11.967v12.288H44.748zm-30.179 0h12.488v12.288H14.569zm11.967 29.696v12.288H14.049V44.544zm-3.122 67.584h-5.203v-4.608h4.683v4.608zm3.642-24.576H14.569V75.776h12.488zm26.537 24.576h-4.683v-4.608h4.683zm0-28.672h-4.683v-4.608h4.683zm3.642-26.112H44.748V45.056h12.488zm26.537 54.784h-4.683v-4.608h4.683zm0-28.672h-4.683v-4.608h4.683zm0-30.208h-4.683V48.64h4.683zm4.163-26.112H75.447V14.848h12.488zm26.537 84.992h-4.683v-4.608h4.683zm0-28.672h-4.683v-4.608h4.683zm0-30.208h-4.683V48.64h4.683zm0-29.696h-4.683v-4.608h4.683z" fill="#202944"/></svg>