<svg xmlns="http://www.w3.org/2000/svg" width="128" height="128" viewBox="0 0 33.867 33.867" xmlns:v="https://vecta.io/nano"><path d="M15.695 33.714c-.066-.084-1.039-3.59-2.163-7.79l-1.862-7.769c.288-.211 20.5-5.587 20.706-5.508.117.045.166.176.132.352-.068.357-16.32 20.868-16.535 20.868-.088 0-.214-.069-.279-.153zm-8.52-6.334c-4.674-4.708-5.946-6.055-5.916-6.263.035-.24.421-.369 4.012-1.335 3.641-.98 4.646-1.198 4.646-1.006 0 .038.856 3.261 1.903 7.161 1.939 7.225 1.981 7.441 1.462 7.441-.083 0-2.831-2.699-6.106-5.997zM.706 19.114c-.045-.045-.082-.182-.082-.304s.91-3.621 2.022-7.774l2.146-8.017c.109-.41.164-.461.454-.428.328.038.336.063 2.209 7.061 1.307 4.883 1.845 7.079 1.765 7.205-.07.111-1.69.604-4.139 1.26-4.16 1.115-4.24 1.133-4.375.997zm10.248-2.883c-.234-.645-2.141-7.99-2.113-8.137.027-.139 2.534-.861 9.695-2.792l9.98-2.608c.177-.002.39.079.475.181.472.569 4.28 7.248 4.251 7.456-.03.216-1.274.578-10.793 3.139l-11.099 2.904c-.187.005-.365-.06-.396-.144zM8.275 6.127C8.148 5.923 6.738.554 6.738.277c0-.239.063-.277.458-.277.767 0 16.524 1.445 16.657 1.527.148.091.165.511.025.598-.15.093-15.17 4.11-15.366 4.11-.094 0-.201-.049-.237-.108z" fill="#73f"/></svg>