<svg xmlns="http://www.w3.org/2000/svg" width="128" height="128" viewBox="0 0 33.867 33.867" xmlns:v="https://vecta.io/nano"><circle cx="0" cy="23.947" r="16.933" transform="rotate(315)" fill="#e62058"/><g fill="#fff"><path d="M21.456 15.475l-8.037-.006c-2.191 0-4.014 1.733-4.071 3.96-.002.06.047.109.107.109l8.037.005v.001c2.191 0 4.014-1.733 4.071-3.96.002-.06-.047-.109-.107-.109zm4.074-6.101l-12.11-.006c-2.191 0-4.014 1.733-4.071 3.96-.002.06.047.109.107.109l12.111.005v.001c2.191 0 4.014-1.733 4.071-3.96.002-.06-.047-.109-.107-.109z"/><circle cx="11.385" cy="23.582" r="2.037"/></g></svg>