<svg xmlns="http://www.w3.org/2000/svg" width="128" height="128" fill="#e62359" xmlns:v="https://vecta.io/nano"><path d="M95.149 48.145l-63.16-.046C14.771 48.098.449 61.715 0 79.217c-.011.467.371.852.841.856l63.16.039v.011c17.217 0 31.539-13.616 31.988-31.118.011-.467-.371-.852-.841-.856zM127.158.198L31.989.152C14.771.152.449 13.768 0 31.27c-.011.467.371.852.841.856l95.17.039v.011c17.217 0 31.539-13.616 31.988-31.118.011-.467-.371-.852-.841-.856z"/><circle cx="-28.012" cy="109.455" r="16.005" transform="rotate(337.5)"/></svg>