<svg xmlns="http://www.w3.org/2000/svg" width="128" height="128" viewBox="0 0 33.867 33.867" xmlns:v="https://vecta.io/nano"><path d="M16.933 33.867c9.352 0 16.933-7.581 16.933-16.933S26.285 0 16.933 0 0 7.581 0 16.933s7.581 16.933 16.933 16.933z" fill="#00ef8b"/><g fill="#fff"><path d="M24.364 14.285h-4.782v4.782h4.782z"/><path d="M14.803 20.859c0 .355-.105.702-.303.997s-.478.525-.806.661-.689.171-1.037.102-.668-.24-.919-.491-.422-.571-.491-.919-.034-.709.102-1.037.366-.608.661-.806.642-.302.997-.302h1.795v-4.779h-1.795c-1.3 0-2.571.386-3.652 1.108s-1.924 1.749-2.421 2.95-.628 2.523-.374 3.798.88 2.446 1.799 3.366 2.091 1.545 3.366 1.799 2.597.123 3.798-.374 2.228-1.34 2.95-2.421 1.108-2.352 1.108-3.652v-1.795h-4.779z"/><path d="M21.377 11.894h5.378V7.112h-5.378a6.58 6.58 0 0 0-6.573 6.574v.599h4.779v-.599c.001-.475.19-.931.527-1.267s.793-.524 1.268-.524z"/></g><path d="M14.803 19.064h4.779v-4.779h-4.779z" fill="#00ef8b"/></svg>