<svg xmlns="http://www.w3.org/2000/svg" width="128" height="128" fill="none" xmlns:v="https://vecta.io/nano"><mask id="A" maskUnits="userSpaceOnUse" x="8" y="79" width="113" height="44" mask-type="alpha"><path d="M8 79.311h112.159v42.818H8z" fill="#fff"/></mask><g mask="url(#A)"><path fill-rule="evenodd" d="M63.971 101.104c-3.952 0-7.625-.829-10.622-2.396l-32.28-16.877-9.672 5.813c-4.598 2.762-4.517 6.996.179 9.452l44.645 23.343c2.168 1.133 4.941 1.691 7.75 1.691 3.28 0 6.608-.759 9.086-2.247l43.706-26.265c4.598-2.763 4.518-6.998-.179-9.452l-9.282-4.855-31.053 18.663c-3.361 2.018-7.72 3.131-12.278 3.131z" fill="url(#B)"/></g><g fill-rule="evenodd"><path d="M116.914 56.373l-7.754-4.103-18.054 10.981-3.1 1.885-3.098 1.885-8.452 5.141c-3.371 2.052-7.745 3.18-12.315 3.18-3.964 0-7.648-.841-10.655-2.431l-9.683-5.125-3.205-1.694-3.205-1.696-17.842-9.444-8.143 4.954c-4.612 2.805-4.533 7.102.178 9.595l9.311 4.927 3.205 1.696 3.204 1.696 29.062 15.379c2.173 1.15 4.956 1.715 7.773 1.715 3.289 0 6.629-.769 9.112-2.279l27.941-16.993 3.099-1.885 3.098-1.885 9.702-5.901c4.612-2.804 4.531-7.102-.179-9.595z" fill="url(#C)"/><path d="M116.914 30.875L72.131 7.68C69.958 6.553 67.177 6 64.358 6c-3.289 0-6.629.754-9.112 2.233l-43.839 26.1c-4.612 2.744-4.533 6.95.178 9.391l7.753 4.017 3.205 1.66 3.205 1.66 17.842 9.243 3.205 1.659L50 63.625l6.367 3.299c2.173 1.126 4.956 1.678 7.773 1.678 3.289 0 6.629-.754 9.112-2.233l5.245-3.123 3.1-1.845 3.098-1.845 18.054-10.749 3.1-1.845 3.098-1.845 8.145-4.849c4.612-2.744 4.531-6.952-.179-9.392z" fill="url(#D)"/></g><defs><linearGradient id="B" x1="64.079" y1="9.734" x2="64.079" y2="122.13" gradientUnits="userSpaceOnUse"><stop stop-color="#b3f9ba"/><stop offset="1" stop-color="#f6fb8c"/></linearGradient><linearGradient id="C" x1="64.25" y1="10.076" x2="64.25" y2="119.563" gradientUnits="userSpaceOnUse"><stop stop-color="#b1ffbf"/><stop offset="1" stop-color="#fff16d"/></linearGradient><linearGradient id="D" x1="64.25" y1="6" x2="64.25" y2="119.184" gradientUnits="userSpaceOnUse"><stop stop-color="#b3f9ba"/><stop offset="1" stop-color="#f6fb8c"/></linearGradient></defs></svg>