<svg xmlns="http://www.w3.org/2000/svg" width="128" height="128" viewBox="0 0 33.867 33.867" xmlns:v="https://vecta.io/nano"><circle cx="16.933" cy="16.933" r="16.933" fill="#fff"/><path d="M16.36 11.884c-4.437 6.806-7.163 16.258-8.227 19.469-.598-6.057 2.559-14.311 4.87-19.186-1.064.05-6.731.449-9.872 3.694 0 0 1.695-5.208 11.484-6.789l.033-.067C22.31-2.194 28.06 4.496 28.06 4.496c-3.49-.582-6.531 1.165-9.124 4.01 1.263-.05 9.44-.15 11.8 6.323 0 0-4.737-3.395-14.376-2.945zm5.534 7.804c-1.961 0-3.557 1.597-3.557 3.561s1.595 3.561 3.557 3.561 3.557-1.597 3.557-3.561h0c0-1.98-1.595-3.561-3.557-3.561z"/></svg>