<svg xmlns="http://www.w3.org/2000/svg" width="128" height="128" viewBox="0 0 33.867 33.867" xmlns:v="https://vecta.io/nano"><circle cx="16.933" cy="16.933" r="16.933" fill="#1e1e1e"/><path d="M10.39 19.136a4.13 4.13 0 0 0 2.522-.861l-5.786-5.786c-1.395 1.803-1.061 4.399.742 5.794.727.549 1.61.853 2.522.853zm17.211-4.132a4.13 4.13 0 0 0-.861-2.522l-5.786 5.786c1.803 1.395 4.392 1.061 5.786-.742a4.13 4.13 0 0 0 .861-2.522zm2.915-6.298l-2.559 2.559c2.062 2.47 1.736 6.15-.734 8.212a5.83 5.83 0 0 1-7.478 0l-2.812 2.812-2.804-2.804c-2.47 2.062-6.15 1.736-8.212-.734a5.83 5.83 0 0 1 0-7.478L4.604 9.959 3.358 8.706c-1.506 2.478-2.3 5.326-2.3 8.227 0 8.769 7.107 15.876 15.875 15.876s15.875-7.107 15.875-15.876c.007-2.901-.794-5.749-2.292-8.227zm-2.099-2.73a15.87 15.87 0 0 0-22.433-.534 18.13 18.13 0 0 0-.534.534 16.83 16.83 0 0 0-1.113 1.298l12.596 12.604L29.529 7.274a15.19 15.19 0 0 0-1.113-1.298zM16.933 3.134c3.709 0 7.166 1.432 9.762 4.043l-9.762 9.763-9.762-9.763c2.596-2.611 6.053-4.043 9.762-4.043z" fill="#f1ebdd"/></svg>