<svg xmlns="http://www.w3.org/2000/svg" width="128" height="128" viewBox="0 0 33.867 33.867" xmlns:v="https://vecta.io/nano"><defs><linearGradient id="A" x1="202.93" y1="544.7" x2="203.8" y2="545.57" gradientTransform="matrix(33.866666,0,0,-33.774474,-6870.4178,18428.26)" gradientUnits="userSpaceOnUse"><stop offset="0" stop-color="#00aee9"/><stop offset="1" stop-color="#69fabd"/></linearGradient></defs><path d="M26.561.046a7.302 7.302 0 0 0-7.308 7.283v8.075l-2.32.083-2.32.077V7.33A7.308 7.308 0 0 0 0 7.33v19.3a7.308 7.308 0 0 0 14.613 0v-8.075l2.32-.083 2.32-.077v8.235a7.308 7.308 0 0 0 14.613 0V7.33A7.302 7.302 0 0 0 26.561.046zM7.306 3.03a4.31 4.31 0 0 1 4.312 4.299v8.551a24.58 24.58 0 0 0-6.209 1.755 11.289 11.289 0 0 0-2.408 1.437V7.33A4.31 4.31 0 0 1 7.306 3.03zm4.312 23.599a4.312 4.312 0 1 1-8.625 0v-1.936c0-1.71 1.355-3.33 3.626-4.339a21.261 21.261 0 0 1 4.999-1.462zm14.943 4.299a4.31 4.31 0 0 1-4.312-4.299v-8.551a24.58 24.58 0 0 0 6.209-1.755 11.289 11.289 0 0 0 2.408-1.437V26.63a4.31 4.31 0 0 1-4.305 4.299zm.687-17.336a21.261 21.261 0 0 1-4.999 1.462V7.33a4.312 4.312 0 1 1 8.625 0v1.936c0 1.703-1.355 3.323-3.626 4.327z" fill="url(#A)"/></svg>