<svg xmlns="http://www.w3.org/2000/svg" width="128" height="128" viewBox="0 0 33.867 33.867" xmlns:v="https://vecta.io/nano"><defs><linearGradient id="A" x1="202.93" y1="544.7" x2="203.8" y2="545.57" gradientTransform="matrix(29.104166,0,0,-29.024939,-5901.8841,15839.168)" gradientUnits="userSpaceOnUse"><stop offset="0" stop-color="#00aee9"/><stop offset="1" stop-color="#69fabd"/></linearGradient></defs><path d="M25.207 2.421a6.275 6.275 0 0 0-6.28 6.259v6.94l-1.994.071-1.994.066V8.68a6.28 6.28 0 0 0-12.558 0v16.586a6.28 6.28 0 0 0 12.558 0v-6.94l1.994-.071 1.994-.066v7.077a6.28 6.28 0 0 0 12.558 0V8.68a6.275 6.275 0 0 0-6.278-6.259zM8.66 4.986a3.704 3.704 0 0 1 3.706 3.695v7.349a21.123 21.123 0 0 0-5.336 1.509 9.701 9.701 0 0 0-2.07 1.235V8.68A3.704 3.704 0 0 1 8.66 4.986zm3.706 20.281a3.706 3.706 0 1 1-7.412 0v-1.664c0-1.47 1.164-2.862 3.116-3.729a18.271 18.271 0 0 1 4.296-1.256zm12.841 3.695a3.704 3.704 0 0 1-3.706-3.695v-7.349a21.123 21.123 0 0 0 5.336-1.509 9.701 9.701 0 0 0 2.07-1.235v10.093a3.704 3.704 0 0 1-3.699 3.695zm.59-14.898a18.271 18.271 0 0 1-4.296 1.256V8.68a3.706 3.706 0 1 1 7.412 0v1.664c0 1.463-1.164 2.855-3.116 3.719z" fill="url(#A)"/></svg>