<svg xmlns="http://www.w3.org/2000/svg" width="128" height="128" viewBox="0 0 33.867 33.867" xmlns:v="https://vecta.io/nano"><path d="M16.933 0C7.62 0 0 7.62 0 16.933h0c0 9.313 7.62 16.933 16.933 16.933h0c9.313 0 16.933-7.62 16.933-16.933h0C33.867 7.62 26.247 0 16.933 0z" fill="#01943f"/><path d="M12.751 11.634c.012-.007.024-.013.037-.017l.409-.176v-2.69c.001-.489-.395-.887-.884-.888H8.645v7.72a8.85 8.85 0 0 1 4.106-3.95zm3.733 4.701h.818c.57 0 1.116-.226 1.519-.629s.629-.949.629-1.519v-2.301c-.442-.076-2.464-.119-2.932-.119a7.89 7.89 0 0 0-7.876 7.341 7.62 7.62 0 0 0-.02.552l.02.552h0v4.907a.88.88 0 0 0 .259.625.89.89 0 0 0 .625.259h3.667v-6.386a3.29 3.29 0 0 1 3.292-3.282zm4.639 5.898c-.012.007-.024.013-.037.017l-.409.176v2.69c-.001.489.395.887.884.888h3.664v-7.72a8.85 8.85 0 0 1-4.103 3.95zm4.102-8.578h0V8.748a.88.88 0 0 0-.259-.625.89.89 0 0 0-.625-.259h-3.667v6.387a3.29 3.29 0 0 1-3.288 3.281h-.821c-.57 0-1.116.226-1.519.629a2.15 2.15 0 0 0-.629 1.519v2.301c.442.076 2.464.119 2.932.119l.156-.003a7.82 7.82 0 0 0 3.178-.735l.02-.01a7.88 7.88 0 0 0 4.524-6.596l.02-.552-.023-.548z" fill="#fff"/></svg>