<svg xmlns="http://www.w3.org/2000/svg" width="128" height="128" viewBox="0 0 33.867 33.867" xmlns:v="https://vecta.io/nano"><defs><linearGradient x1="0" y1="9.113" x2="29.843" y2="9.113" id="A" gradientUnits="userSpaceOnUse"><stop stop-color="#00bfaa" offset="0%"/><stop stop-color="#00dbb1" offset="100%"/></linearGradient><mask id="B" fill="#fff"><path d="M21.173.226c-3.251 0-6.083 1.836-7.567 4.55h0a1.94 1.94 0 0 1-.109.207h0l-.303.649h0c-.189.519-.336 1.166-.449 1.791h0l-.241 1.672h0v.018H12.5v.002l-.006.054h0c-.029 2.14-1.73 3.867-3.825 3.867h0c-2.112 0-3.825-1.755-3.825-3.921h0c0-2.166 1.713-3.921 3.825-3.921h0a3.77 3.77 0 0 1 2.768 1.215h0a10.37 10.37 0 0 1 2.206-4.175h0l.217-.237h0C12.414.884 10.618.226 8.67.226h0C3.882.226 0 4.205 0 9.113h0C0 14.021 3.882 17.996 8.67 18h0 .008c4.2 0 7.689-3.038 8.492-7.141h0c.056-.288.1-.581.128-.878h0 .002s0-.01.001-.027h0c.013-.139.023-.28.029-.421h0c.011-.123.026-.266.044-.419h0c.056-.476.154-1.054.318-1.491h0a4.58 4.58 0 0 1 .206-.407h0a.56.56 0 0 0 .04-.067h0c.687-1.145 1.883-1.957 3.235-1.957h0c2.112 0 3.825 1.755 3.825 3.921h0c0 2.166-1.713 3.921-3.825 3.921h0c-1.09 0-2.071-.467-2.768-1.215h0a10.39 10.39 0 0 1-2.424 4.412h0A8.5 8.5 0 0 0 21.173 18h0c4.788 0 8.669-3.979 8.669-8.887h0c0-4.908-3.881-8.887-8.669-8.887z"/></mask></defs><path d="M21.173.226c-3.251 0-6.083 1.836-7.567 4.55h0a1.94 1.94 0 0 1-.109.207h0l-.303.649h0c-.189.519-.336 1.166-.449 1.791h0l-.241 1.672h0v.018H12.5v.002l-.006.054h0c-.029 2.14-1.73 3.867-3.825 3.867h0c-2.112 0-3.825-1.755-3.825-3.921h0c0-2.166 1.713-3.921 3.825-3.921h0a3.77 3.77 0 0 1 2.768 1.215h0a10.37 10.37 0 0 1 2.206-4.175h0l.217-.237h0C12.414.884 10.618.226 8.67.226h0C3.882.226 0 4.205 0 9.113h0C0 14.021 3.882 17.996 8.67 18h0 .008c4.2 0 7.689-3.038 8.492-7.141h0c.056-.288.1-.581.128-.878h0 .002s0-.01.001-.027h0c.013-.139.023-.28.029-.421h0c.011-.123.026-.266.044-.419h0c.056-.476.154-1.054.318-1.491h0a4.58 4.58 0 0 1 .206-.407h0a.56.56 0 0 0 .04-.067h0c.687-1.145 1.883-1.957 3.235-1.957h0c2.112 0 3.825 1.755 3.825 3.921h0c0 2.166-1.713 3.921-3.825 3.921h0c-1.09 0-2.071-.467-2.768-1.215h0a10.39 10.39 0 0 1-2.424 4.412h0A8.5 8.5 0 0 0 21.173 18h0c4.788 0 8.669-3.979 8.669-8.887h0c0-4.908-3.881-8.887-8.669-8.887z" fill="url(#A)" mask="url(#B)" transform="matrix(1.134868 0 0 1.134868 0 6.591426)"/></svg>