<svg xmlns="http://www.w3.org/2000/svg" width="128" height="128" fill="none" xmlns:v="https://vecta.io/nano"><path d="M125.71 42.484L98.966 3.532c-4.2-6.105-13.698-2.864-13.388 4.553.284 6.761 2.808 13.918 8.848 22.7.002.022 0 .027-.004.031-.02.009-.025.008-.031.006-2.471-1.845-39.723-29.854-84.005-14.94h-.05c-4.887 1.834-7.382 5.836-6.145 10.529 1.145 4.345 5.595 6.954 10.019 6.218 9.406-1.568 18.74-2.313 27.92-1.507s18.159 3.162 26.52 7.275 15.935 9.934 22.896 16.6c7.829 7.491 17.543 23.466 17.543 23.466.569 1.012 1.477 1.791 2.564 2.198a4.92 4.92 0 0 0 3.376.028c2.632-.943 3.858-3.982 2.869-6.587-2.064-5.447-4.59-10.707-7.551-15.723-.007-.024-.005-.03-.001-.035.023-.009.029-.008.035-.005 3.274 1.233 6.303 2.769 9.887 1.929 2.924-.688 5.49-2.68 6.682-5.468.863-1.988 1.202-4.165.985-6.321s-.984-4.222-2.227-5.997z" fill="url(#A)"/><path d="M2.291 85.516l26.744 38.952c4.2 6.105 13.698 2.864 13.387-4.553-.284-6.762-2.808-13.918-8.848-22.7-.003-.022 0-.027.004-.031.02-.009.026-.008.031-.006 2.471 1.844 39.723 29.854 84.005 14.94h.05c4.887-1.834 7.382-5.836 6.145-10.529-1.145-4.345-5.595-6.954-10.019-6.218-9.406 1.568-18.741 2.314-27.92 1.507s-18.159-3.162-26.52-7.275-15.935-9.934-22.896-16.6C28.624 65.512 18.91 49.537 18.91 49.537c-.569-1.012-1.477-1.791-2.564-2.198a4.92 4.92 0 0 0-3.376-.028c-2.632.943-3.858 3.982-2.869 6.587a102.04 102.04 0 0 0 7.55 15.723c.007.024.005.03 0 .035-.023.01-.029.008-.035.005-3.274-1.233-6.303-2.769-9.887-1.929-2.924.688-5.49 2.68-6.682 5.467a12.68 12.68 0 0 0-.985 6.321c.217 2.157.984 4.222 2.227 5.997z" fill="url(#B)"/><defs><linearGradient id="A" x1="134.571" y1="117.863" x2="-22.459" y2="-75.298" gradientUnits="userSpaceOnUse"><stop offset=".15" stop-color="#b32eff"/><stop offset=".42" stop-color="#ce60d3"/><stop offset=".65" stop-color="#e185b3"/><stop offset=".84" stop-color="#ee9c9f"/><stop offset=".96" stop-color="#f2a498"/></linearGradient><linearGradient id="B" x1="-6.57" y1="10.137" x2="150.46" y2="203.298" gradientUnits="userSpaceOnUse"><stop offset=".15" stop-color="#b32eff"/><stop offset=".42" stop-color="#ce60d3"/><stop offset=".65" stop-color="#e185b3"/><stop offset=".84" stop-color="#ee9c9f"/><stop offset=".96" stop-color="#f2a498"/></linearGradient></defs></svg>