<svg xmlns="http://www.w3.org/2000/svg" width="128" height="128" fill="none" xmlns:v="https://vecta.io/nano"><path d="M63.673 21.79c-2.167.009-4.839.2-6.309.45a55.46 55.46 0 0 0-4.85 1.091c-1.265.361-3.349 1.095-4.631 1.632s-2.333 1.054-2.334 1.15.391.503.873.903c.581.484 1.055.675 1.412.57.295-.087.839-.31 1.208-.496s1.827-.706 3.239-1.157 3.648-1.007 4.967-1.235 3.606-.491 5.083-.583c1.491-.093 3.866-.033 5.342.135l2.734.225c.043-.043.01-.58-.072-1.193-.149-1.111-.155-1.116-1.526-1.311-.757-.108-3.068-.19-5.135-.182zm5.999 7.023c-1.084-.193-3.723-.342-5.864-.332-2.861.014-4.605.168-6.578.582l-4.295 1.112-3.015 1.149c-.773.331-1.407.677-1.409.77s.411.86.92 1.704 1.848 3.728 2.976 6.409l3.127 6.887c.591 1.107 1.614 2.769 2.273 3.691s1.313 1.678 1.456 1.678-.031-.574-.385-1.275l-1.382-3.02-2.313-6.15-1.564-4.564c.006-.087.943 1.653 2.081 3.868s2.203 4.027 2.366 4.027.993-1.027 1.844-2.282l3.042-4.161c.822-1.034 2.521-2.935 3.774-4.226s2.217-2.408 2.143-2.483-.73.042-1.456.257-1.921.773-2.655 1.239c-.764.485-1.166.641-.94.366.217-.264 1.097-.936 1.955-1.492s2.187-1.214 2.953-1.46 1.793-.677 2.281-.956l1.381-.73zm17.376-.008c-.078.026-.125.099-.164.208-.097.273-.244.858-.326 1.301-.136.735-.008.911 1.462 2.014.886.664 2.797 2.437 4.247 3.939 1.491 1.545 3.443 3.954 4.495 5.547 1.023 1.548 2.327 3.853 2.898 5.121s1.164 2.305 1.318 2.305.637-.286 1.072-.635l.792-.634-1.282-2.653c-.705-1.459-2.075-3.848-3.046-5.308s-2.98-3.915-4.464-5.457-3.665-3.53-4.845-4.419c-1.411-1.063-1.924-1.407-2.158-1.329zm-3.751 5.444c-.039.051-.541.878-1.115 1.838s-2.337 3.449-3.918 5.532l-4.105 5.69c-.677 1.046-1.652 2.781-2.167 3.856s-.936 2.132-.936 2.351c0 .236.09.293.222.142.122-.14.69-.919 1.262-1.731s2.282-2.987 3.8-4.832l3.989-4.698c.967-1.057.68-.524-1.352 2.508-1.419 2.118-2.534 3.99-2.478 4.161.065.195 1.224.382 3.117.501l5.482.611 5.26 1.09c1.536.368 2.858.602 2.939.521s-.209-.501-.644-.934-1.456-1.161-2.268-1.619-1.175-.751-.805-.652 1.154.389 1.745.645 1.859 1.102 2.819 1.879 2.017 1.541 2.35 1.697.894.352.869.231l-.27-1.292c-.121-.579-.904-2.233-1.611-3.709a40.76 40.76 0 0 0-2.95-5.022c-.916-1.285-2.771-3.404-4.121-4.709s-3.037-2.771-3.749-3.259-1.326-.846-1.364-.795zm-51.813 3.267c-.18.069-1.012 1.144-1.848 2.388s-2.182 3.643-2.99 5.331-1.776 4.014-2.151 5.171-.917 3.392-1.204 4.967l-.642 4.139c-.079.842-.016 1.271.184 1.262.166-.007.719-.219 1.229-.47.905-.446.934-.513 1.272-2.873a43.95 43.95 0 0 1 1.035-4.832c.379-1.329 1.178-3.531 1.775-4.893s1.575-3.295 2.174-4.295 1.622-2.525 2.274-3.389 1.146-1.603 1.1-1.644-.488-.279-.982-.53-1.044-.4-1.224-.331zm5.426 3.734l-2.014 2.757c-.596.886-1.531 2.498-2.076 3.581s-1.402 3.198-1.904 4.698-1.099 3.875-1.326 5.278l-.413 3.087c0 .497.192.54 2.616.577 1.439.022 4.61.309 7.046.638 2.863.387 5.807.599 8.322.6 2.141.001 4.193-.118 4.56-.264.571-.228.398-.293-1.208-.453l-5.902-.839-6.577-1.194-2.55-.541 2.148.143 5.168.309 3.02.03c0-.076-.771-1.755-1.713-3.732l-2.541-6.011-1.395-4.395c-.412-1.437-.649-1.898-.863-1.684-.162.162-.369 1.475-.461 2.919-.163 2.578-.17 2.6-.41 1.282-.134-.738-.239-1.826-.232-2.416s.171-2.055.366-3.254l.349-2.149s-.675.095-.978.24c-.391.188-1.032.794-1.032.794zm43.433 22.788l-2.376.089c-1.144.107-2.079.305-2.079.44s.513.246 1.141.247 2.772.242 4.765.537l6.846 1.204 3.222.669-3.759-.189-4.629-.179c-.479.006-.935.075-1.015.155s.509 1.46 1.306 3.067l2.397 5.473 1.54 4.698.805 2.536c.151.276.297.083.506-.671.162-.583.307-1.905.322-2.938.02-1.351.089-1.691.243-1.208.118.369.228 1.456.243 2.416s-.112 2.666-.283 3.793-.091 2.969.13 2.773l.745-.659c.508-.45 1.409-1.785 2.155-2.819s1.932-3.027 2.637-4.43 1.595-3.485 1.977-4.626a40.2 40.2 0 0 0 1.083-4.027l.568-3.495.179-1.544-2.368-.005c-1.303-.003-4.181-.248-6.395-.544l-7.116-.704-2.792-.059zm24.906 1.849c-.094 0-.637.14-1.208.311-.943.283-1.038.395-1.038 1.233 0 .507-.242 2.111-.538 3.565s-.915 3.707-1.374 5.009-1.379 3.453-2.043 4.782-1.978 3.532-2.919 4.895l-1.71 2.479 1.004.516c.776.4 1.09.446 1.385.206.21-.171 1.098-1.398 1.973-2.727s2.123-3.523 2.773-4.876a48.38 48.38 0 0 0 1.975-4.886 52.81 52.81 0 0 0 1.342-5.272c.302-1.565.549-3.383.549-4.04s-.077-1.194-.17-1.194zm-48.252 7.061c-.065-.065-.702.706-1.417 1.713s-2.763 3.583-4.552 5.726l-3.751 4.295c-.274.22.416-.929 1.533-2.553l2.473-3.813.443-.97c0-.061-1.178-.194-2.618-.295l-5.327-.578a76.53 76.53 0 0 1-5.839-1.158c-2.319-.566-3.129-.675-3.129-.421 0 .189.462.709 1.027 1.156a18.53 18.53 0 0 0 2.349 1.513c.727.385 1.02.622.651.526s-1.275-.444-2.014-.774-2.069-1.205-2.956-1.944l-2.197-1.656c-.321-.172-1.025-.597-1.009-.515l.121.605.268.906a35.26 35.26 0 0 0 1.039 2.703c.571 1.325 1.834 3.604 2.806 5.065s2.631 3.58 3.686 4.71 2.889 2.785 4.075 3.679l2.158 1.625.938-1.693c.516-.931 2.4-3.626 4.187-5.988l4.667-6.642c.78-1.291 1.662-2.967 1.961-3.726s.49-1.432.426-1.497zm11.753 1.061c-.063.063.417 1.251 1.067 2.641s1.979 4.734 2.955 7.432l1.759 5.101c-.009.107-.945-1.67-2.081-3.949l-2.333-4.226c-.148-.045-.752.67-1.342 1.589l-2.57 3.689c-.823 1.11-2.734 3.377-4.246 5.038-2.396 2.632-2.665 3.02-2.093 3.02.361 0 1.486-.414 2.501-.92l1.845-.92-1.037.908c-.57.499-1.96 1.279-3.087 1.732l-2.923 1.263c-.48.241-1.303.693-1.187.731l.988.319c.363.117 1.306.261 2.081.374s2.895.221 4.712.239 4.173-.097 5.235-.256 2.897-.532 4.078-.827 3.054-.907 4.161-1.359l2.245-1.029c.128-.114-.201-.912-.73-1.774s-1.877-3.737-2.996-6.389l-3.266-7.16c-.678-1.286-1.77-3.023-2.427-3.859s-1.245-1.47-1.308-1.407zm-41.353 3.19c-.04-.054-.502.167-1.027.491s-.954.713-.954.864.463 1.259 1.03 2.462 1.55 3.033 2.185 4.066 1.712 2.604 2.392 3.49 2.083 2.505 3.117 3.597 2.949 2.814 4.256 3.826l2.587 1.839c.116 0 .283-.272.372-.604s.164-.916.166-1.297c.003-.521-.312-.92-1.272-1.609-.701-.504-2.169-1.762-3.261-2.797s-2.805-2.939-3.806-4.232-2.421-3.407-3.154-4.698l-1.946-3.825-.685-1.574zm53.191 21.827c-.474.064-1.287.312-2.114.656-1.078.449-3.119 1.117-4.536 1.485s-3.641.812-4.944.987c-1.485.199-4.045.261-6.865.167-3.584-.119-4.497-.079-4.497.199 0 .192.074.719.165 1.173.151.756.27.836 1.409.943.684.065 3.358.077 5.942.028 3.44-.066 5.393-.237 7.291-.641 1.426-.304 3.838-.986 5.36-1.515l3.811-1.495 1.044-.533-.607-.647c-.334-.356-.834-.718-1.112-.806-.071-.022-.192-.022-.35-.001z" fill="#000"/><path d="M70.699 127.993c-.099-.099-.18-.587-.18-1.084s.183-1.341.406-1.876.374-1.005.334-1.044-.857.123-1.816.361c-1.146.285-2.939.435-5.234.439-2.452.004-4.009-.131-5.235-.454-.96-.253-3.008-1.081-4.552-1.84-2.423-1.192-3.144-1.716-5.27-3.826-2.113-2.098-2.638-2.808-3.694-4.996-.677-1.403-1.478-3.577-1.779-4.832s-.619-3.49-.707-4.967c-.109-1.84-.026-3.555.265-5.452.233-1.522.544-2.972.689-3.222.227-.389.269-.357.294.217.016.369.187 1.094.38 1.611l.351.94.318-.805 1.09-2.423c.424-.89 2.744-4.574 5.154-8.188s4.828-7.424 5.373-8.467 1.371-3.032 1.836-4.42a17.58 17.58 0 0 0 .99-5.151c.095-1.724.049-2.627-.133-2.627-.153 0-.356.418-.452.929s-.653 1.884-1.237 3.052c-.666 1.331-1.521 2.546-2.292 3.257a12.82 12.82 0 0 1-2.753 1.837c-1.241.574-2.021.724-4.212.809-1.765.069-3.517-.046-5.101-.335-1.327-.242-4.647-1.063-7.379-1.824-4.257-1.186-5.317-1.386-7.421-1.4l-2.455-.016-.321-1.43c-.177-.787-.28-1.467-.23-1.512s.961-.277 2.023-.516 2.261-.435 2.662-.435.654-.076.561-.169-1.328-.023-2.745.156-3.423.559-4.458.846a25.89 25.89 0 0 0-3.66 1.388c-.978.477-2.408 1.442-3.178 2.145s-1.764 1.851-2.21 2.55-1.071 2.052-1.39 3.006c-.413 1.235-.58 2.395-.581 4.027-.001 1.261.133 2.879.298 3.595s.656 2.227 1.093 3.356 1.405 3.003 2.15 4.163l1.356 2.11 1.42-.177c.781-.098 2.187-.054 3.125.097s2.595.697 3.683 1.214c1.448.688 2.501 1.463 3.93 2.893l2.39 2.625.437.671-.221-.821a10.03 10.03 0 0 0-.651-1.654c-.237-.458-.847-1.176-1.356-1.595s-2.033-1.427-3.387-2.239-2.935-1.88-3.513-2.373-1.585-1.643-2.236-2.556-1.717-2.183-1.943-3.029c-.483-1.807-.612-1.986-.624-4.424-.013-2.591.211-3.198.757-4.222.342-.642 1.147-1.691 1.789-2.333s1.751-1.462 2.465-1.824 1.955-.852 2.757-1.09 2.101-.433 2.886-.433l.891.053c-.406.094-1.641.971-2.827 1.549-1.271.619-2.737 1.608-3.571 2.408s-1.698 1.975-2.102 2.857c-.563 1.23-.668 1.801-.58 3.173.074 1.159.351 2.158.902 3.255.464.922 1.58 2.372 2.675 3.476 1.034 1.041 3.027 2.666 4.43 3.609s2.894 2.03 3.313 2.414.98 1.121 1.245 1.637.749 1.846 1.075 2.953.952 2.691 1.39 3.52 1.416 2.129 2.172 2.889c.87.874 1.752 1.484 2.399 1.658.994.268 1.023.31 1.023 1.491 0 .668.256 1.811.57 2.54.489 1.137.518 1.388.201 1.77-.203.245-.852.665-1.442.934s-1.557.488-2.148.488-1.557-.229-2.148-.51-1.819-1.154-2.73-1.94-2.335-1.841-3.166-2.343c-1.262-.762-1.607-.864-2.102-.621a8.3 8.3 0 0 1-1.177.454c-.321.09-.999-.01-1.506-.222s-1.189-.67-1.517-1.019-1.241-1.552-2.03-2.675-1.948-2.481-2.576-3.018a10 10 0 0 0-2.505-1.485c-.75-.279-2.306-.717-3.457-.972-1.276-.283-2.056-.583-1.998-.769.053-.168.511-.517 1.019-.775s1.39-.47 1.959-.47h1.036l-1.449-1.565c-.797-.861-1.907-2.256-2.467-3.099s-1.355-2.284-1.768-3.2a24.4 24.4 0 0 1-1.185-3.425c-.24-.967-.51-2.84-.602-4.161a19.29 19.29 0 0 1 .265-4.868c.237-1.356.683-3.108.992-3.893s1.002-2.152 1.539-3.038 1.92-2.594 3.073-3.795 2.908-2.727 3.9-3.389 2.409-1.507 3.147-1.877 2.225-.989 3.305-1.376 2.148-.704 2.375-.704c.242 0-.126.509-.889 1.23-.716.676-1.101 1.168-.856 1.092s1.578-.221 2.964-.323c1.621-.119 4.654-.019 8.504.28 3.99.31 7.522.421 10.594.333 3.152-.09 5.16-.279 6.354-.597a24.03 24.03 0 0 0 3.356-1.225c.886-.418 2.034-1.085 2.55-1.482s.698-.638.403-.535-1.127.314-1.85.469-2.426.233-3.786.174c-2.12-.093-2.725-.233-4.243-.98-1.104-.544-2.191-1.348-2.887-2.137-.614-.696-1.511-2.051-1.994-3.01a40.59 40.59 0 0 1-1.589-3.725c-.391-1.089-1.266-4.109-1.943-6.712s-1.42-5.215-1.651-5.805-.809-1.692-1.286-2.448l-.867-1.374 1.14-.953 1.14-.953 1.423 1.388 1.423 1.388-1.216-1.611c-.669-.886-1.985-2.339-2.925-3.23s-2.344-2.021-3.119-2.512a15.43 15.43 0 0 0-3.044-1.401c-1.052-.328-2.414-.507-3.825-.503-1.623.004-2.67.175-4.041.659-1.018.359-2.494 1.08-3.28 1.602s-2.097 1.627-2.912 2.455a26.45 26.45 0 0 0-2.661 3.292c-.649.982-1.497 2.418-1.884 3.19l-.705 1.405.919 1.204c.505.662 1.184 1.903 1.509 2.757.366.964.639 2.419.72 3.835.085 1.498-.011 2.946-.281 4.214-.226 1.062-.713 2.572-1.082 3.356l-.672 1.424 1.06-1.208c.583-.664 1.18-1.631 1.326-2.148s.344-2.752.438-4.967c.134-3.148.306-4.428.785-5.862.338-1.009 1.015-2.503 1.505-3.32a13.73 13.73 0 0 1 2.234-2.671 15.56 15.56 0 0 1 2.819-1.915c1.257-.62 1.817-.729 3.764-.729 2.034 0 2.48.095 4.027.861.957.474 2.192 1.237 2.744 1.696s1.569 1.567 2.258 2.463l1.57 1.785-1.57-.616c-.266-.294-1.463-1.131-2.271-1.667s-2.267-1.257-3.244-1.601c-1.026-.362-2.398-.628-3.252-.63-.99-.002-1.919.204-2.819.623-.738.345-1.811 1.146-2.384 1.781s-1.373 1.892-1.78 2.794-.931 2.496-1.167 3.544-.544 3.428-.685 5.289c-.173 2.292-.422 3.756-.772 4.538-.284.635-1.448 2.181-2.587 3.437-1.224 1.348-2.419 2.996-2.921 4.027-.733 1.504-.851 2.04-.86 3.886l-.01 2.141-1.168.785c-.643.432-1.413 1.199-1.711 1.704-.449.761-.655.891-1.197.755-.36-.09-1.101-.46-1.647-.821s-1.189-.99-1.43-1.399-.519-1.17-.617-1.693.002-1.972.223-3.222.464-3.147.54-4.216l.139-1.945-.91-.694c-.501-.382-1.041-1.092-1.202-1.577-.189-.572-.207-1.25-.051-1.925.132-.573.737-2.138 1.344-3.477s1.235-3.049 1.396-3.799c.211-.984.211-1.814.001-2.975-.161-.886-.591-2.489-.956-3.562s-.616-1.998-.559-2.056.533.074 1.055.293c.559.233 1.256.859 1.691 1.516l.74 1.119.497-1.836c.274-1.01.981-2.802 1.571-3.984s1.706-2.93 2.479-3.886a25.92 25.92 0 0 1 3.143-3.153c.956-.778 2.825-1.951 4.154-2.606s3.291-1.397 4.36-1.648c1.513-.356 2.704-.427 5.369-.32 2.737.11 3.884.285 5.707.873 1.255.404 3.188 1.191 4.295 1.748s2.738 1.553 3.624 2.214 2.094 1.629 2.685 2.15.994 1.03.897 1.129-.544-.009-.993-.242-1.061-.422-1.36-.422c-.468 0-.336.304.947 2.189.82 1.204 3.042 5.342 4.938 9.195s4.083 7.972 4.86 9.154 2.327 3.064 3.445 4.184c1.165 1.168 2.787 2.456 3.802 3.02.974.541 1.827.984 1.895.984s-.452-.624-1.157-1.387-1.733-2.243-2.285-3.289c-.902-1.71-1.015-2.15-1.115-4.358-.081-1.792.007-2.808.323-3.759.239-.718 1.414-2.621 2.617-4.241s4.13-4.938 6.51-7.383c3.135-3.221 4.573-4.911 5.223-6.137.513-.969 1.029-1.634 1.208-1.556.172.075.811.284 1.421.464l1.109.328-.476 1.631-.655 2.168c-.098.295.072.087.377-.463s.935-2.12 1.398-3.49c.655-1.937.871-3.106.973-5.257.1-2.119.02-3.173-.34-4.505a13.98 13.98 0 0 0-1.464-3.274 16.98 16.98 0 0 0-2.423-2.819c-.786-.706-2.291-1.698-3.344-2.205s-2.703-1.104-3.665-1.327-2.603-.485-3.648-.582-2.693-.091-3.664.013l-1.765.189-.816 1.743c-.508 1.085-1.357 2.272-2.25 3.144-.789.77-2.284 1.847-3.322 2.393s-2.66 1.174-3.605 1.397-2.321.42-3.06.439l-1.342.034 1.611.4c1.289.32 1.852.338 2.819.092.664-.169 2.604-1.083 4.311-2.031 1.884-1.047 3.782-1.884 4.832-2.132.951-.224 2.79-.409 4.087-.412 1.67-.003 2.831.155 3.981.543.893.301 2.068.827 2.611 1.17s1.425 1.108 1.96 1.7 1.229 1.762 1.542 2.599c.412 1.101.569 2.137.569 3.745 0 1.248-.188 2.863-.429 3.681-.236.802-.681 1.911-.989 2.465s-.763 1.132-.795 1.007l.101-.345.19-.784c.19-.19.157-1.615.151-3.507-.008-2.505-.116-3.284-.635-4.609-.397-1.014-1.079-2.049-1.871-2.841-.783-.783-1.735-1.413-2.56-1.694-.722-.246-2.058-.448-2.968-.448s-2.59.239-3.735.532-3.662 1.281-5.594 2.197c-2.451 1.161-3.926 1.699-4.876 1.777-.829.068-2.289-.108-3.732-.452-1.304-.31-3.245-.564-4.314-.564s-2.564.184-3.322.409-1.734.708-2.168 1.074-1 .665-1.256.665-.865-.246-1.352-.547-1.498-.62-2.247-.709l-1.361-.161v-1.617c0-1.23.157-1.885.656-2.736a4.44 4.44 0 0 1 1.812-1.701c.636-.32 2.123-.945 3.304-1.39s2.722-1.17 3.423-1.612c1.098-.692 1.275-.926 1.275-1.683 0-.484.197-1.161.438-1.504s.849-.797 1.352-1.007 2.183-.502 3.733-.649 3.388-.46 4.084-.697a11.76 11.76 0 0 0 2.393-1.205c.62-.426 1.878-1.614 2.796-2.64s1.77-1.802 1.894-1.726.221.584.218 1.129-.23 1.484-.504 2.087l-.498 1.096 2.047-.49c1.393-.333 3.084-.491 5.293-.492 2.333-.002 3.815.144 5.272.516 1.114.285 2.915.964 4.003 1.508s2.704 1.505 3.592 2.135 2.126 1.699 2.75 2.377 1.563 1.9 2.085 2.716 1.307 2.378 1.745 3.47.968 2.814 1.179 3.826.466 2.806.567 3.988c.105 1.232.049 3.266-.132 4.771-.173 1.443-.469 3.134-.658 3.759l-.343 1.135-.199-1.231c-.109-.677-.302-1.398-.429-1.603s-.274-.315-.327-.246-.446.966-.873 1.992-2.843 4.963-5.393 8.783c-2.539 3.804-5.162 8.039-5.829 9.41s-1.478 3.338-1.804 4.372c-.376 1.194-.643 2.896-.732 4.67-.094 1.87-.05 2.734.134 2.621.151-.093.353-.586.448-1.094s.598-1.773 1.117-2.81 1.485-2.443 2.146-3.123c.68-.7 1.946-1.585 2.915-2.038 1.143-.535 2.326-.853 3.554-.956 1.013-.085 2.927-.01 4.254.167s4.225.794 6.439 1.373l6.041 1.608c1.242.343 2.847.56 4.188.567l2.175.011.313 1.356c.172.746.245 1.423.162 1.506s-1.142.367-2.354.632l-2.203.481 1.98-.155c1.089-.085 2.901-.387 4.027-.67s3.029-.998 4.23-1.588c1.448-.711 2.691-1.581 3.692-2.582.882-.882 1.837-2.197 2.299-3.165.435-.911.915-2.196 1.067-2.856s.28-2.159.283-3.331-.19-2.924-.43-3.893a24.98 24.98 0 0 0-1.221-3.505c-.431-.958-1.318-2.6-1.971-3.648l-1.187-1.905-2.112.122c-1.503.087-2.569-.01-3.7-.336a20.42 20.42 0 0 1-3.195-1.307c-.884-.467-2.347-1.574-3.252-2.46s-1.913-2.034-2.24-2.55c-.476-.753-.559-.806-.414-.268.099.369.419 1.181.712 1.804.322.686 1.027 1.489 1.787 2.037.69.497 2.298 1.527 3.572 2.289 1.43.855 2.933 2.042 3.925 3.104.885.946 1.978 2.46 2.431 3.365s.965 2.334 1.14 3.174.262 2.385.195 3.433c-.092 1.431-.314 2.257-.895 3.324-.425.781-1.32 1.902-1.99 2.492s-1.569 1.255-1.999 1.478-1.414.623-2.186.888-2.202.568-3.178.673c-.989.106-1.774.085-1.774-.047s.634-.459 1.409-.73 2.074-.868 2.886-1.326 2.085-1.442 2.828-2.187 1.589-1.838 1.879-2.429c.372-.757.527-1.629.527-2.953 0-1.529-.146-2.179-.783-3.49-.522-1.073-1.508-2.332-2.953-3.77-1.193-1.188-3.466-3.035-5.05-4.104-2.127-1.436-3.051-2.24-3.534-3.075-.359-.622-.919-2.037-1.245-3.145s-.951-2.728-1.391-3.6-1.438-2.224-2.217-3.004c-.832-.832-1.791-1.513-2.323-1.65-.849-.219-.912-.313-.988-1.489l-.082-1.255.753.372c.414.205 1.23.575 1.813.823l1.061.45-1.183-1.297c-.651-.713-1.4-1.454-1.665-1.647-.429-.312-.481-.276-.481.336 0 .378-.091.683-.201.679s-.424-.491-.697-1.082-.429-1.247-.349-1.458.666-.652 1.301-.982a5.54 5.54 0 0 1 2.496-.6c.739-.001 1.725.201 2.194.448s1.435.955 2.148 1.574 2.184 1.706 3.27 2.416c1.834 1.2 2.015 1.263 2.543.893.313-.219.995-.398 1.516-.397s1.333.236 1.804.524 1.559 1.524 2.416 2.748 2.023 2.676 2.59 3.227a10.82 10.82 0 0 0 2.429 1.663c.769.364 2.45.878 3.735 1.143s2.336.566 2.336.669-.298.423-.662.709-1.277.602-2.029.702l-1.367.181 1.254 1.264a23.54 23.54 0 0 1 2.261 2.74 34.01 34.01 0 0 1 1.868 3.183c.473.939 1.106 2.63 1.407 3.759.403 1.513.552 2.934.566 5.408.013 2.279-.123 3.936-.425 5.163a23.87 23.87 0 0 1-1.215 3.49c-.423.926-1.507 2.672-2.407 3.881s-2.459 2.879-3.464 3.712-2.659 2.004-3.678 2.603-2.528 1.362-3.356 1.697a38.51 38.51 0 0 1-2.914 1.025c-.775.229-1.409.328-1.409.22s.362-.41.803-.671.913-.68 1.047-.93c.225-.421-.128-.456-4.629-.456a170.38 170.38 0 0 1-10.08-.375c-2.963-.213-6.492-.304-8.188-.211-1.64.09-3.948.412-5.129.716s-2.873.895-3.759 1.313-1.913 1.03-2.282 1.359c-.566.505-.587.571-.134.423.295-.096 1.473-.312 2.618-.48 1.594-.233 2.53-.227 4.003.025 1.057.181 2.518.654 3.246 1.05s1.887 1.339 2.575 2.096 1.655 2.194 2.15 3.195 1.195 2.682 1.557 3.737 1.25 4.174 1.973 6.932 1.617 5.597 1.986 6.309.906 1.64 1.193 2.061l.521.766-1.009.912c-.555.501-1.136.912-1.29.912s-.908-.695-1.675-1.544l-1.395-1.544.903 1.337c.496.735 1.809 2.25 2.916 3.367s2.738 2.465 3.624 2.998 2.209 1.169 2.94 1.414 2.06.512 2.953.592c1.045.094 2.283-.008 3.473-.288 1.017-.239 2.708-.885 3.759-1.436 1.145-.6 2.617-1.701 3.674-2.747.97-.96 2.146-2.307 2.612-2.994s1.322-2.122 1.901-3.19l1.053-1.941-.94-1.309a14.79 14.79 0 0 1-1.486-2.716c-.355-.915-.59-2.3-.672-3.958-.088-1.784.002-3.095.3-4.365.235-.998.734-2.448 1.111-3.222l.684-1.407-.835.94c-.459.517-1.077 1.407-1.373 1.978-.446.86-.561 1.735-.673 5.101-.1 3-.275 4.519-.673 5.808-.296.96-.909 2.445-1.364 3.3s-1.521 2.199-2.371 2.986-2.129 1.718-2.843 2.069c-1.09.537-1.704.639-3.848.639-2.205 0-2.758-.097-4.086-.72-.844-.396-2.161-1.302-2.927-2.014s-1.736-1.765-2.156-2.341-.764-1.223-.764-1.437c0-.255.343-.089.988.477.543.477 1.601 1.257 2.349 1.733s2.086 1.137 2.972 1.47a9.82 9.82 0 0 0 3.241.611c1.061.004 2.046-.181 2.819-.528.654-.294 1.654-1.004 2.222-1.577s1.387-1.74 1.818-2.591 1.017-2.543 1.302-3.759.636-3.735.781-5.598.452-3.838.682-4.389 1.39-2.097 2.576-3.436c1.257-1.418 2.517-3.172 3.018-4.202.745-1.531.861-2.056.869-3.916l.009-2.148.969-.521c.533-.286 1.316-1.038 1.741-1.669.595-.885.895-1.114 1.309-.997.295.083.987.442 1.537.796s1.197.944 1.436 1.31.543 1.121.673 1.678c.159.679.112 1.722-.14 3.161-.207 1.181-.458 3.093-.557 4.248l-.18 2.101 1.099.94c1.037.888 1.099 1.023 1.099 2.406 0 1.166-.245 2-1.198 4.079-.659 1.437-1.335 3.255-1.504 4.039-.171.798-.224 1.978-.12 2.679.102.689.528 2.32.946 3.626l.761 2.373-.718-.164c-.395-.09-1.202-.699-1.794-1.352l-1.076-1.188-.748 2.362a26.26 26.26 0 0 1-1.954 4.421 26.37 26.37 0 0 1-2.976 3.936c-.974 1.032-2.57 2.408-3.548 3.057s-2.49 1.495-3.361 1.88-2.321.904-3.222 1.154c-1.166.323-2.604.448-4.993.431-2.497-.017-3.89-.166-5.446-.583-1.149-.308-3.097-1.032-4.327-1.609s-2.948-1.531-3.817-2.121a33.86 33.86 0 0 1-2.988-2.341c-.775-.697-1.409-1.367-1.409-1.488s.601.034 1.336.344 1.42.481 1.522.379-.063-.457-.368-.789-1.094-1.449-1.753-2.482-2.593-4.741-4.296-8.238-3.755-7.363-4.56-8.591-1.956-2.822-2.557-3.543a22.66 22.66 0 0 0-2.514-2.476 22.39 22.39 0 0 0-3.043-2.029l-1.622-.864 1.561 1.726c.858.949 1.946 2.513 2.416 3.474.797 1.627.855 1.942.855 4.572 0 2.639-.057 2.94-.864 4.58a27.45 27.45 0 0 1-2.272 3.619c-.774 1.025-3.49 3.961-6.036 6.525-3.534 3.56-4.834 5.06-5.501 6.346l-.873 1.684-.818-.345-1.401-.574-.584-.228.64-2.002c.352-1.101.598-2.044.547-2.095s-.476.829-.945 1.955a36.9 36.9 0 0 0-1.383 4.108c-.316 1.227-.537 2.99-.545 4.357-.008 1.263.128 2.833.303 3.49s.699 1.917 1.166 2.802 1.53 2.281 2.363 3.103a15.11 15.11 0 0 0 3.49 2.484c1.086.544 2.7 1.187 3.586 1.43.992.272 3.108.489 5.51.567l3.899.126.645-1.571c.464-1.131 1.177-2.105 2.544-3.475 1.297-1.3 2.452-2.166 3.644-2.73.96-.454 2.676-1.017 3.814-1.25s2.346-.437 2.685-.451c.602-.026.601-.031-.056-.242-.369-.118-1.304-.227-2.077-.242-1.25-.024-1.831.194-5.235 1.963-2.81 1.46-4.38 2.103-5.899 2.416-1.138.235-2.541.427-3.118.427s-1.699-.121-2.495-.268-2.315-.694-3.378-1.216c-1.205-.591-2.29-1.366-2.884-2.06a10.2 10.2 0 0 1-1.491-2.553c-.399-1.066-.538-2.084-.533-3.914.004-1.897.152-2.888.635-4.255.346-.98.835-2.067 1.087-2.416.444-.615.451-.586.238.976-.121.886-.205 2.698-.186 4.027.025 1.767.19 2.825.616 3.94.32.839 1.053 2.009 1.63 2.603s1.389 1.256 1.806 1.472 1.465.523 2.33.682c1.135.21 2.104.208 3.485-.006a24.81 24.81 0 0 0 3.792-.971c1.034-.371 2.937-1.204 4.229-1.852s2.934-1.302 3.647-1.455c1.012-.217 1.736-.184 3.288.152a114.19 114.19 0 0 0 3.667.723c1.239.217 2.173.211 3.58-.021 1.047-.173 2.361-.548 2.921-.833s1.089-.705 1.176-.933.318-.414.513-.414.833.252 1.418.56 1.668.64 2.406.738l1.342.178.084 1.327c.049.778-.097 1.801-.355 2.476-.241.632-.775 1.431-1.185 1.777s-1.821 1.014-3.135 1.487-3.114 1.262-4 1.755c-1.488.828-1.622.98-1.762 2.001-.083.608-.384 1.362-.668 1.677s-.733.687-.998.829-2.078.434-4.03.65c-2.751.304-3.882.554-5.026 1.11-.968.47-2.224 1.487-3.646 2.951-1.193 1.228-2.25 2.152-2.349 2.053zm12.98-9.359c.187-.225.267-.482.178-.57s-.68.095-1.313.409l-1.152.57h.974c.545 0 1.123-.18 1.313-.409zm-42.155-5.459c0-1.012-.034-1.048-1.497-1.587l-1.497-.551.481.581c.265.319.903 1.034 1.417 1.587s.972 1.007 1.016 1.007.08-.466.08-1.036zm53.546-4.119l1.061-.265-.658-.506c-.362-.278-.84-.504-1.061-.501s-.918.471-1.547 1.04l-1.144 1.035 1.144-.27 2.205-.534zm-67.784-.819c-.005-.185-.553-.666-1.219-1.07l-1.211-.735.702.92c.386.506.844.978 1.018 1.049s.406.138.517.15.198-.13.193-.314zm93.86-34.201c-.102-.266-.268-.352-.399-.208-.124.135-.296.911-.383 1.723l-.157 1.477.557-1.268c.306-.698.478-1.473.383-1.723zM10.986 68.731c.11-.162.141-.626.067-1.033l-.298-1.584-.164-.845-.462 1.315a30.18 30.18 0 0 0-.648 2.06c-.176.706-.147.736.559.563.41-.1.836-.315.946-.477zm107.287-8.048c.324-1.016.555-1.882.513-1.924s-.484.095-.983.305c-.822.346-.89.458-.738 1.219.092.461.168 1.27.168 1.798 0 .541.098.848.225.705s.491-1.086.815-2.102zM7.681 52.917l-.017-1.125-.423.849c-.233.467-.347 1.049-.253 1.292s.292.368.44.276.263-.673.253-1.292zm95.066-31.844c-.152-.284-.467-.707-.7-.94s-.606-.424-.83-.424-.366.114-.316.252.512.551 1.029.917.974.675 1.016.687-.048-.209-.2-.493zm-67.85-1.556c.677-.549 1.202-1.027 1.167-1.062s-.892.11-1.904.321-1.9.445-1.974.518.156.374.509.668.716.539.806.544.718-.44 1.395-.989zM46.625 9.019c.074-.068-.33-.052-.896.035s-1.207.305-1.422.484c-.289.24-.309.376-.075.52.174.107.753-.055 1.288-.36s1.032-.611 1.106-.679zm16.213 109.909c-.081-.211-.107-.664-.059-1.007.082-.576.254-.637 2.236-.799 1.181-.097 2.169-.156 2.195-.132s-.09.556-.257 1.183l-.304 1.139h-1.832c-1.339 0-1.872-.103-1.979-.383zm-3.389-.261c-.846-.182-1.618-.409-1.714-.506s-.023-.541.162-.989.437-.814.56-.814.911.179 1.753.399 1.57.439 1.619.488-.056.474-.234.944-.387.845-.465.832-.835-.171-1.681-.353zm-4.837-1.819c-.849-.461-1.544-.978-1.544-1.151s.339-.638.753-1.035.847-.721.963-.721.773.391 1.462.868l1.33.905c.043.02-.199.47-.537 1s-.675.964-.749.967-.829-.373-1.678-.833zm-3.51-2.974c-.358-.48-.793-1.147-.966-1.482s-.234-.74-.135-.9.584-.459 1.078-.666 1.014-.375 1.156-.375.639.565 1.106 1.256l.848 1.256-1.03.882c-.566.485-1.114.886-1.218.892s-.481-.383-.839-.862zm-1.931-3.967c-.094-.151-.24-.949-.325-1.771-.116-1.121-.06-1.556.221-1.734.207-.131.805-.24 1.329-.242.951-.004.954-.001 1.292 1.635.186.902.301 1.665.255 1.697s-.581.2-1.189.374-1.174.317-1.259.317-.231-.124-.325-.275zm-.395-6.101c.002-.701.08-1.561.174-1.91.156-.583.269-.622 1.385-.469.668.091 1.262.214 1.319.271s.021.842-.081 1.744l-.185 1.639h-1.308-1.308zm49.394-4.877c0-.872.124-1.42.336-1.485.185-.057.955-.166 1.712-.244l1.377-.14.137 1.393c.076.766.086 1.448.022 1.515s-.896.172-1.85.233l-1.735.11zm-3.333.51c-.726-.283-1.411-.61-1.523-.726s-.042-.672.154-1.237.428-1.098.514-1.184.891.065 1.789.337c1.431.433 1.611.562 1.468 1.05a17.42 17.42 0 0 0-.322 1.428c-.087.48-.294.867-.459.86s-.894-.245-1.62-.528zm7.929-1.189c-.165-.656-.3-1.26-.3-1.342s.127-.15.281-.15.782-.242 1.393-.537 1.206-.537 1.322-.537.395.356.621.792.41.916.41 1.068-.634.64-1.409 1.085-1.546.809-1.713.811-.439-.534-.604-1.19zm-12.477-1.37c-.686-.524-1.247-1.126-1.247-1.338s.345-.773.767-1.245l.767-.859 1.313 1.047 1.389 1.086c.041.022-.252.54-.652 1.15s-.809 1.11-.909 1.11-.743-.428-1.429-.952zm16.793-.787c-.324-.412-.589-.828-.589-.924s.588-.755 1.308-1.463l1.308-1.288.574.807.574.807-1.293 1.406-1.293 1.406zm-90.522-3.891c-.445-.882-.809-1.718-.809-1.858s.38-.338.845-.44c.629-.138.905-.078 1.081.236.13.232.655.971 1.168 1.643s.933 1.27.933 1.328-.38.238-.845.4-1.007.295-1.204.295-.723-.721-1.168-1.603zm93.563-.001c-.464-.512-.449-.599.427-2.547l.907-2.016.898.898.898.898-1.031 1.649c-.567.907-1.163 1.649-1.325 1.649s-.511-.239-.775-.53zm-95.531-4.39c-.249-.789-.452-1.634-.452-1.876s.296-.515.671-.609c.369-.093.852-.099 1.074-.014s.409.43.415.767.172 1.062.369 1.612c.336.941.323 1.009-.213 1.162l-.99.278c-.308.085-.54-.266-.873-1.32zm74.829-1.086h0zm-74.812-2.512l-1.007-.105v-1.898-1.898l1.106.148c.609.082 1.213.255 1.344.386s.159.986.063 1.9-.247 1.643-.337 1.618-.616-.093-1.17-.15zm.805-4.735c-.701-.296-1.275-.673-1.275-.838s.313-.928.695-1.695.829-1.395.992-1.395.757.318 1.318.708 1.015.782 1.009.873-.339.777-.738 1.526l-.726 1.361zm2.122-4.189l-1.032-1.03 1.392-1.1c.765-.605 1.491-1.1 1.612-1.1s.533.372.916.826.695.951.695 1.105-.513.743-1.141 1.311-1.201 1.029-1.275 1.025-.599-.47-1.166-1.037zm3.985-2.762l-.615-1.302c-.043-.096.078-.237.268-.313l1.77-.706 1.423-.567.39.932c.214.513.39 1.149.39 1.415 0 .336-.428.643-1.409 1.011l-1.544.592c-.074.035-.376-.443-.671-1.063zm81.88-14.97c-.238-.46-.395-1.084-.35-1.385.058-.379.497-.704 1.426-1.055.738-.279 1.411-.508 1.494-.508s.382.453.664 1.007l.603 1.189c.049.1-.45.421-1.11.713s-1.446.609-1.747.704c-.427.136-.642-.009-.98-.664zm4.505-1.95c-.298-.328-.665-.838-.814-1.133-.23-.457-.081-.705 1-1.664l1.271-1.127 1.033 1.057 1.033 1.057-.711.743c-.391.408-1.062.949-1.49 1.202-.753.445-.796.44-1.321-.136zm2.915-3.885l-.884-.738.737-1.421c.556-1.072.842-1.376 1.163-1.236a21.51 21.51 0 0 0 1.298.48c.48.162.871.416.87.564s-.298.904-.659 1.679c-.442.949-.817 1.409-1.149 1.409-.271 0-.89-.332-1.377-.738zm1.844-4.176c-.517-.176-.918-.412-.892-.524s.131-.867.232-1.678l.184-1.474h1.014c.677 0 1.068.141 1.177.425.09.234.163.949.163 1.589s-.073 1.355-.163 1.589-.301.418-.47.41-.73-.159-1.246-.336zm-1.082-6.478l-.411-1.725.909-.17c.5-.094.939-.132.976-.086s.267.68.51 1.407.442 1.543.442 1.812c0 .386-.211.489-1.007.488l-1.007-.001-.411-1.725zm-95.785-1.528l-.884-.79.815-1.4 1.065-1.782c.213-.325.353-.314.944.073.382.25.694.557.694.681s-.394 1.077-.876 2.117l-.876 1.891zm93.78-2.719l-1.148-1.82c-.041-.094.424-.32 1.033-.502s1.136-.293 1.172-.246.446.765.913 1.595.849 1.634.849 1.786-.38.409-.845.571-.858.288-.873.28-.51-.757-1.101-1.664zM18.438 34.88l-.629-.67 1.082-1.277c.595-.702 1.252-1.31 1.459-1.352s.592.288.854.732l.477.807-1.268 1.215-1.307 1.215c-.022 0-.322-.301-.668-.67zm17.532-1.422l-1.125-.995.661-1.074c.363-.591.799-1.037.967-.992s.831.458 1.471.918 1.165.988 1.165 1.173-.313.708-.695 1.163-.835.821-1.007.815-.818-.459-1.437-1.007zM21.93 31.53l-.525-1.03.596-.39c.328-.214 1.112-.652 1.741-.973l1.145-.583.225.611c.124.336.301.925.394 1.308.155.644.046.75-1.441 1.391l-1.609.694zm10.402.004c-.7-.249-1.338-.519-1.418-.599s.004-.705.187-1.39c.259-.969.454-1.243.881-1.238.302.003 1.062.239 1.689.524.815.37 1.141.679 1.141 1.081 0 .31-.184.92-.41 1.355s-.497.776-.604.756-.767-.24-1.467-.489zM26.4 29.592c-.091-.767-.135-1.424-.098-1.461s.849-.104 1.806-.15l1.738-.083.087.91c.048.5.015 1.195-.072 1.544-.145.576-.303.634-1.727.634h-1.568l-.165-1.394zm50.207-3.091c-.329-.085-.433-.273-.317-.573.095-.245.241-1.013.324-1.706l.151-1.259 1.307.03 1.307.03v.995c0 .547-.076 1.372-.168 1.833-.152.762-.256.836-1.141.808-.535-.017-1.193-.088-1.463-.158zm-.202-6.223l-.418-1.603 1.092-.303c.6-.167 1.236-.364 1.412-.439.197-.084.436.292.62.974.164.611.262 1.495.216 1.964-.078.806-.149.857-1.293.932l-1.211.079zm-1.501-3.729c-.418-.698-.76-1.337-.76-1.42s.453-.549 1.008-1.035l1.008-.885.542.633c.298.348.781 1.081 1.073 1.629s.531 1.048.531 1.112-.151.179-.336.255l-1.32.56-.985.421zm-3.099-3.232l-1.264-.974.514-.814c.282-.448.67-.845.862-.882s.982.297 1.758.744 1.409.921 1.409 1.054-.372.614-.826 1.068-.907.815-1.007.802-.75-.463-1.445-.998zm-3.434-1.796c-.517-.199-1.211-.371-1.544-.382s-.604-.063-.604-.115.133-.475.295-.94c.185-.532.476-.845.785-.845.27 0 1.103.142 1.853.315s1.363.421 1.363.55-.184.592-.41 1.028-.497.783-.604.772-.617-.183-1.134-.382zm-7.418-.811a11.76 11.76 0 0 0 .334-1.094c.153-.61.274-.646 2.147-.646h1.984v.814c0 .448-.151.861-.336.919s-1.228.184-2.318.28c-1.781.157-1.965.129-1.811-.273z" fill="#414141"/></svg>