<svg xmlns="http://www.w3.org/2000/svg" viewBox="0 0 126.108 126.108" width="128" height="128" xmlns:v="https://vecta.io/nano"><defs><linearGradient id="A" x1="0" y1="63.054" x2="126.108" y2="63.054" gradientUnits="userSpaceOnUse"><stop offset="0" stop-color="#2d8ac4"/><stop offset="1" stop-color="#4297aa"/></linearGradient></defs><circle cx="63.054" cy="63.054" r="63.054" fill="url(#A)" paint-order="stroke fill markers"/><g transform="matrix(.18785 0 0 .18785 8.680952 6.700735)" fill="#fff"><path d="M175.9 550.4c-.9 0-1.7-.4-2.2-1.1L12 320.3c-.6-.8-.7-1.8-.2-2.7L128.9 62.9c.4-.9 1.2-1.5 2.2-1.6l278.7-25.8c1-.1 1.9.3 2.5 1.1L574 265.5c.6.8.7 1.8.2 2.7L457.1 523.1c-.4.9-1.2 1.5-2.2 1.6l-278.7 25.8c-.1-.1-.2-.1-.3-.1zM17.4 318.5l159.9 226.4 275.6-25.5 115.8-251.9L408.8 41.1 133.1 66.6zm437.2 203.4z"/><path d="M174.9 549.8l-44.7-232.9-.2-254.7 218 64.2L574 267 406.1 416.2zM132.7 65.9l.2 250.8 44 228.9 227.7-131.5 164.9-146.7-222.8-138.6z"/><circle cx="351.5" cy="129" r="8.1"/><path d="M351.5 145.7c-9.2 0-16.7-7.5-16.7-16.8 0-9.2 7.5-16.7 16.7-16.7s16.7 7.5 16.7 16.7c.1 9.3-7.4 16.8-16.7 16.8zm0-17.2l-.5.5a.47.47 0 0 0 .5.5z"/><circle cx="405.7" cy="414.7" r="8.1"/><path d="M405.7 431.5c-9.2 0-16.7-7.5-16.7-16.8 0-9.2 7.5-16.8 16.7-16.8s16.7 7.5 16.7 16.8c.1 9.3-7.5 16.8-16.7 16.8zm0-17.2l-.5.5a.47.47 0 0 0 .5.5z"/><circle cx="177.9" cy="547.7" r="8.1"/><path d="M177.9 564.5c-9.2 0-16.7-7.5-16.7-16.8s7.5-16.8 16.7-16.8 16.7 7.5 16.7 16.8-7.5 16.8-16.7 16.8zm0-17.3l-.5.5a.47.47 0 0 0 .5.5z"/><circle cx="131.3" cy="319.3" r="8.1"/><path d="M131.3 336.1c-9.2 0-16.7-7.5-16.7-16.7s7.5-16.8 16.7-16.8 16.7 7.5 16.7 16.8c.1 9.2-7.4 16.7-16.7 16.7zm0-17.2l-.5.5a.47.47 0 0 0 .5.5z"/><circle cx="571.7" cy="267.6" r="8.1"/><path d="M571.7 284.4c-9.2 0-16.7-7.5-16.7-16.7s7.5-16.8 16.7-16.8 16.7 7.5 16.7 16.8c.1 9.1-7.4 16.7-16.7 16.7zm0-17.3l-.5.5a.47.47 0 0 0 .5.5z"/><circle cx="131.3" cy="64" r="8.1"/><path d="M131.3 80.8c-9.2 0-16.7-7.5-16.7-16.8 0-9.2 7.5-16.7 16.7-16.7S148 54.8 148 64c.1 9.3-7.4 16.8-16.7 16.8zm0-17.2l-.5.5a.47.47 0 0 0 .5.5zm323.3 461c-.3 0-.6 0-.9-.2l-212.5-75L12.9 321.1c-.8-.4-1.3-1.2-1.4-2-.1-.9.2-1.7.9-2.3l171.8-157.4L408.8 35.9c.7-.4 1.6-.4 2.4-.1.8.4 1.3 1 1.5 1.9L463 258.9 457.4 522c0 .9-.5 1.7-1.2 2.2-.5.3-1 .4-1.6.4zM18.8 318.2l224.6 126.3L452 518.1l5.7-258.7-49.5-217-220.9 121.3zm387.8 97.6l-1.1-.4L130 319.6l.9-.8L352 127.7zm-273.9-96.7l272.2 94.6-53.8-283.5z"/><path d="M240.4 452l-57.9-294.8 283.3 101.3zm-50.8-286.5l54.3 276.3 211.2-181.4z"/><path d="M129.002 65.357l4.708-2.645 54.662 97.293-4.708 2.645zM180.2 549.2l-4.6-3 64.2-100.8 4.6 3zm279.966-287.047l.393-5.385 111.299 8.131-.393 5.385z"/></g></svg>