<svg xmlns="http://www.w3.org/2000/svg" width="128" height="128" fill="#34b8bb" xmlns:v="https://vecta.io/nano"><path d="M115.523.009c7.003.116 12.588 5.883 12.475 12.884 0 .056-.003.11-.003.166a12.8 12.8 0 0 1-25.588-.353A12.64 12.64 0 0 1 114.974 0c.184 0 .368.003.549.009zM104.982 32.89c17.168 22.636 12.727 54.901-9.916 72.061-18.375 13.928-43.779 13.931-62.157.009l13.914-13.91c14.955 9.483 34.768 5.05 44.254-9.901a32.05 32.05 0 0 0 0-34.34zM94.556 22.607l-13.95 13.954c-15.163-9.16-34.881-4.297-44.043 10.859a32.06 32.06 0 0 0 0 33.169L22.605 94.543C5.722 71.696 10.56 39.488 33.416 22.61a51.47 51.47 0 0 1 61.14-.003zm-81.641 79.82a12.79 12.79 0 0 1 12.662 12.911 12.79 12.79 0 0 1-12.911 12.661c-7.065-.071-12.733-5.85-12.665-12.911v-.077a12.62 12.62 0 0 1 12.653-12.584c.089-.003.175 0 .261 0z"/></svg>