<svg xmlns="http://www.w3.org/2000/svg" width="128" height="128" viewBox="0 0 33.867 33.867" xmlns:v="https://vecta.io/nano"><path d="M30.498 30.743l-8.272-9.659c-.234-.276-.32-.651-.234-.993.064-.188.203-.398.331-.541l.959-1.06 10.585 12.254zm-6.545 0l-7.686-8.964-.384-.486a1.13 1.13 0 0 1 .021-1.479L30.232 3.123h3.55l-14.412 16.47a1.13 1.13 0 0 0-.021 1.479l8.315 9.67zm-8.954-13.17l-11.3 13.17H0l11.342-13.137c.362-.419.362-1.049 0-1.457L.085 3.123h3.56L14.966 16.26c.288.386.341.949.032 1.314m-.138 7.451l-1.098 1.281-3.806 4.438H6.513l7.281-8.478 1.087 1.281a1.13 1.13 0 0 1-.021 1.479M9.903 3.123s6.097 7.297 8.304 9.56c.352.353.288.817-.032 1.192l-1.205 1.402L6.481 3.123zm9.146 5.718l1.098-1.281 3.806-4.437h3.443l-7.281 8.478-1.087-1.28a1.13 1.13 0 0 1 .021-1.479" fill="#fff"/></svg>