<svg xmlns="http://www.w3.org/2000/svg" xmlns:xlink="http://www.w3.org/1999/xlink" width="128" height="128" fill="none" xmlns:v="https://vecta.io/nano"><path d="M76.903 3v29.36l24.242-14.658z" fill="url(#A)"/><path opacity=".9" d="M101.141 17.701v29.36l24.242-14.7L101.141 17.7z" fill="url(#B)"/><path opacity=".8" d="M76.903 32.36v29.358l24.242-14.658z" fill="url(#C)"/><path opacity=".8" d="M101.141 47.061v29.358l24.242-14.7z" fill="url(#D)"/><path opacity=".8" d="M76.903 61.72v29.358l24.242-14.658z" fill="url(#E)"/><path d="M101.141 76.421v29.358l24.242-14.7z" fill="url(#F)"/><path opacity=".4" d="M14.239 31.367v29.358l24.242-14.7z" fill="url(#G)"/><path opacity=".2" d="M44.834 42.286v29.358l24.201-14.658z" fill="url(#H)"/><path opacity=".3" d="M26.861 60.852V90.21l24.242-14.7z" fill="url(#I)"/><path opacity=".9" d="M42.835 83.008v29.358l24.201-14.7z" fill="url(#J)"/><path opacity=".7" d="M76.711 95.646V125l24.201-14.7z" fill="url(#K)"/><path opacity=".9" d="M48.866 27.785v29.358l24.201-14.658z" fill="url(#L)"/><path opacity=".8" d="M76.906 3v29.36L52.664 17.702z" fill="url(#M)"/><path opacity=".6" d="M48.87 15.48v29.352L24.628 30.139z" fill="url(#N)"/><path opacity=".6" d="M73.104 30.014v29.358l-24.243-14.7z" fill="url(#O)"/><path opacity=".95" d="M44.717 42.286v29.358L20.474 56.986z" fill="url(#P)"/><path opacity=".6" d="M76.903 61.72v29.358L52.702 76.42z" fill="url(#Q)"/><path opacity=".55" d="M26.858 68.548v29.358L2.618 83.205l24.24-14.656z" fill="url(#R)"/><path d="M125.383 32.36v29.358L101.141 47.06l24.242-14.699z" fill="url(#S)"/><path opacity=".95" d="M101.145 47.061v29.358l-24.242-14.7z" fill="url(#T)"/><path opacity=".9" d="M125.383 61.72v29.358L101.141 76.42z" fill="url(#U)"/><path opacity=".7" d="M101.145 76.421v29.358l-24.242-14.7z" fill="url(#V)"/><path opacity=".4" d="M71.539 88.651v29.358L47.297 103.35z" fill="url(#W)"/><path d="M101.145 17.701v29.36l-24.242-14.7L101.145 17.7z" fill="url(#X)"/><defs><linearGradient id="A" x1="89.023" y1="3" x2="89.023" y2="32.36" xlink:href="#Y"><stop stop-color="#44ffae"/><stop offset="1" stop-color="#29dcb5"/></linearGradient><linearGradient id="B" x1="113.262" y1="17.701" x2="113.262" y2="47.061" xlink:href="#Y"><stop stop-color="#44ffae"/><stop offset="1" stop-color="#29dcb5"/></linearGradient><linearGradient id="C" x1="89.023" y1="32.36" x2="89.023" y2="61.718" xlink:href="#Y"><stop stop-color="#44ffae"/><stop offset="1" stop-color="#29dcb5"/></linearGradient><linearGradient id="D" x1="113.262" y1="47.061" x2="113.262" y2="76.419" xlink:href="#Y"><stop stop-color="#44ffae"/><stop offset="1" stop-color="#29dcb5"/></linearGradient><linearGradient id="E" x1="89.023" y1="61.72" x2="89.023" y2="91.078" xlink:href="#Y"><stop stop-color="#44ffae"/><stop offset="1" stop-color="#29dcb5"/></linearGradient><linearGradient id="F" x1="113.262" y1="76.421" x2="113.262" y2="105.779" xlink:href="#Y"><stop stop-color="#44ffae"/><stop offset="1" stop-color="#29dcb5"/></linearGradient><linearGradient id="G" x1="26.36" y1="31.367" x2="26.36" y2="60.725" xlink:href="#Y"><stop stop-color="#44ffae"/><stop offset="1" stop-color="#29dcb5"/></linearGradient><linearGradient id="H" x1="56.934" y1="42.286" x2="56.934" y2="71.644" xlink:href="#Y"><stop stop-color="#44ffae"/><stop offset="1" stop-color="#29dcb5"/></linearGradient><linearGradient id="I" x1="38.981" y1="60.852" x2="38.981" y2="90.21" xlink:href="#Y"><stop stop-color="#44ffae"/><stop offset="1" stop-color="#29dcb5"/></linearGradient><linearGradient id="J" x1="54.935" y1="83.008" x2="54.935" y2="112.366" xlink:href="#Y"><stop stop-color="#44ffae"/><stop offset="1" stop-color="#29dcb5"/></linearGradient><linearGradient id="K" x1="88.811" y1="95.646" x2="88.811" y2="125" xlink:href="#Y"><stop stop-color="#44ffae"/><stop offset="1" stop-color="#29dcb5"/></linearGradient><linearGradient id="L" x1="60.966" y1="27.785" x2="60.966" y2="57.143" xlink:href="#Y"><stop stop-color="#44ffae"/><stop offset="1" stop-color="#29dcb5"/></linearGradient><linearGradient id="M" x1="64.785" y1="3" x2="64.785" y2="32.36" xlink:href="#Y"><stop stop-color="#44ffae"/><stop offset="1" stop-color="#29dcb5"/></linearGradient><linearGradient id="N" x1="36.749" y1="15.48" x2="36.749" y2="44.832" xlink:href="#Y"><stop stop-color="#44ffae"/><stop offset="1" stop-color="#29dcb5"/></linearGradient><linearGradient id="O" x1="60.983" y1="30.014" x2="60.983" y2="59.372" xlink:href="#Y"><stop stop-color="#44ffae"/><stop offset="1" stop-color="#29dcb5"/></linearGradient><linearGradient id="P" x1="32.594" y1="42.286" x2="32.594" y2="71.644" xlink:href="#Y"><stop stop-color="#44ffae"/><stop offset="1" stop-color="#29dcb5"/></linearGradient><linearGradient id="Q" x1="64.801" y1="61.72" x2="64.801" y2="91.078" xlink:href="#Y"><stop stop-color="#44ffae"/><stop offset="1" stop-color="#29dcb5"/></linearGradient><linearGradient id="R" x1="14.737" y1="68.548" x2="14.737" y2="97.907" xlink:href="#Y"><stop stop-color="#44ffae"/><stop offset="1" stop-color="#29dcb5"/></linearGradient><linearGradient id="S" x1="113.262" y1="32.36" x2="113.262" y2="61.718" xlink:href="#Y"><stop stop-color="#44ffae"/><stop offset="1" stop-color="#29dcb5"/></linearGradient><linearGradient id="T" x1="89.023" y1="47.061" x2="89.023" y2="76.419" xlink:href="#Y"><stop stop-color="#44ffae"/><stop offset="1" stop-color="#29dcb5"/></linearGradient><linearGradient id="U" x1="113.262" y1="61.72" x2="113.262" y2="91.078" xlink:href="#Y"><stop stop-color="#44ffae"/><stop offset="1" stop-color="#29dcb5"/></linearGradient><linearGradient id="V" x1="89.023" y1="76.421" x2="89.023" y2="105.779" xlink:href="#Y"><stop stop-color="#44ffae"/><stop offset="1" stop-color="#29dcb5"/></linearGradient><linearGradient id="W" x1="59.417" y1="88.651" x2="59.417" y2="118.009" xlink:href="#Y"><stop stop-color="#44ffae"/><stop offset="1" stop-color="#29dcb5"/></linearGradient><linearGradient id="X" x1="89.023" y1="17.701" x2="89.023" y2="47.061" xlink:href="#Y"><stop stop-color="#44ffae"/><stop offset="1" stop-color="#29dcb5"/></linearGradient><linearGradient id="Y" gradientUnits="userSpaceOnUse"/></defs></svg>