<svg xmlns="http://www.w3.org/2000/svg" xmlns:xlink="http://www.w3.org/1999/xlink" width="128" height="128" viewBox="0 0 33.867 33.867" xmlns:v="https://vecta.io/nano"><defs><linearGradient id="A" x1="-.218" y1="16.109" x2="26.731" y2="27.88" xlink:href="#Y"><stop stop-color="#00dc9c"/><stop offset="1" stop-color="#00d3dc"/></linearGradient><linearGradient id="B" x1="-7.09" y1="27.655" x2="19.854" y2="39.427" xlink:href="#Y"><stop stop-color="#00dc9c"/><stop offset="1" stop-color="#00d3dc"/></linearGradient><linearGradient id="C" x1="-4.953" y1="23.615" x2="21.991" y2="35.387" xlink:href="#Y"><stop stop-color="#00dc9c"/><stop offset="1" stop-color="#00d3dc"/></linearGradient><linearGradient id="D" x1="-2.574" y1="19.858" x2="24.369" y2="31.626" xlink:href="#Y"><stop stop-color="#00dc9c"/><stop offset="1" stop-color="#00d3dc"/></linearGradient><linearGradient id="E" x1="-2.591" y1="19.858" x2="24.352" y2="31.625" xlink:href="#Y"><stop stop-color="#00dc9c"/><stop offset="1" stop-color="#00d3dc"/></linearGradient><linearGradient id="F" x1="-.22" y1="16.097" x2="26.723" y2="27.864" xlink:href="#Y"><stop stop-color="#00dc9c"/><stop offset="1" stop-color="#00d3dc"/></linearGradient><linearGradient id="G" x1="-6.56" y1="29.188" x2="20.387" y2="40.958" xlink:href="#Y"><stop stop-color="#00dc9c"/><stop offset="1" stop-color="#00d3dc"/></linearGradient><linearGradient id="H" x1="-4.943" y1="23.647" x2="22.014" y2="35.379" xlink:href="#Y"><stop stop-color="#00dc9c"/><stop offset="1" stop-color="#00d3dc"/></linearGradient><linearGradient id="I" x1="-4.254" y1="24.041" x2="22.69" y2="35.813" xlink:href="#Y"><stop stop-color="#00dc9c"/><stop offset="1" stop-color="#00d3dc"/></linearGradient><linearGradient id="J" x1="-2.64" y1="19.829" x2="24.303" y2="31.596" xlink:href="#Y"><stop stop-color="#00dc9c"/><stop offset="1" stop-color="#00d3dc"/></linearGradient><linearGradient id="K" x1="-2.366" y1="20.003" x2="24.565" y2="31.777" xlink:href="#Y"><stop stop-color="#00dc9c"/><stop offset="1" stop-color="#00d3dc"/></linearGradient><linearGradient id="L" x1="-.228" y1="16.105" x2="26.72" y2="27.876" xlink:href="#Y"><stop stop-color="#00dc9c"/><stop offset="1" stop-color="#00d3dc"/></linearGradient><linearGradient id="M" x1="-3.481" y1="21.542" x2="23.476" y2="33.278" xlink:href="#Y"><stop stop-color="#00dc9c"/><stop offset="1" stop-color="#00d3dc"/></linearGradient><linearGradient id="N" x1="-7.688" y1="27.993" x2="19.26" y2="39.726" xlink:href="#Y"><stop stop-color="#00dc9c"/><stop offset="1" stop-color="#00d3dc"/></linearGradient><linearGradient id="O" x1="-7.838" y1="29.296" x2="19.118" y2="41.027" xlink:href="#Y"><stop stop-color="#00dc9c"/><stop offset="1" stop-color="#00d3dc"/></linearGradient><linearGradient id="P" x1="-7.49" y1="27.302" x2="19.453" y2="39.069" xlink:href="#Y"><stop stop-color="#00dc9c"/><stop offset="1" stop-color="#00d3dc"/></linearGradient><linearGradient id="Q" x1="-3.287" y1="24.605" x2="23.669" y2="36.337" xlink:href="#Y"><stop stop-color="#00dc9c"/><stop offset="1" stop-color="#00d3dc"/></linearGradient><linearGradient id="R" x1="-4.632" y1="25.144" x2="22.312" y2="36.911" xlink:href="#Y"><stop stop-color="#00dc9c"/><stop offset="1" stop-color="#00d3dc"/></linearGradient><linearGradient id="S" x1="-4.81" y1="23.692" x2="22.133" y2="35.459" xlink:href="#Y"><stop stop-color="#00dc9c"/><stop offset="1" stop-color="#00d3dc"/></linearGradient><linearGradient id="T" x1="-4.817" y1="23.692" x2="22.127" y2="35.464" xlink:href="#Y"><stop stop-color="#00dc9c"/><stop offset="1" stop-color="#00d3dc"/></linearGradient><linearGradient id="U" x1="-2.435" y1="19.94" x2="24.509" y2="31.712" xlink:href="#Y"><stop stop-color="#00dc9c"/><stop offset="1" stop-color="#00d3dc"/></linearGradient><linearGradient id="V" x1="-2.437" y1="19.946" x2="24.506" y2="31.713" xlink:href="#Y"><stop stop-color="#00dc9c"/><stop offset="1" stop-color="#00d3dc"/></linearGradient><linearGradient id="W" x1="-.077" y1="16.181" x2="26.871" y2="27.952" xlink:href="#Y"><stop stop-color="#00dc9c"/><stop offset="1" stop-color="#00d3dc"/></linearGradient><linearGradient id="X" x1="-.08" y1="16.187" x2="26.868" y2="27.954" xlink:href="#Y"><stop stop-color="#00dc9c"/><stop offset="1" stop-color="#00d3dc"/></linearGradient><linearGradient id="Y" gradientUnits="userSpaceOnUse"/></defs><path d="M33.867 16.933c0 9.352-7.581 16.933-16.933 16.933S0 26.285 0 16.933 7.581 0 16.933 0s16.933 7.581 16.933 16.933z" fill="#262626"/><path d="M18.095 5.672v5.119l4.46-2.556z" fill="url(#X)"/><path opacity=".9" d="M22.554 8.236v5.119l4.46-2.563z" fill="url(#W)"/><path opacity=".8" d="M18.095 10.791v5.119l4.46-2.556z" fill="url(#V)"/><path opacity=".8" d="M22.554 13.354v5.119l4.46-2.563z" fill="url(#U)"/><path opacity=".8" d="M18.095 15.909v5.119l4.46-2.556z" fill="url(#T)"/><path d="M22.554 18.473v5.119l4.46-2.563z" fill="url(#S)"/><path opacity=".4" d="M6.568 10.62v5.119l4.46-2.563z" fill="url(#R)"/><path opacity=".2" d="M12.196 12.521v5.119l4.452-2.556z" fill="url(#Q)"/><path opacity=".3" d="M8.889 15.761v5.119l4.46-2.563z" fill="url(#P)"/><path opacity=".9" d="M11.828 19.622v5.119l4.452-2.563z" fill="url(#O)"/><path opacity=".7" d="M18.06 21.826v5.118l4.452-2.563z" fill="url(#N)"/><path opacity=".9" d="M12.938 9.995v5.119l4.452-2.556z" fill="url(#M)"/><path opacity=".8" d="M18.095 5.672v5.119l-4.46-2.556z" fill="url(#L)"/><path opacity=".6" d="M12.938 7.847v5.117l-4.46-2.562z" fill="url(#K)"/><path opacity=".6" d="M17.396 10.381V15.5l-4.46-2.563z" fill="url(#J)"/><path opacity=".95" d="M12.175 12.521v5.119l-4.46-2.556z" fill="url(#I)"/><path opacity=".6" d="M18.095 15.909v5.119l-4.452-2.556z" fill="url(#H)"/><path opacity=".55" d="M8.889 17.102v5.119L4.43 19.657z" fill="url(#G)"/><path d="M27.014 10.791v5.119l-4.46-2.556z" fill="url(#F)"/><path opacity=".95" d="M22.555 13.354v5.119l-4.46-2.563z" fill="url(#E)"/><path opacity=".9" d="M27.014 15.909v5.119l-4.46-2.556z" fill="url(#D)"/><path opacity=".7" d="M22.555 18.473v5.119l-4.46-2.563z" fill="url(#C)"/><path opacity=".4" d="M17.108 20.603v5.119l-4.46-2.556z" fill="url(#B)"/><path d="M22.555 8.236v5.119l-4.46-2.563z" fill="url(#A)"/></svg>