<svg xmlns="http://www.w3.org/2000/svg" width="128" height="128" xmlns:v="https://vecta.io/nano"><g transform="scale(.128)"><linearGradient id="A" gradientUnits="userSpaceOnUse" x1="96.097" y1="902.503" x2="876.077" y2="122.523"><stop offset="0" stop-color="#009dde"/><stop offset=".5" stop-color="#694d9f"/><stop offset="1" stop-color="#ed3554"/></linearGradient><path d="M303.5 724.7L74.1 750.5l134.7-310.8-137.9-188 335.3-38.2L497.3 4l199.6 271.3 229.4-25.8-134.1 309.3 136.9 186.7-333.6 38L503 996zm95.3-20.6c-8.8 4.3-18.2 7.9-27.9 10.6l-8.8 2.4 129.3 175.8 45.9-105.6-8.3-1.1c-45.2-5.7-86.3-30.1-112.8-66.7l-12.9-17.8zm-45-159.4L458.1 689c21.2 29.3 55.5 46.8 91.7 46.8 4.2 0 8.4-.2 12.5-.7l272.2-31-108.4-147.9c-5.4-7.3-11.6-13.9-18.5-19.7l-6.4-5.3-77.6 175.3-135-178.7zm4.5-175.7c-40.4 4.3-75.6 30.2-91.8 67.6L157.2 688.9l181.6-20.4c9-1 17.8-3.1 26.3-6.2l7.8-2.9-112.4-155.2 221.6-28.1 52.7-125.9zm171.5 127.3L611.9 605 662 491.9l22-49.8c16.5-37.3 11.8-80.8-12.4-113.6L508.9 107.1l-73.2 168.2c-3.6 8.3-6.2 17-7.8 26l-1.4 8.2 189.9-20.1zm199.5-172.4l3.2 7.7c17.6 42.1 17.2 90.1-1.2 131.6l-8.9 20 4.3 2.9c8.2 5.5 15.9 11.9 23 19l6.5 6.4L843.1 311zm-563.8-30.8l69.2 94.4 5.1-6.6c27.5-35.7 68.8-58.9 113.1-63.6l21.7-2.3.4-5.3c.7-10.9 2.6-21.8 5.5-32.4l2.5-9z" fill="url(#A)"/><linearGradient id="B" gradientUnits="userSpaceOnUse" x1="181.197" y1="987.603" x2="961.177" y2="207.623"><stop offset="0" stop-color="#009dde"/><stop offset=".5" stop-color="#694d9f"/><stop offset="1" stop-color="#ed3554"/></linearGradient><path d="M451.6 1000c-144-13.9-273.4-88.8-358.1-207.5l58-6.5c9.6 11.8 19.8 23.1 30.3 33.7 62.9 63.2 141.6 105.8 227.9 123.4z" fill="url(#B)"/><linearGradient id="C" gradientUnits="userSpaceOnUse" x1="403.727" y1="1210.132" x2="1183.707" y2="430.152"><stop offset="0" stop-color="#009dde"/><stop offset=".5" stop-color="#694d9f"/><stop offset="1" stop-color="#ed3554"/></linearGradient><path d="M572.4 946.3c93.4-15.1 178.3-58.8 245.8-126.6 6-6.1 12.1-12.6 18.2-19.4l70.3-8C822.3 910.9 693.1 985.9 549.1 1000z" fill="url(#C)"/><linearGradient id="D" gradientUnits="userSpaceOnUse" x1="324.472" y1="1130.878" x2="1104.452" y2="350.898"><stop offset="0" stop-color="#009dde"/><stop offset=".5" stop-color="#694d9f"/><stop offset="1" stop-color="#ed3554"/></linearGradient><path d="M921 660.3c19.2-51.1 29-105 29-160.3 0-48.8-7.7-96.8-22.8-142.6l28.2-65C985 357.7 1000 427.5 1000 500c0 72.4-15 142.1-44.5 207.4z" fill="url(#D)"/><linearGradient id="E" gradientUnits="userSpaceOnUse" x1="-130.928" y1="675.478" x2="649.052" y2="-104.502"><stop offset="0" stop-color="#009dde"/><stop offset=".5" stop-color="#694d9f"/><stop offset="1" stop-color="#ed3554"/></linearGradient><path d="M44.8 708.1C15.1 642.6 0 572.7 0 500c0-73.1 15.2-143.4 45.3-209.1l34.4 47C60 389.5 50 444 50 500c0 49 7.7 97.1 22.9 143.1z" fill="url(#E)"/><linearGradient id="F" gradientUnits="userSpaceOnUse" x1="-210.017" y1="596.388" x2="569.963" y2="-183.592"><stop offset="0" stop-color="#009dde"/><stop offset=".5" stop-color="#694d9f"/><stop offset="1" stop-color="#ed3554"/></linearGradient><path d="M95.6 204.6C180.2 87.8 308.6 13.8 451.3 0L428 53.6c-93.5 15-178.6 58.8-246.2 126.7-5.1 5.1-10.2 10.6-15.3 16.2z" fill="url(#F)"/><linearGradient id="G" gradientUnits="userSpaceOnUse" x1="12.497" y1="818.903" x2="792.477" y2="38.923"><stop offset="0" stop-color="#009dde"/><stop offset=".5" stop-color="#694d9f"/><stop offset="1" stop-color="#ed3554"/></linearGradient><path d="M848.6 214a444.32 444.32 0 0 0-30.4-33.7C755.4 117.2 676.8 74.6 590.7 57L548.8 0c143.9 14 273.1 88.9 357.7 207.5z" fill="url(#G)"/></g></svg>