<svg xmlns="http://www.w3.org/2000/svg" width="128" height="128" viewBox="0 0 33.867 33.867" xmlns:v="https://vecta.io/nano"><g fill="#fff"><circle cx="16.933" cy="16.933" r="16.933" paint-order="fill markers stroke"/><path d="M16.933 33.867c9.352 0 16.933-7.581 16.933-16.933S26.285 0 16.933 0 0 7.581 0 16.933s7.581 16.933 16.933 16.933z"/></g><path d="M16.933 33.357c9.07 0 16.423-7.353 16.423-16.423S26.004.51 16.933.51.51 7.863.51 16.933s7.353 16.423 16.423 16.423z" stroke="#fff" stroke-width="1.02"/><path d="M16.933 31.456c8.021 0 14.523-6.502 14.523-14.523S24.954 2.411 16.933 2.411 2.411 8.913 2.411 16.933s6.502 14.523 14.523 14.523z" stroke="#f0827d" stroke-width=".588"/><g fill="#fff" fill-rule="evenodd"><path d="M17.555 11.32c0-.308-.236-.558-.527-.558s-.528.25-.528.558v12.875c0 .308.236.558.527.558s.528-.25.528-.558V11.32z"/><path d="M15.424 21.931c-.291 0-.527.249-.528.557s.236.558.527.558l3.162.003c.291 0 .528-.249.528-.557s-.236-.559-.527-.559l-3.162-.003zm-2.607-7.294c-.291 0-.527.249-.528.557s.236.558.527.558l8.392.007c.291 0 .527-.249.528-.557s-.236-.559-.527-.559l-8.392-.007z"/><path d="M14.556 11.818a.51.51 0 0 0-.746.001.58.58 0 0 0 0 .789l5.676 5.988a.51.51 0 0 0 .746-.001.58.58 0 0 0 0-.789l-5.676-5.988z"/><path d="M13.818 17.816a.58.58 0 0 0 .001.789c.207.218.54.217.746-.001l5.66-6.005a.58.58 0 0 0-.001-.788c-.207-.218-.541-.217-.746.001l-5.66 6.005z"/></g></svg>