<svg xmlns="http://www.w3.org/2000/svg" width="128" height="128" fill="none" xmlns:v="https://vecta.io/nano"><path d="M0 36.094l22.161 49.568 36.874 36.469L22.511 9.009z" fill="#9c2131"/><path d="M0 36.094l38.65 23.014L22.51 9.01z" fill="#576b98"/><path d="M36.168 6L48.93 45.653l7.979 2.835 9.398-29.738z" fill="#d71b2a"/><path d="M128 43.349l-17.727 24.606-40.602-14.691 11.524-35.407 31.377-7.967z" fill="#c41a24"/><path d="M101.938 79.643l-28.896 39.653-18.615-56.829z" fill="#c71c26"/><path d="M52.475 22.639l4.434 25.842 9.398-29.738z" fill="#a71927"/><path d="M48.755 45.653l8.154 2.835-4.434-25.842L36.168 6z" fill="#61395f"/><path d="M38.643 59.108L22.154 85.662 0 36.094z" fill="#614268"/><path d="M81.196 17.863l14.713 22.658-26.238 12.743 11.524-35.401z" fill="#da1728"/><path d="M112.58 9.896L95.916 40.521 81.203 17.863z" fill="#e42735"/><path d="M110.272 67.955L95.909 40.514l32.09 2.835z" fill="#a61d1e"/><path d="M74.105 84.419l-1.063 34.87-18.615-56.822L74.105 84.42z" fill="#d71b2a"/><path d="M73.042 119.296l1.063-34.87 27.832-4.783z" fill="#a51c1c"/><path d="M59.209 122.124L22.153 85.655l26.594 4.957 10.461 31.511z" fill="#721919"/></svg>