<svg xmlns="http://www.w3.org/2000/svg" width="128" height="128" fill="none" xmlns:v="https://vecta.io/nano"><path d="M91.354 0L52.677 35.802c-4.004 3.714-9.216 5.766-14.625 5.792l-11.528.025L26.486 0H5.643v118.939h11.367c6.355 0 12.287-3.435 15.396-9.074.025-.038.037-.076.062-.101 2.065-3.778 3.097-11.242 2.898-16.337-.448-11.646-2.288-14.675-2.288-14.675-.386 7.984-8.569 8.415-8.569 8.415 5.82-5.664 2.649-9.949 2.649-9.949-10.31 7.478-12.884-.507-13.083-1.229.323.279 3.258 2.776 8.83-5.006 5.895-8.225 13.755-21.938 18.754-25.46 5.011-3.536 9.762-3.244 9.762-3.244s2.736-3.777 9.974-6.92c7.238-3.117 11.877 1.458 11.877 1.458-7.399 6.083-17.448 16.07-18.008 30.377C54.816 78.777 79.316 98.649 75.012 128c2.575-6.666 3.607-13.344 2.724-21.608-.709-6.666-4.925-20.594-4.925-20.594l23.529 33.128h26.017L71.505 47.74 122.358 0z" fill="url(#A)"/><path d="M43.967 51.213c-1.642 2.775-1.642 3.625-1.642 3.625s5.746-.988 7.3-7.946c.012 0-3.669.962-5.659 4.321z" fill="url(#A)"/><defs><linearGradient id="A" x1="180.715" y1="144.324" x2="76.954" y2="-20.959" gradientUnits="userSpaceOnUse"><stop stop-color="#e40c5b"/><stop offset="1" stop-color="#ff4c3b"/></linearGradient></defs></svg>