<svg xmlns="http://www.w3.org/2000/svg" width="128" height="128" preserveAspectRatio="xMidYMid" fill="#2e7632" xmlns:v="https://vecta.io/nano"><path d="M58.328.259C13.62 4.25-13.33 52.498 6.745 92.638c23.587 47.15 90.811 47.15 114.473 0C143.51 48.232 107.843-4.132 58.328.259zM72.45 6.446c44.085 6.661 64.659 58.127 37.36 93.501-28.469 36.897-87.274 26.269-101.322-18.311C-4.388 40.748 30.208.059 72.45 6.446zm-24.658 6.212c-6.65 1.696-9.988 6.237-10.76 14.719-.623 6.511-.498 6.212-4.483 11.526-5.38 7.185-6.301 11.476-3.686 17.139 1.519 3.268 7.223 9.305 9.514 10.079 3.537 1.148 2.391 3.967-2.117 5.164-1.395.374-3.861 1.696-5.679 3.019-1.768 1.322-4.608 3.044-6.301 3.842-8.07 3.842-8.02 7.908.075 8.906 1.743.225 3.437.549 3.736.723.548.349 24.16 1.023 34.272.998 3.088-.025 5.604.025 5.604.075 0 .1-2.341 2.345-10.909 10.478l-3.213 3.068 4.956 4.715 7.323 6.885 2.416 2.17 1.196-1.447c.648-.823 1.196-1.846 1.196-2.295.025-.898-4.334-4.815-6.725-6.062-3.786-1.946-3.313-2.495 1.694-2.096l4.633.349-.174-2.17-.149-2.17-4.483.15c-5.156.175-5.355.748 1.719-4.84l4.035-3.218-1.494-1.547c-2.167-2.245-2.142-2.27 4.832-2.32 3.487 0 8.269-.2 10.585-.374 2.341-.2 5.43-.2 6.899 0 1.445.2 3.811.15 5.23-.125l5.803-.948c8.145-1.297 8.045-4.94-.224-9.081-1.644-.823-4.458-2.545-6.227-3.792-1.768-1.272-4.359-2.594-5.729-2.944-4.633-1.197-5.43-3.842-1.544-5.139 2.092-.674 7.945-7.21 9.415-10.478 2.416-5.413 1.295-9.679-4.683-17.712-3.064-4.116-3.213-4.565-3.711-10.478-1.22-14.32-12.827-19.359-24.309-10.528l-2.391 1.846-2.416-1.771c-4.757-3.493-10.212-5.214-13.724-4.316zm36.987 5.638c3.163 2.994 2.59 4.091-.872 1.696-3.338-2.295-5.629-2.37-10.884-.274-3.437 1.372-4.882 2.395-8.12 5.788l-1.046 1.098-2.291-2.27c-5.579-5.463-13.35-7.459-17.684-4.59-2.541 1.696-3.238 1.671-2.316-.05 1.544-2.894 11.457-5.887 11.457-3.443 0 .299-.324.424-.747.274-1.494-.574-.672.449 1.021 1.297 2.341 1.173 3.263 1.098 1.719-.125-1.021-.798-1.071-.973-.374-.998.473 0 .872.249.872.574s.149.449.299.274c.448-.424 4.732 1.821 5.878 3.093.697.773 1.121.898 1.594.499.374-.299.872-.399 1.121-.249s.996-.1 1.644-.574c3.213-2.37 6.924-4.041 9.888-4.515 3.138-.499 6.725.524 8.842 2.495zm-31.458 2.145c1.196.699 2.341 1.547 2.541 1.896.224.349 1.021 1.023 1.793 1.497.747.499 1.27 1.073 1.121 1.297-.149.249.423.574 1.22.723.822.175 1.494.549 1.494.873 0 .299-.299.449-.672.299-.399-.15-.971.225-1.32.873-1.743 3.293-14.122 5.588-17.161 3.193-2.516-1.971-3.462-7.908-1.27-7.908 1.071 0 2.615-.748 4.159-1.996 2.74-2.22 5.206-2.445 8.095-.748zm26.924-.374a31.8 31.8 0 0 1 2.889 1.821 9.07 9.07 0 0 0 2.889 1.247c2.565.524 2.167 4.815-.697 7.684-2.615 2.619-13.201 1.023-17.036-2.57-.623-.599-1.42-1.073-1.793-1.073-.523 0-.523-.15-.025-.748.349-.424.797-.748.996-.748s1.245-.823 2.291-1.796c4.707-4.416 7.547-5.438 10.486-3.817zM64.978 27.95c0 .399.324.873.722 1.023.399.175.971 1.048 1.295 1.996.797 2.42 4.832 5.588 8.07 6.386 2.167.499 1.619-.624-.797-1.671-1.171-.499-3.138-1.896-4.359-3.093-1.196-1.197-1.968-1.996-1.719-1.796s.971.374 1.569.374c.623 0 2.092.424 3.288.948 1.22.499 3.811 1.098 5.803 1.297 2.042.2 3.537.574 3.437.848-.199.624-3.885 1.946-4.458 1.597-.224-.15-.399 0-.399.349 0 2.12 8.942-1.597 9.714-4.041.299-.948 1.22-1.397 1.27-.624.199 2.096.598 3.393 1.943 6.137.847 1.771 1.918 3.493 2.366 3.842.473.349.672.624.473.624s-.125.274.174.624c2.142 2.57 2.64 3.243 3.039 4.266.498 1.297.623 4.915.149 4.441-.174-.175-.847.748-1.494 2.071-.648 1.297-2.017 3.243-3.039 4.341-1.021 1.073-1.868 2.17-1.868 2.445-.075 1.547-5.206 3.019-10.237 2.894a119.73 119.73 0 0 0-4.234 0c-27.448.599-37.062-.05-37.983-2.52-.149-.474-1.27-1.921-2.441-3.243s-2.516-3.293-2.989-4.366-1.046-1.971-1.27-1.971c-.897 0 .1-4.915 1.245-6.087 1.47-1.547 3.836-4.84 3.836-5.339 0-.299.224-.549.498-.549.249 0 .623-.599.822-1.347a14.09 14.09 0 0 1 .996-2.619c.374-.699.672-1.896.672-2.644 0-1.696.623-1.771 1.494-.15.971 1.821 4.085 3.692 6.675 3.992 2.939.349 2.964-.324.05-1.123-3.188-.848-2.79-1.447 1.32-1.846 1.968-.2 4.259-.649 5.106-.998.847-.324 2.441-.748 3.537-.923l1.968-.299-2.217 1.971c-1.245 1.098-2.79 2.12-3.487 2.295-2.665.699-3.462 2.32-.872 1.721 2.814-.624 7.846-4.266 7.846-5.663 0-.299.598-1.397 1.32-2.445 1.32-1.896 3.163-2.57 3.163-1.123zM85.9 67.416c0 1.696-18.082 3.044-29.888 2.195-8.394-.599-8.07-.599-7.771-.1.872 1.422 27.024 2.145 29.191.823.423-.249 2.092-.499 3.736-.549s3.437-.175 3.985-.274c.747-.125 1.046.125 1.171 1.023.149 1.123.05 1.148-1.993.848-1.196-.175-3.512-.075-5.156.2-4.11.699-26.277.699-30.088 0-1.669-.299-4.11-.474-5.405-.399-2.092.125-2.366.025-2.366-.848 0-1.048.149-1.048 3.736-.424 2.391.424 1.445-.449-1.146-1.073-1.27-.299-2.142-.823-2.242-1.322-.149-.748 1.743-.823 22.043-.823 18.805 0 22.192.125 22.192.723zm-30.636 6.312l8.967-.025 17.485-.2c4.284-.125 6.75.025 7.223.374.374.299 1.27.699 1.943.848.697.175 1.719.723 2.242 1.197 4.732 4.291 9.216 7.16 9.216 5.912 0-.998.722-.973 2.267.025 3.636 2.395 1.694 2.994-11.482 3.443l-17.435.748c-8.269.474-22.142.349-31.134-.249-2.042-.15-7.871-.374-12.952-.549-9.24-.274-10.336-.474-9.813-1.896.399-1.023 3.487-2.594 3.711-1.896.324.923 4.832-1.671 7.298-4.191 3.014-3.044 7.372-4.266 13.749-3.842 2.889.175 6.8.324 8.717.299zm17.56-56.256c-.747.424-1.37.973-1.37 1.247 0 .449 1.669-.249 3.487-1.497 1.22-.848-.473-.624-2.117.249zm-27.772 5.214c-.598.374-.399.549.872.798.872.175 1.47.524 1.32.748-.125.249.174.449.722.449.523 0 1.345.574 1.793 1.272.822 1.247.822 1.272-.149.748-1.37-.723-2.69-.674-2.416.1.1.349.672.574 1.22.524 1.669-.2 2.366 1.123 1.096 2.021-.598.399-1.395.624-1.768.474-.399-.125-.697 0-.697.299 0 .823 2.267.674 2.989-.2.349-.424.946-.748 1.32-.748 1.569 0 4.334-1.522 3.786-2.071-.399-.399-.847-.324-1.694.274-1.569 1.098-1.793 1.023-2.167-.674-.174-.798-.623-1.721-1.021-2.046-.971-.798-.897-1.472.149-1.497.747-.05.722-.1-.125-.474-1.37-.574-4.309-.599-5.23 0zm-3.761 2.021c-.199.324-.149.723.075.898.249.175.797.973 1.196 1.771.423.823 1.046 1.572 1.42 1.696.523.175.498-.1-.1-1.247-.399-.798-.697-1.871-.648-2.395.075-1.073-1.37-1.622-1.943-.723zm35.891-2.021c-.847.374-.872.424-.125.474 1.121.025 1.096.324-.125 1.896-.548.699-.996 1.796-.996 2.445 0 1.173-.025 1.173-1.519.399-.847-.424-1.793-.674-2.117-.549-.648.225 2.665 1.821 3.811 1.821.374 0 .971.324 1.32.748.747.898 2.291.973 2.79.175.224-.374.125-.449-.249-.2-1.021.624-3.213-1.148-2.516-2.021.349-.399.996-.599 1.47-.449s1.146-.075 1.494-.499c.772-.923-.946-1.073-2.541-.225-.922.499-.946.449-.349-.499.349-.574 1.046-1.148 1.519-1.322.473-.15.872-.449.872-.674s.722-.549 1.619-.723c1.27-.249 1.47-.424.872-.798-.922-.599-3.861-.574-5.23 0zm6.974 1.996c-.174.274-.174.723 0 .973.149.274-.05 1.173-.498 1.996-.672 1.347-.672 1.522-.025 1.522 1.071 0 2.964-4.041 2.142-4.565-.847-.549-1.245-.524-1.619.075zM64.604 36.781c.299.873 2.74 2.17 3.213 1.696.448-.449-1.743-2.295-2.765-2.32a.44.44 0 0 0-.448.624z"/><path d="M60.221 37.505c-.573.574-.672.923-.274 1.048.648.225 2.042-.773 2.042-1.447 0-.723-.847-.524-1.768.399zm10.984.149c.423.699 4.234 2.594 4.234 2.12 0-.449-1.569-1.497-3.288-2.145-.847-.324-1.146-.299-.946.025zm-17.933.998c-1.245.823-1.32.998-.498.973 1.196 0 3.885-1.946 2.74-1.946-.399-.025-1.42.424-2.242.973zM41.814 44.59c-8.169 1.023-9.714 8.008-2.341 10.627 2.59.898 45.206.923 48.245 0 6.227-1.846 6.551-8.482.523-10.128-2.267-.624-12.852-.848-21.271-.474-2.864.15-9.041.1-13.699-.075s-9.813-.15-11.457.05zm47.946 1.946c3.238 1.846 2.939 4.79-.672 6.536-2.839 1.397-42.118 1.796-48.868.499-5.878-1.148-6.551-6.162-.996-7.334 3.462-.723 49.191-.474 50.536.299zm-48.07 1.496c-3.462.15-4.832.848-2.491 1.297 2.017.399 21.943 1.197 26.526 1.073 17.684-.524 24.508-1.073 23.637-1.946-.374-.399-8.668-.449-21.146-.2-6.301.15-14.023.1-17.186-.05-3.138-.175-7.348-.249-9.34-.175zm-8.593 1.871c0 2.245 4.135 8.208 5.679 8.208.274 0-.423-.948-1.569-2.12-1.196-1.222-2.441-3.143-2.914-4.49-.822-2.445-1.196-2.944-1.196-1.597zm60.325 1.298c-.423 1.572-1.345 2.994-2.839 4.466-1.196 1.173-2.192 2.37-2.192 2.644 0 .898 4.035-3.393 5.056-5.364.548-1.048.897-2.395.797-2.994-.149-.773-.374-.449-.822 1.247zM57.331 81.736c-1.046.299-1.768.699-1.619.848.324.324 15.243.15 15.567-.2 1.22-1.197-10.386-1.746-13.948-.649zm-9.489 12.049l-4.284 4.74.05-3.867c.025-3.243.125-3.617.498-2.27.648 2.27 1.295 2.42 1.544.374.249-2.22-.423-2.794-3.612-3.118l-2.466-.225v13.022 13.047h2.117c3.088-.025 4.433-1.222 4.035-3.617-.349-2.12-.946-2.021-1.619.274-.374 1.322-.473.923-.498-2.37l-.05-3.967 2.615 2.969 4.707 5.214 2.092 2.245 2.142-2.145 2.142-2.145-5.181-5.064-5.181-5.064 4.882-4.565 4.907-4.54-1.968-1.821c-2.516-2.345-1.968-2.57-6.874 2.894zm-.324 6.686c-1.345 1.796-.996 2.594 3.188 7.035 1.694 1.796 1.071 1.297-1.42-1.148l-4.483-4.416 1.719-1.447c2.167-1.846 2.316-1.846.996-.025zm38.133-10.852c-1.395.773-4.707 3.967-5.33 5.164-.548.998-.548.998.623 0 .697-.599.473-.15-.548 1.123-2.391 2.944-2.64 2.719-2.242-2.12l.374-4.241h-2.192c-3.437 0-3.387-.175-3.387 12.972s-.05 12.972 3.387 12.972h2.217l-.324-4.865-.324-4.865 1.494 1.721c.847.948 1.519 1.996 1.519 2.32 0 .624 5.778 6.187 6.401 6.187.224 0 1.046-.699 1.843-1.547l1.47-1.547-5.604-5.389-5.579-5.413 5.305-5.039 5.305-5.039-1.42-1.472c-1.594-1.671-1.619-1.671-2.989-.923z"/></svg>