<svg xmlns="http://www.w3.org/2000/svg" width="128" height="128" viewBox="0 0 33.867 33.867" xmlns:v="https://vecta.io/nano"><defs><linearGradient id="A" x1="16.841" y1="33.74" x2="16.935" y2="19.068" gradientUnits="userSpaceOnUse"><stop offset="0" stop-color="#7a0000"/><stop offset="1" stop-color="#e62b33"/></linearGradient><linearGradient id="B" x1="29.938" y1="6.158" x2="29.936" y2="27.696" gradientUnits="userSpaceOnUse"><stop offset="0" stop-color="#ff9300"/><stop offset="1" stop-color="#ee004f"/></linearGradient><linearGradient id="C" x1="8.897" y1="22.771" x2="27.784" y2="4.016" gradientUnits="userSpaceOnUse"><stop offset="0" stop-color="#ff2419"/><stop offset="1" stop-color="#ff9610"/></linearGradient><linearGradient id="D" x1="3.811" y1="27.56" x2="13.289" y2="2.711" gradientUnits="userSpaceOnUse"><stop offset="0" stop-color="#7b0000"/><stop offset="1" stop-color="#ff3e04"/></linearGradient></defs><path d="M16.935 19.067L6.087 29.839a17.03 17.03 0 0 0 21.694-.002L16.935 19.068z" fill="url(#A)"/><path d="M29.938 6.158l-10.847 10.77 10.845 10.769c5.24-6.223 5.241-15.314.002-21.538z" fill="url(#B)"/><path d="M27.784 4.016A16.95 16.95 0 0 0 17.532.127L8.897 22.771z" fill="url(#C)"/><path d="M13.289 2.711L.034 15.871c-.271 4.235 1.079 8.414 3.777 11.689l9.477-24.85z" fill="url(#D)"/></svg>