<svg xmlns="http://www.w3.org/2000/svg" width="128" height="128" fill="none" xmlns:v="https://vecta.io/nano"><path d="M68.926 117.109c26.464 0 47.918-21.453 47.918-47.916S95.39 21.277 68.926 21.277 21.008 42.73 21.008 69.193s21.454 47.916 47.918 47.916z" fill="#3d7bc2"/><path d="M89.199 55.288c3.016 0 5.529-2.513 5.529-5.529s-2.513-5.529-5.529-5.529-5.529 2.513-5.529 5.529 2.513 5.529 5.529 5.529zm7.204 29.99c3.853 0 7.037-3.183 7.037-7.037s-3.184-7.037-7.037-7.037-7.037 3.183-7.037 7.037c-.168 3.854 3.016 7.037 7.037 7.037z" fill="#102e5e"/><path d="M117.011 71.037c3.016-.838 5.361-3.518 5.361-6.869s-2.178-6.031-5.361-6.869c-2.011-17.257-11.728-32.168-25.802-41.215l2.346-2.513c.838.335 1.843.503 2.848.503 3.853 0 7.037-3.183 7.037-7.037S100.257 0 96.403 0s-7.037 3.183-7.037 7.037c0 1.34.335 2.513 1.005 3.686l-3.016 3.183c-8.042-4.356-17.09-6.702-26.64-6.702C29.385 7.204 3.918 32.67 3.918 64s25.467 56.796 56.798 56.796c9.55 0 18.597-2.346 26.472-6.534l3.016 3.016c-.67 1.005-1.005 2.178-1.005 3.518 0 3.854 3.183 7.037 7.037 7.037s7.037-3.183 7.037-7.037-3.183-7.037-7.037-7.037c-1.005 0-2.01.168-2.848.67l-2.346-2.513c14.074-8.88 23.959-23.623 25.97-40.88zm-4.356-13.571c-2.681 1.005-4.524 3.518-4.524 6.534s1.843 5.529 4.524 6.534c-2.011 16.084-11.393 29.822-24.629 38.031l-39.205-40.88c.503-1.005 1.005-2.178 1.005-3.518s-.335-2.513-1.005-3.686l39.373-41.215c13.236 8.209 22.618 22.115 24.462 38.199zM60.716 116.44C31.731 116.44 8.275 92.984 8.275 64s23.456-52.44 52.442-52.44c8.377 0 16.419 2.01 23.456 5.529L45.47 57.633c-.167 0-.335-.167-.503-.167V35.183c2.848-1.005 4.691-3.518 4.691-6.702 0-3.853-3.184-7.037-7.037-7.037s-7.037 3.183-7.037 7.037c0 3.183 2.178 5.864 5.026 6.702v22.115c-2.848.837-5.026 3.518-5.026 6.701s2.178 5.864 5.026 6.701v21.948c-2.848.838-5.026 3.518-5.026 6.701 0 3.854 3.184 7.037 7.037 7.037s7.037-3.183 7.037-7.037c0-3.183-2.011-5.696-4.691-6.701v-21.78c.167 0 .335-.168.503-.168l38.535 40.377c-7.037 3.351-14.911 5.361-23.289 5.361z" fill="#fff"/></svg>