<svg xmlns="http://www.w3.org/2000/svg" width="128" height="128" xmlns:v="https://vecta.io/nano"><g fill-rule="evenodd" transform="scale(1.28)"><circle fill="#22242f" cx="50" cy="50" r="50"/><path d="M50 2c26.51 0 48 21.49 48 48S76.51 98 50 98 2 76.51 2 50 23.49 2 50 2zm0 3.388C25.362 5.388 5.388 25.362 5.388 50S25.362 94.612 50 94.612 94.612 74.638 94.612 50 74.638 5.388 50 5.388zm30.251 25.695v-4.36H66.439l-2.291-7.58-4.649.805 2.358 6.775h-14.62v4.36zm-35.371 32.4V35.645h-6.805c1.415-2.08 2.83-4.629 4.245-7.714v-3.22H31.203l1.684-4.092-4.312-1.342c-2.021 6.574-5.188 11.873-9.432 15.965l1.011 4.763c.876-.805 1.752-1.61 2.56-2.482v25.96zM33.426 35.645h-9.028a55.37 55.37 0 0 0 4.918-7.111h8.489c-1.482 2.683-2.897 5.098-4.379 7.111zm27.758 45.212c3.369 0 5.12-1.878 5.12-5.568V56.171h10.712V37.12H50.808v19.051h10.78v17.978c0 1.677-.674 2.549-2.021 2.549-1.55 0-3.167-.134-4.784-.335l.943 4.494zM31.876 47.585H26.89v-7.983h4.986zm8.826 0h-4.918v-7.983h4.918zm31.733 4.36H55.39V41.414h17.046zm-31.733 7.513h-4.918v-7.983h4.918zm-8.826 0H26.89v-7.983h4.986zm45.41 18.313l3.571-2.482c-1.819-4.293-4.379-9.257-7.748-14.959l-3.571 2.147c3.234 5.568 5.862 10.666 7.748 15.294zm-28.23 1.14c2.964-4.629 5.525-10.129 7.681-16.435l-3.908-1.878c-2.089 6.037-4.581 11.27-7.411 15.697zm-5.592-4.561l3.301-.805c-.943-3.22-1.886-6.037-2.964-8.452l-3.167.939a80.48 80.48 0 0 1 2.83 8.318zm-7.142 3.891l3.503-.402c-.404-5.098-1.145-9.123-2.223-12.075l-3.369.402c1.078 2.817 1.752 6.842 2.089 12.075zm-12.868 1.811c1.415-3.958 2.291-8.452 2.695-13.55l-3.638-.47c-.337 4.83-1.28 9.123-2.762 12.88zm5.659-.805l3.503-.402c-.135-5.299-.472-9.525-.943-12.611l-3.234.402c.337 2.952.539 7.178.674 12.611z" fill="#e53935" fill-rule="nonzero"/></g></svg>