<svg xmlns="http://www.w3.org/2000/svg" width="128" height="128" viewBox="0 0 33.867 33.867" xmlns:v="https://vecta.io/nano"><path d="M.038.038h33.79v33.79H.038z" stroke="#000" stroke-width=".077" stroke-miterlimit="10"/><path d="M28.691 9.784c-.399-.315-.875-.745-1.743-.852-.814-.108-1.643.438-2.204.799s-1.62 1.421-2.058 1.743-1.559.622-3.364 1.705-8.885 5.629-8.885 5.629l1.843.023-8.217 4.231h.822l-1.183.899s1.044.276 1.92-.276v.253s9.784-3.855 11.673-2.857l-1.152.338c.1 0 1.958.123 1.958.123a2.637 2.637 0 0 0 1.183 1.905c1.121.737 1.144 1.144 1.144 1.144s-.584.238-.584.538c0 0 .86-.261 1.659-.238a6.346 6.346 0 0 1 1.498.238s-.061-.323-.837-.538-1.544-1.06-1.92-1.521a2.15 2.15 0 0 1-.315-2.104c.269-.699 1.206-1.083 3.141-2.081 2.281-1.183 2.803-2.058 3.126-2.742s.799-2.043 1.067-2.68c.338-.822.753-1.259 1.098-1.521s1.881-.837 1.881-.837l-1.551-1.321z" fill="#fff"/></svg>