<?xml version="1.0" encoding="UTF-8" standalone="no"?>
<svg
   fill="none"
   viewBox="0 0 56.209723 98.909091"
   class="css-13udsys"
   width="72.847801"
   height="128"
   version="1.1"
   id="svg6"
   sodipodi:docname="layerzero (1).svg"
   inkscape:export-filename="..\transparentSVGs\layerzero_blk.svg"
   inkscape:export-xdpi="96"
   inkscape:export-ydpi="96"
   xmlns:inkscape="http://www.inkscape.org/namespaces/inkscape"
   xmlns:sodipodi="http://sodipodi.sourceforge.net/DTD/sodipodi-0.dtd"
   xmlns="http://www.w3.org/2000/svg"
   xmlns:svg="http://www.w3.org/2000/svg">
  <defs
     id="defs10" />
  <sodipodi:namedview
     id="namedview8"
     pagecolor="#ffffff"
     bordercolor="#000000"
     borderopacity="0.25"
     inkscape:showpageshadow="2"
     inkscape:pageopacity="0.0"
     inkscape:pagecheckerboard="0"
     inkscape:deskcolor="#d1d1d1"
     showgrid="false" />
  <path
     d="M 28.072401,2.4591889e-6 C 24.3576,0.01852921 20.682766,0.77256088 17.25785,2.2191711 c -3.424916,1.4466103 -6.532851,3.5575667 -9.1463036,6.211993 -2.613483,2.6543969 -4.681278,5.8004639 -6.085345,9.2584239 -1.40405497,3.45799 -2.11682297,7.160188 -2.09765497,10.895194 v 9.441839 H 22.795616 V 24.347338 c -2.66e-4,-0.642425 0.125373,-1.278578 0.369729,-1.872162 0.244356,-0.593583 0.602665,-1.132912 1.054398,-1.587218 0.451763,-0.454307 0.988162,-0.81451 1.578462,-1.060315 0.590329,-0.245835 1.223051,-0.372244 1.862015,-0.372125 h 0.824391 c 0.638964,-1.19e-4 1.271833,0.126319 1.862015,0.372125 0.590477,0.245805 1.126818,0.606008 1.578846,1.060315 0.451733,0.454277 0.809984,0.993635 1.054635,1.587218 0.244356,0.593584 0.370084,1.229708 0.370084,1.872162 v 36.670624 c 3.002974,0 5.97666,-0.594619 8.750957,-1.749837 2.774296,-1.155513 5.295362,-2.849141 7.418833,-4.983853 2.12347,-2.135007 3.807632,-4.669682 4.956932,-7.459066 1.149005,-2.789384 1.74037,-5.779341 1.74037,-8.798585 V 28.584782 C 56.233554,21.017206 53.26963,13.750785 47.97338,8.3736843 45.374806,5.7202342 42.276871,3.6133307 38.860031,2.1757048 35.443486,0.73808482 31.776374,-0.00155648 28.072401,2.4591889e-6 Z"
     fill="#FFFFFF"
     id="path2"
     style="fill:#ffffff;fill-opacity:1;stroke-width:1" />
  <path
     d="m 28.485705,79.580427 h -0.82439 c -0.638875,0 -1.271508,-0.126615 -1.861749,-0.372155 -0.59027,-0.245835 -1.126611,-0.606156 -1.578344,-1.060551 -0.451762,-0.4541 -0.810072,-0.993103 -1.054487,-1.586538 -0.244415,-0.593436 -0.370172,-1.229767 -0.370024,-1.872015 V 38.018929 c -3.003033,-2.95e-4 -5.976719,0.594028 -8.751194,1.749245 -2.774474,1.155513 -5.2953616,2.848846 -7.4188316,4.983853 -2.12344,2.135008 -3.807854,4.669682 -4.956939,7.459362 -1.14908797,2.789384 -1.74035897,5.779341 -1.74010097,8.798585 v 9.310372 c -0.0381,3.740479 0.661746,7.451374 2.05904797,10.91821 1.397289,3.466835 3.464315,6.620682 6.081555,9.279309 2.6172106,2.658332 5.7326876,4.768785 9.1662426,6.209183 3.433555,1.440398 7.117086,2.182045 10.837478,2.182045 3.72045,0 7.403834,-0.741647 10.837536,-2.182045 3.433407,-1.440398 6.549092,-3.550851 9.166303,-6.209183 2.617211,-2.658627 4.684177,-5.812474 6.081384,-9.279309 1.397502,-3.466836 2.097141,-7.177731 2.058979,-10.91821 V 61.009974 H 33.351374 v 13.679194 c 0,0.642544 -0.126023,1.278579 -0.370379,1.872015 -0.244652,0.593435 -0.603198,1.132734 -1.054931,1.586833 -0.451733,0.454396 -0.988073,0.814421 -1.578551,1.060256 -0.590181,0.24554 -1.222903,0.372155 -1.861808,0.372155 z"
     fill="#FFFFFF"
     id="path4"
     style="fill:#ffffff;fill-opacity:1;stroke-width:1"
     sodipodi:nodetypes="ssccscccccccscssccccccscccs" />
</svg>
