<svg xmlns="http://www.w3.org/2000/svg" width="128" height="128" fill="#00501e" xmlns:v="https://vecta.io/nano"><path d="M64.144 82.095c-1.268 0-31.36-.263-54.38-23.291-.487-.483-.962-.975-1.428-1.466-4.822-5.081-7.108-11.128-6.625-17.481.431-5.607 3.019-11.037 7.268-15.299s9.696-6.841 15.298-7.268c5.87-.431 11.482 1.475 16.317 5.573.522-6.314 3.127-11.645 7.595-15.475 4.265-3.662 9.92-5.676 15.959-5.676s11.693 2.014 15.958 5.676c4.464 3.834 7.074 9.161 7.595 15.475 4.835-4.097 10.446-6.039 16.316-5.573 5.607.431 11.037 3.019 15.294 7.268s6.845 9.696 7.268 15.299c.487 6.353-1.803 12.4-6.62 17.49l-1.428 1.467C95.509 81.832 65.416 82.095 64.144 82.095zm-38.201-60.09c-5.219 0-10.119 2.428-13.604 5.909-6.263 6.267-9.109 17.127-.552 26.172l1.337 1.376c21.643 21.639 50.735 21.889 51.024 21.889s29.441-.302 51.028-21.889a65.84 65.84 0 0 0 1.337-1.376c8.557-9.057 5.71-19.905-.552-26.172s-17.127-9.114-26.185-.552c-.463.434-.922.88-1.376 1.337a49.02 49.02 0 0 0-1.027 1.065l-4.498 4.77.177-6.547c0-.5.03-.996.03-1.501l-.026-1.919c-.345-12.443-10.037-18.115-18.9-18.115S45.61 12.12 45.261 24.567l-.026 1.919c0 .492 0 .975.026 1.462l.177 6.586-4.503-4.745-1.039-1.083c-.457-.457-.916-.903-1.376-1.337-4.033-3.826-8.411-5.365-12.577-5.365zm35.16 34.962h-3.451c0-5.137-5.003-9.321-11.145-9.321s-11.145 4.184-11.145 9.321h-3.451c0-7.043 6.547-12.771 14.596-12.771s14.596 5.728 14.596 12.771zm35.084-.142h-3.451c0-5.137-4.999-9.316-11.145-9.316s-11.145 4.179-11.145 9.316h-3.451c0-7.039 6.547-12.767 14.596-12.767s14.596 5.728 14.596 12.767z"/><path d="M50.481 57.04c2.742 0 4.965-2.222 4.965-4.964s-2.223-4.965-4.965-4.965-4.964 2.223-4.964 4.965 2.222 4.964 4.964 4.964zm34.849 0c2.742 0 4.964-2.222 4.964-4.964s-2.223-4.965-4.964-4.965-4.965 2.223-4.965 4.965 2.223 4.964 4.965 4.964zM64.131 69.652c-4.067 0-7.837-2.092-9.597-5.327l3.019-1.648c1.169 2.157 3.744 3.524 6.569 3.524s5.404-1.385 6.569-3.524l3.019 1.648c-1.742 3.235-5.499 5.327-9.579 5.327zm61.838 47.829c-8.646 4.049-18.392 5.111-27.708 3.019-7.71-1.71-14.789-5.541-20.435-11.063 3.575 1.481 7.409 2.235 11.279 2.217 6.691.001 13.216-2.079 18.671-5.952l-2.769-3.856c-7.466 5.374-17.736 6.668-25.84 3.006-7.996-3.602-12.508-11.309-12.797-21.76v-3.369h-4.745v.595 2.747c-.276 10.464-4.796 18.18-12.801 21.786-8.104 3.653-18.391 2.377-25.84-3.019l-2.765 3.856a32.24 32.24 0 0 0 18.663 5.961 29.08 29.08 0 0 0 11.279-2.217 42.33 42.33 0 0 1-20.431 11.063 43.08 43.08 0 0 1-27.707-3.019L0 121.768a47.65 47.65 0 0 0 20.293 4.516c3.524.001 7.038-.388 10.477-1.16 10.551-2.342 19.977-8.24 26.698-16.704l.03-.039c1.577-2.069 2.962-4.278 4.136-6.599v24.416h4.744v-24.382c1.173 2.31 2.553 4.508 4.123 6.569l.03.039a47.14 47.14 0 0 0 26.694 16.705c3.439.772 6.952 1.161 10.477 1.16 7.016.007 13.946-1.535 20.297-4.516z"/></svg>