<svg xmlns="http://www.w3.org/2000/svg" width="128" height="128" fill="none" class="w-[32px] h-[32px]" xmlns:v="https://vecta.io/nano"><path fill-rule="evenodd" d="M28.285 18.94c.538-.436.32-1.025 0-1.512a149.437 149.437 0 0 0-6.183-13.603 1.563 1.563 0 0 0-2.05-.859c-1.525.743-2.935 1.704-4.191 2.851a15.15 15.15 0 0 0-3.55 3.543c-.378.647-.32 1.346.589 1.993 1.884 1.346 11.297 6.561 13.61 7.58.154 0 .32.051.481.103.352.109.73.231 1.134-.103h.16zm64.8 45.43c-1.397 1.346-2.96 1.935-4.299.647l-.109.269a2.742 2.742 0 0 1 0-4.088 142.446 142.446 0 0 0 23.388-32.262 52.029 52.029 0 0 0 3.716-10.278c.481-2.794-.596-4.46-2.211-4.838a3.383 3.383 0 0 0-3.543 2.691 61.78 61.78 0 0 1-3.012 7.58 99.381 99.381 0 0 1-24.74 32.698 2.787 2.787 0 0 1-4.139 0 2.947 2.947 0 0 1 .589-4.357 88.95 88.95 0 0 0 24.797-34.364c.75-2.634-.327-4.088-1.243-4.088a3.812 3.812 0 0 0-4.517 2.05 66.087 66.087 0 0 1-13.494 20.536A172.908 172.908 0 0 1 55.549 60.98a8.33 8.33 0 0 1-9.144 1.563 7.907 7.907 0 0 1-2.851-8.445l.692-4.126v-.006l3.345-20.498c.801-5.056-1.986-5.703-3.396-5.857-1.39-.167-2.845.641-3.864 3.114a288.846 288.846 0 0 0-9.951 31.141 68.516 68.516 0 0 0-.705 27.854c.641 2.179.641 4.492 0 6.67a68.69 68.69 0 0 1-3.492 7.58l-1.999 3.973-2.947 5.869a4.197 4.197 0 0 1-3.761 2.422 3.973 3.973 0 0 1-1.986-.538 4.306 4.306 0 0 1-1.781-5.382c2.563-5.158 5.453-10.156 8.657-14.949a3.441 3.441 0 0 0 .436-2.307 85.349 85.349 0 0 1 .589-34.53 213.243 213.243 0 0 1 9.355-28.014c3.332-9.035 9.355-10.162 13.341-9.624a9.996 9.996 0 0 1 8.387 12.258c-.333 3.434-1.711 12.514-2.627 18.582l-.814 5.51c-.218 1.557 1.448 1.775 2.582.968a141.709 141.709 0 0 0 25.169-21.51 68.945 68.945 0 0 0 13.065-18.774 10.009 10.009 0 0 1 10.06-6.773 6.247 6.247 0 0 1 4.402 2.05.807.807 0 0 0 1.076 0 9.797 9.797 0 0 1 7.958-1.666 9.631 9.631 0 0 1 6.568 11.559 36.97 36.97 0 0 0-.32 1.455l-.654 2.794a.532.532 0 0 0 .179.596c.064.051.128.083.199.103a8.394 8.394 0 0 1 6.292 10.752 45.891 45.891 0 0 1-5.703 13.232.596.596 0 0 0 .384.807c4.46 1.237 7.042 8.394 2.095 16.724a115.99 115.99 0 0 1-12.962 17.691 102.175 102.175 0 0 1-35.28 24.733 23.983 23.983 0 0 0-10.431 9.201c-1.173 1.73-2.23 3.524-3.172 5.382a4.197 4.197 0 0 1-5.651 2.198 4.299 4.299 0 0 1-1.877-5.754c.218-.538 1.025-1.935 3.55-6.235a31.41 31.41 0 0 1 13.603-10.758c17.749-8.977 26.944-14.84 36.139-25.118a97.395 97.395 0 0 0 12.796-18.005c.487-1.884.218-3.447-1.397-3.768a3.172 3.172 0 0 0-3.274 1.666 132.636 132.636 0 0 1-14.526 16.942c-1.666 1.666-3.441 1.775-4.517.75a2.544 2.544 0 0 1-.641-2.96 2.537 2.537 0 0 1 .641-.859A120.129 120.129 0 0 0 120.618 38.4c1.884-3.55 1.884-6.779 0-7.529a2.903 2.903 0 0 0-3.819 1.877A129.054 129.054 0 0 1 93.084 64.37zM60.547 39.585a3.229 3.229 0 0 1-2.473-1.128 3.607 3.607 0 0 1 .269-4.895 74.219 74.219 0 0 0 14.308-16.935 11.726 11.726 0 0 1 11.777-6.939 3.441 3.441 0 0 1 2.851 3.87 3.39 3.39 0 0 1-3.768 2.96c-2.589-.365-4.376 2.114-5.28 3.351l-.096.141a78.089 78.089 0 0 1-15.545 18.665 3.165 3.165 0 0 1-2.204.859zM3.494 96.753a3.55 3.55 0 0 1-2.691-1.237 3.499 3.499 0 0 1 .429-4.895 98.12 98.12 0 0 1 12.802-8.496 3.55 3.55 0 0 1 4.678 1.557 3.434 3.434 0 0 1-1.563 4.626 99.894 99.894 0 0 0-11.45 7.638 3.492 3.492 0 0 1-2.198.807zm18.71-72.533c.423.141.968.32.968.961.109.686-.416 1.064-.795 1.333h-.019c-1.986 1.41-11.13 6.568-13.123 7.426a1.397 1.397 0 0 1-2.038-.589 15.654 15.654 0 0 1-1.294-4.998 15.538 15.538 0 0 1-.378-5.113c.109-.807.596-1.346 1.724-1.346 2.153.109 12.367 1.666 14.737 2.255l.211.077zm79.588 80.71c-.673 0-.897.602-1.051 1.025l-.019.051a149.424 149.424 0 0 0-3.928 14.52 1.455 1.455 0 0 0 .577 1.602 1.474 1.474 0 0 0 .551.231 17.49 17.49 0 0 0 5.107 0 16.37 16.37 0 0 0 5.062-.807 1.448 1.448 0 0 0 .859-1.986c-.647-2.102-4.735-11.726-5.921-13.879 0-.429-.481-.968-1.237-.916zm5.959-4.075a1.288 1.288 0 0 1 .064-.814l.218-.058c.32-.538.91-.538 1.397-.538 2.422.167 12.751 1.884 14.898 2.48a1.557 1.557 0 0 1 1.288 1.768 19.98 19.98 0 0 1-1.826 4.678 16.147 16.147 0 0 1-2.691 4.197 1.435 1.435 0 0 1-1.666.352 1.448 1.448 0 0 1-.487-.352c-1.935-1.448-9.246-9.086-10.752-11.021a1.294 1.294 0 0 1-.442-.692z" fill="#28646e"/></svg>