<svg xmlns="http://www.w3.org/2000/svg" xmlns:xlink="http://www.w3.org/1999/xlink" width="128" height="128" fill="none" xmlns:v="https://vecta.io/nano"><path d="M63.579 34.595h-.15c-5.762 0-10.434-4.672-10.434-10.434v-.15c0-5.763 4.672-10.434 10.434-10.434h.15c5.762 0 10.434 4.672 10.434 10.434v.15c0 5.763-4.672 10.434-10.434 10.434zm0 41.359h-.15c-5.762 0-10.434-4.672-10.434-10.434v-.15c0-5.763 4.672-10.435 10.434-10.435h.15c5.762 0 10.434 4.672 10.434 10.435v.15c0 5.763-4.672 10.434-10.434 10.434zM32.655 65.369v.15c0 5.763-4.672 10.434-10.434 10.434h-.15c-5.763 0-10.434-4.672-10.434-10.434v-.15c0-5.763 4.672-10.435 10.434-10.435h.15c5.763 0 10.434 4.672 10.434 10.435zm30.772 29.072h.15c5.762 0 10.433 4.671 10.433 10.433v.15c0 5.762-4.671 10.433-10.433 10.433h-.15c-5.762 0-10.433-4.671-10.433-10.433v-.15c0-5.762 4.671-10.433 10.433-10.433zm31.918-28.922v-.15c0-5.763 4.672-10.435 10.434-10.435h.15c5.763 0 10.434 4.672 10.434 10.435v.15c0 5.763-4.672 10.434-10.434 10.434h-.15c-5.763 0-10.434-4.672-10.434-10.434zM35.519 99.498a6.64 6.64 0 0 0 6.64-6.639 6.64 6.64 0 1 0-13.28 0 6.64 6.64 0 0 0 6.64 6.639zm0-59.349a6.64 6.64 0 1 0 0-13.28 6.64 6.64 0 1 0 0 13.28zm55.135 0a6.64 6.64 0 1 0 0-13.28 6.64 6.64 0 1 0 0 13.28zm.014 59.352a6.64 6.64 0 0 0 6.64-6.639 6.64 6.64 0 0 0-6.64-6.64 6.64 6.64 0 0 0-6.639 6.64 6.64 6.64 0 0 0 6.639 6.639z" fill="#fff"/><g filter="url(#A)" transform="matrix(3.878788 0 0 3.878788 0 1.939388)"><path d="M16.392 8.419h-.039a2.69 2.69 0 0 1-2.69-2.69V5.69A2.69 2.69 0 0 1 16.353 3h.039a2.69 2.69 0 0 1 2.69 2.69v.039a2.69 2.69 0 0 1-2.69 2.69z" fill="#fff"/><path d="M16.392 19.082h-.039a2.69 2.69 0 0 1-2.69-2.69v-.039a2.69 2.69 0 0 1 2.69-2.69h.039a2.69 2.69 0 0 1 2.69 2.69v.039a2.69 2.69 0 0 1-2.69 2.69z" fill="#fff"/><path d="M8.419 16.353v.039a2.69 2.69 0 0 1-2.69 2.69H5.69A2.69 2.69 0 0 1 3 16.392v-.039a2.69 2.69 0 0 1 2.69-2.69h.039a2.69 2.69 0 0 1 2.69 2.69z" fill="#fff"/><path d="M16.352 23.848h.039a2.69 2.69 0 0 1 2.69 2.69v.039a2.69 2.69 0 0 1-2.69 2.69h-.039a2.69 2.69 0 0 1-2.69-2.69v-.039a2.69 2.69 0 0 1 2.69-2.69z" fill="#fff"/><path d="M24.581 16.392v-.039a2.69 2.69 0 0 1 2.69-2.69h.039a2.69 2.69 0 0 1 2.69 2.69v.039a2.69 2.69 0 0 1-2.69 2.69h-.039a2.69 2.69 0 0 1-2.69-2.69z" fill="#fff"/><use xlink:href="#B" fill="#fff"/><use xlink:href="#B" y="-15.301" fill="#fff"/><use xlink:href="#B" x="14.215" y="-15.301" fill="#fff"/><use xlink:href="#B" x="14.218" y="0.001" fill="#fff"/></g><defs><filter id="A" x=".581" y=".581" width="31.837" height="31.103" filterUnits="userSpaceOnUse" color-interpolation-filters="sRGB"><feFlood flood-opacity="0"/><feBlend in="SourceGraphic"/><feGaussianBlur stdDeviation="1.209"/></filter><path id="B" d="M9.157 25.152a1.71 1.71 0 1 0 0-3.424 1.71 1.71 0 1 0 0 3.424z"/></defs></svg>