<svg xmlns="http://www.w3.org/2000/svg" width="128" height="128" viewBox="0 0 33.867 33.867" xmlns:v="https://vecta.io/nano"><circle cx="16.933" cy="16.933" r="16.933" fill="#fff" paint-order="stroke fill markers"/><path d="M31.206 15.228a14.44 14.44 0 0 1 .102 1.714 14.22 14.22 0 0 1-3.185 8.927 14.39 14.39 0 0 1-8.109 4.983 14.465 14.465 0 0 1-9.465-1.154c-2.931-1.443-5.279-3.835-6.655-6.782l2.298-1.117c1.115 2.436 3.037 4.42 5.444 5.621a11.88 11.88 0 0 0 7.791.983c2.634-.565 4.993-2.009 6.687-4.09a11.67 11.67 0 0 0 2.621-7.352v-.364l2.472-1.368zM16.933 2.683a14.445 14.445 0 0 1 8.059 2.447c2.38 1.597 4.224 3.866 5.293 6.513l-2.46.782a11.75 11.75 0 0 0-5.352-5.839 11.873 11.873 0 0 0-7.868-1.142 11.815 11.815 0 0 0-6.811 4.074 11.67 11.67 0 0 0-2.663 7.441v.239l-2.406 1.953a13.938 13.938 0 0 1-.168-2.193 14.23 14.23 0 0 1 4.21-10.095c2.695-2.677 6.352-4.181 10.165-4.181zm-15.875 20l13.937-11.5-.578 4.778 8.134-4.652-.412 4.543 10.669-3.424-14.468 8.04 1.079-4.573-8.361 4.94.555-3.508z" fill="#0b1636"/></svg>