<svg xmlns="http://www.w3.org/2000/svg" width="128" height="128" viewBox="0 0 33.867 33.867" xmlns:v="https://vecta.io/nano"><circle cx="16.933" cy="16.933" r="16.933" fill="#fff"/><path d="M33.863 16.589C33.673 7.156 25.806-.317 16.344.01 7.108.326-.198 8.061.004 17.303c.149 6.83 4.317 12.624 10.201 15.179.834-1.06 1.53-2.965 1.876-4.031.345-.869.715-1.715 1.096-2.537 1.721.601 4.025.03 5.288-1.34l.048-.054h-.006c-1.53-.667-3.638-.322-5.026.756a45.57 45.57 0 0 1 1.501-2.84c1.691.679 4.019.214 5.341-1.096l.054-.054h-.006c-1.477-.726-3.555-.5-4.99.47.524-.869 1.066-1.709 1.638-2.507 1.751.542 4.055-.125 5.264-1.566l.048-.06h-.006c-1.429-.548-3.299-.226-4.633.703l.143-.191c.339-.447.691-.875 1.042-1.298 2.066-.59 3.912-2.692 4.204-4.871l.012-.089h-.006c-2.138.429-4.121 2.531-4.514 4.758-.339.405-.673.816-1 1.245.536-1.453.441-3.21-.339-4.424l-.006-.006-.048.06c-1.179 1.489-1.364 3.912-.453 5.52a40.7 40.7 0 0 0-1.554 2.37c.316-1.644-.214-3.555-1.37-4.633l-.006-.006-.03.066c-.762 1.715-.351 4.085.905 5.419-.494.863-.971 1.757-1.423 2.68.274-1.709-.339-3.692-1.566-4.764l-.006-.006-.03.071c-.697 1.804-.161 4.24 1.191 5.544-.292.631-.578 1.28-.852 1.935-.066-.066-.149-.119-.25-.149a5.86 5.86 0 0 1-1.376-.607 5.32 5.32 0 0 0-1.125-.512c-1.524-.5-1.304-1.239-2.102-2.709-.054-.095-.685-.756-.816-.875-.036-.03-.435-.262-.643-.697-.185-.393-.292-.762-.333-1.119-.054-.482-.25-.798-.721-.959-2.245-.78-1.245-3.692-1.161-4.085.066-.333-.22-1.054-.328-1.447-.012-.048-.024-.107-.036-.179a1.98 1.98 0 0 1 .47-1.715c.268-.274 1.203-.709 1.399-.965.191-.25.345-.536.542-.78.262-.328 1.066-.965 2.144-1.542.655-.351.768-1.262 1.018-1.548.429-.482 1.072-.482 1.554-.911.244-.22.595-.328.816-.56 1.114-1.143 2.608-1.602 4.085-1.882.994-.185 2.102.101 3.144.28.155.024.298.066.441.101 2.334.077 5.145.566 6.157 1.554a4.41 4.41 0 0 1 1.096 1.757 6.79 6.79 0 0 0 .685 1.477l.625 1.018a2.9 2.9 0 0 1 .357 2.15c-.095.417-.149.857-.024 1.102.197.381.792 1 1.155 1.358a3.24 3.24 0 0 0 .572.453c.482.304 1.393.887 1.393.935 0 .066.077.357-.328.709s-1.161.905-1.161.905.042.256.149.459.369.506.292.78-.637.494-.482.798c.161.304.554.399.441.673s-.667.75-.613.953.506 2.09-.53 2.424c-.78.25-2.924.387-3.936.441-.435.024-.828.268-1.036.649-.155.286-.31.679-.387 1.209-.197 1.34-1.518 4.407-1.518 4.407s-.042.077-.101.208c-.113.28-.28.715-.256.887.018.113.173.339.399.607a.69.69 0 0 0 .744.208c6.8-2.316 11.618-8.819 11.463-16.376z" fill="#00dacc"/></svg>