<svg xmlns="http://www.w3.org/2000/svg" width="128" height="128" viewBox="0 0 33.867 33.867" xmlns:v="https://vecta.io/nano"><defs><linearGradient id="A" x1="16.933" y1="4.618" x2="16.933" y2="29.248" gradientUnits="userSpaceOnUse"><stop stop-color="#19c0fc"/><stop offset="1" stop-color="#386be8"/></linearGradient></defs><path fill-rule="evenodd" d="M27.7 7.095l5.489-2.41c.248-.108.534.012.639.267a.51.51 0 0 1 .038.195v23.599c0 .277-.218.502-.488.502-.074 0-.147-.017-.213-.051l-5.503-2.805a.88.88 0 0 1-.48-.79V8.139c0-.353.202-.906.518-1.043zM6.684 8.137v17.321c0 .497-.226.881-.594 1.059L.7 29.198c-.066.033-.139.051-.213.051-.269 0-.487-.27-.487-.607V5.262c0-.513.346-.724.593-.616L6.09 7.13c.389.17.594.482.594 1.007zm10.631 1.818l5.369 3.205c.263.157.488.44.488.795v6.449c0 .313-.153.602-.416.759L17.393 24.4a.83.83 0 0 1-.858 0l-5.416-3.237a.88.88 0 0 1-.424-.759v-6.448a.95.95 0 0 1 .429-.796l5.391-3.205a.73.73 0 0 1 .8 0z" fill="url(#A)"/></svg>