<svg xmlns="http://www.w3.org/2000/svg" width="128" height="128" viewBox="0 0 33.867 33.867" xmlns:v="https://vecta.io/nano"><path d="M20.097 2.709C14.365 2.711 9.72 7.36 9.721 13.092h0v.022.017a.51.51 0 0 0 .511.482h19.73a.51.51 0 0 0 .511-.482v-.017-.022h0c.001-5.732-4.644-10.38-10.377-10.382z" fill="#53cbc8"/><path d="M2.851 24.684a.632.632 0 1 1-1.263-.001.63.63 0 0 1 1.078-.446.63.63 0 0 1 .185.447zm26.425-3.496H8.105a.62.62 0 0 0-.534.304c-.112.188-.117.422-.013.614l.01.02a.62.62 0 0 0 .547.326h21.15a.62.62 0 0 0 .547-.326l.01-.02a.62.62 0 0 0-.547-.918zm2.813-5.728H8.105a.62.62 0 0 0-.452.196c-.118.125-.178.292-.169.463.02.349.292.606.622.606h23.983a.62.62 0 0 0 .621-.586c.011-.191-.051-.358-.168-.483a.62.62 0 0 0-.453-.195zm-9.031 14.32H12.249a.62.62 0 0 0-.606.48.62.62 0 0 0 .328.699l.04.02a.62.62 0 0 0 .277.065h10.73a.62.62 0 0 0 .277-.065l.039-.02a.62.62 0 0 0 .328-.699.62.62 0 0 0-.605-.48zm6.604-2.864H18.853c-.288.001-.539.199-.605.48a.62.62 0 0 0 .328.699l.039.02a.62.62 0 0 0 .277.065h10.729a.62.62 0 0 0 .277-.065l.039-.02a.62.62 0 0 0 .328-.699.62.62 0 0 0-.604-.48zm-14.739-1.8l-.018-.02a.62.62 0 0 1 .456-1.045h17.543a.62.62 0 0 1 .456 1.045l-.018.02a.63.63 0 0 1-.456.199H15.379a.62.62 0 0 1-.456-.199zM4.475 24.052h8.377c.288.001.539.199.605.48a.62.62 0 0 1-.328.699l-.039.02a.62.62 0 0 1-.277.065H4.515a.62.62 0 0 1-.277-.065l-.039-.02c-.258-.129-.393-.418-.328-.699a.62.62 0 0 1 .604-.48zm2.006-7.96a.632.632 0 1 1-1.263 0 .63.63 0 1 1 1.263.001zm14.886 3.034l.005-.02a.62.62 0 0 0-.601-.783H3.226a.62.62 0 0 0-.601.783l.005.02a.62.62 0 0 0 .601.461h17.535c.281-.001.528-.19.601-.461m-19.766-.17a.632.632 0 0 1-1.263 0 .632.632 0 1 1 1.263 0zm4.88 2.864a.632.632 0 1 1-1.263 0 .632.632 0 1 1 1.263 0zm10.748 5.728a.632.632 0 1 1-1.263 0 .63.63 0 1 1 1.263.001zm-6.604 2.863a.632.632 0 0 1-1.263 0 .63.63 0 1 1 1.263.001z" fill="#e1147b"/></svg>