<svg xmlns="http://www.w3.org/2000/svg" width="128" height="128" viewBox="0 0 33.867 33.867" xmlns:v="https://vecta.io/nano"><path d="M16.629.677a12.17 12.17 0 0 0-12.17 12.17c0 .769.073 1.536.216 2.291l1.572-1.077c2.764-1.896 7.247-1.896 10.011 0l1.65 1.13.894.615c2.491 1.707 6.527 1.707 9.016 0l.734-.502A12.18 12.18 0 0 0 16.633.682z" fill="#f2b705"/><path d="M23.468 20.157c-1.834 0-3.587-.498-4.907-1.402l-2.542-1.742c-1.217-.837-2.851-1.297-4.597-1.297s-3.381.457-4.597 1.297l-1.643 1.125c-.21.146-.483.168-.714.058s-.386-.336-.405-.591.1-.502.312-.645l1.643-1.125c1.453-.997 3.371-1.545 5.404-1.545s3.951.548 5.404 1.545l2.542 1.742c2.516 1.54 5.684 1.54 8.2 0l.965-.66a.71.71 0 0 1 .717-.062c.233.111.388.337.407.594a.71.71 0 0 1-.318.646l-.965.66c-1.326.908-3.072 1.403-4.906 1.403zm-12.099 5.111v-6.876c-.005-.145.001-.289.018-.433.044-.392.376-.688.77-.687a.75.75 0 0 1 .727.687 4.15 4.15 0 0 1 .025.72v13.709c-.041.508-.359.843-.788.834s-.738-.357-.74-.873V27.78zm-1.446-3.461v3.417c0 .585-.312.972-.754.958s-.777-.408-.779-.965v-6.831c0-.598.348-1.002.802-.979s.724.385.727.983l.004 3.417zm4.439-.004v-2.402c0-.557.295-.917.736-.917s.779.371.784.896q.025 2.452 0 4.903c0 .557-.328.891-.779.887s-.74-.347-.745-.917V21.8zm-8.952.499V19.9c0-.557.296-.916.736-.916s.779.371.784.896q.023 2.452 0 4.903c0 .557-.33.891-.779.887s-.74-.347-.745-.917V22.3zm12.683-2.044h.002c.416 0 .754.338.754.754v1.306c0 .416-.338.754-.754.754h-.002c-.416 0-.754-.338-.754-.754v-1.306c0-.417.338-.754.754-.754zm2.989 1.144h.002c.416 0 .754.338.754.754v7.327a.75.75 0 0 1-.221.533c-.142.141-.333.221-.533.221h-.002a.75.75 0 0 1-.533-.221c-.141-.142-.221-.333-.221-.533v-7.327c0-.416.337-.754.754-.754zm2.968.284h.002c.416 0 .754.338.754.754v6.227c0 .2-.08.392-.221.533s-.333.221-.533.221h-.002a.75.75 0 0 1-.533-.221c-.141-.142-.221-.333-.221-.533V22.44a.75.75 0 0 1 .221-.533c.142-.141.333-.221.533-.221zm3.009-.711h.002c.416 0 .754.338.754.754v2.686c0 .416-.338.754-.754.754h-.002a.75.75 0 0 1-.533-.221c-.141-.142-.221-.333-.221-.533V21.73a.75.75 0 0 1 .221-.533c.142-.141.333-.221.533-.221z" fill="#53cbc8"/></svg>