<svg xmlns="http://www.w3.org/2000/svg" width="128" height="128" xmlns:v="https://vecta.io/nano"><circle cx="64" cy="64" r="63.015" fill="#2d3fbd" stroke="#2739a5" stroke-width="1.969"/><path d="M28.148 67.166c4.182-2.543 9.189-4.443 16.105-6.113l.831-.201.013-2.447.013-2.447.472-1.202c1.738-4.424 5.619-5.635 8.429-2.63 1.459 1.559 2.139 3.252 2.502 6.222l.114.935 7.32-.043 7.32-.043.133-1.442c.213-2.31.891-4.008 2.162-5.415l.718-.795-.883-.581c-1.472-.968-3.896-3.436-4.955-5.046-2.178-3.308-2.88-5.396-3.037-9.028l-.114-2.651.365-1.503c.361-1.484 1.088-3.187 1.972-4.617l.454-.734-.277-.087c-.152-.048-1.098-.185-2.102-.305l-1.826-.218-2.434.304c-6.934.864-13.205 3.405-18.643 7.552-1.721 1.312-5.316 4.821-6.735 6.574-5.398 6.665-8.921 14.959-10.108 23.794-.161 1.2-.295 2.544-.297 2.987l-.004.805.468-.337c.257-.186 1.169-.764 2.026-1.285zm74.024.688c-.432-5.55-2.043-11.858-4.239-16.599l-.831-1.793-.947.92c-1.722 1.673-3.689 2.816-6.159 3.578-1.97.607-4.912.919-6.524.691l-1.302-.184.098.33c.429 1.446.554 2.494.496 4.141l-.068 1.909.312.088c.171.048 1.305.323 2.52.61 5.056 1.196 10.815 3.522 14.416 5.823 1.143.73 2.127 1.337 2.187 1.349s.078-.377.041-.862zM19.304 45.993c2.469-.925 6.777-2.024 10.341-2.638l2.678-.462.925-1.296c.509-.713 1.761-2.229 2.783-3.368s1.802-2.129 1.733-2.198-1.033-.126-2.143-.126c-5.804 0-11.926 3.217-18.175 9.552l-2.078 2.107.963-.409a99.97 99.97 0 0 1 2.972-1.161zm91.959.375c-5.805-5.998-10.537-9.031-15.852-10.162-1.423-.303-4.604-.41-5.215-.176l-.327.125 1.579 1.693c.868.931 2.15 2.455 2.847 3.386l1.268 1.693 1.567.245c4.686.733 12.053 2.759 14.254 3.919.451.238.864.437.917.442s-.414-.519-1.039-1.164z" fill="#b886a9"/><path d="M68.982 99.387c11.72-1.244 21.125-4.624 28.749-10.333 2.488-1.863 6.172-5.458 7.825-7.637.686-.904 1.308-1.648 1.382-1.655s.23.339.346.768l.211.779-.115-1.247c-.683-7.425-10.441-14.171-24.905-17.219-10.971-2.312-24.789-2.396-36.064-.219-9.966 1.924-17.757 5.514-22.279 10.267l-1.799 1.89-.823 1.705c-3.116 5.492 4.537 10.188 11.849 14.839 9.584 5.992 24.121 9.282 35.622 8.061zm-8.309-2.303c-2.808-.629-6.043-2.527-7.648-4.486-1.624-1.981-2.69-5.312-2.236-6.985.506-1.864 3.086-3.332 6.977-3.968 7.506-1.227 15.83-.101 18.339 2.482.973 1.002 1.193 1.904.89 3.652-.374 2.157-1.309 3.888-3.015 5.583-1.576 1.566-3.156 2.517-5.569 3.352l-1.506.521-2.39.087c-1.692.062-2.813-.008-3.841-.238zM45.188 76.829c-.758-.321-1.455-1.039-1.455-1.499 0-.595 1.254-1.738 2.192-1.998 1.749-.485 3.488-.121 4.136.867l.333.509-.202.532c-.46 1.211-3.566 2.197-5.004 1.589zm34.445-.075c-1.578-.563-2.197-1.282-1.994-2.315.198-1.009 2.341-1.609 4.075-1.142 1.136.306 2.334 1.342 2.334 2.018 0 1.381-2.393 2.161-4.414 1.439zm-52.317-9.053c3.578-2.367 8.951-4.614 14.234-5.951l2.806-.712.727-.186.013-2.447.013-2.447.472-1.202c.951-2.422 2.725-4.079 4.554-4.255 1.355-.13 2.288.202 3.453 1.227 1.639 1.443 2.559 3.41 2.787 5.96l.136 1.523 7.429.035 7.429.035v-.873c0-2.074.817-4.402 2.064-5.886l.791-.94-1.681-1.346c-2.303-1.843-4.083-4.028-5.328-6.541-1.323-2.669-1.683-4.035-1.815-6.889-.158-3.412.689-6.556 2.355-8.743l.51-.67-.474-.107c-2.785-.631-5.905-.497-10.113.436-5.679 1.259-10.634 3.606-15.298 7.244-1.768 1.38-5.078 4.655-6.616 6.546-2.76 3.395-6.004 9.355-7.582 13.93-1.657 4.802-3.192 13.705-2.271 13.164a59.07 59.07 0 0 0 1.403-.908zm74.886.465c-.766-7.325-2.054-12.301-4.549-17.565l-.569-1.201-1.168 1.107c-3.019 2.862-6.764 4.193-11.426 4.061l-2.31-.065.092.312c.423 1.425.549 2.483.491 4.127l-.068 1.912.831.2c7.332 1.768 12.92 3.956 16.936 6.632.857.571 1.612 1.041 1.678 1.045s.093-.251.06-.565zM13.328 54.311c2.362-.494 8.325-1.148 11.048-1.211l2.566-.06.499-1.226c.274-.674.499-1.295.499-1.38s-.444-.373-.987-.64l-.987-.486-2.078.014c-2.314.016-3.641.254-6.546 1.174-2.172.688-5.736 2.121-6.167 2.479-.37.307-.346.907.052 1.305s.352.396 2.102.03zm103.218.026c.239-.175.345-.473.299-.845l-.07-.575-1.455-.615c-4.866-2.058-8.24-2.944-11.325-2.973l-2.182-.021-.987.486c-.543.267-.987.565-.987.662s.246.743.547 1.436l.547 1.261h2.476c2.654 0 6.881.426 10.249 1.033 2.645.477 2.456.467 2.887.152zm-93.65-9.483c2.312-.628 6.521-1.515 8.414-1.774l.981-.134.462-.663c.739-1.061 2.842-3.618 4.043-4.916.609-.657 1.047-1.255.973-1.329-.353-.353-4.234-.116-6.173.375-5.022 1.274-9.339 4.104-14.865 9.748l-1.337 1.365 2.584-1.019c1.421-.561 3.634-1.304 4.918-1.653zm72.514-8.648c-1.41-.3-5.151-.419-5.398-.172-.071.071.61.936 1.513 1.922s2.16 2.483 2.791 3.328l1.206 1.591c.032.03 1.226.253 2.655.495 22.877 10.998 9.417-4.378-2.767-7.164zm-55.34-3.837c1.106-2.304 2.781-3.809 5.225-4.696l1.37-.497.456.234c.879.452.02-.179-2.142-1.572-2.534-1.634-3.962-2.683-5.757-4.232-2.006-1.731-2.342-1.365-2.343 2.558-.001 2.204.273 4.064.854 5.805.526 1.577 1.443 3.651 1.612 3.647.07-.001.396-.563.725-1.247zm49.174-.242c1.123-2.437 1.495-4.114 1.604-7.236.106-3.032-.07-4.219-.642-4.329-.207-.04-.907.409-1.649 1.057-1.716 1.499-4.273 3.374-6.127 4.492-.83.5-1.544.968-1.588 1.039s.215.151.575.177 1.317.373 2.125.773a9.14 9.14 0 0 1 4.154 4.209c.336.709.667 1.293.736 1.299s.435-.661.813-1.482z" fill="#a4a2ad"/><path d="M25.546 68.276c.001-.296.078-1.228.171-2.07 1.036-9.326 4.645-18.065 10.348-25.06 1.16-1.423 4.115-4.407 5.475-5.529 5.226-4.311 10.795-6.965 17.231-8.21 2.278-.441 4.149-.604 5.854-.511 5.649.309 11.437 2.1 16.479 5.098 2.897 1.723 5.301 3.618 7.913 6.239 6.495 6.519 10.74 14.774 12.471 24.253.415 2.27.758 4.995.719 5.701l-.034.615-1.702-1.03c-4.356-2.637-9.57-4.744-15.526-6.272-1.302-.334-2.421-.662-2.488-.728-.086-.086-.082-.46.014-1.286.296-2.561.119-3.789-.827-5.72-.778-1.588-1.551-2.468-2.581-2.941-.624-.286-.846-.327-1.79-.329-.982-.002-1.147.03-1.852.365-.957.453-2.026 1.491-2.602 2.526-.767 1.379-1.445 3.967-1.445 5.52v.602l-.539-.083c-.682-.105-13.045-.11-13.822-.005l-.578.078-.012-.872c-.022-1.571-.657-3.761-1.507-5.196-.539-.911-1.617-1.961-2.43-2.368-.632-.316-.768-.34-1.928-.34-1.204 0-1.273.013-1.96.386-1.04.564-1.991 1.632-2.582 2.899-.828 1.777-1.013 3.23-.671 5.281.182 1.09.188 1.272.045 1.415-.09.09-1.057.398-2.149.685-7.09 1.861-11.559 3.65-15.881 6.357l-1.763 1.071c-.029 0-.053-.242-.052-.539zm34.088 38.923c-6.887-.539-11.621-1.444-17.129-3.272-3.812-1.266-7.222-2.802-10.361-4.668-1.951-1.16-2.819-1.833-4.63-3.592-2.68-2.602-3.947-4.286-5.36-7.124-1.273-2.558-1.746-4.339-1.758-6.626-.006-1.05.052-1.736.2-2.382.989-4.31 4.433-7.965 10.761-11.42 3.813-2.082 10.039-4.503 13.487-5.245 15.663-3.369 34.577-2.276 47.348 2.735 8.636 3.389 14.058 8.822 14.909 14.943.534 3.84-1.013 8.247-4.351 12.392-.93 1.154-2.983 3.25-4.275 4.363-3.032 2.612-8.134 5.237-13.293 6.839-4.454 1.383-8.66 2.199-14.713 2.854-1.566.169-9.391.316-10.833.204zm7.499-10.235c2.631-.558 5.298-2.045 7.091-3.955 1.817-1.934 2.716-3.993 2.74-6.272.012-1.165-.123-1.638-.673-2.36-.886-1.162-3.591-2.212-7.128-2.769-1.389-.219-2.035-.25-5.161-.25-3.14 0-3.77.031-5.195.254-3.269.511-5.686 1.351-6.833 2.374a4.88 4.88 0 0 0-.85 1.066c-.308.556-.335.694-.32 1.628.027 1.724.816 3.87 2.001 5.445 1.975 2.623 5.405 4.547 8.986 5.04 1.208.166 4.13.056 5.344-.202zM48.072 76.769c.586-.114 1.614-.796 1.948-1.293.275-.409.33-.978.132-1.348-.302-.565-2.177-.99-3.475-.789-.948.148-2.096.702-2.471 1.193-.428.561-.392 1.167.099 1.642.211.204.581.442.822.528.482.172 2.202.211 2.945.067zm34.531-.08c1.147-.341 1.561-1.162 1.023-2.032-.885-1.431-4.206-1.9-5.456-.771-.396.358-.443.456-.443.939 0 .682.258 1.024 1.074 1.423 1.27.621 2.654.782 3.802.441z" fill="#f2f2f2"/><path d="M59.634 107.822c-6.887-.539-11.621-1.444-17.129-3.272-3.812-1.266-7.222-2.802-10.361-4.668-1.951-1.16-2.819-1.833-4.63-3.592-2.68-2.602-3.947-4.286-5.36-7.124-1.273-2.558-1.746-4.339-1.758-6.626-.006-1.05.052-1.736.2-2.382.989-4.31 4.433-7.965 10.761-11.42 3.813-2.082 10.039-4.503 13.487-5.245 15.663-3.369 34.577-2.276 47.348 2.735 8.636 3.389 14.058 8.822 14.909 14.943.534 3.84-1.013 8.247-4.351 12.392-.93 1.154-2.983 3.25-4.275 4.363-3.032 2.612-8.134 5.237-13.293 6.839-4.454 1.383-8.66 2.199-14.713 2.854-1.566.169-9.391.316-10.833.204zm7.499-10.916c2.631-.558 5.298-2.045 7.091-3.955 1.817-1.934 2.716-3.993 2.74-6.272.012-1.165-.123-1.638-.673-2.36-.886-1.162-3.591-2.212-7.128-2.769-1.389-.219-2.035-.25-5.161-.25-3.14 0-3.77.031-5.195.254-3.269.511-5.686 1.351-6.833 2.374a4.88 4.88 0 0 0-.85 1.066c-.308.556-.335.694-.32 1.628.027 1.724.816 3.87 2.001 5.445 1.975 2.623 5.405 4.547 8.986 5.04 1.208.166 4.13.056 5.344-.202zM48.072 76.712c.586-.114 1.614-.796 1.948-1.293.275-.409.33-.978.132-1.348-.302-.565-2.177-.99-3.475-.789-.948.148-2.096.702-2.471 1.193-.428.561-.392 1.167.099 1.642.211.204.581.442.822.528.482.172 2.202.211 2.945.067zm34.531-.08c1.147-.341 1.561-1.162 1.023-2.032-.885-1.431-4.206-1.9-5.456-.771-.396.358-.443.456-.443.939 0 .682.258 1.024 1.074 1.423 1.27.621 2.654.782 3.802.441z" fill="#ffafc0"/><path d="M111.461 47.259c-2.797-1.323-8.806-3.046-13.245-3.798-.922-.156-1.874-.284-2.115-.284h-.44l-2.792-3.471-2.847-3.613c-.135-.351 3.816-.267 5.742.122 2.701.545 7.502 3.065 10.607 5.566 1.648 1.328 6.182 5.617 6.182 5.848 0 .134-.103.099-1.092-.369zm-96.012.26c0-.128 3.748-3.824 5.105-5.034 3.33-2.97 7.534-5.297 11.287-6.248.721-.183 1.397-.241 3.29-.281 1.406-.03 2.447-.007 2.54.056.19.129-.161.605-2.47 3.348-.858 1.02-1.863 2.265-2.233 2.768-.632.859-.704.919-1.184.988a67.08 67.08 0 0 0-14.18 3.664l-1.957.757c-.109.048-.199.039-.199-.02z" fill="#f2f2f2"/><path d="M73.955 58.923c-.407-.179-.846-.845-.985-1.498-.089-.42-.078-1.382.022-1.853.155-.732.577-1.434.988-1.644.295-.151.477-.155.739-.016.948.501 1.33 2.817.685 4.149-.15.31-.529.747-.744.858-.197.102-.479.104-.705.004zm-20.859-.039c-.936-.494-1.261-3.004-.577-4.45.395-.835 1.382-.752 1.916.161.508.869.614 2.564.214 3.418-.394.842-.982 1.172-1.553.87zm8.75 36.473c-2.177-.305-4.721-1.504-6.334-2.987l-.97-.813c-.345-.226-.397-.674-.098-.834.109-.059.635-.432 1.169-.831 1.65-1.231 3.345-1.99 5.439-2.437 1.353-.288 4.33-.285 5.672.007 1.296.281 2.714.787 3.73 1.33 1.194.638 3.19 2.127 3.19 2.379 0 .113-.191.346-.425.518l-1.016.805c-1.489 1.24-3.649 2.314-5.422 2.696-.966.208-3.922.308-4.935.166z" fill="#828bac"/><path d="M59.634 107.199c-6.887-.539-11.621-1.444-17.129-3.272-3.812-1.266-7.222-2.802-10.361-4.668-1.951-1.16-2.819-1.833-4.63-3.592-2.68-2.602-3.947-4.286-5.36-7.124-1.119-2.248-1.634-4.002-1.783-6.071-.061-.844-.038-1.129.127-1.56.174-.455.245-.527.523-.527.272 0 .471.186 1.3 1.219a57.19 57.19 0 0 0 1.834 2.163c1.73 1.907 5.112 4.829 7.583 6.552 6.319 4.406 15.618 7.711 25.005 8.889 6.884.864 13.417.494 20.93-1.185 7.306-1.632 13.789-4.421 19.105-8.217 3.193-2.28 6.722-5.643 9.024-8.6.524-.674.698-.822.959-.822.293 0 .324.042.391.526.289 2.108-.289 4.952-1.528 7.528-1.449 3.01-3.942 6.101-7.148 8.863-3.032 2.612-8.134 5.237-13.293 6.839-4.454 1.383-8.66 2.199-14.713 2.854-1.566.169-9.391.316-10.833.204z" fill="#b886a9"/><g stroke-miterlimit="3.2"><path d="M39.541 34.163c-.155-.403.749-2.282 1.694-3.521 1.072-1.407 2.48-2.354 4.57-3.075l.907-.313.804.52c.893.578 1.047.747.817.895-.13.084-.13.117-.005.198.119.077.107.115-.056.177-.43.165-3.879 2.172-4.851 2.823l-2.185 1.569c-1.152.876-1.568 1.054-1.694.726z" fill="#b89e79" stroke="#b89e79" stroke-width="1.565"/><path d="M38.72 32.429a18.16 18.16 0 0 1-1.371-3.97c-.506-2.481-.541-7.1-.059-7.634.111-.122.288-.222.395-.222.26 0 .889.438 1.921 1.338 1.157 1.009 3.007 2.373 5.025 3.705s2.078 1.452.908 1.864c-1.09.383-2.362 1.062-3.116 1.663-.787.628-1.821 1.977-2.358 3.079-.346.709-.437.816-.707.822s-.356-.085-.638-.645zm49.273.236c-.266-.636-1.336-2.182-1.958-2.829-.901-.937-2.742-2.065-3.969-2.432-.414-.124-.482-.188-.482-.454 0-.276.168-.411 1.552-1.251l1.9-1.238.972-.745 2.019-1.61c1.595-1.328 1.737-1.418 2.155-1.369.424.049.552.382.71 1.85.317 2.934-.325 6.594-1.656 9.444-.431.922-.525 1.049-.78 1.049-.227 0-.328-.091-.464-.416z" fill="#fed576" stroke="#fed576" stroke-width=".645"/><path d="M86.687 33.603c-.467-.274-1.79-1.148-2.942-1.941l-4.195-2.666c-.04 0-.084-.155-.099-.344-.021-.281.038-.38.327-.539l.863-.524.509-.329.642.202c1.57.493 3.584 1.751 4.419 2.762 1.023 1.237 1.843 2.681 1.992 3.509.064.354.052.369-.301.369-.231 0-.685-.186-1.217-.499z" fill="#b89e79" stroke="#b89e79" stroke-width="1.565"/></g><path d="M114.482 51.897c-2.953-1.232-5.879-2.112-8.056-2.421-.654-.093-2.006-.169-3.004-.169h-1.815l-.83.452c-.456.249-.916.451-1.021.45-.239-.003-2.411-4.324-2.406-4.788.003-.356-.197-.365 2.215.099 2.838.545 6.989 1.722 10.598 3.006 2.323.826 5.32 2.358 5.82 2.975a1.04 1.04 0 0 1 .199.554c.002.268-.042.311-.309.303-.172-.005-.797-.212-1.39-.459zm-102.55.014c0-.289.114-.425.755-.895 2.429-1.783 6.983-3.546 12.517-4.845 2.024-.475 4.807-.978 5.148-.931.241.033.195.162-.883 2.502-.942 2.044-1.177 2.467-1.37 2.467-.128 0-.615-.203-1.082-.451l-.849-.451-1.985-.002c-1.245-.002-2.387.062-3.063.17-1.819.292-4.282 1.047-7.239 2.218-1.689.669-1.95.698-1.95.217z" fill="#b784a4"/><path d="M81.501 53.46c-.679-1.314-1.505-2.207-2.437-2.635-.625-.287-.845-.327-1.796-.329-1.026-.002-1.13.021-1.944.423-.473.234-.958.425-1.078.425-.314 0-2.657-1.948-3.762-3.128-1.573-1.68-2.648-3.31-3.675-5.568-.975-2.145-1.333-3.918-1.333-6.589 0-3.145.646-5.425 2.186-7.716l.707-1.052.454.073c1.816.29 5.249 1.309 7.42 2.201 4.775 1.963 8.843 4.723 12.775 8.669 2.069 2.076 3.793 4.171 5.326 6.475 1.105 1.66 2.668 4.329 2.668 4.556 0 .149-1.456 1.521-2.337 2.201-.922.712-2.376 1.544-3.376 1.93-2.209.854-4.256 1.164-7.313 1.107l-1.965-.036z" fill="#a5a3ae"/><path d="M11.377 54.471c-.342-.231-.636-.662-.635-.932.001-.241.306-.93.57-1.287.201-.271.499-.326.618-.113s.642.103 1.98-.412l5.349-1.799c1.758-.45 2.2-.502 4.598-.545l2.246-.04.914.45c.503.247 1.003.45 1.112.45.125 0 .183.037.158.1-.217.559-1.3 2.787-1.354 2.787a1952.26 1952.26 0 0 0-7.406.762l-7.607.762a1.16 1.16 0 0 1-.543-.182zm102.88-.063c-3.52-.601-7.353-1.022-11.263-1.236l-2.215-.142c-.009-.011-.256-.56-.549-1.22-.54-1.216-.633-1.569-.412-1.569.066 0 .509-.203.983-.451l.862-.451 2.126.043c1.658.033 2.337.08 3.088.212 1.936.341 4.103.987 6.738 2.011 2.06.8 2.146.826 2.525.762.307-.052.319-.045.445.254.212.503.376 1.232.324 1.441-.027.107-.165.266-.307.353-.333.203-1.125.201-2.344-.007z" stroke-miterlimit="3.2" fill="#ffaebf" stroke="#ffaebf" stroke-width=".401"/><path d="M21.348 91.077c-1.326-2.092-2.261-4.935-2.665-6.936-.915-4.541.396-8.704 3.9-12.387l1.189-1.25.008-1.455c.016-3.15.947-8.261 1.894-11.764l.604-2.234-14.614 1.408c-2.432.234-2.901-3.411-1.984-4.669 6.039-8.283 16.531-16.935 25.859-17.756l1.753-.114-.286-.675c-.522-1.235-1.55-4.383-1.797-6.084-.307-2.113-.188-6.095.204-6.841.527-1.003 1.479-1.662 2.399-1.662 4.453 1.672 10.708 10.317 15.299 8.435.883-.369 4.194-1.236 6.104-1.599 3.092-.588 8.6-.388 11.949.586l3.86 1.123c.266.077 1.607.238 1.865.003.109-.099.712-.459 1.34-.801 2.11-1.146 3.334-1.868 4.488-2.648.835-.564 3.697-2.672 3.824-2.817.587-.67 2.663-2.088 3.205-2.19.747-.14 1.632.206 2.238.876.884.977 1.076 5.516.373 8.813-.414 1.94-1.546 4.535-1.697 4.892l-.171.405v.299h1.714c3.51 0 7.596 1.286 11.549 3.633 1.976 1.174 5.04 3.668 7.424 6.029 3.211 3.179 6.288 5.115 7.305 8.582 1.244 4.24-1.87 4.363-4.691 3.807a94.15 94.15 0 0 0-3.871-.64c-2.45-.321-8.394-.762-8.353-.556l.288 1.435c.682 3.397 1.536 6.987 2.147 11.645l.358 2.728 1.299 1.54c5.724 6.889 4.137 14.84-1.036 21.545-1.563 1.989-4.65 4.574-6.835 6.297-6.474 5.103-21.567 9.262-33.377 9.262-16.105 0-35.035-5.609-43.062-18.266zm47.674 16.097c12.265-.995 21.759-4.003 28.614-9.066 14.028-11.512 12.217-23.812-2.123-31.127-12.837-6.405-35.563-8.009-52.676-3.718-18.81 6.246-28.365 14.785-18.775 28.702 1.223 1.735 4.324 4.854 6.163 6.199 11.343 7.468 26.027 9.952 38.796 9.01 13.24-.977 0 0 0 0zm-8.353-10.26c-4.776-1.087-8.383-4.202-9.49-8.197-.652-2.353-.465-3.446.796-4.642 3.101-2.942 15.107-3.724 21.387-1.394 3.203 1.189 4.036 2.573 3.386 5.632-.754 3.552-3.93 6.753-8.099 8.161-2.266.865-5.595.957-7.98.44zm6.338-1.693c1.99-.468 4.179-1.63 5.55-2.948.398-.383 1.208-.596 1.195-1.148-.01-.412-.621-.542-.931-.813-4.824-4.215-12.985-4.252-17.751-.079-.321.281-.944.417-.964.844-.019.408.563.593.845.889 1.505 1.584 3.971 2.904 6.269 3.356 1.473.29 4.338.24 5.787-.1zM44.881 76.53c-1.142-.621-1.262-1.458-.322-2.25.878-.739 2.205-1.044 3.361-.929.858.085 2.147.318 2.31 1.165.182.951-1.056 1.748-1.926 2.173-1.04.159-2.53.309-3.424-.159zm34.229-.201c-.74-.345-1.092-.545-1.304-1.065-.134-.328-.102-.778.117-1.057.537-.684 1.114-.899 2.45-.893 2.781.012 4.593 2.187 2.636 3.164-1.044.522-2.585.463-3.898-.149zm-51.69-8.544c3.714-2.421 8.985-4.566 15.123-6.153l2.654-.687c.833-.216.063-1.692.063-2.598 0-.866-.031-1.659.144-2.507a7.93 7.93 0 0 1 .402-1.291c1.63-4.057 5.443-5.133 8.139-2.297 1.375 1.446 2.449 4.318 2.46 6.577.001.264-.211.639.004.793.133.096.312-.104.468-.156.598-.199 13.414-.209 13.999-.011.147.05.328.256.44.149.314-.3.096-.869.145-1.304.404-3.647 1.69-6.215 3.879-7.345.271-.14.582-.279.88-.341.423-.089.848-.144 1.28-.116s.9.139 1.308.281a4.01 4.01 0 0 1 .937.491c1.084.752 1.951 2.505 2.465 3.951.159.449.243.868.291 1.314.077.707-.02 1.423 0 2.133.022.775-.579 2.143.134 2.321l2.732.682c5.742 1.434 11.218 3.779 14.993 6.113l1.877 1.16c.382.236-.465-6.33-1.465-10.143-3.738-14.256-13.811-25.705-26.435-30.047-4.987-1.715-10.031-2.327-14.012-1.701-8.394 1.321-15.304 4.828-21.442 10.882-7.249 7.15-12.048 17.366-13.218 28.142-.241 2.218-.269 2.865-.122 2.865.053 0 .898-.522 1.877-1.16zM54.664 58.1c.237-.459.31-1.009.248-1.867-.102-1.415-.656-2.32-1.479-2.419a.89.89 0 0 0-.539.119c-.246.145-.315.266-.427.504-.658 1.403-.373 4.121.702 4.527.58.219 1.085-.073 1.494-.865zm20.676.166c.897-1.471.267-4.49-.937-4.49-1.512 0-2.145 3.607-.858 4.893.615.615 1.263.47 1.796-.403zm-48.289-5.113l3.71-8.054c-4.842.464-19.524 4.035-20.068 8.449.013.618.787 1.322 1.455 1.151zm89.777 1.189c.433-.335-.195-2.022-.906-3.071-2.986-1.991-5.195-2.732-11.095-4.54-2.983-.914-7.613-1.828-7.804-1.637-.063.063.291.851.787 1.749s1.36 2.674 1.921 3.944l1.019 2.311 2.922.144c2.901.143 7.727.694 10.715 1.224 1.555.276 1.951.256 2.442-.124zM31.107 43.277l1.192-.146c1.935-2.729 3.875-4.604 5.742-7.168-2.313-.272-4.897-.212-6.998.419-3.376 1.028-6.306 2.603-9.44 5.092-1.575 1.251-7.037 6.584-6.678 6.433 5.033-2.14 10.965-3.9 16.183-4.629zm78.604 1.39c-4.432-4.327-7.771-6.306-12.364-8.079-1.548-.598-3.26-.697-4.917-.784-.892-.047-2.748.054-2.676.144l5.774 7.183c.224.279.71.089 1.066.133 3.923.491 10.317 2.159 13.845 3.612 1.086.447 2.514 1.159 2.509 1.083-.012-.188-1.208-1.374-2.805-2.931 0 0-.431-.361-.431-.361zM43.803 31.683c1.113-.739 2.882-1.699 3.871-2.249l1.863-1.037c-4.954-1.641-7.956-6.422-11.818-8.078-1.168 0-1.402 4.805-.421 8.655.388 1.521 1.484 4.127 2.199 5.226l.311.477.986-.826c.542-.454 1.896-1.43 3.009-2.169zm45.428.768c.468-.971 1.057-2.485 1.31-3.365.153-.533.381-1.05.459-1.598.154-1.086.313-2.233.314-3.33s.031-2.215-.304-3.249c-.07-.217-.15-.477-.349-.59-.178-.101-.42-.066-.614 0-.625.212-.793.543-1.571 1.206-2.698 2.3-6.005 4.569-8.88 6.094l-1.439.763 1.751.877c1.919.962 5.592 3.888 7.154 4.641l1.075.518c.156.075.627-.995 1.095-1.967z" fill="#122670" stroke="#122670" stroke-width=".473"/></svg>