<svg xmlns="http://www.w3.org/2000/svg" width="128" height="128" viewBox="0 0 33.867 33.867" xmlns:v="https://vecta.io/nano"><circle cx="16.933" cy="16.933" r="16.933"/><path d="M22.538 8.613l-3.871 5.748a.412.412 0 0 0 .611.54l3.811-3.305a.154.154 0 0 1 .257.117v10.349a.154.154 0 0 1-.273.099L11.555 8.371a1.974 1.974 0 0 0-1.506-.698h-.403a1.973 1.973 0 0 0-1.973 1.973v14.575a1.973 1.973 0 0 0 1.973 1.973h0a1.974 1.974 0 0 0 1.682-.94l3.871-5.748a.412.412 0 0 0-.611-.54l-3.811 3.305a.154.154 0 0 1-.257-.117V11.803a.154.154 0 0 1 .273-.099l11.518 13.792a1.974 1.974 0 0 0 1.506.698h.403a1.973 1.973 0 0 0 1.974-1.973V9.646a1.973 1.973 0 0 0-1.973-1.973h0a1.974 1.974 0 0 0-1.682.94z" fill="#fff"/></svg>