<svg xmlns="http://www.w3.org/2000/svg" width="128" height="128" viewBox="0 0 33.867 33.867" xmlns:v="https://vecta.io/nano"><path d="M24.941 5.047l-5.531 8.211a.588.588 0 0 0 .873.772l5.444-4.718a.22.22 0 0 1 .367.167v14.784a.22.22 0 0 1-.39.141L9.249 4.702a2.82 2.82 0 0 0-2.152-.998h-.575a2.819 2.819 0 0 0-2.819 2.819v20.821a2.819 2.819 0 0 0 2.819 2.819h0a2.82 2.82 0 0 0 2.403-1.343l5.531-8.211a.588.588 0 0 0-.873-.772L8.14 24.555a.22.22 0 0 1-.367-.167V9.604a.22.22 0 0 1 .39-.141l16.454 19.702a2.82 2.82 0 0 0 2.153.998h.575a2.819 2.819 0 0 0 2.819-2.819V6.523a2.819 2.819 0 0 0-2.819-2.819h0a2.82 2.82 0 0 0-2.403 1.343z"/></svg>