<svg xmlns="http://www.w3.org/2000/svg" width="128" height="128" fill="none" xmlns:v="https://vecta.io/nano"><circle cx="64" cy="64" r="64" fill="#b24141" paint-order="stroke fill markers"/><path d="M96.524 98.787c-.218-.115-9.566-5.831-20.773-12.703l-34.508-21.09c-.064 0-.098 2.783-.098 7.982l.046 7.982c.025 0 1.519-.937 3.318-2.082 1.813-1.154 3.373-2.082 3.499-2.082s1.075.518 2.111 1.15l7.564 4.654c.061.044-26.48 16.11-26.612 16.11-.022 0-.04-11.512-.04-25.583l.135-25.583c.074 0 3.083 1.774 6.686 3.942L70.683 71.24l26.28 15.816.004 5.974-.021 5.97c-.014-.003-.203-.098-.421-.213zm-.198-18.655c-.327-.179-3.942-2.344-8.032-4.811L55.945 55.842 31.033 40.849l-.002-5.925.073-5.924c.147.002 1.73.96 13.014 7.88l42.699 26.103c.022-.022.028-3.63.014-8.018l-.025-7.979-2.776 1.768c-3.553 2.262-3.938 2.481-4.186 2.385-.317-.123-9.444-5.721-9.446-5.794-.001-.036 1.169-.778 2.601-1.647L96.3 29.584l.669-.371v25.625l-.025 25.622c-.014-.001-.293-.149-.62-.328z" fill="#fff"/></svg>