<svg xmlns="http://www.w3.org/2000/svg" width="128" height="128" viewBox="0 0 33.867 33.867" xmlns:v="https://vecta.io/nano"><path d="M30.427 6.72C27.861 3.44 24.104 1.349 19.95 1.349c-8.043 0-13.944 7.488-13.944 15.584 0 5.636 3.757 9.869 7.911 9.869.397 0 .767-.026 1.164-.106-2.805-2.037-4.577-5.741-4.577-9.763 0-6.403 4.339-11.404 9.446-11.404 5.583 0 9.446 5.53 9.446 11.404-.026 4.339-1.561 8.652-4.286 11.827-2.381 2.778-5.45 4.524-8.837 5.08 0 0 .291.026.661.026 9.34 0 16.933-7.594 16.933-16.933 0-3.836-1.27-7.382-3.44-10.213zm-2.566 10.213c0-5.636-3.757-9.869-7.911-9.869-.397 0-.767.026-1.164.106 2.805 2.037 4.577 5.741 4.577 9.763 0 6.403-4.339 11.404-9.446 11.404-5.583 0-9.446-5.53-9.446-11.404.026-4.339 1.561-8.652 4.286-11.827 2.381-2.778 5.45-4.524 8.837-5.08 0 0-.291-.026-.661-.026C7.594 0 0 7.594 0 16.933c0 3.836 1.27 7.382 3.44 10.213 2.566 3.281 6.324 5.345 10.477 5.345 8.043.026 13.944-7.461 13.944-15.557z" fill="#0089db" fill-rule="evenodd"/></svg>