<svg xmlns="http://www.w3.org/2000/svg" xmlns:xlink="http://www.w3.org/1999/xlink" width="128" height="128" xmlns:v="https://vecta.io/nano"><style><![CDATA[.B{image-rendering:optimizeSpeed}.C{fill-rule:evenodd}]]></style><defs><clipPath id="A"><path d="M0 900h900V0H0z"/></clipPath><clipPath id="B"><path d="M0 900h900V0H0z"/></clipPath><clipPath id="C"><path d="M42.605 625.226C6.24 462.815 195.374 313.013 449.99 313.013h0c254.616 0 443.75 149.802 407.384 312.213h0c-31.523 140.79-214.665 232.441-407.384 232.441h0c-192.72 0-375.861-91.651-407.385-232.441m37.954-5.322c28.586 122.009 194.658 201.433 369.415 201.433h0c174.757 0 340.828-79.424 369.414-201.433h0C852.363 479.158 680.857 349.34 449.974 349.34h0c-230.884 0-402.39 129.818-369.415 270.564m74.199-18.653C128.404 483.55 265.471 374.989 449.993 374.989h0c184.521 0 321.588 108.561 295.234 226.262h0c-22.846 102.032-155.569 168.452-295.234 168.452h0c-139.666 0-272.39-66.42-295.235-168.452m58.58-17.077c18.312 81.787 124.702 135.028 236.656 135.028h0c111.953 0 218.343-53.241 236.657-135.028h0c21.124-94.347-88.747-181.37-236.657-181.37h0c-147.91 0-257.781 87.023-236.656 181.37m51.533-17.429c-16.521-73.783 69.402-141.838 185.074-141.838h0c115.672 0 201.596 68.055 185.075 141.838h0c-14.322 63.962-97.523 105.598-185.075 105.598h0c-87.552 0-170.753-41.636-185.074-105.598m82.103-35.48c7.964 35.569 54.233 58.724 102.922 58.724h0c48.688 0 94.956-23.155 102.92-58.724h0c9.187-41.031-38.595-78.877-102.92-78.877h0c-64.327 0-112.109 37.846-102.922 78.877"/></clipPath><clipPath id="D"><path d="M0 900h900V0H0z"/></clipPath><mask maskUnits="userSpaceOnUse" x="0" y="0" width="1" height="1" id="E"><g clip-path="url(#D)"><g transform="scale(900)"><image width="1" height="1" preserveAspectRatio="none" transform="matrix(1 0 0 -1 0 1)" xlink:href="../../SVGs/Oasys%20project%20logo%20(square)_img3.png" class="B"/></g></g></mask><mask maskUnits="userSpaceOnUse" x="0" y="0" width="1" height="1" id="F"><image width="1" height="1" preserveAspectRatio="none" xlink:href="../../SVGs/Oasys%20project%20logo%20(square)_img4.png" class="B"/></mask><clipPath id="G"><path d="M286.195 490.182h328.547V313.013H286.195z"/></clipPath></defs><g clip-path="url(#A)" transform="matrix(.151471 0 0 -.151471 -4.160272 129.911721)"><g class="C"><path d="M803.759 145.986c-5.994 8.101-14.543 16.817-25.641 26.141l-13.653 11.988c-9.324 7.544-16.151 13.652-20.479 18.315s-6.494 8.991-6.494 12.987c0 3.329 1.051 5.994 3.163 7.992s4.938 2.996 8.492 2.996c5.547 0 10.656-2.83 15.318-8.491s8.101-12.045 10.323-19.147l34.965 15.984c-4.443 15.984-11.936 28.247-22.477 36.796-10.547 8.544-23.701 12.821-39.461 12.821-10.437 0-20.204-2.279-29.304-6.827-9.106-4.553-16.374-10.822-21.811-18.814-5.443-7.992-8.159-17.098-8.159-27.306 0-11.104 2.607-20.646 7.825-28.638s13.596-16.874 25.142-26.64l13.986-11.655c11.098-9.106 18.315-15.599 21.645-19.481s4.995-8.273 4.995-13.154c0-6.659-4.22-9.989-12.654-9.989-5.775 0-11.046 2.44-15.817 7.326-4.777 4.88-8.939 11.764-12.488 20.646l-36.963-16.317c6.879-16.874 15.927-29.138 27.14-36.797 11.207-7.659 25.36-11.488 42.457-11.488 10.432 0 20.147 2.055 29.138 6.16s16.202 10.099 21.645 17.982c5.437 7.878 8.158 17.259 8.158 28.139 0 10.874-2.997 20.365-8.991 28.471m-197.468 8.83l-24.309 106.222h-50.949L571 118.001h27s-9.543-59.444-22.179-64.256c-4.995-2.331-12.82-3.496-23.476-3.496V12.62h12.321c18.2 0 32.852 3.829 43.956 11.488 11.098 7.659 18.757 20.927 22.977 39.794l44.289 197.136h-51.282zm-115.217 17.311l-13.653 11.988c-9.324 7.544-16.151 13.652-20.48 18.315s-6.493 8.991-6.493 12.987c0 3.329 1.051 5.994 3.163 7.992s4.938 2.996 8.492 2.996c5.547 0 10.656-2.83 15.318-8.491s8.101-12.045 10.323-19.147l34.965 15.984c-4.444 15.984-11.936 28.247-22.478 36.796s-23.7 12.821-39.46 12.821c-10.438 0-20.204-2.279-29.304-6.827-9.106-4.553-16.374-10.822-21.812-18.814s-8.158-17.098-8.158-27.306c0-11.104 2.607-20.646 7.825-28.638s13.596-16.874 25.142-26.64l13.986-11.655c11.098-9.106 18.315-15.599 21.645-19.481s4.995-8.273 4.995-13.154c0-6.659-4.22-9.989-12.654-9.989-5.776 0-11.046 2.44-15.818 7.326-4.776 4.88-8.938 11.764-12.487 20.646l-36.963-16.317c6.878-16.874 15.927-29.138 27.139-36.797s25.361-11.488 42.458-11.488c10.432 0 20.146 2.055 29.137 6.16s16.203 10.099 21.646 17.982c5.437 7.878 8.158 17.259 8.158 28.139 0 10.874-2.997 20.365-8.991 28.471s-14.543 16.817-25.641 26.141m-166.166-60.606c-4.662-6.442-9.772-9.657-15.318-9.657-4.662 0-8.325 1.883-10.989 5.661-2.664 3.772-3.996 8.876-3.996 15.318 0 9.1 2.549 16.816 7.659 23.143 5.104 6.327 12.654 8.148 22.644 8.148zm51.948 94.905c0 17.534-4.995 31.577-14.985 42.124s-24.424 15.818-43.29 15.818c-22.426 0-39.294-5.495-50.616-16.484s-17.431-28.029-18.315-51.115l50.616-1.998 1.332 13.986c.218 4.88 1.217 8.658 2.997 11.322 1.774 2.664 4.771 3.996 8.991 3.996 4.214 0 7.159-1.447 8.824-4.329 1.665-2.888 2.498-7.108 2.498-12.654v-29.314c-16.65 0-30.251-1.322-40.793-6.65-10.547-5.328-19.595-12.769-27.139-22.311-7.55-9.548-11.322-21.76-11.322-36.63 0-7.774 3.443-16.027 8.161-22.478 19.194-26.291 64.119-9.777 72.424-4.839 0 .088.531-6.447-.671-16.306h54.618c-2.222 12.43-3.33 28.414-3.33 47.952zm-208.121-81.918c0-7.774-.999-13.601-2.997-17.483s-5.552-5.827-10.656-5.827c-5.109 0-8.715 1.94-10.822 5.827-2.113 3.882-3.164 9.709-3.164 17.483v80.586c0 7.544 1.051 13.32 3.164 17.316 2.107 3.995 5.713 5.994 10.822 5.994s8.658-1.946 10.656-5.828 2.997-9.714 2.997-17.482zm35.631 123.709c-11.988 10.765-28.529 16.151-49.617 16.151s-37.577-5.328-49.45-15.984c-11.879-10.656-17.816-26.307-17.816-46.953v-73.26c0-20.646 5.937-36.297 17.816-46.953 11.873-10.656 28.357-15.984 49.45-15.984 21.088 0 37.629 5.38 49.617 16.15 11.988 10.765 17.982 26.359 17.982 46.787v73.26c0 20.422-5.994 36.016-17.982 46.786" fill="#2a9e92"/><path d="M449.994 402.804c-147.91 0-257.781 87.022-236.656 181.37 18.312 81.787 124.702 135.028 236.656 135.028s218.344-53.241 236.656-135.028c21.125-94.348-88.746-181.37-236.656-181.37m-.001 366.898c-139.665 0-272.39-66.419-295.235-168.451-26.354-117.701 110.713-226.263 295.235-226.263S771.581 483.55 745.227 601.251c-22.845 102.032-155.57 168.451-295.234 168.451m-.098-317.315c-64.326 0-112.108 37.846-102.921 78.878 7.964 35.569 54.233 58.723 102.921 58.723s94.957-23.154 102.921-58.723c9.188-41.032-38.595-78.878-102.921-78.878m.05 219.956c-87.552 0-170.753-41.637-185.075-105.598-16.52-73.783 69.403-141.838 185.075-141.838S651.54 492.962 635.02 566.745c-14.321 63.961-97.523 105.598-185.075 105.598m.029-323.004c-230.884 0-402.39 129.819-369.415 270.565 28.586 122.009 194.658 201.433 369.415 201.433s340.828-79.424 369.414-201.433c32.975-140.746-138.53-270.565-369.414-270.565m407.4 275.887c-31.523 140.79-214.665 232.44-407.384 232.44s-375.861-91.65-407.385-232.44C6.24 462.814 195.374 313.013 449.99 313.013s443.749 149.801 407.384 312.213" fill="#31bfb0"/></g><g clip-path="url(#B)" class="B"><g clip-path="url(#C)"><g mask="url(#E)"><g transform="scale(900)"><image width="1" height="1" preserveAspectRatio="none" transform="matrix(1 0 0 -1 0 1)" xlink:href="../../SVGs/Oasys%20project%20logo%20(square)_img5.png" mask="url(#F)"/></g></g></g></g><g clip-path="url(#G)" class="C"><path d="M287.714 372.583c4.185-16.04 13.107-31.141 25.845-44.401 42.41-9.8 88.246-15.169 136.431-15.169 48.691 0 94.983 5.484 137.766 15.481 12.671 13.282 21.526 28.397 25.638 44.442-48.941-15.061-104.228-23.597-163.42-23.597-58.725 0-113.605 8.403-162.26 23.244m296.417 89.826c-11.572 11.111-25.681 20.42-41.373 27.772-16.917-22.114-51.461-37.793-92.862-37.793-41.137 0-75.505 15.478-92.538 37.368-15.542-7.385-29.507-16.696-40.944-27.791 33.535-22.686 80.388-37.058 133.532-37.058 53.489 0 100.606 14.56 134.185 37.502m30.612-54.762c-.693 3.948-1.662 7.912-2.954 11.881-2.254 6.924-5.292 13.49-9.004 19.691-40.976-22.589-93.857-36.415-152.791-36.415-58.563 0-111.151 13.651-152.018 35.989-3.597-6.076-6.55-12.499-8.753-19.265a86.73 86.73 0 0 1-3.027-12.297c46.547-20.281 102.556-32.243 163.797-32.243 61.658 0 118.015 12.125 164.75 32.659" fill="#31bfb0"/></g><path d="M450.5 805C377.875 805 319 746.125 319 673.5S377.875 542 450.5 542 582 600.875 582 673.5 523.125 805 450.5 805" fill="#2a9e92" class="C"/></g></svg>