<svg xmlns="http://www.w3.org/2000/svg" width="128" height="128" viewBox="0 0 33.867 33.867" xmlns:v="https://vecta.io/nano"><circle cx="16.933" cy="16.933" r="16.933"/><path d="M19.995 13.409h-6.118a.471.471 0 0 0-.471.471v6.118a.471.471 0 0 0 .471.471h6.118a.471.471 0 0 0 .471-.471V13.88a.471.471 0 0 0-.471-.471zM12.938 6.35H6.821a.471.471 0 0 0-.471.471v6.118a.471.471 0 0 0 .471.471h6.118a.471.471 0 0 0 .471-.471V6.821a.471.471 0 0 0-.471-.471zm14.108 0h-6.118a.471.471 0 0 0-.471.471v6.118a.471.471 0 0 0 .471.471h6.118a.471.471 0 0 0 .471-.471V6.821a.471.471 0 0 0-.471-.471zM12.938 20.458H6.821a.471.471 0 0 0-.471.471v6.118a.471.471 0 0 0 .471.471h6.118a.471.471 0 0 0 .471-.471v-6.118a.471.471 0 0 0-.471-.471zm14.108 0h-6.118a.471.471 0 0 0-.471.471v6.118a.471.471 0 0 0 .471.471h6.118a.471.471 0 0 0 .471-.471v-6.118a.471.471 0 0 0-.471-.471z" fill="#fff"/></svg>