<svg xmlns="http://www.w3.org/2000/svg" xmlns:xlink="http://www.w3.org/1999/xlink" width="128" height="128" fill="none" xmlns:v="https://vecta.io/nano"><path d="M43.57 95.485l-1.407.811.001-1.624s-.02.83.355 1.038c.367.203 1.05-.225 1.05-.225z" fill="#8e3315"/><path d="M7.473 93.81a63.94 63.94 0 0 0 37.696 31.214c16.208 4.995 33.737 3.347 48.731-4.582s26.224-21.488 31.22-37.696 3.315-33.736-4.613-48.729c7.149 22.532-17.853 30.559-17.853 30.559L72.64 80.209 41.333 96.538s-21.338 13.736-33.86-2.728z" fill="#473ade"/><path d="M7.36 93.92c7.928 14.993 21.462 26.313 37.67 31.308s33.875 3.143 48.869-4.786 26.199-21.43 31.195-37.638 3.261-33.682-4.667-48.675c7.149 22.532-17.775 30.447-17.775 30.447L72.528 80.321 41.22 96.65s-21.338 13.734-33.86-2.73z" fill="url(#A)"/><path d="M101.963 62.902l2.326 1.13-2.455.985s1.053-.498 1.179-.985c.123-.478-1.05-1.13-1.05-1.13z" fill="#251e73"/><path d="M120.905 93.101a63.84 63.84 0 0 0 3.964-48.741c-5.196-16.145-16.593-29.565-31.684-37.307S60.546-2.121 44.401 3.074 14.836 19.665 7.094 34.755c14.366-18.772 35.137-2.884 35.137-2.884l30.167 15.662 31.324 16.297s23.497 9.573 17.182 29.271z" fill="#d71d6a"/><path d="M120.907 93.1a64.02 64.02 0 0 0 3.964-48.741A64.13 64.13 0 0 0 93.187 7.053a63.99 63.99 0 0 0-48.786-3.979C28.304 8.254 15 19.821 7.281 34.866c14.323-18.716 35.062-2.939 35.062-2.939l30.048 15.679 31.23 16.249s23.581 9.606 17.286 29.245z" fill="url(#B)"/><path d="M42.173 33.386l-.026-1.7 1.485.827s-.75-.441-1.13-.203c-.373.233-.329 1.076-.329 1.076z" fill="#741039"/><path d="M63.989 0a63.91 63.91 0 0 0-45.208 18.717C6.789 30.71.052 46.976.052 63.937s6.737 33.227 18.729 45.221 28.235 18.698 45.195 18.698c-21.767-3.654-21.745-31.822-21.745-31.822V63.937 31.273S42.222 3.896 63.989 0z" fill="#ff5b25"/><use xlink:href="#D" fill="url(#C)"/><use xlink:href="#D" fill="url(#C)" fill-opacity=".3"/><path d="M63.977 127.857c-21.599-9.838-21.715-31.803-21.715-31.803S15.487 111.16 6.475 91.846c0 0 15.253 36.139 57.501 36.011z" fill="#473ade"/><defs><linearGradient id="A" x1="120.432" y1="56.646" x2="27.387" y2="148.512" gradientUnits="userSpaceOnUse"><stop stop-opacity=".6"/><stop offset=".656" stop-opacity="0"/></linearGradient><linearGradient id="B" x1="25.673" y1="21.996" x2="153.898" y2="45.521" gradientUnits="userSpaceOnUse"><stop stop-opacity=".6"/><stop offset=".646" stop-opacity="0"/></linearGradient><linearGradient id="C" x1="34.297" y1="119.817" x2="-3.745" y2="2.645" gradientUnits="userSpaceOnUse"><stop stop-opacity=".6"/><stop offset=".675" stop-opacity="0"/></linearGradient><path id="D" d="M63.989 0c-16.96 0-33.215 6.575-45.208 18.568S.052 46.827.052 63.788s6.737 33.227 18.729 45.221 28.235 18.852 45.195 18.852c-21.767-6.955-21.745-31.791-21.745-31.791V63.867 31.871S41.43 4.144 63.989 0z"/></defs></svg>