<svg xmlns="http://www.w3.org/2000/svg" width="128" height="128" xmlns:v="https://vecta.io/nano"><g fill="#353340"><path d="M40.59 37.047C21.358 26.317 13.868 34.701 12.17 49.602c-4.421-28.664 4.604-39.5 20.652-32.232a76.252 76.252 0 0 1 19.017 12.454 17.784 17.784 0 0 0 12.011 4.408"/><path d="M63.769 34.233a19.017 19.017 0 0 0 12.092-4.56 81.571 81.571 0 0 1 19.287-12.302c16.073-7.268 25.11 3.567 20.683 32.232-2.003 1.42-3.964 2.857-6.036 4.428.189-4.514-.431-9.75-.5-13.689-.222-12.828-18.256-8.177-27.572 2.625-5.41 6.273 1.954 14.853 10.368 20.554a30.273 30.273 0 0 0 4.596.93l-11.959 9.871-20.802-19.131"/><path d="M64.004 34.231a18.961 18.961 0 0 1-11.923-4.558 81.5 81.5 0 0 0-19.26-12.302c-16.05-7.266-25.074 3.567-20.652 32.23 1.998 1.419 3.957 2.855 6.028 4.427-.186-4.514.433-9.748.499-13.693.222-12.828 18.23-8.176 27.526 2.625 5.402 6.274-1.951 14.855-10.35 20.554a30.567 30.567 0 0 1-4.592.932l11.94 9.874 20.783-19.14c7.47-6.606.002-20.948.002-20.948zm7.05 58.138a44.354 44.354 0 0 0 17.289 19.965c18.343 9.067 28.995-5.036 24.345-20.19-2.087-6.8-9.902-20.254-22.055-25.205-3.05-1.243-22.954 17.328-19.578 25.43zm8.326-13.428c.864-4.855 3.208-4.455 4.501-3.901 5.254 2.25 11.569 7.78 13.803 13.353 3.191 7.963-2.284 12.967-9.425 8.324-6.515-4.236-10.079-11.025-8.879-17.777z"/><path d="M37.375 66.939C25.222 71.89 17.408 85.344 15.32 92.144c-4.651 15.154 6.001 29.256 24.345 20.19a44.354 44.354 0 0 0 17.29-19.965c3.374-8.101-16.529-26.672-19.58-25.43zm2.374 29.779c-7.141 4.642-12.616-.361-9.425-8.324 2.233-5.573 8.552-11.099 13.803-13.353 1.293-.554 3.638-.954 4.501 3.901 1.199 6.753-2.364 13.541-8.88 17.777z"/></g><path d="M95.181 17.371C130.235 5.235 109.531 67.398 64 67.398S-2.234 5.23 32.82 17.371c-38.206-19.847-48.108 29.886-2.3 57.087 13.609 8.081 27.321 22.966 9.142 37.878C51.176 106.605 54.027 96.243 64 96.243s12.823 10.359 24.337 16.092c-18.179-14.912-4.468-29.797 9.142-37.878 45.809-27.198 35.907-76.934-2.298-57.087z" fill="#00000e"/></svg>