<svg xmlns="http://www.w3.org/2000/svg" width="128" height="128" fill="#466afa" xmlns:v="https://vecta.io/nano"><path d="M31.597 39.98a4.65 4.65 0 0 0 5.668-.868c6.673-7.174 16.226-11.697 26.784-11.697 10.604 0 20.111 4.478 26.784 11.697a4.65 4.65 0 0 0 5.668.868l16.134-9.321c2.423-1.416 3.062-4.615 1.28-6.808C102.168 9.275 84.205 0 64.049 0S25.93 9.321 14.183 23.851c-1.737 2.193-1.097 5.392 1.28 6.808zm67.38 13.206c1.143 3.701 1.691 7.676 1.6 11.788-.503 19.099-16.043 34.817-35.148 35.548-20.842.777-37.982-15.855-37.982-36.508a36.62 36.62 0 0 1 1.6-10.783c.64-2.056-.228-4.249-2.057-5.3L10.855 38.61c-2.422-1.371-5.53-.32-6.536 2.239C1.303 48.571-.206 56.978.023 65.842c.96 33.858 28.612 61.364 62.48 62.141C98.52 128.805 128 99.837 128 64.015a63.83 63.83 0 0 0-4.342-23.166c-1.006-2.605-4.113-3.655-6.536-2.239l-16.134 9.321c-1.783 1.005-2.651 3.244-2.011 5.255z"/></svg>