<svg xmlns="http://www.w3.org/2000/svg" width="128" height="128" viewBox="0 0 33.867 33.867" xmlns:v="https://vecta.io/nano"><path d="M16.933 33.867c9.352 0 16.933-7.581 16.933-16.933S26.286 0 16.933 0 0 7.581 0 16.933s7.581 16.933 16.933 16.933zm1.693-2.54c7.949 0 14.393-6.444 14.393-14.393S26.576 2.54 18.627 2.54 4.233 8.984 4.233 16.933s6.444 14.393 14.393 14.393zm.956-2.54c6.546-.061 11.804-5.416 11.743-11.962S25.91 5.021 19.364 5.081 7.56 10.497 7.62 17.043s5.416 11.805 11.962 11.744zm1.251-2.128a9.74 9.74 0 0 0 9.647-9.826 9.74 9.74 0 0 0-9.826-9.646 9.74 9.74 0 0 0-9.647 9.826 9.74 9.74 0 0 0 9.826 9.647zm.757-2.529a7.2 7.2 0 0 0 7.197-7.197 7.2 7.2 0 0 0-7.197-7.197 7.2 7.2 0 0 0-7.197 7.197 7.2 7.2 0 0 0 7.197 7.197zm.847-1.693c3.039 0 5.503-2.464 5.503-5.503s-2.464-5.503-5.503-5.503-5.503 2.464-5.503 5.503 2.464 5.503 5.503 5.503z" opacity=".5" fill="#00dce6" fill-rule="evenodd"/></svg>