<svg xmlns="http://www.w3.org/2000/svg" width="128" height="128" fill="none" xmlns:v="https://vecta.io/nano"><path fill="#2081e2" d="M128 64c0 35.344-28.656 64-64 64S0 99.344 0 64 28.656 0 64 0c35.352 0 64 28.656 64 64z"/><path d="M31.575 66.151l.276-.434L48.5 39.671a.57.57 0 0 1 .999.072c2.781 6.233 5.181 13.986 4.057 18.812-.48 1.986-1.795 4.675-3.275 7.161a13.08 13.08 0 0 1-.625 1.059c-.105.158-.283.25-.473.25H32.061a.57.57 0 0 1-.487-.874zm74.21 4.839v4.123a.59.59 0 0 1-.355.539c-1.289.552-5.701 2.578-7.535 5.129-4.682 6.516-8.259 15.834-16.254 15.834H48.283c-11.822 0-21.403-9.613-21.403-21.475v-.381a.57.57 0 0 1 .572-.572h18.595c.368 0 .638.342.605.703a6.34 6.34 0 0 0 .664 3.57c1.105 2.242 3.393 3.643 5.865 3.643h9.206v-7.187h-9.1a.59.59 0 0 1-.473-.921l.329-.487c.861-1.223 2.091-3.123 3.314-5.287.835-1.46 1.644-3.018 2.295-4.583.132-.283.237-.572.342-.855.178-.5.362-.967.493-1.433.132-.395.237-.809.342-1.197.309-1.328.441-2.735.441-4.195 0-.572-.026-1.17-.079-1.742-.026-.625-.105-1.249-.184-1.874-.053-.552-.151-1.098-.256-1.67a28.21 28.21 0 0 0-.526-2.499l-.072-.316c-.158-.572-.289-1.118-.473-1.69-.52-1.795-1.118-3.544-1.749-5.181-.23-.651-.493-1.276-.756-1.9-.388-.94-.782-1.795-1.144-2.604a36.36 36.36 0 0 1-.5-1.046 36.81 36.81 0 0 0-.546-1.144c-.131-.283-.283-.546-.388-.809l-1.124-2.078c-.158-.283.105-.618.414-.533l7.036 1.907h.02c.013 0 .02.007.026.007l.927.256 1.019.289.375.105v-4.182c0-2.019 1.618-3.656 3.617-3.656a3.57 3.57 0 0 1 2.558 1.072c.651.664 1.059 1.572 1.059 2.584v6.207l.75.21a.6.6 0 0 1 .171.086l.782.592c.263.21.546.467.888.73.677.546 1.486 1.249 2.374 2.058.237.204.467.414.677.625 1.144 1.065 2.426 2.314 3.649 3.695.342.388.677.782 1.019 1.197.342.421.704.835 1.019 1.249.414.552.861 1.124 1.249 1.723l.572.855c.5.756.94 1.539 1.361 2.321.178.362.362.756.519 1.144a16.76 16.76 0 0 1 1.072 3.176 3.97 3.97 0 0 1 .151.704v.053c.079.316.105.651.131.993a10.62 10.62 0 0 1-.184 3.281c-.099.467-.23.907-.388 1.374-.158.447-.316.914-.519 1.354-.394.914-.861 1.828-1.414 2.683-.178.316-.388.651-.598.967l-.677.96c-.289.394-.598.809-.914 1.177a12.49 12.49 0 0 1-.888 1.118 42.92 42.92 0 0 1-1.302 1.486 13.61 13.61 0 0 1-.835.907c-.283.316-.572.598-.835.861a33.27 33.27 0 0 1-1.118 1.065l-.723.664a.59.59 0 0 1-.388.145H69.62v7.187h7.049c1.578 0 3.077-.559 4.287-1.585.414-.362 2.222-1.927 4.359-4.287a.54.54 0 0 1 .27-.164l19.47-5.629c.362-.105.73.171.73.552z" fill="#fff"/></svg>