<svg xmlns="http://www.w3.org/2000/svg" width="128" height="128" viewBox="0 0 33.867 33.867" xmlns:v="https://vecta.io/nano"><circle cx="16.933" cy="16.933" r="16.933" fill="#ff0420"/><path d="M11.996 21.431c-1.009 0-1.836-.237-2.479-.711-.637-.481-.955-1.172-.955-2.059a4.64 4.64 0 0 1 .061-.684l.467-2.201c.576-2.33 2.066-3.495 4.464-3.495.65 0 1.24.108 1.754.332a2.66 2.66 0 0 1 1.219.969c.298.427.447.935.447 1.524a4.69 4.69 0 0 1-.061.671l-.461 2.201c-.298 1.158-.806 2.032-1.538 2.608-.725.569-1.7.847-2.919.847zm.183-1.829c.474 0 .874-.142 1.206-.42.339-.278.583-.704.725-1.287l.447-2.086c.034-.176.054-.359.054-.549 0-.772-.4-1.158-1.206-1.158a1.86 1.86 0 0 0-1.219.42c-.332.278-.569.704-.711 1.287-.156.569-.305 1.26-.461 2.086-.034.169-.054.345-.054.535-.007.786.406 1.172 1.219 1.172zm5.384 1.707c-.095 0-.163-.027-.217-.088a.33.33 0 0 1-.041-.23l1.754-8.263a.34.34 0 0 1 .142-.23c.075-.061.156-.088.244-.088h3.38c.941 0 1.693.196 2.262.583.576.393.867.955.867 1.693a3.32 3.32 0 0 1-.075.664c-.21.975-.637 1.693-1.287 2.161-.637.467-1.51.698-2.621.698h-1.714l-.583 2.784c-.02.095-.061.169-.142.23-.075.061-.156.088-.244.088zm4.497-4.856a1.5 1.5 0 0 0 .928-.291c.271-.196.447-.474.535-.84.027-.142.041-.271.041-.379 0-.244-.075-.433-.217-.562-.142-.135-.393-.203-.738-.203h-1.524l-.481 2.276z" fill="#fff"/></svg>