<svg xmlns="http://www.w3.org/2000/svg" width="128" height="128" viewBox="0 0 33.867 33.867" xmlns:v="https://vecta.io/nano"><defs><linearGradient id="A" x1="16.933" y1="34.24" x2="16.933" y2=".223" gradientUnits="userSpaceOnUse"><stop offset="0" stop-color="#04e7c0"/><stop offset="1" stop-color="#04bcfa"/></linearGradient></defs><path d="M 31.455197,25.338111 17.231728,0.52163712 M 31.455197,8.5285557 17.231728,33.345029 M 2.4114689,25.338111 16.634939,0.52163712 M 2.4114689,8.5285557 16.634939,33.345029 m 13.941688,-7.534738 -12.77727,7.37696 a 1.7320506,1.7320506 2.2228982e-6 0 1 -1.73205,0 L 3.29004,25.810291 a 1.732051,1.732051 60.000003 0 1 -0.8660254,-1.5 V 9.5563747 a 1.7320509,1.7320509 120 0 1 0.8660254,-1.5 L 16.067307,0.67941557 a 1.7320508,1.7320508 180 0 1 1.73205,-7e-8 l 12.77727,7.3769592 a 1.7320507,1.7320507 59.999999 0 1 0.866025,1.5 V 24.310291 a 1.7320508,1.7320508 120 0 1 -0.866025,1.5 z" fill="none" stroke="url(#A)" stroke-width=".895" stroke-miterlimit="3.2" paint-order="normal"/></svg>