<svg xmlns="http://www.w3.org/2000/svg" xmlns:xlink="http://www.w3.org/1999/xlink" width="128" height="128" viewBox="0 0 33.867 33.867" xmlns:v="https://vecta.io/nano"><defs><linearGradient id="A" x1="21.122" y1="25.278" x2="22.823" y2="25.278" xlink:href="#B"><stop offset=".289" stop-color="#fff"/><stop offset=".78" stop-color="#fff" stop-opacity="0"/></linearGradient><linearGradient id="B" gradientUnits="userSpaceOnUse"/><linearGradient id="C" x1="11.017" y1="28.11" x2="12.718" y2="28.11" xlink:href="#B"><stop offset=".289" stop-color="#fff"/><stop offset=".78" stop-color="#fff" stop-opacity="0"/></linearGradient><linearGradient id="D" x1="19.546" y1="29.865" x2="20.328" y2="29.865" xlink:href="#B"><stop offset=".289" stop-color="#fff"/><stop offset=".78" stop-color="#fff" stop-opacity="0"/></linearGradient><linearGradient id="E" x1="16.38" y1="30.241" x2="17.162" y2="30.241" xlink:href="#B"><stop offset=".289" stop-color="#fff"/><stop offset=".78" stop-color="#fff" stop-opacity="0"/></linearGradient><linearGradient id="F" x1="14.379" y1="28.799" x2="15.42" y2="28.799" xlink:href="#B"><stop offset=".289" stop-color="#fff"/><stop offset=".78" stop-color="#fff" stop-opacity="0"/></linearGradient><linearGradient id="G" x1="14.382" y1="28.804" x2="15.424" y2="28.804" xlink:href="#B"><stop offset=".289" stop-color="#fff"/><stop offset=".78" stop-color="#fff" stop-opacity="0"/></linearGradient><linearGradient id="H" x1="28.613" y1="5.89" x2="26.688" y2="8.964" xlink:href="#B"><stop offset=".289" stop-color="#fff"/><stop offset=".78" stop-color="#fff" stop-opacity="0"/></linearGradient><linearGradient id="I" x1="2.917" y1="20.142" x2="29.041" y2="20.142" xlink:href="#B"><stop stop-color="#000292"/><stop offset=".995" stop-color="#be00c7"/></linearGradient><linearGradient id="J" x1="2.9" y1="25.555" x2="16.895" y2="25.555" xlink:href="#B"><stop stop-color="#000292"/><stop offset=".995" stop-color="#7d00c7"/></linearGradient><linearGradient id="K" x1="30.297" y1="20.079" x2="15.83" y2="33.521" xlink:href="#B"><stop offset=".289" stop-color="#fff"/><stop offset=".78" stop-color="#fff" stop-opacity="0"/></linearGradient><linearGradient id="L" x1="2.9" y1="25.555" x2="29.059" y2="25.555" xlink:href="#B"><stop stop-color="#0002e9"/><stop offset=".995" stop-color="#ff00c7"/></linearGradient><linearGradient id="M" x1="25.69" y1="9.528" x2="14.13" y2="19.955" xlink:href="#B"><stop offset=".289" stop-color="#fff"/><stop offset=".78" stop-color="#fff" stop-opacity="0"/></linearGradient><linearGradient id="N" x1="13.781" y1="32.842" x2="18.333" y2="5.235" xlink:href="#B"><stop stop-color="#81ffff"/><stop offset=".62" stop-color="#fff" stop-opacity="0"/></linearGradient><radialGradient id="O" cx="0" cy="0" r="1" gradientTransform="matrix(26.927968,0,0,27.391783,25.10331,9.3836332)" xlink:href="#B"><stop stop-color="#ffeaff" stop-opacity=".6"/><stop offset=".681" stop-color="#a087c9"/><stop offset="1" stop-color="#10002f"/></radialGradient><radialGradient id="P" cx="0" cy="0" r="1" gradientTransform="matrix(11.006137,0,0,11.195632,31.226641,4.6089624)" xlink:href="#B"><stop stop-color="#ffeaff" stop-opacity=".6"/><stop offset=".681" stop-color="#a087c9"/><stop offset="1" stop-color="#10002f"/></radialGradient><path id="Q" d="M15.08 29.483c.381 0 .69-.314.69-.701s-.309-.701-.69-.701-.69.314-.69.701.309.701.69.701z"/><path id="R" d="M14.684 29.233a.72.72 0 0 1 0-1.002c.049-.05.098-.075.148-.125a.51.51 0 0 0-.246.15.72.72 0 0 0 0 1.002.7.7 0 0 0 .837.125.68.68 0 0 1-.739-.15z"/><path id="S" d="M15.324 28.581c.081 0 .148-.067.148-.15s-.066-.15-.148-.15-.148.067-.148.15.066.15.148.15z"/><path id="T" d="M17.073 30.059c.055 0 .098-.045.098-.1s-.044-.1-.098-.1-.098.045-.098.1.044.1.098.1z"/><path id="U" d="M12.148 29.232c.625 0 1.133-.516 1.133-1.152s-.507-1.152-1.133-1.152-1.133.516-1.133 1.152.507 1.152 1.133 1.152z"/></defs><path d="M32.365 5.987c-.345-1.328-1.453-2.655-3.448-4.133C27.317.676 25.617 0 24.263 0c-.271 0-.517.025-.763.075-.616.125-1.157.576-1.502 1.253-.419.802-.517 1.879-.246 2.53l.369.676c-1.305.802-2.044 1.027-2.142 1.052 3.398 1.152 6.23 3.557 8.003 6.688l.025-.301c.074-.827.32-1.779.665-2.755.345.1.69.15 1.034.15.911 0 1.699-.376 2.192-1.052s.69-1.578.468-2.33z" fill="#5e12a0"/><path d="M28.819 8.492c2.241.626 3.152-1.127 2.856-2.305-.32-1.177-1.354-2.38-3.177-3.732S24.83.551 23.648.801s-1.527 2.079-1.231 2.781c.123.275.394.676.763 1.127l-1.281.802c2.266 1.027 4.236 2.63 5.713 4.634.173-.676.419-1.277.64-1.804a2.717 2.717 0 0 1 .566.15z" fill="url(#P)"/><path d="M15.989 33.04c7.603 0 13.766-6.269 13.766-14.003S23.592 5.035 15.989 5.035 2.224 11.304 2.224 19.037 8.387 33.04 15.99 33.04z" fill="url(#O)"/><path opacity=".6" d="M30.543 5.035c-1.871-2.004-3.448-2.53-5.344-2.956-1.477-.351-1.083-1.202.714-1.027-.862-.301-1.675-.376-2.266-.251-1.182.251-1.527 2.079-1.231 2.781.123.275.394.676.763 1.127a18.69 18.69 0 0 1-1.699 1.027l.813.401c.837.451 1.748 1.202 1.748 1.202-1.379-1.202-1.083-1.753.813-3.106.591-.426 1.675-.376 2.684.15s2.192 1.854 2.192 1.854l-1.133 2.205.222.075c.714.2 1.281.15 1.724-.025.517-.326 1.872-1.428 0-3.457z" fill="#a98698"/><g fill="#5e12a0"><path d="M25.175 3.281c.493.2 1.133.551 1.921 1.077.936.626 1.748 1.328 2.266 1.879-.862 1.152-1.428 2.73-1.773 3.832l.542.751a20.6 20.6 0 0 1 .862-2.48c.098.025.221.025.345.025.296 0 .64-.05.911-.276.197-.15.419-.426.394-.927 0-.476-.369-1.077-1.133-1.804-.542-.526-1.28-1.102-2.019-1.628-2.118-1.428-3.595-1.829-4.26-1.152-.443.451-.394 1.002-.246 1.403l-1.896 1.152c.296.1.566.225.862.351.788-.426 1.921-1.152 3.226-2.204zm4.654 3.582a.68.68 0 0 1 .099.326c0 .225-.074.301-.123.351-.098.075-.296.125-.468.125.148-.301.32-.551.492-.802zm-6.082-3.732c.074-.075.271-.125.591-.075l-.739.551c-.025-.175 0-.351.148-.476z"/><path d="M15.989 4.208c-8.053 0-14.578 6.638-14.578 14.829s6.526 14.829 14.578 14.829 14.578-6.638 14.578-14.829S24.017 4.208 15.989 4.208zm0 28.832c-7.609 0-13.765-6.262-13.765-14.003S8.38 5.035 15.989 5.035s13.765 6.262 13.765 14.003S23.574 33.04 15.989 33.04z"/></g><path opacity=".6" d="M15.989 33.04c7.603 0 13.766-6.269 13.766-14.003S23.592 5.035 15.989 5.035 2.224 11.304 2.224 19.038 8.387 33.04 15.99 33.04z" fill="url(#N)"/><path opacity=".6" d="M15.891 31.337C8.38 30.109 3.283 22.92 4.514 15.28c.542-3.382 2.216-6.262 4.58-8.342-3.448 2.029-6.009 5.561-6.698 9.869-1.207 7.64 3.891 14.829 11.377 16.057 4.186.701 8.225-.626 11.205-3.231a13.61 13.61 0 0 1-9.087 1.703z" fill="#a98698"/><path opacity=".6" d="M18.181 5.235c-3.472-.576-6.846.225-9.604 2.004l-.098.1c1.059-.651 2.61-1.227 2.61-1.227-3.989 2.355-5.221 5.035-5.221 5.035 1.552-3.056 6.107-5.21 9.678-5.36s5.91.927 8.767 3.256c2.857 2.355 4.58 7.164 4.408 10.972-.148 3.807-2.118 6.889-2.118 6.889 1.354-1.779 2.167-3.081 2.684-4.409.098-.401.197-.802.246-1.227 1.231-7.615-3.842-14.804-11.352-16.032z" fill="url(#M)"/><path d="M29.065 18.912c0 7.34-5.861 13.301-13.076 13.301S2.889 26.252 2.889 18.912z" fill="url(#L)"/><path opacity=".36" d="M28.031 18.912c0 7.164-5.565 13.026-12.559 13.301h.517c7.215 0 13.076-5.962 13.076-13.301z" fill="url(#K)"/><path opacity=".49" d="M4.735 18.912H2.889c0 7.34 5.861 13.301 13.076 13.301.32 0 .616 0 .911-.025-6.772-.501-12.14-6.262-12.14-13.276z" fill="url(#J)"/><path d="M29.041 19.038c0-1.528-2.61-2.405-6.083-2.705-2.512-.2-5.048.05-7.954.952-2.512.751-4.777.626-6.427.426-3.669-.426-5.689-.476-5.689 1.328 0 2.605 5.22 5.862 13.051 4.734 3.965-.576 6.009-1.753 8.348-2.555 2.537-.852 4.753-.827 4.753-2.179z" fill="url(#I)"/><path d="M20.274 12.725c1.224 0 2.216-1.009 2.216-2.255s-.992-2.255-2.216-2.255-2.216 1.009-2.216 2.255.992 2.255 2.216 2.255zm3.619 1.678c.517 0 .936-.426.936-.952s-.419-.952-.936-.952-.936.426-.936.952.419.952.936.952z" fill="#fff"/><path opacity=".36" d="M27.243 8.667h-.049c-.148-.025-.246-.175-.222-.351.222-1.152 1.158-2.255 1.207-2.305.099-.125.296-.125.394-.025.123.1.123.301.025.401-.025.025-.886 1.052-1.083 2.054-.025.15-.148.225-.271.225z" fill="url(#H)"/><use xlink:href="#Q" opacity=".2" fill="#fff"/><use xlink:href="#R" opacity=".24" fill="url(#G)"/><g fill="#fff"><use xlink:href="#S" opacity=".3"/><use xlink:href="#Q" x="3.595" y="-0.351" opacity=".2"/></g><use xlink:href="#R" x="3.596" y="-0.351" opacity=".24" fill="url(#F)"/><g fill="#fff"><use xlink:href="#S" x="3.596" y="-0.35" opacity=".3"/><path opacity=".2" d="M16.9 30.76a.52.52 0 0 0 .517-.526.52.52 0 0 0-.517-.526.52.52 0 0 0-.517.526.52.52 0 0 0 .517.526z"/></g><path opacity=".24" d="M16.605 30.561c-.197-.2-.197-.551 0-.751.025-.025.074-.05.098-.075-.074.025-.123.075-.172.125-.197.2-.197.551 0 .751.172.175.419.201.64.075a.529.529 0 0 1-.566-.125z" fill="url(#E)"/><g fill="#fff"><use xlink:href="#T" opacity=".3"/><path opacity=".2" d="M20.077 30.385c.285 0 .517-.235.517-.526s-.232-.526-.517-.526-.517.236-.517.526a.52.52 0 0 0 .517.526z"/></g><path opacity=".24" d="M19.782 30.185c-.197-.2-.197-.551 0-.751.025-.025.074-.05.098-.075-.074.025-.123.075-.172.125-.197.2-.197.551 0 .751.172.175.419.2.64.075a.529.529 0 0 1-.566-.125z" fill="url(#D)"/><g fill="#fff"><use xlink:href="#T" x="3.176" y="-0.376" opacity=".3"/><use xlink:href="#U" opacity=".2"/></g><path opacity=".24" d="M11.508 28.807c-.443-.451-.443-1.177 0-1.628a.88.88 0 0 1 .246-.175c-.148.05-.271.15-.394.251-.443.451-.443 1.177 0 1.628.369.376.936.451 1.379.175-.419.175-.911.1-1.231-.251z" fill="url(#C)"/><g fill="#fff"><path opacity=".3" d="M12.542 27.73a.25.25 0 0 0 .246-.251c0-.138-.11-.25-.246-.25s-.246.112-.246.25a.25.25 0 0 0 .246.251z"/><use xlink:href="#U" x="10.121" y="-2.83" opacity=".2"/></g><path opacity=".24" d="M21.604 25.976c-.443-.451-.443-1.177 0-1.628.074-.075.148-.125.246-.175-.148.05-.271.15-.394.251-.443.451-.443 1.177 0 1.628.369.376.936.451 1.379.175a1.09 1.09 0 0 1-1.231-.251z" fill="url(#A)"/><path opacity=".3" d="M22.663 24.899a.249.249 0 0 0 .246-.251.249.249 0 0 0-.246-.251.249.249 0 0 0-.246.251.249.249 0 0 0 .246.251z" fill="#fff"/></svg>