<svg xmlns="http://www.w3.org/2000/svg" width="128" height="128" viewBox="0 0 33.867 33.867" xmlns:v="https://vecta.io/nano"><defs><linearGradient id="A" gradientUnits="userSpaceOnUse" x1="32.75" y1="11.761" x2="1.058" y2="11.761"><stop offset="0" stop-color="#5314f1"/><stop offset="1" stop-color="#04e2ff"/></linearGradient><linearGradient id="B" gradientUnits="userSpaceOnUse" x1="32.748" y1="23.121" x2="1.058" y2="23.121"><stop offset="0" stop-color="#ef18ac"/><stop offset="1" stop-color="#fad972"/></linearGradient></defs><path d="M8.702 16.188L2.177 19.17a1.82 1.82 0 0 0 0 3.356l16.219 7.177c.932.466 2.051.466 3.076 0l10.253-4.661c1.491-.652 1.398-2.703 0-3.356l-6.432-2.89-3.822 1.771c-.932.466-2.051.466-3.076 0z" fill="url(#B)" fill-rule="evenodd"/><path d="M12.616 4.164c.932-.466 2.051-.466 3.076 0l15.939 7.177a1.82 1.82 0 0 1 0 3.356l-10.253 4.661c-.932.466-2.051.466-3.076 0L2.177 12.273a1.82 1.82 0 0 1 0-3.356z" fill="url(#A)"/></svg>