<svg xmlns="http://www.w3.org/2000/svg" width="128" height="128" viewBox="0 0 33.867 33.867" xmlns:v="https://vecta.io/nano"><path d="M27.23 0H6.637v4.349H27.23zm0 15.545c0 1.565-.359 3.002-1.078 4.311-.719 1.283-1.822 2.322-3.31 3.118s-3.336 1.193-5.543 1.193h-4.08v9.7H6.637V6.846h10.662c2.155 0 3.977.372 5.466 1.116s2.604 1.771 3.349 3.079 1.116 2.81 1.116 4.503zm-10.431 3.387c1.257 0 2.194-.295 2.81-.885s.924-1.424.924-2.502-.308-1.912-.924-2.502-1.553-.885-2.81-.885h-3.58v6.774z" fill="#e50913"/></svg>