<svg xmlns="http://www.w3.org/2000/svg" width="128" height="128" viewBox="0 0 33.867 33.867" xmlns:v="https://vecta.io/nano"><circle cx="16.933" cy="16.933" r="16.933" fill="#7b3fe4"/><path d="M28.222 17.329v5.109c-.002.319-.086.631-.244.907a1.84 1.84 0 0 1-.659.668l-4.41 2.549a1.76 1.76 0 0 1-1.806 0l-4.41-2.549a1.84 1.84 0 0 1-.659-.668c-.158-.276-.242-.589-.244-.907v-1.434l2.258-1.315v2.492l3.951 2.301 3.951-2.301v-4.592l-3.951-2.301-9.257 5.381c-.276.156-.587.238-.903.238s-.627-.082-.903-.238l-4.41-2.56a1.84 1.84 0 0 1-.646-.671c-.154-.276-.236-.587-.236-.903v-5.109c.002-.319.086-.631.244-.907a1.84 1.84 0 0 1 .659-.668l4.41-2.549c.274-.162.586-.247.903-.247s.629.085.903.247l4.41 2.549c.274.162.501.392.659.668s.242.589.244.907v1.434l-2.272 1.306v-2.478l-3.951-2.301-3.951 2.301v4.586l3.951 2.301 9.257-5.381c.276-.156.587-.238.903-.238s.627.082.903.238l4.41 2.56a1.84 1.84 0 0 1 .654.668c.157.276.24.588.242.905z" fill="#fff"/></svg>