<svg xmlns="http://www.w3.org/2000/svg" width="128" height="128" xmlns:v="https://vecta.io/nano"><defs><linearGradient id="A" x1="117.12" y1="138.06" x2="7.109" y2="-12.812" gradientUnits="userSpaceOnUse"><stop offset="0" stop-color="#a726c1"/><stop offset=".88" stop-color="#803bdf"/><stop offset="1" stop-color="#7b3fe4"/></linearGradient></defs><path d="M32.965 87.155L2.605 69.628A5.23 5.23 0 0 1 0 65.116V30.056a5.231 5.231 0 0 1 2.605-4.512l30.36-17.528a5.231 5.231 0 0 1 5.209 0l30.36 17.527a5.23 5.23 0 0 1 2.605 4.512v62.65l21.289 12.288 21.29-12.288V68.121L92.429 55.833l-14.044 8.105V47.447l11.439-6.603a5.22 5.22 0 0 1 5.209 0l30.361 17.53A5.23 5.23 0 0 1 128 62.886v35.057a5.231 5.231 0 0 1-2.605 4.512l-30.36 17.53c-1.605.925-3.601.925-5.209 0l-30.36-17.527a5.231 5.231 0 0 1-2.605-4.512V35.297l-.384-.22-20.905-12.068L14.283 35.3v24.582l21.29 12.291 14.022-8.095v16.491l-11.417 6.595a5.24 5.24 0 0 1-5.209 0z" fill="url(#A)"/></svg>