<svg xmlns="http://www.w3.org/2000/svg" width="128" height="128" xmlns:v="https://vecta.io/nano"><defs><linearGradient id="A" x1="14.036" y1="100.431" x2="117.512" y2="24.98" gradientUnits="userSpaceOnUse"><stop offset="0" stop-color="#a726c1"/><stop offset=".88" stop-color="#803bdf"/><stop offset="1" stop-color="#7b3fe4"/></linearGradient></defs><path d="M93.192 85.78l28.557-16.486c1.51-.873 2.45-2.499 2.45-4.244V32.072a4.92 4.92 0 0 0-2.45-4.244L93.192 11.341a4.92 4.92 0 0 0-4.9 0L59.735 27.827c-1.51.873-2.45 2.499-2.45 4.244V91l-20.024 11.558L17.236 91V67.876l20.024-11.558 13.21 7.624V48.43l-10.76-6.211c-.742-.428-1.59-.653-2.45-.653s-1.708.225-2.45.653L6.252 58.708c-1.51.873-2.45 2.499-2.45 4.244v32.975a4.92 4.92 0 0 0 2.45 4.244l28.557 16.489c1.51.87 3.387.87 4.9 0l28.557-16.486a4.92 4.92 0 0 0 2.45-4.244V37.002l.361-.207 19.663-11.351 20.024 11.561v23.122L90.739 71.688 77.55 64.074v15.511l10.739 6.203c1.51.87 3.389.87 4.9 0z" fill="url(#A)"/></svg>