<svg xmlns="http://www.w3.org/2000/svg" width="128" height="128" xmlns:v="https://vecta.io/nano"><defs><linearGradient id="A" x1="22.896" x2="110.515" y1="64" y2="68.48" gradientUnits="userSpaceOnUse"><stop offset="0%" stop-color="#7543e3"/><stop offset="100%" stop-color="#582acb"/></linearGradient></defs><path d="M63.883 0c8.335 0 15.479 8.633 20.242 22.326l-5.953 1.786C74.301 12.8 69.241 5.953 63.883 5.953c-5.656 0-11.907 8.633-15.777 22.623a116.986 116.986 0 0 1 15.777 6.251h.893c2.381-1.488 4.763-2.381 7.144-3.274l.893-.298c7.144-2.977 13.991-4.763 20.242-5.953 13.395-2.084 22.921 0 26.791 6.847 3.87 6.251.893 15.777-7.74 26.195l-1.488 1.786-4.167-4.167c7.74-8.93 10.716-16.67 8.335-20.837s-10.121-5.656-20.837-3.87l-7.144 1.488a103.888 103.888 0 0 1 2.679 16.67 141.991 141.991 0 0 1 22.623 20.242c8.93 10.419 11.609 19.944 7.74 26.493-2.977 4.763-8.93 7.144-17.563 7.144a57.153 57.153 0 0 1-11.907-1.191l1.488-5.953 2.084.595c10.716 1.786 18.456.298 20.837-3.572 2.977-5.06-1.786-14.586-11.907-25.005l-3.572 2.977h-.298l-9.526 7.442-.595 5.358C85.613 110.14 76.087 128 63.883 128c-8.037 0-15.181-8.633-19.944-22.326l5.953-1.786c3.572 11.609 8.93 18.158 13.991 18.158 5.953 0 11.907-8.633 15.777-22.921a106.865 106.865 0 0 1-15.777-5.953l-6.251 2.977h-.893c-11.907 4.763-22.623 7.144-30.958 7.144-8.633 0-14.884-2.381-17.86-7.144-3.87-7.144 0-17.86 9.823-28.874l4.167 4.465c-8.037 8.93-11.312 16.967-8.93 21.433 2.977 4.763 13.693 5.953 27.981 2.084a116.093 116.093 0 0 1-2.381-16.67l-5.358-4.167c-16.67-12.8-26.791-26.195-26.791-36.316 0-2.381.595-4.465 1.786-6.549 3.87-6.847 14.884-8.93 29.47-5.953a92.279 92.279 0 0 0-1.488 5.953c-11.907-2.381-20.54-1.191-22.921 2.977-2.977 5.06 1.488 14.586 11.907 25.005A108.353 108.353 0 0 1 38.58 49.116l.595-5.358C42.153 17.86 51.976 0 63.883 0zm19.051 82.753l-4.465 2.977-1.488.595-5.358 2.977-.595.298a132.763 132.763 0 0 0 10.121 3.87 119.07 119.07 0 0 0 1.786-10.716zm-37.805 0a135.442 135.442 0 0 0 1.786 10.716 109.544 109.544 0 0 0 10.121-3.87 172.651 172.651 0 0 1-5.953-2.977l-.595-.298a181.581 181.581 0 0 1-5.358-3.572zm18.753-41.079a161.637 161.637 0 0 0-19.647 11.312 161.637 161.637 0 0 0 0 22.623 142.884 142.884 0 0 0 19.647 11.312l.595-.298a154.791 154.791 0 0 0 19.051-11.014 162.233 162.233 0 0 0 0-22.623 153.302 153.302 0 0 0-19.647-11.312zm0 14.884a7.74 7.74 0 1 1-7.74 7.74c0-4.167 3.572-7.74 7.74-7.74zm25.898.893v13.693l4.465-3.572.595-.298 3.572-2.977a118.772 118.772 0 0 0-8.633-6.847zm-51.795 0a129.191 129.191 0 0 0-8.335 6.847 120.26 120.26 0 0 0 8.335 6.847v-6.847-1.786zm43.163-22.623a94.958 94.958 0 0 0-9.823 3.572h-.298l5.953 3.572h.298l5.656 3.572a127.107 127.107 0 0 0-1.786-10.716zm-34.233 0a118.772 118.772 0 0 0-1.786 10.716l5.656-3.572 5.953-3.274a132.763 132.763 0 0 0-9.823-3.87z" fill="url(#A)" fill-rule="evenodd"/></svg>