<svg xmlns="http://www.w3.org/2000/svg" width="128" height="128" xmlns:v="https://vecta.io/nano"><defs><linearGradient id="A" x1="462.873" y1="179.38" x2="235.696" y2="520.359" gradientUnits="userSpaceOnUse"><stop stop-color="#00eaff" offset="0%"/><stop stop-color="#0080ff" offset="25.2530882%"/><stop stop-color="#8000ff" offset="49.7394282%"/><stop stop-color="#e619e6" offset="74.9912298%"/><stop stop-color="red" offset="99.9136118%"/></linearGradient></defs><path d="M565.599 372.951c0 2.051-.475 4.001-1.375 5.694l-92.665 160.5a22 22 0 0 1-19.053 11H246.593a22 22 0 0 1-19.053-11L134.867 378.63c-.898-1.69-1.367-3.63-1.367-5.679a12.03 12.03 0 0 1 12.028-12.028h101.671l25.766 43.765.158.262a12.03 12.03 0 0 0 16.31 4.002h0l.292-.177a12.03 12.03 0 0 0 5.251-7.176h0l32.831-126.92 28.191 204.334.043.285a12.03 12.03 0 0 0 13.517 9.987h0l.295-.044a12.03 12.03 0 0 0 9.707-8.859h0l39.574-152.984 16.249 27.6.161.266a12.03 12.03 0 0 0 10.204 5.66h0H553.57h0a12.03 12.03 0 0 1 12.028 12.028zM452.506 149.494a22 22 0 0 1 19.053 11l92.671 160.508c.896 1.691 1.37 3.64 1.37 5.687a12.03 12.03 0 0 1-12.028 12.028H451.566L425.8 294.951l-.177-.292a12.03 12.03 0 0 0-7.176-5.251h0l-.28-.069a12.03 12.03 0 0 0-14.378 8.702h0L370.957 424.96l-28.19-204.333-.044-.295a12.03 12.03 0 0 0-23.516-1.074h0l-39.575 152.983-16.248-27.599-.161-.266a12.03 12.03 0 0 0-10.204-5.66h0-107.49 0a12.03 12.03 0 0 1-12.028-12.028c0-2.031.456-3.952 1.338-5.632l92.703-160.562a22 22 0 0 1 19.053-11z" fill="url(#A)" transform="matrix(.296229 0 0 .296229 -39.546572 -39.626568)" fill-rule="evenodd"/></svg>