<svg xmlns="http://www.w3.org/2000/svg" width="128" height="128" fill="none" xmlns:v="https://vecta.io/nano"><path fill-rule="evenodd" d="M123.259 126.629c-2.629 0-4.741-2.097-4.741-4.708s2.111-4.708 4.741-4.708S128 119.31 128 121.921s-2.111 4.708-4.741 4.708zm-2.39-50.918c-2.629 0-4.781-2.137-4.781-4.748 0-2.651 2.151-4.747 4.781-4.747s4.781 2.136 4.781 4.747-2.151 4.748-4.781 4.748zm0-14.282c-2.629 0-4.781-2.137-4.781-4.748 0-2.651 2.151-4.747 4.781-4.747s4.781 2.136 4.781 4.747-2.151 4.748-4.781 4.748zm-9.681-8.467v8.704h-9.681v-9.97-.712c0-1.226.478-2.453 1.434-3.363l11.314-11.157c1.474-1.464 3.785-1.978 5.657-1.029 3.107 1.582 3.545 5.46 1.275 7.675zm8.725 39.722c-1.872.95-4.183.435-5.657-1.029l-11.314-11.157c-.956-.91-1.434-2.137-1.434-3.363v-.712-9.97h9.681v8.704l9.999 9.851c2.271 2.215 1.833 6.093-1.275 7.675zm-23.226-46.17v17.21 17.21l27.488 27.299c1.474 1.464 1.992 3.758 1.036 5.578-1.593 3.126-5.537 3.521-7.808 1.306L88.441 86.314a4.78 4.78 0 0 1-1.434-3.402v-1.978-17.21-17.21-1.978a4.78 4.78 0 0 1 1.434-3.402l17.728-17.645c1.514-1.503 3.825-2.018 5.697-1.029 3.068 1.622 3.506 5.499 1.275 7.715zm-11.155-8.665c-.956.95-2.191 1.424-3.426 1.424h-1.992-17.29-17.29-1.992c-1.235 0-2.47-.475-3.426-1.424L22.349 20.164c-1.474-1.464-1.992-3.759-1.036-5.578 1.594-3.086 5.538-3.521 7.768-1.306l16.413 16.34h17.29 17.29l16.294-16.221c1.514-1.503 3.825-2.018 5.697-1.029 3.068 1.622 3.506 5.499 1.275 7.715zm-5.259-14.441c-.956.949-2.191 1.424-3.426 1.424h-.717-10.119v-9.614h8.844l9.88-9.812c1.514-1.503 3.824-2.018 5.697-1.029C93.5 6 93.938 9.877 91.707 12.093zM69.996 10.866c-2.629 0-4.781-2.136-4.781-4.748 0-2.651 2.151-4.748 4.781-4.748s4.781 2.136 4.781 4.748c.04 2.611-2.111 4.748-4.781 4.748zm-19.64 13.966c-1.235 0-2.47-.475-3.426-1.424L35.615 12.132c-1.474-1.464-1.992-3.759-1.036-5.578 1.594-3.086 5.538-3.521 7.768-1.306l9.999 9.93h8.844v9.614H51.073h-.717zm5.259-13.966c-2.629 0-4.781-2.136-4.781-4.748 0-2.651 2.151-4.748 4.781-4.748s4.781 2.136 4.781 4.748c.04 2.611-2.111 4.748-4.781 4.748zM38.603 44.574v1.978 17.21 17.21 1.978a4.78 4.78 0 0 1-1.434 3.402l-17.728 17.645c-1.514 1.503-3.824 2.018-5.697 1.029-3.068-1.622-3.506-5.499-1.275-7.715l16.453-16.34v-17.21-17.21L12.549 30.332c-1.474-1.464-1.992-3.758-1.036-5.579 1.594-3.125 5.537-3.521 7.808-1.305l17.848 17.764c.956.91 1.434 2.137 1.434 3.363zm-15.935 3.046c.956.91 1.434 2.136 1.434 3.363v.712 9.97h-9.72v-8.704l-9.88-9.733c-1.514-1.464-2.032-3.758-1.036-5.618a4.89 4.89 0 0 1 7.768-1.227zM4.781 51.894c2.629 0 4.781 2.136 4.781 4.747 0 2.651-2.151 4.748-4.781 4.748S0 59.252 0 56.641s2.151-4.747 4.781-4.747zm0 14.282c2.629 0 4.781 2.136 4.781 4.747 0 2.651-2.151 4.748-4.781 4.748S0 73.535 0 70.924s2.151-4.747 4.781-4.747zm9.601 8.981v-8.704h9.681v9.97.712c0 1.226-.478 2.453-1.434 3.363L11.314 91.655c-1.474 1.464-3.785 1.978-5.657 1.029-3.107-1.582-3.546-5.46-1.275-7.675zm25.696 13.57c.956-.95 2.191-1.424 3.426-1.424h1.992 17.29 17.29 1.992c1.235 0 2.47.475 3.426 1.424l28.843 28.683c1.474 1.464 1.992 3.758 1.036 5.579-1.593 3.086-5.537 3.521-7.768 1.305L80.075 96.917h-17.29-17.29l-16.294 16.221c-1.514 1.503-3.825 2.018-5.697 1.029-3.068-1.622-3.506-5.499-1.275-7.715zm6.852 14.401c.956-.949 2.191-1.424 3.426-1.424h.717 10.119v9.614h-8.844l-9.88 9.812c-1.514 1.503-3.824 2.018-5.697 1.029-3.068-1.622-3.506-5.499-1.275-7.715zm8.685 13.61c2.629 0 4.781 2.136 4.781 4.747 0 2.651-2.151 4.748-4.781 4.748s-4.781-2.137-4.781-4.748 2.151-4.747 4.781-4.747zm21.234-14.995c1.235 0 2.47.475 3.426 1.424l11.354 11.276c1.474 1.464 1.992 3.758 1.036 5.578-1.593 3.086-5.537 3.521-7.768 1.306l-9.999-9.93h-8.844v-9.614H76.17h.677zm-6.852 14.995c2.629 0 4.781 2.136 4.781 4.747 0 2.651-2.151 4.748-4.781 4.748s-4.781-2.137-4.781-4.748 2.151-4.747 4.781-4.747z" fill="#fff"/></svg>