<svg xmlns="http://www.w3.org/2000/svg" xmlns:xlink="http://www.w3.org/1999/xlink" width="128" height="128" xmlns:v="https://vecta.io/nano"><defs><linearGradient id="A" x1="387.904" y1="142.844" x2="369.095" y2="156.559" xlink:href="#N"><stop offset="0" stop-color="#c8c8c8"/><stop offset="1" stop-color="#b8b8b8"/></linearGradient><linearGradient id="B" x1="361.007" y1="163.451" x2="386.085" y2="148.561" xlink:href="#N"><stop offset="0" stop-color="#6b6a6b"/></linearGradient><linearGradient id="C" x1="338.5" y1="173.082" x2="374.157" y2="158.192" xlink:href="#N"><stop offset=".005" stop-color="#030303"/><stop offset="1" stop-color="#494949"/></linearGradient><linearGradient id="D" x1="323.943" y1="165.476" x2="364.542" y2="178.683" xlink:href="#N"><stop offset="0" stop-color="#686868"/><stop offset="1" stop-color="#282828"/></linearGradient><linearGradient id="E" x1="364.941" y1="146.623" x2="368.821" y2="156.937" xlink:href="#N"><stop offset="0" stop-color="#f0eff0"/><stop offset="1" stop-color="#dcdbdc"/></linearGradient><linearGradient id="F" x1="352.432" y1="123.166" x2="365.571" y2="138.729" xlink:href="#N"><stop offset="0" stop-color="#c4c4c4"/><stop offset=".995" stop-color="#8e8e8e"/></linearGradient><linearGradient id="G" x1="169.936" y1="133.549" x2="348.535" y2="31.14" xlink:href="#N"><stop offset="0" stop-color="#bcbcbc"/><stop offset=".995" stop-color="#989898"/></linearGradient><linearGradient id="H" x1="183.704" y1="102.323" x2="346.797" y2="66.018" xlink:href="#N"><stop offset="0" stop-color="#c8c8c8"/><stop offset="1" stop-color="#b8b8b8"/></linearGradient><linearGradient id="I" x1="190.636" y1="114.256" x2="259.022" y2="114.256" xlink:href="#N"><stop offset="0" stop-color="#919191"/><stop offset="1" stop-color="#323232"/></linearGradient><linearGradient id="J" x1="211.349" y1="123.913" x2="336.656" y2="78.749" xlink:href="#N"><stop offset=".005" stop-color="#030303"/><stop offset="1" stop-color="#494949"/></linearGradient><linearGradient id="K" x1="277.104" y1="175.806" x2="245.416" y2="138.915" xlink:href="#N"><stop offset="0" stop-color="#c4c4c4"/><stop offset=".995" stop-color="#8e8e8e"/></linearGradient><linearGradient id="L" x1="338.735" y1="83.838" x2="285.321" y2="87.884" xlink:href="#N"><stop offset="0" stop-color="#919191"/><stop offset="1" stop-color="#323232"/></linearGradient><linearGradient id="M" x1="289.836" y1="79.03" x2="300.186" y2="105.94" xlink:href="#N"><stop offset="0" stop-color="#f0eff0"/><stop offset="1" stop-color="#dcdbdc"/></linearGradient><linearGradient id="N" gradientUnits="userSpaceOnUse"/></defs><g fill-rule="evenodd" transform="matrix(.570603 0 0 .570603 -97.002549 8.697706)"><path d="M371.512 117.413c13.448 6.26 22.812 20.234 22.812 36.45 0 22.067-17.338 39.983-38.693 39.983-12.345 0-23.348-5.988-30.427-15.312-2.312-3.368-3.859-10.427 2.03-17.606 3.297-4.018 10.909-8.721 21.71-13.841 8.379-3.916 16.63-8.586 21.905-14.095 1.973-2.06 3.275-4.378 3.948-6.585.985-3.23-.082-7.377-3.285-8.994z" fill="#949494"/><path d="M374.064 128.32c11.374 7.452 12.303 18.894 12.73 25.612.453 7.13-4.414 27.955-25.917 31.237-21.056 3.213-30.767-12.632-34.039-23.745.128-.165.26-.33.397-.496 3.296-4.018 10.908-8.721 21.709-13.841 8.379-3.916 16.63-8.586 21.905-14.095a17.295 17.295 0 0 0 3.215-4.673z" fill="url(#A)"/><path d="M361.26 140.512c.45.745.876 1.408 1.322 1.915 8.842 10.047 13.738 1.153 19.232 6.752 2.799 2.853 4.312 5.046 4.84 8.341-1.038 8.878-7.196 24.812-25.777 27.649-21.056 3.213-30.767-12.632-34.039-23.745.128-.165.26-.33.397-.496 3.296-4.018 10.908-8.721 21.709-13.841 4.263-1.992 8.493-4.18 12.315-6.575z" fill="url(#B)"/><path d="M358.032 142.435c4.047 2.37 8.35 6.168 12.464 13.648 3.57 6.49 7.922 10.375 12.884 12.466-3.582 7.383-10.413 14.774-22.503 16.62-21.056 3.213-30.767-12.632-34.039-23.745.128-.165.26-.33.397-.496 3.296-4.018 10.908-8.721 21.709-13.841 3.094-1.446 6.171-2.995 9.088-4.652z" fill="url(#C)"/><path d="M331.907 156.707c3.596 2.77 4.106 5.657 5.543 12.39 1.572 7.371 14.493 20.202 32.613 13.23-2.658 1.319-5.704 2.31-9.186 2.842-21.056 3.213-30.767-12.632-34.039-23.745.128-.165.26-.33.397-.496 1.095-1.335 2.666-2.745 4.672-4.221z" fill="url(#D)"/><path d="M356.268 145.687c3.516-2.158 4.751-.303 5.358.405s-.758 4.852-3.589 6.268-5.105.859-5.914 0 1.264-4.903 4.145-6.673z" fill="#f1f0f1"/><path d="M364.709 146.9c1.713-1.383 4.7 2.275 5.156 5.46s-.96 4.6-2.123 4.903-3.178-2.62-3.69-5.763c-.354-2.173-.657-3.538.657-4.6z" fill="url(#E)"/><path d="M348.32 147.39l-.004-.006c.289-8.159 2.558-16.793 5.88-23.041 3.27-6.154 11.252-9.328 16.688-7.205l.628.275c3.203 1.617 4.27 5.764 3.285 8.994-.673 2.207-1.975 4.524-3.948 6.585-5.275 5.51-13.526 10.18-21.905 14.095l-.624.304z" fill="url(#F)"/><path d="M228.956 191.162C194.2 175.505 170 140.552 170 99.992c0-55.192 44.809-100 100-100 31.906 0 60.343 14.975 78.64 38.297 5.975 8.422 9.972 26.081-5.247 44.035-8.52 10.051-28.193 21.813-56.109 34.618-21.655 9.794-42.979 21.474-56.614 35.254-5.1 5.153-8.464 10.952-10.203 16.471-2.545 8.077.21 18.45 8.49 22.495z" fill="url(#G)"/><path d="M221.907 164.87c-10.544-7.15-18.467-18.026-27.04-38.528-12.284-29.374-3.427-104.777 72.364-112.954 34.5-3.721 71.238 26.308 80.248 63.444a52.367 52.367 0 0 1-4.086 5.492c-8.52 10.051-28.193 21.813-56.109 34.618-21.655 9.794-42.979 21.474-56.614 35.254-3.94 3.982-6.845 8.349-8.763 12.674z" fill="url(#H)"/><path d="M190.913 110.34c3.688-16.409 12.648-32.237 32.259-40.875 4.778-2.106 29.025-8.418 47.426-4.645 17.865 3.663 17.777 15.889 34.471 15.937 12.076.036 20.361-.581 24.463 1.653 2.628 1.432 5.37 3.46 7.957 5.705-10.233 8.678-27.49 18.407-50.205 28.827-21.655 9.794-42.979 21.474-56.614 35.254-3.94 3.982-6.845 8.349-8.763 12.674-10.544-7.15-18.467-18.026-27.04-38.528-1.85-4.421-3.219-9.884-3.954-16.002z" fill="url(#I)"/><path d="M277.064 66.773c11.694 4.855 13.617 13.942 28.005 13.984 12.076.036 20.361-.581 24.463 1.653 2.628 1.432 5.37 3.46 7.957 5.705-10.233 8.678-27.49 18.407-50.205 28.827-21.655 9.794-42.979 21.474-56.614 35.254a45.648 45.648 0 0 0-3.394 3.834c-8.955-13.137-18.385-36.34-5.914-57.471 13.18-22.333 32.413-31.28 55.702-31.786z" fill="url(#J)"/><path d="M288.897 116.181l.01.018c-.747 20.408-6.612 42.001-15.195 57.63-8.453 15.392-29.084 23.329-43.133 18.02l-1.623-.687c-8.278-4.046-11.034-14.418-8.49-22.495 1.74-5.52 5.105-11.318 10.204-16.471 13.635-13.78 34.959-25.46 56.614-35.254l1.613-.76z" fill="url(#K)"/><path d="M257.09 94.903c-3.945-5.92 2.137-14.425 8.762-17.31s12.93-3.099 16.028 0 1.71 12.394-7.48 17.31-14.318 4.487-17.31 0z" fill="#f1f0f1"/><path d="M278.106 67.228c10.78 4.943 13.012 13.488 26.963 13.53 12.076.035 20.361-.582 24.463 1.652 2.628 1.432 5.37 3.46 7.957 5.705-7.06 5.988-17.465 12.476-30.7 19.346-9.163-17.153-19.376-25.35-28.683-40.233z" fill="url(#L)"/><path d="M290.321 80.799c3.843-1.398 9.082 2.243 11.753 8.654s3.28 14.308-4.808 16.562c-6.518 1.817-8.655-8.655-9.296-13.25s-1.175-10.684 2.351-11.966z" fill="url(#M)"/></g></svg>