<svg xmlns="http://www.w3.org/2000/svg" width="128" height="128" viewBox="0 0 33.867 33.867" xmlns:v="https://vecta.io/nano"><circle cx="16.933" cy="16.933" r="16.164" fill="#be1510" stroke="#fff" stroke-width="1.539" stroke-linejoin="bevel" paint-order="stroke fill markers"/><path d="M13.883 26.258c-.049-.032-.35-.472-.764-1.116l-.314-.484-.358-.551-1.132-1.734c-.079-.119-.144-.23-.144-.249s-.009-.033-.02-.033-.056-.057-.099-.128l-.262-.404-.183-.3c0-.013-.01-.028-.021-.033s-.087-.111-.168-.237l-.335-.515-.618-.954-.423-.651c-.433-.659-.465-.779-.232-.86.122-.042 2.853-.041 2.934.001s.059.015.599.816l.678 1.001.274.409.186.275.409.599.501.739.627.927.543.801c.069.101.125.193.125.206s.01.027.022.032c.021.008.221.3 1.125 1.641.385.571.408.63.297.759l-.06.07-1.563.005c-1.326.004-1.572-.001-1.622-.034zm5.756-.017c-.054-.038-.25-.325-.986-1.448l-1.007-1.531-.262-.403-.234-.354a11.13 11.13 0 0 1-.268-.403l-.62-.949-.537-.819-.419-.638c-.291-.439-.276-.372-.157-.716.072-.208.255-.586.309-.64a.48.48 0 0 0 .069-.094 2.86 2.86 0 0 1 .602-.625c.416-.265.963-.3 1.572-.103.766.248.995.29 1.462.268.919-.043 1.273-.43 1.158-1.268l-.075-.739c.007-.059.038-.117.083-.156l.184-.158a.54.54 0 0 0 .185-.578c-.033-.126-.031-.134.042-.225.168-.211.166-.333-.007-.625-.333-.561-.326-.653.082-1.09.297-.318.407-.505.407-.688 0-.164-.039-.219-.337-.469l-.523-.45c-.495-.437-.732-.771-.848-1.189-.086-.313-.087-1.023-.001-1.237a2.11 2.11 0 0 0 .15-.716v-.163l.12.016c.309.042 1.632.577 1.707.689.007.011.058.044.113.073.54.288 1.528 1.235 1.765 1.692.017.032.045.075.064.095s.056.079.084.13l.312.616a.86.86 0 0 0 .063.17c.035.077.09.23.123.341l.084.269c.192.541.281 2.394.15 3.13-.187 1.047-.446 1.687-1.03 2.539-.457.666-1.267 1.35-2.153 1.817-.422.222-.427.199.284 1.269l1.222 1.845.667 1.008.443.665.517.782c.56.844.583.915.343 1.085-.064.045-4.834.024-4.9-.022zM3.713 22.358c-.01-.016-.012-.034-.005-.041s.02.006.029.029c.018.047.003.056-.024.013zm10.904-3.714l-.934-1.446-.164-.249a1.56 1.56 0 0 1-.105-.152l-.518-.792-.812-1.223c-.017-.016-.323-.478-.871-1.317l-1.555-2.364-.609-.928c-.008-.015-.094-.148-.191-.296l-.986-1.503-.166-.247c-.057-.066-.032-.234.05-.331l.078-.093 4.456-.008 5.965.067c.133.051-.34.681-.685.914l-.165.12c-.023.03-.599.309-.712.345l-.202.069c-.052.019-.233.073-.403.12-.702.193-1.483.53-2.037.878-1.485.934-2.047 2.477-1.516 4.158l.088.242c.011.015.029.056.04.092.124.402.567.797.913.812.206.009.269-.046.107-.095-.394-.118-.675-.462-.806-.985-.37-1.48-.031-2.662 1.001-3.495.192-.155.711-.509.746-.509.01 0 .05-.022.089-.049s.138-.077.219-.111l.363-.165a11.86 11.86 0 0 1 1.128-.426l.242-.082.275-.117c.428-.181.928-.535 1.14-.807l.147-.187c.102-.125.231-.354.286-.508.07-.196.027-.188.523-.102.441.076.426.062.371.352-.098.512-.37.986-.757 1.32l-.17.149c-.037.033-.106.079-.153.101a.93.93 0 0 0-.161.103c-.102.085-.415.251-.787.419-.447.202-.807.388-1.075.558l-.578.388c-1.096.839-1.619 1.665-1.734 2.735a4.06 4.06 0 0 0 .203 1.491l.093.24c.265.734.984 1.491 1.507 1.587.178.033.175.046-.054.274-.119.118-.216.228-.216.244s-.01.032-.023.037c-.089.035-.392.597-.5.929-.096.294-.077.302-.383-.162zm15.526-.798c0-.037.006-.052.014-.034s.008.049 0 .067-.014.003-.014-.034zM5.716 7.369c0-.014.012-.033.027-.042s.02.001.011.025c-.018.047-.037.055-.037.016zm5.772-4.023c.019-.008.043-.007.052.002s-.007.015-.035.014-.038-.008-.016-.016z"/></svg>