<svg xmlns="http://www.w3.org/2000/svg" width="128" height="128" fill="none" xmlns:v="https://vecta.io/nano"><script/><circle cx="64" cy="64" r="64" fill="url(#A)"/><g fill="#fff"><path fill-rule="evenodd" d="M64 122.994c32.582 0 58.994-26.573 58.994-59.352S96.582 4.291 64 4.291 5.006 30.863 5.006 63.643 31.418 122.994 64 122.994zm0-5.006c29.817 0 53.989-24.332 53.989-54.346S93.817 9.296 64 9.296 10.011 33.628 10.011 63.643 34.183 117.989 64 117.989z"/><path d="M58.542 50.532v.048L54.06 26.935l-3.718-1.192-2.336 3.146zm2.431-9.867l1.907 9.153 2.05-9.296-2.002-1.335zm14.158 1.62l-2.431.238-2.86 9.058 6.293-7.103zm20.786 1.907V40.33l-3.766-1.192L74.512 55.68zm-43.096 9.773l-5.244-7.866.095.191-.095-.191-2.384.381-.381 2.384zm33.752 8.009l-9.391 1.859 9.391 2.05 1.43-1.955zM48.626 63.88l-24.122-3.051-2.336 3.146 2.336 3.146zm-8.915 5.245l-.715 2.241 1.955 1.43 8.343-4.672zm2.765 6.626l-.095 2.384 2.288.81 6.674-7.008zm12.013-.572l-7.103 6.245.62 2.288 2.431.095zm8.438 2.765l-1.907 9.248 1.955 1.383 1.955-1.43zm33.037 5.625L74.512 72.175l17.734 16.447 3.718-1.192zm-23.645 1.764l-4.815-8.057 1.096 9.248 2.288.715zm-13.73-8.057l-10.44 21.691 2.336 3.146 3.719-1.192z"/></g><defs><linearGradient id="A" x1="33.609" y1="120.134" x2="82.592" y2="0" gradientUnits="userSpaceOnUse"><stop stop-color="#3fad6c"/><stop offset="1" stop-color="#6ec2b7"/></linearGradient></defs></svg>