<svg xmlns="http://www.w3.org/2000/svg" width="128" height="128" fill="none" xmlns:v="https://vecta.io/nano"><path d="M128 63.861c0-4.183-18.405-8.645-44.061-10.039 15.338-1.394 25.656-4.183 25.656-6.972 0-3.346-15.059-6.693-35.137-7.808 7.529-.837 12.828-2.51 12.828-4.462 0-2.231-10.318-5.02-23.425-5.02-12.828 0-23.425 2.51-23.425 5.02 0 2.231 4.741 3.625 11.991 4.462-19.521.837-34.301 4.183-34.301 7.529 0 2.789 10.318 5.577 25.377 6.972C18.405 55.216 0 59.399 0 63.861c0 4.741 18.126 8.645 43.224 10.318-14.78 1.394-25.098 4.183-25.098 6.972 0 3.625 14.501 6.693 34.301 7.808-6.972.837-11.991 2.231-11.991 4.462s10.318 5.019 23.425 5.019c12.828 0 23.425-2.789 23.425-5.019 0-1.952-5.299-3.625-12.828-4.462 20.079-.836 35.137-4.462 35.137-7.808 0-2.789-10.318-5.577-25.377-6.972C109.595 72.506 128 68.323 128 63.861zM46.85 51.312c.279 0 .279-.279.279-.279l.279-.279 13.386-7.808c.837-.558 1.952-.837 3.068-.837s2.231.279 3.067.837l13.386 7.529c1.116.558 1.952 1.673 2.231 3.068 0 .279.279 1.115 0 1.394h-.279-1.115-1.394c-.837 0-1.673-.279-2.51-.279-1.115 0-2.231-.279-3.346-.279-1.673-.279-3.347-.279-5.02-.558-1.952-.279-3.904-.558-5.856-.558-1.952-.279-3.904-.558-5.856-.558-1.673-.279-3.346-.279-5.019-.558-1.115 0-2.231-.279-3.346-.279h-.837-.279c-.279 0-.279 0-.558-.279-.279 0-.279 0-.279-.279zm35.695 23.425s0 .279-.279.279v.279c-.558.558-.836 1.116-1.673 1.673l-13.665 7.808c-.836.558-1.952.837-3.067.837s-2.231-.279-3.068-.837l-11.991-6.972c-.279 0-.279-.279-.279-.279-.279-.279-.279-.279-.279-.558.279-.558 1.115-.558 1.115-.558h.837.279c.558 0 .836 0 1.394-.279.558 0 .837 0 1.394-.279 1.673-.279 3.347-.558 5.02-.558 1.673-.279 3.346-.279 4.741-.558 1.673-.279 3.347-.279 4.741-.279 1.673 0 3.067-.279 4.462-.279h4.462.558.558 3.346.558.279c.558 0 .837.279.837.279-.279 0-.279 0-.279.279zm.837-7.53c0 1.673 0 1.673-3.346 2.231l-2.231.279h-.837-.836c-5.578.558-11.434 1.116-17.011 1.394-2.51.279-5.019.279-7.529.279h-3.625-1.673c-.558 0-1.115.279-1.394-.279-.279-.279-.279-.836-.279-1.394V58.283c0-1.673.558-1.952 3.625-2.231h1.952c9.481 0 19.8 1.394 32.07 4.462h.279c.558.279.837 0 .837 1.673z" fill="url(#A)"/><defs><linearGradient id="A" x1="106.887" y1="33.693" x2="25.951" y2="90.504" gradientUnits="userSpaceOnUse"><stop offset=".04" stop-color="#5ff19d"/><stop offset=".205" stop-color="#59eea3"/><stop offset=".427" stop-color="#49e5b4"/><stop offset=".681" stop-color="#2fd6d0"/><stop offset=".957" stop-color="#0ac2f7"/><stop offset="1" stop-color="#04befe"/></linearGradient></defs></svg>