<?xml version="1.0" encoding="UTF-8" standalone="no"?>
<svg
   id="Layer_1"
   data-name="Layer 1"
   viewBox="0 0 128 128"
   width="128"
   height="128"
   version="1.1"
   sodipodi:docname="Rollkit.svg"
   inkscape:export-filename="..\transparentSVGs\rollkit.png"
   inkscape:export-xdpi="96"
   inkscape:export-ydpi="96"
   xmlns:inkscape="http://www.inkscape.org/namespaces/inkscape"
   xmlns:sodipodi="http://sodipodi.sourceforge.net/DTD/sodipodi-0.dtd"
   xmlns="http://www.w3.org/2000/svg"
   xmlns:svg="http://www.w3.org/2000/svg">
  <sodipodi:namedview
     id="namedview1743"
     pagecolor="#ffffff"
     bordercolor="#000000"
     borderopacity="0.25"
     inkscape:showpageshadow="2"
     inkscape:pageopacity="0.0"
     inkscape:pagecheckerboard="0"
     inkscape:deskcolor="#d1d1d1"
     showgrid="false" />
  <defs
     id="defs1718">
    <style
       id="style1716">
      .cls-1 {
        fill: #fff;
      }
    </style>
  </defs>
  <circle
     style="fill:#ffffff;fill-opacity:1;stroke-width:2;stroke-linecap:square;stroke-miterlimit:3.2;paint-order:markers fill stroke"
     id="path3004"
     cx="64"
     cy="64"
     r="64" />
  <path
     class="cls-1"
     d="m 107.02066,67.070242 c 1.396,-1.378582 2.28561,-3.385488 1.74562,-6.055557 -0.45413,-2.233352 -2.33786,-4.100907 -4.5202,-4.309934 -1.44826,-0.139351 -2.67007,0.243865 -3.99639,0.941865 0,0 -3.455168,-2.006906 -8.149561,-4.74665 4.379609,-2.548137 8.550191,-4.955678 11.778911,-6.823233 0.75025,-0.436716 2.02432,-1.308905 3.14162,-2.40754 1.396,-1.378582 2.28561,-3.385488 1.74562,-6.055557 -0.45413,-2.233352 -2.33786,-4.100907 -4.5202,-4.309934 -1.44826,-0.139351 -2.67007,0.243865 -3.99639,0.941865 0,0 -33.574936,-19.544006 -33.97557,-19.771696 -0.419298,-0.226446 -0.819933,-0.436717 -1.343744,-0.471555 -0.593487,-0.03484 -1.134717,0.330959 -1.57019,0.576068 -14.081937,8.203058 -30.154605,17.555764 -42.264474,24.588023 -0.367041,0.209026 -0.715419,0.436716 -1.065041,0.663162 -0.506393,0.330959 -0.924446,0.767676 -0.924446,1.378582 0,0.610905 0.419297,0.994121 0.767675,1.256649 0.33096,0.226446 0.471555,0.31354 1.169555,0.715419 2.687488,1.57019 9.51072,5.531745 16.682331,9.702328 -5.951043,3.455163 -11.639559,6.770975 -16.647493,9.684909 -0.367041,0.209027 -0.715419,0.436716 -1.065041,0.663162 -0.506393,0.330959 -0.924446,0.767676 -0.924446,1.378582 0,0.610905 0.419297,0.994121 0.767676,1.256649 0.330959,0.226446 0.471554,0.31354 1.169554,0.715419 2.687488,1.57019 9.51072,5.531745 16.682331,9.702328 -5.951043,3.455163 -11.639559,6.770975 -16.647493,9.684909 -0.367041,0.209027 -0.715419,0.436716 -1.065041,0.663162 -0.506393,0.330959 -0.924446,0.767676 -0.924446,1.378582 0,0.610905 0.419298,0.994121 0.767676,1.256649 0.330959,0.226446 0.471554,0.31354 1.169554,0.715419 5.46207,3.176461 27.728402,16.123683 35.843122,20.870333 0.802513,0.47155 2.495879,1.44826 3.368069,1.85014 1.639865,0.76767 3.733865,1.43083 5.479488,1.27406 2.530717,-0.20902 4.309934,-1.41342 6.666462,-2.792 8.236652,-4.7989 23.086265,-13.45361 31.515772,-18.323437 0.75025,-0.436717 2.02432,-1.308906 3.14162,-2.407541 1.396,-1.378582 2.28561,-3.385488 1.74562,-6.055557 -0.45413,-2.233352 -2.33786,-4.100907 -4.5202,-4.309934 -1.44826,-0.139351 -2.67007,0.243865 -3.9964,0.941865 0,0 -3.455159,-2.006906 -8.149553,-4.74665 4.379609,-2.548136 8.550193,-4.955677 11.778913,-6.823232 0.73283,-0.401879 2.0069,-1.274069 3.14162,-2.390122 z M 23.241969,41.208151 c 0.01742,-0.419298 0.209027,-0.628325 0.506393,-0.802514 L 63.831741,17.091683 c 0.663162,-0.38446 1.500514,-0.38446 2.163676,0 L 97.91182,35.641568 c 0,0 -23.348792,13.594208 -31.968659,18.584723 -0.698001,0.401879 -2.024325,1.23923 -2.513299,1.657284 -0.628325,0.523811 -1.08246,1.204392 -1.308906,2.041744 -0.436717,1.70954 0.349622,3.035865 1.274068,3.559676 1.378582,0.767676 2.478461,0.209027 2.461042,-0.488973 -1.028959,-0.38446 -1.274068,-1.204393 -1.134717,-2.059163 0.139351,-0.750257 0.715419,-1.326325 1.639865,-1.465676 1.361163,-0.209027 2.600393,0.645744 2.931352,2.407541 0.33096,1.709541 -0.31354,3.176461 -1.430838,3.996393 C 65.57612,65.54982 62.591266,64.677631 60.532104,63.473239 58.64713,62.373359 30.831633,46.197422 23.764536,42.079096 23.468415,41.887488 23.223306,41.62496 23.240725,41.206906 Z m 74.652433,41.235515 c 0,0 -23.348793,13.594208 -31.96866,18.584724 -0.698001,0.40188 -2.024325,1.23923 -2.513299,1.65728 -0.628324,0.52381 -1.08246,1.2044 -1.308906,2.04175 -0.436717,1.70954 0.349622,3.03586 1.274068,3.55967 1.378582,0.76768 2.478461,0.20903 2.461042,-0.48897 -1.028959,-0.38446 -1.274068,-1.20439 -1.134717,-2.05916 0.139351,-0.75026 0.715419,-1.32633 1.639865,-1.46568 1.361163,-0.20903 2.600393,0.64575 2.931353,2.40754 0.330959,1.70954 -0.313541,3.17646 -1.430839,3.9964 -2.285608,1.6747 -5.270461,0.80251 -7.329624,-0.40188 -1.884974,-1.09988 -29.70047,-17.27582 -36.767568,-21.394146 -0.296121,-0.174189 -0.54123,-0.419298 -0.523811,-0.837352 0.01742,-0.419297 0.209027,-0.628324 0.506393,-0.802513 l 16.351371,-9.51072 c -0.767676,-0.454136 12.668517,7.381881 16.752006,9.772003 0.802513,0.471555 2.495879,1.448257 3.368068,1.850136 1.639865,0.767676 3.733866,1.430839 5.479489,1.274068 2.530717,-0.209026 4.309934,-1.413419 6.666462,-2.792 5.060191,-2.948772 18.130587,-10.557099 17.362912,-10.104207 l 8.184395,4.711813 z M 65.925742,77.62734 c -0.698001,0.401879 -2.024325,1.23923 -2.513299,1.657284 -0.628324,0.523811 -1.08246,1.204392 -1.308906,2.041744 -0.436717,1.70954 0.349622,3.035865 1.274068,3.559676 1.378582,0.767676 2.478461,0.209027 2.461042,-0.488973 -1.028959,-0.38446 -1.274068,-1.204393 -1.134717,-2.059163 0.139351,-0.750257 0.715419,-1.326325 1.639865,-1.465676 1.361163,-0.209027 2.600393,0.645744 2.931353,2.407541 0.330959,1.709541 -0.313541,3.176461 -1.430839,3.996393 -2.285608,1.674703 -5.270461,0.802514 -7.329624,-0.401878 -1.884974,-1.09988 -29.70047,-17.275817 -36.767568,-21.394143 -0.296121,-0.174189 -0.54123,-0.419298 -0.523811,-0.837352 0.01742,-0.419298 0.209027,-0.628324 0.506393,-0.802513 L 40.08107,54.32956 c 6.560704,3.822204 13.105234,7.625746 16.752006,9.772003 0.802513,0.471555 2.495879,1.448257 3.368068,1.850136 1.639865,0.767676 3.733866,1.430839 5.479489,1.274068 2.530717,-0.209026 4.309934,-1.413419 6.666462,-2.792 5.042772,-2.931353 18.09575,-10.53968 17.362912,-10.104207 l 8.184395,4.74665 c 0,-0.03484 -23.348793,13.55937 -31.96866,18.549885 z"
     id="path1736"
     style="fill:#000000;fill-opacity:1;stroke-width:1" />
</svg>
