<svg xmlns="http://www.w3.org/2000/svg" width="128" height="128" viewBox="0 0 33.867 33.867" xmlns:v="https://vecta.io/nano"><path d="M7.489 0c-.691 0-1.354.275-1.842.763s-.763 1.151-.763 1.842v20.894c0 .39.088.775.257 1.127s.415.661.72.905l9.851 7.907c.347.277.777.428 1.221.428s.875-.151 1.221-.428l9.851-7.907c.305-.244.551-.553.72-.905s.257-.737.257-1.127V2.605c0-.691-.275-1.353-.763-1.842S27.068 0 26.377 0zm3.908 3.908h11.072c.691 0 1.354.275 1.842.763s.763 1.151.763 1.842v5.21h.001c0 .69-.274 1.352-.762 1.841s-1.149.764-1.839.765c.691 0 1.353.274 1.842.763s.763 1.151.763 1.842v4.697c0 .39-.088.776-.257 1.128s-.415.661-.72.905l-4.031 3.237c-.048.038-.105.062-.166.069s-.123-.003-.178-.03-.102-.068-.134-.12-.05-.112-.05-.174v-9.061c0-.518-.206-1.015-.573-1.382s-.863-.572-1.381-.572h-2.931c-.086 0-.169.034-.23.095s-.096.144-.096.23v10.689c0 .062-.017.122-.05.174s-.079.094-.135.121-.118.037-.179.029-.119-.031-.167-.07l-4.032-3.237c-.305-.244-.551-.553-.72-.905s-.257-.737-.257-1.128V6.513c0-.691.274-1.354.763-1.842s1.151-.763 1.842-.763zm3.257 2.606c-.086 0-.169.034-.23.095s-.095.144-.095.23v5.862c0 .086.034.169.095.23s.144.095.23.095h2.931c.518 0 1.015-.206 1.382-.572s.572-.864.572-1.382V6.839c0-.086-.034-.169-.095-.23s-.144-.095-.23-.095z" fill="#1273ea"/></svg>