<?xml version="1.0" encoding="UTF-8" standalone="no"?>
<svg
   width="127.99999"
   height="127.99999"
   viewBox="0 0 127.99999 127.99999"
   fill="#ffffff"
   version="1.1"
   id="svg6"
   sodipodi:docname="saga.svg"
   inkscape:export-filename="..\transparentSVGs\chain\saga_wht.svg"
   inkscape:export-xdpi="96"
   inkscape:export-ydpi="96"
   xmlns:inkscape="http://www.inkscape.org/namespaces/inkscape"
   xmlns:sodipodi="http://sodipodi.sourceforge.net/DTD/sodipodi-0.dtd"
   xmlns="http://www.w3.org/2000/svg"
   xmlns:svg="http://www.w3.org/2000/svg">
  <defs
     id="defs10" />
  <sodipodi:namedview
     id="namedview8"
     pagecolor="#ffffff"
     bordercolor="#000000"
     borderopacity="0.25"
     inkscape:showpageshadow="2"
     inkscape:pageopacity="0.0"
     inkscape:pagecheckerboard="0"
     inkscape:deskcolor="#d1d1d1"
     showgrid="false" />
  <path
     fill-rule="evenodd"
     clip-rule="evenodd"
     d="m 78.498667,6.0055218 c -8.007467,-8.0073571 -20.989866,-8.0073678 -28.997333,0 L 6.0055218,49.501334 c -8.0073571,8.007467 -8.0073678,20.989866 0,28.997333 L 49.501334,121.9944 c 8.007467,8.00746 20.989866,8.00746 28.997333,0 L 121.9944,78.498667 c 8.00746,-8.007467 8.00746,-20.989866 0,-28.997333 z M 105.00827,43.587468 c 0,-11.324267 -9.180003,-20.50416 -20.504003,-20.50416 H 43.495734 c -11.323999,0 -20.504026,9.179893 -20.504052,20.50416 V 84.595733 C 22.991682,95.92 32.171735,105.1 43.495734,105.1 h 41.008533 c 11.324,0 20.504003,-9.18 20.504003,-20.504267 z"
     fill="#ffffff"
     id="path2"
     style="fill:#000000;fill-opacity:1;stroke-width:1" />
  <path
     d="m 58.200534,29.292802 c 3.202933,-3.202907 8.396,-3.202907 11.598933,0 L 98.7968,58.290134 c 3.20293,3.202933 3.20293,8.396 0,11.598933 L 69.799467,98.886133 c -3.202933,3.202937 -8.396,3.202937 -11.598933,0 L 29.203202,69.889067 c -3.202854,-3.202933 -3.202854,-8.396 0,-11.598933 z"
     fill="#ffffff"
     id="path4"
     style="fill:#000000;fill-opacity:1;stroke-width:1" />
</svg>
