<svg xmlns="http://www.w3.org/2000/svg" width="128" height="128" viewBox="0 0 33.867 33.867" xmlns:v="https://vecta.io/nano"><path d="M31.273 8.432l.192 16.669-14.339 8.501-14.532-8.168-.192-16.669L16.741.265z" fill="#f71f3d" paint-order="markers fill stroke"/><path d="M31.458 8.323L17.132.044h0a.41.41 0 0 0-.103-.039h-.018a.386.386 0 0 0-.216.029h-.018-.016L2.438 8.302h0l-.029.021a.376.376 0 0 0-.189.326v16.563a.373.373 0 0 0 .189.323l14.339 8.279a.381.381 0 0 0 .189.053.373.373 0 0 0 .189-.053l14.339-8.279a.371.371 0 0 0 .181-.263v-.039-.032V8.638a.376.376 0 0 0-.189-.315zM16.553 32.836L3.09 25.062l6.857-11.749 6.607 3.833zM2.966 9.261l6.328 3.681-6.328 10.837zm14.341 7.887l.386-.218 6.725-3.891 6.473-3.733v15.511H17.308zm7.059-4.951l-5.505-9.302-.875-1.478 12.53 7.23zM16.795.893l6.909 11.684-4.091 2.366-2.684 1.551L3.379 8.63zm.526 24.713h12.572l-12.585 7.23z" fill="#fff"/></svg>