<svg xmlns="http://www.w3.org/2000/svg" width="128" height="128" xmlns:v="https://vecta.io/nano"><circle cx="64" cy="64" r="61.902" fill="#1b1b1b" stroke="#fff" stroke-width="4"/><path d="M82.151 45.849c.839.839 2.203.734 2.833-.21.63-.734.525-1.889-.21-2.518-6.925-6.61-13.115-9.967-23.397-9.443-10.807.525-20.354 6.19-19.725 18.151.525 10.597 10.807 14.479 19.83 17.941 6.925 2.623 13.01 4.931 13.325 9.862.315 5.456-5.246 8.708-10.072 9.023-9.128.525-14.479-2.728-20.459-8.498a1.94 1.94 0 0 0-2.623-.105c-.839.734-.839 1.993-.105 2.833 6.715 6.715 13.639 10.072 23.711 9.548 10.072-.734 22.452-6.4 21.823-18.361-.525-10.387-10.387-14.269-19.305-17.626-7.344-2.833-14.164-5.456-14.479-11.436-.21-4.302 4.931-7.449 8.603-7.659 8.918-.42 14.479 2.728 20.249 8.498zm1.154 28.433c0 4.616-2.518 8.603-6.295 10.911l-.21-.105c1.364-1.889 1.574-4.302 1.574-6.61 0-6.82-7.449-9.443-15.318-12.275-8.708-3.148-17.836-6.4-17.836-15.633 0-4.197 1.889-8.708 5.561-10.807l.105.21c-.944 1.993-1.364 4.197-1.364 6.4 0 7.554 8.289 10.597 16.682 13.744 8.603 3.148 17.102 6.295 17.102 14.164z" fill-rule="evenodd" fill="#fff"/><path d="M63.475 113.311c27.489 0 49.836-22.348 49.836-49.836S90.964 13.639 63.475 13.639 13.639 35.987 13.639 63.475s22.348 49.836 49.836 49.836z" fill="none" stroke="#fff" stroke-width="2"/></svg>