<svg xmlns="http://www.w3.org/2000/svg" xmlns:xlink="http://www.w3.org/1999/xlink" width="128" height="128" xmlns:v="https://vecta.io/nano"><path d="M121.934 1.238v48.172c0 10.029.913 28.72-7.603 43.157-10.951 18.389-30.863 32.368-50.325 34.039-19.462-1.822-39.38-15.802-50.328-34.19-8.514-14.284-7.601-33.129-7.601-43.157V1.238z" fill="#090a1a"/><path d="M122.082 1.238v48.323c0 10.029.913 28.873-7.755 43.157C103.38 111.105 83.31 125.086 64 126.758c-19.462-1.672-39.527-15.653-50.48-34.04C5.007 78.283 5.918 59.59 5.918 49.561V1.238z" fill="none" stroke="#00b6fa" stroke-miterlimit="10" stroke-width="2.475"/><g fill="#00b6fa"><path d="M91.698 92.644l-5.401-4.049a33.301 33.282 0 0 1-4.952 4.204l5.251 3.897v.45a52.87 52.841 0 0 0 13.202-14.994 37.681 37.66 0 0 0 3.899-10.346v-.15a33.19 33.172 0 0 1-4.051 10.496 45.071 45.046 0 0 1-7.95 10.493z"/><path d="M91.703 92.644l-5.401-4.049a34.014 33.996 0 0 1-5.007 4.239l5.307 3.862v.45a52.87 52.841 0 0 0 13.201-14.998 37.675 37.655 0 0 0 3.899-10.346v-.15a33.189 33.171 0 0 1-4.051 10.496 45.075 45.05 0 0 1-7.948 10.497z"/></g><path d="M81.355 100.745a42.335 42.312 0 0 1-17.404 5.993 40.949 40.926 0 0 0 17.404-5.993z" fill="#142d51"/><path d="M81.355 100.745a42.335 42.312 0 0 1-17.404 5.993 40.949 40.926 0 0 0 17.404-5.993z" fill="#fff"/><g fill="#00b6fa"><path d="M39.189 16.02l9 6.752h10.352l-9.008-6.748z"/><path d="M39.189 16.02l9 6.752h10.352l-9.008-6.748z"/><path d="M32.593 16.021H22.385v24.742l63.912 47.836C94.248 80.652 98.45 71.354 98.9 69.405c.3-1.049.6-1.344 1.201-1.344 1.05 0 2.4 1.344 3.751 2.999v.599a35.012 34.993 0 0 0 .901-5.248v-1.344L48.198 22.772H32.593z"/><path d="M32.593 16.021H22.385v24.742l63.912 47.836c8.091-7.35 12.587-17.097 12.608-19.2.3-1.049.6-1.344 1.201-1.344 1.05 0 2.4 1.344 3.751 2.999v.599a35.012 34.993 0 0 0 .901-5.248v-1.344L48.198 22.772H32.593z"/><use xlink:href="#B"/><use xlink:href="#B"/><use xlink:href="#B"/><path d="M32.593 16.02v6.752h15.602l-9.008-6.748z"/><path d="M32.593 16.02v6.752h15.602l-9.008-6.748z"/><path d="M32.593 16.02v6.752h15.602l-9.008-6.748zm72.606 0h-6.601v6.752H58.546l46.652 34.936z"/><path d="M105.199 16.02h-6.601v6.752H58.546l46.652 34.936z"/><path d="M98.6 16.02H49.541l9.008 6.748h40.064z"/><path d="M98.6 16.02H49.541l9.008 6.748h40.064z"/><path d="M98.6 16.02H49.541l9.008 6.748h40.064z"/></g><path d="M81.647 100.595c-.151 0-.151.15-.3.15a.465.465 0 0 0 .3-.15z" fill="#142d51"/><path d="M81.647 100.595c-.151 0-.151.15-.3.15a.465.465 0 0 0 .3-.15z" fill="#fff"/><g fill="#00b6fa"><path d="M66.195 99.69a37.351 37.331 0 0 0 15.302-6.744L22.382 48.858v2.099c0 7.197-.6 20.842 5.551 31.189 6.752 11.69 18.454 20.693 30.606 23.692-2.097-2.248-.897-4.648 7.655-6.147z"/><path d="M66.195 99.69c6.436-.45 10.952-3.598 15.302-6.748L22.382 48.858v2.099c0 7.197-.6 20.842 5.551 31.189 6.752 11.69 18.454 20.693 30.606 23.692-2.097-2.248-.897-4.648 7.655-6.147z"/><path d="M81.493 92.945a36.488 36.468 0 0 1-15.302 6.747c-8.552 1.5-9.751 3.897-7.651 6.147a7.529 7.525 0 0 0 1.8.3 30.05 30.033 0 0 0 3.6.599 43.088 43.064 0 0 0 17.404-5.998c.151 0 .151-.15.3-.15a12.503 12.496 0 0 0 1.8-1.2l3.451-2.399v-.15z"/><path d="M81.493 92.945a36.488 36.468 0 0 1-15.302 6.747c-8.552 1.5-9.751 3.897-7.651 6.147a7.529 7.525 0 0 0 1.8.3 30.05 30.033 0 0 0 3.6.599 43.088 43.064 0 0 0 17.404-5.998c.151 0 .151-.15.3-.15a12.503 12.496 0 0 0 1.8-1.2c1.201-.75 2.251-1.731 3.451-2.48v-.067z"/><path d="M81.493 92.945a36.488 36.468 0 0 1-15.302 6.747c-8.552 1.5-9.751 3.897-7.651 6.147a7.529 7.525 0 0 0 1.8.3 30.05 30.033 0 0 0 3.6.599 43.088 43.064 0 0 0 17.404-5.998c.151 0 .151-.15.3-.15a12.503 12.496 0 0 0 1.8-1.2c1.201-.75 2.251-1.732 3.451-2.482v-.067z"/></g><defs ><path id="B" d="M100.093 68.052c-.6 0-.901.3-1.201 1.344-.3 1.95-4.501 11.396-12.603 19.193l5.401 4.049a50.3 50.272 0 0 0 8.107-10.492 34.625 34.606 0 0 0 4.051-10.496v-.599c-1.35-1.65-2.701-2.999-3.755-2.999z"/></defs></svg>