<svg xmlns="http://www.w3.org/2000/svg" width="128" height="128" fill="#e1ab4c" xmlns:v="https://vecta.io/nano"><path d="M50.77 90.941h26.438l.964-15.938H37.748l-1.785-29.061 28.005-17.534 28.047 17.534-.67 11.12H79.282l.289-4.718-15.603-9.729-15.553 9.729.645 10.621H90.98l-2.43 40.017H39.429l-1.01-16.738-.314-5.149h12.067l.31 5.149z"/><path d="M89.682 104.181H38.297l-1.47-24.301h14.476l.574 9.85h24.23l.813-13.525H36.61l-1.89-30.896 29.274-18.322 29.27 18.335-.788 12.989H78.004l.323-5.279-14.333-8.996-14.308 8.954.536 8.748h42.037zm-49.151-2.401h46.868l2.304-37.612H47.93l-.767-12.465 16.831-10.508L80.82 51.703l-.256 4.161h9.679l.566-9.28-26.815-16.759-26.761 16.759 1.676 27.234h40.574l-1.123 18.36H49.639l-.603-9.846h-9.637zM60.013 1.132l-46.44 29.082c-2.302 1.437-3.634 4.02-3.469 6.729l5.137 84.094A7.4 7.4 0 0 0 22.644 128h82.72a7.41 7.41 0 0 0 7.403-6.964l5.128-84.132a7.41 7.41 0 0 0-3.473-6.737L67.873 1.132a7.39 7.39 0 0 0-7.86 0zM99.662 117.19H28.317a2.61 2.61 0 0 1-2.61-2.455l-4.575-74.851a2.64 2.64 0 0 1 1.223-2.38l40.248-25.202c.851-.532 1.931-.532 2.782 0l40.269 25.181c.814.507 1.284 1.419 1.223 2.376l-4.571 74.856a2.62 2.62 0 0 1-2.644 2.455z"/></svg>