<svg xmlns="http://www.w3.org/2000/svg" xmlns:xlink="http://www.w3.org/1999/xlink" viewBox="0 0 44.606 44.723" width="128" height="128" xmlns:v="https://vecta.io/nano"><defs><g id="A"><path d="M36.076 12.561c-4.809 1.37-11.906 4.236-18.406 10.11-6.533 6.148-2.098 11.631-2.052 11.686 0 0-2.394-4.415 3.396-9.855.073-.064 7.465-6.448 18.215-9.51 1.371-.39 2.756-.716 4.118-.966l.095-.017 1.731-2.805-.425.03c-.027.002-2.728.204-6.672 1.328z" fill="#5928b1"/><path d="M43.474 4.7c-1.107-.932-2.213-1.67-2.224-1.677l-.067-.043-.079.009c-.03.004-3.014.371-7.124 1.542-7.353 2.094-17.242 6.39-22.597 14.953-2.544 3.89-.496 8.545-.496 8.545l-.062-1.185c-.007-.126-.358-12.675 25.365-20.003a103.74 103.74 0 0 1 7.189-1.758l.441-.092zm1.555 1.639c-.033.004-3.417.364-8.132 1.706-4.989 1.422-12.255 4.178-18.528 9.235-3.699 2.874-6.04 6.341-6.424 9.513-.188 1.548 1.626 4.834 1.626 4.834l-.381-1.167c-.017-.053-1.639-5.369 6.576-11.537 4.603-3.457 9.4-5.823 15.095-7.445 2.936-.836 5.749-1.386 8.859-1.967l.109-.02.047-.101a191.91 191.91 0 0 1 1.367-2.732l.182-.359z" fill="#764bc4"/><path d="M9.077 22.478c.31-4.981 4.082-9.583 11.22-13.683 3.762-2.349 7.966-4.194 12.497-5.485 3.843-1.095 7.091-1.422 7.091-1.422L37.272 0c-.024.003-2.432.299-5.872 1.279C9.338 7.564 6.604 18.393 6.848 22.746c.427 7.589 9.364 12.987 9.364 12.987S8.616 29.9 9.077 22.478z" fill="#bba5e1"/><path d="M9.351 45.439c4.809-1.37 11.906-4.236 18.406-10.11 6.533-6.148 2.098-11.631 2.052-11.686 0 0 2.394 4.415-3.396 9.855-.073.064-7.465 6.448-18.215 9.51-1.371.391-2.756.715-4.118.966l-.095.017-1.731 2.805.425-.03c.027-.002 2.728-.204 6.672-1.328z" fill="#5928b1"/><path d="M1.952 53.3c1.107.932 2.213 1.67 2.224 1.677l.067.044.079-.009c.03-.004 3.014-.371 7.124-1.542 7.353-2.094 17.242-6.39 22.597-14.953 2.543-3.89.496-8.545.496-8.545l.062 1.185c.007.126.358 12.675-25.365 20.003a103.78 103.78 0 0 1-7.189 1.758l-.441.092zM.397 51.661c.033-.004 3.417-.364 8.132-1.706 4.99-1.422 12.255-4.178 18.528-9.236 3.699-2.874 6.041-6.341 6.424-9.512.188-1.548-1.626-4.834-1.626-4.834l.381 1.167c.017.053 1.639 5.369-6.576 11.537-4.603 3.457-9.4 5.822-15.095 7.445-2.936.836-5.749 1.386-8.859 1.967l-.11.02-.047.101a188.13 188.13 0 0 1-1.367 2.732l-.182.36z" fill="#764bc4"/><path d="M36.35 35.522c-.31 4.981-4.082 9.583-11.22 13.683-3.762 2.349-7.966 4.194-12.497 5.484-3.843 1.095-7.091 1.422-7.091 1.422L8.154 58c.024-.003 2.432-.299 5.872-1.279 22.062-6.285 24.796-17.114 24.552-21.467-.427-7.589-9.364-12.986-9.364-12.986s7.597 5.833 7.135 13.254z" fill="#bba5e1"/></g></defs><use xlink:href="#A" transform="matrix(.771084 0 0 .771084 4.789191 0)"/></svg>