<svg xmlns="http://www.w3.org/2000/svg" width="128" height="128" viewBox="0 0 33.867 33.867" xmlns:v="https://vecta.io/nano"><defs><linearGradient id="A" x1="16.945" y1="33.86" x2="16.933" y2="0" gradientUnits="userSpaceOnUse"><stop offset="0" stop-color="#0067ff"/><stop offset="1" stop-color="#00a8ff" stop-opacity=".816"/></linearGradient></defs><path d="M16.933 0a4.332 4.332 0 1 0 0 8.663 4.332 4.332 0 1 0 0-8.663zm-4.894 3.564L2.611 9.016v5.177l5.418 3.133h.001v-5.176l6.27-3.627a4.96 4.96 0 0 1-2.326-4.193 4.96 4.96 0 0 1 .066-.768zm9.793.003a4.96 4.96 0 0 1 .06.765 4.96 4.96 0 0 1-2.326 4.193l6.271 3.627v5.176h.001l5.418-3.133V9.016zm2.67 11.286l-7.431 4.274 2.73 1.691 4.701-2.718zm-15.136.001V18.1l4.7 2.718 2.73-1.691zm-6.756 1.973v8.757l14.322 8.284 14.323-8.284v-1.567-7.19l-5.418 3.133v.001 2.49l-8.905 5.149-8.904-5.149v-2.49l-.001-.001z" fill="url(#A)" paint-order="markers fill stroke"/></svg>