<svg xmlns="http://www.w3.org/2000/svg" viewBox="0 0 66.304 77.312" width="128" height="128" xmlns:v="https://vecta.io/nano"><g transform="matrix(1.49251 0 0 1.49251 -5.653252 -6.455106)" fill="#ededed"><path d="M38.3 40.4c.2.3.4.5.6.8-.2-.1-.4-.1-.6-.2-.1 0-.1-.1-.2-.1-.4 0-.6-.4-.7-.8l.9.3zm-2.6-1.7l-1.3-1.5c.9-.1 1.8-.2 2.4.7.1.1.2.2.4.3.3.3.7.6 1 .9v.1l-2.3-.4c-.2 0-.2 0-.2-.1zm2.9 8.7c0-.1.1-.2.1-.3.1-.2.4-.2.5 0 .2.4.5.8.7 1.2-.4-.1-.7-.2-1-.2-.2-.1-.4-.4-.3-.7zm-3.4-1.8l1 1.6c-.4 0-.8.1-1.2.1-.1 0-.2-.1-.2-.1-.3-.4-.5-.8-.8-1.3l1-.3h.2zM25.4 40c0-.1 0-.3.1-.3.3-.2.7-.4 1.1-.6 0 .3-.1.5-.1.7-.1.8-.1.8-1 .7h-.1c.1-.2.1-.4 0-.5z"/><path d="M34.3 44.8c-.7-.3-1.4-.2-2.1-.4-.1 0-.2-.1-.3-.1.1-.1.1-.2.2-.3-.1-.2-.3-.5-.4-.7.6-.2 1.2-.3 1.8-.4.3.2.5.4.7.6l-.2.2.6 1.3c-.2-.2-.2-.1-.3-.2zm-6.9-7.1l-2.6 1.1c0 .5-.2 1-.2 1.6s.3 1.3.3 1.9l-2-1.4c-.1 0-.2-.1-.3-.1l-1 .5-2.1 1.2c-.2.1-.3.2-.5.2l-.3.2c-7.2-1-12.8-7.2-12.9-14.8 0-.8 0-1.5.1-2.3.3-.1.7-.3 1.2-.4-.3-.6-.4-1.2-.8-1.4-1.3-1.4-1.5-2-3.1-3.7-.2-.1-.2-.2-.3-.3.1 0 .2.1.3.2 1.9 1.5 2.3 2 3.3 2.9.1-.2.2-.5.3-.7l-2-2h0c-2.3-1.8-2.2-2.1-4.5-4l-.2-.2c.1 0 .2 0 .3.1 5.1 3 3.3 2.3 8.3 5.3a1.38 1.38 0 0 0 .4.3c.8.7 1.6 1.4 2.3 2.1l5.7 5.3c.1.1.3.2.4.3 1 .3 2.8.8 3.9 1.1l.5.2.5.6 2.3 2 2.3.8 2.6 2.1 1.3.4.4.1c.4.5.8.9 1.2 1.4s.8 1 1.4 1.4c1.2.9 2.8 1.6 4 2.4.3.2.3.6.6.9l7.3 5.3c.1.1.2.1.3.2l-6.5-3.6-5.7-3.6c-.4-.3-.8-.5-1.1-.7s-3.4-2.1-3.6-2.2zm7.8 5.3c-.1 0 .1.3.1.3s-.1.4-.2.4.2.2.2.4c-.1.7.3 1.1.6 1.6s.6.7 1.2.7c.9 0 1.7.1 2.7.2-.1-.5-.3-1-.4-1.5h0s-2.9-1.9-4.2-2.1zm-4.6 1.2c0-.1.1-.3.1-.6.2.3.4.4.5.6a.76.76 0 0 1-.2.4c-.1-.2-.3-.3-.4-.4zm-25.2-20c.2.1.3.4.4.7l-.9.4c0-.3-.1-.7-.1-1 .1 0 .5-.2.6-.1zM32.5 30s-1.5-1.2-1.9-1.7c-.2-.3-.5-.5-.7-.8 0-.1-.1-.2-.1-.3l.6-1.3 4.1 1.5c-.6.9-2 2.6-2 2.6zm5.8 4.8s-.5-.1-1.1-.5c-.1-.1-.2 0-.4 0l-3.2-1.9c-.2-.4-.2-.7-.4-1.2v-.4l2.6-3.7c1-.1 3.4 0 3.4 0s.6 2.3.7 3.4v.2c.1 1.6-.1 3.2-.5 4.8-.4-.2-.8-.5-1.1-.7zm4.1-2.7c0 .2 0 .3-.1.3-.3.1-.3.4-.4.6-.4.5-.4.6-1 .3-.1 0-.2-.1-.2-.2v-1l.7-.1.3.1c0-.1.5 0 .7 0zm-7.8-8.5c0-.2-.1-.3-.2-.4l-1.7-1.8s.4-2 .7-2.7c.2-.4.3-.9.5-1.4 2.3 2.6 3.4 5.6 3.3 9.1-.6-.2-1.8-.5-1.8-.5l-.8-2.3zM10.3 13.5l1.3-.5.3 1.5c-.1 0-.2.1-.3.1-.4-.3-.8-.6-1.3-1.1zm3.8 0c-.1 0-.3-.1-.5-.2 0-.2.3-.8.5-.9l.2.3.1.3v.2l-.3.3zM41.9 31c.1-.3.1-.5.2-.6s.3 0 .5 0c0 .2 0 .4-.1.6h-.6zm.8 6.1c-.2-.2-.4-.2-.6-.2-.3 0-.6-.1-.9-.1-.5 0-1-.2-1.4-.5-.1 0-.1-.2-.1-.2.2-.6.7-2 .8-1.9l2.4.6v1.8c0 .1 0 .2.1.3v.2c-.1 0-.2.1-.3 0z"/><path d="M42.8 40.9l-1.6-.1-.7-.3-1-1.8-2.5-1.8c-2.1-1.7-4.4-3-6.6-4.6L28 30.7c-.5-.4-.8-.9-1.4-1.3l-2.8-2-1.3-.8-.6-1.5-4.5-2-.3-1.7-6.8-3.7-.8-.3c-.2.1-.3.1-.5-.1l-4.4-3.5-.2-.2c.1 0 .2 0 .3.1L7.4 15l2.4 1.2.6.2.8-.8-2.8-1.8c-.1 0-.2-.1-.2-.2.1 0 .2 0 .3.1l3 1.4 1.3.7.2-.2c-.1-.4-.3-.7-.5-1.1.3-.2.5-.4.8-.5.1-.1.2-.1.3-.2.2.2.4.6.6.5h.4l.3-.4.1-.5v-.2c2.2-1 4.5-1.4 6.9-1.2a14.64 14.64 0 0 1 10.3 4.9l-.1.3v.2l-1 3.5c0 .2-.1.3-.1.3l1.8 1.8c.6.7 1.6 2.6 1.6 2.6s-.3.3-.4.5-.2.2-.4.1l-2.3-.8c-.4-.2-.9-.3-1.3-.5v.2c.1.3 0 .5-.2.7L28.5 27c.8.6 1.3 1.2 2.1 1.8.1.1.3.4.3.4l.1.7-3.6-2.4.7 1.1L31 31c.1.1.2.2.4.2l7.6 5.4 3.7 2.7c.1 0 .4.4.6.5l8.3 6.4c.1.1.2.1.3.2-3.4-1.9-5.8-3.4-9.1-5.5zm2.7-4l.2-.1c.1.1.1.2.1.4-.1 0-.2 0-.3.1v-.4zm.6 1.9c.6-.1.5-.4.7-.6.2.1.3.4.3.4s-.1.3-.4.5c-.2 0-.4-.2-.6-.3zm-.7 1.6h-.1l-2.1-1.2c-.1 0-.1-.1-.2-.2l-.6-1.2c.6-.1 1.1-.3 1.7-.4l1.3 3zm-1.7-5.6l-.1-.2c.1 0 .5.1.6.1l.3-.3c.1 0 .2-.1.2-.1.2.1.4.2.7.3l-.6 1.1zm-16.3 2.9c-.1.6.1 1.2 0 1.8 0 .1.2.3.1.5-.1.5-.5 1.2-.6 1.8l-.2 2c1.2 0 2.3-.2 3.5-.5 1.1-.3 2.1-.6 3-1.2l-1.3-1V41c.1 0-3.1-2.8-3-2.8l-.9-1.1zm-3.1 5a15.83 15.83 0 0 1-3.1.9c-.6.1-1.2.2-1.8.2h0l.2-.2c.1-.1.2-.1.4-.2l1.6-1.2.7-.5h.2c.6.4 1.2.7 1.8 1z"/></g></svg>