<svg xmlns="http://www.w3.org/2000/svg" width="128" height="128" fill="none" xmlns:v="https://vecta.io/nano"><path d="M64 128c35.346 0 64-28.654 64-64S99.346 0 64 0 0 28.654 0 64s28.654 64 64 64z" fill="#fff"/><path d="M63.998 127.991c-8.408.024-16.737-1.622-24.505-4.838s-14.821-7.942-20.75-13.903C12.781 103.32 8.055 96.269 4.838 88.5A63.58 63.58 0 0 1 0 63.996a63.57 63.57 0 0 1 4.837-24.505c3.217-7.768 7.943-14.82 13.905-20.749 5.929-5.961 12.982-10.688 20.75-13.905S55.59-.024 63.998 0c8.408-.024 16.737 1.62 24.505 4.837a63.57 63.57 0 0 1 20.75 13.905c5.962 5.929 10.688 12.981 13.905 20.749s4.861 16.097 4.838 24.505c.023 8.407-1.621 16.737-4.838 24.505a63.57 63.57 0 0 1-13.904 20.749 63.59 63.59 0 0 1-20.75 13.903c-7.768 3.217-16.097 4.862-24.505 4.838zm0-118.849c-14.544.016-28.487 5.8-38.771 16.084a54.91 54.91 0 0 0-16.084 38.77 54.91 54.91 0 0 0 16.084 38.77c10.284 10.284 24.227 16.068 38.771 16.084 14.544-.016 28.487-5.8 38.771-16.084a54.91 54.91 0 0 0 16.084-38.77 54.91 54.91 0 0 0-16.084-38.77C92.485 14.943 78.541 9.158 63.998 9.142z" fill="#c1a034"/><path opacity=".41" d="M59.422 127.835v-9.174l4.571.192 4.572-.188v9.174l-4.572.161c-1.524 0-3.047-.056-4.571-.165zm39.98-21.972a55.21 55.21 0 0 0 6.46-6.464l6.505 6.504-3.117 3.341-3.342 3.118zm-80.655 3.386l-3.122-3.346 6.505-6.504a55.26 55.26 0 0 0 6.464 6.464l-6.505 6.504-3.351-3.118zm99.914-40.683l.188-4.571-.188-4.571h9.174l.16 4.571-.16 4.571zm-118.5 0L0 63.996l.16-4.571h9.174l-.187 4.571.187 4.571zm15.465-46.474l3.122-3.341 3.346-3.123 6.5 6.5a55.48 55.48 0 0 0-6.464 6.468zm83.777.036l6.5-6.5 3.347 3.123 3.117 3.341-6.505 6.504c-1.972-2.331-4.13-4.495-6.46-6.468zM59.422.161L63.993 0l4.572.161v9.165l-4.572-.188-4.571.192z" fill="#fff"/><path d="M43.771 77.731c-1.502-2.953-2.246-6.233-2.165-9.545a22.9 22.9 0 0 1 1.711-9.079c.956-2.325 2.237-4.503 3.803-6.469 1.389-1.647 3.109-2.982 5.048-3.919 1.973-.99 4.15-1.503 6.358-1.497a10.5 10.5 0 0 1 7.543 2.678l8.591-7.188a39.47 39.47 0 0 1-.261-4.509c0-9.675 2.557-14.512 7.671-14.512.586-.028 1.17.082 1.706.32s1.008.599 1.379 1.053a6.02 6.02 0 0 1 1.245 3.53 10.79 10.79 0 0 1-2.032 6.272 38.13 38.13 0 0 1-6.033 6.845 151 151 0 0 1 2.032 18.439c.007 3.179-.412 6.344-1.245 9.413-.799 2.937-2.085 5.719-3.804 8.231a17.11 17.11 0 0 1-7.016 5.814c-3.258 1.453-6.796 2.168-10.362 2.092a15 15 0 0 1-12.792-5.75 33.93 33.93 0 0 0-1.181 9.344 16.84 16.84 0 0 0 2.772 9.472c.726 1.277 1.774 2.341 3.04 3.087a8.4 8.4 0 0 0 4.173 1.162c.22 0 .329.218.329.654.043.436-.067.655-.329.655a10 10 0 0 1-4.919-1.327c-1.497-.86-2.746-2.093-3.625-3.58-2.21-3.158-3.38-6.927-3.346-10.781-.039-3.705.537-7.39 1.707-10.906zm23.411-26.594a9.21 9.21 0 0 1 1.835 5.617 14.97 14.97 0 0 1-.984 5.562c-.69 1.714-1.841 3.204-3.324 4.304-1.574 1.221-3.519 1.867-5.511 1.831-.377.02-.748-.095-1.048-.325a1.94 1.94 0 0 1-.458-1.044c.999-.037 1.978-.291 2.869-.743a6.91 6.91 0 0 0 2.295-1.875c2.176-2.189 3.405-5.145 3.423-8.231.004-1.254-.239-2.497-.714-3.658a106.35 106.35 0 0 0-12.407 12.283 39.89 39.89 0 0 0-7.419 13.066c1.23 1.971 2.971 3.57 5.039 4.628s4.383 1.537 6.701 1.382c2.998.07 5.961-.652 8.591-2.092a14.91 14.91 0 0 0 5.836-5.562 32.22 32.22 0 0 0 4.132-16.793c0-1.612-.394-6.512-1.181-14.7zm-2.623.064c-.751-.756-1.654-1.345-2.648-1.728s-2.059-.551-3.123-.493a12.66 12.66 0 0 0-6.623 1.763c-3.895 2.541-6.684 6.464-7.804 10.978-.697 2.175-1.049 4.446-1.044 6.729a19.83 19.83 0 0 0 1.241 7.124 67.43 67.43 0 0 1 20.001-24.374zm13.181-16.335c.027 1.573.136 3.144.33 4.706a17.21 17.21 0 0 0 6.494-10.696c0-2.265-.831-3.397-2.494-3.397-2.886-.017-4.33 3.112-4.33 9.387z" fill="#c1a034"/></svg>