<svg xmlns="http://www.w3.org/2000/svg" width="128" height="128" fill="none" xmlns:v="https://vecta.io/nano"><path d="M64 0c35.346 0 64 28.651 64 64s-28.654 64-64 64S0 99.349 0 64C-.006 28.651 28.648 0 64 0" fill="#fff"/><path d="M94.465 33.534v-8.191H27.259v77.313h67.205v-8.191H36.477V33.534zm-.516 54.403c13.694 0 18.558-7.806 18.558-14.463 0-7.427-4.225-11.902-12.546-13.442l-8.702-1.534c-2.819-.513-5.889-1.534-5.889-4.866 0-3.967 3.967-5.379 7.811-5.379 4.992 0 7.682 1.663 8.579 5.251h9.217c-1.154-8.191-7.682-13.313-17.667-13.313-12.03 0-17.409 6.913-17.409 13.827s4.096 11.137 11.778 12.543l8.831 1.534c3.199.642 6.399 1.791 6.399 5.887 0 3.71-3.328 6.015-8.702 6.015-6.018 0-9.727-2.304-10.495-6.657h-9.217c1.154 9.09 8.192 14.597 19.454 14.597" fill="#000"/></svg>