<svg xmlns="http://www.w3.org/2000/svg" width="128" height="128" fill="none" xmlns:v="https://vecta.io/nano"><path d="M44.767 63.403c-5.951 3.275-13.534 2-17.783-3.26-1.69-2.092-2.696-4.574-2.752-7.076-.057-2.565.885-5.143 2.551-7.335 4.183-5.504 11.942-6.939 18.039-3.615l19.407 10.577-19.461 10.711zm37.957-43.562c6.097-3.324 13.857-1.887 18.039 3.615 1.665 2.192 2.607 4.772 2.551 7.335-.055 2.502-1.062 4.984-2.752 7.076-4.249 5.262-11.832 6.536-17.783 3.261L63.318 30.418zm32.342-6.622C104.92-.285 86.097-3.809 71.306 4.346L38.772 22.284c-10.089.171-19.909 4.713-26.293 13.21-4.04 5.378-6.327 11.709-6.189 18.001.134 6.141 2.577 12.231 6.675 17.365 10.31 12.911 28.704 16.039 43.14 8.002l32.108-17.877c9.992.053 19.812-4.195 26.365-12.401 4.1-5.134 6.541-11.224 6.675-17.365.138-6.293-2.147-12.622-6.189-18.002" fill="#c7e351"/><path d="M45.221 108.134c-5.951 3.276-13.534 2-17.784-3.26-1.689-2.093-2.696-4.575-2.752-7.076-.057-2.565.885-5.143 2.551-7.335 4.183-5.504 11.942-6.94 18.039-3.615l19.407 10.577-19.461 10.711zm37.958-43.562c6.097-3.324 13.856-1.887 18.039 3.615 1.665 2.192 2.608 4.772 2.551 7.336-.055 2.502-1.062 4.984-2.752 7.076-4.25 5.261-11.833 6.536-17.783 3.26L63.774 75.149 83.18 64.572zm32.341-6.622c-10.146-13.505-28.968-17.028-43.759-8.873L39.227 67.014c-10.088.171-19.909 4.713-26.292 13.211-4.041 5.378-6.328 11.709-6.19 18.002.134 6.141 2.575 12.23 6.675 17.365 10.309 12.911 28.704 16.039 43.14 8.002l32.108-17.877c9.992.053 19.813-4.195 26.365-12.401 4.1-5.133 6.541-11.224 6.676-17.364.137-6.293-2.149-12.623-6.19-18.002" fill="#74dd54"/></svg>