<svg xmlns="http://www.w3.org/2000/svg" width="128" height="128" xmlns:v="https://vecta.io/nano"><linearGradient id="A" gradientUnits="userSpaceOnUse" x1="360.879" y1="351.455" x2="141.213" y2="-69.294" gradientTransform="matrix(0.32181802,0,0,-0.32181802,0.00648838,114.89553)"><stop offset="0" stop-color="#00ffa3"/><stop offset="1" stop-color="#dc1fff"/></linearGradient><path d="M20.796 90.405a4.19 4.19 0 0 1 2.961-1.223h102.145c1.867 0 2.8 2.253 1.48 3.572l-20.178 20.178a4.19 4.19 0 0 1-2.961 1.223H2.098c-1.867 0-2.8-2.253-1.48-3.572z" fill="url(#A)"/><linearGradient id="B" gradientUnits="userSpaceOnUse" x1="264.829" y1="401.601" x2="45.163" y2="-19.147" gradientTransform="matrix(0.32181802,0,0,-0.32181802,0.00648838,114.89553)"><stop offset="0" stop-color="#00ffa3"/><stop offset="1" stop-color="#dc1fff"/></linearGradient><path d="M20.796 15.068c.805-.772 1.867-1.223 2.961-1.223h102.145c1.867 0 2.8 2.253 1.48 3.572l-20.178 20.178a4.19 4.19 0 0 1-2.961 1.223H2.098c-1.867 0-2.8-2.253-1.48-3.572z" fill="url(#B)"/><linearGradient id="C" gradientUnits="userSpaceOnUse" x1="312.548" y1="376.688" x2="92.882" y2="-44.061" gradientTransform="matrix(0.32181802,0,0,-0.32181802,0.00648838,114.89553)"><stop offset="0" stop-color="#00ffa3"/><stop offset="1" stop-color="#dc1fff"/></linearGradient><path d="M107.204 52.495a4.19 4.19 0 0 0-2.961-1.223H2.098c-1.867 0-2.8 2.253-1.48 3.572l20.178 20.178a4.19 4.19 0 0 0 2.961 1.223h102.145c1.867 0 2.8-2.253 1.48-3.572z" fill="url(#C)"/></svg>