<svg xmlns="http://www.w3.org/2000/svg" width="128" height="128" xmlns:v="https://vecta.io/nano"><path fill="#fff" d="M127.936 64c0 35.328-28.658 64-63.968 64S0 99.328 0 64 28.658 0 63.968 0s63.968 28.672 63.968 64z"/><path d="M33.519 120.32c9.083 4.928 19.446 7.68 30.449 7.68s21.429-2.816 30.449-7.68L63.968 74.88zm-8.635-56.384v-10.56h33.839V42.56H24.884V32.064h78.233V42.56h-33.84v10.816h33.839v10.496H69.277l33.967 50.624C118.277 102.784 128 84.48 128 63.936 127.936 28.672 99.278 0 63.968 0S0 28.672 0 64c0 20.544 9.659 38.848 24.756 50.56l33.967-50.624z" fill="#e23"/></svg>