<?xml version="1.0" encoding="UTF-8" standalone="no"?>
<svg
   width="128"
   height="128"
   viewBox="0 0 128 128"
   fill="none"
   version="1.1"
   id="svg1116"
   sodipodi:docname="sovereign.svg"
   inkscape:export-filename="..\transparentSVGs\chain\sovereign.png"
   inkscape:export-xdpi="96"
   inkscape:export-ydpi="96"
   xmlns:inkscape="http://www.inkscape.org/namespaces/inkscape"
   xmlns:sodipodi="http://sodipodi.sourceforge.net/DTD/sodipodi-0.dtd"
   xmlns="http://www.w3.org/2000/svg"
   xmlns:svg="http://www.w3.org/2000/svg">
  <sodipodi:namedview
     id="namedview1118"
     pagecolor="#ffffff"
     bordercolor="#000000"
     borderopacity="0.25"
     inkscape:showpageshadow="2"
     inkscape:pageopacity="0.0"
     inkscape:pagecheckerboard="0"
     inkscape:deskcolor="#d1d1d1"
     showgrid="false" />
  <path
     d="m 118.40992,42.70158 c 0,0 -7.98218,-5.335317 -19.44553,-5.335317 -28.752639,0 -45.676688,39.74053 -71.578455,39.74053 C 13.050365,77.106793 1.415e-6,65.146961 1.415e-6,50.237952 1.415e-6,35.329039 11.566222,22.38106 29.429945,22.433694 c 6.407131,-0.107028 24.037016,0 24.037016,0 l -7.81925,14.952479 c 0,0 -9.812235,-0.141391 -16.217766,0 -7.749787,0.02234 -14.042031,4.987713 -14.042031,12.851779 0,7.044943 6.769363,11.781245 11.998021,11.795969 18.261776,0 34.59907,-39.600227 69.704869,-39.600227 10.730626,0 21.319116,4.703618 21.319116,4.703618 z"
     fill="url(#paint0_radial_3969_678)"
     id="path1100"
     style="fill:url(#paint0_radial_3969_678);stroke-width:1" />
  <path
     d="m 9.5900418,85.298328 c 0,0 7.9823132,5.335541 19.4457882,5.335541 28.752574,0 45.676624,-39.740595 71.57839,-39.740595 14.33567,0 27.38578,11.959801 27.38578,26.868778 0,14.908977 -11.5661,27.856978 -29.429982,27.804158 -6.406939,0.10724 -24.037144,0 -24.037144,0 l 7.81957,-14.952188 c 0,0 9.812236,0.141167 16.217574,0 7.749792,-0.02241 14.042132,-4.987905 14.042132,-12.85197 0,-7.044912 -6.7693,-11.781213 -11.99793,-11.795938 -18.261776,0 -34.59939,39.600096 -69.705061,39.600096 -10.730334,0 -21.3191172,-4.70365 -21.3191172,-4.70365 z"
     fill="url(#paint1_radial_3969_678)"
     id="path1102"
     style="fill:url(#paint1_radial_3969_678);stroke-width:1" />
  <defs
     id="defs1114">
    <radialGradient
       id="paint0_radial_3969_678"
       cx="0"
       cy="0"
       r="1"
       gradientUnits="userSpaceOnUse"
       gradientTransform="matrix(-140.37644,-96.12495,100.85586,-147.28524,128.79515,110.94561)">
      <stop
         stop-color="#107047"
         id="stop1104" />
      <stop
         offset="0.980586"
         stop-color="#00E0FF"
         id="stop1106" />
    </radialGradient>
    <radialGradient
       id="paint1_radial_3969_678"
       cx="0"
       cy="0"
       r="1"
       gradientUnits="userSpaceOnUse"
       gradientTransform="matrix(-140.37644,-96.12495,100.85586,-147.28524,128.79515,110.94561)">
      <stop
         stop-color="#107047"
         id="stop1109" />
      <stop
         offset="0.980586"
         stop-color="#00E0FF"
         id="stop1111" />
    </radialGradient>
  </defs>
</svg>
