<svg xmlns="http://www.w3.org/2000/svg" width="128" height="128" xmlns:v="https://vecta.io/nano"><g transform="matrix(6.113888 0 0 6.068279 -6.309714 1.940682)"><ellipse stroke="#979797" stroke-width=".092" fill="#fff" transform="rotate(353 11.5 7.516)" cx="11.5" cy="7.516" rx="10.482" ry="5.055"/><ellipse fill="#000002" transform="rotate(353 11.492 7.529)" cx="11.492" cy="7.529" rx="9.844" ry="4.247"/></g><path d="M65.27 112.102c18.069 1.254 34.879-19.027 42.178-48.142.168-.669-.554.091-1.852.693-2.245 1.043-6.493 2.834-12.844 4.721-8.688 2.581-21.06 4.937-25.267 5.539-4.357.623-13.172.859-20.76.803-4.471-.033-7.827.2-10.277-.129-1.708-.229-3.361-1.445-3.029-.21 5.695 21.2 17.332 35.717 31.85 36.725z" fill="#6758ff"/><path d="M79.902 99.473c9.991-2.108 14.78-14.577 14.348-16.595s-6.078 6.451-16.069 8.558-20.385 2.191-19.953 4.21c.273 1.273 6.14 4.007 12.635 4.222 3.805.126 5.349.384 9.039-.395z" fill="#ff7fa7"/></svg>