<svg xmlns="http://www.w3.org/2000/svg" width="128" height="128" fill="#fff" xmlns:v="https://vecta.io/nano"><path d="M109.934 24.024l-15.412 7.852-74.425 37.908a44.672 44.672 0 0 1-.379-5.789 44.336 44.336 0 0 1 65.955-38.65l8.822-4.495 1.316-.672A54.155 54.155 0 0 0 9.845 64.012q0 2.069.157 4.121a9.851 9.851 0 0 1-5.35 9.52L0 80.025v11.064l13.696-6.981h0l4.435-2.264 4.37-2.226h0l78.459-39.977 8.816-4.489L128 25.865V14.807zM128 36.934L26.958 88.381l-8.816 4.5L0 102.126v11.053L18.017 104l15.412-7.852 74.501-37.962a45.192 45.192 0 0 1 .379 5.827 44.336 44.336 0 0 1-66.02 38.645l-.542.287-9.564 4.874a54.155 54.155 0 0 0 85.971-43.806l-.157-4.159a9.856 9.856 0 0 1 5.345-9.52L128 47.96z"/></svg>