<svg xmlns="http://www.w3.org/2000/svg" height="128" fill="none" width="128" xmlns:v="https://vecta.io/nano"><g fill-rule="evenodd"><path d="M0 64c0 35.347 28.653 64 63.999 64S128 99.347 128 64 99.345 0 63.999 0 0 28.653 0 64z" fill="#0c0c4f"/><path d="M35.769 48.923l1.58-4.881a3.19 3.19 0 0 1 2.101-2.07l4.905-1.508a.73.73 0 0 0 .011-1.383l-4.882-1.58c-.991-.321-1.763-1.105-2.07-2.101l-1.507-4.905a.73.73 0 0 0-1.384-.009l-1.58 4.881c-.321.991-1.105 1.763-2.101 2.07l-4.905 1.507c-.679.209-.686 1.165-.011 1.383l4.883 1.58a3.2 3.2 0 0 1 2.07 2.103l1.507 4.903a.73.73 0 0 0 1.384.011z" fill="#fafafa"/><path d="M113.293 46.083c-2.022-2.261-5.178-3.534-8.246-4.056-3.093-.501-6.335-.455-9.388.087-6.177 1.045-11.789 3.603-16.683 6.758-2.542 1.549-4.709 3.34-6.955 5.165-1.082.923-2.068 1.906-3.096 2.875l-2.807 2.793c-3.05 3.188-6.057 6.092-8.966 8.5-2.921 2.396-5.651 4.216-8.342 5.487-2.69 1.277-5.567 2.028-9.318 2.149-3.718.131-8.117-.54-12.822-1.647-4.73-1.103-9.698-2.675-15.249-4.027 1.937 5.373 4.853 10.122 8.598 14.462 3.789 4.265 8.519 8.153 14.597 10.71 5.989 2.613 13.516 3.551 20.554 2.136 7.057-1.358 13.249-4.624 18.254-8.4 5.018-3.815 9.078-8.161 12.501-12.679.945-1.248 1.445-1.947 2.129-2.923l1.89-2.799c1.314-1.732 2.509-3.703 3.809-5.419 2.549-3.593 5.061-7.182 7.981-10.489 1.47-1.677 3.019-3.281 4.848-4.823.913-.753 1.899-1.489 2.99-2.152 1.108-.716 2.279-1.276 3.72-1.708z" fill="url(#A)"/><path d="M113.294 46.081c-2.172-5.482-6.21-10.096-11.631-13.5-5.387-3.367-12.87-5.086-20.285-3.621-3.663.709-7.212 2.072-10.326 3.889-3.1 1.809-5.878 3.987-8.283 6.324-1.201 1.172-2.291 2.395-3.373 3.624l-2.806 3.578-4.334 5.759C46.73 59.543 40.78 68.227 31.016 70.8c-9.586 2.526-13.743.289-19.594-.635 1.07 2.762 2.395 5.444 4.191 7.804 1.763 2.407 3.845 4.668 6.434 6.606 1.308.931 2.69 1.85 4.224 2.629 1.527.753 3.174 1.415 4.932 1.914 3.497.958 7.433 1.294 11.244.779 3.813-.509 7.458-1.717 10.644-3.322 3.209-1.59 6.005-3.526 8.501-5.569 4.962-4.121 8.823-8.675 12.083-13.277 1.64-2.301 3.129-4.646 4.506-6.991l1.62-2.792 1.506-2.402c2.053-3.073 4.061-5.537 6.501-7.386 2.406-1.897 5.755-3.299 10.231-3.625 4.458-.329 9.603.279 15.255 1.55z" fill="#fafafa"/><path d="M89.178 91.624c0 4.026 3.265 7.291 7.291 7.291a7.29 7.29 0 0 0 0-14.582c-4.026 0-7.291 3.265-7.291 7.291z" fill="#ec796b"/></g><defs><linearGradient id="A" x1="112.748" y1="44.159" x2="-53.735" y2="130.778" gradientUnits="userSpaceOnUse"><stop stop-color="#ec796b"/><stop offset="1" stop-color="#d672ef"/></linearGradient></defs></svg>