<svg xmlns="http://www.w3.org/2000/svg" xmlns:xlink="http://www.w3.org/1999/xlink" width="128" height="128" fill="none" xmlns:v="https://vecta.io/nano"><path d="M45.437 128l-8.798-3.154 22.559-55.998L63.97 80.96z" fill="url(#A)"/><path d="M82.563 128L64.03 80.96l4.772-12.113 22.612 56.132z" fill="url(#B)"/><path d="M125.027 91.435l-56.18-22.633L80.96 64.03 128 82.563z" fill="url(#A)"/><path d="M80.96 63.97l-12.113-4.772 56.088-22.595L128 45.437z" fill="url(#C)"/><path d="M68.828 68.689V59.31L80.731 64z" fill="url(#D)"/><path d="M68.815 68.814l.039-.099h-.082v.055-.055h-.056v-9.432h.138l-.039-.1.032.013 12.113 4.772.077.03-.077.03-12.113 4.772zm.013-9.504v9.379l11.903-4.69z" fill="url(#E)"/><path d="M68.802 59.152L64.03 47.04 82.563 0l8.582 3.691z" fill="url(#F)"/><path d="M59.198 59.152L36.639 3.155 45.437 0 63.97 47.04z" fill="url(#C)"/><path d="M47.039 63.97L0 45.437l3.065-8.834 56.087 22.595z" fill="url(#G)"/><path d="M3.458 91.239L0 82.563 47.039 64.03l12.113 4.772z" fill="url(#H)"/><path d="M68.689 59.172h-9.379l4.69-11.903z" fill="url(#D)"/><path d="M68.854 59.284h-9.57v-.138l-.099.039.013-.033 4.772-12.112.031-.077.03.076 4.772 12.113.013.032zm-9.544-.112h9.379L64 47.269z" fill="url(#I)"/><path d="M59.171 68.689L47.269 64l11.903-4.69z" fill="url(#I)"/><path d="M59.185 68.814l-.032-.013-12.113-4.772-.076-.03.076-.03 12.113-4.772.032-.013.099-.039v.138 9.432h-.138zm-.013-9.504L47.27 63.999l11.903 4.69z" fill="url(#E)"/><path d="M64.001 80.73l-4.69-11.903h9.379z" fill="url(#J)"/><path d="M64.001 81.036l-.031-.077-4.772-12.113-.013-.032-.039-.099h.138 9.432.056v.055-.055h.082l-.039.099-.012.032-4.772 12.113zm-4.69-12.209l4.69 11.903 4.689-11.903z" fill="url(#E)"/><defs><linearGradient id="A" x1="-15.706" y1="64" x2="143.707" y2="64" xlink:href="#K"><stop stop-color="#217ac8"/><stop offset="1" stop-color="#464eaa"/></linearGradient><linearGradient id="B" x1="-15.707" y1="64" x2="143.706" y2="64" xlink:href="#K"><stop stop-color="#464eaa"/><stop offset="1" stop-color="#c21e96"/></linearGradient><linearGradient id="C" x1="-15.706" y1="64" x2="143.707" y2="64" xlink:href="#K"><stop stop-color="#464eaa"/><stop offset="1" stop-color="#c21e96"/></linearGradient><linearGradient id="D" x1="-15.706" y1="64" x2="143.706" y2="64" xlink:href="#K"><stop stop-color="#316b97"/><stop offset="1" stop-color="#794092"/></linearGradient><linearGradient id="E" x1="-15.706" y1="63.999" x2="143.707" y2="63.999" xlink:href="#K"><stop stop-color="#316b97"/><stop offset="1" stop-color="#794092"/></linearGradient><linearGradient id="F" x1="-15.707" y1="64" x2="143.706" y2="64" xlink:href="#K"><stop stop-color="#217ac8"/><stop offset="1" stop-color="#464eaa"/></linearGradient><linearGradient id="G" x1="-15.706" y1="64" x2="143.706" y2="64" xlink:href="#K"><stop stop-color="#217ac8"/><stop offset="1" stop-color="#464eaa"/></linearGradient><linearGradient id="H" x1="-15.706" y1="64" x2="143.706" y2="64" xlink:href="#K"><stop stop-color="#464eaa"/><stop offset="1" stop-color="#c21e96"/></linearGradient><linearGradient id="I" x1="-15.707" y1="64" x2="143.706" y2="64" xlink:href="#K"><stop stop-color="#316b97"/><stop offset="1" stop-color="#794092"/></linearGradient><linearGradient id="J" x1="-15.706" y1="63.999" x2="143.706" y2="63.999" xlink:href="#K"><stop stop-color="#316b97"/><stop offset="1" stop-color="#794092"/></linearGradient><linearGradient id="K" gradientUnits="userSpaceOnUse"/></defs></svg>