<?xml version="1.0" encoding="UTF-8" standalone="no"?>
<svg
   width="128"
   height="128"
   fill="none"
   class="jss707"
   version="1.1"
   id="svg35"
   sodipodi:docname="stargate.svg"
   inkscape:export-filename="..\transparentSVGs\stargate.png"
   inkscape:export-xdpi="96"
   inkscape:export-ydpi="96"
   xmlns:inkscape="http://www.inkscape.org/namespaces/inkscape"
   xmlns:sodipodi="http://sodipodi.sourceforge.net/DTD/sodipodi-0.dtd"
   xmlns="http://www.w3.org/2000/svg"
   xmlns:svg="http://www.w3.org/2000/svg">
  <sodipodi:namedview
     id="namedview37"
     pagecolor="#ffffff"
     bordercolor="#000000"
     borderopacity="0.25"
     inkscape:showpageshadow="2"
     inkscape:pageopacity="0.0"
     inkscape:pagecheckerboard="0"
     inkscape:deskcolor="#d1d1d1"
     showgrid="false" />
  <g
     clip-path="url(#logo-wide-dark_svg__a)"
     fill="none"
     id="g22"
     transform="matrix(3.8411908,0,0,3.8411908,-5.142e-7,-1.2983225)"
     style="stroke-width:0.260336">
    <g
       clip-path="url(#logo-wide-dark_svg__b)"
       fill="none"
       id="g20"
       style="stroke-width:0.0677748">
      <g
         clip-path="url(#logo-wide-dark_svg__c)"
         fill="#999999"
         id="g16"
         style="stroke-width:0.0176442">
        <path
           d="m 19.968,1.664 0.887,2.077 a 17.2,17.2 0 0 0 9.067,9.067 l 2.077,0.887 c 0.544,0.232 0.985,0.564 1.326,0.96 -1.034,-7.417 -6.9,-13.283 -14.317,-14.317 0.395,0.34 0.728,0.782 0.96,1.326 z M 1.326,13.695 3.403,12.808 a 17.203,17.203 0 0 0 9.068,-9.067 l 0.886,-2.077 a 3.6,3.6 0 0 1 0.96,-1.326 C 6.9,1.372 1.034,7.238 0,14.655 0.34,14.259 0.782,13.927 1.326,13.695 Z M 32,20.304 29.922,21.191 a 17.2,17.2 0 0 0 -9.067,9.068 l -0.887,2.076 a 3.6,3.6 0 0 1 -0.96,1.327 c 7.417,-1.035 13.283,-6.901 14.317,-14.318 a 3.59,3.59 0 0 1 -1.326,0.96 z M 13.357,32.335 12.471,30.259 A 17.204,17.204 0 0 0 3.403,21.191 L 1.326,20.304 A 3.59,3.59 0 0 1 0,19.344 c 1.034,7.417 6.9,13.283 14.317,14.318 a 3.61,3.61 0 0 1 -0.96,-1.327 z"
           fill="#999999"
           id="path14"
           style="stroke-width:0.00459342" />
      </g>
      <path
         d="m 9.103,15.371 1.023,-0.437 a 8.478,8.478 0 0 0 4.469,-4.468 l 0.436,-1.024 c 0.612,-1.433 2.645,-1.433 3.257,0 l 0.436,1.024 a 8.478,8.478 0 0 0 4.469,4.468 l 1.024,0.437 c 1.433,0.612 1.433,2.644 0,3.256 l -1.024,0.437 a 8.476,8.476 0 0 0 -4.469,4.469 l -0.436,1.023 c -0.612,1.433 -2.645,1.433 -3.257,0 L 14.595,23.533 A 8.476,8.476 0 0 0 10.126,19.064 L 9.103,18.627 c -1.434,-0.612 -1.434,-2.644 0,-3.256 z"
         fill="#000000"
         id="path18"
         style="stroke-width:0.0176442" />
    </g>
  </g>
  <defs
     id="defs33">
    <clipPath
       id="logo-wide-dark_svg__a">
      <path
         fill="#ffffff"
         d="M 0,0 H 132 V 34 H 0 Z"
         id="path24" />
    </clipPath>
    <clipPath
       id="logo-wide-dark_svg__b">
      <path
         fill="#ffffff"
         transform="translate(0,0.338)"
         d="M 0,0 H 33.323 V 33.323 H 0 Z"
         id="path27" />
    </clipPath>
    <clipPath
       id="logo-wide-dark_svg__c">
      <path
         fill="#ffffff"
         transform="translate(0,0.338)"
         d="M 0,0 H 33.323 V 33.323 H 0 Z"
         id="path30" />
    </clipPath>
  </defs>
</svg>
