<svg xmlns="http://www.w3.org/2000/svg" width="128" height="128" fill="none" xmlns:v="https://vecta.io/nano"><defs><linearGradient id="A" x2="128.004" gradientUnits="userSpaceOnUse" x1="0" y1="-.587" y2="-.587"><stop stop-color="#fff"/><stop stop-color="#21bbc0"/><stop offset=".34" stop-color="#20b9c0"/><stop offset="1" stop-color="#1387c9"/></linearGradient></defs><path d="M8.693 46.795l56.006 35.291a.107.107 0 0 0 .122 0l57.135-36.09a.108.108 0 0 0 .032-.155.077.077 0 0 0-.032-.032L65.346 9.731a.107.107 0 0 0-.122 0L8.693 46.602a.116.116 0 0 0-.019.168.089.089 0 0 0 .019.026zm56.007 76.67a3.847 3.847 0 0 1-2.096-.619L2.624 84.221a.118.118 0 0 1 0-.155l2.554-3.973a.118.118 0 0 1 .155 0l59.34 38.219a.107.107 0 0 0 .122 0l56.238-36.136a4.468 4.468 0 0 0 2.064-3.776v-8.896a.12.12 0 0 0-.122-.109.152.152 0 0 0-.052.013l-56.8 36.174a3.88 3.88 0 0 1-4.16 0L4.566 69.065A9.728 9.728 0 0 1 0 60.816V48.369a3.86 3.86 0 0 1 1.088-2.696l.192-.155 1.103-.755L63.271 5.082l.064-.038a3.872 3.872 0 0 1 3.999.097l58.863 37.496a3.884 3.884 0 0 1 0 6.559L66.831 86.68a3.904 3.904 0 0 1-4.128 0L5.114 50.423a.115.115 0 0 0-.155.038.096.096 0 0 0-.013.058v10.29a4.808 4.808 0 0 0 2.231 4.078l56.812 36.11a.107.107 0 0 0 .122 0L122.06 64.03a3.864 3.864 0 0 1 4.672.384 4.016 4.016 0 0 1 1.245 3.025v10.919a9.421 9.421 0 0 1-4.334 7.959l-56.877 36.545a3.962 3.962 0 0 1-2.064.6h0z" fill="url(#A)"/></svg>