<svg xmlns="http://www.w3.org/2000/svg" width="128" height="128" fill="none" xmlns:v="https://vecta.io/nano"><path fill="#e50571" d="M0 0h128v128H0z"/><path d="M65.411 95.772c-7.643 0-13.907-1.698-18.793-5.093-4.487-3.118-7.345-7.465-8.575-13.038-.188-.852.342-1.682 1.166-1.9l10.575-2.806c.913-.242 1.828.355 2.083 1.286.553 2.02 1.325 3.667 2.316 4.938 1.339 1.617 2.955 2.789 4.846 3.517 1.97.647 4.098.97 6.382.97 3.467 0 6.028-.606 7.683-1.819 1.654-1.293 2.482-2.87 2.482-4.729s-.788-3.274-2.364-4.245c-1.576-1.051-4.098-1.9-7.564-2.547l-3.309-.606c-4.098-.809-7.841-1.9-11.229-3.274-3.388-1.455-6.107-3.436-8.156-5.942s-3.073-5.74-3.073-9.701c0-5.983 2.127-10.55 6.382-13.704 4.255-3.234 9.849-4.851 16.784-4.851 6.54 0 11.977 1.496 16.311 4.487 3.858 2.663 6.529 6.061 8.014 10.197.309.859-.185 1.781-1.038 2.051l-10.576 3.339c-.923.291-1.878-.3-2.191-1.237-.719-2.151-1.862-3.741-3.428-4.769-1.891-1.294-4.255-1.94-7.092-1.94s-5.004.525-6.501 1.576c-1.497.97-2.246 2.344-2.246 4.123 0 1.94.788 3.395 2.364 4.365 1.575.889 3.703 1.577 6.382 2.061l3.309.606c4.413.809 8.392 1.9 11.938 3.274 3.625 1.294 6.461 3.194 8.51 5.7 2.127 2.426 3.191 5.74 3.191 9.945 0 6.306-2.246 11.197-6.738 14.673-4.412 3.396-10.362 5.093-17.847 5.093z" fill="#fff"/></svg>