<svg xmlns="http://www.w3.org/2000/svg" width="128" height="128" fill="none" xmlns:v="https://vecta.io/nano"><path fill-rule="evenodd" d="M94.057 53.384l-.002.005c5.222 6.548 8.343 14.841 8.343 23.861a38.14 38.14 0 0 1-8.577 24.152l-.462.568-.122-.721c-.104-.614-.226-1.233-.369-1.857C90.183 87.6 81.439 77.488 67.047 69.3c-9.719-5.514-15.282-12.153-16.743-19.696-.943-4.878-.242-9.777 1.113-13.974s3.37-7.71 5.083-9.826l.001-.001 5.598-6.846c.982-1.201 2.819-1.201 3.801 0zm8.855-6.84l.001-.002L65.387.657c-.716-.876-2.058-.876-2.774 0L25.087 46.542l.001.002-.122.152c-6.906 8.569-11.038 19.459-11.038 31.313C13.928 105.618 36.345 128 64 128s50.072-22.382 50.072-49.991c0-11.854-4.132-22.744-11.038-31.313zm-68.847 6.692l.002-.002 3.356-4.104.101.757a33.04 33.04 0 0 0 .293 1.81c2.172 11.395 9.93 20.896 22.901 28.255 11.275 6.417 17.84 13.796 19.731 21.889.789 3.377.93 6.7.588 9.605l-.021.18-.163.079c-5.089 2.486-10.809 3.881-16.856 3.881-21.206 0-38.398-17.163-38.398-38.336a38.14 38.14 0 0 1 8.465-24.015z" fill="#4ca3ff"/></svg>