<svg xmlns="http://www.w3.org/2000/svg" width="128" height="128" viewBox="0 0 33.867 33.867" xmlns:v="https://vecta.io/nano"><path d="M16.831 32.101v-.203l-.034-9.329c0-.27-.068-.203.203-.372l1.994-1.183 5.746-3.346c.068-.034.101-.068.203-.101v9.498c.034.203-.101.406-.27.507L17.034 32zm8.788-5.104v-.237l-.034-8.518v-.879c0-.101.034-.203.135-.27l3.042-1.758 4.056-2.366.777-.406c.068-.034.135-.034.203-.034v.203 9.329c0 .27.034.203-.203.372l-7.436 4.326c-.135.068-.27.135-.372.237-.034-.068-.068-.034-.169 0z" fill="#00e3cc"/><path d="M8.178 16.992v9.295c.034.203-.101.372-.27.439-.304.135-.642.135-.98.034a4.79 4.79 0 0 1-.608-.27l-1.487-.879-.304-.203-1.96-1.115-.913-.541a3.34 3.34 0 0 1-.946-.879 4.31 4.31 0 0 1-.507-.845c-.068-.135-.135-.372-.135-.642V13.41c0-.169.068-.203.203-.135l.676.372 3.042 1.758 2.231 1.284c.034 0 .068.034.068.068.406.237.913.372 1.386.304.203 0 .338-.034.507-.068zm7.943 15.109l-.575-.27-2.434-1.42-2.197-1.284c-.372-.203-.744-.473-1.082-.744-.406-.338-.676-.811-.845-1.318 0-.068-.034-.135-.034-.203v-8.754l.304.237a10.41 10.41 0 0 0 1.115.71l5.577 3.177c.101.034.135.135.135.237v.203 9.16z" fill="#fbe204"/><path d="M8.077 6.548l.372-.203 1.96-1.149c.068-.034.169-.034.27.034l3.38 1.927.845.473c.068.034.169.068.237.068s.135-.034.169-.135c.034-.068 0-.135-.034-.169-.068-.034-.135-.101-.169-.135L11.626 5.23l-.507-.27c-.034-.034-.068-.068-.135-.101.034-.034.101-.068.135-.101l2.434-1.42c.101-.068.237-.068.338 0l3.988 2.298c.068.034.169.101.237.135.101.034.237 0 .27-.101.068-.101 0-.237-.101-.27h0l-1.048-.608-2.907-1.656c-.034-.034-.101-.034-.101-.135l.338-.203 1.69-.98c.101-.068.237-.068.338 0l1.825 1.048.913.507 1.386.811 1.014.575 1.69.98.507.304.203.203c.203.237.169.575-.068.744-.034.034-.068.034-.101.068L20.38 9.117l-2.366 1.386c-.439.27-.98.406-1.521.372-.372 0-.71-.034-1.082-.135l-.27-.101L9.936 7.63 8.28 6.65a.55.55 0 0 1-.203-.101zm-3.279 8.484c.034-.034.101-.068.135-.101l3.312-1.893.169-.101c.135-.068.135-.135.068-.27-.034-.101-.135-.169-.237-.101h0c-.034.034-.101.034-.135.068l-2.974 1.69-.811.473-.777-.439-.608-.372-1.859-1.082-.338-.203a1.2 1.2 0 0 1-.575-.777c-.101-.304 0-.642.237-.845.135-.101.237-.203.372-.27l1.115-.642 1.69-.98 1.048-.608 1.217-.71c.203-.101.406-.203.575-.338.27-.169.608-.237.913-.203.372.034.744.135 1.048.338s.642.372.946.541l.169.101-.135.101-3.481 2.028-.068.068c-.169.101-.203.237-.135.338s.203.135.372.034l.642-.372L9.904 8.68c.101-.068.237-.068.304 0l3.988 2.298c.135.068.27.169.439.237.338.203.473.642.27 1.014-.034.034-.034.068-.068.101-.068.068-.135.135-.203.169L9.97 15.201l-1.386.811c-.237.135-.507.237-.811.27-.575.101-1.149-.034-1.622-.372-.406-.304-.879-.608-1.352-.879zm24.776-1.014c-.101.068-.135.101-.203.135l-2.265 1.284-1.69.98a.25.25 0 0 1-.304 0l-1.825-1.048-.913-.575-1.724-1.014-.946-.541c-.304-.203-.71-.372-1.048-.608-.372-.203-.541-.642-.439-1.048.034-.203.169-.372.338-.507l3.819-2.197 2.265-1.318a1.57 1.57 0 0 1 .777-.203h.27c.068 0 .135.034.203.034h.068c.237.034.473.101.642.237l1.927 1.115.676.406c.304.203.372.642.169.946-.034.068-.101.135-.169.169l-2.772 1.622c-.068.034-.101.068-.169.101-.068.068-.101.135-.034.237.034.068.101.135.203.135.068 0 .135-.034.203-.068l1.555-.913 1.656-.946c.203-.101.439-.169.642-.169h.338a.94.94 0 0 1 .439.101l1.555.879.608.338c.135.068.135.101 0 .203l-1.656.946-1.622.946c-.101.068-.237.068-.304 0l-.777-.473-.101-.068c-.101-.034-.203 0-.27.068-.068.101-.034.203.068.27l.169.101zm-4.326-2.907c-.034-.034-.034-.068-.068-.135-.034-.034-.068-.068-.101-.068l-1.758-1.014c-.034-.034-.068-.034-.101-.068-.101-.034-.203.068-.237.169 0 .068 0 .135.068.169.034.034.068.034.101.068l1.284.744c.169.101.372.203.541.338.101.034.237 0 .27-.101zm-3.178 7.267l-.27.169-2.366 1.352c-.068.068-.169.068-.27 0l-1.555-.913-2.366-1.352c-.034-.034-.101-.034-.135-.068-.101-.068-.237-.034-.27.068h0c-.068.101-.034.237.068.27h0l1.183.676 2.569 1.521c.068.034.101.068.169.101-.034.034-.101.068-.169.101l-1.521.879c-.203.135-.439.237-.642.372a.29.29 0 0 1-.237 0l-5.476-3.143-1.082-.642a1.49 1.49 0 0 1-.507-.406c-.101-.101-.169-.27-.169-.406-.034-.203.101-.372.27-.439l1.42-.845 4.563-2.603a2.08 2.08 0 0 1 .777-.237c.101-.034.203-.034.304-.034.372 0 .744.068 1.082.135.439.135.811.304 1.217.541l1.386.811 3.076 1.791 1.284.744c.034.034.101.068.169.101l-.135.101-1.758 1.014c-.101.068-.237.068-.338 0l-4.022-2.332-.101-.068c-.101-.034-.203 0-.27.068-.068.101 0 .237.068.27.135.101.27.169.439.27l3.448 1.994zm-6.219-6.963l.879.034c.27.034.575-.068.845-.068-.034.304-.034.608.068.879h-.237c-.27-.034-.541-.034-.845-.034-.169 0-.304 0-.473.034h-.237v-.406c.034-.169 0-.304 0-.439z" fill="#ff2199"/></svg>