<svg xmlns="http://www.w3.org/2000/svg" xmlns:xlink="http://www.w3.org/1999/xlink" width="128" height="128" viewBox="0 0 33.867 33.867" xmlns:v="https://vecta.io/nano"><defs><linearGradient x1=".096" y1="-.456" x2=".799" y2=".591" gradientTransform="matrix(79.109375,0,0,-79.109375,263.89111,218.45312)" spreadMethod="pad" id="A" xlink:href="#M"><stop offset="0" stop-color="#65daab"/><stop offset=".221" stop-color="#2c9b8b"/><stop offset=".524" stop-color="#0f949c"/><stop offset=".779" stop-color="#0199cb"/></linearGradient><linearGradient x1=".56" y1=".023" x2=".799" y2=".535" gradientTransform="matrix(74.939453,0,0,-74.939453,198.64746,239.30566)" spreadMethod="pad" id="B" xlink:href="#M"><stop offset="0" stop-color="#2269d6"/><stop offset="1" stop-color="#0b1399"/></linearGradient><linearGradient x1="196.428" y1="-230.946" x2="254.65" y2="615.869" spreadMethod="pad" id="C" xlink:href="#M"><stop offset="0" stop-color="#2269d6"/><stop offset="1" stop-color="#0f1896"/></linearGradient><clipPath id="D"><path d="M263.891 243.817l47.367-72.107h31.743l-58.108 86.745-5.745 6.742z"/></clipPath><clipPath id="E"><path d="M0 595.28h841.89V0H0z"/></clipPath><clipPath id="F"><path d="M0 595.28h841.89V0H0z"/></clipPath><clipPath id="G"><path d="M237.887 222.548h45.518v-55.236h-45.518z"/></clipPath><clipPath id="H"><path d="M258.559 199.237c-.392-1.608-1.482-2.898-2.396-3.704h0l-18.276-28.148c10.924-.479 19.355 1.443 25.778 4.325h0c12.678 6.413 18.56 17.136 18.56 17.136h0c4.893 18.854-6.902 31.972-8.548 33.702h0z"/></clipPath><linearGradient x1="237.887" y1="194.93" x2="283.405" y2="194.93" spreadMethod="pad" id="I" xlink:href="#M"><stop offset="0" stop-color="#2269d6"/><stop offset="1" stop-color="#2333a3"/></linearGradient><linearGradient id="J" x1="18.641" y1="-2.674" x2="24.984" y2="-35.559" xlink:href="#M"><stop offset="0" stop-color="#b9f3de"/><stop offset="1" stop-color="#63e5b7"/></linearGradient><linearGradient id="K" x1="-25.533" y1="-86.339" x2="0" y2="0" xlink:href="#M"><stop offset="0" stop-color="#1eabc2"/><stop offset="1" stop-color="#65daab"/></linearGradient><linearGradient id="L" x1="-35.79" y1="-55.163" x2="-.053" y2="-.081" xlink:href="#M"><stop offset=".145" stop-color="#19387e"/><stop offset="1" stop-color="#40c2b7"/></linearGradient><linearGradient id="M" gradientUnits="userSpaceOnUse"/></defs><g transform="matrix(.231057 0 0 -.231057 -45.385995 68.53843)"><path d="M203.432 258.93c-9.759-19.596-4.009-31.482 11.978-39.839h0c16.002-8.38 35.489-7.758 41.12-13.999h0c1.998-2.218 2.029-5.855 2.029-5.855h0l15.066 23.23-.237.262h0c-6.735 8.029-24.362 13.826-32.799 14.839h0c-8.426.931-23.615 6.944-9.941 13.12h0c9.142 3.528 20.683 2.369 28.649-1.987l-.001.002-17.268 27.234-2.365 3.439s-26.496-.811-36.231-20.446" fill="url(#B)" clip-path="none"/><path d="M196.428 190.46c15.356-19.602 37.48-22.486 37.48-22.486h0c1.33-.238 3.978-.589 3.978-.589h0l18.276 28.148c-.85-.85-1.512-1.07-1.512-1.07h0c-25.748-8.744-37.108 12.246-37.108 12.246h0z" fill="url(#C)" clip-path="none"/><g clip-path="url(#H)"><path d="M258.559 199.237c-.392-1.608-1.482-2.898-2.396-3.704h0l-18.276-28.148c10.924-.479 19.355 1.443 25.778 4.325h0c12.678 6.413 18.56 17.136 18.56 17.136h0c4.893 18.854-6.902 31.972-8.548 33.702h0z" fill="url(#I)"/></g><g clip-path="url(#E)"><g transform="translate(238.907 279.376)"><path d="M.757 0l19.632-30.673 4.595-4.886L40.242-14.18C30.111-1.187.757 0 .757 0" fill="url(#J)"/></g></g><g clip-path="url(#D)"><path d="M263.891 243.817l47.367-72.107h31.743c-22.637 30.076-40.369 63.99-63.853 93.487z" fill="url(#A)"/></g><g clip-path="url(#F)"><g transform="translate(307.758 275.185)"><path d="M0 0l-34.133-52.718c1.654-1.73 13.442-14.847 8.55-33.702L31.738 0z" fill="url(#K)"/></g><g clip-path="url(#G)" opacity=".5"><g transform="translate(273.677 222.548)"><path d="M0 0l-15.118-23.312c-.392-1.607-1.482-2.897-2.397-3.703l-18.276-28.148c10.925-.479 19.355 1.443 25.778 4.325C2.666-44.425 8.548-33.702 8.548-33.702 13.44-14.848 1.646-1.73 0 0" fill="url(#L)"/></g></g></g></g></svg>