<svg xmlns="http://www.w3.org/2000/svg" xmlns:xlink="http://www.w3.org/1999/xlink" width="128" height="128" viewBox="0 0 33.867 33.867" xmlns:v="https://vecta.io/nano"><defs><linearGradient id="A" x1="12.173" y1="4" x2="16.422" y2="11.087" xlink:href="#G"><stop offset="0" stop-color="#b9f3de"/><stop offset="1" stop-color="#6ee7bc"/></linearGradient><linearGradient id="B" x1="4.033" y1="28.121" x2="13.987" y2="22.921" xlink:href="#G"><stop offset=".612" stop-color="#2342b0"/><stop offset="1" stop-color="#070f80"/></linearGradient><linearGradient id="C" x1="25.951" y1="4.738" x2="18.629" y2="26.749" xlink:href="#G"><stop offset="0" stop-color="#65daab"/><stop offset="1" stop-color="#1eacc2"/></linearGradient><linearGradient id="D" x1="17.411" y1="9.587" x2="34.866" y2="22.069" xlink:href="#G"><stop offset=".057" stop-color="#5fd6ad"/><stop offset=".365" stop-color="#108085"/><stop offset=".71" stop-color="#0199cb"/></linearGradient><linearGradient id="E" x1="5.586" y1="12.356" x2="16.665" y2="19.785" xlink:href="#G"><stop offset="0" stop-color="#3871dd"/><stop offset=".852" stop-color="#1c39ae"/><stop offset="1" stop-color="#070f80"/></linearGradient><linearGradient id="F" x1="10.9" y1="29.973" x2="19.157" y2="17.465" xlink:href="#G"><stop offset="0" stop-color="#1a45a3"/><stop offset="1" stop-color="#019ebb"/></linearGradient><linearGradient id="G" gradientUnits="userSpaceOnUse"/></defs><path d="M13.987 22.921l3.937-6.008c-1.615-1.49-4.167-3.01-8.632-3.571-.758-.095-2.284-.402-2.411-1.239-.169-1.115.954-1.531 1.772-1.76 1.56-.437 4.603-.821 6.77 1.459l-5.18-7.857c-4.724.12-7.381 2.939-8.455 4.322-.849 1.094-2.284 3.836-.847 6.62 1.195 2.315 3.113 3.295 6.864 4.3 2.002.536 4.379.759 5.451 1.493 1.584 1.083.73 2.241.73 2.241h0" fill="url(#E)"/><path d="M19.135 6.972l1.434 1.571c.529.691.958 1.453 1.437 2.179l3.647 5.531 8.214 12.459h-7.293L15.687 12.202m2.672 4.052l-2.672-4.052z" fill="url(#D)"/><path d="M9.369 29.89l4.519-6.854c.129-.136.16-.204.216-.328l11.847-17.97h7.293L22.006 21.785l-3.256 4.834c-1.173 1.359-3.868 3.608-9.381 3.271z" fill="url(#C)"/><path d="M9.369 29.89C5.706 29.59 2.587 27.72 0 24.357l4.868-3.68c1.297 1.792 3.311 3.154 5.569 3.236 1.219.079 2.621.145 3.451-.878z" fill="url(#B)"/><path d="M17.924 16.913c5.713 7.12 0 13.59-8.555 12.976l4.519-6.854c.101-.106.159-.192.216-.328" fill="url(#F)"/><path d="M15.687 12.202l3.448-5.229c-2.471-2.187-5.472-3.139-8.891-3.027" fill="url(#A)"/></svg>