<svg xmlns="http://www.w3.org/2000/svg" width="128" height="128" fill="none" xmlns:v="https://vecta.io/nano"><g clip-path="url(#A)" fill-rule="evenodd" fill="#1f5eff" transform="translate(0 -.137)"><path d="M111.861 107.183a65.869 65.869 0 0 1-11.68 8.058c.794-.63-1.705-3.247-.933-3.924 18.874-16.352 23.172-37.538 15.558-56.061-1.028-2.499 1.144-3.504 1.144-5.816 17.566 16.375 15.697 40.644-4.088 57.743z"/><path d="M116.135 49.371c-7.678-6.863-16.927-11.733-26.932-14.179h0c3.831 1.004 4.112 5.419 6.751 7.661 5.63 4.672 7.149 10.861 7.732 18.943.865 12.007.794 23.872-7.965 34.454a47.398 47.398 0 0 1-17.285 13.548l-1.611.654a.66.66 0 0 1-.234 0c-3.562 1.419-7.255 2.482-11.026 3.177-14.202 2.686-33.029 1.565-55.781-5.676 17.177 13.36 38.949 19.365 60.545 16.702 1.542-.164 3.037-.398 4.531-.654 5.826-1.015 11.528-2.651 17.005-4.882a74.06 74.06 0 0 0 8.338-3.971c.794-.63 1.589-1.284 2.336-1.962 21.583-18.523 26.442-43.797 13.594-63.815z"/><path d="M76.823 110.453c26.676-10.815 28.031-38.307-2.803-53.725-22.471-11.235-12.543-29.081 15.184-21.489 30.997 8.106 21.84 62.064-12.38 75.214zm41.368-90.094c-29.245-9.344-51.927-8.503-66.806-2.523h-.234c-22.121 9.11-26.839 29.549-10.02 45.176-4.438-3.667-9.484-7.592-11.68-12.544a38.054 38.054 0 0 1-2.523-20.812 30.658 30.658 0 0 1 5.599-12.878 30.668 30.668 0 0 1 10.752-9.032 48.422 48.422 0 0 1 14.295-4.112 81.963 81.963 0 0 1 60.617 16.725z"/><path d="M46.083 94.685c-1.916-.63-4.088-.911-5.863-1.635C17.632 83.964 5.579 67.076 5.999 50.398c.327-11.843 7.265-23.849 18.687-33.73a77.828 77.828 0 0 1 11.375-7.475h0c5.474-2.234 11.177-3.862 17.005-4.858 1.518-.28 3.06-.49 4.672-.677a43.2 43.2 0 0 0-5.232 1.097c-29.245 7.942-30.974 42.045-11.306 58.396a55.918 55.918 0 0 0 12.871 8.667c20.416 10.091 14.061 25.718-7.989 22.868z"/><path d="M46.083 94.685a52.697 52.697 0 0 1-7.241-1.495c-43.307-11.82-49.66-48.609-22.751-71.991A71.525 71.525 0 0 1 36.039 9.193a72.261 72.261 0 0 0-10.745 7.685c-28.661 24.9-22.962 63.629 20.79 77.807z"/></g><defs><clipPath id="A"><path fill="#fff" d="M0 0h128v128H0z"/></clipPath></defs></svg>