<svg xmlns="http://www.w3.org/2000/svg" width="128" height="128" fill="none" xmlns:v="https://vecta.io/nano"><circle cx="64" cy="64" r="64" fill="url(#C)"/><g filter="url(#A)" transform="matrix(1.122807 0 0 1.122807 .000002 0)"><circle cx="57" cy="57" r="57" fill="url(#D)"/></g><circle cx="64" cy="64" r="63.333" stroke="url(#E)" stroke-opacity=".12" stroke-width="1.333"/><g filter="url(#B)" transform="matrix(1.122807 0 0 1.122807 .000002 0)"><path d="M78.19 29.534a1 1 0 0 0-.867-1.357l-11.337-.752a1 1 0 0 0-.888.428l-3.004 4.327a1 1 0 0 1-.827.43l-19.957-.118a4 4 0 0 0-2.662.994l-5.537 4.86a4 4 0 0 0-1.129 4.349l2.637 7.4a.12.12 0 0 1-.017.113h0a12.41 12.41 0 0 0-2.475 6.798l-.045.839a46 46 0 0 0 1.822 15.493l3.486 11.791c.453 1.534 2.02 2.439 3.576 2.066l13.631-3.277c3.983-.959 7.771-2.594 11.205-4.829l2.149-1.398a12.41 12.41 0 0 0 4.65-5.542h0a.12.12 0 0 1 .089-.071l7.727-1.416a4 4 0 0 0 3.202-3.152l1.44-7.225a4 4 0 0 0-.471-2.803L75.214 41.46a4 4 0 0 1-.281-3.456z" stroke="#fff" stroke-width="5.5"/></g><defs><filter id="A" x="-9.5" y="0" width="123.5" height="114" filterUnits="userSpaceOnUse" color-interpolation-filters="sRGB"><feFlood flood-opacity="0"/><feBlend in="SourceGraphic" result="B"/><feColorMatrix in="SourceAlpha" values="0 0 0 0 0 0 0 0 0 0 0 0 0 0 0 0 0 0 127 0" result="C"/><feOffset dx="-14.25"/><feGaussianBlur stdDeviation="4.75"/><feComposite in2="C" operator="arithmetic" k2="-1" k3="1" k1="0" k4="0"/><feColorMatrix values="0 0 0 0 0.682353 0 0 0 0 0.45098 0 0 0 0 0.980392 0 0 0 0.56 0"/><feBlend in2="B"/></filter><filter id="B" x="28.038" y="24.192" width="60.81" height="67.277" filterUnits="userSpaceOnUse" color-interpolation-filters="sRGB"><feFlood flood-opacity="0" result="A"/><feColorMatrix in="SourceAlpha" values="0 0 0 0 0 0 0 0 0 0 0 0 0 0 0 0 0 0 127 0" result="B"/><feOffset dy="0.480491"/><feGaussianBlur stdDeviation=".48"/><feColorMatrix values="0 0 0 0 0 0 0 0 0 0 0 0 0 0 0 0 0 0 0.12 0"/><feBlend in2="A"/><feBlend in="SourceGraphic" result="D"/><feColorMatrix in="SourceAlpha" values="0 0 0 0 0 0 0 0 0 0 0 0 0 0 0 0 0 0 127 0" result="B"/><feOffset dy="0.480491"/><feGaussianBlur stdDeviation=".48"/><feComposite in2="B" operator="arithmetic" k2="-1" k3="1" k1="0" k4="0"/><feColorMatrix values="0 0 0 0 0 0 0 0 0 0 0 0 0 0 0 0 0 0 0.12 0"/><feBlend in2="D"/></filter><linearGradient id="C" x1="64" y1="0" x2="64" y2="128" gradientUnits="userSpaceOnUse"><stop stop-color="#130c3f"/><stop offset="1" stop-color="#15197b"/></linearGradient><linearGradient id="D" x1="0" y1="57" x2="114" y2="57" gradientUnits="userSpaceOnUse"><stop stop-color="#ae73fa"/><stop offset="1" stop-color="#ae73fa" stop-opacity="0"/></linearGradient><linearGradient id="E" x1="128" y1="64" x2="0" y2="64" gradientUnits="userSpaceOnUse"><stop stop-color="#ae73fa"/><stop offset="1" stop-color="#ae73fa" stop-opacity="0"/></linearGradient></defs></svg>