<svg xmlns="http://www.w3.org/2000/svg" width="128" height="128" fill="none" xmlns:v="https://vecta.io/nano"><g transform="matrix(.761128 0 0 .761128 5.144983 0)"><g opacity=".25" fill="#000"><path d="M49.57 156.767a4.11 4.11 0 0 1-1.373-2.7L40.4 71.113h27.75v92.935c0 3.544-4.182 5.431-6.839 3.085zm18.579-87.3v-11.58l-29.231-2.526 1.326 14.106zm0-13.232l-29.387-2.539L34.169 4.83c-.227-2.414 1.672-4.5 4.097-4.5h25.768c2.273 0 4.115 1.842 4.115 4.115zm54.238 13.232h21.154a2.06 2.06 0 0 0 2.058-2.058V55.274a2.06 2.06 0 0 0-2.258-2.048l-19.643 1.918zm-.357-14.16l-29.271 2.858v11.301h27.975z"/><path d="M91.113 58.326v11.141H13.17a2.06 2.06 0 0 1-2.058-2.058V55.247a2.06 2.06 0 0 1 2.233-2.05l69.271 5.925a2.04 2.04 0 0 0 .375-.002zm8.691 108.527c-2.584 2.62-7.045.79-7.045-2.89V36.298h31.05l-10.802 115.846c-.088.946-.501 1.832-1.168 2.508zm24.158-132.201H92.759V16.909l33.05-2.062zM92.759 4.446V15.26l33.204-2.071.78-8.36c.225-2.413-1.674-4.497-4.097-4.497H96.874c-2.273 0-4.115 1.842-4.115 4.115zM68.15 34.652V16.961l-33.01-1.625 1.806 19.316z"/><path d="M69.796 34.652h83.21c.909 0 1.646-.737 1.646-1.646V14.719c0-.95-.802-1.703-1.75-1.643l-71.46 4.539-11.646-.573zM33.344 15.248l1.972 19.404H1.976c-.909 0-1.646-.737-1.646-1.646V15.352c0-.941.787-1.69 1.727-1.644z"/></g><path d="M49.24 156.437c-.784-.692-1.276-1.658-1.373-2.7l-7.797-82.954h27.75v92.935c0 3.544-4.182 5.43-6.839 3.085z" fill="url(#A)"/><path d="M67.819 69.137v-11.58l-29.231-2.526 1.326 14.106z" fill="url(#A)"/><path d="M67.819 55.905l-29.387-2.539L33.839 4.5C33.612 2.086 35.511 0 37.936 0h25.768c2.273 0 4.115 1.842 4.115 4.115z" fill="url(#A)"/><path d="M122.057 69.137h21.154a2.06 2.06 0 0 0 2.058-2.058V54.944a2.06 2.06 0 0 0-2.258-2.048l-19.643 1.918z" fill="url(#A)"/><path d="M121.7 54.977l-29.271 2.858v11.301h27.975z" fill="url(#A)"/><path d="M90.783 57.996v11.141H12.84a2.06 2.06 0 0 1-2.058-2.058V54.917a2.06 2.06 0 0 1 2.233-2.05l69.271 5.925c.125.011.251.01.375-.002z" fill="url(#A)"/><path d="M99.474 166.523c-2.584 2.62-7.045.79-7.045-2.89V35.968h31.05l-10.802 115.846c-.088.946-.501 1.832-1.168 2.508z" fill="url(#A)"/><path d="M123.632 34.322H92.429V16.579l33.05-2.062z" fill="url(#A)"/><path d="M92.429 4.116V14.93l33.204-2.071.78-8.36c.225-2.413-1.674-4.497-4.098-4.497H96.544c-2.273 0-4.115 1.842-4.115 4.115z" fill="url(#A)"/><path d="M67.82 34.322V16.631L34.81 15.006l1.806 19.316z" fill="url(#A)"/><path d="M69.466 34.322h83.21c.909 0 1.646-.737 1.646-1.646V14.389c0-.95-.802-1.703-1.75-1.643l-71.46 4.539-11.646-.573z" fill="url(#A)"/><path d="M33.014 14.918l1.972 19.404H1.646C.737 34.322 0 33.585 0 32.676V15.022c0-.941.787-1.69 1.727-1.644z" fill="url(#A)"/></g><defs><linearGradient id="A" x1="0" y1="83.921" x2="154.322" y2="83.921" gradientUnits="userSpaceOnUse"><stop stop-color="#5433ff"/><stop offset=".5" stop-color="#20bdff"/><stop offset="1" stop-color="#a5fecb"/></linearGradient></defs></svg>