<svg xmlns="http://www.w3.org/2000/svg" xmlns:xlink="http://www.w3.org/1999/xlink" width="128" height="128" viewBox="0 0 33.867 33.867" xmlns:v="https://vecta.io/nano"><defs><linearGradient id="A" gradientUnits="userSpaceOnUse"><stop offset="0" stop-color="#4366c2"/><stop offset=".15" stop-color="#3458b8"/><stop offset=".4" stop-color="#2348ac"/><stop offset=".67" stop-color="#193fa5"/><stop offset="1" stop-color="#163ca3"/></linearGradient><linearGradient id="B" x1="18.705" y1="15.861" x2="18.705" y2=".967" xlink:href="#A"/><linearGradient id="C" gradientUnits="userSpaceOnUse"><stop offset="0" stop-color="#58c66b"/><stop offset="1" stop-color="#5491f6"/></linearGradient><linearGradient id="D" x1="-.013" y1="22.259" x2="10.425" y2="22.259" xlink:href="#C"/><linearGradient id="E" x1="9.128" y1="14.076" x2="33.867" y2="14.076" xlink:href="#C"/><linearGradient id="F" x1="22.028" y1="29.257" x2="31.71" y2="29.257" xlink:href="#C"/><linearGradient xlink:href="#A" id="G" x1="23.149" y1="32.873" x2="23.149" y2="16.936"/><linearGradient xlink:href="#C" id="H" x1="1.733" y1="6.192" x2="12.549" y2="6.192"/></defs><path d="M14.555 26.911c.932 3.44 4.261 6.066 5.942 5.962.059 0 6.378-1.186 9.838-6.978 2.691-4.509 1.779-8.861-1.883-8.959-1.303.098-15.637 3.421-13.897 9.975" fill="url(#G)"/><path d="M28.107 4.811h0a16.047 16.047 0 0 0-16.94-2.45 9.317 9.317 0 0 0-1.023.502l-.652.371h.059a7.278 7.278 0 0 0-1.714 1.642c-4.593 6.079 10.848 10.522 19.116 10.535 3.805 2.736 4.873-7.701 1.153-10.6z" fill="url(#B)"/><path d="M12.105 4.935c-2.124 3.199-9.2 5.453-10.366 5.102h0l.143-.293a17.318 17.318 0 0 1 1.362-2.261 17.311 17.311 0 0 1 3.681-3.649 15.578 15.578 0 0 1 1.349-.912 4.952 4.952 0 0 1 2.339-.652c3.153.059 1.505 2.606 1.492 2.606" fill="url(#H)"/><path d="M10.359 27.543c.156 1.003 0 4.971-.208 5.31-.176 0-.541.033-1.609-.567a15.637 15.637 0 0 1-1.616-1.055 16.94 16.94 0 0 1-1.955-1.694 16.373 16.373 0 0 1-1.694-1.955 16.575 16.575 0 0 1-2.404-4.658 16.464 16.464 0 0 1-.652-2.606 17.213 17.213 0 0 1 0-5.505 16.816 16.816 0 0 1 .652-2.606q.078-.254.176-.508h0l3.838 4.743c1.231 1.642 2.717 4.118 3.036 4.665 1.955 3.381 2.306 5.473 2.456 6.476" fill="url(#D)"/><path d="M33.867 17.536a16.979 16.979 0 0 1-1.179 6.235c-1.994 2.144-15.448-3.14-15.578-3.199-1.844-.808-7.44-3.258-7.949-7.128-.704-5.558 10.522-9.428 15.467-9.578.593 0 2.398 0 3.447.886a16.94 16.94 0 0 1 5.792 12.783" fill="url(#E)"/><path d="M24.745 32.586c-1.466.691-3.082.189-2.658-1.244.801-2.743 7.818-5.564 9.389-5.714.189 0 .274.111.189.261a17.161 17.161 0 0 1-6.919 6.698" fill="url(#F)"/></svg>