<svg xmlns="http://www.w3.org/2000/svg" width="128" height="128" viewBox="0 0 33.867 33.867" xmlns:v="https://vecta.io/nano"><path d="M14.612 26.891c.93 3.433 4.263 6.055 5.976 5.976.06 0 6.381-1.188 9.84-6.965 2.629-4.522 1.713-8.864-1.952-8.97-1.328.1-15.67 3.413-13.897 9.959M28.137 4.834h0a16.068 16.068 0 0 0-16.944-2.45 8.572 8.572 0 0 0-1.023.498l-.664.365h.06a7.264 7.264 0 0 0-1.7 1.607c-4.621 6.102 10.843 10.544 19.115 10.564 3.805 2.729 4.893-7.689 1.155-10.584z" fill="#0e3ca5"/><path d="M12.122 4.98c-2.125 3.194-9.203 5.444-10.364 5.099h0c.046-.093.093-.193.146-.286A17.077 17.077 0 0 1 6.95 3.904a15.935 15.935 0 0 1 1.328-.896 5.053 5.053 0 0 1 2.35-.684c3.154.066 1.507 2.596 1.487 2.616m-1.733 22.615c.153 1.009 0 4.966-.212 5.312-.173 0-.544.033-1.607-.564a15.404 15.404 0 0 1-1.62-1.056 15.982 15.982 0 0 1-1.992-1.693 16.599 16.599 0 0 1-1.7-1.992 17.641 17.641 0 0 1-1.374-2.218 16.446 16.446 0 0 1-1.009-2.437 16.958 16.958 0 0 1 0-10.71l.179-.505h0l3.838 4.734 3.041 4.648c1.992 3.38 2.304 5.464 2.457 6.46m23.484-9.999a16.838 16.838 0 0 1-1.182 6.221c-1.992 2.145-15.45-3.134-15.583-3.194-1.839-.803-7.443-3.26-7.968-7.111C8.457 7.9 19.704 4.036 24.651 3.89c.591 0 2.397 0 3.446.883a16.904 16.904 0 0 1 5.77 12.761m-9.083 15.027c-1.467.664-3.081.186-2.656-1.242.803-2.742 7.841-5.557 9.395-5.71.193 0 .272.113.186.266a17.11 17.11 0 0 1-6.925 6.686" fill="#6390ef"/></svg>