<svg xmlns="http://www.w3.org/2000/svg" width="128" height="128" viewBox="0 0 33.867 33.867" xmlns:v="https://vecta.io/nano"><path d="M20.563 33.867q-3.625 0-5.292-1.746a5.391 5.391 0 0 1-1.661-3.763 2.496 2.496 0 0 1 .291-1.244 2.152 2.152 0 0 1 .794-.794 2.768 2.768 0 0 1 2.471 0 2.116 2.116 0 0 1 .789.794 2.445 2.445 0 0 1 .301 1.244 2.375 2.375 0 0 1-.423 1.455 1.972 1.972 0 0 1-1.006.736 2.746 2.746 0 0 0 1.587.99 7.866 7.866 0 0 0 2.164.312 4.824 4.824 0 0 0 2.725-.815 4.762 4.762 0 0 0 1.778-2.408 10.46 10.46 0 0 0 .582-3.604 9.887 9.887 0 0 0-.635-3.747 4.625 4.625 0 0 0-1.836-2.328 4.883 4.883 0 0 0-2.645-.757 5.033 5.033 0 0 0-2.291.778l-1.699.852v-.852l7.636-10.244H13.61v10.63a3.803 3.803 0 0 0 .582 2.175 2.006 2.006 0 0 0 1.778.852 2.973 2.973 0 0 0 1.757-.619 6.343 6.343 0 0 0 1.471-1.513.529.529 0 0 1 .191-.254.391.391 0 0 1 .255-.095.883.883 0 0 1 .497.212 1.059 1.059 0 0 1 .27.72 4.206 4.206 0 0 1-.095.529 5.124 5.124 0 0 1-1.815 2.254 4.502 4.502 0 0 1-2.546.773q-3.437 0-4.762-1.355a5.074 5.074 0 0 1-1.312-3.704V8.727H4.498V6.752h5.408V2.249L8.667 1.01V0h3.593l1.35.699v6.053l13.98-.043 1.392 1.397-8.573 8.614a5.761 5.761 0 0 1 1.619-.392 7.018 7.018 0 0 1 3.133.894 6.435 6.435 0 0 1 2.699 2.409 8.499 8.499 0 0 1 1.217 2.905 12.238 12.238 0 0 1 .291 2.487 10.404 10.404 0 0 1-1.058 4.609 6.759 6.759 0 0 1-3.175 3.175 10.274 10.274 0 0 1-4.573 1.058z" fill="#2c7df7"/></svg>