<svg xmlns="http://www.w3.org/2000/svg" viewBox="0 0 128 283.2" height="128" width="128" xmlns:v="https://vecta.io/nano"><path d="M-77.490206 134.82764c.168765-.10125.708813 4.86043 0 4.75917v-4.75917z" fill="#636363"/><path d="M11.448891 46.124818c0-.202518 3.17278-.101259 3.645322-.101259-.438789.573801-3.004015.438789-3.645322.101259z" fill="#8f9090"/><path d="M11.448891 46.124818c2.801498 0 5.501736.03375 8.26948.607554 4.320377.91133 8.607007 4.42164 12.994897 4.219122 5.53549-.236271 11.10473-2.058932 16.70772-2.463967 5.56925-.405036 11.13849-.303777 16.67397.135012 5.73801.472541 11.44226 1.282613 17.07901 2.49772 4.89418 1.046342 10.29466 3.409051 15.18884 1.316366 4.489152-1.957673 8.303232-3.74658 13.298682-4.08411 5.19795-.371283 10.69969-.101259 15.76264 1.282613 9.1133 2.49772 17.11276 9.214563 21.70316 17.416537 2.46397 4.42164 3.00402 9.484587 4.96169 14.108745 1.89017 4.522899 5.23171 8.742021 7.86444 12.826131 6.10929 9.484589 11.03723 19.239199 15.15509 29.736369 1.38387 3.51031 2.12644 9.24832 5.63675 11.34101 1.75515 1.04634 3.98285 1.11384 5.90677 1.62014 2.43021.67506 4.69166 1.75515 6.78435 3.17278 6.95311 4.65791 10.86846 12.96114 10.05838 21.33188-.97883 10.39591-8.40449 18.53038-13.83872 26.90112-1.01259 1.58639-3.27404 4.21912-3.10527 6.17679.16876 1.92392 2.73399 3.81409 4.21912 4.75917 2.869 1.78891 9.31582 2.02518 7.69568 6.91936-1.41762 4.25288-7.83069 5.53549-11.67853 5.87302-2.43021.20252-4.89418.0338-7.25689-.54004-1.89017-.47255-4.42164-2.32896-6.27805-1.45138-1.6539.77632-3.17278 3.27404-4.48915 4.5229-1.82266 1.7214-3.78033 3.30779-5.83927 4.75917-1.99142 1.38387-4.32038 2.3627-6.21054 3.78033-2.09269 1.55264-1.1476 2.66648-.87758 4.99544.33753 2.76774-2.26145 1.78891-4.48915 1.75516-3.54406-.0675-3.54406-.47255-2.66648 2.97026.60755 2.43021-.30378 2.26145-2.73399 1.99142-2.56523-.30377-4.89419-1.35012-6.95312-2.83525-1.55263-1.11385-2.93651-3.24028-4.72541-3.91534-2.19395-.84383-5.23172 1.08009-7.3244 1.78891-4.96169 1.75515-10.02463 3.20653-15.15509 4.32038-11.10473 2.39646-22.513232 3.20653-33.854232 3.24028-21.93944.0675-43.98013-2.43021-65.244511-8.06696-10.3621639-2.73399-20.8930929-5.97428-30.512692-10.83471-2.295202-1.18135-4.590405-2.43021-6.750595-3.84784-1.991426-1.31636-3.746581-3.30779-5.839266-4.38788-3.814086-2.02518-7.25689 5.26546-9.653351 7.62817-3.341545 3.24029-7.729432 5.87302-12.556108 4.5229l4.320381-6.04178-7.560667.6413c0-1.85641 3.375298-5.56924 4.354134-7.18938l2.733991-4.38789c.438789-.67506 2.430215-3.07152 2.227697-3.74658-.371283-1.31636-5.535489-2.90275-6.750596-2.70024-2.970262.43879-5.704253 2.36271-8.809527 2.8015-4.016604.5738-13.197414.54005-14.074992-4.99544-.405035-2.59898 2.227697-4.42164 3.780334-6.10929 2.025178-2.16019 4.42164-4.5904 5.906771-7.18938 1.383872-2.46397-.641307-4.08411-1.991426-6.21055-1.687649-2.70024-3.17278-5.53549-4.489146-8.43825-2.463967-5.50173-4.219122-11.30724-5.265464-17.21401-1.58639-8.87703-2.227697-18.90167.5738-27.60994 1.755155-5.46798 4.894182-11.17223 10.463423-13.46743 5.501736-2.2277 14.041239-2.29521 18.867915 1.48513 3.105274-7.99946 7.189384-15.661385 12.488602-22.411981 2.531473-3.206532 5.467982-5.704253 8.370738-8.50575 2.700239-2.632732 2.733992-6.109289 3.84784-9.552093 4.691664-14.041239 18.3278671-24.437156 33.077918-25.247228z" fill="#010202"/><path d="M75.984588 225.11686c-26.76611-.37129-54.747333-3.20654-79.3870069-14.44628-5.366723-2.46397-11.3072481-5.43423-14.8513101-10.36216-3.84784-5.33297-4.522899-12.52236-4.489146-18.90167.101259-11.61102 4.185369-23.49207 13.8387211-30.54645 10.42967-7.62816 23.6270839-9.41707 36.2169419-9.1808 13.50119.27002 27.23866 1.38387 40.60484 3.20653 22.98577 3.13902 52.924672 11.74603 59.709012 37.19578 1.95768 7.35815 1.99143 15.08758 1.24886 22.64825-.33753 3.3753-.40503 7.45941-1.82266 10.59843-1.18135 2.59898-3.57781 3.54407-6.14304 4.35414-14.44627 4.5904-29.803882 5.56924-44.925212 5.43423z" fill="#cefddc"/><path d="M25.253858 130.43976c-15.121333-.60756-31.5252799 1.78891-43.406328 11.88105-4.792923 4.0841-8.573257 9.21455-11.273495 14.88505-1.518884 3.20654-2.227697 7.29065-4.961688 9.78837-2.598979 2.36271-5.029193 2.97026-6.210548 6.64933-.337529 1.01259-1.046342 8.77578-1.755155 8.94454-1.080095.27003-2.058931-7.02062-2.261449-8.26948-1.24886-8.50575-.978836-17.21401.236271-25.71977 2.261449-15.72888 7.526914-31.32275 15.458864-45.12772.945083-1.6539 3.881592-8.134469 5.704253-7.729434.776318.168765 1.822661 3.712828 2.227697 4.556654.810071 1.65389 1.755154 3.24028 2.83525 4.72541 3.982851 5.46799 9.6195981 8.91079 15.8976521 11.17224 7.223138 2.63273 15.3913579 4.42164 23.1207899 3.27404 7.864446-1.1476 13.838726-6.00803 18.462876-12.25233 8.50575-11.442261 13.43369-27.204901 6.44682-40.571081-.74256-1.417625-2.09268-2.801497-2.66648-4.252875-.74257-1.856414.0675-1.721402 2.05893-1.92392 4.38789-.438788 8.74202-.675059 13.16366-.607553 3.88159.06751 7.72943.337529 11.57727.776318 2.12644.270024 4.25288.573801 6.37931.945084 1.45138.23627 4.75917.23627 5.87302 1.24886 1.68765 1.552637-2.12644 6.109289-2.97026 7.763185-1.75515 3.577815-3.07152 7.358149-3.91535 11.239741-1.62014 7.493162-1.38387 15.425111 1.51889 22.546991 5.56924 13.66995 19.57673 21.93943 33.685472 24.16713 15.93141 2.53147 30.0739-3.64532 38.4784-17.45029 1.11384-1.82266 2.05893-3.74658 3.00401-5.63675.77632-1.55263.87758-2.43021 2.46397-1.35012 1.11385.77632 1.92392 2.90276 2.59898 4.08411 1.2151 2.05894 2.32895 4.21913 3.34154 6.37932 3.27404 7.02062 5.87302 14.41252 8.10072 21.80442 2.39646 8.03321 4.11786 16.23518 4.15161 24.63967.0338 8.60701-1.04634 17.21402-2.32895 25.71977-1.04634 7.12188-3.07152 14.10874-8.06696 19.50922-2.49772 2.70024-5.50174 4.89418-8.53951 6.95311-.84382.57381-3.00401 2.70024-4.18537 2.05894-1.31636-.70882-1.1476-4.18537-1.24886-5.36673-.70881-8.40449.27003-16.91024-.6413-25.31473-.16877-1.45138-.64131-8.5395-2.56523-7.18938-.77632.54004-.84382 5.56924-.91133 6.48057-.20252 2.22769-.27002 4.45539-.37128 6.68309l-.60756 12.45485c-.20251 3.81408-1.24886 8.67451-.0675 12.38734 1.08009 3.4428 4.38788 5.53549 6.91936 7.86444.43879.40504 2.869 2.12644 2.66648 2.90276-.30377 1.08009-3.30779-.74257-3.9491-1.0801-1.2151-.6413-5.6705-4.79292-6.48057-3.37529-1.28261 2.26144 4.62416 6.34556 3.84784 8.30323-.60755 1.55263-4.65791-3.74658-4.96169-4.28663-2.12643-3.61157-1.65389-7.49316-1.24886-11.47601 1.62015-15.39136 2.83525-33.04417-5.53548-46.74788-17.65281-28.85879-54.544822-34.42803-85.327532-35.98067l-23.7621-1.08009z" fill="#00fb4c"/><path d="M146.08952 88.721077c-.10126 13.028653-5.46798 25.213473-18.32786 29.871383-12.79238 4.62416-28.386262.40504-37.634572-9.45083-9.65336-10.260907-8.87704-25.179723-1.78891-36.655736 7.52691-12.184825 20.251782-17.45029 34.191762-14.412521 6.88561 1.518884 13.53495 4.995441 17.82158 10.665941 4.42164 5.805512 5.56924 12.927391 5.738 19.981763zM11.820174 111.40308c-10.83470595.10126-23.964614-8.06696-27.137394-18.631646-3.307792-11.070977.91133-23.12079 9.7883631-30.310174 9.450834-7.628173 22.5807429-7.695679 33.1454249-2.328955 11.341 5.771759 14.17625 18.260361 11.30725 29.972644-1.51889 6.176795-4.72542 12.556111-9.85587 16.471451-4.99544 3.84784-11.138485 4.75917-17.247774 4.82668z" fill="#fdfdfd"/><path d="M-65.575404 137.93292c.03375-5.53549 2.632732-22.27697 11.746036-17.5178 4.75917 2.49772 2.598979 6.91936 1.383872 10.90221-1.451378 4.79293-2.531473 9.68711-3.307792 14.6488-.708812 4.69166-1.113848 9.41707-1.181354 14.14249-.03375 1.82266.810071 6.2443 0 7.86444-.708813 1.38388-1.282613-.16876-1.890167-1.35011-4.455393-8.70827-6.683089-18.93543-6.750595-28.69003zm248.523174 42.63001c1.04635-6.68309 1.62015-13.33243 1.48514-20.11678-.0675-3.4428-.40504-6.88561-.47255-10.32841-.0675-3.30779 2.19395-2.2277 4.4554-.84383 4.69166 2.86901 6.27805 8.91079 4.72541 14.00749-1.01259 3.34155-3.07152 6.34556-4.92793 9.28207-1.6539 2.53147-3.20653 5.90677-5.26547 7.99946zm-216.829128 8.20197c.371283 6.71684-.371283 13.29867-2.902756 19.57673-.506295 1.28261-1.24886 4.42164-2.430215 4.0166-1.046342-.33753-.438788-2.43021-1.82266-2.70024-.506295-.10126-2.26145 1.48513-2.733992.97884-.337529-.37128 3.037768-3.9491 3.341545-4.35414 1.181354-1.68764 1.957673-3.51031 2.430215-5.50173 1.181354-4.72542.843824-10.12589 1.147601-14.98632.06751-1.24886.405036-12.82614 1.788908-12.58986 1.856413.37128 1.181354 13.7037 1.181354 15.56012zm220.946998 16.5052c-2.19395-.50629-4.96169-.74256-6.98687-1.7214-1.78891-.87757-1.45138-1.7889-1.04634-3.54406.33753-1.41762.60755-4.32038 2.26145-3.74658.97884.33753 3.03777 4.05036 3.81409 5.0967.30377.43879 3.27403 3.88159 1.95767 3.91534zm-248.084392-10.56468c-1.316367-.10126-2.733992.30378-2.767745-1.01259 0-.6413 1.991426-2.3627 2.362709-2.80149 1.58639-1.89017 2.261449-3.3078 4.219122-1.18136 1.350119 1.45138 2.83525 2.93651.776319 4.32038-1.181355.77632-3.206533.64131-4.590405.67506z" fill="#00fb4c"/><path d="M57.690468 127.40199c-2.90275-.13501-8.67451-1.38387-9.28207-4.96169-.70881-4.28663 5.16421-5.36672 8.13447-5.1642 2.76775.16876 8.97829 1.41762 9.01205 5.13045.0337 3.67907-5.06295 5.06295-7.86445 4.99544zm36.31821-38.444642c-.0675-9.484587 4.99544-19.576727 15.695132-19.407963 8.67452.101259 20.62307 8.134468 21.23063 17.416537.67506 10.09214-8.9783 19.576728-18.76666 19.340458-9.72086-.23627-18.462882-7.12188-18.159102-17.349032zm-82.931069 8.910786c-9.3833279.135012-17.3827839-10.294658-17.3152779-19.137939.06751-9.855869 8.168221-14.783804 17.2140189-13.906227 7.93195.742566 16.606468 6.784349 17.619058 15.155088 1.11384 9.383327-8.539507 17.889078-17.517799 17.889078z" fill="#010202"/><path d="M109.02875 100.36585c-2.19394 0-2.02518-.540043-.77632-1.890162 1.6539-1.755155 4.05036-2.902757 5.94053-4.387888 1.75515-1.383872 3.03777-2.869003 4.18537-4.759169.70881-1.147602 2.02518-4.084111 3.74658-3.814087 3.74658.573801.74256 8.168221-.5063 9.720858-2.97026 3.679074-7.9657 5.130448-12.58986 5.130448zm1.89017-17.821568c-.13501 1.620143-1.0801 4.016604-3.03777 3.881592-1.41762-.101259-2.93651-1.856413-2.8015-3.240285.27003-2.666486 5.90678-4.252876 5.83927-.641307zm-96.871049 9.315822c-2.733992-.135012-9.5858459-5.197959-4.0841109-6.548078 1.9914259-.472542 2.9365089.911331 4.7929229-.5738 1.451378-1.113849 2.362709-2.970263 3.442804-4.421641.776318-1.046342 1.92392-3.037768 3.544063-2.295202 1.991428.91133.641306 4.691664.101259 6.143042-1.181355 3.139027-3.814087 7.93195-7.796938 7.695679zM6.8584861 71.405799c4.1178639.33753 1.518884 6.919361-1.957672 6.00803-1.350119-.33753-2.767745-1.890166-2.463968-3.40905.371283-1.755155 2.902756-2.497721 4.42164-2.59898z" fill="#fdfdfd"/></svg>