<svg xmlns="http://www.w3.org/2000/svg" xmlns:xlink="http://www.w3.org/1999/xlink" width="128" height="128" viewBox="0 0 33.867 33.867" xmlns:v="https://vecta.io/nano"><style><![CDATA[.B{stroke:#362745}.C{stroke-miterlimit:10}.D{fill:#6b00fa}.E{stroke-width:.47}.F{fill:#4300bf}.G{fill:#100342}.H{fill:#362745}.I{fill:#e0e3bd}]]></style><g class="B C E"><path d="M7.736 24.008l.308-5.478.431-2.991c.114-1.367-.026-2.735-.062-4.11-.009-.402-.053-.803.053-1.205.053-.205.132-.419.352-.461.378-.085.273-.291.193-.513l-.264-.735c-.528-1.256-.079-2.384.563-3.444.545-.906 1.257-1.718 2.005-2.478.835-.855 1.873-1.282 3.095-1.299l.695-.026.352-.017c.106-.009.22 0 .325-.017l.106-.026c.062 0 .123.017.176.017l.387.06.765.137 1.512.342c.273.068.545.145.8.273.466.248.8.667 1.249.94.308.188.651.299.932.521.317.248.519.598.712.949.211.376.422.752.563 1.162l.097.316c.105.436.158.88.211 1.325.053.436.114.88.264 1.299.035.103.079.205.123.308.017.043.044.085.053.128l-.009.179-.149 3.863-.431 6.247c-.044.367.009.726.097 1.077.255 1.043.334 2.085.176 3.162-.132.906-.132 1.837-.193 2.76-.026.41-.255.581-.668.59-.484.009-.923-.188-1.407-.197-.677-.017-1.328.137-1.987.205-1.108.103-2.181-.094-3.271-.222-.193-.017-.378-.103-.572-.094h-.598c-.097-.009-.193-.009-.29-.034-.062-.017-.106-.043-.167-.051l-.791-.043-.791-.034-1.592-.06-1.592-.051c-.132 0-.264-.009-.396-.009-.123 0-.264-.026-.387-.009-.035.009-.07.026-.097.034-.123.034-.273.017-.396-.009-.387-.103-.484-.504-.492-.846-.009-.231.018-.461.026-.692-.018-.231-.018-.461-.018-.743z" class="D"/><path d="M23.959 31.177c-.07.444-.009.949-.141 1.427-.053.188-.097.367-.308.444-.202.068-.343-.017-.44-.188-.07-.12-.193-.111-.317-.12l-2.972-.171-10.173-.513-2.849-.12c-.255-.017-.765 0-.827-.333-.018-.103-.079-.188-.106-.291-.062-.214-.07-.444-.07-.667l-.044-1.547-.009-.256c0-.06-.018-.094-.044-.137-.062-.128-.009-.273.079-.376.114-.137.273-.197.44-.128.545.197 1.117.154 1.671.188l7.826.376 7.113.35c.818.043 1.134.367 1.134 1.171l.035.889z" class="F"/><path d="M16.389 26.605l-2.4-.171-1.512-.256c-.545-.068-1.108-.077-1.653-.085-.835-.017-1.688-.026-2.497.171s-1.6.632-2.031 1.333c.765.547 1.767.615 2.717.667l1.741.094c4.282.231 8.564.461 12.846.47l-.404-1.188c-.123-.35-.299-.761-.721-.846-.141-.026-.281 0-.422.009-.246 0-.501-.017-.747-.026l-3.148-.111-1.767-.06z" class="D"/><path d="M26.122 25.888c.132-.068.281-.137.361-.256s.088-.265.097-.402l.105-1.683.07-1.897-.035-1.786c.035-.547.149-1.085.211-1.632.22-1.931-.246-3.88-.158-5.819l.193-2.162a12.32 12.32 0 0 0-1.011-5.751c-.07-.154-.141-.308-.273-.41-.176-.137-.413-.154-.607-.265-.273-.162-.378-.487-.528-.769-.369-.701-1.073-1.179-1.838-1.444s-1.574-.342-2.374-.419l-1.688-.162c-.273-.026-.668.06-.624.325.809.59 1.741 1.017 2.594 1.547s1.662 1.205 2.066 2.111c.176.385.264.803.352 1.222.264 1.196.519 2.393.58 3.615.044.889-.017 1.786-.079 2.683l-.185 3.521-.105 3.521-.026 3.521.017 1.76.017.88c.009.273-.017.573.018.855.062.419.545.359.844.231l1.618-.761c.097-.034.29-.171.387-.171z" class="F"/><g class="G"><path d="M23.827 28.725c.035.06.079.128.149.128.044 0 .088-.026.123-.043.404-.265.739-.624 1.178-.82.299-.137.624-.188.932-.291.44-.145.835-.393 1.231-.632.141-.085.299-.214.273-.376-.009-.06-.044-.111-.079-.154a3.36 3.36 0 0 0-.783-.743c-.062-.043-.123-.077-.193-.085-.088-.009-.176.034-.255.068l-1.908.931-.95.47c-.264.128-.484.222-.308.53l.589 1.017z"/><path d="M24.109 32.399c.009.06.017.128.053.171.097.103.264.043.387-.026l3.192-1.743c.105-.06.22-.12.29-.222.07-.111.079-.248.088-.376l.097-2.085c.009-.197.009-.41-.106-.564-.123-.171-.361-.222-.572-.197s-.404.128-.589.231l-2.559 1.367c-.281.154-.624.256-.598.615.026.419.097.837.141 1.248l.088.786c.026.265.088.538.088.795z"/></g></g><path d="M19.29 5.584c.167.137.149.419-.026.547a.37.37 0 0 1-.536-.154c-.079-.197.07-.444.281-.479a.38.38 0 0 1 .281.085zm1.425 1.205c-.009.043-.017.077-.017.12.009.077.062.137.132.162.185.094.457-.043.484-.248.017-.205-.211-.402-.413-.342-.017-.009-.044.009-.053.026-.079.094-.097.179-.132.282zm-.871 1.204h-.387c-.035 0-.07 0-.097.026-.018.017-.018.043-.026.068-.018.103-.026.197-.035.299-.009.12-.009.273.097.333.07.034.149.026.22.043.062.017.114.051.176.043.123 0 .202-.128.229-.248.026-.128.035-.256-.026-.376s-.185-.205-.317-.188" class="F"/><path d="M25.78 11.711c-.088-.085-.193-.077-.308-.043-.105.034-.167.137-.158.239 0 .085.062.171.123.231.097.094.273.009.343-.077.088-.085.088-.248 0-.35zm-.616 1.435c-.009-.051-.044-.137-.088-.179-.053-.051-.158-.026-.22 0a.58.58 0 0 0-.149.103c-.018.017-.035.026-.044.051-.026.043-.035.085-.044.137 0 .026-.026.145 0 .162.106.068.246.085.369.034.106-.06.193-.188.176-.308z" class="D"/><path d="M10.014 23.948a.46.46 0 0 0-.404.214c-.079.137-.053.333.07.436a.75.75 0 0 0 .686-.009c.123-.112-.044-.308-.114-.47l-.334-.171m-.669-2.829a2.24 2.24 0 0 0-.123.419c-.009.026-.009.06.009.085.026.043.079.051.132.06.132.009.281.009.361-.085.026-.026.044-.068.053-.103.044-.137.018-.299-.106-.376s-.317-.034-.343.103m1.977 1.299c-.018-.043-.053-.111-.097-.128-.026-.009-.07 0-.106 0h-.097c-.026 0-.053 0-.07.009-.035.017-.07.068-.097.094-.018.009-.026.017-.035.034-.026.043-.035.103-.035.154 0 .017 0 .154.018.154.088.017.396.043.484.06.053.009-.097.026-.053-.009.018-.017.035-.034.053-.06.044-.103.07-.214.035-.308z" class="F"/><path d="M19.826 31.698c.167.12.44.085.554-.085.088-.128.07-.291.044-.444-.009-.043-.017-.085-.044-.111s-.07-.034-.114-.034c-.123-.017-.229-.009-.352-.009h-.053c-.044.017-.088.051-.123.085-.088.085-.123.188-.097.308.026.111.088.222.185.291zm-1.116-1.666c-.123.051-.185.197-.141.316a.47.47 0 0 0 .255.12c.097.009.202-.051.22-.145.017-.077-.026-.145-.07-.214s-.097-.137-.176-.162c-.079-.017-.185.051-.149.128m6.225-5.973c-.141-.043-.299.017-.396.12-.097.111-.141.256-.149.393-.009.077 0 .154.044.214.062.077.176.085.273.06.193-.034.369-.171.422-.35s-.07-.41-.264-.436c.141-.017-.026-.094.07 0zm.624-2.162c-.185.034-.361.162-.378.342s.193.35.361.265c.167-.154.149-.453-.026-.598" class="D"/><g class="G"><path d="M19.721 4.541c-.105.026-.149.162-.105.256s.158.145.273.145c.053 0 .114-.017.141-.06.009-.026.017-.051.017-.077 0-.094 0-.197-.026-.291a1.1 1.1 0 0 0-.29.009m-.977 1.531c-.079.009-.167.017-.237.051s-.132.111-.123.188c.009.102.123.171.22.214.079.034.185.068.255.009s.044-.162.097-.239c.017-.026.044-.051.053-.085.009-.06-.062-.103-.123-.111s-.132-.017-.158-.068m-1.294-1.805c-.079.043-.167.103-.211.179-.088.145-.017.376.149.41s.317-.111.404-.256c.009-.017.017-.034.017-.051s-.017-.034-.035-.043l-.29-.197c-.026-.017-.07-.034-.088 0m-6.726 1.462a.74.74 0 0 0-.053.342c.079.043.176.034.255 0a.55.55 0 0 0 .193-.179c.009-.017.026-.034.026-.06 0-.034-.018-.068-.044-.094-.053-.06-.123-.103-.202-.111s-.167.051-.176.12m-.394 1.375c-.07.034-.079.145-.035.205.053.06.141.085.22.077.053-.009.114-.026.132-.068.035-.068-.018-.145-.07-.197-.053-.06-.132-.128-.22-.103m3.534-4.307c-.035.085-.035.188-.009.282.044.068.149.085.22.043s.106-.128.097-.214c-.017-.094-.123-.188-.211-.145m7.623 8.392c-.062.103-.035.256.07.325s.264.034.325-.068c.035-.051.035-.128.017-.188-.035-.085-.132-.145-.229-.145a.37.37 0 0 0-.264.094c.035.009.062.026.097.034"/><use xlink:href="#B"/></g><use xlink:href="#B" class="B C E"/><path d="M20.205 22.145c.044.094.114.188.211.214.167.051.361-.145.29-.299s-.352-.162-.422 0m-3.667 2.375c-.062.154.07.342.237.367s.334-.111.378-.273c.009-.026.009-.06-.009-.085s-.044-.034-.079-.043l-.431-.111a.84.84 0 0 0-.044.137" fill="#100641"/><path d="M10.049 18.265c-.018.077-.044.154-.026.231.009.077.062.154.141.171.088.026.185-.043.22-.128s.035-.179.026-.265l-.308-.051" class="G"/><path d="M9.214 29.776c-.035.111-.062.256.035.333.106.085.255.009.387.034a.65.65 0 0 0 .009-.316c-.026-.102-.106-.205-.211-.222-.106-.026-.229.06-.22.171h.079zm2.004.743l.009.402.308.043c.026 0 .062.009.088-.009s.035-.051.044-.085c.035-.145.035-.308-.07-.419-.106-.103-.334-.077-.352.068m9.056.24c-.097.077-.149.214-.097.325s.211.171.317.094c.044-.094.088-.197.07-.299s-.158-.179-.246-.111m4.775.008c-.017.068-.026.145 0 .214s.123.111.185.068c.026-.017.035-.043.044-.068.035-.077.053-.154.044-.231s-.07-.154-.149-.162-.167.068-.141.137m-.458-10.239c-.018.077-.044.154-.026.231s.079.154.158.145c.123 0 .176-.145.193-.265.017-.103.017-.239-.079-.282-.105-.043-.202.068-.264.154" fill="#100641"/><path d="M25.533 7.609c-.018.077-.026.162.009.231s.132.111.202.068c.035-.017.053-.051.07-.085.026-.068.053-.137.035-.205s-.07-.137-.141-.145-.149.06-.132.128m-.527 1.153l.009.273c.132.017.264-.077.281-.205s-.088-.256-.22-.265c.009.06-.009.12-.035.171m1.126.24a.58.58 0 0 0-.044.299c.017.103.123.188.22.171.132-.026.158-.205.149-.342-.009-.094-.018-.205-.097-.256s-.229.009-.193.094" class="G"/><g class="B C E"><path d="M12.59 18.692c.149-.513-.132-.974-.536-1.436-.624-.709-1.196-1.453-1.328-2.444-.29-2.239.994-4.427 3.113-5.221 2.225-.837 4.687-.085 6.014 1.829.589.846.888 1.777.888 2.803 0 .94-.308 1.752-.985 2.427l-.941.983a1.24 1.24 0 0 0-.466 1.102c.017.35-.026.701-.017 1.051v.068c0 .034-.009.06-.009.085l.009.179-.176.009c-.07 0-.141.009-.211 0-.132-.017-.255-.017-.387-.026-.026 0-.053 0-.088-.009-.053 0-.097-.009-.149-.009-.018 0-.035-.009-.062-.009h-.079-.308c0-.051-.009-.103-.009-.154-.009-.103-.009-.205-.009-.308l-.009-.59c0-.009 0-.017-.009-.026s-.017-.009-.026-.009c-.211-.017-.422 0-.633.026l-.009.367v.103c0 .051 0 .094-.009.145 0 .017-.009.026-.009.034-.009.017-.009.043-.009.06a1.07 1.07 0 0 0 .009.291h-.193c-.079 0-.167 0-.246-.017-.097-.017-.202-.009-.299-.017-.035 0-.079 0-.114-.009-.097 0-.193-.017-.29-.017h-.149c-.009 0-.141.009-.149.017l.009-.265c0-.043 0-.085.009-.137 0-.043.009-.085.009-.128l-.009-.521c-.229-.043-.466-.06-.703-.06l-.035.59-.017.299v.077c0 .017 0 .034-.009.043-.009.017-.053.017-.07.017-.123.009-.255 0-.378-.009-.053 0-.114-.009-.167-.009l-.422-.017c-.044 0-.097-.009-.141-.009-.026-.009-.053-.017-.088-.017-.009 0-.149-.009-.149-.009v-.026-.299c0-.043-.009-.085.009-.128.009-.017 0-.034 0-.051v-.128l.009-.325c.018 0 .018-.034.026-.171zm2.849-1.572l.237.017.378.034-.141-.376c-.017-.051-.044-.094-.062-.137s-.044-.077-.062-.12c-.009-.009-.009-.026-.009-.034-.009-.043-.026-.077-.035-.12l-.123-.325c-.018-.051-.035-.094-.062-.145 0 .009-.017.034-.017.034-.009.017-.026.034-.035.051l-.316.47c-.053.077-.097.162-.149.248-.026.043-.044.085-.07.12l-.026.051c-.009.034-.044.068-.07.103-.035.043-.07.085-.097.137h.035.035.079c.053 0 .097 0 .149-.009.018 0 .044-.009.062-.009a.25.25 0 0 1 .079.009c.053 0 .097.009.149.009.026-.017.053-.017.07-.009z" class="H"/><path d="M12.388 18.453c.141-.504-.132-.957-.528-1.41-.615-.701-1.178-1.427-1.301-2.393-.281-2.196.976-4.332 3.051-5.11 2.181-.82 4.59-.085 5.9 1.794.572.829.871 1.743.879 2.743 0 .923-.299 1.718-.967 2.376-.317.316-.58.675-.923.957-.352.299-.484.641-.457 1.085.018.342-.026.684-.017 1.025v.068c0 .026-.009.06-.009.085 0 .017 0 .171.009.171h-.176c-.07 0-.141.009-.211 0-.123-.017-.255-.017-.378-.026-.026 0-.053 0-.079-.009-.053 0-.097-.009-.149-.009-.018 0-.035-.009-.053-.009h-.079-.299c0-.051-.009-.094-.009-.145-.009-.103-.009-.197-.009-.299l-.009-.581c0-.009 0-.017-.009-.026s-.017-.009-.026-.009a2.98 2.98 0 0 0-.615.026l-.009.359v.103c0 .043 0 .094-.009.145 0 .017-.009.026-.009.034-.009.017-.009.043-.009.06a1.01 1.01 0 0 0 .009.282h-.185c-.079 0-.158 0-.237-.017-.097-.017-.193-.009-.299-.017-.035 0-.079 0-.114-.009-.097 0-.185-.017-.281-.017h-.149c-.009 0-.141.009-.141.017l.009-.265c0-.043 0-.085.009-.128 0-.043.009-.085.009-.128l-.009-.513c-.229-.034-.457-.06-.686-.06l-.026.581-.018.291v.077c0 .017 0 .034-.009.043-.009.017-.053.017-.07.017-.123.009-.246 0-.369-.009-.053 0-.114-.009-.167-.009l-.413-.017c-.044 0-.088-.009-.141-.009-.026 0-.053-.017-.088-.017-.009 0-.141-.009-.141-.009v-.026-.291c0-.043-.009-.085.009-.12.009-.017 0-.034 0-.051v-.128l.009-.316c-.018 0-.018-.026-.009-.162zm2.796-1.547l.229.017.369.034-.132-.376c-.017-.051-.044-.094-.062-.137s-.044-.077-.062-.12c-.009-.009-.009-.026-.009-.034-.009-.043-.026-.077-.035-.12l-.123-.316c-.017-.051-.035-.094-.062-.145 0 .009-.017.026-.017.034-.009.017-.026.034-.035.051l-.308.461c-.053.077-.097.162-.141.239l-.07.12-.026.051c-.009.034-.044.068-.07.094l-.097.128h.035.035.079c.053 0 .097 0 .149-.009.018 0 .044-.009.062-.009a.25.25 0 0 1 .079.009c.053 0 .097.009.149.009.017.017.044.017.062.017z" class="I"/></g><path d="M18.587 10.036c-1.609-1.248-3.429-1.453-5.311-.632-3.016 1.316-3.825 5.213-2.014 7.153.255.273.448.59.712.863.237.248.317.513.299.846-.026.461-.07.931 0 1.436l1.548.068.026-1.068.598.017v.009.026.034.043.051.06.068.077.077.077.077.077.068.068.06.051.043.026c0 .026-.009.051-.009.085h.026.009.035.079l.308.009.387.017.352.017.22.009h.026c.017 0 .026 0 .044-.009 0-.026.009-.06.009-.085v-.009c0-.009 0-.026.009-.034 0-.026.009-.051.009-.068v-.051-.043-.043-.051-.068-.068-.077-.077-.077-.077-.068-.051-.043-.026-.009l.598.017-.026 1.06 1.627.068v-.931-.436c0-.043 0-.085-.009-.12 0-.103 0-.205.018-.299a.64.64 0 0 1 .123-.299c.018-.017.035-.043.053-.06l.07-.068.132-.137.264-.273.255-.273.246-.273.246-.273.237-.273c.044-.043.079-.094.123-.137.299-.359.51-.761.58-1.222.317-1.974-.308-3.615-1.899-4.845zm-4.986 8.383h-.062-.026v.128l-.009.265-.018.547-.783-.034.009-.231.018-.521.018-.547.009-.205c0-.034-.009-.068-.009-.094 0-.034-.009-.068-.009-.103 0-.017-.009-.026-.009-.043-.009-.009-.009-.026-.018-.034-.009-.026-.018-.051-.035-.077l-.079-.154c-.026-.051-.062-.094-.097-.145a.61.61 0 0 0-.07-.085l-1.073-1.342c-.501-.667-.589-1.444-.492-2.23.22-1.769 1.169-3.051 2.866-3.709 1.679-.649 3.271-.376 4.608.795 1.363 1.188 1.864 2.7 1.424 4.469-.105.453-.404.778-.703 1.102l-1.125 1.188c-.018.017-.035.026-.044.043-.018.026-.018.034-.026.043-.009.017-.026.034-.035.051-.009.009-.009.017-.017.026l-.062.12c-.035.077-.053.162-.07.248-.009.043-.009.085-.009.128v.06.034.051.085.145.291.291.291.145.077.026.009h-.053c-.044 0-.097 0-.141-.009l-.58-.026.017-.479c0-.051.009-.111.009-.162v-.197-.068l-.114-.017c-.044-.009-.088-.017-.132-.017l-.281-.026c-.097-.009-.193-.009-.29-.009h-.29-.246l-.035.983-.783-.034.035-.966-.141-.026a3.03 3.03 0 0 0-.281-.034l-.29-.017c-.097 0-.193 0-.29-.009h-.141m1.907-2.845c-.009-.009-.009-.026-.017-.034-.017-.026-.026-.06-.044-.085l-.026-.051c-.009-.017-.018-.026-.026-.043-.035-.051-.062-.111-.097-.162-.017-.026-.026-.051-.044-.085-.009-.026-.018-.034-.018-.034-.009.017-.018.017-.018.026s-.009.017-.009.026c-.009.017-.018.034-.026.043a1.58 1.58 0 0 0-.097.162 1.58 1.58 0 0 0-.097.162l-.123.214c-.017.026-.026.051-.044.068-.018.026-.035.051-.044.077l-.053.085-.053.085-.053.094-.053.094-.053.094-.053.094-.053.094-.053.094-.053.094-.053.085c-.018.026-.035.051-.044.077-.017.026-.026.051-.044.077-.009.026-.026.043-.035.068-.009.017-.026.034-.035.06l-.026.051c-.009.009-.017.026-.017.034-.009.009-.009.017-.017.026l-.009.009h.009c.053 0 .097 0 .149.009h.035.035.044.035.035.044.053.053.062.062.07.07.07.079.079.079.079.079.079.079.079.07.07.07.062.062.053.053.044l.317.009c-.009-.051-.035-.094-.053-.145l-.721-1.47zm-.906 1.29l.624-1.034.422 1.077-1.046-.043z" class="H"/><path d="M9.662 10.267c0 .043.009.077.009.111zm0 0c0 .043.009.077.009.111z" class="I"/><path d="M9.662 10.267c0 .043.009.077.009.111m-.009-.111c0 .043.009.077.009.111z" stroke-width="1.879" class="B C"/><path d="M28.277 26.588c-.448-.35-.783-.803-1.205-1.196l.079-1.222-.026-3.23c-.053-.658.132-1.29.317-1.923.361-1.205.158-2.444-.026-3.632-.132-.846-.149-1.666-.088-2.504l.132-2.205c.079-1.042.176-2.068-.097-3.119-.238-.889-.29-1.82-.66-2.675-.29-.667-.29-.667-1.187-1.82-.8-.82-.923-.829-1.609-1.23-.528-.308-1.046-.598-1.688-.658-.818-.077-1.574-.427-2.383-.555-1.407-.222-2.796-.103-4.185.103-1.864.282-3.702.632-5.135 2.017-.677.658-1.372 1.282-1.662 2.196-.079.256-.255.479-.387.709-.607 1-.466 1.453-.554 2.752.053.094-.123.658-.185.812-.079.872-.088.316-.079.692l.044 3.401c.009 1.025.053 2.051-.141 3.059-.211 1.068-.193 2.145-.202 3.222 0 .239.009.487-.053.718-.185.803-.141 1.606-.097 2.41l.141 3.299-1.943 1.47c-.229.162-.361.342-.361.632l.026 3.615c0 .325.158.504.501.53l4.757.291 6.164.376 6.99.444c.317.017.607-.051.879-.214l3.684-2.136c.299-.171.413-.393.413-.726l.062-3.145c0-.214-.044-.41-.237-.555zM8.044 21.188c.106-.718.202-1.427.185-2.153-.026-.94.088-1.863.229-2.786.193-1.282.123-2.572.097-3.863l-.009-1.401c0-.12.009-.239.018-.359l.018-.214c0-.034.026-.06.053-.085l.114-.128c.009-.009.018-.017.035-.026.009 0 .026 0 .035.009.158.068.431.316.44.333 0 .009.317.239.317.248.009.009-.193.436-.193.453.378 0 .281-.12.589-.658.018-.034-.308-.248-.308-.291-.053-.051-.07-.12-.097-.179-.026-.077-.07-.145-.114-.205l-.079-.094-.079-.077c-.018-.017-.026-.034-.026-.06-.009-.034-.026-.06-.035-.094-.035-.077-.07-.162-.097-.248l-.167-.504-.167-.513-.106-.273c.062-.803.22-1.572.765-2.222.123-.154.202-.35.264-.53.246-.786.791-1.35 1.416-1.854.387-.316.739-.692 1.187-.906.009-.009.044.017.053.017l.053.026c.035.026.062.051.079.085.035.043.044.103.07.145l.053.137.097.273c.009.017.009.026.018.034.009.017.027.026.035.026.035.009.07.026.106.034.009 0-.035.231-.035.248v.043c0 .034-.009.077-.009.111l-.018.231c0 .026-.009.06 0 .085l.026.068c.07.137.106.649.106.649l.106-.308c-.009-.026-.009-.043-.018-.068l-.026-.137-.026-.188c0-.026-.009-.043-.009-.068 0-.017-.009-.026 0-.043.009-.026.018-.051.035-.068.009-.026.026-.051.035-.077 0 0 .053.009.062.017.018.009.035.017.053.017.053.009.097.026.141.051.018.009.035.017.053.034l.026.051.141.342c.009.017.018.043.035.06s.035.026.053.034l.352.205c-.053-.085-.132-.154-.202-.239a.94.94 0 0 1-.202-.444c-.009-.034-.009-.068-.009-.103l-.264-.171c-.035-.026-.079-.043-.106-.068-.009-.009-.018-.026-.018-.043l-.026-.068-.097-.273c-.009-.026-.018-.06-.044-.068-.009-.009-.026-.009-.044-.017-.026-.017-.035-.051-.044-.077l-.026-.111c-.009-.026-.018-.06-.018-.094v-.034c-.009-.06-.026-.12-.026-.179-.009-.154.026-.308.114-.444 2.682-.385 5.39-.701 7.747 1.307v1.196c0 .034 0 .077-.017.111-.009.009-.009.017-.018.034-.009.026-.017.051-.035.068l-.088.137c-.035.051-.07.103-.088.162.009-.009.017-.009.026-.017l.026-.026c.017-.017.044-.034.062-.043.044-.026.079-.06.114-.094.017-.017.026-.034.044-.06s.035-.068.053-.094c.026-.026.044-.068.053-.111.009-.017.018-.026.018-.043.009-.017.009-.034.017-.06l.026-.12c.035-.171.044-.342.07-.513.009-.068.026-.128.044-.197.73.555 1.486 1.043 1.592 2.017.088.82.237 1.624.475 2.418.07.231.132.47.132.709 0 1.598.079 3.187-.185 4.777-.141.846-.132 1.726-.141 2.589 0 .923-.053 1.846-.141 2.76-.088.897-.088 1.786.141 2.658.123.461.044.923-.009 1.393l-.211 2.76c-.017.222-.009.453-.106.692l-14.359-.778-.018-.154-.026-.179a4.68 4.68 0 0 1-.035-.35c-.009-.12 0-.231.009-.342v-.043a.56.56 0 0 1 .018-.128l.026-.137c.026-.103.053-.205.097-.308.009-.017.009-.026.018-.043a.19.19 0 0 1 .044-.026l.677-.256c.026-.009.035-.043.053-.068s.035-.051.062-.077c.018-.017.044-.034.062-.051.035-.034.053-.077.07-.12l.097-.214a.79.79 0 0 0 .044-.094c0-.009 0-.017.009-.026.026-.043.088-.077.123-.103.079-.06.149-.128.202-.205-.07.034-.123.077-.193.12-.026.017-.062.034-.097.043-.009 0-.018 0-.035.009-.027.026-.044.051-.062.077l-.106.154a3.56 3.56 0 0 0-.132.188c-.044.068-.07.137-.141.171-.018.009-.044.017-.07.026l-.668.214c-.044.017-.088.026-.132.06v-.085c.009-.043 0-.085.009-.12v-.171l-.009-.35-.035-.684a4.4 4.4 0 0 1-.018-1.316zm-.193 5.546c.123-.094.281-.068.422-.06l8.468.453 5.548.299.273.034c.176.342.317.692.422 1.119L6.804 27.562c.369-.359.721-.581 1.046-.829zm15.414 5.717c-.396.06-.783.009-1.143-.034-.017 0-.035-.017-.044-.026-.018-.009-.026-.017-.044-.034-.026-.017-.053-.043-.079-.068-.053-.051-.088-.12-.141-.171-.018-.017-.044-.034-.053-.051-.017-.034-.026-.068-.035-.103 0-.009 0-.017-.009-.034-.009-.009-.018-.017-.018-.034a.65.65 0 0 1-.105-.162c-.009-.017-.009-.043-.009-.06.009-.051-.017-.103-.035-.145l-.026-.12c0-.009-.009-.026-.017-.034-.018-.026-.044-.043-.07-.06l-.185-.188a.48.48 0 0 0-.079-.06c.018.009.026.034.044.051a.23.23 0 0 0 .044.051c.026.034.053.068.07.12 0 .017.017.043.026.06a.49.49 0 0 1 .053.145.83.83 0 0 1 .026.205c.009.06.009.128.018.188 0 0 .044.017.053.017.009.009.009.026.009.043.017.043.044.085.07.128l.026.051v.145c0 .017 0 .043-.009.06-.017.026-.053.043-.044.077-.035 0-.088.009-.123 0-.009 0-.017 0-.026-.009-.062-.009-.114-.009-.176-.009l-.343-.017-2.981-.188-2.981-.188-2.981-.188-2.981-.188-1.495-.094-.747-.043-.369-.026c-.026 0-.361-.017-.361-.026v-.82l.009-.009.018-.017c.009-.017.018-.026.026-.043l.07-.094c.026-.034.062-.068.088-.103.009-.017.018-.026.026-.043.018-.017.044-.034.062-.043.026-.017.053-.026.079-.043.053-.026.106-.051.167-.068.044-.017.088-.026.132-.017.035.009.07.026.097.051.097.068.202.137.317.162.026.009.035-.017.053-.026a.73.73 0 0 1 .141-.103c.009-.009.026-.017.035-.017.026-.017.053-.026.079-.043.106-.043.22-.051.334-.06-.079-.026-.167-.043-.264-.051-.053 0-.106 0-.149.026l-.018.017c-.009.009-.026.017-.035.026l-.079.051c-.035.017-.053.026-.062.043-.009.009-.035.026-.053.026-.009 0-.026-.009-.044-.017-.009-.009-.026-.009-.035-.017a.84.84 0 0 0-.07-.043c-.07-.051-.141-.12-.211-.179-.009-.009-.018-.009-.026-.017h-.035c-.026.009-.053.009-.079.017-.018 0-.026.009-.044.009h-.026c-.026 0-.053.009-.079.009l-.114.026-.334.085v-1.718l17.296 1.085zM21.621 3.182l-.255-.35h-.114c-.017 0-.026-.017-.044-.017l-.264-.205-.545-.385a8.21 8.21 0 0 0-1.169-.667c-.185-.017-.334-.103-.545-.231l.545.085c.545-.009 1.055.162 1.574.316.404.12.809.248 1.231.282.642.043 1.143.376 1.644.709.396.265.528.701.651 1.111.088.316-.22.453-.413.632v.034c0 .017.009.034.009.051.009.034.026.06.035.094l.097.197c.017.034.026.068.035.103s.017.077.009.111c0 .017-.026.034-.035.043l-.167.197.369-.12c.026-.026.044-.051.07-.068s.053-.043.079-.06c-.026-.017-.026-.026-.026-.051l-.026-.111-.026-.103c0-.017-.009-.034-.009-.051 0-.009-.018-.043-.009-.051.097-.188.308-.222.413-.342.651.043 1.011.376 1.196.949.237.726.299 1.495.519 2.222.378 1.299.141 2.581.044 3.871-.053.743.026 1.504-.123 2.239-.062.282-.132.547-.361.709-.079.316-.009.607-.026.897-.035.085-.114.154-.185.214a1.84 1.84 0 0 1-.202.162c-.07.051-.141.094-.193.145l-.079.077c-.026.026-.062.043-.097.068a2.25 2.25 0 0 0-.185.12c-.017.017-.044.026-.053.051l-.035.034-.035.034c-.009.009-.017.017-.017.026.053.068.07.145.106.205.009.017.026.034.035.06.009.009.009.017.009.034.017.034.026.068.026.103v.051c-.009.034.009.068-.018.094l-.114.103c-.017.017-.035.034-.053.043-.035.034-.079.06-.114.094-.009.009-.017.009-.017.017-.009.009-.009.026 0 .043l.079.573c0 .026.009.06.009.094-.009.026-.009.051-.009.085a1.73 1.73 0 0 0 .018.222l.167-.795c.123-.222.431-.265.51-.487 0-.197-.185-.248-.246-.419l1.029-.735.035-.59c.123.026.141.12.149.197.062 1.154.352 2.307.097 3.469-.088.419-.237.82-.29 1.239-.141 1.179.044 2.35.017 3.521-.017.59.062 1.188-.141 1.803l-2.726 1.29.114-1.444c.079-.743.044-1.504.211-2.239.07-.316.044-.658-.035-.974-.273-1.025-.264-2.051-.132-3.085.141-1.128.106-2.265.123-3.401s.193-2.256.255-3.393c.062-1.188.167-2.384-.044-3.555l-.554-2.794c-.088-.701-.449-1.282-1.011-1.735l-.615-.53c-.053-.043-.097-.085-.149-.137-.009-.009-.018-.009-.018-.017-.017-.017-.017-.034-.026-.06zm4.625 23.355c.026.009.026.009.035.017.018 0 .026.009.035.017.017.017.026.034.035.051 0 .026.009.051.009.085 0 .06.009.128 0 .188 0 .034 0 .06-.009.094v.034c0 .017.018.017.035.026.026.009.044.034.053.051s.017.034.009.051c0 .017-.009.034-.017.043-.017.034-.044.051-.079.068-.079.034-.158.077-.229.12l-2.146 1.102c-.193-.35-.325-.701-.457-1.102l2.919-1.342c.325.197.528.496.765.752-.132.145-.299.188-.466.265l-.053-.026-.062-.034s-.035-.026-.062-.026c-.026-.009-.062-.026-.079-.043-.009-.009-.009-.017-.009-.034-.009-.034-.017-.06-.017-.094-.009-.043-.017-.077-.035-.12-.009-.034-.026-.077-.035-.111zm.598 2.316v-.128c0-.026 0-.06.017-.085.009-.017.009-.026.017-.034a1.07 1.07 0 0 1 .097-.145c.149-.171.237-.367.22-.607.097-.068.193-.145.361-.137.062.837.017 1.709-.009 2.598l-3.368 1.94v-2.897l2.682-1.367c.026.034.044.077.053.12.009.026 0 .06 0 .085 0 .017-.009.026-.017.043 0 .009-.009.017-.018.034l-.035.034c-.018.009-.026.026-.044.043s-.035.043-.044.06c-.009.009-.017.017-.017.034-.009.009-.017.026-.017.043-.026.043-.053.094-.088.137-.018.017-.035.043-.035.068 0 .009 0 .017.009.026v.333c0 .06.009.111.009.171 0 .043-.009.103-.035.137l-.026.026c-.009.026-.018.026-.026.034-.062.068-.141.12-.22.171.053-.009.106-.017.149-.043.035-.017.07-.043.114-.06.009 0 .017-.017.035-.017.027-.026.035-.051.053-.085.009-.009.009-.026.018-.043s.009-.026.017-.043c0-.009.009-.017.009-.026.009-.034.017-.068.035-.103.009-.017.009-.034.017-.051 0-.009.009-.017.009-.034s0-.034.009-.043c0-.017.009-.034.026-.043z" class="I"/><g class="B C E"><path d="M21.621 3.182l-.255-.35h-.114c-.017 0-.026-.017-.044-.017l-.264-.205-.545-.385a8.21 8.21 0 0 0-1.169-.667c-.185-.017-.334-.103-.545-.231l.545.085c.545-.009 1.055.162 1.574.316.404.12.809.248 1.231.282.642.043 1.143.376 1.644.709.396.265.528.701.651 1.111.088.316-.22.453-.413.632v.034c0 .017.009.034.009.051.009.034.026.06.035.094l.097.197c.017.034.026.068.035.103s.017.077.009.111c0 .017-.026.034-.035.043l-.167.197.369-.12c.026-.026.044-.051.07-.068s.053-.043.079-.06c-.026-.017-.026-.026-.026-.051l-.026-.111-.026-.103c0-.017-.009-.034-.009-.051 0-.009-.018-.043-.009-.051.097-.188.308-.222.413-.342.651.043 1.011.376 1.196.949.237.726.299 1.495.519 2.222.378 1.299.141 2.581.044 3.871-.053.743.026 1.504-.123 2.239-.062.282-.132.547-.361.709-.079.316-.009.607-.026.897-.035.085-.114.154-.185.214a1.84 1.84 0 0 1-.202.162c-.07.051-.141.094-.193.145l-.079.077c-.026.026-.062.043-.097.068a2.25 2.25 0 0 0-.185.12c-.017.017-.044.026-.053.051l-.035.034-.035.034c-.009.009-.017.017-.017.026.053.068.07.145.106.205.009.017.026.034.035.06.009.009.009.017.009.034.017.034.026.068.026.103v.051c-.009.034.009.068-.018.094l-.114.103c-.017.017-.035.034-.053.043-.035.034-.079.06-.114.094-.009.009-.017.009-.017.017-.009.009-.009.026 0 .043l.079.573c0 .026.009.06.009.094-.009.026-.009.051-.009.085a1.73 1.73 0 0 0 .018.222l.167-.795c.123-.222.431-.265.51-.487 0-.197-.185-.248-.246-.419l1.029-.735.035-.59c.123.026.141.12.149.197.062 1.154.352 2.307.097 3.469-.088.419-.237.82-.29 1.239-.141 1.179.044 2.35.017 3.521-.017.59.062 1.188-.141 1.803l-2.726 1.29.114-1.444c.079-.743.044-1.504.211-2.239.07-.316.044-.658-.035-.974-.273-1.025-.264-2.051-.132-3.085.141-1.128.106-2.265.123-3.401s.193-2.256.255-3.393c.062-1.188.167-2.384-.044-3.555l-.554-2.794c-.088-.701-.449-1.282-1.011-1.735l-.615-.53c-.053-.043-.097-.085-.149-.137zm0 0c-.009-.009-.018-.009-.018-.017-.017-.017-.017-.034-.026-.06zm4.766 23.389c.009.034.026.077.035.111a.61.61 0 0 1 .035.12c0 .034.009.06.017.094 0 .017 0 .026.009.034.017.017.053.034.079.043.026 0 .044.017.062.026l.062.034.053.026c.167-.077.334-.12.466-.265-.237-.256-.44-.555-.765-.752l-2.919 1.342c.132.402.264.752.457 1.102l2.146-1.102a1.91 1.91 0 0 1 .229-.12c.035-.017.062-.034.079-.068.009-.009.017-.026.017-.043.009-.017 0-.034-.009-.051s-.026-.043-.053-.051c-.017-.009-.035-.009-.035-.026v-.034c.009-.034.009-.06.009-.094.009-.06 0-.128 0-.188 0-.034-.009-.06-.009-.085-.009-.017-.017-.034-.035-.051-.009-.009-.017-.017-.035-.017-.026-.009-.035-.017-.035-.017zm0 0l-.185-.068m2.075.085c-.448-.35-.783-.803-1.205-1.196l.079-1.222-.026-3.23c-.053-.658.132-1.29.317-1.923.361-1.205.158-2.444-.026-3.632-.132-.846-.149-1.666-.088-2.504l.132-2.205c.079-1.042.176-2.068-.097-3.119-.238-.889-.29-1.82-.66-2.675-.29-.667-.29-.667-1.187-1.82-.8-.82-.923-.829-1.609-1.23-.528-.308-1.046-.598-1.688-.658-.818-.077-1.574-.427-2.383-.555-1.407-.222-2.796-.103-4.185.103-1.864.282-3.702.632-5.135 2.017-.677.658-1.372 1.282-1.662 2.196-.079.256-.255.479-.387.709-.607 1-.466 1.453-.554 2.752.053.094-.123.658-.185.812-.079.872-.088.316-.079.692l.044 3.401c.009 1.025.053 2.051-.141 3.059-.211 1.068-.193 2.145-.202 3.222 0 .239.009.487-.053.718-.185.803-.141 1.606-.097 2.41l.141 3.299-1.943 1.47c-.229.162-.361.342-.361.632l.026 3.615c0 .325.158.504.501.53l4.757.291 6.164.376 6.99.444c.317.017.607-.051.879-.214l3.684-2.136c.299-.171.413-.393.413-.726l.062-3.145c0-.214-.044-.41-.237-.555zM8.044 21.188c.106-.718.202-1.427.185-2.153-.026-.94.088-1.863.229-2.786.193-1.282.123-2.572.097-3.863l-.009-1.401c0-.12.009-.239.018-.359l.018-.214c0-.034.026-.06.053-.085l.114-.128c.009-.009.018-.017.035-.026.009 0 .026 0 .035.009.158.068.431.316.44.333 0 .009.317.239.317.248.009.009-.193.436-.193.453.378 0 .281-.12.589-.658.018-.034-.308-.248-.308-.291-.053-.051-.07-.12-.097-.179-.026-.077-.07-.145-.114-.205l-.079-.094-.079-.077c-.018-.017-.026-.034-.026-.06-.009-.034-.026-.06-.035-.094-.035-.077-.07-.162-.097-.248l-.167-.504-.167-.513-.106-.273c.062-.803.22-1.572.765-2.222.123-.154.202-.35.264-.53.246-.786.791-1.35 1.416-1.854.387-.316.739-.692 1.187-.906.009-.009.044.017.053.017l.053.026c.035.026.062.051.079.085.035.043.044.103.07.145l.053.137.097.273c.009.017.009.026.018.034.009.017.027.026.035.026.035.009.07.026.106.034.009 0-.035.231-.035.248v.043c0 .034-.009.077-.009.111l-.018.231c0 .026-.009.06 0 .085l.026.068c.07.137.106.649.106.649l.106-.308c-.009-.026-.009-.043-.018-.068l-.026-.137-.026-.188c0-.026-.009-.043-.009-.068 0-.017-.009-.026 0-.043.009-.026.018-.051.035-.068.009-.026.026-.051.035-.077 0 0 .053.009.062.017.018.009.035.017.053.017.053.009.097.026.141.051.018.009.035.017.053.034l.026.051.141.342c.009.017.018.043.035.06s.035.026.053.034l.352.205c-.053-.085-.132-.154-.202-.239a.94.94 0 0 1-.202-.444c-.009-.034-.009-.068-.009-.103l-.264-.171c-.035-.026-.079-.043-.106-.068-.009-.009-.018-.026-.018-.043l-.026-.068-.097-.273c-.009-.026-.018-.06-.044-.068-.009-.009-.026-.009-.044-.017-.026-.017-.035-.051-.044-.077l-.026-.111c-.009-.026-.018-.06-.018-.094v-.034c-.009-.06-.026-.12-.026-.179-.009-.154.026-.308.114-.444 2.682-.385 5.39-.701 7.747 1.307v1.196c0 .034 0 .077-.017.111-.009.009-.009.017-.018.034-.009.026-.017.051-.035.068l-.088.137c-.035.051-.07.103-.088.162.009-.009.017-.009.026-.017l.026-.026c.017-.017.044-.034.062-.043.044-.026.079-.06.114-.094.017-.017.026-.034.044-.06s.035-.068.053-.094c.026-.026.044-.068.053-.111.009-.017.018-.026.018-.043.009-.017.009-.034.017-.06l.026-.12c.035-.171.044-.342.07-.513.009-.068.026-.128.044-.197.73.555 1.486 1.043 1.592 2.017.088.82.237 1.624.475 2.418.07.231.132.47.132.709 0 1.598.079 3.187-.185 4.777-.141.846-.132 1.726-.141 2.589 0 .923-.053 1.846-.141 2.76-.088.897-.088 1.786.141 2.658.123.461.044.923-.009 1.393l-.211 2.76c-.017.222-.009.453-.106.692l-14.359-.778-.018-.154-.026-.179a4.69 4.69 0 0 1-.035-.35c-.009-.12 0-.231.009-.342v-.043a.56.56 0 0 1 .018-.128l.026-.137c.026-.103.053-.205.097-.308.009-.017.009-.026.018-.043a.19.19 0 0 1 .044-.026l.677-.256c.026-.009.035-.043.053-.068s.035-.051.062-.077c.018-.017.044-.034.062-.051.035-.034.053-.077.07-.12l.097-.214a.79.79 0 0 0 .044-.094c0-.009 0-.017.009-.026.026-.043.088-.077.123-.103.079-.06.149-.128.202-.205-.07.034-.123.077-.193.12-.026.017-.062.034-.097.043-.009 0-.018 0-.035.009-.027.026-.044.051-.062.077l-.106.154-.132.188s-.07.137-.141.171c-.018.009-.044.017-.07.026l-.668.214c-.044.017-.088.026-.132.06v-.085c.009-.043 0-.085.009-.12v-.171l-.009-.35-.035-.684a4.4 4.4 0 0 1-.018-1.316zm-.193 5.546c.123-.094.281-.068.422-.06l8.468.453 5.548.299.273.034c.176.342.317.692.422 1.119L6.804 27.562c.369-.359.721-.581 1.046-.829zm15.414 5.717c-.396.06-.783.009-1.143-.034-.017 0-.035-.017-.044-.026-.018-.009-.026-.017-.044-.034-.026-.017-.053-.043-.079-.068-.053-.051-.088-.12-.141-.171-.018-.017-.044-.034-.053-.051-.017-.034-.026-.068-.035-.103 0-.009 0-.017-.009-.034-.009-.009-.018-.017-.018-.034a.65.65 0 0 1-.105-.162c-.009-.017-.009-.043-.009-.06.009-.051-.017-.103-.035-.145l-.026-.12c0-.009-.009-.026-.017-.034-.018-.026-.044-.043-.07-.06l-.185-.188a.48.48 0 0 0-.079-.06c.018.009.026.034.044.051a.23.23 0 0 0 .044.051c.026.034.053.068.07.12 0 .017.017.043.026.06a.49.49 0 0 1 .053.145.83.83 0 0 1 .026.205c.009.06.009.128.018.188 0 0 .044.017.053.017.009.009.009.026.009.043.017.043.044.085.07.128l.026.051v.145c0 .017 0 .043-.009.06-.017.026-.053.043-.044.077-.035 0-.088.009-.123 0-.009 0-.017 0-.026-.009-.062-.009-.114-.009-.176-.009l-.343-.017-2.981-.188-2.981-.188-2.981-.188-2.981-.188-1.495-.094-.747-.043-.369-.026c-.026 0-.361-.017-.361-.026v-.82l.009-.009.018-.017c.009-.017.018-.026.026-.043l.07-.094c.026-.034.062-.068.088-.103.009-.017.018-.026.026-.043.018-.017.044-.034.062-.043.026-.017.053-.026.079-.043.053-.026.106-.051.167-.068.044-.017.088-.026.132-.017a.21.21 0 0 1 .097.051c.097.068.202.137.317.162.026.009.035-.017.053-.026a.73.73 0 0 1 .141-.103c.009-.009.026-.017.035-.017.026-.017.053-.026.079-.043.106-.043.22-.051.334-.06-.079-.026-.167-.043-.264-.051-.053 0-.106 0-.149.026l-.018.017c-.009.009-.026.017-.035.026l-.079.051c-.035.017-.053.026-.062.043-.009.009-.035.026-.053.026-.009 0-.026-.009-.044-.017-.009-.009-.026-.009-.035-.017l-.07-.043c-.07-.051-.141-.12-.211-.179-.009-.009-.018-.009-.026-.017h-.035c-.026.009-.053.009-.079.017-.018 0-.026.009-.044.009h-.026c-.026 0-.053.009-.079.009l-.114.026-.334.085v-1.718l17.296 1.085zm3.579-3.598v-.128c0-.026 0-.06.017-.085.009-.017.009-.026.017-.034.035-.06.062-.103.097-.145.149-.171.237-.367.22-.607.097-.068.193-.145.361-.137.062.837.017 1.709-.009 2.598l-3.368 1.94v-2.897l2.682-1.367c.026.034.044.077.053.12.009.026 0 .06 0 .085 0 .017-.009.026-.017.043 0 .009-.009.017-.018.034l-.035.034c-.018.009-.026.026-.044.043s-.035.043-.044.06c-.009.009-.017.017-.017.034-.009.009-.017.026-.017.043-.026.043-.053.094-.088.137-.018.017-.035.043-.035.068 0 .009 0 .017.009.026v.333c0 .06.009.111.009.171 0 .043-.009.103-.035.137l-.026.026c-.009.026-.018.026-.026.034-.062.068-.141.12-.22.171.053-.009.106-.017.149-.043.035-.017.07-.043.114-.06.009 0 .017-.017.035-.017.027-.026.035-.051.053-.085.009-.009.009-.026.018-.043s.009-.026.017-.043c0-.009.009-.017.009-.026.009-.034.017-.068.035-.103.009-.017.009-.034.017-.051 0-.009.009-.017.009-.034s0-.034.009-.043c0-.017.009-.034.026-.043z"/><path d="M16.802 13.924c-.211.308-.229.726-.079 1.068.044.103.105.197.202.256.193.111.44.009.642-.094.264-.137.536-.299.642-.572.079-.197.044-.427-.053-.615-.053-.12-.132-.222-.22-.316-.062-.06-.114-.137-.211-.145-.22-.034-.457.034-.642.145a1.06 1.06 0 0 0-.281.273zm-4.001.06c-.07.12-.123.248-.132.385-.018.231.097.444.202.649.018.043.044.085.079.111s.079.034.123.043c.44.06.897-.111 1.178-.444.053-.068.097-.137.123-.214.035-.12.035-.239.026-.359-.009-.171-.026-.367-.158-.487-.062-.06-.141-.103-.22-.137-.097-.051-.211-.111-.317-.145-.079-.017-.176.009-.246.034a1.18 1.18 0 0 0-.475.316l-.106.12c-.018.026-.035.043-.044.068-.009.009-.018.043-.035.06z" class="D"/></g><g class="H"><use xlink:href="#C"/><use xlink:href="#C" x="3.904" y="0.085"/><path d="M12.801 14.992c-.123-.179-.422-.385-.422-.59 0-.607.299-1.094.923-1.094h.475c.07.068.141.128.193.197a1.04 1.04 0 0 0-.229-.026c-.519 0-.95.41-.95.923 0 .248.097.47.264.641zm4.185.154c-.088-.009-.563-.188-.651-.205-.123-.179 0-.846 0-1.068 0-.581.721-.521 1.31-.555l.176.256a1.11 1.11 0 0 0-.176-.017c-.519 0-.95.41-.95.923a.96.96 0 0 0 .29.667z"/></g><defs ><path id="B" d="M20.978 23.623c-.009.128-.07.248-.07.376s.088.273.22.273c.114 0 .193-.103.246-.197.044-.06.079-.128.114-.188.026-.034.044-.077.026-.12-.009-.017-.026-.034-.044-.043-.149-.094-.334-.137-.519-.128"/><path id="C" d="M13.364 15.411c-.668 0-1.213-.53-1.213-1.179s.545-1.179 1.213-1.179 1.213.53 1.213 1.179-.545 1.179-1.213 1.179zm0-2.017c-.475 0-.862.376-.862.837s.387.837.862.837.862-.376.862-.837-.387-.837-.862-.837z"/></defs></svg>