<svg xmlns="http://www.w3.org/2000/svg" width="128" height="128" xmlns:v="https://vecta.io/nano"><path d="M0 64c0-23.893 0-35.84 5.12-44.658C8.533 13.369 13.369 8.533 19.342 5.12 28.16 0 40.107 0 64 0s35.84 0 44.942 5.12a39.32 39.32 0 0 1 13.938 14.222C128 28.16 128 40.107 128 64s0 35.84-5.12 44.942c-3.413 5.973-8.249 10.809-13.938 13.938C99.84 128 87.893 128 64 128s-35.84 0-44.658-5.12c-5.973-3.413-10.809-8.249-14.222-14.222C0 99.84 0 87.893 0 64z" fill="#7a52d1"/><path d="M34.133 65.422V41.244H46.08v24.178c0 6.258 1.707 10.24 4.836 13.084S58.027 83.058 64 83.058c6.258 0 10.24-1.707 13.084-4.551s4.836-7.111 4.836-13.369V40.96h11.947v24.462c0 8.533-2.56 16.213-8.249 21.618S72.818 95.004 64 95.004c-8.533 0-15.929-2.56-21.618-7.964s-8.249-13.084-8.249-21.618zm35.84-.284V41.529H58.027v23.609c0 2.276.569 3.698 1.707 4.836S62.009 71.68 64 71.68s3.413-.569 4.267-1.707c1.138-1.138 1.707-2.56 1.707-4.836z" fill-rule="evenodd" fill="#fff"/></svg>