<svg xmlns="http://www.w3.org/2000/svg" width="128" height="128" fill="none" xmlns:v="https://vecta.io/nano"><path d="M119.444 31.978C101.827 1.402 62.602-9.067 32.036 8.556 17.204 17.142 6.664 30.924 2.222 47.417S.039 81.156 8.622 95.993C20.442 116.477 42.049 128 64.183 128c10.841 0 21.834-2.787 31.922-8.586 30.491-17.623 40.956-56.86 23.339-87.436zM53.267 70.312c-8.282-14.385-23.866-22.066-39.751-20.56.226-.151.376-.226.602-.377 17.994-10.393 41.031-4.217 51.421 13.782s4.216 41.045-13.777 51.438c-.151.076-.301.15-.527.301 9.26-13.029 10.239-30.426 2.033-44.584zm18.671 41.27c11.519-15.213 13.551-36.526 3.388-54.073-10.164-17.623-29.738-26.51-48.71-24.024 10.314-5.724 22.134-7.155 33.578-4.142 11.669 3.088 21.381 10.619 27.404 21.087 12.272 21.238 5.27 48.425-15.66 61.153zM18.334 90.344c-5.119-8.887-7.529-18.828-7.002-28.844 12.648-2.636 25.598 3.013 32.147 14.46 6.475 11.297 5.044 25.38-3.463 34.945-8.733-4.444-16.337-11.447-21.683-20.56zm74.232 17.924c14.079-17.622 16.789-42.852 4.818-63.562-7.528-13.029-19.725-22.443-34.255-26.284-7.755-2.109-15.66-2.485-23.264-1.28 7.679-3.991 15.961-5.874 24.092-5.874 18.219 0 35.987 9.489 45.699 26.359 14.079 24.401 6.324 55.58-17.09 70.642z" fill="#4112a2"/></svg>