<svg xmlns="http://www.w3.org/2000/svg" xmlns:xlink="http://www.w3.org/1999/xlink" width="128" height="128" viewBox="0 0 33.867 33.867" xmlns:v="https://vecta.io/nano"><defs><clipPath id="A"><path d="M393.142 456.635v-53.553l.017 2.125c.358-45.763 38.848-84.883 86.294-84.883h0c47.447 0 85.937 36.995 86.295 82.758h0l.017 2.125v51.428s-11.97 5.839-25.587-8.085h0c-8.742-8.941-15.732-41.057-34.449-41.346h0c-24.996-.387-42.005 32.828-62.342 45.239h0c-9.027 5.508-19.456 7.092-28.464 7.092h0c-12.191.001-21.781-2.9-21.781-2.9"/></clipPath><linearGradient x1="0" y1="0" x2="1" y2="0" gradientTransform="matrix(220.58911,115.34621,115.34621,-220.58911,379.78729,353.20813)" spreadMethod="pad" id="B" xlink:href="#S"><stop offset="0" stop-color="#fda9ff"/><stop offset=".286" stop-color="#d1b6ff"/><stop offset=".367" stop-color="#d1b6ff"/><stop offset=".89" stop-color="#4dffe5"/></linearGradient><clipPath id="C"><path d="M393.142 456.635v-53.553l.017 2.125c.358-45.763 38.848-84.883 86.294-84.883h0c47.447 0 85.937 36.995 86.295 82.758h0l.017 2.125v51.428s-11.97 5.839-25.587-8.085h0c-8.742-8.941-15.732-41.057-34.449-41.346h0c-24.996-.387-42.005 32.828-62.342 45.239h0c-9.027 5.508-19.456 7.092-28.464 7.092h0c-12.191.001-21.781-2.9-21.781-2.9"/></clipPath><mask maskUnits="userSpaceOnUse" x="0" y="0" width="1" height="1" id="D"><g clip-path="url(#E)"><path d="M-32768 32767h65535v-65535h-65535z" fill="url(#F)" stroke="none"/></g></mask><clipPath id="E"><path d="M-32768 32767h65535v-65535h-65535z"/></clipPath><linearGradient x1="0" y1="0" x2="1" y2="0" gradientTransform="matrix(22.732464,83.352371,83.352371,-22.732464,469.79807,389.35898)" spreadMethod="pad" id="F" xlink:href="#S"><stop offset="0" stop-opacity=".3" stop-color="#fff"/><stop offset=".674" stop-opacity="0" stop-color="#fff"/></linearGradient><linearGradient x1="0" y1="0" x2="1" y2="0" gradientTransform="matrix(22.732464,83.352371,83.352371,-22.732464,469.79807,389.35898)" spreadMethod="pad" id="G" xlink:href="#S"><stop offset="0" stop-color="#16183c"/></linearGradient><clipPath id="H"><path d="M393.079 435.973v-38.174l.017 2.273c.358-48.953 38.863-90.798 86.326-90.798h0c47.463 0 85.968 39.573 86.326 88.525h0l.017 2.273v34.924c-4.872-.812-10.871-3.19-17.206-9.035h0c-9.806-9.048-17.644-41.548-38.636-41.842h0c-28.034-.391-47.11 33.222-69.919 45.781h0c-10.124 5.575-21.815 7.178-31.915 7.178h0c-5.7 0-10.891-.51-15.01-1.105"/></clipPath><linearGradient x1="0" y1="0" x2="1" y2="0" gradientTransform="matrix(197.85664,87.562088,87.562088,-197.85664,387.10309,346.94196)" spreadMethod="pad" id="I" xlink:href="#S"><stop offset="0" stop-color="#fda9ff"/><stop offset=".286" stop-color="#d1b6ff"/><stop offset=".367" stop-color="#d1b6ff"/><stop offset=".89" stop-color="#4dffe5"/></linearGradient><clipPath id="J"><path d="M393.079 435.973v-38.174l.017 2.273c.358-48.953 38.863-90.798 86.326-90.798h0c47.463 0 85.968 39.573 86.326 88.525h0l.017 2.273v34.924c-4.872-.812-10.871-3.19-17.206-9.035h0c-9.806-9.048-17.644-41.548-38.636-41.842h0c-28.034-.391-47.11 33.222-69.919 45.781h0c-10.124 5.575-21.815 7.178-31.915 7.178h0c-5.7 0-10.891-.51-15.01-1.105"/></clipPath><mask maskUnits="userSpaceOnUse" x="0" y="0" width="1" height="1" id="K"><g clip-path="url(#L)"><path d="M-32768 32767h65535v-65535h-65535z" fill="url(#M)" stroke="none"/></g></mask><clipPath id="L"><path d="M-32768 32767h65535v-65535h-65535z"/></clipPath><linearGradient x1="0" y1="0" x2="1" y2="0" gradientTransform="matrix(30.309956,62.303795,62.303795,-30.309956,459.63147,365.96036)" spreadMethod="pad" id="M" xlink:href="#S"><stop offset="0" stop-opacity=".3" stop-color="#fff"/><stop offset=".674" stop-opacity="0" stop-color="#fff"/></linearGradient><linearGradient x1="0" y1="0" x2="1" y2="0" gradientTransform="matrix(30.309956,62.303795,62.303795,-30.309956,459.63147,365.96036)" spreadMethod="pad" id="N" xlink:href="#S"><stop offset="0" stop-color="#16183c"/></linearGradient><clipPath id="O"><path d="M393.079 409.659v-11.86l.017 2.273c.358-48.953 38.863-90.798 86.326-90.798h0c47.463 0 85.968 39.573 86.326 88.525h0l.017 2.273v6.164c-3.732-1.421-7.797-3.704-11.998-7.304h0c-10.555-9.048-18.993-41.549-41.591-41.842h0c-30.177-.391-50.712 33.222-75.266 45.781h0c-10.896 5.574-23.48 7.176-34.352 7.177h0c-3.356 0-6.549-.153-9.479-.389"/></clipPath><linearGradient x1="0" y1="0" x2="1" y2="0" gradientTransform="matrix(177.65001,68.197395,68.197395,-177.65001,378.61993,334.35156)" spreadMethod="pad" id="P" xlink:href="#S"><stop offset="0" stop-color="#fda9ff"/><stop offset=".286" stop-color="#d1b6ff"/><stop offset=".367" stop-color="#d1b6ff"/><stop offset=".89" stop-color="#4dffe5"/></linearGradient><path id="Q" d="M393.142 456.635v-53.553l.017 2.125c.358-45.763 38.848-84.883 86.294-84.883h0c47.447 0 85.937 36.995 86.295 82.758h0l.017 2.125v51.428s-11.97 5.839-25.587-8.085h0c-8.742-8.941-15.732-41.057-34.449-41.346h0c-24.996-.387-42.005 32.828-62.342 45.239h0c-9.027 5.508-19.456 7.092-28.464 7.092h0c-12.191.001-21.781-2.9-21.781-2.9"/><path id="R" d="M393.079 435.973v-38.174l.017 2.273c.358-48.953 38.863-90.798 86.326-90.798h0c47.463 0 85.968 39.573 86.326 88.525h0l.017 2.273v34.924c-4.872-.812-10.871-3.19-17.206-9.035h0c-9.806-9.048-17.644-41.548-38.636-41.842h0c-28.034-.391-47.11 33.222-69.919 45.781h0c-10.124 5.575-21.815 7.178-31.915 7.178h0c-5.7 0-10.891-.51-15.01-1.105"/><linearGradient id="S" gradientUnits="userSpaceOnUse"/></defs><g transform="matrix(.18386 0 0 -.18386 -71.213062 87.609836)"><g clip-path="url(#A)"><use xlink:href="#Q" fill="url(#B)"/></g><g clip-path="url(#C)"><g mask="url(#D)"><use xlink:href="#Q" fill="url(#G)"/></g></g><g clip-path="url(#H)"><use xlink:href="#R" fill="url(#I)"/></g><g clip-path="url(#J)"><g mask="url(#K)"><use xlink:href="#R" fill="url(#N)"/></g></g><g clip-path="url(#O)"><path d="M393.079 409.659v-11.86l.017 2.273c.358-48.953 38.863-90.798 86.326-90.798h0c47.463 0 85.968 39.573 86.326 88.525h0l.017 2.273v6.164c-3.732-1.421-7.797-3.704-11.998-7.304h0c-10.555-9.048-18.993-41.549-41.591-41.842h0c-30.177-.391-50.712 33.222-75.266 45.781h0c-10.896 5.574-23.48 7.176-34.352 7.177h0c-3.356 0-6.549-.153-9.479-.389" fill="url(#P)"/></g></g></svg>