<svg xmlns="http://www.w3.org/2000/svg" width="128" height="128" fill="none" xmlns:v="https://vecta.io/nano"><defs><clipPath id="A"><path d="M436.442 438.763a18.16 18.16 0 0 1-16.367-10.296h0l-75.013-156.158-.08.167-19.98-41.595.08-.166-19.975-41.583-99.844 207.96h28.476a18.16 18.16 0 0 0 16.367-10.296h0l65.17-134.908 19.99 41.614-52.644 108.915a64.07 64.07 0 0 1-57.758 36.346h0-39.608-39.961-.002l19.945-41.671h.064l119.819-249.564h39.961l139.901 291.235z"/></clipPath><linearGradient x1="145.294" y1="293.145" x2="464.983" y2="293.145" gradientUnits="userSpaceOnUse" spreadMethod="pad" id="B"><stop offset="0" stop-color="#2f3285"/><stop offset=".132" stop-color="#2f3285"/><stop offset=".6" stop-color="#40c0ce"/><stop offset="1" stop-color="#61c332"/></linearGradient></defs><g clip-path="url(#A)" transform="matrix(.400388 0 0 -.400388 -58.173557 181.37191)"><path d="M436.442 438.763a18.16 18.16 0 0 1-16.367-10.296h0l-75.013-156.158-.08.167-19.98-41.595.08-.166-19.975-41.583-99.844 207.96h28.476a18.16 18.16 0 0 0 16.367-10.296h0l65.17-134.908 19.99 41.614-52.644 108.915a64.07 64.07 0 0 1-57.758 36.346h0-39.608-39.961-.002l19.945-41.671h.064l119.819-249.564h39.961l139.901 291.235z" fill="url(#B)"/></g></svg>