<svg xmlns="http://www.w3.org/2000/svg" xmlns:xlink="http://www.w3.org/1999/xlink" width="128" height="128" viewBox="0 0 33.867 33.867" xmlns:v="https://vecta.io/nano"><style><![CDATA[.B{color-interpolation-filters:sRGB}]]></style><defs><filter id="A" x="-.011" y="-.013" width="1.022" height="1.026" class="B"><feGaussianBlur stdDeviation=".094"/></filter><filter id="B" x="-.044" y="-.053" width="1.088" height="1.106" class="B"><feGaussianBlur stdDeviation=".377"/></filter><filter id="C" x="-.099" y="-.119" width="1.197" height="1.238" class="B"><feGaussianBlur stdDeviation=".847"/></filter><filter id="D" x="-.274" y="-.331" width="1.548" height="1.663" class="B"><feGaussianBlur stdDeviation="2.354"/></filter><filter  x="-.175" y="-.212" width="1.351" height="1.424" class="B"><feGaussianBlur stdDeviation="1.506"/></filter><path id="F" d="M6.627 9.053v9.538c0 .737.133 1.545.576 2.135l4.07 5.373h3.068l2.591-3.415 2.586 3.415h3.088l4.061-5.373c.444-.588.574-1.398.574-2.135V9.053h-1.905v9.851.002c0 .306-.118.607-.295.84-1.362 1.795 1.139-1.499-3.863 5.09-.008.01-.015.021-.029.031-.004.003-.014.007-.022.011l-.015.015h-.032-.004c-.021.003-.039-.001-.043-.002l-.025-.008-.029-.015c-.007-.005-.023-.02-.033-.033l-3.863-5.09c-.064-.084-.105-.185-.15-.282-.044.095-.085.193-.147.274-1.362 1.795 1.137-1.499-3.861 5.09-.031.042-.01.011-.01.011s-.009.01-.02.018c-.026.02-.006.002-.006.002-.021.013-.038.022-.057.025-.025.004-.01 0-.01 0a.14.14 0 0 1-.045-.002l.012.002h-.012l-.011-.004-.031-.006-.015-.018-.01-.008c-.01-.01.01.022-.022-.022l-.269-.356-.697-.917-2.895-3.816c-.177-.233-.293-.534-.293-.834V9.053zm2.198 0v9.851c0 .229.092.473.235.661l3.746 4.94 3.746-4.94c.142-.187.234-.429.235-.657V9.053h-1.905v9.538l-2.075 2.748-2.075-2.748V9.053zm8.254 0V18.9v.011c0 .228.093.475.236.663l3.746 4.938 3.747-4.938a1.14 1.14 0 0 0 .234-.663v-.002-9.857H23.14v9.538l-2.079 2.748-2.076-2.748V9.053z"/></defs><circle cx="16.933" cy="16.933" r="16.933" fill="#000d00" paint-order="stroke fill markers"/><g clip-path="none"><use xlink:href="#F" fill="#917900" paint-order="stroke fill markers" filter="url(#D)"/><use xlink:href="#F" fill="#9e8400" paint-order="stroke fill markers" filter="url(#C)"/><use xlink:href="#F" fill="#937b00" paint-order="stroke fill markers" filter="url(#B)"/><g fill="#ffe669"><use xlink:href="#F" paint-order="stroke fill markers" filter="url(#A)"/><use xlink:href="#F" paint-order="stroke fill markers"/></g></g></svg>