<svg xmlns="http://www.w3.org/2000/svg" width="128" height="128" fill="none" xmlns:v="https://vecta.io/nano"><defs><linearGradient id="A" x2="128" y2="128" x1="0" y1="0" gradientUnits="userSpaceOnUse"><stop stop-color="#fc829f"/><stop offset=".337" stop-color="#ff1c53"/><stop offset=".436" stop-color="#ea49f8"/><stop offset=".53" stop-color="#b250ff"/><stop offset=".634" stop-color="#5e5ff5"/><stop offset="1" stop-color="#323cff"/></linearGradient></defs><path d="M64 0C28.658 0 0 28.658 0 64a64.51 64.51 0 0 0 .996 11.2h14.212c1.817 0 2.905-.59 3.609-1.728l4.992-8.27 6.386 19.829c.629 1.995 2.112 3.033 4.11 3.047 2.048.011 3.737-1.244 4.135-3.292l4.633-21.835 5.042 34.816c.309 2.29 1.422 3.442 3.726 3.442h.025c2.293 0 3.392-1.241 3.712-3.52l10.279-67.762a3.851 3.851 0 0 0-3.278-4.338 3.865 3.865 0 0 0-4.338 3.275l-6.336 43.442-4.263-28.992c-.281-2.226-1.97-3.609-3.815-3.648-2.084-.05-3.634 1.255-4.068 3.47l-6.123 28.366-4.889-15.218a4.11 4.11 0 0 0-3.47-3.076c-2.226-.267-3.495.885-4.43 2.407L13.287 67.52H8.768A53.575 53.575 0 0 1 8.64 64C8.64 33.422 33.422 8.64 64 8.64c24.654 0 45.543 16.128 52.697 38.4h9.013C118.272 19.929 93.476 0 64 0z" fill="url(#A)"/><path d="M127.004 52.8h-14.236c-1.817 0-2.905.59-3.609 1.728l-4.992 8.27-6.389-19.829c-.626-1.995-2.112-3.033-4.107-3.047-2.048-.011-3.737 1.244-4.135 3.292l-4.633 21.835-5.045-34.816c-.306-2.29-1.422-3.442-3.723-3.442h-.025c-2.293 0-3.392 1.241-3.712 3.52L62.116 98.073a3.85 3.85 0 0 0 3.275 4.338 3.865 3.865 0 0 0 4.338-3.275l6.34-43.442 4.263 28.992c.281 2.226 1.97 3.609 3.812 3.648 2.087.05 3.637-1.255 4.071-3.47l6.119-28.366 4.889 15.218c.384 1.653 1.856 2.88 3.47 3.076 2.226.267 3.495-.885 4.427-2.407l7.566-11.904h4.544l.128 3.52c0 30.578-24.782 55.36-55.36 55.36-24.654 0-45.543-16.128-52.697-38.4H2.29C9.728 108.071 34.535 128 64 128c35.342 0 64-28.658 64-64a64.51 64.51 0 0 0-.996-11.2z" fill="url(#A)"/></svg>