<svg xmlns="http://www.w3.org/2000/svg" width="128" height="128" xmlns:v="https://vecta.io/nano"><path d="M64 0C44.689 0 27.366 8.594 15.628 22.148c-1.318 1.522-1.028 3.831.548 5.063 1.398 1.092 3.482.613 4.763-.852C30.706 15.19 44.751 7.887 60.54 6.945v68.207c0 1.875 1.53 3.404 3.404 3.404s3.404-1.53 3.404-3.404V6.941c15.834.914 29.922 8.223 39.713 19.418 1.306 1.494 3.574 1.782 5.151.551 1.398-1.092 1.454-3.267.161-4.761C100.635 8.594 83.311 0 64 0zM8.268 36.638c-1.271.008-2.536.854-3.12 2.216C1.838 46.577 0 55.076 0 64c0 21.515 10.665 40.562 26.977 52.168.157.112.366.112.524.002l.254-.178 2.336-1.634-.028.014c.02-.01.039-.021.057-.034l2.514-1.759L64 90.638l31.366 21.941 2.215 1.549 2.619 1.832.3.21c.157.11.367.11.524-.002C117.335 104.562 128 85.515 128 64c0-8.924-1.838-17.423-5.148-25.145-.793-1.85-2.999-2.601-4.797-1.724-1.6.78-2.088 2.866-1.332 4.66 2.875 6.826 4.468 14.327 4.468 22.209 0 17.685-8.024 33.439-20.605 43.922L65.951 83.694c-.572-.4-1.253-.614-1.951-.614s-1.379.214-1.951.614l-34.635 24.228C14.833 97.439 6.809 81.686 6.809 64c0-7.882 1.593-15.383 4.468-22.209.77-1.829.036-3.993-1.762-4.87a2.79 2.79 0 0 0-1.247-.283zM63.74 96.717l-7.922 5.542c-.341.238-.208.772.205.823a65.55 65.55 0 0 0 7.977.494 65.56 65.56 0 0 0 7.978-.494c.413-.051.546-.584.205-.823l-7.923-5.542c-.156-.109-.363-.109-.52 0zm14.709 10.12a58.47 58.47 0 0 1-14.473 1.814c-4.987 0-9.822-.631-14.44-1.806-.128-.032-.263-.008-.371.067l-6.305 4.41c-.305.213-.239.683.113.802 6.593 2.245 13.656 3.465 21.003 3.465 7.358 0 14.431-1.225 21.034-3.477.353-.12.419-.59.113-.802l-6.302-4.407c-.108-.076-.244-.1-.372-.067zm-40.233 8.223c-.149-.075-.328-.063-.465.033l-5.389 3.77c-.274.191-.255.602.035.767C41.725 124.945 52.509 128 64 128s22.275-3.055 31.603-8.371c.29-.165.308-.576.035-.767l-5.389-3.769c-.137-.096-.315-.108-.465-.033-7.747 3.914-16.499 6.132-25.784 6.132s-18.037-2.218-25.784-6.132z" fill="#f7931b" paint-order="markers fill stroke"/></svg>