<svg xmlns="http://www.w3.org/2000/svg" width="128" height="128" fill="none" xmlns:v="https://vecta.io/nano"><path fill-rule="evenodd" d="M9.982 20.036c5.513 0 9.982-4.469 9.982-9.982S15.495.071 9.982.071 0 4.54 0 10.053s4.469 9.982 9.982 9.982zm88.368 87.787h.023 0a9.37 9.37 0 0 0 9.377-9.377v-.023c.001-2.067-.687-4.075-1.955-5.708-.622-.802-1.368-1.5-2.211-2.066a9.63 9.63 0 0 0-2.825-1.295C89.357 86.205 81.458 75.831 81.458 64s7.898-22.205 19.302-25.354c1.006-.276 1.96-.713 2.825-1.295.843-.566 1.589-1.263 2.211-2.066a9.29 9.29 0 0 0 1.955-5.707v-.024a9.37 9.37 0 0 0-9.377-9.377h-.023c-2.067-.001-4.075.687-5.708 1.955-.802.622-1.5 1.368-2.066 2.21a9.64 9.64 0 0 0-1.295 2.825C86.119 38.562 75.753 46.454 63.928 46.47a26.36 26.36 0 0 1-25.354-19.302 9.63 9.63 0 0 0-1.295-2.825c-.566-.843-1.263-1.589-2.066-2.21a9.29 9.29 0 0 0-5.707-1.955h-.024a9.37 9.37 0 0 0-9.377 9.377v.024c-.001 2.067.687 4.075 1.955 5.707.621.802 1.368 1.5 2.21 2.066a9.63 9.63 0 0 0 2.825 1.295C38.491 41.809 46.382 52.175 46.399 64a26.36 26.36 0 0 1-19.302 25.353c-1.006.276-1.96.713-2.825 1.295-.843.566-1.589 1.263-2.21 2.066-1.268 1.632-1.956 3.641-1.955 5.708v.023a9.37 9.37 0 0 0 9.377 9.377h.024c2.067.001 4.075-.687 5.707-1.955a9.49 9.49 0 0 0 2.066-2.211c.582-.866 1.019-1.82 1.295-2.825C41.723 89.428 52.098 81.53 63.928 81.53s22.205 7.898 25.354 19.301a9.64 9.64 0 0 0 1.295 2.825c.566.843 1.264 1.589 2.066 2.211 1.632 1.268 3.641 1.956 5.708 1.955zm-78.386 10.124c0 5.513-4.469 9.982-9.982 9.982S0 123.46 0 117.947s4.469-9.982 9.982-9.982 9.982 4.469 9.982 9.982zm98.053-97.911c5.513 0 9.982-4.469 9.982-9.982S123.531.071 118.018.071s-9.982 4.469-9.982 9.982 4.469 9.982 9.982 9.982zM128 117.947c0 5.513-4.469 9.982-9.982 9.982s-9.982-4.469-9.982-9.982 4.469-9.982 9.982-9.982 9.982 4.469 9.982 9.982zM54.848 60.215c1.545-3.73 5.185-6.162 9.222-6.162 5.51.006 9.976 4.472 9.982 9.982 0 4.037-2.432 7.677-6.162 9.222s-8.024.691-10.878-2.164a9.98 9.98 0 0 1-2.164-10.879z" fill="url(#A)"/><defs><linearGradient id="A" x1="64" y1=".071" x2="64" y2="127.928" gradientUnits="userSpaceOnUse"><stop stop-color="#ff36d3"/><stop offset="1" stop-color="#c2129c"/></linearGradient></defs></svg>