<svg xmlns="http://www.w3.org/2000/svg" width="128" height="128" xmlns:v="https://vecta.io/nano"><path fill="#b7b5b1" d="M128 57.889c-14.707-85.21-125.968-68.721-127.954 0l10.455 5.357S7.098 65.284 0 69.819c12.822 83.537 122.166 71.405 127.979-.096l-10.742-6.511L128 57.889zM73.257 87.641L62.82 69.699 52.197 87.641l-8.013-.549 15.094-25.447-13.604-21.969 8.2-.733 9.69 16.294 9.692-15.561 7.641.183-12.672 21.603L82.2 87.458z"/><path fill="#244b81" d="M122.809 54.593c-19.938-75.717-111.315-55.232-117.575 0l15.556 8.811-15.599 9.928c13.602 72.791 112.195 58.802 117.598-.089l-15.82-9.871 15.84-8.779zM73.255 87.738L62.82 69.8 52.199 87.738l-8.012-.549 15.092-25.443-13.601-21.964 8.198-.733 9.689 16.291 9.69-15.558 7.639.183-12.672 21.598 13.975 25.991z"/></svg>