<svg xmlns="http://www.w3.org/2000/svg" width="128" height="128" viewBox="0 0 33.867 33.867" xmlns:v="https://vecta.io/nano"><path d="M5.043 33.704c0-.01.417-.642.927-1.406l.927-1.388-.859-1.384-.859-1.398c0-.007.179-.013.398-.013h.398l.573.984.679 1.189.105.205.076-.149a68.56 68.56 0 0 1 1.333-2.189c.029-.031.141-.041.403-.034l.362.01-.721 1.132-.88 1.388-.16.257.879 1.389.879 1.408c0 .01-.178.014-.396.009l-.396-.01-.583-.963-.707-1.197-.124-.234-.088.17a42.03 42.03 0 0 1-.73 1.205l-.642 1.034H5.44c-.218 0-.397-.008-.397-.017zm5.818-1.984l.009-2.002.312-.01.312-.01v2.011 2.011h-.321-.321zm2.525-.008v-2.01h.321.321l.001.329.001.329.073-.101c.146-.203.379-.399.597-.502.213-.101.242-.106.645-.106.385 0 .439.008.611.088.346.162.558.444.673.891.062.244.068.375.068 1.678v1.413h-.321-.321v-1.299l-.038-1.478c-.081-.384-.3-.664-.578-.739a1.31 1.31 0 0 0-.81.079c-.2.117-.386.328-.495.561l-.089.19-.01 1.343-.01 1.343h-.319-.319zm5.168-.794v-2.804h1.419 1.419v.287.287l-1.089.009-1.089.009-.009.971-.009.971h1.014 1.014v.304.304H20.21h-1.013v1.233 1.233h-.321-.321zm4.392.794v-2.01h.321.321v2.01 2.01h-.321-.321zm2.508.008l.009-2.002.312-.01.312-.01v.322c0 .177.011.321.025.32s.087-.081.162-.177c.171-.218.428-.4.674-.477.145-.046.273-.057.55-.047.311.011.388.025.552.106a1.26 1.26 0 0 1 .559.585c.155.339.177.594.179 2.048l.001 1.343h-.319-.319l-.011-1.377-.085-1.574c-.159-.423-.405-.595-.854-.595-.195 0-.292.018-.422.079-.344.161-.59.511-.657.934-.019.121-.035.74-.035 1.377v1.157h-.321-.321zm-14.493-3.085c-.241-.169-.226-.577.025-.707.172-.089.357-.067.493.059.293.27.112.701-.295.701a.47.47 0 0 1-.223-.053zm12.032-.062c-.101-.101-.115-.136-.115-.291s.014-.189.115-.291.136-.115.291-.115.189.014.291.115.115.136.115.291-.014.189-.115.291-.136.115-.291.115-.189-.014-.291-.115z" fill="#002744"/><path d="M8.597 25.776l-.381-.041c-.026-.026.436-.429.738-.645.535-.383 1.122-.646 1.702-.764a4.13 4.13 0 0 1 1.82.062c.226.062.235.076.151.24-.435.852-1.953 1.285-4.029 1.148zm15.233 0c-1.321-.097-2.267-.516-2.589-1.148-.084-.164-.075-.178.151-.24a4.13 4.13 0 0 1 1.82-.062c.767.156 1.52.555 2.215 1.175l.25.223-.115.024c-.197.041-1.311.058-1.732.028zm-6.175-.61l-.596-.439-.578.424-.59.424c-.007 0 .086-.314.206-.697l.187-.718-.583-.41-.551-.388.712-.009.712-.009.243-.728.243-.728.24.729.24.729h.725.725l-.488.343-.594.421-.107.079.186.584.229.71.039.125c-.002-.001-.273-.199-.601-.44zM7.608 24.001a6.91 6.91 0 0 1-1.547-.431l-.198-.081.245-.091c.791-.293 1.47-.426 2.177-.426.733 0 1.301.136 1.776.424l.205.124-.102.062c-.662.402-1.608.557-2.557.419zm17.281.002c-.446-.076-.87-.225-1.176-.413l-.112-.069.205-.124c.475-.288 1.043-.424 1.776-.424.708 0 1.386.133 2.177.426l.245.091-.198.081c-1.001.41-2.099.573-2.917.433zm-11.895-.626c-.481-.655-.807-1.376-.964-2.128a5.95 5.95 0 0 1-.017-1.579l.045-.245.107.075c.191.134.533.478.681.686.627.881.749 2.007.362 3.344l-.029.101zm7.595-.121c-.302-1.223-.159-2.239.433-3.071.147-.207.49-.552.681-.686l.107-.075.045.245c.066.359.057 1.223-.017 1.579-.161.775-.598 1.705-1.062 2.26l-.096.115zm-9.906-.754c-.448-.483-.826-1.262-.998-2.057-.078-.362-.127-1.548-.075-1.828l.028-.149.21.194c.237.219.627.721.776 1a3.57 3.57 0 0 1 .35 2.427l-.115.454-.042.104zm12.299-.043c-.286-.964-.194-1.949.262-2.798.15-.279.539-.781.776-1l.21-.194.028.149c.052.28.003 1.466-.075 1.828-.167.772-.532 1.536-.968 2.027-.162.183-.175.182-.233-.013zm-16.503-.253c-1.358-.059-2.335-.424-2.838-1.059l-.102-.129.179-.052a5.53 5.53 0 0 1 2.146-.11 3.64 3.64 0 0 1 1.996 1.045l.214.217-.147.022c-.161.024-1.14.09-1.194.081a4.95 4.95 0 0 0-.253-.015zm20.064-.012l-.57-.05-.179-.025.215-.218a3.64 3.64 0 0 1 1.996-1.046 5.53 5.53 0 0 1 2.146.11l.179.052-.102.129c-.605.764-1.984 1.156-3.685 1.047zM8.261 20.984c-.75-.795-.946-1.939-.56-3.263l.069-.235.099.117c.732.861 1.028 1.83.857 2.808-.051.295-.174.735-.218.781-.014.015-.125-.079-.247-.208zm17.068.148a4.32 4.32 0 0 1-.224-1.03c-.059-.891.242-1.73.895-2.498l.099-.117.069.235c.138.473.187.799.187 1.249.001.836-.242 1.484-.757 2.023l-.229.24zM4.519 19.731c-1.372-.232-2.321-.829-2.783-1.748l-.088-.196c0-.031.453.015.846.087.767.14 1.425.458 1.979.956.189.17.49.552.636.807l.092.16-.164-.003a4.92 4.92 0 0 1-.518-.063zm24.239-.094c.528-.922 1.464-1.553 2.615-1.763.393-.072.846-.119.846-.087 0 .011-.04.099-.088.196-.386.769-1.112 1.31-2.166 1.615a7.47 7.47 0 0 1-1.169.2h-.13zM5.809 19.25c-.142-.342-.239-.725-.285-1.134-.064-.559.039-1.149.272-1.562.093-.164.439-.608.475-.608s.207.427.283.704a4.12 4.12 0 0 1-.002 1.609c-.086.311-.32.797-.51 1.058l-.13.18-.103-.247zm21.952-.032c-.596-.903-.707-1.958-.313-2.96.068-.172.133-.312.146-.312.036 0 .382.442.476.608.285.506.365 1.237.214 1.956-.059.282-.194.699-.281.868l-.059.116zm-11.74-.186c-1.401-.145-2.618-.48-3.783-1.04-3.511-1.687-5.636-5.002-5.511-8.6.032-.931.211-1.869.515-2.699.192-.524.626-1.371.953-1.862.41-.614.683-.947 1.205-1.471C12.452.3 17.293-.584 21.425 1.164c2.355.996 4.296 2.883 5.232 5.087.442 1.041.65 1.991.687 3.144.06 1.852-.419 3.535-1.457 5.115-1.295 1.973-3.42 3.487-5.829 4.153-1.032.286-1.621.362-2.871.373-.567.005-1.091.003-1.165-.005zm.693-1.245v-.659h-.794c-.437 0-.794.009-.794.019s.068.108.151.216c.374.486.733.803 1.116.985.34.162.321.195.321-.562zm1.042.522c.319-.16.713-.511 1-.894.103-.137.187-.257.187-.268s-.357-.019-.794-.019h-.794v.659c0 .772-.027.736.4.522zm-2.799-.376a5.81 5.81 0 0 1-.38-.522l-.177-.28-.549-.002c-.622-.002-.661.018-.405.204.408.297 1.468.835 1.655.84.043.001.002-.067-.144-.241zm4.307.141c.14-.056.38-.164.533-.24.303-.151 1.071-.639 1.072-.68 0-.014-.264-.025-.587-.025h-.588l-.22.329c-.121.181-.299.417-.395.524-.202.225-.178.237.185.093zm-6.637-.613c-.378-.329-.386-.334-.576-.334-.11 0-.168.012-.149.031a7.41 7.41 0 0 0 .809.406c.019 0-.019-.046-.084-.103zm9.212-.119l.365-.198-.179-.01c-.173-.01-.187-.004-.388.167l-.26.226c-.097.093.082.022.463-.184zm-10.191-.806a3.16 3.16 0 0 0-.222-.279c-.337-.398-.839-1.172-1.116-1.725-.137-.273-.272-.52-.3-.549s-.051-.071-.051-.093c0-.029-.192-.039-.709-.039-.561 0-.709.009-.709.044 0 .056.395.639.657.969a11.33 11.33 0 0 0 1.387 1.388l.372.3h.346c.19 0 .346-.007.346-.016zm2.432.005c0-.045-.244-.528-.267-.528-.072 0-.205.15-.286.321-.049.103-.089.195-.089.204s.144.016.321.016a2.07 2.07 0 0 0 .321-.012zm2.635-1.339v-1.351h-1.001-1.001l.022.16c.049.361.06.672.027.755-.024.061-.116.13-.305.229l-.271.141.062.177c.092.263.259.674.396.975l.122.266h.975.975zm2.761.988c.287-.613.673-1.758.737-2.183l.023-.156h-1.44-1.44v1.351 1.351h.975.975zm2.342.101c.294-.315.64-.757.898-1.149l.19-.288-.094-.257a8.21 8.21 0 0 1-.162-.502l-.068-.245h-.838-.838l-.033.127c-.247.957-.478 1.67-.717 2.212-.072.164-.132.314-.132.331s.305.032.774.032h.774zm1.663-.026c.692-.554 1.401-1.33 1.871-2.047.117-.179.213-.335.213-.346s-.331-.02-.735-.019l-.735.002-.294.601c-.3.612-.721 1.284-1.067 1.702l-.255.315-.062.082h.351.351l.36-.288zm-11.37-.344c-.194-.275-.371-.538-.395-.584a1.4 1.4 0 0 0-.188-.236c-.116-.121-.163-.209-.231-.434-.102-.336-.318-.647-.448-.647-.044 0-.08.016-.08.035 0 .119.553 1.058.891 1.512.316.424.774.941.79.892.007-.021-.146-.262-.34-.537zM9.755 13.26c0-.01-.07-.165-.156-.346-.147-.311-.157-.35-.182-.723-.015-.217-.034-.407-.044-.422-.033-.053-.132-.807-.171-1.294l-.039-.49-.904-.009-.904-.009v.178c.001.262.119 1.053.218 1.456.109.443.236.82.439 1.3l.159.377h.791c.435 0 .791-.008.791-.017zm6.959-1.638V9.967h-1.672c-1.315 0-1.672.009-1.672.042.003.51.14 2.182.186 2.255.009.015.132.09.273.166.252.136.261.138.602.138.299 0 .541.025.815.084.048.01.081.06.11.168.058.216.052.289-.032.379l-.073.078h.732.732zm3.739 1.199c.098-.58.203-1.624.233-2.306l.024-.549h-1.677-1.677v1.656 1.656l1.512-.009 1.512-.009zm2.105.262a1.41 1.41 0 0 0-.033-.309c-.018-.063-.035-.255-.038-.428-.004-.273.007-.338.085-.51.05-.108.136-.245.192-.303.097-.1.1-.113.065-.243a.74.74 0 0 0-.115-.232c-.155-.188-.461-.684-.461-.745 0-.035-.022-.092-.05-.128s-.05-.1-.051-.142c-.001-.075-.009-.076-.405-.076h-.404l-.017.11c-.009.06-.024.353-.034.65a17.88 17.88 0 0 1-.203 2.069l-.075.481h.771.771zm3.462-.084a7.95 7.95 0 0 0 .681-2.686l.022-.346h-.538-.538l-.157.296c-.087.163-.167.35-.18.418s-.026.401-.029.743l-.007.621-.109.232a1.22 1.22 0 0 1-.297.405 3.88 3.88 0 0 0-.355.384l-.166.212h.773.773zm-13.215-1.664c-.004-.037-.017-.36-.031-.718l-.024-.65h-1.464l-1.464.016c0 .009.075.048.166.087.14.06.182.101.269.263s.136.209.299.296c.146.078.217.098.28.079.138-.041.551-.034.64.011.049.025.141.152.226.312l.143.27.314.056c.173.031.39.054.483.051.147-.005.168-.014.162-.073zm-2.867-.706c-.048-.228-.127-.207-.095.025.018.131.03.151.069.118.032-.027.04-.073.026-.144zM8.573 9.38a1.37 1.37 0 0 0-.133-.158c-.152-.167-.351-.494-.468-.771-.075-.178-.079-.22-.062-.647.013-.322.037-.512.083-.644.056-.164.059-.202.02-.295-.061-.144-.106-.135-.18.036a8.59 8.59 0 0 0-.477 2.329v.162h.608c.334 0 .608-.006.608-.013zm4.189-.289c0-.648.137-2.109.256-2.739a4.99 4.99 0 0 0 .048-.279c0-.014-.54-.025-1.199-.025-.809 0-1.199.011-1.199.035s-.074.081-.165.138c-.164.102-.166.105-.27.463-.162.555-.266 1.054-.338 1.627-.054.424-.087.907-.073 1.056.001.014.664.025 1.472.025h1.469zm3.952-1.371V6.048h-1.501c-1.4 0-1.502.004-1.518.059-.036.123-.156.957-.206 1.427a35.29 35.29 0 0 0-.119 1.816c0 .033.356.042 1.672.042h1.672zM20.7 9.363c0-.05-.41-.078-.99-.067l-.549.01-.202-.124c-.127-.078-.315-.251-.506-.464-.197-.22-.361-.37-.464-.424-.119-.062-.16-.103-.16-.159.001-.078.006-.1.148-.633.1-.372.107-.511.037-.709-.074-.211-.063-.399.035-.557.046-.074.083-.147.083-.16s-.175-.025-.388-.025h-.388v1.672 1.672h1.672c.945 0 1.672-.013 1.672-.03zm1.013-.004c0-.019-.084-.034-.186-.034s-.186.015-.186.034.084.034.186.034.186-.015.186-.034zm4.999-.144c-.001-.449-.135-1.242-.31-1.832-.117-.394-.293-.862-.324-.862-.012 0-.083.06-.158.134-.127.124-.145.132-.26.106-.068-.015-.183-.076-.255-.134-.19-.152-.31-.179-.47-.105-.265.122-.267.127-.148.361.081.159.169.26.382.437.565.471.743.64.788.746.064.151.061.817-.005 1.068a2.12 2.12 0 0 0-.051.227c0 .019.172.032.405.032h.405v-.177zM9.192 8.632c-.011-.14.008-.312.062-.557.094-.425.109-1.064.026-1.117-.117-.074-.586-.015-.884.111-.137.058-.163.085-.182.186-.066.35.07.796.357 1.177.075.099.189.291.253.426s.167.307.228.381l.111.134.022-.269a3.59 3.59 0 0 0 .006-.472zm16.71-2.415v-.169h-.239c-.232 0-.238.002-.216.076.013.042.033.086.045.099.021.023.335.152.385.159.014.002.025-.073.025-.165zM13.297 5.026c.061-.246.175-.642.254-.88.133-.401.138-.431.074-.412-.258.076-.469.096-.612.058-.308-.082-.457-.036-.622.197-.065.091-.066.106-.02.196.057.111.324.242.491.242.057 0 .104.013.104.03 0 .144-.275.646-.355.646-.024 0-.054-.042-.067-.093a.43.43 0 0 0-.079-.155c-.057-.063-.252-.158-.327-.158-.023 0-.146.093-.275.207s-.336.282-.461.374-.228.173-.228.181.453.014 1.006.014h1.006zm3.417-.887V2.805h-.975-.975l-.153.329c-.227.49-.476 1.178-.631 1.745-.076.277-.138.524-.138.549 0 .037.262.045 1.436.045h1.436zm1.849 1.185c.062-.127.099-.159.252-.215a3.82 3.82 0 0 1 .517-.126c.204-.036.415-.098.532-.157.107-.053.194-.101.194-.105a5.07 5.07 0 0 0-.177-.517c-.011-.011-.043.023-.07.076-.122.234-.34.349-.661.349h-.236l.037-.11a.9.9 0 0 1 .083-.176c.025-.037.045-.129.045-.205 0-.179-.125-.303-.426-.423l-.221-.088.119-.091c.072-.055.161-.091.228-.091.113 0 .503-.223.503-.287 0-.039-.186-.165-.292-.199-.039-.012-.133-.009-.208.008-.131.029-.138.026-.177-.067l-.04-.097h-.604-.604v1.334 1.334h.568.568zm3.918.007c.08-.078.145-.159.145-.179s.044-.079.097-.13l.097-.093.125.085c.137.093.25.138.278.11.02-.02-.1-.241-.39-.723-.165-.274-.2-.312-.282-.312-.092 0-.094.004-.094.2 0 .28-.015.307-.145.27-.122-.035-.463-.357-.463-.437 0-.029-.039-.132-.087-.228l-.087-.175-.166.084c-.13.066-.166.102-.166.166 0 .052-.024.089-.067.103-.125.04-.385-.021-.533-.124-.129-.09-.308-.123-.288-.053.205.697.254.808.301.684.011-.028.059-.051.108-.051.114 0 .537.29.599.41.035.068.095.105.235.146.186.054.218.076.396.282.125.144.213.136.387-.035zM9.697 3.978c.134-.149.212-.254.173-.233-.069.037-.445.445-.504.547-.053.092.07-.025.331-.314zm4.342-1.079c.038-.089.036-.093-.061-.093-.055 0-.101.005-.101.012a1.19 1.19 0 0 0 .038.121c.04.116.061.109.124-.04zm.504-.912c.195-.295.195-.296.143-.296-.023 0-.089-.036-.146-.079-.159-.121-.19-.122-.409-.014-.233.115-.929.571-.929.608 0 .014.265.025.59.025h.59zm2.172-.203c0-.409-.006-.452-.066-.489s-.075-.026-.158.119c-.188.331-.351.458-.701.547a2.3 2.3 0 0 0-.359.119c-.084.043-.116.046-.155.014s-.059-.028-.098.023c-.027.035-.049.076-.05.089s.356.025.793.025h.794zm2.23.429c0-.085-.481-.65-.741-.872-.182-.155-.186-.156-.429-.156-.135 0-.284.018-.331.039l-.086.039v.484.484h.794c.437 0 .794-.009.794-.019zm1.384-.006c-.001-.014-.104-.104-.231-.2-.2-.153-.256-.178-.438-.199-.115-.013-.208-.012-.208.002s.054.115.121.224l.121.199h.318c.175 0 .318-.011.317-.025zM2.931 17.073c-1.31-.395-2.28-1.081-2.669-1.886-.072-.149-.141-.307-.153-.351-.022-.079-.019-.08.142-.057.261.037.73.179 1.008.305a4.44 4.44 0 0 1 1.585 1.283c.182.243.511.789.489.811-.007.007-.187-.041-.401-.105zm27.599.099c0-.011.071-.143.157-.293.459-.798 1.149-1.443 1.921-1.795.278-.127.747-.269 1.008-.305.161-.023.164-.021.142.057a3.13 3.13 0 0 1-.487.861c-.515.611-1.4 1.116-2.496 1.425-.135.038-.245.06-.245.05zM4 16.852c-.055-.58-.06-.788-.024-1.187.072-.795.306-1.456.673-1.897.162-.195.498-.481.528-.45.042.042.088.725.069 1.008-.07 1.013-.402 1.817-1.053 2.546l-.173.194zm25.652-.003c-.608-.677-.964-1.547-1.032-2.524-.02-.282.027-.966.069-1.008.008-.008.093.044.188.116.739.561 1.128 1.769 1.014 3.142l-.046.473c-.004.004-.091-.086-.193-.199zm-26.676-2.82c.076-1.318.63-2.337 1.561-2.871l.185-.106v.192c0 .253-.084.804-.171 1.121a4.15 4.15 0 0 1-.518 1.093c-.082.114-.254.309-.381.433-.227.221-.598.501-.664.501-.021 0-.026-.133-.012-.363zm27.67.225c-.263-.182-.625-.537-.811-.796a4.15 4.15 0 0 1-.518-1.093c-.087-.318-.171-.869-.171-1.122v-.193l.177.104c.87.512 1.4 1.387 1.542 2.546.044.361.049.693.009.693-.016 0-.118-.062-.228-.138zM1.864 14.15c-.722-.542-1.285-1.335-1.513-2.126-.077-.269-.172-.903-.14-.935s.46.302.739.565a5.32 5.32 0 0 1 .687.864c.162.276.34.725.395.997.047.23.1.811.075.811-.006 0-.115-.079-.243-.175zm29.903-.103c.063-1.03.577-1.959 1.483-2.683.233-.186.39-.293.406-.276.032.032-.063.666-.14.935-.218.759-.735 1.511-1.4 2.034-.397.313-.37.314-.35-.011zM2.492 11.151c0-.125.173-.653.291-.89.337-.675.971-1.218 1.637-1.401l.121-.033-.029.19c-.102.668-.438 1.276-.923 1.669-.219.177-.637.393-.92.475-.168.049-.177.048-.177-.011zm28.612-.023c-.962-.325-1.594-1.087-1.75-2.111l-.029-.19.121.033a2.94 2.94 0 0 1 .33.128c.744.336 1.273.973 1.517 1.822.121.42.119.422-.189.318zM1.29 10.953C.443 10.314.013 9.502.071 8.654c.011-.156.027-.291.037-.301.032-.032.302.168.511.378.333.334.613.794.777 1.277.094.276.192.841.177 1.02l-.011.131zm30.997.053a4.34 4.34 0 0 1 .175-.971 3.44 3.44 0 0 1 .786-1.303c.209-.21.479-.41.511-.378a1.56 1.56 0 0 1 .037.301c.035.505-.122 1.054-.427 1.498-.214.31-.65.728-.989.945l-.093.06zM2.526 8.764c0-.053.28-.607.392-.776.294-.443.726-.814 1.157-.995a3.43 3.43 0 0 1 .92-.2h.095l-.085.192c-.417.943-1.247 1.566-2.369 1.779-.06.011-.11.012-.11.001zm28.545-.033c-1.015-.22-1.812-.851-2.209-1.747l-.085-.192h.095a3.43 3.43 0 0 1 .92.2c.431.181.863.553 1.157.995.114.171.392.723.392.777 0 .025.002.025-.27-.034zM1.571 8.219c-.473-.897-.637-1.78-.464-2.501a2.38 2.38 0 0 1 .122-.387l.055-.107.081.1a4.8 4.8 0 0 1 .445.782c.134.32.211.725.211 1.116 0 .401-.031.604-.139.925-.139.413-.132.411-.311.072zm30.496.154c-.168-.41-.222-.687-.223-1.143-.001-.398.062-.732.207-1.097.101-.255.32-.649.45-.809l.081-.1.055.107c.102.196.19.652.19.983 0 .637-.251 1.465-.638 2.101l-.063.103zM3.573 6.034a3.54 3.54 0 0 1 1.9-1.016 4.73 4.73 0 0 1 .746-.051h.476l-.185.189c-.624.638-1.652 1.044-2.825 1.115l-.366.022zm26.282.214c-1.005-.112-1.94-.521-2.499-1.092l-.185-.189h.477a4.73 4.73 0 0 1 .746.051c.732.139 1.372.48 1.899 1.012l.253.255-.219-.004c-.12-.002-.333-.017-.472-.033zM2.664 5.64c-.304-1.11-.169-2.045.369-2.543.113-.105.218-.19.234-.19.045 0 .13.243.174.494.082.469-.011 1.133-.238 1.702-.083.208-.413.811-.444.811-.011 0-.054-.123-.095-.273zm28.248-.039a3.84 3.84 0 0 1-.405-.971c-.101-.356-.138-.907-.082-1.229.044-.251.129-.494.174-.494.016 0 .121.086.234.19.436.403.608 1.061.495 1.893-.05.373-.182.924-.221.924-.011 0-.099-.141-.195-.312zM4.706 4.121a3.77 3.77 0 0 1 1.418-.895c.447-.151 1.262-.151 1.621-.001l.101.042-.285.211a4.68 4.68 0 0 1-.625.375 4.06 4.06 0 0 1-1.939.439h-.459zm23.375.117c-.602-.107-1.293-.402-1.776-.76l-.285-.211.101-.042c.359-.15 1.174-.149 1.621.001a3.77 3.77 0 0 1 1.418.895l.168.171-.489-.003c-.269-.002-.61-.025-.759-.051zM4.125 3.093c.043-1.106.399-1.963.982-2.364.265-.183.278-.161.226.374-.097.995-.407 1.701-1.001 2.277l-.226.22zm25.353.228c-.305-.315-.433-.499-.605-.865s-.289-.833-.34-1.353c-.052-.535-.039-.557.226-.374.58.4.937 1.255.983 2.356.011.274.014.498.005.498a3.21 3.21 0 0 1-.269-.262zM5.961 2.158c.01-.044.091-.232.181-.418C6.597.789 7.338.265 8.366.168a2.69 2.69 0 0 1 .363-.021c.007.007-.072.134-.174.283-.344.503-.987 1.066-1.604 1.404a6.14 6.14 0 0 1-.918.382c-.082.02-.089.014-.073-.057zm21.623-.028c-.683-.254-1.23-.597-1.736-1.089-.298-.29-.747-.857-.709-.895.007-.007.17.003.363.021 1.028.098 1.769.621 2.225 1.572.18.375.217.492.158.489a2.57 2.57 0 0 1-.301-.099z" fill="#c78a2e" fill-opacity=".988"/></svg>