<svg xmlns="http://www.w3.org/2000/svg" width="128" height="128" xmlns:v="https://vecta.io/nano"><path d="M.853 13.459c-.79 0-1.029.978-.725 1.434l36.098 49.108L.128 113.107c-.304.456-.065 1.434.725 1.434h53.296a.9.9 0 0 0 .725-.367L64 101.765l9.126 12.408a.9.9 0 0 0 .725.367h53.296c.79 0 1.029-.978.725-1.434L91.774 63.999l36.097-49.106c.304-.456.065-1.434-.725-1.434H73.851a.9.9 0 0 0-.725.367L64 26.235l-9.126-12.408a.9.9 0 0 0-.725-.367zm1.779 1.801h51.061l9.189 12.495L37.343 62.48zm71.675 0h51.061L90.657 62.48 65.117 27.755zM64 29.275L88.876 63.1H39.123zM39.124 64.9h49.753L64 98.725zm-1.78.62l25.539 34.725-9.189 12.495H2.632zm53.314 0l34.711 47.22H74.307l-9.189-12.495z" paint-order="markers fill stroke"/></svg>