<svg xmlns="http://www.w3.org/2000/svg" width="128" height="128" viewBox="0 0 33.867 33.867" fill="#fff" xmlns:v="https://vecta.io/nano"><path d="M7.79 5.754h.616V4.17H7.79a4.97 4.97 0 0 0-4.973 4.973v3.609c.001.764-.29 1.5-.813 2.056S.763 15.7 0 15.745l.044.792-.044.792a2.99 2.99 0 0 1 2.003.936 2.99 2.99 0 0 1 .813 2.056v4.159a5.21 5.21 0 0 0 5.193 5.216v-1.584A3.61 3.61 0 0 1 4.4 24.503v-4.181a4.57 4.57 0 0 0-2.003-3.785A4.6 4.6 0 0 0 4.4 12.752V9.143c.004-.898.362-1.757.997-2.392s1.494-.993 2.392-.997zm18.309 0h-.616V4.17h.616a4.96 4.96 0 0 1 3.505 1.462c.928.933 1.449 2.196 1.446 3.511v3.609c-.001.764.29 1.5.813 2.056a2.99 2.99 0 0 0 2.003.936l-.044.792.044.792a2.99 2.99 0 0 0-2.816 2.992v4.159a5.21 5.21 0 0 1-5.193 5.216v-1.584a3.61 3.61 0 0 0 3.609-3.609v-4.181a4.57 4.57 0 0 1 2.003-3.785 4.6 4.6 0 0 1-2.003-3.785V9.143a3.37 3.37 0 0 0-3.367-3.389zm-3.389 4.798h2.355l-4.907 4.599a4.79 4.79 0 0 1-6.426 0l-4.907-4.599h2.355l3.719 3.477a3.01 3.01 0 0 0 4.071 0zM11.157 23.315H8.802l4.929-4.621a4.74 4.74 0 0 1 6.426 0l4.929 4.621h-2.355l-3.741-3.521a3.01 3.01 0 0 0-4.071 0z" opacity=".9"/></svg>