<svg xmlns="http://www.w3.org/2000/svg" xmlns:xlink="http://www.w3.org/1999/xlink" width="128" height="128" fill="none" xmlns:v="https://vecta.io/nano"><defs><linearGradient id="A" x1="73.08" y1="130.21" x2="12.14" y2="27.54" xlink:href="#B"/><linearGradient id="B" gradientUnits="userSpaceOnUse"><stop offset="0" stop-color="#05707e"/><stop offset=".52" stop-color="#2b9297"/><stop offset="1" stop-color="#4dbbba"/></linearGradient><linearGradient id="C" x1="3.65" y1="5.96" x2="90.51" y2="37.1" xlink:href="#B"/><linearGradient id="D" x1="73.03" y1="48.25" x2="92.32" y2="48.25" xlink:href="#B"/><linearGradient id="E" x1="82.44" y1="58.97" x2="82.89" y2="129.29" xlink:href="#B"/></defs><g transform="matrix(.988646 0 0 .988646 18.3641 0)"><path d="M.04 94.86L0 76l50.79-24.97L.04 26.97V7.81l72.99 34.61V61.9l-50.1 24.65 50.1 23.76v19.16z" fill="url(#A)"/><path d="M92.32 34.6l-19.29 7.82L.04 7.81 19.33 0z" fill="url(#C)"/><path d="M92.32 34.6l-19.29 7.82V61.9l19.29-7.82z" fill="url(#D)"/><path d="M73.03 129.47v-19.16-38.3l19.29-8.87v58.51z" fill="url(#E)"/></g></svg>