<svg xmlns="http://www.w3.org/2000/svg" width="128" height="128" fill="#8247e5" xmlns:v="https://vecta.io/nano"><path d="M112.645 25.214L73.266 2.467a18.63 18.63 0 0 0-18.532 0l-39.38 22.748a18.53 18.53 0 0 0-9.266 16.053v45.588c.024 3.23.891 6.398 2.516 9.189a18.53 18.53 0 0 0 6.75 6.724l39.38 22.748C57.551 127.144 60.747 128 64 128s6.449-.856 9.266-2.482l39.379-22.748a18.53 18.53 0 0 0 6.785-6.785c1.626-2.818 2.482-6.015 2.482-9.269V41.129c-.024-3.23-.891-6.398-2.516-9.189a18.53 18.53 0 0 0-6.75-6.725zM15.354 41.268c-.002-1.629.425-3.229 1.238-4.641a9.25 9.25 0 0 1 3.395-3.397l39.38-22.724A9.21 9.21 0 0 1 64 9.255c1.628 0 3.227.431 4.633 1.25l39.38 22.724a9.26 9.26 0 0 1 4.633 7.899v4.633c-.012 3.607-1.452 7.062-4.004 9.61a13.64 13.64 0 0 1-9.617 3.988h-70.05a22.63 22.63 0 0 0-13.621 4.517zm97.291 45.449c.003 1.629-.424 3.229-1.238 4.641a9.27 9.27 0 0 1-3.395 3.398l-39.38 22.724c-1.408.814-3.006 1.242-4.633 1.242a9.26 9.26 0 0 1-4.633-1.242l-39.38-22.724a9.27 9.27 0 0 1-3.36-3.338c-.812-1.384-1.251-2.956-1.272-4.562v-4.633c.012-3.607 1.452-7.062 4.004-9.61s6.01-3.982 9.616-3.988h70.05a22.63 22.63 0 0 0 13.62-4.517zM42.457 38.951h8.988V52.41h9.266V38.951c0-2.457-.976-4.814-2.714-6.552s-4.094-2.714-6.552-2.714h-8.988c-2.457 0-4.814.976-6.552 2.714s-2.714 4.094-2.714 6.552V52.41h9.266zm8.988 50.082h-8.988V75.574h-9.266v13.459c0 2.457.976 4.814 2.714 6.552s4.095 2.714 6.552 2.714h8.988c2.457 0 4.815-.976 6.552-2.714a9.27 9.27 0 0 0 2.714-6.552V75.574h-9.266zm27.518-50.082h9.012V52.41h9.266V38.951c0-2.457-.976-4.814-2.714-6.552s-4.094-2.714-6.552-2.714h-9.012c-2.457 0-4.814.976-6.552 2.714s-2.714 4.094-2.714 6.552V52.41h9.266zm9.012 50.082h-9.012V75.574h-9.266v13.459c0 2.457.976 4.814 2.714 6.552s4.094 2.714 6.552 2.714h9.012c2.457 0 4.814-.976 6.552-2.714s2.714-4.094 2.714-6.552V75.574h-9.266z"/></svg>