<svg xmlns="http://www.w3.org/2000/svg" width="128" height="128" xmlns:v="https://vecta.io/nano"><g transform="matrix(1.430206 0 0 1.430206 -6.795192 -6.795192)"><g stroke="#fe8f2d" fill="none" stroke-width="2.098"><circle cx="49.5" cy="49.5" r="43.7"/><circle cx="49.5" cy="49.5" r="30.5"/></g><g fill="#fe8f2d"><circle cx="49.5" cy="49.5" r="20"/><circle cx="73.4" cy="14" r="6.8"/><circle cx="69.4" cy="71.8" r="4"/></g></g><path d="M75.728 55.562l-5.292 5.006c-.715-1.43-1.859-2.86-3.432-3.576l2.717-2.574c-4.005-2.717-9.296-2.431-12.872.715l-.143.143s-.143 0-.143.143c-1.001.858-2.574.715-3.432-.286-.286-.429-.572-1.001-.572-1.43 0-.715.286-1.43.858-1.859h0c2.86-2.574 6.579-4.005 10.297-4.005 4.577 0 8.867 1.859 11.871 5.435.286.286.429.715.429 1.144.143.572 0 .858-.286 1.144zM54.847 69.006h0l2.717-2.574c.715 1.43 1.859 2.86 3.432 3.576l-2.717 2.574c4.148 2.574 9.582 1.716 13.015-1.573.858-1.001 2.431-1.287 3.576-.429.572.429.858 1.144.858 1.859s-.286 1.43-.858 1.859h0c-6.007 6.15-16.018 6.15-22.025.143-.143-.143-.429-.429-.572-.715-.286-.286-.429-.715-.429-1.001 0-.572.286-1.144.858-1.573zm-2.717 4.577h0zm0 0zM64 58.422c2.86 0 5.149 2.431 5.149 5.149S66.717 68.72 64 68.72s-5.149-2.431-5.149-5.149 2.145-5.149 5.149-5.149z"/><circle cx="64" cy="64" r="5.006"/></svg>