<svg xmlns="http://www.w3.org/2000/svg" xmlns:xlink="http://www.w3.org/1999/xlink" width="128" height="128" viewBox="0 0 33.867 33.867" xmlns:v="https://vecta.io/nano"><defs><linearGradient id="A" x1="81" y1="110.201" x2="118.575" y2="110.201" xlink:href="#I"><stop offset="0" stop-color="#015bd5"/><stop offset="1" stop-color="#2dfbee"/></linearGradient><linearGradient id="B" x1="81" y1="92.85" x2="118.076" y2="92.85" xlink:href="#I"><stop offset="0" stop-color="#015bd5"/><stop offset="1" stop-color="#2dfbee"/></linearGradient><linearGradient id="C" x1="81" y1="78.973" x2="118.574" y2="78.973" xlink:href="#I"><stop offset="0" stop-color="#015bd5"/><stop offset="1" stop-color="#2dfbee"/></linearGradient><linearGradient id="D" x1="86.272" y1="95.807" x2="88.824" y2="109.116" xlink:href="#I"><stop offset="0" stop-color="#16a6e0"/><stop offset=".946" stop-color="#0978da"/></linearGradient><linearGradient id="E" x1="90.548" y1="90.582" x2="88.824" y2="81.241" xlink:href="#I"><stop offset=".104" stop-color="#1cbce4"/><stop offset="1" stop-color="#24dae9"/></linearGradient><linearGradient id="F" x1="250.518" y1="473.042" x2="505.348" y2="473.042" xlink:href="#I"><stop offset="0" stop-color="#0159d4"/><stop offset="1" stop-color="#2dfaee"/></linearGradient><linearGradient id="G" x1="248.603" y1="244.853" x2="503.281" y2="244.853" xlink:href="#I"><stop offset="0" stop-color="#015ad4"/><stop offset="1" stop-color="#2dfaee"/></linearGradient><linearGradient id="H" x1="51.787" y1="95.179" x2="147.787" y2="95.179" xlink:href="#I"><stop offset="0" stop-color="#0158d4"/><stop offset="1" stop-color="#2efeef"/></linearGradient><linearGradient id="I" gradientUnits="userSpaceOnUse"/></defs><g transform="matrix(.316142 0 0 .316136 -14.613521 -13.156066)"><path d="M99.787 41.615c-29.516 0-53.562 24.048-53.562 53.564s24.046 53.563 53.563 53.563 53.563-24.046 53.563-53.563-24.046-53.564-53.563-53.564zm0 11.127c23.503 0 42.438 18.934 42.438 42.438s-18.934 42.436-42.438 42.436S57.35 118.683 57.35 95.18s18.934-42.437 42.438-42.437z" fill="url(#H)" paint-order="stroke fill markers"/><path d="M147.787 95.179a48 48 0 1 1-96 0 48 48 0 0 1 96 0z" paint-order="stroke fill markers"/><g transform="scale(.26458333)"><path d="M248.644 276.673c.571-1.622 56.606-64.081 57.491-64.081.217 0 .307.679.2 1.509-.401 3.098-1.202 16.221-1.003 16.421.114.114 9.164-2.005 20.111-4.709 21.051-5.2 39.909-9.472 47.122-10.676 6.176-1.031 20.211-1.398 27.761-.728 28.747 2.554 55.607 13.227 77.83 30.928 8.422 6.708 22.912 22.157 24.924 26.573.649 1.425-.229 2.159-3.392 2.837-3.097.664-4.211.235-11.514-4.435-19.482-12.459-41.813-20.163-68.328-23.574-9.854-1.268-23.199-1.762-32.867-1.218-14.45.813-17.121 1.395-89.788 19.557l-48.429 12.036c-.151 0-.205-.198-.119-.44z" fill="url(#G)"/><path d="M447.86 503.051l.536-7.079.533-6.907.265-2.265-1.328.224c-.731.123-9.997 2.434-20.592 5.135-32.69 8.335-42.007 10.207-54.829 11.013-23.386 1.47-48.3-3.783-70.56-14.877-14.756-7.354-25.089-14.805-36.611-26.396-5.503-5.536-14.184-15.652-14.752-17.19-.171-.464 4.873-1.884 6.689-1.884.789 0 2.58.735 4.147 1.703 9.641 5.952 12.995 7.913 16.95 9.908 33.153 16.722 74.358 22.09 111.83 14.568 3.191-.64 15.515-3.645 27.386-6.677l87.791-21.724c.483.161-4.602 6.355-13.444 16.381l-43.842 48.506c-.254 0-.326-1.025-.17-2.437z" fill="url(#F)"/></g><path d="M92.273 99.789c0 1.831.762 3.869 1.958 5.322 1.384 1.683 3.291 3.169 5.412 3.666 1.507.353 4.842.353 4.842.353H88.824c-1.533 0-3.862-.948-5.521-2.733-1.255-1.35-2.302-3.554-2.302-4.318v-9.393c0 4.021 4.736 7.103 7.824 7.103h3.45" fill="url(#D)"/><path d="M92.273 90.582c0-1.831.762-3.869 1.958-5.322 1.384-1.683 3.291-3.169 5.412-3.666 1.507-.353 4.842-.353 4.842-.353-5.284 0-10.79 0-15.661 0-3.479 0-7.047 3.241-7.047 4.67 0 1.479 3.552 4.67 7.047 4.67h3.45" fill="url(#E)"/><path d="M81 85.911v-6.774c0-3.71 4.209-7.103 7.824-7.103h29.751c0 4.32-4.273 9.207-9.248 9.207h-9.683-10.82c-3.109 0-6.847 2.884-7.047 4.67z" fill="url(#C)"/><path d="M81 85.911v6.774c0 3.71 4.154 7.103 7.72 7.103h29.356c0-4.32-4.216-9.207-9.125-9.207h-9.555H88.72c-3.068 0-6.746-2.884-6.943-4.67z" fill="url(#B)"/><path d="M81 102.078v9.142c0 3.71 4.209 7.103 7.824 7.103h29.751c0-4.32-4.273-9.207-9.248-9.207h-9.683-10.82c-1.332 0-6.233-1.103-7.824-7.038z" fill="url(#A)"/></g></svg>