<svg xmlns="http://www.w3.org/2000/svg" fill="none" width="128" height="128" xmlns:v="https://vecta.io/nano"><path d="M0 64a64 64 0 1 0 128 0A64 64 0 0 0 0 64z" fill="#121122"/><g fill-rule="evenodd" fill="#f2f4f8"><path d="M19.31 47.784c-.782 5.034.14 10.214 1.096 15.192.368.796 1.176 1.33 2.172 1.674a32.382 32.382 0 0 0-3.164 13.928c0 20.832 20.166 37.734 45.04 37.734s45.058-16.862 45.058-37.734a32.4 32.4 0 0 0-3.226-14.06c.832-.344 1.496-.842 1.82-1.542.958-4.978 1.874-10.16 1.092-15.192-.732-6.756-3.05-8.82-10.012-7.088-3.54.824-8.21 2.914-11.8 5.372-6.718-3.334-14.56-5.246-22.93-5.246-8.47 0-16.392 1.96-23.16 5.366-3.61-2.51-8.374-4.656-11.97-5.492-6.966-1.73-9.28.332-10.016 7.088zm26.226 29.784c-5.28-2.328-14.304-1.74-14.304-1.74s.424 8.496 5.604 11.38c6.144 3.416 17.568 1.724 17.568 1.724s-.972-7.9-8.868-11.38zm29.336 11.378s11.424 1.692 17.568-1.724c5.18-2.884 5.604-11.38 5.604-11.38s-9.024-.588-14.304 1.74c-7.896 3.45-8.868 11.332-8.868 11.332zM62.2 94.934c0 .626 1.164 1.134 2.596 1.134s2.596-.508 2.596-1.134-1.162-1.132-2.596-1.132-2.596.488-2.596 1.132z"/><path d="M115.786 89.704a37.086 37.086 0 0 0-13.212-2.49h.008c-1.146 0-1.146-1.778 0-1.778A38.48 38.48 0 0 1 116.266 88a.906.906 0 0 1 .616 1.08.896.896 0 0 1-1.096.624zM12.94 88.04a38.52 38.52 0 0 1 13.69-2.564v.01c1.144 0 1.14 1.778 0 1.778-4.52.016-9 .86-13.216 2.488a.896.896 0 0 1-1.092-.62.91.91 0 0 1 .62-1.094zm9.064 5.094A24.228 24.228 0 0 1 28.756 92c1.14.006 1.136 1.778-.006 1.778a22.348 22.348 0 0 0-6.16 1.034c-1.858.544-3.98 1.312-5.336 2.568-.84.78-2.096-.476-1.254-1.256 1.646-1.52 3.91-2.36 6-2.99zm8.782 3.306c-1.782.764-3.498 1.68-5.124 2.734a15.964 15.964 0 0 0-4.266 3.844.892.892 0 0 0 .316 1.216.914.914 0 0 0 1.22-.316c1-1.38 2.432-2.45 3.85-3.364a34.62 34.62 0 0 1 4.886-2.578.896.896 0 0 0 .32-1.216.914.914 0 0 0-1.216-.32zm69.66-2.698a22.23 22.23 0 0 1 6.162 1.032c1.032.292 2.038.664 3.012 1.112.84.368 1.62.86 2.314 1.458.84.776 2.1-.476 1.26-1.26-1.636-1.518-3.888-2.36-5.992-2.99a24.14 24.14 0 0 0-6.756-1.13c-1.144 0-1.148 1.78 0 1.78zm1.962 6.76a35.5 35.5 0 0 0-4.81-2.49v-.018a.9.9 0 0 1-.32-1.216.92.92 0 0 1 1.22-.316c3.464 1.512 7.108 3.452 9.372 6.578a.896.896 0 0 1-.316 1.216.91.91 0 0 1-1.216-.32c-1.024-1.412-2.472-2.506-3.93-3.434z"/></g><path d="M6.184 67.506c.82-1.28 8.04-5.132 16.97-7.418a104.95 104.95 0 0 1 7.11-15.86c-.034 0 7.144-12.886 7.112-12.892a40.6 40.6 0 0 1-5.91-3.312 5.124 5.124 0 0 1-.856-.834 1.968 1.968 0 0 1-.284-1.042c0-.3.422-.832.61-1.068.48-.564 1.012-1.086 1.586-1.556a42.004 42.004 0 0 1 4.306-3.094c.712-.47 1.452-.928 2.18-1.39 5.12-3.26 7.926-5.714 12.614-8.408 4.48-2.568 6.658-4.15 11.852-3.884 6.528 0 22.756 20.672 30.072 31.324 4.388 6.4 10.276 17.924 12.444 22.26.52.13.99.254 1.424.382 6.656 2 13.184 4.928 14.78 6.792 1.422 1.656-4.794 2.396-10.92 3.462s-26.908 1.598-46.88 1.732-43.28-.534-48.354-1.332-10.878-2.266-9.856-3.862z" fill="#6665dd"/><path d="M100.424 49.65s-13.156-3.296-36.336-3.296c-24.888 0-36.874 3.84-36.874 3.84s-1.422 2.702-2.04 4.266-2.02 5.628-2.02 5.628 18.108-3.24 41.284-3.24a260.67 260.67 0 0 1 41.65 3.52s-2.102-4.92-3.36-7.016a130.66 130.66 0 0 0-2.304-3.702z" fill="#ff99a5"/><path d="M22.126 21.84c1.508-.22 3.556 4.396 3.556 4.396s4.742-1.276 5.482 0-3.334 4.34-3.334 4.34 2.46 4.328 1.68 5.228-5.166-1.83-5.166-1.83-3.346 3.768-4.436 3.2.146-5.48.146-5.48-4.734-2.012-4.41-3.208S20.9 26.93 20.9 26.93s-.278-4.868 1.226-5.088z" fill="#ffe600"/></svg>