<svg xmlns="http://www.w3.org/2000/svg" xmlns:xlink="http://www.w3.org/1999/xlink" width="128" height="128" viewBox="0 0 33.867 33.867" xmlns:v="https://vecta.io/nano"><style><![CDATA[.B{stroke:#362745}.C{stroke-miterlimit:10}.D{fill:#6b00fa}.E{stroke-width:.373}.F{fill:#4300bf}.G{fill:#100342}.H{fill:#362745}.I{fill:#e0e3bd}]]></style><g class="B C E"><path d="M7.585 24.142L7.9 18.56l.441-3.048c.117-1.393-.027-2.787-.063-4.189-.009-.409-.054-.818.054-1.228.054-.209.135-.427.36-.47.387-.087.279-.296.198-.523l-.27-.749c-.54-1.28-.081-2.43.576-3.509.558-.923 1.287-1.75 2.052-2.525.855-.871 1.917-1.306 3.167-1.324l.711-.026.36-.017c.108-.009.225 0 .333-.017l.108-.026c.063 0 .126.017.18.017l.396.061.783.139 1.548.348c.279.07.558.148.819.279.477.253.819.679 1.278.958.315.192.666.305.954.531.324.253.531.61.729.967.216.383.432.766.576 1.184l.099.322c.108.444.162.897.216 1.35.054.444.117.897.27 1.324.036.105.081.209.126.314.018.044.045.087.054.131l-.009.183-.153 3.936-.441 6.366c-.045.374.009.74.099 1.097.261 1.062.342 2.125.18 3.222-.135.923-.135 1.872-.198 2.813-.027.418-.261.592-.684.601-.495.009-.945-.192-1.44-.2-.693-.017-1.359.139-2.034.209-1.134.104-2.231-.096-3.347-.226-.198-.017-.387-.104-.585-.096h-.612c-.099-.009-.198-.009-.297-.035-.063-.017-.108-.044-.171-.052l-.81-.044-.81-.035-1.629-.061-1.629-.052c-.135 0-.27-.009-.405-.009-.126 0-.27-.026-.396-.009-.036.009-.072.026-.099.035-.126.035-.279.017-.405-.009-.396-.104-.495-.514-.504-.862-.009-.235.018-.47.027-.705-.018-.235-.018-.47-.018-.758z" class="D"/><path d="M24.186 31.449c-.072.453-.009.967-.144 1.454-.054.192-.099.374-.315.453-.207.07-.351-.017-.45-.192-.072-.122-.198-.113-.324-.122l-3.041-.174-10.411-.522-2.915-.122c-.261-.017-.783 0-.846-.34-.018-.104-.081-.192-.108-.296-.063-.218-.072-.453-.072-.679l-.045-1.576-.009-.261c0-.061-.018-.096-.045-.139-.063-.131-.009-.279.081-.383.117-.139.279-.2.45-.131.558.2 1.143.157 1.71.192l8.008.383 7.279.357c.837.044 1.161.374 1.161 1.193l.036.906z" class="F"/><path d="M16.439 26.79l-2.456-.174-1.548-.261c-.558-.07-1.134-.078-1.692-.087-.855-.017-1.728-.026-2.555.174s-1.638.644-2.078 1.358c.783.557 1.809.627 2.78.679l1.782.096c4.382.235 8.764.47 13.146.479l-.414-1.21c-.126-.357-.306-.775-.738-.862-.144-.026-.288 0-.432.009-.252 0-.513-.017-.765-.026l-3.221-.113-1.809-.061z" class="D"/><path d="M26.399 26.058c.135-.07.288-.139.369-.261s.09-.27.099-.409l.108-1.715.072-1.933-.036-1.82c.036-.557.153-1.106.216-1.663.225-1.968-.252-3.954-.162-5.93l.198-2.203c.135-1.994-.225-4.023-1.035-5.861-.072-.157-.144-.314-.279-.418-.18-.139-.423-.157-.621-.27-.279-.165-.387-.496-.54-.784-.378-.714-1.098-1.202-1.881-1.472S21.298.97 20.479.891L18.751.726c-.279-.026-.684.061-.639.331.828.601 1.782 1.036 2.654 1.576s1.701 1.228 2.115 2.151c.18.392.27.819.36 1.245.27 1.219.531 2.438.594 3.684.045.906-.018 1.82-.081 2.734l-.189 3.588-.108 3.588-.027 3.588.018 1.794.018.897c.009.279-.018.583.018.871.063.427.558.366.864.235l1.656-.775c.099-.035.297-.174.396-.174z" class="F"/><g class="G"><path d="M24.051 28.949c.036.061.081.131.153.131.045 0 .09-.026.126-.044.414-.27.756-.636 1.206-.836.306-.139.639-.192.954-.296.45-.148.855-.401 1.26-.644.144-.087.306-.218.279-.383a.33.33 0 0 0-.081-.157 3.43 3.43 0 0 0-.801-.758c-.063-.044-.126-.078-.198-.087-.09-.009-.18.035-.261.07l-1.952.949-.972.479c-.27.131-.495.226-.315.54l.603 1.036z"/><path d="M24.339 32.694c.009.061.018.131.054.174.099.104.27.044.396-.026l3.266-1.777c.108-.061.225-.122.297-.226.072-.113.081-.252.09-.383l.099-2.125c.009-.2.009-.418-.108-.575-.126-.174-.369-.226-.585-.2s-.414.131-.603.235l-2.618 1.393c-.288.157-.639.261-.612.627.027.427.099.853.144 1.271l.09.801c.027.27.09.549.09.81z"/></g></g><path d="M19.408 5.367c.171.139.153.427-.027.557a.38.38 0 0 1-.549-.157.38.38 0 0 1 .288-.488.39.39 0 0 1 .288.087zm1.458 1.228c-.009.044-.018.078-.018.122.009.078.063.139.135.165.189.096.468-.044.495-.253.018-.209-.216-.409-.423-.348-.018-.009-.045.009-.054.026-.081.096-.099.183-.135.287zm-.891 1.228h-.396c-.036 0-.072 0-.099.026-.018.017-.018.044-.027.07a3.52 3.52 0 0 0-.036.305c-.009.122-.009.279.099.34.072.035.153.026.225.044.063.017.117.052.18.044.126 0 .207-.131.234-.253.027-.131.036-.261-.027-.383s-.189-.209-.324-.192" class="F"/><path d="M26.049 11.611c-.09-.087-.198-.078-.315-.044-.108.035-.171.139-.162.244 0 .087.063.174.126.235.099.096.279.009.351-.078.09-.087.09-.253 0-.357zm-.63 1.463a.39.39 0 0 0-.09-.183c-.054-.052-.162-.026-.225 0a.58.58 0 0 0-.153.105c-.018.017-.036.026-.045.052-.027.044-.036.087-.045.139 0 .026-.027.148 0 .165.108.07.252.087.378.035.108-.061.198-.192.18-.314z" class="D"/><path d="M9.915 24.081c-.171 0-.333.078-.414.218s-.054.34.072.444c.135.113.576.104.702-.009s-.045-.314-.117-.479l-.342-.174m-.683-2.882a2.33 2.33 0 0 0-.126.427.1.1 0 0 0 .009.087c.027.044.081.052.135.061.135.009.288.009.369-.087.027-.026.045-.07.054-.104.045-.139.018-.305-.108-.383s-.324-.035-.351.104m2.024 1.323c-.018-.044-.054-.113-.099-.131-.027-.009-.072 0-.108 0h-.099c-.027 0-.054 0-.072.009-.036.017-.072.07-.099.096-.018.009-.027.017-.036.035a.31.31 0 0 0-.036.157c0 .017 0 .157.018.157.09.017.405.044.495.061.054.009-.099.026-.054-.009a.37.37 0 0 0 .054-.061c.045-.104.072-.218.036-.314z" class="F"/><path d="M19.957 31.98c.171.122.45.087.567-.087.09-.131.072-.296.045-.453-.009-.044-.018-.087-.045-.113s-.072-.035-.117-.035c-.126-.017-.234-.009-.36-.009h-.054c-.045.017-.09.052-.126.087-.09.087-.126.192-.099.314.027.113.09.226.189.296zm-1.143-1.698a.26.26 0 0 0-.144.322c.072.061.162.113.261.122s.207-.052.225-.148c.018-.078-.027-.148-.072-.218s-.099-.139-.18-.165c-.081-.017-.189.052-.153.131m6.371-6.088c-.144-.044-.306.017-.405.122-.099.113-.144.261-.153.401-.009.078 0 .157.045.218.063.078.18.087.279.061.198-.035.378-.174.432-.357s-.072-.418-.27-.444c.144-.017-.027-.096.072 0zm.638-2.203c-.189.035-.369.165-.387.348s.198.357.369.27c.171-.157.153-.462-.027-.61" class="D"/><g class="G"><path d="M19.849 4.305c-.108.026-.153.165-.108.261s.162.148.279.148c.054 0 .117-.017.144-.061.009-.026.018-.052.018-.078 0-.096 0-.2-.027-.296a1.13 1.13 0 0 0-.297.009m-.999 1.558c-.081.009-.171.017-.243.052s-.135.113-.126.192c.009.104.126.174.225.218.081.035.189.07.261.009s.045-.165.099-.244c.018-.026.045-.052.054-.087.009-.061-.063-.105-.126-.113s-.135-.017-.162-.07m-1.322-1.837c-.081.044-.171.105-.216.183-.09.148-.018.383.153.418s.324-.113.414-.261a.12.12 0 0 0 .018-.052c0-.017-.018-.035-.036-.044l-.297-.2c-.027-.017-.072-.035-.09 0m-6.884 1.488a.75.75 0 0 0-.054.348c.081.044.18.035.261 0a.56.56 0 0 0 .198-.183c.009-.017.027-.035.027-.061 0-.035-.018-.07-.045-.096-.054-.061-.126-.105-.207-.113s-.171.052-.18.122m-.405 1.402c-.072.035-.081.148-.036.209.054.061.144.087.225.078.054-.009.117-.026.135-.07.036-.07-.018-.148-.072-.2-.054-.061-.135-.131-.225-.105m3.617-4.387c-.036.087-.036.192-.009.287.045.07.153.087.225.044s.108-.131.099-.218c-.018-.096-.126-.192-.216-.148m7.802 8.551c-.063.105-.036.261.072.331s.27.035.333-.07c.036-.052.036-.131.018-.192-.036-.087-.135-.148-.234-.148a.38.38 0 0 0-.27.096c.036.009.063.026.099.035"/><use xlink:href="#B"/></g><use xlink:href="#B" class="B C E"/><path d="M20.344 22.244c.045.096.117.192.216.218.171.052.369-.148.297-.305s-.36-.165-.432 0m-3.752 2.421c-.063.157.072.348.243.374s.342-.113.387-.279a.1.1 0 0 0-.009-.087c-.018-.026-.045-.035-.081-.044l-.441-.113c-.018.044-.036.096-.045.139" fill="#100641"/><path d="M9.952 18.291c-.018.078-.045.157-.027.235.009.078.063.157.144.174.09.026.189-.044.225-.131s.036-.183.027-.27l-.315-.052" class="G"/><path d="M9.097 30.02c-.036.113-.063.261.036.34.108.087.261.009.396.035a.65.65 0 0 0 .009-.322c-.027-.104-.108-.209-.216-.226-.108-.026-.234.061-.225.174h.081zm2.051.758l.009.409.315.044c.027 0 .063.009.09-.009s.036-.052.045-.087c.036-.148.036-.314-.072-.427-.108-.104-.342-.078-.36.07m9.268.244c-.099.078-.153.218-.099.331s.216.174.324.096c.045-.096.09-.2.072-.305s-.162-.183-.252-.113m4.886.008a.36.36 0 0 0 0 .218c.027.07.126.113.189.07.027-.017.036-.044.045-.07a.44.44 0 0 0 .045-.235c-.009-.078-.072-.157-.153-.165s-.171.07-.144.139m-.468-10.433c-.018.078-.045.157-.027.235s.081.157.162.148c.126 0 .18-.148.198-.27.018-.104.018-.244-.081-.287-.108-.044-.207.07-.27.157" fill="#100641"/><path d="M25.796 7.431c-.018.078-.027.165.009.235s.135.113.207.07c.036-.017.054-.052.072-.087.027-.07.054-.139.036-.209s-.072-.139-.144-.148-.153.061-.135.131m-.539 1.175l.009.279c.135.017.27-.078.288-.209s-.09-.261-.225-.27c.009.061-.009.122-.036.174m1.151.244a.59.59 0 0 0-.045.305c.018.105.126.192.225.174.135-.026.162-.209.153-.348-.009-.096-.018-.209-.099-.261s-.234.009-.198.096" class="G"/><g class="B C E"><path d="M12.552 18.726c.153-.522-.135-.993-.549-1.463-.639-.723-1.224-1.48-1.359-2.491-.297-2.282 1.017-4.511 3.185-5.321 2.276-.853 4.796-.087 6.155 1.864a4.87 4.87 0 0 1 .909 2.856c0 .958-.315 1.785-1.008 2.473l-.963 1.001a1.26 1.26 0 0 0-.477 1.123c.018.357-.027.714-.018 1.071v.07c0 .035-.009.061-.009.087a1.13 1.13 0 0 0 .009.183l-.18.009c-.072 0-.144.009-.216 0-.135-.017-.261-.017-.396-.026-.027 0-.054 0-.09-.009-.054 0-.099-.009-.153-.009-.018 0-.036-.009-.063-.009h-.081-.315c0-.052-.009-.104-.009-.157-.009-.104-.009-.209-.009-.314l-.009-.601c0-.009 0-.017-.009-.026s-.018-.009-.027-.009a3.24 3.24 0 0 0-.648.026l-.009.374v.104c0 .052 0 .096-.009.148 0 .017-.009.026-.009.035-.009.017-.009.044-.009.061-.009.096-.009.2.009.296h-.198c-.081 0-.171 0-.252-.017-.099-.017-.207-.009-.306-.017-.036 0-.081 0-.117-.009-.099 0-.198-.017-.297-.017h-.153c-.009 0-.144.009-.153.017l.009-.27c0-.044 0-.087.009-.139 0-.044.009-.087.009-.131l-.009-.531a3.95 3.95 0 0 0-.72-.061l-.036.601-.018.305v.078c0 .017 0 .035-.009.044-.009.017-.054.017-.072.017-.126.009-.261 0-.387-.009-.054 0-.117-.009-.171-.009l-.432-.017c-.045 0-.099-.009-.144-.009-.027-.009-.054-.017-.09-.017-.009 0-.153-.009-.153-.009v-.026-.305c0-.044-.009-.087.009-.131.009-.017 0-.035 0-.052v-.131l.009-.331c.018 0 .018-.035.027-.174zm2.915-1.602l.243.017.387.035-.144-.383c-.018-.052-.045-.096-.063-.139s-.045-.078-.063-.122c-.009-.009-.009-.026-.009-.035-.009-.044-.027-.078-.036-.122l-.126-.331a1.05 1.05 0 0 0-.063-.148c0 .009-.018.035-.018.035-.009.017-.027.035-.036.052l-.324.479c-.054.078-.099.165-.153.253-.027.044-.045.087-.072.122l-.027.052c-.009.035-.045.07-.072.105-.036.044-.072.087-.099.139h.036.036.081c.054 0 .099 0 .153-.009.018 0 .045-.009.063-.009.027 0 .054 0 .081.009.054 0 .099.009.153.009.027-.017.054-.017.072-.009z" class="H"/><path d="M12.345 18.482c.144-.514-.135-.975-.54-1.437-.63-.714-1.206-1.454-1.332-2.438-.288-2.238.999-4.415 3.122-5.207 2.231-.836 4.697-.087 6.038 1.829a4.89 4.89 0 0 1 .9 2.795c0 .94-.306 1.75-.99 2.421-.324.322-.594.688-.945.975-.36.305-.495.653-.468 1.106.018.348-.027.697-.018 1.045v.07c0 .026-.009.061-.009.087a1.02 1.02 0 0 0 .009.174h-.18c-.072 0-.144.009-.216 0-.126-.017-.261-.017-.387-.026-.027 0-.054 0-.081-.009-.054 0-.099-.009-.153-.009-.018 0-.036-.009-.054-.009h-.081-.306c0-.052-.009-.096-.009-.148-.009-.104-.009-.2-.009-.305l-.009-.592c0-.009 0-.017-.009-.026s-.018-.009-.027-.009c-.207-.017-.423 0-.63.026l-.009.366v.104c0 .044 0 .096-.009.148 0 .017-.009.026-.009.035-.009.017-.009.044-.009.061-.009.096-.009.192.009.287h-.189c-.081 0-.162 0-.243-.017-.099-.017-.198-.009-.306-.017-.036 0-.081 0-.117-.009-.099 0-.189-.017-.288-.017h-.153c-.009 0-.144.009-.144.017l.009-.27c0-.044 0-.087.009-.131 0-.044.009-.087.009-.131l-.009-.523a4.79 4.79 0 0 0-.702-.061l-.027.592-.018.296v.078c0 .017 0 .035-.009.044-.009.017-.054.017-.072.017-.126.009-.252 0-.378-.009-.054 0-.117-.009-.171-.009l-.423-.017c-.045 0-.09-.009-.144-.009-.027 0-.054-.017-.09-.017-.009 0-.144-.009-.144-.009v-.026-.296c0-.044-.009-.087.009-.122.009-.017 0-.035 0-.052v-.131l.009-.322c-.018 0-.018-.026-.009-.165zm2.861-1.576l.234.017.378.035-.135-.383c-.018-.052-.045-.096-.063-.139s-.045-.078-.063-.122c-.009-.009-.009-.026-.009-.035-.009-.044-.027-.078-.036-.122l-.126-.322a1.02 1.02 0 0 0-.063-.148c0 .009-.018.026-.018.035-.009.017-.027.035-.036.052l-.315.47c-.054.078-.099.165-.144.244l-.072.122-.027.052c-.009.035-.045.07-.072.096l-.099.131h.036.036.081c.054 0 .099 0 .153-.009.018 0 .045-.009.063-.009.027 0 .054 0 .081.009.054 0 .099.009.153.009.018.017.045.017.063.017z" class="I"/></g><path d="M18.689 9.904c-1.647-1.271-3.509-1.48-5.435-.644-3.086 1.341-3.914 5.312-2.06 7.289.261.279.459.601.729.88.243.253.324.523.306.862-.027.47-.072.949 0 1.463l1.584.07.027-1.088.612.017v.009.026.035.044.052.061.07.078.078.078.078.078.07.07.061.052.043.026c0 .026-.009.052-.009.087h.027.009.036.081l.315.009.396.017.36.017.225.009h.027c.018 0 .027 0 .045-.009 0-.026.009-.061.009-.087v-.009c0-.009 0-.026.009-.035 0-.026.009-.052.009-.07v-.052-.044-.044-.052-.07-.07-.078-.078-.078-.078-.07-.052-.044-.026-.009l.612.017-.027 1.08 1.665.07v-.949-.444c0-.044 0-.087-.009-.122 0-.104 0-.209.018-.305a.65.65 0 0 1 .126-.305c.018-.017.036-.044.054-.061l.072-.07.135-.139.27-.279.261-.279.252-.279.252-.279.243-.279c.045-.044.081-.096.126-.139.306-.366.522-.775.594-1.245.324-2.012-.315-3.684-1.943-4.938zm-5.102 8.543h-.063-.027v.131l-.009.27-.018.557-.801-.035.009-.235.018-.531.018-.557.009-.209c0-.035-.009-.07-.009-.096 0-.035-.009-.07-.009-.104 0-.017-.009-.026-.009-.044-.009-.009-.009-.026-.018-.035-.009-.026-.018-.052-.036-.078l-.081-.157c-.027-.052-.063-.096-.099-.148-.018-.026-.045-.061-.072-.087l-1.098-1.367c-.513-.679-.603-1.472-.504-2.273.225-1.803 1.197-3.109 2.933-3.779 1.719-.662 3.347-.383 4.715.81 1.395 1.21 1.908 2.752 1.458 4.554-.108.462-.414.792-.72 1.123l-1.152 1.21c-.018.017-.036.026-.045.044-.018.026-.018.035-.027.044-.009.017-.027.035-.036.052-.009.009-.009.017-.018.026l-.063.122c-.036.078-.054.165-.072.253-.009.044-.009.087-.009.131v.061.035.052.087.148.296.296.296.148.078.026.009h-.054c-.045 0-.099 0-.144-.009l-.594-.026.018-.488c0-.052.009-.113.009-.165v-.2-.07l-.117-.017c-.045-.009-.09-.017-.135-.017l-.288-.026c-.099-.009-.198-.009-.297-.009h-.297-.252l-.036 1.001-.801-.035.036-.984-.144-.026-.288-.035-.297-.017c-.099 0-.198 0-.297-.009h-.144m1.954-2.9c-.009-.009-.009-.026-.018-.035-.018-.026-.027-.061-.045-.087l-.027-.052c-.009-.017-.018-.026-.027-.044-.036-.052-.063-.113-.099-.165-.018-.026-.027-.052-.045-.087-.009-.026-.018-.035-.018-.035-.009.017-.018.017-.018.026s-.009.017-.009.026a.2.2 0 0 1-.027.044 1.61 1.61 0 0 0-.099.165 1.61 1.61 0 0 0-.099.165l-.126.218c-.018.026-.027.052-.045.07-.018.026-.036.052-.045.078-.018.026-.036.052-.054.087-.018.026-.036.061-.054.087l-.054.096-.054.096-.054.096-.054.096-.054.096-.054.096-.054.096-.054.087c-.018.026-.036.052-.045.078-.018.026-.027.052-.045.078-.009.026-.027.044-.036.07-.009.017-.027.035-.036.061l-.027.052c-.009.009-.018.026-.018.035-.009.009-.009.017-.018.026l-.009.009h.009c.054 0 .099 0 .153.009h.036.036.045.036.036.045.054.054.063.063.072.072.072.081.081.081.081.081.081.081.081.072.072.072.063.063.054.054.045l.324.009c-.009-.052-.036-.096-.054-.148l-.738-1.498zm-.927 1.315l.639-1.054.432 1.097-1.071-.044z" class="H"/><path d="M9.556 10.14c0 .044.009.078.009.113zm0 0c0 .044.009.078.009.113z" class="I"/><path d="M9.556 10.14c0 .044.009.078.009.113m-.009-.113c0 .044.009.078.009.113z" stroke-width="1.49" class="B C"/><path d="M28.604 26.772c-.459-.357-.801-.819-1.233-1.219l.081-1.245-.027-3.292c-.054-.67.135-1.315.324-1.959.369-1.228.162-2.491-.027-3.701-.135-.862-.153-1.698-.09-2.551l.135-2.247c.081-1.062.18-2.107-.099-3.178-.243-.906-.297-1.855-.675-2.726-.297-.679-.297-.679-1.215-1.855-.819-.836-.945-.845-1.647-1.254-.54-.314-1.071-.61-1.728-.671-.837-.078-1.611-.435-2.438-.566-1.44-.226-2.861-.104-4.283.105-1.908.287-3.788.644-5.255 2.055-.693.67-1.404 1.306-1.701 2.238-.081.261-.261.488-.396.723-.621 1.019-.477 1.48-.567 2.804.054.096-.126.671-.189.827-.081.888-.09.322-.081.705l.045 3.466c.009 1.045.054 2.09-.144 3.118-.216 1.088-.198 2.186-.207 3.283 0 .244.009.496-.054.732-.189.818-.144 1.637-.099 2.456l.144 3.361-1.989 1.498c-.234.165-.369.348-.369.644l.027 3.684c0 .331.162.514.513.54l4.868.296 6.307.383 7.153.453c.324.017.621-.052.9-.218l3.77-2.177a.76.76 0 0 0 .423-.74l.063-3.205c0-.218-.045-.418-.243-.566zM7.9 21.269c.108-.732.207-1.454.189-2.194-.027-.958.09-1.898.234-2.839.198-1.306.126-2.621.099-3.936l-.009-1.428c0-.122.009-.244.018-.366l.018-.218c0-.035.027-.061.054-.087l.117-.131c.009-.009.018-.017.036-.026.009 0 .027 0 .036.009.162.07.441.322.45.34 0 .009.324.244.324.253.009.009-.198.444-.198.462.387 0 .288-.122.603-.671.018-.035-.315-.253-.315-.296-.054-.052-.072-.122-.099-.183a.79.79 0 0 0-.117-.209l-.081-.096-.081-.078c-.018-.017-.027-.035-.027-.061-.009-.035-.027-.061-.036-.096a2.13 2.13 0 0 1-.099-.253l-.171-.514-.171-.523-.108-.279c.063-.819.225-1.602.783-2.264.126-.157.207-.357.27-.54.252-.801.81-1.376 1.449-1.89.396-.322.756-.705 1.215-.923.009-.009.045.017.054.017l.054.026a.25.25 0 0 1 .081.087c.036.044.045.104.072.148l.054.139.099.279c.009.017.009.026.018.035.009.017.027.026.036.026.036.009.072.026.108.035.009 0-.036.235-.036.253v.044c0 .035-.009.078-.009.113l-.018.235c0 .026-.009.061 0 .087l.027.07c.072.139.108.662.108.662l.108-.314c-.009-.026-.009-.044-.018-.07l-.027-.139-.027-.192c0-.026-.009-.044-.009-.07 0-.017-.009-.026 0-.044.009-.026.018-.052.036-.07.009-.026.027-.052.036-.078 0 0 .054.009.063.017.018.009.036.017.054.017.054.009.099.026.144.052.018.009.036.017.054.035l.027.052.144.348c.009.017.018.044.036.061s.036.026.054.035l.36.209c-.054-.087-.135-.157-.207-.244-.108-.131-.18-.287-.207-.453-.009-.035-.009-.07-.009-.104l-.27-.174c-.036-.026-.081-.044-.108-.07-.009-.009-.018-.026-.018-.044l-.027-.07-.099-.279c-.009-.026-.018-.061-.045-.07-.009-.009-.027-.009-.045-.017-.027-.017-.036-.052-.045-.078l-.027-.113c-.009-.026-.018-.061-.018-.096v-.035c-.009-.061-.027-.122-.027-.183-.009-.157.027-.314.117-.453 2.744-.392 5.516-.714 7.927 1.332V4.41c0 .035 0 .078-.018.113-.009.009-.009.017-.018.035-.009.026-.018.052-.036.07l-.09.139c-.036.052-.072.105-.09.165.009-.009.018-.009.027-.017l.027-.026a.27.27 0 0 1 .063-.044c.045-.026.081-.061.117-.096.018-.017.027-.035.045-.061s.036-.07.054-.096c.027-.026.045-.07.054-.113.009-.017.018-.026.018-.044.009-.017.009-.035.018-.061l.027-.122c.036-.174.045-.348.072-.523.009-.07.027-.131.045-.2.747.566 1.521 1.062 1.629 2.055.09.836.243 1.655.486 2.464.072.235.135.479.135.723 0 1.628.081 3.248-.189 4.868-.144.862-.135 1.759-.144 2.639 0 .94-.054 1.881-.144 2.813-.09.914-.09 1.82.144 2.708.126.47.045.941-.009 1.419l-.216 2.813c-.018.226-.009.462-.108.705l-14.693-.792-.018-.157-.027-.183a4.75 4.75 0 0 1-.036-.357c-.009-.122 0-.235.009-.348v-.044c0-.044.009-.096.018-.131l.027-.139a2.09 2.09 0 0 1 .099-.314c.009-.017.009-.026.018-.044.009-.009.027-.017.045-.026l.693-.261c.027-.009.036-.044.054-.07s.036-.052.063-.078c.018-.017.045-.035.063-.052.036-.035.054-.078.072-.122l.099-.218.045-.096c0-.009 0-.017.009-.026.027-.044.09-.078.126-.104.081-.061.153-.131.207-.209-.072.035-.126.078-.198.122a.34.34 0 0 1-.099.044c-.009 0-.018 0-.036.009-.027.026-.045.052-.063.078l-.108.157-.135.192s-.072.139-.144.174c-.018.009-.045.017-.072.026l-.684.218c-.045.017-.09.026-.135.061v-.087c.009-.044 0-.087.009-.122v-.174l-.009-.357-.036-.697c-.072-.435-.081-.888-.018-1.341zm-.198 5.652c.126-.096.288-.07.432-.061l8.665.462 5.678.305.279.035c.18.348.324.705.432 1.141L6.631 27.765c.378-.366.738-.592 1.071-.845zm15.773 5.826c-.405.061-.801.009-1.17-.035-.018 0-.036-.017-.045-.026-.018-.009-.027-.017-.045-.035a.58.58 0 0 1-.081-.07c-.054-.052-.09-.122-.144-.174-.018-.017-.045-.035-.054-.052-.018-.035-.027-.07-.036-.104 0-.009 0-.017-.009-.035-.009-.009-.018-.017-.018-.035a.66.66 0 0 1-.108-.165c-.009-.017-.009-.044-.009-.061.009-.052-.018-.104-.036-.148l-.027-.122c0-.009-.009-.026-.018-.035-.018-.026-.045-.044-.072-.061l-.189-.192c-.027-.026-.054-.044-.081-.061.018.009.027.035.045.052.009.017.027.035.045.052.027.035.054.07.072.122 0 .017.018.044.027.061.027.052.045.096.054.148a.84.84 0 0 1 .027.209c.009.061.009.131.018.192 0 0 .045.017.054.017.009.009.009.026.009.044.018.044.045.087.072.131l.027.052v.148c0 .017 0 .044-.009.061-.018.026-.054.044-.045.078-.036 0-.09.009-.126 0-.009 0-.018 0-.027-.009-.063-.009-.117-.009-.18-.009a4.72 4.72 0 0 0-.351-.017l-3.05-.192-3.05-.192-3.05-.192-3.05-.192-1.53-.096-.765-.044-.378-.026c-.027 0-.369-.017-.369-.026v-.836l.009-.009.018-.017c.009-.017.018-.026.027-.044l.072-.096c.027-.035.063-.07.09-.104.009-.017.018-.026.027-.044.018-.017.045-.035.063-.044.027-.017.054-.026.081-.044.054-.026.108-.052.171-.07.045-.017.09-.026.135-.017.036.009.072.026.099.052.099.07.207.139.324.165.027.009.036-.017.054-.026a.75.75 0 0 1 .144-.104c.009-.009.027-.017.036-.017.027-.017.054-.026.081-.044.108-.044.225-.052.342-.061-.081-.026-.171-.044-.27-.052-.054 0-.108 0-.153.026l-.018.017c-.009.009-.027.017-.036.026l-.081.052c-.009 0-.009.009-.018.009-.018.009-.036.017-.045.035-.009.009-.036.026-.054.026-.009 0-.027-.009-.045-.017-.009-.009-.027-.009-.036-.017a.86.86 0 0 0-.072-.044c-.072-.052-.144-.122-.216-.183-.009-.009-.018-.009-.027-.017h-.036c-.027.009-.054.009-.081.017-.018 0-.027.009-.045.009h-.027c-.027 0-.054.009-.081.009l-.117.026a4.87 4.87 0 0 0-.342.087v-1.75l17.699 1.106zM21.793 2.92l-.261-.357h-.117c-.018 0-.027-.017-.045-.017l-.27-.209-.558-.392a8.41 8.41 0 0 0-1.197-.679c-.189-.017-.342-.105-.558-.235l.558.087c.558-.009 1.08.165 1.611.322.414.122.828.253 1.26.287.657.044 1.17.383 1.683.723.405.27.54.714.666 1.132.09.322-.225.462-.423.644v.035c0 .017.009.035.009.052.009.035.027.061.036.096l.099.2c.018.035.027.07.036.104s.018.078.009.113c0 .017-.027.035-.036.044l-.171.2.378-.122c.027-.026.045-.052.072-.07s.054-.044.081-.061c-.027-.017-.027-.026-.027-.052l-.027-.113-.027-.105c0-.017-.009-.035-.009-.052 0-.009-.018-.044-.009-.052.099-.192.315-.226.423-.348.666.044 1.035.383 1.224.967.243.74.306 1.524.531 2.264.387 1.324.144 2.63.045 3.945-.054.758.027 1.533-.126 2.282-.063.287-.135.557-.369.723-.081.322-.009.618-.027.914-.036.087-.117.157-.189.218a1.88 1.88 0 0 1-.207.165c-.072.052-.144.096-.198.148l-.081.078c-.027.026-.063.044-.099.07-.063.035-.126.078-.189.122-.018.017-.045.026-.054.052l-.036.035-.036.035c-.009.009-.018.017-.018.026.054.07.072.148.108.209.009.017.027.035.036.061.009.009.009.017.009.035.018.035.027.07.027.104v.052c-.009.035.009.07-.018.096l-.117.105c-.018.017-.036.035-.054.044-.036.035-.081.061-.117.096-.009.009-.018.009-.018.018-.009.009-.009.026 0 .043l.081.583c0 .026.009.061.009.096-.009.026-.009.052-.009.087 0 .078.009.157.018.226l.171-.81c.126-.226.441-.27.522-.496 0-.2-.189-.253-.252-.427l1.053-.749.036-.601c.126.026.144.122.153.2.063 1.176.36 2.351.099 3.536-.09.427-.243.836-.297 1.263-.144 1.202.045 2.395.018 3.588-.018.601.063 1.21-.144 1.837l-2.789 1.315.117-1.472c.081-.758.045-1.533.216-2.282.072-.322.045-.671-.036-.993-.279-1.045-.27-2.09-.135-3.144.144-1.15.108-2.308.126-3.466s.198-2.299.261-3.457c.063-1.21.171-2.43-.045-3.623l-.567-2.848c-.09-.714-.459-1.306-1.035-1.768l-.63-.54c-.054-.044-.099-.087-.153-.139-.009-.009-.018-.009-.018-.017-.018-.017-.018-.035-.027-.061zm4.733 23.8c.027.009.027.009.036.017.018 0 .027.009.036.017.018.017.027.035.036.052 0 .026.009.052.009.087 0 .061.009.131 0 .192 0 .035 0 .061-.009.096v.035c0 .017.018.017.036.026.027.009.045.035.054.052s.018.035.009.052c0 .017-.009.035-.018.044-.018.035-.045.052-.081.07a1.94 1.94 0 0 0-.234.122l-2.196 1.123a6.33 6.33 0 0 1-.468-1.123l2.987-1.367c.333.2.54.505.783.766-.135.148-.306.192-.477.27l-.054-.026-.063-.035s-.036-.026-.063-.026c-.027-.009-.063-.026-.081-.044-.009-.009-.009-.017-.009-.035-.009-.035-.018-.061-.018-.096-.009-.044-.018-.078-.036-.122-.009-.035-.027-.078-.036-.113zm.612 2.36v-.131c0-.026 0-.061.018-.087.009-.017.009-.026.018-.035a1.09 1.09 0 0 1 .099-.148c.153-.174.243-.374.225-.618.099-.07.198-.148.369-.139.063.853.018 1.742-.009 2.647l-3.446 1.977v-2.952l2.744-1.393c.027.035.045.078.054.122.009.026 0 .061 0 .087 0 .017-.009.026-.018.044 0 .009-.009.017-.018.035l-.036.035c-.018.009-.027.026-.045.044s-.036.044-.045.061c-.009.009-.018.017-.018.035-.009.009-.018.026-.018.044-.027.044-.054.096-.09.139-.018.017-.036.044-.036.07 0 .009 0 .017.009.026v.34c0 .061.009.113.009.174 0 .044-.009.104-.036.139l-.027.026c-.009.026-.018.026-.027.035a1.09 1.09 0 0 1-.225.174c.054-.009.108-.017.153-.044.036-.017.072-.044.117-.061.009 0 .018-.017.036-.017.027-.026.036-.052.054-.087.009-.009.009-.026.018-.044s.009-.026.018-.044c0-.009.009-.017.009-.026.009-.035.018-.07.036-.104.009-.017.009-.035.018-.052 0-.009.009-.017.009-.035s0-.035.009-.044c0-.017.009-.035.027-.044z" class="I"/><g class="B C E"><path d="M21.793 2.92l-.261-.357h-.117c-.018 0-.027-.017-.045-.017l-.27-.209-.558-.392a8.41 8.41 0 0 0-1.197-.679c-.189-.017-.342-.105-.558-.235l.558.087c.558-.009 1.08.165 1.611.322.414.122.828.253 1.26.287.657.044 1.17.383 1.683.723.405.27.54.714.666 1.132.09.322-.225.462-.423.644v.035c0 .017.009.035.009.052.009.035.027.061.036.096l.099.2c.018.035.027.07.036.104s.018.078.009.113c0 .017-.027.035-.036.044l-.171.2.378-.122c.027-.026.045-.052.072-.07s.054-.044.081-.061c-.027-.017-.027-.026-.027-.052l-.027-.113-.027-.105c0-.017-.009-.035-.009-.052 0-.009-.018-.044-.009-.052.099-.192.315-.226.423-.348.666.044 1.035.383 1.224.967.243.74.306 1.524.531 2.264.387 1.324.144 2.63.045 3.945-.054.758.027 1.533-.126 2.282-.063.287-.135.557-.369.723-.081.322-.009.618-.027.914-.036.087-.117.157-.189.218a1.88 1.88 0 0 1-.207.165c-.072.052-.144.096-.198.148l-.081.078c-.027.026-.063.044-.099.07-.063.035-.126.078-.189.122-.018.017-.045.026-.054.052l-.036.035-.036.035c-.009.009-.018.017-.018.026.054.07.072.148.108.209.009.017.027.035.036.061.009.009.009.017.009.035.018.035.027.07.027.105v.052c-.009.035.009.07-.018.096l-.117.105c-.018.017-.036.035-.054.044-.036.035-.081.061-.117.096-.009.009-.018.009-.018.018-.009.009-.009.026 0 .043l.081.583c0 .026.009.061.009.096-.009.026-.009.052-.009.087 0 .078.009.157.018.226l.171-.81c.126-.226.441-.27.522-.496 0-.2-.189-.253-.252-.427l1.053-.749.036-.601c.126.026.144.122.153.2.063 1.176.36 2.351.099 3.536-.09.427-.243.836-.297 1.263-.144 1.202.045 2.395.018 3.588-.018.601.063 1.21-.144 1.837l-2.789 1.315.117-1.472c.081-.758.045-1.533.216-2.282.072-.322.045-.671-.036-.993-.279-1.045-.27-2.09-.135-3.144.144-1.15.108-2.308.126-3.466s.198-2.299.261-3.457c.063-1.21.171-2.43-.045-3.623l-.567-2.848c-.09-.714-.459-1.306-1.035-1.768l-.63-.54c-.054-.044-.099-.087-.153-.139zm0 0c-.009-.009-.018-.009-.018-.017-.018-.017-.018-.035-.027-.061zm4.877 23.834c.009.035.027.078.036.113a.62.62 0 0 1 .036.122c0 .035.009.061.018.096 0 .017 0 .026.009.035a.24.24 0 0 0 .081.044c.027 0 .045.017.063.026l.063.035.054.026c.171-.078.342-.122.477-.27-.243-.261-.45-.566-.783-.766l-2.987 1.367c.135.409.27.766.468 1.123l2.196-1.123a1.96 1.96 0 0 1 .234-.122c.036-.017.063-.035.081-.07.009-.009.018-.026.018-.044.009-.017 0-.035-.009-.052s-.027-.044-.054-.052c-.018-.009-.036-.009-.036-.026v-.035c.009-.035.009-.061.009-.096.009-.061 0-.131 0-.192 0-.035-.009-.061-.009-.087-.009-.017-.018-.035-.036-.052-.009-.009-.018-.017-.036-.017-.027-.009-.036-.017-.036-.017zm0 0l-.189-.07m2.123.087c-.459-.357-.801-.819-1.233-1.219l.081-1.245-.027-3.292c-.054-.67.135-1.315.324-1.959.369-1.228.162-2.491-.027-3.701-.135-.862-.153-1.698-.09-2.551l.135-2.247c.081-1.062.18-2.107-.099-3.178-.243-.906-.297-1.855-.675-2.726-.297-.679-.297-.679-1.215-1.855-.819-.836-.945-.845-1.647-1.254-.54-.314-1.071-.61-1.728-.671-.837-.078-1.611-.435-2.438-.566-1.44-.226-2.861-.104-4.283.105-1.908.287-3.788.644-5.255 2.055-.693.67-1.404 1.306-1.701 2.238-.081.261-.261.488-.396.723-.621 1.019-.477 1.48-.567 2.804.054.096-.126.671-.189.827-.081.888-.09.322-.081.705l.045 3.466c.009 1.045.054 2.09-.144 3.118-.216 1.088-.198 2.186-.207 3.283 0 .244.009.496-.054.732-.189.818-.144 1.637-.099 2.456l.144 3.361-1.989 1.498c-.234.165-.369.348-.369.644l.027 3.684c0 .331.162.514.513.54l4.868.296 6.307.383 7.153.453c.324.017.621-.052.9-.218l3.77-2.177a.76.76 0 0 0 .423-.74l.063-3.205c0-.218-.045-.418-.243-.566zM7.9 21.269c.108-.732.207-1.454.189-2.194-.027-.958.09-1.898.234-2.839.198-1.306.126-2.621.099-3.936l-.009-1.428c0-.122.009-.244.018-.366l.018-.218c0-.035.027-.061.054-.087l.117-.131c.009-.009.018-.017.036-.026.009 0 .027 0 .036.009.162.07.441.322.45.34 0 .009.324.244.324.253.009.009-.198.444-.198.462.387 0 .288-.122.603-.671.018-.035-.315-.253-.315-.296-.054-.052-.072-.122-.099-.183a.79.79 0 0 0-.117-.209l-.081-.096-.081-.078c-.018-.017-.027-.035-.027-.061-.009-.035-.027-.061-.036-.096a2.13 2.13 0 0 1-.099-.253l-.171-.514-.171-.523-.108-.279c.063-.819.225-1.602.783-2.264.126-.157.207-.357.27-.54.252-.801.81-1.376 1.449-1.89.396-.322.756-.705 1.215-.923.009-.009.045.017.054.017l.054.026a.25.25 0 0 1 .081.087c.036.044.045.104.072.148l.054.139.099.279c.009.017.009.026.018.035.009.017.027.026.036.026.036.009.072.026.108.035.009 0-.036.235-.036.253v.044c0 .035-.009.078-.009.113l-.018.235c0 .026-.009.061 0 .087l.027.07c.072.139.108.662.108.662l.108-.314c-.009-.026-.009-.044-.018-.07l-.027-.139-.027-.192c0-.026-.009-.044-.009-.07 0-.017-.009-.026 0-.044.009-.026.018-.052.036-.07.009-.026.027-.052.036-.078 0 0 .054.009.063.017.018.009.036.017.054.017.054.009.099.026.144.052.018.009.036.017.054.035l.027.052.144.348c.009.017.018.044.036.061s.036.026.054.035l.36.209c-.054-.087-.135-.157-.207-.244-.108-.131-.18-.287-.207-.453-.009-.035-.009-.07-.009-.104l-.27-.174c-.036-.026-.081-.044-.108-.07-.009-.009-.018-.026-.018-.044l-.027-.07-.099-.279c-.009-.026-.018-.061-.045-.07-.009-.009-.027-.009-.045-.017-.027-.017-.036-.052-.045-.078l-.027-.113c-.009-.026-.018-.061-.018-.096v-.035c-.009-.061-.027-.122-.027-.183-.009-.157.027-.314.117-.453 2.744-.392 5.516-.714 7.927 1.332V4.41c0 .035 0 .078-.018.113-.009.009-.009.017-.018.035-.009.026-.018.052-.036.07l-.09.139c-.036.052-.072.105-.09.165.009-.009.018-.009.027-.017l.027-.026a.27.27 0 0 1 .063-.044c.045-.026.081-.061.117-.096.018-.017.027-.035.045-.061s.036-.07.054-.096c.027-.026.045-.07.054-.113.009-.017.018-.026.018-.044.009-.017.009-.035.018-.061l.027-.122c.036-.174.045-.348.072-.523.009-.07.027-.131.045-.2.747.566 1.521 1.062 1.629 2.055.09.836.243 1.655.486 2.464.072.235.135.479.135.723 0 1.628.081 3.248-.189 4.868-.144.862-.135 1.759-.144 2.639 0 .94-.054 1.881-.144 2.813-.09.914-.09 1.82.144 2.708.126.47.045.941-.009 1.419l-.216 2.813c-.018.226-.009.462-.108.705l-14.693-.792-.018-.157-.027-.183a4.76 4.76 0 0 1-.036-.357c-.009-.122 0-.235.009-.348v-.044c0-.044.009-.096.018-.131l.027-.139a2.09 2.09 0 0 1 .099-.314c.009-.017.009-.026.018-.044.009-.009.027-.017.045-.026l.693-.261c.027-.009.036-.044.054-.07s.036-.052.063-.078c.018-.017.045-.035.063-.052.036-.035.054-.078.072-.122l.099-.218.045-.096c0-.009 0-.017.009-.026.027-.044.09-.078.126-.104.081-.061.153-.131.207-.209-.072.035-.126.078-.198.122a.34.34 0 0 1-.099.044c-.009 0-.018 0-.036.009-.027.026-.045.052-.063.078l-.108.157a3.63 3.63 0 0 0-.135.192c-.045.07-.072.139-.144.174-.018.009-.045.017-.072.026l-.684.218c-.045.017-.09.026-.135.061v-.087c.009-.044 0-.087.009-.122v-.174l-.009-.357-.036-.697c-.072-.435-.081-.888-.018-1.341zm-.198 5.652c.126-.096.288-.07.432-.061l8.665.462 5.678.305.279.035c.18.348.324.705.432 1.141L6.631 27.765c.378-.366.738-.592 1.071-.845zm15.773 5.826c-.405.061-.801.009-1.17-.035-.018 0-.036-.017-.045-.026-.018-.009-.027-.017-.045-.035a.58.58 0 0 1-.081-.07c-.054-.052-.09-.122-.144-.174-.018-.017-.045-.035-.054-.052-.018-.035-.027-.07-.036-.104 0-.009 0-.017-.009-.035-.009-.009-.018-.017-.018-.035a.66.66 0 0 1-.108-.165c-.009-.017-.009-.044-.009-.061.009-.052-.018-.104-.036-.148l-.027-.122c0-.009-.009-.026-.018-.035-.018-.026-.045-.044-.072-.061l-.189-.192a.49.49 0 0 0-.081-.061c.018.009.027.035.045.052.009.017.027.035.045.052.027.035.054.07.072.122 0 .017.018.044.027.061.027.052.045.096.054.148a.84.84 0 0 1 .027.209c.009.061.009.131.018.192 0 0 .045.017.054.017.009.009.009.026.009.044.018.044.045.087.072.131l.027.052v.148c0 .017 0 .044-.009.061-.018.026-.054.044-.045.078-.036 0-.09.009-.126 0-.009 0-.018 0-.027-.009-.063-.009-.117-.009-.18-.009a4.72 4.72 0 0 0-.351-.017l-3.05-.192-3.05-.192-3.05-.192-3.05-.192-1.53-.096-.765-.044-.378-.026c-.027 0-.369-.017-.369-.026v-.836l.009-.009.018-.017c.009-.017.018-.026.027-.044l.072-.096c.027-.035.063-.07.09-.104.009-.017.018-.026.027-.044.018-.017.045-.035.063-.044.027-.017.054-.026.081-.044.054-.026.108-.052.171-.07.045-.017.09-.026.135-.017.036.009.072.026.099.052.099.07.207.139.324.165.027.009.036-.017.054-.026a.75.75 0 0 1 .144-.104c.009-.009.027-.017.036-.017.027-.017.054-.026.081-.044.108-.044.225-.052.342-.061-.081-.026-.171-.044-.27-.052-.054 0-.108 0-.153.026l-.018.017c-.009.009-.027.017-.036.026l-.081.052c-.009 0-.009.009-.018.009-.018.009-.036.017-.045.035-.009.009-.036.026-.054.026-.009 0-.027-.009-.045-.017-.009-.009-.027-.009-.036-.017l-.072-.044c-.072-.052-.144-.122-.216-.183-.009-.009-.018-.009-.027-.017h-.036c-.027.009-.054.009-.081.017-.018 0-.027.009-.045.009h-.027c-.027 0-.054.009-.081.009l-.117.026a4.87 4.87 0 0 0-.342.087v-1.75l17.699 1.106zm3.662-3.666v-.131c0-.026 0-.061.018-.087.009-.017.009-.026.018-.035.036-.061.063-.104.099-.148.153-.174.243-.374.225-.618.099-.07.198-.148.369-.139.063.853.018 1.742-.009 2.647l-3.446 1.977v-2.952l2.744-1.393c.027.035.045.078.054.122.009.026 0 .061 0 .087 0 .017-.009.026-.018.044 0 .009-.009.017-.018.035l-.036.035c-.018.009-.027.026-.045.044s-.036.044-.045.061c-.009.009-.018.017-.018.035-.009.009-.018.026-.018.044-.027.044-.054.096-.09.139-.018.017-.036.044-.036.07 0 .009 0 .017.009.026v.34c0 .061.009.113.009.174 0 .044-.009.104-.036.139l-.027.026c-.009.026-.018.026-.027.035a1.09 1.09 0 0 1-.225.174c.054-.009.108-.017.153-.044.036-.017.072-.044.117-.061.009 0 .018-.017.036-.017.027-.026.036-.052.054-.087.009-.009.009-.026.018-.044s.009-.026.018-.044c0-.009.009-.017.009-.026.009-.035.018-.07.036-.104.009-.017.009-.035.018-.052 0-.009.009-.017.009-.035s0-.035.009-.044c0-.017.009-.035.027-.044z"/><path d="M16.862 13.867c-.216.314-.234.74-.081 1.088.045.105.108.2.207.261.198.113.45.009.657-.096.27-.139.549-.305.657-.583.081-.2.045-.435-.054-.627-.054-.122-.135-.226-.225-.322-.063-.061-.117-.139-.216-.148-.225-.035-.468.035-.657.148a1.08 1.08 0 0 0-.288.279zm-4.094.061a.89.89 0 0 0-.135.392c-.018.235.099.453.207.662.018.044.045.087.081.113s.081.035.126.044a1.36 1.36 0 0 0 1.206-.453c.054-.07.099-.139.126-.218a1.01 1.01 0 0 0 .027-.366c-.009-.174-.027-.374-.162-.496-.063-.061-.144-.104-.225-.139-.099-.052-.216-.113-.324-.148a.5.5 0 0 0-.252.035c-.189.061-.351.183-.486.322l-.108.122c-.018.026-.036.044-.045.07-.009.009-.018.044-.036.061z" class="D"/></g><g class="H"><use xlink:href="#C"/><use xlink:href="#C" x="3.995" y="0.087"/><path d="M12.768 14.955c-.126-.183-.432-.392-.432-.601 0-.618.306-1.115.945-1.115h.486c.072.07.144.131.198.2a1.07 1.07 0 0 0-.234-.026c-.531 0-.972.418-.972.941a.92.92 0 0 0 .27.653zm4.283.157c-.09-.009-.576-.191-.666-.209-.126-.183 0-.862 0-1.089 0-.592.738-.531 1.341-.566l.18.261a1.14 1.14 0 0 0-.18-.017c-.531 0-.972.418-.972.941.009.27.117.505.297.679z"/></g><defs ><path id="B" d="M21.136 23.75c-.009.131-.072.253-.072.383s.09.279.225.279c.117 0 .198-.104.252-.2.045-.061.081-.131.117-.192.027-.035.045-.078.027-.122-.009-.017-.027-.035-.045-.044-.153-.096-.342-.139-.531-.131"/><path id="C" d="M13.344 15.382c-.684 0-1.242-.54-1.242-1.202s.558-1.202 1.242-1.202 1.242.54 1.242 1.202-.558 1.202-1.242 1.202zm0-2.055c-.486 0-.882.383-.882.853s.396.853.882.853.882-.383.882-.853-.396-.853-.882-.853z"/></defs></svg>