<svg xmlns="http://www.w3.org/2000/svg" width="128" height="128" viewBox="0 0 33.867 33.867" xmlns:v="https://vecta.io/nano"><path d="M8.059 18.561l.894-6.742-7.77-5.399 7.1 2.406L9.96 6.253l6.121-3.804 13.501 7.441.699 11.357-6.01 8.364-4.752.727 2.46-4.504v-4.336l-1.789-3.385-1.817-1.203-2.795 2.881v3.049l-2.18 2.042-2.767.336-1.23.699-2.013-.643-.839-3.021 1.509-2.126z" fill="#fff"/><path d="M20.469 6.364c-1.481-.308-3.103-.224-3.103-.224s-.531 2.462-3.829 3.105c.028 0 4.36 1.483 6.932-2.881zm1.342 22.323c1.789-1.399 3.131-3.329 3.746-5.511.028-.084.279-.224.447-.336.279-.168.559-.308.615-.531a11.64 11.64 0 0 0 .168-1.986c0-.252-.251-.503-.503-.755-.196-.168-.391-.364-.391-.504-.28-2.546-1.453-4.923-3.326-6.658l-.196.196c1.817 1.706 2.991 4.028 3.242 6.49.028.224.251.448.475.671.196.168.419.42.419.532a11.26 11.26 0 0 1-.168 1.93c-.028.112-.28.224-.475.336-.279.14-.531.28-.587.504a10.34 10.34 0 0 1-4.249 5.79l2.124-4.616-.112-4.14-3.55-3.441-2.013.28-2.208 3.581s1.034 1.315-.419 2.853c-1.426 1.511-2.544 1.846-2.544 1.846l-1.034-.559c.307-.392.922-.979 1.398-1.371.811-.671 1.621-.727 1.621-1.455.028-1.511-1.593-1.091-1.593-1.091l-.587.559-.251 2.07-1.23 1.539-.14-.028-2.012-.448s1.23-.643 1.426-1.371c.196-.699-.391-3.021-.419-3.161.028.028.587.504.839 1.287.447-1.231 1.034-2.406 1.202-2.518s2.432-1.315 2.432-1.315l-.755 1.986.559-.308 1.342-3.301s1.314-.643 2.292-.643c1.761-.028 4.36-2.182 3.186-6.042.335.14 6.149 3.049 7.156 8.756.755 4.392-1.733 8.504-5.926 10.882z" fill="#94a6c3"/><path d="M15.159 6.98c.643-.755.391-1.874.391-1.874l-1.873 2.769c-.028 0 .671.028 1.481-.895zm-6.29 15.133l.224-1.119-1.006 1.846c-.084.252.056.699.419.671s.811-.559.811-.951c0-.504-.447-.448-.447-.448zM25.473 4.322l2.851.224c-3.27-2.574-6.373-3.329-8.889-3.329-3.466 0-5.814 1.427-5.954 1.511l1.09-1.734s-4.36-.42-5.898 4.196c-.391-.979-.755-2.406-.755-2.406S5.655 4.77 6.717 8.071L.26 5.777c-.196-.028-.251.056-.251.056s-.056.084.112.224c.307.252 6.177 4.588 7.463 5.427-.28 1.007-.28 1.483 0 1.958.391.643.419.979.363 1.455l-.671 5.091c-.112.503-1.286 2.294-1.23 2.825s.783 2.797 1.426 3.049c.475.168 1.649.532 2.432.532.279 0 .531-.056.643-.168.475-.42.615-.504.95-.504h.084c.14 0 .307.028.503.028.447 0 1.034-.084 1.454-.476l2.012-1.846c.419-.531.643-1.259.531-1.986-.084-.671.279-1.259.699-1.846l1.509-1.958c1.929 1.455 3.131 3.665 3.131 6.126 0 4.364-3.801 7.888-8.497 7.888a8.99 8.99 0 0 1-2.124-.252c2.152.755 3.969 1.007 5.451 1.007 3.158 0 4.836-1.147 4.836-1.147s-.587.755-1.537 1.622h.028c5.227-.727 7.771-5.035 7.771-5.035s-.196 1.399-.447 2.35c6.96-5.231 5.786-11.777 5.758-12.001.056.084.755.923 1.118 1.371 1.118-11.525-8.302-15.245-8.302-15.245zM14.767 22.729c-.112.14-.587.559-.922.867s-.699.615-.978.895c-.112.112-.335.168-.671.168h-.307-.168-.112-.251c.419-.559 1.649-1.846 2.068-2.126.503-.336.755-.671.447-1.259s-1.118-.448-1.118-.448.475-.196.894-.196c-.531-.14-1.202 0-1.509.308-.335.308-.28 1.399-.419 2.098-.14.727-.615 1.091-1.342 1.762-.391.364-.671.476-.894.476-.475-.084-1.034-.224-1.426-.364-.279-.364-.699-1.567-.811-2.07.084-.28.419-.867.587-1.203.335-.643.531-1.007.587-1.343.112-.476.475-3.413.615-4.644.363.476.867 1.259.755 1.762.811-1.147.224-2.266-.056-2.713-.251-.448-.587-1.343-.307-2.294s1.286-3.581 1.286-3.581.335.587.811.476 4.304-5.874 4.304-5.874 1.034 2.266-.056 3.916C14.656 8.992 13.566 9.3 13.566 9.3s1.537.28 2.963-.755c.587 1.371 1.146 2.797 1.174 2.993l-1.314 3.049c-.056.056-.447.168-.727.224-.475.14-.755.224-.867.308-.196.168-1.09 2.63-1.509 3.832-.503.14-1.006.42-1.37.979.196-.14.811-.224 1.258-.28.391-.028 1.593.615 1.901 1.818v.056c.056.448-.084.867-.307 1.203zm-2.627.336c.251-.364.224-.979.251-1.175s.084-.559.307-.615.755.028.755.42c0 .364-.391.448-.671.699-.196.196-.587.615-.643.671zm11.153-5.343a13.34 13.34 0 0 0 .224-3.665c1.09 1.455 1.761 3.217 1.957 5.035.028.224.251.448.475.671.196.168.419.392.419.531a11.26 11.26 0 0 1-.168 1.93c-.028.084-.279.224-.475.336-.279.14-.531.28-.587.504a10.42 10.42 0 0 1-3.69 5.399c2.599-2.713 3.857-7.189 1.845-10.742zm-1.761 10.994c1.817-1.399 3.214-3.357 3.829-5.567.028-.084.279-.224.447-.336.279-.14.559-.308.615-.532a11.64 11.64 0 0 0 .168-1.986c0-.252-.251-.504-.503-.755-.14-.168-.363-.364-.363-.504-.224-2.042-1.034-3.972-2.292-5.567-.559-3.357-2.795-4.392-2.851-4.42.056.084 1.509 2.182.503 4.644-1.034 2.49-3.69 2.098-3.913 2.126-.224 0-1.09 1.119-2.18 3.189-.14-.056-.727-.196-1.398-.084.503-1.399 1.258-3.385 1.398-3.553.056-.056.475-.168.755-.252.531-.14.783-.224.866-.336.056-.084.335-.727.615-1.399.251 0 .894-.056.95-.084.056-.056.587-1.427.587-1.594 0-.14-1.09-2.853-1.509-3.888a6.77 6.77 0 0 0 .587-.811c5.73.615 10.202 5.483 10.202 11.385 0 4.532-2.655 8.476-6.513 10.322zm-7.436-15.107c.531-.615.252-1.762-.727-1.958.251-.587.615-1.762.615-1.762l-3.103 4.56c-.251.084-.503-.895-.503-.895-.531 2.042.894 2.322 1.062 1.678.783-.196 2.124-1.035 2.655-1.622z" fill="#0a192b"/><path d="M11.665 14.7l1.453-2.49s.839.42.419 1.091c-.531.783-1.873 1.399-1.873 1.399z" fill="#ffd923"/><path d="M29.637 26.225c-.419.56-.894 1.147-1.453 1.706 3.606-6.937.168-13.287.028-13.539.251.252.503.532.727.783 2.767 3.077 3.103 7.693.699 11.049zm3.354-8.923c-1.258-3.385-3.047-6.266-6.988-8.868-3.801-2.518-7.882-2.322-8.106-2.294h-.056c.14-.056.28-.084.419-.112.867-.28 1.985-.504 3.103-.643 2.963-.42 5.954.587 7.994 2.741l.056.056c2.32 2.462 3.522 5.539 3.578 9.119zM25.109 3.455c-4.165-.783-6.848-.392-8.777.336-.056-.224-.251-.671-.419-1.035l-1.593 2.07c-1.062.727-1.509 1.427-1.509 1.427.615-2.098 2.404-3.664 4.584-4.056a11.26 11.26 0 0 1 2.013-.168c1.929.028 3.857.504 5.702 1.427zM9.708 8.826c-3.27-.112-2.18-3.916-2.124-4.14 0 .028.224 2.993 2.124 4.14zm3.214-6.853c-2.516 1.511-2.013 5.119-2.013 5.119-2.404-3.665 1.817-5.035 2.013-5.119z" fill="#d82122"/><path d="M8.785 9.833c.168.14.335.392.14.755-.112.196-.28.168-.531.056-.335-.168-2.348-1.343-4.165-2.546l4.5 1.678.056.056z" fill="#fff"/></svg>