<svg xmlns="http://www.w3.org/2000/svg" width="128" height="128" fill="#000" xmlns:v="https://vecta.io/nano"><path d="M66.839 24.609h-5.697l-.017-.003v-.001l-.001-.003v-.001-.002-.002-.002-.003-.004-14.136c-.019-1.586 1.279-2.862 2.868-2.862a2.86 2.86 0 0 1 2.868 2.862z"/><path fill-rule="evenodd" d="M69.304 35.109l.014 19.009h10.834l16.162 27.923-5.401 9.324 15.505 8.93 4.439-7.68 5.204 2.995-14.203 24.575-5.205-2.995 4.454-7.706-15.521-8.923-5.435 9.383H47.847l-5.326-9.206-15.607 8.983 4.452 7.686-5.201 3-14.226-24.561 5.201-3 4.461 7.702 15.596-9.012-5.494-9.496 16.143-27.923h10.834V35.109h-8.895v-5.995h28.429v5.995zm-1.923 19.009h-6.762V35.109h6.746zm22.552 38.94l-3.378 5.832 15.515 8.93 3.367-5.825zm-48.394 5.985l-3.381-5.844-15.594 9.014 3.373 5.823zm9.215 5.875h26.092l-5.084-15.219-14.181-7.741-19.592.897zm22.798-15.932l4.727 14.149L90.5 82.041 78.723 61.698zm-1.702-1.424l5.385-28.416H51.198l7.393 21.155zm-33.677-6.653l18.299-.84-6.711-19.206z"/><path d="M16.569 112.865l-2.849-4.931c0-.019-.019-.019-.019 0l-12.267 7.058c-1.376.793-1.841 2.533-1.046 3.906a2.86 2.86 0 0 0 3.915 1.044l12.267-7.058zm94.862-.27l2.849-4.931s.019-.019.019 0l12.267 7.058a2.85 2.85 0 0 1 1.047 3.906 2.86 2.86 0 0 1-3.915 1.044z"/></svg>