<svg xmlns="http://www.w3.org/2000/svg" width="128" height="128" fill="none" xmlns:v="https://vecta.io/nano"><path fill-rule="evenodd" d="M12.047 64c0-18.217 14.699-32.941 32.777-32.941 18.015 0 32.675 14.623 32.775 32.753H63.657L44.424 42.729 24.847 64.188h13.507c.051 12.531 5.21 23.862 13.502 31.994a32.77 32.77 0 0 1-7.033.759c-18.078 0-32.777-14.724-32.777-32.941zm38.354.188c.101 18.13 14.76 32.753 32.776 32.753 18.078 0 32.776-14.724 32.776-32.941s-14.698-32.941-32.776-32.941a32.77 32.77 0 0 0-7.033.759c8.292 8.132 13.45 19.464 13.502 31.994h13.13L83.2 85.271 63.967 64.188zm13.596 40.486c-5.82 2.768-12.325 4.314-19.174 4.314C20.044 108.988 0 88.822 0 64s20.044-44.988 44.824-44.988c6.865 0 13.367 1.548 19.179 4.314 5.819-2.768 12.325-4.314 19.174-4.314C107.956 19.012 128 39.178 128 64s-20.044 44.988-44.823 44.988c-6.865 0-13.367-1.548-19.179-4.314z" fill="#f36eae"/></svg>