<svg xmlns="http://www.w3.org/2000/svg" viewBox="0 0 1404 1404" fill="none" width="128" height="128" xmlns:v="https://vecta.io/nano"><path d="M151.854 1178.566a733.45 733.45 0 0 1-61.784-82.366L484.369 701.94 90.07 307.64a736.9 736.9 0 0 1 61.784-82.326L628.48 701.94zM38.235 402.845A718.68 718.68 0 0 0 .08 508.802L193.218 701.94.08 895.078a720.5 720.5 0 0 0 38.154 105.957L337.329 701.94zM702.02 775.6l-476.626 476.626c25.943 22.519 53.455 43.165 82.327 61.785l394.299-394.3 394.259 394.3c28.87-18.62 56.385-39.265 82.326-61.785zm299.095 590.286L701.98 1066.751l-299.095 299.095c34.271 15.458 69.7 28.212 105.957 38.154l193.138-193.138L895.158 1404c36.256-9.998 71.682-22.792 105.957-38.274zM702.02 628.4l476.586-476.626a729.19 729.19 0 0 0-82.326-61.745L702.02 484.289 307.721 90.029c-28.862 18.617-56.373 39.25-82.327 61.745zm663.746 372.635a718.58 718.58 0 0 0 38.154-105.957L1210.782 701.94l193.138-193.138c-9.934-36.272-22.692-71.715-38.154-105.997L1066.671 701.94zM919.631 701.94l394.299-394.3c-18.64-28.856-39.285-56.365-61.785-82.326L775.68 701.94l476.626 476.626c22.499-25.974 43.145-53.496 61.785-82.366zM701.98 337.249l299.135-299.095A722.01 722.01 0 0 0 895.158 0L701.98 193.138 508.842 0c-36.252 9.958-71.678 22.715-105.957 38.154z" fill="url(#A)"/><defs><radialGradient id="A" cx="0" cy="0" r="1" gradientUnits="userSpaceOnUse" gradientTransform="matrix(2066.7425,0,0,2066.7425,1527.6899,1406.9689)"><stop stop-color="#02e1b3"/><stop offset=".35" stop-color="#0b54ff"/><stop offset=".43" stop-color="#1152ff"/><stop offset=".54" stop-color="#204bff"/><stop offset=".66" stop-color="#3b40fe"/><stop offset=".8" stop-color="#5f31fe"/><stop offset=".93" stop-color="#8e1efd"/><stop offset="1" stop-color="#a714fd"/></radialGradient></defs></svg>