<svg xmlns="http://www.w3.org/2000/svg" xmlns:xlink="http://www.w3.org/1999/xlink" width="128" height="128" xmlns:v="https://vecta.io/nano"><use xlink:href="#B" fill="#a16552"/><use xlink:href="#B" fill="#f5dcb4"/><use xlink:href="#C" fill="#a16552"/><use xlink:href="#C" fill="#f5dcb4"/><use xlink:href="#D" fill="#a16552"/><use xlink:href="#D" fill="#f5dcb4"/><path d="M45.99 95.861a2.029 2.029 0 0 0-2.017 2.294c1.259 8.952 9.754 15.874 20.027 15.874s18.775-6.922 20.027-15.874a2.029 2.029 0 0 0-2.014-2.294z" fill="#4e3f3f"/><path d="M52.368 110.697a21.972 21.972 0 0 0 23.265 0c-1.46-5.053-6.126-3.889-11.642-3.889s-10.163-1.164-11.623 3.889z" fill="#e6646e"/><path d="M119.772 43.189c-4.185-1.624-7.504-.768-9.839.576a51.335 51.335 0 0 0-1.967-4.937q-.812-1.768-1.753-3.489c-6.403-11.714-17.17-21.437-29.517-25.546l-.252-6.652-7.998 4.802-.963-.107c-.592-.053-1.177-.094-1.775-.12l-1.167-5.034-.343-1.454c-.4 0-.79 0-1.17.044-7.441.604-11.145 7.366-11.724 8.524-12.366 4.109-23.114 13.835-29.517 25.543q-.944 1.718-1.753 3.489a52.546 52.546 0 0 0-1.97 4.937l-.299-.167c-2.316-1.243-5.532-1.96-9.537-.409C-.565 46.6-2.937 61.093 4.189 70.136c2.907 3.675 5.978 5.689 8.911 6.586l-.11.497a34.573 34.573 0 0 0-.796 7.391c0 17.252 12.724 32.094 30.955 38.617a60.315 60.315 0 0 0 13.234 3.106 63.518 63.518 0 0 0 7.061.441h.56c28.611 0 51.804-18.879 51.804-42.163a34.573 34.573 0 0 0-.796-7.397l-.113-.497c2.948-.897 6.007-2.91 8.911-6.589 7.13-9.034 4.754-23.529-4.037-26.937zM17.131 46.833a44.268 44.268 0 0 0-1.573 11.529v.809a59.302 59.302 0 0 1-1.573 13.986c-2.171-.771-4.405-2.332-6.538-5.034-5.613-7.111-3.747-18.514 3.175-21.198 2.618-1.013 4.808-.799 6.519-.135a.233.233 0 0 0-.009.044zm83.164 24.074a19.385 19.385 0 0 1-1.306 2.394 12.536 12.536 0 0 0-1.378 10.755c.922 2.712 1.746 5.783 1.746 8.068-.006 16.714-15.83 30.244-35.357 30.244s-35.36-13.53-35.36-30.244c0-2.284.824-5.349 1.746-8.068a12.526 12.526 0 0 0-1.375-10.752 19.445 19.445 0 0 1-3.058-10.427c0-11.091 9.439-20.087 21.097-20.087a21.808 21.808 0 0 1 10.745 2.8 12.548 12.548 0 0 0 12.41 0 21.783 21.783 0 0 1 10.742-2.797c11.642 0 21.1 8.996 21.1 20.087a19.159 19.159 0 0 1-1.753 8.027zm20.263-2.781c-2.13 2.697-4.367 4.257-6.538 5.034a59.421 59.421 0 0 1-1.573-13.983v-.809a44.117 44.117 0 0 0-1.589-11.573c1.712-.664 3.902-.878 6.519.135 6.922 2.678 8.791 14.08 3.181 21.195z" fill="#a16552"/><g fill="#4e3f3f"><rect x="-52.254" y="83.776" width="3.398" height="7.715" rx="1.649" transform="rotate(294.55)"/><rect x="-105.441" y="24.936" width="3.398" height="7.715" rx="1.649" transform="rotate(245.45)"/><path d="M45.833 70.9h0c-3.345 0-6.057-2.568-6.057-5.739v-1.913c0-3.168 2.712-5.739 6.057-5.739h0c3.345 0 6.054 2.571 6.054 5.739v1.913c0 3.172-2.709 5.739-6.054 5.739z"/></g><path d="M45.833 57.509v6.696a3.03 3.03 0 0 0 6.054 0v-.944c0-3.194-2.709-5.752-6.054-5.752z" fill="#5d5360"/><ellipse cx="45.833" cy="61.335" rx="2.02" ry="1.913" fill="#fff"/><path d="M82.169 70.9h0c-3.345 0-6.054-2.568-6.054-5.739v-1.913c0-3.168 2.709-5.739 6.054-5.739h0c3.345 0 6.057 2.571 6.057 5.739v1.913c0 3.172-2.719 5.739-6.057 5.739z" fill="#4e3f3f"/><path d="M82.169 57.509v6.696a3.033 3.033 0 0 0 6.057 0v-.944c0-3.194-2.719-5.752-6.057-5.752z" fill="#5d5360"/><ellipse cx="82.169" cy="61.335" rx="2.02" ry="1.913" fill="#fff"/><defs ><path id="B" d="M17.131 46.833a44.268 44.268 0 0 0-1.573 11.529v.809a59.302 59.302 0 0 1-1.573 13.986c-2.171-.771-4.405-2.332-6.538-5.034-5.613-7.111-3.747-18.514 3.175-21.198 2.618-1.013 4.808-.799 6.519-.135a.233.233 0 0 0-.009.044z"/><path id="C" d="M120.559 68.125c-2.13 2.697-4.367 4.257-6.538 5.034a59.421 59.421 0 0 1-1.573-13.983v-.809a44.117 44.117 0 0 0-1.589-11.573c1.712-.664 3.902-.878 6.519.135 6.922 2.678 8.791 14.08 3.181 21.195z"/><path id="D" d="M98.99 73.301a12.536 12.536 0 0 0-1.378 10.755c.922 2.712 1.746 5.783 1.746 8.068-.006 16.714-15.83 30.244-35.357 30.244s-35.36-13.53-35.36-30.244c0-2.284.824-5.349 1.746-8.068a12.526 12.526 0 0 0-1.375-10.752 19.445 19.445 0 0 1-3.058-10.427c0-11.091 9.439-20.087 21.097-20.087a21.808 21.808 0 0 1 10.745 2.8 12.548 12.548 0 0 0 12.41 0 21.783 21.783 0 0 1 10.742-2.797c11.642 0 21.1 8.996 21.1 20.087a19.159 19.159 0 0 1-1.753 8.027 19.385 19.385 0 0 1-1.306 2.394z"/></defs></svg>