<svg xmlns="http://www.w3.org/2000/svg" width="128" height="128" viewBox="0 0 33.867 33.867" fill="#fed702" xmlns:v="https://vecta.io/nano"><path d="M18.333 21.808c-.016 0-.029.002-.045.009a3.4 3.4 0 0 1-1.353.279 3.38 3.38 0 0 1-1.351-.279c-.113-.048-.206.097-.122.187a2.02 2.02 0 0 0 1.476.64c.579 0 1.102-.245 1.475-.64.072-.079.011-.197-.079-.197zm10.651-1.058c-.018-.079-.041-.155-.066-.229l-5.669-16.1A6.75 6.75 0 0 0 19.56.517 6.59 6.59 0 0 0 17.005 0a6.54 6.54 0 0 0-2.544.515l-.009.005c-1.713.721-3.055 2.139-3.7 3.913l-5.556 15.34c-.281.658-.437 1.388-.437 2.153 0 1.749.815 3.303 2.078 4.292a2.13 2.13 0 0 1 .249.226l.12.12 6.219 5.837a5.15 5.15 0 0 0 2.363 1.317 5.09 5.09 0 0 0 2.446 0 5.16 5.16 0 0 0 2.363-1.317l6.217-5.837.518-.554c.025-.032.052-.06.079-.088 1-1.037 1.697-2.419 1.697-3.996a5.44 5.44 0 0 0-.124-1.176zm-8.98 8.549c-.837.693-1.906 1.109-3.067 1.109s-2.229-.416-3.067-1.109c-.247-.203-.247-.587 0-.792.837-.693 1.906-1.109 3.067-1.109s2.229.416 3.067 1.109a.52.52 0 0 1 0 .792zm4.678-4.608l-3.058 3.121c-.256.261-.67.291-.951.058a5.83 5.83 0 0 0-3.739-1.347 5.83 5.83 0 0 0-3.739 1.347.69.69 0 0 1-.439.16.71.71 0 0 1-.509-.217L9.19 24.69a.74.74 0 0 1 .025-1.063c2.136-1.922 4.85-2.971 7.722-2.971s5.585 1.049 7.722 2.971c.306.277.312.765.022 1.063zm-.025-8.226c-2.136 1.922-4.85 2.971-7.722 2.971s-5.585-1.049-7.722-2.971a.74.74 0 0 1-.025-1.063l3.058-3.121c.256-.261.67-.291.951-.058a5.83 5.83 0 0 0 3.739 1.347 5.82 5.82 0 0 0 3.736-1.347c.283-.233.695-.203.951.058l3.058 3.121a.74.74 0 0 1-.022 1.063z"/></svg>