<svg xmlns="http://www.w3.org/2000/svg" width="128" height="128" fill="none" xmlns:v="https://vecta.io/nano"><path fill-rule="evenodd" d="M116.029 30.469a118.03 118.03 0 0 1-42.281 50.837 117.77 117.77 0 0 1-62.947 20.078 63.57 63.57 0 0 1-9.543-22.865c-1.651-8.175-1.678-16.596-.08-24.782a63.57 63.57 0 0 1 9.395-22.926c4.604-6.95 10.53-12.924 17.44-17.58a63.36 63.36 0 0 1 22.829-9.558c8.163-1.654 16.57-1.681 24.743-.08s15.952 4.798 22.89 9.41 12.904 10.547 17.553 17.467zm10.523 34.967c0 13.262-4.142 26.191-11.845 36.977s-18.582 18.889-31.113 23.174c3.986-32.172 16.542-62.677 36.351-88.315 4.349 8.75 6.61 18.39 6.606 28.164zm-6.28-43.199v7.737c0 .079.02.157.059.226a.45.45 0 0 0 .162.165c.067.04.144.061.222.061s.155-.021.222-.06l6.843-3.917a.46.46 0 0 0 .161-.166c.039-.069.059-.146.06-.225V18.32c0-.079-.02-.157-.059-.226a.45.45 0 0 0-.162-.165c-.067-.04-.144-.061-.222-.061a.44.44 0 0 0-.222.06l-6.833 3.917c-.069.038-.127.095-.167.164s-.063.148-.064.228z" fill="#6a3dfe"/></svg>