<svg xmlns="http://www.w3.org/2000/svg" width="128" height="128" viewBox="0 0 33.867 33.867" xmlns:v="https://vecta.io/nano"><defs><linearGradient id="A" x1="16.933" y1="33.867" x2="16.933" y2=".009" gradientUnits="userSpaceOnUse"><stop offset="0" stop-color="#0097fa" stop-opacity=".996"/><stop offset="1" stop-color="#00f3e2"/></linearGradient></defs><path d="M2.302 32.014l-.605-1.977c0-.347 1.858-5.669 2.936-8.41 2.445-6.215 5.983-12.97 9.225-17.613C14.953 2.446 16.838 0 16.952 0c.027 0 .379.41.782.912 4.073 5.078 8.141 12.321 11.276 20.078 1.342 3.322 3.146 8.476 3.16 9.028.004.169-.207.918-.58 2.057l-.586 1.791-.357-1.028c-2.025-5.836-3.963-10.45-6.604-15.723-1.704-3.402-2.79-5.381-4.35-7.923-.823-1.341-2.677-4.151-2.74-4.151s-2.019 2.974-2.797 4.246c-4.076 6.659-7.903 14.9-10.768 23.186l-.482 1.393zm5.574-.267l-.736-1.689.322-.749c2.568-5.97 5.803-12.376 8.825-17.476l.655-1.105.169.267c.532.842 2.142 3.659 3.328 5.822 1.58 2.881 4.005 7.897 5.761 11.919l.57 1.305-.602 1.382-.736 1.697c-.074.173-.153.315-.176.315s-.234-.425-.468-.945a254.57 254.57 0 0 0-5.24-10.797l-2.581-4.803c-.092-.057-2.545 4.609-4.462 8.485-1.318 2.665-3.151 6.528-3.645 7.678-.09.209-.182.381-.205.381s-.373-.759-.778-1.688zm6.529-.028l-.839-1.677 1.678-3.312 1.714-3.312c.02 0 .79 1.49 1.711 3.312l1.675 3.312-.838 1.675-.838 1.675-.836-1.637c-.46-.9-.857-1.637-.882-1.637s-.419.737-.876 1.638l-.83 1.638z" fill="url(#A)"/></svg>