<svg xmlns="http://www.w3.org/2000/svg" width="127.99999" height="127.99999" viewBox="0 0 33.866664 33.866664" xmlns:v="https://vecta.io/nano"><path d="M13.611346 33.715758c.68148-2.240197.37984-5.241528-.77431-7.704421-.45053-.961414-1.63121-2.971554-3.1128398-5.299686-.97652-1.534432-1.90898-3.283607-2.15605-4.044457-.27882-.858657.3811-3.246507 1.3393-4.846064.59438-.99222 1.9124798-2.4277524 2.8309298-3.0831464 1.25652-.896631 3.17545-1.642417 4.81538-1.871483.39244-.05481.40316-.04669.82926.627989.23742.375937.47287.66957.52322.652517s1.45585-1.36162 3.12335-2.987927l4.18256-4.058012 1.15076-1.101088972211L24.527026 3.5816746c-3.16432 6.173446-2.89039 5.564203-2.88639 6.4195124.004.796658.0616.949791 2.5512 6.75162.68099 1.586977.7655 2.235924.38515 2.957516l-.22223.421611-.72639-.0045-1.638-.08762-.91159-.08308-.069-.460154c-.20027-1.335471-1.73436-3.135176-3.76658-4.418706-.28252-.17844-.28388-.177884-.55156.226616-.39946.603619-.51358 1.37297-.33249 2.241489.25208 1.208973 1.0465 2.531898 2.57805 4.293137.71111.817754.76325.913486.97606 1.791849.47033 1.94137.2382 3.795302-.67931 5.425128-.97836 1.737916-2.15695 2.75023-5.59238 4.803374-.0497.0297-.0633-.03495-.0302-.14366z" fill="#ba1595"/></svg>