<svg xmlns="http://www.w3.org/2000/svg" width="128" height="128" viewBox="0 0 33.867 33.867" xmlns:v="https://vecta.io/nano"><defs><clipPath id="A"><circle cx="16.933" cy="16.933" r="16.933" fill="none" stroke="none" stroke-width="2.328" stroke-linejoin="round" stroke-miterlimit="3.2"/></clipPath></defs><g clip-path="url(#A)"><circle cx="16.933" cy="16.933" r="16.933" fill="#5bf1ce"/><path d="M3.873 6.155c-.014.017.484.482 1.131 1.199l5.003 6.1 1.834 2.488.106.152.185.095 2.33 1.326c3.579 2.136 6.985 4.624 10.081 7.366.993.879 1.715 1.56 2.922 2.751L28.813 29l-2.059-3.405c-.956-1.581-2.532-4.576-3.64-6.577L21.1 15.381l-1.368-.777-2.107-1.187-1.371-.779-1.22-.697c-.637-.357-2.275-1.327-3.211-1.901-2.462-1.531-4.931-3.219-6.306-5.613a22.64 22.64 0 0 0-.854.835c-.267.287-.531.585-.791.893z" fill="#55edc0"/><path d="M1.389 10.217c.612-1.509 1.667-3.091 2.484-4.062.018 0 .501.513.929.988 2.778 3.104 4.905 5.789 7.145 8.951L1.389 10.217z" fill="#50e2bd"/><path d="M21.1 15.381l11.903 6.891c-.832 2.724-2.47 5.064-4.19 6.728-2.642-4.391-4.604-7.461-7.713-13.619z" fill="#4cdbb6"/><path d="M21.1 15.381c-2.523-1.437-11.405-5.09-14.761-9.684-.31-.425-.838-1.221-.821-1.27s.606-.522 1.006-.85c2.794 2.947 4.311 3.024 5.543 3.419 1.313.421 4.313.782 4.89.848z" fill="#35ddba"/><path d="M5.614 12.569c1.5.649 3.847 2.197 4.986 2.775l1.347.75.087.144c.191.314 1.203 1.717 1.832 2.656 2.79 4.163 5.345 8.769 7.649 13.245l.491.954c-1.239.386-3.002.775-4.497.775-2.561-7.199-6.776-15.318-11.897-21.298z" fill="#48d6ac"/><path d="M31.875 21.662l-2.794-1.616-7.721-4.488-.26-.176-2.341-4.249-1.802-3.287c3.993 4.484 10.486 9.689 16.231 13.834l-.185.593c-.322-.139-.881-.467-1.128-.61z" fill="#33d4ad"/><path d="M17.511 8.477l-.554-.632 3.311.295c6.632 4.366 13.252 12.024 12.92 13.538-6-4.07-11.58-8.611-15.677-13.201z" fill="#38caa5"/><path d="M12 33.132c-.866-4.518-1.83-8.483-3.902-12.392 5.026 5.204 8.088 7.377 9.414 13.127-2.539.056-4.008-.297-5.511-.735zm18.494-15.771a57.49 57.49 0 0 0-6.96-6.738c-1.084-.838-2.141-1.712-3.265-2.483 2.33.26 6.105.909 8.875 1.433 1.664 1.163 2.931 2.699 4.396 4.048.706 3.641.189 6.15-.351 8.057-.331-1.581-1.644-3.094-2.695-4.317z" fill="#33a8b0"/><path d="M20.268 8.14c-3.288-.328-6.45-.361-10.103-1.743-1.439-.637-2.744-1.824-3.644-2.817 1.087-.814 2.434-1.677 3.559-2.131l3.194 1.317z" fill="#24c79e"/><path d="M1.273 10.491c.36-.76.536-1.479 1.165-2.312 1.101 1.916 2.669 3.878 3.952 5.258-.898-.025-3.411-1.964-5.117-2.946z" fill="#21b2a9"/><path d="M16.783 33.222c-.754-1.42-2.103-3.606-3.413-5.627-1.377-2.123-2.847-4.068-4.674-6.183-2.763-2.724-4.5-5.108-8.288-8.171.11-.765.545-2.089.869-2.757.013.006.573.305.947.557 1.309.881 2.288 1.467 3.288 1.969l.803.395.077.031.582.737c2.294 2.907 4.314 5.993 6.116 9.345.463.861 1.518 3.012 1.912 3.897.86 1.934 1.451 3.04 2.1 4.946.087.238.279.966.411 1.505 0 0-.216.002-.386-.001zM29.143 9.573c-2.983-.567-6.232-1.064-8.875-1.433l-.747-.556c-1.703-1.266-3.964-2.995-5.598-4.301l-.648-.518-3.194-1.317c.622-.277 1.359-.554 2.004-.74 5.686 2.955 12.553 5.143 17.058 8.864z" fill="#2c9e99"/><path d="M9.094 31.943C5.416 25.508 5.518 20.169.407 13.241c.025-.025 1.766 1.472 2.864 2.499 1.618 1.581 3.398 3.493 4.919 5.166 2.23 4.371 2.961 7.984 3.818 12.228-.679-.222-1.195-.218-2.915-1.192zm20.05-22.37c-5.372-4.007-11.7-5.71-17.057-8.864C13.2.409 14.271.13 15.394.07c2.747 1.793 15.043 7.865 17.2 10.422.602 1.427.813 2.513.946 3.129-1.817-1.643-2.667-2.775-4.396-4.048z" fill="#277e99"/><path d="M.408 13.241c1.73 1.89 2.941 4.303 3.829 6.326.74 1.689 1.301 3.208 2.122 5.754l1.456 4.053a26.13 26.13 0 0 0 1.278 2.567C.963 27.863-.95 19.112.408 13.241zm28.736-3.668C24.964 6.339 18.371 3.969 15.394.07c3.954-.308 6.788.525 9.307 1.817 4.404 2.273 6.613 5.335 7.892 8.605-1.131-.382-2.287-.657-3.45-.918z" fill="#1b667c"/><path d="M3.321 27.142C.113 22.526-.543 17.386.408 13.241l.377.406c1.574 1.696 2.569 3.911 3.502 6.056.695 1.597 1.171 2.889 1.981 5.368.714 2.185.87 2.639 1.192 3.458.447 1.137.971 2.225 1.631 3.412-2.528-1.191-4.602-3.268-5.769-4.799z" fill="#1d5f7e"/></g></svg>