<svg xmlns="http://www.w3.org/2000/svg" xmlns:xlink="http://www.w3.org/1999/xlink" viewBox="0 0 96 96" width="128" height="128" xmlns:v="https://vecta.io/nano"><defs><radialGradient id="A" cx="1.607" cy="21.013" fx="1.607" fy="21.013" r="25.505" gradientUnits="userSpaceOnUse"><stop offset="0" stop-color="#80d7f7"/><stop offset=".02" stop-color="#79d5f6"/><stop offset=".158" stop-color="#54c9f4"/><stop offset=".302" stop-color="#35bff2"/><stop offset=".452" stop-color="#1eb7f0"/><stop offset=".61" stop-color="#0db2ef"/><stop offset=".784" stop-color="#03afef"/><stop offset="1" stop-color="#00aeef"/></radialGradient><linearGradient id="B" x1="19.803" y1="9.5" x2="22.197" y2="9.5" gradientUnits="userSpaceOnUse"><stop offset="0" stop-color="#b3e7fa"/><stop offset="1" stop-color="#00aeef"/></linearGradient><linearGradient id="C" x1="1.803" x2="4.197" xlink:href="#B"/><linearGradient xlink:href="#B" id="D"/></defs><g transform="matrix(4.385836 0 0 4.385836 -4.63003 -4.63003)"><path d="M22.936 21.258L18.064 2.742c-.035-.133-.176-.242-.314-.242H6.25c-.138 0-.279.109-.314.242L1.064 21.258c-.035.133.049.242.186.242h5.5c.137 0 .281-.108.319-.24L9 14.5c0 0 6 0 6 0l1.931 6.76c.038.132.181.24.319.24h5.5c.137 0 .221-.109.186-.242zM15.852 10.3h-7.5c-.137 0-.226-.113-.197-.251l.659-3.099c.029-.138.166-.251.303-.251h5.9c.137 0 .276.113.308.251l.718 3.099c.032.138-.054.251-.192.251z" fill="url(#A)"/><path d="M22.189 11.257c.033.133-.052.243-.189.243h-1a.34.34 0 0 1-.311-.243l-.879-3.515c-.033-.133.052-.243.189-.243h1a.34.34 0 0 1 .311.243z" fill="url(#D)"/><path d="M3.311 11.257A.34.34 0 0 1 3 11.5H2c-.137 0-.223-.109-.189-.243l.879-3.515A.34.34 0 0 1 3 7.5h1c.138 0 .223.109.189.243z" fill="url(#C)"/></g></svg>