<svg xmlns="http://www.w3.org/2000/svg" width="128" height="128" viewBox="0 0 33.867 33.867" xmlns:v="https://vecta.io/nano"><path d="M8.272 24.534a4.43 4.43 0 0 1 .997-2.831c.236-.312.136-.762-.21-.945-2.029-1.008-3.467-2.911-3.881-5.139a11.14 11.14 0 0 1 .365-5.085c.097-.359.115-.735.052-1.101a13.42 13.42 0 0 1 .208-7.609C6.436-.001 7.433-.426 9.215.413c1.006.481 1.942 1.099 2.779 1.836.184.21.494.255.729.105a12.24 12.24 0 0 1 9.701.052.56.56 0 0 0 .629-.105c.799-.701 1.681-1.3 2.627-1.783a5.59 5.59 0 0 1 1.311-.472c.731-.169 1.485.176 1.836.839a8.39 8.39 0 0 1 .943 2.937c.318 1.992.211 4.029-.314 5.978a.9.9 0 0 0 .052.524 11.19 11.19 0 0 1 .576 4.563c-.208 2.52-1.72 4.748-3.985 5.872-.36.172-.463.637-.209.945.849 1.081 1.192 2.475.943 3.827 0 .157-.105.261.105.419 1.079.707 1.652 1.974 1.469 3.251a6.66 6.66 0 0 1-.682 2.408 2.53 2.53 0 0 1-2.36 1.521h-.841a3.72 3.72 0 0 0-1.836.365c-.82.393-1.761.45-2.621.157-.052 0-.105-.052-.158-.052-.576-.63-1.311-.472-2.045-.472h-1.101c-.479-.003-.95.123-1.363.365a3.16 3.16 0 0 1-3.251-.158c-.214-.146-.47-.22-.729-.209H9.793c-1.016.003-1.94-.591-2.36-1.516-.343-.689-.557-1.436-.63-2.203a.86.86 0 0 0-.365-.629 5.81 5.81 0 0 1-1.782-8.024c.052-.052.105-.105.105-.157a.42.42 0 0 1 .472-.209c.21.052.263.209.315.419a4.8 4.8 0 0 0 1.471 2.889 3.78 3.78 0 0 0 1.258.839" fill="#2f201c"/><path d="M5.86 15.148a9.62 9.62 0 0 1 .365-4.248c.752-2.602 2.336-4.886 4.51-6.502.314-.263.365-.472.106-.787-.395-.541-.834-1.05-1.311-1.521.209-.21.365-.052.524.052.602.36 1.164.782 1.678 1.259.288.214.67.255.997.106a11.78 11.78 0 0 1 7.236-.729 12.89 12.89 0 0 1 2.412.787.65.65 0 0 0 .729-.106c.523-.465 1.084-.886 1.676-1.258.21-.157.421-.315.682-.157-.447.446-.868.919-1.259 1.415-.365.525-.365.63.158.997a12.43 12.43 0 0 1 4.876 9.118 4.87 4.87 0 0 1-.051 1.521c-.403.684-1.152 1.089-1.945 1.049a4.41 4.41 0 0 1-3.145-1.049 31.42 31.42 0 0 1-2.412-2.203c-.487-.48-1.013-.918-1.573-1.311-1.569-1.138-3.698-1.117-5.245.052-.76.573-1.474 1.204-2.136 1.888-.501.516-1.029 1.007-1.58 1.469-.902.776-2.061 1.188-3.251 1.154-.801.014-1.561-.357-2.044-.997" fill="#eaa548"/><path d="M5.86 15.148a4.2 4.2 0 0 0 1.523.787 4.33 4.33 0 0 0 3.72-1.104c.945-.787 1.835-1.678 2.726-2.517a6.08 6.08 0 0 1 2.465-1.518c1.493-.395 3.085-.021 4.247.997 1.101.891 2.098 1.939 3.2 2.936 1.015 1.056 2.494 1.529 3.933 1.258a3.17 3.17 0 0 0 1.467-.839 4.53 4.53 0 0 1-.158.839c-.283.492-.597.965-.942 1.416a9.8 9.8 0 0 1-3.404 2.202c-1.507.52-3.076.838-4.667.945a23.95 23.95 0 0 1-7.237-.37c-1.994-.32-3.853-1.212-5.349-2.568a6.04 6.04 0 0 1-1.311-1.73 2.92 2.92 0 0 1-.209-.729" fill="#fff"/><path d="M6.069 15.935a8.37 8.37 0 0 1 1.049 1.258c.712.746 1.545 1.367 2.464 1.836 1.834.839 3.811 1.319 5.825 1.415 2.546.248 5.115.071 7.603-.524a10.13 10.13 0 0 0 4.929-2.675c.273-.309.517-.642.729-.996.052-.105.105-.263.315-.263-.416 1.636-1.475 3.036-2.937 3.881-1.659.949-3.499 1.538-5.4 1.73a22.63 22.63 0 0 1-8.6-.472c-1.804-.402-3.448-1.333-4.719-2.675-.632-.714-1.066-1.582-1.258-2.517" fill="#dcdcdc"/><path d="M19.755 32.032a4.57 4.57 0 0 1-.052-1.206v-2.622c0-.105.052-.105.105-.052.105.105.052.263.105.419a32.73 32.73 0 0 0 2.989-3.042 4.1 4.1 0 0 0 1.049-2.255c0-.052.052-.158.052-.21l.576-.261c.263 0 .263.261.315.419a4.95 4.95 0 0 1 .052 2.149 12.96 12.96 0 0 1-1.151 3.671 11.03 11.03 0 0 1-1.154 2.203c-.091.179-.215.338-.365.472-.061.041-.135.06-.209.052a3.95 3.95 0 0 0-2.045.263c-.08.051-.183.051-.263 0m-4.462-2.988v2.989c-.098.052-.216.052-.315 0a3.68 3.68 0 0 0-1.993-.21.41.41 0 0 1-.419-.052 3.06 3.06 0 0 0-.315-.729 19.51 19.51 0 0 1-2.045-5.087 6.08 6.08 0 0 1-.105-2.569c.052-.21.105-.473.315-.577l.576.263a.48.48 0 0 1 .158.365 3.64 3.64 0 0 0 .839 1.888 31.4 31.4 0 0 0 2.884 3.039 1.27 1.27 0 0 1 .419.682" fill="#eaa548"/><path d="M16.136 30.67v-2.412c0-.365-.157-.577-.524-.524a.85.85 0 0 1-.263-.473 9.43 9.43 0 0 0-1.469-2.779 1.24 1.24 0 0 0-.681-.576c-.106-.052-.21-.052-.21-.263l2.517.365c.315 0 .21.158.106.365a1.93 1.93 0 0 0 .472 2.203 2.09 2.09 0 0 0 2.255.419c.976-.443 1.451-1.559 1.094-2.57-.157-.419 0-.419.315-.419.63-.052 1.258-.157 1.945-.261.052.157-.052.209-.105.314-.861.982-1.489 2.145-1.836 3.404-.052.105-.052.209-.157.263-.472-.053-.577.052-.577.524l-.052 2.36c-.808.697-1.998.719-2.831.052" fill="#dcdcdc"/><path d="M12.991 23.695c.996.365 1.362 1.258 1.835 2.097a5.15 5.15 0 0 1 .729 1.945c-.315.158-.263.472-.263.729v.577a47.25 47.25 0 0 1-3.461-3.724 3.53 3.53 0 0 1-.839-2.255l1.994.63m6.507 4.091c.161-.906.519-1.765 1.049-2.517a7.61 7.61 0 0 1 1.094-1.469l2.36-.682a2.15 2.15 0 0 1-.419 1.678 15.44 15.44 0 0 1-2.569 2.989 13.71 13.71 0 0 0-1.206 1.258c-.158-.261 0-.524-.105-.787.02-.184-.06-.364-.21-.472" fill="#fff"/><path d="M22.215 31.665a18.37 18.37 0 0 0 2.464-5.821 5.02 5.02 0 0 0-.105-3.039c.052-.053.157-.106.209-.158.63-.315.63-.315.892.315a5.29 5.29 0 0 1 .105 3.251 18.36 18.36 0 0 1-2.35 5.395c-.105.157-.209.263-.315.419-.365 0-.681 0-.891-.365m-11.802-8.858a6.82 6.82 0 0 0 .315 4.563c.446 1.391 1.081 2.714 1.888 3.932a.28.28 0 0 1-.053.421.54.54 0 0 1-.629.365 10.67 10.67 0 0 1-1.783-3.199 11.28 11.28 0 0 1-1.1-3.933c-.063-.719.063-1.442.365-2.097.263-.524.263-.524.729-.209.106.052.158.105.263.157" fill="#e08532"/><path d="M23.95 32.347a21.72 21.72 0 0 0 2.464-5.401c.105-.314.21-.209.365-.052.572.645.838 1.505.729 2.36a5.44 5.44 0 0 1-.576 1.993 1.87 1.87 0 0 1-1.469 1.101 14.73 14.73 0 0 1-1.521 0m-13.678-.001c-1.146.198-2.232-.581-2.412-1.73-.392-.875-.447-1.864-.157-2.778a2.19 2.19 0 0 1 .576-.945c.157-.157.263-.261.315.052a20.51 20.51 0 0 0 2.31 5.139c.105.21.105.263-.158.263z" fill="#e08432"/><path d="M28.093 7.387a15.12 15.12 0 0 0-2.675-3.094c-.576-.472-.576-.524-.052-1.101.576-.656 1.248-1.221 1.993-1.678a.72.72 0 0 1 .263.419c.352.959.547 1.968.576 2.989a7.83 7.83 0 0 1 .052 1.573c.106.365.106.681-.157.891M7.642 1.566a7.84 7.84 0 0 1 2.31 2.045c.105.158.157.263 0 .419A14.04 14.04 0 0 0 6.96 7.387c-.184-.107-.287-.314-.261-.525-.063-1.556.114-3.112.524-4.614.011-.285.17-.543.419-.682" fill="#b8572a"/><path d="M25.471 1.986c-.67.252-1.279.646-1.783 1.154-.445.583-1.257.74-1.887.365a10.41 10.41 0 0 0-5.506-.787c-1.355.1-2.675.474-3.881 1.101-.157.105-.263.052-.419-.053L9.949 2.194c-.119-.098-.266-.153-.419-.158L8.114.934a2.84 2.84 0 0 1 1.258.473c.841.5 1.631 1.08 2.36 1.732a.64.64 0 0 0 .839.157 11.47 11.47 0 0 1 9.806 0c.254.154.581.111.787-.105a11.57 11.57 0 0 1 3.146-2.149l.419-.158c.052 0 .052 0 .158.052l-1.416 1.049" fill="#f4cb71"/><path d="M4.652 22.699a3.02 3.02 0 0 1 .263-.839c.317.893.838 1.701 1.52 2.36.464.472 1.017.846 1.627 1.101.419.209.419.419.052.681a3.04 3.04 0 0 0-.945 1.049.51.51 0 0 1-.472-.21c-.987-.775-1.674-1.868-1.945-3.093a1.86 1.86 0 0 1-.105-1.049" fill="#e08432"/><path d="M7.642 1.566a12.77 12.77 0 0 0-.787 5.241c.009.196.045.39.105.577l-.681 1.311a2.25 2.25 0 0 1-.21-1.154c-.202-1.707-.059-3.436.419-5.087.052-.209.157-.419.21-.629.261-.729.261-.729.943-.263m20.452 5.825a14.02 14.02 0 0 0-.315-4.667 10.6 10.6 0 0 1-.365-1.206l.052-.052c.577-.365.577-.365.84.263.478 1.22.725 2.517.729 3.827a15.5 15.5 0 0 1-.157 2.727 1.32 1.32 0 0 1-.105.365l-.682-1.258" fill="#cf722e"/><path d="M16.136 30.67c.848.472 1.879.472 2.727 0l.052 1.363c0 .263-.052.315-.263.315h-2.31c-.21 0-.315-.052-.263-.261.044-.471.061-.944.052-1.416" fill="#df8432"/><path d="M4.652 22.699a5.59 5.59 0 0 0 2.464 4.352 3.94 3.94 0 0 0-.261.839c-.053.21-.106.263-.263.105-1.676-1.197-2.448-3.298-1.945-5.296" fill="#dcdcdc"/><path d="M17.133 26.37c-1.326-.432-.122-2.96 1.049-2.203.656.89.055 2.151-1.049 2.203" fill="#f3df5a"/><path d="M10.158 21.65c-.052-.315.052-.365.315-.263a17.9 17.9 0 0 0 5.243 1.049c.524 0 .576.052.524.682-.052.472-.365.209-.576.261-.052 0-.157-.052-.21-.052.053-.105.106-.105.21-.157-1.917-.141-3.788-.658-5.506-1.521m9.335 1.627c-.682.157-.729.105-.729-.524 0-.315.158-.365.419-.365a17.49 17.49 0 0 0 4.037-.63c.462-.116.917-.256 1.364-.419.157-.052.315-.105.263.157a2.43 2.43 0 0 1-1.101.682 16.71 16.71 0 0 1-4.205.942c-.052 0-.157-.053-.105.052a.19.19 0 0 0 .052.105" fill="#a22b2a"/><path d="M12.885 31.665a3.27 3.27 0 0 1 2.412.365c0 .472-.157.839-.629.943-.471.052-.946.052-1.416 0 0-.209.209-.209.315-.209-.205-.179-.398-.372-.577-.577-.105-.157-.209-.314-.105-.524" fill="#fcfcfa"/><path d="M19.755 32.032c.706-.431 1.556-.563 2.36-.365.209.157.052.263 0 .419-.206.328-.473.613-.787.839-.263.21-.576.052-.891.052-.472-.105-.682-.365-.682-.943" fill="#fffcfb"/><path d="M19.493 23.276c-.21-.052-.576.105-.576-.105 0-.263.365-.106.524-.158a21.22 21.22 0 0 0 4.037-.839c.472-.157.891-.419 1.364-.629.052.261-.158.314-.365.419-1.304.63-2.705 1.038-4.143 1.206-.276.061-.557.095-.839.105" fill="#c03433"/><path d="M10.158 21.65c.157-.105.263 0 .419.105a12.06 12.06 0 0 0 4.667 1.206 3.94 3.94 0 0 1 .787.106c.105 0 .209 0 .157.157 0 .105-.105.105-.209.105h-.472c-1.754-.105-3.467-.569-5.034-1.363-.158-.105-.315-.158-.315-.315" fill="#c43533"/><path d="M20.384 32.977c.891.105 1.206-.63 1.678-1.154v-.157h.158a3.13 3.13 0 0 1 .839.419 2.39 2.39 0 0 1-2.675.891" fill="#d9d9d8"/><path d="M12.885 31.665c.157.524.63.729.943 1.154-.157.157-.472-.052-.629.157a1.89 1.89 0 0 1-1.312-.891c.21-.105.421-.263.63-.365a.78.78 0 0 0 .365-.052" fill="#d9d9d9"/><path d="M17.133 26.37c1.101-.472 1.258-.787.997-2.255 1.303.737.425 2.723-.997 2.255" fill="#f9f8f6"/><path d="M17.552 23.171c-.263 0-.524.157-.524-.315 0-.419.209-.365.472-.365s.524-.105.524.365-.315.263-.472.315" fill="#c3c3c2"/><path d="M13.252 32.977c.472-.026.945-.026 1.416 0a3.24 3.24 0 0 1-1.416 0" fill="#d9d9d9"/><path d="M9.634 11.11a1.69 1.69 0 0 1 1.625-1.73c.936-.083 1.77.588 1.888 1.52.122.503-.147 1.02-.63 1.207a3.07 3.07 0 0 1-2.045.261 1.13 1.13 0 0 1-.839-1.258m14.264 1.312a4.09 4.09 0 0 1-1.049-.21 1.26 1.26 0 0 1-.839-1.782 1.77 1.77 0 0 1 1.993-1.101 1.75 1.75 0 0 1 1.416 1.783c0 .891-.524 1.311-1.521 1.311" fill="#2f201c"/><path d="M14.039 7.544a1.05 1.05 0 0 1-1.258.997c-.058.007-.116-.013-.158-.053-.787-.105-1.206-.472-1.153-1.048.145-.711.795-1.205 1.52-1.154.622.085 1.077.631 1.049 1.258m6.975 0c-.003-.628.476-1.153 1.101-1.206.723-.025 1.352.492 1.467 1.206.022.292-.118.572-.365.729-.515.338-1.164.397-1.731.157a1.03 1.03 0 0 1-.472-.891" fill="#fffffc"/><path d="M15.508 12.474a2.37 2.37 0 0 1 2.412-.839 1.4 1.4 0 0 1 .63.157 1.21 1.21 0 0 1 .991 1.416c-.066.584-.421 1.095-.943 1.363-.365.21-.365.21-.052.577.681.365 1.048.315 1.521-.263l.419-.682a.34.34 0 0 1 .524-.157c.199.092.273.338.157.524-.216.574-.624 1.056-1.154 1.364a.65.65 0 0 0-.314.419 2.97 2.97 0 0 1-.945 1.835c-.693.774-1.897.798-2.621.053a3.25 3.25 0 0 1-.945-1.888.8.8 0 0 0-.315-.525c-.472-.322-.837-.779-1.047-1.311-.116-.186-.042-.432.157-.524a.35.35 0 0 1 .524.209 2.96 2.96 0 0 0 .421.682 1.04 1.04 0 0 0 1.625.105c.209-.261 0-.314-.158-.472a1.77 1.77 0 0 1-.891-2.045" fill="#2f201c"/><path d="M15.508 12.474c-.105 1.206.576 1.783 1.573 2.203-.121.15-.286.26-.472.314a1.91 1.91 0 0 1-1.101-2.517" fill="#cbcccd"/><path d="M18.548 15.095c-.236-.095-.451-.238-.63-.419a2.35 2.35 0 0 0 1.679-1.521c.161.333.098.73-.158.997a2.62 2.62 0 0 1-.787.729c-.105.053-.209.053-.105.21" fill="#cccece"/><path d="M11.627 9.956c.315.052.524.157.524.524a.54.54 0 0 1-.524.577.58.58 0 0 1-.576-.577.51.51 0 0 1 .576-.524" fill="#f9f8f8"/><path d="M24.002 10.586c-.023.271-.252.477-.524.472a.58.58 0 0 1-.577-.576c-.004-.3.226-.553.525-.577a.61.61 0 0 1 .576.682" fill="#f7f7f7"/><path d="M17.5 13.05c-.318.017-.637-.018-.943-.105-.419-.21-.419-.525-.053-.787.641-.272 1.368-.253 1.994.052.314.209.314.524-.053.682-.277.186-.621.243-.943.157" fill="#573e39"/><path d="M18.446 17.298c-.349.84-1.539.84-1.888 0 .044-.123.14-.219.263-.263a1.74 1.74 0 0 1 1.625.263" fill="#e18981"/><path d="M18.446 17.298a2.6 2.6 0 0 0-1.888 0c-.209-.157-.261-.315.052-.365a2.92 2.92 0 0 1 1.888 0c.315.105.052.263-.052.365" fill="#eaafa7"/></svg>