<svg xmlns="http://www.w3.org/2000/svg" width="128" height="128" fill="none" xmlns:v="https://vecta.io/nano"><g fill-rule="evenodd"><path d="M63.969881 88.225297l63.715679-3.01041-63.715679-3.011514L.22666129 85.214887zm-.007737 11.03089l43.643886-2.508628-43.643886-2.509457-43.67055 2.509457zm.003869 11.030893l21.564145-2.50946-21.564145-2.50863-21.591224 2.50863z" fill="#8817d1"/><path d="M128 73.810701v-.105827c-.005-2.217949-.15722-4.344716-.4374-6.471758l-.75129-4.236954c-.64077-2.888833-1.52828-5.696153-2.65065-8.404278l-.95963-2.310237-1.3484-2.533496c-2.75206-5.091556-6.34963-9.755604-10.6366-13.855536l-44.063874-1.672317 40.427074-1.533029c-11.425741-9.303366-26.741111-14.974347-43.579507-14.974347-13.683477 0-26.363116 3.745728-36.766808 10.142606l39.919241 1.514378-44.65209 1.695279c-3.709394 2.766233-7.052039 5.896146-9.955074 9.331467l-1.814977 2.188466-1.6409558 2.534823c-2.3343864 3.241681-4.2011993 6.754976-5.641001 10.444834l-.6861301 1.998282-.8149657 2.428498C.67846249 64.412256 0 69.071966 0 73.810701h127.99945z" fill="url(#A)"/></g><path d="M84.049683 48.810351c7.329427-3.975729 12.637087-5.465101 21.102427-3.208524s9.14949 18.295109 12.70119 25.171386c-5.04516-6.219209-7.93344-18.102796-16.75882-18.64326s-17.757127 2.545653-23.470964 8.107243l4.036905 3.253839c-11.369095 6.585322-26.744148 8.064691-39.889924 3.839066 4.721604-.498742 9.214145-2.225962 12.715836-4.888772-5.313739-7.78838-17.728119-10.133985-28.056046-8.554591S15.696624 68.183902 5.7636831 70.961105C14.315566 61.230534 18.742042 48.960941 31.564119 45.309352c4.925245-1.403826 7.53224-1.654827 12.333697.214556 5.794519 2.257737 13.866671 10.347849 20.127604 11.232045 5.575404.788868 15.341619-5.404921 20.024539-7.945602z" fill="#000"/><defs><linearGradient id="A" x1="63.999732367311" y1="73.811262151711" x2="63.999732367311" y2="17.711958992265" gradientUnits="userSpaceOnUse"><stop stop-color="#90c"/><stop offset="1" stop-color="#0cf"/></linearGradient></defs></svg>