<svg xmlns="http://www.w3.org/2000/svg" width="128" height="128" xmlns:v="https://vecta.io/nano"><defs><linearGradient id="A" x1="0" y1="64" x2="128" y2="64" gradientUnits="userSpaceOnUse"><stop offset="0" stop-color="#107239"/><stop offset="1" stop-color="#a5ce38"/></linearGradient></defs><circle cx="64" cy="64" r="64" fill="url(#A)" paint-order="stroke fill markers"/><path d="M70.961 106.226c8.386-1.31 15.74-5.026 21.634-10.932 5.777-5.789 9.397-12.738 10.804-20.74.468-2.66.643-7.788.36-10.506-.904-8.663-4.618-16.676-10.622-22.918-.694-.721-1.284-1.289-1.312-1.262s.389.716.926 1.53c3.045 4.619 5.14 10.344 6.079 16.613.316 2.107.271 9.122-.072 11.273-1.295 8.117-4.654 14.895-10.065 20.306-5.599 5.599-12.888 9.154-21.249 10.363-2.501.362-7.995.36-10.48-.003-10.935-1.597-19.885-7.069-25.525-15.605-1.166-1.765-2.489-4.296-3.217-6.157-.615-1.57-.65-1.516-.157.239 1.822 6.482 5.14 12.144 9.879 16.861 6.411 6.382 14.51 10.217 23.661 11.206 1.42.153 7.834-.031 9.357-.269zM64 98.949a46.49 46.49 0 0 0 3.13-.381c15.907-2.715 27.924-16.44 28.301-32.322.031-1.317.029-2.126-.004-1.796-.52 5.123-1.329 8.227-3.122 11.977-1.648 3.447-3.28 5.795-5.918 8.513-3.616 3.726-7.888 6.432-12.661 8.019-1.912.636-5.282 1.437-5.428 1.29-.042-.042.009-.802.114-1.688 1.12-9.479 5.334-16.02 11.405-17.702 1.483-.411 1.528-.388.496.248-2.253 1.388-4.124 3.094-5.309 4.839-1.197 1.764-2.097 4.099-2.097 5.443v.584l.756-.1c2.091-.277 5.302-1.387 7.17-2.478 2.17-1.267 4.236-3.162 5.539-5.081 1.276-1.879 2.576-5.133 2.726-6.826l.053-.599-1.048-.177c-4.307-.727-8.775-.493-12.169.638-3.638 1.213-6.917 3.774-8.769 6.85l-.52.864-.171-.869c-.564-2.86-1.809-5.887-3.325-8.085-.956-1.386-3.104-3.59-4.52-4.638-4.494-3.327-10.73-5.433-17.654-5.963l-1.319-.101.092.95c.516 5.313 1.092 8.402 2.186 11.729 1.347 4.096 2.862 6.713 5.291 9.141 2.155 2.154 4.284 3.377 7.066 4.057 1.006.246 4.707.387 4.909.187.143-.142-.868-3.951-1.486-5.599-1.787-4.764-4.949-9.196-8.339-11.687l-1.014-.763c-.168-.164 1.506.617 2.509 1.17 5.459 3.012 9.329 8.787 11.021 16.444.606 2.742 1.137 6.892 1.138 8.893l.001.734-1.609-.093c-11.26-.65-21.504-7.532-26.561-17.843-5.437-11.086-3.982-24.205 3.77-33.984 4.888-6.166 12.846-10.686 20.434-11.608 2.817-.342 3.096-.437 1.048-.356-8.79.348-16.69 3.802-22.908 10.016-6.44 6.435-9.953 14.942-9.953 24.105 0 11.484 5.587 21.925 15.195 28.399 6.28 4.231 14.128 6.289 21.558 5.653zm6.512-27.325c3.073-1.256 5.291-3.781 6.499-7.4.807-2.42 1.043-4.1 1.049-7.485.005-2.701-.238-5.445-.496-5.604-.176-.109-3.999 1.803-5.292 2.648-3.404 2.222-5.676 5.026-6.703 8.271-.415 1.311-.575 4.454-.306 6.006.231 1.33.626 2.752.765 2.752.06 0 .153-.253.206-.561.524-3.003 2.972-7.86 4.886-9.694l.781-.749-.486.722c-1.448 2.154-2.63 6.007-2.936 9.567-.055.636-.056 1.39-.002 1.676l.097.519.631-.196c.347-.108.934-.32 1.305-.471zm-14.684-22.75c1.701-.276 3.21-.766 5.075-1.647 1.698-.802 2.381-1.207 6.373-3.781 5.393-3.477 8.361-4.801 11.566-5.159 2.639-.295 5.219.25 7.076 1.494.527.353.99.611 1.028.573.105-.105-1.227-2.519-2.276-4.126-5.309-8.13-13.711-13.366-23.435-14.602-2.723-.346-7.006-.245-9.331.22-5.578 1.116-9.652 3.618-12.207 7.496-1.559 2.366-2.389 4.802-2.527 7.411l-.079 1.497.356-.314c4.879-4.308 9.871-6.494 16.749-7.334 1.604-.196 2.778-.229 5.689-.16 2.017.048 3.934.141 4.26.206.527.106.35.157-1.599.459-7.079 1.097-13.217 4.01-18.197 8.635-1.281 1.19-3.478 3.869-3.478 4.241 0 .391 1.252 1.743 2.319 2.505 1.604 1.145 3.779 1.986 6.173 2.389 1.622.273 4.773.271 6.466-.004z" fill="#fff"/></svg>