<svg xmlns="http://www.w3.org/2000/svg" width="128" height="128" viewBox="0 0 33.867 33.867" xmlns:v="https://vecta.io/nano"><defs><filter id="A" x="3.112" y="2.445" width="29.177" height="33.479" filterUnits="userSpaceOnUse" color-interpolation-filters="sRGB"><feFlood flood-opacity="0" result="A"/><feColorMatrix in="SourceAlpha" values="0 0 0 0 0 0 0 0 0 0 0 0 0 0 0 0 0 0 127 0"/><feOffset dy="2"/><feGaussianBlur stdDeviation="2"/><feColorMatrix values="0 0 0 0 0 0 0 0 0 0 0 0 0 0 0 0 0 0 0.5 0"/><feBlend in2="A"/><feBlend in="SourceGraphic"/></filter><linearGradient id="B" x1=".537" y1="16.933" x2="33.33" y2="16.933" gradientUnits="userSpaceOnUse"><stop stop-color="#0ba360"/><stop offset="1" stop-color="#3cba92"/></linearGradient><mask maskUnits="userSpaceOnUse" id="C"><path d="M24.148 15.237c.311-.734.674-1.051.576-2.37-.119-1.602-1.077-2.636-2.016-3.445-.825-.709-3.278-2.112-3.278-2.112 2.587.59 4.315 1.973 5.145 3.268-.61-2.823-2.747-5.076-5.486-5.851-.672-.212-1.38-.283-2.123-.283H7.764a5.68 5.68 0 0 0 5.662 5.662h3.538c1.168 0 2.123.921 2.123 2.123a2.13 2.13 0 0 1-2.123 2.123H7.272l-.16 1.58.414 2.702.72 1.381h12.26c1.168 0 2.123.921 2.123 2.123a2.13 2.13 0 0 1-2.123 2.123h-.544l-5.664-.028v.028a5.68 5.68 0 0 0 5.662 5.662H21v-.035c4.069-.247 7.289-3.644 7.289-7.749 0-3.008-1.698-5.591-4.14-6.901z" fill="#383838" stroke-width="1"/></mask><clipPath id="D"><path d="M-.697-.29h34.679V34.39H-.697z" fill="none" stroke="none" stroke-width=".265" stroke-linecap="round" stroke-linejoin="round" stroke-miterlimit="3.2" paint-order="stroke fill markers"/></clipPath></defs><path d="M.552 17.412c-.096-2.238.269-4.516 1.087-6.636.41-1.06.926-2.079 1.539-3.044S4.511 5.874 5.31 5.052c1.592-1.649 3.541-2.966 5.682-3.843C13.129.322 15.471-.077 17.789.012c1.158.043 2.318.198 3.447.481 1.129.289 2.226.703 3.268 1.233 2.077 1.062 3.935 2.577 5.345 4.438a17.02 17.02 0 0 1 2.981 6.263c.275 1.129.43 2.283.481 3.439l-.004 1.739c-.026.587-.131 1.195-.222 1.725l-.086.493-.483-.003-5.588-.086-5.588-.118-5.588-.155-5.588-.218 5.588-.218 5.588-.155 5.588-.118 5.588-.086-.569.489.177-1.606c.02-.532-.002-1.08-.031-1.619-.067-1.081-.241-2.151-.508-3.193-.528-2.088-1.474-4.067-2.787-5.761s-2.983-3.107-4.889-4.09a14.65 14.65 0 0 0-2.995-1.154c-1.036-.281-2.104-.449-3.182-.508-2.155-.128-4.326.214-6.357.966s-3.9 1.945-5.492 3.439a16.62 16.62 0 0 0-2.153 2.475c-.64.891-1.195 1.849-1.649 2.854-.911 2.012-1.435 4.212-1.531 6.452z" fill="url(#B)"/><path d="M10.273 13.431l6.77-.192 3.384.043 3.384.149-3.384.149-3.384.043-6.77-.192z" fill="url(#B)"/><path d="M26.672 10.367c-.679-.681-1.38-1.333-2.145-1.888a9.24 9.24 0 0 0-2.485-1.288c-.885-.294-1.814-.438-2.75-.497-.938-.047-1.884-.039-2.807.106s-1.833.387-2.685.769-1.647.889-2.349 1.513a9.82 9.82 0 0 0-1.816 2.155c-.502.803-.901 1.678-1.156 2.603.155-.948.489-1.869.948-2.724s1.046-1.647 1.753-2.326c1.405-1.372 3.284-2.238 5.221-2.528.968-.159 1.953-.181 2.925-.116s1.953.249 2.877.593c.917.357 1.778.86 2.516 1.496s1.384 1.358 1.953 2.132z" fill="url(#B)"/><path d="M17.149 32.493c-2.075.116-4.185-.296-6.122-1.105a15.37 15.37 0 0 1-2.764-1.515c-.866-.599-1.67-1.293-2.397-2.057-.72-.771-1.364-1.615-1.91-2.518-.538-.905-.993-1.861-1.331-2.858-.697-1.986-.932-4.104-.828-6.175.135 2.069.493 4.116 1.248 6.02.744 1.902 1.837 3.659 3.237 5.135 1.39 1.484 3.078 2.685 4.925 3.558 1.853.864 3.871 1.39 5.943 1.515z" fill="url(#B)"/><path d="M22.576 23.48l2.283-.21 2.283-.153 2.283-.11 2.283-.076.826-.023-.322.789c-.612 1.496-1.403 2.932-2.389 4.232s-2.169 2.465-3.519 3.388l-1.021.661-.534.302-.546.277c-.736.353-1.502.638-2.283.85a12.91 12.91 0 0 1-4.77.385c1.578-.173 3.105-.53 4.536-1.097a15.44 15.44 0 0 0 2.067-.997c.663-.379 1.282-.818 1.896-1.284 1.211-.922 2.281-2.012 3.203-3.225s1.702-2.538 2.357-3.931l.501.767-2.283-.075-2.283-.11-2.283-.153-2.283-.208z" fill="url(#B)"/><path d="M7.361 13.194c-.404 1.568-.559 3.195-.351 4.775s.783 3.089 1.682 4.381a9.84 9.84 0 0 0 1.551 1.763 10.14 10.14 0 0 0 1.906 1.366c1.368.744 2.925 1.211 4.465 1.091l.014-.002h.012l1.56-.065a10.94 10.94 0 0 0 1.539-.261 8.36 8.36 0 0 0 1.484-.5c.475-.218.942-.473 1.35-.824-.326.428-.758.779-1.221 1.066-.461.294-.966.518-1.482.701a10.24 10.24 0 0 1-1.594.396 12.94 12.94 0 0 1-1.637.141l.026-.002c-.85.073-1.702-.018-2.518-.222s-1.598-.528-2.326-.938a10.55 10.55 0 0 1-2.018-1.476c-.608-.573-1.148-1.215-1.602-1.912-.909-1.397-1.454-3.024-1.572-4.669s.161-3.292.732-4.809z" fill="url(#B)"/><g filter="url(#A)" transform="matrix(.976571 0 0 .976571 .680893 .282728)" clip-path="url(#D)"><g mask="url(#C)" transform="matrix(1.174267 0 0 1.174267 -2.243114 -2.095345)"><path d="M64.858-23.111h-80.857v80.857h80.857z" fill="#1a2819"/><path d="M-15.999 29.769c1.941-1.246 8-2.862 10.22-2.229.901.258 1.655.862 2.476 1.314a7.92 7.92 0 0 0 7.004.247c3.282-1.509 5.952-4.425 9.244-1.147.91.907 1.678 1.968 2.718 2.724 1.675 1.214 3.508 1.248 5.445.845 2.103-.437 3.97-.009 5.876.978 3.18 1.648 6.452 3.532 8.951 6.13.757.788 1.358 1.716 2.132 2.487 2.153 2.146 5.376 2.82 8.414 2.88 2.306.046 4.773-.163 6.755 1.015.939.558 1.947 1.147 2.535 2.068 1.968 3.079 3.596 3.527 9.085 2.485v-72.676h-80.857z" fill="#2c4a28"/><path d="M-15.999 26.775c2.605-.74 6.21-3.84 8.903-3.833 1.502.004 2.736 1.099 3.977 1.945 1.429.974 3.321 1.676 4.859.882 2.903-1.502 1.612-5.876 5.173-6.949 3.765-1.136 4.347 3.589 5.844 5.753 1.113 1.611 3.216 1.684 4.951 1.268 1.689-.405 3.513-2.231 5.317-1.701 1.15.338 1.774 1.534 2.368 2.576 1.396 2.448 3.227 4.859 5.538 6.508 1.145.816 2.446 1.451 3.87 1.538 1.611.098 2.807-.805 4.261.444.877.754 1.424 1.812 2.146 2.715a8.62 8.62 0 0 0 4.677 2.969c3.054.731 6.526-.203 9.23 1.394 1.154.681 2.016 1.751 3.042 2.613 1.936 1.628 4.446 1.575 6.701.617v-68.624h-80.857z" fill="#2d6409"/><path d="M-15.999 23.3c3.364-.446 11.371-1.762 14.382-3.328 4.734-2.462 9.652-5.413 14.805-6.887.981-.281 2.164-.46 2.912.235.825.766.604 2.133.108 3.145s-1.223 1.98-1.237 3.106c-.016 1.298.974 2.446 2.16 2.978s2.53.56 3.826.498 2.606-.203 3.886.025c3.214.569 4.652 3.229 6.457 5.62 1.852 2.451 2.978 4.174 6.222 4.834 1.97.4 4.002.398 5.977.77 3.723.7 7.054 2.685 10.528 4.196 6.72 2.921 3.541 4.3 10.832 3.586v-65.186h-80.859z" fill="#729b25"/><path d="M-15.999 13.209c1.175.462 3.719 2.06 6.999 1.307 1.31-.3 5.684-4.069 6.917-5.12C-.984 8.459.644 7.805 1.88 8.551c.594.359.981.976 1.504 1.433 1.424 1.239 3.596 1.083 5.385.478s3.476-1.588 5.353-1.803c3.163-.363 4.119 1.556 4.779 4.119 1.061 4.119 3.961 5.769 7.068 8.107 1.461 1.099 3.387 1.596 5.136 2.027 3.31.812 6.8 1.026 10.041 2.116 2.901.976 4.62 3.227 6.843 5.191 2.469 2.183 5.602 3.563 8.855 4.043a17.57 17.57 0 0 0 5.225-.004c1.266-.194 1.581-1.252 2.789-1.092v-56.277h-80.857z" fill="#cbe369"/></g></g></svg>