<svg xmlns="http://www.w3.org/2000/svg" width="128" height="128" fill="none" xmlns:v="https://vecta.io/nano"><g clip-path="url(#A)" transform="matrix(1.066667 0 0 1.066667 -.000002 -1.221128)" fill="red"><path d="M81.394 13.252l-2.105 1.461c-.262.18-.643.333-.293.709.308.329.274 1.12.997.914 6.175-1.764 10.812.934 14.702 5.305 4.193 4.705 6.87 10.318 8.827 16.265 1.378 4.181 3.464 7.997 5.741 11.726 3.165 5.203 6.638 10.196 10.276 15.077.115.153.21.318.319.477s.215.352.075.52c-.191.22-.322-.05-.482-.095l-10.334-2.919 3.143 13.365-8.359-7.766-.21.079 2.011 14.37-.169.1-8.324-10.124-3.444 14.671-5.513-8.843-2.77 11.038c-.449-.105-.384-.473-.435-.71l-7.49-31.574-2.33-11.214a18.513 18.513 0 0 0-1.794-4.822c-1.6-3.038-4.401-4.15-7.558-4.718-3.804-.686-7.655-.871-11.497-1.133-3.94-.27-7.886-.496-11.803-1.001-2.453-.318-4.483-1.604-6.217-3.314-3.253-3.242-5.251-7.1-5.268-11.792a8.95 8.95 0 0 1 2.51-6.315c2.184-2.342 4.48-4.546 7.017-6.477.265-.191.49-.501.988-.45-.26.766-.544 1.506-.756 2.26-.47 1.661-.838 3.334-.461 5.08.277 1.292 1.19 2.077 2.149 2.823.482.383.677-.191.88-.42 1.973-2.211 3.91-4.452 5.658-6.848a6.264 6.264 0 0 1 1.317-1.406l-.865 5.53 9.377-7.162c-.123.847-.575 1.3-.816 1.844-.442 1.001-1.194 1.855-1.422 2.959l-.107.042c.021 0 .052.02.058.013a.316.316 0 0 0 .036-.076c1.722-.588 3.24-1.58 4.874-2.343 1.383-.646 2.727-1.373 4.09-2.06.298-.152.608-.282 1.102-.51L65.406 11.3l10.103-3.636-2.38 7.553 8.127-2.122.138.156z"/><path d="M39.467 84.59l2.64-.192c.481 0 .573-.191.573-.626-.011-1.53-.06-1.56-1.598-1.458l-8.678.513c-5.19.218-8.697-4.495-7.036-9.398l9.76-28.824c.711-2.128 1.643-4.058 3.478-5.45 1.571-1.188 3.324-1.913 5.297-1.913 5.358.02 10.716-.228 16.053.254 1.74.157 3.475.414 5.201.7 2.105.351 3.538 1.784 4.862 3.307 1.038 1.194 1.686 2.616 2.163 4.115 1.34 4.236 3.102 8.343 3.915 12.75.972 5.258 2.405 10.411 3.636 15.609a1.96 1.96 0 0 1-.157 1.465c-1.642 3.062-4.13 4.903-7.626 5.167-3.588.262-7.181.46-10.775.614-1.322.058-.645.917-.718 1.476-.107.815.438.708.957.671l5.243-.327c.454-.03.605.1.632.574l.59 9.25c.041.565-.27.54-.625.575l-7.323.675-12.277 1.03c-.62.057-.973.011-1.007-.69a4.12 4.12 0 0 0-.191-.736c-.305-1.254-.295-1.22-1.596-.932-.595.132-.796.346-.609.957.27.882.502 1.778.687 2.679.107.524.348.714.875.802 1.699.287 3.358-.123 5.03-.243.766-.056 1.047.157 1.026.88a4.48 4.48 0 0 0 .035.478c.191 2.143.945 2.67 3.012 2.088.493-.14.639-.473.593-.942l-.226-2.282c-.044-.383.038-.557.477-.615s.545.165.596.51l.265 1.698c.191 1.175.294 1.25 1.498 1.082.283-.04.574-.09.846-.153.823-.182 1.163-.714 1.087-1.531-.016-.157-.073-.31-.096-.47-.23-1.482-.222-1.436 1.257-1.645.89-.126 1.31.12 1.284 1.047-.019.823.295 1.213 1.22 1.06 1.348-.222 1.75-.488 1.57-1.492-.155-.856.174-1.059.93-1.032.593.021 1.366-.28 1.738 0 .417.31.153 1.135.191 1.734l.697 10.582c.105 1.749-.47 3.293-1.755 4.476-2.72 2.505-5.96 3.93-9.65 4.039a10.344 10.344 0 0 1-10.167-7.107l-6.123-19.377a556.978 556.978 0 0 0-1.68-5.423zm2.59-10.334c3.593.01 6.14-2.086 6.662-5.26.201-1.22.22-2.47.326-3.707l1.066-12.559c.178-2.156-.957-3.515-3.11-3.785-.631-.08-1.259-.176-1.885-.28-4.018-.657-7.937 1.216-9.652 4.785a179.105 179.105 0 0 0-4.273 9.573c-1.753 4.275.662 9.153 5.1 10.416 2.003.568 4.085.616 5.765.813v.004zm30.303-8.83a9.679 9.679 0 0 0-1.566-5.931 5910.387 5910.387 0 0 0-4.556-6.939 9.286 9.286 0 0 0-9.64-3.95c-2.97.632-4.834 3.13-4.495 5.933l1.1 9.95c.478 5.3 4.09 8.68 9.424 8.812 2.532.061 4.798-.86 7.08-1.703.783-.287 1.34-.934 1.757-1.688.762-1.39.96-2.887.896-4.487v.004zM51.584 83.038c.563.53 1.028 1 1.531 1.434.997.87 2.23.867 3.079.011s.836-2.197-.125-3.161a261.18 261.18 0 0 0-4.167-4.064c-1.148-1.084-3.062-.695-3.516.803-.61 2.034-1.086 4.116-1.504 6.2-.25 1.252.5 2.199 1.704 2.457 1.102.236 2.164-.463 2.504-1.67.17-.61.305-1.234.494-2.01zm9.101 29.852a2.077 2.077 0 0 0-2.055-2.166 2.147 2.147 0 1 0 2.055 2.166zM31.809 72.513c-.231-.285-.26-.81-.765-.44-.383.277-.752.574-1.135.847-.191.138-.237.284-.073.463s.247.684.574.454c.508-.362 1.038-.765 1.4-1.317v-.007zm25.812-27.305c.219.337-.325 1.108.523 1.033s.383-.895.553-1.362-.115-.74-.592-.704c-.744.053-.315.671-.484 1.033zm2.8-.205c.182-.547-.11-.692-.45-.67-.978.068-.468.896-.643 1.369-.113.302-.226.784.347.738 1.014-.084.411-1.079.746-1.439zM31.664 75.18c.333 0 1.313-1.506 1.16-1.74s-.402-.556-.75-.19a18.4 18.4 0 0 0-.82.924c-.109.132-.35.262-.191.469a5.17 5.17 0 0 0 .6.537zm42.29-.922c-.016-.218-1.196-1.506-1.34-1.48a.7.7 0 0 0-.394.217c-.191.235.718 1.925 1.01 1.86a.956.956 0 0 0 .73-.597zm-34.877 1.868c-.06-.312.228-.735-.415-.766-.915-.032-.547.687-.637 1.085s-.316 1.034.424.993c.904-.042.33-.905.634-1.312zm-5.855.08c.53-.33.616-.928.914-1.385.203-.31.142-.492-.164-.686s-.462-.053-.605.192l-.681 1.13c-.347.611.287.521.541.75zm37.869-2.593c-.138.012-.33.124-.235.469.126.46.23.924.369 1.38s.44.23.697.149.499-.176.325-.532l-.536-1.116c-.09-.187-.157-.434-.614-.35zm3.762-4.784c-.461-.113-.794.027-.696.425.202.815.985.42 1.496.599.373.132.712-.015.614-.423-.187-.825-.995-.39-1.408-.608zm-7.95-21.04a.78.78 0 0 0-.142-.18c-.234-.17-.523-.573-.749-.105-.256.532-1.257.65-.855 1.531.063.109.164.19.283.228.14.04 1.462-1.267 1.462-1.474zm-1.415-1.16a.957.957 0 0 0-.68-.487c-.166-.038-1.157 1.37-1.111 1.575a.593.593 0 0 0 .541.453c.201.029 1.26-1.224 1.25-1.54zm5.81 7.73l-1.319.815c-.16.101-.361.228-.17.438.155.17.264.544.574.383.47-.268.924-.56 1.363-.877.172-.116.118-.277.042-.422s-.17-.352-.49-.337zm3.316 4.69c-.086-.098-.335-.469-.383-.442-.558.27-1.091.59-1.592.957-.214.158.063.396.155.574a.338.338 0 0 0 .316.1 28.35 28.35 0 0 0 1.416-.747c.115-.075.16-.186.088-.442zm-.278 4.18l1.34-.336c.241-.065.517-.109.383-.488-.106-.28-.205-.543-.59-.44l-1.268.348c-.333.092-.337.334-.27.597s.17.406.405.318zm.51 1.557c.336-.402 1.266.371 1.454-.601.067-.346-.142-.591-.5-.45-.516.207-1.309-.23-1.542.597-.077.27.077.586.587.454zm-4.852-12.77c-.212-.19-.25-.719-.755-.407-.35.218-.687.455-1.034.68-.292.19-.367.41-.15.711s.418.21.655.061l1.045-.662c.125-.082.282-.155.24-.382zm.083 24.14c.228-.101.631-.074.5-.51a14.137 14.137 0 0 0-.538-1.43c-.123-.289-.372-.17-.575-.105-.24.074-.382.191-.27.491.177.444.33.896.496 1.34a.322.322 0 0 0 .387.214zm-1.208-.078c-.296-.4.04-1.24-.748-1.45-.208-.056-.666.093-.503.482.23.55-.013 1.389.813 1.59.266.063.563-.134.438-.622zm-34.002.784c.266.054.383-.026.423-.206.134-.488.283-.97.402-1.46.073-.295-.165-.36-.383-.435s-.354.033-.426.232c-.15.415-.276.842-.445 1.25-.223.539.169.562.43.62zM67.59 51.795l1.217-.821c.228-.146.305-.291.138-.538s-.293-.415-.603-.216c-.4.256-.815.49-1.217.744a.29.29 0 0 0-.09.479c.132.153.215.409.56.35zm5.247 4.512c-.216-.236-.281-.685-.624-.525a8.664 8.664 0 0 0-1.42.936c-.206.155-.028.343.071.494s.274.277.48.159a34.25 34.25 0 0 0 1.296-.793c.088-.063.134-.187.197-.271zM40.76 76.229c.056-.335.078-.635-.402-.677s-.486.287-.526.608-.08.63-.132.942c-.042.262-.11.528.287.554.297.018.574.03.624-.382.038-.354.103-.699.149-1.045zm34.636-9.059c-.406.073-1.13-.155-1.003.484.144.73.997.328 1.512.507.37.127.505-.067.507-.434 0-.857-.66-.421-1.016-.557zM69.5 54.585c.364-.26.838-.575 1.278-.927.174-.141.052-.35-.057-.51a.328.328 0 0 0-.488-.123 35.12 35.12 0 0 0-1.187.78.332.332 0 0 0-.08.498c.098.148.151.366.534.282zm5.027 15.854c-.5-.108-.64.04-.725.271-.108.284.051.394.29.48.36.124.711.266 1.055.425.417.203.543-.04.702-.356.22-.438-.082-.463-.363-.54l-.96-.282v.002zM56.068 44.845c.369.4-.456 1.314.553 1.555.321.079.488-.191.355-.472-.252-.536.232-1.34-.562-1.648-.327-.119-.42.188-.346.564zm17.47 26.85a.542.542 0 0 0-.407.539c-.013.206 1.301 1.238 1.53 1.205.32-.046.355-.339.404-.574s-1.201-1.188-1.536-1.17h.01zm1.945-10.76c-.146-.832-.59-.765-1.04-.438-.352.257-1.232.115-.971.843.31.868.874.01 1.324-.01.243-.01.633-.078.677-.394h.01zm-7.425-11.833c-.115-.176-.233-.54-.469-.488-.645.144-.995.739-1.44 1.17-.206.19.062.382.223.535a.17.17 0 0 0 .084.038c.217.05 1.594-.993 1.593-1.255zM36.241 76.658c-.044.311-.092.59.308.574 1.099-.042.413-.986.708-1.445.174-.272.048-.664-.317-.603-.913.16-.354 1.07-.709 1.48zm39.12-10.28h.382c.348 0 .69.057.685-.498s-.35-.49-.695-.474c-.315.015-.63.03-.941.063-.205.021-.502-.017-.45.32.04.256.037.6.457.585l.552.01zm-2.071-9.204c-.404.017-1.589 1.002-1.531 1.22s.101.45.398.454c.231 0 1.575-1.02 1.53-1.179-.078-.233-.162-.495-.397-.495zm-9.482-11.2c.02-.41-.308-.64-.515-.59-.765.191-.626.97-.86 1.5a.383.383 0 0 0 .393.515c.764-.163.609-.995.982-1.425zm-1.651-.722a.4.4 0 0 0-.34-.476c-.215-.075-.45-.108-.543.18-.145.445-.273.899-.403 1.352a.321.321 0 0 0 .103.38.34.34 0 0 0 .126.059c.151.053.343.13.423-.035.245-.507.45-1.031.634-1.462zM41.49 76.906c-.023.119-.04.238-.052.358 0 .224-.18.563.218.574.295.014.251-.296.272-.507.014-.092.019-.186.014-.28-.05-.43.474-1.134-.073-1.22-.496-.07-.241.748-.371 1.073zm-10.632-5.673c-.044-.111-.082-.287-.233-.222a5.794 5.794 0 0 0-1.604.932c-.14.124-.04.294.136.356s1.684-.875 1.701-1.066zM16.904 39.63c-1.08.191-1.856.982-2.78 1.477-1.468.79-2.81 1.8-4.328 2.503l.011.021c-.143-.803.323-1.462.56-2.158 1.223-3.59 2.726-7.057 4.306-10.508 1.948-4.252 5.42-6.25 9.698-7.235a25.97 25.97 0 0 1 4.727-.631c.507-.021.723.093.87.595 1.296 4.401 3.774 7.964 7.601 10.55.26.175.6.328.134.679-2.593 1.944-3.85 4.784-4.994 7.654-2.408 6.053-3.799 12.41-5.502 18.673-1.41 5.191-2.926 10.333-4.93 15.352-1.61 4.007-4.165 6.877-8.18 8.561-3.287 1.378-6.536 2.838-9.95 3.887a1.557 1.557 0 0 0-.125-.128c1.458-2.796 3.177-5.439 4.744-8.17l1.1-1.894-8.802.624c.015-.461.31-.68.507-.94 2.476-3.277 4.99-6.527 7.168-10.017a18.47 18.47 0 0 0 1.124-2.105c.256-.56.396-1.2-.127-1.688-.557-.518-1.194-.325-1.77.016C5.55 66.173 2.9 66.745 0 66.72l20.129-16.797-.134-.272-9.912 3.636a.874.874 0 0 0-.115-.122l5.04-9.811 1.883-3.733.014-.062v.071zm64.352-26.535c.13-.07.26-.129.398-.018l-.26.18z"/><path d="M10.083 53.283c-.079.065-.161.102-.228 0 0-.011.073-.076.113-.116a.9.9 0 0 1 .115.116zm2.149-8.955l.19-.094v.237zM4.147 89.05c-.079.067-.163.115-.232 0-.01-.015.069-.086.107-.13a1.4 1.4 0 0 1 .125.13zm5.649-45.44a.388.388 0 0 1-.058.067s-.032-.013-.048-.023l.117-.023-.011-.02zM41.637 5.907l-.025-.069.058.004zM56.659 10.7a.313.313 0 0 1-.036.077s-.037 0-.058-.013l.107-.042-.013-.021zM16.904 39.63v-.075l-.013.062.014.013zM68.96 65.802c-.024 2.488-1.723 4.483-4.21 4.935l-3.095.55a3.936 3.936 0 0 1-4.63-3.107 72.212 72.212 0 0 1-.728-4.03c-.574-3.919 2.337-6.766 6.258-6.142 3.888.618 6.443 3.728 6.404 7.794zm-6.403-3.85a3.734 3.734 0 1 0-.087 7.467 3.734 3.734 0 0 0 .087-7.467zm1.605 3.731c0 1.001-.662 1.67-1.663 1.688a1.597 1.597 0 0 1-1.707-1.642c-.019-1.033.704-1.776 1.709-1.755a1.637 1.637 0 0 1 1.661 1.71zm-4.392 1.399c-.36-.117-.656-.302-.606-.735s.316-.593.736-.553a.575.575 0 0 1 .575.64c-.027.397-.3.612-.705.648zm-21.534-1.538c-.05-.436-.35-.659-.586-.903-1.676-1.753-1.687-1.748-.093-3.422 1.062-1.12 1.22-1.117 2.233.02 1.479 1.647 1.477 1.647 2.935.036l.67-.68c.427-.446.82-.382 1.22.046l1.587 1.652c.496.488.456.945-.02 1.397l-1.342 1.215c-.574.495-.519.945.032 1.427l1.449 1.386c.478.465.49.926 0 1.398l-1.422 1.413c-.505.526-1.005.484-1.487 0a15.74 15.74 0 0 1-1.215-1.34c-.559-.723-1.068-.65-1.642-.015l-1.106 1.186c-.52.553-1.018.574-1.53-.03a12.944 12.944 0 0 0-.994-1.032c-1.025-.98-1.033-1.353-.005-2.319l.974-.913c.131-.162.246-.337.342-.522z"/><path d="M39.825 64.462l-.046.134-.088-.069.14-.059z"/></g><defs><clipPath id="A"><path fill="#fff" d="M0 0h120v120H0z"/></clipPath></defs></svg>