<svg xmlns="http://www.w3.org/2000/svg" width="128" height="128" viewBox="0 0 33.867 33.867" xmlns:v="https://vecta.io/nano"><path d="M29.275 8l2.273 5.552c.506 1.595-.507 3.958-4.682 1.95-2.973-1.417-5.125-2.422-3.353-4.784a22.74 22.74 0 0 1 2.92-3.189c1.148-1.003 1.859-1.634 2.843.472zm-.99 15.993c2.187-2.15 5.225.255 3.103 3.142-4.276 5.845-11.741 8.177-18.43 5.828s-11.2-8.771-11.199-16.117c-.017-4.401 1.443-8.074 4.233-11.382C8.677 2.459 12.675.051 16.617 0c5.542 0 8.018 4.848 6.066 7.551-2.181 3.006-4.717 2.761-6.603 1.472l-3.361-2.454c-1.18-.92-2.477-.92-2.949.553-.825 2.638-1.237 4.295-1.886 6.933-.302 1.327-.46 2.685-.471 4.049.013 2.511 1.119 4.88 3.007 6.442a31.49 31.49 0 0 0 4.186 3.313c1.193.814 2.583 1.261 4.01 1.289h.117c1.427-.028 2.816-.475 4.01-1.289 1.927-1.16 3.779-2.451 5.542-3.866zm-15.591-3.04c-.786-.288-2.567-1.842-2.044-2.994.21-.634 1.729-.806 2.2-.806 2.778-.057 2.882 4.895-.157 3.8zm4.886 5.276c-.355-.318-1.006-.954-1.598-1.485-.164-.178-.195-.426-.081-.632s.355-.333.612-.322a30.92 30.92 0 0 1 3.135 0c.242.018.452.158.54.361s.039.433-.126.593c-.59.531-1.241 1.167-1.537 1.485a.72.72 0 0 1-.473.16c-.175.003-.344-.053-.473-.16zm6.231-5.276c-3.039 1.095-2.935-3.857-.157-3.8.471 0 1.938.172 2.2.806.523 1.152-1.257 2.706-2.044 2.994z" fill="#25b135"/></svg>