<svg xmlns="http://www.w3.org/2000/svg" fill="none" width="128" height="128" xmlns:v="https://vecta.io/nano"><path d="M64 127.999c35.346 0 64-28.653 64-63.999S99.346 0 64 0 0 28.654 0 64s28.654 63.999 64 63.999z" fill="#fff"/><path d="M113.574 24.078c-4.438.877-8.671 2.116-12.155 2.89-7.948 1.781-15.381 7.871-17.006 19.019-1.445 9.961 1.909 14.245.438 25.832-2.58 20.233-21.987 27.2-31.045 31.433-5.239 2.426-17.961 8-27.768 12.258C36.671 123.355 49.781 128 64.001 128 99.355 128 128 99.355 128 64c0-15.071-5.213-28.929-13.935-39.845l-.49-.077z" fill="url(#A)"/><path d="M56.8 54.606c4.929-10.658 3.148-10.684 6.89-20.697 4.723-12.697 19.406-9.084 23.458-8.542 6.684.903 8.439-1.471 22.529-3.742l2.039-.284C100 8.258 82.967 0 64 0 38.529 0 16.542 14.864 6.245 36.413c21.11 5.239 43.897 16.619 50.555 18.194zM42.813 11.148c1.858.284 10.89 11.51 12.594 40.335 0 0-11.613-2.787-14.116-8.774-2.065-4.929.619-11.406 1.523-31.561zm71.148 12.877c.026.052.077.077.103.129-.155-.026-.335-.026-.491-.052.129-.052.258-.052.387-.077zM0 64c0-5.11.594-10.065 1.729-14.813 2.323 1.935 4.8 4.077 7.432 6.529C25.832 71.174 52.955 83.38 62.838 72.026c.026.026.052.026.052.052-1.806 2.374-8.697 9.884-21.858 7.561l-20.8 31.045C7.794 99.019 0 82.426 0 64z" fill="url(#B)"/><defs><linearGradient id="A" x1="102.435" y1="40.84" x2="87.337" y2="124.021" gradientUnits="userSpaceOnUse"><stop stop-color="#ff496a"/><stop offset="1" stop-color="#e42648"/></linearGradient><linearGradient id="B" x1="30.891" y1="94.276" x2="64.275" y2="0" gradientUnits="userSpaceOnUse"><stop offset=".002" stop-color="#1158f1"/><stop offset="1" stop-color="#119bed"/></linearGradient></defs></svg>