<svg xmlns="http://www.w3.org/2000/svg" width="128" height="128" fill="none" xmlns:v="https://vecta.io/nano"><g fill-rule="evenodd"><path d="M128 63.991c0 35.346-28.654 64-64 64s-64-28.654-64-64 28.654-64 64-64 64 28.654 64 64z" fill="url(#A)"/><path d="M97.039 23.887c0 10.328-15.164 18.701-33.87 18.701s-33.87-8.373-33.87-18.701S44.463 5.186 63.169 5.186s33.87 8.373 33.87 18.701z" fill="url(#B)"/><path d="M103.726 13.855c11.582 11.582 18.734 27.598 18.734 45.271 0 35.346-28.66 64.005-64.005 64.005-14.87 0-28.513-5.107-39.379-13.614 11.557 11.403 27.387 18.491 44.905 18.491 35.346 0 64.005-28.66 64.005-64.006 0-20.325-9.487-38.424-24.261-50.148z" fill="#1da1f2"/></g><defs><radialGradient id="A" cx="0" cy="0" r="1" gradientUnits="userSpaceOnUse" gradientTransform="matrix(112.24977,0,0,108.52999,36.040695,31.80535)"><stop stop-color="#d5f6ff"/><stop offset=".337" stop-color="#1da1f2"/><stop offset=".714" stop-color="#86cffc"/><stop offset="1" stop-color="#1da1f2"/></radialGradient><radialGradient id="B" cx="0" cy="0" r="1" gradientUnits="userSpaceOnUse" gradientTransform="matrix(87.849095,0,0,45.451843,62.518545,5.35227)"><stop stop-color="#fff"/><stop offset="1" stop-color="#fff" stop-opacity="0"/></radialGradient></defs></svg>