<svg xmlns="http://www.w3.org/2000/svg" width="128" height="128" xmlns:v="https://vecta.io/nano"><path d="M75.072 128V75.392c12.544 1.344 21.056 7.104 21.056 7.104l8-9.024c-13.12-9.344-32.576-9.728-32.576-9.728l-3.2-35.328c2.112-1.408 3.52-3.776 3.52-6.528 0-4.288-3.52-7.808-7.808-7.808s-7.808 3.52-7.808 7.808c0 2.752 1.408 5.184 3.52 6.528l-3.2 35.328S37.12 64.064 24 73.472l8 9.024s8.512-5.76 21.056-7.104V128C4.032 91.648 0 38.848.128 21.312a9.27 9.27 0 0 1 5.504-8.448C15.424 8.512 37.76 0 64 0s48.576 8.512 58.368 12.864a9.27 9.27 0 0 1 5.504 8.448C128 38.848 123.968 91.648 75.072 128z" fill="#ffaf1d"/></svg>