<svg xmlns="http://www.w3.org/2000/svg" xmlns:xlink="http://www.w3.org/1999/xlink" width="128" height="128" xmlns:v="https://vecta.io/nano"><path d="M64.012 0c-1.698 0-2.642.688-3.358 1.234s-1.252 1.121-1.775 1.739c-1.045 1.237-1.992 2.672-2.896 4.164l-2.667 4.857c-4.804-3.06-9.811-4.837-15.481-5.448-1.641-.177-2.701-.354-4.202-.157-.75.099-1.792.336-2.779 1.199-.947.828-1.423 2.077-1.553 2.93-.354 1.807-.159 3.275-.086 4.259l.003.04.004.04c.848 8.955 5.017 17.117 11.587 22.967-.957.548-1.911 1.099-2.92 1.769-8.844 5.871-14.604 14.184-15.992 23.675-.597 4.08-.315 10.025.571 14.235 1.364 6.48 4.514 14.741 8.308 22.067 7.682 14.83 17.101 25.016 27.807 27.774 6.707 1.728 13.935-.041 20.164-4.464 10.344-7.345 19.719-22.365 24.958-38.565 1.963-6.071 2.714-10.384 2.715-15.825.001-2.107.02-4.495-.642-7.151-1.088-5.272-3.314-9.688-7.095-14.225-3.054-3.664-7.024-6.882-11.415-9.341 6.538-5.847 10.689-13.987 11.535-22.918.09-.955.51-2.55-.183-4.797-.201-.737-.682-1.778-1.565-2.518-.918-.769-1.933-1.037-2.681-1.141-1.495-.208-2.541-.032-4.185.145-5.63.606-10.606 2.36-15.378 5.38-.65-1.478-1.436-3.135-2.431-4.871-.858-1.498-1.798-2.958-2.97-4.245S66.769 0 64.012 0zm.217 8.911c.425.578.882 1.254 1.338 2.048 1.38 2.409 2.638 5.402 3.006 6.414.275.775.483 1.355.885 2.069.204.362.365.789 1.217 1.458a4.01 4.01 0 0 0 2.172.866c1.043.092 2.23-.351 2.881-.872 5.115-4.093 9.345-5.884 15.219-6.529-.839 8.092-5.053 15.227-11.644 19.731l-7.826 5.348 8.124 3.328c5.002 2.049 9.909 5.604 13.049 9.371 3.241 3.889 4.598 6.639 5.455 10.848l.019.095.024.094c.391 1.533.419 3.177.418 5.31-.002 4.8-.508 7.762-2.335 13.412-4.802 14.849-14.159 28.987-22.033 34.578-4.733 3.361-9.504 4.332-13.658 3.262-7.012-1.807-15.679-10.048-22.793-23.782-3.486-6.73-6.469-14.716-7.597-20.072-.568-2.7-.803-9.308-.485-11.482 1.039-7.107 5.217-13.391 12.564-18.268 2.327-1.545 4.165-2.534 6.193-3.365l8.124-3.328-7.826-5.348c-6.591-4.504-10.805-11.639-11.644-19.731 5.873.645 10.103 2.436 15.218 6.529.573.458 1.566.898 2.563.89a4.13 4.13 0 0 0 2.28-.723c.971-.668 1.162-1.153 1.376-1.526.387-.672.565-1.186.772-1.801.324-.8 1.862-3.967 3.414-6.529.53-.874 1.049-1.636 1.528-2.295z" fill="#fff" paint-order="stroke fill markers"/><path d="M59.562 123.544c-8.859-2.283-17.902-11.496-25.3-25.778-3.64-7.028-6.707-15.151-7.953-21.07-.727-3.455-.985-9.732-.528-12.859 1.213-8.299 6.183-15.598 14.278-20.972 2.484-1.649 4.594-2.792 6.876-3.727l1.378-.565-1.807-1.235c-7.624-5.209-12.492-13.526-13.376-22.852-.085-1.147-.215-2.225.043-3.376.121-.986 1.055-1.004 4.241-.661 6.565.707 11.759 2.917 17.334 7.378.2.16.477-.321.885-1.536 1.006-2.501 6.093-12.366 8.379-12.366 3.171 0 7.308 9.514 8.251 12.105.497 1.402.81 1.959 1.012 1.798 5.575-4.461 10.769-6.672 17.335-7.379 3.186-.343 4-.302 4.241.661.327.984.149 2.259.043 3.376-.884 9.326-5.751 17.642-13.376 22.852l-1.807 1.235 1.378.565c5.613 2.299 10.952 6.142 14.577 10.492 3.521 4.225 5.317 7.818 6.286 12.578.54 2.116.541 4.149.54 6.283-.002 5.121-.63 8.758-2.525 14.619-5.02 15.524-14.387 30.103-23.495 36.571-5.481 3.892-11.481 5.262-16.911 3.863z" fill="#ff2d98" paint-order="stroke fill markers"/><path d="M48.313 38.574l-1.807-1.235c-7.624-5.209-12.492-13.526-13.376-22.852-.085-1.147-.215-2.225.043-3.376.121-.986 1.055-1.004 4.241-.661 6.565.707 11.759 2.917 17.334 7.378.2.16.477-.321.885-1.536 1.006-2.501 5.999-12.366 8.379-12.366 3.171 0 7.308 9.514 8.251 12.105.497 1.402.81 1.959 1.012 1.798 5.575-4.461 10.769-6.672 17.335-7.379 3.186-.343 4-.302 4.241.661.327.984.149 2.259.043 3.376-.884 9.326-5.751 17.642-13.376 22.852l-1.807 1.235z" fill="#00d9ff"/><path d="M48.313 38.574l-1.807-1.235c-7.624-5.209-12.492-13.526-13.376-22.852-.085-1.147-.215-2.225.043-3.376.121-.986 1.055-1.004 4.241-.661 6.565.707 11.759 2.917 17.334 7.378.2.16.477-.321.885-1.536 1.006-2.501 5.999-12.366 8.379-12.366 3.171 0 7.308 9.514 8.251 12.105.497 1.402.81 1.959 1.012 1.798 5.575-4.461 10.769-6.672 17.335-7.379 3.186-.343 4-.302 4.241.661.327.984.149 2.259.043 3.376-.884 9.326-5.751 17.642-13.376 22.852l-1.807 1.235zm6.212-1.913c1.258-.278 3.054-.579 3.989-.667a60.51 60.51 0 0 0 2.523-.285l.822-.125-.227-1.009c-.125-.555-.538-1.877-.919-2.939-3.514-9.794-12.683-16.998-23.139-18.181l-1.633-.185.191 1.673c.837 7.323 5.145 14.91 10.845 19.101 1.255.923 4.879 3.1 5.191 3.118.038.002 1.098-.224 2.356-.502zm23.075-.415c7.632-4.011 13.23-12.394 14.308-21.43l.184-1.539-1.748.187c-8.788.941-17.087 6.568-21.447 14.541-.961 1.758-2.934 7.273-2.689 7.518.076.076 1.226.248 2.555.381a43.9 43.9 0 0 1 4.527.73l2.334.511c.123.013 1.012-.391 1.977-.898zm-12.591-7.167c1.045-2.487 3.01-5.735 4.48-7.403l1.078-1.224-.795-2.441c-.437-1.342-1.235-3.297-1.772-4.344-.902-1.757-3.686-5.817-3.988-5.817s-3.083 4.053-3.996 5.817c-.542 1.047-1.34 3.002-1.772 4.344l-.787 2.441 1.078 1.224c1.491 1.692 3.497 5.019 4.488 7.441.456 1.116.895 2.027.975 2.025s.534-.931 1.01-2.064zm-5.447 94.465c-8.859-2.283-17.902-11.496-25.3-25.778-3.64-7.028-6.707-15.151-7.953-21.07-.727-3.455-.985-9.732-.528-12.859 1.213-8.299 6.183-15.598 14.278-20.972 2.484-1.649 4.594-2.792 6.876-3.727l1.378-.565-1.807-1.235c-7.624-5.209-12.492-13.526-13.376-22.852-.085-1.147-.215-2.225.043-3.376.121-.986 1.055-1.004 4.241-.661 6.565.707 11.759 2.917 17.334 7.378.2.16.477-.321.885-1.536 1.006-2.501 6.093-12.366 8.379-12.366 3.171 0 7.308 9.514 8.251 12.105.497 1.402.81 1.959 1.012 1.798 5.575-4.461 10.769-6.672 17.335-7.379 3.186-.343 4-.302 4.241.661.327.984.149 2.259.043 3.376-.884 9.326-5.751 17.642-13.376 22.852l-1.807 1.235 1.378.565c5.613 2.299 10.952 6.142 14.577 10.492 3.521 4.225 5.317 7.818 6.286 12.578.54 2.116.541 4.149.54 6.283-.002 5.121-.63 8.758-2.525 14.619-5.02 15.524-14.387 30.103-23.495 36.571-5.481 3.892-11.481 5.262-16.911 3.863zm6.801-2.624c9.984-1.62 21.256-14.563 28.598-32.836 5.89-14.661 6.105-25.176.687-33.514-1.709-2.63-6.253-7.204-8.948-9.007-13.404-8.969-31.468-9.071-44.969-.254-3.145 2.054-7.753 6.646-9.502 9.468-3.868 6.243-4.753 13.877-2.633 22.706.865 3.602 1.431 5.335 3.321 10.159 6.238 15.926 16.313 28.829 25.208 32.283 3.068 1.191 5.341 1.466 8.239.996zM54.526 36.661c1.258-.278 3.054-.579 3.989-.667a60.51 60.51 0 0 0 2.523-.285l.822-.125-.227-1.009c-.125-.555-.538-1.877-.919-2.939-3.514-9.794-12.683-16.998-23.139-18.181l-1.633-.185.191 1.673c.837 7.323 5.145 14.91 10.845 19.101 1.255.923 4.879 3.1 5.191 3.118.038.002 1.098-.224 2.356-.502zm23.075-.415c7.632-4.011 13.23-12.394 14.308-21.43l.184-1.539-1.748.187c-8.788.941-17.087 6.568-21.447 14.541-.961 1.758-2.934 7.273-2.689 7.518.076.076 1.226.248 2.555.381a43.9 43.9 0 0 1 4.527.73l2.334.511c.123.013 1.012-.391 1.977-.898zm-12.591-7.167c1.045-2.487 3.01-5.735 4.48-7.403l1.078-1.224-.795-2.441c-.437-1.342-1.235-3.297-1.772-4.344-.902-1.757-3.686-5.817-3.988-5.817s-3.083 4.053-3.996 5.817c-.542 1.047-1.34 3.002-1.772 4.344l-.787 2.441 1.078 1.224c1.491 1.692 3.497 5.019 4.488 7.441.456 1.116.895 2.027.975 2.025s.534-.931 1.01-2.064z"/><use xlink:href="#B"/><use xlink:href="#B" x="0.046" y="18.869"/><use xlink:href="#B" x="0.046" y="-18.87"/><use xlink:href="#B" x="13.615"/><use xlink:href="#B" x="13.66" y="18.869"/><use xlink:href="#B" x="13.66" y="-18.87"/><use xlink:href="#B" x="-13.523"/><use xlink:href="#B" x="-13.477" y="18.869"/><use xlink:href="#B" x="-13.477" y="-18.87"/><use xlink:href="#B" x="-27.092"/><use xlink:href="#B" x="27.183" y="-0.001"/><use xlink:href="#B" x="-6.763" y="37.742"/><use xlink:href="#B" x="6.851" y="37.742"/><defs ><path id="B" d="M63.329 74.402c-1.237-.818-1.691-4.795-.778-6.819 1.283-2.846 3.444-.974 3.409 2.954-.022 2.404-.815 4.057-1.947 4.057-.216 0-.523-.087-.683-.192z"/></defs></svg>