<svg xmlns="http://www.w3.org/2000/svg" xmlns:xlink="http://www.w3.org/1999/xlink" width="128" height="128" fill="none" xmlns:v="https://vecta.io/nano"><path d="M28.015 22.494l-7.713 2.983-4.771-1.815 7.713-2.97z" fill="#baa093"/><path d="M28.017 22.492l-7.713 2.983.014-7.342 7.726-2.983z" fill="#ccb0a1"/><path d="M30.259 23.346l-7.713 2.969.014-7.342 7.713-2.97z" fill="#dadada"/><path d="M30.276 16.002l-7.713 2.969-2.241-.839 7.727-2.983zM28.071 2.145l-7.713 2.969-5.664-2.145L22.42 0z" fill="#fff"/><path d="M28.048 15.153l-7.726 2.983.041-13.02 7.713-2.969z" fill="#c5c5c5"/><path d="M43.705 28.447l-7.713 2.97-.742-.275 7.713-2.983z" fill="#baa093"/><path d="M43.703 28.446l-7.713 2.97.014-7.342 7.727-2.97z" fill="#ccb0a1"/><path d="M43.747 15.428l-7.713 2.97-5.664-2.131 7.713-2.984z" fill="#baa093"/><path d="M43.758 8.086l-7.713 2.97L14.694 2.97 22.42 0z" fill="#fff"/><g fill="#dadada"><path d="M43.732 21.106l-7.727 2.97.041-13.02 7.713-2.97z"/><path d="M43.747 15.428l-7.713 2.97.014-7.342 7.713-2.97z"/></g><path d="M52.531 24.432l-7.727 2.97-8.799-3.327 7.727-2.97z" fill="#fff"/><path d="M52.503 31.776l-7.713 2.97.123-7.305 7.617-3.006z" fill="#ccb0a1"/><path fill-rule="evenodd" d="M14.694 2.97l5.664 2.145-.009 2.657.01-2.655 15.687 5.939-.003 1.603.005-1.602-.014 7.342-.01-.003h0l-5.657-2.128-10.033-3.807-.018 5.674 2.24.838-.014 7.342-2.24-.848v.011l-4.771-1.815-.893-.33zm21.314 21.105l.018-5.68-5.655-2.128-.041 13.006 4.922 1.87.171.063 9.491 3.537V27.44z" fill="#f2f2f2"/><path d="M87.508 37.078l-7.08-2.667-.431 5.759z" fill="#fceed5"/><path d="M40.513 116.436l-12.607 5.225-8.504-3.04 13.165-4.971z" fill="#fff"/><path d="M40.513 116.438v6.338L27.906 128v-6.338z" fill="#f6e7ca"/><path d="M27.905 121.662V128l-8.504-3.468v-5.911z" fill="#f8eed7"/><path d="M40.528 93.626l-4.716 1.966-8.139-2.97 4.716-1.952z" fill="#bda498"/><path d="M40.528 93.626l-.014 22.809-4.716 1.952.014-22.795z" fill="#f6e7ca"/><path d="M35.812 95.592l-.014 22.795-8.139-2.956.014-22.809z" fill="#f2f2f2"/><path d="M86.499 57.747L44.654 75.093 9.624 62.348l41.644-17.282z" fill="url(#A)"/><path d="M44.654 75.093v27.867L9.595 90.217l.028-27.868z" fill="url(#B)"/><path d="M86.499 37.494l-19.462 8.039-35.031-12.759 18.988-7.846z" fill="url(#C)"/><path fill-rule="evenodd" d="M86.499 37.494l-19.462 8.039.001 20.272 13.478-5.594-35.862 14.882v27.867l41.845-17.282z" fill="url(#D)"/><path d="M67.037 45.533v20.265L32.005 53.061V32.774z" fill="url(#E)"/><path d="M86.499 28.043l-6.502 2.541-35.084-12.582 6.554-2.687z" fill="#d6784e"/><path d="M86.499 28.043v9.451l-6.502 2.686v-9.595z" fill="#825439"/><path d="M88.94 50.76l7.52-3.094.756.275-7.506 3.093z" fill="#bba193"/><g fill="#fff"><path d="M88.968 43.432l7.506-3.093-.014 7.328-7.52 3.094z"/><path d="M79.997 40.179l7.511-3.101 8.966 3.261-7.506 3.094z"/><path d="M88.998 30.44l7.521-3.08-.028 7.328-7.507 3.08z"/></g><path d="M88.984 37.768l7.507-3.08 5.802 2.103-7.507 3.094z" fill="#bba193"/><path d="M94.784 39.884l7.506-3.093-.027 12.992-7.521 3.08z" fill="#e6d6bc"/><g fill="#fff"><path d="M105.08 36.297l7.52-3.079-.028 7.328-7.506 3.08z"/><path d="M88.999 30.44l7.52-3.08 16.086 5.857-7.521 3.08zm16.051 18.848l7.507-3.093-.014 7.328-7.52 3.094z"/></g><path d="M102.758 48.45l7.507-3.093 2.296.839-7.507 3.093z" fill="#fce3cd"/><path d="M105.023 56.616l7.52-3.094 4.881 1.787-7.507 3.08z" fill="#bba193"/><path fill-rule="evenodd" d="M88.995 30.442l-.001-.001-.011 5.668-.015 7.324-.028 7.323h-.001l.027-7.323-8.969-3.254v7.296l8.942 3.281v.005l.77.275-.117-.043.118.042 5.032 1.829.041-12.978 10.279 3.738-.012 5.664-2.293-.838-.027 7.328 2.293.833v.007l4.894 1.773.921.344.055-20.32-5.813-2.117v-.001z" fill="#f2f2f2"/><path d="M110.898 38.414l7.507-3.094-.055 20.32-7.506 3.094z" fill="#dadada"/><path d="M105.081 36.297l7.52-3.08 5.802 2.103-7.506 3.094z" fill="#fff"/><path opacity=".44" d="M31.223 70.212v6.324l-9.363-3.409v-6.324z" fill="url(#F)"/><path opacity=".8" d="M67.037 59.457v6.348l-9.39-3.421v-6.338z" fill="url(#G)"/><path opacity=".78" d="M41.368 50.127v6.338l-9.363-3.405v-6.343z" fill="url(#H)"/><path d="M76.62 55.501v6.328l-9.583 3.976v-6.348z" fill="url(#I)"/><path opacity=".5" d="M39.444 66.802l-8.221 3.409-9.363-3.409 8.222-3.424z" fill="url(#J)"/><path d="M79.997 30.584v9.595L44.914 27.44v-9.439z" fill="#7b4c30"/><defs><linearGradient id="A" x1="63.331" y1="52.45" x2="34.998" y2="71.957" xlink:href="#K"><stop stop-color="#983512"/><stop offset="1" stop-color="#ea8f62"/></linearGradient><linearGradient id="B" x1="44.75" y1="82.64" x2="9.45" y2="73.351" xlink:href="#K"><stop stop-color="#b65c39"/><stop offset="1" stop-color="#b75b3a"/></linearGradient><linearGradient id="C" x1="54.969" y1="-4.216" x2="66.336" y2="45.218" xlink:href="#K"><stop stop-color="#983512"/><stop offset="1" stop-color="#ea8f62"/></linearGradient><linearGradient id="D" x1="65.498" y1="37.517" x2="65.498" y2="102.96" xlink:href="#K"><stop stop-color="#d6643c"/><stop offset="1" stop-color="#a54a2a"/></linearGradient><linearGradient id="E" x1="35.927" y1="37.121" x2="67.047" y2="58.487" xlink:href="#K"><stop stop-color="#ac5236"/><stop offset="1" stop-color="#a3492a"/></linearGradient><linearGradient id="F" x1="26.542" y1="66.802" x2="26.542" y2="76.536" xlink:href="#K"><stop stop-color="#3f221c"/><stop offset="1" stop-color="#4e4d4d"/></linearGradient><linearGradient id="G" x1="62.335" y1="56.065" x2="62.335" y2="65.813" xlink:href="#K"><stop stop-color="#3f221c"/><stop offset="1" stop-color="#4e4d4d"/></linearGradient><linearGradient id="H" x1="36.68" y1="46.718" x2="36.68" y2="56.466" xlink:href="#K"><stop stop-color="#3f221c"/><stop offset="1" stop-color="#4e4d4d"/></linearGradient><linearGradient id="I" x1="71.821" y1="55.501" x2="71.821" y2="66.954" xlink:href="#K"><stop stop-color="#3f221c"/><stop offset="1" stop-color="#4e4d4d"/></linearGradient><linearGradient id="J" x1="30.652" y1="63.379" x2="30.652" y2="70.212" xlink:href="#K"><stop stop-color="#3f221c"/><stop offset="1" stop-color="#4e4d4d"/></linearGradient><linearGradient id="K" gradientUnits="userSpaceOnUse"/></defs></svg>