<svg xmlns="http://www.w3.org/2000/svg" width="128" height="128" viewBox="0 0 33.867 33.867" xmlns:v="https://vecta.io/nano"><path d="M18.515 3.136s-1.698 9.855 8.335 8.172c.617-9.854-8.335-8.172-8.335-8.172z" fill="#39b465"/><path d="M19.987.002L20.07 0c.205.006.41.078.578.217a.89.89 0 0 1 .103 1.28l-.773.926.132-.003c1.156-.005 2.306.152 3.377.528 3.117 1.096 4.873 3.781 4.572 8.283h0l-.039.583-.595.093c-2.779.437-4.947.14-6.544-.813-1.36-.812-2.232-2.049-2.693-3.573-.172-.568-.28-1.147-.337-1.723-2.369 5.04-1.253 10.232 3.371 15.718a.89.89 0 0 1-.131 1.278c-.399.318-.988.261-1.315-.127-5.88-6.976-6.581-13.813-2.072-20.287-7.727 2.377-10.71 8.306-9.256 18.136l.056.365c.039.236.145.79.315 1.645.097.489-.218.964-.705 1.062a.9.9 0 0 1-1.057-.708l-.185-.939-.15-.816C4.859 9.224 9.156 2.084 19.758.017c.077-.015.154-.02.229-.015zm.599 3.895l.032.023c1.567 1.084 2.637 2.332 3.195 3.749a.59.59 0 0 1-.332.764.59.59 0 0 1-.764-.332c-.533-1.354-1.659-2.562-3.396-3.619-.028.828.052 1.695.286 2.517h0l.032.11c.362 1.198 1.02 2.131 2.034 2.736 1.145.683 2.74.95 4.858.704h0l.044-.005.002-.083c.061-3.392-1.251-5.274-3.533-6.106h0l-.074-.027c-.745-.262-1.556-.398-2.384-.432z" fill="#25030a"/><path d="M10.548 20.68c-4.496-1.876-6.94-.804-7.333 3.217-.589 6.032 2.806 9.287 7.71 9.287s7.695-6.437 6.021-10.915c-1.116-2.985-3.249-3.515-6.398-1.589z" fill="#e55268"/><path d="M3.758 27.931c4.988 1.983 9.544.681 13.668-3.907 1.132 4.957-.88 8.409-6.486 9.209-3.737.534-6.131-1.234-7.183-5.303z" fill="#da374f"/><path d="M10.288 19.959c2.635-1.546 4.801-1.44 6.315.036 1.105 1.078 1.741 2.873 1.741 4.229 0 1.553-.354 3.498-1.167 5.185-1.192 2.475-3.207 4.094-6.138 4.442l-.124.014h-.035c-3.838.055-6.711-2.128-8.042-5.508-1.183-3.003-.869-6.392.869-8.01 1.776-1.653 3.954-1.757 6.431-.407l.094.052zm5.303 1.031c-.908-.886-2.171-1.038-3.931-.172l-.086.043.036.027.824.648.104.088a.69.69 0 0 1 .074.99c-.259.293-.711.326-1.011.072-2.989-2.53-5.215-2.897-6.908-1.321-1.254 1.167-1.513 3.963-.519 6.486 1.116 2.833 3.44 4.619 6.589 4.611h.06l.049-.006c2.375-.285 3.978-1.555 4.973-3.576l.034-.071a11.12 11.12 0 0 0 1.03-4.586c0-1.007-.509-2.443-1.319-3.234z" fill="#25030a"/><path d="M7.444 21.037c-1.76-.22-2.741.681-2.942 2.701 1.283-1.478 1.962-2.11 4.225-2.258-.151-.099-.578-.246-1.283-.443z" fill="#ffeaed"/><path d="M22.39 19.598c-5.013-.711-7.166 1.04-6.458 5.253 1.062 6.32 5.351 8.736 10.259 7.421s5.94-8.641 3.038-12.766c-1.935-2.751-4.214-2.72-6.839.092z" fill="#e55268"/><path d="M16.873 27.696c5.114 1.682 9.587-.079 13.421-5.284 1.626 5.121.456 8.662-4.939 10.022-3.597.906-6.424-.673-8.482-4.738z" fill="#da374f"/><path d="M21.89 19.014l.007-.007c2.26-2.364 4.509-2.865 6.471-1.742 1.417.811 2.554 2.486 2.929 3.882.427 1.594.605 3.686.249 5.638-.522 2.866-2.113 5.076-4.977 6.227l-.113.045-.027.008c-3.844 1.192-7.281-.393-9.484-3.717-1.917-2.892-2.474-6.565-1.134-8.48 1.318-1.884 3.362-2.482 6.03-1.866zm5.702-.39c-1.134-.649-2.42-.475-3.927.849l-.08.071.047.018c.313.121.632.255.958.402l.123.056c.392.181.564.646.384 1.038a.78.78 0 0 1-1.037.383c-3.49-1.609-5.732-1.443-6.969.325-.901 1.288-.444 4.304 1.156 6.717 1.828 2.757 4.543 4.029 7.624 3.115l.068-.021.051-.02c2.301-.927 3.557-2.649 4.002-4.974l.015-.08c.309-1.697.151-3.564-.221-4.952-.273-1.02-1.172-2.343-2.194-2.928z" fill="#25030a"/><path d="M19.86 20.912c-1.501-.113-2.29.717-2.368 2.491 1.019-1.348 1.565-1.93 3.475-2.16-.132-.079-.501-.189-1.106-.33z" fill="#ffeaed"/></svg>