<svg xmlns="http://www.w3.org/2000/svg" xmlns:xlink="http://www.w3.org/1999/xlink" width="128" height="128" fill="none" xmlns:v="https://vecta.io/nano"><path d="M112.738 49.357c12.254-5.492 11.892-14.462 9.68-19.29C107.404 6.331 80.602-3.288 57.726.985 23.539 6.629 3.831 37.122 4.373 66.334c.518 27.926 20.601 46.244 27.943 50.231-8.724-11.395-5.662-32.207-3.416-40.114-.772-4.261-1.194-12.815 3.149-23.907 5.222-13.335 13.123-20.546 29.702-20.546 13.966 0 22.88 8.701 25.557 13.125 3.419 3.524 14.644 9.069 25.429 4.235z" fill="url(#A)"/><path d="M112.738 49.357c12.254-5.492 11.892-14.462 9.68-19.29C107.404 6.331 80.602-3.288 57.725.985 47.75 2.632 39.007 6.394 31.641 11.623c5.885-2.23 22.11-5.545 42.989 2.189 20.139 7.46 32.299 26.216 35.71 36.452.799-.249 1.6-.55 2.398-.907z" fill="url(#B)"/><path d="M112.754 78.461c12.255 5.493 11.892 14.463 9.68 19.291-15.014 23.735-41.816 33.354-64.693 29.082-23.63-3.902-40.693-19.82-48.558-38.288-3.595-8.441-5.039-16.557-4.742-26.472C6.036 32.736 24.538 16.55 31.707 11.596c-3.751 6.631-10.549 23.593-10.23 39.772.316 16.081 4.575 21.479 7.371 25.022l.051.064c.658 2.87 1.33 6.82 2.815 8.587 6.043 7.19 21.552 9.831 30.089 9.831 14.439 0 24.064-3.998 27.312-8.874 1.595-2.395 1.946-5.165 1.946-6.039 5.089-2.863 13.518-5.162 21.693-1.498z" fill="url(#C)"/><path d="M112.738 78.643c12.254 5.493 11.892 14.463 9.68 19.291-15.014 23.735-41.817 33.354-64.693 29.082-9.976-1.647-18.718-5.41-26.084-10.639 5.885 2.23 22.11 5.545 42.989-2.189 20.139-7.46 32.299-26.216 35.71-36.452a21.53 21.53 0 0 1 2.398.907z" fill="url(#D)"/><g fill-rule="evenodd"><path d="M53.049 64.548c0 4.332-3.619 7.581-7.6 7.581-4.343 0-7.6-3.249-7.6-7.581 0-1.444.362-3.249 1.448-4.332" fill="url(#E)"/><path d="M67.525 64.548c0 4.332 3.619 7.581 7.6 7.581 4.343 0 7.6-3.249 7.6-7.581 0-1.444-.362-3.249-1.448-4.332" fill="url(#F)"/></g><defs><linearGradient id="A" x1="11.96" y1="79.048" x2="83.647" y2="20.229" xlink:href="#G"><stop stop-color="#0f53fb"/><stop offset="1" stop-color="#087aff"/></linearGradient><linearGradient id="B" x1="69.3" y1="34.106" x2="79.07" y2="2.399" xlink:href="#G"><stop stop-color="#5dd2ff"/><stop offset="1" stop-color="#0f53fb"/></linearGradient><linearGradient id="C" x1="5.902" y1="33.811" x2="91.909" y2="104.92" xlink:href="#G"><stop stop-color="#bc55ff"/><stop offset="1" stop-color="#5402ff"/></linearGradient><linearGradient id="D" x1="87.042" y1="49.379" x2="130.76" y2="100.031" xlink:href="#G"><stop stop-color="#5402ff"/><stop offset=".995" stop-color="#bc55ff"/></linearGradient><linearGradient id="E" x1="45.3" y1="60.055" x2="45.3" y2="71.935" xlink:href="#G"><stop stop-color="#5402ff"/><stop offset="1" stop-color="#bc55ff"/></linearGradient><linearGradient id="F" x1="75.319" y1="59.993" x2="75.319" y2="88.908" xlink:href="#G"><stop stop-color="#0c68fe"/><stop offset="1" stop-color="#00f2ff"/></linearGradient><linearGradient id="G" gradientUnits="userSpaceOnUse"/></defs></svg>