<svg xmlns="http://www.w3.org/2000/svg" width="128" height="128" fill="#cfd955" xmlns:v="https://vecta.io/nano"><path d="M118.792 30.646c-.22-.363-.58-.625-1-.705s-.86 0-1.2.262l-.08.06-.06.041-19.164 12.781a1.54 1.54 0 0 0-.48 2.036c3.021 5.322 4.721 11.39 4.941 17.538.681 19.152-12.963 35.904-31.686 38.948-.761.121-1.3.786-1.28 1.573l.82 23.506c0 .424.201.827.521 1.109a1.48 1.48 0 0 0 .98.363h.18c11.802-1.371 23.005-6.028 32.367-13.466 9.622-7.64 16.824-17.862 20.825-29.574 6.222-18.143 4.141-38-5.721-54.45l.04-.02zm6.021 38.02l-20.104-1.693a40.47 40.47 0 0 0 .08-4.415c-.02-.605-.06-1.23-.1-1.835l20.124-1.432a61.11 61.11 0 0 1 0 9.374zm-4.101 17.942l-18.704-7.56a40.59 40.59 0 0 0 1.821-5.987l19.644 4.596c-.5 2.177-1.101 4.314-1.821 6.45l-.921 2.52-.02-.02zm-24.806 3.065a39.92 39.92 0 0 0 3.501-5.201l17.403 10.261c-1.56 2.722-3.341 5.301-5.281 7.741zm24.825-48.221c1.14 2.923 2.061 5.907 2.74 8.93l-19.704 4.394c-.46-2.036-1.081-4.032-1.84-5.967l18.784-7.358h.02zm-44.889 61.95a40.89 40.89 0 0 0 5.841-2.298l8.642 18.325c-2.801 1.351-5.701 2.5-8.702 3.427l-5.801-19.454zm22.265 11.511L86.925 98.06a40.48 40.48 0 0 0 4.901-3.951l13.582 14.958c-2.28 2.137-4.721 4.072-7.301 5.846zM11.69 29.881l20.744 11.027a1.45 1.45 0 0 0 .7.182 1.51 1.51 0 0 0 1.2-.585c6.901-8.83 17.224-14.132 28.366-14.535a37.61 37.61 0 0 1 28.726 11.854c.5.544 1.32.625 1.94.221l19.544-13.043a1.52 1.52 0 0 0 .66-1.048 1.57 1.57 0 0 0-.34-1.209c-7.442-9.03-17.224-15.844-28.286-19.715-27.246-9.495-57.592.645-73.796 24.635a1.57 1.57 0 0 0-.22 1.23c.1.424.38.786.761.988zM83.944 5.912C93.946 9.4 102.848 15.427 109.79 23.39L92.726 34.78c-7.982-7.963-18.904-12.278-30.146-11.873-11.603.424-22.405 5.745-29.826 14.696L14.63 27.986C30.294 6.133 58.539-2.939 83.944 5.912zM61.04 101.991c-19.124-1.512-34.067-17.256-34.748-36.609-.201-5.947.921-11.693 3.341-17.075.34-.746.041-1.612-.681-1.976L8.408 35.425a1.51 1.51 0 0 0-1.181-.101 1.58 1.58 0 0 0-.9.786c-1.06 2.238-2 4.557-2.801 6.855-5.561 16.269-4.521 33.787 2.961 49.269 7.481 15.502 20.485 27.135 36.647 32.759 6.001 2.096 12.263 3.266 18.564 3.507h.06c.4 0 .78-.161 1.08-.444.3-.302.46-.705.441-1.129l-.82-23.486c-.02-.786-.62-1.411-1.4-1.472l-.02.02zm32.902-38.977c-.579-16.625-14.46-29.668-30.958-29.085-16.477.584-29.42 14.593-28.841 31.218.579 16.263 13.861 29.105 29.88 29.105h1.078c16.477-.584 29.42-14.593 28.841-31.218zm-28.941 28.48h-.979c-14.561 0-26.664-11.675-27.183-26.468-.54-15.116 11.225-27.857 26.224-28.381 7.27-.261 14.181 2.355 19.514 7.347 5.313 4.992 8.389 11.774 8.648 19.101C91.765 78.21 80 90.95 65.001 91.474z"/></svg>