<svg xmlns="http://www.w3.org/2000/svg" width="128" height="128" viewBox="0 0 33.867 33.867" xmlns:v="https://vecta.io/nano"><defs><linearGradient id="A" x1="22.586" y1="28.891" x2="22.586" y2="5.01" gradientUnits="userSpaceOnUse"><stop stop-color="#ffc780"/><stop offset="1" stop-color="#964b48"/></linearGradient></defs><g fill-rule="evenodd"><path d="M18.164.066c2.907-.002 5.765.74 8.3 2.157a16.9 16.9 0 0 1 6.174 5.929h0a8.84 8.84 0 0 0-6.236 2.572 8.76 8.76 0 0 0 0 12.417 8.84 8.84 0 0 0 6.236 2.572 16.91 16.91 0 0 1-6.302 6.001 17 17 0 0 1-16.852-.298c-2.539-1.509-4.636-3.654-6.085-6.22a16.81 16.81 0 0 1 .147-16.778 16.91 16.91 0 0 1 6.192-6.113A17 17 0 0 1 18.165.066z" fill="#ffc780"/><path d="M32.638 8.152a8.84 8.84 0 0 0-6.236 2.572 8.76 8.76 0 0 0 0 12.417 8.84 8.84 0 0 0 6.236 2.572l-.056.083c-1.723 1.554-3.862 2.577-6.158 2.943s-4.649.059-6.773-.882a11.98 11.98 0 0 1-5.191-4.42 11.9 11.9 0 0 1 .041-13.038A11.98 11.98 0 0 1 19.72 6.01c2.13-.928 4.485-1.22 6.779-.839s4.427 1.416 6.14 2.981z" fill="url(#A)"/></g></svg>