<svg xmlns="http://www.w3.org/2000/svg" width="128" height="128" viewBox="0 0 33.867 33.867" xmlns:v="https://vecta.io/nano"><path d="M5.692 23.932c-1.38-.129-2.619-.74-3.645-1.799-.774-.799-1.283-1.654-1.655-2.78-.287-.869-.395-1.551-.392-2.466.005-1.263.272-2.373.837-3.478.894-1.749 2.503-3.018 4.282-3.377.635-.128.954-.139 6.588-.128l6.26.222c1.779.593 2.838 2.351 2.751 4.566-.04 1.031-.276 1.905-.712 2.636-.206.346-.644.787-.996 1.002-.357.204-.67.329-1.003.429l2.971 3.841 9.25-12.696h3.638L23.675 23.966h-5.408l-2.991-3.626-2.991-3.629h2.034c2.24 0 2.134-.009 2.572-.226a2.17 2.17 0 0 0 1.135-1.378c.092-.342.078-.943-.031-1.259-.273-.795-.963-1.354-1.811-1.466-3.631-.045-6.073-.007-10.078 0-2.314 0-3.503 2.612-3.501 4.512s1.194 4.639 3.501 4.639h5.853l1.992 2.432-8.258-.033z"/><path d="M27.469 20.149l1.788-2.461 4.479 6.278h-3.494M20.025 9.904h3.678l2.731 3.828-1.813 2.497z" fill="#f05a28"/></svg>