<svg xmlns="http://www.w3.org/2000/svg" width="128" height="128" viewBox="0 0 33.867 33.867" xmlns:v="https://vecta.io/nano"><defs><linearGradient x1="253.514" y1="493.496" x2="91.682" y2="525.549" id="A" gradientTransform="matrix(0.14214438,0,0,0.06694669,-8.1859126,-7.9991657)" gradientUnits="userSpaceOnUse"><stop stop-color="#50d546" offset="0%"/><stop stop-color="#ffeb17" offset="51.2485211%"/><stop stop-color="#ff8200" offset="100%"/></linearGradient><linearGradient x1="5.952" y1="3.897" x2="33.084" y2="13.854" id="B" gradientUnits="userSpaceOnUse"><stop stop-color="#003de9" offset="0%"/><stop stop-color="#ff0058" offset="38.0035203%"/><stop stop-color="#81bb47" offset="100%"/></linearGradient></defs><path d="M.806 18.473L12.97 30.465c1.264 1.126 2.436 1.126 3.517 0l7.398-7.532.003-.003h0l3.17-.044h.007l-9.463 9.819c-2.008 1.573-3.906 1.548-5.694-.076L.783 21.125zm32.663 3.549L22.654 32.827h-2.688l10.815-10.806z" fill="url(#A)"/><path d="M15.691.47L3.778 12.159c-1.119 1.071-1.119 2.231 0 3.483h0l11.913 12.045-2.634.022L1.628 16.694c-1.614-1.771-1.639-3.65-.076-5.638L12.426.47h0zm2.346.756c1.775-1.61 3.66-1.635 5.653-.076l9.394 9.73h-.008l-3.146-.043-.007-.007-7.34-7.46c-1.073-1.116-2.237-1.116-3.491 0h0L7.016 15.254l-.022-2.628 11.043-11.4zm3.997 4.911l5.053 4.725h-2.593l-5.057-4.725z" fill="url(#B)"/></svg>