<svg xmlns="http://www.w3.org/2000/svg" height="128" width="128" fill-rule="nonzero" stroke-miterlimit="10" fill="#233470" xmlns:v="https://vecta.io/nano"><path d="M88.843 58.923H76.512V42.24l12.331 7.254zm10.155-15.232L76.512 30.997V13.951L64.181 6.698 14.857 35.349l-.362 57.303 32.641 18.496V99.542L24.65 86.849V41.152l39.531-22.848 2.539 1.451v83.052l9.43-5.44V75.243l14.507 14.144 8.342-5.44-15.232-15.232h15.232zM61.643 25.194V36.8L39.157 49.493v29.014l22.486 12.694v17.046l2.539 1.45 39.531-22.848v-46.06L81.227 28.095V16.852l32.278 18.496v57.303l-49.324 28.651-12.331-7.254V97.366L29.364 83.947V43.691zM64 0L8.574 32v64L64 128l.177-.102L119.426 96V32zm0 .818l54.717 31.591v63.182L64 127.181 9.283 95.59V32.409z"/></svg>