<svg xmlns="http://www.w3.org/2000/svg" width="128" height="128" viewBox="0 0 33.867 33.867" xmlns:v="https://vecta.io/nano"><path d="M13.764 33.092l-1.298-.803c-.605-2.48-1.637-4.352-3.284-5.957-.582-.567-1.015-.914-1.742-1.394a11.6 11.6 0 0 0-1.775-.943l-.237-.092v-.456c.001-1.337.351-4.747.95-9.246l.659-3.721.429-1.285.102-.241-.282-.249C5.853 7.439 4.966 6.02 4.628 4.449c-.115-.535-.143-1.626-.056-2.19A8.63 8.63 0 0 1 4.95.737C5.154.154 5.23 0 5.317 0c.123 0 .142.135.068.49-.507 2.457.28 4.138 2.355 5.024.571.244 1.596.422 1.596.422 1.124-1.382 2.468-2.51 4.045-3.392 1.295-.725 3.317-1.396 3.616-1.396 2.278.417 4.89 2.046 6.335 3.361.406.375 1.198 1.312 1.313 1.427 0 0 .139.002.491-.088 1.492-.381 2.576-1.14 3.092-2.164.143-.284.257-.604.33-.93.08-.356.066-1.542-.024-1.993-.04-.198-.073-.446-.074-.551-.002-.167.054-.209.081-.209.062 0 .098.031.164.178a9.06 9.06 0 0 1 .591 2.081c.087.564.059 1.655-.056 2.19-.325 1.511-1.219 2.98-2.5 4.11l-.34.396.094.136c.288.416.687 2.062.861 3.117l.647 4.917.583 6.508-.012.262-.297.125c-.784.33-1.605.805-2.317 1.341-.87.656-1.396 1.161-2.057 1.975-1.084 1.336-1.852 2.899-2.298 4.673l-.081.323-1.298.766-1.298.766-.011-.14c-.006-.077.186-3.755.427-8.174l.438-8.217s.022-.013.237-.057c.344-.07 1.06-.313 1.433-.487.401-.187.936-.537 1.227-.804a3.66 3.66 0 0 0 .996-1.614c.107-.589.219-.999.074-1.618l-4.821 1.814-.627 5.985-1.304.394-1.317-.436-.581-5.943-4.864-1.814c-.094.344-.034 1.247.112 1.696.229.703.626 1.274 1.181 1.702.669.515 1.327.829 2.235 1.064l.456.118.422 7.86.447 8.268c.013.225.011.407-.005.405s-.61-.35-1.319-.774z" fill="#ee2d37"/><path d="M12.867 15.72c-.189-.033-.414-.134-.414-.186 0-.018.024-.052.053-.077.045-.037.033-.078-.075-.257-.123-.205-.228-.459-.201-.486.007-.007.181.069.386.17a8.07 8.07 0 0 0 .873.346l.515.173c.036.025-.183.169-.357.234-.234.089-.551.122-.782.082zm7.382-.033c-.3-.112-.467-.251-.344-.287.513-.151.968-.317 1.299-.473l.427-.18c.026.026-.113.344-.224.513-.1.151-.104.172-.051.231.083.091.078.1-.103.173-.25.102-.762.114-1.004.024z" fill="#dcdde1"/></svg>