<svg xmlns="http://www.w3.org/2000/svg" width="128" height="128" xmlns:v="https://vecta.io/nano"><defs><radialGradient id="A" cx="860.018" cy="778.503" fx="860.018" fy="778.503" r="512.472" gradientTransform="matrix(0.0881388,-0.14441837,0.19979453,0.12197049,-135.51707,117.85549)" gradientUnits="userSpaceOnUse"><stop offset=".487" stop-color="#ffd500"/><stop offset=".802" stop-color="#ea0500"/></radialGradient></defs><path d="M62.241 127.957c-3.881-.106-7.963-.6-11.72-1.419-1.144-.249-2.802-.659-2.802-.692 0-.015.274-.227.609-.469l2.727-1.975 4.496-3.255 4.614-3.34 8.95-6.483 6.714-4.866.681.671c.778.766 1.181 1.13 1.928 1.739l.528.43-.502.648-14.521 18.766-.219.288-.2-.006-1.283-.036zm3.661-.016c0-.016 3.088-3.827 6.107-7.536l4.753-5.855 3.955-4.861.097-.105.507.307c.852.516 1.062.625 1.037.538-.012-.041-.863-2.234-1.892-4.872l-1.87-4.796-.002-.36c-.002-.308.013-.393.105-.588.197-.423.604-.765 1.031-.868.099-.024 2.665-.178 5.703-.344l5.673-.238a.97.97 0 0 1 .226.131c.212.192.291.608.163.857-.035.069-.343.51-.684.981-.709.981-.783 1.099-.886 1.429-.298.949.042 1.975.839 2.534.232.163.406.241.899.403 1.48.485 3.109.801 4.764.922.939.069 2.909.029 3.784-.077 4.443-.536 8.369-2.258 11.989-5.258 4.033-3.342 6.434-7.2 7.228-11.614.18-1.001.231-1.562.254-2.779.028-1.511-.053-2.564-.308-4.021-.095-.542-.095-.554-.026-.554.03 0 1.329-.522 2.887-1.161l3.452-1.415c.341-.14.625-.249.631-.243s-.107.485-.253 1.065a64.75 64.75 0 0 1-1.536 5.172l-.205.601-1.956.201-1.981.226c-.013.014.004.273.04.576s.081.773.1 1.044.046.503.06.517.667-.057 1.453-.158l1.436-.176c.015.013-.636 1.568-1.002 2.393a70.44 70.44 0 0 1-.8 1.723c-.389.805-.43.872-.513.852-.213-.051-.756-.115-.779-.091-.014.014-.074.311-.134.661a22.58 22.58 0 0 1-.192 1.001c-.107.465-.106.48.016.48.055 0 .1.011.1.025s-.093.189-.206.389c-.143.253-.282.598-.454 1.125-.637 1.951-1.542 3.801-2.605 5.326-1.14 1.635-2.671 3.182-4.223 4.264-.808.563-2.272 1.402-3.302 1.892-4.018 1.911-8.168 2.796-12.381 2.642-2.747-.1-5.143-.596-7.729-1.6-.463-.18-.809-.289-1.001-.315-.621-.086-1.319.12-1.968.581-.322.229-.917.852-1.152 1.207-.366.553-.408.651-5.242 12.202l-1.706 4.058c-.018.017-1.85.399-2.469.515-2.867.538-5.832.88-8.852 1.023-.965.046-.979.046-.979.022zm14.627-2.173c0-.018.093-.238.206-.49l4.158-9.295c1.641-3.673 1.645-3.682 1.748-3.652l.582.177c.704.215 1.658.451 2.499.616l.74.146-.649 4.756-.651 4.778c-.001.012-.078.051-.172.087l-.949.384c-2.084.85-4.56 1.7-6.768 2.324-.797.225-.745.213-.745.169zm-34.868-.477a118.11 118.11 0 0 1-4.256-1.449c-4.439-1.682-8.638-3.823-12.56-6.405-.435-.286-.785-.525-.779-.531s.47-.185 1.03-.398l3.037-1.159 18.203-6.954 12.149-4.645 9.44-3.611c.078-.03.102-.011.196.154.663 1.167 1.234 2.058 1.885 2.939.319.432.37.521.323.565-.031.029-3.131 2.389-6.889 5.246l-8.952 6.807-4.436 3.377-4.156 3.163-2.872 2.186c-.568.433-1.063.785-1.099.783a1.76 1.76 0 0 1-.265-.066zm45.715-3.574c.011-.051.31-1.909.663-4.129l.654-4.047c.006-.006.432.008.947.032.678.031 1.221.03 1.969-.003.568-.025 1.043-.035 1.055-.023.022.022.647 4.844.648 5.005.001.07-.144.171-.76.533-1.2.705-2.393 1.351-3.754 2.036l-1.35.661c-.08.025-.089.017-.071-.065zm7.935-4.428a127.26 127.26 0 0 0-.2-2.008l-.2-1.987c0-.049.112-.084.51-.158a33.34 33.34 0 0 0 2.84-.718c.492-.159.492-.159.526-.073l.414 1.014.38.928-.726.556a72.79 72.79 0 0 1-2.914 2.101c-.529.361-.629.416-.629.346zm-73.023-1.618c-5.733-4.18-10.746-9.29-14.716-15.003-.517-.743-.531-.768-.457-.768.027 0 4.565-.468 10.084-1.04l12.373-1.281 4.816-.498 5.755-.597 14.247-1.478 11.114-1.159.144-.021.147.574a26.66 26.66 0 0 0 1.098 3.302c.087.209.147.391.132.405s-4.415 1.819-9.778 4.012l-12.069 4.936-7.053 2.889-9.052 3.707-6.105 2.477c-.029 0-.334-.206-.679-.457zm78.824-3.511c-.136-.356-.246-.666-.245-.688s.123-.092.27-.156c.712-.308 2.463-1.247 3.15-1.69.078-.05.093-.041.199.112l.115.166-.224.204-.839.78c-.622.583-2.034 1.838-2.128 1.89-.037.021-.119-.15-.298-.619zM10.046 98.373c-2.53-4.01-4.576-8.168-6.141-12.484l-.262-.723-.039-1.316c-.065-2.193.042-4.586.297-6.69.033-.274.064-.5.069-.503s1.618.252 3.585.567L19.904 79.2l9.731 1.558 39.051 6.234c.047 0 .149-2.12.104-2.158-.017-.015-3.233-.463-7.145-.995l-35.727-4.859L4.17 76.015c-.112-.02-.126-.036-.111-.129l.161-.985c1.119-6.856 3.754-13 7.849-18.301.59-.764 1.357-1.681 1.417-1.695.044-.01 3.731 1.631 17.088 7.605l8.292 3.709 7.253 3.245 23.605 10.533c.018 0 .111-.247.207-.55a26.33 26.33 0 0 1 .344-1.009c.123-.333.157-.467.123-.488-.04-.024-16.858-7.085-23.678-9.942l-4.455-1.866-2.277-.954.319-.028c1.36-.12 2.247-.345 3.161-.804a5.84 5.84 0 0 0 1.696-1.224c.866-.865 1.349-1.703 1.716-2.976.482-1.671.966-2.651 1.676-3.397.381-.4.734-.668 1.14-.866.355-.173.898-.343.984-.308.031.013 1.235.982 2.676 2.155l11.008 8.943 8.387 6.811.07-.097.397-.556a18.29 18.29 0 0 1 .568-.754c.171-.209.23-.31.204-.348-.03-.044-10.213-7.94-19.143-14.845l-2.197-1.699.345-.124c1.159-.416 1.763-.972 1.981-1.823.094-.365.056-1.02-.085-1.471-.211-.672-.204-.633-.127-.71.062-.062.172-.07 1.057-.071 1.036-.001 1.23-.025 1.78-.216.736-.255 1.278-.812 1.549-1.591.151-.432.235-.949.336-2.069.145-1.596.304-2.384.59-2.928l.089-.17.237.33 2.914 4.027 3.122 4.317 11.217 15.476.116.148.42-.277c.231-.152.643-.405.916-.563.339-.195.487-.302.468-.335-.026-.043-9.096-11.979-12.849-16.907l-3.284-4.317-2.068-2.713c-.185-.235-.175-.255.221-.419.602-.249 1.203-.381 1.959-.43.231-.015 1.163-.005 2.071.023 2.219.067 3.147.001 4.009-.284 1.01-.334 1.58-.939 1.763-1.87.131-.668.046-1.318-.62-4.743-.702-3.607-.91-4.888-1.06-6.511-.081-.876-.115-1.782-.064-1.679.022.044.434 1.114.916 2.378l4.86 12.73 1.839 4.816 3.766 9.852 2.876 7.538c.013.049-.156.15-.715.427-.403.2-1.02.528-1.371.729-.608.348-2.115 1.315-2.089 1.34.007.007.246-.102.532-.241 4.96-2.417 10.956-2.757 16.583-.94 1.375.444 2.158.789 4.496 1.981.545.278 1.434.457 2.263.456.809-.001 1.472-.193 1.821-.527.178-.17 1.357-2.245 1.368-2.409.005-.067.387-1.02.85-2.12l2.03-4.836 3.206-7.654 3.734-8.913 2.637-6.295.932-2.21c.035-.038 1.285 2.415 1.818 3.569 1.672 3.619 3.099 7.636 4.056 11.417l.189.745-3.127 3.851-3.732 4.591-7.727 9.509-.804.976c-.068.071-.085.062-.486-.251-.412-.322-1.252-.929-1.507-1.089l-.133-.083.057.136 1.88 4.336 1.869 4.415c.188.879-.381 1.852-1.241 2.119-.241.075-.697.099-5.622.297l-5.504.176c-.317-.088-.543-.408-.545-.772-.001-.166.058-.319.382-.999a38.32 38.32 0 0 1 .608-1.223c.219-.408.225-.428.226-.739.001-.243-.021-.375-.092-.552-.299-.746-1.293-1.749-2.353-2.373-.678-.399-2.121-.928-3.477-1.275a19.45 19.45 0 0 0-4.986-.617 18.98 18.98 0 0 0-4.915.607c-2.564.651-4.883 1.785-7.153 3.498-3.046 2.298-5.312 4.987-6.797 8.066-.891 1.847-1.461 3.744-1.738 5.776-.146 1.076-.153 2.877-.016 4.137l.017.16-.055-.18c-.046-.148-.056-.16-.059-.071-.003.079-.029.115-.094.129-.049.011-6.33.812-13.957 1.779l-19.022 2.417-25.601 3.26c-.009 0-.235-.346-.502-.769zm59.16-7.072c-.013-.032-.022-.022-.024.024s.008.066.021.052.015-.048.003-.077zM2.292 80.757C1.225 76.885.549 73.161.223 69.366a51.44 51.44 0 0 1-.183-3.486L0 64.377l.222-.872c1.026-4.03 2.999-9.288 4.945-13.184.834-1.668 2.108-3.972 3.014-5.448 4.524-7.368 11.02-13.937 18.237-18.442 4.763-2.973 9.631-4.886 15.326-6.024 2.401-.48 4.275-.747 8.272-1.182 7.395-.804 9.21-1.112 13.208-2.239 5.643-1.591 10.856-4.417 16.323-8.85.077-.063.077-.062.008.049-.193.306-4.778 6.427-8.836 11.797l-1.63 2.157-.113.541c-.28 1.343-.375 2.373-.372 4.038.004 2.418.205 4.002 1.093 8.603.627 3.246.696 3.669.698 4.267.002.483-.008.561-.092.748-.184.408-.594.692-1.227.848-.649.161-.963.181-2.515.162-2.778-.034-3.342-.024-3.876.071a5.69 5.69 0 0 0-1.678.528c-1.512.742-2.253 2.034-2.475 4.318l-.124 1.275c-.165 1.696-.508 2.186-1.669 2.386-.272.047-.578.059-1.262.049-.878-.013-.908-.011-1.075.079-.424.226-.681.606-.716 1.057-.017.213.002.315.127.69.198.592.233 1.064.102 1.368-.27.627-1.201 1.04-2.898 1.286-.653.095-1.044.192-1.457.362-1.766.729-2.955 2.378-3.701 5.133a5.26 5.26 0 0 1-1.342 2.362 5.06 5.06 0 0 1-1.456 1.082c-1.768.899-4.114.964-6.351.177-.821-.289-1.828-.839-2.438-1.332-.394-.318-2.015-1.921-2.895-2.863-1.157-1.237-4.874-5.389-5.311-5.932-1.484-1.844-3.465-2.989-5.569-3.22-1.511-.166-3.09.232-4.244 1.07a3.17 3.17 0 0 1-.492.271c-.97.422-1.495.872-2.928 2.512a40.64 40.64 0 0 0-8.457 15.505 47.53 47.53 0 0 0-1.737 10.456l-.07 1.239-.027.38zm116.333-1.589c-.393-1.098-1.164-2.772-1.743-3.787-.1-.176-.17-.331-.155-.344s.9-.687 1.966-1.497l8.693-6.614.561-.428-.013.285c-.089 2.047-.3 4.294-.593 6.334-.132.915-.422 2.634-.489 2.9-.028.111-.112.147-2.346 1.001l-5.833 2.221c-.013 0-.034-.031-.048-.07zm-3.351-6.294c-.603-.842-1.496-1.899-2.33-2.757-.271-.279-.487-.523-.48-.542.016-.04.085-.129 4.611-5.978l6.45-8.34 3.096-3.99.084-.093.032.153c.388 1.86.788 4.559.984 6.648.176 1.868.3 4.393.276 5.595l-.013.619-1.219.884-11.242 8.131c-.008 0-.12-.148-.25-.329zm-11.08-8.628a27.27 27.27 0 0 0-3.564-1.153c-.271-.066-.501-.129-.511-.139s.704-5.33 1.587-11.822l2.624-19.297 2.15-15.697c.065-.065 3.515 3.296 4.624 4.507 3.041 3.317 5.783 7.012 7.966 10.736l.308.525-1.177 2.632-2.955 6.609-3.798 8.493-3.164 7.075-2.31 5.166-1.186 2.604c-.012-.002-.278-.11-.592-.24zm-21.159-7.5l-3.92-9.583-4.582-11.191-4.18-10.21-.613-1.497.06-.402c.033-.221.099-.6.146-.842l.087-.44 2.639-3.497 11.17-15.058c.27-.379.505-.689.521-.689.027 0 .289.083.311.098.011.008 1.991 19.056 3.507 33.755l.498 4.816 1.52 14.669.61 5.861c.014.104.01.106-.408.173-1.121.18-2.559.533-3.764.925l-.681.216c-.009 0-1.324-3.197-2.922-7.104zm14.177 5.763c-.87-.102-2.031-.149-3.147-.128-.61.011-1.109.009-1.109-.005s-.153-1.23-.34-2.703l-2.4-18.865-1.198-9.393-3.007-23.652-.495-4.027c.032 0 .995.356 1.605.593a64.48 64.48 0 0 1 17.889 10.527c.365.302.52.456.51.503a1347 1347 0 0 0-.734 4.584l-1.86 11.651-1.96 12.25-2.919 18.276-.071.45-.162-.005c-.089-.003-.36-.028-.602-.057zm-67.118-1.461l-5.235-2.199-10.815-4.544c-.068-.038.861-1.017 1.214-1.279a5.41 5.41 0 0 1 1.072-.601c.111-.044.339-.177.506-.297.597-.428 1.318-.725 2.069-.85.541-.09 1.609-.062 2.125.057 1.608.371 3.057 1.295 4.144 2.642a40.4 40.4 0 0 0 1.025 1.179l1.638 1.838c1.805 2.038 2.756 3.07 3.953 4.288l.779.806a732.81 732.81 0 0 1-2.474-1.039zM.164 59.886c-.001-.059.025-.445.058-.859.66-8.256 2.882-16.25 6.564-23.615C12.976 23.03 22.829 13.116 35.11 6.916 45.764 1.536 57.494-.76 69.318.221c4.56.378 9.034 1.247 13.6 2.641l.292.089-.432.436c-.868.875-2.258 2.143-3.449 3.144-6.148 5.171-12.894 8.758-19.202 10.211-2.328.536-4.302.827-9.251 1.363-5.55.601-7.906.957-10.874 1.642-8.12 1.873-15.144 5.638-22.016 11.799-.954.856-3.353 3.255-4.204 4.205a61.13 61.13 0 0 0-7.646 10.552c-2.07 3.599-4.004 7.946-5.559 12.49-.226.659-.411 1.151-.412 1.092z" fill="url(#A)"/></svg>