<svg xmlns="http://www.w3.org/2000/svg" width="128" height="128" xmlns:v="https://vecta.io/nano"><path d="M63.982 0C99.339 0 128 28.654 128 64c0 34.992-28.092 63.426-62.96 63.991l-1.058.009V74.059l-8.126 8.124-1.038 20.277 8.475 25.504a63.595 63.595 0 0 1-14.546-1.867l-1.164-.299-4.1-12.327L31.86 119.3a64.743 64.743 0 0 1-11.751-8.738l-.882-.844L40.756 98.93l.628-12.338-12.34.633-10.791 21.518A64.025 64.025 0 0 1 9.294 97.17l-.628-1.056L14.5 84.491 2.162 80.395A64.089 64.089 0 0 1 .027 65.941L0 64.688l25.515 8.473 20.284-1.035L53.922 64l-8.124-8.128-20.284-1.035L0 63.31c.053-5.013.716-9.872 1.867-14.542l.295-1.163L14.5 43.509 8.668 31.886a64.427 64.427 0 0 1 8.74-11.749l.844-.88 10.791 21.518 12.34.633-.629-12.341-21.527-10.784a63.957 63.957 0 0 1 11.579-8.955L31.86 8.7l11.623 5.828 4.1-12.327A63.957 63.957 0 0 1 62.041.062l1.252-.027-8.475 25.504 1.038 20.277 8.126 8.124zm14.226 16.292v95.417c20.548-6.133 35.566-25.202 35.566-47.708 0-22.258-14.692-41.152-34.891-47.502z" fill="#ff00af" fill-rule="evenodd"/></svg>