<svg xmlns="http://www.w3.org/2000/svg" width="128" height="128" fill="none" xmlns:v="https://vecta.io/nano"><path d="M127.998 48.705L99.075 67.199c22.815-18.046 22.815-37.489 22.815-37.489L91.616 59.26c20.376-33.421 12.917-47.184 12.917-47.184L80.419 52.343c-5.29-1.443-10.742-2.172-16.217-2.168h-.386a61.47 61.47 0 0 0-16.217 2.168h0L23.485 12.076S15.043 24.71 35.419 58.131L6.18 29.709S3.196 46.985 27.574 66.124C27.451 66.321.002 48.705.002 48.705S-.7 65.299 23.485 78.614v.43c0 18.046 18.024 36.683 40.366 36.88h.386c22.307-.197 40.366-18.834 40.366-36.88v-.43c24.097-13.315 23.395-29.909 23.395-29.909zM50.354 97.18s-7.161.466-11.285-3.745-3.615-11.505-3.615-11.505 7.161-.484 11.285 3.745 3.615 11.505 3.615 11.505zm38.611-3.745c-4.124 4.211-11.267 3.745-11.267 3.745s-.456-7.294 3.668-11.505 11.267-3.745 11.267-3.745.404 7.294-3.738 11.505z" fill="url(#A)"/><defs><linearGradient id="A" x1="27.662" y1="91.839" x2="104.66" y2="7.812" gradientUnits="userSpaceOnUse"><stop stop-color="#eb1357"/><stop offset="1" stop-color="#db23c8"/></linearGradient></defs></svg>