<svg xmlns="http://www.w3.org/2000/svg" width="128" height="128" xmlns:v="https://vecta.io/nano"><defs><linearGradient id="A" x1="4.93" y1="0" x2="123.07" y2="0" gradientUnits="userSpaceOnUse"><stop offset="0%" stop-color="#0c5c92"/><stop offset="0" stop-color="#25cbe5"/><stop offset=".31" stop-color="#1dacc2"/><stop offset=".678" stop-color="#2a8d9c"/><stop offset="100%" stop-color="#0c5c92"/></linearGradient></defs><path d="M57.098 0c13.386 0 24.979 2.39 34.779 7.171 9.92 4.781 17.569 11.832 22.947 21.154 5.498 9.203 8.246 20.676 8.246 34.42 0 14.342-2.749 26.353-8.246 36.034s-13.505 16.971-24.022 21.871c-10.398 4.9-22.947 7.35-37.647 7.35H16.941V75.832H4.93v-22.23h12.011V0zm1.255 22.23H44.011v31.373h20.796v22.23H44.011v29.759h11.473c13.147 0 23.007-3.526 29.58-10.577s9.86-17.569 9.86-31.552c0-9.442-1.434-17.21-4.303-23.305S83.57 29.58 78.073 26.711c-5.378-2.988-11.951-4.482-19.72-4.482z" fill="url(#A)"/></svg>