<svg xmlns="http://www.w3.org/2000/svg" width="128" height="128" viewBox="0 0 33.867 33.867" xmlns:v="https://vecta.io/nano"><path d="M16.922 9.72c1.043 0 1.914 1.295 2.136 3.028 1.172-.971 2.513-1.265 3.144-.634.702.702.259 2.283-.991 3.531a5.66 5.66 0 0 1-.433.39 16.37 16.37 0 0 1 7.569 3.937 16.34 16.34 0 0 1 5.247 10.68h0l.273 3.214H29.64l-.243-2.858c-.259-3.049-1.644-5.868-3.9-7.939a12.17 12.17 0 0 0-8.248-3.21h0-.631a12.17 12.17 0 0 0-8.248 3.21c-2.256 2.07-3.641 4.889-3.9 7.939h0l-.243 2.858H0l.273-3.214a16.34 16.34 0 0 1 5.247-10.68c2.149-1.972 4.751-3.315 7.551-3.933-.149-.121-.296-.252-.438-.394-1.25-1.248-1.693-2.829-.991-3.531.631-.63 1.972-.336 3.144.634.222-1.734 1.093-3.028 2.136-3.028zm-4.117 15.544c.837 0 1.515 1.206 1.515 2.694s-.678 2.694-1.515 2.694-1.515-1.206-1.515-2.694.678-2.694 1.515-2.694zm8.258 0c.837 0 1.515 1.206 1.515 2.694s-.678 2.694-1.515 2.694-1.515-1.206-1.515-2.694.678-2.694 1.515-2.694z"/></svg>