<svg xmlns="http://www.w3.org/2000/svg" width="128" height="128" viewBox="0 0 33.867 33.867" xmlns:v="https://vecta.io/nano"><path d="M17.033 10.55c-.364.161-.857.26-1.077.61.184.591.176 1.337-.348 1.746-.14.4-.243.9-.708 1.055a3.25 3.25 0 0 0-.903.343c-.442.189-.842-.103-1.267-.137-.746.14-1.319-.532-1.7-1.077-.098-.2-.489-.417-.511-.052.024.679-.255 1.379-.018 2.041.323.244.843.163 1.107.541.606.573.433 1.664-.17 2.17-.143.103-.41.58-.076.591.858-.299 2.033.14 2.167 1.123.168.667-.16 1.288-.339 1.908-.034.442.571.374.828.24 1.02-.277 1.904-.907 2.919-1.178.571-.165 1.023.536.718 1.019-.611.802-1.597 1.24-2.382 1.855-.731.55-1.514 1.148-2.47 1.166-.811.111-1.807.024-2.253-.774-.272-.396-.108-.888.183-1.211-.152-.279-.593-.293-.817-.533-.197-.121-.507-.523-.742-.304.051.832.199 1.686.482 2.474.751 1.288 2.062 2.174 3.406 2.758 1.351.52 2.952.349 4.201-.364 1.952-1.285 3.445-3.197 4.321-5.357.519-1.327 1.054-2.799.714-4.236-.335-1.054-1.502-1.423-2.485-1.578-.646-.098-.671-1.197-.003-1.284.974-.328 2.006-.065 2.947.257.316-.101.093-.584.074-.817-.293-.941-.578-2.014-1.392-2.643-.201-.166-.574-.314-.687.029-.416.936-1.542 1.616-2.549 1.206-.555-.383-.74-1.06-1.115-1.574-.016-.011-.037-.016-.056-.012zm-.95 3.567c.798-.017 1.841.392 1.954 1.282-.034.631-.458 1.121-.77 1.63.019.165-.056.234-.244.194-.748.098-1.496.272-2.259.168-.617.071-1.32-.445-1.172-1.107.368-.687.75-1.464 1.435-1.889.316-.183.687-.277 1.055-.279zm-6.373.584c-.257.111-.507.255-.72.439-.249.248-.45.569-.496.922-.032.517-.041 1.04.076 1.548l.463 2.879c.018.095.172.071.156-.03.012-.35.076-.717.306-.995.243-.316.603-.514.948-.702.064-.025.059-.104-.006-.126-.398-.29-.854-.501-1.221-.833-.235-.207-.419-.513-.38-.834.063-.553.359-1.076.797-1.421.1-.111.175-.25.231-.386-.054-.143-.045-.304-.105-.443-.011-.014-.03-.023-.048-.019zm-1.047-4.284c-.079.009-.046.108-.004.142l1.453 1.789c.039.073.107.005.151-.023.092-.057.2-.084.299-.119-.002-.081-.079-.144-.103-.224-.052-.099-.062-.216-.141-.3-.122-.171-.192-.37-.273-.561-.102-.142-.227-.269-.302-.431-.046-.077-.158-.024-.233-.041-.224.015-.42-.116-.629-.172-.072-.021-.142-.054-.217-.061z" paint-order="stroke fill markers" fill="#fff" stroke="#fff" stroke-width="1.323" stroke-linejoin="round" stroke-miterlimit="3.2"/><path d="M15.619 33.167l-.763-.098c-2.792-.348-5.817-1.8-7.939-3.81-2.936-2.782-4.532-6.302-4.671-10.304-.117-3.374.979-6.754 3.086-9.514.559-.732 2.404-2.553 2.588-2.553.061 0 1.467 2.801 1.467 2.922 0 .046-.046.057-.116.028-.837-.339-1.415-.394-1.669-.157-.122.113-.145.188-.115.371.043.267.164.433.981 1.357.873.987 1.251 1.595 1.251 2.009 0 .233-.302.546-.74.768-.551.278-.882.603-1.132 1.11-.194.394-.218.507-.239 1.137-.019.567.011.861.157 1.561.304 1.458.351 1.773.459 3.096.249 3.043.469 3.744 1.496 4.761 1.703 1.687 3.785 2.546 5.624 2.318.663-.082 1.606-.379 2.133-.672.874-.485 2.107-1.563 2.871-2.508 1.485-1.838 2.623-4.441 2.893-6.62.123-.994-.123-1.942-.665-2.561-.465-.531-1.331-.937-2.27-1.063-.177-.024-.306-.058-.287-.077s.259-.062.535-.096c1.308-.162 2.434.43 3.018 1.587.315.625.401 1.104.403 2.24.002 2.286-.559 3.815-2.225 6.063-.516.696-.858 1.4-.997 2.054-.364 1.713.508 3.155 1.903 3.143 1.116-.009 2.399-1.111 2.498-2.145.082-.851-.52-1.621-1.34-1.713-.158-.018-.342 0-.41.04-.111.065-.106.072.056.074a1.93 1.93 0 0 1 1.137.531c.492.545.376 1.361-.3 2.093-.398.432-.838.626-1.415.626-.407 0-.513-.026-.777-.194-.388-.246-.62-.64-.762-1.295-.094-.435-.099-.591-.033-1.053.109-.759.483-1.506.984-1.964.468-.428.585-.487 2.047-1.028 1.637-.606 2.341-.962 2.859-1.446.743-.695 1.068-1.564 1-2.668-.044-.713-.222-1.317-.622-2.119-.683-1.365-1.907-2.757-3.413-3.878l-.551-.41-.204-.642c-.395-1.246-1.03-2.16-1.688-2.431l-.298-.123-.149-.591c-.308-1.221-.967-2.622-1.651-3.511-.336-.436-.469-.499-.752-.353-.491.254-1.434 1.904-1.759 3.077-.287 1.035-.454 1.27-1.112 1.561-.451.2-.569.21-.62.053-.111-.343-.781-1.81-1.385-3.033-.851-1.725-1.301-2.698-1.265-2.734.057-.057 1.03-.285 1.83-.428.702-.126 1.068-.149 2.387-.15 1.755-.001 2.584.107 4.065.533a14.76 14.76 0 0 1 10.185 10.458c.359 1.385.437 2.053.435 3.725-.002 1.688-.111 2.532-.504 3.932-1.602 5.705-6.448 9.887-12.345 10.653-.7.091-2.687.128-3.163.06zm-4.009-9.139c-.335-.089-.698-.401-.698-.599 0-.128.237-.364.365-.364.145 0 .055-.406-.029-.738l-.021-.084c-.141-.549-.063-.232-.498-.365-.671-.205-1.076-.721-1.076-1.372 0-.501.211-.761.88-1.084.99-.478 1.519-.54 1.961-.229.513.361.428 1.352-.164 1.994-.392.425-.344.324-.306.465.059.234.544.618.997.832l.417.197.636-.211c.823-.273 2.029-.792 2.548-1.095.225-.132.44-.229.478-.216.153.051-.453.576-1.278 1.11-.813.525-1.269.846-1.948 1.374-.44.342-1.65.548-2.262.385zm12.449-1.22c-.322-.322-.332-.58-.057-1.575.374-1.355.456-1.962.419-3.107-.033-1.011-.105-1.464-.519-3.239-.109-.469-.19-.894-.179-.945.031-.143 1.114.699 1.827 1.421 1.015 1.027 1.753 2.264 1.976 3.315.186.876.085 2.037-.231 2.655-.355.695-1.788 1.601-2.616 1.654-.391.025-.426.015-.619-.179zM9.75 17.57c-.109-.068-.268-.199-.353-.291-.138-.15-.147-.194-.083-.43.158-.588.618-1.012 1.099-1.012.999 0 1.06 1.229.086 1.73-.309.159-.496.159-.749.003zm.229-.311c-.11-.117-.171-.276-.195-.514l-.036-.344-.114.212c-.163.302-.143.448.09.644.278.234.476.236.257.002zm.463-1.096c-.013-.039-.06-.08-.095-.08s-.082.041-.095.08.035.087.096.087.106-.048.093-.087zm4.029.536c-.103-.031-.23-.092-.284-.137-.085-.07-.081-.099.031-.22.071-.077.24-.333.376-.57.465-.81.821-1.057 1.529-1.059.326-.001.484.039.807.206.221.114.413.256.428.315s-.001.239-.033.398c-.079.386-.555.87-1.007 1.024-.351.12-1.503.146-1.847.043zm1.09-.365c-.262-.299-.312-.507-.195-.814.067-.176.133-.246.234-.246.178 0 .268-.085.141-.133-.145-.056-.556.14-.713.339-.34.432-.014 1.077.548 1.084l.189.002zm-2.449-2.922c-.145-.163-.211-.306-.211-.453 0-.155-.055-.264-.199-.392-.138-.123-.199-.238-.199-.379 0-.124-.061-.262-.157-.359a.88.88 0 0 1-.201-.392.68.68 0 0 0-.207-.363c-.098-.077-.163-.197-.163-.299 0-.095-.088-.271-.199-.397-.116-.132-.199-.301-.199-.405 0-.11-.076-.255-.199-.378-.109-.109-.199-.269-.199-.354s-.079-.25-.176-.365-.183-.303-.192-.417c-.01-.128-.083-.266-.189-.356-.115-.099-.172-.215-.172-.348 0-.127-.072-.282-.199-.426S9.85 7.029 9.85 6.9a.4.4 0 0 0-.166-.332.4.4 0 0 1-.166-.327c0-.108-.06-.273-.133-.366s-.133-.269-.133-.402c0-.15-.057-.301-.16-.423-.088-.105-.17-.278-.182-.386-.015-.135-.078-.222-.2-.281-.154-.074-.173-.114-.142-.307.029-.18.007-.242-.119-.33a.76.76 0 0 0-.372-.108c-.198 0-.217.018-.217.202 0 .19.244.527.382.527.031 0 .044.102.03.227-.02.17.008.257.113.346.077.066.139.198.139.294s.06.251.133.344a.73.73 0 0 1 .133.41c0 .172.05.291.175.417a.64.64 0 0 1 .189.397c.008.136.081.293.189.405s.176.259.176.369c0 .121.07.251.204.376s.191.231.166.309c-.041.128.183.549.292.549.037 0 .067.107.067.239 0 .18.049.285.199.424.126.118.199.251.199.365s.074.248.206.371c.113.106.191.231.173.279-.054.141.129.494.282.543.078.025.137.095.131.156-.024.244.011.356.16.505.086.086.174.271.197.411.024.152.105.309.2.388a.72.72 0 0 1 .202.372c.024.132.102.293.174.358.259.235.087.314-.276.127-.125-.064-.25-.213-.328-.39-.073-.164-.183-.301-.26-.321-.137-.036-.364-.471-.3-.575.02-.032-.054-.148-.164-.257-.118-.118-.199-.269-.199-.37 0-.094-.029-.171-.065-.171-.076 0-.267-.349-.267-.489 0-.054-.09-.187-.199-.297s-.199-.264-.199-.343-.09-.228-.199-.33c-.12-.112-.199-.253-.199-.355a.63.63 0 0 0-.166-.348c-.091-.098-.166-.248-.166-.332s-.075-.233-.166-.332-.166-.258-.166-.365-.04-.21-.09-.239a.67.67 0 0 1-.242-.453c0-.061-.075-.199-.166-.308s-.166-.272-.166-.365c0-.1-.067-.22-.166-.298-.124-.098-.166-.193-.166-.381 0-.166-.045-.291-.133-.37a.44.44 0 0 1-.133-.282c0-.089-.06-.237-.133-.33s-.133-.247-.133-.344-.047-.242-.104-.324-.096-.247-.085-.372-.02-.27-.068-.328-.097-.214-.11-.348-.054-.275-.093-.314c-.09-.09-.091-.461-.002-.55.044-.044.047-.126.008-.229-.078-.207.017-.461.188-.505.075-.02.132-.09.132-.164 0-.215.128-.386.29-.386.1 0 .18-.059.231-.171.065-.142.116-.167.304-.151.151.013.273-.023.367-.108.136-.123.147-.124.363-.008.164.089.254.102.343.052.129-.072.489.065.489.186 0 .035.082.047.182.027.225-.045.468.16.525.442.021.107.078.194.125.194.126 0 .361.325.361.499 0 .085.069.195.16.254a.59.59 0 0 1 .208.323c.026.12.117.282.202.361s.175.228.199.332.085.235.134.292.125.206.167.332a1.61 1.61 0 0 0 .2.386c.067.087.122.217.122.289s.075.219.166.328.166.28.166.381.058.236.129.3.149.21.174.325a1.08 1.08 0 0 0 .17.367.61.61 0 0 1 .124.312c0 .085.075.228.166.32a.57.57 0 0 1 .166.341c0 .109.075.245.199.361s.199.251.199.365a.72.72 0 0 0 .166.376c.091.108.166.28.166.381a.47.47 0 0 0 .133.304c.073.066.133.193.133.282s.075.251.166.359c.106.126.166.279.166.424 0 .125.026.227.059.227.107 0 .283.457.22.57-.039.07-.018.186.063.345.142.278.151.407.047.636-.115.253-.256.274-.256.038 0-.124-.049-.227-.133-.279-.1-.062-.133-.155-.133-.372 0-.24-.036-.323-.216-.491-.119-.111-.206-.246-.194-.3.032-.149-.124-.477-.262-.551-.084-.045-.124-.14-.124-.299a.53.53 0 0 0-.166-.398c-.091-.091-.166-.226-.166-.299 0-.182-.172-.5-.296-.547-.063-.024-.102-.122-.102-.258 0-.252-.158-.514-.31-.514-.077 0-.095-.046-.069-.182.039-.202-.106-.613-.215-.613-.038 0-.07-.073-.07-.163 0-.239-.126-.474-.304-.57-.117-.063-.148-.122-.12-.232.047-.186-.13-.538-.298-.591-.093-.03-.125-.099-.12-.262.004-.15-.051-.29-.172-.434-.098-.117-.179-.265-.179-.328s-.071-.183-.158-.264a.81.81 0 0 1-.2-.411c-.032-.199-.082-.278-.207-.326-.136-.052-.165-.107-.165-.317 0-.14-.038-.306-.085-.37-.079-.109-.099-.106-.315.039-.309.208-.344.466-.085.63.131.082.18.162.166.265-.013.091.044.213.149.318s.17.245.17.356.071.263.166.365.166.215.166.258c0 .144.261.51.363.51.073 0 .1.072.1.259a.45.45 0 0 0 .192.421c.141.118.184.204.161.321-.019.102.031.251.14.411.094.138.17.296.17.351 0 .172.192.48.326.522.104.033.122.083.093.26s.002.262.17.453c.131.149.206.306.206.43a.5.5 0 0 0 .166.351c.1.094.166.229.166.341s.078.275.189.403c.104.12.177.254.161.298-.039.111.17.532.285.576.052.02.094.124.094.232s.071.28.166.393a.7.7 0 0 1 .166.398.7.7 0 0 0 .166.398c.091.108.166.273.166.366s.03.187.066.21c.116.072.072.287-.081.394-.205.144-.236.133-.341-.118-.051-.122-.163-.278-.25-.348-.101-.082-.162-.208-.172-.354-.008-.132-.082-.298-.174-.398a.95.95 0 0 1-.202-.409c-.023-.131-.116-.308-.207-.393a.49.49 0 0 1-.165-.38c0-.162-.056-.281-.199-.425s-.199-.261-.199-.432-.051-.281-.199-.419c-.125-.117-.199-.252-.199-.363s-.077-.254-.199-.376c-.114-.114-.199-.269-.199-.363 0-.208-.163-.527-.296-.578-.066-.025-.102-.124-.102-.278 0-.177-.051-.291-.199-.438-.14-.14-.199-.263-.199-.417s-.057-.275-.181-.399-.175-.237-.162-.36-.048-.264-.184-.434c-.111-.14-.202-.321-.202-.402s-.06-.224-.133-.316a.66.66 0 0 1-.133-.34c0-.163-.201-.437-.321-.437-.03 0-.053-.123-.05-.273.008-.375-.138-.468-.461-.294-.189.102-.232.161-.216.297.013.108.086.201.202.257.157.075.182.126.182.374 0 .174.039.319.099.369.055.045.099.181.099.301 0 .133.061.292.157.406.086.103.178.284.204.402s.123.274.215.347c.105.083.153.171.128.237-.052.136.123.552.254.602.065.025.102.123.102.269 0 .167.054.284.199.429.114.114.199.269.199.364 0 .203.114.426.276.541.079.056.122.169.122.32 0 .174.054.287.21.443.121.121.216.29.225.398.008.103.089.268.179.365s.182.295.204.442c.025.167.102.319.208.411a.45.45 0 0 1 .168.388c0 .183.048.287.199.428.141.132.199.248.199.398s.058.266.199.398c.113.106.199.254.199.343a.64.64 0 0 0 .105.308c.274.391-.221.484-.557.105zM9.062 2.453c.087-.068.227-.248.312-.398l.153-.273-.174-.066c-.235-.089-.394-.083-.65.023-.21.088-.643.518-.643.639 0 .217.75.274 1.002.075zm9.533 8.975c-.374-.203-.817-1.179-.991-2.182-.118-.684-.05-1.485.165-1.925.222-.454.967-1.27 1.109-1.215.103.039.637.944 1.077 1.825.578 1.156.591 2.278.033 2.954-.387.47-1.052.728-1.394.543z" fill="#ff007a" stroke="#fff" stroke-width="1.323" paint-order="stroke fill markers"/></svg>