<svg xmlns="http://www.w3.org/2000/svg" class="w-[10.0625rem] h-[5.8125rem] mx-auto" fill="#ead5ba" width="128" height="128" xmlns:v="https://vecta.io/nano"><path d="M22.264 28.029c7.283 0 11.923 4.946 10.896 12.593l-6.287 46.761a14.09 14.09 0 0 1-14.28 12.581H0l9.673-71.938zM10.202 90.975H13.8a4.26 4.26 0 0 0 4.08-3.596l6.287-46.761a3.08 3.08 0 0 0-.071-1.345 3.07 3.07 0 0 0-.638-1.187 3.08 3.08 0 0 0-2.404-1.064h-3.599zm54.819-51.256L60.669 72.09a14.09 14.09 0 0 1-14.282 12.593c-7.285 0-11.924-4.942-10.896-12.593l4.353-32.371a14.09 14.09 0 0 1 4.692-9.072c2.644-2.331 6.065-3.585 9.589-3.517 7.283 0 11.924 4.945 10.896 12.589zm-32.12 51.615h25.177l-1.16 8.633H31.74zm15.931-51.615L44.479 72.09a3.09 3.09 0 0 0 .07 1.346 3.08 3.08 0 0 0 3.044 2.252 4.26 4.26 0 0 0 4.08-3.598l4.357-32.371a3.09 3.09 0 0 0-.07-1.346 3.08 3.08 0 0 0-.638-1.187c-.297-.344-.667-.618-1.083-.802s-.867-.274-1.322-.263a4.26 4.26 0 0 0-4.083 3.598zm47.926 0L90.23 88.277a14.09 14.09 0 0 1-14.281 12.593c-7.285 0-11.926-4.945-10.898-12.593l6.528-48.558A14.09 14.09 0 0 1 85.862 27.13c7.286 0 11.927 4.945 10.896 12.589zm-16.186 0l-6.529 48.558c-.076.448-.052.908.071 1.346s.34.843.638 1.187a3.09 3.09 0 0 0 1.083.802 3.08 3.08 0 0 0 1.322.263 4.26 4.26 0 0 0 4.08-3.598l6.529-48.558a3.08 3.08 0 0 0-.071-1.345 3.07 3.07 0 0 0-.638-1.187 3.08 3.08 0 0 0-1.082-.802c-.415-.184-.867-.274-1.321-.264a4.26 4.26 0 0 0-4.075 3.598zm47.301 0l-2.781 20.683h-8.09l1.149-8.543h-8.813l-1.149 8.543h-8.094l2.781-20.683a14.22 14.22 0 0 1 4.733-8.889 14.21 14.21 0 0 1 9.434-3.522c7.282 0 11.783 5.307 10.828 12.41zm-16.918.089l-.653 4.856h8.813l.653-4.856a3.75 3.75 0 0 0-.138-1.605c-.162-.519-.435-.996-.801-1.398a3.73 3.73 0 0 0-1.315-.931c-.501-.211-1.042-.31-1.584-.291a5.17 5.17 0 0 0-4.974 4.224zm4.897 27.786c5.755 0 8.165 4.137 7.525 8.903-.216 2.24-1.205 4.336-2.797 5.927a9.7 9.7 0 0 1-5.928 2.794l-.145 1.08c3.548.359 7.286 1.977 6.549 7.463l-.834 6.204h-8.092l.701-5.215c.435-3.237-1.254-5.397-4.224-5.397h-4.047l-1.425 10.609h-8.09l4.353-32.372zm-10.37 14.927h5.666a3.87 3.87 0 0 0 3.786-3.418c.254-1.888-.797-3.416-2.869-3.416h-5.663z"/></svg>