<svg xmlns="http://www.w3.org/2000/svg" width="128" height="128" xmlns:v="https://vecta.io/nano"><path d="M64 128c35.33 0 64-28.67 64-64S99.33 0 64 0C28.633 0 0 28.633 0 64c0 35.33 28.633 64 64 64z" fill="#009f55"/><g fill="#fff"><path d="M91.692 92.783c-.677.489-1.618.79-2.822.978-1.129.188-1.957.15-2.483-.113-.15-.075-.263-.301-.414-.715-.113-.451-.226-.752-.414-.941-.075-.075-.15-.113-.263-.15-1.392-.752-2.859-1.392-4.44-1.957-3.725-1.392-7.563-2.22-11.513-2.521l-3.311-7.939c-1.204-3.048-1.58-4.816-1.129-5.267l38.791-38.754c.226-.226.978-.188 2.22.151 1.279.376 2.069.79 2.408 1.204.376.451.941 1.543 1.656 3.311.752 1.731 1.543 2.972 2.333 3.762 1.016 1.016 2.822 1.919 5.418 2.634 2.408.602 3.725 1.204 3.988 1.693.564 1.091.865 3.236.941 6.396.15 3.16-.038 5.155-.564 5.945-.226.376-1.091.602-2.596.602-1.43.075-2.408-.113-2.822-.564-.376-.376-.602-.715-.677-.978s-.15-.414-.263-.451c-1.505-.978-2.972-1.806-4.44-2.483-3.386-1.693-6.283-2.558-8.616-2.634l-8.39 8.39c1.806.602 4.026 1.505 6.584 2.784.602.489 1.016 2.408 1.129 5.794.188 3.386 0 5.38-.602 5.982-.376.376-1.053.602-2.069.602-.978.038-1.806-.113-2.37-.414-.339-.339-.978-.903-1.919-1.693-1.543-1.053-4.966-2.257-10.196-3.612l-5.418 5.38c1.656.414 3.762 1.091 6.359 1.994 2.634.941 4.176 1.58 4.59 1.994.489.489.941 2.446 1.355 5.869.451 3.499.451 5.38-.038 5.719z"/><path d="M37.399 92.858c.677.489 1.655.828 2.859.978 1.129.188 1.956.15 2.483-.113.15-.075.263-.301.414-.715.113-.451.226-.752.414-.941.075-.075.151-.113.263-.15 1.392-.752 2.859-1.43 4.44-1.957 3.725-1.392 7.563-2.22 11.551-2.521l3.311-7.976c1.204-3.085 1.58-4.816 1.129-5.267L25.322 35.255c-.226-.226-.978-.188-2.22.151-1.279.376-2.107.79-2.446 1.204-.376.452-.941 1.543-1.655 3.311-.752 1.731-1.543 2.972-2.333 3.762-1.053 1.053-2.859 1.919-5.456 2.634-2.408.64-3.762 1.204-3.988 1.693-.564 1.091-.865 3.236-.941 6.434-.151 3.16.038 5.155.564 5.945.226.376 1.091.602 2.596.64 1.467.075 2.408-.113 2.859-.564.376-.376.602-.715.677-.978s.15-.414.263-.451a38.18 38.18 0 0 1 4.44-2.483c3.424-1.693 6.283-2.558 8.654-2.634l8.428 8.428c-1.844.602-4.026 1.505-6.622 2.784-.64.489-1.016 2.408-1.129 5.794-.226 3.386 0 5.38.64 6.02.376.376 1.053.602 2.069.64s1.806-.113 2.37-.414c.339-.339.978-.903 1.919-1.693 1.543-1.053 4.966-2.295 10.234-3.612l5.456 5.418c-1.655.414-3.762 1.091-6.359 2.032-2.671.941-4.176 1.618-4.59 2.032-.489.489-.941 2.446-1.354 5.907-.489 3.386-.489 5.267 0 5.606z"/></g></svg>