<svg xmlns="http://www.w3.org/2000/svg" width="128" height="128" viewBox="0 0 33.867 33.867" xmlns:v="https://vecta.io/nano"><g fill="#f47920"><path d="M21.632 0l-1.563 3.633 2.68-2.367zm-2.337 1.965l-5.45 2.769-.625 5.092-7.664 5.721-1.853 9.096 3.411 5.727 10.401 3.495-4.575-7.008 7.456-9.706.476-7.563-3.514-2.427zm3.454 3.752l-3.618 1.117 2.561 1.355zm-12.316 1.37l-.49 3.523 2.107-1.525zM22.63 9.231l-1.212 9.741-6.47 7.886 3.454 6.734 9.649-15.041-1.816-5.45zm6.132 11.458l-8.693 12.483 6.246-2.24 3.97-5.676z" paint-order="stroke fill markers"/><path d="M17.516 33.867L7.114 30.371l-3.411-5.727 1.853-9.096z" paint-order="stroke fill markers"/></g><path d="M5.556 15.548l14.841 1.604-9.671 6.314-5.17-7.918" fill="#f26522" paint-order="stroke fill markers"/><path d="M10.726 23.466l9.671-6.314-7.456 9.706-2.215-3.392" fill="#e22f22" paint-order="stroke fill markers"/><path d="M5.556 15.548l7.664-5.721 7.176 7.325-14.841-1.604" fill="#f99d1c" paint-order="stroke fill markers"/><path d="M13.22 9.827l.625-5.092 7.028 4.854-.476 7.564-7.176-7.325" fill="#f47920" paint-order="stroke fill markers"/><path d="M13.845 4.735l5.449-2.769-1.936 5.196-3.514-2.427" fill="#f99d1c" paint-order="stroke fill markers"/><path d="M18.4 33.593l-3.453-6.735 6.38-.824z" fill="#e22f22" paint-order="stroke fill markers"/><path d="M14.947 26.858l11.286-13.756-4.906 12.931-6.38.824" fill="#f47920" paint-order="stroke fill markers"/><path d="M18.4 33.593l9.649-15.041-1.816-5.449z" fill="#c4161c" paint-order="stroke fill markers"/><path d="M26.233 13.102L22.63 9.231l-1.213 9.741 4.816-5.87" fill="#f26522" paint-order="stroke fill markers"/><path d="M20.069 33.173l8.693-12.483 1.523 4.568z" fill="#e22f22" paint-order="stroke fill markers"/><path d="M20.069 33.173l6.246-2.239 3.97-5.676-10.216 7.915" fill="#c4161c" paint-order="stroke fill markers"/><path d="M9.944 10.611l.49-3.523 1.618 1.997zm9.187-3.777l2.561 1.355 1.057-2.472z" paint-order="stroke fill markers" fill="#f47920"/><path d="M20.069 3.633l2.68-2.367L21.632 0z" fill="#f99d1c" paint-order="stroke fill markers"/></svg>