<svg xmlns="http://www.w3.org/2000/svg" width="128" height="128" xmlns:v="https://vecta.io/nano"><path d="M125.2 64c0 33.8-27.4 61.2-61.2 61.2S2.8 97.8 2.8 64 30.2 2.8 64 2.8s61.2 27.4 61.2 61.2z" fill="#1f2937"/><path d="M64 0C28.687 0 0 28.687 0 64c0 16.973 6.744 33.253 18.745 45.255A64 64 0 0 0 64 128c16.973 0 33.253-6.744 45.255-18.745A64 64 0 0 0 128 64c0-16.973-6.744-33.253-18.745-45.255A64 64 0 0 0 64 0zm0 5.6c15.49 0 30.342 6.152 41.295 17.105S122.4 48.51 122.4 64s-6.152 30.342-17.105 41.295S79.49 122.4 64 122.4s-30.342-6.152-41.295-17.105S5.6 79.49 5.6 64C5.6 31.713 31.713 5.6 64 5.6zM31.68 66.56h14.56V60.8H31.68v-6.08h7.44 7.44v-5.76H25.28v30.08h6.4zm32-17.6h-6.4v30.08h6.4zm18.8 10.858L96.536 79.04h6.184V48.96h-6.397l-.083 18.599L82.528 48.96H75.84v30.08h6.558z" fill="#e53935"/></svg>