<svg xmlns="http://www.w3.org/2000/svg" width="128" height="128" viewBox="0 0 33.867 33.867" xmlns:v="https://vecta.io/nano"><defs><linearGradient id="A" x1="17.689" y1="-1.755" x2="16.439" y2="36.767" gradientUnits="userSpaceOnUse"><stop offset=".03" stop-color="#fa9828"/><stop offset="1" stop-color="#f2313c"/></linearGradient></defs><path d="M20.579 33.867l1.101-.23c5.924-1.694 10.194-6.464 10.194-12.09a10.96 10.96 0 0 0-.393-2.889c-.122.855-.418 1.677-.87 2.413a6.32 6.32 0 0 1-1.757 1.869c3.496-8.962-6.036-11.587-5.469-17.043-.299.216-.559.482-.767.787a6.64 6.64 0 0 0-1.052 2.905c-.114 1.076-.727 1.56-1.51 1.541h-.049c-2.322-.13-6-4.579-2.609-11.128L9.062 7.675c-3.787 3.753-4.632 7.009-4.194 9.808.101.633.262 1.256.484 1.858.007.017.01.03.016.047a12.35 12.35 0 0 0 .49 1.145c1.478 4.036-3.633 4.329-3.47-1.899-.261.948-.394 1.927-.393 2.91 0 3.245 1.056 6.212 3.997 8.82 1.834-5.437 3.875-8.794 5.55-10.837a14.09 14.09 0 0 1 2.229-2.224c.376-.31.79-.57 1.233-.773-3.58-2.09-3.606-7.214-3.606-7.214 1.488 2.232 4.15 4.51 8.324 6.512a11.1 11.1 0 0 0 .35.165c5.851 2.731 4.304 6.169 4.304 6.169-1.048-1.25-3.216-2.332-3.216-2.332l.643 2.216c2.289.126 3.456.87 3.995 1.808 1.091 1.901-.393 4.599-.393 4.599.09-.543-.456-1.806-1.418-2.922-.61-.744-1.391-1.329-2.277-1.706a3.66 3.66 0 0 0-1.505-.237 3.64 3.64 0 0 0-1.471.397c-.457.234-.86.562-1.182.962a3.67 3.67 0 0 0-.689 1.361c-.863 3.428 3.718 7.558 3.718 7.558zM17.394.004l-.013.013c-.112.12-.725.787-1.585 1.755L17.393.003z" fill="url(#A)"/><g style="mix-blend-mode:multiply" opacity=".2"><path d="M5.989 30.366c-2.949-2.607-3.997-5.575-3.997-8.82 0-.983.132-1.962.393-2.91-.014.077-.617 3.391 1.522 5.969l-.883-.167s.78 3.225 2.965 5.929z" fill="#ba0000"/></g><g style="mix-blend-mode:multiply" opacity=".2"><path d="M8.321 12.492l.197-2.651s-3.952 4.451-3.165 9.499c-.221-.602-.383-1.224-.484-1.858-.438-2.798.407-6.055 4.19-9.802L17.394.006c-.189.201-8.263 8.869-9.073 12.486z" fill="#ba0000"/></g><g style="mix-blend-mode:screen" opacity=".5"><path d="M20.007 11.132c-3.557.394-5.206-2.481-5.23-2.525l.82.421c-1.376-4.168.59-7.435 1.447-8.578l.348-.445c-3.386 6.543.293 10.992 2.615 11.126z" fill="#fcab1b"/></g><g style="mix-blend-mode:screen" opacity=".5"><path d="M28.854 22.939c1.5-5.97-3.932-8.832-3.932-8.832l1.376.209C22.13 9.987 23.332 6.039 23.377 5.9c-.558 5.457 8.973 8.082 5.477 17.04z" fill="#fcab1b"/></g><g style="mix-blend-mode:screen" opacity=".5"><path d="M31.874 21.546c0 5.626-4.27 10.396-10.194 12.09a25.35 25.35 0 0 1-1.101.23c7.258-2.241 8.668-9.2 8.668-9.2l.21 1.724c2.479-3.237 2.029-7.734 2.029-7.734a10.95 10.95 0 0 1 .387 2.889z" fill="#fcab1b"/></g><g style="mix-blend-mode:multiply" opacity=".2"><path d="M22.929 10.662l-.741-.567s-.218 1.505-1.815 1.011c.627-.104 1.097-.59 1.193-1.519a6.64 6.64 0 0 1 1.052-2.905l.232-.295s-.877 2.871.079 4.274z" fill="#ba0000"/></g><g style="mix-blend-mode:screen" opacity=".5"><path d="M5.549 24.037l.23-.484s-2.483 1.682-3.171-2.582l.305 1.999a8.25 8.25 0 0 1-.525-4.329c-.163 6.232 4.948 5.935 3.47 1.899l-.49-1.145c-.004-.016-.01-.032-.016-.047l-.012-.073c.283.295 2.978 3.304.208 4.762z" fill="#fcab1b"/></g><g style="mix-blend-mode:multiply" opacity=".2"><path d="M31.486 18.657s-.159 2.918-.81 3.949l-.063-.716s-.659.929-1.76 1.049a6.32 6.32 0 0 0 1.756-1.869 6.33 6.33 0 0 0 .87-2.413z" fill="#ba0000"/></g><g style="mix-blend-mode:multiply" opacity=".2"><path d="M15.004 16.53a5.61 5.61 0 0 0-1.233.773c-.825.656-1.573 1.403-2.231 2.226-1.18 1.431-2.526 3.507-3.861 6.494 1.443-6.26 5.937-9.536 5.937-9.536-2.961-3.542-2.218-7.167-2.218-7.167s.026 5.12 3.606 7.21z" fill="#ba0000"/></g></svg>