<svg xmlns="http://www.w3.org/2000/svg" xmlns:xlink="http://www.w3.org/1999/xlink" width="128" height="128" xmlns:v="https://vecta.io/nano"><defs><linearGradient id="A" x1="342.83" y1="708.12" x2="52.24" y2="998.72" gradientUnits="userSpaceOnUse"><stop offset="0" stop-color="#2fe4fe" stop-opacity=".3"/><stop offset=".44" stop-color="#2f70fe" stop-opacity=".5"/><stop offset=".56" stop-color="#2c6dfa" stop-opacity=".53"/><stop offset=".7" stop-color="#2565ef" stop-opacity=".63"/><stop offset=".85" stop-color="#1a57de" stop-opacity=".8"/><stop offset="1" stop-color="#0c47c9"/></linearGradient><linearGradient id="B" x1="2.83" y1="987.92" x2="231.73" y2="987.92" gradientUnits="userSpaceOnUse"><stop offset="0" stop-color="#2fe4fe"/><stop offset=".44" stop-color="#2f70fe"/><stop offset=".58" stop-color="#2b6cf8"/><stop offset=".75" stop-color="#2160ea"/><stop offset=".94" stop-color="#114ed2"/><stop offset="1" stop-color="#0c47c9"/></linearGradient><linearGradient id="C" x1="741.7" y1="268.83" x2="136.68" y2="873.85" xlink:href="#B"/><linearGradient id="D" x1="571.49" y1="895.38" x2="1159.24" y2="895.38" xlink:href="#B"/><linearGradient id="E" x1="906.36" y1="702.34" x2="788.64" y2="702.34" xlink:href="#B"/><linearGradient xlink:href="#B" id="F"/></defs><g transform="matrix(.120826 0 0 .120813 9.393994 .000605)"><g fill="#63e5e5" stroke="#000" stroke-miterlimit="10" stroke-width="8.277"><path d="M.69 938.48v.01z"/><path d="M2.83 945.09l-2.14-6.6c.47 2.2 1.18 4.4 2.14 6.6z"/></g><path d="M392.2 758.32l-82.24-34.5c-6.6-2.77-13.15 4.06-10.09 10.54l10.69 22.66c2.06 4.37-.29 9.54-4.93 10.85C253.07 782.74-14.26 862.3.6 938l.25.95 1.84 5.69c.1.3.21.59.33.87 1.96 4.34 4.92 8.65 8.95 12.94 3.26 3.46 8.81 3.28 11.8-.42 25.6-31.8 109.32-77.5 295.44-143.14 5.08-1.79 10.41 1.98 10.41 7.37v16.95c0 7.63 9.82 10.74 14.21 4.49l51.74-73.69c2.87-4.08 1.23-9.77-3.37-11.7z" fill="url(#A)"/><path d="M18.98 964.95c-7.95-6.54-13.22-13.18-16.14-19.87l12.74 39.3h0c14.31 48.65 216.16 46.34 216.16 46.34-118.39-19.08-183.61-41.79-212.76-65.78z" fill="url(#F)"/><path d="M232.55 893.59c26.77 47.5 64.71 83.92 108.97 107.25l270-74.23 85.62-42.41c46.57-98.84 27.03-223.52-53.96-304.5l-65.96-65.96 87.86-87.86c4.54-4.54 4.54-11.9 0-16.44l-97.6-97.59c-4.54-4.54-11.9-4.54-16.44 0l-87.86 87.86-46.98-46.98c-11.95-11.95-20.25-27.46-21.73-44.29-1.82-20.74 5.43-40.54 19.93-55.03l135.96-135.97c4.54-4.54 4.54-11.9 0-16.44L452.75 3.4c-4.54-4.54-11.9-4.54-16.44 0L304.08 135.62c-40.82 40.82-67.29 94.68-70.74 152.31-3.99 66.77 20.18 130.22 67.02 177.05l105.8 105.78 125.32 125.33c17.94 17.94 30.02 41.49 31.6 66.82 1.81 29.12-8.71 56.8-29.12 77.22-18.91 18.9-44.04 29.32-70.78 29.32s-51.87-10.42-70.77-29.32c-39.02-39.03-39.02-102.52 0-141.56h0l14.04-14.03c4.54-4.54 4.54-11.9 0-16.44l-97.59-97.61c-4.54-4.54-11.9-4.54-16.44 0l-14.04 14.04h0c-81.68 81.69-102.51 208.44-45.8 309.06z" fill="url(#C)"/><g fill="#63e5e5"><path d="M891.2 722.52h-.01l.05.12zm13.64 39.19l-.05-.13.04.14h0z"/><path d="M891.25 722.64l1.04 2.99a30.26 30.26 0 0 0-1.04-2.99zm11.9 34.24l1.64 4.7-1.64-4.7z"/></g><path d="M904.83 761.72l-.04-.14-1.64-4.7-8.9-25.6-1.32 7.47h0c-1.5 8.42-6.69 17.64-16.75 27.7-71 71-395.5 150.5-395.5 150.5l-13.99-43.58c-2.45-7.65-12.19-9.9-17.75-4.11L320.83 1002.6c-2.33 2.43-1.23 6.46 2 7.37l174.31 49.12c7.56 2.13 14.59-4.72 12.66-12.33l-12.13-47.81s292-65 385-167c23.73-26.03 28.38-49.57 22.14-70.22z" fill="url(#D)"/><path d="M892.29 725.63l-1.04-2.99-.05-.13c-16.15-39.47-115.51-56.57-115.51-56.57s83.08 26.59 117.25 72.8c.82-4.61.54-8.98-.65-13.12z" fill="url(#E)"/></g></svg>