<svg xmlns="http://www.w3.org/2000/svg" width="128" height="128" xmlns:v="https://vecta.io/nano"><path d="M118.3339.15356244l-.002-.001426a1.3743573 1.3743573 0 0 0-1.51462.17165739L82.479052 29.167804H45.520779L11.184046.32486328A1.3778158 1.3778158 0 0 0 8.9221865 1.4780811L13.78296 68.8392a1.0319267 1.0319267 0 0 0 .01846.134405 1.1463864 1.1463864 0 0 0 .06476.215877 1.286211 1.286211 0 0 0 .164013.339842 1.1409026 1.1409026 0 0 0 .07382.09889l41.850045 49.584816a1.2843355 1.2843355 0 0 0 .09123.12743l6.894249 8.16999a1.3759831 1.3759831 0 0 0 2.104828 0l6.887959-8.15608a.8957532.8957532 0 0 0 .0696-.0891l41.893186-49.637082q.0261-.03131.0501-.06475a1.2764487 1.2764487 0 0 0 .19429-.394159l.0133-.03758a1.0510592 1.0510592 0 0 0 .0634-.292485l4.86147-67.3600846a1.3762826 1.3762826 0 0 0-.74377-1.32556696zM84.885764 30.745116L116.09433 4.5299986l-4.36917 60.5438424zM65.469119 110.04581l-1.478777 1.61771-1.470768-1.61214 1.476338-1.39347zm3.383744 8.677l-4.853122 5.75076-4.856923-5.75494 4.849635-3.33569zm-2.778586-5.25354l2.346811-2.56758a1.3848969 1.3848969 0 0 0-.07451-1.93107l-3.409515-3.21244a1.3684385 1.3684385 0 0 0-1.497225-.25697 1.3902237 1.3902237 0 0 0-.438028.30503l-3.357631 3.16995a1.3819161 1.3819161 0 0 0-.07381 1.93107l2.338461 2.56339-4.552279 3.13165-12.499739-14.81008 6.018869-26.147238a1.3774307 1.3774307 0 0 0-1.083584-1.661579l-32.159824-6.172072 28.058074-35.887582h36.618788l28.058105 35.887589-32.159121 6.172072h-.0036a1.3778657 1.3778657 0 0 0-1.08009 1.662948l6.018869 26.145142-12.504319 14.81492zM47.868646 76.420806L42.63495 99.15922 19.506912 71.756406l-.784495-.929019zM109.2774 70.82743L85.364881 99.15922l-5.234038-22.738414zM43.113368 30.745116L16.274281 65.073841 11.905504 4.5299986z"/></svg>