<svg xmlns="http://www.w3.org/2000/svg" width="128" height="128" xmlns:v="https://vecta.io/nano"><path d="M9.213 8.794l-7.677 8.166c-.035.105 3.734 3.804 8.375 8.201l8.968 8.55.523.489-.942 1.57c-8.27 13.679-9.98 30.15-4.781 45.295.977 2.862 2.652 6.526 4.083 8.933.698 1.186 1.012 1.954.942 2.094s-4.292 4.606-9.387 9.945L0 111.843c-.035.105 14.238 13.889 15.599 15.005l.523.454 8.061-8.41 9.213-9.666 1.186-1.186 1.117.698c5.688 3.629 12.353 6.142 19.716 7.468 3.699.663 10.748.838 14.691.349 7.607-.872 15.145-3.42 21.322-7.154l1.605-.977 1.71 1.675 17.832 16.96c.14.07 15.459-15.948 15.424-16.157-.035-.105-10.539-10.19-16.96-16.227l-2.129-2.024.977-1.605c8.201-13.644 9.911-30.185 4.606-45.435-.768-2.233-3.106-7.258-4.467-9.562l-.663-1.152 8.968-9.387 8.899-9.527c-.14-.349-15.843-15.18-16.052-15.18-.139 0-4.083 4.013-8.794 8.968l-8.724 9.003c-.07.035-.523-.174-.942-.489-1.186-.803-4.188-2.443-5.863-3.21-5.095-2.338-9.841-3.769-15.354-4.571-2.861-.419-11.446-.489-14.098-.105-6.351.907-11.551 2.478-16.855 5.13-1.535.733-3.315 1.71-4.013 2.129l-1.256.768-1.431-1.396c-.768-.768-4.257-4.048-7.712-7.363l-7.817-7.468L16.785.698zm58.591 22.752c5.549.663 10.504 2.547 15.075 5.758 2.338 1.64 5.828 5.13 7.468 7.468 9.317 13.191 7.538 31.128-4.188 42.12-10.015 9.352-24.497 11.446-36.676 5.234-8.794-4.502-15.005-12.737-16.995-22.613-.628-3.141-.628-9.003 0-12.109.593-3.071 1.396-5.269 2.896-8.34 6.002-12.074 19.019-19.123 32.419-17.518z"/></svg>