<svg xmlns="http://www.w3.org/2000/svg" width="128" height="128" viewBox="0 0 33.867 33.867" xmlns:v="https://vecta.io/nano"><path d="M4.698 33.815c-.932-.198-.966-.574-.178-1.981 1.33-2.379 2.365-5.996 2.973-10.393.204-1.475.336-1.857.794-2.296.534-.512.637-.528 3.613-.583l3.063-.057.055-5.37.055-5.37h1.834 1.834l.055 5.37.055 5.37 3.063.057c2.972.055 3.08.072 3.61.581.449.43.589.824.78 2.193.631 4.512 1.585 7.903 2.905 10.327.627 1.15.763 1.562.586 1.774-.356.429-1.584.544-3.377.316-1.97-.25-2.199-.465-2.562-2.388l-.259-1.374.593-.474.593-.474-7.179-.001-7.179-.001-.368 1.79c-.459 2.231-.559 2.425-1.382 2.68-.787.244-3.339.44-3.976.305zm18.141-8.042c0-.109-.154-.897-.341-1.751-.474-2.156-.435-2.141-5.591-2.141-4.939 0-5.168.068-5.506 1.643-.122.57-.222 1.167-.222 1.326s-.201.477-.448.706l-.448.417h6.278c3.926 0 6.278-.074 6.278-.199zM8.26 15.633c-.423-.423-.563-.849-.754-2.301-.545-4.139-1.585-7.816-2.888-10.208-1.042-1.912-.899-2.11 1.511-2.109 1.968.001 3.011.249 3.351.794.226.362.538 1.865 1.684 8.103.461 2.508.767 2.966 1.98 2.966h.693v1.637 1.637h-2.529c-2.435 0-2.548-.019-3.049-.519zm11.715-1.117v-1.637h.693c1.283 0 1.521-.408 2.087-3.58 1.002-5.617 1.355-7.085 1.837-7.646.447-.52.533-.537 2.757-.537 2.882 0 3.002.114 1.953 1.847-1.245 2.055-2.318 5.815-3.001 10.519-.373 2.57-.514 2.67-3.759 2.67h-2.566zm-3.957-8.691c-2.231-.782-2.87-3.288-1.252-4.906a2.95 2.95 0 0 1 4.273-.009c.768.768 1.042 1.626.849 2.657-.323 1.723-2.226 2.834-3.869 2.259z" fill="#f6c214"/></svg>