<svg xmlns="http://www.w3.org/2000/svg" width="128" height="128" xmlns:v="https://vecta.io/nano"><path fill="#fff" d="M14.443 56.675H0v-8.649h14.443v-.63l.132-7.57c.304-4.839 1.542-9.398 4.449-13.375 3.044-4.165 7.239-6.548 12.178-7.738 4.024-.967 8.102-1.066 12.207-.717a45.77 45.77 0 0 1 12.41 2.858c.224.085.449.181.722.292l-2.442 7.809-1.676-.653c-5.266-1.961-10.702-2.469-16.224-1.609-6.285.975-10.08 4.938-11.111 11.241-.373 2.286-.342 4.582-.343 6.881v3.185h25.583v8.623H24.786v53.425H14.443z"/><path fill="#f7d509" d="M97.161 83.531a.73.73 0 0 1-.054-.112c.015-.039.033-.076.054-.112l7.632-13.847 3.03-5.402h-9.765l-6.285 13.958h-.224l-6.846-13.958-10.275-.056a3401.84 3401.84 0 0 0 10.836 19.305l.061.112-.061.112-10.949 19.474 10.388-.055 6.846-13.752h.224l6.285 13.758h9.877L97.161 83.531zm-26.407 22.512l-5.131 4.145c-14.402-13.098-16.004-38.262-.057-53.49l5.144 4.17-1.294 1.495c-3.479 4.087-5.89 8.593-6.907 13.895-.641 3.342-.759 6.71-.523 10.101.266 3.816 1.145 7.477 2.782 10.945a34.11 34.11 0 0 0 5.5 8.193c.145.154.278.311.487.545zm40.697 0l5.13 4.145c14.402-13.098 16.005-38.262.058-53.49l-5.148 4.17 1.294 1.495c3.479 4.087 5.89 8.593 6.906 13.895.641 3.342.759 6.71.523 10.101-.266 3.816-1.144 7.477-2.781 10.945-1.427 2.983-3.279 5.743-5.5 8.193-.146.154-.279.311-.483.545z"/></svg>