<svg xmlns="http://www.w3.org/2000/svg" xmlns:xlink="http://www.w3.org/1999/xlink" width="128" height="128" viewBox="0 0 33.867 33.867" xmlns:v="https://vecta.io/nano"><defs><linearGradient id="A" x1="3.128" y1="24.255" x2="29.995" y2="24.255" xlink:href="#B"/><linearGradient id="B" gradientUnits="userSpaceOnUse"><stop offset="0" stop-color="#f2ad6c"/><stop offset="1" stop-color="#fff"/></linearGradient><linearGradient id="C" x1="21.28" y1="10.39" x2="22.909" y2="10.39" xlink:href="#B"/><linearGradient id="D" x1="12.834" y1="9.433" x2="30.5" y2="9.433" xlink:href="#B"/><linearGradient id="E" x1="29.066" y1="11.302" x2="30.29" y2="11.302" xlink:href="#B"/><linearGradient id="F" x1="20.678" y1="11.606" x2="21.341" y2="11.606" xlink:href="#B"/><linearGradient id="G" x1="30.248" y1="12.508" x2="30.736" y2="12.508" xlink:href="#B"/><linearGradient id="H" x1="26.735" y1="10.872" x2="30.455" y2="10.872" xlink:href="#B"/></defs><path d="M26.353 2.819l-.011-.016.014.028zm2.303 10.235a.057.057 0 0 0 0-.013.012.012 0 0 1 0 .013zm.064.228a.247.247 0 0 0 .012.039.36.36 0 0 0-.012-.039zm1.44 2.286a.358.358 0 0 0 .02-.047.356.356 0 0 1-.02.047zm-2.331 2.425a4.949 4.949 0 0 0 .53-.301q-.252.161-.53.301z" fill="url(#H)"/><g fill="#f4eeff"><path d="M28.656 13.054a.057.057 0 0 0 0-.013.012.012 0 0 1 0 .013zM20.717 11.9zm0 0zm0 0zm2.372-2.356c0-.017-.012-.032-.017-.047l.018.047.008.019zM20.717 11.9zm0 0zm0 0zm9.465 3.622a.358.358 0 0 1-.02.047z"/><path d="M28.721 13.282a.247.247 0 0 0 .012.038.36.36 0 0 0-.012-.038zm-.064-.229a.057.057 0 0 0 0-.013.012.012 0 0 1 0 .015z"/><path d="M28.659 13.046a.057.057 0 0 1 0 .012.012.012 0 0 0 0-.012zM26.356 2.831l-.013-.028.011.016zm2.365 10.451a.247.247 0 0 0 .012.038.36.36 0 0 0-.012-.038zm1.58-1.128a.112.112 0 0 1 .008-.03.224.224 0 0 0-.008.03z"/></g><path d="M30.736 12.508a1.007 1.007 0 0 1-.009.14.378.378 0 0 1-.008.053.448.448 0 0 1-.091.26.194.194 0 0 1-.131.056.193.193 0 0 1-.148-.055.376.376 0 0 1-.079-.197 1.404 1.404 0 0 1-.028-.26l.006-.131c0-.019 0-.036.008-.055a.662.662 0 0 1 .065-.228.194.194 0 0 1 .252-.071.179.179 0 0 1 .08.079.622.622 0 0 1 .057.192 1.172 1.172 0 0 1 .024.216z" fill="url(#G)"/><path d="M21.341 11.605a1.206 1.206 0 0 1-.016.194.741.741 0 0 1-.05.186.26.26 0 0 1-.057.079.194.194 0 0 1-.035.029.274.274 0 0 1-.087.043.298.298 0 0 1-.261-.044.342.342 0 0 1-.12-.194 1.172 1.172 0 0 1-.037-.293c0-.168.012-.379.161-.488a.289.289 0 0 1 .172-.055.304.304 0 0 1 .174.057.315.315 0 0 1 .118.19 1.034 1.034 0 0 1 .027.13c0 .03.008.061.009.09z" fill="url(#F)"/><path d="M30.29 11.305a1.888 1.888 0 0 1-.299 1.013.451.451 0 0 1-.291.23.328.328 0 0 1-.261-.092.603.603 0 0 1-.151-.225l-.094-.218a2.156 2.156 0 0 1-.076-.236 2.029 2.029 0 0 1-.057-.493 1.928 1.928 0 0 1 .26-.949.682.682 0 0 1 .181-.217.298.298 0 0 1 .27-.05.421.421 0 0 1 .183.165 1.893 1.893 0 0 1 .334 1.042.167.167 0 0 1 .003.03z" fill="url(#E)"/><path d="M30.489 14.639a1.823 1.823 0 0 1-.735-.153 1.847 1.847 0 0 1-.462-.295 1.805 1.805 0 0 1-.308-.343l-.034-.05a3.03 3.03 0 0 1-.354-1.013 4.831 4.831 0 0 1 .12-2.316l.021-.068a.024.024 0 0 0 0-.011 1.876 1.876 0 0 1 .483-.781 1.847 1.847 0 0 1 .793-.448l.04-.01.048-.012-.02-.044q-.13-.27-.269-.521c-.008-.016-.017-.029-.026-.045a1.164 1.164 0 0 1-.131-.227l-.071-.268a.026.026 0 0 0 0-.009 2.116 2.116 0 0 1-.047-.219 13.158 13.158 0 0 0-.123-.684A12.707 12.707 0 0 0 25.632.382l-.39-.345L25.206 0c0 .018-.006.036-.009.056l-.115.9-.05.911v.23a12.774 12.774 0 0 0 .315 2.812 7.877 7.877 0 0 0-5.305.18l-.113-.12a.294.294 0 0 0-.034-.038 12.146 12.146 0 0 0-1.925-1.675 12.709 12.709 0 0 0-4.318-1.967 14.304 14.304 0 0 0-.48-.109l-.053-.009c0 .016 0 .031-.009.047a13.069 13.069 0 0 0-.191 1.172 12.707 12.707 0 0 0 2.035 8.489 13.152 13.152 0 0 0 1.622 1.981 7.823 7.823 0 0 0 .876 2.14 7.943 7.943 0 0 0 3.906 3.323 7.755 7.755 0 0 0 2.734.541 8.007 8.007 0 0 0 2.795-.459 6.189 6.189 0 0 0 2.131-1.227 5.295 5.295 0 0 0 1.338-2.084 5.429 5.429 0 0 0 .107-.32l.024-.081.014-.047zM17.578 6.861a4.949 4.949 0 0 0-.41.634 4.835 4.835 0 0 0-.358.839q-.069.187-.131.383l-.137.511a7.902 7.902 0 0 0-.172 1.131l-.082-.131a.577.577 0 0 1-.038-.06q-.26-.423-.493-.871l-.023-.052a12.862 12.862 0 0 1-.651-1.499c0-.018-.013-.035-.018-.053a12.581 12.581 0 0 1-.705-4.167v-.184a12.718 12.718 0 0 1 3.646 2.166l.305.268a.205.205 0 0 1 .035.033l.131.113.012.012-.068.052-.281.244-.042.038-.056.055a4.933 4.933 0 0 0-.467.538zm5.71 5.107a4.633 4.633 0 0 1-.16.651l-.026.079a1.823 1.823 0 0 1-.651.862l-.044.031a1.802 1.802 0 0 1-.63.27l-.071.012a1.814 1.814 0 0 1-.317.029 1.793 1.793 0 0 1-.504-.073.307.307 0 0 1-.05-.013 1.823 1.823 0 0 1-.816-.533 2.447 2.447 0 0 1-.507-1.153c-.161-.781-.164-1.67.104-2.431a2.047 2.047 0 0 1 .659-.955l.04-.031a1.844 1.844 0 0 1 1.073-.348c.883 0 1.535.616 1.788 1.432a3.527 3.527 0 0 1 .089.345 4.858 4.858 0 0 1 .104.999 4.783 4.783 0 0 1-.08.826zm3.111 3.291a.418.418 0 0 1-.247.301.4.4 0 0 1-.163.032.417.417 0 1 1 .41-.336zm1.823-8.691a7.813 7.813 0 0 0-.834-.651q-.242-.164-.491-.309c0-.035-.007-.069-.01-.105l-.155-1.172-.012-.055-.164-.758c0-.018-.01-.038-.015-.055q-.08-.315-.175-.623l-.014-.028.012.016q.275.367.521.754l.042.067.551.958.038.073a12.62 12.62 0 0 1 .812 1.996 2.003 2.003 0 0 0-.114-.107z" fill="url(#D)"/><path d="M30.301 12.154a.112.112 0 0 1 .008-.03.224.224 0 0 0-.008.03zm0 0a.112.112 0 0 1 .008-.03.224.224 0 0 0-.008.03zm0 0a.112.112 0 0 1 .008-.03.224.224 0 0 0-.008.03zm0 0a.112.112 0 0 1 .008-.03.224.224 0 0 0-.008.03zm0 0a.112.112 0 0 1 .008-.03.224.224 0 0 0-.008.03zm0 0a.112.112 0 0 1 .008-.03.224.224 0 0 0-.008.03zm0 0a.112.112 0 0 1 .008-.03.224.224 0 0 0-.008.03zm0 0a.112.112 0 0 1 .008-.03.224.224 0 0 0-.008.03zm0 0a.112.112 0 0 1 .008-.03.224.224 0 0 0-.008.03zm0 0a.112.112 0 0 1 .008-.03.224.224 0 0 0-.008.03zm0 0a.112.112 0 0 1 .008-.03.224.224 0 0 0-.008.03zm0 0a.112.112 0 0 1 .008-.03.224.224 0 0 0-.008.03zm0 0a.112.112 0 0 1 .008-.03.224.224 0 0 0-.008.03zm0 0a.112.112 0 0 1 .008-.03.224.224 0 0 0-.008.03zm0 0a.112.112 0 0 1 .008-.03.224.224 0 0 0-.008.03zm0 0a.112.112 0 0 1 .008-.03.224.224 0 0 0-.008.03zm0 0a.112.112 0 0 1 .008-.03.224.224 0 0 0-.008.03zm0 0a.112.112 0 0 1 .008-.03.224.224 0 0 0-.008.03zm0 0a.112.112 0 0 1 .008-.03.224.224 0 0 0-.008.03zm0 0a.112.112 0 0 1 .008-.03.224.224 0 0 0-.008.03zm0 0a.112.112 0 0 1 .008-.03.224.224 0 0 0-.008.03zm-2.474 5.839a4.949 4.949 0 0 0 .53-.301q-.252.161-.529.301zm2.332-2.425a.358.358 0 0 0 .02-.047.234.234 0 0 1-.018.047zm.141-3.414a.112.112 0 0 1 .008-.03.224.224 0 0 0-.007.03zm0 0a.112.112 0 0 1 .008-.03.224.224 0 0 0-.007.03zm0 0a.112.112 0 0 1 .008-.03.224.224 0 0 0-.007.03zm0 0a.112.112 0 0 1 .008-.03.224.224 0 0 0-.007.03zm0 0a.112.112 0 0 1 .008-.03.224.224 0 0 0-.007.03zm0 0a.112.112 0 0 1 .008-.03.224.224 0 0 0-.007.03zm0 0a.112.112 0 0 1 .008-.03.224.224 0 0 0-.007.03zm0 0a.112.112 0 0 1 .008-.03.224.224 0 0 0-.007.03zm0 0a.112.112 0 0 1 .008-.03.224.224 0 0 0-.007.03zm0 0a.112.112 0 0 1 .008-.03.224.224 0 0 0-.007.03zm0 0a.112.112 0 0 1 .008-.03.224.224 0 0 0-.007.03zm-7.23-2.656l.018.047c-.005-.017-.012-.033-.017-.047zm7.23 2.656a.112.112 0 0 1 .008-.03.224.224 0 0 0-.007.03zm0 0a.112.112 0 0 1 .008-.03.224.224 0 0 0-.007.03zm0 0a.112.112 0 0 1 .008-.03.224.224 0 0 0-.007.03zm0 0a.112.112 0 0 1 .008-.03.224.224 0 0 0-.007.03zm0 0a.112.112 0 0 1 .008-.03.224.224 0 0 0-.007.03zm0 0a.112.112 0 0 1 .008-.03.224.224 0 0 0-.007.03zm0 0a.112.112 0 0 1 .008-.03.224.224 0 0 0-.007.03zm0 0a.112.112 0 0 1 .008-.03.224.224 0 0 0-.007.03zm0 0a.112.112 0 0 1 .008-.03.224.224 0 0 0-.007.03zm0 0a.112.112 0 0 1 .008-.03.224.224 0 0 0-.007.03z" fill="#ff1d25"/><path d="M22.91 10.39a1.823 1.823 0 0 1-.142.714 1.367 1.367 0 0 1-.391.585.472.472 0 0 1-.131.068.455.455 0 0 1-.299 0 .87.87 0 0 1-.421-.444 1.935 1.935 0 0 1-.229-.692c0-.017 0-.034-.006-.053l-.008-.179a1.352 1.352 0 0 1 .006-.146v-.048a1.863 1.863 0 0 1 .26-.791c.115-.197.318-.412.564-.409.268 0 .448.271.559.484a2.014 2.014 0 0 1 .233.807q.004.055.004.102z" fill="url(#C)"/><path d="M29.993 19.828a.191.191 0 0 1-.055.108.195.195 0 0 1-.223.035.153.153 0 0 1-.039-.024l-.018-.018a.105.105 0 0 0-.016-.019.085.085 0 0 0-.068-.022.065.065 0 0 0-.032.012.083.083 0 0 0-.035.05.009.009 0 0 0 0 .006.071.071 0 0 0 0 .037.079.079 0 0 1 .009.018.131.131 0 0 1 0 .066.123.123 0 0 1-.034.073.131.131 0 0 1-.216-.057v-.009a.081.081 0 0 0-.06-.053.131.131 0 0 0-.063.008l-.071.018-.278.079c-.023 0-.045.013-.065.02a7.589 7.589 0 0 0-1.268.527 7.858 7.858 0 0 0-3.411 3.488l-.091.189c-.164.356-.318.716-.318 1.115a1.801 1.801 0 0 0 .098.589c0 .017.012.034.018.05l.01.022a.238.238 0 0 0 .018.042.074.074 0 0 0 .032.025.087.087 0 0 0 .026.008h.006a.074.074 0 0 0 .05-.017l.016-.014.026-.004a.146.146 0 0 1 .042-.016.198.198 0 0 1 .05-.006.193.193 0 0 1 .107.354.149.149 0 0 1-.073.028.081.081 0 0 0-.057.033.076.076 0 0 0 .014.113.073.073 0 0 0 .022.012.082.082 0 0 0 .025 0h.05a.209.209 0 0 1 .048.009.203.203 0 0 1 .066.035.177.177 0 0 1 .049.058.159.159 0 0 1 .022.072.201.201 0 0 1 0 .057.212.212 0 0 1-.023.06.098.098 0 0 1-.012.02.194.194 0 0 1-.156.078.177.177 0 0 1-.038 0 .153.153 0 0 1-.027-.008.211.211 0 0 1-.045-.022.236.236 0 0 1-.028-.023.079.079 0 0 0-.072-.021.094.094 0 0 0-.037.017.155.155 0 0 0-.019.023.109.109 0 0 0 0 .016.083.083 0 0 0 .014.074l.016.013.014.019a.19.19 0 0 1 .022.043.195.195 0 0 1-.181.26.212.212 0 0 1-.077-.016.195.195 0 0 1-.063-.044.186.186 0 0 1-.043-.067.194.194 0 0 1-.015-.07.054.054 0 0 1 0-.016.089.089 0 0 0 0-.018.079.079 0 0 0-.032-.064.081.081 0 0 0-.064-.016.093.093 0 0 0-.023.01.074.074 0 0 0-.028.025.066.066 0 0 0-.009.022.26.26 0 0 1-.012.053.12.12 0 0 1-.021.035.205.205 0 0 1-.031.027.131.131 0 0 1-.039.016.138.138 0 0 1-.065 0 .131.131 0 0 1-.093-.122v-.049a.068.068 0 0 0-.012-.035.081.081 0 0 0-.051-.034l-.091-.025a1.284 1.284 0 0 1-.13-.042 1.885 1.885 0 0 1-.939-.781 1.196 1.196 0 0 1-.05-.089l-.047-.093-.022-.047a.716.716 0 0 1-.019-.049c-.006-.016 0-.013-.009-.02a.131.131 0 0 0-.006-.016 1.832 1.832 0 0 0-1.678-1.102c-.391 0-.74.143-1.087.299a7.83 7.83 0 0 0-2.387 1.677 7.915 7.915 0 0 0-1.511 2.187 9.023 9.023 0 0 0-.39 1.071 5.127 5.127 0 0 1-1.516 2.417 4.869 4.869 0 0 1-.582.435l-.087.055-.087.052a5.127 5.127 0 0 1-.761.358 3.745 3.745 0 0 1-.241.082l-.102.032a8.319 8.319 0 0 1-1.98.343 6.976 6.976 0 0 1-1.349-.057 7.553 7.553 0 0 1-1.795-.449 4.998 4.998 0 0 1-.932-.496 2.362 2.362 0 0 1-.131-.094 5.419 5.419 0 0 1-.581-.497 5 5 0 0 1-.564-.677l-.045-.067a4.843 4.843 0 0 1-.749-1.897l-.017-.099a2.554 2.554 0 0 1-.022-.175 2.766 2.766 0 0 1-.014-.294 3.113 3.113 0 0 1 .042-.505 3.03 3.03 0 0 1 1.145-1.894l.042-.032.232-.157.052-.031a3.021 3.021 0 0 1 .685-.289l.189-.048a1.693 1.693 0 0 1 .196-.031l.186-.009a1.681 1.681 0 0 1 .242.016h.045a2.132 2.132 0 0 1 .209.044l.102.031.1.038.072.03a1.897 1.897 0 0 1 .853.771l.028.049q.035.064.067.131l.055.139a1.445 1.445 0 0 1 .043.146l.034.149c0 .023.008.045.011.068s0 .042.006.063a1.942 1.942 0 0 1 .01.194v.094c-.026.83.608 1.589 1.401 1.78a1.869 1.869 0 0 0 1.75-.521 4.364 4.364 0 0 0 .43-.591 13.076 13.076 0 0 1 2.022-2.269 12.762 12.762 0 0 1 1.24-.971 14.28 14.28 0 0 1 1.508-.889l.25-.121.13-.061.093-.042.038-.018.046-.02.13-.059.131-.055a1.859 1.859 0 0 0-.309-.085 1.832 1.832 0 0 0-1.188.187 2.021 2.021 0 0 1-.979.273 1.859 1.859 0 0 1-.535-.078l-.071-.022a.149.149 0 0 0-.062-.013.074.074 0 0 0-.044.023.167.167 0 0 0-.02.033.205.205 0 0 1-.024.034.149.149 0 0 1-.025.018.139.139 0 0 1-.106.012.131.131 0 0 1-.089-.105.131.131 0 0 1 .012-.072.115.115 0 0 0 .009-.019.079.079 0 0 0 0-.068.109.109 0 0 0-.028-.027.079.079 0 0 0-.095 0c-.01.006-.014.018-.021.027a.112.112 0 0 1-.017.019.208.208 0 0 1-.039.03.194.194 0 0 1-.234-.305.208.208 0 0 1 .067-.042.181.181 0 0 1 .058-.012.079.079 0 0 0 .057-.023.081.081 0 0 0 .019-.028.083.083 0 0 0 0-.053.072.072 0 0 0-.028-.039.069.069 0 0 0-.039-.016h-.048a.201.201 0 0 1-.048-.012.212.212 0 0 1-.061-.042.19.19 0 0 1-.053-.106.197.197 0 0 1 .018-.118.183.183 0 0 1 .09-.088.173.173 0 0 1 .047-.016.198.198 0 0 1 .131.023.131.131 0 0 1 .029.018c.014.012.023.028.038.039a.076.076 0 0 0 .047.016.082.082 0 0 0 .08-.071.079.079 0 0 0-.016-.058l-.008-.009a.163.163 0 0 1-.039-.07.19.19 0 0 1 .047-.194.195.195 0 0 1 .275 0 .115.115 0 0 1 .016.02.171.171 0 0 1 .027.047.231.231 0 0 0 .023.058.079.079 0 0 0 .05.031.091.091 0 0 0 .058-.013l.083-.052a1.48 1.48 0 0 0 .113-.084 1.658 1.658 0 0 0 .216-.201 3.075 3.075 0 0 0 .499-.902 8.015 8.015 0 0 0 .521-2.183l.011-.147.02-.548v-.009a7.785 7.785 0 0 0-.507-2.774l-.197-.471-.036-.078a.112.112 0 0 0-.031-.043.082.082 0 0 0-.047-.016.102.102 0 0 0-.028 0 .189.189 0 0 1-.028.012.112.112 0 0 1-.036 0h-.033a.131.131 0 0 1-.108-.127.121.121 0 0 1 .028-.079.108.108 0 0 1 .034-.031l.023-.01a.131.131 0 0 1 .021-.008.076.076 0 0 0 .034-.03.082.082 0 0 0 0-.085.079.079 0 0 0-.044-.035.054.054 0 0 0-.021 0 .318.318 0 0 1-.035 0 .139.139 0 0 1-.033 0 .203.203 0 0 1-.061-.022l-.017-.013a.189.189 0 0 1-.064-.087.195.195 0 0 1 .028-.183.153.153 0 0 1 .034-.036.197.197 0 0 1 .12-.042.201.201 0 0 1 .13.044l.034.034a.082.082 0 0 0 .046.015.076.076 0 0 0 .034-.008h.011a.082.082 0 0 0 .017-.014.079.079 0 0 0 .02-.053.073.073 0 0 0-.006-.03.069.069 0 0 0-.017-.026l-.017-.022a.102.102 0 0 1-.015-.026.175.175 0 0 1-.009-.023.195.195 0 0 1-.009-.057.186.186 0 0 1 .034-.108.195.195 0 0 1 .16-.085.197.197 0 0 1 .194.193.32.32 0 0 1 0 .037.066.066 0 0 0 0 .017.081.081 0 0 0 .142.052.079.079 0 0 0 .019-.052v-.01a.217.217 0 0 1 .014-.077.213.213 0 0 1 .076-.087.203.203 0 0 1 .048-.023.185.185 0 0 1 .055-.008.181.181 0 0 1 .079.017.173.173 0 0 1 .065.05.195.195 0 0 1 .047.092.217.217 0 0 1 0 .087c-.008.028-.028.052-.027.079a.1.1 0 0 0 .01.035c.02.036.055.04.091.05l.053.016.131.045.193.068a4.974 4.974 0 0 1 .841.42l.171.113q.144.098.281.207l.338.296c.293.282.537.61.823.899a7.89 7.89 0 0 0 .919.799l.199.142a.353.353 0 0 0 .046.031 7.762 7.762 0 0 0 2.257 1.06 7.059 7.059 0 0 0 1.542.277q.302.023.606.023a7.804 7.804 0 0 0 2.32-.35l.163-.053a4.851 4.851 0 0 1 .85-.183l.101-.01a4.598 4.598 0 0 1 .504-.026 4.803 4.803 0 0 1 1.031.11l.097.021a.083.083 0 0 0 .076-.021.087.087 0 0 0 .023-.057.168.168 0 0 1 .022-.079.171.171 0 0 1 .034-.047.195.195 0 0 1 .275 0 .187.187 0 0 1 .053.104.118.118 0 0 1 0 .03v.039a.104.104 0 0 1-.012.033c-.008.019-.02.037-.029.055a.083.083 0 0 0-.008.023.074.074 0 0 0 .01.047.058.058 0 0 0 .014.022.079.079 0 0 0 .09.016l.02-.012.014-.017.019-.021a.173.173 0 0 1 .043-.031.191.191 0 0 1 .231.031.194.194 0 0 1 .044.205.163.163 0 0 1-.044.071.189.189 0 0 1-.066.042l-.033.011h-.042a.066.066 0 0 0-.047.022.074.074 0 0 0-.023.052.079.079 0 0 0 .023.061.083.083 0 0 0 .028.018.048.048 0 0 0 .018 0h.052a.155.155 0 0 1 .042.012.179.179 0 0 1 .058.039.195.195 0 0 1 .05.177z" fill="url(#A)"/></svg>