<svg xmlns="http://www.w3.org/2000/svg" width="128" height="128" viewBox="0 0 33.867 33.867" xmlns:v="https://vecta.io/nano"><defs><linearGradient id="A" x1="8.614" y1=".635" x2="25.201" y2="33.185" gradientUnits="userSpaceOnUse"><stop stop-color="#f62ed6"/><stop offset="1" stop-color="#2d46fc"/></linearGradient></defs><path d="M24.406 1.726v9.4l-6.894 4.382a1.08 1.08 0 0 1-1.159 0L9.46 11.126V1.674A.9.9 0 0 0 8.077.915L.835 5.519A1.8 1.8 0 0 0 0 7.039v19.789a1.8 1.8 0 0 0 .835 1.52l7.242 4.604a.9.9 0 0 0 1.383-.759v-9.441l6.894-4.385a1.08 1.08 0 0 1 1.159 0l6.894 4.385v9.373a.9.9 0 0 0 1.383.759l7.242-4.604a1.8 1.8 0 0 0 .835-1.52V7.088a1.8 1.8 0 0 0-.835-1.52L25.79.964a.9.9 0 0 0-1.383.759zm7.672 23.782l-5.886-3.741v-9.657l5.886-3.744zM26.192 3.342l5.229 3.325-5.229 3.322zM7.672 3.29v6.702l-5.27-3.352 5.27-3.352zm0 18.479L1.786 25.51V8.365l5.886 3.744v9.657zm0 8.808L2.41 27.233l5.261-3.344v6.691zm1.788-9.945v-7.384l5.809 3.692zm9.14-3.692l5.809-3.692v7.384zm7.595 13.571v-6.623l5.209 3.311z" fill="url(#A)"/></svg>