<svg xmlns="http://www.w3.org/2000/svg" width="128" height="128" preserveAspectRatio="xMidYMid" xmlns:v="https://vecta.io/nano"><defs><clipPath id="A"><path d="M0 0h645v502H0z"/></clipPath></defs><g clip-path="url(#A)" transform="matrix(.20555 0 0 .20555 -2.289831 14.119272)"><g transform="matrix(.979262 .202599 -.202599 .979262 149.021049 283.177946)"><path fill="#7bdfd5" d="M109.657-93.941c-6.215-2.068-13.077-1.42-18.903 1.812L-118.978 29.158c-.129 0-.128.129-.258.129-10.615 6.466-13.983 18.62-8.416 30.129 6.992 14.224 31.589 27.671 61.237 33.49 9.192 1.811 20.196 3.102 32.754 3.102 23.563 0 52.564-4.655 84.8-19.654 24.987-11.636 48.678-36.981 63.436-67.885 15.536-32.585 18.643-65.299 8.415-89.996-2.33-5.819-7.249-10.345-13.333-12.414z"/></g><g transform="matrix(.979262 -.202599 .202599 .979262 495.95888 283.013255)"><path fill="#7bdfd5" d="M119.236 29.352c-.129 0-.129-.129-.258-.129L-90.753-92.065c-5.697-3.363-12.559-4.008-18.903-1.81-6.084 2.07-11.004 6.594-13.334 12.412-10.228 24.697-7.121 57.542 8.416 89.997 14.757 30.904 38.449 56.247 63.436 67.884 32.107 15 61.107 19.655 84.799 19.655 12.557 0 23.562-1.293 32.754-3.103 29.647-5.689 54.245-19.138 61.237-33.491 5.566-11.507 2.2-23.533-8.416-30.127z"/></g><path fill="#2c3437" d="M421.41 387.032h-1.036-20.068-155.485-20.067-3.107-16.96l98.522 56.766c5.955 3.49 12.687 5.172 19.419 5.172s13.465-1.682 19.42-5.172l98.521-56.766H421.41zm30.421-125.297h-9.968-238.602-10.098-9.969v65.04h9.969 10.098 238.602 9.968 10.099v-65.04h-10.099z"/><path fill="#ffdd0f" d="M442.51 202.773l-2.461-1.423h-20.067-4.919-15.148-154.708-13.464-6.602-20.067l-2.46 1.423c-11.911 6.854-19.42 19.784-19.42 33.49v25.473h10.098 10.098 238.601 10.099 10.098v-25.473c-.259-13.706-7.767-26.507-19.678-33.49zm9.323 124.004h-10.098-238.473-10.097-10.097v25.604c0 13.706 7.377 26.636 19.417 33.49l2.072 1.163h16.96 3.107 20.066 155.487 20.067 1.036 19.03l2.201-1.292c11.911-6.984 19.291-19.784 19.291-33.49v-25.604h-9.969v.129z"/><path fill="#2c3437" d="M341.917 144.849c-12.04-6.982-26.8-6.982-38.71 0l-98.133 56.636h20.067 6.602 13.466 154.837 15.017 5.05 20.067l-98.263-56.636zm2.073-32.961a10.11 10.11 0 0 1-10.098-10.086c0-35.947 29.388-65.298 65.508-65.298a10.11 10.11 0 0 1 10.098 10.086A10.11 10.11 0 0 1 399.4 56.676c-24.987 0-45.311 20.3-45.311 45.256-.131 5.431-4.532 9.956-10.099 9.956zm-41.688-.005a10.11 10.11 0 0 1-10.1-10.085c0-24.957-20.324-45.257-45.311-45.257a10.11 10.11 0 0 1-10.098-10.086 10.11 10.11 0 0 1 10.098-10.086c36.121 0 65.38 29.352 65.38 65.299.129 5.69-4.402 10.215-9.969 10.215z"/></g></svg>