<svg xmlns="http://www.w3.org/2000/svg" xmlns:xlink="http://www.w3.org/1999/xlink" width="128" height="128" fill="none" xmlns:v="https://vecta.io/nano"><style><![CDATA[.B{fill-rule:evenodd}]]></style><path d="M47.645104 87.98843c-1.250833-1.546639.113051-3.806368 2.046269-3.436935 21.980806 4.201394 42.166286-12.71355 42.166286-34.983469 0-12.828099-6.842136-24.624565-17.962448-30.976166-1.714217-.97905-1.283134-3.587428.664639-3.948533 2.730606-.505348 5.501324-.759808 8.278074-.760223 25.008156 0 45.305616 20.339708 45.305616 45.471294 0 25.099548-20.2657 45.471292-45.305616 45.471292-13.974443 0-26.737271-6.38111-35.19282-16.83726z" fill="#4dd4fe"/><g filter="url(#B)" transform="matrix(1.774735 0 0 1.789884 -.14354224 13.883104)" fill="#4dd4fe"><path d="M7.77278 51.1337c0 .1228-.36403.223-.81398.223s-.81497-.1002-.81497-.223.36501-.2243.81497-.2243c-.56769 0-1.02716.1123-1.02716.2508s.45947.2504 1.02716.2504 1.02682-.112 1.02682-.2504-.45946-.2508-1.02682-.2508c.44995 0 .81398.0996.81398.2243z" class="B"/><path d="M8.36737 51.156c0 .2129-.62968.3863-1.40693.3863s-1.40726-.1734-1.40726-.3863.62968-.3862 1.40726-.3862c-.98059 0-1.77489.1939-1.77489.4326s.7943.4336 1.77489.4336 1.77457-.1943 1.77457-.4336-.79497-.4326-1.77457-.4326c.77725 0 1.40693.1724 1.40693.3862z" class="B"/><path d="M9.27476 51.2322c0 .3411-1.00748.618-2.25142.618s-2.25043-.2769-2.25043-.618 1.00781-.6184 2.25043-.6184c-1.56729 0-2.83779.3108-2.83779.6931s1.2705.6932 2.83779.6932 2.83944-.3115 2.83944-.6932-1.27115-.6931-2.83944-.6931c1.24394 0 2.25142.2768 2.25142.6184z" class="B"/><path d="M28.1862 47.6103c-.0718-.0451-.1479-.0177-.2247.0055l-.2515.0872c-.038.0118-.5073.0532-.5073.0617-.0069-.0705.0249-.1381.0114-.2122-.0118-.0673-.041-.1225-.0757-.1773-.1447-.2093-.3975-.3098-.6392-.2021-.3158.0976-.5142.4049-.7471.6161-.2571.2334-.5775.3526-.9097.4473-.6264.1766-1.26.3614-1.9078.4352-.3784.0369-.6585.2491-.7785.6079-.0991.2959-.1863.7533.0482 1.005.0685.0722.1587.129.2614.1747.0754.045.1626.0875.2666.1231.7759.2798 1.6903.2821 2.5023.2409l.447-.029c.3949-.065.7864-.1437 1.1639-.2544l.9855-.3252c.2502-.0907.5179-.1995.693-.4058.022-.098.037-.1995.0508-.3017.0131-.3268.0105-.6527-.0321-.9772-.0463-.2821-.0925-.7408-.3565-.9197z" class="B"/><path d="M27.4202 50.2529l-1.0032.2727c-.5038.1077-1.0147.1691-1.5277.1844-.1797.0036-.3601.0059-.5421-.0055-.4503-.0157-.8789-.0976-1.3147-.2109-.2319-.0644-.61-.1048-.734-.3445-.0958-.1306-.1289-.3014-.1305-.4721.0839.3399.4148.4757.8241.6233.2063.0757.4162.125.6304.1564.0386.0042.0744.0009.1101.0071l.5353.0379.9255.0101c-.0053.0004-.0132.0036-.02.003.2646-.0039.5362-.0562.7949-.1012.468-.0774.9304-.1822 1.3686-.3729.2154-.0973.4401-.1655.6569-.2576l.2505-.1192c.0391-.0215.0768-.0548.1161-.0708s.0791-.0101.1063-.0356c-.0177.1378-.0505.2638-.166.3585-.2331.1854-.5991.253-.8805.3369z" class="B"/><path d="M28.4745 49.274c-.0147.0489-.0246.0982-.0341.1475l-.1921.132c-.9105.4058-1.8133.7418-2.8254.8293-.5349.0457-1.0813.0489-1.6152-.0226-.5883-.0796-1.4528-.2393-1.6138-.8845-.0171-.0747.059-.2301.0885-.2945.0453-.0884.1063-.1707.183-.2393.288-.2569.6772-.2308 1.0357-.2811.3994-.0548.8061-.1972 1.1947-.3066.3952-.1097.8393-.2252 1.1377-.523l.4539-.4901c.3532-.3141.8957.015.8268.476-.0046.0187.0075.035.0256.0317.2892.0154.6447-.0476.9195-.1479.0387.0052.0735.018.1079.0503.0178.0202.0322.0356.0414.0562.1869.2112.2184.5517.2436.8257l.0433.3931-.0147.2367c-.0023.0055-.0063.0068-.0063.0111z" class="B"/><path d="M27.3188 48.3642c-.0682.0346-.1338.0725-.1967.1172l.2282.0366c.0207.0032.0295.0196.0263.0398-.0473.2854.117.6896-.1089.9292-.2106.225-.5677.2841-.8517.3497l-1.2672.252c-.1893.0196-.3808.0265-.5733.0216-.0433.0114-.0928.017-.1354.0193-.4106.0179-.8035-.0115-1.1974-.1228-.2601-.0718-.5907-.1855-.773-.3928-.1295-.1449-.1459-.3676.0075-.5051.1703-.1511.412-.2027.6304-.2337l.9094-.1339c.4804-.1009.9799-.2269 1.4132-.4708.2033-.1153.3981-.2452.5676-.4098.2296-.2168.4657-.6131.8163-.3154.1233.1055.0859.2864.1765.4078.1246.1574.3542.1062.5293.1124l.1941.0022c.024.0004.0355.019.0325.0399.0052.0147.0023.029-.0118.0369-.1043.0643-.2604.1603-.4159.2197zm.8898-.5566c-.0092-.0209-.0233-.0363-.041-.0565-.0345-.0324-.0696-.0451-.1079-.05-.2752.1002-.6304.1629-.9199.1479-.0177.003-.0299-.013-.0256-.0317.0692-.4613-.4736-.7904-.8268-.4763-.1699.1518-.2971.332-.4536.4901-.2987.298-.7428.4133-1.1376.523-.389.1097-.7953.2521-1.1948.3069-.3584.05-.7477.0242-1.036.2808-.0767.0686-.1377.1512-.183.2393-.0295.0647-.1056.2198-.0885.2945.1613.6455 1.0255.8048 1.6138.8845.5339.0715 1.0806.0686 1.6152.0225 1.0124-.0875 1.9149-.4231 2.8254-.8293.0655-.0398.1308-.0852.1921-.1319l.0345-.1476c0-.0042.0036-.0055.0059-.0111l.0147-.2367-.0433-.3927c-.0249-.274-.0564-.6148-.2436-.8257z" class="B"/><path d="M26.5637 47.6102c.1636.0646.2728.1978.3384.3617.0086-.1156-.0308-.2471-.1056-.333-.08-.096-.2243-.141-.3309-.0646-.0016.0029-.0052.0111 0 .0101h.0007c.0361-.0049.0689.0081.0974.0258z" class="B"/><path d="M22.9507 49.1102c.1938-.0878.408-.1446.6185-.19l.4615-.0973-1.037.1668c-.1096.0235-.3047.0607-.3805.1554-.0229.031-.1859.2423-.141.2772-.0033-.001-.0082.0007-.0075.0033l-.0079.0144c-.0023.0042-.0016.0065-.0016.0107l.1072-.0878c.1266-.1293.2463-.2037.3883-.2527z" class="B"/><path d="M32.793 48.1203c-.081-.0516-.168-.0209-.2549.0059l-.285.0989c-.0436.0137-.5765.0611-.5758.0696-.0089-.079.0278-.1564.0121-.24-.0131-.0767-.0462-.1398-.0853-.2024-.1643-.2371-.4519-.351-.7261-.2286-.3584.1107-.5837.4594-.8484.699-.2919.2655-.6556.4-1.0321.5077-.712.2005-1.4308.4108-2.1664.4944-.4303.0424-.7478.2827-.8842.6902-.1128.3363-.2106.8554.0548 1.1414.0777.0816.1803.1459.2968.1982.0862.0512.1846.0992.303.1391.8812.3183 1.9189.3203 2.8407.2742l.5077-.033c.4483-.0741.893-.1632 1.3214-.2896l1.1189-.3686c.284-.1028.5881-.2266.7865-.4607.0249-.1116.0426-.2265.0577-.3428.0147-.3702.0125-.7405-.0367-1.1091-.0519-.3199-.1043-.841-.4047-1.0438z" class="B"/><path d="M31.9241 51.12l-1.1393.3098c-.5716.1224-1.1511.192-1.7339.2096-.204.0039-.4093.0062-.6159-.0065-.5109-.0183-.9979-.1114-1.4922-.2393-.2636-.0729-.6929-.1192-.8336-.3909-.1086-.1485-.1466-.3431-.1483-.5364.0955.3863.4716.54.9357.7075.2335.0865.4726.142.7162.1783l.125.0072.6074.0434 1.0511.0117c-.0063.0004-.0148.0036-.023.003.3004-.0039.6084-.0637.9022-.1146.532-.0885 1.056-.2073 1.5539-.4228.2446-.1114.5001-.1891.7457-.2926l.2844-.1358c.0443-.0251.0866-.0627.1325-.081.0393-.015.0892-.0114.1203-.0398-.0203.1564-.058.3001-.1882.4068-.2653.2109-.6809.2873-1 .3824z" class="B"/><path d="M33.1203 50.0091c-.017.0551-.0278.1113-.039.1671l-.2181.1499c-1.034.4607-2.0589.8423-3.2074.9419-.6074.0516-1.2282.0552-1.8342-.0258-.6678-.0907-1.65-.2719-1.8327-1.0046-.0186-.0846.0676-.2615.1011-.334.0508-.0999.1206-.1939.2069-.2717.3276-.2918.77-.2625 1.1764-.3189.4535-.0634.9156-.224 1.3567-.3487.449-.1241.9527-.2557 1.2918-.5939l.5146-.5564c.4014-.3565 1.0173.017.9389.5414-.0042.0205.0089.0391.0289.0355.3293.017.7327-.0542 1.0449-.1681.0436.0055.0829.0209.1216.0571.021.0232.0371.0405.0476.0647.2118.2393.2483.6252.2765.9367l.0495.4466-.0171.2684c-.0019.0062-.0069.0075-.0069.0128z" class="B"/><path d="M31.8079 48.9756c-.0774.0392-.1519.0823-.2227.1338l.2584.0405c.023.0039.0335.0222.0305.0454-.0544.3245.1322.7833-.1243 1.0552-.2394.2557-.6441.3226-.9668.3967l-1.4387.2867c-.2148.0212-.4319.0297-.651.0245-.0489.013-.105.0196-.1538.0215-.4664.0206-.9117-.0121-1.3594-.1394-.2955-.0806-.6703-.2102-.8773-.445-.1476-.1655-.1659-.4182.0085-.5743.1929-.1714.4667-.2302.716-.2651l1.0317-.1525c.5454-.1136 1.1128-.2566 1.6047-.5345.2312-.1302.4522-.2788.6444-.4649.2604-.2458.5287-.6964.9268-.3582.1401.1202.0974.3256.2007.4633.1407.1783.4011.1205.6012.1277l.2194.0016c.0279.0007.0407.0222.037.0461.0059.0166.0023.0326-.0131.0414-.1184.0735-.2964.1816-.4722.2495zm1.0104-.6311c-.0105-.0242-.0266-.0415-.0472-.0647-.0387-.0362-.0781-.0513-.122-.0571-.3122.1139-.7156.1851-1.0446.1681-.0203.0036-.0334-.015-.0288-.0356.0783-.5243-.5376-.8978-.9393-.5413-.1922.173-.3368.3774-.5146.5563-.3387.3383-.8428.4702-1.2914.5939-.4411.1248-.9036.2857-1.3571.3487-.4064.0565-.8484.0271-1.1761.319-.0862.0777-.1561.1718-.2072.2717-.0335.0725-.1197.2494-.1011.334.183.733 1.1653.9138 1.8327 1.0049.6064.0807 1.2268.0771 1.8345.0255 1.1482-.0996 2.1734-.4809 3.2074-.9419.0735-.0451.148-.0977.2178-.1499l.039-.1672c0-.0049.005-.0065.0069-.0127l.0171-.2684-.0495-.4466c-.0282-.3112-.0647-.6974-.2765-.9367z" class="B"/><path d="M30.95 48.1201c.1859.0729.3099.2243.384.4104.0102-.1315-.0344-.2807-.1197-.3784-.0911-.1087-.2541-.1593-.3752-.0731-.0022.0036-.0059.0127 0 .0118h.0004c.041-.0062.078.0088.1105.0293z" class="B"/><path d="M26.8477 49.8226c.2197-.0999.4634-.1639.7015-.2152l.5244-.1103-1.1764.1893c-.1246.0265-.347.0689-.4329.1763-.0256.0347-.2109.2746-.1597.3148-.0036-.001-.0095.0006-.0086.0033l-.0085.0163c-.0029.0049-.0023.0081-.0023.0127l.1217-.1009c.1433-.1459.2797-.2295.4408-.2863z" class="B"/><path d="M40.3141 36.1283l-.0183-.2129-.0243-.0477c-.1187-.1978-.2742-.2631-.4654-.2886-.6064.1649-1.2111.2772-1.8365.3575-.9426.1225-1.8638.1809-2.7952.0451.0089.0013.0134.0023.0128.0026-.9721-.1551-4.2106-.0297-5.4418.1394-2.171.2974-2.5656.5906-2.7587.6706-.2247.0931-.3939.2837-.5402.4695-.3145.4006-.4394.8776-.4483 1.3785l-.0108 1.7764-.1207 3.6979-.1013 2.9032c-.0023.2534-.0814.4637-.1404.672.0098.0747.0361.1462.0964.206.0902.0894.1873.1707.2965.237l.1384.078.1771.0556c.4745.0711 1.0206.032 1.4479-.018.2158-.0255.4552-.0637.6402-.1851.2108-.1394.2407-.2658.1836-.4878-.1712-.6729.0794-3.0707.2611-4.4913.1407-1.0983.1364-2.4823-.039-3.6525l.0177.0023c.0042.0003.0085.0016.0121.002s.0013.0052.0013.0075l.0315.1302c.3056 1.0327.9297 7.6058.9976 8.1784-.0324.2204-.1452.4343-.1341.6347.2519.4793.9104.5596 1.4469.5596l.5543-.0271c.2502-.0434.489-.1031.6975-.1648.1837-.0546.3785-.1088.5438-.207l.0603-.0376c.0004-.0196.0092-.0392.0309-.0529.28-.1871.0219-.4724-.0171-.7088-.0147-.0911-.0108-.1845-.0006-.2785l-.001-.0454c-.0453-.3167-.0079-.6673-.0122-.9615l-.162-3.3469-.1695-1.2691-.2207-1.0301c.0229.096-.1361-.4711-.0787-.556.0314-.0454.0442-.0908.0442-.1352.5136.193 2.7693.3781 2.9631.3882.7966.0415 2.498-.1087 2.9759-.2932.2436-.0947.4801-.1433.7087-.2733.4263-.2435.8054-.4936 1.0737-.9154.285-.447.3319-.9446.3234-1.4608-.0069-.4695-.0348-.9903-.2001-1.4447z" class="B"/><path d="M39.293 39.7509c-.3887.2272-.8006.3552-1.2384.4528-.3175.0712-.6356.1349-.9566.1202-1.5831.1802-3.1232-.2005-4.6911-.3941-.0059-.001-.0128.0016-.0203.0049l-.0469-.0506c-.0004-.0003 0-.0013-.0004-.0026l-.0708-.1283c-.2962-.2207-.5857-.5858-.9357-.7115.0427.0353.0846.0745.1263.1192.1456.1538.3106.2573.4332.4362.0007.0013.0017.002.002.0029-.2476-.1204-.5162-.2174-.6841-.2807l.7254.5028.1758.1093c.3237.2175.1286.3047.1135.5407-.0171.2801.1889.7235.2532.9922.1377.5792.1875 1.1754.2623 1.7647.1282 1.0171.1178 2.072.1509 3.0972l.0252 1.3752c-.0098.1534-.0075.1397.065.2569s.1207.209.1587.3007c-.0023.004-.0026.0095-.0066.0118-.263.1769-.5463.2785-.8471.3794-.4653.1551-.9428.1107-1.4223.1058-.2112-.003-.4195-.0471-.5884-.1368-.0826-.0268-.1603-.0621-.2295-.1124-.2877-.2063-.081-.5331-.0282-.81l-.4536-3.8624-.2738-2.6012-.1401-1.1209c-.0508-.3712-.2115-.8263-.2115-1.1904 0-.4626-.0135-1.2051.4581-1.4921.3624-.2213.9045-.3137 1.3187-.3908.7766-.1453 1.5874-.1658 2.3764-.1972.7609-.031 1.5306.0451 2.2849.1224l2.3481.2488c-.4112-.126-.8448-.1808-1.2691-.2429l-1.7087-.1877c.0023-.0741-.0741-.1241-.1246-.1708-.0666-.0607-.1194-.1351-.1863-.1962-.0144-.0137-.0518.0317-.039.0477.0551.0636.1.1358.1505.2027.0226.0307.0499.0581.0738.0875.0056.0072.0095.0147.0138.0232l-1.8363-.0186c-.183.0029-.3653.0016-.548-.0003-.7313.063-1.441.0663-2.1759.2824-.4962.1459-.9508.2978-1.1558.7947-.1433.3461-.1794.7388-.1456 1.1199l.0535.3111-.019-.0467-.0473-.0006c-.0016 0-.0029.0013-.0046.0013-.077-.2122-.1754-.417-.2997-.6125l.1433.5968c.0961.3862.1702.7771.2112 1.1731.0797.7731.0689 1.5463.0115 2.3168l-.386 3.6695c.0144.3226-.0269 1.0644-.0203 1.081.0085.0875.016.1055.0396.2504.0479.3037-.1482.3416-.3584.4033-.2332.0682-.466.1002-.7032.1123-.1174-.0039-.2348-.0026-.3518.0023-.227-.0102-.4566-.0519-.6766-.1025-.1765-.0405-.3703-.1045-.5152-.2191-.0351-.0281-.0538-.065-.064-.1071.0502-.1659.1171-.334.1023-.4943-.0751-.8035-.0151-1.6573.0397-2.4582l.1587-3.5046-.0003-1.5698.0082-.9782c.0085-.4493.0528-.8815.285-1.2923.3575-.633 1.0095-.7594 1.6522-.9334.3752-.1019.7609-.1659 1.1423-.2455l1.1715-.1698c.8887-.0993 1.789-.1463 2.6833-.0986l1.9907.0281c.0502.0382.1053.0669.2286.0888.2479.0444.4955.0453.7448.0724.4024.0441.8792-.0333 1.2783-.0708l1.7044-.2857c.3906-.0894 1.1997-.3941 1.2518.2449.1719.6487.3627 1.5038.0574 2.2933-.1066.5576-.4945 1.0487-.993 1.3406z" class="B"/><path d="M26.135 44.817l.0764-2.1376-.0134-2.1555c-.021-.9586-.186-2.2489.4516-3.0635s1.7572-1.0066 2.7289-1.1199l2.9663-.3199c-.668-.0017-1.336.0437-1.9979.1175l-1.1714.1698-1.1423.2455c-.6428.1737-1.2948.3-1.6522.9331-.2322.4111-.2765.843-.285 1.2926-.0325.3239-.0144.6497-.0085.9782l.0003 1.5695-.1584 3.5049c-.0548.8009-.1148 1.6547-.0397 2.4582.0144.1521-.0456.3115-.0948.4698.2739-.5684.1824-1.2348.2306-1.8597l.1095-1.083z" class="B"/><path d="M30.0398 47.8727c.1489-.1786.1013-.2772.0603-.5038l-.0895-.5348-.3037-2.4282-.4955-4.7567c-.0555-.5485-.1984-1.1904.0793-1.7069.2634-.4901.7524-.6817 1.2768-.7947l1.6027-.2658c-.489.0265-.9783.0686-1.4542.1571-.4142.0774-.956.1698-1.3187.3908-.4716.2873-.4578 1.0298-.4578 1.4921 0 .3643.1604.8195.2112 1.1904l.14 1.1208.2739 2.6012.4539 3.8625c-.0204.1071-.0637.2207-.0928.332.035-.0545.0737-.1074.1141-.156z" class="B"/><path d="M38.9768 35.872c-.5624.129-1.1327.2099-1.7044.2857-.3991.0375-.8763.1152-1.2787.0712l-.7448-.0725c-.1229-.0222-.1784-.0506-.2282-.0888-.6238-.0614-1.2453-.003-1.8687-.0248.3011.1041.589.2383.8399.4404.0502.0405-2.4197.0836-3.6019.1574-.2942.0186-.592.0408-.8809.1051-.264.0588-.6504.1244-.8343.3399-.2955.3454-.1906.8547-.1493 1.2681.0059.0584-.0823.0957-.1197.049-.2072-.2557-.4794-.5286-.7907-.6853l.0443.0764.3014.5739c.1679.3546.1984.6974.1246 1.0873-.2282 1.2015-.5939 2.3899-.936 3.5666.3877-.4626.9954-1.6279 1.0016-1.5636.044.4692-.2919 2.5522-.3607 3.135l-.2273 1.608c-.0449.2433-.2361.6259-.142.8642.0577.1447.223.2577.2545.4105.1403.6856-1.2479.6304-1.8854.299-.0014.0033-.0023.0066-.003.0095.0102.0418.0289.0787.064.1068.1449.1146.3387.1785.5149.219.2203.0506.4499.0928.6769.1029l.3518-.0023c.2368-.0121.47-.0444.7032-.1123.2099-.0621.4063-.0999.3584-.4036l-.0396-.2504c-.0069-.0166.0347-.7581.02-1.081l.3863-3.6695c.0574-.7705.0682-1.5437-.0115-2.3165-.041-.3964-.1154-.7872-.2112-1.1734l-.1433-.5968c.1243.1955.2227.4006.2997.6128.0014 0 .003-.0016.0046-.0016l.0473.0006.0187.047-.0532-.3115c-.0338-.3807.0023-.7734.1456-1.1195.205-.4973.6592-.6488 1.1558-.795.7349-.2158 1.4446-.2194 2.1759-.2821l.548.0003 1.8363.0183c-.0043-.0082-.0086-.016-.0138-.0229l-.0738-.0875-.1505-.203c-.0128-.016.0242-.0611.039-.0477.0666.0614.1197.1355.1863.1965.0505.0464.1266.0967.1246.1708.5723.0304 1.1413.1051 1.7087.1877.4243.0621.8579.1169 1.2691.2426l-1.0078-.0881.2693.077c.6362.1871 1.2885.4045 1.8211.811.0725.0546.0131.1564-.0708.1205-.3739-.158-.7665-.2014-1.1577-.2948l-.8956-.2181c.4276.2625.9199.4241 1.2475.8231.0331.0405.0233.1012-.0312.1172-1.2377.3653-2.5026.5501-3.7934.446-1.1741-.0947-2.3115-.3996-3.4622-.6318l.487.4653c.0459.0535.0026.1338-.0682.1172-.2696-.0614-.5248-.1966-.7842-.3066.6936.7617 1.2797 1.5766 1.3863 2.6495.0666.6742.0344 1.3501.0728 2.0249l.0977 2.3312-.0203 1.2221c-.0076.1466-.0515.3206-.0374.4659s.1725.2207.2683.3027c.2092.1789.3384.5253.0144.6729-.3929.1786-.9485.3082-1.3774.2334-.2748-.0486-.4801-.1299-.653-.3529-.0403-.0513-.0748-.1065-.1066-.1636-.0446.176-.0521.3451.1224.4702.0692.0499.1469.0852.2295.1119.1689.0898.3772.1342.5884.1368.4795.0049.957.0493 1.4223-.1057.3008-.1006.5841-.2025.8471-.3791.0036-.0026.0043-.0078.0066-.0121-.038-.0917-.0895-.1867-.1591-.3004s-.0747-.1038-.0646-.2572c.0299-.4493-.0108-.9243-.0252-1.3752l-.1509-3.0972-.2623-1.7647c-.0643-.2687-.2706-.7117-.2532-.9919.0151-.2364.2102-.3235-.1135-.541l-.1758-.109c-.2279-.1865-.4903-.3272-.7254-.5028l.6838.2804c-.0004-.0006-.001-.0016-.0017-.0029-.1226-.1789-.2876-.2824-.4332-.4359-.042-.045-.084-.0839-.1263-.1195.3496.126.6395.4907.9357.7115l.0705.1283c.0003.0013 0 .0026.0003.0029.0171.0163.0328.0333.0469.0503.0076-.0033.0145-.0056.0204-.0046 1.5682.1933 3.1083.574 4.6914.3938.321.015.6391-.0487.9566-.1199.4378-.0976.8494-.2256 1.2384-.4528.4985-.2922.8864-.7829.993-1.3409.305-.7895.1141-1.6446-.0574-2.2933-.0521-.639-.8612-.334-1.2518-.2449z" class="B"/><path d="M6.78792 51.0368L4.15837 6.19096c-.00196-.03265.01312-.06367.03969-.0826s.06132-.02155.09018-.00849C6.62755 7.10417 10.7313 11.189 16.4856 18.2413c4.2804 5.2464 7.9224 10.2637 7.9591 10.3136.0305.0412.021.0996-.0213.13s-.1.0205-.1305-.0216C24.1492 28.4651 9.97204 8.9678 4.35416 6.33364L6.97453 51.026c.00328.0516-.03641.0957-.0879.0986h-.00524c-.04952 0-.09117-.0379-.09347-.0878z" class="B"/><path d="M33.9943 29.7635c.0121-.0095-.0075-.016-.0167-.0095L32.04 31.1396c-.79-.1217-1.5561-.1067-2.3885-.0914-.3758.0082-.7516-.0098-1.1321-.0254.0013.1103-.0078.2207-.02.334l-.036.6605-.0181.3647c1.1426.219 2.3131.2909 3.474.2155.6678-.0448 1.4489-.0412 2.0442-.3964l.7805-.5126h.0017c.1187-.0735.2354-.1629.3384-.2573l.5546-.4633c.0059-.0049-.0049-.0078-.0112-.0055l-.2705.2047.079-.0735c.1391-.1064.2676-.222.3322-.3758.1004-.2236-.1869-.4963-.3417-.6164-.3624-.2922-.9835-.5283-1.4433-.3268.0026-.0036.0062-.0069.0111-.0111z" class="B"/><path d="M33.785 29.9505c-.0078.0032-.0141.0032-.021.0026-.5044.4274-1.0071.936-1.5994 1.2077l.5254.112c.0138.0026.0029.0147-.0059.0143l-3.6508-.1368c-.1627-.0127-.3358-.012-.5146-.0075l-.0167.2015.0092.0489c0 .0017-.0023.0049-.0023.0017l-.0095-.0167-.0348.639-.0115.2968c1.0528.1952 2.1248.285 3.2051.1998.7429-.0562 1.5401-.0715 2.2265-.3961.3765-.1766.7425-.4166 1.0928-.6696l.0862-.0744c-.0003-.001-.0033-.0033 0-.0049l.3841-.3602c.4486-.4414.078-.6797-.2234-.8838-.386-.2622-1.0075-.3993-1.4394-.1743z" class="B"/><path d="M33.785 29.9505c-.0078.0032-.0141.0032-.021.0026-.5044.4274-1.0071.936-1.5994 1.2077l.5254.112c.0138.0026.0029.0147-.0059.0143l-3.6508-.1368c-.1627-.0127-.3358-.012-.5146-.0075l-.0167.2015.0092.0489c0 .0017-.0023.0049-.0023.0017l-.0095-.0167-.0348.639-.0115.2964.3254.0549c-.0617-.0536-.1178-.1117-.1584-.178-.3969-.6363 1.4328-.6428 1.6125-.649 1.0934-.0389 2.439-.1897 3.4731.2517.2279.0966.0544.3082-.0532.4052-.0098.0104-.0242.0189-.0354.029.0909-.0313.1804-.0689.2676-.1097.3765-.1766.7425-.4166 1.0928-.6696l.0862-.0744c-.0003-.001-.0033-.0033 0-.0049l.3841-.3602c.4486-.4414.078-.6797-.2234-.8838-.386-.2622-1.0075-.3993-1.4394-.1743z" class="B"/><path d="M27.8758 30.5097c-.2565-.1009-.5995-.256-.8783-.256-.0731 0-.142.0124-.2082.0288-.0007-.0004-.001-.0014-.0016-.0014l-.025-.0104c-.0065-.002-.0062.0091-.0033.0186l-.0108.0023c-.2368-.0993-.6264-.0624-.8714-.0313-.3463.044-.4732.2491-.6244.5367-.0669.1267-.1971.3804-.1384.5299.0131.034.0397.0663.0702.0983-.0203.1463-.0325.2867.002.4332l.0265.0964c.0177.0659.044.1244.0873.1838.021.0281.0472.0512.077.0731-.0209.2531.1512.4111.3765.4927-.1206.3745.7048.4653.9226.3983.1528-.046.3322-.2226.4178-.4025.3339.095.6677.1537.9999.0421.2535-.0856.3742-.3206.4533-.56-.0843.0813-.1886.1329-.2929.1186-.0321-.0049-.0594-.0415-.0426-.0738.1252-.258.3594-.5427.2617-.8457-.0177-.0535.0583-.1087.0931-.0535.0403.065.083.1339.1128.2076.0069-.1341-.0042-.2641-.0508-.3496-.0633-.1137-.0646-.1799-.1496-.2795-.0514-.0604-.1889-.1424-.2518-.1877-.103-.0889-.2243-.1584-.3516-.209z" class="B"/><path d="M28.3562 32.1803c.0629-.0225.1216-.0731.1662-.1355-.0187-.0127-.0308-.0356-.0226-.0624l.0423-.1714c-.0489.1254-.1213.2482-.1859.3693z" class="B"/><path d="M25.2762 32.0224c-.0204-.0385-.0381-.0849-.0502-.1326s-.0154-.0891-.0193-.1358c-.0007-.0033-.001-.0068-.0007-.0104l-.0026-.1404c.0016-.0503.0167-.0954.0174-.1443.1508.1338.4092.2435.5421.3065.303.144.4952.065.7979-.0587l.2512-.1035c.2755.0777-.1709.428-.2568.5002-.1689.1417-.3191.1662-.5329.1671s-.4824-.0447-.6694-.1453c-.0082-.0049-.0151-.0127-.0226-.0189l-.0541-.0839z" class="B"/><path d="M26.56 31.7067c-.3027.1237-.4949.2027-.7979.0588-.1069-.0513-.2958-.1323-.4437-.2322.0577.0604.1154.1205.1856.1685.1731.1195.3174.1534.5185.193.0964.0192.3256.0744.2774.2256-.0203.0636-.0564.1074-.1033.1404.1292-.0173.2391-.0575.3575-.1574.0859-.0722.5323-.4225.2568-.5002-.0948.0464-.1961.0813-.2509.1035z" class="B"/><path d="M26.221 32.3334c.1836-.0095.2948-.1123.4322-.2282l.1207-.1048c.0462.0101.0908.0264.1305.0525.2273.131-.0623.3474-.1364.413-.1197.1068-.2607.1943-.4172.2325-.3548.0865-.9159-.0676-.9543-.4754.2171.1359.6123.1221.8245.1104z" class="B"/><path d="M26.0058 32.3599l.1298-.0222c-.1879.0065-.4516.0042-.6434-.0689.1581.077.3365.1146.5136.0911z" class="B"/><path d="M26.7751 32.0005l-.121.1045c-.106.0891-.1968.1704-.3165.2086l.0859.0013c.1646.0186.1528.1489.0646.2648-.0436.0568-.0957.0957-.1541.1221l.0177-.0036c.1568-.0382.2974-.1257.4172-.2321.0744-.0657.3637-.2821.1364-.4134-.0397-.0261-.0843-.0421-.1302-.0522z" class="B"/><path d="M26.5972 33.047c-.243.0744-.7815-.0461-.816-.334.2142.0711.4697.0787.6566.0382.1594-.0346.3647-.1803.4854-.3386.0393.0134.0839.015.1256.0199.1509.018-.0741.3219-.0797.3314-.0951.1401-.2069.2318-.3719.2831z" class="B"/><path d="M26.9239 32.4124c-.1207.1586-.326.3042-.485.3389-.1299.0277-.2916.0323-.4487.0094.0496.0183.0978.0363.1401.0412.08.0114.1728.0342.2522.0238.1108-.0153.1731-.0744.2613-.1322.0778-.05.144-.08.2358-.08.0797-.0004.1093.0545.1099.1214.0531-.0773.1847-.287.06-.3023-.0416-.0049-.0859-.0065-.1256-.0202z" class="B"/><path d="M28.5994 31.3832c.0419.2351-.0092.4786-.0666.7091-.0882.3562-.3254.5528-.6645.6426-.0895.0232-.6647-.095-.7628-.0608.0236-.0555.039-.1106.0397-.1616.0026-.0917-.0872-.1802-.1764-.1648.0934-.1594.0862-.3184-.1568-.3827.0564-.0562.1056-.1182.1184-.1757.017-.0741.0013-.171-.0669-.2132.0925-.0525.1676-.1182.1689-.1991.0033-.1561-.1027-.2485-.2338-.3151-.1939-.1002-.3975.0199-.5973.0833l-.0291.0068c-.0666.0177-.1391.0402-.2047.016-.1066-.0392-.2043-.0996-.3099-.14-.0105-.0033-.003.0231.0013.0257.0961.0807.2224.1617.348.1858.0495.0105.0997-.0143.1469-.0313.2991-.0523.6379-.2674.8274.0823.0951.1743-.424.3428-.5136.3813-.2249.096-.4073.1639-.6414.0679-.1374-.0565-.7199-.3111-.6861-.5172.0361-.2141.1594-.4551.282-.6324.2562-.3696.8658-.3317 1.2922-.2886-.2578.082-.4847.253-.7324.368-.1033.047-.3863.0933-.3181.267.0715.1816.4103.1492.5589.1241s.3004-.0793.4519-.1126c.1692-.0386.3453.2912.4326.4182.1003.1453.2492.2586.4168.3147.2004.099.4296.1251.6513.0366.0079-.0033.0016-.0277-.0069-.0268-.3024.0608-.63-.0388-.8864-.2024-.062-.0493-.1178-.1068-.1647-.175-.0639-.0934-.1843-.3895-.3171-.4208-.1587-.0363-.3552.0587-.508.0986-.1325.0346-.2591.0404-.3952.0209-.1233.0068-.1463-.067-.0685-.2204l.2492-.1061c.183-.0846.3588-.1943.5362-.2893.2391-.1273.5162-.0718.7612.0085s.4962.1446.7205.271c.0768.0594.1496.1204.2161.1864.0007.0006.0017.0006.0017.0006.1298.0947.3168.3344.286.5205z" class="B"/><path d="M27.3745 30.4044c-.245-.08-.5221-.1359-.7612-.0082l-.5362.2889-.2493.1062c-.0777.1537-.0547.2275.0686.2207.1361.0192.2627.0134.3952-.0213.1528-.0398.3492-.1345.508-.0982.1328.0313.2531.3274.3171.4208.0469.0683.1026.1254.165.175l.1108.064c-.1079-.0904-.2089-.2125-.2368-.3379-.0469-.1182-.057-.2442-.0039-.3631.1085-.2419.5063-.078.6661-.0036.2338.1097.5627.2449.6254.5241.041.1743-.0984.2729-.2673.3271.0029.0069.0029.016-.0013.0183-.1266.0506-.2548.0614-.3791.0444l-.0141.0013c.0459.0085.0931.0163.1436.0186.1148.0069.2706-.0238.3785.0167.1689.0623.1275.2755.0603.4061-.0931.1832-.2092.3974-.4299.4493-.1876.0463-.4044.0408-.573-.0624-.0269-.017-.0272-.0424-.0157-.0633-.0535-.0493-.0886-.1153-.0961-.2051-.0174-.2177-.0384-.4564-.003-.6732.0059-.0343.0404-.0578.0742-.0434l.3168.1208-.1138-.046c-.1676-.0562-.3165-.1695-.4169-.3151-.0872-.1267-.2633-.4565-.4325-.4179l-.452.1126c-.1485.0248-.4873.0575-.5588-.1244-.0682-.1733.2148-.2197.3181-.2667.2476-.1153.4746-.2864.7323-.368-.4263-.0431-1.036-.081-1.2921.2883-.0574.0823-.1135.1783-.1617.2792-.0052.1338.4536.3656.5385.3999.0997.0408.4841.1541.4391.333-.0285.1166-.0928.1685-.1718.1839.1325-.003.2581-.0529.4014-.1143.0895-.0382.6087-.2067.5136-.381-.1896-.3497-.5283-.1345-.8274-.0826-.0473.0173-.0974.0418-.147.0316-.1256-.0245-.2518-.1054-.3479-.1857-.0043-.003-.0118-.0291-.0013-.0258.1056.0405.2033.1009.3099.14.0656.0242.1381.0017.2046-.016.0099-.0016.019-.0045.0292-.0068.1997-.0634.4034-.1838.5972-.0833.1312.0666.2371.159.2339.3148-.0014.0813-.0765.1469-.1689.1991.0682.0425.0839.1394.0669.2136-.0128.0571-.062.1195-.1184.1756.243.0643.2502.2233.1567.3827.0892-.0154.1791.0731.1768.1648-.001.051-.0164.1062-.04.1617.098-.0343.6733.0839.7628.0607.3391-.0898.5762-.2864.6644-.6429.0574-.2302.1089-.4737.0666-.7088.0309-.1861-.1561-.4258-.286-.5204 0 0-.0009 0-.0016-.001-.0666-.0656-.1394-.1267-.2161-.1861-.2243-.1267-.4765-.1917-.7205-.2713z" class="B"/><path d="M27.4772 33.9543l.9888-.5645-2.5866-4.1103-.5903.4816z" class="B"/><path d="M27.5058 33.855l.8589-.4898-2.5032-3.9787-.4825.3931zm-.0488.1675c-.0187-.0053-.0348-.0177-.0436-.035l-2.1885-4.1932c-.0154-.029-.0085-.0669.0177-.0878l.5907-.4819c.0167-.0127.0364-.0196.057-.0153s.0384.0153.0492.0329l2.5863 4.1096c.0105.0167.0134.0366.0088.0552s-.017.0353-.0337.0451l-.9882.5645c-.0111.0059-.0236.0091-.0357.0091h0c-.0069 0-.0141-.0013-.02-.0032z" class="B"/><path d="M27.0856 32.3235l-.8897-1.5166-.4146-.7342c-.0846-.1564-.1551-.3458-.245-.5136l-.2472.2021 2.1881 4.1932.9783-.5583c-.1594.0336-.3231.0346-.4802-.0216-.4578-.1662-.666-.6566-.8897-1.051z" class="B"/><use xlink:href="#C" class="B"/><use xlink:href="#D" class="B"/><use xlink:href="#C" class="B"/><use xlink:href="#D" class="B"/><path d="M25.8108 29.8169c-.3906.2507-.9104.1378-1.1612-.2505s-.1384-.907.2525-1.1567.9101-.1375 1.1616.2514.1377.9063-.2529 1.1558z" class="B"/><path d="M24.9404 28.4695c-.1729.111-.2919.2811-.3355.4822s-.0066.4036.1043.576c.1423.22.3843.3519.6473.3519.1473 0 .2909-.0428.4156-.1227.3561-.2276.4597-.7023.2305-1.0576-.142-.22-.384-.3513-.6474-.3513-.1469 0-.2905.0421-.4148.1215zm-.3519 1.1352c-.1315-.2044-.1761-.4473-.1237-.6834s.1932-.4407.3982-.5717c.1472-.0943.3174-.1443.4922-.1443.3119 0 .5992.1564.7681.417.2719.4211.1492.984-.2738 1.2547-.1473.0943-.3182.1446-.493.1446-.3118 0-.5991-.156-.768-.4169z" class="B"/><path d="M24.3677 28.6089c-.1637.3307-.1565.7339.0587 1.0663.3247.5022.9966.6478 1.5017.3236.3325-.2126.5086-.5773.4968-.9446-.0839.1698-.2128.3193-.3846.4297-.5048.3222-1.1768.1779-1.5018-.3252-.1101-.1708-.1649-.3604-.1708-.5498z" class="B"/><path d="M25.6264 28.5697l1.8204 1.053-.2636.4688-1.8277-1.0716z" class="B"/><path d="M27.1572 29.9927l.1935-.3432-1.6982-.9824-.1971.3278zm-.0095.1603l-1.8274-1.0719c-.0167-.0098-.0285-.0254-.0331-.0437s-.002-.0382.0079-.0545l.2709-.45c.0203-.0336.0629-.0444.0974-.0251l1.8204 1.0533c.0342.0192.0456.063.0266.0966l-.264.4685c-.0092.017-.0252.0288-.0433.034-.0065.0023-.0128.0029-.019.0029h0c-.0128 0-.0253-.0036-.0364-.0101z" class="B"/><path d="M25.4755 28.8204l-.12.1995 1.8277 1.0716.22-.3921c-.3024.0862-.6192-.0686-.8766-.223l-1.0511-.656z" class="B"/><path d="M27.3758 28.584c.0397.0192.4857.3346.4857.3346l-.6582 1.069-.5041-.2625.6766-1.1411z" class="B"/><path d="M27.1763 29.8933l.5884-.9553-.3765-.2622c-.0935.1355-.3545.59-.5916 1.0197zm-.0072.1574l-.5037-.2621c-.0167-.0095-.0295-.0245-.0354-.0431s-.0033-.0382.0059-.0552c.6477-1.1783.688-1.1783.7388-1.1783.0109 0 .0223.0022.0322.0068.0416.0216.3896.2661.4952.3412.0312.0219.04.0637.02.0957l-.6585 1.0692c-.0135.0222-.0368.0333-.061.0333-.0118 0-.0223-.0016-.0335-.0075z" class="B"/><path d="M27.2014 29.9876l.6585-1.069-.3132-.2194c-.139.4378-.3915.8878-.8162 1.0432z" class="B"/><path d="M28.4126 31.7103c.1401-.1414.2365-.3298.187-.5205-.0053-.0202-.004-.0388-.0027-.0578-.1043-.2298-.3207-.5246-.7874-.699-.7969-.2984-.9491-.2589-1.2879-.1531l-.0295.0091c-.466.1456-.9353.4424-.9153.6863.0108.1251.1397.2051.3837.239.3237.0448.5526-.0094.7205-.0483.2306-.0542.3362-.0793.4792.161.2928.4917.524.5103 1.0212.4358.0649-.0094.1246-.0212.1771-.0356.0207-.0052.0358-.012.0541-.0169z" class="B"/><path d="M26.167 30.5195c-.1384.0685-.5136.2445-.4965.4473.0062.0741.1076.1747.2968.2011.3063.0421.5008-.0176.6697-.0581.2338-.0549.405-.1087.5831.19.2666.4493.4729.4894.955.4176.0613-.0095.1358-.0451.1853-.0588.265-.0698.2397-.1884.24-.1897-.0023-.0284-.0442-.6569-.8231-.9481-.2293-.0862-.4684-.1806-.7123-.2135-.1227-.018-.248-.0082-.371.0176-.1843.0388-.3643.1146-.527.1946z" class="B"/><path d="M36.0204 30.5587l-.2719.2053c-.0059.0049-.0118.0101-.0187.0144l.4562-.4738c.3877-.4273.7133-.9112.6707-1.5152-.0187-.2658-.0456-.5289-.1942-.7572-.061-.0956-.1279-.1351-.2299-.171-.0085-.0017-.016-.0056-.0262-.0085.0479.0408.0895.0862.123.1342.139.2014.0416.395.019.6157-.001.0085-.0115.0163-.02.017-.3578.0046-.7097-.0434-1.0675-.0121-.3699.0327-.7349.097-1.0954.1786-.016.0049-.036-.0124-.0259-.0294.1712-.2941.4287-.6043.736-.7653l.1111-.0512c-.0698.0205-.1393.0467-.2089.0757-.2443.1042-.466.2681-.6664.4401l-.7946.685c-.2466.2083-.4628.4444-.6956.6651-.0367.0359-.1758.1374-.1843.19-.0246.1345.0682.2736.122.3957.2227.5012.6634.9361 1.159 1.1731l.3204.1394c.1249.0438.2243.1316.345.176.1938.0715.2066-.0046.3201-.1662.1735-.2458.3791-.4747.5932-.6974.0686-.015.0535-.0267.1293-.0829l.3509-.2792c.2207-.1821.4644-.3372.6903-.5119.0112-.0088-.0128-.0082-.0183-.0052l-.6284.4212z" class="B"/><path d="M33.9856 31.5331c-.4296-.1959-.7933-.5609-1.0458-.9511-.103-.1616-.3217-.5237-.1387-.6778.1944-.1635.3725-.3594.5536-.5387.1908-.1887.4119-.3493.6175-.5217l.6031-.5221c.2545-.1965.5474-.3448.8625-.4146.1555-.034.3663-.0748.5605-.0778.0023.003.0075.0056.0167.0049.1122-.0013.2073.0196.3122.0516.2083.0637.267.1675.3457.3448.0931.2103.0987.4842.1017.7101.0078.5342-.3277.9818-.6671 1.3556l-.9514 1.0272-.2765.3167-.1006.1362c-.0843.1204-.0581.1103-.1935.0388l-.5999-.2821z" class="B"/><path d="M36.3277 27.8858c-.1049-.032-.2004-.0529-.3122-.0516-.0095.0007-.0144-.0019-.017-.0049-.1939.003-.4047.0438-.5602.0778-.2214.0493-.4296.1377-.6231.2533-.284.5423-.4418 1.1199-.5133 1.7383-.0341.2928-.1282.6536-.4607.716-.365.0676-.797-.2576-1.0987-.6076-.0459.176.1135.4424.1978.5749.2525.3902.6162.7552 1.0458.9511l.5999.2821c.1354.0715.1088.0816.1935-.0388.0314-.0477.0646-.0921.1006-.1362l.2765-.3167.9514-1.0272c.3394-.3738.6749-.8214.6671-1.3556-.003-.2259-.0086-.4998-.1017-.7101-.079-.1773-.1374-.2811-.3457-.3448z" class="B"/><path d="M34.8804 31.6403l.2765-.317.9514-1.0272c.3394-.3738.6749-.8215.6671-1.3553-.003-.2259-.0086-.5002-.1017-.7101-.0787-.1773-.1374-.2814-.3457-.3451-.1049-.0317-.2-.0526-.3122-.0516-.0092.0007-.0141-.0016-.0167-.0049-.1942.0033-.405.0438-.5605.0777-.3152.0702-.608.2184-.8625.4147-.1446.1113-.2784.235-.4145.3571l.5562-.3549c.2072-.1152.4263-.2145.6595-.2703.2138-.0496.4978-.1006.7146-.032.0485.015.0833.0376.1072.066.0361.028.065.0675.083.1201.0666.1979.0049.4519-.058.6439-.0699.2132-.1771.4094-.31.5903-.1541.2092-.3332.3963-.5027.5942l-.3663.4496c-.2129.2468-.5372.6379-.9085.5628-.3961-.0799-.7405-.3686-1.0015-.6618-.1234-.1381-.2473-.2961-.3477-.4665-.1535.1622.0525.5051.1535.6618.2525.3905.6159.7555 1.0455.9514l.5999.2821c.1354.0715.1092.0813.1934-.0389.0315-.0476.0647-.092.1007-.1361z" class="B"/><path d="M34.8794 31.6403l.2764-.317.9514-1.0271c.3395-.3739.675-.8215.6671-1.3553-.0029-.226-.0085-.5002-.1017-.7101-.0787-.1773-.1374-.2815-.3456-.3452-.0112-.0026-.022-.0058-.0325-.0097.1086.0662.1978.1652.2496.2801.201.445.0006.9573-.2332 1.3468-.508.8476-1.2839 1.4761-1.9339 2.2104l.2082.1022c.1355.0715.1092.0812.1935-.0389.0315-.0477.0646-.0921.1007-.1362z" class="B"/><path d="M34.8571 31.749c.0476.0503-.0967.2573-.159.2677s-.6704-.0741-1.2712-.588-1.0022-1.1111-1.0144-1.2247.1975-.3699.2863-.336.4388.6236.9295 1.0683c.6405.5802 1.1836.7617 1.2288.8127z" class="B"/><path d="M32.6827 29.9068c-.0033-.0016-.022 0-.0577.0278-.0856.0649-.1771.2063-.1706.2657.005.0497.143.2929.4369.6338.1767.204.3653.3937.5631.5628.588.5028 1.1875.5851 1.237.5779.0141-.0032.064-.0483.1037-.1169.0295-.0512.0314-.0786.0295-.0852l-.1027-.0516c-.2046-.1012-.6336-.3118-1.1206-.7538-.1194-.1071-.2371-.2302-.3621-.3755l-.3555-.4437-.1502-.1923c-.0347-.0418-.0475-.0477-.0508-.049zm-.3109.3024c-.0109-.1062.1118-.2717.2013-.3403.0548-.0417.101-.0545.1407-.0398.0213.0085.0459.0297.0827.0728s.0908.1117.1541.1956l.3519.4414c.122.142.2381.2619.3539.3663.4798.434.9009.6413 1.1025.7422.0843.0414.1148.0561.1302.0734.024.0275.0253.0673.0076.1176-.0299.08-.121.2079-.1919.219-.0606.0105-.6772-.061-1.3049-.5978-.2004-.1717-.3932-.364-.5713-.5707-.2469-.2847-.4467-.5841-.4568-.6797z" class="B"/><path d="M34.6469 31.6368c.0072.0323.0052.063-.0089.0894-.1128.2276-.7156-.1815-.891-.3039-.3542-.2462-.9435-.733-1.0527-1.0876-.041-.1371-.0289-.2612.098-.3183.0128-.0049.0243-.0085.0351-.0105-.06-.077-.1043-.1286-.1289-.1377-.0889-.034-.2971.2252-.286.3359s.4133.7101 1.0144 1.2247 1.2085.5981 1.2712.5877.2066-.2171.159-.2674c-.0151-.0176-.0918-.0519-.2102-.1123z" class="B"/><path d="M33.4688 29.5138l.0764-.0245c.6936-.6233 1.3993-1.1 2.297-1.3863.0249-.0082-.0033-.0199-.0168-.017-.9497.1793-1.7381.6811-2.3566 1.4278z" class="B"/><use xlink:href="#E" class="B"/><path d="M35.2362 27.5353l.4251-.0918.5477-.1139.3473-.0532c-.002-.0098-.0027-.0177-.0033-.0248-.0148-.1479-.0404-.3056-.0777-.4784l-.0525-.1978-.085-.3301-.2158.0588-1.0927.2968c.0164.1172.042.236.0676.3516l.0751.4091.015.1828.0492-.0091zm.0164.0816l-.097.0173c-.0122.0026-.0243-.0006-.0332-.0081s-.0154-.0177-.016-.0298l-.0187-.2259c-.0148-.1319-.0443-.2687-.0732-.4009l-.0728-.3951c-.0026-.0209.0105-.0401.0312-.0454l1.1265-.3049.2591-.0715c.0118-.0026.023-.001.0321.0046s.0164.0163.0194.0271l.0931.3692.0538.2015c.0384.1773.0636.3379.0804.49 0 .0118.0039.0278.0075.0454.0017.0036.0033.0085.0039.0131.0046.0228-.0075.0431-.0337.0483-.001.001-.002.001-.0033.001l-.388.0581-.5437.1133-.4274.0927z" class="B"/><use xlink:href="#E" class="B"/><path d="M39.3202 30.9077l-.3696-1.0605c-.1489-.3823-.3473-.7529-.5621-1.1032-.1657-.2717-.3634-.5133-.5976-.7255l-.1348-.1753c-.1954-.2351-.3581-.5126-.6021-.7036-.098-.0764-.1968-.097-.2958-.0898l-.5939.3376-.8462.5243-.3623.242-.0437.3173c-.0393.2116-.1869.3425-.3155.4927.0073.0193.0155.0389.0191.0575.0252.0996-.0066.9664-.0286 1.2844l-.0938 1.0327c-.0678.6896-.1006 1.3742-.0692 2.0671.0312.699.1125 1.3977.2345 2.0869l.1178.5051.0137.047.2116.2181c.1876.0222.4017-.0111.5408-.0349.484-.0836.9478-.2674 1.4358-.3291l1.8165-.158c.4054-.0552.851-.1029 1.2118-.3089.1843-.1055.3309-.256.3522-.4754.0266-.2729-.0469-.539-.0708-.8097l-.0545-.5025c-.0744-.3147-.1633-.6252-.2781-.938l-.6352-1.7983z" class="B"/><path d="M40.2342 33.644c-.0748-.3147-.1633-.6252-.2781-.938l-.6356-1.7983-.3696-1.0605c-.1485-.3823-.347-.7529-.5618-1.1032-.1656-.2717-.3633-.5133-.5975-.7258l-.1348-.175c-.1958-.2351-.3581-.5126-.6021-.7036-.0981-.0764-.1968-.097-.2958-.0898l-.594.3376-.8461.5243-.3624.242-.0439.3173c-.0391.2113-.185.3416-.3135.4908.3259-.0777.6378-.241.9776-.2727.1636-.015.246.2139.1322.3187l-1.0006.9929-.1089.0933-.0115.2116-.0938 1.0327-.0794 1.6547c.0066.0131.0135.0248.0168.0418.2459 1.5107 1.8145 1.0392 2.419.1384.3102-.4626.4929-.9605.7326-1.4565.0748-.1551.2958-.0966.3417.0444.4625 1.3942.6661 2.6757-.85 3.3476-.6477.287-1.5798.4561-2.4184.3627l.003.0209.1177.5048.0138.047.2112.2184c.1879.0222.4021-.0111.5411-.0349.4841-.0836.9478-.2674 1.4358-.3291l1.8166-.158c.4053-.0552.851-.1029 1.2118-.3089.1843-.1055.3305-.256.3522-.4757.0265-.2726-.0469-.5387-.0709-.8094l-.0544-.5025z" class="B"/><path d="M40.2351 33.644c-.0748-.3147-.1633-.6252-.2781-.938l-.6356-1.7983-.3696-1.0605c-.1485-.3823-.347-.7529-.5618-1.1032-.1656-.2717-.3633-.5133-.5975-.7258l-.1348-.175c-.1958-.2351-.3581-.5126-.6021-.7036-.0981-.0764-.1968-.097-.2958-.0898l-.594.3376-.3709.2299c.2653-.0699.5382-.0569.8265.1325.789.5172 1.3639 1.4013 1.789 2.227.6126 1.1911 1.0671 2.4739 1.281 3.7982.0944.5847.1082 1.1665.1134 1.747l.2034-.0904c.1843-.1055.3305-.256.3522-.4757.0266-.2726-.0469-.5387-.0709-.8094l-.0544-.5025z" class="B"/><path d="M36.9739 35.8576l.8717-.0744.9442-.0836.0787-.0101.4562-.0706c.2768-.0525.4877-.1237.6622-.2239.2049-.1173.3132-.2619.3309-.4431s-.0099-.3618-.0364-.5384l-.0351-.2622-.0538-.5021c-.0777-.3334-.1689-.638-.2758-.9289l-.1263-.3435-.51-1.4574-.3673-1.0572c-.1334-.3416-.3174-.7007-.5588-1.0967-.1679-.2733-.3614-.5084-.591-.7164-.0019-.0016-.0049-.0049-.0065-.0068l-.1332-.1714-.1718-.2237c-.1266-.1694-.2571-.3448-.4228-.475-.077-.0598-.1594-.0869-.2581-.0817l-.5831.3327-.8454.5228-.3457.2305-.0423.3023c-.0348.1877-.1499.3151-.2594.4382l-.0502.0555c.0056.0133.0092.0261.0131.0388.0266.1097-.0062.9877-.0288 1.2972l-.0807.9142-.0122.1198c-.0751.7767-.0977 1.4307-.0698 2.0608.0305.6824.1105 1.3824.2345 2.0824l.1161.4989.0121.0376.1925.1998c.1709.0183.3641-.0085.5149-.035.2158-.0378.4309-.0963.6389-.1528l.5804-.1423.2181-.0343zm2.3666-.1567l-.4614.0702-.0781.0114-.9494.0839-.8671.0735-.2129.0346c-.1932.0369-.387.0888-.5739.1407l-.6467.1538c-.1607.0271-.369.0558-.5536.0339-.0092-.0009-.0177-.0045-.024-.0104l-.2135-.2217c-.0039-.0036-.0065-.0078-.0078-.0147l-.0138-.0454c-.0548-.1724-.0902-.3474-.1197-.5116-.1253-.702-.2053-1.4056-.2352-2.0922-.0291-.6337-.0068-1.2919.0696-2.0719l.0121-.1198.081-.9123.0302-1.272c-.0043-.0157-.0102-.034-.0181-.0522s-.0029-.0307.0079-.0422l.0653-.0754c.1085-.1198.2099-.2328.2407-.397l.0433-.3144c.001-.0131.0075-.0235.0174-.0307l.3637-.2429.8484-.525.5933-.3379c.0062-.0027.0118-.0053.0177-.0046.1233-.0092.2299.0232.325.0976.1744.1378.3086.3177.4388.4907l.1689.2201.1358.1766c.2279.2051.4315.4516.6008.7278.2453.4006.4306.7637.5654 1.1104l.3702 1.0627.5084 1.4539.1262.3428c.1082.2945.1991.6028.2804.9436l.0541.5077.0338.2589c.0282.1816.0567.3693.0381.559-.021.2067-.1463.3768-.3733.5074-.1839.1038-.4014.1779-.688.2331z" class="B"/><path d="M36.4025 26.7198l-.6861.3902-1.1363.7682.1053.6987.0557.2093.0587-.6409c.0023-.0147.0144-.0232.0295-.019.1794.0562.2972.2779.4155.4111l.1775.1969c.4211-.1502.7992-.4039 1.1383-.6778.2748-.223.5969-.5371.6782-.8848.0167-.0755-.2768-.4744-.4204-.5077-.1365-.0307-.2827.0084-.4159.0558z" class="B"/><path d="M34.8422 28.0872c.146.0447.2499.1825.3414.3049l.0932.1182.158.1747c.3526-.13.7025-.3396 1.1-.6609.3791-.3056.6031-.5965.6644-.8619 0-.0591-.2617-.428-.3899-.4574-.061-.0137-.1292-.0137-.2096.0023-.0528.0101-.1102.0271-.1826.0516l-.6773.3865-.5129.3513-.5998.4026.038.2756.0522.3464.0423-.382c.0036-.0278.0246-.0487.0511-.0542.0112-.0026.0217-.0026.0315.0023zm.5503.6758l-.178-.1972c-.0335-.0379-.0637-.0794-.0971-.1238-.0833-.1093-.1692-.2243-.2781-.2687l-.0555.6148c-.0003.0203-.0157.0395-.0364.0395s-.04-.0107-.0455-.0297l-.0558-.2102c-.0315-.1336-.0475-.2714-.0643-.4036l-.042-.2991c-.0036-.0163.0056-.0339.0204-.0424.2132-.1238.4181-.2713.6169-.4147l.5185-.3539.6883-.3914c.081-.0288.143-.0467.1998-.0578.0921-.0177.1718-.0177.2443-.0017.1302.0301.4808.4343.4526.558-.0666.2883-.2939.5851-.6933.9077-.4139.3346-.7796.5531-1.1495.6846-.003.0004-.0046.0004-.0059.0017-.0148.0029-.0292-.0023-.0394-.0121z" class="B"/><path d="M36.403 26.7198l-.6612.3745.1237-.0323.3535-.0807c.1138-.0281.2161-.0754.3355-.0548.0167.0032.0243.0196.0157.0336-.1259.2436-.2781.478-.4594.6837-.167.1893-.3739.3895-.6264.4558-.1086.0274-.2253.0333-.3322-.004-.0643-.0222-.122-.0545-.1817-.0848-.0322-.0164-.0922-.0526-.1309-.0422-.0561.0157-.08.0797-.0915.1297-.0292.1283-.0446.2625-.0495.3937l-.0033.1205.0463.1737.0587-.6409c.0023-.0147.0144-.0232.0295-.019.1794.0562.2971.2779.4155.4111l.1774.1969c.4211-.1502.7992-.4039 1.1383-.6778.2749-.223.5969-.5371.6783-.8848.0167-.0755-.2768-.4744-.4205-.5077-.1364-.0307-.2827.0084-.4158.0558z" class="B"/><path d="M36.246 31.0186c-.0086-.0036-.0171-.0059-.0289-.0043-.2735.0242-.545.1241-.815.176l-.65.1404c-.0226.0562-.1233-.0016-.1548.0506-.016.2566-.0278 1.5182.0571 1.814.0535.1959.1191.3774.266.5087.1567.1433.4194.2067.6503.1949.406-.0206.5231-.1241.7117-.2883s.1905-.4672.2004-.7098c.0118-.2997-.0053-1.5423-.0814-1.8607-.0098-.0401-.1348-.0457-.1554-.0215z" class="B"/><path d="M34.6934 33.1842c.0492.1759.1092.3594.2545.4884.1371.125.3801.1979.6205.1851.0866-.0042.16-.0127.2256-.0245.2178-.0427.3129-.1263.4578-.2517.1686-.1466.1784-.4058.187-.634l.0019-.049c.0135-.3154-.0072-1.5283-.0793-1.8424-.0122-.0075-.0535-.0134-.082-.0085-.0108.0127-.0302.0153-.0469.0101-.0059-.002-.0085-.002-.0102-.002-.1502.0128-.3286.0572-.4978.0999l-.3152.0761-.2738.0604-.3585.0764c-.0183.0212-.0616.0317-.1023.0314-.0134-.0017-.0262-.002-.0351.0003l-.0016-.002c-.0161.2873-.0256 1.5016.0554 1.786zm1.1167.7297c-.0692.0144-.1476.0222-.2371.0261-.266.0144-.5271-.0643-.6819-.2047-.1603-.1443-.2279-.3484-.2787-.5289-.0866-.304-.0741-1.562-.0574-1.8284 0-.0062.0023-.0134.0059-.018.022-.0359.0735-.0444.1164-.0444h.0335c.0052-.014.0193-.0244.0341-.0261.123-.0186.2495-.0489.3715-.078l.5881-.1358c.1702-.0444.3561-.0895.5083-.1029.0095-.0006.0184-.0006.0262.001.0069-.0036.0151-.0065.025-.0085.0521-.0095.161-.0003.178.0647.0771.3232.0948 1.5652.082 1.8718l-.0016.0496c-.0085.2328-.0194.5227-.2129.6909-.1518.1319-.2597.2262-.4994.2716z" class="B"/><path d="M36.246 31.0186c-.0086-.0036-.0171-.0059-.0289-.0043-.2709.0242-.5398.1212-.8074.1734.0118.0451.0213.0908.0262.1365.0253.0555.0581.1064.1033.1472.1273.114.2916.1316.4352.2126.266.1495.1765.5527.1663.7927-.019.4685.0216 1.2773-.6648 1.2599-.6769-.016-.7549-.7793-.7641-1.3007-.0046-.2037-.0226-.5968.2027-.7108.1623-.081.444-.0669.4414-.3053-.001-.0496-.0069-.0973-.0138-.1453-.0075-.0215-.0134-.0444-.0197-.0672l-.5703.1234c-.0226.0562-.1233-.0016-.1548.0506-.016.2566-.0278 1.5182.0571 1.814.0535.1959.1191.3774.266.5087.1567.1433.4194.2067.6503.1949.406-.0206.5231-.1241.7117-.2883s.1905-.4672.2004-.7098c.0118-.2997-.0053-1.5423-.0814-1.8607-.0098-.0401-.1348-.0457-.1554-.0215z" class="B"/><path d="M36.1359 30.2996c-.2394-.0174-.6549-.0203-.8924-.0174-.1898.002-.4017-.0068-.5755.0833-.121.0594-.1263.2762-.1424.3872-.0173.1215-.0764.7745-.018.8427.0764.0908.3267.0487.4241.0474l1.0901-.05c.1535-.0016.344.0023.4755-.0966.0499-.0382.0568-.16.0531-.274l.0053-.2759c.0056-.4636-.0584-.6216-.4198-.6467z" class="B"/><path d="M34.6866 30.4012c-.0836.0428-.1013.1985-.1138.3026l-.0065.0542c-.024.1702-.0663.7464-.0279.8114.0485.0558.2243.0431.3194.0353l.0718-.0049.4405-.0206.65-.0278h.0246c.0797-.0009.1705-.0019.2528-.0183.0715-.014.1283-.0365.1732-.0708.0135-.0095.0423-.0529.038-.2396l.0017-.1692.0026-.1071c.0059-.4704-.0662-.5831-.3814-.6059l-.8884-.0157h-.0558c-.1108.001-.2253.001-.3325.0212-.0643.0121-.1194.0307-.1683.0552zm1.627 1.2142c-.0905.018-.1843.018-.2683.0193h-.0242l-.6474.0294-.4428.0199-.0662.0033c-.1325.0108-.3139.0254-.3903-.0647-.0829-.0966.0076-.8681.0089-.8753l.0072-.0529c.0134-.1218.0344-.3046.1587-.3667.0555-.029.1174-.0493.1899-.0633.1148-.0228.2332-.0228.3473-.0235l.0558-.0003.8946.0179c.4024.0284.4657.2253.4602.6886l-.0023.1091-.0023.1639c.0046.1733-.0181.2687-.0709.3092s-.1236.0698-.2079.0861z" class="B"/><path d="M36.304 30.3588c.1171.1649.0744.398.0498.5868-.0187.1472-.0554.3575-.2138.4211-.2279.0911-.4719.0715-.712.0725-.2092-.0003-.5073.0865-.7005-.0261-.1531-.0888-.1587-.2432-.1531-.4062.0085-.1887-.0273-.4208.0711-.5948.0099-.0203.0233-.0376.0361-.0542-.0049.0023-.0092.0045-.0134.0075-.1211.0597-.1266.2765-.1424.3875-.0177.1212-.0764.7741-.0183.8427.0767.0904.3269.0483.424.0474l1.0905-.0503c.1531-.0017.3436.0026.4755-.0967.0498-.0382.0567-.16.0528-.2736l.0056-.2762c.0055-.3986-.043-.5717-.2867-.6278.0128.0127.0243.0261.0348.0404z" class="B"/><path d="M36.125 36.4909l-.0174-.0167-.0062.019.0236-.0023z" class="B"/><path d="M36.0714 36.5164c-.0085-.0101-.0102-.0232-.0059-.0356s.0043-.0117.0043-.014c.0016-.0131.0118-.0235.0255-.0294s.0283 0 .0391.0101l.0177.0163c.0102.0105.0141.0255.0085.0392s-.0164.0229-.0318.0248l-.0233.0017h-.0023c-.0128.0016-.0239-.0043-.0318-.0131z" class="B"/><path d="M36.0255 35.6881c-.5484.0598-1.0118.0702-1.4122.0529l.1299.7764c.384.032.8356.033 1.3577-.0241l.0062-.019.0174.0167c.9566-.1071 2.1468-.4052 3.5859-1.0487l-.0728-.6272c-.6917.2292-2.2967.7277-3.6121.873z" class="B"/><path d="M36.0737 36.4605c.0043-.0101.0128-.017.0236-.0203s.0272-.0006.0364.0089l.0046.0045c1.0816-.1231 2.2704-.4711 3.5331-1.0324l-.0646-.5586c-.6724.222-2.2741.717-3.5771.8613-.4834.0522-.9392.0709-1.3728.0545l.0325.1783.0872.5276c.41.0327.8465.0238 1.2971-.0238zm-1.3328.0927c-.018-.0013-.0321-.0144-.0341-.0314l-.0902-.5521-.04-.2223c-.0017-.0111.0016-.0216.0088-.0297s.02-.0147.0292-.0128c.4415.0193.9111.001 1.407-.0519 1.3246-.1462 2.962-.6582 3.6039-.872.0108-.0036.0226-.002.0321.0036s.0154.016.0171.0261l.0728.6282c.0016.0153-.0069.0297-.0217.0359-1.2846.5746-2.4957.9285-3.5967 1.0513-.0042.001-.0085.0006-.0121-.0007s-.0076.003-.0115.003c-.281.031-.5591.0467-.8254.0467-.1827 0-.3647-.0072-.5392-.0219z" class="B"/><path d="M39.702 35.3614l-.0639-.5462c-.6917.2292-2.2967.7277-3.6121.8727-.5199.0575-.9616.0686-1.3483.0542.8708.5662 2.3298.3872 3.2697.1897.6068-.127 1.2036-.3059 1.7546-.5704z" class="B"/><path d="M38.214 35.9296c.3854.8104 1.9497.1904 2.2714-.0956 0 0 .1775-.3246-.0206-.8793s-.3827-.685-1.1961-.5652c-.6674.0977-1.6607.3879-1.8644.9364.079-.128.1784-.2308.2984-.2403.3388-.029.35.3703.5113.844z" class="B"/><path d="M38.16 35.6188l.0892.299c.1279.2694.4109.3964.8369.3735.5729-.0313 1.1908-.3265 1.3699-.4796.021-.0444.1502-.3523-.0259-.8456-.1617-.4493-.3086-.605-.813-.5773l-.3421.0369c-.5864.0859-1.2925.2981-1.6457.638.0233-.0088.0466-.013.0702-.016l.0138-.0003c.2833-.016.3552.2429.4467.5714zm.0197.3265l-.0919-.3069c-.097-.3481-.157-.529-.3702-.5179l-.0112.0017c-.0931.0068-.1843.0823-.2702.2236-.0098.0167-.0308.0226-.0479.0141s-.0256-.0288-.0187-.0457c.2558-.688 1.6224-.9208 1.8936-.9612l.35-.0379c.5591-.0301.7188.1593.8864.6272.2024.5638.0263.8956.019.9096-.0016.0039-.0049.0072-.0082.0098-.2082.1858-.8658.4731-1.421.5031h0c-.4522.0248-.7664-.1201-.9097-.4195z" class="B"/><path d="M38.3358 36.1041c-.0472-.0493-.0892-.1054-.1213-.1747-.1611-.4737-.1722-.8727-.5113-.844-.1197.0098-.2194.1127-.2981.2407-.0453.1214-.0522.254-.0089.4006l.3801 1.4813c.0528.161.1378.2811.2598.365.1748-.1799.4214-.4594.4509-.6311.0272-.1544-.0659-.5358-.1512-.8378z" class="B"/><path d="M37.7069 35.1224c-.0931.0068-.1843.0822-.2702.2233-.041.1126-.0436.2386-.0053.3702l.3811 1.481c.0456.1417.1178.2501.2194.3272.249-.2603.3982-.4692.4182-.5887s-.0318-.4026-.1476-.8117c-.0499-.0529-.0908-.113-.1223-.1783l-.0919-.3072c-.097-.3477-.157-.5286-.3702-.5175zm.308 2.482c-.1292-.0898-.2191-.2149-.2735-.3846-.2014-.624-.3801-1.4774-.3814-1.4856-.043-.1443-.0397-.2867.0101-.4199.102-.1688.2116-.2559.33-.2664l.0137-.0003c.2834-.016.3552.2429.4467.5713l.0892.2991c.0279.0581.0646.111.1135.1613.0039.0026.0069.0095.0085.015.124.4369.1745.7245.1525.8532-.0308.1772-.2676.4525-.4614.6516-.0066.0072-.0161.0111-.0246.0121s-.0167-.0019-.0233-.0068z" class="B"/><path d="M40.5808 36.1396l-.0945-.3056c-.2948.2622-1.6302.8032-2.1504.27.0856.3023.1784.6834.1516.8378 0 .0019-.0014.0055-.0017.0088.1751.0441.5136.0829 1.0019-.0748.6287-.2004.9199-.4104 1.0931-.7362z" class="B"/><path d="M38.9176 36.9499c.1764-.0094.365-.0467.5598-.109.5887-.1894.8878-.3869 1.0632-.7046l-.0728-.2377c-.2473.1825-.8566.4372-1.3754.4659-.2899.0154-.5205-.0346-.6884-.1544.0931.3471.1348.5857.1236.7118.0879.0202.2198.0372.39.028zm.0042.0738c-.203.0111-.3545-.015-.4457-.0375-.0183-.0059-.0305-.0239-.0275-.0431l.002-.0082c.02-.1156-.0332-.4062-.1502-.8215-.005-.0147.0023-.0333.018-.0411s.0325-.0055.0449.0069c.1551.1583.3985.2295.7245.2115.5795-.032 1.2026-.332 1.3744-.4832.0086-.0088.0223-.0117.0348-.0085s.0223.0128.0253.0255l.0944.304c.0016.0094.0013.0195-.0033.029-.184.3441-.4952.5557-1.1131.7532-.2013.0657-.3951.1029-.5785.113z" class="B"/><path d="M40.5814 36.1399c-.1732.3255-.4644.5354-1.0931.7362-.4883.1574-.8268.1189-1.0019.0748-.0367.1721-.2771.4457-.4493.6223.3014.2083.835.192 1.6975-.0274 1.2131-.3076 1.075-.7728 1.0003-.955-.0384-.0911-.1017-.2831-.1535-.4509z" class="B"/><path d="M38.7585 37.6792c.2568-.0137.5729-.0695.9668-.1691.5375-.1358.8665-.3177.9773-.539.0735-.1453.0341-.2788-.002-.3654-.0285-.0669-.0718-.1923-.1292-.3741-.1882.3013-.4988.4966-1.0701.6791-.2014.0656-.3952.1028-.5788.1129-.1784.0105-.3172-.0081-.41-.0287-.0541.1662-.2476.3947-.4175.5717.1565.0924.3739.1293.6635.1126zm.0039.0748c-.3299.0183-.5739-.03-.7464-.1495-.0085-.0059-.0154-.0153-.0158-.0271s.003-.0209.0099-.03c.2568-.2652.4135-.4797.4398-.6044.0019-.0101.0078-.0196.017-.0238s.0184-.0075.0289-.0052c.0859.0225.2295.047.4227.0359.1761-.0092.365-.0464.5598-.1091.5959-.1916.897-.3924 1.0698-.7179.0076-.0144.022-.0213.0368-.0193s.0278.0114.0324.0251l.1515.4477c.042.1012.0876.2556 0 .4277-.1207.2413-.466.4368-1.0248.5772-.3988.1022-.7199.1584-.9816.1727z" class="B"/><path d="M39.636 36.0102c-.0924.0241-.1915-.0448-.22-.1535s.0239-.2171.1158-.2409.1925.0447.2207.1537-.0233.2165-.1165.2407z" class="B"/><path d="M39.6119 35.9127c-.0921.0248-.1912-.0434-.219-.1535s.0229-.2161.1161-.2403.1915.0448.219.1535-.0229.2165-.1161.2403z" class="B"/><path d="M39.5201 35.555c-.0341.0086-.0629.0333-.0804.0695s-.0216.0831-.01.1279c.0229.0873.102.1479.1758.1285.0348-.0089.0632-.0336.0804-.0702s.0226-.0827.0096-.1272c-.0198-.0787-.0864-.1358-.1532-.1321-.0073.0003-.0146.0013-.0222.0036zm-.1632.2162c-.0162-.0616-.0109-.1259.0149-.179s.0728-.0955.1291-.1097c.1155-.0303.2343.0537.2684.1822.0156.0613.01.1246-.0162.1793s-.0721.0939-.1284.1091c-.0126.0033-.0248.0049-.0371.0056-.1039.0059-.2013-.0729-.2307-.1875z" class="B"/><path d="M38.6063 34.7699c.7926-.2221 1.3039-.2815 1.5754-.2949-.1734-.139-.4335-.1564-.913-.0855-.6677.0979-1.6607.3879-1.8644.9364.079-.128.1784-.2308.2984-.2403.3388-.0291.35.3702.511.844.3857.8103 1.95.1907 2.2717-.0954 0 0 .025-.0447.0456-.1302-1.0311.6259-1.8218.6073-2.0271.2599-.2154-.3621-.3191-1.0546.1024-1.194z" class="B"/><path d="M40.5136 35.9254l-.0273-.0914c-.2951.2622-1.6302.8032-2.1504.27.0853.3023.1784.6837.1512.8378 0 .0019-.001.0055-.0013.0088.1748.0441.5133.0829 1.0019-.0748.6287-.2004.9196-.4104 1.0931-.7362-.0013-.0016-.0013-.0033-.0026-.0052-1.2125 1.1727-1.8064.3441-1.3476.2817.6694-.1205 1.0777-.3467 1.283-.4907z" class="B"/><path d="M40.4535 36.6725c.1292-.1006.2364-.049.3217.0555-.0092-.0552-.0262-.1015-.0407-.1371-.0383-.0915-.1013-.2831-.1531-.4513-.1735.3259-.4644.5358-1.0931.7363-.4886.1577-.8271.1188-1.0022.0748-.0364.1724-.2771.4456-.449.6223.2532.1769.673.1913 1.3151.061-.9015.1385-.6871-.4489-.1695-.4649.5316-.0157.9356-.2318 1.2708-.4966z" class="B"/><path d="M38.2145 35.9294c-.1611-.4737-.1722-.8727-.511-.844-.12.0098-.2194.1127-.2984.2407-.0453.1214-.0522.254-.0089.4006l.0787.3552.024.0029s-.0863-.6027.1259-.7568.2932.1261.4319.9978c.1335.8329-.1049 1.1659-.363.6092l.0826.273c.0532.161.1378.2811.2601.365.1745-.1799.4211-.4594.4506-.6311.0272-.1544-.0659-.5358-.1512-.8378-.0472-.0493-.0892-.1054-.1213-.1747z" class="B"/><path d="M40.3926 36.0766c.1525-.1052.121.2014-.4434.3901s-.4916-.0336-.2844-.046c0 0 .2663-.062.7278-.3441z" class="B"/><path d="M40.224 34.8005c.1446.2521-1.3666.224-.8599-.0454 0 0 .7153-.206.8599.0454z" class="B"/><path d="M40.4342 36.82c.3624-.2393.1653.1841-.3417.3657s-.6284.1129-.2998-.034c0 0 .2794-.094.6415-.3317z" class="B"/><path d="M36.9469 36.4932c-.2525.0499-.346.0453-.346.0453l-.2669-.9791.3903-.0157.2226.9495z" class="B"/><path d="M36.6288 36.5023c.0398-.0023.126-.0091.2766-.0369l-.2085-.8848-.3164.0131zm-.0552.0705l-.2865-1.047.466-.019.0069.0284.2233.9508.0079.0349-.0368.0075c-.218.0425-.3207.0451-.3473.0451h0z" class="B"/><path d="M22.0693 26.7921c-.0308-.0405-.0223-.0992.0187-.1306l1.0308-.7686c.0413-.0306.1003-.0228.1315.0183s.0223.0996-.019.1303l-1.0311.7692c-.0167.0124-.0361.019-.0558.019-.0282 0-.0567-.0137-.0751-.0376z" class="B"/><path d="M22.1324 26.7191c-.0101.0075-.0118.0212-.0049.0303.0161.02.0246.0089.0309.0046l1.0314-.7695c.0098-.0069.0111-.0213.0042-.0307s-.0147-.0082-.018-.0082zm-.119.1156c-.0544-.0725-.04-.1757.0328-.2299l1.0311-.7695c.0699-.0519.1781-.0366.2312.033s.0397.1763-.0328.2301l-1.0311.7699c-.0288.0212-.0633.0327-.099.0327-.0522 0-.101-.0248-.1322-.0663z" class="B"/><path d="M19.7939 23.1188c-.0308-.0412-.0223-.0996.0187-.1306l.6569-.4898c.0413-.0306.1001-.0222.1306.0187s.0226.1002-.0187.1306l-.6563.4897c-.0167.0127-.0364.0186-.0561.0186-.0282 0-.0567-.0124-.0751-.0372z" class="B"/><path d="M19.8556 23.0461c-.0098.0062-.0118.0206-.0049.0304.0122.0153.022.0104.0309.0039l.6588-.4894c.0092-.0075.0118-.0215.0049-.031s-.0151-.0092-.0181-.0092zm-.1197.1156c-.0546-.0725-.0394-.176.0336-.2305l.6584-.4897c.0704-.0526.1789-.0372.2319.033s.0398.1759-.0333.2305l-.6587.489c-.0283.0222-.0625.0337-.099.0337-.052 0-.101-.0248-.1329-.066z" class="B"/><path d="M16.7629 19.4109c-.0312-.0415-.0226-.0999.019-.1306l.6563-.4908c.0413-.0303.1-.0218.1315.0193s.0219.0996-.019.1306l-.6569.4898c-.0164.013-.0364.0186-.0561.0186-.0282 0-.0558-.0128-.0748-.0369z" class="B"/><path d="M16.8261 19.3373c-.0092.0072-.0118.0209-.0042.0307.0144.0189.0243.0095.0309.0042l.6587-.49c.0092-.0075.0115-.0206.0036-.0304s-.0144-.0085-.0174-.0085zm-.1193.1166c-.0546-.0735-.0398-.1763.0332-.2309l.6584-.49c.0717-.0526.1796-.0373.2318.0333s.0402.1763-.0332.2301l-.6581.4904c-.0282.0209-.0631.0327-.0996.0327-.0516 0-.101-.0245-.1325-.0656z" class="B"/><path d="M13.3977 15.4044c-.0308-.0415-.023-.1003.018-.1313l.6569-.4897c.041-.0307.1004-.0222.1315.0186s.022.0999-.0193.1309l-.6563.4897c-.017.0121-.0367.0186-.0564.0186-.0282 0-.0564-.0133-.0744-.0368z" class="B"/><path d="M13.459 15.3308c-.0099.0069-.0112.0212-.0043.03s.0214.0111.0309.0049l.6581-.4897c.0102-.0078.0118-.0216.0049-.031s-.0141-.0085-.018-.0085zm-.1194.1166c-.0546-.0735-.0398-.1767.0332-.2312l.6587-.4894c.0694-.0526.1796-.0372.2316.0326s.0401.175-.0329.2309l-.6588.4894c-.0286.0209-.0628.0329-.0993.0329-.0516 0-.101-.0244-.1325-.0652z" class="B"/><path d="M9.4617 11.0734c-.03903-.0336-.04297-.093-.00853-.1312l.54277-.6132c.03406-.0372.09376-.0414.13246-.0078s.0423.0934.0079.1316l-.54244.6131c-.01869.0206-.04493.031-.07051.031s-.04427-.0068-.06165-.0235z" class="B"/><path d="M10.0532 10.3773l-.54398.6115-.04572.0846.0467-.0529.01513.0049c.00362 0 .01052-.0007.0171-.0072l.54397-.6125c.0069-.0072.0062-.0242-.0016-.0307s-.0139-.0029-.0188-.0029-.0095.0013-.0128.0052zm-.63741.7506c-.03355-.0294-.05295-.0702-.05624-.1142s.01283-.0862.04177-.1189l.54462-.6125c.05856-.0653.16806-.0722.23346-.015s.0754.1652.0145.2331l-.54395.6122c-.0319.0359-.07729.0555-.12465.0555-.04012 0-.07893-.0137-.10951-.0402z" class="B"/><path d="M4.12858 6.23307c-.04723-.02024-.06887-.07542-.04887-.12211l.16431-.3771c.02033-.04701.07543-.06987.12298-.04865s.0692.07542.04887.12309l-.16398.37645c-.01574.03559-.05018.05583-.08625.05583-.01247 0-.02558-.00196-.03706-.00751z" class="B"/><path d="M4.49626 5.60693v.70517H4v-.70517z" class="B"/><mask id="A" maskUnits="userSpaceOnUse" x="4" y="5" width="1" height="2"><path d="M4.49626 5.60693v.70517H4v-.70517z" fill="#fff" class="B"/></mask><g mask="url(#A)" class="B"><path d="M4.31291 5.76382l-.16617.37902c-.0053.01118.00033.02401.01125.02895l.00894.00197c.00695 0 .01622-.00361.02019-.01316l.16585-.37934c.00463-.01119-.00066-.02435-.01192-.02961h-.00629c-.01258 0-.0192.0046-.02185.01217zm-.21222.53988c-.08441-.03652-.12347-.1339-.08706-.21747l.16552-.38033c.03608-.08192.13837-.12141.22013-.08587s.12315.13456.08673.21813l-.16584.38c-.02615.06054-.0864.09936-.15327.09936h0c-.02317 0-.04502-.00427-.06621-.01382z"/></g><path d="M4.21847 5.62854s-.17907.21255.05214.34217C8.03685 8.07497 17.3544 17.5078 24.4595 28.4016c.1512-.173.3431-.3121.5543-.3977-2.7994-3.9623-12.6853-17.4561-20.79533-22.37536z" class="B"/><path d="M4.22571 5.81682c.00623.03559.03214.06497.07936.09142C7.87847 7.90443 17.1032 17.015 24.4691 28.2859c.1269-.1299.2755-.236.4358-.3121C22.017 23.8929 12.2645 10.629 4.24112 5.72638c-.01246.02775-.02197.06073-.01541.09044zM24.4543 28.4727c-.0229-.0017-.0433-.0134-.0554-.0324C17.0376 17.1534 7.80337 8.02652 4.23489 6.03261c-.10658-.05974-.14069-.13647-.15086-.19067-.02394-.13256.06822-.2465.07838-.25924.02329-.0271.06232-.0333.09249-.01502C12.361 10.4831 22.238 23.9517 25.0722 27.9623c.0124.0177.0164.0402.0102.0618s-.0214.0372-.042.0453c-.1988.0807-.3811.2119-.5274.3794-.0134.0154-.0331.0239-.0541.0239z" class="B"/><path d="M33.3704 33.7501c-1.2889.1156-4.2841-2.2378-4.411-2.338-.0138-.0105-.0207-.0281-.017-.0451l.1928-1.0317c.0026-.0147.0111-.0268.0246-.0336s.0272-.0072.0403-.001l3.9401 1.6018c.2525-.0343 1.2941-.9416 1.6735-1.2884.0174-.0163.044-.0173.0623-.0019l1.3857 1.1532c.0108.0081.0167.0208.017.0339s-.0046.0261-.0141.0353c-.063.0607-1.5624 1.5084-2.7204 1.8816-.0528.0166-.1112.0284-.1738.0339z" class="B"/><path d="M33.3631 33.6566c.0558-.0043.1076-.0144.1535-.0297 1.0377-.3337 2.4039-1.595 2.6463-1.8235l-1.3151-1.0938c-.2368.2165-1.3827 1.2437-1.6919 1.2848-.3401.0313-3.378-1.3315-3.9381-1.5845l-.1768.9468c.2804.2181 3.1271 2.4076 4.3221 2.2999z" class="B"/><path d="M34.1076 31.3526c.0072.0277.0111.0561.0216.0832.0791.1995.2319.3265.3198.5143.1095.2347.0971.4512-.1168.6268-.2423.2005-.5122.4059-.8166.4986-.0193.0052-.04.0029-.0603.0062-.003.002-.0043.0059-.0072.0069-.469.2177-1.3227-.3706-1.7438-.5642-.889-.4075-1.7991-.9109-2.6036-1.4882l-.0597.3206c.2804.2181 3.1271 2.4073 4.3221 2.2999.0558-.0043.1076-.0147.1535-.0297 1.0373-.3337 2.4039-1.595 2.6463-1.8235l-1.3151-1.0938-.7402.6429z" class="B"/><path d="M29.4122 30.4998l-.9547-1.0193-.2207-.1985c-.2398-.2237-.6218-.6337-.9947-.7395-.2926.0232-.5736.1071-.8589.1867l-.3565.113c-.163.1257-.3057.27-.4369.4355-.08.1003-.3043.3481-.3007.5202l.0813.1668.1903.1548c-.0207.1723-.0076.3506.0803.4917.0751.1201.1719.3258.3158.3872.0315.0617.0695.1172.1174.1626.0371.0529.0896.0963.1709.1234.0944.0333.1869.0806.2866.1019.0427.0107.0699.0173.1142.0068.0308-.0085.0413-.0078.035-.0091.0751.0323.1542.0574.2336.079l.159.0127.0502.0043c.002 0 .0049-.0007.0065-.0004.1345.018.244-.0124.3523-.092.0911-.0676.0754-.1574.0233-.2325-.003-.0042-.0059-.0065-.0092-.0104-.0528-.0556-.1033-.0885-.1742-.1146-.0078-.0043-.017-.0069-.0249-.0105l-.079-.0186c-.0745-.0046-.2047.0029-.2293-.0784-.0187-.06.0653-.1861.123-.1995.0358-.0084.0823.035.1063.052.0738.0532.1508.0956.2282.1413.146.0859.286.1848.4159.2922l.2059.1114c.2444.1182.4765.1818.7491.1809.0324-.001.179-.0327.3112-.0823.163-.1427.3194-.3046.3378-.5312.0111-.1388-.0144-.2642-.0544-.3876z" class="B"/><path d="M29.4301 30.5772c-.0023-.001-.0039-.0026-.0062-.0046s.0026-.0019.0046-.0022l-1.3968-1.3256c-.3827-.3559-.7048-.7372-1.2912-.5622-.2535.077-.5601.1949-.8221.3395-.0433.0418-.083.0849-.1161.1293-.0899.1179-.5356.5808-.3998.7209l.1702.159c-.0003-.0013 0-.0036.0003-.0036l.0256-.1978c.0082-.0565.0236-.1055.0443-.1519.2518-.3144.6746-.4029.9678-.6722-.0656.2024-.4329.3186-.5848.4156-.1459.094-.3076.2658-.3532.4375-.0334.126-.0547.2658-.0505.3948 0 .0499.0039.109.0154.1665.0043.0444.0105.0884.0223.1319.0361.1312.1453.237.2257.3428.0114.016.0364.0006.0334-.0167-.0308-.1684-.0203-.3382-.0059-.5073.0144-.0513.04-.096.0817-.1319l.4139-.3589c.0878-.0764.1908-.1528.263-.2471.0315-.0503.0587-.1038.0816-.161.003-.0108.0059-.0202.0066-.031.002-.0029.0059-.0026.0062-.0003.0161.0669.0233.1332-.0262.1929-.0154.0196-.0328.0373-.0495.0552-.1309.2269-.4129.4186-.5779.5714-.1095.1012-.1449.2302-.139.3621l.0108.0976c.02.1103.0616.2197.1082.317.0325.0702.102.1489.1764.1773s.1739.0744.2647.0944c-.1207-.0755-.2204-.1777-.2801-.3223-.0488-.1214.0168-.2112.0997-.2919l.2312-.2406c.1338-.1299.3188-.2001.3378-.4169.0007-.0033.0056-.0013.0069.0016.0253.2925-.3565.4852-.5254.6863-.203.2409-.0082.4417.2257.5648.2509.114.5326.1832.7946.0647.0807-.0382.0902-.0797.0656-.1212-.0056-.0163-.0164-.0326-.0325-.0496-.1043-.1116-.2604-.143-.4043-.175l-.0584-.0333c-.004-.0039-.0069-.0072-.0092-.0101s-.0023.0042-.0049.0075-.0125.0046-.0154.0118c-.0076.0179-.0181.0316-.0296.046l-.0177.0137c-.0049.0075-.0114.0144-.0173.0215-.0276.0219-.0591.0373-.0925.048.0567-.0463.08-.1168.1085-.1864l.0174-.0441c.0056-.0055.0102-.0127.0157-.0182s.0053-.017.001-.0239l.065-.1593c.0167-.017.0341-.0333.0538-.046h0l.0327-.018c.085-.0353.1673-.0258.245.0137-.0092.0036-.0196.0033-.0331.0049-.0505.0049-.0859.0144-.1141.03.3204.2335.6464.4797 1.0002.6387.1912.0858.409.156.6222.1175.1731-.033.3181-.1117.4742-.173.0885-.1029.1571-.2181.1686-.3621.0088-.1097-.0089-.2109-.0348-.3102z" class="B"/><path d="M25.6429 29.678c-.0207.0467-.0358.0956-.0443.1521l-.0256.1975c-.0003.0004-.0006.0027-.0003.004l-.1702-.1594c-.1233-.1253.2332-.5194.3656-.6797.0043.0026.0086.0032.0122.0065.0862.0313.1928-.0098.2728-.0402.0991-.0382.1926-.0862.2867-.1328.1118-.0539.2282-.1081.3201-.1891-.0181.0758-.0483.1473-.0958.2083-.2886.239-.6818.3343-.9212.6328z" class="B"/><path d="M25.9752 30.6225c-.0059-.1322.0295-.2612.1391-.3624l.2292-.1949-.0174.0297c-.0423.0882-.0833.2468.0305.304.0404.0212.0932-.001.1312-.02l.2211-.1103c.0685-.0385.1548-.0842.1928-.1561.0062-.0124.0105-.0248.0164-.0378-.0357.1874-.2056.2566-.3319.379l-.2312.2406c-.083.0807-.1486.1705-.0997.2919.0594.1447.1594.2469.2801.3223-.0909-.0199-.186-.064-.2647-.094s-.144-.1075-.1764-.1773c-.0469-.0977-.0882-.207-.1082-.3174l-.0109-.0973z" class="B"/><path d="M28.2295 30.7964c-.1443-.1045-.2785-.2256-.4074-.3383l-.1361-.1247c-.1338-.0647-.2794-.0934-.4325-.066-.185.0347-.3329.1656-.4326.319-.0649.1006-.1243.2191-.2289.2864-.0935.0597-.1771-.0137-.2299-.0879-.1263.2142.0541.3925.2686.5048.2505.1139.5323.1832.7943.0646.081-.0382.0902-.0796.0656-.1211-.0056-.0163-.0164-.0326-.0322-.0496-.1046-.1117-.2607-.143-.4047-.175l-.0583-.0333c-.004-.0039-.0069-.0072-.0092-.0101s-.0023.0042-.0049.0075-.0125.0045-.0154.0117c-.0076.018-.0181.0317-.0296.0461l-.0177.0137c-.0049.0075-.0115.0143-.0174.0215-.0275.0219-.0587.0372-.0924.048.0567-.0463.08-.1169.1088-.1864l.0171-.0441c.0056-.0055.0102-.0127.0157-.0183s.0053-.0169.0014-.0238l.0646-.1593c.0167-.017.0341-.0333.0537-.0461h0l.0328-.0179c.085-.0353.1673-.0258.245.0137-.0092.0036-.0193.0032-.0331.0049-.0505.0049-.0859.0143-.1141.03.3204.2335.6464.4796 1.0002.6386.1912.0859.409.1561.6222.1176.1731-.033.3181-.1117.4742-.1731.0026-.0029.0039-.0068.0062-.0098-.1243.0154-.2568.0023-.3899-.046-.263-.095-.4828-.2341-.6841-.3973z" class="B"/><path d="M25.6393 30.4204c-.0115-.0578-.0154-.1165-.0157-.1668-.0043-.129.0174-.2684.0505-.3948.019-.0702.0587-.1417.1082-.2083-.0039.0346.0095.0683.0512.0934.0997.0614.2122.0317.3125-.0153.2243-.1055.4897-.2273.611-.4552.0105.0582.0072.1156.0023.1754-.0026.0039-.0036.0078-.0023.0127s-.0013.0072-.002.0104c-.0229.0575-.0505.1111-.082.1613-.0718.0941-.1751.1705-.263.2469l-.4135.3591c-.0417.0356-.0676.0807-.082.1316-.0141.1691-.0246.3389.0062.5077.0026.0173-.022.0323-.0338.0163-.08-.1054-.1895-.2116-.2253-.3428-.0121-.0434-.0183-.0875-.0223-.1316z" class="B"/><path d="M28.1751 29.5329l.467.4699c.1407.1489.3054.2941.4205.4636.0085.0127-.0125.015-.0197.0085l-.8822-.8541c-.2729-.2867-.567-.5721-.874-.8186-.0043-.0035.0013-.0058.0049-.0039.328.1953.6215.4584.8835.7346z" class="B"/><path d="M37.5798 31.045l-.2538.2269c-.0062.0049-.0121.0115-.0184.0167l.4165-.5094c.3526-.4567.6379-.9657.5464-1.5635-.041-.2632-.0885-.5234-.2545-.7399-.0685-.0898-.1374-.1237-.2433-.1518-.0082-.001-.0171-.0036-.0263-.0069.0505.0373.0955.0791.1335.1248.1551.1906.0732.3898.0676.6115.0003.0088-.0089.0186-.0184.0189-.3565.034-.711.0131-1.0652.0738-.3657.062-.7235.1554-1.0767.2658-.0157.0059-.037-.0095-.0285-.0278.1479-.3072.3781-.6363.6723-.8214l.1059-.0601c-.0675.0268-.1347.0575-.201.0924-.2358.1231-.4437.304-.6293.493l-.7366.7457c-.2289.2259-.426.4783-.6399.7186-.0334.0372-.1633.1505-.1689.2034-.0128.1355.0912.2674.1545.385.2627.4809.7359.8789 1.2492 1.0764l.3319.1136c.1272.0334.2332.1124.3574.1473.1988.0548.205-.0209.3054-.1907.1528-.2595.3401-.5044.5349-.7421.0665-.0212.0515-.032.122-.0934l.3276-.3072.647-.5655c.0096-.0088-.0131-.0078-.0183-.0039l-.593.4698z" class="B"/><path d="M35.63 32.1805c-.4434-.1613-.8353-.4959-1.1183-.8649-.1164-.1525-.3641-.4966-.1942-.6644.1817-.1786.3424-.3889.5087-.5818.1745-.2024.3824-.3807.5739-.5691l.5592-.5681c.2371-.2171.5175-.3875.8261-.4822.1515-.0474.3588-.1045.5523-.1225.0026.003.0078.0043.0173.003.1109-.0098.2076.0029.3142.0267.2132.0471.2794.1457.3732.3167.1093.2021.1371.4741.1584.6987.0509.5313-.2469 1.005-.5558 1.405l-.8658 1.0996-.2499.3376-.0886.145c-.0748.1263-.0482.1146-.1899.0535l-.6208-.2328z" class="B"/><path d="M36.5294 32.2145l.2496-.3373.8661-1.0996c.309-.4003.6064-.8737.5559-1.4052-.0213-.2247-.0492-.4963-.1584-.6984-.0938-.1711-.1603-.27-.3735-.3167-.1063-.0239-.2033-.0369-.3142-.0271-.0092.0016-.0148 0-.017-.003-.1939.018-.4008.0751-.5527.1225-.3082.095-.589.2651-.8257.4822-.1361.1225-.2595.256-.3857.3889l.5264-.3987c.1971-.1309.4083-.2475.6345-.3213.2099-.0679.489-.1413.7104-.0897.0489.0111.0862.0316.1128.0568.0374.0261.0699.063.0922.1142.0823.1914.0416.449-.0066.6459-.0521.2171-.144.4228-.2604.6128-.1374.222-.3011.4218-.4529.6318l-.3302.4786c-.1909.2628-.4821.6791-.859.6341-.4017-.0487-.768-.3086-1.0511-.5799-.1344-.129-.2712-.2756-.3843-.4375-.1407.1734.0921.4992.2063.6478.2827.3686.6749.7036 1.1183.8648l.6205.2328c.1417.0611.1151.0725.1899-.0535.0272-.0503.057-.098.0888-.1453z" class="B"/><path d="M36.5294 32.2145l.2496-.3373.8661-1.0996c.3089-.4003.6064-.8737.5559-1.4052-.0213-.2247-.0492-.4963-.1584-.6984-.0938-.1711-.1604-.27-.3736-.3167-.0098-.003-.0213-.0043-.0324-.0062.1144.0561.2099.1472.2712.2582.2358.4274.079.9537-.1233 1.3605-.4372.8858-1.1603 1.5744-1.7493 2.3577l.2154.0858c.1417.0611.1151.0725.1899-.0535.0272-.0503.0571-.098.0889-.1453z" class="B"/><path d="M36.5166 32.3249c.0508.0464-.0758.2648-.1375.2798s-.6739-.0206-1.3144-.4852-1.0888-1.0268-1.1101-1.1381.1666-.3856.2577-.3579.4887.5854 1.0134.9903c.6858.5273 1.241.6641 1.2909.7111z" class="B"/><path d="M34.1996 30.663c-.0042-.0013-.0229.0026-.057.0323-.0794.0728-.1588.2204-.148.2792.0092.0476.1653.2804.4864.5955.1922.1903.3958.364.6074.5165.627.4552 1.2308.4878 1.2797.4783.0134-.0058.0593-.0542.0931-.1263.0256-.0536.0249-.0807.023-.0862s-.0571-.0242-.1063-.0434c-.2132-.0843-.6569-.2603-1.1783-.6618-.1279-.0983-.2555-.2103-.3913-.3452l-.3903-.4146-.1639-.1792c-.0401-.0386-.0528-.0435-.0545-.0451zm-.2873.3262c-.019-.1042.0912-.2798.1742-.3553.0505-.045.0964-.0623.1364-.0509.023.0069.0489.0255.0895.0653l.1689.1835.3857.4117c.1338.1313.2594.2423.3831.3373.5125.3934.9494.5674 1.158.651.0879.0336.1193.0474.1367.0627.0249.0261.0299.0653.0158.1169-.0227.0823-.1037.2168-.1732.2338-.0594.015-.6795-.0069-1.3482-.4904-.2142-.1561-.4214-.3321-.6172-.5244-.267-.2651-.4916-.5462-.5097-.6412z" class="B"/><path d="M36.2978 32.2305c.0095.0314.0105.062-.002.0895-.0941.2357-.728-.1234-.9123-.2315-.3726-.2175-.9996-.6553-1.1371-.9994-.0528-.1332-.0495-.2583.0719-.3252.0118-.0059.0239-.0105.0344-.0137-.0662-.0728-.1144-.1189-.1404-.1264-.0911-.028-.2774.2465-.2577.3579s.4699.6742 1.1101 1.1378 1.2528.5002 1.3144.4852.1883-.2335.1375-.2798c-.0161-.0154-.0952-.0435-.2188-.0944z" class="B"/><path d="M34.9512 30.2086l.0738-.0307c.6428-.6765 1.3065-1.2084 2.1782-1.5652.024-.0102-.0046-.0186-.018-.016-.9324.2546-1.6772.8178-2.234 1.6119z" class="B"/><path d="M24.4082 19.3497c.8993 1.1173 7.2554 4.4488 17.0333 4.298 1.2525-.0852 2.5148-.2824 1.7248-1.2257s-8.5059-6.7251-18.9588-4.4162c0 0-.6979.226.2007 1.3439z" class="B"/><path d="M24.2149 18.0435c-.0029.0013-.1564.0549-.2098.2341-.0499.1695-.0155.4891.4332 1.0471.6388.7943 4.9239 3.343 12.3682 4.0913l.0006-.0003c1.5119.1524 3.0703.2161 4.633.1926.8504-.0581 1.7438-.1681 1.9061-.5469.0686-.1593-.0023-.3657-.2115-.6144-.7346-.878-5.3555-4.1847-11.7782-4.8299-2.3757-.2383-4.779-.095-7.1416.4264zm12.584 5.4502c-7.4695-.7503-11.7778-3.3188-12.4222-4.1197-.3782-.4708-.5284-.8476-.447-1.1206.0662-.219.2567-.2824.2643-.285 2.3747-.525 4.7858-.6686 7.1704-.4297 6.4473.6478 11.0918 3.9745 11.8313 4.8583.2286.273.3037.5071.223.6958-.179.4156-1.055.5312-1.9753.5939-1.5669.0238-3.129-.0412-4.6438-.193z" class="B"/><path d="M43.165 23.3043c.2942-.1799.3601-.4535.001-.8822-.79-.9439-8.5062-6.7255-18.9588-4.4162 0 0-.3669.1195-.2256.6122.4982-.2612 1.3158-.6265 1.9625-.6076.6657.0317-.3548.3879-.8533.2684-.1211.5629.6001.8881.4535 1.9364 2.3764 1.4196 8.0284 3.5533 15.897 3.4322l.2378-.018c.2125-.5583.3702-1.2968.7349-1.2276.2483.0467.5398.5038.751.9024z" class="B"/><path d="M38.6473 21.9837c-.2053.8485-.5123 1.0154-.5123 1.0154.242-1.7402-.7923-2.1075-1.6027-2.2022s-1.7674-.3223-2.3793-.9367c.163.4766.5831.7698.5831.7698-1.6132-.1358-2.5617-1.3507-2.5617-1.3507s.4821 1.2472.9862 1.4954c-2.0199.35-3.1628-1.0833-3.2734-1.7491-.8451 1.0184-.6185 2.5754-.6185 2.5754s-.7412-.5606-.9117-1.1953c-.0279.6426.3326 1.5385.3276 1.9809 0 0 .0309.477-.1633 1.0964-.8369 2.3194 3.5731 4.44 5.9734 3.708 1.8237-.557 2.7378-1.4569 2.7378-1.4569.8664-.9559 1.3511-2.4222 1.3511-2.4222.346.2902.9849.0391 1.1574-.8871.1515-1.1068-.8891-1.2897-1.0937-.4411z" class="B"/><path d="M28.5807 21.5934c.0738.3063.1446.5945.1423.7934.0004.017.0286.4881-.1663 1.1078-.1911.5299-.1157 1.0693.2227 1.6037.6907 1.0895 2.4203 2.0034 4.1139 2.1735.5903.0598 1.1396.0183 1.588-.1188 1.7922-.5469 2.7112-1.4379 2.721-1.4464.8514-.9374 1.3374-2.3926 1.3423-2.4066s.0145-.0222.0269-.0255.0259-.001.0361.0075c.3142.2632.9225.0467 1.0931-.8649.0419-.3062-.0099-.5697-.1447-.7404-.0836-.1058-.1961-.1711-.3174-.1829-.2112-.0215-.4644.1247-.5549.4996-.2066.8557-.5188 1.033-.5323 1.0405s-.0289.0065-.0423-.0023-.0174-.0228-.0161-.0379c.0945-.6729.0007-1.1956-.2771-1.5538-.2614-.3356-.6831-.5331-1.2905-.6036-1.0153-.1186-1.7591-.3879-2.2658-.8228.1826.3617.4942.5821.4975.5844.0144.0101.0206.0287.0147.0454s-.0229.0274-.041.0261l-.0564-.0052c-1.2068-.1211-2.0438-.846-2.3747-1.1855.161.3647.5175 1.084.877 1.2609.0147.0075.0236.0238.0213.0408s-.0158.0301-.0325.033c-.324.0565-.6425.0699-.9461.0389-1.3981-.1404-2.2023-1.1699-2.3548-1.737-.7638.9932-.5608 2.4654-.5575 2.4797s-.0056.0317-.0197.0405-.0318.0065-.0439-.0032c-.0269-.02-.5916-.4516-.8438-.9919.0239.3049.1062.6454.181.953zm.1322 3.547c-.3523-.5567-.4306-1.1186-.2309-1.671.1895-.6024.162-1.0755.1617-1.0807.0016-.1916-.0666-.4754-.1401-.7764-.0947-.3944-.2036-.8414-.1876-1.2084.001-.0189.0155-.0346.0351-.0372s.0371.0101.042.0294c.1341.4969.6349.955.8248 1.114-.0324-.3581-.0882-1.6351.6369-2.5091.0098-.0121.0259-.0173.0407-.0134s.0265.0167.0288.032c.0876.5231.876 1.6113 2.3033 1.7543.2636.0271.5388.0192.8192-.0213-.4746-.3402-.8924-1.4101-.9107-1.4591-.0079-.0179.0003-.0378.017-.048s.0387-.0055.0505.0102.9045 1.1362 2.4016 1.321c-.1384-.1205-.3765-.3654-.4912-.7036-.0066-.0177.0003-.0369.0157-.0457s.0361-.0079.0489.0052c.4939.4953 1.2649.7979 2.3563.9253.63.0734 1.0685.2811 1.343.634s.3804.8652.3057 1.512c.1006-.1028.2853-.3591.4237-.9292.1013-.4208.3945-.5834.6392-.5589.143.0137.2745.0894.3715.2122.1486.1877.2057.4724.1601.8015-.1414.7611-.5838 1.0683-.9347 1.0331-.0866-.0089-.1695-.0382-.242-.0866-.0951.2701-.571 1.5349-1.342 2.3848-.0105.0107-.9429.9145-2.7548 1.4672-.4648.1424-1.0098.1829-1.6192.1221-1.7161-.172-3.4704-1.1016-4.1725-2.2097z" class="B"/><path d="M28.5908 24.6321c.1365.1195.33.1652.4667.284.0899.078.2532.3947.3873.3814.2237-.0229.1515-.3915.0981-.5146-.1499-.3454-.5861-.5426-.9491-.4241-.1263.0415-.1433.1495-.003.2733z" class="B"/><path d="M39.3363 22.1312c-.0246-.0183-.0524-.0316-.0797-.0427s-.0551-.016-.0816-.0105c-.0128.0007-.0256.003-.0377.0098l-.0174.0078-.0154.0128c-.0108.0085-.0217.0156-.0305.0277l-.0272.0327c-.0138.0261-.0315.0483-.0437.0767l-.036.0829-.0305.0869.0009-.0039-.0223.1495-.0009.0748c-.003.0254-.0023.0502.0023.0734s.0036.051.0137.0719l.0122.0339c.0029.0124.0114.0209.0177.031s.0128.0216.021.0297l.0285.0242c.0098.0078.0216.0111.0334.0176s.0237.0066.0371.0102c-.0128-.0004-.0269.0032-.0403 0s-.0273-.0056-.0391-.0108l-.038-.0199c-.0108-.0075-.0203-.0186-.0308-.0284s-.0207-.02-.0259-.0327l-.02-.0369c-.0079-.0124-.0138-.0258-.0164-.0388l-.0099-.0402c-.0088-.0268-.0115-.0539-.0128-.081l-.0032-.0816.0177-.1603.0006-.0033.0003-.0009.0319-.0921c.0098-.0301.0272-.0598.0409-.0891s.0365-.0578.0542-.0859c.0108-.0134.0242-.0258.0357-.0382s.0276-.0239.0426-.0323l.0233-.0144.0269-.0088c.0171-.0075.0358-.0095.0541-.0088s.0364.0045.0541.0078.0325.0137.0483.0202c.0583.0366.1029.0849.1341.1411-.023-.0225-.0469-.0428-.0722-.0611z" class="B"/><path d="M39.2287 22.5547c-.0416-.0114-.0901-.0065-.138.0173-.0246.0108-.0479.0255-.0702.0405s-.0436.0314-.0633.0431l-.0472.0327-.0194.0117s.002-.0081.0072-.0212.0125-.033.0259-.0536.0286-.0453.0525-.0666c.0112-.0101.0213-.0225.0368-.0313s.0278-.0199.0446-.0268.0334-.013.0514-.0163.0374-.0029.0535-.0033c.0354.0036.0662.0173.0876.0337.041.0342.0492.0682.0492.0682s-.0292-.0183-.0706-.0281z" class="B"/><path d="M39.1673 22.0243c-.2787.0046-.4217.5978-.2745.9243s.573.1238.5667-.5008c0 0-.0131-.4284-.2922-.4235z" class="B"/><path d="M27.3783 17.6524c-1.4063 1.3772-2.0619.7614-2.0619.7614.0171.6138.673.9958 1.0229.8727-.5169.7977-.0128 1.6978-.0128 1.6978s.0095-.0979.0649-.2501c-.0068.6507.508 1.0579.508 1.0579s-.1334-.4477.1319-.9146c.445 1.4862 1.6529 1.5094 1.6529 1.5094.0049-.4424-.3552-1.3386-.3273-1.9808.1702.6347.9114 1.195.9114 1.195s-.2266-1.5571.6185-2.5754c.1108.666 1.2538 2.099 3.2736 1.7493-.504-.2484-.9864-1.4957-.9864-1.4957s.9484 1.2149 2.5619 1.3508c0 0-.4201-.2929-.5834-.7699.6123.6144 1.5686.843 2.3796.9367s1.8445.462 1.6024 2.2022c0 0 .307-.1668.5123-1.0151s1.2456-.6657 1.0941.4408c-.1725.9266-.8117 1.1773-1.1577.8874 0 0-.4844 1.466-1.3512 2.422 0 0 1.6601.3836 3.3579-1.4559 2.9818-3.2682-.284-8.752-5.1393-9.5294-4.066-.651-5.9134.7891-8.0723 2.9035z" class="B"/><path d="M37.3829 25.7167c1.5505.1558 2.825-1.0823 3.1782-1.465 1.1432-1.2534 1.4338-2.9045.8199-4.6493-.8619-2.4493-3.2474-4.3841-5.9364-4.8148l-.7785-.1015c-3.5387-.3559-5.2407 1.0164-7.26 2.9943-1.1744 1.1502-1.8359.9315-2.0431.8123.057.4548.4827.7451.7779.7744.0695.0075.1318.0013.1856-.0179.0161-.0056.0338-.0003.0436.013s.0125.0314.003.0454c-.3978.6122-.1725 1.2959-.062 1.5522l.0433-.1394c.0062-.0183.0246-.0291.0439-.0248s.0328.0195.0325.0385c-.0043.4613.264.7992.4063.9458-.0232-.1688-.0295-.4894.1601-.8221.0075-.0137.0252-.0205.039-.0199s.0292.0131.0331.0274c.0686.2276.4634 1.3671 1.5699 1.4781l.005.001c-.0066-.1881-.0712-.4532-.1391-.732-.0944-.3945-.2033-.8417-.1876-1.2084.001-.0193.0158-.0349.0351-.0372s.0374.0098.0423.0294c.1338.4966.6343.9543.8245 1.114-.0325-.3585-.0882-1.6351.6369-2.5095.0102-.0117.0259-.017.0407-.013s.0265.0166.0291.032c.0873.5227.8757 1.6109 2.3033 1.7542.2633.0268.5388.0193.8195-.0215-.4752-.3399-.893-1.4102-.9114-1.4591-.0078-.018.0004-.0379.0174-.048s.0384-.0053.0502.0101.9048 1.1365 2.402 1.3213c-.1384-.1208-.3769-.3657-.4917-.7036-.0065-.0176.0007-.0369.0158-.046s.0361-.0079.0489.0055c.4942.495 1.2649.798 2.3563.9253.63.0735 1.0688.2811 1.3433.6337s.3801.8656.3057 1.512c.1003-.1025.285-.3591.4234-.9292.1013-.4205.3945-.5831.6395-.5589.1426.014.2741.0898.3719.2122.1479.1881.2049.4724.1597.8019-.1417.761-.5841 1.0679-.935 1.033-.0866-.0091-.1696-.0382-.242-.0865-.0935.2638-.5507 1.4826-1.2951 2.3315l.0751.0091zm-.0079.0784l-.1528-.0225c-.0132-.0033-.024-.0131-.0286-.0268s-.0003-.0277.0086-.0382c.853-.9387 1.339-2.3939 1.3439-2.4079s.0144-.0222.0269-.0251.0262-.001.0364.0071c.3139.2642.9226.0467 1.0931-.8648.0416-.3063-.0102-.5694-.145-.7405-.0836-.1055-.1961-.1708-.3174-.1829-.2109-.0212-.4644.1251-.5549.4996-.2066.8557-.5185 1.033-.5323 1.0408s-.0289.0062-.042-.0022-.0177-.0232-.0164-.0382c.0948-.673.0007-1.1954-.2771-1.5535-.2614-.3357-.6831-.5332-1.2902-.604-1.0157-.1186-1.7595-.3879-2.2668-.8221.1837.3611.4952.5818.4982.5841.0144.0097.021.0284.0147.0453s-.0229.0275-.041.0262l-.0561-.0056c-1.2072-.1211-2.0448-.8456-2.375-1.1852.1613.3647.5175 1.0837.8769 1.2606.0151.0075.0237.0242.0217.0412s-.0158.03-.0325.0326c-.3243.0568-.6424.0702-.9461.0392-.8124-.0816-1.3702-.4529-1.6959-.7496s-.5785-.6778-.6598-.9874c-.7287.9488-.5762 2.3319-.5589 2.4696.003.0059.0043.0131.0036.0203-.0023.0215-.02.0408-.0442.0349-.0079.001-.0148-.0036-.021-.0078-.0269-.0203-.5917-.4519-.8438-.9922.0239.3049.1065.6455.1813.953s.1443.5949.142.7937c-.0003.0105-.0049.0209-.0124.0281s-.0181.0104-.0276.0108c0 0-.0193.0003-.0528-.0036-.1987-.0196-1.1879-.1825-1.6089-1.4421-.1788.3793-.1037.7293-.0876.7914.0043.0072.0069.0156.0059.0251-.0026.0219-.023.0392-.0453.0346-.0072-.0003-.0147-.0029-.0213-.0078-.019-.015-.4148-.3347-.5047-.8636l-.0043.0281c-.0016.0176-.0147.0317-.0311.0346s-.0345-.0046-.0423-.0193c-.0053-.0094-.4772-.8704-.0335-1.6576-.04.0049-.0823.0046-.1259.0003-.3486-.0355-.8399-.3784-.8553-.9311-.0007-.0157.0085-.0304.0233-.0369s.0318-.0039.0429.0065c.0013.0013.1105.1006.3316.1231.3204.0317.871-.0953 1.6755-.8832 1.9684-1.9283 3.758-3.375 7.3236-3.0168l.7828.1029c2.7165.4342 5.1266 2.3902 5.9983 4.866.6244 1.7742.3276 3.4524-.8363 4.7277-.3597.3905-1.6575 1.6508-3.2441 1.4911z" class="B"/><path d="M27.3777 17.6524l-.308.2798c3.1244-.3346 9.8859 1.1552 11.9127 2.2189 3.4602 2.0004 1.1865 3.8974 1.5132 3.2738s-.0063-2.0204-.2211-1.2025-.692 1.3735-.4155.4567c.2804-1.2044-.5903-1.8443-1.1738-1.4245.1375-.5641-.0682-.904-.0682-.904s.0072.5194-.364 1.4186c-.264-1.7402-1.6158-2.2352-1.6158-2.2352s.406.3399.8257 1.1395c-.202-.1796-.5899-.2984-1.4849-.3683-1.3653-.1567-2.484-1.5656-2.484-1.5656s-.2053.6377.3795 1.3942c-1.3676-.5358-2.0228-1.7778-2.0228-1.7778s-.6333 1.1124.341 1.9678c-1.5378-.2344-2.235-1.622-2.0123-1.9952-.671.3539-1.3066 1.4098-1.2862 2.3867-.5835-.7696-.3211-1.5336-.3211-1.5336s-.9403.8414-.3516 2.5699c-.9055-.7702-1.0763-1.8235-.6326-2.4354-.5224.2472-.7864.9113-.8799 1.4892-.184-.9165.3784-1.6775.3784-1.6775s-.5768.4371-.7713 1.1081c-.0049-.8636.9019-1.6514.9019-1.6514-.9183.6383-1.5175.3891-1.8654.0519.1446.4803.6821.7574.9871.65-.5168.7977-.0128 1.6978-.0128 1.6978s.0095-.0979.065-.2501c-.0069.6507.508 1.0579.508 1.0579s-.1335-.4477.1318-.9146c.445 1.4862 1.6529 1.5094 1.6529 1.5094.0049-.4424-.3552-1.3386-.3273-1.9808.1702.6347.9114 1.195.9114 1.195s-.2266-1.5571.6185-2.5754c.1108.666 1.2538 2.099 3.2736 1.7493-.504-.2484-.9864-1.4957-.9864-1.4957s.9484 1.2149 2.5619 1.3508c0 0-.4201-.2929-.5834-.7699.6123.6144 1.5686.843 2.3797.9367s1.8444.462 1.6023 2.2022c0 0 .307-.1668.5123-1.0151s1.2456-.6657 1.0941.4408c-.1725.9266-.8117 1.1773-1.1577.8874 0 0-.4844 1.466-1.3512 2.422 0 0 1.6601.3836 3.3579-1.4559 2.9818-3.2682-.284-8.752-5.1393-9.5294-4.066-.651-5.9134.7891-8.0723 2.9035z" class="B"/><path d="M41.7412 18.4099c-.0479-2.165-1.585-5.141-5.6661-6.048-3.6557-.8117-6.1577 1.3171-7.4032 2.6322.2033-.0212 2.8939-.2795 6.3193.558 3.0376.7431 5.7134 2.0526 6.75 2.8578z" class="B"/><path d="M35.001 15.5145c2.8621.6997 5.5563 1.9586 6.6985 2.8137-.0911-2.3615-1.8569-5.089-5.6326-5.9278-.2955-.0656-.5939-.114-.8852-.143-2.3117-.2322-4.467.6726-6.4082 2.6874.3706-.0311 1.5853-.1068 3.2625.062h0c1.0016.0999 1.9989.271 2.965.5077zm6.7166 2.9264c-1.0944-.8508-3.8269-2.1392-6.7356-2.8503-.9615-.2357-1.9559-.4055-2.9542-.5064-1.9051-.1903-3.209-.0659-3.351-.0513-.0168.002-.0322-.0062-.0401-.0218s-.0042-.032.0069-.0444c1.9776-2.087 4.1802-3.025 6.5457-2.7873.2952.0294.5962.078.895.1449 1.8444.4088 3.355 1.2966 4.3683 2.5653.814 1.0213 1.2984 2.2992 1.3283 3.5082.0016.0046.0026.0108.0013.017-.0017.0212-.0217.0372-.043.0353l-.0013-.001c-.0075-.0004-.0148-.0033-.0203-.0082z" class="B"/><path d="M24.0586 18.1877s3.0615-1.352 9.4497.1656 8.8738 3.0514 9.9406 4.6307c0 0-.6916-2.0299-1.8027-3.5722-5.8665-4.1733-13.7568-3.5517-13.7568-3.5517-2.0674.5561-3.8026 2.0658-3.8308 2.3276z" class="B"/><path d="M33.5175 18.3152c5.3896 1.2809 8.4373 2.6505 9.7976 4.4149-.2269-.6001-.8399-2.0984-1.6971-3.2901-3.2999-2.3455-7.2475-3.1651-9.9791-3.4396-2.19-.2198-3.7304-.1022-3.7459-.1012-1.9178.5168-3.4933 1.8394-3.757 2.2162.4326-.1587 2.3577-.7617 5.8055-.4156 1.135.1139 2.3383.3212 3.576.6154zm9.8993 4.6905c-1.2564-1.8594-4.3146-3.2829-9.9184-4.6144-1.2334-.2929-2.4331-.4995-3.5648-.6135-3.904-.3914-5.8403.4372-5.859.4457-.0127.0059-.0278.0042-.039-.0043s-.0177-.0222-.0157-.0359c.0305-.2762 1.7736-1.8003 3.8597-2.3612.0223-.0023 1.5699-.1198 3.7672.1009 2.742.2749 6.7073 1.0983 10.0223 3.4566.0036.0029.0069.0056.0092.0088 1.1026 1.5293 1.8018 3.5624 1.809 3.5827s-.0026.0388-.0207.048c-.0059.0029-.0141.0042-.0213.0035s-.0216-.0068-.0285-.0169z" class="B"/><path d="M41.7425 18.4103c-1.0364-.8055-3.7122-2.1151-6.75-2.8582-3.4252-.8374-6.1157-.5792-6.319-.558l-.7829.8662s7.89-.6216 13.7568 3.5517c.0698-.3027.1026-.6406.0951-1.0017z" class="B"/><path d="M41.6201 19.3451c.0604-.2828.0879-.5906.0817-.9155-1.1046-.8512-3.825-2.1314-6.7201-2.8392-.9616-.2354-1.9563-.4055-2.9543-.5061-1.8529-.1861-3.1359-.0731-3.3372-.0525l-.5153.571-.1882.2116c.3778-.0216 1.7811-.0804 3.6596.1087 2.729.2739 6.6684 1.0902 9.9738 3.422zm.0023.0989c-3.3002-2.3491-7.2514-3.1686-9.9839-3.4435-2.1895-.2191-3.7305-.1022-3.746-.1012s-.0321-.0076-.0396-.0226-.003-.0323.0085-.044c.0613-.0624.1466-.1591.2542-.2821l.5276-.5838c.0066-.0062.0151-.0105.0246-.0114.143-.0154 1.4542-.1408 3.3678.0512 1.0013.0999 1.9989.271 2.965.508 2.9182.7131 5.6638 2.008 6.7645 2.8644.0095.0075.015.0186.0154.0307.0078.3598-.0246.7006-.0961 1.0108-.003.0127-.0122.0229-.0246.0281-.0063.0023-.0122.0029-.0177.0026s-.0138-.0036-.0197-.0072z" class="B"/><path d="M32.7789 12.3997c1.0471-.1522 4.6159-.462 5.3227 2.2717.382 1.6508-2.6637-.2008-9.0572-.0542l-.3725.3771c.2033-.0215 2.8939-.2798 6.3193.5577 3.0376.7431 5.7134 2.0527 6.7497 2.8581-.0476-2.1653-1.585-5.1413-5.6658-6.0483-1.2314-.2723-2.3304-.2119-3.2962.0379z" class="B"/><path d="M27.8894 15.8603c-.6382.1717-1.2455.4345-1.7798.7235.9134-.3569 3.1474-.8959 7.4217-.1678 2.9932.5243 4.0243 1.7444 4.0108 2.1901-.0121.4261-6.5407-2.3942-13.089-.8828-.2453.2203-.3866.3911-.3945.4642 0 0 3.0615-1.3517 9.4497.1659s8.8738 3.0514 9.9406 4.6307c0 0-.6916-2.0302-1.8027-3.5722-5.8668-4.1733-13.7568-3.5516-13.7568-3.5516z" class="B"/><path d="M40.3308 17.542c.6038.3167 1.0869.6171 1.4102.8681-.0298-1.3216-.6149-2.9443-1.993-4.215.4615.7999.8718 1.9635.5828 3.3469z" class="B"/><path d="M41.6457 19.4118c-.5067-.3601-1.0278-.6836-1.5578-.9755.1515.144.973.9932 1.279 2.6959 1.017.6115 1.6601 1.2282 2.0815 1.8518 0 0-.6916-2.0301-1.8027-3.5722z" class="B"/><path d="M35.1218 12.5764c-1.723-.5956-4.8629.7209-5.405 1.8783 0 0 2.7814-1.9727 5.405-1.8783z" class="B"/><path d="M32.5813 16.5629c-1.5493-.6347-5.3723-.6229-6.6516.545 0 0 1.9205-1.0758 6.6516-.545z" class="B"/><path d="M34.9925 15.5524c-3.4252-.8378-6.1157-.5796-6.319-.558l-.0509.0539c1.4358.0068 6.2312.1253 8.0733 1.3794 1.076.7042-3.3094-1.0585-8.5803-.8153l-.225.2478s7.89-.6216 13.7568 3.5517c.0698-.3024.1026-.6406.0951-1.0017-1.0364-.8055-3.7122-2.1151-6.75-2.8578z" class="B"/><path d="M32.8255 15.597c.9353.0934-1.8723-.7258-3.8958-.2292 0 0 2.2475-.0441 3.8958.2292z" class="B"/><path d="M28.8259 20.1948c-.4493-.783-.0839-2.037.8583-1.942 0 0-.7835.4218-.8583 1.942z" class="B"/><path d="M27.8671 20.7832c-.7851-.8688-.1551-2.1222.7195-2.1401 0 0-.8546.8622-.7195 2.1401z" class="B"/><path d="M31.833 20.0227c-1.0868-.2406-1.989-1.78-.9566-1.782 0 0-.2866.735.9566 1.782z" class="B"/><path d="M36.8519 20.1047c.4346.1493-.7966.289-1.9172-.4029s-.8212-1.0314-.5542-.7933c0 0 .9733.8355 2.4714 1.1962z" class="B"/></g><defs><filter id="B" x="0" y="1.55725" width="47.4883" height="54.442902" filterUnits="userSpaceOnUse" color-interpolation-filters="sRGB"><feFlood flood-opacity="0" result="A"/><feColorMatrix in="SourceAlpha" values="0 0 0 0 0 0 0 0 0 0 0 0 0 0 0 0 0 0 127 0"/><feOffset/><feGaussianBlur stdDeviation="2"/><feColorMatrix values="0 0 0 0 1 0 0 0 0 1 0 0 0 0 1 0 0 0 0.703069 0"/><feBlend in2="A"/><feBlend in="SourceGraphic"/></filter><path id="C" d="M25.9285 29.9988c-.5051.3242-1.1767.1786-1.5017-.3239s-.1788-1.1721.3263-1.4953 1.1767-.1773 1.5014.3252.1787 1.1718-.326 1.494z"/><path id="D" d="M24.7918 28.2398c-.2279.1462-.3853.3728-.443.636s-.0082.5328.1387.7614c.1869.2902.5067.4633.8536.4633.1948 0 .3841-.0559.5487-.161.4703-.3013.6074-.9282.3044-1.3964-.1873-.2906-.5074-.4636-.8544-.4636-.1944 0-.384.0558-.548.1603zm-.4257 1.4738c-.1672-.2586-.2233-.5675-.1577-.8682s.2459-.5586.5057-.7251c.1879-.1208.4037-.1835.6257-.1835.3962 0 .7609.1975.975.5292.3454.5348.1893 1.2502-.3479 1.593-.187.1208-.4037.1838-.6258.1838-.3965 0-.7605-.1979-.975-.5292z"/><path id="E" d="M36.2159 27.3697l.3899-.0584-.0112-.0621c-.017-.1609-.0446-.3229-.0793-.4841l-.1469-.5717-1.386.3767c.0315.2651.1168.5309.1469.796l.0184.2279 1.0682-.2243z"/></defs></svg>