<svg xmlns="http://www.w3.org/2000/svg" width="128" height="128" xmlns:v="https://vecta.io/nano"><path d="M72.011 51.578c1.372-1.152 2.462-2.335 2.423-2.629-.127-.956-3.427-2.289-6.034-2.437-2.345-.133-2.43-.107-3.652 1.115-1.933 1.933-1.677 4.18.642 5.637 1.947 1.223 3.686.78 6.621-1.685zm12.044-.559c1.549-1.455.722-3.861-1.52-4.424-2.003-.503-5.499 1.431-5.499 3.041 0 1.307 2.974 2.642 5.149 2.312a4.14 4.14 0 0 0 1.87-.929zM38.227 36.34c1.106-10.218 6.507-19.927 14.196-25.52 2.416-1.757 2.904-2.743 2.023-4.088-2.239-3.417-10.075 1.275-14.435 8.646-.78 1.318-1.942 3.919-2.584 5.781-1.136 3.299-1.166 3.539-1.176 9.442-.008 4.856.129 6.622.693 8.907.591 2.396.719 2.652.803 1.603.055-.686.271-2.833.481-4.771zm24.03-27.144c3.712-1.762 2.398-7.29-1.727-7.268-4.169.022-5.347 5.657-1.53 7.318 1.448.63 1.837.624 3.258-.05z" fill="#fff"/><path d="M64.455 126.988c-2.125-1.865-4.344-6.798-8.425-18.725-3.738-10.926-8.112-27.196-12.112-45.063l-1.662-7.215c-.143-.48-.574-.623-1.868-.623-4.018 0-9.047-2.191-11.633-5.067-2.904-3.23-3.778-7.687-2.165-11.046.908-1.891 3.115-4.285 5.161-5.597l1.757-1.127.007-3.99C33.537 15.173 42.483 4.099 55.94.777 60.18-.27 66.413-.258 70.444.805c5.989 1.579 11.824 5.251 15.511 9.763 3.274 4.006 6.024 10.725 6.038 14.751.005 1.551.689 2.609 1.686 2.609 1.282 0 5.788 2.542 6.985 3.942 2.246 2.624 2.058 5.168-.656 8.855-1.509 2.05-1.581 2.253-1.28 3.596.83 3.695-1.634 7.382-6.573 9.834-1.383.687-3.57 1.429-4.86 1.65l-2.346.402-.239 2.161c-.449 4.06-3.069 20.524-4.661 29.289-4.526 24.913-8.541 37.92-12.308 39.868-1.428.739-1.927.657-3.287-.537zm7.555-75.41c1.372-1.152 2.462-2.335 2.423-2.629-.127-.956-3.427-2.289-6.034-2.437-2.345-.133-2.43-.107-3.652 1.115-1.933 1.933-1.677 4.18.642 5.637 1.947 1.223 3.686.78 6.621-1.685zm12.044-.559c1.549-1.455.722-3.861-1.52-4.424-2.003-.503-5.499 1.431-5.499 3.041 0 1.307 2.974 2.642 5.149 2.312a4.14 4.14 0 0 0 1.87-.929zM38.227 36.34c1.106-10.218 6.507-19.927 14.196-25.52 2.416-1.757 2.904-2.743 2.023-4.088-2.239-3.417-10.075 1.275-14.435 8.646-.78 1.318-1.942 3.919-2.584 5.781-1.136 3.299-1.166 3.539-1.176 9.442-.008 4.856.129 6.622.693 8.907.591 2.396.719 2.652.803 1.603.055-.686.271-2.833.481-4.771zm24.03-27.144c3.712-1.762 2.398-7.29-1.727-7.268-4.169.022-5.347 5.657-1.53 7.318 1.448.63 1.837.624 3.258-.05z" fill="#f07093"/><path d="M54.271 60.557l-1.497 1.203-1.497 1.203.214 6.229c.118 3.426.372 6.387.566 6.581.231.231 1.029-.098 2.333-.964l1.982-1.315.005-5.771.267-6.139m7.595 52.368l-2.35-7.465c-.939-3.417-1.764-4.81-2.848-4.81-.955 0-.769 1.075.869 5.017 1.854 4.464 5.328 11.531 5.555 11.303.079-.079-.473-1.899-1.227-4.046zm-5.906-17.621l.761-.715-.657-3.65c-.361-2.007-.857-5.333-1.102-7.391l-.445-3.741-1.774-.443c-2.489-.622-2.734-.22-2.066 3.39.513 2.77 2.913 12.499 3.205 12.997s1.309.273 2.077-.448z" fill="#c5a576"/><path d="M64.003 126.53c-2.336-2.755-7.169-15.013-10.996-27.886-2.892-9.73-10.532-40.668-10.532-42.652 0-.382.572-.593 2.049-.754l2.049-.223 1.543 1.608c.849.884 2.581 2.131 3.849 2.771l2.306 1.163-1.497 1.203-1.497 1.203.214 6.229c.118 3.426.372 6.387.566 6.581.231.231 1.029-.098 2.333-.964l1.982-1.315.005-5.771c.003-3.174.123-5.936.267-6.139s1.353-.393 2.687-.423c3.739-.085 9.525-2.316 12.895-4.97.98-.772 1.979-1.522 2.221-1.668s1.733.143 3.314.643c1.739.549 3.712.908 4.994.908 1.666 0 2.119.117 2.119.546 0 .973-1.772 12.572-3.427 22.435-4.727 28.167-8.794 43.355-12.713 47.475-.857.901-1.395 1.158-2.425 1.158-1.054 0-1.523-.236-2.305-1.158zm.236-12.576c-.754-2.146-1.811-5.505-2.35-7.465-.939-3.417-1.764-4.81-2.848-4.81-.955 0-.769 1.075.869 5.017 1.854 4.464 5.328 11.531 5.555 11.303.079-.079-.473-1.899-1.227-4.046zm-5.906-17.621l.761-.715-.657-3.65c-.361-2.007-.857-5.333-1.102-7.391l-.445-3.741-1.774-.443c-2.489-.622-2.734-.22-2.066 3.39.513 2.77 2.913 12.499 3.205 12.997s1.309.273 2.077-.448z" fill="#ac8250"/><path d="M64.038 126.563c-2.708-3.218-8.182-17.686-12.448-32.9-3.334-11.89-9.346-37.281-8.971-37.888.109-.176 1.025-.4 2.035-.497 1.754-.169 1.898-.115 3.214 1.201l1.377 1.377-1.158.025c-2.09.045-2.294.29-1.872 2.239l.375 1.73 1.91-1.586 1.91-1.586 1.901.925 1.901.925-.969.701c-2.255 1.632-5.421 4.962-5.399 5.68.013.41.457 2.507.988 4.66l.965 3.914 1.417.245c1.308.226 1.65.09 4.445-1.771 4.938-3.287 10.986-6.052 17.799-8.138.682-.209-1.701-1.624-5.981-3.552-1.828-.824-3.392-1.566-3.476-1.65s.958-.588 2.314-1.12l2.466-.968 2.58 1.299c1.419.715 3.836 2.086 5.371 3.048s3.095 1.749 3.467 1.749c.743 0 .798-.2 1.509-5.433l.424-3.117h1.371c.754 0 1.371.175 1.371.389 0 .954-1.979 13.871-3.57 23.304-4.593 27.225-8.594 42.213-12.438 46.591-.963 1.097-1.403 1.329-2.523 1.329-1.085 0-1.546-.225-2.303-1.125zm4.166-4.932c.803-1.628 3.48-10.537 3.902-12.985.147-.852-2.776-2.645-8.144-4.996-4.966-2.175-5.151-2.207-5.86-1.033-.566.937-.518 1.163 1.535 7.23 1.166 3.444 2.803 7.705 3.638 9.469 2.428 5.129 3.332 5.554 4.93 2.316zm6.836-24.227l1.468-6.669c.128-.566-.067-.952-.689-1.36-.839-.55-.984-.499-4.278 1.503-3.832 2.329-9.984 7.232-9.565 7.623.151.141 1.477.755 2.946 1.366a73.6 73.6 0 0 1 5.522 2.649c1.827.986 2.932 1.4 3.079 1.153.126-.212.808-3.031 1.517-6.265zm-10.475-6.462c1.47-1.074 3.591-2.521 4.714-3.215l2.042-1.263-3.824-1.795c-4.216-1.979-6.762-2.901-11.151-4.039l-2.919-.757-1.034 1.034-1.034 1.034 1.23 4.613 2.793 9.938c1.597.938 1.845.856 4.195-1.388 1.274-1.216 3.518-3.09 4.988-4.164zm11.998-7.148c.65-.235 1.257-.676 1.348-.98.322-1.069 1.974-11.349 1.974-12.28 0-1.276-.696-1.463-3.7-.993-4.491.702-10.283 2.899-15.853 6.014l-2.297 1.285 3.71 1.314c4.6 1.629 8.101 3.168 10.856 4.772 2.466 1.435 2.422 1.426 3.961.869z" fill="#82602d"/></svg>