<svg xmlns="http://www.w3.org/2000/svg" width="128" height="128" viewBox="0 0 33.867 33.867" xmlns:v="https://vecta.io/nano"><path fill-rule="evenodd" d="M0 29.029l.588.756 3.175 4.082h25.141 1.199l3.763-4.838-9.407-12.095 8.819-11.339.588-.756L30.104 0H3.763l-.6.771L0 4.838l9.407 12.095zm11.344-2.419a.95.95 0 0 1-.748-1.529l2.574-3.309 3.763 4.838zM23.86 16.162l8.22-10.568H16.85c-.493 0-.77.567-.467.956l.55.708h5.589a.95.95 0 0 1 .748 1.529l-2.574 3.309zM1.199 4.838l18.527 23.82.133.171c.302.389.025.956-.467.956h-.577H1.787l2.587 3.326h23.942L3.763 1.542z" fill="#662bc9"/></svg>