<svg xmlns="http://www.w3.org/2000/svg" viewBox="0 0 76.8 76.8" width="128" height="128" xmlns:v="https://vecta.io/nano"><defs><linearGradient id="A" x1=".52" y1="15.51" x2="23.48" y2="8.49" gradientUnits="userSpaceOnUse"><stop offset=".076" stop-color="#ffd234"/><stop offset=".896" stop-color="#485dff"/></linearGradient><clipPath id="B"><path d="M15.87 64.011v-1.986l18.247-21.64-17.834-26.854v-1.696h42.287l1.117 13.737H57.33c-.041-2.124-.409-4.337-1.117-6-.622-1.229-1.604-2.239-2.814-2.896-1.859-.708-3.572-.828-5.834-.828H26.421l15.392 22.261-16.551 19.53c9.464 0 26.169 0 28.964-1.614 2.529-1.516 3.783-4.701 4.138-7.2l2.193.455-2.441 14.73z" fill="#fff" stroke-width="10.264" transform="matrix(.241778 0 0 .241778 2.410824 2.73)"/><path d="M26.09 76.796c-2.359 0-4.587-.583-6.248-2.193-.723-.795-1.043-1.877-.869-2.938h0 0 0 0c.297-.979 1.211-1.639 2.234-1.614 1.377 0 2.627 1.196 3.352 2.027 1.365 1.572 1.365 1.572 3.186 1.572 2.194 0 2.193-.001 2.814-1.076 4.758-8.146 4.24-13.99 4.758-21.806l.745-10.965c.745-14.316 2.731-26.233 5.214-31.074A14.15 14.15 0 0 1 50.171.456a13.82 13.82 0 0 1 3.476-.455c2.527-.029 7.065 1.128 7.282 4.055.034 1.344-.897 2.69-2.276 2.69-1.469 0-2.817-.893-3.765-2.027-.71-.862-1.711-1.614-2.814-1.614a3.27 3.27 0 0 0-2.524 1.241 18.37 18.37 0 0 0-3.103 7.2c-.465 4.278-.908 8.755-1.076 12.289a274.04 274.04 0 0 1-2.565 31.281c-.612 3.764-1.093 7.509-2.565 11.006-2.938 6.331-7.034 10.013-11.792 10.551a16.01 16.01 0 0 1-2.358.124z" fill="#fff" stroke-width="10.264" transform="matrix(.241778 0 0 .241778 2.410824 2.73)"/></clipPath></defs><circle cx="12" cy="12" r="12" fill="url(#A)" clip-path="url(#B)" transform="matrix(4.136024 0 0 4.136024 -9.971227 -11.291344)"/></svg>