<svg xmlns="http://www.w3.org/2000/svg" width="128" height="128" fill="none" xmlns:v="https://vecta.io/nano"><circle cx="64" cy="64" r="64" fill="#000"/><g fill-rule="evenodd"><path d="M64 121.333c31.665 0 57.333-25.669 57.333-57.333S95.665 6.667 64 6.667 6.667 32.336 6.667 64 32.336 121.333 64 121.333zM64 124c33.137 0 60-26.863 60-60S97.137 4 64 4 4 30.863 4 64s26.863 60 60 60z" fill="#f0827d"/><path d="M68.165 37.573c-6.901-.091-12.439 5.191-12.372 11.798l.076 7.39 4.323-4.122c1.306-1.245 3.444-1.217 4.775.063s1.353 3.327.047 4.572l-4.323 4.123 7.719.102c6.901.091 12.44-5.191 12.372-11.798s-5.717-12.036-12.618-12.127zm-18.888 34.71l.186 18.644c.018 1.786 1.545 3.253 3.41 3.277s3.362-1.403 3.344-3.188l-.186-18.644 21.861 21.006c1.332 1.28 3.47 1.308 4.775.062s1.285-3.292-.047-4.572L60.759 67.863l7.719.101c10.631.14 19.164-7.998 19.059-18.176S78.73 31.246 68.099 31.107 48.935 39.104 49.04 49.282l.076 7.39-4.409-4.238c-1.332-1.28-3.47-1.308-4.776-.063s-1.285 3.293.047 4.573l4.409 4.237-6.031-.079c-1.865-.025-3.362 1.403-3.344 3.189s1.545 3.253 3.41 3.277l6.031.079-4.323 4.123c-1.306 1.245-1.285 3.292.047 4.572s3.47 1.308 4.776.063z" fill="url(#A)"/><path opacity=".7" d="M52.375 45.124c1.865.025 3.392 1.492 3.41 3.278l.086 8.36 4.323-4.123c1.306-1.245 3.444-1.217 4.776.063s1.353 3.327.047 4.572l-4.323 4.123 8.732.115c1.865.025 3.392 1.492 3.411 3.278s-1.479 3.213-3.344 3.188l-8.732-.115 21.86 21.005c1.332 1.28 1.353 3.327.047 4.572s-3.444 1.217-4.775-.063l-21.86-21.005.067 6.42c.018 1.786-1.479 3.213-3.344 3.189s-3.392-1.492-3.41-3.277l-.066-6.42-4.323 4.123c-1.306 1.245-3.444 1.217-4.776-.063s-1.353-3.327-.047-4.572l4.323-4.123-6.031-.079c-1.865-.025-3.392-1.492-3.41-3.277s1.479-3.213 3.344-3.189l6.031.079-4.409-4.238c-1.332-1.28-1.353-3.327-.047-4.572s3.444-1.217 4.776.063l4.409 4.237-.086-8.36c-.018-1.786 1.479-3.213 3.344-3.189z" fill="url(#B)"/><path d="M125.786 58.298c-3.497-.046-6.304 2.631-6.269 5.979s2.897 6.099 6.394 6.145l1.899.025c12.939.17 23.532 10.35 23.659 22.738s-10.257 22.292-23.196 22.121l1.899.025c3.497.046 6.36 2.797 6.395 6.146.03 2.904-2.078 5.303-4.92 5.858 18.393-1.331 32.672-15.949 32.486-33.984-.197-19.084-16.515-34.767-36.448-35.029z" fill="url(#C)" style="mix-blend-mode:overlay" opacity=".8" transform="scale(.53333333)"/><path opacity=".8" d="M67.086 31.092c-1.865-.025-3.362 1.403-3.343 3.189s1.545 3.253 3.41 3.278l1.013.013c6.901.091 12.55 5.52 12.618 12.127s-5.47 11.889-12.371 11.798l1.013.013c1.865.025 3.392 1.492 3.411 3.278.016 1.549-1.108 2.828-2.624 3.124 9.81-.71 17.425-8.506 17.326-18.125-.105-10.178-8.808-18.542-19.439-18.682z" fill="url(#D)"/></g><defs><radialGradient id="A" cx="0" cy="0" r="1" gradientUnits="userSpaceOnUse" gradientTransform="matrix(60.237365,-5.8088885,12.210292,126.61902,37.79328,65.035733)"><stop stop-color="#f99974"/><stop offset=".167" stop-color="#fe4366"/><stop offset=".402" stop-color="#f43d88"/><stop offset=".553" stop-color="#d72de5"/><stop offset=".688" stop-color="#3b7bea"/><stop offset=".828" stop-color="#30b1cd"/><stop offset=".927" stop-color="#40cad7"/><stop offset="1" stop-color="#09aca2"/></radialGradient><linearGradient id="B" x1="39.082" y1="54.252" x2="78.308" y2="94.17" gradientUnits="userSpaceOnUse"><stop stop-color="#fff" stop-opacity="0"/><stop offset=".271" stop-color="#fff" stop-opacity=".5"/><stop offset=".516" stop-color="#fff" stop-opacity=".8"/><stop offset=".802" stop-color="#fff" stop-opacity=".5"/><stop offset="1" stop-color="#fff" stop-opacity="0"/></linearGradient><linearGradient id="C" x1="152.735" y1="118.95" x2="152.264" y2="84.91" gradientUnits="userSpaceOnUse"><stop stop-color="#2f3146"/><stop offset="1" stop-color="#2f3146" stop-opacity="0"/></linearGradient><linearGradient id="D" x1="81.459" y1="63.44" x2="81.207" y2="45.285" gradientUnits="userSpaceOnUse"><stop stop-color="#2f3146"/><stop offset="1" stop-color="#2f3146" stop-opacity="0"/></linearGradient></defs></svg>