<svg xmlns="http://www.w3.org/2000/svg" width="128" height="128" fill="none" xmlns:v="https://vecta.io/nano"><path d="M12.254 100.342a65.15 65.15 0 0 0 46.072 26.761c-4.698-7.07-11.527-13.574-20.052-18.526s-17.554-7.657-26.019-8.235z" fill="url(#A)"/><path d="M49.729 88.86c-16.425-9.543-34.203-11.974-46.923-7.678 1.228 4.059 2.848 7.988 4.836 11.734 11.052-.256 23.119 2.746 34.347 9.267s19.816 15.522 25.071 25.252a65.8 65.8 0 0 0 12.596-1.613C77.083 112.646 66.15 98.405 49.729 88.86z" fill="url(#A)"/><path d="M128 50.127c-2.088-8.494-5.867-16.481-11.11-23.482S105.046 13.77 97.483 9.376 81.548 2.157 72.869 1.07 55.38.656 46.966 3.049c14.056 1.72 29.657 6.997 44.958 15.885S119.548 38.761 128 50.127z" fill="url(#A)"/><path d="M107.55 81.279c-7.195-11.949-19.519-23.39-34.702-32.21S41.625 35.212 27.694 34.879c-12.256-.29-21.454 3.273-25.23 9.773-.022.039-.052.075-.075.114a65.49 65.49 0 0 0-.899 3.666c5.272-2.081 11.381-3.24 18.173-3.369 15.105-.284 32.01 4.548 47.609 13.611s28.18 21.36 35.413 34.618c3.243 5.973 5.266 11.854 6.068 17.472.933-.834 1.849-1.697 2.737-2.593.024-.041.039-.084.062-.127 3.776-6.506 2.316-16.26-4.004-26.763z" fill="url(#A)"/><path d="M61.297 68.95C38.047 55.443 12.355 53.327 0 62.753a64.86 64.86 0 0 0 .675 8.816A51.18 51.18 0 0 1 11.843 69.5c13.806-1.038 29.027 2.808 42.84 10.837s24.701 19.352 30.64 31.85a50.76 50.76 0 0 1 3.733 10.725 65.32 65.32 0 0 0 7.997-3.778c2.068-15.404-12.499-36.676-35.755-50.185z" fill="url(#A)"/><path d="M119.508 61.281C112.232 49.345 99.8 37.872 84.51 28.994S53.118 14.998 39.141 14.587c-10.654-.307-18.906 2.275-23.185 7.154 17.767-3.01 41.202 2.049 63.916 15.245s38.725 31.051 44.904 47.975c2.118-6.13.275-14.578-5.268-23.68z" fill="url(#A)"/><defs><linearGradient id="A" x1="103.68" y1="17.205" x2="19.2" y2="127.285" gradientUnits="userSpaceOnUse"><stop stop-color="#f9a43a"/><stop offset=".25" stop-color="#ffc45e"/><stop offset=".531" stop-color="#93eeef"/><stop offset=".76" stop-color="#81f4fe"/><stop offset="1" stop-color="#3bdbfb"/></linearGradient></defs></svg>