<svg xmlns="http://www.w3.org/2000/svg" width="128" height="128" viewBox="0 0 33.867 33.867" xmlns:v="https://vecta.io/nano"><path d="M33.693 9.676v9.676l-8.38-4.838zm-8.38-4.838v9.676l8.38-4.838zm0 0v9.676l-8.38-4.838zM16.933 0v9.676l8.38-4.838zm0 0v9.676l-8.38-4.838z" fill="#eeff19" paint-order="stroke fill markers"/><path d="M.174 19.352v9.676l8.38-4.838zm8.38-4.838v9.676l-8.38-4.838zM.174 9.676v9.676l8.38-4.838zm8.38-4.838v9.676L.174 9.676z" fill="#c4d300" paint-order="stroke fill markers"/><path d="M8.554 24.19v9.676l-8.38-4.838zm0 0v9.676l8.38-4.838z" fill="#ecff00" paint-order="stroke fill markers"/><path d="M25.313 14.514v9.676l-8.38-4.838zm0 0v9.676l8.38-4.838z" fill="#c4d300" paint-order="stroke fill markers"/><path d="M25.313 24.19v9.676l-8.38-4.838zm0 0v9.676l8.38-4.838zm-8.38-4.838v9.676l-8.38-4.838zm0 0v9.676l8.38-4.838z" fill="#d7e800" paint-order="stroke fill markers"/></svg>