<svg xmlns="http://www.w3.org/2000/svg" width="128" height="128" viewBox="0 0 33.867 33.867" xmlns:v="https://vecta.io/nano"><defs><linearGradient id="A" x1="-5.641" y1="29.553" x2="11.56" y2="9.355" gradientUnits="userSpaceOnUse"><stop offset=".19" stop-color="#ffbb26"/><stop offset=".61" stop-color="#f27125"/><stop offset="1" stop-color="#ff3323"/></linearGradient></defs><path fill-rule="evenodd" d="M16.52 15.931l-.137.112c-.502.411-1.099.811-1.726 1.232-2.162 1.45-4.688 3.143-4.937 6.341 0 0-2.868-4.996 2.432-8.297s5.256-5.039 4.952-6.928c0 0-1.419 1.483-2.701 1.39s-2.383 2.093-2.383 2.093-1.491-2.205 1.868-4.318c0 0-.818.115-1.289.658 0 0-.504-1.889 2.422-3.337s3.055-3.809 3.055-3.809.303 2.448-.536 3.403c0 0 2.331-1.633 1.854-4.471 0 0 .97 3.678-.67 4.88 0 0 1.303-.261 1.969-.564 0 0-.695 1.693-2.273 1.911 0 0 2.125 1.955 1.781 4.488-.337 2.481-1.538 3.463-3.682 5.216zm2.5 5.013l-2.474 2.454c-4.161 4.637-1.827 10.468-1.822 10.468-6.559-7.989 1.608-13.857 1.608-13.857-3.912 1.458-4.75 5.183-4.75 5.183s-1.94-3.563 5.415-7.877 3.967-9.672 3.967-9.672c5.089 6.714 1.725 9.863-1.944 13.299zm14.247-6.537c-.782 4.17-4.3 5.256-4.3 5.256 7.775-10.425-.435-14.639-.435-14.639 2.477 3.128.825 7.631.825 7.631C28.372.955 21.998 1.361 21.998 1.361c5.792 7.703 5.329 15.117-.637 19.866s-5.444 7.066-5.444 7.066 1.159-1.101 10.425-3.88 6.924-10.005 6.924-10.005zM11.869 1.361C7.56 7.092 6.715 12.661 9.022 17.094c-.934 1.569-1.643 4.13-.141 7.732l-1.359-.414C-1.745 21.632.601 14.407.601 14.407c.782 4.17 4.301 5.256 4.301 5.256-7.775-10.425.434-14.639.434-14.639-2.476 3.128-.825 7.631-.825 7.631C5.498.955 11.869 1.361 11.869 1.361z" fill="url(#A)"/></svg>