<svg xmlns="http://www.w3.org/2000/svg" viewBox="0 0 6.726 14.206" width="128" height="128" xmlns:v="https://vecta.io/nano"><path d="M-.896 13.489l-.003.604c-.003.084.024.121.109.109.028-.004.06 0 .088 0l8.836.004c.159 0 .216-.036.202-.2-.016-.17-.004-.342-.004-.514l-.026-.023c-.054-.03-.114-.031-.172-.031-.881 0-1.761-.007-2.642.003l-1.028-.004H-.553c-.105 0-.213-.016-.314.031l-.027.024zm10.647-2.128l.55.004c.135.01.165-.033.165-.165l-.003-3.671q0-.428-.428-.428h-.284l-.023.026c-.04.078-.031.162-.031.244L9.7 8.526l-.003 2.637c0 .06.003.118.031.172l.024.026zM4.785 1.423H1.231l-.023.026c-.034.234-.078.47.028.7.081.048.172.04.26.04h3.017c.088 0 .179.009.26-.037.116-.229.065-.466.034-.702l-.023-.026zm-7.812 5.679c-.202 0-.402.003-.602-.003-.085-.003-.111.026-.111.109v3.334c0 .087.027.111.111.109l.602-.003.023-.027c.026-.048.03-.102.03-.155l-.003-2.641c-.009-.233.033-.469-.028-.699l-.023-.026z"/><path d="M8.331 4.263l.004-1.987c0-.116-.031-.152-.148-.146l-.568.004-.023.027c-.034.065-.031.138-.031.207v1.666c0 .077-.004.155.04.224.23.105.465.064.7.028l.026-.023z" fill="#010000"/><path d="M-1.606 2.843c-.189 0-.379.006-.568-.004-.116-.006-.148.031-.146.146l.004 1.987.024.021c.224.045.449.047.673 0 .02-.013.034-.03.044-.051.027-.068.024-.139.024-.209V3.093c0-.077.006-.153-.031-.224l-.023-.026z"/><path d="M-2.316 4.973c-.189 0-.379.006-.568-.004-.116-.006-.148.031-.146.146l.004 1.987c.236.089.476.084.715.001.058-.077.05-.168.051-.254V5.223c0-.088.007-.179-.058-.251l.003.003z"/><g fill="#010000"><path d="M9.751 7.102l.004-1.294c0-.101-.027-.134-.128-.129l-.585.003-.023.027c-.045.095-.031.196-.031.295l.003.916c.006.186.048.236.233.233.178-.003.365.053.533-.054l-.003.003z"/><path d="M9.041 5.683l.003-1.294c0-.101-.027-.134-.128-.129l-.585.003c-.048.054-.055.125-.055.196v1.024c.004.206.048.256.251.253.173-.003.354.051.517-.055z"/></g><path d="M-.896 1.423c-.193 0-.388.006-.581-.004-.114-.006-.136.034-.135.139l.004 1.284c.21.105.433.058.652.033.091-.01.105-.102.109-.18v-.547c-.009-.233.033-.469-.027-.7l-.023-.026z"/><path d="M7.62 2.133L7.625.838c0-.101-.027-.134-.128-.129l-.585.004-.023.027c-.045.095-.031.196-.031.295l.003.916c.006.186.048.234.233.232.178-.003.365.053.533-.054l-.004.004z" fill="#010101"/><path d="M6.91.714l.003-.602C6.916.028 6.89 0 6.804.001H5.598c-.087 0-.111.028-.109.111l.003.602.027.023c.118.051.244.028.367.03h.794c.082 0 .166.003.234-.058l-.004.004z"/><path d="M-3.025 10.649l-.004 1.286c-.001.104.02.146.134.139l.581-.004.023-.026c.06-.23.02-.466.028-.699.01-.176.004-.354.003-.53 0-.143-.068-.226-.215-.217-.185.01-.378-.053-.553.055l.004-.004z" fill="#010101"/><path d="M9.042 12.78l.585.003c.102.004.129-.028.128-.129l-.003-1.294c-.212-.105-.435-.055-.653-.036-.065.006-.101.067-.101.129-.006.433-.045.868.021 1.3.008.008.016.017.024.027z"/><path d="M5.494.714c-.202 0-.402.001-.604-.004-.085-.003-.112.026-.111.111l.004.604c.209.105.43.054.651.034.05-.004.089-.044.094-.094.02-.22.07-.442-.038-.655l.003.004z" fill="#020201"/><path d="M.521.714L.523.112C.526.028.501-.01.414.002l-.581.01C-.214.245-.178.48-.185.714l.024.021a1.61 1.61 0 0 0 .659 0L.522.714z" fill="#020202"/><path d="M-.185.714c-.199 0-.398.003-.597-.004A.09.09 0 0 0-.9.828l.004.595c.209.107.43.055.651.036.05-.004.089-.044.094-.094.02-.22.07-.442-.038-.655z" fill="#020201"/><path d="M-2.316 12.07l-.004.595c-.003.092.026.121.118.118l.595-.004.021-.024a1.71 1.71 0 0 0 .001-.669c-.011-.02-.027-.034-.048-.045-.232-.026-.463-.071-.689.031l.004-.004z" fill="#020202"/><path d="M8.332 13.49l.602.003c.085.003.112-.026.109-.109l-.003-.602c-.212-.105-.433-.055-.652-.036-.05.004-.089.044-.094.094-.02.219-.07.442.037.653h-.001z" fill="#010101"/><path d="M-1.606 12.779l-.004.595c-.003.092.026.122.118.118l.595-.004c.099-.222.053-.453.028-.683-.01-.021-.026-.037-.045-.05-.233-.033-.467-.075-.696.027l.004-.004z" fill="#020202"/><path d="M1.231 1.423l.004-.604C1.238.734 1.21.707 1.124.708L.521.713c-.105.209-.054.43-.034.651.004.05.044.089.094.094.22.018.442.07.655-.038l-.004.003z" fill="#020201"/><path d="M8.334 13.492l-.003-.599c-.001-.084.028-.114.112-.112l.601.003-.004-1.273c-.001-.114.03-.156.148-.151l.565.003-.007-2.843c-.209-.098-.426-.054-.641-.033-.084.009-.105.087-.112.161-.011.105-.004.212-.007.318-.006.192-.02.206-.217.21l-.283.003c-.139.001-.203.072-.206.209l-.003.266c-.003.222-.011.232-.227.233h-.885c-.088 0-.179-.009-.256.05-.061.075-.051.166-.053.254v.921c.003.146-.055.205-.199.195-.082-.006-.165-.003-.247 0-.219.007-.26.045-.264.261l-.001.903c0 .243-.01.251-.246.254-.467.006-.469.006-.463.472 0 .098-.021.203.054.288l2.843.007z" fill="#b66a2a"/><path d="M5.491 13.485l-.001-.55c-.007-.129.043-.163.163-.156.129.008.261-.007.389.004.142.014.165-.05.162-.175l-.006-1.081c-.003-.132.033-.18.168-.169s.273-.004.408.004c.112.007.141-.037.139-.142l.003-1.277-.024-.024c-.197-.064-.398-.036-.597-.023-.101.007-.135.082-.143.173-.011.124-.004.249-.007.372-.003.102-.05.149-.152.151s-.213-.003-.32.003c-.186.011-.23.05-.234.237l-.003.957c-.001.205-.017.219-.224.223l-.284.004c-.129.007-.192.075-.197.202l-.004.32c.001.124-.047.189-.178.183-.058-.003-.118 0-.178 0H-.597c-.104 0-.215-.026-.304.058v.71l6.161-.003.23-.007z" fill="#bababa"/><path d="M6.917 9.943h1.242c.146.003.186-.047.176-.183s.001-.273-.003-.408c-.003-.092.033-.126.124-.124l.426.003c.121.007.173-.03.163-.158s.007-.261-.004-.391c-.011-.138.045-.173.173-.166h.533l.008-1.419c-.195 0-.391-.004-.585.004-.102.004-.131-.031-.129-.131l.004-1.293c-.195 0-.391-.004-.585.004-.102.004-.131-.031-.129-.131l.004-1.293c-.237 0-.473 0-.71-.001-.135-.088-.287-.044-.432-.051-.207-.01-.22-.017-.223-.223l-.001-.23c-.008-.215-.045-.251-.268-.257-.071-.001-.142 0-.213 0-.213-.003-.224-.014-.229-.236l-.004-.283c-.007-.121-.07-.182-.19-.188l-.354-.004c-.112 0-.159-.053-.161-.162l-.006-.354c-.007-.08-.027-.166-.119-.173-.215-.018-.433-.063-.644.033H1.234c-.07-.058-.153-.053-.236-.054-.553 0-1.104-.001-1.656 0-.081 0-.166-.009-.233.055l-.006.601c0 .084-.027.114-.111.111l-.601-.003v2.132c.126.091.271.047.409.054.099.006.199.004.298-.003l1.114.004c.249.001.253.006.253.261v.831c-.001.197-.017.213-.21.215-.384.004-.767-.004-1.149.004l-.459-.001c-.143.006-.202-.05-.199-.196v-.919c0-.088.009-.179-.054-.253h-.712l.003 2.134.026.023c.089.044.185.031.28.031H.208c.251 0 .259.009.26.259.001.224-.113.337-.341.338l-.142.003c-.173.013-.219.053-.223.23V9.07c0 .06.006.118.044.169.06.047.132.048.203.048h1.01c.224-.003.264-.047.271-.274v-.249c-.006-.138.061-.188.193-.186h.922c.261-.003.3-.04.304-.295.006-.455-.045-.412.426-.413h2.73c.274 0 .28.006.281.276 0 .372.07.435.43.435.277.001.278.003.28.274v.851c0 .082-.007.166.048.237l.011.003z" fill="#fe943a"/><path d="M4.781 2.129h.548c.138-.009.175.044.166.173-.01.135.003.271-.003.406-.004.098.03.139.131.135l.442-.003c.111-.006.145.038.139.145l-.003.406c-.007.121.03.172.158.163.141-.01.283.003.425-.004.101-.004.135.036.132.134l-.003.425c-.006.112.026.161.148.155l.567-.006V2.13c-.195 0-.391-.003-.585.004-.101.004-.131-.028-.129-.129L6.917.71H5.494l.004.602c.003.085-.026.114-.111.111l-.602-.004v.709zm-5.671.003l2.125-.003V1.42c-.202 0-.402-.001-.604.004-.085.003-.114-.026-.111-.111L.525.71H-.19l.004.602c.003.085-.026.114-.111.111l-.602-.004.009.712zm7.796 7.809l.008-1.294c.001-.107-.045-.129-.139-.126l-.443.003c-.131-.003-.135-.037-.131-.135l.004-.408c0-.169-.033-.173-.168-.172l-1.56.003c-.555 0-1.111.003-1.666-.003-.125 0-.159 0-.159.162l.004.372c0 .141 0 .182-.175.182-.364 0-.722.003-1.081-.007-.166 0-.166.067-.166.188v.333c0 .19.007.19-.235.19l-1.187-.003c-.209-.097-.425-.05-.639-.036-.057.004-.101.047-.105.104-.017.215-.061.43.033.639.082.078.188.063.287.063h2.926c.281 0 .286.006.287.288a.27.27 0 0 1-.313.308H-.566c-.261 0-.263-.007-.27-.268-.003-.126.034-.261-.048-.379-.131-.104-.283-.054-.426-.06-.22-.01-.23-.014-.234-.229l-.003-.283c-.004-.128-.068-.195-.197-.197l-.264-.003c-.236-.001-.243-.009-.244-.251V8.04c0-.082.007-.166-.047-.239-.239-.071-.474-.084-.71.01l-.007 2.541-.001.3.584-.004a.1.1 0 0 1 .131.128l.004.584c.072.068.163.053.25.054.447.006.393-.045.399.408 0 .087-.009.176.053.251H-1.6c.134.088.286.044.429.05.219.008.222.013.23.23.006.143-.038.295.053.429l-.001-.001 5.463.003c.182 0 .236-.045.224-.226-.009-.155-.075-.357.033-.459.098-.092.294-.026.446-.028.226-.004.226 0 .226-.234l-.001-1.047c-.001-.109.036-.148.143-.142l.426.003c.105.004.151-.028.145-.141l-.004-.408c-.011-.138.045-.173.173-.166.176.01.355.001.531.001z" fill="#fec494"/><path d="M-3.021 7.813h.696c.104-.237.095-.474.006-.713h-.71l.009.713z" fill="#fd943a"/><g fill="#bababa"><path d="M-1.609 12.074l.004-.55c.009-.138-.045-.173-.173-.166-.176.01-.355.001-.531.001l-.009.712h.71z"/><path d="M-.899 12.784l.003-.582c.003-.099-.033-.135-.132-.132l-.582.003v.71h.71z"/></g><path d="M-2.319 7.099l-.006.713.004 1.271c0 .111.021.159.143.151.152-.011.307 0 .459-.004.084-.003.114.026.111.111l-.004.477c-.006.105.034.129.131.126l.582-.004-.004.004v-.582c-.003-.097.023-.135.126-.131l.582-.003V7.953c0-.105.023-.151.136-.142H.33c.148-.006.189 0 .189-.192V7.27c0-.166-.072-.166-.187-.166h-.334l-2.323-.003zm1.422-.713l1.308.007c.082 0 .114-.024.112-.109V5.081c0-.085-.03-.111-.112-.109l-1.308.007c-.053.05-.054.116-.055.182v1.046c0 .065.003.131.055.182zm4.259.709l1.308.007c.082 0 .114-.024.112-.109V5.79c0-.085-.03-.111-.112-.109l-1.308.007c-.053.05-.054.116-.055.182v1.046c0 .065.003.131.055.182z"/><path d="M-.897 6.386V4.979l-.712-.006v1.27c-.001.112.027.158.146.151l.565-.009zm4.259.709V5.687c-.195-.001-.391 0-.585-.007-.087-.003-.128.018-.126.116v1.189c0 .098.04.119.126.116l.585-.007z" fill="#fefefe"/><path d="M-.896 9.939l-.004.602c-.003.084.024.112.109.111h3.333c.084 0 .114-.026.111-.111v-.46c.009-.124-.043-.143-.152-.143l-3.402.004z"/></svg>