<svg xmlns="http://www.w3.org/2000/svg" width="128" height="128" xmlns:v="https://vecta.io/nano"><path d="M0 64V7.309h43.749 43.749l20.251 20.226L128 47.762v36.465 36.465H64 0zm123.404 18.735V49.368l-18.757-18.735-18.757-18.735H45.243 4.596V64v52.101H64h59.404zM14.018 64V21.31h4.539 4.539v10.271l.096 10.271c.053 0 4.332-4.62 9.508-10.266l9.412-10.266 6.176-.005 6.176-.005.002 13.685c.002 13.178.081 17.459.35 18.953.419 2.328 2.001 4.455 4.072 5.471 1.65.81 2.418.954 5.113.96 1.942.004 2.497-.033 3.16-.209 2.43-.645 4.21-2.164 4.99-4.26.614-1.651.62-1.821.666-18.849l.042-15.751h4.59 4.59v18.667 18.667l.827 1.272 9.509 14.334c.191.2.398-.09 4.816-6.742l4.616-6.951h5.226l5.226.069c0 .038-3.212 4.957-7.138 10.931l-7.183 10.979c-.025.064 3.526 5.513 7.891 12.107l7.936 11.99-5.435.031c-5.214.03-5.442.022-5.614-.186-.098-.12-2.425-3.656-5.171-7.859l-5.107-7.609c-.063.018-2.422 3.54-5.242 7.828l-5.127 7.796-34.025.029-34.025.029zm20.969 34.781c2.333-.441 4.351-1.575 5.39-3.03 1.803-2.524 2.594-6.22 2.595-12.127.001-5.041-.474-7.789-1.78-10.315-1.624-3.141-4.043-4.576-8.332-4.945-.939-.081-3.182-.119-5.687-.097l-4.136.036-.03 15.206.029 15.358c.048.125 1.062.143 5.66.098 3.461-.034 5.865-.104 6.291-.185zm46.64-7.874l5.388-8.231c-.001-.078-2.11-3.357-4.687-7.286l-4.684-7.144H65.078 52.51v5.451 5.451h11.605H75.72v3.844 3.844H64.115 52.51v6.082 6.082l11.864-.003 11.864-.003 5.391-8.088zM39.391 60.388c-.076-.347-8.545-14.743-8.658-14.718-.065.014-1.808 1.756-3.874 3.87l-3.756 3.844-.004 3.586-.004 3.586h8.166c7.138 0 8.162-.021 8.129-.169zm6.071-9.729c-.041-.71-.075-5.485-.075-10.612 0-7.415-.03-9.307-.144-9.255-.283.13-8.072 8.313-8.058 8.466.02.223 8.122 12.691 8.248 12.691.06 0 .072-.544.029-1.291z" fill="#c2d4d0"/></svg>