<svg xmlns="http://www.w3.org/2000/svg" width="128" height="128" fill="#e1f51f" xmlns:v="https://vecta.io/nano"><path d="M103.407 128c11.782 0 21.333-9.551 21.333-21.333s-9.551-21.333-21.333-21.333-21.333 9.551-21.333 21.333S91.625 128 103.407 128zM24.593 42.667c11.782 0 21.333-9.551 21.333-21.333S36.375 0 24.593 0 3.259 9.551 3.259 21.333s9.551 21.333 21.333 21.333zm100.148-21.314c0 10.734-7.89 19.612-18.274 21.121-.812 0-1.566.058-2.321.232-10.327 1.509-18.274 10.386-18.274 21.121v.232c0 10.85-8.064 19.786-18.507 21.179h-.232-.754a12.68 12.68 0 0 0-2.089.174h-.232c-9.804 1.45-17.463 9.516-18.158 19.496 0 .522-.058 1.044-.058 1.625v.232c0 .58 0 1.103.058 1.683C44.971 119.413 35.805 128 24.609 128c-11.777 0-21.349-9.574-21.349-21.353 0-10.56 7.658-19.321 17.752-21.063h1.044H23.1a8.2 8.2 0 0 0 1.625-.174s.522-.058.754-.116c9.399-1.509 16.766-9.226 17.694-18.858.116-.696.116-1.45.116-2.146v-.174c0-.754 0-1.451-.116-2.147.987-9.922 8.702-17.813 18.507-19.032.522 0 1.044-.058 1.624-.174 10.501-1.335 18.623-10.27 18.623-21.179v-.174C82.043 9.574 91.615 0 103.391 0s21.349 9.574 21.349 21.295z"/></svg>