<svg xmlns="http://www.w3.org/2000/svg" width="128" height="128" xmlns:v="https://vecta.io/nano"><path d="M24.907 79.818L7.157 75.061.683 73.322c-1.066-7.256-.882-14.641.544-21.835L6.4 57.706z" fill="#20e0b7"/><path d="M29.301 91.519l-13.984 13.973c-5.262-6.157-9.312-13.255-11.936-20.917l7.285 1.931zm14.123 33.1a64.22 64.22 0 0 1-20.917-11.936l4.267-4.267 9.664-9.664 5.045 18.581z" fill="#03dac5"/><path d="M76.501 126.773c-7.19 1.426-14.571 1.61-21.824.544l-1.739-6.475-4.757-17.749L70.293 121.6z" fill="#20e0b7"/><path d="M106.165 112.106c-5.338 4.697-11.424 8.468-18.005 11.157l-5.333-4.491-22.794-19.029 38.869 10.421z" fill="#3de6aa"/><path d="M124.565 84.703c-2.369 6.891-5.897 13.326-10.432 19.029l-6.485-1.739-40.992-10.997 51.136-5.557z" fill="#5aed9c"/><path d="M128 64c.003 3.416-.271 6.826-.821 10.197l-6.304.693-53.205 5.781 53.483-25.952 5.696-2.773A63.12 63.12 0 0 1 128 64z" fill="#94f981"/><path d="M124.095 41.983l-5.515 2.677-54.528 26.474 44.309-44.309 4.331-4.267c4.918 5.75 8.779 12.327 11.403 19.424zm-18.602-26.677l-4.32 4.331-44.309 44.298L83.339 9.418l2.677-5.515a64.06 64.06 0 0 1 19.477 11.403z" fill="#b1ff73"/><path d="M76.053 1.152L73.28 6.848 47.328 60.32l5.781-53.195.693-6.304a63.67 63.67 0 0 1 22.25.331z" fill="#94f981"/><path d="M43.296 3.434l-.736 6.773-5.557 51.136-10.997-41.003-1.739-6.475A64 64 0 0 1 43.296 3.434z" fill="#5aed9c"/><path d="M28.256 67.978L9.227 45.216l-4.491-5.333c2.685-6.597 6.457-12.697 11.157-18.048l1.941 7.264z" fill="#3de6aa"/></svg>