<svg xmlns="http://www.w3.org/2000/svg" width="128" height="128" fill="none" xmlns:v="https://vecta.io/nano"><mask id="A" maskUnits="userSpaceOnUse" x="0" y="0" width="214" height="240" fill="#000"><path fill="#fff" d="M0 0h214v240H0z"/><path d="M106.103 20.289a1 1 0 0 1 1 0l85.602 49.423a1 1 0 0 1 .5.866v98.846a1 1 0 0 1-.5.866l-85.602 49.422a1 1 0 0 1-1 0L20.5 170.289a1 1 0 0 1-.5-.866V70.577a1 1 0 0 1 .5-.866z"/></mask><path d="M107.103 20.289l10-17.321zm-1 0l-10-17.321zM20.5 69.711l-10-17.32zm0 100.578l-10 17.32h0zm86.603 49.422l-10.001-17.32zm-1 0l10-17.32zm86.602-49.422l10 17.32zm0-100.578l-10 17.32zm-19.5.866v98.846h40V70.577zm9.5 82.391l-85.602 49.423 20.001 34.641 85.602-49.423zm-66.602 49.423L30.5 152.968l-20 34.641 85.603 49.423zM40 169.423V70.577H0v98.846zM97.102 37.609l85.602 49.423 20-34.641-85.602-49.423zM30.5 87.032l85.603-49.423-20-34.641L10.5 52.391zm86.603-84.064a21 21 0 0 0-21.001 0l20.001 34.641a19 19 0 0 1-19.001 0zM40 70.577a19 19 0 0 1-9.5 16.454l-20-34.641A21 21 0 0 0 0 70.577zm-9.5 82.391a19 19 0 0 1 9.5 16.455H0a21 21 0 0 0 10.5 18.186zm66.603 49.423a19 19 0 0 1 19.001 0l-20.001 34.641c6.498 3.751 14.502 3.751 21.001 0zm76.103-32.968a19 19 0 0 1 9.5-16.455l20 34.641a21 21 0 0 0 10.5-18.186zm40-98.846a21 21 0 0 0-10.5-18.186l-20 34.641a19 19 0 0 1-9.5-16.454z" fill="#673910" mask="url(#A)" transform="matrix(.534022 0 0 .534022 7.071932 -.082614)"/><path d="M110.248 90.701V37.299L64 64v53.402z" fill="#aa561f"/><path d="M17.752 90.701L64 117.402V64L17.752 37.299z" fill="#f1b155"/><path d="M110.248 37.299L64 10.598 17.752 37.299 64 64z" fill="#c56d28"/></svg>