<svg xmlns="http://www.w3.org/2000/svg" width="128" height="128" viewBox="0 0 33.867 33.867" xmlns:v="https://vecta.io/nano"><path d="M22.662 5.913l3.321 3.319A28.06 28.06 0 0 0 27.53 0H14.407c.007 1.952-.376 3.887-1.123 5.69a14.75 14.75 0 0 1-3.231 4.818l-8.148 8.144 5.975 6.001a27.89 27.89 0 0 1 6.643-10.586z" fill="#d29ffe"/><path d="M25.984 9.232c-1.382 3.988-3.615 7.57-6.604 10.551l-8.178 8.189-3.323-3.318c-1.027 2.966-1.537 6.075-1.531 9.214h13.141c-.007-1.952.376-3.885 1.122-5.688s1.844-3.44 3.228-4.817l8.122-8.188z" fill="#fe5300"/><path d="M19.341 19.821c3.036-2.969 5.26-6.602 6.643-10.589l-3.321-3.319-8.141 8.155a27.89 27.89 0 0 0-6.643 10.586l3.321 3.32z" fill="#e26dad"/></svg>