<svg xmlns="http://www.w3.org/2000/svg" xmlns:xlink="http://www.w3.org/1999/xlink" width="128" height="128" fill="none" xmlns:v="https://vecta.io/nano"><path d="M56.264 127.178c-2.631 0-3.826.359-6.696.718-5.74.718-4.544-2.395-5.501-6.228s-2.152-4.551-6.457-7.426-8.848-6.946-10.283-8.623-4.544-3.353-6.935-3.833-6.696-6.228-9.088-10.779-5.5-12.455-5.978-20.36c-.44-7.272.717-19.402 5.978-29.941s16.74-18.444 21.762-19.881 5.979-2.156 11.718-5.749 13.153-2.635 17.936-.719 4.066 1.437 9.327.719 6.696 2.635 8.131 2.635S87.9 7.555 92.204 2.285s5.175-.036 4.936 1.88-5.483 22.889-6.2 25.045 6.218 2.395 9.087 3.353 2.87 4.791 3.109 5.988 5.5 1.198 9.087 2.156 10.283 3.354 10.522 10.539-2.87 12.934-5.5 20.599 0 18.683-1.435 22.037-6.696 13.653-13.631 17.246-15.305 3.354-17.458 3.833-7.931 6.851-13.631 9.581c-5.5 2.635-12.784 2.635-14.827 2.635z" fill="url(#A)"/><g opacity=".3" fill="#000"><path d="M102.311 85.939c-.376-2.256-4.152-5.64-4.701-6.345-2.115-2.115.94-2.162 4.701-1.41 2.35.47 5.218 1.41 6.111 5.875.376 1.88 0 5.875-3.76 6.344s-1.881-1.645-2.35-4.464zm12.885-32.78c.603-.72 2.427-.826 3.264-.789 1.863.335.206 7.982-1.102 8.264s-2.914-.909-3.197-2.217.281-4.358 1.035-5.258zm-7.575-.83c2.405.054 4.207 1.072 4.807 1.575.584.948.594 2.947.41 4.63s-6.781.6-10.152 2.065-6.658 5.756-7.918 4.7-1.071-4.572-.571-6.449.325-3.862-.954-3.249l-.043.021c-1.282.615-3.33 1.596-4.754.404-1.44-1.206-4.218-2.461-4.179-.131s-3.715 6.995-6.278 10.056-1.732 1.153.164-5.681-.091-12.326-1.54-9.864-1.906 4.835-2.685 3.571.499-7.544 2.085-10.351-.385-2.466-2.171-3.808 1.673-1.815 5.584-2.827 16.881.507 17.824 1.757 1.3 3.385.351 3.969-.608 2.554.701 2.272 5.91-1.023 11.408.824 5.945 3.141 3.586 2.85-10.21 1.403-11.475 2.182-1.556 3.138-.398 3.035 3.191-1.616 6.197-1.548zm-20.2 29.787c.597-8.32 2.163-11.969 2.872-12.754.359-.532 3.011-1.766 1.636 7.189s1.216 19.393 1.976 22.326 7.662 1.822 11.602 1.14 2.326 1.795.064 4.495-9.771 6.364-11.591 6.525 3.078-4.772 3.593-6.484-2.316.205-6.396 3.066-5.238 2.964-2.755-4.756-1.749-10.345-1.002-20.745zM56.578 45.413c2.659-2.513 7.319-3 9.317-2.929 1.346-.027.457 4.724-.525 5.196s-2.987-1.501-3.436 1.65 2.554 2.173 2.735 2.549-.766 4.694-1.384 5.608-2.877.3-5.676-1.755-4.355-7.179-1.03-10.32zM91.605 12.37L78.573 30.244c-.65.904-1.059 2.058 1.703 3.157 2.21.88 4.87.608 5.218 0 3.995-13.041 6.11-17.741 6.815-20.326.252-.925-.235-1.175-.705-.705z"/><path d="M88.403 46.777c-1.611-1.302-5.412-2.071-7.111-2.292.803-2.618 9.22-1.148 10.819-.831s1.071 1.534.33 3.524-2.025 1.227-4.037-.4zm7.198 48.307c0-2.82 1.148-5.15 2.479-7.03 1.217-1.88 1.175-.686 1.175 3.29 0 4.164 1.046 4.68 3.162 4.68 1.645 0 3.995-.47 5.641-2.115.705-.705 2.009-3.975 2.715-3.74s-.599 5.15-2.009 6.56-5.17 1.645-8.461 1.88-4.701 0-4.701-3.525z"/><use xlink:href="#B"/><use xlink:href="#C"/><path d="M71.392 34.693c-1.128 0-3.291-2.036-4.231-3.055-9.166-10.339-15.747-9.634-18.098-9.399s-3.056.235-2.351-.47 6.111-3.29 10.577-2.585 7.991 2.585 10.577 6.814 3.526 4.7 3.996 4.23-.235-3.29-.47-5.875 2.35-2.585 2.82-2.585 4.231.705 2.35 6.109-3.761 6.814-5.171 6.814zm-31.26-7.519c10.906-1.316 19.9 3.681 23.033 6.344 2.82 2.35-1.88 3.29-9.166 0s-13.397-.705-15.983.47 1.175.705 6.346.94 8.696 4.23 9.401 5.875-1.41-.235-8.931-1.645-11.987.705-15.042 2.115 2.585.47 6.346.235 9.872.235-4.936 5.17-18.333 18.564-19.743 22.558-1.41.235.94-11.984S26.5 28.819 40.132 27.174zm3.526 21.383c1.504 0 .627 1.41 0 2.115-19.743 28.668 0 59.92.94 62.505s-14.337-7.284-18.568-18.093-.705-19.973-.705-20.913-1.88.94-3.996 5.64c-2.093 4.65-1.425 9.99-.955 13.744l.015.12c.47 3.76-.94 1.88-1.645.235s-6.816-12.924.705-28.903 22.328-16.449 24.209-16.449zm3.996 7.755c1.128-1.692.94.392.705 1.645-1.175 7.989-1.645 16.683 8.226 34.542s.47 27.258-2.115 29.138-6.111 5.404-3.76 0 2.585-13.159-7.051-31.018 2.585-32.192 3.996-34.307z"/><use xlink:href="#D"/></g><path d="M102.311 83.589c-.376-2.256-4.152-5.639-4.701-6.344-2.115-2.115.94-2.162 4.701-1.41 2.35.47 5.218 1.41 6.111 5.875.376 1.88 0 5.875-3.76 6.345s-1.881-1.645-2.35-4.465z" fill="#ea1e62"/><path d="M115.195 50.809c.603-.72 2.427-.826 3.264-.789 1.863.335.206 7.982-1.102 8.264s-2.914-.909-3.197-2.217.281-4.359 1.035-5.258zm-7.575-.83c2.405.054 4.207 1.072 4.807 1.575.584.948.594 2.948.41 4.63s-6.781.6-10.152 2.065-6.658 5.755-7.918 4.7-1.072-4.572-.571-6.45.325-3.862-.954-3.249l-.043.02c-1.282.615-3.329 1.596-4.754.404-1.44-1.206-4.218-2.46-4.179-.13S80.551 60.54 77.988 63.6s-1.732 1.153.164-5.681-.091-12.326-1.54-9.864-1.906 4.835-2.684 3.571.499-7.544 2.084-10.351-.385-2.466-2.171-3.808 1.673-1.815 5.584-2.827 16.881.507 17.824 1.757 1.3 3.385.351 3.969-.607 2.554.701 2.271 5.91-1.023 11.408.824 5.945 3.141 3.586 2.849-10.21 1.403-11.475 2.182-1.556 3.138-.398 3.035 3.191-1.616 6.197-1.548zm-20.2 29.787c.597-8.32 2.163-11.97 2.872-12.754.359-.532 3.011-1.766 1.636 7.189s1.216 19.393 1.976 22.326 7.662 1.822 11.602 1.14 2.326 1.794.064 4.494-9.771 6.364-11.591 6.525 3.078-4.773 3.593-6.485-2.316.205-6.396 3.066-5.239 2.963-2.755-4.756-1.749-10.346-1.002-20.745zM56.577 43.063c2.659-2.513 7.319-2.999 9.317-2.929 1.346-.027.457 4.724-.525 5.196s-2.987-1.501-3.436 1.65 2.554 2.173 2.735 2.549-.766 4.693-1.384 5.608-2.877.3-5.676-1.755-4.355-7.178-1.03-10.32zM93.241 5.34L78.573 27.894c-.65.904-1.06 2.058 1.702 3.157 2.21.88 4.87.608 5.219 0C89.489 18.01 93.143 8.865 93.849 6.28c.252-.925-.137-1.41-.607-.94z" fill="#fff"/><path d="M88.403 44.427c-1.61-1.302-5.412-2.071-7.111-2.292.803-2.618 9.22-1.148 10.819-.831s1.071 1.534.33 3.524-2.025 1.227-4.038-.4z" fill="#0d0308"/><g fill="#fff"><path d="M95.6 92.734c0-2.82 1.147-5.15 2.479-7.03 1.217-1.88 1.175-.686 1.175 3.29 0 4.164 1.046 4.68 3.161 4.68 1.645 0 3.996-.47 5.641-2.115.705-.705 2.009-3.975 2.715-3.74s-.599 5.15-2.009 6.56-5.171 1.645-8.461 1.88-4.701 0-4.701-3.525z"/><use xlink:href="#B" y="-2.35"/></g><use xlink:href="#C" y="-2.35" fill="#ffc108"/><path d="M71.392 32.344c-1.128 0-3.291-2.037-4.231-3.055-9.166-10.339-15.747-9.634-18.098-9.399s-3.056.235-2.35-.47 6.111-3.29 10.577-2.585 7.991 2.585 10.577 6.814 3.526 4.7 3.996 4.23-.235-3.29-.47-5.875 2.35-2.585 2.82-2.585 4.231.705 2.35 6.109-3.761 6.814-5.171 6.814z" fill="#ea1e62"/><path d="M40.132 24.824c10.906-1.316 19.9 3.681 23.033 6.344 2.82 2.35-1.88 3.29-9.166 0s-13.397-.705-15.983.47 1.175.705 6.346.94 8.696 4.23 9.401 5.874-1.41-.235-8.931-1.645-11.987.705-15.042 2.115 2.585.47 6.346.235 9.872.235-4.936 5.17-18.333 18.564-19.743 22.558-1.41.235.94-11.984S26.5 26.469 40.132 24.824z" fill="#9b28b0"/><path d="M43.658 46.208c1.504 0 .627 1.41 0 2.115-19.743 28.668 0 59.92.94 62.505s-14.337-7.284-18.568-18.093-.705-19.973-.705-20.913-1.88.94-3.996 5.639c-2.093 4.65-1.425 9.99-.955 13.744l.015.12c.47 3.76-.94 1.88-1.645.235s-6.816-12.924.705-28.903 22.328-16.449 24.209-16.449z" fill="#3f51b5"/><path d="M47.653 53.962c1.128-1.692.94.391.705 1.645-1.175 7.989-1.645 16.684 8.226 34.542s.47 27.258-2.115 29.138-6.111 5.405-3.761 0 2.586-13.159-7.051-31.017 2.586-32.192 3.996-34.307z" fill="#03a9f4"/><use xlink:href="#D" x="-0.001" y="-2.35" fill="#8bc44a"/><defs><linearGradient id="A" x1="64" y1="4.106" x2="64" y2="128" gradientUnits="userSpaceOnUse"><stop stop-color="#101216"/><stop offset="1" stop-color="#0e1014"/></linearGradient><path id="B" d="M112.453 70.269c-.637.48-.467-.619-.303-1.229 2.606-6.753-1.676-4.98-4.833-4.472s-5.199 6.628-6.391 8.36-.275-3.123.479-6.814 6.005-3.905 8.663-4.246 5.684.083 5.591 2.443-2.411 5.358-3.207 5.958z"/><path id="C" d="M69.954 63.636c2.087-1.417 2.123.507 1.88 1.645-2.355 14.302 10.587 24.188 12.001 25.896s-8.186-2.699-13.905-9.995-2.585-15.775.024-17.547z"/><path id="D" d="M55.88 76.285c-1.316-8.083 4.152-12.297 7.051-13.394.705 0 1.88-2.115 0 4.935s.47 13.394 3.76 17.623 16.688 12.924 14.572 22.088-10.106 13.159-14.102 15.274-6.346 3.055-.94-2.115 9.401-15.039 2.585-24.438-11.282-9.869-12.927-19.973z"/></defs></svg>