<svg xmlns="http://www.w3.org/2000/svg" width="128" height="128" xmlns:v="https://vecta.io/nano"><svg width="96" height="96" fill="none"><path d="M128 60.787l-31.599.62s-.395 4.544-3.877 4.544-5.56-4.466-5.56-4.466h-8.119c-13.229 0-27.45-.155-40.082-.458-.822.279-.775 2.869-.729 3.497 1.411 14.438 13.035 30.242 29.877 30.242 4.873.099 9.639-1.433 13.542-4.352s6.718-7.059 8-11.761c.473-1.551.876-4.024 2.264-5.157.189-.149.407-.258.639-.321a1.8 1.8 0 0 1 1.389.189 1.8 1.8 0 0 1 .53.48c1.644 2.567 2.66 5.335 4.032 7.971.768 1.649 1.842 3.139 3.164 4.389a15.14 15.14 0 0 0 7.336 3.265c-1.9 17.711-10.081 21.285-26.682 22.162-16.284.861-30.056-3.164-38.67-11.337-3.076-2.874-5.518-6.359-7.17-10.231a30.24 30.24 0 0 1-2.422-12.256H19.13v3.986h9.933c-1.062 2.272-3.924 4.017-8.002 4.761-5.327.969-11.833-.403-15.136-3.171a4.52 4.52 0 0 1-1.931-3.427c0-4.048 7.196-6.886 13.64-6.886 4.296 0 8.282 1.062 10.934 2.9l2.326-3.303c-3.303-2.326-8.126-3.613-13.237-3.613C7.754 69.053 0 73.853 0 79.955a8.38 8.38 0 0 0 .934 3.64c.583 1.127 1.414 2.107 2.431 2.866 3.296 2.776 8.809 4.428 14.167 4.428a23.19 23.19 0 0 0 4.234-.38c4.118-.775 7.351-2.388 9.383-4.653a33.59 33.59 0 0 0 9.817 17.059c8.63 8.189 21.254 12.453 36.701 12.453 1.551 0 3.102-.039 4.653-.124 17.734-.938 27.83-5.428 30.079-25.457 1.036.016 2.073-.038 3.102-.163 3.334-.403 6.739-1.636 8.933-4.257C128.116 80.979 128 63.105 128 60.787z" fill="#1c243a"/><path d="M107.691 23.403c-3.877-5.009-11.732-8.747-21.914-9.445-16.679-1.148-41.051 3.877-58.987 20.277-7.08 6.459-18.254.217-18.254.217l-.775 3.381C21.999 49.76 25.255 64.548 25.255 64.548l8.235 3.303c0-8.677 1.946-17.625 9.181-18.61 6.281-.853 48.464-4.397 55.055-4.397 6.041 0 9.972-1.954 12.213-6.498s.969-10.755-2.249-14.942z" fill="#ffcd1d"/><path d="M34.647 69.58l-10.453-4.164-.14-.613c0-.14-3.358-14.555-17.059-26.062l-.558-.465 1.31-5.63 1.38.775c.101.062 10.515 5.738 16.873-.062 18.564-16.943 43.85-21.673 59.863-20.58 10.011.69 18.525 4.397 22.774 9.91 3.722 4.831 4.707 11.476 2.388 16.168-2.412 4.885-6.63 7.157-13.275 7.157s-48.805 3.559-54.908 4.389c-6.746.907-8.196 9.98-8.196 17.447zm-8.421-5.909l6.072 2.419c.333-10.957 3.877-17.183 10.181-18.052 6.141-.83 48.58-4.404 55.234-4.404 5.715 0 9.158-1.799 11.151-5.839 1.892-3.877.993-9.592-2.14-13.663-3.877-4.986-11.717-8.344-21.061-8.987-15.547-1.07-40.09 3.52-58.103 19.967-6.157 5.622-14.857 2.582-18.23 1.07l-.287 1.21c8.171 6.9 14.153 16.032 17.214 26.279z" fill="#1c243a"/></svg></svg>