<svg xmlns="http://www.w3.org/2000/svg" xmlns:xlink="http://www.w3.org/1999/xlink" width="128" height="128" fill="none" xmlns:v="https://vecta.io/nano"><path d="M63.995 78.946L26.499 57.528l-1.024 1.571c-11.549 17.716-8.97 40.918 6.201 55.783 17.852 17.492 46.796 17.492 64.649 0 15.171-14.864 17.75-38.066 6.201-55.782l-1.024-1.571z" fill="url(#A)"/><path opacity=".6" d="M64.043 31.103L31.721 49.585l32.322 18.459 32.299-18.458z" fill="url(#B)"/><path d="M64.086 35.925L26.527 57.536l37.475 21.428 37.51-21.435z" fill="url(#C)"/><path d="M64.043.024L31.721 49.585l32.322 18.459z" fill="url(#D)"/><path d="M64.041 68.047l32.326-18.462L64.043 0z" fill="url(#E)"/><defs><radialGradient id="A" cx="0" cy="0" r="1" gradientTransform="matrix(0,-60.8465,79.523,0,63.959092,128.03225)" xlink:href="#F"><stop offset=".204" stop-color="#56f2ff"/><stop offset="1" stop-color="#4a8cea"/></radialGradient><radialGradient id="B" cx="0" cy="0" r="1" gradientTransform="matrix(-0.05166451,18.420352,-34.873863,-0.09781252,64.031592,49.57325)" xlink:href="#F"><stop stop-color="#eeff83"/><stop offset=".69" stop-color="#5699ec"/></radialGradient><radialGradient id="C" cx="0" cy="0" r="1" gradientTransform="matrix(-0.0599318,21.461441,-40.466592,-0.11300434,64.019092,57.44425)" xlink:href="#F"><stop stop-color="#56f2ff"/><stop offset="1" stop-color="#5699ec"/></radialGradient><linearGradient id="D" x1="47.882" y1=".024" x2="47.882" y2="68.044" xlink:href="#F"><stop offset=".377" stop-color="#ffe336"/><stop offset="1" stop-color="#13c0b6" stop-opacity=".7"/></linearGradient><linearGradient id="E" x1="80.204" y1="0" x2="80.204" y2="68.047" xlink:href="#F"><stop offset=".409" stop-color="#ff7f72"/><stop offset="1" stop-color="#2978ef" stop-opacity=".7"/></linearGradient><linearGradient id="F" gradientUnits="userSpaceOnUse"/></defs></svg>