<svg xmlns="http://www.w3.org/2000/svg" width="128" height="128" fill="none" xmlns:v="https://vecta.io/nano"><path d="M64 0C28.704 0 0 28.698 0 63.987c0 25.364 14.838 47.34 36.294 57.685v.053h.105A63.55 63.55 0 0 0 64 128c35.296 0 64-28.698 64-63.987C128 28.698 99.296 0 64 0zm0 5.251c32.381 0 58.748 26.361 58.748 58.736 0 9.295-2.18 18.117-6.04 25.941-8.457-4.096-17.044-7.142-25.711-9.216V31.718c0-1.707-1.339-3.072-3.02-3.072H77.21 50.081 39.314c-1.654 0-3.02 1.365-3.02 3.072v49.231c-8.404 2.074-16.755 5.067-24.975 9.006a58.3 58.3 0 0 1-6.066-25.968C5.252 31.613 31.619 5.251 64 5.251zM14.707 95.862a106.32 106.32 0 0 1 21.613-7.929v27.832c-8.798-4.7-16.23-11.579-21.613-19.903zm35.375 25.18V55.48c0-7.588 6.224-13.863 13.656-13.863S77.21 47.76 77.21 55.322c0 .053-.026.105-.026.158h.026v22.817c-6.329-.735-12.684-.971-19.04-.63l-5.226 7.588c8.141-.683 16.072-.63 23.898.263.079 0 .131 0 .21.026a.51.51 0 0 1 .184.026c1.366.158 6.329.788 10.873 1.916l-10.873 3.702v30.064c-4.254.971-8.666 1.523-13.183 1.523-4.859-.053-9.507-.657-13.971-1.733zm40.89-4.91V88.064c7.406 1.864 14.733 4.595 22.086 8.166-5.515 8.376-13.131 15.255-22.086 19.903z" fill="url(#A)"/><defs><linearGradient id="A" x1="63.999" y1="130.769" x2="63.999" y2="-19.626" gradientUnits="userSpaceOnUse"><stop offset=".086" stop-color="#8d29c1"/><stop offset=".238" stop-color="#942bbb"/><stop offset=".467" stop-color="#a92fac"/><stop offset=".741" stop-color="#ca3793"/><stop offset="1" stop-color="#f03f77"/></linearGradient></defs></svg>