<svg xmlns="http://www.w3.org/2000/svg" width="128" height="128" xmlns:v="https://vecta.io/nano"><g fill-rule="evenodd"><path d="M61.921 8.878c.423.181 1.117.694 1.087.815 0 .03-.242.091-.513.121-1.419.121-2.113.755-4.408 3.955-2.597 3.623-3.231 4.921-3.08 6.31.06.543.03.574-.181.453-.06-.03-.543-.211-1.027-.362-1.479-.483-2.898-1.208-3.623-1.902l-.272-.242 3.351-3.231c5.888-5.706 6.28-6.008 7.609-6.069.543-.03.694 0 1.057.151m4.167 2.657c0 3.834-3.231 13.255-7.276 21.256l-.332.664-.091-.332c-.453-1.902-.966-3.291-1.6-4.438l-.332-.634.694-.694c2.506-2.566 5.888-8.514 8.333-14.643.604-1.419.604-1.419.604-1.178m24.939 11.564c5.676.513 8.726 1.872 13.466 6.008 5.978 5.193 8.605 10.205 10.839 20.652 2.174 10.145 1.993 17.633-.634 27.989-5.465 21.588-16.546 36.865-30.917 42.632-9.42 3.774-22.916 4.378-31.733 1.419-5.978-2.023-9.873-5.495-11.413-10.205-.393-1.178-.513-1.781-.181-.996 1.872 4.68 7.669 8.243 15.549 9.541 9.722 1.63 19.323-.483 25.392-5.586.393-.332.725-.604.755-.604.091 0-1.51 2.174-2.506 3.382-.634.755-.604.785.423.181 15.821-8.967 26.69-26.449 28.532-45.893 1.359-14.583-3.14-28.502-12.288-37.831-1.54-1.57-1.54-1.51.091-.936 2.053.694 5.254 2.325 7.307 3.714.543.362.543.362.211-.393-3.321-7.156-10.416-12.077-18.508-12.832-.876-.091-.906-.091-.574-.151.362-.06 5.646-.151 6.19-.091m-15.64 2.536c-.03.03-1.449 1.268-3.14 2.778-5.435 4.77-11.413 10.205-13.557 12.288-.574.574-1.057 1.027-1.057.996s.151-.332.362-.725.513-1.027.664-1.479c.302-.725.393-1.027.634-1.963.211-.785 6.733-6.129 10.839-8.907 2.144-1.419 5.948-3.593 5.254-2.989m12.5 16.968c.03 4.982-.815 14.704-1.63 19.052-.242 1.328-.151 1.298-1.238.574-.513-.332-1.057-.694-1.238-.785l-.302-.181.151-.362c.755-1.842 2.234-8.484 3.714-16.606l.513-2.657c.03-.03.03.393.03.966m-12.258 8.605c-.785 1.057-2.868 2.083-5.435 2.717-4.287 1.057-7.941 2.415-9.39 3.442-.423.302-.664.634-.966 1.449-.423 1.057-1.238 2.536-2.204 4.046-.393.604-.362.664-.604-1.087-.211-1.54-.151-1.479-.755-.996-1.389 1.117-2.748 2.717-3.351 3.955-.574 1.238 0-1.902.634-3.382.272-.634.272-.634-.06-.574-1.268.242-4.016 1.54-5.404 2.597-.785.574-.755.513.151-.453 1.872-1.963 3.925-3.291 8.273-5.374 5.072-2.415 6.129-2.898 8.394-3.804 3.321-1.298 4.197-1.54 6.22-1.63 2.053-.091 3.231-.332 4.167-.906.543-.332.574-.332.332 0M36.65 58.153c1.51.513 1.449.423.906.845-1.781 1.389-2.657 2.717-3.08 4.559-.302 1.359-.876 2.657-1.932 4.227-.936 1.419-.845 1.389-.845.302 0-1.178-.332-2.476-.725-2.808-.543-.453-4.77 2.144-7.76 4.74-.876.755-.906.755-.634-.06.543-1.6 1.932-3.412 3.623-4.65.755-.574.755-.574-.453-.453-1.812.181-5.042.936-7.578 1.812-.815.272-.845.242-.091-.211 2.536-1.57 5.586-2.566 10.296-3.412 1.6-.272 1.842-.393 2.989-1.449.876-.785 2.959-2.959 3.472-3.593.332-.393.242-.393 1.812.151m47.946 5.797c.151.242.272.543.332.634.181.453.513 3.382.513 4.348v.483l-.151-.242c-.815-1.328-1.54-2.325-1.721-2.325-.483 0-2.778 2.083-3.834 3.472-.242.332-.483.634-.513.634-.211.091.574-2.506 1.057-3.382l.332-.604-.755.06c-2.295.151-5.193.725-6.522 1.298-1.208.513 1.057-.815 3.08-1.842 2.385-1.208 4.861-2.144 7.156-2.748l.815-.211.211.423M54.524 99.547c1.932 1.842 2.506 4.016 2.083 7.85-.332 3.049-1.963 4.589-4.801 4.589-2.446 0-4.499-1.389-5.103-3.563-.845-2.898 2.325-4.469 3.804-1.872.785 1.359.453 2.144-.996 2.385l-.543.091.423.151c2.174.845 3.714-.242 3.714-2.597 0-1.781-.876-3.231-2.234-3.744-.574-.211-.272-.242.513-.03 1.178.302 2.204.966 2.748 1.751l.242.362.151-.302c.634-1.238.483-3.714-.332-5.193-.242-.392-.211-.392.332.121m-4.74 3.11c-.06.03-.181.03-.242 0s0-.03.121-.03.181 0 .121.03m-4.71 4.408c0 .151-.03.211-.03.121-.03-.091-.03-.211 0-.302 0-.06.03 0 .03.181" fill="#3c9c44" stroke="#3c9c44"/><path d="M62.767 4.199c2.355.302 3.231 1.751 3.321 5.465l.03 1.63-.574 1.419c-2.536 6.28-5.767 11.956-8.303 14.613-.785.815-.694.815-1.208.03-.423-.634-1.389-1.812-1.63-2.023-.211-.181-.211-.03.03.694 2.446 7.639 2.113 15.61-.906 20.169-.483.755-.423.785.272.242 1.117-.906 2.234-2.234 3.261-3.774.453-.694.725-1.027 1.63-1.872 3.442-3.351 16.455-14.976 17.149-15.338 2.476-1.268 7.518-2.325 9.873-2.053 8.061.906 14.945 5.767 18.236 12.802.332.725.332.755-.211.393-2.053-1.389-5.254-3.019-7.307-3.714-1.63-.574-1.63-.634-.091.936 9.148 9.33 13.647 23.248 12.288 37.831-1.842 19.444-12.711 36.926-28.532 45.893-1.027.574-1.057.574-.423-.181.996-1.208 2.627-3.382 2.506-3.382-.03 0-.362.272-.755.604-6.552 5.525-17.3 7.518-27.596 5.133-6.22-1.419-10.99-4.469-12.922-8.212-1.51-2.929-1.147-7.337.845-10.205 2.597-3.774 8.484-4.982 11.926-2.446 1.208.876 1.721 4.197.906 5.797l-.151.302-.242-.362c-1.57-2.355-5.827-2.597-7.971-.483-1.932 1.932-1.208 6.884 1.359 9.058 4.982 4.257 15.67 5.223 24.818 2.234 11.171-3.623 17.361-10.749 19.837-22.795 2.657-12.983 2.053-19.082-2.536-26.147l-.483-.755.181-1.63c.181-1.57.543-5.555.543-5.978v-.211l.091.211c.604 1.268 1.812 5.616 2.113 7.548.151.996.211 1.057.362.393.423-1.872.755-4.589.755-6.159 0-1.872 0-1.812-1.993-6.703l-1.208-2.929-.06-.845c-.151-2.868-.694-5.254-1.63-7.276-.453-.966-.362-1.147-.966 2.234-1.57 8.545-3.291 16.123-3.834 16.908 0 0-.362-.151-.785-.393-1.057-.574-1.147-.513-.423.242.845.876 2.023 2.355 1.932 2.446-.03 0-.423.121-.936.272-3.231.876-7.639 2.808-10.084 4.408-.996.664-1.027.634-.242-.151 1.268-1.298 2.536-2.295 3.834-2.929.694-.362.725-.332-.272-.604-1.6-.453-3.11-.664-4.619-.664-.423 0-.725-.03-.725-.03.06-.06 2.566-.694 3.351-.815 1.781-.332 2.536-.393 4.619-.393 1.117 0 2.023-.03 2.023-.06 0-.211-1.872-1.087-2.657-1.238-.302-.06-.543-.121-.574-.151 0 0 .302-.393.694-.815 1.781-1.932 1.691-1.691 3.472-9.994 2.144-10.084 2.053-9.692 3.049-10.628 1.238-1.178 2.023-1.298 4.287-.664 4.046 1.178 8.001 3.834 11.141 7.578.815.966.876.936.242-.121-3.653-6.34-8.967-10.326-14.251-10.658-.936-.06-1.147.03-2.264.755-2.506 1.661-3.08 2.959-4.287 9.481l-.785 4.016-.121.543-.091-.664c-.242-1.54-1.057-2.446-3.442-3.744l-2.657-1.51c-3.563-2.113-4.921-2.838-6.31-3.291-.483-.151-1.812-.453-2.023-.453-.121 0 .121.211 1.932 1.6 6.008 4.589 9.36 7.578 9.209 8.212-.151.664-2.204 1.268-4.65 1.359-2.083.091-2.959.302-6.28 1.63-2.264.906-3.351 1.389-8.394 3.804-4.318 2.053-6.431 3.442-8.212 5.314-.785.845-.785.725.06-.513.725-1.087 1.872-2.204 2.597-2.566.694-.362.664-.362-.785-.483-1.932-.151-4.438.03-5.555.362-.634.211-.453.091.876-.604 1.842-.936 3.08-1.328 4.619-1.51 1.902-.181 2.989-.574 4.71-1.63 1.298-.785 3.834-1.842 9.058-3.744 3.895-1.419 4.076-1.449 6.612-1.449 1.147 0 2.023-.03 2.053-.06.151-.242-3.291-1.238-5.193-1.54-2.144-.332-3.714-1.238-4.831-2.778-.091-.121-.181-.181-.211-.151-.121.121.121 1.389.362 1.932.091.242-.845.272-1.57.091-.906-.242-1.63-.694-2.415-1.54-.513-.543-.574-.483-.211.272.694 1.419 1.872 2.687 3.019 3.261.393.181.423.151-1.087.755-1.812.725-3.774 1.721-5.042 2.566l-1.027.694-2.204.543c-2.566.634-4.287 1.147-5.616 1.661l-.936.362h-1.781c-2.898 0-5.012-.393-6.28-1.178l-.332-.211.211-.06c.121-.03.694-.242 1.298-.453 2.506-.876 4.801-2.053 5.767-2.959.332-.302.332-.302.121-.272-.121.03-.694.151-1.298.302-5.072 1.147-10.477 1.298-14.16.362-6.28-1.6-16.032-9.088-18.418-14.13-.332-.725-.332-.664-.06-.755 1.479-.513 3.442-.242 5.344.725.906.453 1.691.906 6.19 3.563 5.857 3.442 10.145 4.861 15.278 5.103 5.284.242 11.473-3.11 12.711-6.854 1.51-4.499-.815-10.9-4.348-11.956-.604-.181-.664-.151-.483.211 1.812 3.774-2.083 8.877-8.333 10.96-6.703 2.204-9.873 2.053-15.579-.815-4.891-2.446-8.303-3.17-10.567-2.264-.513.211-.513.181-.091-.362.966-1.298 2.083-2.053 4.68-3.14 3.11-1.298 8.061-4.016 9.631-5.254.181-.151.302-.211.302-.181 0 .151-.906 1.57-1.208 1.902-.242.242-.151.272.362.091 2.264-.815 3.744-2.415 4.318-4.65.936-3.321 2.415-6.431 3.502-7.337 1.298-1.057 3.684-2.355 5.133-2.808 1.842-.574 4.801.423 7.276 2.476 3.744 3.11 6.914 4.287 9.873 3.684l.393-.091-.06-.513c-.121-1.389.483-2.657 3.08-6.31 2.295-3.2 3.019-3.834 4.408-3.955.604-.03.634-.121.423-.574-.876-1.781-2.355-2.415-3.955-1.691-1.57.725-5.223 3.563-9.813 7.609l-1.389 1.238c-.121.121-.181.091-.664-.423a9.93 9.93 0 0 0-.845-.815c-.393-.332-.634-.091 2.355-2.385l7.005-5.435c3.321-2.566 5.133-3.351 7.216-3.08M35.956 19.748c-6.008 1.268-7.941 9.39-3.14 13.194l.634.513-.393.03c-1.147.06-3.744-.483-5.072-1.087-.906-.393.604.694 1.751 1.268 5.827 2.959 12.832 1.027 14.492-4.046 1.812-5.525-2.778-11.02-8.273-9.873m-8.695 3.653c0 .362-1.449 1.721-2.717 2.566-.876.574-2.717 1.57-2.597 1.419.393-.664 3.049-3.14 3.714-3.502.664-.332 1.6-.604 1.6-.483m-8.303 9.36c-1.238.634-1.6 1.208-1.208 1.993.211.453.604.393 1.117-.151.272-.302 1.661-2.295 1.661-2.415 0-.091-.936.242-1.57.574m13.194 23.611a22.25 22.25 0 0 0 1.932.876c.543.211.996.393.996.423.091.091-2.415 2.748-3.714 3.925-1.147 1.057-1.389 1.178-2.989 1.449-4.68.815-7.609 1.781-10.175 3.321l-.604.362.393-.423c1.57-1.63 3.895-3.049 6.069-3.744 1.027-.332 1.087-.362.785-.513-1.54-.604-4.438-.785-7.005-.453-.906.121 1.661-.876 2.808-1.087.423-.091 1.328-.121 2.929-.181l2.295-.06.453-.242c.664-.362 1.781-1.268 3.412-2.838l1.479-1.389c0 .091.423.302.936.574" fill="#b2cf49" stroke="#b2cf49" stroke-width="2"/></g><path d="M36.529 32.347c-1.598-.182-2.899-1.043-3.711-2.454-.995-1.73-1.098-3.976-.262-5.716a4.45 4.45 0 0 1 .98-1.35c.814-.802 1.584-1.161 2.967-1.385a3.81 3.81 0 0 1 1.186-.057c1.572.1 2.586.515 3.507 1.436.957.957 1.45 2.176 1.503 3.716.059 1.716-.542 3.327-1.66 4.445-.685.685-1.436 1.092-2.406 1.305-.334.073-1.658.11-2.105.059zm2.316-1.349c1.496-.315 2.51-1.189 2.866-2.47.04-.143.064-.26.054-.26a2.82 2.82 0 0 0-.273.216c-1.588 1.347-3.919 1.883-5.813 1.337-.581-.168-1.508-.663-1.759-.94-.037-.041-.091-.075-.12-.075-.073 0-.068.4.007.618.268.775 1.539 1.456 3.081 1.652a8.63 8.63 0 0 0 1.955-.079zm-.038-2.1c.754-.19 1.309-.738 1.598-1.578.041-.12.068-.225.059-.234s-.172.095-.362.232c-.761.546-1.614.856-2.43.883-.226.007-.308-.015-.846-.228-.743-.295-1.21-.433-1.559-.46-.218-.017-.28-.01-.32.039-.075.091-.023.195.195.392.516.464 1.591.906 2.472 1.018a3.97 3.97 0 0 0 1.192-.062zm-.783-1.692c.206-.198.227-.558.068-1.168-.124-.477-.135-.493-.331-.522-.236-.035-.909.046-1.103.133-.502.226-.479.718.058 1.214.492.455 1.041.599 1.308.343zm-1.389 17.27a24.71 24.71 0 0 1-4.75-.843l-1.761-.589c-.071-.071.018-.12.218-.12.279 0 1.725-.137 2.447-.232 7.067-.929 11.851-3.614 13.984-7.85a12.71 12.71 0 0 0 .345-.744c.068-.168.141-.312.162-.319.099-.033.2.441.201.946.003 1.194-.638 2.738-1.624 3.913-.351.418-.679.705-1.221 1.066-.481.32-1.057.742-1.337.978-.474.401-.161.324 1.401-.346 1.884-.808 2.525-1.028 2.99-1.028.262 0 .391.096.351.263-.125.524-1.235 1.808-2.175 2.515-1.7 1.278-3.643 2.015-6.115 2.32a32.42 32.42 0 0 1-3.115.071z" paint-order="stroke fill markers" fill="#fff" stroke="#fff" stroke-width="2.1" stroke-linejoin="round" stroke-miterlimit="3.2"/><path d="M63.824.062c7.194 1.333 7.302 10.108 5.925 15.715-.261 3.075-2.821 7.948-2.645 9.801 9.146-6.785 21.75-8.703 32.45-4.827 9.622 4.495 16.802 13.626 18.981 24.027 3.428 11.886 3.253 24.622-.363 36.442-2.715 9.834-6.885 19.343-13.194 27.415-7.049 9.852-17.922 16.999-30.042 18.538-10.691 1.584-22.798 1.381-31.944-5.042-7.123-4.996-8.872-15.366-5.072-22.886 4.442-7.223 16.716-8.115 21.256-.483 2.434 4.173 2.215 9.818-.151 13.979 11.375 1.245 24.597-4.888 27.906-16.542 1.882-7.132 3.448-14.797 1.864-22.135-1.322-4.174-.35 7.489-2.982 1.378-2.995-5.69-6.799.976-9.065 3.785-1.98 2.686-1.372-4.787-1.585-6.193-2.069-2.647-8.459 1.237-11.79 1.785-.428-3.278 6.233-6.327 3.782-8.503-3.712-1.194-4.221-1.921-.611-3.302-5.266-2.538-5.082 4.258-7.276 7.125-1.022 3.311-1.733.976-2.053-.906-.096-2.763-1.684-.349-2.204.966-1.046 1.513-1.313 3.449-2.287 4.989-1.68-2.098-1.948-4.897-2.725-7.375-2.723.682-5.155 2.149-7.699 3.231-.181-2.44.87-4.816 1.419-7.125-2.709-.341-5.18.262-5.223 3.291-1.549 4.284-4.759 7.642-8.001 10.749-.175-1.932.315-6.25-1.993-6.28-3.339 2.371-6.192 5.371-9.318 7.971-1.928-3.266 2.33-11.07-4.268-8.363-3.865.967-7.268 1.38-3.834-2.687 1.944-2.615 5.833-5.634-.211-5.767-3.224-1.485 5.221-6.112 8.061-6.28 2.807-.601 10.88-.036 4.046-2.778-6.462-3.539-13.032-8.37-15.821-15.428-1.135-5.368 4.43-8.659 8.716-10.186 4.018-1.665 5.184-7.142 9.731-8.473 2.185-.151 1.705-2.851 3.049-4.046 3.101-3.58 8.162-5.842 12.889-5.139 3.128 2.128 5.367-1.417 7.793-2.862 4.453-3.042 8.52-8.269 14.492-7.578m-2.778 4.197c-5.754 2.061-9.971 7.098-14.96 10.5 2.244 4.218 5.364-3.053 8.076-3.823 2.001-2.913 8.48-4.899 8.515-1.604-4.694-1.842-7.492 4.496-10.931 6.893-6.048 2.655 7.756 4.877.343 4.511-6-.554-10.38-9.396-16.789-5.267-6.773 1.852-4.385 11.485-10.635 13.609 2.347-4.191-4.927 2.34-7.85 2.927-2.853.64-9.761 5.54-2.849 3.834 6.458.666 11.859 6.636 18.702 4.487 5.62-.87 13.053-4.049 13.202-10.644-.828-5.118 6.52 4.504 4.761 7.428.079 6.663-7.823 10.023-13.579 9.67-8.2-.217-14.843-5.376-21.785-9.04-3.138-1.645-6.704-.009-2.922 3.002 6.079 6.87 14.616 13.112 24.279 12.186 2.487.378 11.8-2.776 5.376.6-2.854 1.007-6.547 2.507-1.327 3.123 4.707 1.248 8.861-1.524 13.368-2.272 2.239-2.649 11.692-2.93 5.016-6.447-2.183-2.615 5.479 2.445 3.8-1.192 1.708 3.1 8.18 2.353 9.034 3.946-6.459-.031-12.462 3.166-18.147 5.895-2.616 1.032-8.315 1.655-8.972 3.081 2.565-.516 9.853-1.271 4.019 2.115-4.454 5.407 8.014-5.365 4.243 1.508-1.636 5.551 4.943-8.035 4.302-.072 1.875-5.785 7.169-8.339 12.919-9.288 4.422-.32 7.753-4.078 2.563-6.543-2.282-2.108-11.919-8.622-4.074-5.092 3.915 1.108 10.396 7.295 10.886 6.913.647-5.577 2.499-16.207 10.521-12.634 4.809 1.534 9.45 6.896 11.052 10.502-3.515-4.169-8.292-7.877-13.874-8.42-5.566 2.588-3.83 10.737-5.95 15.761.646 3.845-6.26 7.188-.156 8.107-3.091-.333-14.297 1.417-5.922 1.71 5.956-.282-7.647 6.268-.172 3.545 2.405-.413 7.613-2.362 4.452 1.822-.694 2.304 5.343-5.78 5.952-.554 1.459-2.97-4.056-8.685-2.351-8.013 5.565 5.034 3.175-7.025 4.427-9.919.454-3.1-.143-13.939 1.891-5.834.302 3.147.753 6.189 2.26 9.017 2.218 2.97 1.514 10.259.479 11.539-.473-2.854-2.665-11.875-2.622-4.264-1.693 5.116 3.587 8.699 3.766 13.742 1.166 8.555-.614 17.413-3.735 25.381-6.205 13.868-24.186 19.385-37.99 14.696-6.737-.682-9.708-13.373-1.072-12.697 5.6 1.16.763 9.007-1.012 6.157 4.889-3.811-6.56-4.932-2.132.886 3.69 5.098 11.324.404 9.328-5.384.041-6.545-8.649-9.105-13.163-5.136-6.646 5.399-3.369 16.459 3.521 20.121 10.343 5.753 23.162 4.964 34.199 1.809 16.636-5.369 26.692-21.623 31.715-37.458 3.837-11.159 5.158-23.308 2.156-34.834-1.514-7.818-4.802-15.594-11.386-20.478-7.028-6.647-17.85-6.414-26.505-3.65-6.747 2.927-12.77 7.565-17.919 12.749-.333 3.029-4.754 8.998-5.646 8.484 3.72-6.273 2.615-14.022.664-20.697 3.535 1.302 3.543 12.828 5.915 4.667 3.042-7.079 6.686-14.657 5.691-22.55-.309-2.426-2.673-3.773-4.964-3.116M38.703 19.748c8.105 1.334 7.376 14.127-.65 14.936-2.829 1.248-9.686-.967-9.585-2.104 2.052.718 7.818 2.124 3.151-1.061-4.076-4.959.714-13.169 7.084-11.771zm-2.687 1.751c-6.081 1.202-5.012 11.074 1.214 10.892 6.65.433 7.671-10.33.89-11.001l-1.052-.057zm-9.36 1.963c-2.712.757-6.821 6.177-1.912 2.369.179-.111 3.968-2.888 1.912-2.369zm11.262 2.083c1.521 4.124-4.277-.277 0 0zm2.536 1.54c-1.297 4.901-9.603-1.64-3.019 1.147 1.125.023 2.169-.437 3.019-1.147zm1.298 1.208c-.969 4.428-8.503 2.844-7.971.513 2.225 2.008 5.9 1.441 7.971-.513zm-21.346 4.076c-2.576 5.479-4.546.369 0 0zm26.872 1.268c-2.567 6.957-10.85 8.957-17.523 9.311 5.244 2.033 12.407 2.634 16.851-1.442 5.752-5.907-7.684 2.223-2.093-1.698 2.178-1.203 3.59-4.745 2.765-6.171zM29.947 56.975c-1.888 4.742-10.938 2.7-11.836 4.65 3.092-.436 10.187.312 3.322 2.111-2.126 1.04-5.887 4.475-1.25 2.335 3.328-1.012 8.889-2.338 3.789 1.446-4.693 8.191 6.859-6.796 7.668-.289 1.665 3.4 2.648-7.437 6.338-8.562-2.611.056-6.063-4.072-8.031-1.691z" fill-rule="evenodd" fill="#1c341c"/></svg>