<svg xmlns="http://www.w3.org/2000/svg" width="128" height="128" viewBox="0 0 33.867 33.867" xmlns:v="https://vecta.io/nano"><defs><linearGradient id="A" x1="17.089" y1="25.389" x2="2.873" y2="11.736" gradientUnits="userSpaceOnUse"><stop stop-color="#0ff"/><stop offset="1" stop-color="#01cdfd"/></linearGradient><mask id="B" mask-type="alpha" maskUnits="userSpaceOnUse" x="47" y="0" width="43" height="42"><path fill-rule="evenodd" d="M89.641 20.973c0 11.583-9.39 20.973-20.973 20.973-6.097 0-11.586-2.601-15.418-6.754l-5.944-5.956s1.617-3.544 1.617-8.263-1.617-8.279-1.617-8.279h2.086C52.603 5.228 60.025 0 68.668 0c11.583 0 20.973 9.39 20.973 20.973zm-12.132 0c0 4.883-3.958 8.841-8.841 8.841s-8.841-3.958-8.841-8.841 3.958-8.841 8.841-8.841 8.841 3.958 8.841 8.841z" fill="url(#C)"/></mask><linearGradient id="C" x1="81.788" y1="5.821" x2="56.749" y2="38.814" gradientUnits="userSpaceOnUse"><stop stop-color="#ff52bc"/><stop offset=".516" stop-color="#c83e93"/><stop offset="1" stop-color="#861f5e"/></linearGradient><linearGradient id="D" x1="81.788" y1="5.821" x2="56.748" y2="38.814" gradientUnits="userSpaceOnUse"><stop stop-color="#ff52bc"/><stop offset=".516" stop-color="#c83e93"/><stop offset="1" stop-color="#861f5e"/></linearGradient></defs><g mask="url(#B)" transform="matrix(.508761 0 0 .508761 -11.739313 6.263086)"><path fill-rule="evenodd" d="M89.641 20.973c0 11.583-9.39 20.973-20.973 20.973-6.097 0-11.586-2.601-15.418-6.754l-5.944-5.956s1.617-3.544 1.617-8.263-1.617-8.279-1.617-8.279h2.086C52.603 5.228 60.025 0 68.668 0c11.583 0 20.973 9.39 20.973 20.973zm-12.132 0c0 4.883-3.958 8.841-8.841 8.841s-8.841-3.958-8.841-8.841 3.958-8.841 8.841-8.841 8.841 3.958 8.841 8.841z" fill="url(#D)"/><path opacity=".4" d="M47.306 20.711v-7.959l.01.004c1.467.584 2.636 1.839 3.645 2.922l.603.639 10.861 10.931.27.244c-5.976-4.116-9.292-5.791-15.39-6.782z" fill="#1e2337"/></g><path d="M10.67 6.263C4.777 6.263 0 11.04 0 16.933s4.777 10.67 10.67 10.67a10.62 10.62 0 0 0 6.263-2.031l-4.6-4.459c-.514.205-1.075.317-1.663.317a4.5 4.5 0 0 1-4.498-4.498 4.5 4.5 0 0 1 4.498-4.498c.587 0 1.148.112 1.663.317.9.358 1.579 1.212 2.162 1.812l5.526 5.561a6.99 6.99 0 0 0 .642.528 4.52 4.52 0 0 0 .479.284c.173.089.32.148.32.148s-.823-1.758-.823-4.14.823-4.14.823-4.14L18 9.358c-.818-.817-1.669-1.545-2.712-2.047-1.397-.672-2.963-1.048-4.617-1.048z" fill="url(#A)"/><path opacity=".3" fill-rule="evenodd" d="M12.327 21.12c.556 1.235 1.425 3.429 1.425 6.035a10.63 10.63 0 0 0 3.181-1.579l-4.6-4.459z" fill="#262d47"/></svg>