<svg xmlns="http://www.w3.org/2000/svg" width="128" height="128" fill="currentColor" xmlns:v="https://vecta.io/nano"><path d="M12.352 39.898v48.229c0 7.981 4.306 15.343 11.26 19.312l32.071 18.35c5.152 2.947 11.482 2.947 16.634 0l32.071-18.35c6.954-3.995 11.26-11.357 11.26-19.312V39.898c0-7.981-4.306-15.352-11.26-19.312L72.317 2.21c-5.152-2.947-11.482-2.947-16.634 0L23.612 20.56c-6.954 3.995-11.26 11.357-11.26 19.338z" fill="#dc2626"/><path d="M35.495 40.388l4.152 1.392c1.529.524 2.674 1.787 2.973 3.376l1.751 8.608c.051.223.248.369.478.369s.427-.146.478-.369l1.751-8.608a4.54 4.54 0 0 1 2.999-3.376l4.152-1.392c.197-.077.325-.249.325-.447s-.128-.369-.325-.447l-4.152-1.392c-1.529-.524-2.674-1.787-2.999-3.376l-1.751-8.608c-.051-.223-.248-.369-.478-.369s-.427.146-.478.369l-1.751 8.608c-.325 1.564-1.452 2.852-2.973 3.376l-4.152 1.392c-.197.077-.325.249-.325.447s.128.369.325.447zm21.589 60.248l-1.546-4.862c-.325-1.005-1.085-1.813-2.076-2.173-11.525-4.167-19.94-14.957-20.675-27.774-.06-.988.726-1.83 1.709-1.83h5.135a1.71 1.71 0 0 1 1.7 1.589c.812 11.864 10.671 21.262 22.674 21.262h4.126c2.281 0 3.426 2.775 1.811 4.399l-10.021 10.077a1.71 1.71 0 0 1-2.837-.687zm36.42-36.64H88.37c-.897 0-1.64-.696-1.7-1.598-.752-10.842-9.056-19.768-19.914-21.091l-3.486-.421c-2.119-.258-3.016-2.861-1.504-4.381l9.235-9.287c.94-.945 2.537-.498 2.862.79l1.29 5.12c.248.988.923 1.83 1.845 2.259 10.329 4.751 17.531 14.965 18.214 26.778.06.988-.726 1.83-1.709 1.83zM61.7 55.492l-6.246 6.281a3.29 3.29 0 0 0 0 4.629l6.246 6.281c1.271 1.278 3.332 1.278 4.603 0l6.246-6.281a3.29 3.29 0 0 0 0-4.629l-6.246-6.281c-1.271-1.278-3.332-1.278-4.603 0z" fill="#fffcf5"/></svg>