<svg xmlns="http://www.w3.org/2000/svg" fill="#000" width="128" height="128" xmlns:v="https://vecta.io/nano"><path d="M64 3.117a60.587 60.587 0 0 1 34.035 10.395 61.069 61.069 0 0 1 22.061 26.792 60.8 60.8 0 0 1-5.611 57.733 61.061 61.061 0 0 1-26.789 22.061 60.8 60.8 0 0 1-57.733-5.613A61.072 61.072 0 0 1 7.901 87.696a60.8 60.8 0 0 1 5.611-57.733A61.061 61.061 0 0 1 40.301 7.901C47.8 4.728 55.859 3.101 64 3.117zM64 0C28.653 0 0 28.653 0 64s28.653 64 64 64 64-28.653 64-64S99.347 0 64 0zm3.64 12.885a6.013 6.013 0 0 1 3.152-1.989c.827-.208 1.547-.083 2.085.624.173.229.333.112.507.027.792-.411 1.608-.453 2.301.125.435.363.736.395 1.245.16.859-.387 1.885.029 2.475.885l.293.475c.48-.192.928-.469 1.403-.541 1.347-.208 2.627-.053 3.6 1.048.205.232.339.52.528.765.061.08.213.179.285.157 1.077-.384 2.067-.101 3.04.352.851.389 1.605.891 2.125 1.707.069.109.336.168.493.144 1.627-.267 3.173-.067 4.533.88.533.371.944.917 1.371 1.413a1.64 1.64 0 0 0 .621.48c.397.168.827.365 1.107.672a21.493 21.493 0 0 1 1.648 2.101 1.76 1.76 0 0 1 .208 1.568c-.067.221.008.32.187.472.291.24.6.533.741.867a10.995 10.995 0 0 1 .869 3.88c.013.371-.192.611-.469.8-.072.048-.203.013-.309.016.008-.096-.019-.24.035-.283.592-.472.365-1.005.147-1.549l-.779-1.949a2.427 2.427 0 0 0-.445-.675c-.312-.333-.656-.32-.997-.035l-.803.613c-.475.325-.523.296-.584-.357-8.589 3.541-16.368 8.365-23.587 14.267.592.483 1.155.763 1.792.64 1.357-.259 2.696-.605 4.053-.888.96-.2 1.931-.355 2.896-.533.128-.021.248-.069.357-.136l3.813-2.549a119.256 119.256 0 0 1 4.045-2.552 30.003 30.003 0 0 1 8.661-3.485c.365-.083.72-.2 1.083-.301.339-.096.571-.075.853.259a13.136 13.136 0 0 1 1.792 2.72c.491 1.013.728 2.093.885 3.208.157 1.125-.027 2.195-.363 3.248a1.216 1.216 0 0 1-.48.616c-.451.275-.805.045-.853-.48-.008-.117-.035-.277-.117-.341-.653-.533-.968-1.285-1.261-2.027-.304-.768-.493-1.581-.733-2.373a2.288 2.288 0 0 0-.112-.245c-.555.248-1.091.509-1.635.728l-5.227 2.027-3.619 1.413a1.605 1.605 0 0 0-.709.672c-.288.52-.493 1.085-.72 1.637-.528 1.307-1.531 2.189-2.648 2.981-1.227.869-2.472 1.715-3.499 2.832-.827.891-1.371 1.92-1.325 3.179.021.624.165 1.219.539 1.755.837 1.2 1.653 2.416 2.093 3.845.36 1.168.619 2.347.235 3.547a12.03 12.03 0 0 1-.893 2.027c-.555 1.019-1.093 2.04-1.168 3.219-.027.379.064.771.133 1.147a10.07 10.07 0 0 0 1.808 4.259c.584.787 1.285 1.485 1.901 2.253.757.949 1.48 1.931 2.219 2.896a13.555 13.555 0 0 1 2.651 5.901 27.1 27.1 0 0 1 .427 4.12c.029 1.112-.104 2.235-.587 3.293-.235.504-.208 1.117-.392 1.648-.427 1.24-.864 2.469-.987 3.784-.107 1.133-.072 2.261.363 3.331.197.485.611.8 1.064 1.04.08.037.173.043.261.016.355-.131.747-1.045.581-1.397l-1.512-3.2c-.072-.157-.096-.339-.171-.624.205.091.299.107.352.155.872.885 1.829 1.68 2.544 2.72 1.013 1.483 1.312 2.963.131 4.635.32 0 .565-.011.805.005.091.005.176.08.267.123-.048.08-.075.208-.144.24-.736.344-1.445.821-2.296.755-.411-.032-.805-.235-1.208-.36-.253-.08-.512-.253-.755-.235-1.557.131-3.099-1.051-3.584-2.611-.56-1.784-.605-3.587-.293-5.379.32-1.859.835-3.683 1.267-5.52.235-.995.221-.944-.715-1.243-.781-.245-1.163.275-1.611.667-1.379 1.205-2.339 2.712-2.976 4.408-.499 1.333-.96 2.688-1.288 4.069-.187.797-.085 1.667-.083 2.507 0 .632.04 1.267.088 1.899l.299 3.707c.037.48.08.957.085 1.435l.173 8.32c.005.187.163.432.325.552l3.733 2.72c.107.08.157.227.235.344-.147.013-.301.067-.437.032-.853-.216-1.691-.488-2.549-.677-2.893-.64-5.677-1.611-8.432-2.675A29.515 29.515 0 0 0 68 112.052a165.781 165.781 0 0 0-4.835-.693c-.677-.085-1.368-.061-2.053-.091l-5.509-.24-4.181-.235c-1.984-.147-3.984-.125-5.933-.608-.048-.013-.112-.005-.149-.035-.133-.101-.261-.216-.389-.325.136-.08.267-.2.413-.224 1.44-.227 2.883-.475 4.328-.64 1.349-.155 2.707-.229 4.053-.317l4.224-.24 3.989-.227c1.021-.048 2.053-.139 3.067-.064 2.557.189 5.088.552 7.547 1.333 1.587.504 3.093 1.187 4.573 1.936.067.035.139.053.283.107l-.675-1.573c-.92-2.283-1.939-4.533-2.72-6.859-.653-1.941-1.072-3.968-1.512-5.973-.379-1.731-.648-3.48-.952-5.224-.053-.293-.189-.269-.408-.213-.811.216-1.619.453-2.443.613-1.387.28-2.781.165-4.165-.083-2-.36-3.765-1.267-5.312-2.541-2.083-1.715-3.411-3.947-4.024-6.581-.48-2.067-.48-4.131.125-6.179.107-.357.027-.544-.28-.76-.683-.48-1.341-.987-2.192-1.125-.061-.011-.123-.008-.235-.016.205.536.427 1.027.584 1.539a50.26 50.26 0 0 1 .717 2.571c.085.347-.059.445-.371.288-.747-.381-1.48-.808-2.24-1.16-.48-.224-1.013-.352-1.496-.517.197.739.421 1.403.544 2.08.091.504.024 1.035.064 1.549.019.251.12.493.195.736.08.259.219.507.243.768.019.181-.059.464-.189.541-.157.091-.448.08-.613-.011-.261-.141-.467-.389-.72-.611-.037.069-.067.144-.093.219a15.557 15.557 0 0 1-1.613 3.819c-.333.568-.363 1.147-.323 1.76.048.736.128 1.469.139 2.205.021 1.637.045 3.275-.005 4.912-.051 1.587-.197 3.173-.293 4.76a22.976 22.976 0 0 1-1.357 6.395l-1.552 4.107c-.051.128-.165.229-.251.344l-.107-.032a1.627 1.627 0 0 1-.061-.355c.069-1.421.083-2.848.235-4.261.227-2.107.573-4.197.835-6.299.168-1.36.272-2.728.408-4.088.096-.952.256-1.899.285-2.853.043-1.387.147-2.784-.632-4.075-.44-.725-.693-1.557-1.059-2.339-.768-1.635-1.616-3.219-2.92-4.509-.725-.714-1.637-.954-2.613-1.037-.272-.021-.693-.013-.403-.515a.085.085 0 0 0 .005-.072c-.368-.443.027-.664.288-.875.549-.451 1.133-.859 1.693-1.28-.373-.069-.784-.123-1.181-.221-.68-.163-1.213-.544-1.472-1.211-.08-.197-.085-.555.035-.667s.493-.107.669 0c.944.552 1.893.467 2.837.064a28.02 28.02 0 0 0 2.701-1.283c.52-.291.949-.747 1.491-1.184-.504-.149-.899-.251-1.28-.389a2.264 2.264 0 0 1-1.32-1.141c-.059-.12.008-.304.016-.461.112.048.224.099.341.133.229.08.464.147.701.2.88.168 1.675.027 2.416-.533.549-.413 1.187-.712 1.787-1.061a.48.48 0 0 0 .147-.117l1.723-2.477c-1.488-.312-2.416-1.165-2.787-2.563-.155-.584-.205-1.211.187-1.76.328-.459.973-.648 1.456-.376.165.093.301.336.347.533.053.248-.139.373-.384.451a.42.42 0 0 0-.195.363 2.088 2.088 0 0 0 1.248 1.493.78.78 0 0 0 .48.011c.677-.187 1.227-.517 1.491-1.235.221-.605.517-1.184.771-1.781.24-.573.624-.885 1.067-.867.349.016.549.195.515.539a4.933 4.933 0 0 1-.224 1.091c-.539 1.571-1.357 2.997-2.315 4.344l-3.528 4.88c-.4.533-.955.949-1.44 1.416l.08.091c.437-.336.896-.648 1.312-1.008L50.83 71.1c.28-.251.576-.485.867-.72 1.029-.819 1.824-1.851 2.48-2.96.64-1.093 1.16-2.256 1.72-3.395a7.65 7.65 0 0 0 .344-.901c.032-.093.013-.203.021-.419-.979.781-1.715.227-2.493-.213-.701-.4-1.445-.728-2.171-1.085l-.08.112c.093.299.259.597.256.896 0 .371-.133.744-.232 1.112-.013.048-.157.109-.219.091a.248.248 0 0 1-.133-.203c.077-.533-.312-.773-.659-1.005a6.477 6.477 0 0 0-2.597-.987c-1.787-.299-3.824 1.176-4.04 2.963-.077.635.115 1.173.683 1.547.355.235.707.48 1.04.744.792.624 1.032 1.475.885 2.427-.128.837-.733 1.32-1.664 1.421-1.629.176-3.365-1.048-3.752-2.643a1.893 1.893 0 0 1 .333-1.659c.261-.339.072-.64.035-.96-.005-.035-.176-.088-.261-.072-1.243.208-2.136.827-2.469 2.104a2.632 2.632 0 0 0 .245 1.851c.427.859.971 1.648 1.44 2.48.224.392.477.795.571 1.227.221 1.029-.08 1.688-1.013 2.192a3.051 3.051 0 0 1-2.941.043c-.848-.44-1.155-1.197-.947-2.131.197-.883.56-1.648 1.517-1.973l-.613-1.336c-.027-.056-.173-.099-.245-.08-1.387.355-2.72 2.064-2.656 3.485.027.539.224 1.072.347 1.637l.349-.112c.205-.061.363.048.259.221-.357.597.035 1.013.307 1.448a11.46 11.46 0 0 0 .893 1.227c.483.576.725 1.211.637 1.968-.053.453-.595.933-1.171.973a2.032 2.032 0 0 1-.843-.08c-1.061-.411-2.104-.875-2.517-2.072-.285-.829-.125-1.613.381-2.32.144-.197.187-.347.085-.589-.467-1.141-.683-2.312-.339-3.531.096-.347.24-.677.373-1.048-.229-.088-.435-.155-.635-.248-1.147-.517-1.824-1.451-2.32-2.563a7.728 7.728 0 0 0-.651-1.197c-.389-.571-1.6-.76-2.203-.36s-1.248.533-1.949.499c-.147-.008-.325.088-.44.187-.765.672-.987 1.587-1.099 2.544-.133 1.133.229 2.12 1.005 2.917a4.707 4.707 0 0 0 2.829 1.421c.32.04.533-.197.56-.56.08-1.072-.701-1.92-1.808-1.949a24.016 24.016 0 0 0-1.093 0c-.256 0-.365-.067-.317-.373.16-.981.968-1.467 1.949-1.411 1.68.101 3.048 1.976 2.971 3.405-.043.773-.187 1.456-.755 2.093.483.08.896.131 1.301.213a12.79 12.79 0 0 1 1.128.293 1.07 1.07 0 0 1 .379.253c.053.048.088.203.059.232a.42.42 0 0 1-.261.08c-.787 0-1.573-.032-2.355-.013-.555.013-1.107.107-1.661.133-1.387.069-2.149 1.192-1.741 2.531.344 1.117 1.136 1.824 2.069 2.424.619.395 1.275.707 2.032.685a3.07 3.07 0 0 0 .76-.133c.579-.168.8-.651.528-1.187-.253-.501-.635-.835-1.256-.813-.656.021-1.315.005-1.973.008-.293 0-.349-.115-.232-.389.419-.973 1.027-1.376 2.12-1.376 1.581 0 2.744.877 3.048 2.435.272 1.403-.2 2.405-1.568 2.907a4.237 4.237 0 0 1-3.221-.104c-1.373-.589-2.544-1.451-3.341-2.747a2.443 2.443 0 0 1-.32-.667c-.197-.8-.76-1.088-1.509-1.288-.981-.261-1.872-.085-2.747.32-1.08.499-1.456 1.584-.973 2.72.68 1.595 2.421 3.067 4.664 2.805a1.84 1.84 0 0 0 .627-.192c.525-.28.595-.885.171-1.299-.701-.683-1.424-.795-2.299-.36-.08.04-.163.083-.248.117-.325.128-.427.051-.376-.299.173-1.253.96-1.792 2.176-1.448 1.024.293 1.888.827 2.251 1.899.347 1.035-.283 2.317-1.325 2.605-1.845.512-3.563.192-5.021-1.077a6.528 6.528 0 0 1-1.408-1.637c-.885-1.557-.901-3.093.56-4.453-.149-.037-.28-.083-.413-.107-.187-.027-.304.011-.347.245-.187 1.067-.701 1.968-1.44 2.747-.627.656-1.261 1.299-2.173 1.512-.387.099-.787.128-1.181.088-.661-.08-.952-.659-.701-1.288a2.3 2.3 0 0 1 .224-.453c.469-.667.6-1.413.571-2.216-.032-.864-.011-1.731-.005-2.597 0-.227.035-.453.059-.747l-.395.245a3.651 3.651 0 0 1-2.235.667c-.664-.027-1.048-.595-.787-1.219.141-.333.373-.64.453-.987a19.04 19.04 0 0 0 .32-1.981c.109-.883.187-1.771.277-2.669-.181.061-.427.176-.68.221a6.21 6.21 0 0 1-2.621-.08c-.747-.181-.936-.816-.475-1.435.445-.6.965-1.168 1.077-1.952.08-.547.08-1.112.179-1.656.157-.837.261-1.704.837-2.395.179-.216.384-.411.6-.64a3.77 3.77 0 0 1-.739-2.507c.109-1.747.725-3.235 2.357-4.107.32-.173.712-.229 1.077-.293a.3.3 0 0 0 .309-.301c.144-.813.232-1.651.501-2.419.667-1.915 2.507-2.661 4.339-1.963.701.267 1.344.701 2.043 1.08a6.69 6.69 0 0 0 .485-.605c.04-.056-.013-.245-.077-.293-.192-.125-.419-.2-.624-.309-.861-.488-1.203-1.307-1.291-2.227-.168-1.741.827-2.739 2.211-3.315.267-.109.275-.256.256-.475-.077-.901-.232-1.808-.2-2.704.067-1.725.352-3.413 1.149-4.987a19.155 19.155 0 0 1 3.352-4.741 10.968 10.968 0 0 1 2.613-2.005c.757-.413 1.44-.971 2.181-1.419.347-.195.72-.336 1.107-.421.291-.075.243-.261.245-.445.013-.725.115-1.419.555-2.027.453-.632 1.485-1.04 2.125-.808.192.067.36.192.581.312.04-.133.059-.288.133-.408.312-.517.581-1.077.973-1.525 1.467-1.68 3.347-2.816 5.291-3.84a112.16 112.16 0 0 1 4.589-2.296c1.36-.643 2.747-1.224 4.128-1.821.795-.347 1.584-.72 2.403-.997.925-.312 1.893-.437 2.859-.165a3.54 3.54 0 0 1 .875.411c.283.168.448.435.381.787s-.341.477-.64.547c-.312.072-.648.072-.952.165-1.013.32-2.043.595-3.011 1.013a217.52 217.52 0 0 0-6.4 2.928 56.792 56.792 0 0 0-3.173 1.659c-1.213.669-2.432 1.336-3.6 2.085-.685.44-1.285 1.029-1.901 1.573-.133.12-.187.336-.256.517a.267.267 0 0 0 .035.24c.048.04.176.021.245-.013a3.01 3.01 0 0 0 .453-.296c1.56-1.243 3.339-2.139 5.027-3.179 3.323-2.045 6.912-3.568 10.381-5.328a10.03 10.03 0 0 1 1.669-.64c.312-.093.656-.043.981-.091a.97.97 0 0 0 .432-.208c.216-.173.411-.376.613-.568.069-.067.187-.131.2-.208.16-.987.901-1.488 1.651-1.955 1.208-.76 2.565-1.093 3.968-1.248.541-.059 1.083-.152 1.621-.141 1.403.019 2.765.24 3.904 1.168a.65.65 0 0 0 .136.043zm-40.533 34.76l.019-.117a4.7 4.7 0 0 1 .613-.024c.333.027.667.101.997.133a17.947 17.947 0 0 1 4.36.925c2.213.771 4.392 1.648 6.611 2.419a61.96 61.96 0 0 1 7.893 3.283c1.856.947 3.651 2.019 5.467 3.045.573.323 1.128.675 1.747 1.048l-.181-1.493a1.563 1.563 0 0 1-1.557-.253 74.955 74.955 0 0 1-2.592-2.104l-4.456-3.931c-.453-.408-.872-.859-1.299-1.291-1.131-1.157-2.304-2.28-3.379-3.488-1.259-1.424-2.432-2.928-3.648-4.392-1.76-2.123-3.117-4.496-4.339-6.944a19.504 19.504 0 0 1-1.957-6.229c-.181.189-.323.331-.453.48-.605.693-1.184 1.413-1.816 2.077-.381.4-.869.701-1.272 1.08-1.12 1.072-2.008 2.32-2.837 3.632-1.176 1.864-1.835 3.859-1.779 6.056.027.976.2 1.949.355 2.92.171 1.075-.163 1.699-1.096 1.883-.253.048-.525.019-.768.099-.357.115-.747.235-1.029.461-.421.347-.336 1.088.08 1.36.629.411 1.235.859 1.888 1.227.979.552 1.965 1.112 2.997 1.552a43.285 43.285 0 0 0 4.187 1.56c2.141.659 4.315 1.211 6.469 1.821 1.12.32 2.224.707 3.352.987 1.645.408 3.315.72 4.96 1.12 1.8.44 3.6.88 5.368 1.427 1.752.541 3.501 1.112 5.16 2-.08-.387-.213-.68-.595-.853l-3.093-1.467-5.272-2.395c-1.72-.72-3.477-1.355-5.227-2l-4.728-1.68a161.64 161.64 0 0 1-5.352-2.107c-1.208-.507-2.381-1.093-3.568-1.645a1.25 1.25 0 0 1-.229-.181zm60.339 38.221c0-.248.032-.4-.005-.525-.261-.88-.408-1.821-.835-2.613a24.048 24.048 0 0 0-2.333-3.573c-1.019-1.283-2.197-2.443-3.307-3.653-.856-.939-1.768-1.829-2.56-2.819-1.013-1.275-2.027-2.549-2.699-4.067-.851-1.912-.992-3.885-.667-5.893.224-1.365.619-2.699.912-4.051.181-.827.435-1.664.125-2.517-.139-.379-.291-.747-.443-1.12-.48-1.168-.917-2.344-.805-3.645.016-.197 0-.4 0-.6a1.739 1.739 0 0 0-.304.467c-.688 1.456-1.869 2.32-3.405 2.635-1.019.213-2.075.248-3.12.347a8.22 8.22 0 0 1-.811 0c.195 1.013.443 1.981.544 2.96.072.685-.048 1.387-.107 2.08-.008.085-.165.155-.253.24a1.37 1.37 0 0 1-.179-.293c-.112-.368-.155-.765-.32-1.107a21.101 21.101 0 0 0-1.035-1.872c-.365-.597-.675-1.264-1.427-1.504-.051-.016-.067-.128-.101-.195-.053-.099-.085-.227-.168-.293-.453-.365-.896-.749-1.384-1.064-.861-.552-1.8-.725-2.712-.155-1.797 1.12-2.632 2.56-2.365 4.653a14.757 14.757 0 0 0 2.24 6.08c.923 1.459 1.899 2.88 2.867 4.307.563.827 1.179 1.621 2.011 2.197.365.253.8.533 1.216.552.576.027 1.096-.307 1.627-.792-.416.032-.72.067-1.027.069-.4.005-.813.051-1.192-.043-.499-.12-.869-.8-.795-1.288.091-.595.624-1.109 1.237-1.093.931.024 1.861.08 2.787.173.333.035.608.069.843-.211a.272.272 0 0 1 .235-.056c.037.008.064.128.069.2 0 .075-.008.149-.024.224l2.037.795c2.52 1.013 4.368 2.821 5.773 5.075 1.139 1.816 1.573 3.875 1.637 6 .024.693-.112 1.389-.155 2.088-.008.115.053.293.141.341.781.432 1.56.885 2.373 1.248 1.16.517 2.347.973 3.528 1.44l2.333.872zm-20.267 4.432c.459-.061 1.131-.107 1.787-.24a10 10 0 0 0 4.509-2.155c1.296-1.083 2.333-2.349 2.963-3.928.187-.469.149-.48-.288-.749-1.333-.824-2.715-1.589-3.957-2.533-1.725-1.312-3.208-2.901-4.515-4.64-.72-.96-1.301-1.997-1.552-3.187a.34.34 0 0 0-.36-.32c-.243-.027-.485-.067-.725-.125a7.733 7.733 0 0 1-2.819-1.352c-.251-.184-.443-.264-.701-.011-.221.219-.512.363-.725.584a1.675 1.675 0 0 0-.32.576c-.168.453-.267.941-.483 1.371s-.515.504-.973.36c-.309-.099-.52-.048-.667.253-.421.845-.944 1.653-1.253 2.533a9.968 9.968 0 0 0 1.728 9.637c2.107 2.56 4.845 3.8 8.347 3.925h.003zM86.23 40.629l-.053-.096c-.328.048-.659.109-.989.141a32.96 32.96 0 0 0-5.664 1.123 18.72 18.72 0 0 1-2.768.581c-1.325.163-2.453-.381-3.459-1.211-.427-.352-.845-.731-1.432-.811-.947-.133-1.896-.309-2.851-.131-.645.12-1.36.099-1.837.696a.248.248 0 0 1-.24.019c-.067-.053-.133-.197-.107-.259.139-.288.259-.605.475-.827.547-.544 1.24-.843 1.984-1.013a7.813 7.813 0 0 1 3.163-.027.672.672 0 0 0 .501-.123c1.077-.933 2.075-1.963 3.211-2.805 1.68-1.253 3.421-2.443 5.203-3.547a126.72 126.72 0 0 1 6.328-3.661c1.427-.781 2.827-1.589 4.109-2.581.923-.709 1.813-1.467 2.685-2.235.547-.48 1.037-1.021 1.227-1.763.325-1.299-.293-2.251-1.179-3.059-.765-.701-1.757-.979-2.728-1.267-.227-.069-.461-.117-.72-.184v.336a1.85 1.85 0 0 0 .011.272c.179 1.171-.059 2.261-.544 3.323-.6 1.317-1.459 2.456-2.443 3.488-1.101 1.152-2.213 2.307-3.424 3.333a39.059 39.059 0 0 1-4.203 3.133c-2.427 1.547-4.933 2.963-7.405 4.437a102.832 102.832 0 0 0-2.712 1.675c-.587.379-1.147.8-1.728 1.189-.088.059-.235.027-.352.037.027-.104.027-.227.083-.312.613-.819 1.171-1.685 1.864-2.432 1.451-1.568 3.32-2.597 5.104-3.723 2.072-1.307 4.197-2.523 6.16-4a35.301 35.301 0 0 0 5.888-5.576c1.085-1.299 2-2.715 1.779-4.536a2.152 2.152 0 0 0-.373-.992c-.6-.795-1.483-1.24-2.328-1.715-.232-.133-.552-.133-.88-.208.051.419.115.736.12 1.056.035 1.637-.517 3.099-1.352 4.475a16.291 16.291 0 0 1-3.328 3.928c-1.384 1.189-2.755 2.403-4.227 3.48-2.405 1.76-4.872 3.429-7.067 5.467-1.435 1.336-2.875 2.661-3.893 4.368a1.715 1.715 0 0 0-.219.72c-.072.837-.107 1.675-.157 2.515l-.064 1.379.512-.392c1.779-1.36 3.637-1.48 5.579-.365.573.328 1.171.624 1.76.923s1.208.432 1.875.253c2.677-.72 5.413-1 8.179-1.013 1.235-.011 2.043-.813 2.923-1.485zM63.609 50.33c-.069-.301-.149-.571-.195-.845-.299-1.771-.661-3.536-.859-5.317a37.04 37.04 0 0 1-.168-4.501c.035-2.563.139-5.128.235-7.691.027-.773.091-1.547.165-2.32l.368-3.315.408-3.936a190.4 190.4 0 0 1 .459-3.888c.141-1.08.299-2.16.843-3.133.187-.333.397-.656.608-1-.08-.043-.139-.083-.205-.117-.787-.4-1.653-.435-2.501-.453-1.6-.035-3.125.384-4.613.933-.293.109-.571.261-.912.421a1.589 1.589 0 0 1 .656 1.549l-.448 4.435c-.115 1.403-.235 2.816-.229 4.221a206.56 206.56 0 0 0 .16 8.128c.061 1.493.245 2.987.451 4.472.251 1.845.515 3.691.888 5.515.411 2.016.955 4.005 1.435 6.005.053.219.112.32.381.312a8.99 8.99 0 0 1 1.693.08c.453.069.891.28 1.379.445zm14.819 34.043c-.051.101-.115.227-.168.355a13.448 13.448 0 0 1-2.712 4.139 10.917 10.917 0 0 1-3.365 2.347c-.267.117-.352.256-.227.533.115.259.197.533.296.8l3.067 8.315c1.355 3.616 2.667 7.251 3.656 10.981.264.992 1.096 1.112 1.728 1.573a1.264 1.264 0 0 0-.053-.451l-1.56-5.485c-.512-1.901-.931-3.821-.981-5.8-.013-.568-.067-1.136-.077-1.707-.027-1.147-.181-2.315-.027-3.437.259-1.915.765-3.781 1.792-5.464.845-1.381 1.675-2.776 2.84-3.923.381-.373.808-.701 1.147-.997zm-23.2-30.448h-.608c-1.683 0-2.213-.853-2.584-2.229-.08-.291-.144-.464-.432-.603-1.011-.485-1.645-1.267-1.781-2.416-.016-.128-.168-.291-.293-.341-1.085-.443-1.707-1.181-1.653-2.408.005-.117-.133-.301-.251-.349a3.491 3.491 0 0 1-2.085-3.587c-.931-.072-1.731-.405-2.027-1.387-.261-.872-.272-1.755.173-2.613-.949.091-1.848.128-2.525-.728-.629-.797-.675-1.669-.44-2.667-1 .136-1.315-.581-1.685-1.224-.384-.669-.379-1.408-.32-2.16-1.048-.141-1.675-.747-1.931-1.731-.24-.939-.139-1.835.568-2.661-1.083.405-1.869.299-2.32-.325-.16-.216-.288-.453-.384-.707-.157-.413-.504-.64-.789-.44-.427.299-.72.672-.736 1.248-.037 1.413.283 2.763.779 4.053s1.099 2.544 1.72 3.781c.933 1.856 1.995 3.635 3.317 5.248l2.973 3.587c.915 1.075 1.813 2.165 2.8 3.173 1.312 1.344 2.688 2.629 4.059 3.912.779.736 1.605 1.429 2.424 2.125.749.637 1.52 1.248 2.28 1.869l1.293 1.085.459-1.509zm10.467-17.379c.08-.12.112-.157.133-.2.997-1.907 2.171-3.691 3.835-5.085a72.565 72.565 0 0 1 4.299-3.389c1.933-1.379 3.856-2.763 5.611-4.365 1.36-1.248 2.576-2.637 3.453-4.277.565-1.059 1-2.171.773-3.416-.104-.573-.304-1.112-.8-1.467-.792-.565-1.685-.739-2.651-.643-.312.029-.419.128-.32.437.323 1.019.115 2.013-.253 2.96-.597 1.544-1.56 2.875-2.696 4.053-1.872 1.949-3.936 3.675-6.096 5.301-1.227.925-2.381 1.955-3.539 2.971-.48.419-1.003.827-1.101 1.547l-.56 3.792c-.077.56-.061 1.125-.091 1.779zm11.003 13.467c-.432.176-.821.309-1.184.501a.467.467 0 0 0-.2.379c.184 1.181.608 2.312 1.245 3.323a5.763 5.763 0 0 1 .781 4.395 120.763 120.763 0 0 0-.973 5.019 7.26 7.26 0 0 0 .261 3.413c.683 2.16 2.12 3.84 3.517 5.536.381.467.856.861 1.264 1.307l1.653 1.856c.96 1.088 1.947 2.147 2.861 3.275a14.907 14.907 0 0 1 2.501 4.413 6.773 6.773 0 0 1 .331 3.595c-.187.965-.429 1.92-.667 2.872-.531 2.109-1.141 4.205-.968 6.419.069.891.253 1.752.667 2.539.307.581.835.949 1.533 1.157-.213-.467-.416-.859-.573-1.264-.435-1.139-.827-2.283-.827-3.533 0-1.733.421-3.368 1.12-4.923.781-1.728 1.085-3.512.568-5.323-.421-1.472-1.043-2.896-1.667-4.304-.949-2.141-2.504-3.888-3.933-5.709-1.021-1.304-2.112-2.555-3.123-3.864a16.208 16.208 0 0 1-2.531-4.832c-.461-1.392-.544-2.816-.125-4.24a60.267 60.267 0 0 1 1.043-3.253c.568-1.573.339-2.96-.768-4.227a8.064 8.064 0 0 1-1.021-1.461 6.048 6.048 0 0 1-.789-3.067zM84.2 43.88c-.493.085-.992.035-1.317.493-.149.211-.328.4-.493.6-1.099 1.307-2.352 2.384-4.099 2.693-.267.048-.36.195-.44.419-.117.341-.275.669-.389 1.013a1.333 1.333 0 0 0-.107.613c.288 1.651 1.136 3 2.256 4.219a4.779 4.779 0 0 1 1.28 3.093c.067 1.456-.517 2.763-.941 4.101-.379 1.189-.768 2.365-.517 3.64.312 1.6.968 3.072 1.832 4.427.653 1.021 1.459 1.947 2.213 2.896l2.867 3.52c.896 1.112 1.795 2.219 2.405 3.52l1.336 2.747c.096-.64-.736-3.253-1.224-4.013l-1.901-2.928a25.36 25.36 0 0 0-3.045-3.821 5.83 5.83 0 0 1-.645-.821 12.363 12.363 0 0 1-1.739-4.336c-.195-.971-.203-1.939.144-2.864.365-.981.813-1.933 1.245-2.891.427-.944.667-1.92.395-2.941a7.72 7.72 0 0 0-1.341-2.744c-.419-.544-.835-1.091-1.216-1.661-.709-1.061-.885-2.24-.701-3.493a5.995 5.995 0 0 1 2.085-3.749c.656-.579 1.341-1.131 2.056-1.731zM21.92 70.251l.021-.365c.077-.96.187-1.909.688-2.763.147-.256.453-.541.411-.755-.051-.24-.421-.408-.64-.624a7.149 7.149 0 0 1-1.912-3.2c-.067-.229-.165-.336-.408-.384a8.621 8.621 0 0 0-2.853-.152c-.904.12-1.733.355-2.496.88s-1.376 1.147-1.547 2.091c-.227 1.264-.011 2.419.843 3.421s1.888 1.517 3.216 1.36a1.03 1.03 0 0 0 .917-.736c.133-.389-.096-.664-.341-.928-.501-.544-1.179-.728-1.848-.944-.243-.08-.467-.235-.693-.355.221-.203.443-.411.672-.605.067-.04.141-.067.219-.08.883-.253 1.643.027 2.317.576.835.68 1.472 1.605.96 2.939-.021.069-.029.144-.029.219zm9.056-9.365c.035 0 .069-.008.101-.016a1.29 1.29 0 0 0 .168-.101c1.403-1.059 2.971-1.283 4.64-.891.392.093.539 0 .677-.355a2.443 2.443 0 0 1 2.357-1.587c.659.016 1.315.096 1.971.157.077.008.149.107.224.16-.072.061-.133.144-.219.173-.56.195-1.141.341-1.683.573a1.768 1.768 0 0 0-1.08 1.379.63.63 0 0 0 .251.677c.789.643 1.355 1.427 1.36 2.501 0 .227.112.275.315.293a8.01 8.01 0 0 1 1.069.155c.235.053.333.019.368-.235.149-1.077.661-1.976 1.419-2.747.859-.869 1.944-1.296 3.163-1.563l-.789-.245-6.309-1.813-7.533-2.336a1.064 1.064 0 0 0-.707.016c-.816.427-1.419 1.643-.459 2.568.389.376.811.723 1.213 1.088l1.005.931-.037.104-1.611.211.125.901zm10.629-26.392c.056.741.227 1.32.648 1.765a1.05 1.05 0 0 0 .72.28c.296-.027.581-.133.827-.304.8-.544 1.576-1.131 2.368-1.693 1.675-1.2 3.328-2.435 5.043-3.573 1.104-.736 2.152-1.6 3.485-1.933a.312.312 0 0 0 .173-.243l-.053-2.565c-.008-.427-.107-.517-.515-.395-.373.112-.757.227-1.083.427a69.683 69.683 0 0 0-2.853 1.811 183.728 183.728 0 0 0-3.872 2.672l-4.579 3.347c-.157.112-.248.315-.309.405zm-3.899-6.635c.171.347.392.853.669 1.325.064.104.371.155.509.099a4.54 4.54 0 0 0 .936-.539c1.403-1 2.765-2.056 4.195-3.019a258.333 258.333 0 0 1 6.773-4.416c1.189-.755 2.451-1.373 3.92-1.32.259.011.336-.115.339-.355a7.49 7.49 0 0 1 .067-.811c.053-.461-.224-.725-.672-.589-.928.28-1.888.504-2.768.899a127.459 127.459 0 0 0-5.749 2.752c-1.571.8-3.099 1.68-4.632 2.549a66.589 66.589 0 0 0-2.696 1.619c-.576.36-.816.941-.888 1.8v.005zm39.28 53.013l.139-.077-.117-2.048a5.35 5.35 0 0 0-.195-1.027c-.632-2.16-1.667-4.075-3.477-5.485-1.12-.875-2.333-1.589-3.752-1.869-.107-.021-.312.059-.347.141-.264.645-.603 1.227-1.2 1.659 2.443 3.499 5.624 6.179 8.952 8.704v.003zm-51.133-5.611c-.339-.157-.613-.272-.869-.413-1.379-.747-2.347-1.84-2.848-3.347a.488.488 0 0 0-.352-.272c-.968-.048-1.939-.077-2.909-.085-1.8-.008-2.976.968-3.251 2.749-.133.896-.048 1.688 1.003 2.283a5.341 5.341 0 0 0 3.587.656 2.435 2.435 0 0 0 .875-.397c.251-.16.416-.461.285-.739a1.075 1.075 0 0 0-.56-.501 1.547 1.547 0 0 0-.837-.027c-.539.128-1.061.328-1.595.488-.085.024-.189-.011-.285-.019a.87.87 0 0 1 .024-.259c.493-1.232 1.253-1.979 2.856-1.723.891.144 1.536.592 1.795 1.453s.077 1.635-.576 2.28c-.085.083-.157.179-.195.219l2.04 1.013c-.112-.635.019-1.291.304-1.933.299-.661.821-1.075 1.509-1.429zm41.483-48.595l.085.056c.165-.141.325-.285.496-.419 2.301-1.848 4.733-3.531 6.899-5.552 1.387-1.293 2.616-2.696 3.488-4.384.507-.984.579-2.003.008-3.011a1.408 1.408 0 0 0-1.459-.747c-.28.032-.341.163-.339.405 0 .363.027.736-.037 1.088a7.459 7.459 0 0 1-1.515 3.331 40 40 0 0 1-2.515 2.907c-1.141 1.181-2.363 2.285-3.539 3.435-.432.421-1.091.635-1.213 1.349-.093.515-.24 1.024-.36 1.539zM45.013 79.68c-.013-.227-.04-.499-.035-.765 0-.056.12-.149.189-.157a.251.251 0 0 1 .203.136c.181.669.755.864 1.301 1.04.904.291 1.824.523 2.747.779-.016-.125-.045-.285-.061-.448-.144-1.341-.533-2.549-1.68-3.408-.453-.341-.576-.4-1.059-.128-1.872 1.059-3.72 2.163-5.776 2.851-.592.197-1.157.467-1.733.709.005.035.016.067.027.099 1.107-.139 2.112.149 2.912.893a11.264 11.264 0 0 1 1.725 1.989 19.141 19.141 0 0 1 2.293 4.72c.016-.368.043-.635.037-.901-.019-.899.021-1.811-.088-2.701-.144-1.168-.8-2.184-1.227-3.264-.203-.517-.373-1.048-.544-1.579-.027-.083.024-.192.04-.291.091.024.197.024.272.075.184.125.349.272.453.355zm9.893-56.76h-.013v-.587c-.008-.421-.096-.525-.48-.376-.784.299-1.581.589-2.312 1-1.04.581-2.027 1.261-3.032 1.901l-3.8 2.427-4.968 3.408c-.459.312-.552.469-.419 1a5.2 5.2 0 0 0 .347.984c.269.571.389.616.896.221 1.104-.856 2.187-1.747 3.261-2.635.989-.813 1.939-1.677 2.96-2.448 1.173-.88 2.392-1.688 3.6-2.515.96-.653 1.987-1.168 3.141-1.395.256-.051.64 0 .747-.152.136-.2.059-.549.072-.835zM44.48 38.616c.099.373.189.859.355 1.32.136.389.544.549.928.416a2.02 2.02 0 0 0 .613-.325c.645-.539 1.272-1.101 1.907-1.653l2.285-1.987c.901-.76 1.792-1.528 2.739-2.235a5.552 5.552 0 0 1 1.477-.739c.413-.144.467-.139.408-.581-.059-.421-.139-.848-.131-1.272.019-.84-.147-.717-.765-.4l-.067.035-5.605 3.787c-1.147.781-2.256 1.624-3.44 2.336-.515.309-.627.693-.704 1.299zM29.264 65.333c0-.224-.008-.419 0-.613a5.387 5.387 0 0 1 .827-2.717c.469-.72.477-.717-.187-1.28-.037-.035-.08-.064-.123-.096-1.333-.997-2.853-1.507-4.485-1.701-.451-.053-.957-.048-1.373.104-.848.304-1.389 1.36-1.28 2.283a4.485 4.485 0 0 0 .971 2.293c.443.56 1.003.912 1.792.925-.075-.096-.112-.157-.16-.213a6.437 6.437 0 0 1-1.701-3.091c-.08-.341.053-.483.381-.373.467.16.933.304 1.371.525 1.037.531 1.915 1.248 2.416 2.331.163.352.109.845.341 1.107s.707.336 1.075.491a1.31 1.31 0 0 0 .133.027zm55.381-26.277c.072.005.144.016.216.016l2.4-.013c.184-.008.379-.141.539-.256.355-.261.661-.6 1.037-.816 1.291-.739 2.579-1.499 3.917-2.144 1.963-.947 4.08-1.315 6.243-1.44.517-.029 1.035-.061 1.552-.059.379 0 .411-.203.389-.501a22.4 22.4 0 0 1-.069-1.317c-.013-.509 0-1.019 0-1.493-5.6 2.245-10.949 5.045-16.224 8.024zM22.341 57.037l-1.347-1.339c-.949-.952-1.531-2.048-1.397-3.44.008-.088-.12-.253-.211-.272-.656-.147-1.312-.309-1.979-.381-.683-.08-1.299.125-1.664.765-.467.827-.523 1.731-.472 2.661.099 1.811 1.576 2.84 2.869 3.403.245.107.4-.04.312-.288a1.589 1.589 0 0 0-.331-.555c-.555-.581-1.133-1.139-1.693-1.715-.08-.08-.125-.187-.133-.299 0-.045.149-.133.232-.136.592-.013 1.189-.059 1.773 0a2.573 2.573 0 0 1 2.304 2.005c.107.467.083.96.117 1.397.2-.288.405-.648.675-.949.285-.312.627-.573.944-.859zm12.539 5.008l-.011.053h-.312c-1.307.043-2.408.915-2.64 2.165a4.43 4.43 0 0 0-.027 1.379c.115.88.389 1.723.944 2.435.221.283.499.576.907.501.453-.083.499-.52.643-.859s.048-.587-.253-.8c-.603-.427-1.192-.872-1.779-1.32-.08-.061-.12-.181-.176-.275.093-.053.187-.147.283-.157.587-.037 1.187-.133 1.765-.069 1.627.176 2.379 1.133 2.251 2.747-.011.16.045.325.069.491a3.18 3.18 0 0 0 .115-.525c.08-1.483.613-2.715 1.941-3.509.112-.067.181-.205.269-.312-.125-.088-.243-.224-.381-.253a3.003 3.003 0 0 1-1.608-.96 1.699 1.699 0 0 0-.68-.456c-.427-.133-.88-.187-1.32-.275zm-17.187-1.387c-.459-.232-.971-.451-1.443-.733-1.507-.907-2.643-2.117-3.035-3.899-.061-.28-.208-.235-.4-.16-1.507.6-2.096 2.181-2.08 3.555.019 1.387 1.355 2.168 2.32 2.453.533.155.877-.205.8-.757-.061-.435-.141-.869-.168-1.307-.027-.424.139-.515.512-.339a2.131 2.131 0 0 1 1.168 1.288c.027.08.157.197.224.187.712-.083 1.429-.192 2.101-.288zm47.203-11.44a.72.72 0 0 0 .165-.077c1.013-.949 2.219-1.203 3.555-1.035 1.499.192 2.96.603 4.485.651a6.64 6.64 0 0 0 2.651-.411c.269-.104.496-.317.747-.48-.907-.205-1.768-.288-2.613-.451-2.456-.472-4.92-.859-7.432-.739-.256.013-.533.021-.763.117-.24.101-.595.275-.632.467-.12.632-.115 1.28-.16 1.957zm1.216 3.341c.384-.112.747-.275 1.125-.312.707-.069 1.427-.016 2.128-.107a17.2 17.2 0 0 0 2.573-.499c.477-.136.893-.485 1.387-.765l-2.64-.283c-1.173-.131-2.331-.437-3.531-.336-.736.061-1.408.32-2.061.64-.232.115-.275.291-.077.493l1.099 1.168zM11.645 74.925l.117.091c.355-.293.725-.565 1.061-.877.349-.325.709-.589 1.208-.64.104-.013.221-.179.275-.299.203-.459.355-.939.576-1.387.139-.283.363-.517.579-.813-1.344-.424-2.277-1.307-3.117-2.373a16.64 16.64 0 0 0-.4 2.341c-.107 1.317.203 2.667-.299 3.957zm57.752-54.592c.12-.04.155-.043.165-.059l3.488-3.659a6.608 6.608 0 0 0 1.637-3.133c.096-.469-.168-.859-.693-.987-.56-.139-.773-.027-.933.501-.021.061-.048.123-.08.179l-1.824 3.475c-.595 1.189-1.152 2.403-1.765 3.683h.003zM8.704 68.629c1.203.24 2.032-.312 2.811-1.04.267-.248.32-.488.283-.848a7.71 7.71 0 0 1 .005-1.853c.077-.565.323-1.107.499-1.667a85.707 85.707 0 0 0-.971-.533c-.312-.168-.613-.149-.821.144-.168.24-.347.509-.397.789-.176.925-.325 1.859-.427 2.795-.059.528-.157 1.021-.469 1.459zm41.939 4.899c.232.085.456.131.64.235.501.285 1.035.365 1.605.373a3.57 3.57 0 0 1 1.136.197c.557.205 1.083.493 1.595.733-.683-2.723-.859-2.595-2.403-3.819zm3.125-2.789c.605.251 1.149.52 1.72.701.723.232 1.469.381 2.203.576.341.091.613-.133.523-.48a1.859 1.859 0 0 0-.24-.573 34.635 34.635 0 0 0-1.296-1.835c-.283-.365-.629-.677-.949-1.013l-1.957 2.624zm3.555-5.843l-1.304 2.656c.525.256 1.043.464 1.517.749.835.501 1.608 1.085 2.208 1.872.051.067.197.133.259.107.248-.115.48-.267.763-.432-1.504-1.445-2.381-3.232-3.44-4.952zM25.44 54.619c-.072-.317-.213-.827-.291-1.347-.04-.288-.165-.435-.408-.547l-2.52-1.2c-.072-.032-.291.061-.301.123-.059.309-.171.659-.08.928.171.443.408.853.712 1.216.576.712 1.272 1.288 2.187 1.528.573.149.709.053.701-.701zM14.203 75.045c-.027.171-.08.285-.064.395l.317 2.496c.069.728.133 1.464.099 2.189-.021.459-.235.907-.365 1.368 1.192-.389 2.584-2.2 2.757-3.573-2.141-1.133-2.352-1.352-2.741-2.875zM67.12 19.667c1.205-2.347 2.107-4.8 3.675-6.933-.56.205-1.128.4-1.571.744-.72.56-1.363 1.221-2.027 1.853-.072.069-.085.24-.067.352.245 1.317.064 2.629-.008 3.987zM52.901 39.293c-.048-.275-.072-.56-.155-.829a.928.928 0 0 0-.979-.664c-.779.093-1.955 1.187-2.075 2.093-.011.08.077.195.144.259.299.261.64.48.904.771.312.347.523.424.96.24.827-.349 1.227-.96 1.205-1.867H52.9zm-6.768 2.792c-.187.325-.128.608.045.829.256.331.536.667.869.917.741.56 1.163.579 1.872-.019a2.667 2.667 0 0 0 .8-1.179c.163-.52-.179-1.013-.611-1.163-.723-.248-1.888-.077-2.16.312-.093.139-.197.272-.283.416a3.77 3.77 0 0 0-.155.365l-.165-.133c-.053-.099-.117-.2-.208-.347zm4.083 5.341c.629 0 1.067-.309 1.349-.867.437-.856.235-1.939-.261-2.389-.312-.28-.408-.275-.64.061a3.285 3.285 0 0 1-1.957 1.373c-.403.104-.483.293-.312.693.347.795 1.019 1.059 1.824 1.128zm15.019-2.339c.312-.149.579-.32.869-.403 1.413-.416 2.853-.248 4.277-.112.819.077 1.627.285 2.437.435a30.96 30.96 0 0 0-3.013-1.536c-.533-.227-1.147-.285-1.733-.368-.96-.133-1.741.413-2.576.747-.12.048-.227.253-.251.4-.035.261-.008.533-.008.837zm38.069-6.048c.997-1.344.149-5.256-1.283-6.731-.243 2.149.517 6.115 1.288 6.731h-.003zM47.952 75.856c.147.435.515.547.885.6 1.013.147 2.027.259 3.04.384l-.312-1c-.197-.691-.547-1.248-1.232-1.552-.235-.101-.4-.139-.6.035l-1.779 1.533zm5.683-34.555c-.389.248-.72.536-1.109.685s-.843.165-1.288.24a3.35 3.35 0 0 0 .005.491c.016.088.091.224.157.235.971.213 1.488.859 1.755 1.768.027.08.067.16.109.235 1.429-.328 1.373-2.747.373-3.653zm.629-2.427c.221-.256.347-.435.509-.579.216-.195.437-.429.701-.517s.301-.203.272-.413l-.32-2.261c-.019-.101-.08-.197-.163-.405L52.93 36.52c.979.483 1.259 1.301 1.336 2.352h-.003zm-.296 6.963c.155.176.333.32.445.499a21.539 21.539 0 0 1 .819 1.443c.091.176.155.272.373.203.579-.187 1.013-.691.987-1.296a11.304 11.304 0 0 0-.232-1.755c-.029-.141-.272-.301-.437-.328a.58.58 0 0 0-.459.216c-.368.536-.824.92-1.493 1.019zm-1.301 5.547c.435.875 1.885 1.363 2.712.941.496-.256.824-.747.728-1.131a6.93 6.93 0 0 0-.312-1.003c-.101-.232-.275-.435-.456-.709-.467 1.325-1.424 1.795-2.667 1.899h-.005zm.381-4.648c-.544 1.259-1.395 1.915-2.704 1.813.011.072.008.101.019.117.029.043.067.08.101.12.472.547 1.139.731 1.787.96.467.16.856-.011 1.173-.296.299-.267.373-.659.251-1.04-.171-.525-.381-1.037-.621-1.675zm20.907-1.467l1.867.293c1.253.216 2.499.259 3.667-.363.533-.285 1.04-.619 1.563-.931l-.053-.133-3.12.507c-1.293.219-2.547.696-3.92.624zm-18.067-2.315l.885.301-.413.92h.827l-1.171-4.891-1.331.867c.736.787 1.227 1.739 1.205 2.803zm42.048-22.088l-.187.021c.232 1.504-.187 2.808-1.157 3.949.595-.136 1.147-.312 1.707-.453.523-.141.933-.72.736-1.216-.32-.787-.728-1.539-1.099-2.301zM56.16 48.973c.16.515.552.688 1.005.765s.733-.192.947-.541a13.493 13.493 0 0 0 .515-.949.31.31 0 0 0 0-.219l-.624-1.651c-.08 1.331-.717 2.147-1.84 2.595zM47.067 86.2l.139.008.736-3.328c.035-.157.008-.419-.096-.507-.379-.309-.803-.573-1.216-.861.155.829.355 1.581.427 2.339.069.779.013 1.565.013 2.347zM26.8 53.597c.968 1.037 1.136 2.128.595 3.352l.301.099c-.08-1.104.365-1.947 1.147-2.68zm17.528 15.339c-.533-.859-1.584-1.013-2.117-1.779-.093.779.333 1.264.893 1.645.344.232.733.379 1.227.133zm-6.08 3.035c-.197.445-.373.789-.501 1.149-.08.235-.04.491.277.525a2.4 2.4 0 0 0 .733-.016c.357-.069.432-.24.24-.555-.205-.352-.453-.683-.747-1.104zm48.419-29.653c1.08-.661 1.773-1.656 2.427-2.691-.416.123-.8.264-1.051.656-.435.68-.907 1.344-1.376 2.035zm-66.176 17.05c-.389.8-.997 1.245-1.773 1.333l1.525.357zm36.24 14.315l.432-.693-1.003-.467zm34.515 26.275c.568.592.896.501 1.139-.267zM56.968 51.611l.592-.552-.552-.067a1.66 1.66 0 0 0-.037.173c-.005.115 0 .229 0 .443z"/><path d="M104.304 65.845c.181.613.624.949.968 1.365.229.28.373.635.517.973.037.091-.064.347-.112.352-.437.024-.576.389-.757.664-.283.427-.504.891-.757 1.349a2.253 2.253 0 0 1 1.387 1.221c.373.779.016 1.507-.827 1.701l-.341.069c-1.099.213-1.488 1.171-.907 2.115a26.325 26.325 0 0 1 1.504 2.669c.333.712.195 1.461-.221 2.149-.347.571-.499 1.253-1.029 1.715l-1.877 1.677c-1.021.784-2.136 1.421-3.4 1.752a8.267 8.267 0 0 1-3.157.187l-1.96-.253c-.133-.021-.264-.101-.395-.157.117-.096.221-.243.355-.28l4.464-1.187c1.216-.384 2.395-.907 3.565-1.419a1.904 1.904 0 0 0 .741-.701c.56-.859 1.051-1.795.869-2.837a11.712 11.712 0 0 0-.821-2.659c-.667-1.528-.245-3.128 1.152-4.053a.581.581 0 0 0 .208-.469c-.08-.565-.176-.629-.771-.731-.325-.056-.467-.347-.272-.6l1.741-2.296-.283-.432a3.021 3.021 0 0 1-.363-1.949c.013-.117-.072-.331-.157-.357l-1.925-.547c-.115-.032-.277-.088-.312-.173-.04-.112-.019-.336.059-.387.216-.141.48-.315.715-.301l2.579.269 1.528.251c.827.101 1.549-.208 2.24-.627.219-.133.136-.275.053-.427l-1.28-2.312c-.747-1.237-1.208-2.587-1.552-3.973a214.059 214.059 0 0 1-1.669-7.267c-.293-1.365-.531-2.739-.547-4.149l-.2-3.835c-.011-.36.123-.739.253-1.083s.32-.397.517-.088c.267.419.528.88.624 1.355.141.693.12 1.413.192 2.12l.517 4.739 1.299 6.229c.48 2.475 1.221 4.869 2.035 7.251l.32 1.019a.78.78 0 0 0 .157 0l.507-.131c-.011.2.013.405-.032.595-.301 1.291-1.208 1.853-2.443 2.048a6.45 6.45 0 0 1-2.699-.155zm-7.493-16.984c.395.891.427 1.797.405 2.72l.467.112.027.136-1 .448c-1.091.36-2.195.6-3.357.411l-2.253-.336c-.123-.021-.227-.165-.339-.253.139-.048.275-.128.416-.136l2.237-.133c.053-.005.139-.181.136-.275l-.077-1.24c0-.131.088-.363.155-.373.157-.021.392.019.485.128.187.208.304.475.44.725a5.627 5.627 0 0 0 .483.803c.389-.744.096-1.539.272-2.333-1.853.525-3.717.867-5.341 1.867-.605.373-1.192.797-1.387 1.56-.016.077-.139.123-.213.187-.067-.088-.181-.171-.187-.261a.89.89 0 0 1 .099-.405c.464-1.083 1.349-1.747 2.315-2.339 1.645-1.003 3.48-1.539 5.28-2.155l.627-.221-1.208-1.224c-.216-.221-.453-.432-.613-.691-.077-.125-.067-.411.027-.512.091-.107.357-.157.515-.115a3.4 3.4 0 0 1 1.853 1.216l.629.832 1.349-.797 1.776-1.04c.085-.048.213-.019.32-.027-.011.107.008.221-.035.312-.795 1.725-2.133 2.797-3.957 3.275l-.344.133z"/><path d="M97.184 42.077a10.32 10.32 0 0 1 3.189.413c.155.045.291.173.435.261-.112.163-.189.373-.339.477-.613.427-1.32.581-2.053.64-1.936.16-3.856.384-5.667 1.179a31.483 31.483 0 0 0-4.272 2.216l-2.688 1.56c-.101.056-.256.021-.384.027.04-.123.043-.288.125-.365l3.525-3.219a16.107 16.107 0 0 1 2.493-1.829 9.501 9.501 0 0 1 3.893-1.248l1.741-.112zm-.091 21.891l-1.2 1.531a25.173 25.173 0 0 1-1.021 1.168c-.072.08-.205.096-.312.141-.027-.12-.096-.251-.067-.357.155-.56.285-1.133.509-1.664l1.387-3.04 1.421-3.408c.04-.093.061-.213.133-.275.096-.088.248-.2.341-.173s.192.208.195.325l.011 1.776.899-.301a1.03 1.03 0 0 1 .451.016c.275.064.317.195.128.437-.509.656-.896 1.405-.96 2.221-.045.539.173 1.107.312 1.653.048.187.224.347.312.531.205.419.525.555.984.501.235-.027.472.053.76.088-.067.133-.08.243-.141.277-.693.379-1.403.779-2.216.683-.987-.12-1.525-.8-1.813-1.701l-.115-.429zm1.408 7.677l1.819-2.104c.709-.853 1.565-1.427 2.701-1.493l.731.035c-.096.235-.157.485-.291.696a10.408 10.408 0 0 1-2.688 2.827c-.672.496-1.419.893-2.147 1.315-.24.139-.365.299-.371.579l-.08 1.157c-.013.099-.099.187-.149.28a1.312 1.312 0 0 1-.283-.168c-.917-.925-.899-2.035-.581-3.184.168-.613.267-1.208.027-1.824-.037-.091.011-.288.077-.32a.376.376 0 0 1 .336.064 2.6 2.6 0 0 1 .811 2.099l.085.043zm-32.992-7.077c.04-.821-.312-1.435-.765-2.027-.592-.781-.867-1.712-1.112-2.637-.256-.96-.792-1.744-1.432-2.461-.52-.581-1.141-.499-1.595.141-.064.091-.187.139-.283.208-.069-.107-.173-.2-.197-.312-.155-.805.656-1.776 1.472-1.821.984-.053 1.672.421 2.339 1.083.912.907 1.325 2.045 1.755 3.205.253.648.587 1.264.995 1.829.869 1.243 1.013 2.6.779 4.04-.107.653-1.013 1.28-1.76 1.072-2.2-.613-3.984-2.813-3.387-5.347.133-.544.381-1.067.595-1.595.035-.083.165-.128.253-.192.059.093.16.179.176.28l.179 1.344c.253 1.237.736 2.347 1.813 3.107a.96.96 0 0 0 .176.08z"/></svg>