<svg xmlns="http://www.w3.org/2000/svg" width="128" height="128" viewBox="0 0 33.867 33.867" xmlns:v="https://vecta.io/nano"><g stroke="#000" stroke-width=".22"><path d="M6.102 15.046c-.953-1.163-2.77-3.235-3.951-4.109s-1.727-.553-1.949.241-.109 2.06 1.008 3.189 3.24 2.118 4.411 2.486 1.392.115 1.456-.138-.022-.506-.974-1.669z" fill="#290747"/><path d="M5.385 14.586c-.821-.948-2.375-2.628-3.346-3.308s-1.359-.361-1.459.348.091 1.806 1.033 2.712 2.639 1.62 3.558 1.859 1.065.002 1.094-.223-.06-.441-.88-1.388z" fill="#fff"/><path d="M27.764 10.982c.953-1.163 2.77-3.235 3.952-4.109s1.728-.553 1.948.241.11 2.061-1.007 3.189-3.24 2.118-4.411 2.486-1.392.115-1.456-.138.023-.506.975-1.669z" fill="#290747"/><path d="M28.481 10.522c.821-.948 2.375-2.627 3.346-3.308s1.359-.361 1.459.348-.091 1.806-1.033 2.712-2.639 1.62-3.558 1.859-1.065 0-1.094-.223.059-.44.88-1.388z" fill="#fff"/></g><ellipse cx="17.93" cy="17.436" rx="12.197" ry="10.191" fill="#290747"/><ellipse cx="17.889" cy="17.436" rx="11.582" ry="9.467" fill="#596466"/><ellipse cx="17.889" cy="17.436" rx="11.582" ry="9.467" fill="#fcfcfc"/><ellipse cx="17.889" cy="18.513" rx="11.059" ry="8.39" fill="#dbdbdb"/><ellipse cx="17.889" cy="18.134" rx="11.059" ry="8.39" fill="#fff"/><ellipse cx="17.636" cy="17.3" rx="10.431" ry="8.06"/><path d="M25.052 8.785c.531-.269 1.288-.771 1.668-1.208s.379-.808.54-.957.483-.074.521.514-.208 1.682-.464 2.341-.521.883-.834.92-.674-.114-1.106-.356-.949-.576-1.056-.762.199-.223.729-.493z" fill="#fff" stroke="#000" stroke-width=".22"/><path d="M8.045 18.959c-.032-.329-.096-.988-.062-1.665.029-.731.205-1.448.519-2.112.351-.746.921-1.547 1.595-2.221a8.56 8.56 0 0 1 2.202-1.591c.75-.373 1.474-.57 2.386-.743s2.015-.322 3.069-.329a12.79 12.79 0 0 1 3.039.367c.978.233 1.929.559 2.769 1.02.787.434 1.5.986 2.114 1.635.541.578.893 1.137 1.13 1.733a6.35 6.35 0 0 1 .409 1.836 8.26 8.26 0 0 1-.029 1.597c-.05.424-.125.695-.502 1.086s-1.058.904-2.783 1.247-4.488.518-6.903.505-4.479-.207-5.908-.578-2.222-.914-3.014-1.459h0z" fill="#bcbcbc"/><path d="M7.094 11.8c-.597.018-1.508-.058-2.056-.258s-.732-.525-.947-.578-.459.166-.201.695 1.017 1.369 1.568 1.823.893.522 1.185.405.532-.419.793-.838.541-.956.54-1.168-.285-.1-.882-.081z" fill="#fff" stroke="#000" stroke-width=".22"/><ellipse cx="13.787" cy="17.153" rx="4.061" ry="4.454"/><g fill="#fff"><ellipse cx="13.801" cy="14.918" rx="1.656" ry="1.891"/><ellipse cx="21.334" cy="14.746" rx="1.61" ry="1.839"/></g><path d="M8.077 19.289a8.68 8.68 0 0 0 .586 1.083 9.5 9.5 0 0 0 1.284 1.566 7.81 7.81 0 0 0 1.727 1.275 12.39 12.39 0 0 0 2.377.999c.866.261 1.761.422 2.666.48a10.69 10.69 0 0 0 3.017-.222 13.92 13.92 0 0 0 3.532-1.274c.955-.513 1.817-1.178 2.551-1.968.6-.655.938-1.238 1.168-1.774s.354-1.023.014-1.392-1.144-.62-2.625-1.03-3.641-.977-6.501-.852-6.419.946-8.166 1.6-1.679 1.139-1.667 1.318-.036.045.036.194z" fill="#f4adad"/><g fill="#bca0a0"><ellipse cx="6.169" cy="21.695" rx="1.043" ry=".638" transform="matrix(.944344 -.328961 .329102 .944294 0 0)"/><ellipse cx="-9.947" cy="26.791" rx=".638" ry="1.043" transform="matrix(.329102 -.944294 .944344 .328961 0 0)"/></g><path fill-rule="evenodd" d="M25.639 15.623c.067-.661.058-1.482.054-1.892h-.001l-.005-.41v-.002c-.04-.19-.079-.379.073-.306s.497.407.798.952.563 1.299.707 1.991a8.49 8.49 0 0 1 .168 1.873c-.007.549-.053 1.016-.099 1.483-.11-.417-.221-.834-.432-1.13s-.519-.469-.807-.598c-.263-.114-.532-.213-.807-.297.142-.501.283-1.002.349-1.663zm-16.56.275c-.018-.53.034-1.079.086-1.627v-.052c.001-.489.002-.961-.061-.998-.037-.022-.098.119-.194.338l-.284.603-.232.415c-.241.42-.516.9-.682 1.421-.224.701-.248 1.478-.107 2.288s.454 1.651.768 2.491l-.122-1.484c0-.362.06-.524.156-.659a1.36 1.36 0 0 1 .39-.344 6.95 6.95 0 0 1 .544-.305l-.004-.033-.095-.668-.015-.091-.149-1.296z"/><path d="M25.693 13.731l.13-.001-.001-.129h-.129zm-.001 0l-.13.001.001.129h.129zm-.005-.41l.13-.001v-.013l-.002-.012zm0-.002l-.127.027h0zm.073-.306l.056-.117h0zm.798.952l.114-.063h0zm.707 1.991l.127-.026h0zm.168 1.873l-.13-.003h0zm-.099 1.483l-.126.033.255-.02zm-.432-1.13l-.106.075h0zm-.807-.598l.053-.119h-.001zm-.807-.297l-.125-.035-.035.122.122.037zM9.164 14.271l.129.012v-.006-.006zm-.086 1.627l.13-.005h0zm.086-1.68h.13 0zm-.061-.998l-.066.112h0zm-.194.338l.119.052h0zm-.284.603l-.115-.061h0zm-.232.415l.113.065h0zm-.682 1.421l.124.039h0zm-.107 2.288l-.128.022h0zm.768 2.491l-.122.045.251-.059zm.034-2.143l-.103-.079-.001.002-.001.002zm.39-.344l.066.112.002-.001.002-.002zm.544-.305l.06.115.08-.042-.011-.089zm-.004-.033l.129-.016h0zm-.095-.668l.128-.021h0zm-.015-.091l-.128.021h0zm16.335-3.461l-.053 1.877.259.026c.067-.669.059-1.498.054-1.906zm.129.129h.001v-.26h-.001zm-.134-.539l.005.41.26-.003-.005-.41zm.002.023v.002l.254-.053v-.002zm.256-.45c-.046-.022-.128-.05-.205-.003s-.087.128-.089.166a.62.62 0 0 0 .009.143l.028.145.254-.053-.026-.132c-.007-.041-.008-.068-.007-.084.001-.024.006.013-.035.038s-.073.001-.042.016zm.856 1.006c-.155-.281-.322-.508-.472-.676s-.284-.282-.385-.33l-.112.234c.052.025.162.11.302.268a3.54 3.54 0 0 1 .438.63zm.72 2.027c-.146-.702-.411-1.468-.72-2.027l-.227.126c.294.531.551 1.272.693 1.954zm.171 1.902c.014-.638-.044-1.276-.171-1.902l-.255.052a8.36 8.36 0 0 1 .166 1.844zm-.099 1.493l.099-1.494-.26-.004c-.007.543-.053 1.005-.098 1.472zm-.667-1.067c.194.272.3.664.412 1.087l.251-.066c-.108-.41-.224-.853-.452-1.172zm-.754-.555c.282.126.564.288.754.555l.212-.151c-.231-.325-.566-.509-.86-.641zm-.791-.291c.27.082.534.18.793.292l.103-.238a7.75 7.75 0 0 0-.82-.302zm.258-1.8c-.065.649-.204 1.14-.345 1.641l.25.071c.142-.501.286-1.012.354-1.685zM9.036 14.258l-.087 1.644.26-.009c-.018-.521.033-1.06.086-1.61zm0-.04v.053h.26v-.052zm.003-.886c-.021-.013-.031-.028-.033-.032 0 .003.004.018.008.043.008.05.013.122.017.213l.006.663h.26l-.007-.674-.019-.241c-.005-.032-.011-.064-.021-.092-.005-.014-.012-.031-.022-.047s-.027-.039-.055-.056zm-.008.279l.114-.25.017-.03c-.004 0-.012.005-.023.01-.027.011-.066.013-.101-.008l.133-.223c-.044-.027-.093-.025-.131-.009a.18.18 0 0 0-.064.046.46.46 0 0 0-.061.093c-.035.066-.076.161-.123.268zm-.288.612l.288-.612-.238-.104-.28.594zm-.234.419l.234-.419-.229-.122-.23.411zm-.671 1.396c.161-.506.429-.974.671-1.396l-.225-.129c-.24.419-.522.91-.693 1.446zm-.103 2.226c-.138-.794-.113-1.549.103-2.226l-.248-.079c-.231.725-.255 1.524-.111 2.35zm.762 2.468c-.314-.843-.623-1.673-.761-2.468l-.256.045c.144.824.462 1.676.774 2.514zm-.374-1.438c.001.37.063.94.123 1.498l.258-.028-.122-1.47zm.181-.735c-.117.164-.181.356-.181.735h.26c0-.344.057-.478.132-.583zm.43-.381a1.49 1.49 0 0 0-.427.377l.206.158a1.23 1.23 0 0 1 .352-.311zm.549-.308l-.554.311.141.218c.154-.1.34-.198.533-.298zm-.073.098l.004.033.258-.032-.004-.033zm-.094-.663l.094.663.258-.032-.095-.672zm-.015-.091l.015.091.256-.041-.015-.091zm-.15-1.312c.017.495.095.972.15 1.312l.256-.042-.147-1.28z"/><g stroke="#000" stroke-width=".22"><path opacity=".48" d="M2.35 11.699l1.378 1.966c.444.706.711 1.278.851 1.659s.156.565.397.811.707.553 1.174.86c-.016-.649-.033-1.298-.355-1.982s-.952-1.407-1.539-2.035-1.134-1.164-1.506-1.432-.532-.267-.711-.267z"/><path opacity=".46" d="M29.75 9.285c.355-.22 1.074-.669 1.617-.874s.907-.164 1.144.03.344.54.36.776-.058.361.066.204.446-.596.601-1.028c.141-.384.152-.802.03-1.192-.111-.337-.32-.586-.581-.668s-.579.003-.929.197-.735.496-1.104.823c-.358.309-.688.649-.986 1.014-.262.335-.432.654-.605.972l.048-.054c-.009.009-.018.019.336-.201z"/></g><g opacity=".5"><path d="M7.948 14.285c1.45-2.014 4.37-3.921 7.609-4.402 1.919-.285 3.713-.199 5.307.181-.664-.039-1.26.098-1.557.587-.306.504-.06 1.141.485 1.51.384.26.883.399 1.329.596 1.04.463 1.763 1.234 2.522 1.945.288.27.603.544 1.031.662.546.151 1.212-.011 1.542-.374.384-.42.294-.991.09-1.478-.076-.182-.166-.358-.269-.528.846.917 1.455 2.02 1.775 3.216.399 1.514-.009 3.119-.714 4.467 1.116-1.553 1.548-3.383 1.061-5.23-1.12-4.244-6.67-6.966-12.398-6.079-3.681.57-6.54 2.495-7.813 4.925z" fill="#fff"/></g><g opacity=".5"><ellipse cx="51.852" cy="14.71" rx="4.013" ry="2.099" fill="#fff" transform="matrix(.312956 0 0 .312881 .109651 6.350564)"/></g></svg>