<svg xmlns="http://www.w3.org/2000/svg" width="128" height="128" viewBox="0 0 33.867 33.867" xmlns:v="https://vecta.io/nano"><path d="M3.866 15.935a13.54 13.54 0 0 0-.512 3.849 6.65 6.65 0 0 0 1.569 4.42 9.24 9.24 0 0 0 3.044 2.068c1.211.537 2.466.967 3.752 1.284a34.62 34.62 0 0 0 4.53.839 32.03 32.03 0 0 0 3.711.211c2.538 0 5.996-.311 8.057-1.794a6.51 6.51 0 0 0 2.415-3.929 13.78 13.78 0 0 0 .298-3.947c.614 2.941.085 6.005-1.478 8.57a12.59 12.59 0 0 1-3.024 3.374 14.45 14.45 0 0 1-8.876 2.986c-.812-.001-1.623-.066-2.425-.193-1.85-.288-3.631-.916-5.252-1.853-1.53-.88-2.883-2.039-3.987-3.415a12.79 12.79 0 0 1-2.345-4.5 11.83 11.83 0 0 1 .524-7.969zm11.42-14.274a2.01 2.01 0 0 1-.855 2.016l.797 4.509 1.284-.052a15.54 15.54 0 0 1 2.425.193c1.588.245 3.119.742 4.538 1.466l2.635-4.564a1.81 1.81 0 0 1 .102-2.247 1.81 1.81 0 0 1 1.034-.591c.401-.075.817-.012 1.178.18a1.81 1.81 0 0 1 .903 2.06 1.81 1.81 0 0 1-1.801 1.348l-2.666 4.617c.484.316.951.662 1.398 1.034a13.24 13.24 0 0 1 4.184 6.204 34.52 34.52 0 0 1-10.733 1.897 23.61 23.61 0 0 1-2.433-.124 30.54 30.54 0 0 1-8.466-2.313c-1.554-.644-3.066-1.388-4.525-2.227a12.8 12.8 0 0 1 4.983-5.043 14.63 14.63 0 0 1 4.375-1.616l-.784-4.437a2.01 2.01 0 0 1-1.492-1.428 2.01 2.01 0 0 1 .553-1.99 2.01 2.01 0 0 1 .945-.505 2.01 2.01 0 0 1 1.07.052c.345.114.654.319.892.594a2.01 2.01 0 0 1 .46.967zM7.228 23.808c2.788 2.133 8.291 2.554 8.291 2.554l-8.52-8.811s-2.558 4.123.229 6.257zm12.954 2.851s5.768.239 7.604-1.637.106-5.588.106-5.588z" fill="#00e100"/></svg>