<svg xmlns="http://www.w3.org/2000/svg" fill="none" height="128" width="128" xmlns:v="https://vecta.io/nano"><g fill-rule="evenodd"><path d="M88.345 0l-1.718 1.073C76.65 7.296 68.293 18.981 63.963 25.506c-2.57.091-5.086.274-7.463.678l-.107-1.848c-.703-12.038-6.508-18.4-12.207-20.807S33.094 2.175 33.094 2.175l-1.4.257-.829 1.156S19.13 19.894 11.264 40.753C7.331 51.183 4.323 62.8 4.314 74.297s3.09 22.981 11.385 32.376c12.759 14.45 29.709 20.444 45.672 21.233s31.007-3.434 40.999-9.822c14.332-9.163 26.593-28.625 18.99-52.703-3.58-11.336-10.511-20.746-19.385-27.628l1.112-4.856c2.487-10.857-.647-19.139-4.479-24.323s-8.47-7.63-8.47-7.63zm.318 8.416c1.188.899 2.723 2.258 4.272 4.352 2.303 3.115 4.209 7.499 3.88 13.66-.642-.259-1.241-.528-2.01-.759-4.807-1.444-12.096-2.108-22.431.252l.323 6.936c19.289 2.555 35.922 15.603 41.936 34.648 6.632 21.003-3.937 36.883-16.063 44.635-8.423 5.385-22.384 9.432-36.853 8.718s-29.373-5.994-40.729-18.855c-7.001-7.929-9.628-17.444-9.62-27.7s2.758-21.148 6.496-31.06C24.853 24.711 34.427 10.921 35.739 9.05c1.278-.073 3.258-.055 5.703.977 3.181 1.343 6.41 4.254 7.498 12.08-2.232.764-5.236 1.923-8.854 3.873-6.249 3.369-13.512 8.699-16.349 17.123l5.796 3.66s15.012-14.395 36.392-14.356l1.914.004 1.047-1.604c3.541-5.43 11.784-16.594 19.776-22.39z" fill="#2f45c5" paint-order="stroke fill markers"/><path d="M117.997 66.443c-6.438-20.387-24.256-34.357-44.837-37.084 19.695-4.497 26.489 2.75 26.489 2.75C104.18 12.332 88.493 4.066 88.493 4.066c-9.574 5.971-18.664 18.838-22.562 24.814-22.959-.042-38.852 15.349-38.852 15.349 4.761-14.135 25.792-19.688 25.792-19.688C51.577 2.369 33.73 5.645 33.73 5.645s-45.98 64.044-15.387 98.692c24.116 27.312 63.712 22.548 82.127 10.775 13.229-8.458 24.644-26.129 17.526-48.669" fill="#fefefe" paint-order="stroke fill markers"/></g><g fill-rule="evenodd"><path d="M73.433 37.114c-.967-.502-.395-1.983.653-1.696 14.433 3.959 44.423 16.823 36.012 54.322-2.769 12.347-13.692 23.002-27.639 24.77-16.922 2.145-29.255-4.711-28.641-14.12 1.645-25.254 46.242 3.772 42.777-33.214-1.352-14.424-6.568-21.45-23.162-30.061" fill="#231f20" opacity=".104"/><path d="M43.292 68.91c.012.005.051.045.088.081l.116.111.25.232.529.462.553.443.573.416a14.45 14.45 0 0 0 2.434 1.358 12.16 12.16 0 0 0 5.259 1.036c.218.008.465-.016.706-.031l.724-.049 1.434-.199c.956-.139 1.887-.392 2.816-.654a21.9 21.9 0 0 0 2.695-1.04c.442-.192.865-.421 1.282-.647l.608-.354.288-.176.134-.086c.037-.024.094-.063.096-.057a2 2 0 0 1 2.841.151c.743.834.676 2.118-.15 2.869l-.216.206-.184.17-.361.316-.735.575-1.526 1.006c-1.048.611-2.143 1.129-3.276 1.548-2.279.814-4.654 1.279-7.091 1.302-2.532.018-5.113-.567-7.321-1.777a15.93 15.93 0 0 1-3.071-2.118l-1.315-1.31-.603-.717-.287-.384-.144-.205-.164-.241a1.78 1.78 0 0 1 .452-2.462 1.74 1.74 0 0 1 1.699-.162zm48.706-.683l.47.257.535.281 1.111.508c.748.32 1.511.579 2.269.781s1.516.336 2.256.377c.743.072 1.456.008 2.15-.106.688-.106 1.381-.366 2.076-.651a15.69 15.69 0 0 0 2.05-1.155c.665-.462 1.321-.967 1.949-1.521l.924-.854.439-.445.393-.413.133-.139a1.98 1.98 0 0 1 2.82-.054 2.03 2.03 0 0 1 .274 2.57l-.473.687-.474.614-1.004 1.172a20.53 20.53 0 0 1-2.289 2.113 17.6 17.6 0 0 1-2.716 1.734c-.506.229-.997.479-1.542.648l-.808.264-.841.201c-2.269.458-4.563.229-6.603-.388a18.01 18.01 0 0 1-2.943-1.169l-1.366-.771-.666-.427-.696-.509a2.23 2.23 0 0 1-.421-3.106 2.18 2.18 0 0 1 2.794-.61zM85.435 76.5h-8.212c-1.564 0-2.832 1.37-2.832 3.061a3.18 3.18 0 0 0 .911 2.249l2.323 1.929c1.618 1.304 1.757 2.385 1.798 3.512l.166 5.423-.627.222c-.161.06-.329.101-.495.143l-.299.079-.48.097-.323.062c-1.072.168-2.137.146-3.129-.066s-1.933-.574-2.764-1.168c-.307-.17-.581-.41-.854-.65l-.353-.302-.147-.124-.133-.151-.267-.298-.535-.587-.173-.19-.042-.044c-.889-.921-2.379-.994-3.341-.15a2.48 2.48 0 0 0-.047 3.69l.836.767.419.379.21.188.235.168.4.283c.493.351.982.701 1.545.963 1.351.758 2.898 1.204 4.427 1.364a12.61 12.61 0 0 0 4.495-.343l.325-.094.732-.223.341-.125.683-.269.008-.004a1.76 1.76 0 0 1 1.532.065l.401.203c.793.357 1.618.562 2.409.636a10.62 10.62 0 0 0 2.315-.021l1.098-.168 1.089-.254c1.459-.41 2.984-1.117 4.215-2.332.622-.591 1.156-1.299 1.568-2.079a8.36 8.36 0 0 0 .529-1.225l.002-.007.189-.656.076-.359.033-.199.005-.032.026-.242c.069-1.29-.912-2.392-2.19-2.461-1.264-.068-2.344.9-2.433 2.171.003.011.002.026 0 .046l-.002.02-.01.095c-.006.06-.02.126-.035.192l-.016.076a3.9 3.9 0 0 1-.184.563 3.67 3.67 0 0 1-.652 1.043c-.538.651-1.361 1.152-2.319 1.51-.986.357-2.094.603-3.032.578a4.05 4.05 0 0 1-1.303-.211c-.054-.017-.105-.039-.155-.061l-.121-.049c-.034-.021-.07-.039-.107-.058l-.106-.058.169-5.517h.001c.036-1.168.549-2.759 2.052-3.931l2.038-1.504c.604-.581.949-1.414.949-2.287v-.213c0-1.691-1.267-3.061-2.832-3.061z" fill="#010202"/></g></svg>