<svg xmlns="http://www.w3.org/2000/svg" width="128" height="128" viewBox="0 0 33.867 33.867" xmlns:v="https://vecta.io/nano"><style><![CDATA[.B{fill-rule:evenodd}]]></style><defs><clipPath id="A"><path d="M0 612h792V0H0z"/></clipPath><clipPath id="B"><path d="M269.59 306.003c0-69.626 56.784-126.412 126.41-126.412h0c69.626 0 126.411 56.786 126.411 126.412h0c0 69.625-56.785 126.409-126.411 126.409h0c-69.626 0-126.41-56.784-126.41-126.409"/></clipPath><linearGradient x1="0" y1="0" x2="1" y2="0" gradientUnits="userSpaceOnUse" gradientTransform="matrix(178.62987,178.62987,178.62987,-178.62987,306.68518,216.68755)" spreadMethod="pad" id="C"><stop offset="0" stop-color="#00b2ff"/><stop offset="1" stop-color="#dfffa3"/></linearGradient><clipPath id="D"><path d="M0 612h792V0H0z"/></clipPath><clipPath id="E"><path d="M275.004 343.52h247.407V179.588H275.004z"/></clipPath><clipPath id="F"><path d="M269.589 358.963h252.822V179.588H269.589z"/></clipPath><clipPath id="G"><path d="M269.589 312.051h218.957V179.593H269.589z"/></clipPath><clipPath id="H"><path d="M306.377 216.853H472.79v-37.265H306.377z"/></clipPath><clipPath id="I"><path d="M298.099 261.006h211.357v-81.413H298.099z"/></clipPath></defs><g transform="matrix(.127997 0 0 -.127997 -33.753375 56.100345)"><g clip-path="url(#A)"><path d="M528.295 306c0-73.064-59.23-132.295-132.295-132.295S263.705 232.936 263.705 306 322.936 438.295 396 438.295 528.295 379.064 528.295 306" fill="#fff"/></g><g clip-path="url(#B)"><path d="M269.59 306.003c0-69.626 56.784-126.412 126.41-126.412h0c69.626 0 126.411 56.786 126.411 126.412h0c0 69.625-56.785 126.409-126.411 126.409h0c-69.626 0-126.41-56.784-126.41-126.409" fill="url(#C)"/></g><g clip-path="url(#D)" class="B"><g clip-path="url(#E)" opacity=".25"><path d="M516.749 343.52c3.677-11.854 5.662-24.455 5.662-37.521 0-69.814-56.597-126.411-126.411-126.411-57.057 0-105.276 37.807-120.996 89.732 130.691 2.116 186.266 65.356 241.745 74.2" fill="#fff"/></g><g clip-path="url(#F)" opacity=".25"><path d="M522.374 309.067l.037-3.068c0-69.814-56.597-126.411-126.411-126.411s-126.411 56.597-126.411 126.411c0 18.764 4.098 36.569 11.43 52.58 81.018 6.468 150.289-71.233 241.355-49.512" fill="#fff"/></g><g clip-path="url(#G)" opacity=".25"><path d="M396 179.593c36.534 0 69.431 15.729 92.546 40.647-76.258 28.307-112.44 79.928-218.65 91.811-.097-2.018-.307-4.006-.307-6.048 0-69.626 56.786-126.41 126.411-126.41" fill="#fff"/></g><g clip-path="url(#H)" opacity=".15"><path d="M472.79 205.59c-21.286-16.304-47.901-26.002-76.79-26.002-35.027 0-66.731 14.248-89.623 37.266 67.149-4.1 123.908-25.138 166.413-11.264" fill="#34b263"/></g><g clip-path="url(#I)" opacity=".15"><path d="M298.099 226.231c23.212-28.422 58.488-46.639 97.901-46.639 49.777 0 92.863 29.095 113.456 71.083-67.855 34.195-138.907-27.741-211.357-24.444" fill="#34b263"/></g><path d="M387.217 317.807c3.591-6.22 1.479-14.168-4.739-17.772-6.197-3.592-14.145-1.47-17.737 4.751l-13.809 23.912c-3.591 6.217-1.483 14.165 4.728 17.759s14.156 1.46 17.747-4.737zm51.088-23.609c-3.59 6.208-1.469 14.146 4.729 17.75 6.195 3.591 14.156 1.479 17.746-4.738l13.81-23.912a12.98 12.98 0 0 0-4.727-17.749c-6.208-3.592-14.157-1.484-17.747 4.724zm-84.61.349h0l-13.81-23.925c-3.591-6.208-11.539-8.316-17.747-4.726a12.98 12.98 0 0 0-4.728 17.751l13.81 23.911c3.591 6.219 11.552 8.331 17.747 4.739 6.197-3.604 8.319-11.543 4.728-17.75m64.684 47.173l-33.724-58.422c-3.591-6.208-1.482-14.158 4.738-17.749a12.98 12.98 0 0 1 17.737 4.724l33.747 58.425a13.01 13.01 0 0 1-4.739 17.759c-6.207 3.591-14.142 1.46-17.759-4.737" fill="#fff"/></g></g></svg>