<svg xmlns="http://www.w3.org/2000/svg" xmlns:xlink="http://www.w3.org/1999/xlink" width="128" height="128" xmlns:v="https://vecta.io/nano"><g transform="matrix(.119291 0 0 .119292 -.253178 -.477396)"><path d="M113.582 326.234c-17.235 8.472-50.61 30.335-70.796 79.112l-1.207 2.973a506.48 506.48 0 0 1 34.336-92.525 13.496 13.496 0 0 1 15.782-7.086 138.481 138.481 0 0 1 21.818 8.293 5.13 5.13 0 0 1 .067 9.232z" fill="#eff1ea"/><path d="M957.03 299.55v.02 3.31l-.02.87-.41 6.49-.12 1.16-.21 1.75-.18 1.36-1.68 9.31-.4 1.77-.42 1.77-.44 1.72-.76 2.85-.32 1.12-.78 2.62-.52 1.68-1.41 4.24-.44 1.26-.87 2.4-.92 2.42-.68 1.71-.56 1.38-.15.38-.3.71-.41.98-.43.99-.46 1.06-.82 1.82-.31.67-1.09 2.28a1.82 1.82 0 0 1-.19.31c-.01.02-.02.03-.03.05l-2.24 2.97.04.23c-39.65 57.07-84.79 90.15-134.23 98.31-64.54 10.68-114.81-25.69-116.88-27.21a.564.564 0 0 1-.06-.04c-22.04-15.98-33.78-34.83-34.89-56.02-2.44-45.85 44.91-89.01 45.38-89.44l.67-.13.4-1.1c1.9-2.05 18.89-17.25 113.38-31.05 43.32-6.3 72.09-20.56 85.5-42.33l.58-.96c.19-.32.37-.64.55-.96l.53-.96a31.24 31.24 0 0 0 .73-1.4l.91-1.92.28-.62q.3-.675.57-1.35l.15-.38c.15-.37.29-.75.43-1.12q.48-1.29.87-2.55c.1-.31.19-.61.27-.91.21-.7.39-1.38.56-2.06l.32-1.37a50.47 50.47 0 0 0 1.1-7.72l.09-1.87.02-.88v-.03a51.464 51.464 0 0 0-.24-5.78q1.98 2.025 3.92 4.06a.035.035 0 0 0 .02.01c.06.05.11.11.17.17.02.02.04.05.06.07.01.01.02.02.02.03.02.01.02.03.03.04l1.05 1.09 1.96 2.06 1.46 1.54 2.1 2.27 1.67 1.83 1.66 1.83a.01.01 0 0 0 .01.01c.06.06.11.13.17.19a2.647 2.647 0 0 1 .11.25.536.536 0 0 1 .05.11l.5 1.14q.255.57.48 1.14l.55 1.33a34.6 34.6 0 0 1 .65 1.69l.42 1.12.79 2.25a82.82 82.82 0 0 1 1.39 4.49l.72 2.66.16.68c.01.03.01.05.02.08a49.79 49.79 0 0 1 .5 2.12c.1.44.2.88.28 1.32.07.3.14.6.19.91l.26 1.34c.09.45.17.89.24 1.33l.38 2.41.14.97a124.18 124.18 0 0 1 .53 4.59 118.36 118.36 0 0 1 .36 5.29l.09 2.62a121.3 121.3 0 0 1-.07 7.64l-.08 1.63-.14 2.2a142.19 142.19 0 0 1-.92 8.65v.01l-.31 2.12q-.495 3.18-1.11 6.28v.01c-.33 1.64-.67 3.26-1.06 4.87l-.45 1.89a154.92 154.92 0 0 1-1.4 5.26 55.45 55.45 0 0 1-.55 1.95q-.345 1.185-.72 2.37-.825 2.64-1.7 5.19l-.59 1.68-.64 1.77-1.31 3.45c-.21.56-.43 1.12-.66 1.67-.09.22-.17.45-.27.68l-.27.67c-.04.1-.08.2-.13.3-.04.11-.09.22-.14.34l-1.09 2.58c-.48 1.14-.97 2.25-1.47 3.34l-.68 1.48a59.04 59.04 0 0 1-.65 1.39l-.15.32q-.27.57-.54 1.14l-.54 1.12q-.06.12-.12.24c-.73 1.5-1.46 2.94-2.17 4.29-.43.85-.87 1.66-1.29 2.44l-1.23 2.25-.78 1.39a.215.215 0 0 1-.04.06l-1.06 1.84a.037.037 0 0 1-.01.03q-.405.69-.78 1.32l-.18.29-.4.66c-1.93 3.18-3.14 4.92-3.14 4.92a40.038 40.038 0 0 0 5.24-1.27.06.06 0 0 0 .04-.01 59.06 59.06 0 0 0 2.08-.66c.91-.31 1.9-.66 2.95-1.08a17.86 17.86 0 0 0 .83-.33l.86-.35.88-.37.92-.4a57.78 57.78 0 0 0 2.16-1.02c.22-.1.43-.21.65-.32a61.45 61.45 0 0 0 1.98-1 77.15 77.15 0 0 0 3.11-1.72 86.21 86.21 0 0 0 3.23-1.99l1.1-.72 2.24-1.53a26.76 26.76 0 0 0 1.13-.82l2.29-1.73 1.15-.92q.585-.465 1.17-.96 1.815-1.515 3.65-3.21l1.36-1.29a42.44 42.44 0 0 0 1.36-1.33q.75-.75 1.5-1.53l1.23-1.31 1.36-1.49 1.25-1.43a1.065 1.065 0 0 1 .1-.12l1.35-1.61a57.51 57.51 0 0 0 1.34-1.67l.81-1.04.8-1.06a27.04 27.04 0 0 0 .8-1.07 47.45 47.45 0 0 0 .83-1.14q1.56-2.19 3.09-4.56a57.68 57.68 0 0 1 .94 5.59c.02.14.03.28.05.41l.11.96c.1.99.17 1.97.22 2.97.03.34.04.68.06 1.02 0 .05.01.11.01.16l.04 1.37zM252.916 410.309c-1.833-.648-9.254-3.867-11.423-4.985-78.285-82.755-129.856-104.328-155.228-109.625a515.824 515.824 0 0 1 88.813-118.745c4.426-4.449 8.964-8.786 13.546-13.033 20.767-1.99 52.287 9.568 72.808 30.089 4.471 4.471 96.123 51.415 96.123 51.415 55.886 15.648 73.389-8.807 73.769-8.942 15.648 71.534 4.806 240.263-178.409 173.827z" fill="#5c5c5c"/><g fill="#eff1ea"><path d="M215.741 152.073a5.415 5.415 0 0 1-4.627-5.432 5.714 5.714 0 0 0 4.627 5.432zm64.604 39.924a9.283 9.283 0 0 1-1.324-.99 11.705 11.705 0 0 0 1.324.99z"/><path d="M279.021 191.007a12.187 12.187 0 0 1-2.23-2.274 27.18 27.18 0 0 0 2.23 2.274zm547.215-76.825q9.724 6.572 19.157 13.636-9.455-7.076-19.157-13.636zm61.809 55.573a18.723 18.723 0 0 0-5.834-11.691l5.141 4.672.693 7.019z"/></g><path d="M213.68 151.2c-.06-.03-.1-.07-.15-.09a.76.76 0 0 0 .11.08c.04.03.08.05.12.08-.02-.02-.05-.04-.08-.07zm-.73-.56h-.01c.01.01.01.02.02.02 0-.01-.01-.01-.01-.02zm-.58-.62l-.23-.29c.071.113.151.22.24.32.001-.011-.002-.022-.01-.03zm1.31 1.18c-.06-.03-.1-.07-.15-.09a.76.76 0 0 0 .11.08c.04.03.08.05.12.08-.02-.02-.05-.04-.08-.07zm-.73-.56h-.01c.01.01.01.02.02.02 0-.01-.01-.01-.01-.02zm-.58-.62l-.23-.29c.071.113.151.22.24.32.001-.011-.002-.022-.01-.03zm1.31 1.18c-.06-.03-.1-.07-.15-.09.034.03.071.057.11.08.04.03.08.05.12.08-.02-.02-.05-.04-.08-.07zm-.73-.56h-.01c.01.01.01.02.02.02 0-.01-.01-.01-.01-.02zm-.58-.62l-.23-.29c.071.113.151.22.24.32.001-.011-.002-.022-.01-.03zm1.31 1.18c-.06-.03-.1-.07-.15-.09.034.03.071.057.11.08.04.03.08.05.12.08-.02-.02-.05-.04-.08-.07zm-.73-.56h-.01c.01.01.01.02.02.02 0-.01-.01-.01-.01-.02zm-.58-.62l-.23-.29c.071.113.151.22.24.32.001-.011-.002-.022-.01-.03zm1.31 1.18c-.06-.03-.1-.07-.15-.09a.76.76 0 0 0 .11.08c.04.03.08.05.12.08-.02-.02-.05-.04-.08-.07zm-.73-.56h-.01c.01.01.01.02.02.02 0-.01-.01-.01-.01-.02zm-.58-.62l-.23-.29c.071.113.151.22.24.32.001-.011-.002-.022-.01-.03zm-1.23-2.88v.01h.01zm2.54 4.06c-.06-.03-.1-.07-.15-.09a.76.76 0 0 0 .11.08c.04.03.08.05.12.08-.02-.02-.05-.04-.08-.07zm-.74-.56c.01.01.01.02.02.02 0-.01-.01-.01-.01-.02zm-.8-.91c.071.113.151.22.24.32.001-.011-.002-.022-.01-.03l-.23-.29zm-1-2.62v.03l.01.01v-.02c0-.01-.01-.02-.01-.03zm856.48 301.98c-12.923-78.606-43.796-153.174-90.22-217.91C854.96 60.53 654.49-22.51 447.22 11.51c-78.608 12.917-153.177 43.791-217.91 90.22C58.66 224.16-24.39 424.64 9.63 631.91a518.07 518.07 0 0 0 90.23 217.91c122.43 170.65 322.9 253.69 530.17 219.67a517.94 517.94 0 0 0 217.91-90.22c170.65-122.43 253.7-322.91 219.68-530.18zM899.35 213.24c.19-.32.37-.64.55-.96l.53-.96a31.24 31.24 0 0 0 .73-1.4l.61-1.29.3-.63.28-.62a38.81 38.81 0 0 0 .57-1.35l.15-.38c.15-.37.29-.75.43-1.12.32-.86.61-1.71.87-2.55.1-.31.19-.61.27-.91.21-.7.39-1.38.56-2.06l.32-1.37.25-1.28c.11-.5.18-.96.25-1.43a6.45 6.45 0 0 0 .13-.83c.09-.54.16-1.07.22-1.59.07-.54.12-1.07.16-1.61l.09-.98.09-1.87.02-.88v-.03c.029-1.884 2.216-2.906 3.68-1.72.005.005.012.009.02.01.06.05.11.11.17.17.02.02.04.05.06.07.01.01.02.02.02.03.02.01.02.03.03.04l1.05 1.09 1.96 2.06 1.46 1.54 2.1 2.27 1.67 1.83 1.6 1.74c.022.028.042.058.06.09.116.148.21.296.29.45a.56.56 0 0 1 .05.08v.03l.5 1.14a27.21 27.21 0 0 1 .48 1.14l.55 1.33.21.57.44 1.12.42 1.12.79 2.25c.5 1.5.96 2.99 1.39 4.49l.72 2.66a8.23 8.23 0 0 1 .16.68c.01.03.01.05.02.08a49.79 49.79 0 0 1 .5 2.12c.1.44.2.88.28 1.32.07.3.14.6.19.91l.03.19.23 1.15c.09.45.17.89.24 1.33.14.8.26 1.61.38 2.41l.14.97a38.67 38.67 0 0 1 .27 2.05l.13 1.21c.05.44.1.89.13 1.33l.18 2a91.16 91.16 0 0 1 .18 3.29 57.17 57.17 0 0 1 .09 2.62 113.36 113.36 0 0 1 .02 5.2l-.06 1.88-.03.56-.08 1.63a52.83 52.83 0 0 1-.14 2.2c-.03.59-.08 1.17-.13 1.76l-.25 2.61-.54 4.28v.01a49.52 49.52 0 0 1-.31 2.12c-.05.43-.12.86-.2 1.28-.04.29-.09.56-.13.83l-.45 2.52-.33 1.65v.01c-.33 1.64-.67 3.26-1.06 4.87l-.45 1.89-.46 1.87-.72 2.64-.22.75c-.17.66-.36 1.31-.55 1.95l-.72 2.37-1.7 5.19-.59 1.68-.64 1.77-1.31 3.45c-.21.56-.43 1.12-.66 1.67-.09.22-.17.45-.27.68l-.27.67c-.04.1-.08.2-.13.3-.04.11-.09.22-.14.34-.15.37-.31.74-.47 1.11l-.62 1.47c-.48 1.14-.97 2.25-1.47 3.34-.13.31-.27.61-.41.91l-.27.57-.45.99c-.07.14-.13.27-.2.4l-.15.32-.2.44a15.13 15.13 0 0 1-.34.7l-.54 1.12-.12.24c-.73 1.5-1.46 2.94-2.17 4.29-.43.85-.87 1.66-1.29 2.44l-1.23 2.25-.78 1.39c-.01.022-.023.042-.04.06-.35.65-.71 1.26-1.06 1.84.001.011-.002.022-.01.03l-.78 1.32-.18.29-.4.66a3.11 3.11 0 0 1-.14.25c-.976 1.624.362 3.656 2.24 3.4.014.001.028-.002.04-.01a1.09 1.09 0 0 0 .31-.08c.55-.17 1.15-.36 1.77-.58.91-.31 1.9-.66 2.95-1.08.27-.1.55-.21.83-.33l.86-.35.88-.37.92-.4c.69-.31 1.42-.65 2.16-1.02.22-.1.43-.21.65-.32l1.98-1c1.01-.53 2.05-1.1 3.11-1.72s2.13-1.28 3.23-1.99l1.1-.72a26.6 26.6 0 0 0 .96-.63l1.28-.9a26.76 26.76 0 0 0 1.13-.82c.76-.54 1.52-1.12 2.29-1.73l1.15-.92c.39-.31.78-.63 1.17-.96 1.21-1.01 2.427-2.08 3.65-3.21l1.36-1.29c.46-.43.91-.88 1.36-1.33l1.5-1.53 1.23-1.31 1.36-1.49 1.25-1.43c.03-.042.064-.082.1-.12l1.35-1.61 1.34-1.67.81-1.04.8-1.06.8-1.07.79-1.1c.02-.02.02-.04.04-.04 1.199-1.614 3.752-.961 4.03 1.03.02.14.03.28.05.41l.11.96c.1.99.17 1.97.22 2.97.03.34.04.68.06 1.02 0 .05.01.11.01.16.02.46.04.93.04 1.37v.02a60.88 60.88 0 0 1 0 3.31c0 .29 0 .58-.02.87-.05 2.17-.2 4.33-.41 6.49l-.12 1.16c-.06.58-.13 1.17-.21 1.75-.05.45-.11.91-.18 1.36a119.65 119.65 0 0 1-1.68 9.31l-.4 1.77-.42 1.77-.44 1.72-.46 1.71-.3 1.14-.32 1.12-.78 2.62-.52 1.68-1.41 4.24c-.14.43-.29.84-.44 1.26l-.87 2.4-.43 1.15-.49 1.27-.68 1.71-.56 1.38-.15.38-.3.71-.41.98-.43.99-.46 1.06-.82 1.82-.31.67-1.09 2.28a1.82 1.82 0 0 1-.19.31c-.01.02-.02.03-.03.05l-2.24 2.97.04.23c-1.22 1.79-2.48 3.55-3.73 5.3-38.72 54.18-81.99 90.96-130.5 93.01-67.85 2.89-113.54-25.1-116.76-27.14-.05-.03-.09-.05-.12-.07a.56.56 0 0 1-.06-.04c-28.99-18.95-33.78-34.83-34.89-56.02-2.439-45.85 44.911-89.01 45.381-89.44l.67-.13.4-1.1c1.9-2.05 18.89-17.25 113.38-31.05 43.32-6.3 72.09-20.56 85.5-42.33l.58-.96zM98.19 274.92a1.7 1.7 0 0 1 .09-.14 4.55 4.55 0 0 0 .17-.3c.2-.34.41-.67.62-1l.63-1.01c.06-.11.12-.22.19-.33l.21-.34c.05-.09.11-.18.16-.27l.24-.4 3.45-5.52 1.05-1.64 1.45-2.23 2.21-3.39 2.09-3.14 3.19-4.71 1.52-2.21.57-.82 1.88-2.68c.26-.38.53-.75.8-1.13l1.6-2.25 1.62-2.24c0-.01.01-.01.02-.02.06-.09.12-.17.18-.26a55.93 55.93 0 0 1 1.19-1.63c.13-.19.27-.39.42-.57.02-.02.03-.04.05-.06.02-.03.04-.05.06-.08l.76-1.03.75-1 1.74-2.34 3.81-5.01c.05-.06.1-.13.15-.19l1.37-1.76a16.53 16.53 0 0 1 .54-.69c.08-.1.16-.21.24-.31.03-.03.05-.07.08-.1a1.58 1.58 0 0 1 .12-.15c.061-.091.128-.178.2-.26.31-.42.64-.83.97-1.24l1.47-1.84 2.28-2.84 4.62-5.63 2.35-2.79 1.11-1.33.29-.34 2.58-3.03c.18-.22.36-.41.55-.62l.07-.07c.014-.022.03-.043.05-.06.03-.03.06-.07.09-.1l5.05-5.74 1.19-1.32 5.5-6.01c.15-.16.29-.32.42-.45l2.12-2.26 1.06-1.12 1.07-1.11 1.18-1.25 1.79-1.86.62-.63 2.2-2.25 2.84-2.87 3.03-3.02c.03-.03.07-.06.1-.09l1.82-1.77c.06-.06.12-.12.19-.18l.35-.34.21-.21c.12-.13.25-.26.38-.38.044-.046.091-.09.14-.13.01 0 .01-.01.02-.01.01-.02.03-.03.04-.04a24.95 24.95 0 0 1 19.05-6.67h.06l1.01.1c.04 0 .09.02.13.02 1.2.15 2.41.34 3.64.56.07.01.15.03.22.04a5.85 5.85 0 0 1 .41.07l1.59.31a16.84 16.84 0 0 1 .69.14c.011-.001.022.002.03.01l.15.03c.011-.001.022.002.03.01.034.002.068.009.1.02.03 0 .05.01.08.01.5.08.99.2 1.51.32 2.2.5 4.42 1.11 6.66 1.8l2.26.73c.11.04.22.07.33.11.65.21 1.28.42 1.93.67l1.87.68.39.15 2.26.89.01.01c.42.15.83.33 1.26.51a28.9 28.9 0 0 1 .82.35l.81.36 1.98.89 1.96.92 2.17 1.09 1.74.9c.05.03.11.06.16.09l1.76.97a63.23 63.23 0 0 1 1.79 1.02c.045.019.089.043.13.07l.21.12 1.35.81c.28.16.56.33.83.51.44.26.88.54 1.32.81.021.02.044.037.07.05a2.27 2.27 0 0 1 .2.13l1.62 1.05c.008.001.015.005.02.01l1.83 1.23.02.02c.62.42 1.22.86 1.82 1.29.1.08.2.15.31.23l.3.22c.39.28.78.57 1.17.87l.48.37 2 1.58a3.65 3.65 0 0 1 .29.24c.01.01.02.02.03.02l1.31 1.08a35.96 35.96 0 0 1 .69.59c.39.32.76.66 1.14 1 .33.28.65.58.97.87.01.02.03.03.04.04.45.4.89.81 1.33 1.23l.12.12c.09.08.17.16.26.25.46.43.91.87 1.35 1.31a4.26 4.26 0 0 0 .49.4c.09.07.18.14.29.21a5.01 5.01 0 0 0 .34.24 1.4 1.4 0 0 0 .18.12 2.14 2.14 0 0 1 .19.13c.008.001.015.004.02.01l.66.43.62.38c.16.11.33.21.51.32s.37.23.57.34l1 .6.15.09.95.55c.09.06.19.11.29.17l4.27 2.43c.1.05.19.09.29.15l.29.15.92.52 2.06 1.13c.35.2.71.39 1.07.59l1.8.99 1.49.81c.02.01.03.02.05.03l.33.18 1.65.89 1.87 1.01 6.24 3.35c.22.13.45.25.68.36l2.01 1.08 1.1.57 2.12 1.13 4.28 2.26 1.32.7.86.45 2.43 1.28 2.44 1.3 1.71.88 2.2 1.15 4.39 2.3 1.09.57 1.29.69 7.28 3.77c.35.19.7.36 1.04.54l4.09 2.13 1.87.97 1.09.56.75.41 5.72 2.95.87.44.86.44c.28.15.56.29.84.43l.39.21 1.23.63.78.4h.01l1.51.79 1 .53 4.17 2.13 1.18.6c.019.019.043.033.07.04a27.47 27.47 0 0 0 .92.47c.16.09.31.16.46.24l.83.43.73.38h.01c.2.11.42.22.6.31l.69.35.45.23.06.03c.03.02.07.03.1.05.018.011.039.018.06.02h.01c.01 0 .01.01.02.01.04.02.08.03.13.05a141.37 141.37 0 0 0 4.77 1.24c.13.04.26.07.39.1l2.02.48a.84.84 0 0 0 .15.04c.29.06.56.13.85.2l3.62.78a1.61 1.61 0 0 1 .31.04l1.65.31.34.06a93.43 93.43 0 0 0 4.34.72c.03 0 .06.01.09.01l2.09.29a86.07 86.07 0 0 0 4.01.44l1.96.17c4.315.344 8.65.381 12.97.11a10.8 10.8 0 0 0 .59-.05h.04c.03.002.061-.002.09-.01l1.39-.12c.89-.08 1.75-.17 2.6-.28l2.02-.29 2.14-.38a41.1 41.1 0 0 0 2.05-.43c.28-.06.55-.12.82-.19l1.13-.28 1.08-.3c.05-.01.11-.03.16-.04.061-.012.121-.029.18-.05l.32-.09c.04-.01.08-.02.11-.03l.53-.17a60.61 60.61 0 0 0 2.49-.83 41.13 41.13 0 0 0 1.18-.44c.19-.08.38-.15.56-.22a9 9 0 0 1 .55-.23l1.07-.46c.17-.07.34-.15.51-.23l.51-.24c.26-.12.52-.25.78-.38l.72-.36a15.06 15.06 0 0 0 .69-.37c.25-.13.5-.27.74-.4l1.12-.66 1.53-.99.47-.32.88-.63c.08-.06.15-.12.22-.17a2.26 2.26 0 0 1 .19-.14c.13-.11.26-.21.39-.31l.3-.24c.038-.03.078-.057.12-.08.049-.037.095-.078.14-.12a4.78 4.78 0 0 1 .36-.3c.05-.04.09-.08.14-.12.09-.07.17-.14.26-.21 1.265-1.125 3.274-.489 3.66 1.16 0 .02.01.03.01.05s.01.05.01.07c.051.201.091.405.12.61l.11.62.27 1.37c.011.098.028.194.05.29l.28 1.69c.25 1.41.47 2.84.67 4.27.07.31.11.65.16.96 10.62 74.48-13.46 198.17-180.91 159.9-1.66-.38-7.49-3.06-10.4-4.47a.9.9 0 0 1-.22-.11.24.24 0 0 1-.07-.04c-.154-.062-.304-.132-.45-.21-.028-.01-.052-.027-.07-.05-.01 0-.02-.01-.03-.02-.01 0-.02-.01-.03-.02-.05-.02-.11-.07-.16-.09-.046-.038-.089-.077-.13-.12a1.23 1.23 0 0 1-.11-.12l-11.14-11.54-2.99-3.02-1.75-1.75-1.74-1.73-1.61-1.59-1.33-1.3c-.22-.21-.44-.43-.66-.65s-.45-.43-.67-.64l-13.19-12.53-4.79-4.38-1.58-1.42-1.57-1.4-3.11-2.75-2.73-2.39c-.16-.13-.31-.26-.46-.39l-3.16-2.71-2.08-1.76-3.29-2.75-1.63-1.34c-.062-.043-.122-.09-.18-.14l-2.77-2.26-5.82-4.61-2.79-2.16-2.8-2.13-2.74-2.05-1.84-1.35-.88-.64-1.81-1.31-1.81-1.28-1.69-1.21-1.3-.9-.65-.44c-1.07-.76-2.17-1.48-3.22-2.19l-1.25-.86h-.01l-1.26-.82-1.23-.83-1.24-.8-1.22-.79c-.41-.27-.82-.52-1.23-.78l-1.21-.76-1.21-.76-2.34-1.44-2.44-1.46-4.63-2.69-1.69-.95-1.68-.92-1.67-.91-1.64-.87-3.2-1.64-.58-.31-.47-.24c-.02-.01-.05-.02-.07-.03-.03-.01-.05-.03-.08-.04l-.3-.15c-.07-.03-.14-.07-.2-.1s-.13-.06-.19-.09l-.7-.34c-.13-.07-.27-.13-.4-.2s-.27-.13-.4-.19l-.79-.38c-.53-.26-1.06-.5-1.57-.74l-1.55-.72-1.51-.68a171.54 171.54 0 0 0-5.83-2.48c-10.752-4.375-15.24-17.181-9.57-27.31.01-.03.03-.05.04-.08.011-.025.025-.048.041-.07zM353.4 514.84c.11.29.18.6.27.91.24.92.49 1.88.69 2.84.02.05.02.07.04.11l.72 3.51v.03c3.15 17.39.8 37.46-15.58 47.88-7.587 5.359-16.021 9.402-24.95 11.96h-.02c-2.873.864-5.79 1.572-8.74 2.12h-.02c-1.41.27-2.84.52-4.32.7l-.01.01-.01-.01c-5.69.766-11.446.924-17.17.47a80.49 80.49 0 0 1-5.77-.7l-.78-.13c-.03.002-.061-.002-.09-.01a1.67 1.67 0 0 1-.18-.05c-.029-.011-.059-.021-.09-.03-.016-.015-.038-.023-.06-.02-2.86-1.17-5.754-2.28-8.68-3.33-12.02-4.322-24.348-7.731-36.88-10.2-3.06-.6-6.13-1.16-9.23-1.67-6.4-1.06-12.88-1.86-19.36-2.46-24.39-2.26-71.4 2.79-71.4 2.79-59.35-20.77-82.53-57.25-90.38-74.89-2.017-4.56 1.627-9.603 6.59-9.12l132.34 12.21 160.44 14.8h.01l10.76.98a2.25 2.25 0 0 1 1.86 1.3zM75.92 315.8c2.854-5.867 9.498-8.852 15.78-7.09 7.494 2.144 14.793 4.917 21.82 8.29 3.867 1.844 3.903 7.336.06 9.23-17.23 8.48-50.61 30.34-70.79 79.12-.43 1-.83 1.99-1.21 2.97 8.407-31.885 19.908-62.872 34.34-92.52zM38.85 445.18l.02-.09 264.95 29.55a13.46 13.46 0 0 0 .06-1.25c-.013-5.686-4.29-10.457-9.94-11.09L50.32 435.12c-4.232-.476-6.826-4.878-5.19-8.81l.03-.06 196.69 23.47c.159.023.319.037.48.04.12.01.23.02.35.02.116.016.233.023.35.02.06.008.12.012.18.01.08 0 .16-.01.24-.01.067.002.134-.001.2-.01.03.002.061-.002.09-.01.08 0 .16-.01.24-.01s.16-.01.24-.01l.45-.06c.195-.02.388-.05.58-.09a8.31 8.31 0 0 0 .94-.2c.1-.03.21-.07.31-.11.008-.001.015-.004.02-.01a2.48 2.48 0 0 0 .29-.11c.088-.022.175-.049.26-.08s.17-.06.26-.1a14.05 14.05 0 0 0 1.11-.52c.1-.05.18-.1.27-.15.11-.06.23-.13.34-.2.117-.067.231-.141.34-.22a4.66 4.66 0 0 0 .51-.36 1.74 1.74 0 0 0 .22-.18c.22-.17.43-.35.64-.54.401-.373.776-.774 1.12-1.2a10.54 10.54 0 0 0 1.53-2.51c.08-.18.81-1.604.87-3.169l-2.46-.291-195.29-23.32c-3.171-.39-4.964-3.841-3.46-6.66l.04-.04c24.19-45.11 56.92-70.01 71.34-79.36 3.874-2.533 8.871-2.568 12.78-.09 36.91 23.36 73.12 58.46 96.66 83.36 2.62 2.77 18.87 8.18 21.17 8.74l2.9.69 2.86.66 5.54 1.22 2.72.56 2.7.54 4.15.79 2.5.45 2.18.38 2.16.36 4.26.65c1.43.23 2.84.43 4.25.61l.7.1 3.86.48c.15.01.3.02.44.04l4.05.45 3.13.3 3.09.26 1.02.07 2.42.15c.87.07 1.74.12 2.59.16l5.73.23.83.02c.48.02.96.03 1.44.03l1.52.01c.08.008.16.012.24.01h.08a.33.33 0 0 0 .14 0c.008.01.022.01.03 0 .03.01.03.01.04 0 .03.01.03.01.04 0 .028.01.042.01.05 0a2.25 2.25 0 0 1 2.02 1.33l15.65 41.07c.019.049.036.099.05.15.05.15.1.35.17.58.01.02.02.03.02.05.02.06.03.13.05.2l.09.34c.18.7.38 1.59.59 2.6.06.25.11.5.16.76l.67 3.36.23 1.19a2.25 2.25 0 0 1-2.46 2.61L44.75 453.54c-4.077-.452-6.84-4.368-5.9-8.36zM27.76 599.07a526.44 526.44 0 0 1-3.28-58.57l.01-3 .03-2.99c.073-1.999 2.526-2.913 3.89-1.45 1.02 1.18 2.08 2.37 3.2 3.57l1.34 1.42 2.17 2.23 2.52 2.48c.011.012.025.023.04.03l1.77 1.67 1.84 1.67 1.05.94c.36.32.72.63 1.09.94l.96.83.97.82 2.01 1.65c.13.11.26.21.39.32l1.18.93a15.31 15.31 0 0 0 .64.49 102.85 102.85 0 0 0 1.99 1.51l2.75 2.01c.106.098.22.189.34.27l2.48 1.72c.17.12.33.25.5.36a42.46 42.46 0 0 0 1.4.93l1.32.86c.06.04.11.08.17.12a67.52 67.52 0 0 0 2.28 1.45l1.3.8 1.58.97c1.19.72 2.41 1.42 3.65 2.12l1.81 1a1.68 1.68 0 0 0 .56.22l8.65 2.17c-28.12-15.36-43.88-43.03-49.65-64.04-.748-2.887 3.269-4.433 4.65-1.79 10.4 19.6 28.82 42.05 61.34 62.59 4.1 2.561 2.665 8.858-2.14 9.39-10.658 1.101-21.39 1.288-32.08.56h-2.24c.03.02.07.05.14.1.06.05.16.12.27.21.042.03.083.064.12.1.07.06.16.12.25.19.01.01.02.01.03.02.15.11.31.25.5.39.09.08.2.15.31.23.09.07.19.14.29.21.06.05.12.09.18.14a57.56 57.56 0 0 0 10.04 5.85c.37.17.74.33 1.12.49.36.17.74.32 1.12.47a26.85 26.85 0 0 0 .95.38c.01.01.02.01.03.02a2.24 2.24 0 0 1 .28 4.03l-2.47 1.4-1.81 1.06-1.97 1.2c-.27.15-.54.32-.8.49-.23.14-.45.28-.68.43-.37.22-.74.46-1.1.7l-1.48.97-.62.43-.82.54c-.55.36-1.09.74-1.62 1.12l-.8.58c-.063.057-.133.104-.21.14-.27.18-.54.38-.81.57-.23.16-.46.32-.68.49l-1.09.82a39.78 39.78 0 0 0-1.08.84l-1.99 1.56c-.21.16-.42.32-.62.5a23.71 23.71 0 0 0-1.12.92 1.74 1.74 0 0 0-.22.18c-.47.38-.93.77-1.38 1.17-.82.69-1.63 1.41-2.43 2.13-8.018 7.418-21.065 2.582-22.31-8.27zm874.41 304.98c-98.02 98.04-228.66 151.6-367.43 150.58-212.365-1.77-401.877-133.69-477.27-332.23a21.04 21.04 0 0 1 9.03-25.44c8.138-4.895 16.952-8.564 26.16-10.89 10.129-2.508 19.435 6.35 17.43 16.59l-.64 3.48c-.56 3.23-1.036 6.44-1.43 9.63l-.22 1.85c-.06.49-.11.99-.16 1.48-.13 1.18-.24 2.37-.34 3.55l-.32 4.36-.14 2.71-.12 3.2-.05 2.19-.02 2.67.03 3.15.07 2.62.08 2.08.04.82c0 .14.01.28.02.42l.08 1.42c.01.18.02.36.04.55l.17 2.37c.13 1.76.29 3.5.48 5.24l.36 3.05.41 3.03v.01l.47 3.01.65 3.66.31 1.66.82 3.9.36 1.59.86 3.53.43 1.67c.14.56.29 1.11.45 1.67.09.35.19.69.29 1.04l.87 2.95a6.85 6.85 0 0 0 .18.6l.81 2.57.25.78 1.02 3 1.17 3.24.72 1.9.86 2.2 1.86 4.46c.23.55.48 1.1.73 1.65a24.96 24.96 0 0 0 .4.91l1.18 2.54c.2.45.41.89.63 1.33l.65 1.34 1.33 2.64a163.03 163.03 0 0 0 4.23 7.8l1.16 1.99.5.85 1.37 2.25 1.04 1.67 1.07 1.67 1.85 2.81.33.49 1.89 2.75c.19.28.39.56.59.84l1.03 1.44 1.05 1.43.8 1.09c1.84 2.47 3.736 4.897 5.69 7.28l1.69 2.05.87 1.01c.29.33.57.67.85 1l3.53 3.98c1.63 1.8 3.297 3.573 5 5.32l2.36 2.4c1.7 1.7 3.43 3.37 5.19 5.01l1.36 1.26c4.04 3.73 8.23 7.32 12.57 10.77l2.27 1.8c.21.17.43.34.64.5l.64.49 1.73 1.32 3.27 2.42 3.31 2.37 1.59 1.11 1.94 1.33a215.54 215.54 0 0 0 5.71 3.76l2.76 1.74 3.07 1.88 1.98 1.18 2.24 1.31 1.47.84 1.89 1.07 1.76.97a46.79 46.79 0 0 0 1.38.75c7.17 3.88 14.527 7.433 22.07 10.66l3.81 1.59c1 .42 2 .82 3 1.21l2.02.79c.67.27 1.35.53 2.03.78l4.07 1.5 4.1 1.44 4.12 1.38 2.83.9 1.73.54a251.42 251.42 0 0 0 8.8 2.53l3.31.87 2.04.51 5.37 1.28 2.69.59 1.9.4 2.41.49 1.65.32c.77.16 1.54.31 2.31.44l1.47.27 2.23.38a226.87 226.87 0 0 0 8.92 1.35c.69.1 1.39.18 2.09.27a253.58 253.58 0 0 0 15.2 1.46l2.59.15 4.13.19a6.77 6.77 0 0 0 .45.02l3.59.11c.15.01.3.01.45.01l2.27.03c1.93.03 3.86.03 5.78-.01.42 0 .84-.01 1.27-.02.03.01.03.01.04 0h.01c.03.01.03.01.04 0 .01.01.02.01.04 0 .028.01.042.01.05 0h.01a.81.81 0 0 0 .22 0 206.56 206.56 0 0 0 6.58-.22c.72-.02 1.43-.08 2.14-.11a2.7 2.7 0 0 0 .4-.03c.008.01.022.01.03 0a34.74 34.74 0 0 0 1.44-.09c.11 0 .22-.01.32-.02.77-.04 1.53-.1 2.3-.16l2.58-.21c.68-.05 1.36-.12 2.04-.19.59-.05 1.19-.11 1.79-.18l1.49-.16c.06 0 .11-.01.16-.01l.61-.08c.46-.04.93-.1 1.39-.16l1.3-.16c.03.002.061-.002.09-.01l2.33-.3 3.46-.52c.26-.03.53-.08.8-.12a56.66 56.66 0 0 0 1.88-.3c.27-.04.53-.1.8-.14l.86-.15 3.52-.64c2.03-.39 4.053-.813 6.07-1.27.39-.08.78-.17 1.16-.26l2.4-.57 1.38-.34c.055-.007.108-.021.16-.04l1.24-.31a1.48 1.48 0 0 0 .28-.08l1.59-.41c.83-.21 1.66-.44 2.48-.68l2.7-.78 3.6-1.1 1.5-.48c.22-.06.44-.13.66-.21a11.52 11.52 0 0 0 .83-.27l1.5-.51a200.2 200.2 0 0 0 6.68-2.43l3.3-1.3c.42-.16.83-.33 1.24-.5.37-.15.74-.31 1.09-.47.13-.05.26-.11.39-.17l.56-.24c.14-.06.29-.13.43-.18l2.02-.89 1.88-.85c.43-.19.85-.38 1.28-.59.38-.17.75-.35 1.13-.53a13.64 13.64 0 0 0 .55-.26c.027-.008.054-.018.08-.03.36-.18.7-.33 1.03-.51l.48-.24 2-1.01c.133-.049.261-.113.38-.19.53-.26 1.06-.53 1.58-.81.38-.19.76-.39 1.13-.59l1.04-.57c.028-.003.053-.018.07-.04l1.95-1.07c.62-.33 1.24-.68 1.85-1.04.34-.19.68-.39 1.02-.59.11-.06.22-.12.33-.19.16-.09.33-.18.49-.28l1.06-.63 2.77-1.7 1.06-.66 1.9-1.23 1.46-.96 2.22-1.5c.67-.45 1.33-.92 1.99-1.39.042-.027.082-.057.12-.09l1.43-1.03c.39-.27.78-.56 1.17-.85a1.46 1.46 0 0 0 .21-.16c.017-.003.032-.014.04-.03.051-.027.098-.06.14-.1.01 0 .03-.01.04-.04.01.01.01.01.02-.01a18.23 18.23 0 0 0 .88-.66c.03 0 .04-.02.06-.04.017-.003.032-.014.04-.03a2 2 0 0 0 .3-.23c1.51-1.13 3-2.29 4.47-3.5l1.8-1.48a53.16 53.16 0 0 0 1.2-1 10.67 10.67 0 0 1 .63-.54 137.39 137.39 0 0 0 5.13-4.58c.54-.49 1.07-.99 1.59-1.5.24-.2.47-.43.7-.66l1.65-1.61c.48-.46.95-.94 1.43-1.42l.9-.92c1.39-1.41 2.753-2.857 4.09-4.34l.5-.56c.19-.2.37-.4.54-.6a13.07 13.07 0 0 0 .62-.7c.16-.16.3-.33.44-.49l2.18-2.54 1.59-1.91 1.9-2.35 1.87-2.4.9-1.18c1.22-1.6 2.41-3.233 3.57-4.9.16-.21.31-.43.46-.65.82-1.16 1.62-2.34 2.41-3.54l1.42-2.16c.06-.09.12-.18.17-.27l1.36-2.18c.14-.21.27-.42.39-.63l.89-1.44 1.26-2.12.9-1.55.89-1.58 1.49-2.68c.24-.42.47-.84.68-1.26l.6-1.12c.07-.108.13-.222.18-.34l1.53-2.98a.2.2 0 0 0 .04-.08l1.25-2.51.55-1.16 1.17-2.51c.024-.029.042-.063.05-.1a3.52 3.52 0 0 0 .18-.4l.63-1.38a142.94 142.94 0 0 0 1.66-3.77l.79-1.88.65-1.58.96-2.4c.734-1.848 3.333-1.892 4.13-.07l.01.01c.01.04.03.06.04.1.03.1.07.19.1.29l.3.78.27.7a36.18 36.18 0 0 0 .51 1.33v.01l.54 1.32.24.64.3.74.49 1.15c.17.44.36.87.54 1.3l.57 1.29a70.81 70.81 0 0 0 1.14 2.55c.05.12.1.25.16.37.25.56.51 1.11.78 1.66l1.39 2.86c.18.38.37.75.56 1.13.69 1.4 1.407 2.78 2.15 4.14l1.04 1.89a51.41 51.41 0 0 0 .91 1.62l1 1.74a24.76 24.76 0 0 0 .57.97l.87 1.45 1.3 2.11 1.1 1.73 1.43 2.2 1.95 2.88 1.19 1.69c.84 1.2 1.7 2.383 2.58 3.55a192.1 192.1 0 0 0 4.81 6.16c.02.032.044.063.07.09l2.54 3.02a33.18 33.18 0 0 0 .77.91l.71.81c.36.43.74.85 1.12 1.27.43.5.88.98 1.32 1.47l1.74 1.88 1.88 1.97c.62.66 1.26 1.31 1.9 1.95a199.43 199.43 0 0 0 7.91 7.49 31.7 31.7 0 0 0 1.06.96c.35.32.72.63 1.09.94l3 2.58a228.26 228.26 0 0 0 6.19 4.97l1.58 1.2 1.59 1.18 1.61 1.19 1.63 1.16 2.64 1.83 1.41.97 1.43.95 5.47 3.49.17.11 1.73 1.06.52.3 1.09.66a163.56 163.56 0 0 0 5.03 2.88l1.26.7c2.32 1.27 4.65 2.49 7.01 3.67l2.1 1.04c.18.09.35.17.52.25l.87.42 1.41.67.66.3 4.33 1.97 1.36.59 2.42 1.03a78.67 78.67 0 0 0 2.12.87 50.84 50.84 0 0 0 1.56.63l1.26.5c.47.19.93.37 1.4.54l1.9.72.66.25c.01.01.01.01.02.01.6.23 1.2.45 1.8.66l.84.3 3.75 1.3 1.49.5 3 .96 1.52.48a11.36 11.36 0 0 0 .77.24c.26.08.52.15.77.22l2.03.61h.01c.034.027.077.041.12.04.47.15.94.28 1.42.41.07.03.144.051.22.06.013.014.033.018.05.01l1.54.43 3.18.86 2.74.69c.69.18 1.39.35 2.08.51l1.36.31 3.18.72 1.2.26 4.82.98 1.89.35 1.08.2c.205.047.412.084.62.11l1.32.22a18.11 18.11 0 0 0 1.02.18l2.39.39c.23.03.45.07.68.1.16.03.32.06.49.08l3.61.52 2.37.31c.21.03.41.06.62.07l1.79.21 2.64.3 2.65.26 6.46.53a2.54 2.54 0 0 1 .38.02l1.89.12 2.38.13a103.54 103.54 0 0 0 3.07.13l1.44.05c.019.01.041.01.06 0 .11.01.21.01.32.01a97.47 97.47 0 0 0 2.96.07l4.18.04 2.14-.01 2.14-.03c4.29-.08 8.587-.277 12.89-.59a50.68 50.68 0 0 0 1.74-.1l.87-.07.88-.08 2.72-.24 3.22-.33 4.94-.61c1.52-.18 3.06-.38 4.58-.63l4.11-.64 3.46-.6 1.39-.26a222.96 222.96 0 0 0 8.68-1.8l2.51-.59 2.41-.6c1.01-.23 1.99-.5 3-.76a215.61 215.61 0 0 0 9.67-2.78 42.84 42.84 0 0 0 1.61-.49l1.59-.53c2.42-.76 4.81-1.59 7.2-2.46l2.48-.9 2.46-.96c1.65-.62 3.29-1.3 4.92-1.97l4.33-1.85 2.11-.93 2.1-.97 1.7-.79c1.25-.58 2.49-1.19 3.73-1.81l1.32-.67 3.98-2.05c.83-.43 1.66-.88 2.49-1.34 2.09-1.14 4.163-2.32 6.22-3.54 1.06-.6 2.08-1.22 3.11-1.87l6.24-3.93 2.05-1.36 5.43-3.76 3.51-2.57 1.5-1.13 2.96-2.3 1.33-1.04c.45-.35.89-.71 1.33-1.08a164.63 164.63 0 0 0 3.57-2.95l1.68-1.43c.42-.35.84-.72 1.26-1.1l.42-.38 1.02-.89a68.89 68.89 0 0 0 1.57-1.41l1.57-1.44c.3-.27.6-.54.89-.83l.67-.64 1-.94c.043-.034.083-.071.12-.11l.93-.89 1.9-1.88c.09-.08.16-.15.25-.23a3.52 3.52 0 0 0 .27-.28l3.44-3.51 3.47-3.69a47.09 47.09 0 0 0 1.51-1.66l.48-.55 1.18-1.31 1.14-1.31.4-.47 3.2-3.78 1.19-1.44 1.76-2.2 1.74-2.24 2.8-3.68 1.34-1.81 1.32-1.84 1.36-1.91 1.32-1.93 1.96-2.88 2.29-3.51 1.51-2.39 1.84-3.03c.56-.87 1.08-1.76 1.57-2.66.69-1.14 1.36-2.28 2.01-3.44a.18.18 0 0 0 .05-.07c.019-.027.033-.058.04-.09.21-.35.42-.71.62-1.08.29-.5.57-1.01.85-1.52l1.21-2.25.43-.79a12.67 12.67 0 0 0 .42-.82l.6-1.12c.21-.37.4-.75.59-1.13l1.16-2.28c.89-1.75 1.76-3.54 2.61-5.35l.4-.81.38-.84 1.84-4c.29-.63.56-1.25.83-1.88.69-1.54 1.36-3.13 2.03-4.72l1.3-3.16 1.18-2.98c.032-.067.056-.137.07-.21l1.17-3 .59-1.61.56-1.55 1.16-3.2.56-1.62.54-1.62c.63-1.79 1.21-3.62 1.79-5.46l.92-2.93.71-2.33c.008-.023.015-.046.02-.07l.67-2.33.14-.45 1.61-5.86.65-2.44c.07-.21.12-.43.17-.65l.76-3.1c.34-1.3.65-2.59.94-3.89.1-.38.19-.76.28-1.14l.44-1.96c.06-.26.11-.52.16-.77.2-.85.4-1.72.55-2.59l.46-2.04.44-2.16.43-2.18.42-2.32.28-1.42c.05-.24.1-.48.13-.72a8.98 8.98 0 0 0 .12-.72l.09-.44a39.6 39.6 0 0 0 .19-1.05l.24-1.5.66-3.93c.05-.26.09-.53.13-.79.018-.066.031-.132.04-.2.03-.18.05-.36.08-.54l.15-1.01.21-1.54c.25-1.49.45-2.99.65-4.51l.22-1.5.16-1.5.6-4.83.19-1.47.08-.74a18.32 18.32 0 0 1 .07-.74l.29-2.63c.02-.16.03-.31.05-.47a2.26 2.26 0 0 1 2.87-1.96.61.61 0 0 1 .12.05l.09.03c.075.029.149.063.22.1a75.9 75.9 0 0 1 2.45 1.09l.75.35c.78.36 1.54.73 2.31 1.12l1.5.77a28.08 28.08 0 0 1 1.32.7l1.32.73 2 1.14 1.79 1.1 1.08.69c.32.2.65.42.98.64l.98.67c.3.19.6.4.89.61l.87.64c.048.031.095.064.14.1.01 0 .01 0 .02.01a1.48 1.48 0 0 1 .15.11c.04.03.07.05.11.08.06.05.13.09.19.15.56.4 1.12.8 1.68 1.27.385.27.756.561 1.11.87.52.4 1.01.81 1.5 1.23a9.25 9.25 0 0 1 .72.63 34.23 34.23 0 0 1 1.81 1.61c.064.037.125.08.18.13.035.025.065.055.09.09s.05.06.08.09c.67.6 1.32 1.23 1.95 1.85.11.12.22.23.31.34l1.02 1.02 1.24 1.34c.39.41.77.84 1.15 1.27l.97 1.12a24.29 24.29 0 0 1 .81.97c.98 1.21 1.937 2.453 2.87 3.73.69.95 1.35 1.92 2 2.91l.16-.2c-25.917 63.381-64.257 120.934-112.76 169.27zm-446.95-336.1a14.52 14.52 0 0 0-.6-.22l-4.42-1.68-1.44-.54-4.22-1.56-1.37-.48-8.93-3.19-1.96-.68-.33-.12c-.69-.22-1.34-.47-1.99-.67-.01-.02-.02-.03-.04-.03a.49.49 0 0 0-.11-.04l-1.77-.6-1.16-.4-2.26-.76a.5.5 0 0 0-.13-.05.16.16 0 0 0-.08-.03.75.75 0 0 0-.13-.06c-.83-.448-1.293-1.366-1.16-2.3a41.29 41.29 0 0 1 .21-1.28c.019-.065.032-.132.04-.2l.33-1.61c.03-.16.07-.32.11-.48a5.13 5.13 0 0 1 .12-.5c.01-.07.03-.15.05-.24l.25-1.01c.17-.69.37-1.4.59-2.13l.34-1.12.29-.86c.01-.03.01-.05.02-.08a15.91 15.91 0 0 1 .27-.82l.3-.84c.21-.6.45-1.22.7-1.85l.52-1.22c.06-.15.11-.3.18-.45.27-.65.57-1.31.89-1.99l.6-1.22c.16-.34.34-.67.52-1.02a29.08 29.08 0 0 0 .41-.79c.12-.23.24-.47.38-.71.13-.24.27-.48.41-.73.29-.52.6-1.05.94-1.59l.41-.67c.06-.11.13-.22.2-.33a59.2 59.2 0 0 1 1.69-2.56c.19-.28.39-.57.61-.85l.88-1.19c.17-.24.35-.47.53-.7l.56-.71c.29-.37.6-.75.91-1.12.42-.51.86-1.03 1.32-1.54a12.79 12.79 0 0 1 .6-.68 22.87 22.87 0 0 1 .68-.74l1.14-1.16c.35-.38.71-.73 1.07-1.09.45-.45.92-.9 1.39-1.34l.67-.62c.23-.2.45-.41.69-.61l1.84-1.59a50.77 50.77 0 0 1 1.94-1.56c.33-.26.67-.51 1.01-.77s.68-.52 1.03-.76c.35-.26.71-.51 1.06-.76l.12-.09 1.52-1.03c.72-.49 1.45-.96 2.21-1.43l.98-.6 1-.6 1.1-.63 2.01-1.11 1.08-.57c.25-.12.49-.25.74-.37l2.14-1.06 2.24-1.02 1.14-.51 1.45-.62c.61-.26 1.22-.51 1.85-.75l1.06-.41a56.91 56.91 0 0 1 2.09-.77l.75-.27 1.71-.59a126.53 126.53 0 0 1 3.28-1.05l.87-.26 1.2-.35 1.22-.34 1.53-.41c.51-.14 1.03-.27 1.56-.4.54-.14 1.09-.27 1.64-.4l1.13-.26 1.5-.35 2.72-.56c.38-.08.76-.15 1.15-.22.13-.02.25-.05.38-.08l1.63-.3 1.33-.23c.03-.01.06-.01.09-.02l1.27-.22.91-.14 1.44-.21c.28-.03.56-.07.84-.11.04-.01.09-.01.13-.02l2.82-.38c.15-.01.3-.03.45-.05.48-.07.98-.11 1.47-.17.06-.01.12-.01.17-.02l.063-.007 2.198-.253 3.08-.29a25.46 25.46 0 0 1 .87-.07l1.46-.12 1.94-.14 3.97-.23 4.07-.16 3.49-.08 3.02-.02 2.96.01 2.82.05.92.04c.34 0 .7 0 1.03.03.59.01 1.18.03 1.77.06a50.68 50.68 0 0 1 1.74.09l2.33.14 1.83.12.45.03c.07.01.15.01.22.02.11.02.21.02.31.03l1.91.17c.16.01.32.03.48.05l1.37.13 1.52.17.49.06c.21.02.42.04.62.07l1.77.22 1.73.24c.29.04.58.09.86.14l.77.1c.26.04.51.07.76.12l.71.11 2.32.4.14.03c.11.01.22.03.33.04l1.14.23 4.03.85 1.55.36a113.17 113.17 0 0 1 9.25 2.58c.2.06.39.12.58.19l.46.15c.64.19 1.27.41 1.88.65l2.22.82a67.04 67.04 0 0 1 2.13.84l1.05.43a31.84 31.84 0 0 1 1.03.44c1.3.56 2.57 1.14 3.8 1.74l.96.48a83.09 83.09 0 0 1 8.43 4.8c.62.39 1.22.79 1.81 1.2.3.2.59.41.88.61a5.09 5.09 0 0 1 .38.26c.52.39 1.03.74 1.55 1.12.21.16.41.32.61.48l1.22.97a36.97 36.97 0 0 1 1.17.94l1.05.89a42.76 42.76 0 0 1 1.01.89c.34.29.67.59.99.9.33.3.65.61.97.91l.69.67c.34.33.67.67 1 1a29.26 29.26 0 0 1 .78.81c1.15 1.21 2.23 2.423 3.24 3.64l.99 1.22.76.98a69.78 69.78 0 0 1 2.2 3.02c.21.3.41.59.6.89.4.59.78 1.19 1.15 1.78a20.82 20.82 0 0 1 .54.88c.21.33.4.67.6 1h.01l.67 1.19.64 1.19.61 1.17.58 1.16 1.21 2.62.27.6a60.29 60.29 0 0 1 .95 2.33l.32.87.31.85c.08.18.14.37.2.55.069.177.129.357.18.54.31.91.59 1.79.85 2.63.24.81.46 1.58.65 2.32a1.08 1.08 0 0 1 .05.17l.2.81c.09.36.17.71.24 1.05a2.23 2.23 0 0 1-2.01 2.66c-2.27.21-4.54.54-6.79.96-.89.16-1.77.33-2.65.52-.46.09-.92.2-1.38.3-.4.08-.8.18-1.2.27s-.8.19-1.2.29a1.23 1.23 0 0 0-.1.03l-1.56.39-1.57.43-3.11.92-.71.22a66.33 66.33 0 0 0-2.13.7 54.6 54.6 0 0 0-1.67.57c-1.11.39-2.22.8-3.31 1.22l-1.63.64-1.07.42c-.96.38-1.91.78-2.85 1.19-.11.05-.21.09-.31.14l-2.46 1.09-4.29 2.01c-2.12 1.03-4.19 2.1-6.22 3.18l-2.11 1.15-2.07 1.16-1.74 1-1.47.86c-.49.28-.97.57-1.45.86l-3.64 2.25-2.89 1.86-2.79 1.83-4.18 2.89-2.35 1.67c-.01.01-.02.01-.03.02l-.45.32-1.78 1.31c-2.31 1.71-4.33 3.28-6.04 4.64-3.26 2.59-39.57 5.79-49.87-1.66a65.7 65.7 0 0 0-4.67-3.04l-1.65-.97-.57-.32a23.23 23.23 0 0 0-.99-.56 31.96 31.96 0 0 0-1-.55l-1.39-.75-1.77-.92-.98-.5a190.77 190.77 0 0 0-5.13-2.5l-2.16-1.01-2.2-1-2.42-1.09c-.032-.009-.062-.023-.09-.04l-2.37-1.03-.55-.24-2.97-1.27c-5.47-2.31-11.12-4.56-16.6-6.66l-.89-.35zm594.62 27.83c-.972 9.231-11.257 14.274-19.15 9.39-1.32-.83-2.663-1.633-4.03-2.41a8.66 8.66 0 0 1-2.7-12.61c1.97-2.73 4.11-5.86 6.46-9.41l2.47-5.9c.827-2.236-1.94-4.05-3.66-2.4l-2.14 1.99-1.13 1.01c-.74.66-1.51 1.32-2.29 1.98l-1.16.97-1.11.91-1.13.9-2.28 1.74-.85.66-1.98 1.43-1.13.79-1.13.77-1.14.75-1.13.73-1 .62-.91.55a11.41 11.41 0 0 1-.66.39l-.8.46-1.23.68c-.05.02-.09.05-.14.07a18.2 18.2 0 0 1-.86.47c-1.865.956-4.065 1.004-5.97.13-.015-.002-.029-.009-.04-.02-.03-.01-.05-.02-.08-.03-.02.002-.041-.002-.06-.01-.04-.01-.07-.02-.11-.03l-.05-.02c.56-.38 1.1-.77 1.63-1.16a26.5 26.5 0 0 0 1.04-.81l.75-.61c.25-.2.5-.41.74-.63.48-.42.94-.84 1.39-1.27l.7-.69c.22-.24.45-.47.67-.7s.43-.47.64-.7c.26-.3.51-.56.76-.85a10.75 10.75 0 0 0 .55-.66 29.94 29.94 0 0 0 .52-.66c.05-.07.11-.14.17-.21s.11-.14.16-.21c.12-.14.22-.28.32-.42.22-.28.42-.56.62-.84a27.76 27.76 0 0 0 .66-.97c.2-.29.39-.58.57-.88.12-.18.23-.36.34-.54s.21-.37.31-.56c.11-.17.21-.34.31-.51.2-.34.39-.68.55-1.02.09-.17.18-.33.26-.5.12-.21.22-.41.32-.62l.28-.61.58-1.28c.18-.4.36-.83.52-1.23.36-.89.67-1.76.94-2.61l.62-2.04c.01-.03.02-.06.03-.1l.26-1.04.25-1.07c.03-.11.05-.21.07-.32.06-.28.11-.55.16-.81a35.67 35.67 0 0 0 .32-1.96c.02-.14.04-.28.05-.42.02-.13.04-.26.05-.39.02-.11.03-.22.04-.32l.03-.29a.55.55 0 0 0 .01-.14c.01-.15.03-.28.03-.4a3.34 3.34 0 0 1 .02-.3c.02-.16.02-.28.03-.38l.02-.22 2.79-12.11c.594-2.442-2.662-3.865-4.05-1.77-.04.07-.09.14-.13.21s-.09.14-.14.21l-.27.42-.18.29c-.018.032-.038.062-.06.09-.01.01-.01.02-.02.03-.02.02-.03.05-.05.07 0 .02-.02.04-.03.06s-.022.032-.03.05a.59.59 0 0 1-.07.1c-.013.026-.03.049-.05.07 0 .01-.01.02-.02.03-.01.02-.02.03-.03.05-.023.045-.05.089-.08.13-.012.015-.022.032-.03.05l-.67 1.03c-1.24 1.87-2.59 3.82-4.07 5.8l-.55.72-.55.74c-.22.28-.43.57-.67.85l-.43.54-.76.96c-.011.027-.028.051-.05.07-.15.19-.3.38-.46.56-.11.14-.22.27-.34.4-.43.53-.87 1.05-1.32 1.56-.011.03-.032.054-.06.07-.16.19-.32.39-.5.58l-.8.9-1.1 1.21c-.82.89-1.67 1.78-2.55 2.65l-.6.6a46.78 46.78 0 0 1-3.67 3.26 21.88 21.88 0 0 1-.94.75 9.13 9.13 0 0 1-.49.38c-.21.16-.42.31-.63.46-.028.026-.058.05-.09.07-.41.3-.82.59-1.24.87l-.76.51c-.19.13-.39.26-.58.38l-.9.56a2.38 2.38 0 0 1-.3.18 54.83 54.83 0 0 1-1.3.76c-.47.27-.94.52-1.42.77a29.91 29.91 0 0 1-1.13.57c-.52.27-1.04.51-1.57.75-.36.17-.73.32-1.09.47-.5.22-1.01.43-1.51.63l-1.46.55-.09.03-1.35.46-1.07.35a34.29 34.29 0 0 1-.95.28l-.79.22a56.19 56.19 0 0 1-1.75.45 23.2 23.2 0 0 1-.89.2c-.54.13-1.08.24-1.63.34l-.7.13c-.62.11-1.24.21-1.86.3-.61.09-1.23.17-1.85.24-.44.06-.88.1-1.31.14h-.02l-2.1.15a2.76 2.76 0 0 1-.28.01 45.18 45.18 0 0 1-1.63.06c-2.742.066-5.485-.057-8.21-.37-36.93-4.2-76.12-.31-107.63 10.91-.03.03-.03.03-.05.03-2.28.8-4.54 1.65-6.73 2.54-.53.22-1.07.43-1.61.62a30.85 30.85 0 0 1-1.62.55c-.55.18-1.1.33-1.65.47-.55.16-1.11.29-1.67.4-.56.13-1.12.24-1.68.33-.46.08-.93.15-1.4.21l-1.24.15c-.38.04-.77.07-1.15.1-.44.04-.88.06-1.32.08l-41.25 1.72 2.89 1.92a17.82 17.82 0 0 0 6.1 2.64h.02a15.99 15.99 0 0 0 2.28.4l20.39 2.19c-1.749 1.143-3.79 1.758-5.88 1.77h-.11l-24.48-.04h-.16l-13.79-.03-10.48-.02a2.79 2.79 0 0 1-.41-.04l-1.55-.27a96.97 96.97 0 0 1-5.98-1.33c-.92-.23-1.82-.48-2.71-.75l-1.99-.61c-.79-.25-1.57-.52-2.34-.79-.055-.012-.108-.029-.16-.05-.15-.06-.31-.12-.46-.17-.1-.03-.19-.07-.29-.11l-1.79-.67c-.05-.02-.09-.04-.14-.06-.44-.17-.88-.35-1.31-.53a70.15 70.15 0 0 1-3.05-1.33l-.76-.35-2.34-1.14a71.97 71.97 0 0 1-2.46-1.3l-1.48-.82a88.15 88.15 0 0 1-3.96-2.39c-.4-.25-.79-.51-1.18-.77-.51-.33-1-.67-1.49-1.01l-.69-.48-1.29-.92-1.29-.95-.92-.71c-.63-.47-1.23-.96-1.81-1.45-1.14-.92-2.21-1.83-3.24-2.73l-1.57-1.43a100.04 100.04 0 0 1-2.75-2.64c-.55-.54-1.07-1.08-1.57-1.6l-.73-.78-.7-.75-.67-.75-.63-.72-.6-.69-.57-.67-1.23-1.5-.71-.91-.77-1.01-.34-.46-.31-.42c-.61-.85-1-1.44-1.17-1.69a.37.37 0 0 1-.06-.1c-.04-.04-.07-.08-.1-.11l-.1-.11-6.52-6.53c.08.15.31.7.7 1.58.06.13.12.27.19.41l.53 1.14.29.62 1.17 2.4.71 1.34.97 1.78 1.66 2.91 1.84 3.01c.12.2.25.4.39.61.51.81 1.06 1.65 1.64 2.49.23.35.48.7.73 1.06.34.51.7 1.02 1.08 1.53l.67.92a56.45 56.45 0 0 0 1.39 1.86l1.44 1.83a105.83 105.83 0 0 0 3.1 3.68l.83.92c.41.46.84.92 1.27 1.38.84.9 1.72 1.79 2.62 2.67a25.96 25.96 0 0 0 .93.9c.17.17.34.33.52.49l.97.89 1.35 1.22.66.57 1.86 1.55c.16.13.31.26.47.38.43.35.87.69 1.31 1.02 1.31 1.02 2.68 2 4.09 2.95a.95.95 0 0 0 .09.07l.72.46c.26.18.52.34.78.51a69.29 69.29 0 0 0 2.8 1.7 19.4 19.4 0 0 0 .77.44c.34.2.69.39 1.04.57a8.59 8.59 0 0 0 .52.28c.17.1.35.19.53.28a35.37 35.37 0 0 0 1.06.55l1.08.53 1.32.61c.44.21.89.41 1.34.6a49.14 49.14 0 0 0 2.7 1.1l1.18.44a62.73 62.73 0 0 0 3.1 1.06l1.95.58a57.31 57.31 0 0 0 1.98.53c.62.16 1.24.31 1.87.44l1.11.23a21.88 21.88 0 0 0 1.11.23c.34.07.69.13 1.04.19l.5.09.56.09 35.01 1.41c1.701.054 2.593 2.045 1.5 3.35-.51.62-1 1.25-1.49 1.89l-1.08 1.47-.53.76c-.7.99-1.37 2-1.99 3.03l-.59.97-.69 1.22a18.64 18.64 0 0 0-.54.98 15.67 15.67 0 0 0-.52.99l-.47.93c-.13.26-.25.52-.37.78-.38.81-.74 1.61-1.07 2.43-.02.05-.03.09-.05.14l-.03.13-2.21 11.02c26.29-64.21 180.11-68.21 245.72-20.86a25.28 25.28 0 0 1 9.75 26.06c-1.43 6.24-2.95 12.43-4.61 18.6-2.562 9.47-13.597 13.709-21.84 8.39-48.55-31.12-118.54 3.21-119.48 3.57l-9.08 4.54c-2.269 1.128-1.234 4.563 1.28 4.25.14-.02.28-.03.42-.05l5.29-.58 1.03-.1 3.2-.28 1.92-.15 2.44-.17c.19-.01.39-.03.58-.04l.96-.05 1.25-.06 1.15-.06 1.24-.05 2.69-.1c.16-.01.31-.01.47-.01l1.72-.04c2.68-.06 5.43-.06 8.26-.02l3.51.09 4.23.19 2.81.18 2.27.17 2.3.2a55.41 55.41 0 0 1 1.81.18l2.86.31 1.97.24 2.1.3 1.72.26c.125.011.248.031.37.06 1.068.225 1.832 1.168 1.83 2.26v.18l-.29 3.08-.08.8-.49 4.6-.29 2.61-.32 2.59-.53 4.15-.25 1.84-.47 3.26-.73 4.71-.37 2.27-1.49 8.33c-.12.67-.25 1.33-.39 1.99l-1.42 6.85-.24 1.09c-.04.22-.09.43-.14.65l-.28 1.26a7.29 7.29 0 0 1-.15.64l-.5 2.1-1.12 4.61-.38 1.52a22.33 22.33 0 0 1-.35 1.35l-.21.75-.67 2.56-1.42 5.06-.63 2.12-.35 1.18c-.25.87-.52 1.73-.79 2.59l-.59 1.86-.62 1.91c-.13.42-.27.84-.41 1.25l-.44 1.27c-.07.23-.15.45-.22.68.01.01.01.02-.01.03-.52 1.57-1.07 3.13-1.63 4.67l-.76 2.1-.93 2.48-.74 1.94c-.029.088-.062.175-.1.26l-1.65 4.15-1.63 3.9c-.81 1.93-1.647 3.833-2.51 5.71l-.45.97c-.06.15-.13.29-.2.44a37.22 37.22 0 0 1-.67 1.43c-1.3 2.79-2.643 5.523-4.03 8.2l-.79 1.52c-.86 1.66-1.743 3.3-2.65 4.92l-1.33 2.38a74.02 74.02 0 0 1-1.11 1.93l-.68 1.16a55.73 55.73 0 0 1-.99 1.67l-1.01 1.67c-1.22 2-2.463 3.967-3.73 5.9l-1.05 1.59a54.36 54.36 0 0 1-1.06 1.58l-1.69 2.44a49.81 49.81 0 0 1-.83 1.18 2.2 2.2 0 0 1-.17.25c-.21.3-.42.6-.65.89a1.36 1.36 0 0 1-.15.21l-1.22 1.68c-.013.034-.033.065-.06.09l-1.84 2.47a6.18 6.18 0 0 0-.23.31l-1.63 2.12a19.19 19.19 0 0 1-.41.54c-.117.164-.244.321-.38.47-.28.36-.57.72-.87 1.08l-1.43 1.78c-.07.09-.15.18-.23.27l-1.69 2.03-1.67 1.94-1.13 1.31c-1.59 1.81-3.2 3.59-4.83 5.32l-1.78 1.86-.67.71-1.12 1.12-1.39 1.4c-.14.14-.28.27-.42.4l-1.82 1.77c-2.33 2.26-4.707 4.433-7.13 6.52l-3.32 2.83-2.66 2.21a11.89 11.89 0 0 0-.52.4l-2.21 1.72-2.73 2.08-2.36 1.74-.98.7c-.74.54-1.47 1.05-2.21 1.56-.05.04-.1.07-.15.11l-2.65 1.81-2.84 1.86-2 1.27c-.32.21-.64.41-.96.61l-2.07 1.26c-1.01.62-2.03 1.22-3.05 1.8l-1.01.58a60.83 60.83 0 0 1-1.95 1.09l-2.48 1.35-1.55.83-2.36 1.22-2.97 1.48c-137.07 66.77-294.24-44.73-280.12-196.58l8.54-91.81c.684-7.336 4.336-14.073 10.11-18.65l.09-.06c13.41-10.67 47.79-35.26 79.8-35.26a14.97 14.97 0 0 1 1.16.03l3.6.04a2.24 2.24 0 0 0 2.24-2.23l-.16-3.65c-.02-.85-5.01-84.72-122.08-81.05-58.25 1.81-86.06 23.51-99.11 41.4-14.42 19.76-14.56 39.09-14.56 39.9l.03 2.65v1.39l3.84 1.26c.63.2 62.88 20.49 81.86 34.2l.11.09c8.249 5.914 13.456 15.178 14.22 25.3l5.59 73.26c13.77 180.98-201.46 288.34-335.31 165.78-43.22-39.57-67.47-96.37-51.87-163.23 2.04-8.415 11.322-12.804 19.12-9.04.45.21.9.43 1.35.66l.69.34c.23.11.45.23.68.35l1.38.7.94.5.63.36c.25.13.51.27.77.42.17.09.34.18.51.28l1.27.73a2.35 2.35 0 0 1 .21.13c.58.33 1.16.67 1.74 1.03l.93.6c.1.06.2.12.3.19l1.63 1.05.89.58c.46.3.92.61 1.38.94 1.15.79 2.31 1.62 3.47 2.48.23.15.42.31.64.48l.01.01 1.42 1.08 1.42 1.11a1.14 1.14 0 0 1 .13.1c.011 0 .022.003.03.01 1.709 1.151 3.938-.41 3.44-2.41l-.3-1.21-.11-.44a2.14 2.14 0 0 0-.71-1.08l-1.37-1.19-2.74-2.29-1.36-1.1c-.45-.37-.91-.73-1.36-1.08l-1.37-1.07-1.35-1.02-1.35-1.01-2.69-1.95c-.45-.33-.91-.65-1.36-.96l-1.35-.93-1.35-.91-1.34-.88-2.16-1.37-3.17-1.92-2.35-1.35h-.01l-2.33-1.29c-.48-.26-.97-.51-1.46-.76-.49-.26-.97-.51-1.45-.74-.42-.22-.85-.43-1.27-.63-.43-.22-.86-.42-1.28-.62l-1.18-.56c-.4-.19-.79-.37-1.19-.54a14.93 14.93 0 0 0-.58-.26 13.95 13.95 0 0 0-.57-.25l-1.22-.53-1.91-.78a6.1 6.1 0 0 0-.59-.24l-1.94-.75-2.23-.81-1.32-.46-1.4-.46c-.4-.13-.8-.25-1.2-.37l-.93-.29-.93-.27-1.55-.44a50.53 50.53 0 0 0-1.54-.41 2.67 2.67 0 0 0-.27-.07l-1.87-.45a93.5 93.5 0 0 0-5.07-1.05l-2.14-.36-2.36-.33-1.57-.19c-2.41-.28-4.76-.45-7.07-.53l-2.08-.04c-.17-.01-.35-.01-.52-.01-.17-.01-.34-.01-.51-.01-.83 0-1.65.02-2.45.04l-2.41.1-1.41.09c-.74.04-1.46.1-2.18.17l-1.93.23-1.41.17c-.71.09-1.43.21-2.12.32-.03.01-.06.01-.09.02a69.08 69.08 0 0 0-2.16.39l-1.97.4a2.65 2.65 0 0 0-.13.03 13.79 13.79 0 0 0-.88.19c-.21.05-.41.11-.62.16a35.2 35.2 0 0 0-2.14.54c-.26.06-.52.13-.78.21l-.87.25c-.7.2-1.39.41-2.07.63-.19.05-.37.11-.55.17-.32.11-.64.21-.95.33a2.72 2.72 0 0 0-.37.13 24.16 24.16 0 0 0-.91.32 38.71 38.71 0 0 0-1.62.6c-.48.18-.94.37-1.4.56-.46.18-.9.38-1.34.57l-1.31.58c-.015.002-.029.009-.04.02l-1.04.49a48.49 48.49 0 0 0-3.06 1.56 37.5 37.5 0 0 0-1.26.7c-.41.23-.81.47-1.2.71-.26.15-.51.3-.76.47-.72.45-1.4.9-2.05 1.35-.25.152-.491.319-.72.5a31.91 31.91 0 0 0-1.11.82 18.71 18.71 0 0 0-.84.65c-.55.44-1.05.87-1.52 1.29-1.125.985-2.88.628-3.53-.72-.01-.01-.01-.01-.01-.02-.019-.051-.032-.092-.05-.13-.03-.07-.05-.14-.07-.2-.16-.54-.31-1.1-.45-1.64l-1.43-5.18-.6-2.28-.5-1.87-.7-2.71-1.15-4.56c-3.681-14.47.146-29.822 10.19-40.87a88.7 88.7 0 0 1 1.9-1.98c.06-.06.12-.13.19-.19l1.94-1.92c.21-.21.41-.41.62-.6a61.77 61.77 0 0 1 1.47-1.37c.33-.31.66-.62 1-.91a71.27 71.27 0 0 1 1.65-1.45 10.16 10.16 0 0 1 .5-.43c.29-.26.58-.5.88-.74.25-.22.5-.43.76-.64.27-.22.54-.45.82-.66l.76-.61a14.28 14.28 0 0 1 .76-.6l1.81-1.39 1.84-1.36.77-.55a123.23 123.23 0 0 1 3-2.08c1.17-.79 2.35-1.55 3.55-2.3l2.27-1.38c2.28-1.37 4.61-2.67 6.99-3.92 1.27-.67 2.56-1.32 3.85-1.95l1.96-.93 1.97-.91 2.79-1.23a15.96 15.96 0 0 1 .61-.26l2.3-.96 2.37-.95 3.1-1.17.78-.29c.26-.1.52-.19.79-.28l2.15-.75 2.59-.87 3.2-1.02 4.32-1.27 2.18-.6 4.4-1.13 3.5-.82 2.07-.46 1.76-.37c.53-.12 1.07-.23 1.61-.33l5.11-.96 2.29-.39 1.56-.25 1.56-.24 1.6-.24 1.6-.23 4.64-.59 2.79-.31 1.88-.19 4.69-.42 3-.22a231.07 231.07 0 0 1 7.75-.41l2.85-.1 3.87-.08 3.86-.03 5.36.06c.36 0 .73.01 1.1.02.2 0 .4 0 .59.01l2.38.07a2.91 2.91 0 0 1 .29.01l2.85.11c.09 0 .17.01.26.01l2.88.15 5.27.34 2.29.18c.32.02.64.05.97.08l1.6.14c.65.05 1.29.12 1.93.18l1.96.2 3.95.44 2.99.37 3.03.4 2.64.38 4.5.7c.62.09 1.24.2 1.86.3l1.2.22 5.14.95c.66.12 1.3.25 1.95.39.22.03.43.08.63.12l1.39.29 1.88.4 1.33.29 6.61 1.54 2.11.52 2.28.61 2.63.71 1.98.56c.14.03.29.08.43.12.56.15 1.12.31 1.68.48l.71.2 1.32.4 4.54 1.43 2.42.79c.72.23 1.44.48 2.16.73l1.36.48.65.22c.22.07.44.15.66.23.2.07.39.14.59.22l3.15 1.15 3.34 1.29a183.67 183.67 0 0 1 5.87 2.43c.021.002.042.009.06.02l1.05.45c.35.14.7.3 1.04.45l2.15.96c.35.15.71.32 1.06.48l1.05.49 2.04.97 2.14 1.04 2.71 1.38c.36.18.72.37 1.08.57l1.07.57c.14.07.27.14.4.21.08.04.16.08.24.13.13.07.26.14.39.22.45.23.9.47 1.34.72 1.73.95 3.42 1.93 5.08 2.92l2.45 1.5 1.21.76c.12.07.24.14.36.22l.83.55.83.55 1.56 1.04a.18.18 0 0 1 .07.05 41.28 41.28 0 0 1 1.53 1.05l1.01.72.53.36 1.15.84 1.04.77c.98.72 1.93 1.46 2.87 2.21l1.38 1.11c2.31 1.87 4.5 3.793 6.57 5.77a33.2 33.2 0 0 1 .84.81 48.36 48.36 0 0 1 1.03 1.01c.37.36.73.73 1.09 1.1.09.1.19.2.28.3a19.1 19.1 0 0 1 .63.66l1.2 1.29c.25.26.49.53.73.8.14.17.28.33.43.49a.7.7 0 0 1 .08.1 18.61 18.61 0 0 1 .6.69c.27.31.54.63.79.94l.77.94c.07.07 2.271 2.92 2.331 2.99l2.24-4.47c.001-.453-.523-.674-.79-1.04-.01-.028-.027-.052-.05-.07a.35.35 0 0 0-.08-.1c.01-.01 0-.01-.02-.02l-1.61-2.06-.85-1.07a11.26 11.26 0 0 1-.44-.53c-.15-.18-.3-.35-.45-.52l-.67-.81a13.22 13.22 0 0 0-.62-.72c-.37-.44-.75-.88-1.16-1.31-.122-.16-.256-.31-.4-.45l-.82-.89-.87-.95c-.25-.28-.51-.55-.76-.81l-1.14-1.17-.74-.75-2.09-2.05c-.47-.46-.95-.91-1.44-1.36l-2.2-2c-.44-.4-.9-.79-1.35-1.18a52.83 52.83 0 0 0-1.64-1.4c-.4-.35-.81-.68-1.22-1.01l-1.28-1.04c-1.37-1.12-2.77-2.2-4.2-3.27l-2.45-1.79a160.38 160.38 0 0 0-5.04-3.49c-3.973-2.661-2.781-8.792 1.9-9.77 18.33-4.02 30.11-12.09 31.79-13.3 30.93-19.94 9.63-81.43 9.45-88.5l-8.25-58.6a2.2 2.2 0 0 1 1.95-2.49c.14-.03.27-.05.4-.07l.61-.09 2.95-.47 1.51-.26 1.28-.23c.074-.012.148-.029.22-.05l2.43-.5 2.2-.48a15.54 15.54 0 0 0 .93-.21l.92-.22 1.88-.47c.54-.13 1.08-.28 1.61-.43l1.58-.44a81.19 81.19 0 0 0 2.66-.8l1.08-.36c.16-.05.32-.09.47-.14.028.008.059 0 .08-.02a2.52 2.52 0 0 0 .36-.12h.01c.3-.09.59-.19.89-.3.38-.12.76-.26 1.14-.4l1.12-.4 2.52-.94 2.47-1.01 2.68-1.16 2.08-.98a3.34 3.34 0 0 0 .19-.09 8.24 8.24 0 0 0 .52-.25l1.05-.53a.24.24 0 0 0 .11-.06c.21-.1.42-.2.63-.32a.34.34 0 0 0 .12-.06c.22-.11.44-.22.65-.34.43-.21.85-.44 1.27-.67a57.93 57.93 0 0 0 1.72-.96c.26-.14.51-.29.76-.44a50.61 50.61 0 0 0 2.23-1.34c.62-.37 1.23-.76 1.83-1.15.68-.43 1.34-.88 2-1.33l1.7-1.2a1.43 1.43 0 0 0 .15-.11l1.49-1.1c.02 0 .03-.02.05-.04l1.64-1.27c.03 0 .05-.03.08-.06a40.15 40.15 0 0 0 1.27-1.02 17.31 17.31 0 0 0 .84-.7l.83-.7c.27-.22.53-.44.78-.68.26-.22.52-.45.77-.68 1.52-1.36 2.98-2.77 4.39-4.21.28-.28.55-.57.83-.86.77-.81 1.52-1.63 2.25-2.46l1.23-1.43.72-.85c.14-.15.26-.31.39-.47.11-.13.21-.27.32-.4l.06-.06c.343-.347.773-.571 1.24-.65.015-.008.033-.012.05-.01s.028-.002.04-.01c.38-.05.76-.12 1.14-.18.19-.03.38-.06.57-.1s.38-.09.57-.13c.14-.02.27-.05.4-.08.14-.03.27-.06.4-.1a45.29 45.29 0 0 0 2.21-.6l1.11-.36a24.83 24.83 0 0 0 1.12-.39l.9-.34c.29-.11.59-.23.89-.36.3-.12.6-.25.9-.38 1.18-.52 2.36-1.09 3.54-1.7.53-.27 1.05-.55 1.58-.85a63.57 63.57 0 0 0 1.58-.9.81.81 0 0 0 .13-.07l.82-.49c.31-.18.62-.38.93-.58.19-.11.38-.23.57-.36.16-.09.32-.19.48-.3l.93-.61c.32-.2.63-.41.94-.62l1.65-1.15 1.41-1.01c.49-.35.98-.72 1.46-1.08a1.79 1.79 0 0 0 .22-.16l.56-.44a112.54 112.54 0 0 0 3.41-2.71 32.48 32.48 0 0 1 .94-.79c.16-.13.32-.27.47-.38.47-.37.93-.76 1.37-1.17.021-.011.039-.029.05-.05.07-.06.14-.12.21-.19.07-.06.14-.12.22-.18.07-.06.14-.12.21-.17a14.22 14.22 0 0 0 .6-.53c1.02-.87 2-1.78 2.98-2.69 1.94-1.78 3.76-3.54 5.45-5.22l.53-.53.48-.49 1.41-1.44.75-.79.18-.18.56-.57.7-.75a.73.73 0 0 1 .15-.16l.89-.94c.09-.11.18-.21.27-.31.08-.09.17-.17.25-.26l1.41-1.53.41-.46a8.09 8.09 0 0 0 .3-.34c.25-.27.48-.52.69-.77a3.45 3.45 0 0 0 .32-.36l.52-.58c.036-.038.07-.078.1-.12.019-.017.036-.038.05-.06s.03-.04.04-.06l.31-.34c.13-.14.24-.27.35-.39 0-.01.01-.01.02-.01.08-.11.17-.2.25-.3.007-.015.018-.029.03-.04.076-.075.146-.155.21-.24h.01l.57-.65s27.07-29.84 22.35-98.35c-.31-4.45-.756-8.63-1.34-12.54-8.23-56.18-41.85-58.71-43.37-59l1.88 1.88a2.21 2.21 0 0 0 .68.46c.2.08.49.21.86.39.096.041.19.087.28.14a24.92 24.92 0 0 1 2.97 1.79l.48.34.51.37c.17.12.34.25.52.39a9.88 9.88 0 0 1 .54.42 42.71 42.71 0 0 1 4.1 3.7l.67.7c.24.23.46.48.68.73l.66.73a45.63 45.63 0 0 1 1.78 2.13l.89 1.15.68.92.67.95 1.27 1.88c.4.61.8 1.26 1.2 1.91.16.25.31.5.46.76l.24.44.88 1.54a47.99 47.99 0 0 1 .76 1.43c.26.48.51.98.75 1.48a4.09 4.09 0 0 1 .09.2c.41.82.79 1.65 1.19 2.5l.63 1.42.62 1.46.59 1.51c.07.17.14.34.2.52.1.25.19.51.28.77.55 1.49 1.1 3.04 1.62 4.65l.51 1.65a54.75 54.75 0 0 1 .57 1.94c.23.78.44 1.59.66 2.41a25.5 25.5 0 0 0 .2.84l.45 1.81.43 1.87c.08.31.15.63.21.95l.2.96.2.98.19.98c.17.85.32 1.71.47 2.58l.32 1.91.3 1.96.27 1.91a166.15 166.15 0 0 1 1.16 11.36c.4 5.75.58 11.25.58 16.52l-.06 5.04c0 .1 0 .2-.01.3l-.08 2.62c-.06 1.74-.15 3.45-.26 5.13-.04.79-.1 1.58-.16 2.36a3 3 0 0 0-.02.31c-.12 1.59-.26 3.16-.43 4.69l-.17 1.52-.16 1.37-.16 1.31-.17 1.29-.19 1.38c-.06.46-.13.91-.2 1.36l-.28 1.73c-.09.58-.19 1.15-.29 1.71a113 113 0 0 1-.76 3.98l-.43 2.07a113.07 113.07 0 0 1-.95 4.03c-.14.59-.3 1.18-.45 1.76a100.76 100.76 0 0 1-.97 3.44l-.42 1.37a29.73 29.73 0 0 1-.42 1.34c-.14.45-.29.89-.44 1.33l-.6 1.73-.46 1.26c-.11.32-.23.63-.35.94l-.53 1.37-.55 1.35-.78 1.83-.95 2.09-.72 1.5-.79 1.56c-.21.42-.43.82-.65 1.22a15.97 15.97 0 0 1-.33.6 65.7 65.7 0 0 1-3.25 5.3 26.46 26.46 0 0 1-.59.86l-.59.83-.98 1.29a42.8 42.8 0 0 1-1.01 1.26c-.23.29-.47.57-.71.84-.21.25-.43.49-.65.73-.21.24-.43.48-.65.71a40.76 40.76 0 0 1-1.3 1.32l-.86.81-.97.86c-.53.45-1.07.87-1.6 1.27s-1.06.76-1.59 1.1c-.52.34-1.05.65-1.57.93-.53.28-1.05.53-1.56.76-.26.12-.51.22-.77.32s-.51.19-.77.27a5.36 5.36 0 0 1-.75.23c-.243.087-.495.15-.75.19-.479.124-.967.211-1.46.26l-.72.06a8.61 8.61 0 0 1-.71.03c-.485.001-.969-.029-1.45-.09a1.59 1.59 0 0 0-.25-.05c-.077-.009-.154-.023-.23-.04a5.3 5.3 0 0 1-.6-.12c-.03-.01-.07-.02-.1-.03a6.13 6.13 0 0 1-.73-.22c-.089-.021-.177-.051-.26-.09a1.78 1.78 0 0 1-.36-.14c-.01.01-.01 0-.02-.01-.164-.062-.324-.132-.48-.21-.162-.07-.319-.15-.47-.24a3.36 3.36 0 0 1-.36-.21c-.179-.101-.353-.211-.52-.33a.35.35 0 0 1-.08-.05c-.2-.14-.4-.29-.59-.44-.01-.01-.03-.03-.04-.03a3.17 3.17 0 0 1-.39-.34c-.11-.1-.22-.2-.32-.3l-.33-.33c-.189-.189-.366-.389-.53-.6-.05-.05-.07-.09-.12-.14-.08-.09-.15-.19-.22-.28-.2-.26-.39-.53-.57-.81-.09-.13-.17-.26-.26-.4s-.17-.29-.25-.44a3.34 3.34 0 0 1-.2-.37c-.09-.16-.18-.32-.26-.49l-.14-.29c-.08-.16-.15-.33-.23-.5-.01-.04-.03-.07-.04-.11-.09-.21-.18-.42-.26-.64a2.26 2.26 0 0 1-.07-1.43c.2-.7.38-1.41.56-2.1.018-.059.031-.119.04-.18l.09-.36a51.91 51.91 0 0 0 .42-1.68l.41-1.7.09-.36.23-1.03c.06-.24.11-.49.15-.73l.58-2.7.51-2.6.51-2.8.53-3.33.57-4.01.34-2.79a20.66 20.66 0 0 0 .12-1.11l.24-2.3.29-3.17.06-.63.23-3.14c.06-.69.1-1.38.13-2.07l.11-1.94.12-2.6.09-2.95a2.51 2.51 0 0 0 .01-.27l.04-2.11c.01-.22.01-.44.01-.67l.03-3.62c0-9.09-.48-17.75-1.19-25.63l-.36-3.74-.06-.6c-.07-.56-.12-1.12-.18-1.67-.01-.13-.03-.26-.05-.39a304.4 304.4 0 0 0-1.54-11.76l-.46-2.93-.03-.21-.42-2.54-.23-1.31-.32-1.81-.32-1.73c-.008-.008-.011-.019-.01-.03l-.11-.65-.24-1.25c-.02-.13-.05-.25-.07-.38-.02-.07-.03-.15-.05-.22l-.34-1.69c-.008-.074-.022-.148-.04-.22l-.14-.67-.29-1.31c-.04-.21-.08-.41-.13-.6l-.12-.56a5.02 5.02 0 0 0-.1-.45c-.03-.15-.06-.3-.1-.44l-.09-.4-.16-.72c-.02-.09-.04-.17-.06-.25a1.19 1.19 0 0 1-.04-.18c-.01-.04-.01-.07-.02-.1-.027-.068-.047-.138-.06-.21a.57.57 0 0 0-.02-.07c-.01-.05-.02-.09-.03-.13-.02-.11-.05-.2-.06-.28-.008-.044-.018-.087-.03-.13-.01-.02-.01-.04-.02-.06l-.05-.19c-.1-.2-.2-.42-.3-.65a6.38 6.38 0 0 1-.2-.46l-1.56-3.73c-.22-.43-.41-.86-.64-1.26l-.28-.55c-.02-.04-.05-.08-.07-.12-.13-.22-.26-.43-.39-.63-.048-.081-.101-.157-.16-.23-.05-.06-.1-.13-.15-.19-.09-.13-.18-.25-.28-.37a10.44 10.44 0 0 0-.3-.34 3.75 3.75 0 0 0-.2-.21c-.14-.14-.28-.26-.42-.38a4.45 4.45 0 0 0-.69-.47c-.06-.039-.124-.073-.19-.1-.038-.03-.082-.05-.13-.06-.05-.02-.09-.04-.14-.06-.634-.242-1.319-.318-1.99-.22-.21.04-.42.08-.64.14-.14.04-.28.09-.42.14-.47.181-.922.405-1.35.67-.25.15-.51.33-.77.52-.76.564-1.475 1.186-2.14 1.86-2.17 2.16-38 31.76-80.48 4.47l-63.8-37.78c-.234-.142-.457-.299-.67-.47h-.01v-.01c-.01 0-.01 0-.02-.01h-.01c-.02-.02-.03-.04-.05-.05-.017-.019-.038-.036-.06-.05l-.02-.02c-.06-.04-.11-.08-.16-.12-.058-.05-.118-.096-.18-.14-.02-.02-.04-.03-.07-.06-.03-.011-.055-.032-.07-.06a.17.17 0 0 1-.06-.06.23.23 0 0 1-.07-.07l-.24-.21a6.44 6.44 0 0 1-.59-.58c-.05-.06-.11-.12-.17-.19l-.56-.57c-.17-.21-.36-.41-.54-.6-19.83-21.55-42.18-32.72-61.05-36.66a3.46 3.46 0 0 1-.46-.12c-.04-.01-.07-.02-.11-.03-.07-.02-.14-.05-.21-.07-.04-.01-.07-.03-.11-.04l-.23-.09c-.06-.03-.12-.05-.18-.08a3.85 3.85 0 0 1-.35-.18c-.04-.02-.09-.05-.14-.07-.03 0-.04-.02-.06-.03s-.04-.03-.06-.04a.42.42 0 0 0-.07-.05c-.02-.02-.05-.04-.08-.07-.06-.03-.1-.07-.15-.09a1.98 1.98 0 0 1-.18-.13 3.02 3.02 0 0 1-.39-.32c0-.01-.01-.01-.01-.02h-.01a5.23 5.23 0 0 1-.56-.59c.001-.011-.002-.022-.01-.03l-.23-.29a.42.42 0 0 1-.09-.14 2.02 2.02 0 0 1-.2-.31.64.64 0 0 1-.08-.14l-.06-.12c-.019-.023-.033-.051-.04-.08-.019-.02-.033-.044-.04-.07-.046-.094-.086-.191-.12-.29a.58.58 0 0 1-.05-.14c-.012-.014-.02-.031-.02-.05-.019-.026-.029-.058-.03-.09-.015-.016-.023-.038-.02-.06a.9.9 0 0 1-.08-.23c-.008-.012-.012-.026-.01-.04-.033-.094-.056-.191-.07-.29-.01-.04-.01-.08-.02-.12v-.02c-.01-.05-.01-.09-.02-.13 0-.02-.01-.03-.01-.05v-.01c-.002-.05-.009-.101-.02-.15v-.02c-.005-.005-.009-.012-.01-.02v-.03c0-.01-.01-.02-.01-.03 0-.03-.01-.06-.01-.09-.01-.12-.02-.25-.02-.37a5.04 5.04 0 0 1 .27-1.7c.045-.189.123-.368.23-.53a5.1 5.1 0 0 1 1.49-1.95C304.73 67.24 418.54 26.35 538.63 26.35a503.16 503.16 0 0 1 17.95.32l4.53.17 7.38.36 5.88.38c4.27.27 8.54.63 12.79 1.03l6.01.58c5.7.6 11.37 1.293 17.01 2.08l5.43.78 5.5.85 7.85 1.32 5.68 1.03 10.08 2.01 5.54 1.19 5.73 1.29 3.8.9c1.16.26 2.32.56 3.46.85l4.09 1.02 5.66 1.5a230.86 230.86 0 0 1 5.63 1.54l14.64 4.36 4.43 1.41 6.24 2.08 5.56 1.92a489.75 489.75 0 0 1 25.6 9.77l4.02 1.7 5.37 2.3c10.9 4.77 21.643 9.92 32.23 15.45l4.45 2.37a486.46 486.46 0 0 1 15.31 8.56l5.03 2.97 5.01 3.02c6.66 4.09 13.233 8.33 19.72 12.72l4.17 2.86c.091.054.177.114.26.18.06.05.13.09.19.14.07.04.14.09.21.14h.01c.104.068.204.141.3.22.08.05.15.11.23.16.131.08.258.167.38.26a2.73 2.73 0 0 1 .3.21c.02 0 .03.01.04.03.01 0 .01 0 .02.01.017.003.032.014.04.03a.31.31 0 0 1 .07.05.61.61 0 0 1 .14.1c.01-.01.01 0 .02.01.07.04.13.09.2.14a.56.56 0 0 1 .08.06c.01 0 .01 0 .02.01.131.083.258.173.38.27.33.22.66.46.99.69.01.01.01.02.02.02l.84.59a.61.61 0 0 0 .1.07c.01.01.01.01.02.01l.02.02a.56.56 0 0 1 .08.06h.01l.01.01c.07.05.13.09.19.14l.31.22.88.63 3.38 2.43c.06.04.12.09.18.13l1.07.79 1.9 1.4 2.09 1.55a516.13 516.13 0 0 1 27.7 22.2l3.96 3.44 4.98 4.42c.065.055.125.115.18.18 3.286 3.07 5.359 7.219 5.84 11.69-.001.03.003.061.01.09l.04.34c.02.14.04.32.06.53a1.09 1.09 0 0 0 .02.18c.012.066.018.133.02.2.012.069.018.14.02.21a4.95 4.95 0 0 0 .05.51l.47 4.11.13 1.08v.09c.02.33.07.62.11.91a24.71 24.71 0 0 1 .12 1.01 29.69 29.69 0 0 0 .2 1.54l.27 2.13.06.33c.49 1.59.92 3.13 1.25 4.63.33 1.512.577 3.041.74 4.58.07.56.11 1.12.14 1.65a36.61 36.61 0 0 1 .05 3.62v.027.007a1.42 1.42 0 0 1-.01.206v.03a22.06 22.06 0 0 1-.1 1.42 7.69 7.69 0 0 1-.05.5c-.07.669-.17 1.319-.27 1.968l-.061.335c-.002.012-.005.025-.009.037-.12.64-.26 1.28-.41 1.9-.08.35-.17.69-.27 1.03-.07.26-.15.52-.23.78 0 .01-.01.02-.01.03-.21.66-.43 1.31-.68 1.94a31.2 31.2 0 0 1-1.78 3.74l-.52.9c-.36.59-.73 1.18-1.13 1.75l-.61.86c-.21.29-.42.57-.64.85-.44.56-.89 1.11-1.37 1.65l-.53.6a5.98 5.98 0 0 1-.25.27 24.51 24.51 0 0 1-1.01 1.05c-.23.24-.47.48-.72.71-.47.47-.96.91-1.45 1.35a31.26 31.26 0 0 1-.84.72l-1.31 1.07c-.45.36-.91.7-1.37 1.05l-.96.7c-.015.022-.035.04-.06.05a68.99 68.99 0 0 1-2.35 1.59 1.46 1.46 0 0 0-.13.09 30.97 30.97 0 0 1-1.22.77l-1.26.76c-.8.48-1.61.94-2.43 1.38l-1.98 1.06a100.05 100.05 0 0 1-4.76 2.3c-1.09.5-2.2.98-3.34 1.45-.56.24-1.14.48-1.72.7l-2.39.94c-1.85.7-3.743 1.38-5.68 2.04l-1.4.47-2.51.81a44.85 44.85 0 0 1-1.08.34c-1.19.38-2.39.74-3.6 1.09l-3.12.89-2.85.78-2.74.72-2.77.7-2.71.66c-3.88.93-7.84 1.81-11.85 2.65l-3.09.64-3.57.72c-.26.06-.52.11-.79.16l-4.38.85-4.4.83-8.84 1.6-6.63 1.17-3.85.67-11.44 2-9.68 1.73-2.56.47c-.168.019-.335.05-.5.09l-4.14.78-2.57.5-1.77.35-1.75.35-5.87 1.22-4.77 1.07a268.06 268.06 0 0 0-10.75 2.72l-1.9.54a147.08 147.08 0 0 0-5.45 1.69 101.03 101.03 0 0 0-4.51 1.59l-2.82 1.11c-.46.19-.92.39-1.36.59-.89.38-1.75.78-2.58 1.17a68.14 68.14 0 0 0-2.43 1.25c-.77.42-1.52.85-2.24 1.29a45.76 45.76 0 0 0-2.06 1.35c-.66.46-1.28.93-1.87 1.41a20.64 20.64 0 0 0-.86.73 15.6 15.6 0 0 0-.94.87c-.28.27-.55.54-.81.82-.18.19-.36.39-.53.59a16.22 16.22 0 0 0-.66.79c-6.662 6.719-12.945 13.803-18.82 21.22-14.35 18.35-31.38 46.61-29.82 76.65.1 1.95.273 3.88.52 5.79.04.39.09.78.15 1.16.07.56.16 1.12.25 1.68.05.33.11.67.17 1a30.48 30.48 0 0 0 .24 1.33c.04.24.09.48.14.72l.09.48c.09.45.18.89.29 1.34.1.45.21.89.32 1.34.09.41.2.82.31 1.23a52.75 52.75 0 0 0 .48 1.79c.13.47.27.94.42 1.41l.31 1c.53 1.7 1.12 3.383 1.77 5.05.17.48.36.95.55 1.42a41.06 41.06 0 0 0 .6 1.39l.62 1.39c.2.46.42.92.64 1.38 1.232 2.604 2.593 5.143 4.08 7.61.07.11.14.23.21.34a3.94 3.94 0 0 0 .22.34l.7 1.13a35.48 35.48 0 0 0 .72 1.13c.48.75.98 1.49 1.5 2.23l1.04 1.46a100.38 100.38 0 0 0 3.32 4.32c.38.47.77.94 1.17 1.4l.76.9 1.83 2.06c.83.91 1.68 1.8 2.55 2.68a36.87 36.87 0 0 0 .88.88c.31.32.64.64.96.95a76.45 76.45 0 0 0 2.63 2.46 22.56 22.56 0 0 0 .73.65c.24.22.48.44.73.64l1.94 1.68c.72.61 1.45 1.2 2.19 1.78l1.64 1.28a40.38 40.38 0 0 0 1.47 1.11 39.51 39.51 0 0 0 1.03.76l2.01 1.43.94.64 2.84 1.88 2.7 1.69c.07.04.13.08.2.12a74.56 74.56 0 0 0 2.73 1.6c1.3.75 2.626 1.48 3.98 2.19.28.147.525.352.72.6.025.014.045.035.06.06.033.031.053.055.07.08a6.68 6.68 0 0 1 .28.45c.4.61.77 1.25 1.11 1.89.17.32.34.64.49.97a12.54 12.54 0 0 1 .46.98 28.88 28.88 0 0 1 .79 2.01 36.32 36.32 0 0 1 .31.96l.01.01.32 1.09.12.53.17.69c.07.29.13.59.19.88.08.4.14.8.2 1.21.02.13.04.26.05.39a16.97 16.97 0 0 1 .16 1.6c.05.72.08 1.44.08 2.16a29.56 29.56 0 0 1-1.3 8.7 68.43 68.43 0 0 0-1.72 30.42l-.18-.04a64.85 64.85 0 0 0 2.69 18.66v.03c.22.77.46 1.56.72 2.36.17.54.35 1.08.54 1.63.57 1.65 1.22 3.37 1.96 5.13l.62 1.45c.05.11.1.23.16.34.27.6.55 1.2.85 1.81a1.79 1.79 0 0 0 .15.31l.4.82.43.83c.13.28.27.55.41.83.07.14.15.28.23.43.08.14.16.28.23.42l.34.63c.24.45.49.9.76 1.36.17.31.35.61.53.92.21.37.44.74.67 1.12l.68 1.09c.49.8 1.03 1.61 1.56 2.41.13.21.27.41.41.62.13.2.27.41.42.61l.87 1.23.89 1.24.94 1.24c.09.12.18.25.27.36.26.36.54.71.83 1.07l.87 1.08.73.9 1.74 2.04 1.01 1.13 1.26 1.36c.65.72 1.34 1.43 2.03 2.15 1.5 1.53 3.093 3.067 4.78 4.61l2.27 2c.8.72 1.63 1.41 2.45 2.1.41.35.83.69 1.26 1.03l3.86 3 1.38 1.02 1.4 1.01c.23.17.46.33.7.5a69.94 69.94 0 0 0 2.18 1.51l2.28 1.52.95.62c2.02 1.31 4.123 2.603 6.31 3.88.37.21.73.42 1.11.61a17.41 17.41 0 0 0 .75.37c.06.03.11.06.16.09.052.038.109.068.17.09a8.23 8.23 0 0 0 .67.32c.4.19.81.36 1.22.53.09.04.17.07.26.11a35.24 35.24 0 0 0 2.25.79c.38.12.76.23 1.14.34.026.019.058.029.09.03a2.74 2.74 0 0 0 .41.11 1.11 1.11 0 0 0 .26.07c.012.008.026.011.04.01.026.017.047.022.06.01.1.02.19.04.29.07.16.04.31.08.47.11.034.019.071.029.11.03.34.09.69.16 1.03.22.53.11 1.06.19 1.59.27l1.52.22h.02l7.96 1.14c-36.71-22.58-51.11-48.71-56.76-64.92-1.489-4.337 1.734-8.851 6.32-8.85l91.86-.04 177.51-.09c2.8.06 11.56-2.84 13.26-5.68.02-.02.02-.02 0-.05.175-.246.276-.538.29-.84.07-3.09-4.47-4.48-13.28-4.61l-279.56-8.81c-3-.06-6.62-3.71-6.71-6.7-.02-.54-.02-1.07-.02-1.6v-.3c0-.03 0-.04.01-.05v-.01-.02-.02c.085-1.171 1.056-2.081 2.23-2.09l217.92 6.76 54.66 1.69a2.25 2.25 0 0 0 2.24-2.27 2.07 2.07 0 0 0-.03-.35c.002-.024-.002-.048-.01-.07-.021-.112-.051-.223-.09-.33-.02-.05-.03-.09-.05-.13a.82.82 0 0 0-.06-.14c-.01 0-.01-.01-.01-.02-.09-.14-.18-.27-.28-.4-.09-.13-.2-.25-.3-.37-.084-.105-.175-.205-.27-.3l-.4-.39c-1.413-1.264-3.226-1.99-5.12-2.05l-267.44-8.61a2.22 2.22 0 0 0-2.19 1.86 32.84 32.84 0 0 0-.5 3.1l-.29-5.07 1.19.04a41.4 41.4 0 0 1 8.18-16.18 6.8 6.8 0 0 1 7.09-2.21c61.31 16.65 144.34-1.5 209.19-82.49 4.693-5.883 13.614-5.947 18.39-.13l1.31 1.61 2.7 3.42 1.38 1.81 2.37 3.21a31.51 31.51 0 0 1 .8 1.11c.27.37.54.75.8 1.13l.81 1.15 1.62 2.35 1.08 1.61 1.08 1.64 1.43 2.23 1.43 2.3 1.35 2.24 1.92 3.32.85 1.54.57 1.02.85 1.57 1.23 2.36a89.9 89.9 0 0 1 1.39 2.78l1.27 2.63c.83 1.77 1.63 3.57 2.4 5.4l1.05 2.59c.015.026.029.052.04.08a115.94 115.94 0 0 1 1.08 2.8 89.35 89.35 0 0 1 .98 2.73.21.21 0 0 1 .03.05c.021.045.038.092.05.14l.93 2.76c.019.034.033.071.04.11l.83 2.68.26.87.29 1.01c.14.47.27.93.39 1.4a15.86 15.86 0 0 1 .24.93l.24.94c.08.29.15.59.23.89l.51 2.17.4 1.87.25 1.27a24.83 24.83 0 0 0 .17.84c.06.28.11.56.16.84l.23 1.31c.12.67.22 1.34.32 2.01.05.27.09.55.12.82l.03.16c.04.23.07.46.1.69a1.48 1.48 0 0 0 .02.21v.02l.05.13 4.42 11.04c0-23.25-4.05-50.88-20.88-79.91-4.34-7.54-8.67-14.2-12.5-19.72-2.041-2.969.806-6.848 4.25-5.79l1.91.6c.49.15.97.32 1.46.49a43.11 43.11 0 0 1 1.48.52 55.33 55.33 0 0 1 1.48.57c.25.09.5.19.75.3l.74.31c.33.14.67.28 1 .44l1.69.81.84.43c.37.19.73.39 1.1.59a30.85 30.85 0 0 1 1.1.63c.37.21.73.44 1.09.67l1.08.7 13.41 4.47c-7.96-5.38-21.84-15.62-33.91-21.3-4.158-1.936-6.133-6.739-4.54-11.04 7.62-20.19 16.67-54.9 1.97-81.06l-1.52-.6c-.008.009-.015.019-.02.03-.02.03-.03.04-.03.05v.01a2.5 2.5 0 0 0-.07.11c-.09.13-.21.33-.39.59-.026.049-.056.096-.09.14-.023.051-.053.098-.09.14a20.3 20.3 0 0 1-.33.51c-.85 1.3-2.23 3.32-4.05 5.84l-.97 1.32-.49.65-1.63 2.14-2.06 2.62c-.17.23-.34.45-.52.67-.19.23-.37.46-.58.69-1.14 1.41-2.357 2.867-3.65 4.37l-1.31 1.5-2.06 2.29-1.02 1.1c-.61.66-1.24 1.32-1.9 1.99l-.79.8c-1.703 1.699-4.522-.116-3.68-2.37l.59-1.63.45-1.27.52-1.51.91-2.75c.47-1.49.93-3.01 1.37-4.57l.36-1.32.62-2.35.26-.98c.53-2.1 1.01-4.26 1.46-6.47l.09-.42.09-.49.14-.75.31-1.66a125.12 125.12 0 0 0 .71-4.45l.16-1.14c.06-.43.11-.87.16-1.3l.17-1.33.24-2.26.17-1.8c.89-10.5 14.38-14.15 20.37-5.47 36.902 53.324 63.247 113.223 77.61 176.46 12.627 55.828 15.979 113.353 9.92 170.27zm-838.7-448.67v.04h.01v-.02c-.001-.008-.004-.015-.01-.02zm1.23 2.91l-.23-.29c.071.113.151.22.24.32.001-.011-.002-.022-.01-.03zm.58.62h-.01c.01.01.01.02.02.02 0-.01-.01-.01-.01-.02zm.73.56c-.06-.03-.1-.07-.15-.09.034.03.071.057.11.08.04.03.08.05.12.08-.02-.02-.05-.04-.08-.07zm-1.31-1.18l-.23-.29c.071.113.151.22.24.32.001-.011-.002-.022-.01-.03zm.58.62h-.01c.01.01.01.02.02.02 0-.01-.01-.01-.01-.02zm.73.56c-.06-.03-.1-.07-.15-.09a.76.76 0 0 0 .11.08c.04.03.08.05.12.08-.02-.02-.05-.04-.08-.07zm-1.31-1.18l-.23-.29c.071.113.151.22.24.32.001-.011-.002-.022-.01-.03zm.58.62h-.01c.01.01.01.02.02.02 0-.01-.01-.01-.01-.02zm.73.56c-.06-.03-.1-.07-.15-.09a.76.76 0 0 0 .11.08c.04.03.08.05.12.08-.02-.02-.05-.04-.08-.07zm-1.31-1.18l-.23-.29c.071.113.151.22.24.32.001-.011-.002-.022-.01-.03zm.58.62h-.01c.01.01.01.02.02.02 0-.01-.01-.01-.01-.02zm.73.56c-.06-.03-.1-.07-.15-.09a.76.76 0 0 0 .11.08c.04.03.08.05.12.08-.02-.02-.05-.04-.08-.07zm-1.31-1.18l-.23-.29c.071.113.151.22.24.32.001-.011-.002-.022-.01-.03zm.58.62h-.01c.01.01.01.02.02.02 0-.01-.01-.01-.01-.02zm.73.56c-.06-.03-.1-.07-.15-.09.034.03.071.057.11.08.04.03.08.05.12.08-.02-.02-.05-.04-.08-.07z"/><path d="M647.38 566.01l-2.35-.05c1.331.05 2.24-1.526 2.24-2.23l.11 2.28" paint-order="markers fill stroke"/><path d="M981.17 495.57l-267.44-8.61a2.218 2.218 0 0 0-2.19 1.86l-.5 3.1-.29-5.07 1.19.04zM176.49 710.39l-5.12-4.27a2.25 2.25 0 0 0 3.44-2.41zm710.19-15.85c-8.82 1.08-14.43 2.28-14.95 2.43l13.25-6.63a2.251 2.251 0 0 0 1.28 4.25c.14-.02.28-.03.42-.05zm100.86-195.46c.004.007.004.015.008.023l-.288-.423.28.4z"/><path d="M988.88 502.5l-57.99-1.8 54.66 1.69a2.264 2.264 0 0 0 1.998-3.287 7.956 7.956 0 0 1 1.332 3.397zm44.01 72.34a2.246 2.246 0 0 0-3.66-2.4 64.725 64.725 0 0 0 8.81-9.88zm-19-27.45l1.32-2.052-1.32 2.052z"/><path d="M1019.8 546.27a2.244 2.244 0 0 0-4.05-1.77l-.539.838a108.746 108.746 0 0 0 8.479-15.928z"/><path d="M906 326.86a40.038 40.038 0 0 1-5.24 1.27l3.14-4.92-.14.25a2.258 2.258 0 0 0 2.24 3.4zm33.5 36.35l-3.73 5.3c-38.72 54.18-81.99 90.96-130.5 93.01 49.44-8.16 94.58-41.24 134.23-98.31zm-251.17 71.06c-28.99-18.95-33.78-34.83-34.89-56.02 1.11 21.19 12.85 40.04 34.89 56.02z" fill="#5c5c5c"/><use xlink:href="#B" fill="#845533"/><g fill="#eff1ea"><path d="M276.791 188.734c-19.828-21.55-42.183-32.727-61.05-36.661 19.873 2.906 42.942 12.072 61.05 36.661z"/><path d="M690.903 280.922a254.029 254.029 0 0 0-18.822 21.215 150.953 150.953 0 0 0-177.27-60.312c-8.226-56.177-41.847-58.703-43.367-58.993l2.235 2.235c1.207.246 25.752 10.797 32.369 60.177a150.891 150.891 0 0 0-41.668 26.646 278.771 278.771 0 0 0-6.349-39.88c-2.235-4.471-4.471-15.648-13.413-6.706-2.168 2.168-38.002 31.765-80.475 4.471l-63.799-37.778a7.395 7.395 0 0 1-.849-.604l-.336-.269a1.367 1.367 0 0 1-.268-.246 8.343 8.343 0 0 1-1.006-.984c-.38-.38-.737-.782-1.095-1.162-18.107-24.59-41.177-33.755-61.05-36.661a5.784 5.784 0 0 1-4.538-4.493 6.669 6.669 0 0 1-.089-.939 5.007 5.007 0 0 1 .268-1.699 5.596 5.596 0 0 1 .224-.536 5.14 5.14 0 0 1 1.498-1.945c91.63-75.221 205.436-116.107 325.523-116.107q8.986 0 17.951.313l4.538.178 7.376.357 5.879.38a405.6 405.6 0 0 1 12.787 1.028l6.013.581c5.701.604 11.356 1.297 17.011 2.079l5.432.783 5.499.849 7.847 1.319 5.678 1.028 10.081 2.012 5.544 1.185 5.723 1.297 3.801.895 3.464.849 4.091 1.028 5.655 1.498q2.85.738 5.633 1.542 7.378 2.079 14.643 4.36 2.212.704 4.426 1.408 3.117 1.006 6.237 2.079l5.566 1.922q12.943 4.527 25.596 9.769l4.023 1.698 5.365 2.303q16.363 7.142 32.235 15.447l4.449 2.369a489.42 489.42 0 0 1 15.313 8.562l5.03 2.973 5.007 3.018q9.992 6.136 19.717 12.719 4.861 3.286 9.657 6.706c3.197 2.258 6.348 4.582 9.501 6.93q14.184 10.596 27.697 22.198l3.957 3.442 4.985 4.426a1.457 1.457 0 0 1 .179.179 18.723 18.723 0 0 1 5.834 11.691l.718 6.123c.468 3.96 1.277 7.866 2.127 11.761 16.017 73.387-172.014 57.606-199.987 93.284zm154.982 310.501c-.023.022-.023.022-.045.022l-6.729 2.548a39.157 39.157 0 0 1-13.345 2.906l-41.244 1.721 2.884 1.922a18.076 18.076 0 0 0 6.103 2.638c-10.216-.313-17.973-2.75-23.651-5.7l7.958 1.14c-36.706-22.578-51.102-48.71-56.758-64.917a6.684 6.684 0 0 1 6.326-8.852l91.854-.045c.804 24.858 10.819 49.761 26.646 66.616zM1039.92 425.51c-11.736-20.007-43.032-43.725-43.032-43.725-7.958-5.388-21.84-15.626-33.911-21.304a8.807 8.807 0 0 1-4.539-11.043c7.623-20.186 16.676-54.902 1.968-81.057l-1.52-.604a175.152 175.152 0 0 1-29.687 34.828 149.22 149.22 0 0 0 12.742-48.084 11.191 11.191 0 0 1 20.366-5.477 507.73 507.73 0 0 1 77.613 176.464z"/></g><path d="M635.218 554.896c-33.933 2.303-68.069 26.646-81.727 37.51-3.264 2.593-39.567 5.79-49.872-1.654-17.593-12.697-66.102-29.463-80.766-34.381 1.811-14.53 14.441-63.442 102.539-66.169 89.462-2.727 106.584 47.369 109.826 64.693zm375.082-29.328A79.434 79.434 0 0 1 999.682 565l-.604.604c-11.96 11.758-28.882 16.81-45.558 14.91-36.929-4.202-76.117-.313-107.635 10.909-15.827-16.855-25.842-41.758-26.646-66.616l177.514-.09c2.794.067 11.557-2.839 13.256-5.678a70.28 70.28 0 0 1 .29 6.528zm-655.181-3.354v.022a88.349 88.349 0 0 1-40.528 59.842h-.022a83.469 83.469 0 0 1-8.741 2.124h-.022l-4.315.693s0 .023-.022 0a80.287 80.287 0 0 1-17.168.47l-5.768-.693-.782-.134c-.067 0-.112-.022-.179-.022l-.178-.067a.083.083 0 0 0-.068-.022l-8.673-3.331a253.944 253.944 0 0 0-36.884-10.193l-9.232-1.677c-6.394-1.051-12.876-1.856-19.359-2.459a87.995 87.995 0 0 1-23.338-59.798 83.907 83.907 0 0 1 .492-9.21l160.436 14.776 10.775 1.006 1.542.134c.112.38.224.76.313 1.162.111.29.178.604.268.916a52.65 52.65 0 0 1 .693 2.839c.022.045.022.067.045.112l.715 3.51z"/><g fill="#eff1ea"><use xlink:href="#B" x="-15.648" y="4.471" stroke-miterlimit="10" stroke="#000"/><path d="M203.178 566.766c-24.388-2.258-71.399 2.794-71.399 2.794-59.351-20.767-82.532-57.249-90.378-74.887a6.516 6.516 0 0 1 6.594-9.121l132.337 12.205a83.907 83.907 0 0 0-.492 9.21 87.995 87.995 0 0 0 23.338 59.798z"/></g><path d="M438.859 351.182c7.667-27.273 7.578-56.556 5.521-79.291a150.891 150.891 0 0 1 41.668-26.646c.492 3.577.894 7.355 1.162 11.356 6.215 90.065-39.254 120.87-48.352 94.581zm576.068 383.599a513.128 513.128 0 0 1-112.755 169.266c-98.023 98.046-228.662 151.607-367.437 150.579A515.093 515.093 0 0 1 57.473 722.397a21.042 21.042 0 0 1 9.031-25.439 96.724 96.724 0 0 1 26.154-10.886 14.269 14.269 0 0 1 17.436 16.587c-43.3 223.475 335.336 345.261 419.589 112.799 61.877 187.373 414.783 198.059 443.732-112.889 16.162 6.371 30.961 16.542 41.355 32.414zm15.313-105.601c-65.61-47.35-219.43-43.35-245.72 20.86l2.21-11.02.03-.13v-.03c.02-.04.03-.07.05-.11.33-.82.69-1.62 1.07-2.43l.37-.78c.15-.31.31-.62.47-.93a15.7 15.7 0 0 1 .52-.99 53.22 53.22 0 0 1 1.23-2.2c.19-.33.39-.65.59-.97a49.27 49.27 0 0 1 1.99-3.03c.17-.26.35-.51.53-.76l1.08-1.47 1.49-1.89c1.093-1.305.201-3.296-1.5-3.35l-35.01-1.41-.56-.09-.5-.09-1.04-.19c-.37-.07-.74-.14-1.11-.23a14.58 14.58 0 0 1-1.11-.23 39.07 39.07 0 0 1-1.87-.44l-1.98-.53c-.66-.18-1.31-.38-1.95-.58a62.76 62.76 0 0 1-3.1-1.06c-.4-.13-.79-.28-1.18-.44a49.18 49.18 0 0 1-2.7-1.1c-.45-.19-.9-.39-1.34-.6-.45-.19-.89-.4-1.32-.61a53.65 53.65 0 0 1-1.08-.53 35.26 35.26 0 0 1-1.06-.55c-.18-.09-.36-.18-.53-.28-.18-.09-.35-.18-.52-.28-.35-.18-.7-.37-1.04-.57-.26-.14-.52-.29-.77-.44a69.32 69.32 0 0 1-2.8-1.7l-.78-.51c-.27-.17-.54-.35-.81-.53-1.41-.95-2.78-1.93-4.09-2.95a32.74 32.74 0 0 1-1.31-1.02c-.16-.12-.31-.25-.47-.38a54.51 54.51 0 0 1-1.86-1.55c-.22-.18-.44-.38-.66-.57-.8-.69-1.57-1.4-2.32-2.11a12.04 12.04 0 0 1-.52-.49 25.96 25.96 0 0 1-.93-.9 82.08 82.08 0 0 1-2.62-2.67l-1.27-1.38c-.29-.31-.56-.62-.83-.92a93.87 93.87 0 0 1-3.1-3.68l-1.44-1.83c-.48-.62-.95-1.24-1.39-1.86a23.51 23.51 0 0 1-.67-.92 35.78 35.78 0 0 1-1.08-1.53 22.35 22.35 0 0 1-.73-1.06 70.86 70.86 0 0 1-1.64-2.49 15.24 15.24 0 0 1-.39-.61 118.03 118.03 0 0 1-1.84-3.01l-1.66-2.91-.97-1.78-1.88-3.74-.29-.62-.53-1.14c-.07-.14-.13-.28-.19-.41l-.7-1.58 6.52 6.53.1.11.08.07.02.04a.37.37 0 0 0 .06.1c.17.25.56.84 1.17 1.69a141.25 141.25 0 0 1-.15-40.03v-.03a64.85 64.85 0 0 1-2.69-18.66l.18.04a68.43 68.43 0 0 1 1.72-30.42c.865-2.819 1.303-5.751 1.3-8.7 0-.72-.03-1.44-.08-2.16-.04-.53-.1-1.07-.16-1.6-.07-.54-.16-1.07-.25-1.6l-.19-.88c-.08-.41-.18-.81-.29-1.22l-.32-1.09a36.91 36.91 0 0 0-.32-.97 28.88 28.88 0 0 0-.79-2.01l-.46-.98c-.15-.33-.32-.65-.49-.97a24 24 0 0 0-1.11-1.89 9.3 9.3 0 0 0-.34-.52c-.09-.14-.18-.27-.27-.4l-.52-.27a119.22 119.22 0 0 1-3.98-2.19c-.92-.51-1.83-1.05-2.73-1.6-.07-.04-.13-.08-.2-.12a122.7 122.7 0 0 1-2.7-1.69 107.25 107.25 0 0 1-2.84-1.88l-.94-.64-2.01-1.43a39.41 39.41 0 0 1-1.03-.76 40.38 40.38 0 0 1-1.47-1.11l-1.64-1.28a73.89 73.89 0 0 1-2.19-1.78c-.91-.76-1.8-1.53-2.67-2.32a22.56 22.56 0 0 1-.73-.65 76.45 76.45 0 0 1-2.63-2.46l-.96-.95a36.51 36.51 0 0 1-.88-.88 91.71 91.71 0 0 1-2.55-2.68l-1.83-2.06-.76-.9a51 51 0 0 1-1.17-1.4 90.62 90.62 0 0 1-3.32-4.32 47.94 47.94 0 0 1-1.04-1.46c-.52-.74-1.02-1.48-1.5-2.23a35.48 35.48 0 0 1-.72-1.13 39.39 39.39 0 0 1-.92-1.47l-.21-.34a85.65 85.65 0 0 1-4.08-7.61l-.64-1.38-.62-1.39a97.4 97.4 0 0 1-1.15-2.81 78.34 78.34 0 0 1-1.77-5.05c-.12-.33-.22-.67-.31-1-.15-.47-.29-.94-.42-1.41a52.26 52.26 0 0 1-.48-1.79l-.31-1.23-.32-1.34-.38-1.82-.14-.72c-.09-.44-.17-.89-.24-1.33l-.17-1-.25-1.68a21.6 21.6 0 0 1-.15-1.16c-.25-1.91-.423-3.84-.52-5.79-1.56-30.04 15.47-58.3 29.82-76.65-37.973-58.756-111.344-83.718-177.27-60.31.58 3.91 1.027 8.09 1.34 12.54 4.72 68.51-22.35 98.35-22.35 98.35-.08.08-.28.31-.57.65-.07.07-.14.15-.22.24a.14.14 0 0 0-.03.04l-.27.31-.35.39c-.1.13-.22.26-.35.4a.29.29 0 0 1-.05.06c-.03.042-.064.082-.1.12l-.52.58a3.45 3.45 0 0 1-.32.36 21.65 21.65 0 0 1-.69.77 8.2 8.2 0 0 1-.3.34l-.41.46-1.41 1.53-.52.57-.89.94c-.045.058-.095.112-.15.16l-.7.75-1.49 1.54-1.41 1.44-.48.49-.53.53c-1.69 1.68-3.51 3.44-5.45 5.22-.96.9-1.96 1.79-2.98 2.69l-.81.7a7.68 7.68 0 0 1-.43.37.12.12 0 0 1-.05.05 21.69 21.69 0 0 1-1.37 1.17l-1.41 1.17a112.49 112.49 0 0 1-3.41 2.71l-.78.6-1.46 1.08-1.41 1.01-1.65 1.15-.94.62c-.31.21-.62.41-.93.61a6.3 6.3 0 0 1-.48.3 8.96 8.96 0 0 1-.57.36c-.31.2-.62.4-.93.58l-.82.49a.81.81 0 0 1-.13.07 31.68 31.68 0 0 1-1.58.9c-.53.3-1.05.58-1.58.85a51.92 51.92 0 0 1-3.54 1.7l-.9.38a20.77 20.77 0 0 1-.89.36 11 11 0 0 1-.9.34 36.75 36.75 0 0 1-5.81 1.66c-.57.12-1.14.21-1.71.28-.012.008-.026.011-.04.01s-.035.002-.05.01l-.78.09c-.15.19-.3.37-.45.55l-.78.94a58.84 58.84 0 0 1-1.95 2.28c-.73.83-1.48 1.65-2.25 2.46l-.83.86a92.14 92.14 0 0 1-4.39 4.21c-.25.23-.51.46-.77.68-.25.24-.51.46-.78.68-.27.24-.55.48-.83.7a17.28 17.28 0 0 1-.84.7 23.53 23.53 0 0 1-1.27 1.02c-.03.03-.05.06-.08.06-.54.44-1.09.86-1.64 1.27-.02.02-.03.04-.05.04-.49.38-.99.74-1.49 1.1a1.44 1.44 0 0 1-.15.11c-.56.41-1.12.8-1.7 1.2l-2 1.33a56.5 56.5 0 0 1-1.83 1.15 50.61 50.61 0 0 1-2.23 1.34c-.25.15-.5.3-.76.44-.57.33-1.14.65-1.72.96-.42.23-.84.46-1.27.67-.21.12-.43.23-.65.34a.34.34 0 0 1-.12.06c-.21.12-.42.22-.63.32a.24.24 0 0 1-.11.06 45.57 45.57 0 0 1-1.57.78c-.06.03-.12.06-.19.09l-2.08.98-2.68 1.16a79.48 79.48 0 0 1-2.47 1.01l-2.52.94c-.37.14-.75.27-1.12.4l-1.14.4c-.3.11-.59.21-.89.3h-.01a2.52 2.52 0 0 1-.36.12c-.021.02-.051.028-.08.02-.51.18-1.03.35-1.55.5a81.37 81.37 0 0 1-2.66.8c-.52.16-1.05.3-1.58.44l-1.61.43-1.88.47a13.7 13.7 0 0 1-.92.22 15.57 15.57 0 0 1-.93.21 39 39 0 0 1-2.2.48 86.99 86.99 0 0 1-2.43.5 57.49 57.49 0 0 1-1.5.28l-1.51.26-2.95.47-.61.09-2.66.36.31 2.2 8.25 58.6c.18 7.07 21.48 68.56-9.45 88.5-1.68 1.21-13.46 9.28-31.79 13.3-4.681.978-5.873 7.109-1.9 9.77 1.71 1.14 3.39 2.303 5.04 3.49l2.45 1.79c1.43 1.07 2.83 2.15 4.2 3.27a30.46 30.46 0 0 1 1.28 1.04l1.22 1.01c.55.45 1.1.92 1.64 1.4l1.35 1.18 2.2 2 1.44 1.36 2.09 2.05.74.75 1.14 1.17.76.81a57.44 57.44 0 0 1 1.69 1.84 4.07 4.07 0 0 1 .4.45c.41.43.79.87 1.16 1.31a13.21 13.21 0 0 1 .62.72 34.28 34.28 0 0 1 1.12 1.33c.16.17.3.35.44.53a78.37 78.37 0 0 1 2.46 3.13c.02.01.03.01.02.02a.35.35 0 0 1 .08.1c.023.018.04.042.05.07l.79 1.04-.63 1.25-1.61 3.22c-.69-.93-1.4-1.86-2.14-2.77-.06-.07-.12-.15-.19-.22l-.77-.94c-.25-.31-.52-.63-.79-.94-.19-.23-.39-.46-.6-.69a.7.7 0 0 0-.08-.1l-1.16-1.29-1.2-1.29a19.18 19.18 0 0 0-.63-.66c-.09-.1-.19-.2-.28-.3l-1.09-1.1-1.03-1.01c-.27-.27-.55-.54-.84-.81a104.72 104.72 0 0 0-6.57-5.77l-1.38-1.11c-.94-.75-1.89-1.49-2.87-2.21l-1.04-.77-1.15-.84a53.33 53.33 0 0 0-1.54-1.08 41.28 41.28 0 0 0-1.53-1.05.18.18 0 0 0-.07-.05l-1.56-1.04c-.27-.19-.55-.37-.83-.55l-2.4-1.53-2.45-1.5c-1.66-.99-3.35-1.97-5.08-2.92l-1.73-.94c-.08-.05-.16-.09-.24-.13a41.3 41.3 0 0 0-1.47-.78c-.36-.2-.72-.39-1.08-.57l-2.71-1.38-2.14-1.04-2.04-.97a49.62 49.62 0 0 0-1.05-.49l-1.06-.48c-.71-.33-1.43-.64-2.15-.96l-1.04-.45-1.05-.45-.059-.024a192.72 192.72 0 0 0-5.871-2.425l-3.34-1.29-3.15-1.15c-.2-.08-.39-.15-.59-.22l-.66-.23-2.01-.7-2.16-.73-2.42-.79a160.13 160.13 0 0 0-4.54-1.43l-2.03-.6a52.92 52.92 0 0 0-1.68-.48c-.14-.04-.29-.09-.43-.12a73.06 73.06 0 0 0-1.98-.56c-.87-.25-1.75-.48-2.63-.71l-4.39-1.13-6.61-1.54-1.33-.29-1.88-.4-1.39-.29c-.2-.04-.41-.09-.63-.12a61.11 61.11 0 0 0-1.95-.39l-5.14-.95-3.06-.52-4.5-.7-2.64-.38-3.03-.4-2.99-.37-3.95-.44-1.96-.2-1.93-.18-1.6-.14-.97-.08-2.29-.18-5.27-.34-2.88-.15c-.09 0-.17-.01-.26-.01l-2.85-.11c-.1-.01-.2-.01-.29-.01l-2.38-.07c-.19-.01-.39-.01-.59-.01l-1.1-.02-5.36-.06-3.86.03-3.87.08-2.85.1c-2.59.09-5.173.227-7.75.41l-3 .22-4.69.42-1.88.19-2.79.31-4.64.59-1.6.23-1.6.24-1.56.24-1.56.25-2.29.39-5.11.96a41.7 41.7 0 0 0-1.61.33l-1.76.37-2.07.46-3.5.82-4.4 1.13-2.18.6-4.32 1.27-3.2 1.02-2.59.87-2.15.75c-.27.09-.53.18-.79.28-.26.09-.52.19-.78.29l-3.1 1.17-2.37.95-2.3.96c-.2.08-.41.17-.61.26l-2.79 1.23-1.97.91-1.96.93-3.85 1.95a139.37 139.37 0 0 0-6.99 3.92l-2.27 1.38c-1.2.75-2.38 1.52-3.55 2.3l-3 2.08c-.26.18-.52.37-.77.55-.62.44-1.23.9-1.84 1.36l-1.81 1.39a14.28 14.28 0 0 0-.76.6c-.26.2-.51.41-.76.61-.28.21-.55.44-.82.66-.26.21-.51.42-.76.64a20.26 20.26 0 0 0-.88.74 10.16 10.16 0 0 0-.5.43l-1.65 1.45c-.34.29-.67.6-1 .91a61.33 61.33 0 0 0-1.47 1.37c-.21.19-.41.39-.62.6-.66.63-1.3 1.27-1.94 1.92-.07.06-.13.13-.19.19l-1.9 1.98a44.46 44.46 0 0 0-10.19 40.87l1.15 4.56.7 2.71 1.1 4.15 1.43 5.18.52 1.84c.018.038.031.079.04.12.01.02.01.02.02.03l.97 3.4c.782-.959 1.638-1.855 2.56-2.68a36.26 36.26 0 0 1 1.52-1.29 18.64 18.64 0 0 1 .84-.65 31.8 31.8 0 0 1 1.11-.82 7.16 7.16 0 0 1 .72-.5c.65-.46 1.33-.91 2.05-1.35.25-.17.5-.32.76-.47a34.49 34.49 0 0 1 1.2-.71 37.52 37.52 0 0 1 1.26-.7 48.51 48.51 0 0 1 3.06-1.56c.34-.17.69-.33 1.04-.49.011-.011.025-.018.04-.02l1.31-.58 1.34-.57 1.4-.56a38.71 38.71 0 0 1 1.62-.6c.3-.12.6-.23.91-.32a2.72 2.72 0 0 1 .37-.13c.31-.12.63-.22.95-.33.18-.06.36-.12.55-.17a50.85 50.85 0 0 1 2.07-.63c.28-.09.58-.17.87-.25.26-.08.52-.15.78-.21a35.21 35.21 0 0 1 2.14-.54c.49-.13.99-.24 1.5-.35a2.63 2.63 0 0 1 .13-.03l1.97-.4a69.1 69.1 0 0 1 2.16-.39 95.63 95.63 0 0 1 3.62-.51c1.34-.16 2.71-.3 4.11-.4l1.41-.09 2.41-.1c.97-.03 1.96-.04 2.96-.03a9.02 9.02 0 0 1 .52.01c.69 0 1.38.02 2.08.04 2.31.08 4.66.25 7.07.53a41.99 41.99 0 0 1 1.57.19l2.36.33 2.14.36c1.66.3 3.35.64 5.07 1.05l1.87.45a2.67 2.67 0 0 1 .27.07l1.54.41c.82.22 1.65.45 2.48.71l2.13.66 1.4.46 1.32.46c.74.25 1.48.52 2.23.81a77.36 77.36 0 0 1 1.94.75c.201.07.398.15.59.24a76.63 76.63 0 0 1 1.91.78c.41.17.81.35 1.22.53l.57.25a14.93 14.93 0 0 1 .58.26c.4.17.79.35 1.19.54.39.18.79.36 1.18.56l1.28.62c.42.2.85.41 1.27.63.48.23.96.48 1.45.74.49.24.97.5 1.46.76l2.33 1.29c.79.43 1.57.89 2.36 1.35l3.17 1.92c.72.44 1.44.9 2.16 1.37l1.34.88c.45.29.9.6 1.35.91a54.39 54.39 0 0 1 1.35.93 102.09 102.09 0 0 1 4.05 2.91 29.7 29.7 0 0 1 1.35 1.01l1.35 1.02 1.37 1.07 1.36 1.08 1.36 1.1 2.74 2.29 1.93 1.66.15.61.11.44.3 1.21 1.68 6.68a146.53 146.53 0 0 0-5.12-4.27c-.008-.007-.019-.01-.03-.01a1.13 1.13 0 0 0-.13-.1 69.11 69.11 0 0 0-1.42-1.11l-1.42-1.08-.01-.01c-.21-.17-.43-.33-.64-.48-1.16-.86-2.32-1.69-3.47-2.48l-1.38-.94c-.29-.2-.59-.39-.89-.58a74.43 74.43 0 0 0-1.63-1.05c-.1-.07-.2-.13-.3-.19a76.44 76.44 0 0 0-2.67-1.63l-1.48-.86c-.17-.1-.34-.19-.51-.28l-1.4-.78-.94-.5a50.17 50.17 0 0 0-2.06-1.05l-.69-.34c-.45-.23-.9-.45-1.35-.66-7.798-3.764-17.08.625-19.12 9.04-15.6 66.86 8.65 123.66 51.87 163.23 133.85 122.56 349.08 15.2 335.31-165.78l-5.59-73.26a34.31 34.31 0 0 0-14.22-25.3l-.11-.09c-18.98-13.71-81.23-34-81.86-34.2l-3.84-1.26-.03-4.04c0-.81.14-20.14 14.56-39.9 13.05-17.89 40.86-39.59 99.11-41.4 117.07-3.67 122.06 80.2 122.08 81.05l.27 5.93-5.95-.09c-.38-.03-.78-.03-1.16-.03-32.01 0-66.39 24.59-79.8 35.26l-.09.06c-5.774 4.577-9.426 11.314-10.11 18.65l-8.54 91.81c-14.12 151.85 143.05 263.35 280.12 196.58l2.97-1.48 2.36-1.22 1.55-.83 2.48-1.35 1.95-1.09 1.01-.58a200.29 200.29 0 0 0 6.08-3.67l2-1.27 2.84-1.86 2.65-1.81c.05-.04.1-.07.15-.11l2.21-1.56.98-.7 2.36-1.74 2.73-2.08c1.82-1.4 3.61-2.85 5.39-4.33l3.32-2.83a202.89 202.89 0 0 0 7.13-6.52l1.82-1.77 1.81-1.8 1.79-1.83 1.78-1.86a206.31 206.31 0 0 0 4.83-5.32l1.13-1.31c.57-.64 1.12-1.29 1.67-1.94l1.69-2.03 1.66-2.05 3.29-4.21c.07-.1.15-.21.23-.31l1.84-2.47c.027-.025.047-.056.06-.09l1.22-1.68c.057-.065.107-.135.15-.21.23-.29.44-.59.65-.89.062-.079.119-.163.17-.25l.83-1.18 1.69-2.44a86.7 86.7 0 0 0 1.06-1.58l1.05-1.59c1.27-1.93 2.513-3.897 3.73-5.9l1.01-1.67c.34-.55.67-1.11.99-1.67l.68-1.16 1.11-1.93 1.33-2.38c.91-1.62 1.793-3.26 2.65-4.92l.79-1.52a213.14 213.14 0 0 0 4.03-8.2 37.07 37.07 0 0 0 .67-1.43c.07-.15.14-.29.2-.44l.45-.97c.86-1.88 1.697-3.783 2.51-5.71l1.63-3.9 1.65-4.15a2.73 2.73 0 0 0 .1-.26l.74-1.94.93-2.48.76-2.1 1.63-4.67c.02-.01.02-.02.01-.03l.66-1.95.41-1.25c.22-.64.42-1.27.62-1.91l.59-1.86.79-2.59.98-3.3 1.42-5.06.88-3.31a22.31 22.31 0 0 0 .35-1.35l.38-1.52c.58-2.21 1.11-4.45 1.62-6.71a7.4 7.4 0 0 0 .15-.64c.1-.42.19-.84.28-1.26.14-.58.26-1.16.38-1.74l1.42-6.85.39-1.99 1.49-8.33.37-2.27.73-4.71.47-3.26.25-1.84.53-4.15.32-2.59.29-2.61.49-4.6.37-4.04.18-1.96-2.01-.32a2.57 2.57 0 0 0-.37-.06l-1.72-.26-2.1-.3-1.97-.24-2.86-.31a55.43 55.43 0 0 0-1.81-.18c-.77-.08-1.54-.14-2.3-.2l-2.27-.17-2.81-.18-4.23-.19-3.51-.09c-2.83-.04-5.58-.04-8.26.02l-1.72.04a7.37 7.37 0 0 0-.47.01l-2.69.1c-.42.01-.83.03-1.24.05l-1.15.06-1.25.06-1.54.09-2.44.17-1.92.15-3.2.28-1.03.1-5.29.58c-.14.02-.28.03-.42.05-8.58 1.07-14.02 2.23-14.53 2.38l13.25-6.63 9.08-4.54c.94-.36 70.93-34.69 119.48-3.57 8.243 5.319 19.278 1.08 21.84-8.39a509.47 509.47 0 0 0 4.61-18.6 25.28 25.28 0 0 0-9.75-26.06zm-828.6-30.56c-3.484 0-5.228-4.212-2.765-6.675s6.675-.719 6.675 2.765c.003 2.161-1.749 3.913-3.91 3.91zm101.71 55.89c-4.482 0-6.725-5.418-3.557-8.586s8.587-.925 8.587 3.556a5.04 5.04 0 0 1-5.03 5.03zm83.27-80.48c7.965 0 11.953 9.63 6.321 15.261s-15.261 1.644-15.261-6.321a8.94 8.94 0 0 1 8.94-8.94zm1.11 122.95c-10.952-.004-16.432-13.245-8.688-20.988s20.984-2.264 20.988 8.688c-.008 6.79-5.51 12.292-12.3 12.3zm32.42-93.89c7.972-.005 11.966 9.633 6.33 15.27s-15.274 1.642-15.27-6.33a8.94 8.94 0 0 1 8.94-8.94zm73.92-219.81a3.19 3.19 0 0 1-.64 1.32c-32.51 37.56-60.38 35.9-69.84 33.91-1.801-.376-2.753-2.36-1.92-4l5.18-10.37c1.05-2.19 31.19 9.41 62.42-23.36 1.755-1.81 4.823-.601 4.87 1.92a2.32 2.32 0 0 1-.07.58zm138.44-48.44v4.47c-5.36 6.42-49.18 73.77 38.01 118.48H657.1c-109.53-40.24-26.4-120.85-24.59-122.95zm32.42 456.03c-8.963 0-13.45-10.836-7.113-17.173s17.173-1.85 17.173 7.113c-.008 5.553-4.507 10.052-10.06 10.06zm19-122.95c-9.961 0-14.948-12.042-7.905-19.085s19.085-2.056 19.085 7.905a11.19 11.19 0 0 1-11.18 11.18zm29.26 206.78c-3.488.004-5.24-4.21-2.777-6.68s6.682-.728 6.687 2.76a3.92 3.92 0 0 1-3.91 3.92zm4.27-251.49c-11.33-11.33-35.57-8.96-35.77-8.94l6.71-4.47c1.03-.11 22.89-1.7 38 13.41zm82.71 96.12c-11.948 0-17.929-14.445-9.482-22.892s22.892-2.466 22.892 9.482a13.42 13.42 0 0 1-13.41 13.41z" fill="#f0bc81"/><path d="M816.198 605.774a10.85 10.85 0 0 1-5.879 1.766h-.111l-49.113-.09c-33.777-5.521-53.114-29.239-58.032-36.057a141.646 141.646 0 0 1-.156-40.037c4.694 16.431 17.637 40.864 53.337 61.72a33.192 33.192 0 0 0 12.071 4.181l1.52.223h.022c5.678 2.951 13.435 5.387 23.651 5.7h.023a15.761 15.761 0 0 0 2.279.402zM1052.77 540.5a519.867 519.867 0 0 1-2.93 55.28 12.593 12.593 0 0 1-19.15 9.39q-1.98-1.245-4.03-2.41a8.658 8.658 0 0 1-2.7-12.61c1.97-2.73 4.11-5.86 6.46-9.41l2.47-5.9 5.15-12.28a64.725 64.725 0 0 1-8.81 9.88l-2.14 1.99-1.13 1.01c-.74.66-1.51 1.32-2.29 1.98l-1.16.97-1.11.91-1.13.9a104.06 104.06 0 0 1-3.13 2.4l-1.98 1.43-1.13.79-1.13.77-1.14.75-1.13.73-1 .62-.91.55q-.33.21-.66.39l-.8.46-1.23.68c-.05.02-.09.05-.14.07a9.111 9.111 0 0 1-6.83.6.076.076 0 0 1-.04-.02.372.372 0 0 1-.14-.04c-.04-.01-.07-.02-.11-.03l-.05-.02c.56-.38 1.1-.77 1.63-1.16a26.5 26.5 0 0 0 1.04-.81l.75-.61a14.37 14.37 0 0 0 .74-.63 42.69 42.69 0 0 0 1.39-1.27l.7-.69a14.44 14.44 0 0 0 .67-.7 33.31 33.31 0 0 0 1.4-1.55 10.75 10.75 0 0 0 .55-.66c.24-.28.48-.58.69-.87a2.92 2.92 0 0 0 .16-.21c.12-.14.22-.28.32-.42a22.58 22.58 0 0 0 .62-.84 27.76 27.76 0 0 0 .66-.97 12.98 12.98 0 0 0 .57-.88 15.73 15.73 0 0 0 .34-.54c.22-.36.43-.71.62-1.07a12.76 12.76 0 0 0 .55-1.02 3.974 3.974 0 0 0 .26-.5c.12-.21.22-.41.32-.62a42.644 42.644 0 0 0 2.94-7.77 1.26 1.26 0 0 0 .03-.1l.26-1.04.25-1.07c.03-.11.05-.21.07-.32.06-.28.11-.55.16-.81a35.67 35.67 0 0 0 .32-1.96c.02-.14.04-.28.05-.42.02-.13.04-.26.05-.39.02-.11.03-.22.04-.32l.03-.29a.66.66 0 0 0 .01-.14c.01-.15.03-.28.03-.4.01-.11.02-.21.02-.3.02-.16.02-.28.03-.38l.02-.22 2.79-12.11 3.89-16.86c-.02.06-.06.15-.11.27-.03.09-.08.19-.13.32a70.49 70.49 0 0 1-1.4 3.06l-.47.96a49.83 49.83 0 0 1-.82 1.62l-.3.58c-.1.2-.2.4-.32.61a12.87 12.87 0 0 1-.33.62l-.53.97-.55 1c-.25.46-.52.92-.79 1.4a137.35 137.35 0 0 1-2.33 3.89l-.06.09a.746.746 0 0 0-.07.12q-.135.21-.27.42a4.168 4.168 0 0 1-.23.35l-.03.06c-.02.02-.03.05-.05.07 0 .02-.02.04-.03.06a.21.21 0 0 0-.03.05.607.607 0 0 1-.07.1.304.304 0 0 1-.05.07c0 .01-.01.02-.02.03-.01.02-.02.03-.03.05a.914.914 0 0 1-.08.13.218.218 0 0 0-.03.05l-.67 1.03c-1.24 1.87-2.59 3.82-4.07 5.8l-1.1 1.46c-.22.28-.43.57-.67.85a52 52 0 0 1-1.19 1.5.177.177 0 0 1-.05.07 12.44 12.44 0 0 1-.46.56 6.52 6.52 0 0 1-.34.4q-.645.795-1.32 1.56a.134.134 0 0 1-.06.07c-.16.19-.32.39-.5.58l-.8.9-1.1 1.21a79 79 0 0 1-2.55 2.65 79.389 79.389 0 0 0 10.62-39.43c0-2.19-.09-4.38-.29-6.53.02-.02.02-.02 0-.05a1.576 1.576 0 0 0 .29-.84c.07-3.09-4.47-4.48-13.28-4.61l-279.56-8.81c-3-.06-6.62-3.71-6.71-6.7-.02-.54-.02-1.07-.02-1.6 0-.12 0-.24.01-.35v-.05a30.66 30.66 0 0 1 .08-2.16l2.15.07 217.92 6.76 57.99 1.8c-.02-.16-.05-.31-.08-.46a3.427 3.427 0 0 0-.11-.46 3.222 3.222 0 0 0-.13-.44 2.225 2.225 0 0 0-.16-.43 6.283 6.283 0 0 0-.56-1.17.209.209 0 0 0-.04-.06 7.01 7.01 0 0 0-.54-.8c-.09-.13-.2-.25-.3-.37a3.64 3.64 0 0 0-.27-.3l-.4-.39a8.063 8.063 0 0 0-5.12-2.05l-269.23-8.68a41.4 41.4 0 0 1 8.18-16.18 6.802 6.802 0 0 1 7.09-2.21c61.31 16.65 144.34-1.5 209.19-82.49a11.829 11.829 0 0 1 18.39-.13l1.31 1.61q1.32 1.635 2.7 3.42l1.38 1.81q1.17 1.56 2.37 3.21a31.51 31.51 0 0 1 .8 1.11 45.84 45.84 0 0 1 .8 1.13l.81 1.15 1.62 2.35 1.08 1.61 1.08 1.64 1.43 2.23 1.43 2.3 1.35 2.24 1.92 3.32 1.42 2.56.85 1.57 1.23 2.36a89.9 89.9 0 0 1 1.39 2.78l1.27 2.63q1.245 2.655 2.4 5.4l1.09 2.67a115.94 115.94 0 0 1 1.08 2.8l1.01 2.78a.782.782 0 0 1 .05.14q.48 1.365.93 2.76a.358.358 0 0 1 .04.11l.83 2.68.26.87.29 1.01c.14.47.27.93.39 1.4q.135.465.24.93a37.69 37.69 0 0 1 .47 1.83l.51 2.17.4 1.87a37.48 37.48 0 0 1 .42 2.11c.06.28.11.56.16.84l.23 1.31c.12.67.22 1.34.32 2.01a11.57 11.57 0 0 1 .12.82l.03.16q.06.45.12.9v.02l.05.13 4.42 11.04c0-23.25-4.05-50.88-20.88-79.91-4.34-7.54-8.67-14.2-12.5-19.72a3.803 3.803 0 0 1 4.25-5.79l1.91.6c.49.15.97.32 1.46.49a43.11 43.11 0 0 1 1.48.52 55.33 55.33 0 0 1 1.48.57q.375.135.75.3l.74.31 1 .44 1.69.81.84.43c.37.19.73.39 1.1.59a30.85 30.85 0 0 1 1.1.63c.37.21.73.44 1.09.67l1.08.7 13.41 4.47s31.29 23.72 43.03 43.73a517.734 517.734 0 0 1 12.85 114.99zM94.559 575.708a187.218 187.218 0 0 1-32.079.559h-2.235a56.945 56.945 0 0 0 20.231 10.395 139.113 139.113 0 0 0-30.402 20.678 13.334 13.334 0 0 1-22.309-8.271 524.457 524.457 0 0 1-3.286-58.568l.157-12.004a152.299 152.299 0 0 0 46.787 38.83l8.942 2.235c-28.122-15.358-43.881-43.032-49.649-64.045a2.508 2.508 0 0 1 4.65-1.788c10.395 19.605 28.814 42.048 61.34 62.592a5.098 5.098 0 0 1-2.146 9.389zm248.422-89.618L44.753 453.542a6.837 6.837 0 0 1-5.902-8.361l.022-.089 264.943 29.552a12.052 12.052 0 0 0 .067-1.252 11.185 11.185 0 0 0-9.948-11.088L50.32 435.122a6.393 6.393 0 0 1-5.186-8.807l.022-.067 196.695 23.472a11.184 11.184 0 0 0 12.429-9.769L56.534 416.344a4.555 4.555 0 0 1-3.465-6.662l.045-.045c24.187-45.111 56.914-70.013 71.332-79.358a11.824 11.824 0 0 1 12.787-.089c36.907 23.361 73.121 58.457 96.66 83.359 2.616 2.772 18.867 8.182 21.169 8.741 26.49 6.415 49.381 9.254 69.187 9.232l16.14 42.384c.536 1.431 1.654 7.153 2.593 12.183z" fill="#845533"/><path d="M494.141 382.701a2.571 2.571 0 0 1-.067.581 3.179 3.179 0 0 1-.648 1.319c-32.503 37.555-60.379 35.901-69.835 33.911a2.797 2.797 0 0 1-1.923-4.001l5.186-10.373c1.051-2.191 31.184 9.411 62.413-23.36a2.838 2.838 0 0 1 4.874 1.922zm176.375 75.088h-13.413c-109.536-40.238-26.4-120.847-24.59-122.948v4.471c-5.365 6.416-49.179 73.769 38.002 118.478zm55.885 165.422h-8.942c-11.333-11.334-35.566-8.964-35.767-8.942l6.706-4.471c1.028-.112 22.891-1.699 38.002 13.413z"/><circle cx="386.617" cy="582.973" r="8.942"/><circle cx="303.347" cy="649.477" r="5.03"/><circle cx="201.635" cy="594.709" r="3.912"/><circle cx="420.148" cy="612.034" r="8.942"/><circle cx="387.734" cy="684.685" r="12.295"/><circle cx="664.927" cy="780.808" r="10.059"/><circle cx="683.928" cy="656.742" r="11.177"/><circle cx="800.17" cy="705.921" r="13.413"/><circle cx="713.19" cy="870.784" r="3.912"/></g><defs ><path id="B" d="M339.539 570.119a82.736 82.736 0 0 1-24.947 11.96 88.349 88.349 0 0 0 40.528-59.842c3.152 17.391.805 37.465-15.581 47.883z"/></defs></svg>