<svg xmlns="http://www.w3.org/2000/svg" width="128" height="128" viewBox="0 0 33.867 33.867" xmlns:v="https://vecta.io/nano"><defs><linearGradient id="A" x1=".001" y1="34.042" x2="35.163" y2="1.463" gradientUnits="userSpaceOnUse"><stop stop-color="#0ac4dd"/><stop offset="1" stop-color="#18d995"/></linearGradient></defs><path d="M32.09 30.175c-.083 0-.162-.033-.221-.091a.31.31 0 0 1-.092-.22V4.053a2.45 2.45 0 0 0-.287-1.159c-.19-.357-.465-.662-.801-.888a2.48 2.48 0 0 0-1.126-.407 2.53 2.53 0 0 0-1.186.17c-3.38 1.388-6.568 3.202-9.485 5.398-5.932 4.471-8.361 10.074-8.361 15.416s3.556 7.492 6.441 7.492 6.497-2.517 6.497-7.492-1.296-7.009-2.985-9.915c1.568-.833 3.251-1.43 4.995-1.77a.86.86 0 0 1 .368.007c.121.026.233.086.329.164s.174.177.227.289.081.233.082.357v18.459a2.1 2.1 0 0 0 .618 1.487c.396.394.933.616 1.492.616h5.27v-2.103zm-15.114-1.22c-1.249 0-3.278-1.649-3.278-5.977s2.638-7.224 3.306-7.675c.568.401 3.306 3.295 3.306 7.672s-2.086 5.98-3.334 5.98zM11.706 11.8c-1.036-.454-2.125-.778-3.241-.964a.81.81 0 0 0-.356.026.83.83 0 0 0-.526.455.89.89 0 0 0-.074.347v18.511a2.1 2.1 0 0 1-.618 1.487c-.396.394-.933.616-1.492.616H0v-2.103h1.917c.083 0 .162-.033.221-.091a.31.31 0 0 0 .092-.22V4.085a2.45 2.45 0 0 1 .291-1.158c.191-.357.467-.66.804-.885s.724-.363 1.128-.403.811.02 1.186.173c3.519 1.415 6.822 3.314 9.813 5.64-1.437 1.278-2.697 2.74-3.747 4.349z" fill="url(#A)"/></svg>