<svg xmlns="http://www.w3.org/2000/svg" width="128" height="128" fill="none" xmlns:v="https://vecta.io/nano"><path d="M91.703 0L64.075 14.27 37.146 0 0 20.218v73.496l22.873 12.121V32.252l14.774-8.489 3.908 2.402-12.073 6.661v45.193l38.54 20.692V78.018L48.985 67.551V48.046L64 39.96 98.898 58.75V33.062l-12.071-6.659 3.481-2.618 15.323 8.088v74.686L128 93.715V20.218z" fill="url(#A)"/><path d="M59.477 67.867l18.641 10.011v20.408l-12.778 7.239-35.87-18.672v21.801L64 128l34.863-18.241V68.713L59.477 47.691z" fill="url(#A)"/><defs><linearGradient id="A" x1="64" y1="25.394" x2="64" y2="128" gradientUnits="userSpaceOnUse"><stop offset=".266" stop-color="#74bf6d"/><stop offset="1" stop-color="#4d9842"/></linearGradient></defs></svg>