<svg xmlns="http://www.w3.org/2000/svg" width="128" height="128" fill="none" xmlns:v="https://vecta.io/nano"><g clip-path="url(#A)" fill="#00c4ff" transform="matrix(2.245811 0 0 2.245811 -.011228 27.941259)"><path d="M57 12.738V31.8h-6.4V15.669c0-2.852-.227-3.288-1.236-3.04-.89.218-.91 1.548-.962 3.546V31.8h-5.928V1.483L48.402.112v11.44c0 .08 0 .23.06.23s.072-.17.075-.235c.217-4.278 1.4-5.949 3.404-6.416C55.224 4.371 57 5.93 57 12.738zm-15.289 9.434c0-4.7-.682-6.148-5.03-6.999-2.86-.4-2.96-.617-2.96-1.92v-.265c0-1.632.185-2.688 1.067-2.912.913-.234 1.132.264 1.132 2.307v1.943h5.791v-3.02c0-5.741-1.502-7.85-6.89-6.633-5.36 1.208-6.89 3.352-6.89 8.5v1.093c0 4.588.45 5.929 4.964 6.935 2.988.601 3.025.748 3.025 2.09v1.35c0 1.64-.17 2.09-.967 2.09-.995 0-1.231-.644-1.231-2.547V22.31H27.93v2.139c0 5.782 1.745 7.572 6.89 7.572 5.411 0 6.89-1.902 6.89-7.2v-2.648zm-21.233-14.2c-5.093 1.184-6.941 3.384-6.941 8.51v.461h5.857v-2.182c0-1.023.265-1.767.968-1.926s.995.66.995 2.073V17.4c-2.958.954-8.201 0-8.201 6.572v2.267c0 4.172 1.171 5.782 4.159 5.782 2.318 0 3.528-.801 3.909-3.334 0 0 .04-.264.082-.264s.051.196.051.264v3.117h5.86V13.898c0-5.52-1.882-7.056-6.739-5.926zm.88 17.645c0 1.741-.424 2.136-1.301 2.136-.821 0-1.518-.428-1.518-2.136v-1.974c0-1.566 1.53-2.168 2.818-2.628v4.602zm-8.918 6.187V16.86c0-4.196-.642-6.866-3.419-6.21-2.156.51-3.32 1.937-3.682 5.37-.016.127-.12.157-.12 0v-4.28L.005 12.945v18.863h5.214V19.494c0-2.125.396-3.006 1.1-3.206.797-.223 1.098.88 1.098 2.686v12.83h5.024z"/></g><defs><clipPath id="A"><path fill="#fff" d="M0 0h57v32H0z"/></clipPath></defs></svg>