<svg xmlns="http://www.w3.org/2000/svg" xmlns:xlink="http://www.w3.org/1999/xlink" width="128" height="128" fill="none" xmlns:v="https://vecta.io/nano"><g style="mix-blend-mode:overlay" filter="url(#A)" transform="matrix(.836639 0 0 .836639 -13.38867 9.870912)"><rect x="35.473" y="116.833" width="48.217" height="4.636" rx="2.318" fill="#000"/></g><g style="mix-blend-mode:overlay" filter="url(#B)" transform="matrix(.836639 0 0 .836639 -13.38867 9.870912)"><rect x="96.671" y="116.833" width="48.217" height="5.563" rx="2.782" fill="#000"/></g><g clip-path="url(#H)" transform="matrix(.836639 0 0 .836639 -13.38867 9.870912)"><path d="M37.965 116.812c0-9.63 7.856-17.44 17.544-17.44h12.136c8.085 0 14.62 6.514 14.62 14.534 0 4.01-3.276 7.267-7.31 7.267H42.351c-2.431 0-4.386-1.944-4.386-4.361z" fill="#d0c5f8"/><path fill-rule="evenodd" d="M82.422 114.098v-.192c0-8.038-6.552-14.534-14.62-14.534H55.667a17.4 17.4 0 0 0-4.086.473 57.66 57.66 0 0 0 30.842 14.253z" fill="#bbb3f4"/><path d="M142.98 116.812c0-9.63-7.856-17.44-17.544-17.44H113.3c-8.085 0-14.619 6.514-14.619 14.534 0 4.01 3.276 7.267 7.309 7.267h32.622c2.395 0 4.368-1.944 4.368-4.361z" fill="#d0c5f8"/><g fill-rule="evenodd"><path d="M57.957 121.173c-7.134-2.802-12.999-8.108-16.487-14.832a17.31 17.31 0 0 0-3.505 10.471c0 2.417 1.973 4.361 4.386 4.361z" fill="url(#C)"/><path d="M98.522 114.098v-.192c0-8.038 6.552-14.534 14.62-14.534h12.136a17.41 17.41 0 0 1 4.087.473c-8.42 7.547-19.076 12.66-30.842 14.253z" fill="#bbb3f4"/><path d="M122.971 121.173a31.62 31.62 0 0 0 16.486-14.832 17.31 17.31 0 0 1 3.506 10.471c0 2.417-1.973 4.361-4.386 4.361z" fill="url(#D)"/></g><path d="M90.508 110.176c30.63 0 55.431-24.655 55.431-55.088S121.086 0 90.508 0C59.877 0 35.059 24.655 35.059 55.088s24.818 55.088 55.449 55.088z" fill="#ddd5ff"/><path d="M90.507 103.872c27.091 0 49.091-21.853 49.091-48.766s-22-48.784-49.091-48.784c-27.126 0-49.09 21.853-49.09 48.767s21.965 48.784 49.09 48.784z" fill="#cbc1f7"/><path d="M90.437 97.096c23.321 0 42.274-18.789 42.274-42.008S113.793 13.08 90.437 13.08c-23.321 0-42.274 18.789-42.274 42.008s18.953 42.008 42.274 42.008z" fill="url(#E)"/><g style="mix-blend-mode:screen" opacity=".1"><path d="M91.498 92s-13.013.247-24.207-9.538c-11.432-9.905-9.974-18.639-9.974-18.639s6.797 2.538 13.099 11.337S84.701 89.462 91.498 92z" fill="url(#F)"/></g><path style="mix-blend-mode:screen" opacity=".5" d="M57.816 34.846c-.793 4.903 8.613 4.325 23.532 3.87 18.037-.578 36.162 14.831 46.748 3.782 1.726-1.821-15.5-25.775-36.408-25.32-20.767.56-33.185 13.343-33.872 17.668z" fill="url(#G)"/><path d="M107.857 41.465h-2.273c-2.518 0-4.526 2.031-4.526 4.5v14.901c0 2.504 2.043 4.5 4.526 4.5h2.273c2.518 0 4.526-2.031 4.526-4.5V45.965c.036-2.469-2.008-4.5-4.526-4.5z" fill="#200d67"/><path d="M108.949 43.759h-1.092a1.16 1.16 0 0 0-1.163 1.156v2.837a1.16 1.16 0 0 0 1.163 1.156h1.092c.634 0 1.162-.508 1.162-1.156v-2.837a1.17 1.17 0 0 0-1.162-1.156z" fill="#cef2e7"/><path d="M75.711 41.622h-2.272c-2.519 0-4.527 2.031-4.527 4.5v14.901c0 2.504 2.043 4.5 4.527 4.5h2.272c2.519 0 4.527-2.031 4.527-4.5V46.123c.035-2.469-2.008-4.5-4.527-4.5z" fill="#200d67"/><path d="M76.803 43.916h-1.092c-.634 0-1.163.508-1.163 1.156v2.837a1.16 1.16 0 0 0 1.163 1.156h1.092c.634 0 1.163-.508 1.163-1.156v-2.837c-.035-.63-.546-1.156-1.163-1.156z" fill="#cef2e7"/><g fill-rule="evenodd"><path d="M145.657 49.485l-1.057-6.636c9.247 1.331 4.157.543 10.868 1.769 3.435.84 6.447 1.909 8.736 3.362 2.308 1.418 4.228 3.415 4.686 6.041.722 4.01-2.22 7.547-5.742 10.226-3.717 2.819-9.054 5.551-15.536 8.055-13.034 5.096-31.212 9.648-51.591 12.573-20.344 2.924-39.226 3.712-53.371 2.574-7.028-.578-13.07-1.663-17.579-3.275-4.263-1.594-8.279-4.097-8.966-8.107-.458-2.626.669-5.061 2.343-7.057 1.709-1.996 4.139-3.94 7.151-5.656 5.443-3.099 1.849-1.418 9.582-4.85.176 2.276.388 4.167.775 6.409-5.372 2.697-2.624 1.278-6.57 3.625-2.607 1.558-4.404 2.977-5.443 4.203s-1.092 1.961-1.039 2.346c.123.595.969 1.944 4.809 3.327 3.611 1.313 8.913 2.329 15.624 2.872 13.387 1.086 31.688.385 51.644-2.522 19.957-2.872 37.589-7.319 49.936-12.135 6.2-2.399 10.85-4.868 13.845-7.109 3.17-2.399 3.505-3.905 3.399-4.5-.053-.385-.387-1.068-1.796-1.944-1.392-.876-3.594-1.716-6.623-2.452-5.055-.946-.916-.193-8.085-1.138z" fill="#29e7f6"/><path d="M46.401 84.611c.035-.473.493-.788 1.004-.77 6.693.438 14.444.473 22.933 0 .511-.035.951.333.969.77.035.473-.37.841-.846.876-8.543.473-16.399.473-23.18 0-.546-.035-.934-.455-.881-.876zm29.345-.315c-.035-.473.335-.841.846-.893.846-.053 1.709-.14 2.589-.21.511-.052.969.298 1.004.736.053.473-.335.876-.828.893-.881.088-1.726.14-2.589.21-.528.07-.986-.263-1.022-.736z" fill="#fff"/><g fill="#000"><path opacity=".16" d="M25.582 63.335c5.443-3.099 1.849-1.418 9.582-4.85.176 2.276.388 4.168.775 6.409-5.372 2.697-2.624 1.278-6.57 3.625zm128.125-12.73c-5.02-.928-.881-.175-8.05-1.121l-1.056-6.636c9.247 1.331 4.157.543 10.867 1.769z"/></g></g></g><defs><filter id="A" x="28.473" y="109.833" width="62.217" height="18.636" filterUnits="userSpaceOnUse" color-interpolation-filters="sRGB"><feFlood flood-opacity="0"/><feBlend in="SourceGraphic"/><feGaussianBlur stdDeviation="3.5"/></filter><filter id="B" x="89.671" y="109.833" width="62.217" height="19.563" filterUnits="userSpaceOnUse" color-interpolation-filters="sRGB"><feFlood flood-opacity="0"/><feBlend in="SourceGraphic"/><feGaussianBlur stdDeviation="3.5"/></filter><linearGradient id="C" x1="41.825" y1="106.085" x2="48.558" y2="120.944" xlink:href="#I"><stop stop-color="#aca4f1"/><stop offset="1" stop-color="#d3c9f9" stop-opacity=".4"/></linearGradient><linearGradient id="D" x1="127.737" y1="105.676" x2="134.469" y2="120.535" xlink:href="#I"><stop stop-color="#aca4f1"/><stop offset="1" stop-color="#d3c9f9" stop-opacity=".4"/></linearGradient><linearGradient id="E" x1="90.438" y1="13.085" x2="90.438" y2="97.095" xlink:href="#I"><stop stop-color="#322f82"/><stop offset="1" stop-color="#6366f1"/></linearGradient><linearGradient id="F" x1="68.594" y1="83.886" x2="75.234" y2="76.814" xlink:href="#I"><stop stop-color="#d4e2ff"/><stop offset="1"/></linearGradient><linearGradient id="G" x1="57.736" y1="31.816" x2="128.257" y2="31.816" xlink:href="#I"><stop/><stop offset="1" stop-color="#6a9bff"/></linearGradient><clipPath id="H"><path fill="#fff" transform="translate(16)" d="M0 0h152.996v121.173H0z"/></clipPath><linearGradient id="I" gradientUnits="userSpaceOnUse"/></defs></svg>