<svg xmlns="http://www.w3.org/2000/svg" width="128" height="128" viewBox="0 0 33.867 33.867" xmlns:v="https://vecta.io/nano"><defs><clipPath id="A"><path d="M115.178 14.281l-11.64 7.096-6.993-5.288a1.08 1.08 161.328 0 0-1.692.572L89.88 34.521a.626.626 37.097 0 0 .93.703l11.64-7.096 6.993 5.288a1.08 1.08 161.329 0 0 1.692-.572l4.973-17.86a.626.626 37.097 0 0-.93-.703z" fill="#0647d5" fill-opacity="1" stroke-width="1"/></clipPath></defs><g clip-path="url(#A)" transform="matrix(1.288995 0 0 1.288995 -115.82575 -14.972431)"><path d="M89.454 36.05l5.825-20.918 2.714 9.626z" fill="#0647d5"/><path d="M89.454 36.05l18.54-11.303-10.001.01z" fill="#002392"/><path d="M116.534 13.455l-5.825 20.918-2.714-9.626z" fill="#2e8eff"/><path d="M116.534 13.455l-18.54 11.303 10.001-.01z" fill="#3d9eff"/><path d="M95.279 15.132l12.715 9.615-10.001.01-2.714-9.626" fill="#1667f6" paint-order="stroke fill markers"/><path d="M110.709 34.373l-12.715-9.615 10.001-.01 2.714 9.626" fill="#2179ff" paint-order="stroke fill markers"/></g></svg>