<svg xmlns="http://www.w3.org/2000/svg" width="128" height="128" xmlns:v="https://vecta.io/nano"><g fill="#f7e7f1"><path d="M85.48 38.111a1.2 1.2 0 0 0-.301.075c-.204.079-.392.252-.488.443s-.12.381-.12.564c0-.031-.017.129-.071.325l-.236.748-.803 2.114-1.851 3.993c-1.986 3.343-4.126 4.829-8.236 5.701-1.787.379-3.29.443-10.637.436-7.988-.008-8.693-.041-11.141-.572-3.076-.668-3.957-1.13-5.746-3.022-1.236-1.307-2.907-4.406-4.212-7.985a10.92 10.92 0 0 0-.502-1.179c-.081-.158-.155-.29-.238-.408-.042-.059-.084-.115-.152-.178s-.161-.183-.44-.183c-.18 0-.239.037-.322.068a3.03 3.03 0 0 0-.26.114c-.188.091-.414.213-.678.364-.529.302-1.207.716-1.946 1.186-1.478.941-3.195 2.103-4.411 3.017-8.699 6.539-14.918 16.252-17.065 26.665-.723 3.508-1.066 8.651-.773 11.77a22.61 22.61 0 0 0 .174 1.422c.03.187.059.34.092.469.016.065.031.12.062.195.016.037.032.08.085.149s.175.233.461.233c.17 0 .22-.039.271-.062s.087-.045.123-.068a2.48 2.48 0 0 0 .215-.154 6.63 6.63 0 0 0 .492-.432c.145-.139.261-.248.368-.377s.226-.307.247-.546-.072-.441-.159-.584-.185-.263-.305-.416c-.222-.282-.353-.711-.35-1.121s.143-.774.329-.96a.78.78 0 0 1 .47-.255c.244-.057.652-.087 1.297-.087.699 0 1.099.03 1.324.091s.32.129.557.366c.135.135.268.308.355.452s.102.302.102.185c0 .271-.015.576.352.817.183.121.438.124.594.071s.253-.132.336-.212c.334-.321.528-.771.646-1.352.595-2.927 2.508-7.45 4.349-10.253 1.55-2.36 4.935-5.501 7.063-6.594 3.511-1.804 5.641-2.359 9.503-2.478 1.778-.055 2.562-.088 4.2.117s4.135.654 9.22 1.566c2.101.377 4.025.51 7.374.516 4.65.008 6.702-.212 12.915-1.386 7.247-1.37 14.385-.49 18.909 2.233 2.044 1.23 4.859 4.37 6.02 6.747 1.575 3.224 3.025 9.04 3.027 12.033 0 .329.025.603.083.843s.115.491.44.677c.163.093.403.112.574.055s.278-.155.364-.25c.172-.19.277-.408.384-.69.043-.112.122-.248.199-.345s.176-.145.105-.118c.121-.046.27-.104.409-.284s.168-.474.119-.651c-.098-.353-.279-.525-.55-.847-.325-.386-.456-.704-.474-.964s.059-.505.312-.818c.087-.107.372-.28.778-.384s.914-.151 1.407-.135.972.097 1.312.219.488.287.496.309a1.19 1.19 0 0 0 .322.468c.141.126.318.247.598.247a.68.68 0 0 0 .551-.315c.077-.12.107-.218.135-.322.056-.207.085-.438.107-.717.044-.558.049-1.296.022-2.126-.054-1.66-.235-3.669-.526-5.175-2.436-12.622-10.58-23.896-22.196-30.756-1.964-1.16-3.243-1.848-4.138-2.146-.336-.111-.628-.191-.925-.157zm.2 1.139c.029.006.096-.011.372.08.692.23 1.976.898 3.922 2.047 11.351 6.703 19.294 17.716 21.666 30.004.272 1.407.454 3.393.506 4.999.023.699.01 1.271-.016 1.742-.211-.165-.461-.285-.72-.377-.494-.176-1.066-.264-1.651-.283s-1.183.033-1.719.169-1.031.344-1.371.764a2.7 2.7 0 0 0-.348.571c-.534-3.052-1.589-6.584-2.769-9-1.295-2.651-4.095-5.798-6.449-7.215-4.873-2.933-12.232-3.784-19.694-2.374-6.194 1.171-8.09 1.375-12.705 1.367-3.32-.006-5.148-.134-7.178-.498l-9.279-1.575c-1.699-.212-2.599-.179-4.374-.125-3.962.122-6.384.753-9.98 2.601-2.451 1.259-5.786 4.386-7.487 6.976-1.945 2.962-3.868 7.487-4.511 10.644-.006.028-.018.045-.025.072-.132-.207-.285-.416-.472-.602-.296-.296-.629-.539-1.054-.654s-.897-.131-1.619-.131c-.674 0-1.145.022-1.552.117a2.09 2.09 0 0 0-1.006.553c-.114.114-.212.24-.294.374.013-2.837.33-6.36.849-8.876 2.088-10.129 8.164-19.624 16.642-25.996 1.176-.884 2.883-2.04 4.34-2.968a48.38 48.38 0 0 1 1.899-1.158 11.05 11.05 0 0 1 .517-.278c.009.017.013.02.022.039.131.258.296.638.448 1.054 1.337 3.667 2.97 6.805 4.45 8.37 1.866 1.973 3.17 2.663 6.322 3.347 2.486.54 3.386.59 11.377.598 7.354.007 8.982-.059 10.87-.46 4.298-.912 6.867-2.69 8.966-6.224.531-.895 1.282-2.563 1.925-4.143.321-.79.612-1.551.825-2.172.107-.311.194-.586.257-.819.057-.211.092-.368.099-.56zm20.951 42.032c.074.107.123.218.211.322.121.144.104.125.159.206a1.88 1.88 0 0 0-.261.275c-.026.032-.039.077-.064.111a15.53 15.53 0 0 0-.045-.914zm-90.602 1.298c.025.035.042.074.069.108.083.105.119.156.16.214a5.43 5.43 0 0 1-.169.17c-.021-.147-.04-.318-.06-.492z" paint-order="stroke fill markers"/><path d="M15.408 82.112c-.283-3.018.056-8.17.764-11.604 2.117-10.271 8.265-19.875 16.853-26.331 2.392-1.798 6.85-4.636 7.281-4.636.126 0 .489.712.807 1.581 1.321 3.623 2.973 6.741 4.331 8.177 1.827 1.932 2.92 2.509 6.034 3.185 2.467.535 3.27.577 11.26.585 7.35.007 8.916-.058 10.753-.448 4.204-.892 6.558-2.524 8.601-5.963.982-1.654 3.038-6.705 3.038-7.466 0-1.01 1.218-.606 5.127 1.703 11.483 6.782 19.527 17.925 21.931 30.38.562 2.913.728 7.99.26 7.99-.144 0-.323-.16-.398-.356-.421-1.096-4.096-1.215-4.95-.161-.637.786-.582 1.604.168 2.495.522.62.565.777.249.899-.211.081-.492.435-.626.786-.373.982-.761.76-.763-.436-.003-3.164-1.454-8.943-3.084-12.279-1.228-2.514-4.035-5.657-6.235-6.981-4.698-2.828-11.947-3.693-19.301-2.303-6.203 1.172-8.178 1.384-12.81 1.376-3.334-.006-5.211-.137-7.276-.507-10.17-1.824-9.984-1.801-13.537-1.692-3.912.12-6.188.714-9.741 2.54-2.289 1.176-5.649 4.31-7.275 6.785-1.893 2.883-3.811 7.407-4.43 10.449-.2.985-.82 1.58-.82.787 0-.227-.279-.692-.621-1.033-.533-.533-.856-.621-2.277-.621-1.319 0-1.759.103-2.162.506-.648.648-.659 2.014-.024 2.822.478.608.477.618-.099 1.173-.32.308-.641.559-.714.559s-.215-.882-.317-1.961z" paint-order="stroke fill markers"/></g><g fill="#f7e7f1"><path d="M106.467 87.333a.67.67 0 0 0-.252.028c-.346.108-.474.38-.546.601s-.098.462-.098.746c0 .14-.052.689-.143 1.34l-.352 2.2c-2.393 13.291-11.041 22.399-20.934 22.382-2.657-.005-3.855-.289-10.584-2.492-6.028-1.974-8.402-2.453-11.115-2.194-2.25.214-3.518.535-9.511 2.411-6.138 1.922-7.22 2.132-10.229 1.953-2.888-.172-4.267-.559-7.399-2.083-1.929-.939-2.632-1.45-4.432-3.226-2.342-2.31-3.633-4.072-5.012-6.833-1.547-3.097-2.768-7.354-3.056-10.64l-.15-1.497c-.05-.374-.077-.619-.224-.891-.074-.136-.222-.317-.459-.38s-.443.016-.567.087c-.249.142-.377.305-.565.508-.261.282-.321.337-.555.399s-.706.087-1.578.087c-.545 0-.948-.026-1.311.008a1.28 1.28 0 0 0-.561.158c-.196.114-.369.357-.415.58-.092.447.05.781.235 1.299s.463 1.198.827 2.134c1.867 4.798 4.336 8.972 7.632 12.901 8.235 9.814 19.794 15.803 33.76 17.519.877.108 2.826.136 4.93.12s4.309-.082 5.575-.196c7.705-.695 16.378-3.696 22.762-7.876 7.351-4.814 13.505-11.696 17.018-19.052.616-1.29 1.316-2.987 1.868-4.46.276-.737.514-1.417.686-1.966s.291-.885.291-1.271c0-.284-.224-.539-.396-.633s-.329-.128-.514-.159c-.369-.06-.854-.078-1.534-.075-1.042.004-1.609-.041-1.815-.114-.103-.037-.119-.053-.162-.107s-.105-.171-.18-.37c-.099-.26-.204-.467-.364-.646a.9.9 0 0 0-.573-.298zm.172 1.881c.026.04.035.087.066.126a1.5 1.5 0 0 0 .667.47c.527.187 1.136.183 2.194.178.602-.002.99.022 1.241.056-.035.161-.052.28-.161.629-.162.519-.395 1.185-.666 1.908a58.98 58.98 0 0 1-1.83 4.37c-3.41 7.141-9.44 13.896-16.621 18.598-6.199 4.06-14.758 7.022-22.249 7.698-1.188.107-3.397.176-5.483.192s-4.103-.028-4.785-.112c-13.728-1.686-24.992-7.535-33.039-17.127-3.223-3.841-5.621-7.896-7.446-12.588l-.816-2.104c-.133-.372-.136-.483-.151-.546.217-.015.603-.003 1.148-.003.884 0 1.403-.004 1.861-.124.406-.106.708-.344.982-.62.043.332.087.792.141 1.411.305 3.472 1.546 7.792 3.169 11.042 1.42 2.844 2.828 4.763 5.228 7.13 1.831 1.806 2.745 2.47 4.728 3.435 3.185 1.55 4.849 2.017 7.822 2.194 3.084.183 4.475-.075 10.629-2.002 5.985-1.874 7.095-2.157 9.283-2.365 2.527-.241 4.663.179 10.661 2.144 6.741 2.208 8.188 2.543 10.93 2.548 10.578.018 19.577-9.635 22.038-23.303a58.08 58.08 0 0 0 .359-2.246c.061-.442.076-.695.101-.988z" paint-order="stroke fill markers"/><path d="M58.943 123.881c-13.847-1.701-25.259-7.62-33.4-17.323a44.48 44.48 0 0 1-7.539-12.744c-1.462-3.758-1.532-3.416.703-3.416 1.755 0 1.982-.059 2.543-.665.729-.787.775-.703.998 1.842.297 3.379 1.528 7.667 3.113 10.841 1.399 2.803 2.749 4.643 5.12 6.982 1.815 1.79 2.624 2.378 4.58 3.33 3.158 1.537 4.68 1.964 7.61 2.139 3.046.181 4.283-.053 10.429-1.978 5.989-1.875 7.178-2.177 9.397-2.388 2.62-.25 4.875.2 10.888 2.169 6.735 2.206 8.057 2.516 10.757 2.52 10.236.018 19.059-9.363 21.486-22.842.277-1.539.504-3.176.504-3.639 0-.981.416-1.11.75-.233.331.871.582.96 2.682.952 1.336-.005 1.882.084 1.882.307 0 .7-1.581 4.924-2.79 7.456-3.462 7.248-9.554 14.067-16.819 18.825-6.292 4.12-14.908 7.102-22.506 7.787-2.454.221-8.828.269-10.387.077z" paint-order="stroke fill markers"/></g><g fill="#646296"><path d="M45.197 63.213c-2.102-.076-3.703.238-5.702.863-5.322 1.666-8.33 4.217-11.077 9.381-2.519 4.735-3.45 9.291-3.125 15.209.265 4.838 1.355 8.924 3.49 13.072.954 1.853 1.75 2.905 3.582 4.742 2.483 2.489 4.299 3.632 7.334 4.609 1.503.483 2.36.572 4.56.469 2.32-.109 3.292-.326 7.574-1.717 7.086-2.302 8.081-2.515 12.004-2.517 3.942-.002 4.548.141 12.335 2.736 2.457.819 3.835 1.266 4.893 1.517s1.8.293 2.818.295c1.322.003 2.808-.152 3.75-.429 6.741-1.981 11.79-8.255 14.303-17.453.614-2.248.725-3.245.819-7.509.081-3.681.009-5.461-.31-7.305-.903-5.231-2.812-9.184-5.858-11.809s-7.176-3.87-12.342-3.862c-2.245.003-3.972.224-7.983 1.012l-4.99.981-6.38-.011c-6.393-.012-6.351-.006-10.863-.917-4.141-.836-6.729-1.281-8.83-1.357zm-.053 1.462c1.936.07 4.471.496 8.594 1.329 4.515.912 4.755.935 11.15.946l6.452.012a.73.73 0 0 0 .142-.014l5.06-.995c3.985-.783 5.551-.982 7.704-.985 4.933-.008 8.659 1.158 11.385 3.508s4.506 5.937 5.371 10.95c.298 1.726.369 3.372.289 7.024-.093 4.247-.168 4.964-.767 7.156-2.428 8.883-7.176 14.634-13.305 16.436-.65.191-2.145.372-3.335.37-.985-.002-1.53-.029-2.483-.256s-2.316-.664-4.769-1.482c-7.796-2.598-8.812-2.813-12.798-2.811s-5.353.282-12.455 2.589c-4.266 1.386-4.933 1.541-7.19 1.647-2.156.101-2.625.055-4.043-.401-2.892-.931-4.349-1.846-6.747-4.249-1.789-1.793-2.407-2.61-3.317-4.378-2.05-3.982-3.074-7.817-3.33-12.483-.314-5.729.548-9.915 2.957-14.443 2.641-4.964 5.14-7.081 10.223-8.672 1.924-.603 3.276-.868 5.213-.798zm37.708 13.391a5.2 5.2 0 0 0-1.264.083c-2.27.426-3.655 2.493-4.018 4.73s.228 4.777 2.057 6.429c.503.454.856.779 1.379.943s1.011.121 1.795.071c.699-.045 1.194-.097 1.657-.261s.833-.443 1.196-.788c1.376-1.308 2.065-2.925 2.071-4.847.006-2.012-.603-3.732-1.703-4.892a4.71 4.71 0 0 0-3.169-1.467zm-38.846.003a4.36 4.36 0 0 0-.941.142c-1.23.326-2.315 1.188-3.058 2.452-.608 1.034-.772 1.774-.772 3.555 0 1.851.167 2.52.87 3.649.492.79 1.179 1.555 1.918 1.948 1.337.712 3.149.782 4.462.103 1.963-1.015 2.939-3.138 2.942-5.955.002-2.227-.875-4.013-2.575-5.091-.903-.573-1.889-.842-2.844-.803zm38.769 1.448c.869.04 1.596.402 2.185 1.023.785.828 1.307 2.168 1.302 3.881-.005 1.603-.478 2.71-1.615 3.791-.302.287-.449.389-.678.471s-.6.138-1.261.18c-.774.049-1.107.042-1.264-.007s-.344-.187-.837-.633c-1.382-1.249-1.887-3.3-1.593-5.11s1.317-3.24 2.844-3.526c.322-.06.628-.083.917-.069zm-38.704.01c.643-.029 1.318.15 1.996.58 1.308.83 1.897 1.977 1.896 3.855-.002 2.507-.723 3.919-2.151 4.657-.658.34-2.323.32-3.102-.095-.235-.125-1.018-.874-1.364-1.43-.658-1.057-.649-1.067-.649-2.876 0-1.728.026-1.887.57-2.814.578-.983 1.349-1.562 2.172-1.78a2.99 2.99 0 0 1 .631-.097zm19.266 7.4c-.674.006-1.23.277-1.979.675a6.75 6.75 0 0 1-.927.401c-.297.102-.589.147-.579.147-.776.002-1.489.135-2.093.401s-1.125.675-1.376 1.28c-.493 1.191-.195 2.589.828 3.336.387.283.767.334 1.215.386s.955.06 1.484.033c1.057-.054 2.179-.231 3.03-.592.403-.171.559-.21.646-.21s.247.039.655.209c.705.294 1.846.504 2.847.588.836.07 1.3.142 1.826-.011s.836-.526 1.187-.943c.302-.359.531-.675.663-1.059s.121-.791.048-1.166c-.116-.593-.389-1.161-.885-1.521s-1.095-.506-1.869-.618c-.515-.074-1.738-.419-2.498-.724-.946-.379-1.549-.617-2.223-.611zm.013 1.463c.285-.002.741.135 1.666.506.888.356 2.065.704 2.834.814.681.098 1.055.235 1.217.353s.232.223.31.62c.047.239.04.307.004.411s-.143.287-.398.591c-.346.412-.398.457-.477.48s-.462.028-1.295-.041c-.855-.072-2.077-.343-2.406-.48-.441-.184-.795-.323-1.22-.322s-.778.14-1.216.326c-.555.235-1.604.431-2.533.478-.465.024-.905.014-1.24-.025s-.573-.153-.522-.115c-.389-.284-.589-.992-.339-1.595.055-.134.241-.337.613-.501s.903-.275 1.507-.277c.372-.001.677-.098 1.05-.226s.772-.298 1.14-.493c.718-.382 1.02-.502 1.305-.504z" paint-order="stroke fill markers"/><path d="M76.401 109.367c-7.792-2.596-8.602-2.775-12.567-2.773-3.954.002-5.135.249-12.229 2.553-4.274 1.388-5.093 1.575-7.382 1.682-2.178.102-2.841.035-4.301-.435-2.964-.954-4.6-1.983-7.04-4.429-1.811-1.815-2.517-2.749-3.449-4.56-2.093-4.065-3.149-8.026-3.41-12.778-.319-5.824.577-10.195 3.041-14.826 2.694-5.064 5.447-7.398 10.65-9.027 3.924-1.228 5.907-1.157 14.169.512 4.513.912 4.612.92 11.007.932l6.452.012 5.06-.994c3.998-.786 5.645-.995 7.844-.999 10.099-.016 15.711 4.821 17.478 15.065.308 1.785.379 3.498.299 7.164-.094 4.255-.186 5.112-.793 7.332-2.471 9.041-7.369 15.053-13.804 16.945-.796.234-2.286.402-3.542.399-2.003-.004-2.572-.139-7.482-1.775zM62.655 92.32c.84-.356 1.02-.356 1.868-.002.516.216 1.698.456 2.626.534 1.669.14 1.695.132 2.392-.696.558-.663.673-.999.552-1.614-.194-.99-.685-1.347-2.141-1.556-.642-.093-1.842-.439-2.666-.769-1.871-.75-2.12-.748-3.586.031-.654.348-1.486.633-1.848.634-1.381.003-2.488.49-2.794 1.229-.371.897-.122 1.95.584 2.466.671.49 3.606.34 5.012-.256zm-16.508-3.051c1.696-.877 2.544-2.644 2.546-5.306.002-2.052-.731-3.519-2.235-4.473-2.109-1.337-4.501-.703-5.822 1.544-.576.98-.671 1.43-.671 3.184 0 1.83.079 2.17.759 3.263.419.673 1.154 1.43 1.641 1.689 1.058.563 2.796.609 3.782.099zm39.002-.527c1.257-1.194 1.838-2.556 1.843-4.319.011-3.725-2.261-6.12-5.27-5.556-3.797.712-4.817 6.997-1.606 9.897.996.9 1.08.926 2.638.827 1.36-.087 1.731-.218 2.396-.85z" paint-order="stroke fill markers"/></g><g fill="#f7e7f1"><path d="M15.86 83.845c-.067.016-.105.041-.129.051.024-.01-.109-.015.006.011l-.062-.014a.73.73 0 0 0-.887.816l.011.077.147.923.276 1.563c.074.336.069.548.371.85.089.089.281.225.522.24a.83.83 0 0 0 .523-.149c.203-.139.261-.237.371-.374.227-.281.412-.335.291-.313a1.05 1.05 0 0 0 .177-.048.8.8 0 0 0 .12-.054c.054-.029.135-.026.283-.266h0c.182-.294.116-.444.101-.535a.86.86 0 0 0-.056-.196 1.3 1.3 0 0 0-.14-.259c-.119-.175-.117-.145-.183-.217l-.233-.245-.338-.371a2.78 2.78 0 0 1-.212-.392c-.005-.013-.05-.297-.05-.292 0-.05.047-.044-.044-.311-.046-.133-.281-.436-.562-.49-.141-.027-.237-.02-.304-.005zm1.169 2.244c-.026.005-.045.017-.07.023.047-.019.055-.02.07-.023z" paint-order="stroke fill markers"/><path d="M16.111 87.605c-.113-.113-.203-.523-.442-2.012l-.145-.91-.011-.077.061.014a.81.81 0 0 0 .437-.049c.025-.01.028-.001.028.081 0 .139.041.386.088.524.059.175.198.435.321.598.058.077.237.276.398.442l.335.364c.057.084.092.171.078.194-.006.01-.049.026-.094.034-.206.039-.449.231-.724.572-.199.247-.264.291-.33.226z" paint-order="stroke fill markers"/></g><g fill="#f7e7f1"><path d="M22.362 80.694c-.101-.011-.158-.002-.201.005-.086.014-.12.029-.148.04-.057.022-.08.035-.103.047a1.2 1.2 0 0 0-.11.067c-.034-.035-.071-.075-.378-.071a.77.77 0 0 0-.404.125c-.144.096-.238.242-.278.343-.081.203-.055.263-.055.297 0-.168.006-.07-.009-.022a1.34 1.34 0 0 1-.044.118c-.026.052-.065.117-.375.282l-.32.187c-.096.063-.156.069-.314.271a.8.8 0 0 0-.146.269c-.044.137-.055.358.02.54.15.363.381.417.494.461.244.094.32.147.435.267s.127.138.196.282c.096.2.117.296.103.638-.023.556-.044.559-.153.66-.071.067-.106.093-.342.221-.171.093-.298.164-.435.273-.068.055-.144.118-.226.244s-.163.362-.119.592c.058.301.19.378.255.434s.108.08.146.101c.076.043.135.068.203.096.226.092.201.077.341.209.236.222.35.494.329.898l-.01.208a.73.73 0 0 0 .98.724l.106-.039c-.001 0-.054-.01.031.016.011.003.034.05.279.035.122-.008.326-.072.463-.201a.73.73 0 0 0 .209-.355c.088-.339.022-.282.018-.34-.038-.485-.075-2.105-.063-2.967l.225-3.771.033-.266.01-.097.003-.055c.001-.013.001-.027 0-.064-.001-.018-.001-.041-.009-.092-.004-.026-.009-.059-.029-.116-.01-.029-.047-.109-.048-.109s-.128-.173-.128-.173-.126-.101-.126-.101-.083-.047-.121-.062a.71.71 0 0 0-.188-.047zm.25 1.374c-.021.012-.032.019-.081.038.014-.011.057-.022.081-.038zm-1.397.142c.016.007.051.013.073.021-.104-.014-.102-.035-.073-.021zm-.698.078c.011.004.065.016.131.066l-.131-.066z" paint-order="stroke fill markers"/><path d="M21.457 88.606c.03-.587-.165-1.098-.559-1.468a1.55 1.55 0 0 0-.565-.353c-.106-.043-.16-.074-.163-.093-.013-.069.098-.158.41-.328.255-.139.372-.217.493-.33.259-.243.357-.54.384-1.163.017-.412-.031-.685-.174-.984-.092-.193-.178-.316-.328-.473-.187-.195-.391-.324-.7-.443-.091-.035-.106-.072-.056-.136.041-.052.199-.156.404-.265.373-.199.575-.376.687-.605.062-.126.127-.341.127-.418 0-.046.008-.046.105-.001.067.031.103.035.267.035a.57.57 0 0 0 .415-.119c.039-.026.074-.045.077-.041s-.015.166-.04.361c-.145 1.093-.207 2.13-.232 3.857l.065 3.034c.009.116.009.117-.027.106-.189-.057-.342-.058-.493-.003l-.106.038z" paint-order="stroke fill markers"/></g><g fill="#f7e7f1"><path d="M106.294 83.333a.81.81 0 0 0-.553.125c-.19.135-.252.298-.279.386s-.029.133-.032.168c-.012.139-.002.155.001.242l.008 2.063-.036.965-.004.047a.73.73 0 0 0 1.012.738l.014-.006.062.029.036.016.032.013c.016.006-.023.018.169.042l.301-.023a743.83 743.83 0 0 0 .205-.097 1.76 1.76 0 0 0 .114-.095c.028-.028.047-.053.063-.074.063-.085.075-.124.088-.154.026-.061.029-.082.035-.102l.017-.079.019-.122c.022-.178.118-.448.188-.562a1.15 1.15 0 0 1 .283-.285c.095-.042.006-.024.258-.037l.292-.022c.049-.007.102-.003.247-.069.072-.033.18-.092.281-.221s.157-.325.157-.457c0-.445-.184-.493-.241-.546s-.089-.072-.117-.09c-.056-.036-.094-.056-.139-.079l-.335-.156c-.319-.142-.37-.168-.507-.259-.165-.11-.209-.162-.265-.258a.99.99 0 0 1-.09-.296l-.02-.153h0l-.005-.035a.73.73 0 0 0-1.047-.549l-.07.034c-.02-.01-.045-.025-.141-.042zm-.403 1.396c.076.032.148.024.223.043-.021-.001-.053.004-.069.001-.11-.019-.143-.04-.154-.045z" paint-order="stroke fill markers"/><path d="M106.734 87.398c-.174-.084-.398-.093-.566-.023l-.041.017.004-.047.039-1.009-.009-2.112c-.007-.172-.006-.178.014-.169.17.072.404.063.577-.023l.075-.037.005.036.018.136c.026.209.093.419.185.576.114.194.263.346.492.498.166.111.286.172.615.318.265.118.397.185.397.203s-.042.026-.285.039c-.274.015-.363.032-.514.099-.219.097-.455.318-.611.571-.142.231-.254.56-.291.853a.51.51 0 0 1-.021.114c-.004 0-.042-.018-.085-.039z" paint-order="stroke fill markers"/></g><g fill="#f7e7f1"><path d="M112.93 78.89c0 0-.133.011-.172.021s-.065.018-.086.026c-.042.016-.064.027-.082.036l-.065.038-.057.04-.052.041-.014-.002a.73.73 0 0 0-.853.721v.232c0 .238.017.132-.041.305-.047.14-.112.247-.222.358-.174.175-.106.126-.599.361l-.263.128-.091.046-.044.024-.044.027c-.012.008-.026.017-.057.041-.015.012-.035.027-.066.059-.016.016-.058.067-.058.067a790.86 790.86 0 0 0-.087.144 1683.29 1683.29 0 0 0-.066.315 1037.37 1037.37 0 0 0 .042.231c0 0 .064.135.064.135a1.76 1.76 0 0 0 .055.079c.065.081.098.101.122.121.05.039.067.047.083.057l.062.034.095.045.255.112.244.107.089.041a1 1 0 0 1 .518.721c.014.067.009.007.009.187 0 .22.009.16-.052.345-.151.455-.23.533-.926.716l-.48.106-.288.062-.11.028-.075.024c-.019.007-.041.014-.092.041-.025.013-.057.029-.113.073a.69.69 0 0 0-.105.1c-.021.025-.069.095-.069.095a560.2 560.2 0 0 0-.07.15c-.057.172-.028.471.087.642a.67.67 0 0 0 .306.26c.146.067.193.06.236.066.085.01.123.009.175.009l.8.029c.257.027.237.014.423.236l.307.385.183.23.067.081.038.042c.009.009.018.02.045.044.013.012.029.027.071.057.021.015.048.034.101.06a1.88 1.88 0 0 0 .11.044c0 0 .1.015.16.024s.205.014.362-.058c.335-.153.369-.367.391-.432.045-.13.036-.134.046-.191l.127-.749.224-1.599.234-4.704.003-.275-.001-.101-.004-.063c-.001-.016-.002-.032-.012-.085-.005-.026-.008-.058-.045-.143-.009-.021-.039-.078-.039-.078a545.39 545.39 0 0 0-.083-.116c0 0-.191-.155-.191-.155s-.36-.095-.36-.095zm-.796 3z" paint-order="stroke fill markers"/><path d="M112.078 86.703l-.323-.405c-.265-.315-.514-.45-.905-.492-.113-.012-.665-.033-.876-.034-.084 0-.114-.004-.111-.013s.16-.045.373-.088l.521-.115c.819-.216 1.22-.549 1.434-1.193.073-.22.089-.325.089-.576 0-.19-.004-.241-.025-.341a1.78 1.78 0 0 0-.861-1.197c-.045-.027-.234-.113-.419-.191l-.333-.152c.002-.005.164-.085.36-.179.504-.24.6-.3.804-.506.185-.186.316-.398.397-.642.067-.202.078-.277.078-.536v-.233l.043.007a.89.89 0 0 0 .266-.006.68.68 0 0 0 .264-.134c.037-.031.07-.056.075-.056s.005.165.001.366l-.231 4.649-.218 1.549-.151.827c-.005 0-.119-.14-.253-.31z" paint-order="stroke fill markers"/></g><path d="M57.73 92.481c-.566-.397-.922-1.491-.685-2.11.344-.899.929-1.226 2.331-1.305 1.235-.069 2.189-.389 2.872-.963.671-.564 1.17-.53 2.753.184.988.446 1.968.735 2.657.784 1.728.123 2.351.631 2.351 1.919 0 .432-.188.813-.606 1.232-.596.596-.634.605-2.239.517-1.089-.059-1.957-.234-2.607-.524l-.975-.435-1.248.499c-1.49.596-3.889.7-4.603.2zm-15.202-3.344c-.999-.523-2.045-1.92-2.389-3.191-.123-.455-.183-1.467-.133-2.249.283-4.458 4.596-6.423 7.311-3.331 1.014 1.155 1.278 1.951 1.279 3.857.001 2.32-.679 3.717-2.366 4.862-1.001.679-2.464.7-3.701.052zm38.526.176c-2.293-1.027-3.522-4.919-2.36-7.478 1.174-2.586 3.408-3.621 5.565-2.577 2.038.987 3.19 4.166 2.46 6.791-.312 1.122-1.397 2.593-2.282 3.091-.917.517-2.44.595-3.383.173z" fill="#75e5eb"/><g fill="#ccc1ef"><path d="M13.297 3.326c-.943.032-1.8.138-2.465.417-1.375.576-2.428 1.865-3.223 3.681s-1.353 4.198-1.701 7.144c-.362 3.067-.29 12.727.099 17.411.685 8.266 1.619 15.287 3.354 25.234l1.307 7.239.489 2.542.165.796c.045.205.063.308.116.462.034.098.07.195.15.316s.236.316.548.374.593-.102.717-.22a1.11 1.11 0 0 0 .234-.315c.215-.397.356-.9.589-1.755 1.336-4.893 4.339-10.929 7.587-15.23 3.809-5.046 7.519-8.486 13.412-12.428a39 39 0 0 0 1.386-.966 10.24 10.24 0 0 0 .446-.343 2.23 2.23 0 0 0 .163-.145c.027-.027.056-.055.097-.111s.157-.087.156-.46c-.001-.276-.066-.372-.124-.508a4.77 4.77 0 0 0-.22-.435c-.177-.318-.42-.707-.72-1.163-.6-.912-1.428-2.085-2.372-3.369-1.888-2.568-4.234-5.572-6.111-7.746-2.404-2.784-9.141-9.472-11.67-11.575-1.535-1.277-2.355-2.05-2.624-2.466-.135-.208-.141-.28-.136-.369s.051-.251.189-.518c.273-.528.524-.68 1.071-.68.094 0 1.024.375 2.403 1.494s3.299 2.896 5.893 5.444c6.23 6.119 10.655 11.362 15.12 17.91l1.729 2.535a.73.73 0 0 0 .878.266l2.099-.848c1.137-.46 3.071-1.19 4.26-1.609.611-.215 1.166-.423 1.577-.589.206-.083.375-.154.509-.218.067-.032.124-.059.192-.099.034-.02.069-.04.131-.093.031-.026.069-.059.123-.131s.15-.201.146-.452h0c-.004-.292-.067-.304-.092-.352a1.09 1.09 0 0 0-.064-.108 3.13 3.13 0 0 0-.13-.179 16.21 16.21 0 0 0-.399-.493c-.335-.401-.806-.946-1.37-1.588l-4.129-4.584c-3.651-3.968-10.508-10.671-13.227-12.913-5.308-4.375-10.107-7.219-13.761-7.996-.853-.181-1.854-.243-2.797-.21zm.05 1.462c.839-.029 1.758.034 2.443.179 3.182.677 7.925 3.399 13.134 7.694 2.54 2.094 9.495 8.876 13.082 12.775l4.106 4.559 1.275 1.478a38.27 38.27 0 0 1-1.285.48 122.86 122.86 0 0 0-4.322 1.632l-1.553.628-1.397-2.048c-4.514-6.62-9.022-11.96-15.303-18.13-2.609-2.562-4.546-4.359-5.996-5.536s-2.324-1.821-3.325-1.821-1.904.569-2.371 1.471c-.177.343-.33.698-.351 1.119s.122.854.37 1.236c.494.763 1.366 1.505 2.917 2.795 2.33 1.938 9.227 8.776 11.499 11.407 1.835 2.125 4.172 5.116 6.04 7.656.934 1.27 1.752 2.43 2.329 3.307.288.438.517.807.664 1.071.005.009.006.012.011.021-.045.034-.067.053-.119.092-.335.247-.81.579-1.331.928-5.986 4.004-9.873 7.606-13.766 12.762-3.276 4.34-6.227 10.212-7.682 15.242l-.308-1.6-1.304-7.221c-1.731-9.919-2.656-16.878-3.337-25.103-.375-4.526-.418-14.457-.104-17.119.337-2.855.882-5.115 1.588-6.729s1.552-2.542 2.448-2.918c.322-.135 1.11-.276 1.95-.304z" paint-order="stroke fill markers"/><path d="M12.129 68.015c-.146-.426-1.152-5.793-2.048-10.928-1.733-9.933-2.662-16.923-3.346-25.168-.382-4.605-.439-14.401-.101-17.265.684-5.801 2.208-9.284 4.48-10.236.987-.414 3.289-.493 4.827-.166 3.418.727 8.189 3.51 13.447 7.845 2.63 2.168 9.536 8.911 13.155 12.844 2.994 3.254 5.989 6.663 5.992 6.819.001.06-.985.457-2.19.882a122.83 122.83 0 0 0-4.291 1.62l-2.099.848-1.729-2.535c-4.489-6.584-8.956-11.876-15.212-18.02-5.203-5.11-7.714-7.148-8.809-7.148-.774 0-1.351.361-1.721 1.075-.632 1.221-.331 1.685 2.754 4.251 2.429 2.021 9.247 8.783 11.585 11.491 3.711 4.298 9.366 11.99 9.369 12.744 0 .072-.865.709-1.923 1.417-5.939 3.973-9.738 7.494-13.589 12.595-3.314 4.389-6.34 10.466-7.708 15.478-.459 1.683-.666 2.065-.841 1.555z" paint-order="stroke fill markers"/></g><g fill="#ccc1ef"><path d="M114.939 3.365c-1.052.026-2.204.215-3.291.566-3.939 1.274-8.489 4.176-14.201 8.971-2.439 2.048-6.986 6.541-10.904 10.612-1.959 2.035-3.754 3.959-5.038 5.413-.642.727-1.155 1.333-1.507 1.794a5.59 5.59 0 0 0-.416.601 1.3 1.3 0 0 0-.141.316.8.8 0 0 0-.036.296.81.81 0 0 0 .244.524c.144.134.169.124.222.152s.106.054.168.082a12.82 12.82 0 0 0 .458.198c.362.15.832.333 1.331.519l3.991 1.543a25.23 25.23 0 0 0 1.653.601c.225.071.414.125.581.161a1.63 1.63 0 0 0 .26.04c.051.003.108.007.204-.008s.271-.026.47-.257c.077-.09.068-.088.107-.141l.149-.211.489-.703 1.507-2.193c3.404-4.978 6.507-8.796 11.296-13.895 1.864-1.985 4.314-4.353 6.462-6.298 1.074-.972 2.073-1.84 2.882-2.498s1.484-1.124 1.664-1.209c.472-.224.899-.196 1.222-.034s.556.45.618.914c.05.376.096.311-.186.664s-.971.973-2.243 2.04c-4.167 3.495-10.564 10.004-14.099 14.343-1.37 1.682-3.227 4.159-4.749 6.281-.761 1.061-1.437 2.032-1.928 2.774-.245.371-.444.683-.59.933a4.46 4.46 0 0 0-.182.337c-.05.105-.131.115-.122.484.011.427.138.418.18.47s.072.078.101.106a2.92 2.92 0 0 0 .186.157 14.54 14.54 0 0 0 .546.407 56.7 56.7 0 0 0 1.721 1.176c6.054 3.993 10.542 8.425 14.424 14.238 2.679 4.012 4.42 7.872 6.406 14.245a1.06 1.06 0 0 0 .347.527c.189.152.48.233.729.189.498-.088.726-.465.831-.813.171-.567.409-1.845.747-3.736l1.174-6.928 2.224-14.723c1.31-10.041 1.445-11.935 1.448-20.401.003-8.227-.047-8.754-1.04-12.531-.755-2.872-1.855-4.676-3.627-5.613-.747-.395-1.692-.506-2.744-.48zm.036 1.462c.901-.022 1.676.127 2.025.312 1.323.699 2.189 2.002 2.896 4.691.989 3.763.995 3.935.992 12.159-.004 8.452-.127 10.182-1.436 20.212-.468 3.587-1.37 9.479-2.217 14.677l-1.17 6.907c-.184 1.032-.259 1.321-.389 1.96-1.793-5.433-3.522-9.192-6.016-12.927-3.981-5.961-8.642-10.562-14.835-14.647-.654-.432-1.25-.84-1.675-1.144-.095-.068-.142-.105-.218-.162a19.92 19.92 0 0 1 .465-.735c.474-.716 1.143-1.677 1.897-2.729 1.508-2.102 3.36-4.571 4.694-6.21 3.44-4.222 9.86-10.753 13.905-14.146 1.281-1.074 1.994-1.682 2.446-2.248a2.36 2.36 0 0 0 .493-1.77c-.121-.91-.671-1.656-1.413-2.028s-1.663-.379-2.504.02c-.517.245-1.122.714-1.96 1.397s-1.852 1.563-2.94 2.548c-2.175 1.97-4.642 4.353-6.547 6.381-4.823 5.135-7.996 9.038-11.438 14.071l-1.503 2.187-.423.609c-.069-.02-.106-.027-.191-.054a24.1 24.1 0 0 1-1.553-.565l-4.023-1.555c-.438-.163-.833-.318-1.16-.452a35.15 35.15 0 0 1 1.423-1.692c1.26-1.426 3.046-3.342 4.995-5.367 3.898-4.05 8.476-8.562 10.791-10.506 5.64-4.735 10.08-7.525 13.71-8.7.943-.305 1.977-.474 2.878-.496z" paint-order="stroke fill markers"/><path d="M115.549 67.657c-1.998-6.408-3.778-10.362-6.496-14.433-3.931-5.887-8.506-10.403-14.629-14.442-1.322-.872-2.405-1.648-2.407-1.724-.011-.436 4.701-7.007 7.406-10.327 3.487-4.281 9.896-10.8 14.002-14.244 2.553-2.141 2.804-2.456 2.683-3.361-.183-1.374-1.565-2.067-2.878-1.444-1.393.661-7.459 6.153-11.227 10.165-4.806 5.117-7.944 8.977-11.367 13.983l-2.203 3.185c-.068.079-1.121-.255-2.341-.741l-4.007-1.549c-.984-.365-1.855-.726-1.935-.801-.481-.449 13.015-14.47 17.769-18.461 5.675-4.765 10.171-7.611 13.955-8.835 2.03-.657 4.373-.715 5.469-.135 1.548.818 2.531 2.371 3.262 5.152.991 3.77 1.02 4.119 1.016 12.345-.004 8.459-.132 10.271-1.442 20.307-.941 7.209-3.608 23.566-4.12 25.272-.109.363-.407.415-.509.089z" paint-order="stroke fill markers"/></g><g fill="#f7e7f1"><path d="M66.666 33.186c-3.597-.06-8.6.102-10.641.406A53.59 53.59 0 0 0 45.337 36.4c-.559.217-.894.34-1.207.571-.157.116-.322.289-.41.51s-.085.434-.068.583c.044.396.185.797.385 1.377s.463 1.274.748 1.984c.57 1.421 1.206 2.875 1.658 3.654 1.258 2.164 2.413 3.289 4.042 3.787 1.65.506 4.643.931 7.698 1.133 2.866.189 8.807.094 11.564-.187 2.6-.265 4.948-.77 6.312-1.451 2.208-1.102 4.048-4.281 5.473-8.574.229-.689.404-1.214.512-1.667s.171-.869.02-1.307-.521-.744-.886-.93-.775-.318-1.301-.495c-2.277-.765-7.311-1.772-10.245-2.064-.724-.072-1.767-.117-2.966-.137zm.001 1.477c1.18.015 2.181.052 2.82.115 2.76.276 7.914 1.32 9.925 1.996.525.176.904.311 1.103.412s.167.103.166.101.023.147-.06.493-.249.857-.478 1.546c-1.366 4.115-3.342 7.029-4.738 7.727-.986.492-3.318 1.051-5.807 1.305-2.572.262-8.626.36-11.319.182-2.977-.197-5.985-.649-7.366-1.072-1.263-.387-2.022-1.088-3.205-3.124-.344-.592-1.009-2.076-1.565-3.463-.278-.693-.534-1.371-.724-1.918-.158-.457-.228-.743-.262-.885.106-.056.27-.144.71-.315 3.005-1.167 7.046-2.228 10.374-2.724 1.745-.26 6.887-.42 10.427-.376z" paint-order="stroke fill markers"/><path d="M58.231 49.269c-3.016-.199-6.016-.638-7.532-1.103-1.446-.443-2.403-1.356-3.624-3.456-.797-1.371-2.602-5.875-2.697-6.728-.039-.354.126-.475 1.224-.902 3.071-1.192 7.138-2.261 10.531-2.766 2.524-.376 10.701-.537 13.427-.265 2.847.284 7.941 1.31 10.085 2.03 2.103.706 2.107.719 1.193 3.476-1.395 4.204-3.303 7.251-5.105 8.15-1.175.587-3.515 1.119-6.06 1.378-2.664.271-8.662.368-11.442.184z" paint-order="stroke fill markers"/></g><path d="M58.864 127.777c-4.012-.367-9.677-1.587-13.378-2.879-2.996-1.047-9.264-4.178-11.896-5.942-7.822-5.245-13.509-11.675-17.478-19.76-2.286-4.657-3.801-9.6-4.315-14.077-.075-.657-.355-2.074-.622-3.149-2.039-8.213-5.156-24.552-6.633-34.762C2.006 29.66 1.795 15.142 3.974 8.021 4.992 4.694 6.944 2.523 9.268 1.09 10.561.293 12.013.064 13.482.007c1.58-.062 3.45.286 4.627.824 5.786 2.642 13.331 7.164 21.75 15.62 3.675 3.692 7.618 8.025 10.747 11.814l2.188 2.65.796-.116c7.618-1.112 13.756-1.155 19.874-.139l2.151.357 1.525-1.802C83.698 21.468 91.827 13.3 97.433 8.825c3.437-2.743 6.555-4.817 9.293-6.179 3.658-1.82 5.011-2.229 7.787-2.353 1.922-.086 2.39-.041 3.535.34 4.042 1.345 6.229 5.179 7.207 12.63.467 3.561.294 16.174-.298 21.706-1.397 13.048-3.47 25.728-6.784 41.493l-1.896 9.552c-1.34 8.565-5.214 16.795-11.154 23.694-7.001 8.132-17.056 14.177-27.751 16.685-6.247 1.465-12.507 1.933-18.508 1.383zm12.736-4.048c11.546-1.804 21.2-6.67 28.871-14.552 5.098-5.239 8.51-10.922 10.711-17.842.735-2.311.747-2.419.233-2.144-.212.113-1.111.206-1.999.206-1.448 0-1.664-.05-2.103-.488-.975-.975-.385-3.083.869-3.101.516-.008.511-.017-.144-.302-.887-.385-1.2-.826-1.207-1.704-.008-.861.631-1.766 1.252-1.774.424-.006.425-.011.035-.226-1.214-.671-1.636-1.742-1.089-2.764.498-.931 2.931-1.328 4.18-.682 1.402.725 1.444 2.577.072 3.231l-.678.323.585.246c.857.36 1.293 1.307 1.005 2.18-.246.745-.705 1.078-1.787 1.294l-.697.139.831.023c.68.019.92.136 1.316.642l.485.619.245-1.465c.365-2.176.497-9.182.217-11.477-1.164-9.54-5.401-18.255-12.343-25.386-2.856-2.934-4.688-4.461-8.066-6.724-2.571-1.722-6.711-3.869-7.054-3.657-.116.071-.21.271-.21.443 0 .539-1.205 3.863-2.086 5.754-1.897 4.07-4.034 6.275-7.075 7.303-2.799.945-6.573 1.339-12.858 1.341-5.206.002-8.454-.225-11.414-.799-3.158-.612-4.067-1.047-5.786-2.771-1.28-1.284-1.686-1.872-2.693-3.9-.652-1.313-1.496-3.306-1.874-4.428s-.768-2.04-.865-2.04c-.345 0-3.703 2.022-5.829 3.509-6.688 4.68-11.501 10.227-15.099 17.401-2.046 4.08-3.179 7.711-4.001 12.821-.483 3.002-.483 8.932-.001 11.94.49 3.053.472 3.009.955 2.395.218-.277.531-.504.695-.504.183 0 .024-.258-.412-.67-.896-.845-.982-1.863-.222-2.622.269-.269.588-.488.711-.488s-.098-.302-.488-.67c-.527-.497-.711-.835-.711-1.307 0-1.458.956-2.084 3.006-1.968 1.686.095 2.368.606 2.368 1.775 0 1.038-.154 1.341-.87 1.713-.434.225-.532.351-.324.416.694.216 1.194.908 1.194 1.653 0 1.038-.154 1.341-.87 1.713-.434.225-.532.351-.324.416.694.216 1.194.908 1.194 1.653 0 1.022-.154 1.341-.81 1.681-.762.394-3.142.388-3.709-.01l-.429-.3.38 1.33c.901 3.151 3.192 8.066 5.194 11.141 3.467 5.327 8.443 10.229 14.194 13.983 2.056 1.342 6.9 3.776 9.281 4.663 3.791 1.412 8.227 2.474 12.616 3.021 2.913.363 10.558.248 13.433-.201zm10.704-8.687c-1.803-.209-4.706-1.047-9.461-2.73-4.663-1.651-6.846-2.087-9.8-1.958-2.652.116-4.047.456-10.305 2.514-2.329.766-4.959 1.53-5.843 1.698-3.764.714-7.363.183-11.21-1.655-2.608-1.246-3.732-2.086-6.075-4.54-4.868-5.098-7.583-12.982-7.596-22.058-.006-3.787.271-5.762 1.253-8.955 1.383-4.496 3.711-8.449 6.738-11.443 2.595-2.566 4.946-3.887 8.997-5.054 4.112-1.185 7.17-1.109 14.49.362 5.564 1.118 7.196 1.305 11.399 1.307 4.126.002 6.11-.209 11.186-1.187 5.515-1.063 5.197-1.024 8.222-1.015 4.786.014 9.309 1.111 12.509 3.034 1.292.777 3.416 2.791 4.58 4.345 3.347 4.466 5.305 13.139 4.666 20.663-.982 11.558-6.419 20.944-14.462 24.968-2.887 1.444-6.236 2.059-9.29 1.705zm5.374-4.181c6.448-1.974 11.39-8.06 13.629-16.787.886-3.451 1.039-4.765 1.022-8.756-.024-5.605-.767-9.242-2.698-13.219-.857-1.766-1.248-2.315-2.629-3.688-2.555-2.542-5.538-3.748-10.584-4.279-2.76-.29-4.779-.097-10.142.969-5.057 1.006-6.994 1.211-11.425 1.211-4.161 0-6.728-.297-11.935-1.381-6.519-1.357-8.961-1.477-12.367-.608-1.681.429-4.051 1.364-5.273 2.08-3.792 2.222-7.066 7.183-8.781 13.303-.44 1.571-.527 2.356-.614 5.565-.115 4.242.098 6.475.935 9.8 2.195 8.713 7.175 14.216 14.335 15.839 1.306.296 3.955.238 5.512-.12.745-.171 3.236-.932 5.536-1.691 6.63-2.187 7.973-2.472 11.639-2.472 2.829 0 3.283.053 5.473.631 1.313.347 3.418 1.001 4.677 1.453 4.361 1.567 6.898 2.36 8.173 2.553 1.697.258 3.875.098 5.517-.405zm-74.98-43.006c.613-2.957 2.64-7.992 4.767-11.842 1.394-2.523 4.093-6.213 6.476-8.853 3.109-3.444 7.133-6.694 12.172-9.829.349-.217.348-.249-.019-.896-1.424-2.508-5.315-7.757-8.689-11.719-3.051-3.583-8.926-9.469-11.817-11.841-2.802-2.298-3.051-2.544-3.208-3.168-.266-1.06.741-2.302 1.865-2.302.976 0 5.376 3.775 10.601 9.097 5.441 5.541 9.853 10.922 13.508 16.476l1.499 2.249c.032.033 1.132-.392 2.445-.944a66.76 66.76 0 0 1 4.395-1.652c1.104-.356 2.011-.702 2.014-.769.021-.414-7.227-8.42-11.329-12.516-6.802-6.79-11.319-10.464-15.955-12.974-3.519-1.906-5.145-2.425-7.635-2.438-2.227-.012-3.181.33-4.329 1.55C5.71 9.47 5.203 23.596 8.04 45.019c.84 6.339 3.992 24.078 4.279 24.079.067 0 .238-.559.38-1.243zm104.251-4.428c2.322-12.793 3.949-24.427 4.632-33.135.324-4.126.317-13.866-.012-16.418-.314-2.439-1.038-5.352-1.673-6.741-1.037-2.265-2.519-3.227-4.913-3.189-4.447.071-10.996 3.888-19.133 11.152-4.089 3.65-15.09 15.162-15.938 16.678-.109.194.408.454 1.989 1 1.175.406 3.112 1.152 4.304 1.657 2.116.898 2.175.91 2.451.529.156-.215.961-1.42 1.789-2.679 4.371-6.644 11.465-14.755 17.966-20.542 4.166-3.709 4.876-4.225 5.803-4.225 1.044 0 1.843.78 1.843 1.8 0 .802-.211 1.032-3.178 3.464-2.29 1.878-8.334 7.846-10.982 10.846-3.037 3.44-5.893 7.116-8.248 10.617l-1.931 2.871 2.727 1.788c6.629 4.347 11.674 9.584 15.892 16.496 1.896 3.107 4.24 8.84 5.276 12.905l.228.896.156-.697c.086-.383.514-2.667.951-5.075zM69.809 49.176c2.513-.246 5.085-.818 6.171-1.372 1.054-.538 2.407-2.275 3.484-4.477.933-1.906 2.061-5.135 2.139-6.122.044-.556-.027-.622-1.048-.976-2.135-.741-5.514-1.523-8.557-1.982-2.623-.395-3.829-.463-8.06-.456-5.25.01-8.581.359-12.338 1.295-2.925.729-7.463 2.293-7.463 2.572 0 .397 1.681 4.96 2.225 6.038.824 1.634 2.022 3.378 2.673 3.89 2.011 1.582 12.581 2.39 20.774 1.588z"/></svg>