<svg xmlns="http://www.w3.org/2000/svg" width="128" height="128" viewBox="0 0 33.867 33.867" xmlns:v="https://vecta.io/nano"><defs><linearGradient id="A" x1="19.49" y1="13.88" x2="9.601" y2="3.456" gradientUnits="userSpaceOnUse"><stop stop-color="#39a5ff"/><stop offset="1" stop-color="#1c84ff"/></linearGradient><linearGradient id="B" x1="15.31" y1="12.111" x2="15.31" y2="29.118" gradientUnits="userSpaceOnUse"><stop stop-color="#67b5ff"/><stop offset="1" stop-color="#66c2ff"/></linearGradient></defs><g clip-path="none" fill-rule="evenodd" transform="matrix(1.150159 0 0 1.150159 .000058 .188888)"><path d="M1.397 16.73a3.588 3.588 0 0 0 2.707-1.029L11.78 8.11a2.698 2.698 0 0 1 2.917-.573c1 .41 1.652 1.375 1.652 2.445v7.18l6.358-6.29a7.185 7.185 0 0 1 5.507-2.053l.036.002C25.335 2.102 17.835-1.437 10.72.55S-.913 9.434.156 16.668z" fill="url(#A)"/><path d="M27.986 12.34a3.586 3.586 0 0 0-2.754 1.027l-7.883 7.798c-.5.497-1.18.776-1.89.777-1.478 0-2.678-1.186-2.678-2.65v-7.18L6.63 18.197a7.191 7.191 0 0 1-5.415 2.06l-.038-.003c2.899 6.74 10.41 10.302 17.538 8.315s11.655-8.901 10.57-16.147l-1.298-.083z" fill="url(#B)"/></g></svg>