<svg xmlns="http://www.w3.org/2000/svg" width="128" height="128" viewBox="0 0 33.867 33.867" xmlns:v="https://vecta.io/nano"><path d="M33.867 5.076v-.834h-6.128c-1.125 0-2.212.435-3.01 1.233l-3.119 3.118c-1.595 1.595-2.357 3.771-2.357 6.019 0 1.378-1.124 2.321-2.429 2.321-1.233 0-2.212-1.052-2.212-2.393 0-2.212-.798-4.387-2.357-5.947L9.137 5.475c-.798-.798-1.849-1.233-2.973-1.233H0v.834h1.632c.725 0 1.378.29 1.922.834l10.08 10.08L0 29.624h5.983l8.014-8.013c.399-.399.616-.906.616-1.45 0-1.414.979-2.357 2.212-2.357 1.305 0 2.429.834 2.429 2.284 0 .58.217 1.124.653 1.559l7.977 7.977h5.983L20.233 15.991l10.08-10.08c.544-.544 1.196-.834 1.958-.834z" fill="#939ba9"/></svg>