<svg xmlns="http://www.w3.org/2000/svg" width="128" height="128" viewBox="0 0 33.867 33.867" xmlns:v="https://vecta.io/nano"><path d="M17.062 32.084l-2.018-.14c-.019-.058.142-.107.441-.133.259-.023.901-.118 1.425-.212 1.74-.311 2.728-.375 4.063-.263 1.347.113 1.568.07 1.765-.342.16-.334-.041-.843-.683-1.727-.714-.981-.929-1.318-.929-1.452 0-.076.386-.21 1.201-.417 2.133-.542 2.919-.942 4.165-2.121.899-.851 1.085-.924 1.441-.568.515.515.907 2.07.813 3.223-.095 1.169-.534 2.199-1.183 2.777-.672.599-1.877 1.069-3.303 1.287-.699.107-4.513.153-7.198.088zm-1.749-1.417c-.103-.103-.236-.387-.294-.631s-.228-.807-.378-1.252c-.209-.622-.249-.825-.171-.877.056-.037.706-.044 1.445-.015.87.034 1.709.017 2.382-.05.936-.092 1.074-.089 1.4.036.584.223 1.764 1.624 1.887 2.24l.05.249h-1.13c-1.331 0-2.58.108-3.81.329-1.117.2-1.154.2-1.382-.028zm-4.498 1.24c-1.581-.101-2.8-.381-3.877-.889-1.272-.601-2.035-2.101-1.895-3.721.117-1.35.748-2.549 1.341-2.549.252 0 .412.104 1.227.799.98.835 2.397 1.45 4.355 1.888 1.025.23 1.184.313 1.493.778.344.519.56 1.218.705 2.274.117.857.134.906.408 1.148.157.139.285.276.285.305 0 .069-2.788.045-4.043-.035zm2.032-8.06c-.604-.191-1.298-.782-1.659-1.412-.198-.345-.237-.505-.238-.967-.001-.66.108-.901.602-1.336.441-.388.802-.504 1.874-.603 1.088-.1 1.607-.197 2.554-.477 1.551-.458 1.726-.493 1.725-.341-.001.074-.316.501-.7.949-1.11 1.293-1.702 2.126-2.247 3.161-.666 1.267-.846 1.363-1.911 1.026zm3.828.419l-1.538-.105c-.124-.125.178-.862.626-1.526.258-.382.914-1.226 1.459-1.875l1.433-1.808c.533-.755.819-1.008 1.273-1.127l1.491-.45 1.325-.36c.172 0 .173.006.042.265-.074.146-.337.517-.584.825-1.33 1.657-2.517 3.882-2.984 5.593-.137.502-.334.657-.803.63l-1.74-.061zm3.555-.438c0-.48 1.11-3.043 1.446-3.339.132-.116.204-.13.331-.062.233.124.507.742.56 1.263.039.379.012.517-.173.897a2.8 2.8 0 0 1-1.894 1.407c-.247.04-.27.026-.27-.166zm-4.434 3.122c-.123-.199.596-.42 1.748-.537.614-.062.865-.198 1.423-.766.505-.515 1.058-.737 1.981-.797l.677-.044.48.494c.469.482.632.793.541 1.03-.068.176-1.275.527-2.119.616-.977.103-4.667.106-4.731.003zm7.93-1.058c-.07-.042-.427-.443-.794-.89l-.666-.814.405-.463c.546-.624.735-1.151.734-2.053 0-.767-.059-.922-.611-1.605-.453-.561-.475-.644-.276-1.037.59-1.162 1.525-2.179 2.005-2.179.275 0 1.303 1.163 1.835 2.076 1.192 2.047.979 4.397-.539 5.937-.674.684-1.77 1.222-2.093 1.027z" paint-order="stroke fill markers" fill="#ab8a53" stroke="#ab8a53" stroke-linejoin="round" stroke-miterlimit="3.2" stroke-width=".264"/><path d="M12.594 26.741l-1.799-.488c-2.766-.801-4.09-1.855-4.468-3.558-.144-.647-.089-1.826.117-2.518.422-1.418 1.689-3.301 2.482-3.688.398-.195.575-.172 1.351.177 1.533.689 3.651 1.236 5.124 1.323.944.056 1.073.115.617.281-.337.123-.753.189-2.039.321-1.833.189-2.336.359-2.984 1.008-.723.725-.995 1.69-.746 2.647.134.515.357.882.804 1.326 1.121 1.112 2.933 1.615 5.929 1.644l.921.045.288.038-.152.154c-.194.197-.425.255-1.345.334-1.057.091-1.117.113-1.63.599l-.584.515c-.246.167-.783.121-1.885-.161zm-6.131-13.85c-.302-.159-.593-.467-.776-.819-.135-.261-.159-.384-.179-.94-.019-.52 0-.728.1-1.114.208-.803.531-1.301.816-1.259.187.027.211.167.218 1.257a13.54 13.54 0 0 0 .092 1.52c.108.718.115 1.474.014 1.47a1.12 1.12 0 0 1-.287-.116zm8.274 4.058c-1.939-.264-3.904-.913-5.032-1.662-.542-.361-1.195-1.063-1.463-1.573-.421-.803-.615-1.906-.615-3.498 0-1.137.012-1.171.499-1.387.4-.177.657-.44 1.431-1.461 1.302-1.719 2.189-2.378 3.416-2.537.765-.099 1.257-.025 2.138.323l1.056.376c.453.113 1.157.03 2.454-.29 1.022-.252 1.256-.29 1.76-.29.353 0 .697.034.876.088.448.133 1.046.567 1.995 1.447 1.387 1.286 1.506 1.381 1.984 1.574.814.329.992.425 1.187.64.252.279.278.47.246 1.847-.023 1.021-.038 1.15-.186 1.6-.545 1.664-1.689 2.887-3.493 3.736-1.115.525-2.776.974-4.065 1.099-.832.081-3.505.06-4.188-.033zm3.904-2.521c.796-.208 1.075-.4.987-.679-.063-.2-.29-.187-1.224.067-.665.181-1.048.253-1.453.273-.601.03-.851-.01-1.824-.286-.736-.209-.951-.192-.982.078-.021.176.179.32.66.476.641.208 1.111.259 2.207.238.917-.017 1.143-.04 1.63-.168zm-5.833-4.647c.467-.221.573-.224 1.066-.026.302.121.433.147.543.108.306-.107.177-.444-.249-.65-.316-.153-.973-.218-1.256-.125-.29.096-.714.377-.827.549-.232.354.127.425.722.144zm9.027-.208c.049-.344-.521-.712-1.166-.753-.455-.029-.69.042-.997.3-.206.174-.252.414-.09.476.053.02.254-.019.446-.088.461-.165.627-.158 1.04.045.42.206.739.215.766.021zm5.74 1.293c.032-1.028.022-1.408-.052-1.926-.105-.74-.071-.938.163-.938.194 0 .531.346.704.724.339.74.408 2.043.141 2.643-.2.449-.568.777-.872.777h-.123z" stroke-linejoin="round" stroke-miterlimit="3.2" paint-order="stroke fill markers" stroke-width=".264" fill="#f8d1b4" stroke="#f8d1b4"/><path fill="#090808" d="M12.627 33.834l-3.253-.307c-1.7-.235-2.736-.803-3.227-1.767-.116-.228-.268-.49-.337-.583l-.552-.73c-.797-1.051-1.066-1.855-1.007-3.009.055-1.083.449-2.117 1.07-2.807s.664-.914.362-1.85c-.175-.541-.191-.648-.19-1.235.002-1.245.453-2.639 1.238-3.826.292-.442.954-1.123 1.352-1.39.425-.286.523-.409.524-.66.001-.163-.051-.265-.271-.529l-.326-.36c-.03-.018-.186-.236-.347-.484-.329-.504-.474-.603-1.183-.806-.355-.101-.45-.159-.758-.453-.384-.369-.667-.855-.806-1.388-.102-.391-.106-1.369-.007-1.738.187-.699.683-1.336 1.185-1.521l.515-.188c.328-.118.429-.27.543-.819.157-.757.963-2.186 1.777-3.151.199-.236.666-.709 1.037-1.05 1.781-1.636 4.172-2.78 6.334-3.03l.813-.12c.152-.032.398-.043.547-.025l.762.082a7.49 7.49 0 0 1 1.797.372c1.599.516 2.866 1.281 4.029 2.432 1.008.998 1.234 1.322 1.965 2.814.711 1.452.826 1.595 1.423 1.773.568.17.761.277 1.032.571.71.77.874 2.37.357 3.473-.259.553-.537.824-1.189 1.159-.296.152-.616.357-.711.455s-.308.418-.474.711c-.249.44-.395.621-.848 1.046-.917.862-.971 1.018-.521 1.51.149.163.409.403.576.532.524.404 1.337 1.618 1.732 2.586.468 1.148.543 1.987.264 2.955-.262.908-.246.964.486 1.676.609.593.771.877 1.054 1.853.199.686.268 1.407.205 2.138-.047.549-.249 1.331-.441 1.713a5.77 5.77 0 0 1-.762 1.051c-.391.347-.647.741-.789 1.213-.137.454-.165.5-.525.849-.288.279-.51.433-.912.629l-.531.26-6.206.005c-3.413.003-6.477-.012-6.807-.033zm10.498-1.694c2.58-.145 4.252-.813 4.999-1.996.533-.844.749-1.856.658-3.084-.112-1.507-.668-2.63-1.304-2.63-.178 0-.247.051-.69.512-.77.8-1.356 1.244-2.206 1.672-.603.303-1.192.491-2.415.77l-1.086.303c-.12.113.147.595.734 1.324.528.655.892 1.294.939 1.646.037.277-.092.514-.343.633-.223.106-.55.101-1.792-.028-.564-.059-.854-.06-1.476-.008-.961.081-2.538.308-2.999.433-.204.055-.551.094-.847.096-.423.002-.525-.016-.653-.111-.308-.229-.356-.35-.41-1.025-.117-1.462-.623-2.67-1.254-2.992-.112-.057-.567-.178-1.011-.269-1.136-.232-2.16-.576-3.048-1.022a5.62 5.62 0 0 1-1.477-1.025c-.564-.517-.751-.63-1.051-.633-.369-.003-.634.242-.967.895-.289.566-.44 1.271-.44 2.055 0 .821.093 1.268.399 1.899.417.862 1.081 1.41 2.161 1.782 1.55.535 2.279.624 5.682.696l4.593.1 5.304.007zm-6.446-1.392c1.082-.224 1.94-.31 3.49-.348l1.479-.037.018-.123c.028-.196-.214-.653-.658-1.244-.687-.913-1.059-1.194-1.679-1.267-.155-.018-.71.022-1.304.095-1.025.125-1.044.126-2.068.037-1.055-.092-1.506-.079-1.608.044-.042.051.016.269.211.799l.362 1.14c.146.64.242.868.404.955.214.116.623.101 1.355-.051zm3.438-3.723a6.57 6.57 0 0 0 1.859-.319c.544-.161.757-.286.783-.462.041-.272-.57-1.098-.997-1.349-.375-.22-1.104-.168-2.054.145-.32.106-.406.169-.848.628-.292.303-.576.545-.699.595-.114.047-.471.109-.793.139-.859.08-1.214.153-1.474.304-.364.212-.308.313.205.367.239.025 3.136-.009 4.019-.048zm-5.748-.029c.154-.043.34-.189.686-.54.55-.558.55-.558 1.831-.654.572-.043.818-.085.995-.171.222-.107.338-.266.273-.371-.016-.026-.676-.062-1.466-.08l-2.012-.113c-1.927-.268-3.366-.987-4.043-2.018-.814-1.24-.506-2.828.724-3.736.585-.431 1.106-.564 2.774-.704 1.379-.116 2.187-.296 2.187-.489 0-.103-.176-.139-.683-.141-1.309-.004-3.84-.636-5.292-1.323-.837-.395-1.064-.422-1.517-.175-.709.386-1.945 2.208-2.346 3.459a5.5 5.5 0 0 0-.286 1.812c.005 1.868.919 3.095 2.961 3.976.656.283 1.303.488 2.756.872 1.848.489 2.023.517 2.459.396zm10.165-1.169c1.698-.681 2.785-2.575 2.643-4.605-.068-.964-.476-1.979-1.204-2.991-.465-.647-1.044-1.28-1.269-1.387-.446-.213-1.012.252-1.869 1.532-.654.977-.656 1.098-.038 1.787.174.194.38.489.459.656.125.267.142.372.141.877-.001.455-.027.65-.126.94-.13.379-.514 1.028-.607 1.028-.061 0-.441.482-.441.559 0 .028.143.203.317.389a10.25 10.25 0 0 1 .632.764c.503.68.659.732 1.363.45zm-5.625-1.527c.101-.042.201-.105.222-.14s.111-.338.199-.674c.407-1.551 1.643-3.821 2.895-5.316.458-.547.708-.939.708-1.112 0-.127-.012-.132-.261-.103-.143.017-.632.166-1.085.332s-1.03.34-1.281.388c-.878.166-1.049.297-1.736 1.315-.337.5-.394.571-1.343 1.672-.615.714-1.392 1.72-1.724 2.234-.277.429-.533 1.183-.439 1.296.048.058.272.077.972.082l2.565.093c.069.005.207-.025.308-.067zm1.95-.34c.59-.24.773-.352 1.123-.688.561-.539.762-1.165.599-1.867-.205-.884-.615-1.28-.985-.953-.283.251-1.453 2.964-1.453 3.371 0 .313.19.35.715.136zm-6.811.002c.223-.106.365-.316.753-1.119.167-.345.427-.811.577-1.037.347-.521 1.355-1.794 1.731-2.187.555-.58.788-.968.637-1.061-.066-.041-.786.141-1.676.424-.991.315-1.699.454-2.533.499-1.233.066-1.635.197-2.139.693-.407.4-.523.684-.523 1.281 0 .465.013.521.214.93.242.491.706.997 1.153 1.259.631.369 1.41.507 1.805.32zm5.33-6.992c4.184-.661 6.643-2.449 7.26-5.279.115-.527.13-2.313.023-2.668-.118-.388-.394-.609-1.061-.849-.321-.115-.697-.284-.835-.376s-.65-.549-1.137-1.015c-1.711-1.641-2.14-1.889-3.265-1.885-.496.002-.69.033-1.422.228-2.039.544-2.434.564-3.39.17-1.314-.541-1.218-.515-1.996-.518-.597-.002-.777.018-1.12.125-1.098.343-1.818.951-2.939 2.481-.712.972-1.046 1.315-1.376 1.413-.279.083-.473.269-.518.495-.054.268-.04 1.5.024 2.156.169 1.731.567 2.63 1.545 3.488 1.128.991 3.302 1.766 5.833 2.083.869.109 3.567.078 4.374-.05zm-3.089-2.359l-.6-.082c-.569-.077-1.246-.293-1.436-.459-.124-.108-.14-.149-.09-.23.132-.216.299-.211 1.069.034 1.199.381 1.974.364 3.376-.076.707-.222.827-.233.958-.088.352.389-.888.838-2.484.9l-.793.002zm-4.234-4.747c-.098-.118.195-.415.62-.631.333-.169.383-.179.782-.155.294.018.502.064.672.149.404.204.556.483.329.604-.132.071-.329.027-.67-.15-.357-.185-.566-.171-.985.063-.369.206-.64.25-.748.12zm9.045-.332c-.401-.231-.623-.242-1.072-.053-.392.165-.556.142-.531-.075.02-.172.422-.466.761-.557.432-.116 1.154.105 1.436.441.159.189.176.272.078.37-.112.112-.332.072-.673-.125zM6.877 12.563c-.005-.255-.054-.697-.109-.983-.076-.397-.1-.781-.101-1.625-.001-.966-.012-1.117-.093-1.198-.074-.074-.129-.083-.273-.042-.257.073-.484.44-.675 1.092a3.26 3.26 0 0 0-.158 1.198c.001.55.021.706.124.965.16.404.51.795.855.957.419.196.441.177.431-.365zm21.169-.507c.262-.148.541-.585.626-.977.083-.385.07-1.265-.025-1.714-.158-.75-.596-1.394-.947-1.394-.083 0-.181.03-.217.066-.089.089-.083.475.016.992.096.503.105 1.316.024 2.322l-.024.776c.057.093.317.059.547-.071z"/></svg>