<svg xmlns="http://www.w3.org/2000/svg" width="128" height="128" xmlns:v="https://vecta.io/nano"><path d="M44.587 103.984c-.017-.016-.797-.049-1.733-.073l-9.342-.373-5.794-.399c-5.465-.431-11.701-1.181-17.816-2.142-4.708-.74-7.844-2.477-9.145-5.064-.541-1.076-.838-2.555-.738-3.674.05-.561.455-2.961.872-5.168l.358-1.907c.339-1.838 1.178-5.832 1.763-8.401.753-3.301 1.416-5.936 2.271-9.017l.398-1.448c.456-1.837 2.375-7.678 3.355-10.211.844-2.18.803-1.892.398-2.826-2.071-4.776-4.267-7.744-6.574-8.883-.329-.162-.739-.392-.911-.51-.774-.532-.788-1.242-.038-1.858.839-.688 3.47-2.583 4.105-2.956 1.567-.922 2.337-1.06 3.344-.602.575.262.789.441 2.281 1.911 1.338 1.318 1.938 1.773 3.042 2.305.339.163.857.372 1.152.465l.536.168.674-.644c1.497-1.431 3.431-2.67 5.206-3.334.466-.174.703-.307.831-.466.748-.927 1.503-1.496 2.567-1.932.655-.268 1.865-.574 2.83-.714 1.263-.184 6.054-.594 8.908-.763l1.738-.108 2.136-.111 1.34-.071c.159-.016 1.039-.048 1.955-.07l3.879-.149c.028-.017.057-.651.063-1.409l.012-1.377h-.384c-.766 0-3.622-.318-4.91-.546-4.692-.832-6.908-2.315-6.347-4.245.155-.534.46-.933.987-1.291.583-.396 1.277-.684 2.226-.924.709-.179.903-.197 2.12-.198 1.233-.001 1.398.015 2.074.197 1.527.412 2.653.89 3.66 1.553.489.322 1.463 1.292 1.6 1.594.068.149.091.132.353-.274.525-.812 1.561-1.729 2.67-2.363 1.694-.968 4.618-1.773 6.023-1.657 1.463.12 2.403.833 2.812 2.131.114.362.044.738-.253 1.352-.949 1.962-5.477 4.073-9.725 4.534l-.805.087.03.188c.016.103.051.766.076 1.473l.046 1.285.3.002c.165.001.528.018.807.038.548.039 5.846.278 8.727.393l2.426.11 2.643.149c3.267.18 6.145.39 6.924.506 1.765.261 3.356.773 4.438 1.426.635.383 1.463 1.138 1.713 1.561.076.128.168.233.204.233.123 0 1.215.585 1.664.891 1.177.803 3.115 2.99 4.684 5.284l.384.562.696-.67c1.586-1.527 2.993-2.752 4.345-3.782a11.53 11.53 0 0 0 .514-.405c.053-.061 1.421-1.012 1.883-1.31 2.234-1.44 4.032-2.204 5.609-2.383 1.504-.171 3.765.372 6.183 1.484 5.091 2.342 11.519 7.195 17.14 12.94 3.306 3.379 5.308 6.073 5.719 7.695.169.668.27 1.896.22 2.688-.123 1.974-.55 4.487-1.204 7.097-.842 3.357-2.324 7.703-3.779 11.081l-.521 1.217a88.84 88.84 0 0 1-2.103 4.251c-1.639 2.951-3.374 5.226-4.807 6.304-.852.64-2.106 1.063-3.898 1.315-1.1.154-1.131.155-2.159.03-2.033-.246-3.265-.571-6.714-1.776-1.963-.685-3.916-1.311-4.093-1.311-.053 0-.07.073-.045.199.125.631.298 2.612.277 3.168-.048 1.256-.458 2.258-1.277 3.121-1.353 1.425-3.348 2.235-7.19 2.921l-2.245.4c-5.631 1.002-14.951 2.194-20.133 2.574l-2.281.179c-2.593.214-6.455.424-9.958.542l-3.331.116c-1.438.054-7.894.117-7.936.077zm52.565-27.378c.922-.26 2.261-.544 3.422-.726.808-.126 3.041-.328 3.638-.329h.416l.245-.489c.78-1.555 1.063-3.271.698-4.234-.236-.622-.169-.618-1.163-.069-1.87 1.032-6.195 3.247-7.599 3.892l-.935.44c-.041.034.334 1.763.383 1.763.009 0 .413-.112.896-.248z" fill="#f9d9b9"/><path d="M46.313 103.973c-.01-.009-1.127-.037-2.481-.064-9.415-.183-16.193-.646-25.565-1.746-1.192-.14-4.354-.573-5.54-.758l-1.979-.291c-5.282-.733-8.424-2.343-9.933-5.087-.804-1.463-.961-3.026-.546-5.45a278.3 278.3 0 0 1 2.65-13.326l1.731-7.134.4-1.485a187.95 187.95 0 0 1 1.388-4.852l.456-1.485c.168-.55 1.041-3.161 1.369-4.092a171.38 171.38 0 0 1 1.367-3.623c.138-.343.16-.475.103-.616-1.404-3.452-3.154-6.368-4.825-8.041-.854-.855-1.188-1.104-2.052-1.531-1.173-.579-1.553-.967-1.479-1.514.054-.402.313-.707 1.047-1.234a44.81 44.81 0 0 0 1.149-.856c2.322-1.808 3.99-2.675 4.938-2.568.844.096 1.429.497 3.065 2.1 1.72 1.686 2.53 2.235 4.106 2.786l.667.233.561-.534c1.646-1.568 3.565-2.802 5.449-3.502.373-.139.6-.273.724-.427 1.163-1.453 2.627-2.184 5.215-2.605 2.776-.451 13.604-1.158 18.315-1.196.972-.008 1.795-.031 1.829-.052s.062-.672.062-1.446v-1.408l-.38-.002c-.489-.003-2.082-.161-3.603-.359-2.873-.373-5.306-1.098-6.548-1.953-.675-.464-1.199-1.275-1.2-1.857-.003-1.319 1.121-2.283 3.306-2.835.711-.179.908-.198 2.088-.198 1.172 0 1.38.019 2.064.192 2.421.613 4.27 1.67 5.149 2.945l.243.352.265-.406c.713-1.092 2.17-2.233 3.624-2.839 1.558-.649 2.873-1.021 4.081-1.156 1.846-.206 3.144.424 3.678 1.786.238.606.241.702.041 1.238-.223.598-.453.936-.984 1.446-1.708 1.639-5.512 3.139-8.869 3.497l-.772.075c-.038 0-.056.183-.04.416a78.56 78.56 0 0 1 .073 1.479l.044 1.062.59.041c.325.022 1.047.058 1.604.08l1.666.073 1.557.072 2.426.109 2.462.111 7.966.432 1.593.112c3.893.254 6.661 1.269 7.879 2.889.283.377.425.49.935.744.331.165.845.461 1.144.659 1.075.712 2.967 2.814 4.462 4.958l.619.888.99-.931c4.708-4.428 8.703-7.031 11.579-7.545 1.162-.208 3.002.023 4.597.577 4.915 1.706 11.701 6.427 17.871 12.434 3.322 3.234 5.726 6.131 6.672 8.041.952 1.921.753 5.349-.63 10.852-2.26 8.989-6.853 18.749-10.395 22.087-1.024.965-1.77 1.367-3.212 1.73-2.629.663-5.029.378-9.234-1.097-1.824-.64-4.749-1.598-5.05-1.654-.246-.046-.246-.046-.205.198.139.81.261 2.175.262 2.93.001.744-.027.967-.189 1.485-.699 2.238-2.765 3.611-6.695 4.448-1.963.418-9.094 1.604-11.298 1.879l-1.652.223-1.955.249-1.86.214c-5.75.686-13.139 1.232-19.626 1.45l-9.324.182zm50.905-27.376c1.049-.288 2.303-.549 3.429-.713.98-.143 3.021-.334 3.561-.334h.42l.282-.561c.556-1.108.901-2.535.826-3.418-.034-.393-.21-1.004-.341-1.181-.087-.118-.133-.106-.665.186-2.489 1.368-8.175 4.259-8.709 4.428-.191.061-.191.129-.008.984.159.74.194.866.242.866.017 0 .45-.115.962-.256zM57.628 47.525c6.554-.318 13.938-.933 19.192-1.599 2.447-.31 2.72-.37 3.173-.704.33-.243.306-.561-.058-.775-.223-.131-.369-.148-1.231-.142-.538.004-2.232.092-3.766.196l-14.195.772a171.33 171.33 0 0 1-15.969.042l-11.227-.512c-2.819-.143-3.616-.137-4.402.037-.678.15-1.034.345-1.14.624-.086.226-.023.374.211.493 1.085.556 9.798 1.357 17.789 1.635 2.171.076 9.542.031 11.624-.07z" fill="#d0b9a6"/><path d="M44.158 103.889c-4.145-.052-10.881-.349-14.521-.639l-2.317-.183-2.824-.258-2.571-.251c-1.371-.128-4.465-.513-7.206-.897-5.204-.729-6.067-.874-7.382-1.241-3.388-.945-5.559-2.467-6.605-4.629-.507-1.048-.627-1.611-.635-2.969-.007-1.222-.004-1.246.727-5.178 1.318-7.099 2.955-14.398 4.336-19.337l.436-1.557c.726-2.591 2.033-6.758 2.602-8.292l.463-1.267.729-1.934.44-1.138-.318-.746c-1.528-3.578-3.312-6.379-5.032-7.904a6.39 6.39 0 0 0-1.746-1.167c-.793-.395-1.203-.752-1.307-1.138-.151-.562.073-.809 2.122-2.341 3.658-2.736 4.787-3.087 6.393-1.991.198.135.914.799 1.592 1.474s1.394 1.347 1.593 1.492c.782.569 1.935 1.154 2.803 1.422l.413.128.673-.614c1.768-1.611 3.19-2.53 5.154-3.327.692-.281.82-.361 1.061-.665 1.06-1.332 2.526-2.027 5.213-2.473 1.31-.218 8.346-.766 12.167-.949l1.159-.072c.179-.018 1.108-.054 2.064-.081l1.847-.069c.06-.011.72-.023 1.467-.026l1.358-.006v-1.448-1.448l-.163-.001c-.371-.002-2.56-.218-3.639-.359-5.165-.675-7.857-1.999-7.887-3.877-.019-1.185 1.104-2.179 3.021-2.675 1.532-.396 2.996-.42 4.401-.072 2.285.566 4.097 1.567 4.992 2.759l.361.477c.024.03.183-.155.352-.411.375-.566 1.34-1.507 1.971-1.921 1.009-.662 2.631-1.333 4.262-1.762.752-.198.951-.221 1.96-.226 1.017-.005 1.162.01 1.546.164.635.255 1.112.682 1.417 1.269.508.975.305 1.84-.669 2.849a7.98 7.98 0 0 1-1.093.915c-2.125 1.414-5.656 2.567-8.407 2.744l-.29.019.004.507c.007.846.051 2.012.085 2.29l.033.262.663.011a20.26 20.26 0 0 1 1.061.044c.219.018.871.051 1.448.073l4.852.216 1.666.075c5.247.223 10.74.567 12.076.757 1.867.266 3.561.826 4.735 1.566.4.252 1.181.998 1.377 1.316.11.178.334.336.848.595 1.353.682 2.329 1.526 3.806 3.291.616.736 2.068 2.691 2.281 3.07.08.142.008.199 1.371-1.094 2.92-2.769 5.988-5.037 8.449-6.245 1.814-.891 2.879-1.166 4.235-1.096 2.868.149 6.515 1.746 11.106 4.865a81.01 81.01 0 0 1 5.617 4.273l1.021.878c3.272 2.809 6.664 6.325 8.552 8.864 1.107 1.488 1.591 2.379 1.849 3.402.22.873.187 3.031-.073 4.816-.642 4.405-2.299 10.053-4.465 15.218-3.019 7.198-6.084 11.794-8.638 12.957-1.591.724-4.156.985-6.132.625-1.769-.323-2.816-.621-5.525-1.575-1.927-.679-4.259-1.423-4.307-1.374-.017.017.041.644.129 1.394.199 1.697.173 2.63-.098 3.415-.776 2.256-2.991 3.604-7.272 4.424-7.456 1.429-16.564 2.633-24.677 3.263l-5.359.363-2.064.109c-.677.046-3.689.163-5.613.218-1.667.048-7.546.084-9.523.059zm61.631-23.917c3.899-.419 5.857-1.519 4.2-2.359-2.487-1.26-9.962-.813-11.351.679-.645.693.539 1.344 2.986 1.64l1.088.135c.314.045 2.36-.018 3.078-.095zm-8.612-3.341c1.939-.538 3.643-.803 6.837-1.064l.652-.053.245-.463c.553-1.045.92-2.511.858-3.421-.036-.523-.317-1.366-.455-1.366-.027 0-.719.362-1.538.805-1.954 1.056-4.989 2.608-6.552 3.35l-1.33.644c-.058.036-.028.308.105.959.153.746.207.901.299.866a23.11 23.11 0 0 1 .879-.256zm5.584-25.958c2.093-.278 3.961-1.008 4.027-1.574.031-.263-.216-.411-.85-.509-.981-.152-3.17.194-4.523.715-2.322.893-1.484 1.744 1.346 1.368zM88.48 49.497c.745-.205 2.472-1.113 3.555-1.868 3.951-2.754 6.698-6.097 5.601-6.816-.555-.363-2.395.257-4.25 1.434-2.646 1.678-5.382 4.192-6.245 5.737l-.192.344.28.484c.154.266.324.573.379.681.108.216.099.216.873.003zm-30.598-1.97l7.64-.48c4.592-.34 12.377-1.169 13.629-1.453.527-.119 1.029-.429 1.11-.684.144-.453-.846-.773-2.009-.649-2.2.234-14.626.907-21.421 1.161-4.684.175-9.271.051-23.175-.625-3.38-.164-4.83-.087-5.362.285-.087.061-.224.218-.303.349l-.145.238.219.196c.264.236.718.339 2.657.603 3.257.444 8.569.862 13.398 1.054l2.535.102a340.11 340.11 0 0 0 11.225-.097zm-37.907-.325c.612-.109.891-.231 1.141-.499.16-.172.163-.19.052-.36-.166-.253-.545-.328-1.85-.369-2.114-.066-3.894-.536-5.065-1.335-.261-.179-.834-.633-1.272-1.009-.888-.763-1.033-.852-1.289-.788-.525.132-.357 1.015.335 1.765.976 1.059 3.698 2.213 6.096 2.584.839.13 1.179.132 1.853.012zm-9.948-5.946c.223-.223.25-.288.214-.513-.052-.32-.162-.456-.473-.586a.68.68 0 0 0-.841.207c-.406.483-.061 1.138.603 1.145.183.002.305-.06.498-.253zm32.537-14.305c.823-.183.956-.402.38-.624-.275-.106-.548-.133-1.358-.133s-1.083.027-1.358.133c-.528.204-.431.43.256.596.459.111 1.633.127 2.08.028zm14.194-.77c1.009-.291 1.612-.685 1.389-.908-.323-.323-2.778.269-3.194.77-.353.425.565.496 1.804.138z" fill="#f4a04b"/><path d="M44.158 103.889c-4.145-.052-10.881-.349-14.521-.639l-2.317-.183-2.824-.258-2.571-.251c-1.371-.128-4.465-.513-7.206-.897-5.204-.729-6.067-.874-7.382-1.241-3.388-.945-5.559-2.467-6.605-4.629-.507-1.048-.627-1.611-.635-2.969-.007-1.222-.004-1.246.727-5.178 1.318-7.099 2.955-14.398 4.336-19.337l.436-1.557c.726-2.591 2.033-6.758 2.602-8.292l.463-1.267.729-1.934.44-1.138-.318-.746c-1.528-3.578-3.312-6.379-5.032-7.904a6.39 6.39 0 0 0-1.746-1.167c-.793-.395-1.203-.752-1.307-1.138-.151-.562.073-.809 2.122-2.341 3.658-2.736 4.787-3.087 6.393-1.991.198.135.914.799 1.592 1.474s1.394 1.347 1.593 1.492c.782.569 1.935 1.154 2.803 1.422l.413.128.673-.614c1.768-1.611 3.19-2.53 5.154-3.327.692-.281.82-.361 1.061-.665 1.06-1.332 2.526-2.027 5.213-2.473 1.31-.218 8.346-.766 12.167-.949l1.159-.072c.179-.018 1.108-.054 2.064-.081l1.847-.069c.06-.011.72-.023 1.467-.026l1.358-.006v-1.448-1.448l-.163-.001c-.371-.002-2.56-.218-3.639-.359-5.165-.675-7.857-1.999-7.887-3.877-.019-1.185 1.104-2.179 3.021-2.675 1.532-.396 2.996-.42 4.401-.072 2.285.566 4.097 1.567 4.992 2.759l.361.477c.024.03.183-.155.352-.411.375-.566 1.34-1.507 1.971-1.921 1.009-.662 2.631-1.333 4.262-1.762.752-.198.951-.221 1.96-.226 1.017-.005 1.162.01 1.546.164.635.255 1.112.682 1.417 1.269.508.975.305 1.84-.669 2.849a7.98 7.98 0 0 1-1.093.915c-2.125 1.414-5.656 2.567-8.407 2.744l-.29.019.004.507c.007.846.051 2.012.085 2.29l.033.262.663.011a20.26 20.26 0 0 1 1.061.044c.219.018.871.051 1.448.073l4.852.216 1.666.075c5.247.223 10.74.567 12.076.757 1.867.266 3.561.826 4.735 1.566.4.252 1.181.998 1.377 1.316.11.178.334.336.848.595 1.353.682 2.329 1.526 3.806 3.291.616.736 2.068 2.691 2.281 3.07.08.142.008.199 1.371-1.094 2.92-2.769 5.988-5.037 8.449-6.245 1.814-.891 2.879-1.166 4.235-1.096 2.868.149 6.515 1.746 11.106 4.865a81.01 81.01 0 0 1 5.617 4.273l1.021.878c3.272 2.809 6.664 6.325 8.552 8.864 1.107 1.488 1.591 2.379 1.849 3.402.22.873.187 3.031-.073 4.816-.642 4.405-2.299 10.053-4.465 15.218-3.019 7.198-6.084 11.794-8.638 12.957-1.591.724-4.156.985-6.132.625-1.769-.323-2.816-.621-5.525-1.575-1.927-.679-4.259-1.423-4.307-1.374-.017.017.041.644.129 1.394.199 1.697.173 2.63-.098 3.415-.776 2.256-2.991 3.604-7.272 4.424-7.456 1.429-16.564 2.633-24.677 3.263l-5.359.363-2.064.109c-.677.046-3.689.163-5.613.218-1.667.048-7.546.084-9.523.059zm12.384-4.369c3.311-.118 6.792-.349 9.342-.619l4.563-.543c4.759-.68 7.959-1.471 9.705-2.396 3.815-2.022 6.608-5.461 8.11-9.983 1.794-5.405 1.864-11.972.216-20.418-1.589-8.145-4.5-15.799-8.099-21.297-.608-.928-1.665-2.375-1.843-2.524-.098-.081-.202-.063-.68.12-2.029.779-7.156 1.222-15.664 1.353-4.136.064-21.786.075-24.153.016l-6.595-.24-.512-.042-.212.245c-.117.135-.408.528-.647.873-.375.542-.469.634-.688.672-.676.119-1.052.271-1.283.515-.131.139-.238.296-.238.349 0 .128.4.461.621.516.097.024.175.055.175.069s-.251.474-.559 1.024c-3.389 6.063-5.971 15.433-6.751 24.5-.207 2.41-.169 3.581.218 6.731.785 6.378 2.929 11.547 6.186 14.913 2.66 2.749 5.486 4.169 10.103 5.074 2.896.568 7.138.992 11.153 1.115a160.65 160.65 0 0 0 7.532-.025zm49.247-19.548c3.899-.419 5.857-1.519 4.2-2.359-2.487-1.26-9.962-.813-11.351.679-.645.693.539 1.344 2.986 1.64l1.088.135c.314.045 2.36-.018 3.078-.095zm-8.612-3.341c1.939-.538 3.643-.803 6.837-1.064l.652-.053.245-.463c.553-1.045.92-2.511.858-3.421-.036-.523-.317-1.366-.455-1.366-.027 0-.719.362-1.538.805-1.954 1.056-4.989 2.608-6.552 3.35l-1.33.644c-.058.036-.028.308.105.959.153.746.207.901.299.866a23.11 23.11 0 0 1 .879-.256zm5.584-25.958c2.093-.278 3.961-1.008 4.027-1.574.031-.263-.216-.411-.85-.509-.981-.152-3.17.194-4.523.715-2.322.893-1.484 1.744 1.346 1.368zM88.48 49.497c.745-.205 2.472-1.113 3.555-1.868 3.951-2.754 6.698-6.097 5.601-6.816-.555-.363-2.395.257-4.25 1.434-2.646 1.678-5.382 4.192-6.245 5.737l-.192.344.28.484c.154.266.324.573.379.681.108.216.099.216.873.003zm-68.505-2.295c.612-.109.891-.231 1.141-.499.16-.172.163-.19.052-.36-.166-.253-.545-.328-1.85-.369-2.114-.066-3.894-.536-5.065-1.335-.261-.179-.834-.633-1.272-1.009-.888-.763-1.033-.852-1.289-.788-.525.132-.357 1.015.335 1.765.976 1.059 3.698 2.213 6.096 2.584.839.13 1.179.132 1.853.012zm-9.948-5.946c.223-.223.25-.288.214-.513-.052-.32-.162-.456-.473-.586a.68.68 0 0 0-.841.207c-.406.483-.061 1.138.603 1.145.183.002.305-.06.498-.253zm56.545-1.555c2.695-.081 3.959-.163 5.613-.367 1.878-.232 3.22-.618 3.618-1.042l.154-.164-.347-.149c-.875-.376-2.56-.761-4.004-.916-.971-.104-3.98-.302-6.12-.404l-5.033-.251-6.59-.291-1.973-.083-1.068-.048v.738c0 .691-.012.75-.182.919-.233.233-.733.46-1.017.462-.122.001-.394-.085-.606-.19-.494-.246-.586-.455-.586-1.336v-.663l-2.118.048-2.444.078c-.179.016-.913.049-1.629.072l-1.883.077-1.811.108-6.083.436c-4.289.338-6.187.732-7.456 1.547l-.432.277.262.135c1.359.697 5.647.988 13.383.907l8.039-.093c2.386-.031 4.752-.015 6.808.045 7.167.21 10.249.244 13.507.146zM42.565 26.951c.823-.183.956-.402.38-.624-.275-.106-.548-.133-1.358-.133s-1.083.027-1.358.133c-.528.204-.431.43.256.596.459.111 1.633.127 2.08.028zm14.194-.77c1.009-.291 1.612-.685 1.389-.908-.323-.323-2.778.269-3.194.77-.353.425.565.496 1.804.138z" fill="#cf8740"/><path d="M44.158 103.889c-4.145-.052-10.881-.349-14.521-.639l-2.317-.183-2.824-.258-2.571-.251c-1.371-.128-4.465-.513-7.206-.897-5.204-.729-6.067-.874-7.382-1.241-3.388-.945-5.559-2.467-6.605-4.629-.507-1.048-.627-1.611-.635-2.969-.007-1.222-.004-1.246.727-5.178 1.318-7.099 2.955-14.398 4.336-19.337l.436-1.557c.726-2.591 2.033-6.758 2.602-8.292l.463-1.267.729-1.934.44-1.138-.318-.746c-1.528-3.578-3.312-6.379-5.032-7.904a6.39 6.39 0 0 0-1.746-1.167c-.793-.395-1.203-.752-1.307-1.138-.151-.562.073-.809 2.122-2.341 3.658-2.736 4.787-3.087 6.393-1.991.198.135.914.799 1.592 1.474s1.394 1.347 1.593 1.492c.782.569 1.935 1.154 2.803 1.422l.413.128.673-.614c1.768-1.611 3.19-2.53 5.154-3.327.692-.281.82-.361 1.061-.665 1.06-1.332 2.526-2.027 5.213-2.473 1.31-.218 8.346-.766 12.167-.949l1.159-.072c.179-.018 1.108-.054 2.064-.081l1.847-.069c.06-.011.72-.023 1.467-.026l1.358-.006v-1.448-1.448l-.163-.001c-.371-.002-2.56-.218-3.639-.359-5.165-.675-7.857-1.999-7.887-3.877-.019-1.185 1.104-2.179 3.021-2.675 1.532-.396 2.996-.42 4.401-.072 2.285.566 4.097 1.567 4.992 2.759l.361.477c.024.03.183-.155.352-.411.375-.566 1.34-1.507 1.971-1.921 1.009-.662 2.631-1.333 4.262-1.762.752-.198.951-.221 1.96-.226 1.017-.005 1.162.01 1.546.164.635.255 1.112.682 1.417 1.269.508.975.305 1.84-.669 2.849a7.98 7.98 0 0 1-1.093.915c-2.125 1.414-5.656 2.567-8.407 2.744l-.29.019.004.507c.007.846.051 2.012.085 2.29l.033.262.663.011a20.26 20.26 0 0 1 1.061.044c.219.018.871.051 1.448.073l4.852.216 1.666.075c5.247.223 10.74.567 12.076.757 1.867.266 3.561.826 4.735 1.566.4.252 1.181.998 1.377 1.316.11.178.334.336.848.595 1.353.682 2.329 1.526 3.806 3.291.616.736 2.068 2.691 2.281 3.07.08.142.008.199 1.371-1.094 2.92-2.769 5.988-5.037 8.449-6.245 1.814-.891 2.879-1.166 4.235-1.096 2.868.149 6.515 1.746 11.106 4.865a81.01 81.01 0 0 1 5.617 4.273l1.021.878c3.272 2.809 6.664 6.325 8.552 8.864 1.107 1.488 1.591 2.379 1.849 3.402.22.873.187 3.031-.073 4.816-.642 4.405-2.299 10.053-4.465 15.218-3.019 7.198-6.084 11.794-8.638 12.957-1.591.724-4.156.985-6.132.625-1.769-.323-2.816-.621-5.525-1.575-1.927-.679-4.259-1.423-4.307-1.374-.017.017.041.644.129 1.394.199 1.697.173 2.63-.098 3.415-.776 2.256-2.991 3.604-7.272 4.424-7.456 1.429-16.564 2.633-24.677 3.263l-5.359.363-2.064.109c-.677.046-3.689.163-5.613.218-1.667.048-7.546.084-9.523.059zm10.791-.965l3.042-.107a58.16 58.16 0 0 1 1.448-.071l1.448-.076c.219-.019 1.034-.068 1.811-.108 3.581-.186 9.732-.757 14.484-1.344 6.118-.756 13.974-2.051 16.047-2.645 2.773-.795 4.267-1.969 4.713-3.705.282-1.096-.139-4.492-1.499-12.111-2.263-12.676-5.625-24.782-8.522-30.691-.211-.43-.383-.795-.383-.812 0-.102-1.5-2.778-2.051-3.658-1.273-2.035-2.319-3.427-3.775-5.023-.566-.621-1.738-1.639-1.887-1.639-.028 0-.145-.067-.261-.149-.216-.154-.356-.137-.356.043 0 .336-.825.878-1.767 1.16-1.345.403-4.468.801-7.358.938l-1.231.073c-.179.016-1.141.05-2.136.074l-2.028.076c-.404.059-24.894.084-27.375.029-4.847-.108-8.89-.338-10.936-.622-3.024-.419-4.214-.953-4.193-1.881.006-.295-.006-.318-.145-.276-.337.102-1.593.788-2.28 1.245-.777.517-2.253 1.728-2.253 1.848 0 .046.249.056.681.027.581-.038.829-.1 1.684-.421.915-.343 1.056-.377 1.618-.379.517-.002.683.028 1.037.191 1.198.551 2.026 1.937 2.022 3.384-.003 1.051-.683 5.1-1.221 7.278-.849 3.437-1.924 6.185-3.126 7.994-.523.787-1.72 2.004-2.302 2.341-.951.55-1.897.769-2.788.646-1.355-.188-1.944-1.138-3.618-5.839l-1.143-3.15-.073-.181-.117.273c-.731 1.704-2.426 6.786-3.473 10.41-.928 3.211-2.136 7.903-2.725 10.574l-1.486 6.952-.431 2.209-.437 2.317-.325 1.811-.253 1.448c-.209 1.151-.114 2.51.249 3.548.609 1.742 2.351 3.266 4.782 4.184 1.757.663 2.768.861 8.618 1.684 5.821.819 13.396 1.572 18.214 1.81l1.231.074c.239.019 1.135.066 1.992.104l2.607.118c3.113.145 11.713.16 16.222.028zm50.84-22.952c3.899-.419 5.857-1.519 4.2-2.359-2.487-1.26-9.962-.813-11.351.679-.645.693.539 1.344 2.986 1.64l1.088.135c.314.045 2.36-.018 3.078-.095zm-8.612-3.341c1.939-.538 3.643-.803 6.837-1.064l.652-.053.245-.463c.553-1.045.92-2.511.858-3.421-.036-.523-.317-1.366-.455-1.366-.027 0-.719.362-1.538.805-1.954 1.056-4.989 2.608-6.552 3.35l-1.33.644c-.058.036-.028.308.105.959.153.746.207.901.299.866a23.11 23.11 0 0 1 .879-.256zm5.584-25.958c2.093-.278 3.961-1.008 4.027-1.574.031-.263-.216-.411-.85-.509-.981-.152-3.17.194-4.523.715-2.322.893-1.484 1.744 1.346 1.368zM88.48 49.497c.745-.205 2.472-1.113 3.555-1.868 3.951-2.754 6.698-6.097 5.601-6.816-.555-.363-2.395.257-4.25 1.434-2.646 1.678-5.382 4.192-6.245 5.737l-.192.344.28.484c.154.266.324.573.379.681.108.216.099.216.873.003zm-68.505-2.295c.612-.109.891-.231 1.141-.499.16-.172.163-.19.052-.36-.166-.253-.545-.328-1.85-.369-2.114-.066-3.894-.536-5.065-1.335-.261-.179-.834-.633-1.272-1.009-.888-.763-1.033-.852-1.289-.788-.525.132-.357 1.015.335 1.765.976 1.059 3.698 2.213 6.096 2.584.839.13 1.179.132 1.853.012zm43.592-4.932c8.11-.124 13.158-.641 14.525-1.485.233-.144.258-.187.219-.382-.098-.488-.776-1.303-1.481-1.779-1.633-1.102-3.35-1.483-8.194-1.817-1.907-.132-11.771-.608-15.028-.725l-2.444-.111-.344-.035-.001.707c-.001.415-.038.779-.091.883-.049.097-.252.258-.452.359-.495.249-.91.239-1.36-.035-.427-.26-.508-.485-.475-1.326l.024-.609-2.535.049-2.716.077c-.1.016-.865.05-1.702.076l-1.666.075c-.08.015-.552.047-1.05.071-.801.038-1.636.096-5.83.403-2.69.197-4.883.477-5.939.759-1.912.511-2.947 1.292-3.74 2.821-.224.432-.233.476-.124.585.241.241 1.745.634 3.14.821 2.632.353 6.18.553 11.551.653 3.049.057 21.412.034 25.71-.032zm-53.539-1.014c.223-.223.25-.288.214-.513-.052-.32-.162-.456-.473-.586a.68.68 0 0 0-.841.207c-.406.483-.061 1.138.603 1.145.183.002.305-.06.498-.253zm32.537-14.305c.823-.183.956-.402.38-.624-.275-.106-.548-.133-1.358-.133s-1.083.027-1.358.133c-.528.204-.431.43.256.596.459.111 1.633.127 2.08.028zm14.194-.77c1.009-.291 1.612-.685 1.389-.908-.323-.323-2.778.269-3.194.77-.353.425.565.496 1.804.138z" fill="#a2724b"/><path d="M42.203 103.847c-.02-.018-.949-.055-2.064-.081l-2.643-.085-3.404-.182-4.2-.253-5.576-.472-2.173-.216-6.011-.726-1.557-.21-5.395-.803c-3.033-.535-5.606-1.688-7.099-3.179C.293 95.854-.262 93.681.296 90.65l.418-2.281L1.8 82.72l.389-1.919.474-2.173.467-2.1c.516-2.416 2.178-8.867 2.826-10.972l.433-1.448c.591-2.013 2.111-6.549 2.607-7.785l.51-1.303.336-.869-.274-.688c-.387-.971-1.789-3.733-2.347-4.623-1.002-1.598-2.212-3.035-3.153-3.743a10.14 10.14 0 0 0-1.281-.779c-.444-.223-.86-.493-1.047-.68-.269-.269-.31-.352-.31-.62 0-.57.063-.634 2.064-2.132 1.594-1.193 2.434-1.753 3.181-2.118 1.194-.583 1.895-.64 2.729-.222.574.288.894.56 2.317 1.977 1.159 1.153 1.806 1.644 2.853 2.167.601.3 1.504.633 1.717.633.09 0 .389-.229.738-.563 1.511-1.448 3.293-2.6 5.178-3.347.508-.201.802-.362.903-.494 1.086-1.412 2.539-2.154 5.049-2.577 1.237-.209 6.161-.638 9.626-.839l1.811-.11 1.304-.072 1.521-.073 4.382-.152 1.681-.058c.029-.024.033-2.807.005-2.835-.016-.016-.303-.048-.64-.072-1.936-.138-4.317-.456-5.753-.768-3.514-.762-5.268-1.909-5.269-3.446 0-1.713 2.286-2.949 5.45-2.945 1.022.001 1.201.022 1.995.229 2.558.666 4.331 1.72 5.248 3.121.109.166.111.165.413-.292.937-1.412 2.585-2.507 4.981-3.309 1.55-.519 2.119-.626 3.331-.622.887.002 1.067.024 1.437.171.996.395 1.673 1.308 1.669 2.251-.003.691-.262 1.19-.999 1.925-.701.699-1.217 1.047-2.469 1.665-2.043 1.009-4.69 1.767-6.611 1.894l-.677.044.043 1.093.083 1.546c.039.443.044.453.251.453a200.04 200.04 0 0 1 2.583.109l8.165.363 1.557.074 1.955.108 6.518.435c3.291.349 5.638 1.323 6.742 2.799.262.35.414.471.888.705 1.847.913 3.116 2.181 5.691 5.689.102.139.276.394.387.568l.202.315.887-.857c3.392-3.277 7.111-5.982 9.681-7.041 1.317-.542 2.519-.779 3.549-.7 3.673.283 8.846 2.986 14.846 7.754 6.076 4.829 11.765 10.887 12.893 13.73.864 2.177.29 6.956-1.588 13.209-2.333 7.771-5.913 15.247-8.9 18.587-1.348 1.507-2.26 2.062-4.109 2.496-.808.19-.975.204-2.425.207-1.339.002-1.674-.021-2.39-.163-1.181-.235-2.612-.649-4.454-1.287-3.069-1.064-5.006-1.682-5.061-1.617-.013.016.039.501.115 1.078.188 1.423.203 2.859.036 3.471-.532 1.951-2.146 3.262-5.12 4.158-.779.235-1.166.321-3.114.697-6.273 1.209-16.428 2.534-23.573 3.078l-2.39.186a100.22 100.22 0 0 1-2.354.145l-2.643.142-2.607.114c-.797.026-1.546.061-1.666.079-.298.044-13.027.12-13.072.079zm12.782-.877c.159-.019.941-.054 1.738-.078l2.028-.079 3.187-.18 3.006-.181 2.643-.219c7.85-.638 15.562-1.667 23.356-3.118 2.932-.546 4.722-1.248 5.837-2.291 1.079-1.009 1.428-2.065 1.26-3.807-.354-3.667-1.864-12.404-3.151-18.235l-1.085-4.737-.364-1.448-.436-1.702-.436-1.629-.393-1.412-.399-1.34c-2.051-6.989-4.109-11.708-7.012-16.078-1.383-2.082-3.227-4.258-4.327-5.108-.355-.274-1.113-.758-1.187-.758-.015 0-.048.096-.074.212s-.186.34-.355.497c-1.169 1.078-5.685 1.639-14.963 1.861-2.299.055-26.019.063-27.158.01l-2.317-.084c-3.387-.1-6.894-.363-8.654-.649-2.532-.411-3.514-.882-3.525-1.69-.002-.159.018-.324.045-.368.077-.124-.006-.098-.656.206-1.222.572-2.788 1.635-3.728 2.528l-.464.441.579.001c.69.002 1.112-.096 2.168-.502.748-.288.826-.303 1.412-.278.851.036 1.388.283 1.934.885.742.82 1.085 1.816 1.013 2.94-.095 1.485-.729 5.05-1.312 7.387-1.047 4.195-2.447 7.244-4.092 8.914-1.109 1.126-2.029 1.582-3.313 1.643-.989.047-1.302-.044-1.789-.521-.744-.728-1.27-1.864-2.603-5.619-.857-2.414-1.094-3.035-1.141-2.986-.211.22-1.953 5.228-2.942 8.454-1.808 5.901-3.836 14.246-5.156 21.22C.98 91.285.904 91.753.904 92.786c0 .696.036 1.039.155 1.485.59 2.21 2.183 3.77 4.921 4.822 1.492.573 2.75.868 5.226 1.226l3.006.434c4.258.614 8.655 1.109 13.145 1.479l2.653.22c1.777.152 8.192.456 12.085.573 1.101.033 12.56-.016 12.891-.056zm58.118-13.401c.522-.094 1.345-.386 1.98-.702 1.185-.589 3.087-1.919 4.106-2.87.523-.489.572-.563 1.242-1.911.69-1.387.851-1.725 1.422-2.996 2.1-4.67 4.168-11.24 4.856-15.426.296-1.8.333-2.202.334-3.657.002-1.648-.049-1.971-.435-2.788-.246-.521-1.139-1.9-1.613-2.491-1.777-2.219-4.882-5.445-7.329-7.618-7.225-6.414-13.969-10.372-17.977-10.549-1.294-.057-2.187.162-3.805.934-2.547 1.216-5.922 3.772-9.171 6.946l-.571.558.408.66c.225.363.408.678.408.701s.192.373.426.779c2.114 3.666 4.213 9.275 6.09 16.273l.471 1.738a20.21 20.21 0 0 1 .218.851c.027.129.058.235.069.235.038 0 6.785-3.326 8.901-4.388 2.647-1.328 3.132-1.61 3.631-2.109 2.223-2.223 2.548-6.176.988-12.043-.667-2.511-.593-2.311-.878-2.37-.415-.086-1.412-.034-2.273.121-1.946.348-4.189 1.253-5.907 2.38-.827.543-1.927 1.616-2.285 2.228-.345.591-.52.723-.789.6-.105-.048-.212-.167-.236-.265-.122-.488 1.038-1.956 2.293-2.9 2.362-1.778 6.034-3.09 8.596-3.071 1.478.011 1.983.386 2.804 2.084l1.271 2.569c2.473 4.925 4.476 10.427 4.786 13.15.078.681.074.911-.029 1.66-.232 1.691-.73 3.353-1.845 6.159-.485 1.221-1.41 2.982-1.863 3.549-.168.209-.225.345-.2.474.022.113-.018.245-.104.352-.155.191-.228.195-1.719.078-.83-.065-6.139-.046-6.518.023-.119.022-.576.076-1.014.121-1.456.149-3.199.477-4.49.845-.358.102-.662.194-.674.205-.035.03 1.091 2.81 1.54 3.802.481 1.063 1.192 2.426 1.514 2.901.456.674 1.052 1.229 1.911 1.779.46.294 1.848 1.022 2.3 1.206l.833.344c1.931.805 4.91 1.616 6.755 1.84 1.039.126.941.125 1.573.011zM97.352 76.605c1.985-.534 3.847-.823 6.294-.979.86-.055 1.019-.083 1.085-.197.042-.073.198-.394.346-.712.652-1.403.885-2.957.575-3.836-.084-.238-.197-.477-.252-.531-.108-.108-.206-.071-1.059.397l-2.046 1.1c-1.143.609-3.996 2.046-5.196 2.616l-1.288.618c-.012.009.062.415.163.904l.184.919c0 .017.057.014.127-.007s.55-.153 1.068-.292zM20.641 58.54c.248-.098.358-.341.934-2.073.849-2.551 1.585-5.925 2.02-9.266.182-1.4-.079-2.358-.839-3.077-.669-.633-1.352-.71-2.4-.27-1.027.431-1.448.518-2.487.514-.821-.003-1.096-.035-1.711-.198-1.17-.309-2.478-.926-3.467-1.634-.199-.143-.965-.848-1.702-1.568s-1.518-1.421-1.736-1.559c-.362-.229-.444-.251-.941-.251-.476 0-.614.033-1.088.259-.733.35-1.537.879-3.006 1.978-1.842 1.378-1.992 1.495-1.992 1.561 0 .191 1.314.817 1.992.949 1.505.291 3.003 1.081 3.995 2.106.862.89 1.017 1.135 2.974 4.698 1.63 2.966 2.4 4.219 3.319 5.395 1.169 1.496 2.185 2.163 3.761 2.469.579.112 2.059.091 2.374-.034zM65.45 42.286c.139-.021.987-.058 1.883-.082 5.818-.158 10.275-.791 10.969-1.559.119-.132.114-.159-.111-.581-.929-1.743-3.207-2.747-6.984-3.078l-.869-.078c-1.359-.124-3.366-.234-10.501-.574l-6.627-.292-1.753-.082-.703-.043.042.506c.023.278.02.657-.008.843-.047.312-.079.353-.426.552-.459.263-.93.288-1.355.071-.459-.234-.538-.418-.54-1.261l-.002-.73-.579.01-1.955.03-2.643.074-3.838.178-2.173.143-2.1.144-1.883.145c-4.548.334-6.358.641-7.744 1.314a3.74 3.74 0 0 0-1.267.921c-.514.518-1.053 1.302-1.241 1.803-.089.239 1.208.701 2.576.917 2.413.382 5.376.569 11.986.758a3340.5 3340.5 0 0 0 27.846-.05zM42.565 26.951c.823-.183.956-.402.38-.624-.275-.106-.548-.133-1.358-.133s-1.083.027-1.358.133c-.528.204-.431.43.256.596.459.111 1.633.127 2.08.028zm14.194-.77c1.009-.291 1.612-.685 1.389-.908-.323-.323-2.778.269-3.194.77-.353.425.565.496 1.804.138z" fill="#875b31"/><path d="M109.084 93.682c-1.577-.231-3.105-.637-5.432-1.444l-4.718-1.554c-.347-.088-.376-.112-.416-.355a4.66 4.66 0 0 1-.044-.61c-.001-.334-.085-.903-.588-3.959l-1.493-7.966a4.51 4.51 0 0 1-.128-.488l-.083-.379.367-.105c2.47-.705 4.36-1.024 7.096-1.197.86-.055 1.019-.083 1.085-.197.042-.073.198-.394.346-.712.652-1.403.885-2.957.575-3.836-.084-.238-.197-.477-.252-.531-.108-.108-.206-.071-1.059.397l-2.046 1.1-5.186 2.615c-1.384.661-1.348.659-1.425.075-.061-.463-.56-2.73-1.013-4.596l-.348-1.653c.021-.034 1.265-.666 2.765-1.403l8.7-4.373c1.642-.947 2.659-2.746 2.909-5.138.097-.931.034-3.019-.121-4.019-.177-1.14-.454-2.433-.799-3.73l-.681-2.27c-.147-.147-1.814-.09-2.684.091-2.206.459-4.495 1.457-6.228 2.714-.619.449-1.527 1.413-1.853 1.967s-.56.672-.833.424c-.201-.182-.174-.331.164-.896.957-1.597 2.972-3.066 5.672-4.134 2.618-1.035 5.26-1.374 6.361-.817.502.254.969.919 1.571 2.236l.892 1.842c2.387 4.695 4.382 10.005 4.869 12.963.196 1.192.103 2.281-.342 4.015-.637 2.479-2.141 6.108-3.13 7.553-.269.392-.407.667-.407.809 0 .407-.138.459-1.079.408-.462-.025-.954-.06-1.093-.078-.54-.069-3.785-.089-4.852-.03-2.069.114-3.888.357-5.666.757-1.095.247-1.794.469-1.794.571 0 .267 1.429 3.628 2.152 5.063.916 1.817 1.47 2.505 2.632 3.271 1.862 1.227 5.231 2.535 8.18 3.176 1.4.304 1.884.368 2.788.37.724.001.948-.027 1.34-.165 1.585-.56 3.544-1.776 5.287-3.281l.616-.532.906-1.811a63.16 63.16 0 0 0 2.871-6.59c1.57-4.153 2.78-8.431 3.317-11.732.283-1.736.328-2.237.328-3.589 0-1.786-.176-2.418-1.051-3.771-1.13-1.746-2.529-3.366-5.28-6.112-2.202-2.198-2.342-2.329-4.061-3.809-6.73-5.791-12.606-9.213-16.647-9.695-1.363-.163-2.574.129-4.428 1.065-2.446 1.235-5.635 3.651-8.532 6.463l-.93.903-.136-.179c-.384-.506-.413-.437.58-1.393 3.52-3.389 7.21-6.041 9.851-7.082 1.332-.525 2.497-.714 3.611-.588 4.508.513 10.776 4.235 18.307 10.871 1.134.999 4.892 4.762 5.718 5.725 2.152 2.509 3.19 4.052 3.571 5.31.669 2.206.033 6.907-1.724 12.76-2.333 7.771-5.913 15.247-8.9 18.587-1.351 1.51-2.272 2.069-4.109 2.492-.759.175-1.04.202-2.244.218-.757.01-1.474.004-1.593-.014zM14.738 64.47c-.941-.283-1.64-1.456-2.87-4.816l-.882-2.462c-.325-.916-.629-1.731-.677-1.811s-.176-.389-.286-.688c-.538-1.462-.789-2.04-1.53-3.512-.877-1.742-1.459-2.716-2.266-3.79-1.185-1.577-2.12-2.413-3.439-3.074-.444-.223-.86-.493-1.047-.68-.269-.269-.31-.352-.31-.62 0-.569.049-.619 2.064-2.13 1.591-1.193 2.433-1.754 3.181-2.12 1.195-.584 1.896-.64 2.729-.221.591.297.647.345 2.177 1.849 1.309 1.286 1.934 1.765 2.993 2.294.62.31 1.485.625 1.838.671.144.019.513.078.82.132.949.167 1.525.088 2.659-.365.792-.316.877-.335 1.562-.341.677-.006.756.009 1.208.23.95.463 1.714 1.682 1.838 2.928.06.599-.276 3.053-.737 5.38-1.559 7.883-4.024 12.351-7.234 13.112-.469.111-1.47.13-1.791.033zm5.873-5.899c.291-.1.388-.311 1.022-2.213.65-1.95 1.193-4.215 1.63-6.802.464-2.748.517-3.614.262-4.286-.442-1.164-1.307-1.82-2.252-1.708-.197.023-.677.17-1.067.326-1.012.405-1.388.482-2.337.475-1.439-.01-2.861-.445-4.388-1.341-.828-.486-1.286-.87-2.565-2.149-1.49-1.492-2.15-1.91-2.818-1.788-.736.135-1.951.842-3.663 2.132L2.95 42.319a5.15 5.15 0 0 0-.471.379l-.29.261.181.154c.329.279 1.296.717 1.829.828 2.112.439 3.831 1.565 4.916 3.22.222.339.755 1.251 1.185 2.028l1.488 2.686c1.897 3.42 3.294 5.279 4.526 6.023.572.346 1.635.698 2.335.774.645.07 1.607.021 1.96-.101zm28.312-20.747c-.183-.116-.351-.271-.372-.344-.055-.19-.086-2.216-.059-3.85.013-.77.011-1.413-.005-1.429s-.303-.048-.64-.072c-1.936-.138-4.317-.456-5.753-.768-3.514-.762-5.268-1.909-5.269-3.446 0-1.713 2.286-2.949 5.45-2.945 1.022.001 1.201.022 1.995.229 2.558.666 4.331 1.72 5.248 3.121.109.166.111.165.413-.292.937-1.412 2.585-2.507 4.981-3.309 1.55-.519 2.119-.626 3.331-.622.887.002 1.067.024 1.437.171.996.395 1.673 1.308 1.669 2.251-.003.691-.262 1.19-.999 1.925-.701.699-1.217 1.047-2.469 1.665-2.04 1.008-4.69 1.767-6.606 1.893l-.672.044.002.224c.001.123.036.844.077 1.6.122 2.237.14 3.314.059 3.562-.057.174-.166.276-.447.416-.516.257-.94.249-1.373-.026zm-6.358-10.873c.823-.183.956-.402.38-.624-.275-.106-.548-.133-1.358-.133s-1.083.027-1.358.133c-.528.204-.431.43.256.596.459.111 1.633.127 2.08.028zm14.194-.77c1.009-.291 1.612-.685 1.389-.908-.323-.323-2.778.269-3.194.77-.353.425.565.496 1.804.138z" fill="#2a8a54"/><path d="M109.084 93.682c-1.577-.231-3.105-.637-5.432-1.444l-4.718-1.554c-.347-.088-.376-.112-.416-.355a4.66 4.66 0 0 1-.044-.61c-.001-.334-.085-.903-.588-3.959l-1.493-7.966a4.51 4.51 0 0 1-.128-.488l-.083-.379.367-.105c2.47-.705 4.36-1.024 7.096-1.197.86-.055 1.019-.083 1.085-.197.042-.073.198-.394.346-.712.652-1.403.885-2.957.575-3.836-.084-.238-.197-.477-.252-.531-.108-.108-.206-.071-1.059.397l-2.046 1.1-5.186 2.615c-1.384.661-1.348.659-1.425.075-.061-.463-.56-2.73-1.013-4.596l-.348-1.653c.021-.034 1.265-.666 2.765-1.403l8.7-4.373c1.642-.947 2.659-2.746 2.909-5.138.097-.931.034-3.019-.121-4.019-.177-1.14-.454-2.433-.799-3.73l-.681-2.27c-.147-.147-1.814-.09-2.684.091-2.206.459-4.495 1.457-6.228 2.714-.619.449-1.527 1.413-1.853 1.967s-.56.672-.833.424c-.201-.182-.174-.331.164-.896.957-1.597 2.972-3.066 5.672-4.134 2.618-1.035 5.26-1.374 6.361-.817.502.254.969.919 1.571 2.236l.892 1.842c2.387 4.695 4.382 10.005 4.869 12.963.196 1.192.103 2.281-.342 4.015-.637 2.479-2.141 6.108-3.13 7.553-.269.392-.407.667-.407.809 0 .407-.138.459-1.079.408-.462-.025-.954-.06-1.093-.078-.54-.069-3.785-.089-4.852-.03-2.069.114-3.888.357-5.666.757-1.095.247-1.794.469-1.794.571 0 .267 1.429 3.628 2.152 5.063.916 1.817 1.47 2.505 2.632 3.271 1.862 1.227 5.231 2.535 8.18 3.176 1.4.304 1.884.368 2.788.37.724.001.948-.027 1.34-.165 1.585-.56 3.544-1.776 5.287-3.281l.616-.532.906-1.811a63.16 63.16 0 0 0 2.871-6.59c1.57-4.153 2.78-8.431 3.317-11.732.283-1.736.328-2.237.328-3.589 0-1.786-.176-2.418-1.051-3.771-1.13-1.746-2.529-3.366-5.28-6.112-2.202-2.198-2.342-2.329-4.061-3.809-6.73-5.791-12.606-9.213-16.647-9.695-1.363-.163-2.574.129-4.428 1.065-2.446 1.235-5.635 3.651-8.532 6.463l-.93.903-.136-.179c-.384-.506-.413-.437.58-1.393 3.52-3.389 7.21-6.041 9.851-7.082 1.332-.525 2.497-.714 3.611-.588 4.508.513 10.776 4.235 18.307 10.871 1.134.999 4.892 4.762 5.718 5.725 2.152 2.509 3.19 4.052 3.571 5.31.669 2.206.033 6.907-1.724 12.76-2.333 7.771-5.913 15.247-8.9 18.587-1.351 1.51-2.272 2.069-4.109 2.492-.759.175-1.04.202-2.244.218-.757.01-1.474.004-1.593-.014zM14.738 64.47c-.941-.283-1.64-1.456-2.87-4.816l-.882-2.462c-.325-.916-.629-1.731-.677-1.811s-.176-.389-.286-.688c-.538-1.462-.789-2.04-1.53-3.512-.877-1.742-1.459-2.716-2.266-3.79-1.185-1.577-2.12-2.413-3.439-3.074-.444-.223-.86-.493-1.047-.68-.269-.269-.31-.352-.31-.62 0-.569.049-.619 2.064-2.13 1.591-1.193 2.433-1.754 3.181-2.12 1.195-.584 1.896-.64 2.729-.221.591.297.647.345 2.177 1.849 1.309 1.286 1.934 1.765 2.993 2.294.62.31 1.485.625 1.838.671.144.019.513.078.82.132.949.167 1.525.088 2.659-.365.792-.316.877-.335 1.562-.341.677-.006.756.009 1.208.23.95.463 1.714 1.682 1.838 2.928.06.599-.276 3.053-.737 5.38-1.559 7.883-4.024 12.351-7.234 13.112-.469.111-1.47.13-1.791.033zm5.873-5.899c.291-.1.388-.311 1.022-2.213.65-1.95 1.193-4.215 1.63-6.802.464-2.748.517-3.614.262-4.286-.442-1.164-1.307-1.82-2.252-1.708-.197.023-.677.17-1.067.326-1.012.405-1.388.482-2.337.475-1.439-.01-2.861-.445-4.388-1.341-.828-.486-1.286-.87-2.565-2.149-1.49-1.492-2.15-1.91-2.818-1.788-.736.135-1.951.842-3.663 2.132L2.95 42.319a5.15 5.15 0 0 0-.471.379l-.29.261.181.154c.329.279 1.296.717 1.829.828 2.112.439 3.831 1.565 4.916 3.22.222.339.755 1.251 1.185 2.028l1.488 2.686c1.897 3.42 3.294 5.279 4.526 6.023.572.346 1.635.698 2.335.774.645.07 1.607.021 1.96-.101zm28.312-20.747c-.183-.116-.355-.281-.382-.366-.047-.147-.055-2.119-.018-4.311l.017-1.014-.471-.018c-.578-.022-2.343-.199-3.512-.352-3.595-.473-6.108-1.333-7.094-2.43-.511-.568-.58-.735-.581-1.4-.001-.507.026-.627.213-.965.276-.498.749-.889 1.501-1.241 1.092-.511 2.222-.74 3.645-.739 1.767.002 3.963.658 5.507 1.646.532.34 1.357 1.125 1.637 1.557l.225.347.297-.444c.752-1.126 2.186-2.256 3.607-2.842 2.212-.913 4.121-1.317 5.362-1.137 1.092.159 1.806.633 2.229 1.481.561 1.124.08 2.302-1.394 3.409-1.929 1.449-5.276 2.645-8.289 2.961l-.815.086.007.657a36.23 36.23 0 0 0 .072 1.634c.116 1.735.138 2.851.06 3.092-.056.175-.165.276-.447.416-.516.257-.94.249-1.373-.026zm.927-.713c.055-.037.062-.404.024-1.212l-.06-1.285c-.004-.091-.066-.127-.223-.127h-.217v1.292c0 .71.022 1.313.048 1.34.064.064.33.06.428-.007zm-.644-5.875c.047-.005-.05-.16-.217-.344-1.373-1.518-4.652-2.631-7.761-2.635-.479-.001-.907-.025-.951-.054s-.12-.131-.17-.225c-.111-.211.008-.487.244-.562.305-.097 2.09-.026 3.101.123 2.067.306 3.902.982 5.256 1.936l.456.322-.047-.208c-.091-.408-.411-.975-.774-1.371-.864-.945-2.24-1.65-4.329-2.217-.528-.144-.785-.167-1.811-.166-1.072.001-1.277.023-1.992.206-1.049.27-1.75.615-2.178 1.072l-.336.36.03.466c.028.445.045.482.385.827.9.914 3.066 1.641 6.235 2.093 2.219.316 4.044.458 4.859.378zm1.954-.116c3.059-.206 7.292-1.862 8.704-3.407.347-.38.663-.935.663-1.166 0-.585-.574-1.288-1.221-1.496-1.179-.378-3.5.068-5.767 1.108-.961.441-1.999 1.22-2.627 1.97-.294.352-.921 1.493-.856 1.558.016.016.219-.115.452-.29 1.462-1.098 4.446-2.381 6.185-2.66.735-.118.999-.083 1.177.158.138.186.139.204.021.384-.144.22-.092.202-1.021.352-2.416.388-5.872 2.115-6.778 3.387l-.147.207.312-.033c.172-.018.578-.051.904-.073zm-1.497-.979c0-.04-.033-.072-.072-.072s-.072.033-.072.072.033.072.072.072.072-.033.072-.072z" fill="#775335"/><path d="M49.003 37.867c-.176-.093-.362-.247-.414-.344-.075-.138-.09-.732-.072-2.783l.023-2.607-.471-.018c-.578-.022-2.343-.199-3.512-.352-3.595-.473-6.108-1.333-7.094-2.43-.511-.568-.58-.735-.581-1.4-.001-.507.026-.627.213-.965.276-.498.749-.889 1.501-1.241 1.092-.511 2.222-.74 3.645-.739 1.767.002 3.963.658 5.507 1.646.532.34 1.357 1.125 1.637 1.557l.225.347.297-.444c.752-1.126 2.186-2.256 3.607-2.842 2.212-.913 4.121-1.317 5.362-1.137 1.092.159 1.806.633 2.229 1.481.561 1.124.08 2.302-1.394 3.409-1.929 1.449-5.276 2.645-8.289 2.961l-.815.086.001.548.07 1.815.089 2.147c.023.997-.015 1.088-.559 1.338a1.32 1.32 0 0 1-1.202-.032zm.846-.756c.055-.037.062-.404.024-1.212l-.06-1.285c-.004-.091-.066-.127-.223-.127h-.217v1.292l.048 1.34c.064.064.33.06.428-.007zm-.644-5.875c.047-.005-.05-.16-.217-.344-1.373-1.518-4.652-2.631-7.761-2.635-.479-.001-.907-.025-.951-.054s-.12-.131-.17-.225c-.111-.211.008-.487.244-.562.305-.097 2.09-.026 3.101.123 2.067.306 3.902.982 5.256 1.936l.456.322-.047-.208c-.091-.408-.411-.975-.774-1.371-.864-.945-2.24-1.65-4.329-2.217-.528-.144-.785-.167-1.811-.166-1.072.001-1.277.023-1.992.206-1.049.27-1.75.615-2.178 1.072-.338.279-.333.417-.307.826.028.445.045.482.385.827.9.914 3.066 1.641 6.235 2.093 2.219.316 4.044.458 4.859.378zm1.954-.116c3.059-.206 7.292-1.862 8.704-3.407.347-.38.663-.935.663-1.166 0-.585-.574-1.288-1.221-1.496-1.179-.378-3.5.068-5.767 1.108-.961.441-1.999 1.22-2.627 1.97-.294.352-.921 1.493-.856 1.558.016.016.219-.115.452-.29 1.462-1.098 4.446-2.381 6.185-2.66.735-.118.999-.083 1.177.158.138.186.139.204.021.384-.144.22-.092.202-1.021.352-2.416.388-5.872 2.115-6.778 3.387l-.147.207.312-.033.904-.073zm-1.497-.979c0-.04-.033-.072-.072-.072s-.072.033-.072.072.033.072.072.072.072-.033.072-.072z" fill="#0c5129"/></svg>