<svg xmlns="http://www.w3.org/2000/svg" xmlns:xlink="http://www.w3.org/1999/xlink" width="128" height="128" xmlns:v="https://vecta.io/nano"><defs><path id="A" d="M178.148 51.881V.902L125.583.701 0 120.381v51.153l53.289.083z"/><linearGradient x1="166.563" y1="12.599" x2="-10.529" y2="180.656" id="B" gradientUnits="userSpaceOnUse"><stop stop-color="#ff1c7c" offset="0%"/><stop stop-color="#4d7ee9" offset="100%"/></linearGradient><path d="M.839 83.279c-.163.163 85.816-.262 85.816-.262h0c.238.005.425-.179.419-.42h0 0L87.312.19h0C87.053.198.839 83.279.839 83.279" id="C"/><linearGradient x1="45.818" y1="76.791" x2="41.84" y2="-3.263" id="D" gradientUnits="userSpaceOnUse"><stop stop-color="#4d7ee9" offset="0%"/><stop stop-color="#ff1c7c" offset="100%"/></linearGradient></defs><g transform="matrix(.718503 0 0 .718503 .000014 2.080826)" fill="none" fill-rule="evenodd"><mask id="E" fill="#fff"><use xlink:href="#A"/></mask><path fill="url(#B)" mask="url(#E)" d="M0 171.535l53.289.083L178.148 51.881V.902L125.583.701 0 120.381z"/><g transform="translate(90.836 88.338)"><mask id="F" fill="#fff"><use xlink:href="#C"/></mask><path d="M.839 83.279c-.163.163 85.816-.262 85.816-.262h0c.238.005.425-.179.419-.42h0 0L87.312.19h0C87.053.198.839 83.279.839 83.279" fill="url(#D)" mask="url(#F)"/></g><path fill-opacity=".4" fill="#fff" d="M.001 171.535L178.148.902 125.584.702.001 120.382z"/></g></svg>