<svg xmlns="http://www.w3.org/2000/svg" width="128" height="128" xmlns:v="https://vecta.io/nano"><defs><radialGradient id="A" cx="399.7" cy="984.99" fx="-207.135" fy="667.881" r="815.27" gradientUnits="userSpaceOnUse" gradientTransform="matrix(0.06657824,0,0,0.06657824,-12.4501,-13.730108)"><stop offset=".33" stop-color="#00b7b0"/><stop offset=".96" stop-color="#0084c3"/></radialGradient><radialGradient id="B" cx="569.32" cy="1978" r="1152.54" gradientUnits="userSpaceOnUse" gradientTransform="matrix(0.06657824,0,0,0.06657824,-12.4501,-13.730108)"><stop offset=".24" stop-color="#00b8ae"/><stop offset=".53" stop-color="#00aab7"/><stop offset="1" stop-color="#008acb"/></radialGradient><radialGradient id="C" cx="1220.1" cy="1254.94" r="940.12" gradientUnits="userSpaceOnUse" gradientTransform="matrix(0.06657824,0,0,0.06657824,-12.4501,-13.730108)"><stop offset=".13" stop-color="#58c4c1"/><stop offset=".71" stop-color="#1b9abf"/><stop offset=".95" stop-color="#0088be"/></radialGradient><radialGradient id="D" cx="1370.19" cy="884.13" fx="1160.288" fy="671.258" r="876.09" gradientUnits="userSpaceOnUse" gradientTransform="matrix(0.06657824,0,0,0.06657824,-12.4501,-13.730108)"><stop offset=".13" stop-color="#6bc6c4"/><stop offset=".61" stop-color="#2ea0bd"/><stop offset=".96" stop-color="#0084b8"/></radialGradient></defs><path d="M0 10.1l.666.479c6.636 5.344 13.259 10.704 19.632 16.359 2.155 1.913 4.172 3.981 6.242 5.992q13.997 13.582 27.72 27.438 1.288 1.3 2.567 2.609c.167.171.32.356.521.582-.178.193-.315.359-.471.505l-9.874 9.223q-6.332 5.746-12.78 11.366c-2.585 2.264-5.256 4.434-8.067 6.42-.427.301-.87.579-1.305.866-.209.104-.24.126-.13-.118.103-.176.195-.359.308-.527 1.573-2.343 3.345-4.533 5.141-6.704 5.631-6.806 11.541-13.366 17.415-19.957.963-1.081.985-.87-.067-1.903-9.101-8.915-18.012-18.013-26.619-27.402C13.945 27.741 7.19 19.973 1.037 11.709c-.318-.426-.623-.862-.932-1.297-.032-.047-.038-.113-.105-.312z" fill="url(#A)"/><path d="M13.166 124.858l.391-.568 4.817-6.033c5.06-6.095 10.37-11.975 15.722-17.816q11.064-12.076 22.633-23.67 3.777-3.801 7.556-7.601c.23-.232.489-.436.781-.694.214.186.403.333.569.498 8.17 8.312 16.067 16.87 23.376 25.956 1.389 1.727 2.696 3.521 4.037 5.287.133.172.231.366.372.591-.319.099-.477-.08-.641-.2l-5.284-3.932c-4.826-3.809-9.471-7.834-14.115-11.862q-3.569-3.098-7.134-6.201c-.539-.466-.585-.466-1.096.013L53.092 89.999q-9.202 8.521-18.487 16.965c-3.78 3.427-7.633 6.775-11.492 10.115-2.969 2.569-5.988 5.081-9.155 7.409-.223.164-.453.318-.68.477z" fill="url(#B)"/><path d="M104.501 34.963l-1.16 1.72-5.82 7.443c-5.127 6.271-10.419 12.4-15.794 18.457l-.133.15c-.375.448-.379.507.042.932l3.74 3.79c9.85 10.046 19.533 20.248 28.904 30.743 4.079 4.568 8.098 9.188 11.842 14.038.583.754 1.141 1.531 1.707 2.295a.814.814 0 0 1 .172.466c-.208-.142-.422-.278-.625-.429-3.231-2.388-6.325-4.944-9.382-7.553-7.83-6.688-15.404-13.659-22.903-20.714q-9.963-9.374-19.641-19.041l-3.137-3.17c-.153-.155-.29-.327-.479-.542.164-.186.294-.357.447-.503l10.674-10.12q6.162-5.637 12.498-11.082c2.655-2.284 5.453-4.401 8.189-6.591.256-.204.354-.266.622-.457.256-.172.324-.123.324-.123s.049.032-.088.29z" fill="url(#C)"/><path d="M115.881 3.391c-1.922 2.573-9.771 11.73-14.98 17.538-11.491 12.82-23.352 25.28-35.898 37.157l-.646-.58c-3.447-3.334-6.674-6.877-9.862-10.453-5.105-5.732-10.079-11.576-14.847-17.596l-2.424-3.17c-.169-.223-.314-.466-.47-.696l.102-.116c.212.133.436.25.634.399l8.836 6.735q8.234 6.545 15.993 13.649c.64.583 1.265 1.182 1.891 1.778.674.638.666.636 1.314.007l10.595-10.298c8.741-8.356 17.678-16.499 26.932-24.284 4.107-3.454 8.326-6.774 12.496-10.153.673-.494.563-.228.332.083z" fill="url(#D)"/></svg>