<svg xmlns="http://www.w3.org/2000/svg" width="128" height="128" viewBox="0 0 33.867 33.867" fill="#131a2f" xmlns:v="https://vecta.io/nano"><path d="M0 15.183h1.883l.208-1.301a15.25 15.25 0 0 1 .881-2.841 15.25 15.25 0 0 1 1.395-2.574 15.19 15.19 0 0 1 4.096-4.096 15.08 15.08 0 0 1 2.574-1.395 15.21 15.21 0 0 1 2.84-.881l1.3-.208V0C7.18.822.817 7.181 0 15.183zm31.979 3.505a15.66 15.66 0 0 1-.208 1.301 15.25 15.25 0 0 1-.881 2.841 15.25 15.25 0 0 1-1.395 2.574 15.19 15.19 0 0 1-4.095 4.097 15.08 15.08 0 0 1-2.574 1.395 15.21 15.21 0 0 1-2.84.881 15.59 15.59 0 0 1-1.301.208v1.883a17.03 17.03 0 0 0 15.177-15.179zM11.036 30.895A15.25 15.25 0 0 1 8.462 29.5a15.13 15.13 0 0 1-2.244-1.852 15.19 15.19 0 0 1-1.851-2.245 15.08 15.08 0 0 1-1.395-2.574 15.22 15.22 0 0 1-.881-2.841 15.66 15.66 0 0 1-.208-1.301H0a17.03 17.03 0 0 0 15.177 15.179v-1.883a15.59 15.59 0 0 1-1.3-.208c-.971-.194-1.928-.492-2.84-.881zM18.685 0v1.883a15.59 15.59 0 0 1 1.301.208 15.21 15.21 0 0 1 2.84.881A15.25 15.25 0 0 1 25.4 4.367a15.19 15.19 0 0 1 4.096 4.096 15.08 15.08 0 0 1 1.395 2.574c.384.912.682 1.87.881 2.841a15.66 15.66 0 0 1 .208 1.301h1.888A17.04 17.04 0 0 0 18.685 0zm-7.342 8.111H8.114v3.229h3.229zm14.418 0h-4.358v4.358h4.358zm0 11.918v5.731h-5.73v-5.731zM9.993 23.877H8.114v1.879h1.878z"/><path d="M16.938 17.058l-8.706 8.703h-.118v-.122l8.701-8.703zm8.823-8.947v.122l-4.24 4.236-4.461 4.467-.122-.122 4.466-4.462 4.236-4.241z"/><path d="M16.938 16.814l-.122.122-8.701-8.703v-.122h.117zm8.823 8.825v.122h-.122l-8.702-8.703.122-.122z"/></svg>