<svg xmlns="http://www.w3.org/2000/svg" viewBox="0 0 128 242.5" height="128" width="128" xmlns:v="https://vecta.io/nano"><path d="M185.225 121.3c0 66.95-54.25 121.2-121.2 121.2-22.3 0-43.5-5.55-61.15-16.6-6.8-4.2-9.15-8.4-6.4-14.3 6.4-13.75 67.4-91.65 66.95-91.7 0 0-61.55 49.45-89.35 67.3-8.2 5.3-11.5.05-11.85-.4-9.15-11.85-19.45-43.1-19.45-65.6C-57.225 54.25-2.975 0 63.975 0s121.25 54.3 121.25 121.3z"/><g fill="#d91377"><path d="M76.875 65.95c.05 8.55-.5 17.05-1.6 25.5-5.9 7.7-10.05 14.65-11.85 19.9-1.85-5.25-5.9-12.1-11.75-19.75-1.1-8.55-1.6-17.15-1.6-25.75 0-29.85 13.4-54.15 13.4-54.15s13.4 24.4 13.4 54.25z"/><path d="M57.375 114.15c-4.9-2.4-12.65-4.4-22.15-5.7-6.9-5.35-13.4-11.1-19.55-17.25-21.1-21.1-28.8-47.75-28.8-47.75s26.6 7.7 47.75 28.8c6.15 6.1 11.85 12.6 17.15 19.45 1.2 9.55 3.2 17.4 5.6 22.45z"/><path d="M-45.125 120.05s24.2-13.4 54.15-13.4c8.75 0 17.5.55 26.2 1.65 7.65 6 14.6 10.1 19.75 11.85m16.6.05c5-1.65 11.85-5.55 19.4-11.3h0c8.85-1.2 17.75-1.75 26.7-1.7 29.85-.05 54.05 13.35 54.05 13.35"/><path d="M140.125 43.25s-7.7 26.6-28.8 47.75c-6.4 6.4-13.2 12.4-20.35 17.9h0c-9.15 1.3-16.65 3.25-21.45 5.5 2.5-5 4.55-13 5.85-22.9 5.3-6.85 11-13.35 17.15-19.45 21.05-21.05 47.6-28.8 47.6-28.8z"/></g><g fill="#53cbc8"><path d="M101.325 83.15c-2.6.5-5.15 1.25-7.55 2.25-7.7 3.1-14.8 7.55-21 13.05-.2-7.35-2.05-15.8-5.55-24.35-.95-2.35-2.15-4.6-3.6-6.65C74.425 51.1 95.425 44 95.425 44s9.85 20 5.9 39.15zm-37.7-15.65c-1.4 2.1-2.6 4.35-3.6 6.65-3.45 8.4-5.3 16.65-5.55 23.95-5.35-5-12.6-9.65-21-13.15-2.45-1-5-1.75-7.65-2.25-3.65-19.05 6.05-38.5 6.05-38.5s20.95 7 31.75 23.3z"/><path d="M40.875 110.95c-7.2.3-15.55 2.15-23.85 5.55-2.35 1-4.65 2.25-6.8 3.65-16.05-10.85-23-31.5-23-31.5s19.55-9.7 38.6-6c.5 2.65 1.25 5.2 2.25 7.7 3.45 8.25 7.9 15.3 12.8 20.6zm99.15-21.8s-6.95 20.55-22.9 31.45c-2.3-1.6-4.75-2.95-7.35-4.05-7.45-3.15-15.4-5.05-23.45-5.55 5.45-6.1 9.8-13.1 12.85-20.7.95-2.3 1.65-4.7 2.2-7.15 19.1-3.7 38.65 6 38.65 6z"/></g><path d="M79.525 120.4l28.65-18.4-33.65 7.5 6.95-33.55-17.85 28.55-19.95-28.55 9.1 33.55-35.75-7.5 31.15 18.4" fill="#53cbc8"/><path d="M69.375 122.45l52.35-2.35-51.55-2.75 35-39-38.9 35.45-2.75-53.1-2.4 53.1-39.35-36.2 36.25 40.1-53.6 2.4 52.75 2.35"/><path d="M74.875 120.45l19.95-13.15-23.45 5.4 4.8-23.95-12.4 20.35-13.9-20.35 6.35 23.95-24.9-5.4 21.75 13.15"/><g transform="matrix(.5 0 0 .5 -57.225 0)" fill="#d91377"><circle cx="111.4" cy="265.60001" r="8"/><path d="M198.7 273.5h-64.6c-4.4-1.5-6.7-6.3-5.2-10.7.8-2.4 2.8-4.3 5.2-5.2h84.7m-38.1 62h189.6c4.4 1.8 6.5 6.9 4.6 11.3-.9 2.1-2.5 3.7-4.6 4.6H168.7m-12.4 16.6h33.3c4.4 1.9 6.4 6.9 4.6 11.3-.9 2.1-2.5 3.7-4.6 4.6h-45m68.9-1.4c-4.4-1.5-6.7-6.3-5.2-10.7.8-2.4 2.7-4.3 5.2-5.2h196.4c4.4 1.9 6.4 6.9 4.6 11.3-.9 2.1-2.5 3.7-4.6 4.6zm39.1 31.1c-4.4-1.6-6.7-6.4-5.1-10.8.8-2.4 2.7-4.3 5.1-5.1h120.7c4.4 1.9 6.4 6.9 4.6 11.3-.9 2.1-2.5 3.7-4.6 4.6zm-73.9 31.5c-4.4-1.5-6.7-6.3-5.2-10.7.8-2.4 2.8-4.3 5.2-5.2h123.5c4.4 1.8 6.5 6.9 4.6 11.3-.9 2.1-2.5 3.7-4.6 4.6z"/><path d="M203.6 289.3h71.8c4.4 1.8 6.5 6.9 4.6 11.3-.9 2.1-2.5 3.7-4.6 4.6H192"/><circle cx="58.200001" cy="297.29999" r="8"/><circle cx="111.4" cy="327.5" r="8"/><circle cx="69.5" cy="360" r="8"/><circle cx="229.2" cy="389.89999" r="8"/><circle cx="156.5" cy="421.29999" r="8"/><path d="M157.7 305.3H80.2c-4.4-1.6-6.7-6.4-5.1-10.8.8-2.4 2.7-4.3 5.1-5.1h98.3m49.3-31.8h172.3c4.4 1.8 6.5 6.9 4.6 11.3-.9 2.1-2.5 3.7-4.6 4.6H216"/></g></svg>