<svg xmlns="http://www.w3.org/2000/svg" viewBox="0 0 128 237.5" height="128" width="128" xmlns:v="https://vecta.io/nano"><path d="M182.725 118.8c0 65.55-53.15 118.7-118.7 118.7-21.85 0-42.6-5.45-59.9-16.25-6.65-4.1-8.95-8.2-6.25-14 6.25-13.5 66.05-89.75 65.55-89.8 0 0-60.3 48.45-87.5 65.9-8 5.2-11.25.05-11.6-.4-8.95-11.6-19.05-42.2-19.05-64.25C-54.725 53.15-1.575 0 63.975 0s118.75 53.15 118.75 118.8z" fill="#0e122f"/><g fill="#55c8c5"><path d="M76.575 64.6c.05 8.35-.5 16.7-1.55 25-5.8 7.55-9.85 14.35-11.6 19.45-1.8-5.1-5.8-11.85-11.5-19.35-1.05-8.35-1.6-16.75-1.55-25.2 0-29.25 13.15-53 13.15-53s13.05 23.85 13.05 53.1z"/><path d="M57.525 111.8c-4.8-2.35-12.4-4.3-21.7-5.6-6.75-5.2-13.15-10.85-19.15-16.9-20.65-20.7-28.2-46.8-28.2-46.8s26.05 7.55 46.75 28.25c6 5.95 11.6 12.35 16.8 19.05 1.2 9.4 3.15 17.05 5.5 22z"/><path d="M55.175 117.65c-5.05 1.7-11.95 5.65-19.55 11.45h0c-8.45 1.1-16.95 1.65-25.45 1.6-29.25 0-53-13.15-53-13.15s23.7-13.15 53-13.15c8.6 0 17.15.5 25.65 1.6 7.5 5.9 14.3 9.95 19.35 11.65zm36.3 41.7c-6.1-6.05-11.45-7.2-16.7-14-1.2-9.05-3.1-16.45-5.3-21.3 4.9 2.35 12.65 4.25 22.1 5.5 6.6 5.15 12.85 10.65 18.75 16.55"/><path d="M169.525 118.05s-23.7 13.15-53 13.15c-8.3.05-16.6-.5-24.85-1.55-7.9-6.05-15-10.25-20.2-11.95 4.9-1.6 11.6-5.45 19-11.05h0c8.65-1.15 17.4-1.7 26.15-1.7 29.15-.05 52.9 13.1 52.9 13.1z"/><path d="M138.575 42.4s-7.55 26.05-28.25 46.75c-6.25 6.25-12.9 12.1-19.95 17.5h0c-8.95 1.3-16.3 3.15-21 5.4 2.45-4.9 4.45-12.75 5.75-22.45 5.15-6.7 10.75-13.1 16.8-19.05 20.65-20.6 46.65-28.15 46.65-28.15z"/></g><g fill="#f2b705"><path d="M100.575 81.45c-2.55.5-5 1.25-7.4 2.2-7.55 3.05-14.5 7.4-20.55 12.8-.2-7.2-2-15.5-5.45-23.85-.95-2.3-2.1-4.5-3.5-6.55 10.6-16.05 31.15-23 31.15-23s9.6 19.6 5.75 38.4zm-36.9-15.35c-1.4 2.05-2.55 4.25-3.5 6.55-3.35 8.2-5.2 16.3-5.45 23.45-5.25-4.9-12.35-9.45-20.55-12.85-2.4-1-4.9-1.75-7.5-2.2-3.55-18.65 5.95-37.75 5.95-37.75s20.45 6.85 31.05 22.8z"/><path d="M41.375 108.7c-7.05.25-15.25 2.1-23.4 5.45-2.3 1-4.55 2.2-6.65 3.55-15.7-10.65-22.5-30.85-22.5-30.85s19.15-9.5 37.8-5.85c.5 2.6 1.25 5.1 2.2 7.55 3.35 8 7.75 14.95 12.55 20.15zm97.05-21.4s-6.8 20.15-22.45 30.8c-2.25-1.55-4.65-2.9-7.2-4-7.3-3.1-15.05-4.95-23-5.45 5.35-6 9.6-12.85 12.6-20.3.9-2.25 1.65-4.6 2.15-7 18.8-3.55 37.9 5.95 37.9 5.95z"/><path d="M138.325 148.85s-19.35 9.55-38.05 5.85c-.5-2.55-1.25-5-2.2-7.4-2.95-7.25-7.05-13.95-12.2-19.9 7.05-.25 15.1-2.1 23.25-5.45 2.45-1 4.8-2.3 7-3.85 15.45 10.8 22.2 30.75 22.2 30.75z"/></g><path d="M107.225 99.9l-32.95 7.35 6.85-32.85-17.45 27.95-19.55-27.95 8.9 32.85-35.05-7.35 30.5 18-16.5 12.95 21.05-2.3.1 9.45 10.55-4.95 12.25 16.05-1.2-20.55 32.5 7.5-28-18.15z" fill="#f2b705"/><g fill="#0e122f"><path d="M104.325 76.75l-38.1 34.7-2.7-52-2.35 52L22.625 76l35.5 39.3-52.5 2.35 51.7 2.3-10.35 11.25 14.2-7.75 2.35 51.6 2.3-51.3 37.8 34.3-34.4-38.1 51.3-2.3-50.45-2.7z"/><path d="M94.175 105.1l-22.95 5.25 4.7-23.45-12.15 19.95-13.6-19.95 6.2 23.45-24.4-5.25 21.3 12.9-21.3 12.85 24.4-5.35-6.2 23.6 13.6-20.35 12.15 20.35-4.45-23.6 22.7 5.35L74.625 118z"/><path d="M-30.675 138.95c-1.8 1.2-6 .75-7.8-1.45-2-2.4-1-5.5.8-7.5 6.8-6.55 14.75-11.8 23.4-15.5 9.8-3.65 20.1-5.75 30.6-6.25 53.45-1.85 55.1 30.05 96.7 35.55 20.05 2.65 32.9-7.35 40.5-15.4 2.65-1.4 6.05-.2 8.05 1.65 1.85 1.95 1.85 4.95 0 6.9-10.8 9.9-20.55 20.55-49.35 18.5-36.8-2.55-42.05-39.1-95.35-35.55-11 .75-19.1 2.7-27 6.55-9.55 4.55-10.1 5.5-20.55 12.5z"/></g><path d="M-.375 166.45V147.3c1.15-3.3 4.8-5.05 8.1-3.9 1.8.65 3.25 2.05 3.9 3.9v10.45m-35.55 25.6V159.8c1.15-3.3 4.8-5.05 8.1-3.9 1.8.65 3.25 2.05 3.9 3.9v15.25m47.35-20.75v71.3c-1.4 3.3-5.2 4.85-8.55 3.45-1.55-.65-2.8-1.9-3.45-3.45v-55.35m23.1-13.1c1.15-3.3 4.8-5.05 8.1-3.9 1.8.65 3.25 2.05 3.9 3.9v44.4c-1.4 3.3-5.2 4.85-8.55 3.45-1.55-.65-2.8-1.9-3.45-3.45zm22.85 13.55c1.15-3.3 4.8-5.05 8.1-3.9 1.8.65 3.25 2.05 3.9 3.9v14.8c-1.4 3.3-5.2 4.85-8.55 3.45-1.55-.65-2.8-1.9-3.45-3.45zm23.9 8.6c1.15-3.3 4.8-5.05 8.1-3.9 1.8.65 3.25 2.05 3.9 3.9v46.4c-1.4 3.3-5.2 4.85-8.5 3.45-1.55-.65-2.8-1.9-3.45-3.45zm23.7 2.75c1.15-3.3 4.8-5.05 8.1-3.9 1.8.65 3.25 2.05 3.9 3.9v33.65c-1.4 3.3-5.2 4.85-8.55 3.45-1.55-.65-2.8-1.9-3.45-3.45zm23.2-5.45c1.15-3.3 4.8-5.05 8.1-3.9 1.8.65 3.25 2.05 3.9 3.9v20.15c-1.4 3.3-5.2 4.85-8.5 3.5-1.55-.65-2.8-1.9-3.5-3.5zm-165.7-26.05c-1.7 1.35-5.95.75-7.8-1.45-1.95-2.4-1-5.5.8-7.5 6.8-6.55 14.7-11.8 23.35-15.5 9.8-3.65 20.1-5.75 30.5-6.25 53.3-1.85 51.35 35.7 96.45 35.55 20.15-.05 32.8-7.35 40.4-15.4 2.65-1.4 6.05-.2 8 1.65 1.8 1.95 1.8 4.95 0 6.9-10.8 9.9-29.45 18.5-49.2 17.85-47.5-1.6-47.6-35.25-95.15-34.9-11 .1-19.05 2.05-26.95 5.85-9.4 4.6-12.05 6.4-20.4 13.2zm37.15 35.95v22.05c-1.4 3.3-5.2 4.85-8.55 3.45-1.55-.65-2.8-1.9-3.45-3.45v-4.6" fill="#55c8c5"/></svg>