<svg xmlns="http://www.w3.org/2000/svg" viewBox="0 0 128 209" height="128" width="128" xmlns:v="https://vecta.io/nano"><path d="M168.500147 104.55008515c0 57.713848-46.811232 104.475068-104.475068 104.475068-19.204608 0-37.458988-4.801152-52.712648-14.303432-5.851404-3.600864-7.901896-7.25174-5.50132-12.352964 5.50132-11.852844 58.113944-79.01896 57.713848-79.068972 0 0-53.062732 42.660236-77.01848 58.01392-7.051692 4.551092-9.902376.050012-10.202448-.350084-7.901896-10.152436-16.804032-37.108904-16.804032-56.51356 0-57.663836 46.811232-104.475068 104.475068-104.475068 57.713848 0 104.52508 46.811232 104.52508 104.575092z" fill="#1fde4e"/><g fill="#e190dc"><path d="M75.077731 56.83863715c.050012 7.351764-.400096 14.703528-1.350324 22.00528-5.101224 6.651596-8.652076 12.653036-10.202448 17.154116-1.600384-4.50108-5.101224-10.452508-10.152436-17.00408-.950228-7.351764-1.400336-14.75354-1.350324-22.155316 0-25.75618 11.552772-46.661196 11.552772-46.661196s11.50276 20.955028 11.50276 46.661196z"/><path d="M58.323711 98.34859715c-4.201008-2.100504-10.902616-3.800912-19.104584-4.901176-5.951428-4.601104-11.552772-9.552292-16.854044-14.903576-18.204368-18.204368-24.855964-41.159876-24.855964-41.159876s22.955508 6.651596 41.159876 24.855964c5.301272 5.25126 10.25246 10.852604 14.75354 16.804032 1.100264 8.25198 2.800672 15.0036 4.901176 19.304632z"/><path d="M56.223207 103.49983315c-4.451068 1.50036-10.50252 5.0012-17.204128 10.102424h0c-7.451788.950228-14.903576 1.450348-22.405376 1.400336-25.75618 0-46.661196-11.552772-46.661196-11.552772s20.855004-11.552772 46.661196-11.552772c7.551812 0 15.103624.450108 22.605424 1.400336 6.551572 5.201248 12.553012 8.7521 17.00408 10.202448z"/><path d="M58.173675 108.75109315c-2.100504 4.25102-3.800912 10.952628-4.851164 19.154596-4.601104 6.00144-9.602304 11.702808-15.0036 17.00408-18.204368 18.204368-41.159876 24.855964-41.159876 24.855964s6.651596-22.955508 24.855964-41.159876c5.351284-5.401296 11.00264-10.402496 17.00408-15.0036h0c8.201968-1.050252 14.903576-2.800672 19.154596-4.851164z"/><path d="M74.977707 150.36107715c0 25.75618-11.552772 46.661196-11.552772 46.661196s-11.50276-20.955028-11.50276-46.661196c0-7.5018.450108-15.0036 1.400336-22.405376 5.101224-6.75162 8.652076-12.803072 10.152436-17.25414 1.50036 4.50108 5.0012 10.552532 10.152436 17.25414.900216 7.451788 1.350324 14.903576 1.350324 22.405376z"/><path d="M129.640823 169.76573315s-22.955508-6.651596-41.159876-24.855964c-5.401296-5.351284-10.402496-11.00264-15.0036-17.00408-1.050252-7.951908-2.75066-14.453468-4.701128-18.7545 4.351044 2.100504 11.152676 3.7509 19.454668 4.851164 5.801392 4.50108 11.302712 9.402256 16.50396 14.603504 18.304392 18.25438 24.905976 41.159876 24.905976 41.159876z"/><path d="M156.847351 103.89992915s-20.855004 11.552772-46.661196 11.552772c-7.301752.050012-14.603504-.400096-21.905256-1.350324-6.951668-5.351284-13.203168-9.00216-17.804272-10.50252 4.351044-1.400336 10.202448-4.801152 16.704008-9.702328h0c7.651836-1.00024 15.303672-1.50036 23.00552-1.50036 25.806192-.100024 46.661196 11.50276 46.661196 11.50276z"/><path d="M129.640823 37.28394515s-6.651596 22.955508-24.855964 41.159876c-5.50132 5.50132-11.352724 10.652556-17.554212 15.403696h0c-7.901896 1.150276-14.353444 2.800672-18.50444 4.75114 2.150516-4.351044 3.900936-11.202688 5.051212-19.75474 4.551092-5.901416 9.50228-11.50276 14.75354-16.804032 18.204368-18.104344 41.109864-24.75594 41.109864-24.75594z"/></g><g fill="#fb40ee"><path d="M96.182795 71.69220115c-2.25054.400096-4.401056 1.100264-6.50156 1.950468-6.651596 2.700648-12.75306 6.50156-18.104344 11.2527-.200048-6.351524-1.800432-13.653276-4.801152-21.00504-.800192-2.00048-1.850444-3.950948-3.100744-5.75138 9.302232-14.103384 27.406576-20.204848 27.406576-20.204848s8.50204 17.204128 5.101224 33.7581z"/><path d="M63.674995 58.13894915c-1.200288 1.800432-2.25054 3.7509-3.100744 5.75138-2.950708 7.25174-4.551092 14.353444-4.801152 20.654956-4.601104-4.351044-10.852604-8.301992-18.104344-11.302712-2.100504-.850204-4.351044-1.50036-6.601584-1.950468-3.150756-16.403936 5.201248-33.207968 5.201248-33.207968s18.104344 6.00144 27.406576 20.054812z"/><path d="M44.070291 95.64794915c-6.2515.25006-13.403216 1.850444-20.554932 4.801152-2.050492.900216-4.00096 1.950468-5.851404 3.150756-13.803312-9.352244-19.804752-27.156516-19.804752-27.156516s16.854044-8.352004 33.25798-5.151236c.400096 2.25054 1.100264 4.50108 1.950468 6.651596 2.950708 7.00168 6.801632 13.103144 11.00264 17.704248z"/><path d="M44.270339 111.70180115c-4.201008 4.551092-8.051932 10.652556-11.052652 17.804272-.900216 2.100504-1.550372 4.301032-1.950468 6.50156-16.553972 3.400816-33.708088-5.101224-33.708088-5.101224s6.051452-17.954308 20.054812-27.356564c1.900456 1.350324 3.950948 2.450588 6.101464 3.300792 6.551572 2.800672 13.453228 4.451068 20.554932 4.851164z"/><path d="M63.524959 149.66090915c-9.452268 13.7533-27.106504 19.75474-27.106504 19.75474s-8.352004-16.904056-5.151236-33.408016c2.100504-.450108 4.201008-1.050252 6.151476-1.900456 6.601584-2.650636 12.703048-6.451548 17.954308-11.202688.350084 7.101704 2.00048 14.103384 4.801152 20.654956.950228 2.100504 2.050492 4.150996 3.350804 6.101464zm66.01584-72.817472s-6.00144 17.75426-19.75474 27.106504c-2.00048-1.400336-4.100984-2.550612-6.351524-3.50084-6.401536-2.75066-13.25318-4.351044-20.204848-4.801152 4.701128-5.25126 8.452028-11.302712 11.102664-17.854284.800192-2.00048 1.450348-4.050972 1.900456-6.151476 16.453948-3.150756 33.307992 5.201248 33.307992 5.201248z"/><path d="M90.681475 169.46566115s-17.804272-6.00144-27.156516-19.804752c1.300312-1.950468 2.450588-4.00096 3.400816-6.151476 2.75066-6.451548 4.351044-13.303192 4.801152-20.304872 4.551092 4.201008 10.652556 8.051932 17.804272 11.052652 2.050492.850204 4.201008 1.50036 6.401536 1.900456 3.100744 16.403936-5.25126 33.307992-5.25126 33.307992z"/><path d="M129.390763 130.95642115s-17.00408 8.402016-33.50804 5.151236c-.400096-2.25054-1.100264-4.401056-1.950468-6.50156-2.600624-6.401536-6.201488-12.302952-10.75258-17.5042 6.2515-.25006 13.303192-1.850444 20.454908-4.801152 2.150516-.900216 4.25102-2.050492 6.151476-3.400816 13.703288 9.50228 19.604704 27.056492 19.604704 27.056492z"/></g><path d="M50.371803 103.74989315l-26.906456 15.953828 30.857404-6.551572-7.801872 28.956948 17.154116-25.006 15.403696 25.006-5.651356-28.956948 28.656876 6.551572-24.705928-15.953828 24.705928-15.803792-29.00696 6.451548 6.00144-28.956948-15.403696 24.605904-17.154116-24.605904 7.801872 28.956948-30.857404-6.451548z" fill="#ae1a63"/><path d="M58.123663 105.55032515l-30.207248 32.907896 33.608064-29.857164 2.050492 45.460908 2.00048-45.160836 33.307992 30.207248-30.25726-33.558052 45.110824-2.050492-44.410656-2.350564 30.207248-33.608064-33.558052 30.50732-2.400576-45.76098-2.050492 45.76098-33.958148-31.157476 31.2575 34.558292-46.211088 2.050492z" fill="#ff2ad8"/><path d="M54.572811 103.79990515l-18.7545 11.352724 21.455148-4.701128-5.451308 20.75498 12.00288-17.904296 10.652556 17.904296-3.900936-20.75498 20.0048 4.701128-17.204128-11.352724 17.204128-11.302712-20.25486 4.601104 4.150996-20.604944-10.652556 17.554212-12.00288-17.554212 5.451308 20.604944-21.455148-4.601104z" fill="#ff5006"/></svg>