<svg xmlns="http://www.w3.org/2000/svg" width="128" height="128" xmlns:v="https://vecta.io/nano"><path fill-rule="evenodd" d="M63.952 128c-19.006-.014-34.316-4.529-45.014-12.638C8.113 107.156 2.37 95.51 2.37 82.332c0-12.697 5.73-21.853 12.214-28.042 5.081-4.85 10.688-7.956 14.593-9.743-.883-2.682-1.984-6.194-2.97-9.821-1.319-4.853-2.612-10.548-2.612-14.72 0-4.939 1.087-9.899 4.02-13.753C30.715 2.182 35.38 0 40.992 0c4.386 0 8.11 1.611 11.026 4.389 2.787 2.655 4.642 6.183 5.922 9.859 2.25 6.46 3.126 14.577 3.372 22.678h5.376c.246-8.101 1.122-16.217 3.373-22.678 1.281-3.677 3.135-7.203 5.922-9.859C78.897 1.611 82.621 0 87.008 0c5.612 0 10.278 2.182 13.376 6.253 2.933 3.854 4.021 8.815 4.021 13.753 0 4.172-1.293 9.867-2.613 14.72a199.15 199.15 0 0 1-2.97 9.821c3.904 1.787 9.512 4.893 14.593 9.743 6.484 6.188 12.214 15.344 12.214 28.041 0 13.178-5.743 24.824-16.569 33.03-10.697 8.109-26.008 12.624-45.014 12.638z" fill="#633001"/><path d="M40.992 4.697c-8.22 0-12.004 6.133-12.004 14.614 0 6.741 4.397 20.242 6.201 25.498.406 1.183-.232 2.477-1.395 2.936-6.588 2.598-26.031 12.109-26.031 33.892 0 22.946 19.759 40.247 56.194 40.274h.087c36.436-.027 56.193-17.328 56.193-40.274 0-21.783-19.442-31.294-26.03-33.892-1.163-.458-1.801-1.753-1.395-2.936 1.804-5.255 6.201-18.757 6.201-25.498 0-8.481-3.784-14.614-12.004-14.614-11.833 0-14.782 16.761-14.993 34.751-.014 1.201-.985 2.175-2.186 2.175H58.17c-1.201 0-2.172-.974-2.185-2.175-.21-17.99-3.16-34.751-14.993-34.751z" fill="#d1884f"/><path d="M64.043 114.561c-26.771 0-56.234-14.33-56.28-32.881v.086c0 22.964 19.789 40.275 56.28 40.275s56.28-17.31 56.28-40.275v-.086c-.046 18.55-29.509 32.881-56.28 32.881z" fill="#fedc90"/><path d="M49.169 75.983c0 6.263-2.96 9.525-6.611 9.525s-6.611-3.262-6.611-9.525 2.96-9.525 6.611-9.525 6.611 3.262 6.611 9.525zm42.971 0c0 6.263-2.959 9.525-6.611 9.525s-6.611-3.262-6.611-9.525 2.959-9.525 6.611-9.525 6.611 3.262 6.611 9.525z" fill="#633001"/></svg>