<svg xmlns="http://www.w3.org/2000/svg" width="128" height="128" xmlns:v="https://vecta.io/nano"><style><![CDATA[.I{fill:#ff6300}.J{fill:#ffed00}.K{fill:#eacc00}.L{fill:#690bd6}.M{fill:#00d1d8}.N{fill:#5200a9}]]></style><path d="M29.124 85.95a6.621 6.621 0 0 0-3.146-2.885 6.533 6.533 0 0 0-4.152-.362 5.794 5.794 0 0 0-3.322 2.198 7.363 7.363 0 0 0-1.324 3.907l-.026.551-.018.667-.07 1.357-.308 2.759a18.475 18.475 0 0 1-.68 2.844 10.665 10.665 0 0 1-1.445 2.893 7.94 7.94 0 0 1-1.218 1.331 7.288 7.288 0 0 1-1.551 1.034 9.147 9.147 0 0 1-3.361.864 19.132 19.132 0 0 1-2.973-.034l-2.64-.259.688-5.132c1.737.295 3.361.618 4.685.613a4.63 4.63 0 0 0 1.665-.259 2.921 2.921 0 0 0 1.197-.869 6.337 6.337 0 0 0 .975-1.662 14.16 14.16 0 0 0 .677-2.151c.184-.763.321-1.551.434-2.366l.15-1.22.062-.623.083-.739a12.19 12.19 0 0 1 .776-2.937 10.021 10.021 0 0 1 1.606-2.678 8.979 8.979 0 0 1 5.331-3.061 9.416 9.416 0 0 1 5.946.9 9.194 9.194 0 0 1 4.098 4.253z" class="I"/><path d="M83.583 80.559l-2.053 3.097 2.557 2.741-3.581-.817-1.143 2.384 3.167 2.317-3.922-.577-.739 2.469 3.705 2.603-3.925-.502-.083 2.906 19.047 4.894 3.808-8.216z" class="K"/><path d="M89.268 95.229l1.763-3.126 2.921 1.194-1.818-2.932 2.234-1.973 8.434 7.089-3.733 7.089-10.841-2.032.535-3.935 3.488.359z" class="I"/><path d="M55.04 99.448l-3.663.608-.264 3.738-1.843-3.177-2.523.789.46 3.896-2.249-3.263-2.309 1.138.618 4.488-2.306-3.214-2.185 1.918 9.398 17.276 8.604-2.81z" class="K"/><path d="M48.179 113.606l3.49-.84 1.114 2.953.907-3.327 2.965.29.558 11.003-7.733 2.097-5.9-9.318 3.245-2.291 2.115 2.8z" class="I"/><path d="M73.092 22.386L72.277 6.39l-9-1.51-6.564 15.212z" class="M"/><path d="M68.585 11.268l-3.268-.923.447-2.953-2.291 2.324-2.314-1.613 3.707-5.884 7.666 2.875.571 6.008-3.141.323-.447-3.289z" class="I"/><path d="M70.061 16.773h-.039l-2.13-.158a.385.385 0 0 1-.349-.302l-.204-.959-.308.97a.388.388 0 0 1-.416.259l-2.229-.259a.393.393 0 0 1-.341-.349l-.09-.97-.362.915a.388.388 0 0 1-.465.23l-2.5-.703a.38.38 0 0 1-.238-.194.39.39 0 0 1-.023-.305l1.125-3.229a.389.389 0 1 1 .734.259l-.982 2.844 1.766.494.83-2.094a.388.388 0 0 1 .416-.24.383.383 0 0 1 .331.346l.212 2.27 1.6.191.649-2.04a.398.398 0 0 1 .388-.259.385.385 0 0 1 .359.305l.455 2.076 1.469.109.271-2.399a.39.39 0 0 1 .776.088l-.313 2.769a.388.388 0 0 1-.39.336zm4.3 86.039l7.955-8.118-.737-2.769 3.131 1.306 4.015-3.604-2.591-4.139-6.652-8.17L28.271 89.37l-1.295 18.258 3.516 1.445 14.848-.096 2.107-2.407 1.528 1.996 4.734-.533.315-2.834 2.221 2.547 4.868-1.14.3-2.945 2.283 2.521 5.393-1.484.496-2.867zM28.656 86.927c-.548-1.184-1.81-1.936-3.198-2.138a5.98 5.98 0 0 0-4.041.845 5.225 5.225 0 0 0-2.275 3.19 7.477 7.477 0 0 0-.212 2.102c0 .181.021.365.031.548l.047.683.065 1.375a26.33 26.33 0 0 1-.375 5.688 14.22 14.22 0 0 1-.882 2.955 9.744 9.744 0 0 1-1.83 2.844 8.811 8.811 0 0 1-2.89 2.032 12.048 12.048 0 0 1-3.154.858c-2.045.282-3.917.186-5.559.225l.057-5.171 2.629.14a19.199 19.199 0 0 0 2.327 0 7.275 7.275 0 0 0 1.931-.375 4.137 4.137 0 0 0 1.453-.869c.84-.776 1.463-2.055 1.838-3.534a22.402 22.402 0 0 0 .595-4.793l.021-1.254v-.633-.776a11.073 11.073 0 0 1 .553-3.082 8.881 8.881 0 0 1 1.564-2.844 8.359 8.359 0 0 1 2.503-2.048 8.948 8.948 0 0 1 6.127-.838 7.498 7.498 0 0 1 2.893 1.321 6.368 6.368 0 0 1 1.169 1.161 6.078 6.078 0 0 1 .812 1.445z" fill="#0ff"/><path d="M30.102 85.647c-.222-1.404-1.158-2.637-2.423-3.493a9.289 9.289 0 0 0-4.369-1.507 8.79 8.79 0 0 0-4.478.737 7.079 7.079 0 0 0-3.165 2.914 9.049 9.049 0 0 0-.856 2.068 10.698 10.698 0 0 0-.259 1.13l-.085.582-.021.15-.021.178-.039.357a23.486 23.486 0 0 1-.533 2.893 13.333 13.333 0 0 1-1.119 2.978 8.591 8.591 0 0 1-1.008 1.489 6.427 6.427 0 0 1-1.551 1.326 5.667 5.667 0 0 1-2.081.763 6.205 6.205 0 0 1-2.146-.044 8.532 8.532 0 0 1-3.415-1.551 9.742 9.742 0 0 1-1.35-1.21A7.335 7.335 0 0 1 0 93.724l4.692-2.172a1.955 1.955 0 0 0 .313.546 4.809 4.809 0 0 0 .597.646 3.969 3.969 0 0 0 1.362.832 1.836 1.836 0 0 0 .533.088 1.15 1.15 0 0 0 .455-.096 2.844 2.844 0 0 0 1.099-1.065 9.191 9.191 0 0 0 .941-1.986 19.569 19.569 0 0 0 .644-2.36l.127-.646.153-.745a14.827 14.827 0 0 1 .411-1.479 12.524 12.524 0 0 1 1.357-2.828 10.66 10.66 0 0 1 2.12-2.391 10.429 10.429 0 0 1 2.761-1.631 11.893 11.893 0 0 1 6.086-.703 12.087 12.087 0 0 1 5.597 2.275 8.992 8.992 0 0 1 2.138 2.298 7.138 7.138 0 0 1 1.081 3.038z" class="J"/><path d="M87.435 85.417s-3.844-7.699-4.586-11.249l-2.865-14.088-26.415 6.435 2.234 9.362-23.165 6.515c-5.734 3.335-6.306 10.6-6.306 10.6l2.8 1.859 3.402-2.986-.09 4.819 3.878 1.334 2.681-3.72 1.132 4.429 4.062.114 1.598-4.928 3.545 4.499 4.333-.869.957-5.067 2.784 3.989 5.233-1.096.654-4.504 3.214 3.811 3.767-.869.985-5.287 4.444 3.384 4.038-1.784-.579-4.654 4.527 2.702z" class="L"/><path d="M96.875 32.675c-2.808-9.974-43.362-15.174-43.362-15.174L42.452 6.516l-6.694 3.408 8.532 17.725 7.979 33.434.796 14.582-19.649 5.882-3.966 2.117 6.117 2.712 3.689-3.472-.132 4.16 5.946.411 1.608-4.325 1.83 3.938 5.636-1.114.584-4.873 3.511 4.892 5.701-1.843.145-5.429 2.8 5.093 4.323-1.088.445-6.06 3.705 5.352 4.47-1.706-.667-5.933 3.788 4.866 3.397-1.957-4.325-8.48-3.746-17.154S98.93 39.948 96.875 32.675z" class="J"/><path d="M45.045 25.548l6.544 37.835 4.31.171.776-4.824 2.05 4.504 4.119-.406.225-5.23 1.934 5.029 4.137-.858-.134-5.429 2.529 4.654 3.62-1.034-.24-5.316 2.88 4.46 2.516-1.81-2.042-5.621s19.69-9.434 18.749-17.798-51.969-8.325-51.969-8.325z" fill="#0ff"/><path d="M53.512 17.502l-8.141-8.095-6.145 7.723 5.073 10.528 3.909 20.37 3.958.191 1.368-6.673 1.334 6.368 4.227-.476 1.536-7.006 2.105 6.608 4.695-.517.31-7.05 3.317 6.484 3.976-1.624-.776-6.929 3.981 6.244 3.245-1.792-.471-6.823 4.439 4.974 4.987-2.748-1.251-5.67 3.878 3.697 3.102-1.962.613-2.068c-6.218-9.543-43.269-13.754-43.269-13.754z" class="L"/><path d="M46.94 36.442a.385.385 0 0 1-.388-.38.39.39 0 0 1 .383-.396l3.18-.044.954-4.478a.393.393 0 0 1 .398-.305.388.388 0 0 1 .367.344l.478 4.258 2.64-.023.851-4.258a.385.385 0 0 1 .367-.313.372.372 0 0 1 .388.29l1.184 4.475 3.382-.548.716-5.104a.388.388 0 0 1 .437-.331.393.393 0 0 1 .331.44l-.755 5.385a.388.388 0 0 1-.336.323l-4.01.649a.385.385 0 0 1-.437-.282l-.843-3.185-.569 2.914a.39.39 0 0 1-.372.318l-3.304.028a.388.388 0 0 1-.388-.344l-.259-2.234-.517 2.443a.39.39 0 0 1-.375.308l-3.495.049z" class="N"/><path d="M64.984 44.687a7.182 7.182 0 1 1 6.254-7.999 7.18 7.18 0 0 1-6.254 7.999z" fill="#fff"/><path d="M43.422 27.668l2.805-1.515-.913-3.428 2.627 2.28 2.017-1.481-1.611-3.345 3.017 2.229 1.717-1.73-1.931-3.829 3.053 2.169 1.363-2.386-11.766-9.695-7.182 5.628z" fill="#0ff"/><path d="M44.913 12.952l-2.888 1.792-1.88-2.322.173 3.258-2.751.623-1.846-6.709 7.291-3.72L47.838 9.5l-1.88 2.539-2.73-1.885z" class="I"/><path d="M44.838 19.617a.427.427 0 0 1-.098 0 .393.393 0 0 1-.243-.191l-1.621-3.009a.388.388 0 0 1 .155-.517.393.393 0 0 1 .517.155l1.43 2.637 1.551-.97-.99-2.027a.388.388 0 0 1 .584-.478l1.81 1.373 1.22-1.052-1.068-1.854a.388.388 0 0 1 .08-.483.383.383 0 0 1 .489-.021l1.479 1.114.876-1.008a.391.391 0 1 1 .587.517l-1.091 1.262a.39.39 0 0 1-.517.057l-.259-.191.282.489a.388.388 0 0 1-.083.486l-1.699 1.469a.39.39 0 0 1-.489.016l-.776-.587.427.879a.39.39 0 0 1-.145.499l-2.205 1.373a.383.383 0 0 1-.204.065z" class="M"/><path d="M81.347 89.973l-3.268 1.763.964 3.622-2.774-2.41-2.13 1.567 1.701 3.537-3.185-2.358-1.818 1.828 2.042 4.046-3.227-2.293-1.44 2.523 14.496 13.289 7.226-5.453z" class="J"/><path d="M79.454 105.591l3.027-1.929 2.014 2.43-.222-3.441 2.898-.69 4.1 10.228-6.632 4.493-8.607-6.898 2.327-3.219 2.909 1.96z" class="I"/><path d="M83.493 99.603l-1.719-3.17-2.329 1.45 1.207 2.474-2.187-1.652-1.797 1.549 1.298 2.254-1.869-1.406-.913 1.055" class="J"/><path d="M77.965 102.897a.388.388 0 0 1-.233-.078l-1.58-1.189-.677.776a.39.39 0 1 1-.584-.517l.913-1.055a.385.385 0 0 1 .517-.057l.354.259-.352-.61a.388.388 0 0 1 .083-.486l1.797-1.551a.388.388 0 0 1 .486-.016l.895.675-.496-1.016a.385.385 0 0 1 .145-.499l2.327-1.45a.385.385 0 0 1 .546.145l1.719 3.167a.388.388 0 1 1-.683.37l-1.523-2.805-1.683 1.034 1.052 2.159a.386.386 0 0 1-.571.52l-1.936-1.461-1.316 1.135 1.138 1.975a.39.39 0 0 1-.336.582z" class="K"/><path d="M97.655 32.52c-.957-3.384-5.784-6.277-12.05-8.666l-2.13 4.912 5.688 1.766-6.003 2.143 1.153 5.026 5.502-1.35-3.296 5.181 3.464 3.146c4.734-3.989 8.692-8.555 7.673-12.159z" class="I"/><path d="M72.867 33.177a.388.388 0 0 1-.114-.758l2.327-.716-.721-4.16a.388.388 0 0 1 .711-.259l2.285 3.728 2.66-.822-.659-4.579a.392.392 0 1 1 .776-.109l.706 4.912a.39.39 0 0 1-.259.427l-3.265 1.006a.385.385 0 0 1-.445-.165l-1.383-2.257.434 2.5a.385.385 0 0 1-.259.437l-2.647.817a.416.416 0 0 1-.147-.003z" class="N"/><path d="M63.559 33.089a4.506 4.506 0 0 0-3.935 4.015l4.483.455-3.48 2.872a4.506 4.506 0 1 0 2.932-7.343z" class="L"/><path d="M59.423 57.474h-.036l-3.289-.302a.39.39 0 0 1-.352-.354l-.287-3.405a.385.385 0 0 1 .354-.419.39.39 0 0 1 .419.354l.259 3.082 2.622.24.708-3.312a.388.388 0 0 1 .742-.054l1.135 3.04 2.787-.54-.178-3.221a.388.388 0 0 1 .701-.259l2.252 3.071a.388.388 0 0 1-.626.458l-1.481-2.019.124 2.278a.388.388 0 0 1-.313.403l-3.441.667a.388.388 0 0 1-.437-.246l-.776-2.107-.504 2.327a.388.388 0 0 1-.383.318zm-10.575 47.409a.388.388 0 0 1-.375-.287l-.897-3.327a.388.388 0 0 1 .747-.202l.817 3.027 3.444-.158.346-3.382a.388.388 0 0 1 .711-.176l1.913 2.89 2.965-.843-.209-3.361a.388.388 0 0 1 .633-.323l3.258 2.704a.388.388 0 1 1-.496.595l-2.565-2.146.173 2.784a.393.393 0 0 1-.282.398l-3.539 1.006a.39.39 0 0 1-.429-.158l-1.471-2.221-.271 2.637a.383.383 0 0 1-.367.346l-4.087.189z" class="M"/><path d="M46.459 105.583l-3.193-1.9-2.614 2.686.644-3.617-2.435-1.026-2.164 3.273.388-3.943-2.5-.623-2.425 3.829.315-3.945-2.906.057-3.974 19.259 8.387 3.41z" class="J"/><path d="M32.08 111.969l3.208 1.611-1.055 2.976 2.841-1.957 2.079 2.136-6.675 8.764-7.262-3.389 1.51-10.926 3.956.346-.191 3.503z" class="I"/><path d="M39.29 112.365l1.838-3.102-2.441-1.254-1.502 2.304.295-2.725-2.252-.747-1.267 2.27.248-2.324-1.375-.243" class="J"/><path d="M39.29 112.753a.39.39 0 0 1-.334-.587l1.629-2.746-1.763-.907-1.313 2.011a.388.388 0 0 1-.711-.259l.259-2.415-1.649-.546-1.112 1.988a.388.388 0 0 1-.724-.23l.209-1.965-1.019-.178a.394.394 0 0 1 .134-.776l1.375.243a.388.388 0 0 1 .318.424l-.047.437.341-.613a.388.388 0 0 1 .463-.178l2.252.747a.388.388 0 0 1 .259.408l-.122 1.114.618-.946a.388.388 0 0 1 .502-.134l2.441 1.257a.39.39 0 0 1 .155.543l-1.838 3.102a.385.385 0 0 1-.323.204z" class="K"/><path d="M53.099 68.15l-1.525 5.135 3.583 1.231 2.459-3.576.062 3.643 5.194-.003 1.024-3.881 1.515 3.596 4.605-1.104-.212-3.948 2.58 3.214 4.059-1.799" class="J"/><path d="M57.677 74.97a.388.388 0 0 1-.388-.383l-.041-2.428-1.771 2.585a.385.385 0 0 1-.445.147l-3.583-1.231a.388.388 0 0 1-.259-.478l1.523-5.135a.388.388 0 1 1 .742.222l-1.417 4.778 2.965.993 2.293-3.333a.388.388 0 0 1 .706.215l.054 3.26h4.517l.946-3.591a.388.388 0 0 1 .346-.29.396.396 0 0 1 .385.238l1.375 3.299 3.971-.951-.194-3.62a.388.388 0 0 1 .69-.259l2.404 2.963 3.788-1.681a.388.388 0 0 1 .313.711l-4.059 1.81a.388.388 0 0 1-.46-.111l-1.825-2.28.147 2.746a.393.393 0 0 1-.297.398l-4.605 1.101a.39.39 0 0 1-.45-.225l-1.07-2.547-.734 2.779a.385.385 0 0 1-.375.29z" class="K"/><path d="M55.63 88.789l1.466 2.686 3.795-.812 1.021-3.467 2.87 2.862 4.02-1.091.078-3.832 2.404 3.234 1.898-.458" class="L"/><path d="M57.096 91.863a.385.385 0 0 1-.339-.204l-1.471-2.684a.389.389 0 0 1 .683-.372l1.326 2.433 3.289-.706.957-3.247a.388.388 0 0 1 .646-.163l2.712 2.702 3.521-.954.072-3.542a.388.388 0 0 1 .259-.362.396.396 0 0 1 .432.137l2.249 3.03 1.649-.398a.388.388 0 0 1 .181.755l-1.898.458a.383.383 0 0 1-.401-.147l-1.73-2.327-.054 2.699a.385.385 0 0 1-.287.367l-4.018 1.091a.385.385 0 0 1-.375-.101l-2.412-2.402-.835 2.844a.39.39 0 0 1-.292.259l-3.795.809a.302.302 0 0 1-.07.026z" class="N"/><path d="M29.468 88.347a4.739 4.739 0 0 0-3.139-1.792 4.558 4.558 0 0 0-1.787.132 4.47 4.47 0 0 0-1.551.801 5.458 5.458 0 0 0-1.833 3.084 9.372 9.372 0 0 0-.259 1.965c-.015.165 0 .341 0 .517l.015.517.083 1.112a32.403 32.403 0 0 1 .075 5.021 18.279 18.279 0 0 1-.362 2.629 11.52 11.52 0 0 1-.931 2.733 7.529 7.529 0 0 1-2.068 2.614 6.551 6.551 0 0 1-1.603.918 6.748 6.748 0 0 1-1.766.429 7.668 7.668 0 0 1-.874.044 8.09 8.09 0 0 1-.838-.054 9.248 9.248 0 0 1-1.572-.315 11.495 11.495 0 0 1-2.774-1.231l2.826-4.331c.913.675 2.068 1.099 2.844 1.081a1.859 1.859 0 0 0 .995-.271 2.955 2.955 0 0 0 .9-.993 7.195 7.195 0 0 0 .708-1.675 14.036 14.036 0 0 0 .429-2.017 28.553 28.553 0 0 0 .259-4.395v-1.257l.028-.664.052-.664a12.865 12.865 0 0 1 .553-2.676 9.731 9.731 0 0 1 1.241-2.549 7.849 7.849 0 0 1 2.068-2.068 7.464 7.464 0 0 1 2.709-1.14 7.358 7.358 0 0 1 7.516 3.118z" class="L"/><path d="M86.339 77.661a.383.383 0 0 1-.341-.204l-4.364-8.17a.403.403 0 0 1-.039-.106l-1.28-6.35a.385.385 0 0 1 .302-.455.388.388 0 0 1 .458.302l1.269 6.293 4.336 8.121a.385.385 0 0 1-.16.517.375.375 0 0 1-.181.052z" class="K"/><path d="M110.761 122.425c-3.589 1.83-6.463-.982-6.463-.982l4.765-28.708 2.009-9.824 8.382-52.701 3.899.592-7.555 51.255-1.07 11.52z" class="I"/><path d="M113.553 65.924l-6.794 36.723 2.42.876 2.743-10.569-.574 10.9 3.027-.202 3.281-38.437z" class="L"/><path d="M116.883 43.878l-6.042 34.391 2.2 1.047 3.079-12.767-1.929 14.975 2.893.109 3.935-37.511z" fill="#0ff"/><g class="J"><path d="M119.45 30.199l-5.533 25.275 2.629.954 2.79-12.34-1.161 12.586 2.278.346 2.896-26.229z"/><path d="M120.177 23.285l3.087.944.292 3.901 3.198-1.908L128 29.084l-4.651 1.706-3.899-.592-3.904-2.265 1.344-1.905 3.066 1.533z"/></g><path d="M122.894 23.523l2.769 1.572-1.675 3.408 2.327-.861.864 2.81-3.829.339-3.899-.592-.561-4.979 1.97-.471.494 2.728z" class="I"/></svg>