<svg xmlns="http://www.w3.org/2000/svg" xmlns:xlink="http://www.w3.org/1999/xlink" width="128" height="128" viewBox="0 0 2788.571 2602.667" xmlns:v="https://vecta.io/nano"><g transform="matrix(10.051229 0 0 10.051229 59.345432 -231.29876)"><defs><circle id="A" cx="177.7" cy="150.5" r="115.6"/><linearGradient id="B" x1="-109.06" y1="352.115" x2="555.284" y2="-119.462" xlink:href="#P"><stop offset=".186" stop-color="#19ebce"/><stop offset=".265" stop-color="#21dcd0"/><stop offset=".42" stop-color="#36b4d4"/><stop offset=".633" stop-color="#5873db"/><stop offset=".895" stop-color="#871be5"/><stop offset=".91" stop-color="#8a15e6"/></linearGradient><linearGradient id="C" x1="17.653" y1="289.036" x2="137.654" y2="1.592" xlink:href="#P"><stop offset=".186" stop-color="#19ebce"/><stop offset=".265" stop-color="#21dcd0"/><stop offset=".42" stop-color="#36b4d4"/><stop offset=".633" stop-color="#5873db"/><stop offset=".895" stop-color="#871be5"/><stop offset=".91" stop-color="#8a15e6"/></linearGradient><linearGradient id="D" x1="-7.028" y1="278.732" x2="112.973" y2="-8.712" xlink:href="#P"><stop offset=".186" stop-color="#19ebce"/><stop offset=".265" stop-color="#21dcd0"/><stop offset=".42" stop-color="#36b4d4"/><stop offset=".633" stop-color="#5873db"/><stop offset=".895" stop-color="#871be5"/><stop offset=".91" stop-color="#8a15e6"/></linearGradient><linearGradient id="E" x1="-20.476" y1="273.118" x2="99.525" y2="-14.326" xlink:href="#P"><stop offset=".186" stop-color="#19ebce"/><stop offset=".265" stop-color="#21dcd0"/><stop offset=".42" stop-color="#36b4d4"/><stop offset=".633" stop-color="#5873db"/><stop offset=".895" stop-color="#871be5"/><stop offset=".91" stop-color="#8a15e6"/></linearGradient><linearGradient id="F" x1="-21.663" y1="272.623" x2="98.338" y2="-14.822" xlink:href="#P"><stop offset=".186" stop-color="#19ebce"/><stop offset=".265" stop-color="#21dcd0"/><stop offset=".42" stop-color="#36b4d4"/><stop offset=".633" stop-color="#5873db"/><stop offset=".895" stop-color="#871be5"/><stop offset=".91" stop-color="#8a15e6"/></linearGradient><linearGradient id="G" x1="-15.687" y1="275.118" x2="104.315" y2="-12.327" xlink:href="#P"><stop offset=".186" stop-color="#19ebce"/><stop offset=".265" stop-color="#21dcd0"/><stop offset=".42" stop-color="#36b4d4"/><stop offset=".633" stop-color="#5873db"/><stop offset=".895" stop-color="#871be5"/><stop offset=".91" stop-color="#8a15e6"/></linearGradient><linearGradient id="H" x1="9.246" y1="285.527" x2="129.248" y2="-1.918" xlink:href="#P"><stop offset=".186" stop-color="#19ebce"/><stop offset=".265" stop-color="#21dcd0"/><stop offset=".42" stop-color="#36b4d4"/><stop offset=".633" stop-color="#5873db"/><stop offset=".895" stop-color="#871be5"/><stop offset=".91" stop-color="#8a15e6"/></linearGradient><linearGradient id="I" x1="45.377" y1="300.61" x2="165.378" y2="13.166" xlink:href="#P"><stop offset=".186" stop-color="#19ebce"/><stop offset=".265" stop-color="#21dcd0"/><stop offset=".42" stop-color="#36b4d4"/><stop offset=".633" stop-color="#5873db"/><stop offset=".895" stop-color="#871be5"/><stop offset=".91" stop-color="#8a15e6"/></linearGradient><linearGradient id="J" x1="88.314" y1="318.535" x2="208.315" y2="31.091" xlink:href="#P"><stop offset=".186" stop-color="#19ebce"/><stop offset=".265" stop-color="#21dcd0"/><stop offset=".42" stop-color="#36b4d4"/><stop offset=".633" stop-color="#5873db"/><stop offset=".895" stop-color="#871be5"/><stop offset=".91" stop-color="#8a15e6"/></linearGradient><linearGradient id="K" x1="130.997" y1="336.355" x2="250.999" y2="48.91" xlink:href="#P"><stop offset=".186" stop-color="#19ebce"/><stop offset=".265" stop-color="#21dcd0"/><stop offset=".42" stop-color="#36b4d4"/><stop offset=".633" stop-color="#5873db"/><stop offset=".895" stop-color="#871be5"/><stop offset=".91" stop-color="#8a15e6"/></linearGradient><linearGradient id="L" x1="54.492" y1="304.416" x2="174.493" y2="16.971" xlink:href="#P"><stop offset=".186" stop-color="#19ebce"/><stop offset=".265" stop-color="#21dcd0"/><stop offset=".42" stop-color="#36b4d4"/><stop offset=".633" stop-color="#5873db"/><stop offset=".895" stop-color="#871be5"/><stop offset=".91" stop-color="#8a15e6"/></linearGradient><linearGradient id="M" x1="168.958" y1="352.202" x2="288.959" y2="64.757" xlink:href="#P"><stop offset=".186" stop-color="#19ebce"/><stop offset=".265" stop-color="#21dcd0"/><stop offset=".42" stop-color="#36b4d4"/><stop offset=".633" stop-color="#5873db"/><stop offset=".895" stop-color="#871be5"/><stop offset=".91" stop-color="#8a15e6"/></linearGradient></defs><clipPath id="N"><use xlink:href="#A"/></clipPath><linearGradient gradientUnits="userSpaceOnUse" x1="-109.06" y1="352.115" x2="555.284" y2="-119.462"><stop offset=".186" stop-color="#19ebce"/><stop offset=".265" stop-color="#21dcd0"/><stop offset=".42" stop-color="#36b4d4"/><stop offset=".633" stop-color="#5873db"/><stop offset=".895" stop-color="#871be5"/><stop offset=".91" stop-color="#8a15e6"/></linearGradient><path d="M192.6 180.1c11.6 6.7 26.2 14.6 28.3 29.9 15.3-4.1 38-8.9 32.2-22.5-7.2-31.2-23.9-58.9-36.2-88.4-.9-2.1-1.6-4.5-2-6.7-1.5-7.9 1.4-15.4 2.1-23.5-3 .4-16.1.4-23.5 9.6-.2.3-1.7-9.1 3.3-19.1-8.3-2.5-73.1 25.8-94.8 81.9-.5-12.9 4.7-35 22.5-59.6 27.5-38.1 72.2-43.1 101.1-36.4-5-2.2-5.7-3.6-17.2-7.6-6.7-2.4-16.5-4.3-20.9-4.3-79-.3-130.2 46.4-134.4 128.7C50 224.6 117.8 266.7 189 266.9c24.6.1 40.8-11 54.1-21.1-72.7-10.4-106.5-34.2-72.9-97.7-3.8 7.1 1 19.6 22.4 32zm13.8-68.6c.1.1.1.2.2.3 0-.1.1-.1.1-.2l17.9 36.5c-2.1-.8-4.1-1.7-6-2.7-14.6-7.8-20.7-23.1-12.2-33.9z" fill="url(#B)" clip-path="url(#N)"/><linearGradient gradientUnits="userSpaceOnUse" x1="17.653" y1="289.036" x2="137.654" y2="1.592"><stop offset=".186" stop-color="#19ebce"/><stop offset=".265" stop-color="#21dcd0"/><stop offset=".42" stop-color="#36b4d4"/><stop offset=".633" stop-color="#5873db"/><stop offset=".895" stop-color="#871be5"/><stop offset=".91" stop-color="#8a15e6"/></linearGradient><path d="M161.9 33.5c-10.5 1.3-20.6 4-30.1 7.9-13-7.1-27-12.4-41.8-15.6 7.1-3.5 24.1-5.1 32.4-5.1 17.7 2.7 24.3 4.7 39.5 12.8z" fill="url(#C)"/><linearGradient gradientUnits="userSpaceOnUse" x1="-7.028" y1="278.732" x2="112.973" y2="-8.712"><stop offset=".186" stop-color="#19ebce"/><stop offset=".265" stop-color="#21dcd0"/><stop offset=".42" stop-color="#36b4d4"/><stop offset=".633" stop-color="#5873db"/><stop offset=".895" stop-color="#871be5"/><stop offset=".91" stop-color="#8a15e6"/></linearGradient><path d="M126.3 43.8l-1.1.5c-8 3.9-15.4 8.6-22.3 14-13.2-3.6-27.1-5.4-41.5-5.4-3.2 0-6.4.1-9.6.3 9.5-9.6 35.2-20 47-20.6 9.7 3 14.4 4.3 27.5 11.2z" fill="url(#D)"/><linearGradient gradientUnits="userSpaceOnUse" x1="-20.476" y1="273.118" x2="99.525" y2="-14.326"><stop offset=".186" stop-color="#19ebce"/><stop offset=".265" stop-color="#21dcd0"/><stop offset=".42" stop-color="#36b4d4"/><stop offset=".633" stop-color="#5873db"/><stop offset=".895" stop-color="#871be5"/><stop offset=".91" stop-color="#8a15e6"/></linearGradient><path d="M97.9 62.6l-2 1.8-2.1 2c-4.2 4.1-8.1 8.6-11.7 13.3-21.8 2.5-42.3 9.4-60.5 19.7 6-14.9 31.5-39.1 42.8-41.2 4.9-.4 21.8 1.6 33.5 4.4z" fill="url(#E)"/><linearGradient gradientUnits="userSpaceOnUse" x1="-21.663" y1="272.623" x2="98.338" y2="-14.822"><stop offset=".186" stop-color="#19ebce"/><stop offset=".265" stop-color="#21dcd0"/><stop offset=".42" stop-color="#36b4d4"/><stop offset=".633" stop-color="#5873db"/><stop offset=".895" stop-color="#871be5"/><stop offset=".91" stop-color="#8a15e6"/></linearGradient><path d="M79 84l-2.7 4.2-1.8 2.9a117.06 117.06 0 0 0-7.8 15.9c-21.1 9.1-39.8 22.6-55.1 39.4.5-14.7 18.1-46.3 26.2-49.3 0 .1 19.8-10.2 41.2-13.1z" fill="url(#F)"/><linearGradient gradientUnits="userSpaceOnUse" x1="-15.687" y1="275.118" x2="104.315" y2="-12.327"><stop offset=".186" stop-color="#19ebce"/><stop offset=".265" stop-color="#21dcd0"/><stop offset=".42" stop-color="#36b4d4"/><stop offset=".633" stop-color="#5873db"/><stop offset=".895" stop-color="#871be5"/><stop offset=".91" stop-color="#8a15e6"/></linearGradient><path d="M64.3 113.6l-.9 2.9-.9 3.1c-1.2 4.5-2.2 9.2-2.9 13.9-18.1 17.5-32.1 39.2-40.4 63.6-4.9-14.3-5.9-34.5 4.8-54.9.1-.2 24.4-21.1 40.3-28.6z" fill="url(#G)"/><linearGradient gradientUnits="userSpaceOnUse" x1="9.246" y1="285.527" x2="129.248" y2="-1.918"><stop offset=".186" stop-color="#19ebce"/><stop offset=".265" stop-color="#21dcd0"/><stop offset=".42" stop-color="#36b4d4"/><stop offset=".633" stop-color="#5873db"/><stop offset=".895" stop-color="#871be5"/><stop offset=".91" stop-color="#8a15e6"/></linearGradient><path d="M46.2 231.7c0 4.2.2 8.4.5 12.6-10.5-11.9-18.8-40.1-17.5-55.2 7.8-19.1 20-37.1 29.3-46.9-.1.9-.1 1.8-.2 2.7-.1 2-.2 4-.2 6.1a119.36 119.36 0 0 0 1.2 17c-8.3 19.5-13.1 41-13.1 63.7z" fill="url(#H)"/><linearGradient gradientUnits="userSpaceOnUse" x1="45.377" y1="300.61" x2="165.378" y2="13.166"><stop offset=".186" stop-color="#19ebce"/><stop offset=".265" stop-color="#21dcd0"/><stop offset=".42" stop-color="#36b4d4"/><stop offset=".633" stop-color="#5873db"/><stop offset=".895" stop-color="#871be5"/><stop offset=".91" stop-color="#8a15e6"/></linearGradient><path d="M91.4 278c-14.8-7.1-30.8-23.5-39.6-48.5 0 0 1.8-38.4 9-53.6 0 .2.1.3.1.5.4 2 .9 3.9 1.4 5.8 3.8 13.9 10 26.7 18.2 38 .1 20.4 4 39.9 10.9 57.8z" fill="url(#I)"/><linearGradient gradientUnits="userSpaceOnUse" x1="88.314" y1="318.535" x2="208.315" y2="31.091"><stop offset=".186" stop-color="#19ebce"/><stop offset=".265" stop-color="#21dcd0"/><stop offset=".42" stop-color="#36b4d4"/><stop offset=".633" stop-color="#5873db"/><stop offset=".895" stop-color="#871be5"/><stop offset=".91" stop-color="#8a15e6"/></linearGradient><path d="M142.7 291.2c-16.6-1-34.4-12-48.8-23.3-5.1-8.7-8.3-29.5-9.6-42.8.2.2.4.5.6.7 1.1 1.3 2.2 2.6 3.4 3.9 8.6 9.7 18.8 18 30.2 24.4.4.2.7.4 1.1.6 6 13.3 13.8 25.5 23.1 36.5z" fill="url(#J)"/><linearGradient gradientUnits="userSpaceOnUse" x1="130.997" y1="336.355" x2="250.999" y2="48.91"><stop offset=".186" stop-color="#19ebce"/><stop offset=".265" stop-color="#21dcd0"/><stop offset=".42" stop-color="#36b4d4"/><stop offset=".633" stop-color="#5873db"/><stop offset=".895" stop-color="#871be5"/><stop offset=".91" stop-color="#8a15e6"/></linearGradient><path d="M190 286.2c-9.7 3.1-23.1 7.3-49.6-3.7-8.6-10.2-8.9-12.5-14.8-24.6 11.6 5.6 24.3 9.3 37.6 10.8 1.2.1 2.4.3 3.6.4a155.92 155.92 0 0 0 23.2 17.1z" fill="url(#K)"/><linearGradient gradientUnits="userSpaceOnUse" x1="54.492" y1="304.416" x2="174.493" y2="16.971"><stop offset=".186" stop-color="#19ebce"/><stop offset=".265" stop-color="#21dcd0"/><stop offset=".42" stop-color="#36b4d4"/><stop offset=".633" stop-color="#5873db"/><stop offset=".895" stop-color="#871be5"/><stop offset=".91" stop-color="#8a15e6"/></linearGradient><path d="M221.9 41.5l-7.6-2.8-2.4-.8C201 34.5 181 32.7 169 32.6c-18.3-9.3-30.2-15.2-51.7-16.9 19.9-3.5 35.3-1.4 43.7-.3 18 2.2 38.3 9 60.9 26.1z" fill="url(#L)"/><linearGradient gradientUnits="userSpaceOnUse" x1="168.958" y1="352.202" x2="288.959" y2="64.757"><stop offset=".186" stop-color="#19ebce"/><stop offset=".265" stop-color="#21dcd0"/><stop offset=".42" stop-color="#36b4d4"/><stop offset=".633" stop-color="#5873db"/><stop offset=".895" stop-color="#871be5"/><stop offset=".91" stop-color="#8a15e6"/></linearGradient><path d="M240.8 250.7c-3.2 5.8-29.1 27-52.2 29.9-7.5-4.4-8-5.5-14.5-11.2h2.7c3.8 0 7.5-.2 11.2-.5.3 0 .7-.1 1-.1 8.1-.8 15.9-2.5 23.4-4.8l2-.6c2.7-.9 5.3-1.9 7.9-3 6.4-2.7 12.6-5.9 18.5-9.7z" fill="url(#M)"/></g><defs ><linearGradient id="P" gradientUnits="userSpaceOnUse"/></defs></svg>