<svg xmlns="http://www.w3.org/2000/svg" width="128" height="128" xmlns:v="https://vecta.io/nano"><g clip-path="url(#A)" transform="matrix(1.621817 0 0 1.621817 -15.874504 -18.726909)"><g fill-rule="evenodd"><path d="M32.476 18.679c4.414-4.324 11.475-4.324 15.889 0l10.449 10.236c4.544 4.452 4.544 11.768 0 16.22L40.603 62.975l13.06 12.794a6.31 6.31 0 0 1 .092 8.919 6.31 6.31 0 0 1-8.919.092l-31.64-30.994c-4.544-4.452-4.544-11.768 0-16.22zm-.886 35.466l17.477-17.12-8.647-8.47-17.477 17.12z" fill="#c3c6cc"/><path d="M58.965 27.329c4.414-4.324 11.475-4.324 15.889 0l10.45 10.236c4.544 4.452 4.544 11.768 0 16.22l-31.64 30.994a6.31 6.31 0 0 1-8.919-.092 6.31 6.31 0 0 1 .092-8.919l13.06-12.794-9.381-9.19c-4.544-4.452-4.544-11.768 0-16.22zm7.944 26.816l8.647-8.47-8.647-8.47-8.647 8.47z" fill="#f3f4f5"/></g><path opacity=".95" d="M58.258 45.697l-9.185-8.724-8.81 8.652 8.967 8.921z" fill="#dbdde0"/></g><defs><clipPath id="A"><path fill="#fff" d="M0 0h100v100H0z"/></clipPath></defs></svg>