<svg xmlns="http://www.w3.org/2000/svg" xmlns:xlink="http://www.w3.org/1999/xlink" width="128" height="128" fill="none" xmlns:v="https://vecta.io/nano"><path d="M102.507 45.662l7.474-5.834c2.972-2.659 5.179-5.955 6.957-9.528.174-.351.38-.686.698-1.256 7.387 11.558 10.83 24.013 10.246 37.479-.751 17.327-7.488 32.026-20.109 44.189l-20.67-40.805c3.304-2.211 6.002-4.913 8.004-8.659l-1.469.418-8.503 2.618c-.271.082-.796.072-.862-.064-.192-.39-.424-.973-.264-1.291l5.558-10.675c.167-.313.599-.521.949-.694l11.992-5.898zm-36.2 37.869l18.8 40.995-7.248 1.933c-4.419 1.076-8.933 1.507-13.461 1.538-4.981.035-9.962-.369-14.766-1.732-1.266-.36-2.279-1.672-3.337-2.625-.152-.137.022-.758.177-1.094l10.522-22.754 7.596-16.373c.166-.356.525-.622.793-.93a24.38 24.38 0 0 1 .924 1.042zM42.898 71.189c-.642 1.819-1.825 2.772-3.581 3.521-8.421 3.592-13.676 9.915-15.462 18.946-.815 4.118-.668 8.274.282 12.363.271 1.168.241 2.149-.399 3.156-.415.653-.725 1.372-1.163 2.219-4.969-6.732-9.499-13.475-9.022-22.27.324-5.975 2.233-11.354 6.013-16.039 3.586-4.445 8.356-7.258 13.473-9.46 3.459-1.488 7.115-2.518 10.675-3.774.89-.314 1.294-.034 1.826.776 1.212 1.843 1.313 3.451.04 5.344-1.068 1.589-1.771 3.423-2.681 5.219zm17.505-29.117l.991 2.321-15.141 2.295-3.69-7.214-6.203-12.041c-1.034-2.015-.278-3.252 1.982-3.257l10.837-.007c2.23-.012 3.839.804 4.651 3.026.568 1.557 1.329 3.043 2.068 4.703L42.64 35.561l8.903-.011 5.01-.244c.673-.05.978.204 1.229.802l2.622 5.964zm22.544-.566l-6.413 1.075-5.278.774-1.616.204 2.064-4.835 2.05-4.63c.27-.825.827-.911 1.35-.991 5.497-.84 10.943-1.88 16.175-3.827 1.026-.382 2.016-.861 3.188-1.367l-4.899 9.462c-.149.287-.42.535-.491.835-.503 2.137-2.206 2.591-4.01 2.913-.677.121-1.358.223-2.121.386z" fill="#fff"/><path d="M12.676 62.634c-3.775 4.581-6.622 9.593-8.452 15.162-.531 1.614-.935 3.27-1.387 4.873C-.659 78.185-.9 57.35 2.341 46.298c3.579-12.206 10.16-22.44 19.892-30.922l16.855 32.806c-10.218 2.34-19.478 6.225-26.412 14.451z" fill="url(#A)"/><path d="M58.016.266c6.542-.559 12.936-.264 19.252 1.142 2.389.532 4.478 1.759 6.424 3.23.678.513.321 1.043.086 1.582L78.011 19.41c-.76 1.738-1.479 3.496-2.307 5.201-.233.479-.719 1.001-1.203 1.164l-15.74 5.175c-.583.19-.943.048-1.213-.568L45.692 3.536c-.296-.669-.125-.947.559-1.082L56.038.494c.616-.121 1.25-.155 1.978-.228z" fill="url(#B)"/><path d="M70.961 85.816l-4.29-9.42 14.745-4.091 5.217 10.461 8.508 16.812c.982 1.946.348 3.005-1.774 3.006-4.208.001-8.417-.01-12.625.006-1.324.005-2.278-.541-2.833-1.742l-6.751-14.664c-.046-.101-.114-.192-.197-.368z" fill="url(#C)"/><path d="M55.255 95.37l-2.187 4.728c-.78 1.674-2.015 2.545-3.947 2.507-3.458-.069-6.918-.019-10.378-.019h-1.478c.302-1.577.469-3.005.855-4.37 1.427-5.04 4.397-9.048 8.276-12.517 4.797-4.291 10.581-6.442 16.62-8.128.062-.018.14.021.436.074L55.255 95.37z" fill="url(#D)"/><path d="M67.473 68.217l-17.786 3.626 2.269-4.51c.718-1.428 1.606-2.8 2.107-4.3.57-1.71-1.286-2.785-1.534-4.514 9.287-.489 18.527-1.448 27.866-3.87l-1.321 2.572c-.154.298-.321.588-.475.885-.686 1.32-1.784 2.597-1.931 3.975-.135 1.268.754 2.644 1.253 4.156l-10.447 1.98z" fill="url(#E)"/><path d="M101.484 29.391l6.181-11.795c1.524.825 1.892 2.114 1.894 3.591.01 5.803-2.844 9.894-7.673 12.786-1.136.68-2.322 1.275-3.68 1.753l3.277-6.334z" fill="url(#F)"/><path d="M70.07 34.021l1.575-.118-.693 1.651-3.115 7.162c-.286.677-.581 1.117-1.433 1.09-.727-.023-1.459.222-2.194.277-.233.018-.624-.128-.705-.306l-3.786-8.502 10.352-1.254z" fill="url(#G)"/><defs><linearGradient id="A" x1=".055" y1="49.022" x2="39.035" y2="50.455" xlink:href="#H"><stop stop-color="#c004fe"/><stop offset="1" stop-color="#7e02f5"/></linearGradient><linearGradient id="B" x1="45.552" y1="15.515" x2="83.848" y2="18.527" xlink:href="#H"><stop stop-color="#c004fe"/><stop offset="1" stop-color="#7e02f5"/></linearGradient><linearGradient id="C" x1="66.671" y1="87.447" x2="95.486" y2="89.191" xlink:href="#H"><stop stop-color="#c004fe"/><stop offset="1" stop-color="#7e02f5"/></linearGradient><linearGradient id="D" x1="37.264" y1="90.086" x2="63.337" y2="91.813" xlink:href="#H"><stop stop-color="#c004fe"/><stop offset="1" stop-color="#7e02f5"/></linearGradient><linearGradient id="E" x1="49.687" y1="63.246" x2="80.006" y2="66.677" xlink:href="#H"><stop stop-color="#c004fe"/><stop offset="1" stop-color="#7e02f5"/></linearGradient><linearGradient id="F" x1="98.206" y1="26.66" x2="109.541" y2="27.11" xlink:href="#H"><stop stop-color="#c004fe"/><stop offset="1" stop-color="#7e02f5"/></linearGradient><linearGradient id="G" x1="59.718" y1="38.994" x2="71.58" y2="39.874" xlink:href="#H"><stop stop-color="#c004fe"/><stop offset="1" stop-color="#7e02f5"/></linearGradient><linearGradient id="H" gradientUnits="userSpaceOnUse"/></defs></svg>