<svg xmlns="http://www.w3.org/2000/svg" width="128" height="128" viewBox="0 0 33.867 33.867" xmlns:v="https://vecta.io/nano"><path d="M26.102 21.613c1.221 1.223 1.221 3.212 0 4.435s-3.203 1.223-4.422 0-3.753-8.199-3.753-8.199 6.956 2.54 8.176 3.763zM16.099 17.85s-2.534 6.971-3.753 8.199-3.203 1.223-4.423 0-1.22-3.212 0-4.435 8.176-3.763 8.176-3.763zM26.102 7.818c1.221 1.223 1.221 3.212 0 4.435s-8.176 3.763-8.176 3.763 2.533-6.971 3.753-8.199 3.203-1.227 4.422 0zm-13.757 0c1.22 1.223 3.753 8.199 3.753 8.199s-6.952-2.54-8.176-3.763-1.22-3.212 0-4.435a3.12 3.12 0 0 1 4.423 0zm21.473 9.115a3.13 3.13 0 0 1-3.126 3.134c-1.727 0-11.882-3.134-11.882-3.134s10.155-3.134 11.882-3.134a3.13 3.13 0 0 1 3.126 3.134zm-18.761 0S4.902 20.067 3.174 20.067a3.13 3.13 0 0 1-3.125-3.134 3.13 3.13 0 0 1 3.125-3.134c1.728 0 11.883 3.134 11.883 3.134zm1.874 16.933a3.13 3.13 0 0 1-3.125-3.134c0-1.732 3.125-11.915 3.125-11.915S20.056 29 20.056 30.732a3.13 3.13 0 0 1-3.125 3.134zm0-18.817S13.805 4.866 13.805 3.134A3.13 3.13 0 0 1 16.931 0a3.13 3.13 0 0 1 3.125 3.134c0 1.732-3.125 11.915-3.125 11.915z" fill="#ed145b"/></svg>