<svg xmlns="http://www.w3.org/2000/svg" xmlns:xlink="http://www.w3.org/1999/xlink" width="128" fill="#ffffff" viewBox="0 0 868.747 128" height="128" xmlns:v="https://vecta.io/nano"><style><![CDATA[.C{fill:#f83d1c}]]></style><defs><linearGradient id="A" x1="42.31" x2="123.26" y1="21.29" y2="102.24" gradientUnits="userSpaceOnUse"><stop offset="0" stop-color="#f83d1c"/><stop offset="1" stop-color="#c72312"/></linearGradient><linearGradient id="B" x1="2.99" x2="66.72" y1="-212.29" y2="179.19" gradientUnits="userSpaceOnUse"><stop offset="0" stop-color="#fff"/><stop offset=".51" stop-color="#fcee21"/><stop offset="1" stop-color="#f7931e"/></linearGradient><linearGradient xlink:href="#B" id="C" x1="26.98" x2="90.71" y1="-216.2" y2="175.28"/><linearGradient xlink:href="#B" id="D" x1="58.78" x2="122.51" y1="-221.37" y2="170.11"/><linearGradient xlink:href="#B" id="E" x1="83.32" x2="147.05" y1="-225.37" y2="166.11"/><linearGradient xlink:href="#B" id="F"/><path id="G" d="M74 49.05a1.74 1.74 0 1 0-2-1.74 1.85 1.85 0 0 0 2 1.74z"/><path id="H" d="M84.45 49.13a1.83 1.83 0 1 0-2.06-1.82 2 2 0 0 0 2.06 1.82z"/><path id="I" d="M84.45 52.28a1.92 1.92 0 1 0-2.16-1.89 2 2 0 0 0 2.16 1.89z"/><path id="J" d="M101.81 58.32a2 2 0 0 0 2-1.82 2.08 2.08 0 0 0-4.12 0 2 2 0 0 0 2.12 1.82z"/><path id="K" d="M98.33 61.47a1.94 1.94 0 1 0-2.18-1.92 2.07 2.07 0 0 0 2.18 1.92z"/><path id="L" d="M70.57 64.51a1.92 1.92 0 1 0-2.16-1.91 2 2 0 0 0 2.16 1.91z"/><path id="M" d="M91.39 64.64a2 2 0 1 0-2.31-2 2.18 2.18 0 0 0 2.31 2z"/><path id="N" d="M101.81 64.47a1.89 1.89 0 1 0-2.13-1.87 2 2 0 0 0 2.13 1.87z"/></defs><g transform="matrix(5.33401 0 0 5.33401 .081211 -259.38649)"><path d="M70.57 23c.05 0 .11 0 .11-.08a.12.12 0 0 0-.11-.11.1.1 0 0 0-.1.11c0 .01.03.08.1.08zM74 23a.18.18 0 0 0 .19-.15.19.19 0 0 0-.19-.19.18.18 0 0 0-.19.19.17.17 0 0 0 .19.15zm3.51.1a.25.25 0 0 0 .26-.23.27.27 0 0 0-.26-.26.27.27 0 0 0-.27.26.24.24 0 0 0 .27.23zm3.49.03a.3.3 0 0 0 .3-.26.27.27 0 0 0-.3-.26.26.26 0 0 0-.29.26.28.28 0 0 0 .29.26zm3.45 0a.29.29 0 0 0 .32-.26.31.31 0 0 0-.32-.29.3.3 0 0 0-.32.29.29.29 0 0 0 .32.26zm3.47 0a.29.29 0 0 0 .32-.26.33.33 0 0 0-.65 0 .3.3 0 0 0 .33.26zm3.47-.01a.26.26 0 1 0 0-.51.26.26 0 1 0 0 .51zm3.47-.07a.2.2 0 0 0 .22-.18.22.22 0 0 0-.44 0 .2.2 0 0 0 .22.18zm3.47-.05c.1 0 .17-.06.17-.13a.17.17 0 0 0-.17-.16.16.16 0 0 0-.16.16.15.15 0 0 0 .16.13zm3.48-.07v-.06a.06.06 0 1 0-.11 0 .07.07 0 0 0 .11.06zm-38.18 3.13a.16.16 0 0 0 .15-.15.14.14 0 0 0-.15-.13c-.1 0-.17 0-.17.13a.17.17 0 0 0 .17.15zm3.45.12a.29.29 0 0 0 .31-.27.29.29 0 0 0-.31-.26.3.3 0 0 0-.29.26.29.29 0 0 0 .29.27zm3.49.09a.38.38 0 0 0 .4-.36.41.41 0 0 0-.81 0 .38.38 0 0 0 .41.36zm3.43.07a.46.46 0 0 0 .48-.43.5.5 0 0 0-1 0 .46.46 0 0 0 .52.43zm3.51.06a.5.5 0 1 0 0-1 .5.5 0 1 0 0 1zm3.49.05a.56.56 0 0 0 .59-.54.55.55 0 0 0-.59-.52.56.56 0 0 0-.6.52.57.57 0 0 0 .6.54zm3.45 0a.58.58 0 0 0 .62-.54.58.58 0 0 0-.62-.53.59.59 0 0 0-.62.53.58.58 0 0 0 .62.54zm3.47 0a.57.57 0 0 0 .6-.54.61.61 0 0 0-1.2 0 .57.57 0 0 0 .6.54zm3.47-.01a.57.57 0 0 0 .59-.53.55.55 0 0 0-.59-.51.55.55 0 0 0-.59.51.57.57 0 0 0 .59.53zm3.47-.07a.49.49 0 0 0 .52-.46.49.49 0 0 0-.52-.45.49.49 0 0 0-.52.45.48.48 0 0 0 .52.46zm3.47-.07a.4.4 0 0 0 .45-.39.42.42 0 0 0-.45-.39.43.43 0 0 0-.45.39.41.41 0 0 0 .45.39zm3.48-.08a.32.32 0 0 0 .34-.31.32.32 0 0 0-.34-.3.34.34 0 0 0-.36.3.34.34 0 0 0 .36.31zm3.47-.11a.2.2 0 1 0 0-.39.2.2 0 1 0 0 .39zm3.47-.11s.09 0 .09-.07a.09.09 0 0 0-.18 0c0 .07.04.07.09.07zm-52.07 3.05a.09.09 0 0 0 .09-.07.08.08 0 0 0-.09-.08.09.09 0 0 0-.09.08s.05.07.09.07zm3.47.18a.29.29 0 0 0 .29-.25.27.27 0 0 0-.29-.27.28.28 0 0 0-.29.27.29.29 0 0 0 .29.25zm3.48.12a.4.4 0 0 0 .43-.37.41.41 0 0 0-.43-.39.42.42 0 0 0-.44.39.41.41 0 0 0 .44.37zm3.45.12a.51.51 0 1 0 0-1 .5.5 0 1 0 0 1zm3.49.1a.6.6 0 1 0 0-1.19.6.6 0 1 0 0 1.19zm3.43.1a.7.7 0 1 0-.79-.69.75.75 0 0 0 .79.69zm3.51.04a.74.74 0 1 0 0-1.48.75.75 0 1 0 0 1.48zm3.49.05a.83.83 0 0 0 .88-.78.89.89 0 1 0-.88.78zm3.45 0a.79.79 0 1 0 0-1.57.79.79 0 1 0 0 1.57zm3.47 0a.83.83 0 0 0 .88-.76.82.82 0 0 0-.88-.78.83.83 0 0 0-.92.78.84.84 0 0 0 .92.76zm3.47-.03a.76.76 0 1 0-.85-.75.81.81 0 0 0 .85.75zm3.47-.04a.72.72 0 1 0-.81-.71.77.77 0 0 0 .81.71zm3.47-.07a.7.7 0 0 0 .74-.64.71.71 0 0 0-.74-.66.7.7 0 0 0-.73.66.69.69 0 0 0 .73.64zm3.48-.11a.58.58 0 0 0 .62-.53.59.59 0 0 0-.62-.55.59.59 0 0 0-.62.55.58.58 0 0 0 .62.53zm3.47-.1a.45.45 0 1 0 0-.89.45.45 0 1 0 0 .89zm3.47-.12a.33.33 0 0 0 .34-.31.31.31 0 0 0-.34-.31.33.33 0 0 0-.36.31.34.34 0 0 0 .36.31zm3.47-.15a.18.18 0 0 0 .18-.16.17.17 0 0 0-.18-.16.18.18 0 0 0-.22.18.2.2 0 0 0 .22.14zM53.2 32.15a.12.12 0 0 0 .14-.13.13.13 0 0 0-.14-.11.13.13 0 0 0-.12.11.12.12 0 0 0 .12.13zm3.48.17A.32.32 0 0 0 57 32a.35.35 0 0 0-.69 0 .32.32 0 0 0 .37.32zm3.47.17a.46.46 0 1 0 0-.91.46.46 0 1 0 0 .91zm3.48.15a.61.61 0 1 0 0-1.21.61.61 0 1 0 0 1.21zm3.45.14a.8.8 0 0 0 .84-.76.79.79 0 0 0-.84-.72.78.78 0 0 0-.81.72.79.79 0 0 0 .81.76zm3.49.07a.88.88 0 0 0 .94-.83.89.89 0 0 0-.94-.82.9.9 0 0 0-.95.82.89.89 0 0 0 .95.83zm3.43.09a.92.92 0 1 0-1-.94 1 1 0 0 0 1 .94zm3.51.06a1 1 0 0 0 1.09-1 1.09 1.09 0 0 0-2.17 0 1 1 0 0 0 1.08 1zM81 33a1 1 0 1 0-1.13-1A1.08 1.08 0 0 0 81 33zm3.45.05a1 1 0 1 0-1.16-1 1.09 1.09 0 0 0 1.16 1zm3.47-.05a1 1 0 1 0-1.14-1 1.09 1.09 0 0 0 1.14 1zm3.47 0a1 1 0 1 0-1.12-1 1.06 1.06 0 0 0 1.12 1zm3.47 0a.95.95 0 1 0-1.07-1 1 1 0 0 0 1.07 1zm3.47-.1a.88.88 0 1 0 0-1.74.88.88 0 1 0 0 1.74zm3.48-.08a.8.8 0 1 0-.89-.8.84.84 0 0 0 .89.8zm3.47-.13A.71.71 0 0 0 106 32a.77.77 0 0 0-1.52 0 .7.7 0 0 0 .8.69zm3.47-.12a.57.57 0 0 0 .59-.55.55.55 0 0 0-.59-.52.57.57 0 0 0-.61.52.59.59 0 0 0 .61.55zm3.47-.16a.4.4 0 0 0 .43-.39.39.39 0 0 0-.43-.36.4.4 0 0 0-.44.36.41.41 0 0 0 .44.39zm3.47-.16a.23.23 0 0 0 .24-.23.23.23 0 0 0-.24-.21.23.23 0 0 0-.24.21.23.23 0 0 0 .24.23zm3.47-.2s-.03 0 0 0zm-69.42 3.16a.13.13 0 0 0 .14-.12.13.13 0 0 0-.14-.11.12.12 0 0 0-.13.11.13.13 0 0 0 .13.12zm3.46.19a.33.33 0 0 0 .36-.31.35.35 0 0 0-.7 0 .33.33 0 0 0 .34.31zm3.48.18a.53.53 0 0 0 .57-.49.57.57 0 1 0-.57.49zm3.47.19a.74.74 0 0 0 .76-.68.77.77 0 0 0-1.52 0 .74.74 0 0 0 .76.68zm3.48.12a.86.86 0 0 0 .91-.8.87.87 0 0 0-.91-.82.82.82 0 1 0 0 1.62zm3.45.11a.94.94 0 1 0-1-.93 1 1 0 0 0 1 .93zm3.49.14a1.13 1.13 0 0 0 1.17-1 1.11 1.11 0 0 0-1.17-1 1.12 1.12 0 0 0-1.19 1 1.14 1.14 0 0 0 1.19 1zm3.43.07a1.13 1.13 0 1 0-1.27-1.12A1.19 1.19 0 0 0 74 36.21zm3.51.05a1.25 1.25 0 0 0 1.33-1.17 1.34 1.34 0 0 0-2.66 0 1.25 1.25 0 0 0 1.33 1.17zm3.49.02a1.29 1.29 0 0 0 1.37-1.19 1.38 1.38 0 0 0-2.74 0A1.28 1.28 0 0 0 81 36.28zm3.45.03a1.31 1.31 0 0 0 1.39-1.22 1.33 1.33 0 0 0-1.39-1.23 1.31 1.31 0 0 0-1.38 1.23 1.3 1.3 0 0 0 1.38 1.22zm3.47-.02a1.29 1.29 0 0 0 1.38-1.2 1.39 1.39 0 0 0-2.75 0 1.28 1.28 0 0 0 1.37 1.2zm3.47-.01a1.28 1.28 0 0 0 1.35-1.19 1.36 1.36 0 0 0-2.7 0 1.27 1.27 0 0 0 1.35 1.19zm3.47-.05a1.15 1.15 0 1 0-1.29-1.14 1.22 1.22 0 0 0 1.29 1.14zm3.47-.07a1.13 1.13 0 0 0 1.21-1.07A1.12 1.12 0 0 0 98.33 34a1.13 1.13 0 0 0-1.21 1.06 1.15 1.15 0 0 0 1.21 1.1zm3.48-.08a1 1 0 1 0-1.12-1 1.06 1.06 0 0 0 1.12 1zm3.47-.08a.88.88 0 1 0 0-1.75.88.88 0 1 0 0 1.75zm3.47-.17a.79.79 0 0 0 .82-.74.83.83 0 0 0-1.66 0 .8.8 0 0 0 .84.74zm3.47-.14a.61.61 0 1 0-.67-.6.64.64 0 0 0 .67.6zm3.47-.2a.44.44 0 0 0 .47-.4.47.47 0 0 0-.94 0 .44.44 0 0 0 .47.4zm3.47-.19a.23.23 0 0 0 .24-.21.25.25 0 0 0-.24-.22.23.23 0 0 0-.24.22.22.22 0 0 0 .24.21zm3.47-.18zm-76.36 3.1a.08.08 0 0 0 .08-.06.08.08 0 1 0-.16 0 .08.08 0 0 0 .08.06zm3.47.22a.32.32 0 0 0 .35-.28.32.32 0 0 0-.35-.32.3.3 0 1 0 0 .6zm3.46.21a.54.54 0 0 0 .58-.49.55.55 0 0 0-.58-.52.54.54 0 0 0-.55.52.53.53 0 0 0 .55.49zm3.48.18a.74.74 0 0 0 .79-.67.79.79 0 0 0-1.57 0 .73.73 0 0 0 .78.67zm3.47.17a.93.93 0 0 0 1-.85.91.91 0 0 0-1-.85.9.9 0 0 0-1 .85.92.92 0 0 0 1 .85zm3.48.14a1.06 1.06 0 0 0 1.12-1 1.14 1.14 0 0 0-2.26 0 1.06 1.06 0 0 0 1.14 1zm3.45.11a1.12 1.12 0 1 0 0-2.21 1.11 1.11 0 1 0 0 2.21zm3.49.1a1.22 1.22 0 1 0-1.38-1.19 1.3 1.3 0 0 0 1.38 1.19zm3.43.08a1.3 1.3 0 1 0-1.47-1.27A1.37 1.37 0 0 0 74 39.43zm3.51.06A1.36 1.36 0 1 0 76 38.16a1.45 1.45 0 0 0 1.51 1.33zm3.49.04a1.49 1.49 0 0 0 1.58-1.37A1.52 1.52 0 0 0 81 36.75a1.49 1.49 0 0 0-1.57 1.41A1.47 1.47 0 0 0 81 39.53zm3.45 0A1.49 1.49 0 0 0 86 38.16a1.6 1.6 0 0 0-3.17 0 1.49 1.49 0 0 0 1.62 1.37zm3.47 0a1.49 1.49 0 0 0 1.59-1.37 1.6 1.6 0 0 0-3.18 0 1.49 1.49 0 0 0 1.59 1.37zm3.47-.01a1.38 1.38 0 1 0 0-2.74 1.38 1.38 0 1 0 0 2.74zm3.47-.05a1.33 1.33 0 1 0-1.5-1.31 1.42 1.42 0 0 0 1.5 1.31zm3.47-.07a1.27 1.27 0 1 0-1.42-1.24 1.36 1.36 0 0 0 1.42 1.24zm3.48-.08a1.18 1.18 0 1 0-1.33-1.16 1.26 1.26 0 0 0 1.33 1.16zm3.47-.12a1.06 1.06 0 1 0 0-2.1 1.06 1.06 0 1 0 0 2.1zm3.47-.13a.93.93 0 1 0-1-.91 1 1 0 0 0 1 .91zm3.47-.15a.83.83 0 0 0 .86-.76.81.81 0 0 0-.86-.77.82.82 0 0 0-.88.77.85.85 0 0 0 .88.76zm3.47-.17a.65.65 0 0 0 .68-.59.66.66 0 0 0-.68-.63.67.67 0 0 0-.69.63.66.66 0 0 0 .69.59zm3.47-.2a.41.41 0 1 0 0-.81.45.45 0 0 0-.47.42.45.45 0 0 0 .47.39zm3.47-.2a.22.22 0 0 0 .21-.19.19.19 0 0 0-.21-.19.18.18 0 0 0-.2.19.2.2 0 0 0 .2.19zm-76.36 3.12a.28.28 0 0 0 .29-.27.27.27 0 0 0-.29-.26.28.28 0 0 0-.29.26.29.29 0 0 0 .29.27zm3.47.2a.49.49 0 0 0 .52-.47.48.48 0 0 0-.52-.45.49.49 0 0 0-.52.45.5.5 0 0 0 .52.47zm3.46.2a.73.73 0 0 0 .8-.67.75.75 0 0 0-.78-.68.73.73 0 0 0-.75.68.72.72 0 0 0 .73.67zm3.48.19a.87.87 0 1 0-1-.86.91.91 0 0 0 1 .86zm3.47.16a1 1 0 1 0-1.15-1 1.09 1.09 0 0 0 1.15 1zm3.48.16a1.18 1.18 0 1 0-1.32-1.18 1.25 1.25 0 0 0 1.32 1.18zm3.45.1a1.29 1.29 0 1 0-1.44-1.28 1.38 1.38 0 0 0 1.44 1.28zm3.49.1A1.39 1.39 0 1 0 69 41.2a1.48 1.48 0 0 0 1.57 1.38zm3.43.08a1.47 1.47 0 1 0-1.66-1.46A1.56 1.56 0 0 0 74 42.66z"/><path d="M77.51 42.72a1.52 1.52 0 1 0-1.73-1.52 1.63 1.63 0 0 0 1.73 1.52zm3.49.05a1.57 1.57 0 1 0-1.76-1.57A1.68 1.68 0 0 0 81 42.77zm3.45 0a1.58 1.58 0 1 0 0-3.13 1.58 1.58 0 1 0 0 3.13z"/><path d="M87.92 42.77a1.58 1.58 0 1 0-1.78-1.57 1.68 1.68 0 0 0 1.78 1.57zm3.47-.03a1.55 1.55 0 1 0-1.75-1.54 1.66 1.66 0 0 0 1.75 1.54zm3.47-.04a1.5 1.5 0 1 0-1.69-1.5 1.6 1.6 0 0 0 1.69 1.5zm3.47-.07a1.44 1.44 0 1 0-1.61-1.43 1.52 1.52 0 0 0 1.61 1.43zm3.48-.1a1.34 1.34 0 1 0-1.52-1.33 1.45 1.45 0 0 0 1.52 1.33zm3.47-.1a1.32 1.32 0 0 0 1.38-1.23 1.39 1.39 0 0 0-2.76 0 1.32 1.32 0 0 0 1.38 1.23zm3.47-.14a1.09 1.09 0 1 0 0-2.17 1.09 1.09 0 1 0 0 2.17zm3.47-.15a.94.94 0 1 0-1.08-.94 1 1 0 0 0 1.08.94zm3.47-.14a.76.76 0 1 0-.85-.76.81.81 0 0 0 .85.76zm3.47-.23a.57.57 0 1 0-.65-.57.61.61 0 0 0 .65.57zm3.47-.2a.36.36 0 1 0 0-.72.36.36 0 1 0 0 .72zm3.48-.24a.14.14 0 0 0 .13-.13.12.12 0 0 0-.13-.11c-.09 0-.14 0-.14.11a.13.13 0 0 0 .14.13zm-83.3 3.07a.14.14 0 0 0 .15-.15.16.16 0 0 0-.15-.13.17.17 0 0 0-.17.13c0 .1.07.15.17.15zm3.46.23a.39.39 0 0 0 .43-.38.43.43 0 0 0-.86 0 .39.39 0 0 0 .43.38zm3.47.22a.64.64 0 0 0 .69-.6.65.65 0 0 0-.69-.59.64.64 0 0 0-.68.59.63.63 0 0 0 .68.6zm3.46.22a.82.82 0 1 0 0-1.62.81.81 0 1 0 0 1.62zm3.48.19a1 1 0 1 0-1.14-1 1.08 1.08 0 0 0 1.14 1zm3.47.15a1.25 1.25 0 0 0 1.33-1.16 1.26 1.26 0 0 0-1.33-1.16 1.24 1.24 0 0 0-1.31 1.16 1.23 1.23 0 0 0 1.31 1.16zm3.48.15a1.3 1.3 0 1 0 0-2.59 1.31 1.31 0 1 0 0 2.59zm3.45.13a1.55 1.55 0 0 0 1.64-1.44 1.64 1.64 0 0 0-3.24 0 1.54 1.54 0 0 0 1.6 1.44zm3.49.09a1.53 1.53 0 1 0-1.74-1.53 1.63 1.63 0 0 0 1.74 1.53zm3.43.08a1.61 1.61 0 1 0-1.81-1.61A1.71 1.71 0 0 0 74 45.86zm3.51.05a1.65 1.65 0 1 0-1.87-1.66 1.76 1.76 0 0 0 1.87 1.66zM81 46a1.7 1.7 0 1 0-1.92-1.71A1.82 1.82 0 0 0 81 46zm3.45 0a1.72 1.72 0 1 0 0-3.4 1.71 1.71 0 1 0 0 3.4z"/><path d="M87.92 46A1.71 1.71 0 1 0 86 44.25 1.83 1.83 0 0 0 87.92 46zm3.47-.06a1.69 1.69 0 1 0-1.9-1.69 1.81 1.81 0 0 0 1.9 1.69zm3.47-.06A1.64 1.64 0 1 0 93 44.25a1.75 1.75 0 0 0 1.86 1.63zm3.47-.05a1.57 1.57 0 1 0-1.78-1.58 1.69 1.69 0 0 0 1.78 1.58zm3.48-.09a1.5 1.5 0 1 0 0-3 1.5 1.5 0 1 0 0 3zm3.47-.13a1.37 1.37 0 1 0 0-2.72 1.37 1.37 0 1 0 0 2.72zm3.47-.12a1.32 1.32 0 0 0 1.38-1.24 1.3 1.3 0 0 0-1.38-1.2 1.32 1.32 0 0 0-1.4 1.2 1.34 1.34 0 0 0 1.4 1.24zm3.47-.14a1.09 1.09 0 1 0-1.23-1.1 1.18 1.18 0 0 0 1.23 1.1zm3.47-.19a.91.91 0 1 0-1-.91 1 1 0 0 0 1 .91zm3.47-.16a.78.78 0 0 0 .81-.73.76.76 0 0 0-.81-.68.74.74 0 0 0-.81.68.77.77 0 0 0 .81.73zm3.47-.26a.52.52 0 0 0 .55-.49.56.56 0 0 0-1.11 0 .52.52 0 0 0 .56.49zm3.48-.21a.29.29 0 0 0 .28-.28.28.28 0 0 0-.28-.25.27.27 0 0 0-.3.25.28.28 0 0 0 .3.28zm3.46-.27zm-86.76 3.32a.28.28 0 0 0 .29-.27.29.29 0 0 0-.29-.26.3.3 0 0 0-.31.26.29.29 0 0 0 .31.27zm3.46.24a.5.5 0 1 0 0-1 .5.5 0 1 0 0 1zm3.47.18a.77.77 0 0 0 .83-.73.83.83 0 0 0-1.65 0 .76.76 0 0 0 .82.73zm3.46.25a1 1 0 1 0 0-1.88.95.95 0 1 0 0 1.88zm3.48.18a1.12 1.12 0 1 0-1.26-1.12 1.2 1.2 0 0 0 1.26 1.12zm3.47.17a1.29 1.29 0 1 0-1.45-1.29 1.38 1.38 0 0 0 1.45 1.29zm3.48.14A1.44 1.44 0 1 0 62 47.31a1.53 1.53 0 0 0 1.63 1.43zm3.45.12a1.55 1.55 0 1 0-1.74-1.55 1.66 1.66 0 0 0 1.74 1.55zm3.49.14a1.65 1.65 0 1 0-1.87-1.64A1.76 1.76 0 0 0 70.57 49z"/><use xlink:href="#G"/><path d="M77.51 49.09a1.79 1.79 0 1 0-2-1.78 1.9 1.9 0 0 0 2 1.78z"/><path d="M81 49.13a1.82 1.82 0 1 0-2.06-1.82A1.94 1.94 0 0 0 81 49.13z"/><use xlink:href="#H"/><use xlink:href="#H" x="3.47"/><path d="M91.39 49.11a1.8 1.8 0 1 0-2-1.8 1.93 1.93 0 0 0 2 1.8z"/><path d="M94.86 49.07a1.76 1.76 0 1 0-2-1.76 1.88 1.88 0 0 0 2 1.76zm3.47-.07a1.68 1.68 0 1 0-1.89-1.67A1.79 1.79 0 0 0 98.33 49zm3.48-.09a1.6 1.6 0 1 0-1.8-1.6 1.71 1.71 0 0 0 1.8 1.6zm3.47-.09a1.51 1.51 0 1 0-1.7-1.51 1.62 1.62 0 0 0 1.7 1.51zm3.47-.15a1.36 1.36 0 1 0 0-2.71 1.37 1.37 0 1 0 0 2.71zm3.47-.15a1.28 1.28 0 0 0 1.34-1.21 1.25 1.25 0 0 0-1.34-1.17 1.27 1.27 0 0 0-1.36 1.17 1.3 1.3 0 0 0 1.36 1.21zm3.47-.19a1 1 0 1 0 0-2 1 1 0 1 0 0 2zm3.47-.19a.84.84 0 1 0-.94-.83.88.88 0 0 0 .94.83zm3.47-.2a.69.69 0 0 0 .71-.63.67.67 0 0 0-.71-.6.66.66 0 0 0-.7.6.68.68 0 0 0 .7.63zm3.48-.25a.41.41 0 0 0 .42-.38.4.4 0 0 0-.42-.36.41.41 0 0 0-.44.36.42.42 0 0 0 .44.38zm3.46-.25a.12.12 0 0 0 .12-.13.11.11 0 0 0-.12-.11c-.08 0-.13 0-.13.11a.12.12 0 0 0 .13.13zm-90.24 3.03c.06 0 .11 0 .11-.08a.11.11 0 0 0-.11-.11.12.12 0 0 0-.11.11s.06.08.11.08zm3.48.27a.41.41 0 0 0 .41-.35.39.39 0 0 0-.41-.37.38.38 0 0 0-.41.37.4.4 0 0 0 .41.35zm3.46.26a.64.64 0 0 0 .68-.59.68.68 0 0 0-1.36 0 .64.64 0 0 0 .68.59zm3.47.22a.9.9 0 0 0 .95-.83.89.89 0 0 0-.95-.84.88.88 0 0 0-.94.84.9.9 0 0 0 .94.83zm3.46.18a1.1 1.1 0 0 0 1.19-1 1.18 1.18 0 0 0-2.35 0 1.09 1.09 0 0 0 1.16 1zm3.48.18a1.29 1.29 0 0 0 1.38-1.19 1.39 1.39 0 0 0-2.76 0 1.29 1.29 0 0 0 1.38 1.19zm3.47.18a1.39 1.39 0 1 0-1.56-1.37 1.49 1.49 0 0 0 1.56 1.37zm3.48.14a1.54 1.54 0 1 0-1.74-1.51 1.64 1.64 0 0 0 1.74 1.51zm3.45.1a1.65 1.65 0 1 0-1.84-1.63A1.76 1.76 0 0 0 67.08 52zm3.49.11a1.85 1.85 0 0 0 2-1.72 2 2 0 1 0-2 1.72z"/><path d="M74 52.21a1.84 1.84 0 1 0-2-1.82 2 2 0 0 0 2 1.82z"/><path d="M77.51 52.22a1.87 1.87 0 1 0-2.11-1.83 2 2 0 0 0 2.11 1.83z"/><path d="M81 52.27a1.91 1.91 0 1 0-2.14-1.88A2 2 0 0 0 81 52.27z"/><use xlink:href="#I"/><use xlink:href="#I" x="3.47"/><path d="M91.39 52.26a2 2 0 0 0 2.12-1.87 2.14 2.14 0 0 0-4.24 0 2 2 0 0 0 2.12 1.87z"/><path d="M94.86 52.21a1.85 1.85 0 1 0-2.08-1.82 2 2 0 0 0 2.08 1.82z"/><path d="M98.33 52.15a1.78 1.78 0 1 0 0-3.54 1.78 1.78 0 1 0 0 3.54z"/><path d="M101.81 52.05a1.79 1.79 0 0 0 1.91-1.66 1.92 1.92 0 0 0-3.82 0 1.78 1.78 0 0 0 1.91 1.66z"/><path d="M105.28 52a1.6 1.6 0 1 0-1.79-1.57 1.69 1.69 0 0 0 1.79 1.57zm3.47-.17a1.47 1.47 0 1 0-1.65-1.44 1.56 1.56 0 0 0 1.65 1.44zm3.47-.16a1.3 1.3 0 1 0-1.48-1.28 1.4 1.4 0 0 0 1.48 1.28zm3.47-.17a1.21 1.21 0 0 0 1.31-1.11 1.23 1.23 0 0 0-1.28-1.14 1.21 1.21 0 0 0-1.28 1.14 1.2 1.2 0 0 0 1.25 1.11zm3.47-.2a.93.93 0 1 0-1-.91 1 1 0 0 0 1 .91zm3.47-.2a.77.77 0 0 0 .81-.71.83.83 0 1 0-.81.71zm3.48-.24a.51.51 0 0 0 .53-.47.54.54 0 0 0-1.07 0 .51.51 0 0 0 .54.47zm3.46-.27a.25.25 0 0 0 .24-.2.23.23 0 0 0-.24-.22.22.22 0 0 0-.23.22.23.23 0 0 0 .23.2zm-90.24 3.02a.18.18 0 0 0 .19-.18.19.19 0 0 0-.19-.17.2.2 0 0 0-.2.17.19.19 0 0 0 .2.18zm3.48.24a.46.46 0 0 0 .48-.42.46.46 0 0 0-.48-.43.46.46 0 0 0-.5.43.47.47 0 0 0 .5.42zm3.46.28a.7.7 0 1 0-.79-.7.74.74 0 0 0 .79.7zm3.47.22a1 1 0 0 0 1-.92 1.04 1.04 0 0 0-2.08 0 1 1 0 0 0 1.08.92zm3.46.21a1.21 1.21 0 0 0 1.27-1.13 1.27 1.27 0 0 0-2.52 0 1.21 1.21 0 0 0 1.25 1.13zm3.48.17a1.4 1.4 0 0 0 1.47-1.3 1.48 1.48 0 1 0-1.47 1.3zm3.47.15a1.47 1.47 0 1 0-1.65-1.45 1.56 1.56 0 0 0 1.65 1.45zm3.48.12a1.61 1.61 0 1 0 0-3.19 1.61 1.61 0 1 0 0 3.19z"/><path d="M67.08 55.15a1.73 1.73 0 1 0-1.94-1.72 1.85 1.85 0 0 0 1.94 1.72z"/><path d="M70.57 55.25a1.83 1.83 0 1 0-2.07-1.82 1.94 1.94 0 0 0 2.07 1.82z"/><path d="M74 55.31a1.89 1.89 0 1 0-2.13-1.88A2 2 0 0 0 74 55.31z"/><path d="M77.51 55.36a1.95 1.95 0 1 0 0-3.86 1.94 1.94 0 1 0 0 3.86z"/><path d="M81 55.38a2.08 2.08 0 0 0 2.21-2 2.23 2.23 0 0 0-4.42 0 2.08 2.08 0 0 0 2.21 2z"/><path d="M84.45 55.4a2 2 0 1 0-2.23-2 2.1 2.1 0 0 0 2.23 2z"/><path d="M87.92 55.4a2 2 0 1 0-2.22-2 2.11 2.11 0 0 0 2.22 2z"/><path d="M91.39 55.38a2 2 0 1 0-2.19-2 2.09 2.09 0 0 0 2.19 2z"/><path d="M94.86 55.34a1.92 1.92 0 1 0-2.15-1.91 2 2 0 0 0 2.15 1.91z"/><path d="M98.33 55.27a1.85 1.85 0 1 0 0-3.68 1.85 1.85 0 1 0 0 3.68z"/><path d="M101.81 55.19a1.77 1.77 0 1 0 0-3.52 1.78 1.78 0 1 0 0 3.52z"/><path d="M105.28 55.09a1.67 1.67 0 1 0-1.89-1.66 1.78 1.78 0 0 0 1.89 1.66zm3.47-.09a1.63 1.63 0 0 0 1.73-1.53 1.65 1.65 0 0 0-1.73-1.54 1.67 1.67 0 0 0-1.75 1.5 1.65 1.65 0 0 0 1.75 1.57zm3.47-.2a1.39 1.39 0 1 0-1.56-1.37 1.47 1.47 0 0 0 1.56 1.37zm3.47-.17a1.28 1.28 0 0 0 1.37-1.2 1.38 1.38 0 0 0-2.74 0 1.29 1.29 0 0 0 1.37 1.2zm3.47-.2a1.07 1.07 0 0 0 1.14-1 1.15 1.15 0 0 0-2.28 0 1.06 1.06 0 0 0 1.14 1zm3.47-.2a.85.85 0 0 0 .88-.8.83.83 0 0 0-.88-.78.85.85 0 0 0-.9.78.86.86 0 0 0 .9.8zm3.48-.23a.57.57 0 0 0 .61-.54.62.62 0 0 0-1.23 0 .57.57 0 0 0 .62.54zm3.46-.28a.31.31 0 0 0 .33-.29.3.3 0 0 0-.33-.29.3.3 0 0 0-.32.29.31.31 0 0 0 .32.29zm3.43-.27zm-93.67 3.28a.24.24 0 1 0 0-.47.24.24 0 1 0 0 .47zm3.48.27a.52.52 0 0 0 .54-.47.55.55 0 0 0-1.1 0 .52.52 0 0 0 .56.47zm3.46.22a.79.79 0 0 0 .84-.72.85.85 0 0 0-1.68 0 .79.79 0 0 0 .84.72zm3.47.25a1 1 0 0 0 1.09-1 1.1 1.1 0 0 0-2.18 0 1 1 0 0 0 1.09 1zm3.46.2a1.27 1.27 0 0 0 1.34-1.17 1.34 1.34 0 0 0-2.66 0 1.28 1.28 0 0 0 1.32 1.17zm3.48.17a1.46 1.46 0 0 0 1.54-1.34 1.55 1.55 0 0 0-3.07 0 1.46 1.46 0 0 0 1.53 1.34zm3.47.16a1.63 1.63 0 0 0 1.72-1.5 1.74 1.74 0 1 0-1.72 1.5z"/><path d="M63.63 58.13a1.65 1.65 0 1 0-1.87-1.63 1.75 1.75 0 0 0 1.87 1.63zm3.45.14a1.78 1.78 0 1 0-2-1.77 1.91 1.91 0 0 0 2 1.77z"/><path d="M70.57 58.34a1.87 1.87 0 1 0 0-3.72 1.88 1.88 0 1 0 0 3.72z"/><path d="M74 58.43a1.95 1.95 0 1 0-2.19-1.93A2.07 2.07 0 0 0 74 58.43z"/><path d="M77.51 58.46a2 2 0 1 0-2.23-2 2.11 2.11 0 0 0 2.23 2z"/><path d="M81 58.5a2 2 0 1 0-2.27-2 2.15 2.15 0 0 0 2.27 2z"/><path d="M84.45 58.52a2 2 0 1 0-2.28-2 2.17 2.17 0 0 0 2.28 2z"/><path d="M87.92 58.5a2 2 0 1 0-2.28-2 2.15 2.15 0 0 0 2.28 2z"/><path d="M91.39 58.47a2 2 0 1 0-2.26-2 2.12 2.12 0 0 0 2.26 2z"/><path d="M94.86 58.45a2.1 2.1 0 0 0 2.21-2 2.23 2.23 0 0 0-4.42 0 2.1 2.1 0 0 0 2.21 2z"/><path d="M98.33 58.38a1.9 1.9 0 1 0-2.14-1.88 2 2 0 0 0 2.14 1.88z"/><use xlink:href="#J"/><path d="M105.28 58.22a1.73 1.73 0 1 0-2-1.72 1.85 1.85 0 0 0 2 1.72zm3.47-.15A1.59 1.59 0 1 0 107 56.5a1.68 1.68 0 0 0 1.75 1.57zm3.47-.14a1.44 1.44 0 1 0-1.64-1.43 1.53 1.53 0 0 0 1.64 1.43zm3.47-.19a1.26 1.26 0 1 0-1.42-1.24 1.34 1.34 0 0 0 1.42 1.24zm3.47-.18a1.07 1.07 0 1 0-1.22-1.06 1.15 1.15 0 0 0 1.22 1.06zm3.47-.24a.84.84 0 1 0-.95-.82.9.9 0 0 0 .95.82zm3.48-.22a.66.66 0 0 0 .7-.6.68.68 0 0 0-.7-.63.69.69 0 0 0-.72.63.67.67 0 0 0 .72.6zm3.46-.26a.37.37 0 0 0 .4-.34.38.38 0 0 0-.4-.37.39.39 0 0 0-.41.37.38.38 0 0 0 .41.34zm3.43-.28c.05 0 .1 0 .1-.06s0-.08-.1-.08a.07.07 0 0 0-.08.08l.08.06zm-93.67 3.25a.3.3 0 0 0 .3-.26.3.3 0 0 0-.6 0 .3.3 0 0 0 .3.26zm3.48.27a.57.57 0 0 0 .59-.53.56.56 0 0 0-.59-.52.55.55 0 0 0-.6.52.56.56 0 0 0 .6.53zm3.46.24a.78.78 0 1 0-.89-.77.83.83 0 0 0 .89.77zm3.47.24a1 1 0 1 0 0-2 1 1 0 1 0 0 2zm3.46.21a1.22 1.22 0 1 0 0-2.43 1.22 1.22 0 1 0 0 2.43zm3.48.23a1.4 1.4 0 1 0-1.57-1.4 1.5 1.5 0 0 0 1.57 1.4zm3.47.1a1.56 1.56 0 1 0-1.75-1.55 1.66 1.66 0 0 0 1.75 1.55zm3.48.13a1.7 1.7 0 1 0-1.92-1.68 1.81 1.81 0 0 0 1.92 1.68z"/><path d="M67.08 61.36a1.82 1.82 0 1 0-2-1.81 1.94 1.94 0 0 0 2 1.81z"/><path d="M70.57 61.43a1.9 1.9 0 1 0-2.16-1.88 2 2 0 0 0 2.16 1.88z"/><path d="M74 61.5a2 2 0 1 0-2.22-2 2.1 2.1 0 0 0 2.22 2z"/><path d="M77.51 61.56a2 2 0 1 0-2.27-2 2.15 2.15 0 0 0 2.27 2z"/><path d="M81 61.59a2.06 2.06 0 1 0-2.31-2 2.19 2.19 0 0 0 2.31 2z"/><path d="M84.45 61.6a2.07 2.07 0 1 0-2.33-2.05 2.2 2.2 0 0 0 2.33 2.05z"/><path d="M87.92 61.59a2.06 2.06 0 1 0-2.32-2 2.18 2.18 0 0 0 2.32 2z"/><path d="M91.39 61.57a2 2 0 1 0 0-4 2 2 0 1 0 0 4z"/><path d="M94.86 61.51a2 2 0 1 0-2.24-2 2.11 2.11 0 0 0 2.24 2z"/><use xlink:href="#K"/><path d="M101.81 61.4a1.87 1.87 0 1 0-2.1-1.85 2 2 0 0 0 2.1 1.85z"/><path d="M105.28 61.3a1.76 1.76 0 1 0-2-1.75 1.89 1.89 0 0 0 2 1.75zm3.47-.12a1.64 1.64 0 1 0-1.84-1.63 1.75 1.75 0 0 0 1.84 1.63zm3.47-.18a1.48 1.48 0 1 0-1.67-1.46 1.57 1.57 0 0 0 1.67 1.46zm3.47-.17a1.29 1.29 0 1 0 0-2.56 1.29 1.29 0 1 0 0 2.56zm3.47-.19a1.11 1.11 0 1 0-1.26-1.09 1.18 1.18 0 0 0 1.26 1.09zm3.47-.21a.89.89 0 1 0-1-.88 1 1 0 0 0 1 .88zm3.48-.24a.67.67 0 0 0 .71-.64.66.66 0 0 0-.71-.64.69.69 0 0 0-.75.64.7.7 0 0 0 .75.64zm3.46-.26a.38.38 0 1 0 0-.76.38.38 0 1 0 0 .76zm3.43-.28c.07 0 .12 0 .12-.1a.11.11 0 0 0-.12-.11.12.12 0 0 0-.13.11c.04.07.13.1.13.1zM39.33 62.9a.31.31 0 0 0 .32-.3.3.3 0 0 0-.32-.27.3.3 0 0 0-.32.27.31.31 0 0 0 .32.3zm3.48.26a.55.55 0 1 0-.62-.56.59.59 0 0 0 .62.56zm3.46.22a.79.79 0 1 0 0-1.56.79.79 0 1 0 0 1.56zm3.47.24a1.09 1.09 0 0 0 1.16-1 1.17 1.17 0 0 0-2.32 0 1.09 1.09 0 0 0 1.16 1zm3.46.21a1.23 1.23 0 1 0-1.38-1.23 1.31 1.31 0 0 0 1.38 1.23zm3.48.17a1.52 1.52 0 0 0 1.6-1.42 1.61 1.61 0 1 0-1.6 1.42zm3.47.16a1.57 1.57 0 1 0-1.77-1.56 1.67 1.67 0 0 0 1.77 1.56zm3.48.16a1.72 1.72 0 1 0-1.94-1.72 1.84 1.84 0 0 0 1.94 1.72z"/><path d="M67.08 64.43a1.83 1.83 0 1 0-2-1.83 2 2 0 0 0 2 1.83z"/><use xlink:href="#L"/><path d="M74 64.57a2 2 0 1 0-2.23-2 2.11 2.11 0 0 0 2.23 2z"/><path d="M77.51 64.62a2 2 0 1 0-2.29-2 2.16 2.16 0 0 0 2.29 2z"/><path d="M81 64.66a2.07 2.07 0 1 0-2.33-2.06A2.2 2.2 0 0 0 81 64.66z"/><path d="M84.45 64.69a2.1 2.1 0 1 0-2.36-2.09 2.23 2.23 0 0 0 2.36 2.09z"/><path d="M87.92 64.66a2.07 2.07 0 1 0-2.34-2.06 2.21 2.21 0 0 0 2.34 2.06z"/><use xlink:href="#M"/><path d="M94.86 64.61a2 2 0 1 0-2.26-2 2.15 2.15 0 0 0 2.26 2z"/><path d="M98.33 64.54a1.95 1.95 0 1 0-2.2-1.94 2.08 2.08 0 0 0 2.2 1.94z"/><use xlink:href="#N"/><path d="M105.28 64.37a1.78 1.78 0 1 0-2-1.77 1.9 1.9 0 0 0 2 1.77zm3.47-.12a1.65 1.65 0 1 0-1.86-1.65 1.77 1.77 0 0 0 1.86 1.65zm3.47-.16a1.5 1.5 0 1 0-1.7-1.49 1.59 1.59 0 0 0 1.7 1.49zm3.47-.16a1.41 1.41 0 0 0 1.48-1.33 1.5 1.5 0 0 0-3 0 1.41 1.41 0 0 0 1.52 1.33zm3.47-.2a1.13 1.13 0 1 0-1.27-1.13 1.2 1.2 0 0 0 1.27 1.13zm3.47-.23a1 1 0 0 0 1-.9 1 1 0 0 0-1-.9 1 1 0 0 0-1 .9 1 1 0 0 0 1 .9zm3.48-.24a.7.7 0 0 0 .74-.66.69.69 0 0 0-.74-.64.7.7 0 0 0-.76.64.71.71 0 0 0 .76.66zm3.46-.26a.41.41 0 0 0 .45-.39.43.43 0 0 0-.45-.39.44.44 0 0 0-.46.39.43.43 0 0 0 .46.39zm3.43-.28a.11.11 0 0 0 .12-.12c0-.07 0-.11-.12-.11a.13.13 0 0 0-.14.11.14.14 0 0 0 .14.12zm-93.67 3.22a.29.29 0 0 0 .32-.26.3.3 0 0 0-.32-.29.3.3 0 0 0-.32.29c-.01.16.14.26.32.26zm3.48.26a.56.56 0 0 0 .59-.52.59.59 0 0 0-.59-.56.58.58 0 0 0-.6.56.55.55 0 0 0 .6.52zm3.46.24a.78.78 0 1 0-.89-.76.85.85 0 0 0 .89.76zm3.47.24a1 1 0 1 0-1.14-1 1.09 1.09 0 0 0 1.14 1zm3.46.19a1.21 1.21 0 1 0-1.36-1.19 1.28 1.28 0 0 0 1.36 1.19zm3.48.19a1.51 1.51 0 0 0 1.6-1.38 1.61 1.61 0 0 0-3.19 0 1.5 1.5 0 0 0 1.59 1.38zm3.47.17a1.57 1.57 0 1 0-1.77-1.55 1.67 1.67 0 0 0 1.77 1.55zm3.48.15a1.72 1.72 0 1 0-1.93-1.7 1.82 1.82 0 0 0 1.93 1.7z"/><path d="M67.08 67.47a1.82 1.82 0 1 0-2-1.79 1.94 1.94 0 0 0 2 1.79z"/><path d="M70.57 67.58a1.92 1.92 0 1 0-2.16-1.9 2 2 0 0 0 2.16 1.9z"/><path d="M74 67.63a2 2 0 1 0-2.22-1.95A2.1 2.1 0 0 0 74 67.63z"/><path d="M77.51 67.68a2 2 0 1 0-2.28-2 2.16 2.16 0 0 0 2.28 2z"/><path d="M81 67.71a2.06 2.06 0 1 0-2.32-2 2.2 2.2 0 0 0 2.32 2z"/><path d="M84.45 67.73a2.08 2.08 0 1 0-2.33-2 2.22 2.22 0 0 0 2.33 2z"/><path d="M87.92 67.73a2.09 2.09 0 1 0-2.34-2 2.22 2.22 0 0 0 2.34 2z"/><use xlink:href="#M" y="3.04"/><path d="M94.86 67.65a2 2 0 1 0-2.25-2 2.13 2.13 0 0 0 2.25 2z"/><path d="M98.33 67.6a1.94 1.94 0 1 0-2.18-1.92 2.08 2.08 0 0 0 2.18 1.92z"/><path d="M101.81 67.52a1.88 1.88 0 1 0-2.12-1.84 2 2 0 0 0 2.12 1.84z"/><path d="M105.28 67.42a1.88 1.88 0 0 0 2-1.74 2 2 0 0 0-4 0 1.88 1.88 0 0 0 2 1.74z"/><path d="M108.75 67.29a1.64 1.64 0 1 0-1.85-1.61 1.76 1.76 0 0 0 1.85 1.61zm3.47-.16a1.48 1.48 0 1 0-1.69-1.45 1.58 1.58 0 0 0 1.69 1.45zm3.47-.13a1.31 1.31 0 1 0-1.48-1.28 1.39 1.39 0 0 0 1.48 1.28zm3.47-.23a1.12 1.12 0 1 0 0-2.22 1.12 1.12 0 1 0 0 2.22zm3.47-.21a1 1 0 0 0 1-.88 1 1 0 0 0-1-.92 1 1 0 0 0-1 .92 1 1 0 0 0 1 .88zm3.48-.23a.66.66 0 1 0 0-1.32.67.67 0 1 0 0 1.32zm3.46-.26a.4.4 0 1 0 0-.8.44.44 0 0 0-.46.41.44.44 0 0 0 .46.39zm3.43-.29a.11.11 0 0 0 .12-.1c0-.08 0-.14-.12-.14a.14.14 0 0 0-.14.14l.14.1zM39.33 69a.29.29 0 0 0 .29-.26.29.29 0 0 0-.58 0 .29.29 0 0 0 .29.26zm3.48.23a.56.56 0 0 0 .58-.51.55.55 0 0 0-.58-.52.52.52 0 1 0 0 1zm3.46.24a.76.76 0 1 0-.86-.75.81.81 0 0 0 .86.75zm3.47.24a1 1 0 1 0 0-2 1 1 0 1 0 0 2zm3.46.21a1.19 1.19 0 1 0-1.34-1.2 1.28 1.28 0 0 0 1.34 1.2zm3.48.18a1.39 1.39 0 1 0-1.55-1.38 1.49 1.49 0 0 0 1.55 1.38zm3.47.16a1.55 1.55 0 1 0 0-3.07 1.55 1.55 0 1 0 0 3.07z"/><path d="M63.63 70.37a1.67 1.67 0 1 0-1.9-1.65 1.78 1.78 0 0 0 1.9 1.65zm3.45.15a1.81 1.81 0 1 0 0-3.58 1.8 1.8 0 1 0 0 3.58z"/><use xlink:href="#N" x="-31.24" y="6.12"/><path d="M74 70.67a2 2 0 1 0-2.21-2 2.11 2.11 0 0 0 2.21 2z"/><path d="M77.51 70.71a2 2 0 1 0-2.26-2 2.15 2.15 0 0 0 2.26 2z"/><path d="M81 70.75a2.18 2.18 0 0 0 2.29-2 2.32 2.32 0 0 0-4.59 0 2.18 2.18 0 0 0 2.3 2z"/><path d="M84.45 70.75a2.05 2.05 0 1 0-2.31-2 2.18 2.18 0 0 0 2.31 2z"/><path d="M87.92 70.75a2.05 2.05 0 1 0-2.3-2 2.17 2.17 0 0 0 2.3 2z"/><path d="M91.39 70.72a2 2 0 1 0-2.27-2 2.16 2.16 0 0 0 2.27 2z"/><path d="M94.86 70.7a2 2 0 1 0-2.24-2 2.13 2.13 0 0 0 2.24 2z"/><use xlink:href="#L" x="27.76" y="6.12"/><path d="M101.81 70.56a1.85 1.85 0 1 0-2.09-1.84 2 2 0 0 0 2.09 1.84z"/><path d="M105.28 70.46a1.74 1.74 0 1 0 0-3.45 1.74 1.74 0 1 0 0 3.45z"/><path d="M108.75 70.33a1.62 1.62 0 1 0-1.83-1.61 1.73 1.73 0 0 0 1.83 1.61zm3.47-.16a1.47 1.47 0 1 0 0-2.91 1.47 1.47 0 1 0 0 2.91zm3.47-.17a1.3 1.3 0 1 0-1.46-1.3 1.38 1.38 0 0 0 1.46 1.3zm3.47-.21a1.08 1.08 0 1 0 0-2.14 1.08 1.08 0 1 0 0 2.14zm3.47-.2a.88.88 0 1 0-1-.87.93.93 0 0 0 1 .87zm3.48-.24a.68.68 0 0 0 .7-.63.66.66 0 0 0-.7-.62.68.68 0 0 0-.73.62.69.69 0 0 0 .73.63zm3.46-.26a.39.39 0 0 0 .42-.37.4.4 0 0 0-.42-.38.41.41 0 0 0-.43.38.4.4 0 0 0 .43.37zm3.43-.28a.1.1 0 1 0 0-.19.1.1 0 0 0-.1.1.1.1 0 0 0 .1.09zM39.33 72a.2.2 0 0 0 .22-.18.21.21 0 0 0-.22-.21.21.21 0 0 0-.22.21.2.2 0 0 0 .22.18zm3.48.24a.48.48 0 0 0 .51-.45.49.49 0 0 0-.51-.47.5.5 0 0 0-.53.47.5.5 0 0 0 .53.45zm3.46.26a.73.73 0 1 0 0-1.44.73.73 0 1 0 0 1.44zm3.47.23a1 1 0 1 0-1.07-.94 1 1 0 0 0 1.07.94zm3.46.19a1.15 1.15 0 1 0-1.28-1.13 1.21 1.21 0 0 0 1.28 1.13zm3.48.19a1.33 1.33 0 1 0-1.49-1.32 1.41 1.41 0 0 0 1.49 1.32zm3.47.17a1.51 1.51 0 1 0-1.69-1.49 1.62 1.62 0 0 0 1.69 1.49zm3.48.14a1.77 1.77 0 0 0 1.85-1.63 1.87 1.87 0 0 0-3.71 0 1.77 1.77 0 0 0 1.86 1.63z"/><path d="M67.08 73.53a1.76 1.76 0 1 0-2-1.74 1.88 1.88 0 0 0 2 1.74z"/><path d="M70.57 73.61a1.85 1.85 0 1 0 0-3.67 1.85 1.85 0 1 0 0 3.67z"/><path d="M74 73.69a1.92 1.92 0 1 0-2.16-1.9 2 2 0 0 0 2.16 1.9z"/><path d="M77.51 73.74a2 2 0 1 0-2.22-1.95 2.1 2.1 0 0 0 2.22 1.95z"/><path d="M81 73.77a2 2 0 1 0-2.25-2 2.14 2.14 0 0 0 2.25 2z"/><path d="M84.45 73.78a2 2 0 1 0-2.26-2 2.14 2.14 0 0 0 2.26 2z"/><path d="M87.92 73.77a2.13 2.13 0 0 0 2.25-2 2.26 2.26 0 0 0-4.5 0 2.13 2.13 0 0 0 2.25 2z"/><path d="M91.39 73.74a2.11 2.11 0 0 0 2.24-1.95 2.25 2.25 0 0 0-4.47 0 2.1 2.1 0 0 0 2.23 1.95z"/><path d="M94.86 73.7a1.94 1.94 0 1 0-2.18-1.91 2.06 2.06 0 0 0 2.18 1.91z"/><path d="M98.33 73.65a1.88 1.88 0 1 0-2.12-1.86 2 2 0 0 0 2.12 1.86z"/><path d="M101.81 73.57a1.81 1.81 0 1 0-2-1.78 1.92 1.92 0 0 0 2 1.78z"/><path d="M105.28 73.48a1.7 1.7 0 1 0-1.91-1.69 1.82 1.82 0 0 0 1.91 1.69zm3.47-.16a1.56 1.56 0 1 0-1.75-1.53 1.66 1.66 0 0 0 1.75 1.53zm3.47-.16a1.49 1.49 0 0 0 1.58-1.37 1.59 1.59 0 0 0-3.17 0 1.49 1.49 0 0 0 1.59 1.37zm3.47-.16a1.24 1.24 0 1 0-1.38-1.23 1.32 1.32 0 0 0 1.38 1.23zm3.47-.18a1.035 1.035 0 1 0 0-2.07 1.035 1.035 0 1 0 0 2.07zm3.47-.23a.85.85 0 0 0 .92-.8.88.88 0 0 0-.92-.84.9.9 0 0 0-.93.84.87.87 0 0 0 .93.8zm3.48-.22a.64.64 0 0 0 .67-.58.65.65 0 0 0-.67-.6.64.64 0 0 0-.68.6.63.63 0 0 0 .68.58zm3.46-.28a.33.33 0 0 0 .35-.3.35.35 0 1 0-.35.3zm3.43-.24s.09 0 .09-.06a.08.08 0 0 0-.09-.08s-.07 0-.07.08a.08.08 0 0 0 .07.06zM39.33 75a.15.15 0 0 0 .16-.14.14.14 0 0 0-.16-.14.15.15 0 0 0-.16.14.16.16 0 0 0 .16.14zm3.48.24a.41.41 0 0 0 .44-.4.42.42 0 0 0-.44-.39.44.44 0 0 0-.47.39.43.43 0 0 0 .47.4zm3.46.25a.66.66 0 1 0-.73-.65.69.69 0 0 0 .73.65zm3.47.23a.93.93 0 0 0 1-.88.9.9 0 0 0-1-.86.93.93 0 0 0-1 .86 1 1 0 0 0 1 .88zm3.46.19a1.08 1.08 0 1 0-1.2-1.07 1.14 1.14 0 0 0 1.2 1.07zm3.48.17a1.33 1.33 0 0 0 1.43-1.24 1.44 1.44 0 0 0-2.86 0 1.34 1.34 0 0 0 1.43 1.24zm3.47.19a1.44 1.44 0 1 0-1.62-1.43 1.54 1.54 0 0 0 1.62 1.43zm3.48.13a1.57 1.57 0 1 0-1.77-1.56 1.69 1.69 0 0 0 1.77 1.56zm3.45.11a1.69 1.69 0 1 0-1.88-1.67 1.8 1.8 0 0 0 1.88 1.67z"/><path d="M70.57 76.6a1.89 1.89 0 0 0 2-1.76 2 2 0 0 0-4 0 1.88 1.88 0 0 0 2 1.76z"/><path d="M74 76.68a1.86 1.86 0 1 0-2-1.84 2 2 0 0 0 2 1.84z"/><path d="M77.51 76.74a1.91 1.91 0 1 0-2.15-1.9 2 2 0 0 0 2.15 1.9z"/><path d="M81 76.76a1.94 1.94 0 1 0-2.18-1.92A2.07 2.07 0 0 0 81 76.76z"/><path d="M84.45 76.78a2 2 0 1 0-2.2-1.94 2.08 2.08 0 0 0 2.2 1.94z"/><use xlink:href="#K" x="-10.41" y="15.29"/><path d="M91.39 76.75a1.92 1.92 0 1 0-2.16-1.91 2.05 2.05 0 0 0 2.16 1.91z"/><path d="M94.86 76.71a1.89 1.89 0 1 0-2.11-1.87 2 2 0 0 0 2.11 1.87z"/><path d="M98.33 76.66a1.83 1.83 0 1 0-2.06-1.82 1.95 1.95 0 0 0 2.06 1.82z"/><path d="M101.81 76.57a1.74 1.74 0 1 0-2-1.73 1.85 1.85 0 0 0 2 1.73zm3.47-.11a1.63 1.63 0 1 0-1.85-1.62 1.76 1.76 0 0 0 1.85 1.62zm3.47-.13a1.5 1.5 0 1 0-1.7-1.49 1.61 1.61 0 0 0 1.7 1.49zm3.47-.15a1.44 1.44 0 0 0 1.51-1.34 1.52 1.52 0 1 0-1.51 1.34zm3.47-.18a1.17 1.17 0 1 0 0-2.33 1.17 1.17 0 1 0 0 2.33zm3.47-.18a1.06 1.06 0 0 0 1.11-1 1.11 1.11 0 1 0-1.11 1zm3.47-.23a.76.76 0 1 0-.85-.75.8.8 0 0 0 .85.75zm3.48-.24a.54.54 0 0 0 .57-.51.55.55 0 0 0-.57-.52.55.55 0 0 0-.59.52.55.55 0 0 0 .59.51zm3.46-.26a.28.28 0 0 0 .3-.25.31.31 0 0 0-.61 0 .28.28 0 0 0 .31.25zM39.33 78a.06.06 0 0 0 .06 0s0-.05-.06-.05 0 0 0 .05zm3.48.19a.32.32 0 0 0 .34-.29.35.35 0 1 0-.34.29zm3.46.26a.6.6 0 0 0 .62-.55.62.62 0 0 0-1.23 0 .6.6 0 0 0 .61.55zm3.47.22a.84.84 0 0 0 .89-.77.89.89 0 0 0-1.77 0 .84.84 0 0 0 .88.77zm3.46.2a1 1 0 0 0 1.12-1 1.12 1.12 0 0 0-2.23 0 1 1 0 0 0 1.11 1zm3.48.19a1.17 1.17 0 1 0-1.33-1.16 1.26 1.26 0 0 0 1.33 1.16zm3.47.17a1.34 1.34 0 1 0-1.51-1.33 1.43 1.43 0 0 0 1.51 1.33zm3.48.13A1.48 1.48 0 1 0 62 77.9a1.57 1.57 0 0 0 1.63 1.46zm3.45.13a1.6 1.6 0 1 0-1.78-1.59 1.71 1.71 0 0 0 1.78 1.59zm3.49.09a1.7 1.7 0 1 0-1.93-1.68 1.81 1.81 0 0 0 1.93 1.68z"/><path d="M74 79.65a1.77 1.77 0 1 0-2-1.75 1.89 1.89 0 0 0 2 1.75z"/><use xlink:href="#J" x="-24.3" y="21.4"/><path d="M81 79.75a1.87 1.87 0 1 0-2.11-1.85A2 2 0 0 0 81 79.75z"/><path d="M84.45 79.75a1.88 1.88 0 1 0-2.12-1.85 2 2 0 0 0 2.12 1.85z"/><path d="M87.92 79.75a1.87 1.87 0 1 0-2.11-1.85 2 2 0 0 0 2.11 1.85z"/><path d="M91.39 79.72a2 2 0 0 0 2.08-1.82 2.09 2.09 0 0 0-4.15 0 1.94 1.94 0 0 0 2.07 1.82z"/><path d="M94.86 79.7a1.81 1.81 0 1 0-2-1.8 1.93 1.93 0 0 0 2 1.8z"/><path d="M98.33 79.62a1.73 1.73 0 1 0-2-1.72 1.86 1.86 0 0 0 2 1.72zm3.48-.1A1.64 1.64 0 1 0 100 77.9a1.75 1.75 0 0 0 1.81 1.62zm3.47-.09a1.54 1.54 0 1 0 0-3.06 1.54 1.54 0 1 0 0 3.06zm3.47-.12a1.42 1.42 0 1 0 0-2.81 1.42 1.42 0 1 0 0 2.81zm3.47-.16a1.34 1.34 0 0 0 1.4-1.25 1.42 1.42 0 0 0-2.82 0 1.35 1.35 0 0 0 1.42 1.25zm3.47-.15a1.16 1.16 0 0 0 1.21-1.07 1.23 1.23 0 0 0-2.43 0 1.17 1.17 0 0 0 1.22 1.07zm3.47-.23a1 1 0 0 0 1-.87 1 1 0 1 0-1 .87zm3.47-.22a.66.66 0 1 0 0-1.3.66.66 0 1 0 0 1.3zm3.48-.23a.42.42 0 1 0-.49-.42.45.45 0 0 0 .49.42zm3.46-.26a.18.18 0 0 0 .2-.16.2.2 0 0 0-.2-.19.2.2 0 0 0-.19.19.18.18 0 0 0 .19.16zm-86.76 3.09a.21.21 0 0 0 .21-.21.2.2 0 0 0-.21-.18.21.21 0 0 0-.23.18.22.22 0 0 0 .23.21zm3.46.25a.47.47 0 0 0 .51-.46.51.51 0 0 0-1 0 .47.47 0 0 0 .49.46zm3.47.22a.67.67 0 1 0-.76-.68.71.71 0 0 0 .76.68zm3.46.21a.94.94 0 0 0 1-.89 1 1 0 0 0-2 0 .94.94 0 0 0 1 .89zm3.48.17a1.06 1.06 0 1 0 0-2.11 1.06 1.06 0 1 0 0 2.11zm3.47.17a1.22 1.22 0 1 0 0-2.42 1.22 1.22 0 1 0 0 2.42zm3.48.15a1.38 1.38 0 1 0-1.55-1.38 1.47 1.47 0 0 0 1.55 1.38zm3.45.13a1.61 1.61 0 0 0 1.71-1.51 1.71 1.71 0 0 0-3.39 0 1.6 1.6 0 0 0 1.68 1.51z"/><path d="M70.57 82.53a1.59 1.59 0 1 0-1.8-1.59 1.69 1.69 0 0 0 1.8 1.59zm3.43.08a1.66 1.66 0 1 0-1.88-1.67A1.78 1.78 0 0 0 74 82.61zm3.51.06a1.72 1.72 0 1 0 0-3.42 1.72 1.72 0 1 0 0 3.42z"/><path d="M81 82.68a1.75 1.75 0 1 0-2-1.74 1.86 1.86 0 0 0 2 1.74z"/><path d="M84.45 82.71a1.77 1.77 0 1 0-2-1.77 1.88 1.88 0 0 0 2 1.77z"/><path d="M87.92 82.71a1.77 1.77 0 1 0-2-1.77 1.89 1.89 0 0 0 2 1.77z"/><use xlink:href="#G" x="17.39" y="33.63"/><path d="M94.86 82.64a1.7 1.7 0 1 0-1.92-1.7 1.81 1.81 0 0 0 1.92 1.7zm3.47-.07a1.63 1.63 0 1 0-1.83-1.63 1.74 1.74 0 0 0 1.83 1.63zm3.48-.08a1.55 1.55 0 1 0 0-3.08 1.55 1.55 0 1 0 0 3.08zm3.47-.12a1.44 1.44 0 1 0-1.62-1.43 1.53 1.53 0 0 0 1.62 1.43zm3.47-.14a1.29 1.29 0 1 0-1.47-1.29 1.37 1.37 0 0 0 1.47 1.29zm3.47-.13a1.15 1.15 0 1 0-1.29-1.16 1.23 1.23 0 0 0 1.29 1.16zm3.47-.19a1 1 0 0 0 1.09-1 1 1 0 0 0-1.09-1 1 1 0 0 0-1.09 1 1 1 0 0 0 1.09 1zm3.47-.19a.77.77 0 1 0 0-1.53.77.77 0 1 0 0 1.53zm3.47-.22a.55.55 0 1 0-.62-.56.6.6 0 0 0 .62.56zm3.48-.25a.32.32 0 0 0 .34-.31.33.33 0 0 0-.34-.29.33.33 0 0 0-.37.29c0 .19.15.31.37.31zm3.46-.25c.05 0 .07 0 .07-.08a.07.07 0 0 0-.07 0 .1.1 0 0 0-.08 0 .08.08 0 0 0 .08.08zm-86.76 3.1a.1.1 0 0 0 .08-.08.08.08 0 0 0-.08-.09c-.06 0-.1 0-.1.09a.1.1 0 0 0 .1.08zm3.46.22a.31.31 0 1 0-.35-.3.33.33 0 0 0 .35.3zm3.47.21a.56.56 0 0 0 .6-.51.56.56 0 0 0-.6-.53.57.57 0 0 0-.6.53.56.56 0 0 0 .6.51zm3.46.22a.74.74 0 1 0-.83-.73.79.79 0 0 0 .83.73zm3.48.25a1 1 0 0 0 1-.93 1.05 1.05 0 1 0-1 .93zm3.47.1a1.09 1.09 0 1 0-1.23-1.1 1.17 1.17 0 0 0 1.23 1.1zm3.48.14a1.23 1.23 0 1 0 0-2.45 1.23 1.23 0 1 0 0 2.45zm3.45.13A1.36 1.36 0 1 0 65.56 84a1.46 1.46 0 0 0 1.52 1.37zm3.49.1A1.47 1.47 0 1 0 68.92 84a1.55 1.55 0 0 0 1.65 1.47zm3.43.08A1.66 1.66 0 0 0 75.78 84a1.76 1.76 0 0 0-3.49 0A1.66 1.66 0 0 0 74 85.55z"/><path d="M77.51 85.6a1.6 1.6 0 1 0-1.79-1.6 1.7 1.7 0 0 0 1.79 1.6zm3.49.03A1.63 1.63 0 1 0 79.13 84 1.75 1.75 0 0 0 81 85.63zm3.45.02A1.65 1.65 0 1 0 82.58 84a1.76 1.76 0 0 0 1.87 1.65zm3.47-.02A1.64 1.64 0 1 0 86.07 84a1.75 1.75 0 0 0 1.85 1.63zm3.47-.01a1.62 1.62 0 1 0 0-3.22 1.62 1.62 0 1 0 0 3.22z"/><path d="M94.86 85.56A1.56 1.56 0 1 0 93.1 84a1.66 1.66 0 0 0 1.76 1.56zm3.47-.07A1.5 1.5 0 1 0 96.64 84a1.59 1.59 0 0 0 1.69 1.49zm3.48-.08a1.41 1.41 0 1 0-1.6-1.39 1.5 1.5 0 0 0 1.6 1.39zm3.47-.12a1.36 1.36 0 0 0 1.45-1.29 1.38 1.38 0 0 0-1.45-1.31 1.39 1.39 0 0 0-1.47 1.31 1.38 1.38 0 0 0 1.47 1.29zm3.47-.12a1.17 1.17 0 1 0-1.33-1.17 1.25 1.25 0 0 0 1.33 1.17zm3.47-.17a1.06 1.06 0 0 0 1.14-1 1.15 1.15 0 0 0-2.29 0 1.07 1.07 0 0 0 1.15 1zm3.47-.15a.88.88 0 0 0 .93-.83.87.87 0 0 0-.93-.84.89.89 0 0 0-1 .84.9.9 0 0 0 1 .83zm3.47-.22a.63.63 0 1 0 0-1.25.63.63 0 1 0 0 1.25zm3.47-.21a.41.41 0 1 0-.47-.4.44.44 0 0 0 .47.4zm3.48-.22a.2.2 0 0 0 .2-.18.19.19 0 0 0-.2-.18c-.13 0-.22.07-.22.18a.2.2 0 0 0 .22.18zm-79.84 3.02a.16.16 0 0 0 .18-.14.18.18 0 1 0-.36 0 .16.16 0 0 0 .18.14zm3.47.22a.38.38 0 1 0 0-.75.38.38 0 1 0 0 .75zm3.46.21a.63.63 0 0 0 .69-.57.64.64 0 0 0-.69-.59.63.63 0 0 0-.66.59.62.62 0 0 0 .66.57zm3.48.18a.77.77 0 1 0 0-1.52.77.77 0 1 0 0 1.52zm3.47.17a1 1 0 1 0-1.06-.93 1 1 0 0 0 1.06.93zm3.48.16a1.09 1.09 0 1 0 0-2.17 1.09 1.09 0 1 0 0 2.17zm3.45.1a1.2 1.2 0 1 0-1.34-1.18 1.29 1.29 0 0 0 1.34 1.18zm3.49.11a1.31 1.31 0 1 0-1.47-1.29 1.39 1.39 0 0 0 1.47 1.29zm3.43.06a1.37 1.37 0 1 0-1.56-1.35A1.45 1.45 0 0 0 74 88.43zm3.51.06a1.52 1.52 0 0 0 1.62-1.41 1.64 1.64 0 1 0-1.62 1.41zm3.49.04a1.48 1.48 0 1 0-1.66-1.45A1.57 1.57 0 0 0 81 88.53zm3.45.04a1.51 1.51 0 1 0-1.69-1.49 1.61 1.61 0 0 0 1.69 1.49zm3.47-.04a1.48 1.48 0 1 0 0-2.93 1.48 1.48 0 1 0 0 2.93zm3.47-.02a1.46 1.46 0 1 0-1.64-1.43 1.56 1.56 0 0 0 1.64 1.43z"/><path d="M94.86 88.46a1.41 1.41 0 1 0-1.59-1.38 1.49 1.49 0 0 0 1.59 1.38zm3.47-.07a1.43 1.43 0 0 0 1.52-1.31 1.53 1.53 0 0 0-3 0 1.42 1.42 0 0 0 1.48 1.31zm3.48-.08a1.32 1.32 0 0 0 1.4-1.23 1.42 1.42 0 1 0-1.4 1.23zm3.47-.11a1.14 1.14 0 1 0 0-2.26 1.14 1.14 0 1 0 0 2.26zm3.47-.13a1 1 0 1 0-1.15-1 1.08 1.08 0 0 0 1.15 1zm3.47-.15a.91.91 0 0 0 1-.84 1 1 0 0 0-1.9 0 .91.91 0 0 0 .9.84zm3.47-.19a.72.72 0 0 0 .76-.65.77.77 0 0 0-1.52 0 .72.72 0 0 0 .76.65zm3.47-.18a.5.5 0 0 0 .54-.47.55.55 0 0 0-1.09 0 .5.5 0 0 0 .55.47zm3.47-.2a.28.28 0 0 0 .29-.27.28.28 0 0 0-.29-.29.29.29 0 0 0-.29.29.29.29 0 0 0 .29.27zm3.48-.24v-.06s-.07 0-.07.06.03 0 .07 0zm-76.37 3.22a.22.22 0 0 0 .24-.21c0-.12-.1-.2-.24-.2a.21.21 0 0 0-.23.2.22.22 0 0 0 .23.21zm3.46.19a.44.44 0 0 0 .48-.4.45.45 0 0 0-.48-.41.44.44 0 0 0-.45.41.43.43 0 0 0 .45.4zm3.48.2a.6.6 0 1 0-.69-.6.64.64 0 0 0 .69.6zm3.47.16a.76.76 0 1 0-.85-.76.82.82 0 0 0 .85.76zm3.48.12a.91.91 0 1 0-1-.9 1 1 0 0 0 1 .9zm3.45.14a1 1 0 1 0-1.14-1 1.09 1.09 0 0 0 1.14 1zm3.49.12a1.14 1.14 0 1 0-1.29-1.14 1.22 1.22 0 0 0 1.29 1.14zm3.43.05a1.2 1.2 0 1 0-1.37-1.19A1.28 1.28 0 0 0 74 91.31zm3.51.06a1.26 1.26 0 1 0 0-2.49 1.26 1.26 0 1 0 0 2.49zm3.49.06a1.39 1.39 0 0 0 1.45-1.31A1.37 1.37 0 0 0 81 88.84a1.39 1.39 0 0 0-1.46 1.28A1.4 1.4 0 0 0 81 91.43zm3.45 0a1.31 1.31 0 1 0 0-2.6 1.31 1.31 0 1 0 0 2.6zm3.47 0a1.31 1.31 0 1 0-1.47-1.31 1.39 1.39 0 0 0 1.47 1.31zm3.47-.02a1.29 1.29 0 1 0-1.46-1.29 1.39 1.39 0 0 0 1.46 1.29zm3.47-.06a1.23 1.23 0 1 0-1.39-1.23 1.32 1.32 0 0 0 1.39 1.23zm3.47-.07a1.23 1.23 0 0 0 1.31-1.16 1.33 1.33 0 1 0-1.31 1.16zm3.48-.09a1.07 1.07 0 1 0 0-2.13 1.07 1.07 0 1 0 0 2.13zm3.47-.1a1 1 0 0 0 1.07-1 1 1 0 0 0-1.07-1 1 1 0 0 0-1.09 1 1 1 0 0 0 1.09 1zm3.47-.09a.84.84 0 1 0-1-.84.9.9 0 0 0 1 .84zm3.47-.21a.68.68 0 1 0-.76-.67.72.72 0 0 0 .76.67zm3.47-.17a.5.5 0 1 0 0-1 .5.5 0 1 0 0 1zm3.47-.18a.33.33 0 0 0 .34-.32.33.33 0 0 0-.34-.31.33.33 0 0 0-.34.31.34.34 0 0 0 .34.32zm3.47-.21a.1.1 0 0 0 .1-.11.11.11 0 0 0-.1-.1.1.1 0 0 0-.1.1.1.1 0 0 0 .1.11zm-72.89 2.98s-.02 0 0 0zm3.46.19a.24.24 0 0 0 .25-.22c0-.12-.11-.19-.25-.19a.21.21 0 0 0-.23.19.23.23 0 0 0 .23.22zm3.48.19a.43.43 0 0 0 .45-.41.42.42 0 0 0-.45-.39.43.43 0 0 0-.45.39.44.44 0 0 0 .45.41zm3.47.16a.62.62 0 0 0 .65-.57.6.6 0 0 0-.65-.56.59.59 0 0 0-.64.56.61.61 0 0 0 .64.57zm3.48.12a.74.74 0 0 0 .79-.69.81.81 0 0 0-1.6 0 .75.75 0 0 0 .81.69zm3.45.13a.84.84 0 1 0-.93-.84.89.89 0 0 0 .93.84zm3.49.11a.93.93 0 1 0-1.06-.93 1 1 0 0 0 1.06.93zm3.43.07a1 1 0 1 0-1.14-1 1.07 1.07 0 0 0 1.14 1zm3.51.08a1.08 1.08 0 1 0-1.22-1.08 1.16 1.16 0 0 0 1.22 1.08zm3.49.02a1.18 1.18 0 0 0 1.25-1.1 1.27 1.27 0 1 0-1.25 1.1zm3.45 0a1.18 1.18 0 0 0 1.25-1.1 1.27 1.27 0 1 0-1.25 1.1zm3.47 0a1.18 1.18 0 0 0 1.26-1.1 1.27 1.27 0 1 0-1.26 1.1zm3.47-.02a1.16 1.16 0 0 0 1.22-1.08 1.23 1.23 0 1 0-1.22 1.08zm3.47-.05a1 1 0 1 0-1.17-1 1.1 1.1 0 0 0 1.17 1zm3.47-.05a1.05 1.05 0 0 0 1.11-1 1 1 0 0 0-1.11-1 1.05 1.05 0 0 0-1.11 1 1.07 1.07 0 0 0 1.11 1zm3.48-.11a.88.88 0 1 0-1-.87.94.94 0 0 0 1 .87zm3.47-.05a.83.83 0 0 0 .86-.78.81.81 0 0 0-.86-.76.82.82 0 0 0-.88.76.84.84 0 0 0 .88.78zm3.47-.19a.67.67 0 0 0 .71-.63.71.71 0 0 0-1.42 0 .67.67 0 0 0 .71.63zm3.47-.15a.48.48 0 1 0-.55-.48.51.51 0 0 0 .55.48zm3.47-.18a.31.31 0 0 0 .34-.3.34.34 0 0 0-.68 0 .31.31 0 0 0 .34.3zm3.47-.18a.12.12 0 1 0 0-.24.12.12 0 1 0 0 .24zM53.2 96.26zm3.48.16a.19.19 0 1 0-.21-.19.2.2 0 0 0 .21.19zm3.47.18a.36.36 0 1 0 0-.71.36.36 0 1 0 0 .71zm3.48.13a.52.52 0 0 0 .54-.5.49.49 0 0 0-.54-.46.51.51 0 0 0-.56.46.54.54 0 0 0 .56.5zm3.45.14a.69.69 0 0 0 .72-.64.68.68 0 0 0-.72-.62.67.67 0 0 0-.69.62.68.68 0 0 0 .69.64zm3.49.13a.79.79 0 0 0 .82-.73.78.78 0 0 0-.82-.72.78.78 0 0 0-.83.72.8.8 0 0 0 .83.73zM74 97a.83.83 0 0 0 .88-.79.82.82 0 0 0-.88-.77.83.83 0 0 0-.9.77.84.84 0 0 0 .9.79zm3.51.07a.84.84 0 1 0-1-.84.89.89 0 0 0 1 .84zm3.49.05a.89.89 0 1 0-1-.89 1 1 0 0 0 1 .89zm3.45.02a.91.91 0 1 0-1-.91 1 1 0 0 0 1 .91zm3.47 0a.91.91 0 1 0-1-.91 1 1 0 0 0 1 .91zm3.47-.02a.88.88 0 1 0 0-1.74.88.88 0 1 0 0 1.74zm3.47-.07a.82.82 0 1 0-.92-.82.88.88 0 0 0 .92.82zm3.47-.05a.76.76 0 1 0 0-1.5.76.76 0 1 0 0 1.5zm3.48-.11a.65.65 0 1 0 0-1.3.66.66 0 1 0 0 1.3zm3.47-.11a.54.54 0 1 0 0-1.08.55.55 0 1 0 0 1.08zm3.47-.15a.41.41 0 0 0 .45-.4.43.43 0 0 0-.45-.4.45.45 0 0 0-.47.4.42.42 0 0 0 .47.4zm3.47-.13a.28.28 0 0 0 .3-.27.29.29 0 0 0-.3-.26.29.29 0 0 0-.31.26.29.29 0 0 0 .31.27zm3.47-.16a.1.1 0 0 0 .1-.11s0-.08-.1-.08-.1 0-.1.08a.1.1 0 0 0 .1.11zm-55.54 3.08a.14.14 0 0 0 .14-.12.13.13 0 0 0-.14-.12c-.08 0-.13 0-.13.12a.12.12 0 0 0 .13.12zm3.48.15a.3.3 0 0 0 .3-.27.28.28 0 0 0-.3-.27.29.29 0 0 0-.31.27.3.3 0 0 0 .31.27zm3.45.1a.39.39 0 0 0 .43-.37.42.42 0 0 0-.83 0 .38.38 0 0 0 .4.37zm3.49.11a.51.51 0 0 0 .53-.48.54.54 0 1 0-.53.48zm3.43.05a.58.58 0 0 0 .62-.53.6.6 0 0 0-.62-.56.59.59 0 0 0-.62.56.58.58 0 0 0 .62.53zm3.51.1a.66.66 0 0 0 .7-.63.71.71 0 0 0-1.41 0 .67.67 0 0 0 .71.63zM81 100a.71.71 0 0 0 .73-.66.73.73 0 0 0-1.46 0 .7.7 0 0 0 .73.66zm3.45 0a.72.72 0 0 0 .74-.66.75.75 0 0 0-1.48 0 .71.71 0 0 0 .74.66zm3.47 0a.71.71 0 0 0 .74-.66.75.75 0 0 0-1.48 0 .71.71 0 0 0 .74.66zm3.47-.07a.67.67 0 0 0 .71-.63.66.66 0 0 0-.71-.61.67.67 0 0 0-.72.61.68.68 0 0 0 .72.63zm3.47-.04a.63.63 0 0 0 .68-.59.65.65 0 0 0-.68-.61.64.64 0 0 0-.66.61.62.62 0 0 0 .66.59zm3.47-.08a.55.55 0 0 0 .59-.51.56.56 0 0 0-.59-.51.54.54 0 0 0-.57.51.53.53 0 0 0 .57.51zm3.48-.08a.43.43 0 1 0 0-.86.43.43 0 1 0 0 .86zm3.47-.14a.3.3 0 1 0 0-.59.3.3 0 1 0 0 .59zm3.47-.11a.2.2 0 0 0 .2-.18.19.19 0 0 0-.2-.18.2.2 0 0 0-.22.18.21.21 0 0 0 .22.18zm3.47-.13h.06-.06v.1zm-48.59 3.03s-.02 0 0 0zm3.45.1c.09 0 .16 0 .16-.13s-.07-.11-.16-.11a.11.11 0 0 0-.12.11.12.12 0 0 0 .12.13zm3.49.1a.25.25 0 0 0 .24-.23.24.24 0 0 0-.48 0 .25.25 0 0 0 .24.23zm3.43.06a.29.29 0 0 0 .32-.29.3.3 0 0 0-.32-.29.31.31 0 0 0-.33.29.31.31 0 0 0 .33.29zm3.51.08a.4.4 0 0 0 .4-.37.39.39 0 0 0-.4-.35.37.37 0 0 0-.4.35.38.38 0 0 0 .4.37zm3.49.02a.38.38 0 1 0 0-.75.38.38 0 1 0 0 .75zm3.45 0a.41.41 0 0 0 .45-.39.45.45 0 0 0-.9 0 .41.41 0 0 0 .45.39zm3.47 0a.41.41 0 0 0 .45-.39.43.43 0 0 0-.45-.39.43.43 0 0 0-.45.39.41.41 0 0 0 .45.39zm3.47-.01a.39.39 0 0 0 .41-.38.38.38 0 0 0-.41-.36.4.4 0 0 0-.43.36.41.41 0 0 0 .43.38zm3.47-.06a.34.34 0 0 0 .36-.32.35.35 0 0 0-.36-.31.34.34 0 0 0-.35.31.33.33 0 0 0 .35.32zm3.47-.06a.28.28 0 0 0 .3-.26.28.28 0 0 0-.3-.26.29.29 0 0 0-.3.26.28.28 0 0 0 .3.26zm3.48-.07a.2.2 0 0 0 .19-.19.19.19 0 0 0-.19-.16.17.17 0 0 0-.19.16.19.19 0 0 0 .19.19zm3.47-.11s.06 0 .06-.08 0-.07-.06-.07a.1.1 0 0 0-.09.07.08.08 0 0 0 .09.08zM74 105.45zm3.51.04a.08.08 0 0 0 .08-.07c0-.06 0-.09-.08-.09a.08.08 0 0 0-.09.09.09.09 0 0 0 .09.07zm3.49.03a.11.11 0 0 0 .12-.1.12.12 0 1 0-.24 0 .11.11 0 0 0 .12.1zm3.45 0c.07 0 .14 0 .14-.1a.14.14 0 0 0-.28 0s.07.1.14.1zm3.47 0c.07 0 .14 0 .14-.1a.13.13 0 0 0-.14-.13.12.12 0 0 0-.13.13.12.12 0 0 0 .13.1zm3.47-.03c.06 0 .1 0 .1-.07a.09.09 0 0 0-.1-.1.1.1 0 0 0-.11.1s.05.07.11.07zm3.47 0a.08.08 0 0 0 .08-.07c0-.06 0-.09-.08-.09s-.07 0-.07.09a.08.08 0 0 0 .07.07z"/><path d="M46.33 43.35a13 13 0 0 0 4.28-7.26 16.69 16.69 0 0 0 .16-4.89c.53.73 5.23 7 13.35 7.45a18.29 18.29 0 0 0 18.24-13.34c.25 1.44 1.76 9 8.45 12.16 8.06 3.85 28.46-10.59 28.46-10.59s-2.83 7.3 0 11.77c4 6.26 16.42 9 28.92 3.52a29.05 29.05 0 0 0-4.81 5.21c-2.1 2.94-5.88 8.22-4.53 13.61s14.68 11 14.68 11-14.55.17-19.13 4.71a15.28 15.28 0 0 0-4.4 11.74 18.68 18.68 0 0 0-13.34-3.53A16.39 16.39 0 0 0 102.82 99a15.54 15.54 0 0 0-11.57-11.34c-7.9-1.7-20 12.15-20 12.15s.24-5.28-1.82-9.17A16 16 0 0 0 65 85.3c-5.18-3.36-18.39 1.27-31.14 12.55C39 88.9 43 78.93 38.32 73.93c-5.56-5.92-21.8-5.49-21.8-5.49 1.12-.3 8.87-2.53 12-9.41 2.84-6.21-5.31-18.65-5.31-18.65S42 46.91 46.33 43.35z" fill="url(#A)"/><path d="M45.36 42.7a12.91 12.91 0 0 0 2-2.3l.79-1.3a10.73 10.73 0 0 0 1.08-2.78 14.88 14.88 0 0 0 .27-1.51 18.81 18.81 0 0 0 .15-3.08l-.73-4.62L52 31a18.75 18.75 0 0 0 3.29 3.18 17.25 17.25 0 0 0 4 2.34 15.26 15.26 0 0 0 4.51 1.09 15.47 15.47 0 0 0 4.65-.33 17.77 17.77 0 0 0 8-4.34 18.47 18.47 0 0 0 2.86-3.46 20.63 20.63 0 0 0 1.9-4l1.79-5 .67 5.09a16.13 16.13 0 0 0 4.35 9.3 9.48 9.48 0 0 0 1 .89 12.24 12.24 0 0 0 1.1.79l1.2.67.58.23c.2.07.42.11.63.17a13 13 0 0 0 5.57-.41 47.92 47.92 0 0 0 10.71-4.57 102.52 102.52 0 0 0 9.74-6.21l3.22-2.33-1.21 3.57A20.56 20.56 0 0 0 120 30a18.92 18.92 0 0 0-.35 2.36 11.69 11.69 0 0 0 .39 4.52c0 .18.13.34.19.51a3.48 3.48 0 0 0 .21.48l.26.46a4.63 4.63 0 0 0 .31.46 9.57 9.57 0 0 0 1.59 1.66 14.42 14.42 0 0 0 4.29 2.38A24.49 24.49 0 0 0 137.3 44a32.85 32.85 0 0 0 10.29-2.68l9.52-4.15-7.62 6.51a27.83 27.83 0 0 0-3.41 3.46l-1.45 1.92-1.36 2a22.46 22.46 0 0 0-2.11 4.14 11.51 11.51 0 0 0-.75 4.24c.05.34 0 .7.12 1l.1.52v.22l.07.2a5.51 5.51 0 0 0 1.1 1.62 19.81 19.81 0 0 0 3.62 3.08 49.39 49.39 0 0 0 4.36 2.63l4.64 2.26 6.3 2.75-7 .15c-1.35 0-2.79.12-4.18.25l-4.15.51a39.74 39.74 0 0 0-4 .84 20.2 20.2 0 0 0-3.63 1.34 8.56 8.56 0 0 0-1.45.92 12.69 12.69 0 0 0-1.2 1.22 12.86 12.86 0 0 0-1.9 3 13.92 13.92 0 0 0-1.28 6.79l.22 3.59-3.16-2.29a17.63 17.63 0 0 0-7.43-3.13 14.47 14.47 0 0 0-7.9 1 14.29 14.29 0 0 0-3.38 2 13.88 13.88 0 0 0-2.69 2.78 16 16 0 0 0-1.85 3.3 16.79 16.79 0 0 0-.92 3.61l-1.26 9-2.32-8.8a14.54 14.54 0 0 0-4.7-7.44 13.12 13.12 0 0 0-4-2.28 10.16 10.16 0 0 0-1.11-.33 4.2 4.2 0 0 0-.54-.13l-.45-.07a6.43 6.43 0 0 0-2.05.19 11 11 0 0 0-2.18.75 21.8 21.8 0 0 0-2.15 1.1 34.65 34.65 0 0 0-4 2.83c-1.3 1-2.54 2.13-3.75 3.26l-3.43 3.52-3.48 3.8.16-4.86v-1.37c0-.46 0-.94-.1-1.41a20.92 20.92 0 0 0-.46-2.75 13.15 13.15 0 0 0-.91-2.56 16 16 0 0 0-1.47-2.41 14.5 14.5 0 0 0-1.84-2.11l-.49-.4c-.16-.12-.31-.2-.46-.29a4.83 4.83 0 0 0-1.11-.4 8.77 8.77 0 0 0-2.72-.17 17.81 17.81 0 0 0-3 .48 34.44 34.44 0 0 0-6 2.1 54.83 54.83 0 0 0-5.61 3 72.84 72.84 0 0 0-10.13 7.52l-7.9 7 5.07-8.76a63.19 63.19 0 0 0 5-10.31 24.47 24.47 0 0 0 1.32-5.3 9.89 9.89 0 0 0-.49-5 5.86 5.86 0 0 0-1.39-2 10 10 0 0 0-2.16-1.52 22.3 22.3 0 0 0-5.56-2 45.81 45.81 0 0 0-6.15-1 57.79 57.79 0 0 0-6.28-.27l-12.67.22 12.13-3.09a21.43 21.43 0 0 0 4.1-1.55 19 19 0 0 0 3.6-2.36 13.94 13.94 0 0 0 2.77-3.09 9.68 9.68 0 0 0 .52-.88 7.82 7.82 0 0 0 .44-.86 6.3 6.3 0 0 0 .39-1.7 13.29 13.29 0 0 0-.34-4 26.87 26.87 0 0 0-1.22-4 49.13 49.13 0 0 0-3.79-7.75l-1-1.57 1.94.58 5.69 1.52 5.75 1.21a40.68 40.68 0 0 0 5.73.64 15.57 15.57 0 0 0 2.69-.14 3.79 3.79 0 0 0 1.91-.69zm2.22 2.11a5.68 5.68 0 0 1-1.85.91 8.55 8.55 0 0 1-.91.22c-.31.06-.59.08-.88.12a19 19 0 0 1-3.3 0l-3.11-.42-3-.62-5.82-1.6-5.65-2 1-1a52.22 52.22 0 0 1 4.33 7.84 29.12 29.12 0 0 1 1.5 4.2 15.12 15.12 0 0 1 .59 4.54 8.17 8.17 0 0 1-.44 2.4 8.81 8.81 0 0 1-.49 1.11 9.56 9.56 0 0 1-.56 1 15.79 15.79 0 0 1-3 3.75 21 21 0 0 1-4.05 2.91 23.78 23.78 0 0 1-4.73 2l-.54-2.87a62.2 62.2 0 0 1 6.72.26 50.57 50.57 0 0 1 6.66 1 25.94 25.94 0 0 1 6.48 2.28 13.22 13.22 0 0 1 2.91 2 9 9 0 0 1 2 2.91 12.65 12.65 0 0 1 .72 6.35 27.78 27.78 0 0 1-1.43 5.9 66.89 66.89 0 0 1-5.14 11l-2.83-1.81a75.51 75.51 0 0 1 10.6-7.91A45.3 45.3 0 0 1 56 83.66a22.85 22.85 0 0 1 3.67-.58 13 13 0 0 1 4 .28 8.63 8.63 0 0 1 2 .74 8.45 8.45 0 0 1 .92.58 9.51 9.51 0 0 1 .75.62 17.43 17.43 0 0 1 2.31 2.62 18.8 18.8 0 0 1 1.74 2.86 15.55 15.55 0 0 1 1.12 3.14 22 22 0 0 1 .55 3.16l.11 1.58v1.62l-3.25-1 3.65-3.75 4-3.46A38.51 38.51 0 0 1 82 88.92a23.3 23.3 0 0 1 2.54-1.31 14.91 14.91 0 0 1 2.87-1 10.65 10.65 0 0 1 3.33-.28c.3 0 .59.08.89.13s.51.12.77.18a14.46 14.46 0 0 1 1.46.44A16.71 16.71 0 0 1 99 90a17.54 17.54 0 0 1 5.74 9l-3.58.19a19.41 19.41 0 0 1 1.11-4.33 18.29 18.29 0 0 1 19.9-11.13 21.4 21.4 0 0 1 4.83 1.49 21.79 21.79 0 0 1 4.26 2.42l-2.94 1.3a16.94 16.94 0 0 1 1.57-8.17 16.38 16.38 0 0 1 2.36-3.65 14.25 14.25 0 0 1 1.65-1.65 11.41 11.41 0 0 1 2.1-1.31 22.74 22.74 0 0 1 4.36-1.61 45 45 0 0 1 4.42-.92l4.43-.53 4.48-.25-.74 2.9-4.93-2.42a50.53 50.53 0 0 1-4.67-2.84 22.72 22.72 0 0 1-4.23-3.65 8.37 8.37 0 0 1-1.57-2.55l-.12-.38-.06-.19v-.17l-.13-.68c-.09-.46-.09-.92-.14-1.37a14.09 14.09 0 0 1 .93-5.26 24.77 24.77 0 0 1 2.39-4.67l1.45-2.13c.45-.69 1-1.42 1.59-2.09a30.46 30.46 0 0 1 3.8-3.82l1.89 2.36a36.6 36.6 0 0 1-11.45 3 27.84 27.84 0 0 1-12-1.42 17.22 17.22 0 0 1-5.25-3 12.46 12.46 0 0 1-2-2.22l-.4-.63-.35-.67a4.59 4.59 0 0 1-.29-.69l-.24-.69a14 14 0 0 1-.24-5.44 20.6 20.6 0 0 1 .51-2.6 20 20 0 0 1 .82-2.56l2 1.25a107.28 107.28 0 0 1-10.28 6l-5.47 2.55a39.82 39.82 0 0 1-5.82 2 22.87 22.87 0 0 1-3.14.55 11.94 11.94 0 0 1-3.31-.15l-.84-.22-.8-.31-1.39-.75a11.58 11.58 0 0 1-1.28-.88c-.4-.32-.81-.63-1.16-1l-.54-.53c-.18-.18-.33-.37-.5-.56-.34-.37-.63-.76-.93-1.15s-.54-.81-.82-1.21-.5-.84-.7-1.27a22.66 22.66 0 0 1-2-5.33l2.46.09A19.24 19.24 0 0 1 82 30.64a20.86 20.86 0 0 1-3.12 4.13A19.13 19.13 0 0 1 74.53 38a18.92 18.92 0 0 1-11 2.37A17.22 17.22 0 0 1 58 39a19.64 19.64 0 0 1-4.61-2.89 19.41 19.41 0 0 1-3.53-3.84l2.39-.75a15.61 15.61 0 0 1 .2 3.48 15.11 15.11 0 0 1-.16 1.77 13.86 13.86 0 0 1-.43 1.8 13 13 0 0 1-1.62 3.36A12.23 12.23 0 0 1 49 43.44a13.77 13.77 0 0 1-1.42 1.37z"/><path d="M66.78 28.45l-6-14.26z" class="C"/><path d="M66.78 28.45l-7.52-13.76a1.37 1.37 0 0 1 .74-1.93 1.75 1.75 0 0 1 2.19.68 2.72 2.72 0 0 1 .11.25z"/><path d="M69.91 23.66L67 1.53z" class="C"/><path d="M69.91 23.66l-4.57-22A1.47 1.47 0 0 1 66.65 0a1.63 1.63 0 0 1 1.9 1.16.63.63 0 0 1 0 .19z"/><path d="M100.41 27.15L108 13.49z" class="C"/><path d="M100.41 27.15l6.1-14.29a1.71 1.71 0 0 1 2.11-.84 1.4 1.4 0 0 1 .95 1.86 1.12 1.12 0 0 1-.13.24z"/><path d="M18.4 54.48L1.79 50.39z" class="C"/><path d="M18.4 54.48l-17-2.7A1.47 1.47 0 0 1 0 50.1a1.64 1.64 0 0 1 1.9-1.17l.3.08z"/><path d="M133 34.16l12.41-6.45z" class="C"/><path d="M133 34.16l11.58-7.69a1.79 1.79 0 0 1 2.3.29 1.33 1.33 0 0 1-.33 2 1.41 1.41 0 0 1-.32.17z"/><path d="M56.07 96.06L50 110.3z" class="C"/><path d="M56.07 96.06l-4.51 14.75a1.67 1.67 0 0 1-2 1 1.44 1.44 0 0 1-1.16-1.77 2 2 0 0 1 .11-.26z"/><path d="M39.31 35.24L29.24 22.89z" class="C"/><path d="M39.31 35.24L27.92 23.73a1.33 1.33 0 0 1 .15-2 1.81 1.81 0 0 1 2.32.14l.18.22z"/><path d="M144.1 82.15l17 6.57z" class="C"/><path d="M144.1 82.15l17.68 5.25a1.42 1.42 0 0 1 1 1.83 1.7 1.7 0 0 1-2.08.9 1.17 1.17 0 0 1-.26-.1z"/><path d="M114.47 93.18l10.71 13.4z" class="C"/><path d="M114.47 93.18l12 12.57a1.33 1.33 0 0 1-.2 2 1.77 1.77 0 0 1-2.3-.17 1.73 1.73 0 0 1-.17-.21z"/><path d="M89.69 97.85l.75 14.39z" class="C"/><path d="M89.69 97.85l2.38 14.33a1.49 1.49 0 0 1-1.39 1.64 1.63 1.63 0 0 1-1.86-1.23 1.31 1.31 0 0 1 0-.28z"/><path d="M84.52 101.65l-3.92 18.09z" class="C"/><path d="M84.52 101.65L82.21 120a1.6 1.6 0 0 1-1.81 1.27 1.49 1.49 0 0 1-1.4-1.58.85.85 0 0 1 0-.22z"/><path d="M123.84 95.7l15.62 13.43z" class="C"/><path d="M123.84 95.7l16.76 12.4a1.33 1.33 0 0 1 .2 2 1.79 1.79 0 0 1-2.3.18l-.18-.15z"/><path d="M131.91 30.41l12.83-12.29z" class="C"/><path d="M131.91 30.41l11.86-13.29a1.63 1.63 0 0 1 2.2-.37 1.49 1.49 0 0 1 0 2.15 1.58 1.58 0 0 1-.23.22z"/><path d="M28.92 85.83L9.59 99.47z" class="C"/><path d="M28.92 85.83l-18.31 14.76a1.79 1.79 0 0 1-2.31-.09 1.32 1.32 0 0 1 .11-2l.16-.12z"/><g style="mix-blend-mode:multiply"><path d="M41.4 47.36a49 49 0 0 1 13.65-2.53q7.26 0 7.15 5.05Q62 60.05 45.11 70.9q-1.18 6.55-1.72 12.1l-8.55 2.37q.16-1.18 1.29-7.2l2.37-12.7q3.17-17.58 2.9-18.11zM48.17 56l-.7 3-.59 3c3.33-1.65 5.48-3.38 6.45-5.21a1.72 1.72 0 0 0 .21-.7c0-.61-.44-.91-1.34-.91a15 15 0 0 0-4.03.82zm30.31-12.67q5.7 0 8.06 6.34a20.12 20.12 0 0 1 1.24 7.2A33.2 33.2 0 0 1 86.65 65a38.68 38.68 0 0 1-6.88 13.9q-6 7.74-12.63 7.74-5.74 0-8.17-6.34a19.78 19.78 0 0 1-1.18-7A32.76 32.76 0 0 1 59 65a39.16 39.16 0 0 1 6.8-13.88q5.97-7.78 12.68-7.79zm-1.93 13.33q-3 0-6 4.83A26.1 26.1 0 0 0 67.09 69a14.75 14.75 0 0 0-.49 3.5 5.75 5.75 0 0 0 1.08 3.6 4.13 4.13 0 0 0 3.44 1.55c2 0 3.81-1 5.43-3.17a16 16 0 0 0 2.79-6 19.91 19.91 0 0 0 .43-8c-.43-2.54-1.5-3.82-3.22-3.82zm47.59-11.29a230.77 230.77 0 0 0-10.8 37.51l-12 2 2-19.72-5 18.27-11.46 2.1a288.37 288.37 0 0 0 2.53-37.08l10.21-1.94-2.1 23.54 7-26.12 5.49-.81-3.74 33.16L113.7 47zm1.21 31.22a5.16 5.16 0 0 1 3.33.54 2.82 2.82 0 0 1 1.72 2.69q0 2.48-2.63 4.51a9 9 0 0 1-4.46 1.94 5.75 5.75 0 0 1-3.34-.43 2.84 2.84 0 0 1-1.66-2.69 6 6 0 0 1 2.52-4.57 8.94 8.94 0 0 1 4.52-1.99zm6.07-33.42l11.23 1.88q-4.46 8-6.55 12.52A106.18 106.18 0 0 0 131 71l-7.46-.32z"/><path d="M55.05 44.83q7.26 0 7.15 5.05Q62 60.05 45.11 70.9q-1.18 6.55-1.72 12.1l-8.55 2.37q.16-1.18 1.29-7.2l2.37-12.7q3.16-17.58 2.9-18.11a49 49 0 0 1 13.65-2.53m-8.17 17.09c3.33-1.65 5.48-3.38 6.45-5.21a1.72 1.72 0 0 0 .21-.7c0-.61-.44-.91-1.34-.91a15 15 0 0 0-4 .86l-.7 3-.59 3m8.17-18.09a50.61 50.61 0 0 0-13.97 2.53l-1.11.34.44.89c0 .76-.47 4.16-2.91 17.66L35.15 78l-1.3 7.25-.2 1.5 1.46-.4L43.65 84l.67-.19.06-.68c.34-3.56.89-7.47 1.63-11.64C57.3 64.19 63.08 56.92 63.2 49.9a5.36 5.36 0 0 0-1.44-4c-1.36-1.39-3.55-2.06-6.71-2.06zM49 56.75a12.09 12.09 0 0 1 3.2-.65h.3a.9.9 0 0 1-.07.14A10.64 10.64 0 0 1 48.28 60l.17-.87.55-2.41z"/><path d="M78.48 43.33q5.7 0 8.06 6.34a20.12 20.12 0 0 1 1.24 7.2A33.2 33.2 0 0 1 86.65 65a38.68 38.68 0 0 1-6.88 13.9q-6 7.74-12.63 7.74-5.74 0-8.17-6.34a19.78 19.78 0 0 1-1.18-7A32.76 32.76 0 0 1 59 65a39.16 39.16 0 0 1 6.8-13.88q6-7.78 12.68-7.79m-7.36 34.28c2 0 3.81-1 5.43-3.17a16 16 0 0 0 2.79-6 19.91 19.91 0 0 0 .43-8c-.43-2.58-1.5-3.86-3.22-3.86q-3 0-6 4.83A26.1 26.1 0 0 0 67.09 69a14.75 14.75 0 0 0-.49 3.5 5.75 5.75 0 0 0 1.08 3.6 4.13 4.13 0 0 0 3.44 1.55m7.36-35.28c-4.78 0-9.32 2.75-13.48 8.18a40.33 40.33 0 0 0-7 14.27 33.53 33.53 0 0 0-1.22 8.53A20.68 20.68 0 0 0 58 80.66c1.77 4.63 4.83 7 9.1 7 4.75 0 9.27-2.73 13.42-8.13a39.94 39.94 0 0 0 7.06-14.22 34.26 34.26 0 0 0 1.16-8.42 21.37 21.37 0 0 0-1.3-7.55c-1.73-4.64-4.76-7-9-7zm-7.36 34.24a3.16 3.16 0 0 1-2.66-1.18 4.72 4.72 0 0 1-.86-3 13.77 13.77 0 0 1 .46-3.26A24.93 24.93 0 0 1 71.37 62c1.84-2.91 3.58-4.38 5.18-4.38.47 0 1.73 0 2.23 3a18.94 18.94 0 0 1-.41 7.54 15.3 15.3 0 0 1-2.62 5.61c-1.42 1.87-2.94 2.77-4.63 2.77z"/><path d="M110 43.16l-3.74 33.16L113.7 47l10.44-1.61a230.77 230.77 0 0 0-10.8 37.51l-12 2 2-19.72-5 18.27-11.46 2.1a288.37 288.37 0 0 0 2.53-37.08l10.21-1.94-2.1 23.54 7-26.12 5.49-.81M111.1 42l-1.28.19-5.5.8-.65.1-.17.63-4 14.95 1.07-12 .12-1.32-1.3.25-10.21 1.9-.82.16v.83a289.72 289.72 0 0 1-2.52 36.95l-.17 1.36 1.33-.25 11.46-2.1.62-.11.16-.61 1.83-6.68-.79 7.77-.13 1.31 1.29-.22 12-2 .68-.12.14-.68a231.81 231.81 0 0 1 10.75-37.35l.61-1.6-1.7.26L113.55 46l-.66.1-.16.64L108.85 62 111 43.28zm20.32 1.17l11.23 1.88q-4.46 8-6.55 12.52A106.18 106.18 0 0 0 131 71l-7.46-.32 7.84-27.46m-5.16 33.36a4.93 4.93 0 0 1 2.42.6 2.82 2.82 0 0 1 1.72 2.69q0 2.48-2.63 4.51a9 9 0 0 1-4.46 1.94 7.57 7.57 0 0 1-1 .07 5.18 5.18 0 0 1-2.3-.5 2.84 2.84 0 0 1-1.66-2.69 6 6 0 0 1 2.52-4.57 8.94 8.94 0 0 1 4.52-2 7.19 7.19 0 0 1 .91-.06M130.7 42l-.24.86-7.85 27.46-.34 1.22 1.26.06 7.47.4h.77l.23-.74A106.25 106.25 0 0 1 137 58c1.39-3 3.58-7.17 6.53-12.46l.69-1.23-1.4-.24-11.23-1.88zm-4.44 33.5a7.61 7.61 0 0 0-1.05.07 9.85 9.85 0 0 0-5 2.21 6.92 6.92 0 0 0-2.89 5.34 3.84 3.84 0 0 0 2.21 3.58 6.07 6.07 0 0 0 2.75.61 9.46 9.46 0 0 0 1.17-.08 10.13 10.13 0 0 0 4.95-2.14c2-1.55 3-3.34 3-5.3a3.82 3.82 0 0 0-2.27-3.58 5.82 5.82 0 0 0-2.87-.71z"/></g><path d="M40.9 44.36a49 49 0 0 1 13.65-2.53q7.26 0 7.15 5.05-.16 10.17-17.09 21-1.18 6.57-1.72 12.12l-8.55 2.37q.16-1.18 1.29-7.2L38 62.47q3.17-17.58 2.9-18.11zM47.67 53l-.7 3-.59 3c3.33-1.65 5.48-3.38 6.45-5.21A1.72 1.72 0 0 0 53 53c0-.61-.44-.91-1.34-.91a15 15 0 0 0-3.99.91z" fill="url(#F)"/><path d="M78 40.33q5.7 0 8.06 6.34a20.12 20.12 0 0 1 1.24 7.2A33.2 33.2 0 0 1 86.15 62a38.68 38.68 0 0 1-6.88 13.9q-6 7.74-12.63 7.74-5.74 0-8.17-6.34a19.78 19.78 0 0 1-1.18-7 32.76 32.76 0 0 1 1.18-8.3 39.16 39.16 0 0 1 6.83-13.88q5.97-7.78 12.7-7.79zm-1.95 13.33q-3 0-6 4.83A26.1 26.1 0 0 0 66.59 66a14.75 14.75 0 0 0-.49 3.5 5.75 5.75 0 0 0 1.08 3.6 4.13 4.13 0 0 0 3.44 1.55c2 0 3.81-1 5.43-3.17a16 16 0 0 0 2.79-6 19.91 19.91 0 0 0 .43-8c-.43-2.54-1.5-3.82-3.22-3.82z" fill="url(#C)"/><path d="M123.64 42.37a230.77 230.77 0 0 0-10.8 37.51l-12 2 2-19.72-5 18.27-11.46 2.1a288.37 288.37 0 0 0 2.53-37.08l10.21-1.94L97 67.09 104 41l5.49-.81-3.74 33.16L113.2 44z" fill="url(#D)"/><path d="M124.85 73.59a5.16 5.16 0 0 1 3.33.54 2.82 2.82 0 0 1 1.72 2.69q0 2.48-2.63 4.51a9 9 0 0 1-4.46 1.94 5.75 5.75 0 0 1-3.34-.43 2.84 2.84 0 0 1-1.66-2.69 6 6 0 0 1 2.52-4.57 8.94 8.94 0 0 1 4.52-1.99zm6.07-33.42l11.23 1.88q-4.46 8-6.55 12.52A106.18 106.18 0 0 0 130.54 68l-7.46-.32z" fill="url(#E)"/><g fill="#1d1d1b"><path d="M54.55 41.83q7.26 0 7.15 5.05-.16 10.17-17.09 21-1.18 6.57-1.72 12.12l-8.55 2.37q.16-1.18 1.29-7.2L38 62.47q3.16-17.58 2.9-18.11a49 49 0 0 1 13.65-2.53m-8.17 17.09c3.33-1.65 5.48-3.38 6.45-5.21A1.72 1.72 0 0 0 53 53c0-.61-.44-.91-1.34-.91a15 15 0 0 0-4 .86l-.7 3-.59 3m8.17-18.09a50.61 50.61 0 0 0-13.93 2.54l-1.13.34.44.89c0 .76-.47 4.16-2.91 17.66L34.65 75l-1.3 7.25-.2 1.5 1.46-.4L43.15 81l.67-.19.06-.68c.34-3.56.89-7.47 1.63-11.64C56.8 61.19 62.58 53.92 62.7 46.9a5.36 5.36 0 0 0-1.44-4c-1.36-1.39-3.55-2.06-6.71-2.06zm-6 12.92a12.09 12.09 0 0 1 3.2-.65h.3a.9.9 0 0 1-.07.14A10.64 10.64 0 0 1 47.78 57l.17-.87.55-2.41z"/><path d="M78 40.33q5.7 0 8.06 6.34a20.12 20.12 0 0 1 1.24 7.2A33.2 33.2 0 0 1 86.15 62a38.68 38.68 0 0 1-6.88 13.9q-6 7.74-12.63 7.74-5.74 0-8.17-6.34a19.78 19.78 0 0 1-1.18-7 32.76 32.76 0 0 1 1.18-8.3 39.16 39.16 0 0 1 6.83-13.88q6-7.78 12.68-7.79m-7.36 34.28c2 0 3.81-1 5.43-3.17a16 16 0 0 0 2.79-6 19.91 19.91 0 0 0 .43-8c-.43-2.58-1.5-3.86-3.22-3.86q-3 0-6 4.83A26.1 26.1 0 0 0 66.59 66a14.75 14.75 0 0 0-.49 3.5 5.75 5.75 0 0 0 1.08 3.6 4.13 4.13 0 0 0 3.44 1.55M78 39.33c-4.78 0-9.32 2.75-13.48 8.18a40.33 40.33 0 0 0-7 14.27 33.53 33.53 0 0 0-1.22 8.53 20.68 20.68 0 0 0 1.25 7.35c1.77 4.63 4.83 7 9.1 7 4.75 0 9.27-2.73 13.42-8.13a39.94 39.94 0 0 0 7.06-14.22 34.26 34.26 0 0 0 1.16-8.42A21.37 21.37 0 0 0 87 46.32c-1.73-4.64-4.76-7-9-7zm-7.38 34.28A3.16 3.16 0 0 1 68 72.43a4.72 4.72 0 0 1-.86-3 13.77 13.77 0 0 1 .46-3.26A24.93 24.93 0 0 1 70.87 59c1.84-2.91 3.58-4.38 5.18-4.38.47 0 1.73 0 2.23 3a18.94 18.94 0 0 1-.41 7.54 15.3 15.3 0 0 1-2.62 5.61c-1.42 1.87-2.94 2.77-4.63 2.77z"/><path d="M109.46 40.16l-3.74 33.16L113.2 44l10.44-1.61a230.77 230.77 0 0 0-10.8 37.51l-12 2 2-19.72-5 18.27-11.46 2.1a288.37 288.37 0 0 0 2.53-37.08l10.21-1.94L97 67.09 104 41l5.49-.81M110.6 39l-1.28.19-5.5.8-.65.1-.17.63-4 14.94 1.07-12 .12-1.32-1.3.25-10.21 1.91-.82.16v.83a289.72 289.72 0 0 1-2.52 36.95l-.17 1.36 1.34-.25L98 81.45l.62-.11.16-.61 1.83-6.68-.79 7.77-.13 1.31 1.29-.22 12-2 .68-.12.14-.68a231.81 231.81 0 0 1 10.75-37.35l.61-1.6-1.7.26L113.05 43l-.66.1-.16.64L108.35 59l2.1-18.69zm20.32 1.17l11.23 1.88q-4.46 8-6.55 12.52A106.18 106.18 0 0 0 130.54 68l-7.46-.32 7.84-27.46m-5.16 33.36a4.93 4.93 0 0 1 2.42.6 2.82 2.82 0 0 1 1.72 2.69q0 2.48-2.63 4.51a9 9 0 0 1-4.46 1.94 7.57 7.57 0 0 1-1 .07 5.18 5.18 0 0 1-2.3-.5 2.84 2.84 0 0 1-1.66-2.69 6 6 0 0 1 2.52-4.57 8.94 8.94 0 0 1 4.52-2 7.19 7.19 0 0 1 .91-.06M130.2 39l-.24.86-7.85 27.46-.34 1.22 1.26.06 7.47.32h.77l.23-.74a106.25 106.25 0 0 1 5-13.25c1.39-3 3.58-7.17 6.53-12.46l.69-1.23-1.4-.24-11.23-1.88zm-4.44 33.5a7.61 7.61 0 0 0-1.05.07 9.85 9.85 0 0 0-5 2.21 6.92 6.92 0 0 0-2.89 5.34 3.84 3.84 0 0 0 2.18 3.61 6.07 6.07 0 0 0 2.75.61 9.46 9.46 0 0 0 1.17-.08 10.13 10.13 0 0 0 5-2.14c2-1.55 3-3.34 3-5.3a3.82 3.82 0 0 0-2.27-3.58 5.82 5.82 0 0 0-2.87-.71z"/></g></g></svg>