<svg xmlns="http://www.w3.org/2000/svg" width="128" height="128" xmlns:v="https://vecta.io/nano"><circle cx="64" cy="64" r="64" fill="#fff"/><g transform="scale(5.3333333)"><path d="M18.935 5.235c-.836-.844-1.818-1.529-2.9-2.021a2.73 2.73 0 0 0 .273-.943l-.047-.021a7.68 7.68 0 0 1-.514.844 10.51 10.51 0 0 1-.673.873l.555.006a5.03 5.03 0 0 1-2.705 2.119c-.005.456-.7 1.262-.7 1.262a7.34 7.34 0 0 0 2.228-1.085c4.791.22 5.96 3.026 6.288 3.556.047.076.01.146 0 .134a4.39 4.39 0 0 0-2.727-2.105l.507.625a11.37 11.37 0 0 0-4.034-1.089 9.19 9.19 0 0 1 5.148 2.963c.913 1.182 1.52 2.571 1.767 4.044l.021.186c.213-.802.323-1.627.328-2.457a9.65 9.65 0 0 0-2.815-6.891zm-5.2-2.734l-.139-.024-.12-.019h-.017l-.214-.03h-.014l-.118-.014-.231-.023h-.028l-.087-.007-.276-.018c-.08 0-.161-.007-.241-.009h-.382l-.371.012-.122.007c-4.169.264-7.707 3.152-8.8 7.183a9.86 9.86 0 0 0-.325 2.535 3.77 3.77 0 0 0 .03.562 1.7 1.7 0 0 0 .056.245l.008.027c.165.495.386.969.661 1.413a7.56 7.56 0 0 0 .552.836c.084.115.175.226.271.331l.029.033.036.039.1.109.022.023a6.24 6.24 0 0 0 1.713 1.22c.976.473 2.036.75 3.119.813.376.026.754.023 1.13-.008h.056a4.64 4.64 0 0 0 1.19-.251c.323-.101.626-.258.894-.465.338-.25.628-.574.856-.927a3.26 3.26 0 0 0 .54-1.716c-.001-1.644-1.611-3.241-3.688-3.22-1.207-.052-2.518.256-2.075 1.521-.963 0-1.863-.464-2.321-1.297-.184.116-.363.272-.534.406a6.97 6.97 0 0 1-.079-2.077c.162-.784 1.411-1.728 1.411-1.728s-.156.805.56.813S8.338 7.677 8.37 7.775s.685.106.685.106-.294 0-.549-.528.538-1.3 1.851-1.77c.885-.362 1.682-.907 2.34-1.6.326.037.414.95.414.95.864-.528 1.644-1.182 2.313-1.942a9.66 9.66 0 0 0-1.688-.492zm-3.392 4.14c-.668.26-.584.72-.584.72a1.8 1.8 0 0 0 1.09-.216c.394-.27.683-.668.819-1.126-.429.231-.871.437-1.324.616zM6.054 9.194c-.2-.067-.462.168-.584.527a1.03 1.03 0 0 0-.054.473c.011-.071.028-.142.051-.21.123-.359.384-.595.584-.527.116.056.191.171.195.3.042-.276-.031-.51-.191-.564zm4.288-2.553c-.668.26-.584.72-.584.72a1.8 1.8 0 0 0 1.09-.216c.394-.27.683-.668.819-1.126a12.56 12.56 0 0 1-1.323.616zM6.054 9.194c-.2-.067-.462.168-.584.527a1.03 1.03 0 0 0-.054.473c.011-.071.028-.142.051-.21.123-.359.384-.595.584-.527.116.056.191.171.195.3.042-.276-.031-.51-.191-.564zm4.288-2.553c-.668.26-.584.72-.584.72a1.8 1.8 0 0 0 1.09-.216c.394-.27.683-.668.819-1.126a12.56 12.56 0 0 1-1.323.616zM6.053 9.194c-.2-.067-.462.168-.584.527a1.03 1.03 0 0 0-.054.473c.011-.071.028-.142.051-.21.123-.359.384-.595.584-.527.116.056.191.171.195.3.043-.276-.03-.51-.19-.564z" fill="#8045ff"/><path d="M17.809 19.309c-.87 1.14-2.118 1.934-3.519 2.241l-.743.124-.1.012-.1.01h-.029a11.35 11.35 0 0 1-5.116-.708 8.4 8.4 0 0 1-1.623-.837c-.543-.365-1.048-.784-1.509-1.249-1.582-1.73-2.56-3.927-2.788-6.261.013.083.032.165.056.245a6.6 6.6 0 0 0 .669 1.44c.165.29.349.57.551.836.084.115.175.226.271.331l.029.032.036.04.1.109.022.023c.498.5 1.077.913 1.713 1.219a8.25 8.25 0 0 0 3.118.814c.376.026.754.023 1.13-.008h.056a4.65 4.65 0 0 0 1.19-.251c.323-.1.626-.258.894-.465a3.48 3.48 0 0 0 .856-.912c.337-.51.524-1.105.54-1.716 0-1.64-1.61-3.245-3.893-3.223h-.264l-.107.009c-.059 0-.118.011-.177.019h-.013l-.454.082c-.78.179-.946.619-.946.961.001.155.032.309.091.453h-.007a2.85 2.85 0 0 1-.914-.151h-.014l-.059-.021c-.322-.111-.632-.321-.885-.549l-.024-.023a2.22 2.22 0 0 1-.24-.274c-.065-.089-.124-.182-.178-.278a8.21 8.21 0 0 1 4.075-1.259l.148-.006h.611l.967.077a8.05 8.05 0 0 1 1.442.3h.005c-.118-.21-.258-.407-.418-.587-.2-.231-.72-.838-1.065-.832l.1-.006h.639a7.34 7.34 0 0 1 5.426 2.63l.026.028.032.041a7.76 7.76 0 0 1 .952 1.644 9.3 9.3 0 0 1 .482 2.149c.149 1.337-.224 2.68-1.042 3.748z" fill="#522f9e"/><path d="M17.809 19.309c-.87 1.14-2.118 1.934-3.519 2.241l-.743.124-.1.012-.1.01h-.029a11.35 11.35 0 0 1-5.116-.708s2.886 0 4.805-1.819c1.234-1.169 2.077-2.537 2.142-4.448.006-.174-.011-.348-.024-.522l-.008-.08-.033.074c-.409.995-1.38 1.732-2.111 1.901.337-.51.524-1.105.54-1.716.018-1.519-1.61-3.245-3.893-3.223h-.264l-.107.009c-.059 0-.118.011-.177.019h-.013l-.454.082c-.78.179-.946.619-.946.961.001.155.032.309.091.453h-.007a2.85 2.85 0 0 1-.914-.151h-.014l-.059-.021c-.322-.111-.632-.321-.885-.549l-.024-.023a2.22 2.22 0 0 1-.24-.274c-.065-.089-.124-.182-.178-.278a8.21 8.21 0 0 1 4.075-1.259l.148-.006h.611l.967.077a8.05 8.05 0 0 1 1.442.3h.005c-.118-.21-.258-.407-.418-.587-.2-.231-.72-.838-1.065-.832l.1-.006h.639a7.34 7.34 0 0 1 5.426 2.63l.026.028.032.041a7.76 7.76 0 0 1 .952 1.644 9.3 9.3 0 0 1 .482 2.149c.149 1.337-.224 2.68-1.042 3.748z" fill="#391a7d"/></g></svg>