<svg xmlns="http://www.w3.org/2000/svg" width="128" height="128" fill="none" xmlns:v="https://vecta.io/nano"><path d="M63.916 108.959c-24.859 0-45.074-20.202-45.074-45.046s20.215-45.046 45.074-45.046 45.074 20.202 45.074 45.046c0 2.803-.263 5.576-.759 8.233l15.161 15.151c2.863-7.24 4.44-15.151 4.44-23.384 0-35.208-28.657-63.876-63.916-63.876S0 28.705 0 63.913c0 35.237 28.686 63.876 63.916 63.876 8.121 0 15.862-1.518 23.019-4.291l-15.219-15.21c-2.541.467-5.141.672-7.8.672z" fill="#232735"/><path fill-rule="evenodd" d="M111.948 108.599l-23.123-23.14c-2.741-2.768-3.441-6.79-2.07-10.171.467-1.136 1.166-2.215 2.07-3.118 3.674-3.672 9.622-3.672 13.296 0l23.123 23.14a9.39 9.39 0 0 1 0 13.289c-.612.612-1.283 1.107-1.983 1.515-3.586 2.04-8.252 1.545-11.314-1.515zM84.979 88.286l23.648 23.635a9.39 9.39 0 0 1 0 13.289 9.79 9.79 0 0 1-1.866 1.457c-3.616 2.127-8.339 1.632-11.43-1.457l-23.123-23.14a9.39 9.39 0 0 1 0-13.289c1.137-1.137 2.508-1.924 3.936-2.361 2.974-.903 6.327-.291 8.835 1.865z" fill="url(#A)"/><defs><linearGradient id="A" x1="69.452" y1="69.416" x2="134.938" y2="78.625" gradientUnits="userSpaceOnUse"><stop stop-color="#433be1" offset="0"/><stop offset="1" stop-color="#196be3"/></linearGradient></defs></svg>