<svg xmlns="http://www.w3.org/2000/svg" width="128" height="128" viewBox="0 0 33.867 33.867" xmlns:v="https://vecta.io/nano"><defs><linearGradient id="A" gradientUnits="userSpaceOnUse" x1="28.317" x2="-1.733" y1="8.192" y2="20.209"><stop offset="0" stop-color="#c200fb"/><stop offset=".49" stop-color="#3772ff"/><stop offset=".49" stop-color="#3773fe"/><stop offset="1" stop-color="#5ac4be"/></linearGradient></defs><g transform="matrix(1.034937 0 0 1.034937 2.267289 0)"><path d="M26.863 12.281v11.41l-12.692 7.326-12.699-7.326V9.032l12.699-7.333 9.754 5.634 1.472-.849L14.171 0 0 8.183v16.358l14.171 8.183 14.171-8.183V11.432z" fill="url(#A)"/><path d="M10.618 23.699H8.494v-7.121h7.078a2.55 2.55 0 0 0 2.52-2.541 2.43 2.43 0 0 0-.743-1.777c-.231-.237-.507-.425-.812-.553s-.633-.193-.964-.19H8.494V9.351h7.085c1.241.007 2.428.504 3.305 1.381s1.373 2.065 1.381 3.305a4.55 4.55 0 0 1-.828 2.654c-.503.743-1.211 1.324-2.039 1.671-.819.26-1.674.389-2.534.382h-4.247z" fill="url(#A)"/><path d="M20.216 23.522h-2.477l-1.911-3.334c.756-.046 1.502-.199 2.216-.453z" fill="url(#A)"/><path d="M25.383 9.91l1.465.814 1.465-.814V8.19l-1.465-.849-1.465.849z" fill="url(#A)"/></g></svg>