<svg xmlns="http://www.w3.org/2000/svg" width="128" height="128" fill="none" xmlns:v="https://vecta.io/nano"><path fill-rule="evenodd" d="M30.785 32.291L0 63.079l3.229 3.248 3.229 3.248 9.007-9 9.007-9 1.066.995 6.309 6.244 5.243 5.248-9.026 9.033-9.026 9.033 3.241 3.241 3.241 3.241 9.457-9.464 9.458-9.464-.807-3.197-.75-3.263c.032-.036 1.483.316 3.225.781l3.167.846 6.255-6.255 6.255-6.255-.104-25.419-.105-25.419zm35.444-5.408v25.577l18.116 18.08 18.116 18.08 3.131-3.113c2.419-2.404 3.048-3.258 2.766-3.752-.201-.352-3.563-3.822-7.472-7.712l-7.107-7.072 9.419-9.459 9.504-9.556c.047-.053-10.391-10.571-23.194-23.373L66.23 1.306zM48.026 53.129l-4.442 4.441-6.296-6.256-6.296-6.256 10.63-10.638 10.63-10.638.107 12.453.107 12.453zm45.654.941c-3.395 3.401-6.312 6.137-6.483 6.08s-2.861-2.636-5.979-5.732l-5.67-5.629V36.19 23.591l12.153 12.148 12.153 12.148zM46.574 74.039L28.975 91.683c-.249.27 34.508 35.01 35.027 35.01.225 0 8.246-7.839 17.824-17.419l17.416-17.42-6.475-6.484-6.475-6.485-3.239 3.239-3.239 3.239 3.23 3.249 3.229 3.248-11.138 11.138-11.138 11.138-11.137-11.143-11.136-11.142 11.133-11.138L63.99 69.575l3.256 3.239 3.256 3.239 3.227-3.246 3.227-3.246-6.483-6.483-6.483-6.483zm71.72-14.196l-3.225 3.244 3.019 3.039c1.66 1.672 3.21 3.039 3.444 3.039s1.785-1.369 3.447-3.042L128 63.08l-3.241-3.241-3.241-3.241z" fill="#000"/></svg>