<svg xmlns="http://www.w3.org/2000/svg" width="128" height="128" fill="none" xmlns:v="https://vecta.io/nano"><path d="M81.452 127.999h46.546L81.452 81.453z" fill="#000"/><path d="M128 0h-27.152L128 27.152z" fill="#00c6a2"/><path d="M83.396 81.452a37.98 37.98 0 0 1-1.944-.05v-29.13l31.688-29.424a36.68 36.68 0 0 1 7.104 21.755c0 20.351-16.497 36.848-36.848 36.848zm21.469-66.8L81.452 36.393V7.805a37.98 37.98 0 0 1 1.944-.05 36.68 36.68 0 0 1 21.469 6.897zM77.572 7.756H42.663v34.436L58.332 57.86l19.24-17.866zm0 48.117l-19.54 18.144-15.369-15.369v69.35h34.909zM38.788 7.757H0v49.957L29.094 28.62l9.694 9.694zm0 47.014l-9.694-9.694L0 74.171V128h38.788z" fill="#000" fill-rule="evenodd"/></svg>