<svg xmlns="http://www.w3.org/2000/svg" width="128" height="128" viewBox="0 0 33.867 33.867" xmlns:v="https://vecta.io/nano"><defs><radialGradient id="A" cx="16.935" cy="21.261" fx="16.935" fy="21.261" r="13.905" gradientTransform="matrix(1.3464557,0,5.8114634e-7,1.1241099,-5.8673679,-8.7284725)" gradientUnits="userSpaceOnUse"><stop offset=".26" stop-color="#fff"/><stop offset=".75" stop-color="#fff" stop-opacity="0"/></radialGradient><radialGradient id="B" gradientTransform="matrix(-0.67322779,1.1660649,-0.97350807,-0.56205441,50.557455,10.015891)" cx="16.935" cy="21.261" fx="16.935" fy="21.261" r="13.905" gradientUnits="userSpaceOnUse"><stop offset=".26" stop-color="#fff"/><stop offset=".75" stop-color="#fff" stop-opacity="0"/></radialGradient><radialGradient id="C" gradientTransform="matrix(0.67322779,1.1660649,0.97350807,-0.56205441,-16.690789,10.015926)" cx="16.935" cy="21.261" fx="16.935" fy="21.261" r="13.905" gradientUnits="userSpaceOnUse"><stop offset=".26" stop-color="#fff"/><stop offset=".75" stop-color="#fff" stop-opacity="0"/></radialGradient></defs><path d="M30.514 26.484L18.414 33.47a2.96 2.96 0 0 1-2.961 0L3.352 26.484a2.96 2.96 0 0 1-1.48-2.564V9.947a2.96 2.96 0 0 1 1.48-2.564L15.453.397a2.96 2.96 0 0 1 2.961 0l12.101 6.986a2.96 2.96 0 0 1 1.48 2.564V23.92a2.96 2.96 0 0 1-1.48 2.564z" fill="#00e28d" paint-order="stroke fill markers"/><path d="M16.935-.459l13.905 8.028-12.53 7.234a2.75 2.75 0 0 1-2.75 0L3.03 7.569 16.935-.459" fill="url(#A)" paint-order="stroke fill markers"/><path d="M31.995 25.629l-13.905 8.028V19.188a2.75 2.75 120 0 1 1.375-2.381l12.53-7.234v16.056" fill="url(#B)" paint-order="stroke fill markers"/><path d="M1.872 25.629l13.905 8.028V19.188a2.75 2.75 60 0 0-1.375-2.381L1.872 9.573v16.056" fill="url(#C)" paint-order="stroke fill markers"/></svg>