<svg xmlns="http://www.w3.org/2000/svg" viewBox="103.44 141.47 128 128" height="128" width="128" xmlns:v="https://vecta.io/nano"><defs><linearGradient id="A" gradientUnits="userSpaceOnUse" x1="360.143" y1="575.79" x2="356.872" y2="297.682" gradientTransform="matrix(0.24945015,0,0,-0.24945015,77.636398,286.28241)"><stop offset="0" stop-color="#6aff52"/><stop offset=".045" stop-color="#4ed259"/><stop offset=".087" stop-color="#39af5e"/><stop offset=".121" stop-color="#2c9a61"/><stop offset=".143" stop-color="#279262"/><stop offset="1" stop-color="#000"/></linearGradient></defs><path d="M189.091 194.784c-5.687.274-9.379 5.039-13.894 11.5 9.654-9.928 18.958-10.128 27.489-4.44-4.989-4.665-9.454-7.259-13.595-7.059z" fill="#279262"/><path d="M209.471 186.178c0-1.596-.723-3.168-1.222-4.715-6.087-16.364-20.305-30.208-39.064-30.134-.574 0-1.347 0-2.12.075-.574 0-1.871.075-2.644.075-17.511.399-29.41 11.076-36.744 27.115-.449 1.098-1.347 3.941-1.796 5.189-1.147 4.789-.499 8.257 5.438 5.762-1.372 2.719-1.796 5.313-1.996 8.157a25.7 25.7 0 0 1 2.544-1.397c1.821-.898 3.692-1.497 5.812-1.646-8.905 5.214-12.697 15.965-10.078 25.294 1.572 5.613 5.463 10.701 11.949 13.77-1.098.075-2.345 0-4.216-.324.848 3.118 1.946 6.012 3.243 7.558 2.445 2.919 5.687 7.234 7.833 9.554 1.946 2.47 6.785 7.459 8.806 8.98 5.114 3.941 8.481 5.812 12.173 5.887 3.941.075 8.032-1.946 12.298-5.488 2.794-2.37 6.286-5.887 9.329-9.504 2.17-2.644 4.64-5.962 7.633-9.629 1.596-1.996 2.47-5.189 3.043-7.259-1.372.274-2.844.399-4.216.324 6.461-3.118 10.153-7.783 11.774-12.872 3.218-10.128-1.846-21.902-9.903-26.167 2.021.15 4.166.823 6.161 1.821.748.374 1.497.798 2.195 1.222-.324-5.238-1.222-6.411-1.996-8.157 3.891 1.771 5.687 1.297 5.762-3.492zm-41.434 49.291c3.093 2.445 3.018 4.34 3.118 6.461l-3.118-1.596zm-.2 12.922c3.168 0 6.261-.649 9.23-2.07-5.189 6.012-13.271 5.962-18.559 0 2.919 1.447 6.087 2.07 9.329 2.07zm22.6-9.28c-.324.773-.898 1.297-1.596 1.796-1.422.973-2.968 1.596-4.64 1.871-1.422.2-2.769.274-4.141-.274-.649-.2-1.172-.499-1.596-1.048-.848-1.048-.649-2.345.125-3.168.698-.773 1.596-1.297 2.644-1.671 1.497-.674 3.043-.973 4.715-.898.973-.075 1.996.125 2.968.474.324.125.698.324.973.499.748.574.948 1.472.549 2.42zm-45.799 0c-.399-.898-.2-1.671.574-2.345.574-.499 1.297-.698 2.07-.898.823-.075 1.447-.075 2.17-.075 2.07 0 4.016.474 5.812 1.422a5.52 5.52 0 0 1 1.297.973c1.098 1.172.973 2.844-.399 3.817-.848.574-1.796.848-2.844.898-2.719.125-5.189-.649-7.384-2.27-.499-.374-.948-.898-1.297-1.522zm22.151-3.642v4.839l-3.118 1.596c.15-2.095.075-3.991 3.118-6.436zm-20.704-40.685c5.687.274 9.379 5.039 13.894 11.5-9.629-9.928-18.858-10.128-27.489-4.44 4.989-4.665 9.454-7.259 13.595-7.059zm-10.277 9.454c2.07-1.372 4.59-1.297 6.71-1.297 7.384.399 14.618 5.313 17.661 12.098 1.796 4.066 3.043 13.645 2.07 15.915-.649 1.422-.898 1.472-4.914 1.472-8.232.075-20.355-4.715-24.446-13.894-1.996-4.465-2.694-10.477 2.919-14.293zm66.304 14.269c-4.066 9.18-16.214 13.969-24.446 13.894-4.016 0-4.266-.05-4.914-1.472-.973-2.27.274-11.824 2.07-15.915 3.043-6.785 10.277-11.699 17.661-12.098 2.145 0 4.64-.075 6.71 1.297 5.613 3.842 4.914 9.853 2.919 14.293zm.574-16.663c-8.531-5.687-17.836-5.488-27.489 4.44 4.515-6.461 8.232-11.25 13.894-11.5 4.141-.2 8.606 2.395 13.595 7.059z" fill="#6aff52"/><path d="M159.98 206.284c-4.515-6.461-8.232-11.25-13.894-11.5-4.141-.2-8.606 2.395-13.57 7.059 8.606-5.687 17.836-5.488 27.464 4.44z" fill="#279262"/><linearGradient gradientUnits="userSpaceOnUse" x1="360.143" y1="146.21" x2="356.872" y2="424.318"><stop offset="0" stop-color="#6aff52"/><stop offset=".045" stop-color="#4ed259"/><stop offset=".087" stop-color="#39af5e"/><stop offset=".121" stop-color="#2c9a61"/><stop offset=".143" stop-color="#279262"/><stop offset="1" stop-color="#000"/></linearGradient><path d="M212.24 148.312c3.442 2.968 7.109-.125 6.985-2.968-.324-5.438-8.606-4.989-8.032.698-5.114 1.996-10.352 5.438-14.468 10.876-13.969-12.747-41.858-15.017-58.746 0-3.866-4.989-8.606-8.731-14.343-10.801.324-3.118-1.946-4.764-4.116-4.64-1.946.075-3.817 1.422-3.866 4.141.125 4.266 5.039 4.789 6.86 2.769 2.519 2.345 8.282 7.434 9.554 13.77-10.427 12.423-13.395 25.943-11.4 40.161-4.34 8.282-3.692 18.883 7.683 27.165-.698 0-1.472-.125-2.47-.399.773 1.172 1.372 2.644 2.145 3.742.848 1.172 2.395 2.519 3.168 3.692 31.755 43.803 40.286 43.853 72.241.649 1.098-1.472 2.519-2.719 3.817-4.415.649-.773 1.422-2.395 1.996-3.492-.574.075-1.472.274-2.519.125 7.558-3.866 13.57-13.894 7.558-27.115 2.719-19.083-3.941-30.458-11.624-40.211 1.123-5.014 4.864-9.778 9.579-13.745zm-8.581 41.309c.773 1.746 1.671 2.919 1.996 8.157-.698-.449-1.422-.848-2.195-1.222-1.996-.973-4.141-1.671-6.161-1.821 8.057 4.266 13.121 16.04 9.903 26.167-1.621 5.089-5.313 9.778-11.774 12.872 1.372.075 2.844-.075 4.216-.324-.574 2.07-1.422 5.238-3.043 7.259l-7.633 9.629c-3.043 3.617-6.536 7.109-9.329 9.504-4.266 3.542-8.357 5.563-12.298 5.488-3.692-.075-7.059-1.946-12.173-5.887-1.996-1.547-6.86-6.536-8.806-8.98-2.145-2.345-5.388-6.66-7.833-9.554-1.297-1.547-2.395-4.44-3.243-7.558 1.871.324 3.118.399 4.216.324-6.486-3.068-10.377-8.157-11.949-13.77-2.619-9.329 1.172-20.081 10.078-25.294-2.12.125-3.991.748-5.812 1.646-.848.424-1.696.898-2.544 1.397.2-2.844.649-5.438 1.996-8.157-5.962 2.519-6.585-.973-5.438-5.762.474-1.222 1.372-4.066 1.796-5.189 7.309-16.04 19.208-26.716 36.744-27.115.773 0 2.07-.075 2.644-.075.773-.075 1.547-.075 2.12-.075 18.759-.075 33.002 13.77 39.064 30.159.499 1.547 1.222 3.118 1.222 4.715-.025 4.814-1.821 5.288-5.762 3.467z" fill="url(#A)"/><path d="M162.25 230.954c.973-2.27-.274-11.824-2.07-15.915-3.043-6.785-10.277-11.699-17.661-12.098-2.145 0-4.64-.075-6.71 1.297-5.613 3.817-4.914 9.828-2.919 14.293 4.066 9.18 16.214 13.969 24.446 13.894 4.016 0 4.291-.05 4.914-1.472zm-11.574-7.833c-.848 1.023-1.871 1.472-3.118 1.547-.574-.075-1.172-.125-1.422-.649-.324-.574-.075-1.098.324-1.547.773-.973 1.796-1.472 3.043-1.547.574 0 1.098.125 1.422.649.349.574.1 1.098-.249 1.547zm.599-10.153c-.274.848-.649 1.596-1.222 2.345-2.345 2.894-5.438 4.39-9.255 4.64-.973 0-1.946-.125-2.844-.499-2.195-.898-3.168-2.919-2.519-5.189.274-.898.649-1.671 1.222-2.395 2.47-3.043 5.687-4.59 9.629-4.64.848 0 1.671.2 2.47.499 2.295.898 3.243 2.894 2.519 5.238zm47.919-8.731c-2.07-1.372-4.59-1.297-6.71-1.297-7.384.399-14.618 5.313-17.661 12.098-1.796 4.066-3.043 13.645-2.07 15.915.649 1.422.898 1.472 4.914 1.472 8.232.075 20.355-4.715 24.446-13.894 1.996-4.465 2.694-10.477-2.919-14.293zm-2.968 17.661a1.97 1.97 0 0 1-.324.649c-.848.948-1.871 1.422-3.043 1.522-.649 0-1.222-.125-1.472-.698-.274-.574-.075-1.098.324-1.472.848-1.048 1.946-1.547 3.318-1.547a1.21 1.21 0 0 1 .499.125c.624.274.898.773.698 1.422zm0-9.304c-.324 1.222-.898 2.27-1.671 3.243-2.345 2.494-5.238 3.991-8.481 4.266-1.172 0-2.07-.075-2.968-.399-2.195-.848-3.243-2.769-2.644-5.039.2-.698.474-1.422.848-2.07 2.395-3.492 5.687-5.388 9.953-5.488.773 0 1.547.125 2.345.474 2.095.798 3.143 2.744 2.619 5.014z"/><path d="M166.79 235.469c-3.043 2.445-2.968 4.34-3.118 6.461l3.118-1.596zm1.247 0v4.839l3.118 1.596c-.1-2.095-.05-3.991-3.118-6.436z" fill="#073320"/><path d="M155.265 237.216c-1.796-.973-3.742-1.422-5.812-1.422l-2.17.075c-.773.2-1.497.399-2.07.898-.773.674-.973 1.422-.574 2.345.324.649.798 1.147 1.297 1.547 2.195 1.621 4.665 2.395 7.384 2.27 1.048-.075 1.996-.324 2.844-.898 1.372-.973 1.497-2.644.399-3.817-.399-.424-.773-.723-1.297-.998zm34.599-.524c-.274-.175-.649-.374-.973-.499-.973-.324-1.996-.524-2.968-.474-1.671-.075-3.218.249-4.715.898-1.048.374-1.946.898-2.644 1.671-.773.848-.973 2.145-.125 3.168a3.38 3.38 0 0 0 1.596 1.048c1.372.524 2.719.474 4.141.274 1.671-.274 3.218-.898 4.64-1.871.698-.499 1.272-1.048 1.596-1.796.424-.948.225-1.846-.549-2.42z" fill="#279262"/><path d="M158.508 246.32c5.288 5.962 13.371 6.012 18.559 0-2.968 1.422-6.062 2.07-9.23 2.07-3.243 0-6.411-.624-9.329-2.07z" fill="#073320"/><path d="M193.581 207.531a6.15 6.15 0 0 0-2.345-.474c-4.266.1-7.558 1.996-9.953 5.488-.374.649-.649 1.372-.848 2.07-.599 2.27.449 4.216 2.644 5.039.898.324 1.796.399 2.968.399 3.243-.274 6.136-1.771 8.481-4.266.773-.973 1.347-1.996 1.671-3.243.549-2.22-.499-4.166-2.619-5.014zm1.921 12.946c-.1-.075-.299-.125-.499-.125-1.372 0-2.47.499-3.318 1.547-.399.374-.599.898-.324 1.472.249.574.848.698 1.472.698 1.172-.1 2.195-.574 3.043-1.522.125-.175.274-.374.324-.649.225-.649-.05-1.147-.698-1.422zm-46.722-12.772c-.798-.299-1.621-.499-2.47-.499-3.941.075-7.159 1.596-9.629 4.64-.599.723-.973 1.497-1.222 2.395-.674 2.27.299 4.266 2.519 5.189.898.374 1.871.499 2.844.499 3.817-.274 6.91-1.771 9.255-4.64.599-.723.973-1.497 1.222-2.345.698-2.32-.249-4.315-2.519-5.238zm.748 13.246c-1.222.075-2.27.574-3.043 1.547-.399.449-.674.973-.324 1.547.274.499.848.574 1.422.649 1.222-.075 2.27-.524 3.118-1.547.324-.449.599-.973.274-1.547-.349-.524-.873-.649-1.447-.649z" fill="#fff"/></svg>