<svg xmlns="http://www.w3.org/2000/svg" xmlns:xlink="http://www.w3.org/1999/xlink" width="128" zoomAndPan="magnify" viewBox="0 0 96 96" height="128" preserveAspectRatio="xMidYMid" xmlns:v="https://vecta.io/nano"><style><![CDATA[.B{filter:url(#B)}.C{color-interpolation-filters:sRGB}]]></style><defs><filter id="A" x="-.607" y="-.746" width="2.214" height="2.492" class="C"><feGaussianBlur stdDeviation="1.29"/></filter><filter id="B" x="-1.157" y="-1.422" width="3.314" height="3.843" class="C"><feGaussianBlur stdDeviation="2.458"/></filter><filter id="C" x="-.019" y="-.023" width="1.038" height="1.046" class="C"><feGaussianBlur stdDeviation=".151" in="SourceAlpha" result="A"/><feMorphology in="SourceAlpha" radius="1.2030075187969926"/><feGaussianBlur stdDeviation=".453"/><feColorMatrix values="1 0 0 0 0 0 1 0 0 0 0 0 1 0 0 0 0 0 0.29999999999999999 0"/><feComposite in="A" operator="out"/><feGaussianBlur stdDeviation="1.813" result="E"/><feDiffuseLighting surfaceScale="5" diffuseConstant="1.46324551"><feDistantLight azimuth="134" elevation="68"/></feDiffuseLighting><feBlend in2="SourceGraphic" mode="multiply"/><feComposite in2="SourceAlpha" operator="in" result="F"/><feSpecularLighting in="E" surfaceScale="-1.53259361" specularExponent="50" specularConstant="1.50485432"><feDistantLight azimuth="299" elevation="51" specularExponent="1" limitingConeAngle="100"/></feSpecularLighting><feComposite in2="F" operator="atop"/></filter><path id="D" d="M34.32 37.911c0 1.226-1.258 1.548-2.139 1.548-.937 0-2.961-.528-2.961-1.926 0-1.055 1.314-2.343 2.186-2.216 1.765.257 2.914 1.539 2.914 2.594z"/><path id="E" d="M39.827 37.713c0 1.226 1.258 1.548 2.139 1.548.937 0 2.961-.528 2.961-1.926 0-1.055-1.314-2.343-2.186-2.216-1.765.257-2.914 1.539-2.914 2.594z"/></defs><circle cx="48" cy="48" r="48" fill="#33257e" paint-order="stroke fill markers"/><path d="M46.02 73.627c-3.83-.425-10.914-2.604-11.64-3.581-.144-.193-.326-.825-.406-1.404-.175-1.274-.268-1.421-3.698-5.868-1.499-1.943-2.849-3.763-2.999-4.044-.353-.659-.144-1.29.585-1.767l.581-.38-.757-1.364-.757-1.364.686-1.701c.377-.935 1.232-2.689 1.901-3.897 1.291-2.333 1.963-3.843 1.963-4.409 0-.289-.536-.346-3.244-.346-2.977 0-3.309-.043-4.025-.526-1.141-.769-2.267-2.47-2.677-4.043-.424-1.627-.49-6.681-.102-7.794.458-1.312 2.018-1.212 3.389.217.361.377.749.685.861.685s.962-.774 1.888-1.72c1.26-1.287 2.143-1.944 3.508-2.613 2.803-1.372 4.251-1.364 8.599.052 1.703.555 2 .574 9.72.638 7.742.064 8.009.051 9.603-.466 5.287-1.716 7.868-1.175 11.673 2.449 2.595 2.472 2.627 2.485 3.625 1.517.812-.788 2.15-1.337 2.722-1.117.578.222.834 1.296.834 3.505 0 2.713-.478 4.903-1.474 6.751-1.166 2.163-1.606 2.334-6.05 2.341-3.595.006-3.666.016-3.429.474.133.257.919 1.593 1.747 2.968 1.773 2.947 3.169 6.181 2.959 6.856-.08.257-.397.866-.705 1.353l-.559.885.711.597c1.205 1.013 1.223.969-2.587 6.169-2.968 4.051-3.26 4.581-3.26 5.916 0 .683-.137 1.151-.41 1.394-.699.625-4.499 2.074-7.288 2.778-4.345 1.097-7.325 1.319-11.488.857z"/><path d="M281.084 393.797c-16.353-1.817-46.599-11.133-49.699-15.308-.613-.826-1.393-3.527-1.732-6.003-.746-5.445-1.144-6.076-15.789-25.087-6.4-8.307-12.162-16.088-12.805-17.289-1.508-2.818-.616-5.514 2.5-7.556l2.48-1.625-3.231-5.833-3.231-5.833 2.927-7.271c1.61-3.999 5.262-11.496 8.115-16.66 5.512-9.976 8.382-16.431 8.382-18.852 0-1.235-2.29-1.48-13.852-1.48-12.711 0-14.127-.185-17.185-2.25-4.87-3.288-9.678-10.559-11.43-17.283-1.812-6.956-2.093-28.563-.433-33.323 1.955-5.609 8.615-5.181 14.47.929 1.543 1.61 3.197 2.927 3.678 2.927s4.109-3.309 8.063-7.352c5.381-5.503 9.149-8.313 14.978-11.171 11.968-5.868 18.151-5.831 36.712.222 7.271 2.371 8.54 2.454 41.5 2.729 33.053.276 34.195.22 41-1.992 22.571-7.338 33.591-5.022 49.837 10.471 11.081 10.568 11.216 10.624 15.479 6.484 3.469-3.369 9.178-5.714 11.624-4.776 2.47.948 3.561 5.54 3.561 14.985 0 11.6-2.041 20.963-6.292 28.863-4.976 9.249-6.857 9.978-25.832 10.01-15.347.026-15.652.068-14.639 2.026.569 1.1 3.924 6.81 7.457 12.689 7.571 12.6 13.53 26.425 12.634 29.311-.341 1.1-1.696 3.703-3.009 5.785l-2.389 3.785 3.035 2.554c5.145 4.329 5.223 4.142-11.046 26.377C364.247 364.32 363 366.586 363 372.295c0 2.922-.587 4.92-1.75 5.962-2.986 2.674-19.21 8.865-31.116 11.875-18.553 4.689-31.275 5.64-49.05 3.665z" transform="matrix(.234219 0 0 .233899 -19.814531 -18.481443)" filter="url(#C)"/><g transform="scale(1.3333333)" fill="#fff"><use xlink:href="#D" paint-order="stroke fill markers" filter="url(#A)"/><use xlink:href="#E" paint-order="stroke fill markers" filter="url(#A)"/><use xlink:href="#D" paint-order="stroke fill markers" class="B"/><use xlink:href="#E" paint-order="stroke fill markers" class="B"/></g><path d="M45.761 50.548c0 1.635-1.677 2.064-2.852 2.064-1.249 0-3.948-.704-3.948-2.568 0-1.406 1.752-3.124 2.915-2.954 2.353.343 3.885 2.052 3.885 3.458zm7.342-.264c0 1.635 1.677 2.064 2.852 2.064 1.249 0 3.948-.704 3.948-2.568 0-1.406-1.752-3.124-2.915-2.954-2.353.343-3.885 2.052-3.885 3.458z" fill="#fff" paint-order="stroke fill markers"/><g transform="scale(1.3333333)"><use xlink:href="#D" fill="#fff" paint-order="stroke fill markers" class="B"/><use xlink:href="#E" fill="#fff" paint-order="stroke fill markers" class="B"/></g></svg>