<svg xmlns="http://www.w3.org/2000/svg" xmlns:xlink="http://www.w3.org/1999/xlink" width="128" height="128" viewBox="0 0 33.867 33.867" xmlns:v="https://vecta.io/nano"><defs><clipPath id="A"><path d="M211.924 270.584h12.049v-14.62h-12.049z"/></clipPath><linearGradient id="B" x1="4.844" y1="19.48" x2="6.172" y2="21.695" xlink:href="#C"><stop offset="0" stop-color="#b9f3de"/><stop offset="1" stop-color="#6ee7bc"/></linearGradient><linearGradient id="C" gradientUnits="userSpaceOnUse"/><linearGradient id="D" x1="4.446" y1="27.597" x2="7.027" y2="23.688" xlink:href="#C"><stop offset="0" stop-color="#1a45a3"/><stop offset="1" stop-color="#019ebb"/></linearGradient><linearGradient id="E" x1="2.3" y1="27.018" x2="5.411" y2="25.393" xlink:href="#C"><stop offset=".612" stop-color="#2342b0"/><stop offset="1" stop-color="#070f80"/></linearGradient><linearGradient id="F" x1="9.15" y1="19.711" x2="6.862" y2="26.589" xlink:href="#C"><stop offset="0" stop-color="#65daab"/><stop offset="1" stop-color="#1eacc2"/></linearGradient><linearGradient id="G" x1="6.481" y1="21.226" x2="11.936" y2="25.127" xlink:href="#C"><stop offset=".057" stop-color="#5fd6ad"/><stop offset=".365" stop-color="#108085"/><stop offset=".71" stop-color="#0199cb"/></linearGradient><linearGradient id="H" x1="2.786" y1="22.092" x2="6.248" y2="24.413" xlink:href="#C"><stop offset="0" stop-color="#3871dd"/><stop offset=".852" stop-color="#1c39ae"/><stop offset="1" stop-color="#070f80"/></linearGradient></defs><g clip-path="none" transform="matrix(.252987 0 0 -.252987 -49.4822 90.73737)"><path d="M230.419 284.518l-9.045-13.934c.438-.458 3.558-3.929 2.263-8.92l15.183 22.854z" fill="#4bc5a7"/><g clip-path="url(#A)" opacity=".5"><path d="M221.398 270.584l-4.002-6.17c-.103-.426-.392-.767-.634-.98l-4.838-7.451c2.892-.127 5.123.382 6.824 1.145 3.356 1.697 4.913 4.536 4.913 4.536 1.295 4.99-1.827 8.462-2.263 8.92" fill="#59d1af"/></g><path d="M231.761 306.75l-10.148-2.308 6.19-10.264 4.724 3.095zm70.084 27.276s26.392-9.53 27.614-26.472c0 0-12.627-1.304-11.241-9.612l-17.431 22.97z" fill="#2492ec"/><path d="M306.326 240.094l.163-7.657c3.909-1.956 4.072-7.585 4.072-7.585H284.17c-7.656.561-4.561 11.819-4.561 11.819l-12.382.653c.326-14.336-5.049-12.381-5.049-12.381H235.95c-.652 5.212 4.398 7.33 4.398 7.33l-.326 7.983c-3.746 5.374-10.507 25.007-10.507 25.007-7.331 77.461 44.229 93.346 44.229 93.346s20.282-4.643 32.745-31.279c0 0 30.056-47.161 14.172-69.643 0 0-1.713.197-3.379 3.191 0 0-6.069-14.106-10.956-20.784" fill="#50b5ff"/><path d="M247.84 245.143s27.694-11.079 51.967 0c0 0-24.762-19.549-51.967 0m62.719 49.035s-3.767-29.098 4.633-37.927l2.09 4.627s-4.766 13.18-6.723 33.3m-8.714 17.838s4.481-1.304 7.332 3.34c0 0 0-8.063-7.332-3.34m1.711-3.665s4.786-.906 7.25 2.933c0 0-.408-8.39-7.25-2.933" fill="#2492ec"/><path d="M281.054 331.494s25.394-17.361 26.127-46.928-10.223-41.541-40.523-37.386-22.857 15.713-26.025 31.887c-3.421 17.473 8.566 42.373 26.595 46.878l-.082 4.317 6.094 4.602z" fill="#a1e0ff"/><path d="M289.627 309.736c-3.34.407-4.073-1.833-4.073-1.833.733.366 2.24 0 2.24 0-6.842-13.563-24.925-5.131-24.925-5.131 17.634-13.156 27.409 3.734 27.409 3.734 1.12.908 2.282-1.087 2.282-1.087s.406 3.909-2.933 4.317" fill="#1a1a1a"/><path d="M243.711 312.645s-4.48-1.304-7.332 3.338c0 0 0-8.063 7.332-3.338m-1.71-3.666s-4.786-.906-7.25 2.933c0 0 .408-8.39 7.25-2.933" fill="#2492ec"/><path d="M307.19 336.372c-11.647 5.13-26.757 1.954-29.079.366-1.747-1.196-3.908-1.699-4.871-1.874-.964.175-3.124.678-4.872 1.874-2.321 1.588-17.43 4.764-29.078-.366 0 0-.489-3.829 1.384-4.155 0 0 1.466.488 1.874-2.525s-1.059-10.751 9.856-12.381 13.683 4.97 14.824 8.634c.99 3.181 4.554 3.969 6.012 4.122 1.458-.153 5.022-.941 6.012-4.122 1.139-3.664 3.91-10.263 14.824-8.634s9.449 9.367 9.856 12.381 1.873 2.525 1.873 2.525c1.874.326 1.385 4.155 1.385 4.155" fill="#1a1a1a"/><path d="M264.784 335.394s-15.884 3.503-19.549-1.629c0 0-1.792-12.137 5.294-13.439 0 0-4.235 11.892 1.548 13.358s8.064 2.037 12.707 1.71m36.003 0s-15.884 3.503-19.549-1.629c0 0-1.792-12.137 5.294-13.439 0 0-4.235 11.892 1.547 13.358s8.065 2.037 12.708 1.71" fill="#666"/><path d="M210.372 326.434h24.273l-10.914-20.853s15.15-16.943 17.756-21.504 14.174-15.313 3.747-33.56-39.613-12.758-46.102.816c-5.637 11.792-7.594 23.268 18.082 48.383 7.494 7.331 0 0 0 0l3.095 8.635z" fill="#a8f663"/><path d="M216.4 310.63s-7.494-9.448-2.933-14.173 15.151 5.215 11.242 10.59-6.191 5.05-8.309 3.583" fill="#50b5ff"/></g><g transform="translate(.191 .317)"><path d="M5.411 25.393l1.23-1.877c-.505-.466-1.302-.941-2.697-1.116-.237-.03-.714-.126-.753-.387-.053-.348.298-.478.554-.55.487-.137 1.438-.257 2.116.456l-1.619-2.455c-1.476.038-2.307.918-2.642 1.351-.265.342-.714 1.199-.265 2.069.373.723.973 1.03 2.145 1.344.626.167 1.368.237 1.703.467.495.338.228.7.228.7h0" fill="url(#H)"/><path d="M7.02 20.409l.448.491c.165.216.299.454.449.681l1.14 1.728 2.567 3.893H9.344l-3.402-5.159m.835 1.266l-.835-1.266z" fill="url(#G)"/><path d="M3.968 27.571l1.412-2.142c.04-.043.05-.064.067-.102l3.702-5.616h2.279l-3.512 5.327-1.017 1.511c-.367.425-1.209 1.127-2.932 1.022z" fill="url(#F)"/><path d="M3.968 27.571c-1.145-.094-2.119-.678-2.928-1.729l1.521-1.15c.405.56 1.035.986 1.74 1.011.381.025.819.045 1.078-.274z" fill="url(#E)"/><path d="M6.641 23.516c1.785 2.225 0 4.247-2.673 4.055l1.412-2.142c.032-.033.05-.06.067-.102" fill="url(#D)"/><path d="M5.942 22.043l1.077-1.634c-.772-.683-1.71-.981-2.778-.946" fill="url(#B)"/></g></svg>