<svg xmlns="http://www.w3.org/2000/svg" fill="none" height="128" overflow="visible" width="128" xmlns:v="https://vecta.io/nano"><path fill="#f7f7f8" d="M125.851 13.764L56.687 31.422C24.421 40.557 25.69 66.583 25.7 66.782v.001c-.247 5.72 6.163 3.132 6.163 3.132L88.28 55.443s19.71-5.06 28.553-13.92 11.37-19.667 11.154-24.537c-.164-3.729-2.136-3.222-2.136-3.222zM2.149 114.236l69.164-17.658c32.394-9.168 30.997-35.352 30.997-35.352.247-5.72-6.163-3.132-6.163-3.132L39.73 72.557s-19.72 5.059-28.563 13.92S-.203 106.145.013 111.014c.164 3.729 2.136 3.222 2.136 3.222z"/></svg>