<svg xmlns="http://www.w3.org/2000/svg" width="128" height="128" xmlns:v="https://vecta.io/nano"><defs><linearGradient id="A" x1="0" y1="341.334" x2="682.667" y2="341.334" gradientTransform="matrix(0.1316806,0.13347949,-0.13347784,0.13167957,64.613405,-26.507771)" gradientUnits="userSpaceOnUse"><stop offset="0" stop-color="#ff806b"/><stop offset="1" stop-color="#ff2080"/></linearGradient><linearGradient id="B" x1="19.053" y1="18.439" x2="108.947" y2="109.561" gradientUnits="userSpaceOnUse"><stop offset="0" stop-color="#ff7f6b"/><stop offset="1" stop-color="#ff2080"/></linearGradient></defs><path d="M59.867.134a64 64 52.019 0 0-41.428 108.813 64 64 52.019 0 0 91.121-89.893A64 64 52.019 0 0 59.867.134zm-3.306 8.682l3.302.088v30.181l-1.627 1.627-15.385-27.756c2.133-1.503 5.405-2.876 8.24-3.551 1.772-.422 3.622-.573 5.469-.589zm14.918.003c1.847.016 3.696.167 5.468.589 2.835.675 6.108 2.048 8.241 3.551L69.803 40.715l-1.627-1.628V8.906l3.303-.087zm-36.05 7.89l16.694 30.117-2.679 2.679-27.425-21.427c1.097-2.456 3.312-5.217 5.547-7.112s4.961-3.628 7.863-4.258zm57.183.003c2.902.629 5.628 2.362 7.863 4.257s4.449 4.656 5.546 7.113L78.596 49.509l-2.68-2.68zM17.104 34.787l26.419 20.64-3.827 3.827-29.699-6.857c.293-4.18 1.159-6.227 2.307-9.07 1.231-3.049 2.493-5.635 4.8-8.541zm93.833.003c2.572 2.823 4.017 5.475 5.248 8.525 1.147 2.843 1.491 4.967 1.86 9.086l-29.699 6.857-3.827-3.827zM64.02 47.396l16.623 16.623L64.02 80.642 47.398 64.019zM8.555 60.595l29.841 6.89L64.02 93.109l25.624-25.624 29.694-6.855c.607 10.983-1.789 21.179-5.736 28.967-3.833 7.564-9.054 14.795-14.721 19.308-14.729 11.732-31.323 11.739-34.861 11.739-4.675 0-11.055-.525-17.297-2.516-5.825-1.858-12.477-5.607-18.217-10.031S16.801 97.219 13.081 89.596s-5.135-17.99-4.526-29.001z" fill="url(#A)" paint-order="stroke fill markers"/><path d="M64 0C28.706 0 0 28.706 0 64s28.706 64 64 64 64-28.705 64-64S99.294 0 64 0zm0 8.729c30.577 0 55.271 24.694 55.271 55.271S94.577 119.271 64 119.271 8.729 94.577 8.729 64 33.423 8.729 64 8.729z" fill="url(#B)"/></svg>