<svg xmlns="http://www.w3.org/2000/svg" width="128" height="128" viewBox="0 0 33.867 33.867" xmlns:v="https://vecta.io/nano"><defs><linearGradient id="A" x1="4.767" y1="4.767" x2="29.038" y2="29.038" gradientUnits="userSpaceOnUse"><stop offset="0" stop-color="#d64fa0"/><stop offset="1" stop-color="#ffc87a" stop-opacity=".996"/></linearGradient><linearGradient id="B" x1="4.99" y1="4.99" x2="28.877" y2="28.877" gradientUnits="userSpaceOnUse"><stop offset="0" stop-color="#d8549e"/><stop offset="1" stop-color="#fec67a"/></linearGradient><clipPath id="C"><circle cx="16.933" cy="16.933" r="16.933" opacity="1" fill="none" stroke="none" stroke-width="12.318" stroke-linejoin="round" stroke-miterlimit="3.2" stroke-opacity="1"/></clipPath></defs><path d="M16.933 0c-2.697.004-5.353.652-7.749 1.889 1.3.006 2.457.449 3.515 1.056 1.349-.41 2.753-.698 4.235-.698 3.96 0 7.544 1.592 10.187 4.149h.021v.018c2.751 2.67 4.475 6.392 4.475 10.52 0 8.097-6.586 14.683-14.683 14.683S2.248 25.031 2.248 16.934c0-1.482.288-2.885.698-4.235-.607-1.057-1.051-2.215-1.056-3.515C.652 11.58.004 14.237 0 16.933c0 9.352 7.581 16.933 16.933 16.933s16.933-7.581 16.933-16.933S26.285 0 16.933 0zM1.889 9.184c1.614-3.131 4.164-5.681 7.295-7.295-.008 0-.016-.001-.024-.001A7.29 7.29 0 0 0 1.889 9.16c0 .008 0 .016.001.024zM9.16 4.006C6.3 4.006 4.006 6.3 4.006 9.16c0 .248.105.461.138.699 1.337-2.406 3.309-4.378 5.715-5.715-.239-.033-.451-.138-.699-.138zm7.774.359c-.771 0-1.518.095-2.251.227.507.612.946 1.268 1.232 2.023l7.573-.148c-1.935-1.216-4.095-2.102-6.555-2.102zm-4.529.873c-3.293 1.273-5.893 3.873-7.166 7.166.943 1.143 2.314 1.912 3.922 1.912a5.14 5.14 0 0 0 5.156-5.156c0-1.607-.769-2.978-1.912-3.922zm13.752 3.295l-9.81.191c.026.502 0 .913-.127 1.49l13.086 4.76c-.389-2.48-1.536-4.669-3.149-6.441zM15.668 12.27c-.198.411-.487.757-.756 1.121L26.428 24.93c1.768-2.1 2.957-4.698 3.039-7.644zM4.592 14.683c-.132.732-.227 1.48-.227 2.251 0 2.491.906 4.676 2.151 6.626l.133-7.637c-.768-.287-1.436-.726-2.057-1.24zm8.83.207c-.368.296-.759.547-1.168.789l5.017 13.789c2.953-.079 5.557-1.272 7.661-3.043zm-3.225 1.332c-.505.091-.936.145-1.438.129l-.174 9.84c1.761 1.586 3.921 2.724 6.373 3.111z" clip-path="url(#C)" fill="url(#A)"/><path d="M 32.7025,16.933334 A 15.769168,15.769168 0 0 1 16.933334,32.7025 15.769168,15.769168 0 0 1 1.1641665,16.933334 15.769168,15.769168 0 0 1 16.933334,1.1641665 15.769168,15.769168 0 0 1 32.7025,16.933334 Z" fill="none" stroke="url(#B)" stroke-width="2.328" stroke-linejoin="round" stroke-miterlimit="3.2"/></svg>