<svg xmlns="http://www.w3.org/2000/svg" width="128" height="128" fill="none" xmlns:v="https://vecta.io/nano"><style><![CDATA[.B{fill:#313144}.C{filter:url(#A)}.D{color-interpolation-filters:sRGB}]]></style><defs><filter id="A" x="0" y="0" width="1" height="1" class="D"><feColorMatrix values="-1 0 0 0 1 0 -1 0 0 1 0 0 -1 0 1 0.21 0.72 0.07 0 0 "/></filter><filter id="B" x="-.038" y="-.008" width="1.076" height="1.017" class="D"><feColorMatrix values="-1 0 0 0 1 0 -1 0 0 1 0 0 -1 0 1 0.21 0.72 0.07 0 0 "/></filter><filter id="C" x="-.038" y="-.008" width="1.075" height="1.017" class="D"><feColorMatrix values="-1 0 0 0 1 0 -1 0 0 1 0 0 -1 0 1 0.21 0.72 0.07 0 0 "/></filter></defs><g stroke-width=".68" stroke="#313144" class="B"><path d="M.34 46.521v34.958c0 1.617 1.372 2.932 3.067 2.932h4.613a1.39 1.39 0 0 0 1.389-1.389h0a1.39 1.39 0 0 0-1.389-1.389H6.551a2.86 2.86 0 0 1-2.858-2.858v-29.55a2.86 2.86 0 0 1 2.858-2.858h1.469a1.39 1.39 0 0 0 1.389-1.389h0a1.39 1.39 0 0 0-1.389-1.389H3.407c-1.695 0-3.067 1.312-3.067 2.932z" filter="url(#C)"/><path d="M124.593 43.589h-4.481a1.39 1.39 0 0 0-1.389 1.389h0a1.39 1.39 0 0 0 1.389 1.389h1.403c1.542 0 2.792 1.25 2.792 2.792v29.682c0 1.542-1.25 2.792-2.792 2.792h-1.403a1.39 1.39 0 0 0-1.389 1.389h0a1.39 1.39 0 0 0 1.389 1.389h4.481c1.691 0 3.067-1.312 3.067-2.932V46.521c0-1.617-1.372-2.932-3.067-2.932z" filter="url(#B)"/></g><path d="M19.061 74.062c2.215 0 4.062-.558 5.541-1.674 1.488-1.125 2.246-2.525 2.272-4.199a4.4 4.4 0 0 0-.133-1.209c-.089-.381-.208-.718-.359-1.01-.142-.301-.341-.58-.598-.837-.248-.266-.5-.492-.757-.678a4.96 4.96 0 0 0-.93-.558l-1.023-.438c-.31-.115-.691-.23-1.143-.345l-1.156-.292-1.196-.266-1.369-.319a12.85 12.85 0 0 1-1.13-.372c-.39-.151-.695-.31-.917-.478a2.41 2.41 0 0 1-.558-.638c-.142-.257-.213-.545-.213-.864 0-.709.332-1.302.997-1.781s1.555-.718 2.671-.718c1.161 0 2.06.248 2.697.744.647.496.983 1.174 1.01 2.033 0 .177.089.266.266.266h3.003c.177 0 .266-.089.266-.266-.018-1.143-.354-2.148-1.01-3.016-.647-.877-1.515-1.541-2.605-1.993-1.081-.452-2.29-.678-3.628-.678-2.091 0-3.809.523-5.156 1.568-1.338 1.045-2.02 2.392-2.046 4.04-.009.461.035.886.133 1.276a3.44 3.44 0 0 0 .478 1.05c.213.31.443.589.691.837s.563.474.943.678l1.063.531c.328.142.731.283 1.209.425l1.236.359 1.302.319.12.027.106.027 1.209.292.997.306c.372.124.66.248.864.372s.403.275.598.452a1.47 1.47 0 0 1 .412.611c.08.222.119.474.119.758 0 .833-.341 1.502-1.023 2.007-.673.496-1.758.744-3.256.744-1.302 0-2.334-.301-3.096-.904-.753-.611-1.143-1.386-1.169-2.325 0-.186-.102-.279-.306-.279h-2.963c-.186 0-.279.084-.279.253.018 1.24.381 2.334 1.09 3.282.709.939 1.648 1.657 2.817 2.153 1.169.487 2.472.731 3.907.731z" class="B C"/><path d="M37.678 74.062c1.444 0 2.724-.244 3.84-.731s2.024-1.169 2.724-2.046c.709-.877 1.24-1.905 1.594-3.083.363-1.187.545-2.498.545-3.933 0-1.444-.186-2.76-.558-3.947-.363-1.187-.899-2.215-1.608-3.083-.709-.877-1.621-1.555-2.737-2.033-1.107-.487-2.374-.731-3.8-.731-1.161 0-2.224.159-3.189.478-.957.31-1.781.753-2.472 1.329a7.79 7.79 0 0 0-1.727 2.086c-.47.806-.819 1.705-1.05 2.698-.222.992-.332 2.06-.332 3.202 0 1.453.182 2.773.545 3.96.372 1.187.912 2.219 1.621 3.096.718.868 1.639 1.541 2.764 2.02s2.405.718 3.84.718zm0-16.677c1.692 0 2.977.589 3.854 1.767.877 1.169 1.316 2.875 1.316 5.116s-.439 3.951-1.316 5.129c-.877 1.169-2.162 1.754-3.854 1.754-1.719 0-3.016-.585-3.894-1.754-.877-1.178-1.316-2.888-1.316-5.129s.439-3.947 1.316-5.116c.877-1.178 2.175-1.767 3.894-1.767z" class="B C"/><path d="M62.154 70.806c.177 0 .266.089.266.266v2.458c0 .177-.089.266-.266.266H49.637c-.186 0-.279-.089-.279-.266V55.02a.27.27 0 0 1 .279-.279h2.99c.177 0 .266.093.266.279v15.787z" class="B C"/><path d="M64.613 55.02c0-.186.089-.279.266-.279h2.99a.27.27 0 0 1 .279.279V73.53c0 .177-.093.266-.279.266h-2.99c-.177 0-.266-.089-.266-.266z" class="B C"/><path d="M77.808 54.741c1.603 0 3.021.248 4.252.744 1.24.487 2.237 1.169 2.99 2.046s1.316 1.878 1.688 3.003c.381 1.125.572 2.361.572 3.707 0 1.063-.115 2.064-.345 3.003s-.598 1.812-1.103 2.618c-.496.806-1.112 1.502-1.847 2.086-.726.576-1.621 1.028-2.684 1.355-1.054.328-2.228.492-3.521.492h-6.112c-.186 0-.279-.089-.279-.266V55.02a.27.27 0 0 1 .279-.279zm-.571 16.066c1.161 0 2.166-.155 3.016-.465.85-.319 1.528-.771 2.033-1.355.505-.594.877-1.28 1.116-2.06.248-.788.372-1.683.372-2.684 0-4.332-2.179-6.498-6.538-6.498h-2.286v13.062z" class="B C"/><path d="M102.896 70.806c.177 0 .266.089.266.266v2.458c0 .177-.089.266-.266.266H90.379c-.186 0-.279-.089-.279-.266V55.02a.27.27 0 0 1 .279-.279h2.99c.177 0 .266.093.266.279v15.787z" class="B C"/><path d="M99.84 55.073c-.062-.08-.075-.155-.04-.226.044-.071.119-.106.226-.106h3.734c.124 0 .235.066.332.199l4.624 7.375 4.465-7.375c.097-.133.204-.199.319-.199h3.734c.106 0 .177.035.213.106s.026.146-.026.226l-6.91 10.073v8.385c0 .177-.093.266-.279.266h-2.99c-.177 0-.266-.089-.266-.266v-8.385z" class="B C"/></svg>