<svg xmlns="http://www.w3.org/2000/svg" width="128" height="128" viewBox="0 0 33.867 33.867" xmlns:v="https://vecta.io/nano"><path d="M17.53 15.008h-5.934l2.558 3.445.034.034c0 .034.034.034.034.068l.409.546 1.228 1.671.204.204c.443.341 1.091.239 1.432-.204l1.296-1.739 1.569-2.08.409-.546-.136-1.296c-.034-.443-.239-.853-.58-1.16-.341-.239-.75-.409-1.194-.409h-.034v.17c0 .716-.58 1.296-1.296 1.296z"/><path d="M26.909 8.118H16.678c-.716 0-1.296-.58-1.296-1.296v-.17c-.648-.034-1.296.102-1.876.341-.682.307-1.296.716-1.773 1.296a8.98 8.98 0 0 0-1.296 1.91c-.307.716-.58 1.467-.716 2.217h7.742.034.034c.512.034 1.023.102 1.501.273a2.94 2.94 0 0 1 1.432.853c.102.102.17.239.239.375a1.93 1.93 0 0 1 .136.409c.068.239.068.512.068.784 0 .443-.068.853-.102 1.262zM9.652 12.381c.102-.784.273-1.569.546-2.319a10.05 10.05 0 0 1 1.091-2.183c.477-.682 1.125-1.262 1.842-1.705.716-.409 1.501-.648 2.319-.682h.307.921 12.176l1.944-2.626c.136-.17.205-.375.205-.614 0-.546-.443-1.023-1.023-1.023H3.343a1.02 1.02 0 0 0-.614.205c-.443.341-.546.955-.205 1.432zm6.07 10.335l-5.593-7.708-1.91-2.626L.068 1.195 0 1.229l5.662 11.153 1.33 2.626 6.685 13.199 1.944 3.82c.136.239.307.443.546.546.614.307 1.398.068 1.705-.546l1.944-3.752.034-.102-3.922-5.286c-.102-.034-.136-.102-.205-.17zM29.774 6.652l-1.091 1.467-6.616 8.833-1.569 2.08-2.763 3.683c-.068.102-.17.17-.273.238l2.967 3.99 4.127-7.947 1.091-2.08 8.219-15.723-.068-.034z"/></svg>