<svg xmlns="http://www.w3.org/2000/svg" xmlns:xlink="http://www.w3.org/1999/xlink" width="128" height="128" fill="none" xmlns:v="https://vecta.io/nano"><g fill="#ffd447"><use xlink:href="#E"/><use xlink:href="#F"/><use xlink:href="#G"/><use xlink:href="#H"/><use xlink:href="#I"/><use xlink:href="#J"/></g><use xlink:href="#E" fill="url(#A)"/><use xlink:href="#F" fill="url(#B)"/><use xlink:href="#G" fill="url(#A)"/><use xlink:href="#H" fill="url(#C)"/><use xlink:href="#I" fill="url(#A)"/><use xlink:href="#J" fill="url(#D)"/><path d="M105.98 2.81L102.79 0h-.001-.001l-5.126 2.072-1.337.539-1.292.523-3.025 1.223-2.85 1.151-3.273 5.421-.117.194-.5.828-11.689 19.367-2.389 3.958h-.001v.001 5.384l1.416 1.248 6.139 5.406.321.283-.358-.186-7.165-3.745-.355-.186-1.797-.939V39.08v-.825-2.977-.001l1.797-3.749.78-1.628 7.935-16.553 2.01-4.192-.784-.402-3.16-1.614-1.252 3.397-1.776 4.817-3.751 10.178-1.025 2.782-.772 2.094-1.796 4.871-.001.004v2.219 1.528 2.206.372 2.004l1.797 1.582.806.709.991.873 3.107 2.737-3.107-1.625-1.664-.87-.133-.069-1.797-.94-1.796-.939v-.86-1.434-.748-1.359-.516-4.234-.641l1.796-8.594.113-.536 1.685-8.066.11-.531.937-4.479.75-3.592 1.096-5.247-1.096-.559-1.797-.92-1.797-.92-1.798-.915L64.002 0h-.001-.001l-1.796.917-1.796.917-1.797.92-1.797.92-1.096.559 1.096 5.247.75 3.592.937 4.479.11.531 1.686 8.066.113.536 1.796 8.594v.641 4.233.516 1.359.748 1.434.86l-1.796.939-1.797.94-.133.069-1.664.87-3.107 1.625 3.107-2.737.991-.873.806-.709 1.797-1.582v-2.004-.372-2.206-1.53-2.219l-.001-.004-1.796-4.871-.772-2.094-1.025-2.782-3.751-10.178-1.778-4.815-1.252-3.397-3.16 1.614-.785.402 2.01 4.192 7.934 16.553.78 1.628 1.797 3.749v.001 2.977.825 3.463l-1.797.939-.355.186-7.164 3.745-.358.186.321-.283 6.139-5.406 1.416-1.248v-5.384-.001h-.001l-2.388-3.959-11.689-19.367-.5-.828-.117-.194-3.272-5.421-2.849-1.151-3.025-1.223-1.292-.523-1.337-.539L25.213 0h-.001-.001l-3.19 2.81-1.002.881v6.588 8.722 2.968 2.751 4.715.329 3.061 2.452l.973 2.452 2.102 5.288 1.118.986 2.249 1.982 3.08 2.713-3.064-7.714-1.508-3.8-.758-1.907v-2.15-9.21-.288-3.804V6.587l1.936-1.704 7.597 3.07 1.249 3.388.923 2.502 5.817 15.781v5.655 6.334l-1.384 1.22-2.559 2.253-1.769 1.557-.156.139-.872.767v3.228 2.287.437.865 4.041.362V59v3.427l.552 1.392.237.596 4.645 11.697.714.628.59.52 3.975 3.5 1.836 1.618.289.725 1.784 4.491.416 1.047 2.621 2.308 2.21 1.946.21-.185.739-.651 1.366-1.201.431-.382 1.797-1.582 1.796-1.581 1.357-1.195.441-.387.441.387 1.357 1.195 1.796 1.581 1.797 1.582.431.382 1.366 1.201.739.651.21.185 2.21-1.946 2.62-2.308.416-1.047 1.783-4.491.289-.725 1.836-1.618 3.974-3.5.59-.52.715-.628 4.645-11.697.237-.596.552-1.392V59v-.231-.362-4.041-.865-.437-2.287-3.228l-.872-.767-.156-.139-1.769-1.557-2.559-2.253-1.384-1.22v-6.334-5.655l5.817-15.781.923-2.502 1.249-3.388 7.598-3.07 1.936 1.704v13.237 3.804.288 9.211 2.15l-.758 1.907-1.508 3.8-3.064 7.715 3.081-2.713 2.249-1.981 1.118-.986 2.1-5.288.973-2.452v-2.452-3.061-.329-4.715-2.751-2.968-8.723-6.588zM44 53.062h2.91.941l1.088.646 3.422 2.029 4.452 5.217v.001 2.86.53 3.466.005l-.001-.004-1.472-3.996h-7.629l-4.977-4.383v-.261-3.928-2.182zm41.267 2.182v3.928.261l-4.977 4.383h-7.629l-1.472 3.996v.004-.005-3.466-.53-2.86-.001l4.452-5.217 3.422-2.029 1.088-.646h.941 2.91 1.266zM69.39 78.321l-1.797 1.582-1.276 1.125-.52.456-1.797 1.582-1.797-1.582-.52-.456-1.276-1.125-1.797-1.582-.527-.465-.259-.229-1.011-.889v-.001h1.289.132.376 1.491.306 1.796.181 1.616 1.616.181 1.796.306 1.491.376.132 1.289v.001l-1.011.889-.259.229z" fill="#7000ff"/><defs><linearGradient id="A" x1="33.548" y1="106.686" x2="94.46" y2="106.686" gradientUnits="userSpaceOnUse"><stop stop-color="#f9c924"/><stop offset=".32" stop-color="#e4af18"/><stop offset=".68" stop-color="#fff98c"/><stop offset="1" stop-color="#ffd440"/></linearGradient><linearGradient id="B" x1="33.547" y1="106.686" x2="94.459" y2="106.686" gradientUnits="userSpaceOnUse"><stop stop-color="#f9c924"/><stop offset=".32" stop-color="#e4af18"/><stop offset=".68" stop-color="#fff98c"/><stop offset="1" stop-color="#ffd440"/></linearGradient><linearGradient id="C" x1="33.546" y1="106.686" x2="94.457" y2="106.686" gradientUnits="userSpaceOnUse"><stop stop-color="#f9c924"/><stop offset=".32" stop-color="#e4af18"/><stop offset=".68" stop-color="#fff98c"/><stop offset="1" stop-color="#ffd440"/></linearGradient><linearGradient id="D" x1="33.546" y1="106.686" x2="94.458" y2="106.686" gradientUnits="userSpaceOnUse"><stop stop-color="#f9c924"/><stop offset=".32" stop-color="#e4af18"/><stop offset=".68" stop-color="#fff98c"/><stop offset="1" stop-color="#ffd440"/></linearGradient><path id="E" d="M60.411 94.561l-1.324 1.165-.473.417-1.797 1.582-1.608 1.415-1.174 8.691-.51 3.763-.557 4.114-.501 3.716 3.041 2.677 1.309 1.153 1.797 1.582.263.231 1.534 1.351 1.547 1.363.249.218v-11.24-11.456-6.83V94.4v-1.421l-.807.71z"/><path id="F" d="M48.042 92.832l-1.091 2.218-1.211 2.464-3.004 6.111-.722 1.468-1.759 3.58 2.065 1.817.416.367 3.676 3.238 2.606-8.325.509-1.627.457-1.458.882-2.822 1.109-3.543.008-.019-3.891-3.426z"/><path id="G" d="M43.748 92.495l1.263-2.333-1.902-4.789-.373.476-1.067 1.369-.012.015-5.66 7.251-2.45 3.139 2.45 6.169.691 1.736 6.048-11.168z"/><path id="H" d="M74.48 111.595l-.51-3.763-1.174-8.691-1.608-1.415-1.797-1.582-.473-.417-1.324-1.165-.989-.872-.807-.71V94.4v4.073 6.83 11.456V128l.249-.218 1.547-1.363 1.534-1.351.263-.231 1.797-1.582 1.309-1.153 3.041-2.677-.501-3.716z"/><path id="I" d="M85.271 103.624l-3.005-6.111-1.211-2.464-1.091-2.218-.05.043-3.891 3.426.008.019 1.108 3.543.882 2.822.457 1.458.509 1.627 2.606 8.325 3.677-3.238.416-.367 2.065-1.817-1.759-3.58z"/><path id="J" d="M86.348 87.233l-.012-.015-1.067-1.369-.373-.476-1.902 4.789 1.264 2.333 1.011 1.866 6.048 11.168.691-1.736 2.45-6.169-2.45-3.139z"/></defs></svg>