<svg xmlns="http://www.w3.org/2000/svg" width="128" height="128" fill="none" xmlns:v="https://vecta.io/nano"><path d="M59.56 1.746c-10.09-.015-19.971 2.877-28.459 8.329-13.092 8.495-19.659 21.904-21.059 36.854-.982 10.443-.601 20.971 1.133 31.316a59.89 59.89 0 0 0 5.934 17.615 62.74 62.74 0 0 0 26.567 26.859c5 2.599 12.5 5.264 19.167 5.264a16.39 16.39 0 0 0 10.167-2.974 8.06 8.06 0 0 0 1.892-2.257c2.5-3.797 4.784-6.946 9.642-8.403 3.642-1.133 8.192-.716 11.384-2.982 2.825-2.024 3.5-5.639 3.733-8.828.292-4.505 1.667-8.72 5.501-11.519 5.342-3.948 13.8-1.332 17.892-6.663 1.867-2.499 1.742-5.139 1.784-7.971-2.289-.499-4.548-1.124-6.767-1.874-16.725-8.329-9.625-31.566-15.292-45.499-5.3-12.918-18.492-23.104-32.284-26.11-3.577-.768-7.225-1.156-10.884-1.158z" fill="#000" fill-opacity=".15" paint-order="normal"/><path d="M53.024.309a52 52 0 0 0-28.176 8.246C11.885 16.965 5.384 30.241 3.998 45.042A119.71 119.71 0 0 0 5.12 76.047c1.038 6.083 3.02 11.967 5.875 17.44a62.12 62.12 0 0 0 26.303 26.592c4.95 2.573 12.376 5.212 18.977 5.212 3.589.16 7.129-.875 10.066-2.944a7.98 7.98 0 0 0 1.873-2.235c2.475-3.76 4.736-6.877 9.546-8.32 3.606-1.121 8.11-.709 11.27-2.952 2.797-2.004 3.465-5.583 3.696-8.741.289-4.461 1.651-8.633 5.446-11.404 5.289-3.909 13.663-1.319 17.714-6.596 1.848-2.474 1.724-5.088 1.766-7.892a62.46 62.46 0 0 1-6.7-1.855c-16.559-8.246-9.53-31.252-15.14-45.047C90.564 14.516 77.503 4.431 63.849 1.455 60.307.694 56.695.31 53.073.309z" fill="#fafaf7" stroke="#28404e" stroke-width=".617"/><path d="M30.177 48.363V31.104c-1.243 0-2.319.165-3.387.579s-2.071 1.056-2.893 1.852a8.72 8.72 0 0 0-1.942 2.833c-.446 1.054-.683 2.221-.683 3.365s.237 2.311.683 3.365a8.72 8.72 0 0 0 1.942 2.833c.822.797 1.828 1.433 2.893 1.852.907.357 2.058.756 3.387.579h0" fill="#18b68b" stroke="#18b68b" stroke-width=".1" stroke-linecap="round" stroke-linejoin="round" stroke-miterlimit="3.2" paint-order="stroke fill markers"/><path d="M30.177 24.222c-3.059 0-6.049.906-8.593 2.604s-4.527 4.112-5.698 6.936-1.479 5.932-.883 8.931a15.46 15.46 0 0 0 4.229 7.917c2.162 2.163 4.917 3.636 7.917 4.235s6.11.295 8.937-.873a15.47 15.47 0 0 0 6.946-5.687c1.702-2.54 2.612-5.528 2.615-8.585a15.46 15.46 0 0 0-1.175-5.92 15.47 15.47 0 0 0-3.353-5.02 15.48 15.48 0 0 0-5.02-3.356c-1.877-.778-3.89-1.18-5.923-1.181zm0 24.111a8.64 8.64 0 0 1-6.108-2.529 8.63 8.63 0 0 1 0-12.209 8.64 8.64 0 0 1 6.108-2.529z" fill="#28404e"/><path d="M68.881 48.341V31.082c-1.243 0-2.319.165-3.387.579s-2.071 1.056-2.893 1.852a8.72 8.72 0 0 0-1.942 2.833c-.446 1.054-.683 2.221-.683 3.365s.237 2.311.683 3.365a8.72 8.72 0 0 0 1.942 2.833c.822.797 1.828 1.433 2.893 1.852.907.357 2.058.756 3.387.579h0" fill="#60e6c5" stroke="#60e6c5" stroke-width=".1" stroke-linecap="round" stroke-linejoin="round" stroke-miterlimit="3.2" paint-order="stroke fill markers"/><path d="M68.881 24.222c-3.06-.005-6.053.897-8.6 2.593s-4.534 4.107-5.709 6.931-1.486 5.932-.893 8.933a15.46 15.46 0 0 0 4.223 7.923 15.47 15.47 0 0 0 7.916 4.242c3 .6 6.112.298 8.94-.869a15.47 15.47 0 0 0 6.95-5.687c1.703-2.541 2.613-5.53 2.617-8.588.004-4.099-1.62-8.032-4.516-10.935s-6.828-4.536-10.929-4.543zm0 24.119a8.64 8.64 0 0 1-3.387-.579 8.63 8.63 0 0 1-2.893-1.852 8.64 8.64 0 0 1-1.942-2.833c-.451-1.065-.683-2.209-.683-3.365s.232-2.301.683-3.365a8.64 8.64 0 0 1 1.942-2.833 8.63 8.63 0 0 1 2.893-1.852 8.64 8.64 0 0 1 3.387-.579z" fill="#28404e"/></svg>