<svg xmlns="http://www.w3.org/2000/svg" fill="none" width="128" height="128" xmlns:v="https://vecta.io/nano"><g fill-rule="evenodd" fill="#f2f4f8" stroke="#121122" stroke-width="1"><path d="M14.572 48.891c-.86 5.539.154 11.238 1.206 16.716.405.876 1.294 1.463 2.39 1.842a35.63 35.63 0 0 0-3.481 15.325c0 22.921 22.188 41.518 49.557 41.518s49.577-18.553 49.577-41.518a35.65 35.65 0 0 0-3.55-15.47c.915-.378 1.646-.926 2.003-1.697 1.054-5.477 2.062-11.179 1.202-16.716-.805-7.434-3.356-9.705-11.016-7.799-3.895.907-9.033 3.206-12.983 5.911-7.392-3.668-16.02-5.772-25.23-5.772-9.319 0-18.036 2.157-25.483 5.904-3.972-2.762-9.214-5.123-13.17-6.043-7.665-1.903-10.211.365-11.02 7.799zm28.856 32.771c-5.81-2.561-15.738-1.914-15.738-1.914s.467 9.348 6.166 12.521c6.76 3.759 19.33 1.897 19.33 1.897s-1.069-8.692-9.757-12.521zm32.278 12.519s12.57 1.862 19.33-1.897c5.699-3.173 6.166-12.521 6.166-12.521s-9.929-.647-15.738 1.914c-8.688 3.796-9.757 12.468-9.757 12.468zm-13.943 6.589c0 .689 1.281 1.248 2.856 1.248s2.856-.559 2.856-1.248-1.279-1.246-2.856-1.246-2.856.537-2.856 1.246z" paint-order="stroke fill markers"/><path d="M120.724 95.015c-4.638-1.791-9.565-2.72-14.537-2.74h.009c-1.261 0-1.261-1.956 0-1.956a42.34 42.34 0 0 1 15.056 2.821c.505.154.802.675.678 1.188-.146.521-.684.827-1.206.687zM7.564 93.185c4.808-1.848 9.912-2.804 15.063-2.821v.011c1.259 0 1.254 1.956 0 1.956-4.973.018-9.903.946-14.541 2.738-.52.138-1.054-.165-1.202-.682a1 1 0 0 1 .682-1.204zm9.973 5.605a26.66 26.66 0 0 1 7.429-1.248c1.254.007 1.25 1.956-.007 1.956a24.59 24.59 0 0 0-6.778 1.138c-2.044.599-4.379 1.444-5.871 2.826-.924.858-2.306-.524-1.38-1.382 1.811-1.672 4.302-2.597 6.602-3.29zm9.663 3.638c-1.961.841-3.849 1.848-5.638 3.008-1.807 1.115-3.398 2.548-4.694 4.229a.98.98 0 0 0 .348 1.338c.469.26 1.059.107 1.342-.348 1.1-1.518 2.676-2.696 4.236-3.701a38.09 38.09 0 0 1 5.376-2.837c.463-.275.62-.871.352-1.338-.282-.454-.869-.609-1.338-.352zm76.646-2.969a24.46 24.46 0 0 1 6.78 1.135 22.75 22.75 0 0 1 3.314 1.224c.924.405 1.782.946 2.546 1.604.924.854 2.311-.524 1.386-1.386-1.8-1.67-4.278-2.597-6.593-3.29a26.56 26.56 0 0 0-7.434-1.243c-1.259 0-1.263 1.959 0 1.959zm2.159 7.438a39.06 39.06 0 0 0-5.292-2.74v-.02a.99.99 0 0 1-.352-1.338 1.01 1.01 0 0 1 1.342-.348c3.811 1.664 7.821 3.798 10.312 7.238.269.466.114 1.062-.348 1.338a1 1 0 0 1-1.338-.352c-1.127-1.554-2.72-2.757-4.324-3.778z" paint-order="stroke fill markers"/></g><path d="M.13 70.591c.902-1.408 8.846-5.647 18.672-8.162a115.475 115.475 0 0 1 7.823-17.451c-.037 0 7.86-14.178 7.825-14.185a44.672 44.672 0 0 1-6.503-3.644 5.638 5.638 0 0 1-.942-.918 2.165 2.165 0 0 1-.312-1.146c0-.33.464-.915.671-1.175a13.65 13.65 0 0 1 1.745-1.712 46.216 46.216 0 0 1 4.738-3.404c.783-.517 1.598-1.021 2.399-1.529 5.633-3.587 8.721-6.287 13.879-9.251 4.929-2.826 7.326-4.566 13.041-4.274 7.183 0 25.038 22.745 33.088 34.465 4.828 7.042 11.307 19.722 13.692 24.492.572.143 1.089.279 1.567.42 7.323 2.201 14.506 5.422 16.262 7.473 1.565 1.822-5.275 2.636-12.015 3.809s-29.606 1.758-51.581 1.906-47.62-.588-53.203-1.466S-.994 72.347.13 70.591z" fill="#6665dd"/><path d="M103.821 50.945s-14.475-3.627-39.98-3.627c-27.384 0-40.572 4.225-40.572 4.225s-1.565 2.973-2.245 4.694-2.223 6.192-2.223 6.192 19.924-3.565 45.424-3.565a286.811 286.811 0 0 1 45.827 3.873s-2.313-5.413-3.697-7.72a143.763 143.763 0 0 0-2.535-4.073z" fill="#ff99a5"/><path d="M17.671 20.346c1.659-.242 3.913 4.837 3.913 4.837s5.218-1.404 6.032 0-3.668 4.775-3.668 4.775 2.707 4.762 1.848 5.752-5.684-2.014-5.684-2.014-3.682 4.146-4.881 3.521.161-6.03.161-6.03-5.209-2.214-4.852-3.53 5.783-1.712 5.783-1.712-.306-5.356 1.349-5.598z" fill="#ffe600"/></svg>