<svg xmlns="http://www.w3.org/2000/svg" width="128" height="128" viewBox="0 0 33.867 33.867" xmlns:v="https://vecta.io/nano"><path d="M16.976 31.422l-.007-2.445 6.104-3.625-.021-7.276 2.198-1.167.088 9.716z" fill="#ccc"/><path d="M18.756 13.443l2.499-1.428 6.13 3.875.034 11.711-2.083-.975-.088-9.716zM16.881 0l10.475 6.019.007 2.507-10.472-5.9z"/><path d="M6.483 18.368L6.447 6.141 16.881 0l.011 2.625-8.486 4.791-.032 9.542z" fill="#ccc"/><path d="M12.63 21.781l-6.147-3.413 1.891-1.41 10.532 6.073-6.261 3.564-2.097 1.178 6.428 3.648 8.36-4.796 2.083.975-10.495 6.266-10.413-5.962 8.299-4.912-2.18-1.211zM8.406 7.416l8.486-4.791 10.472 5.9-6.108 3.489-2.499 1.428 6.492 3.466-2.198 1.167-8.332-4.748 8.304-4.912-1.981-1.141-4.143-2.386-6.168 3.563z" fill="#b3b3b3"/><path d="M10.548 27.773l2.097-1.178 4.323 2.381.007 2.446z"/><path d="M6.511 27.904l-.008-2.627 6.127-3.496h0l2.18 1.211zm8.207-14.577l.025-2.503 6.298-3.55 1.981 1.141z" fill="#ccc"/><path d="M8.374 16.958l.032-9.542 2.324 1.034.022 7.487 8.147 4.534.007 2.559z"/></svg>