<svg xmlns="http://www.w3.org/2000/svg" xmlns:xlink="http://www.w3.org/1999/xlink" viewBox="0 0 79.782 79.64" width="128" height="128" xmlns:v="https://vecta.io/nano"><defs><linearGradient id="A" gradientUnits="userSpaceOnUse"><stop offset="0" stop-color="#e2107b"/><stop offset="1" stop-color="#301748"/><stop offset="1" stop-color="#0d1126"/></linearGradient><linearGradient id="B" x1="8197.565" y1="35.392" x2="8202.165" y2="35.392" xlink:href="#A"/><linearGradient id="C" x1="8190.236" y1="3.795" x2="8194.938" y2="3.795" xlink:href="#A"/><linearGradient id="D" x1="8217.528" y1="26.615" x2="8221.769" y2="26.615" xlink:href="#A"/><linearGradient id="E" x1="79.725" y1="105.762" x2="41.876" y2="7.599" gradientUnits="userSpaceOnUse"><stop offset="0" stop-color="#0d1126"/><stop offset="0" stop-color="#301748"/><stop offset="1" stop-color="#e2107b"/></linearGradient><linearGradient xlink:href="#A" id="F" x1="79.866" y1="41.247" x2="4.065" y2="41.247"/></defs><path d="M37.927 70.82c-1.649-1.518-3.191-3.149-4.613-4.882-3.408-4.369-10.981-12.07-12.813-13.979l-6.509-6.65c-.308-.32-.82-.705-.5-1.281s.897-.461 1.422-.436a2.09 2.09 0 0 1 .679.154l4.613 1.858c3.05 1.281 6.086 2.563 9.174 3.69 1.845.705 2.639 0 2.294-1.948-.295-1.627-.705-3.216-1.14-4.818-.428-1.508.585-3.043 2.14-3.242.641-.103 1.281-.115 1.922-.154.665.054 1.288-.33 1.538-.948.226-.67.006-1.409-.551-1.845l-6.227-6.086-15.568-15.376-9.264-9.033c-.295-.295-.615-.564-.372-1.025s.641-.41 1.063-.333a9.16 9.16 0 0 1 3.19 1.858c2.691 1.845 5.497 3.498 8.252 5.253l5.715 3.575 5.548 3.613 8.059 5.048 8.61 5.574c.513.346.987.513 1.525 0s.461-.974.218-1.614a46.69 46.69 0 0 1-2.076-4.356c-.141-.538-.256-1.025.256-1.435a1.28 1.28 0 0 1 1.461.026 58.8 58.8 0 0 1 5.663 3.062c2.237 1.41 4.57 2.66 6.983 3.741 3.844 1.858 7.688 4.036 11.327 6.24a18.18 18.18 0 0 1 5.125 4.984c1.073 1.474 1.968 3.069 2.665 4.754 1.004 2.438 1.663 5.004 1.96 7.624a22.87 22.87 0 0 1-3.28 13.915 26.1 26.1 0 0 1-7.124 7.444c-1.911 1.305-3.972 2.376-6.137 3.19-2.295.788-4.71 1.169-7.137 1.128h-.615c-5.176-.372-10.276-1.102-17.477-7.291z" fill="url(#F)"/><path d="M19.604 35.392a2.396 2.396 0 0 0 2.332 2.409 2.294 2.294 0 0 0 2.268-2.46 2.473 2.473 0 0 0-2.422-2.358 2.345 2.345 0 0 0-2.178 2.409z" fill="url(#B)"/><path d="M29.329 6.062a2.101 2.101 0 0 0 2.204-2.319 2.358 2.358 0 0 0-2.268-2.217 2.883 2.883 0 0 0-2.434 2.281 2.383 2.383 0 0 0 2.499 2.255z" fill="url(#C)"/><path d="M4.241 26.615A1.999 1.999 0 0 0 2.127 24.5 2.345 2.345 0 0 0 0 26.704a2.217 2.217 0 0 0 2.127 2.037 2.037 2.037 0 0 0 2.114-2.127z" fill="url(#D)"/><path d="M56.224 70.192c8.271-.134 15.26-7.175 15.312-14.991-.039-8.407-6.886-15.19-15.292-15.151s-15.19 6.886-15.151 15.292c-.026 7.239 7.086 14.85 15.132 14.85z" fill="url(#E)"/></svg>