<svg xmlns="http://www.w3.org/2000/svg" width="128" height="128" fill="none" xmlns:v="https://vecta.io/nano"><path fill-rule="evenodd" d="M40.597.99a5.08 5.08 0 0 1 4.549-.75s11.028 3.115 13.617 13.92c1.364 5.683 4.43 8.007 8.471 9.6 2.229.879 4.652 1.306 6.958 1.55v-4.83c0-5.658 4.561-10.24 10.192-10.24s10.193 4.582 10.193 10.24v10.24a5.13 5.13 0 0 1-1.493 3.62c-.956.96-2.252 1.5-3.603 1.5C81 37.361 79.288 46.52 79.288 51.2c0 13.137 9.878 30.68 24.895 30.68a5.06 5.06 0 0 1 2.14.209c4.253 1.367 2.649 5.683 4.847 8.501 5.74 7.359 13.985 10.795 13.985 22.05 0 6.131-3.931 11.114-8.401 13.13s-9.249 2.23-13.637 2.23c-17.622 0-29.209-12.078-34.351-16.24-18.36-14.872-33.004-34.788-50.555-50.56C4.51 48.888 2.872 31.25 2.872 31.25c-.121-1.159.156-2.325.783-3.305a5.1 5.1 0 0 1 2.671-2.085l13.02-4.36c.899-2.365 2.484-5.695 6.171-8.87C30 8.771 40.597.99 40.597.99zm8.252 15.57c-.684-2.854-2.904-4.43-4.678-5.42-2.654 1.979-9.119 6.769-12.025 9.27-1.278 1.101-2.279 2.792-2.986 4.23l7.924 10.05c4.312 5.186-4.176 11.476-7.993 6.35l-7.485-9.5-7.595 2.55c.9 4.288 3.107 12.378 10.999 19.47 17.406 15.642 31.949 35.482 50.158 50.23 5.681 4.599 13.043 11.996 23.71 13.62-14.81-10.806-37.312-35.259-45.071-50.85 1.299 1.546 5.779 4.233 7.446 3.04 1.809-1.3 2.146-3.722 1.025-5.54-1.202-1.912-3.353-4.093-5.594-6.365-3.855-3.909-7.974-8.086-7.974-11.616 0-3.502 2.242-5.12 5.097-5.12s5.295 5.08 10.192 5.08c2.156 0 5.097-1.343 5.097-5.08 0-2.986-1.62-6.518-4.718-7.393-7.724-2.181-13.703-9.405-15.528-17.007zm54.298 80.35c-.99-1.27-1.867-2.807-2.499-4.53-3.145.341-6.072 1.38-6.072 4.93 0 10.378 11.567 15.99 19.112 18.59 1.002-.551 1.274-1.13 1.274-3.26 0-7.336-7.806-10.591-11.815-15.73z" fill="#f9d549"/></svg>