<svg xmlns="http://www.w3.org/2000/svg" width="128" height="128" viewBox="0 0 33.867 33.867" xmlns:v="https://vecta.io/nano"><path d="M33.378 12.253l-6.775-6.907a1.7 1.7 0 0 0-.551-.376 1.6 1.6 0 0 0-.651-.132c-.451 0-.883.183-1.203.507a1.75 1.75 0 0 0 0 2.452l3.895 3.954H8.465a1.68 1.68 0 0 0-1.198.506c-.318.324-.496.763-.496 1.221s.179.897.496 1.221a1.68 1.68 0 0 0 1.198.506h23.711c.335-.002.661-.104.938-.294a1.72 1.72 0 0 0 .62-.776 1.76 1.76 0 0 0 .102-.996c-.063-.335-.223-.644-.458-.886zm-7.977 6.406H1.691c-.335.002-.661.104-.938.294a1.72 1.72 0 0 0-.62.776 1.76 1.76 0 0 0-.102.996c.063.335.223.644.458.886l6.775 6.907a1.68 1.68 0 0 0 .551.378 1.6 1.6 0 0 0 .651.133 1.68 1.68 0 0 0 .651-.133c.206-.091.394-.216.551-.378s.285-.351.371-.562.13-.436.13-.664-.044-.453-.13-.664-.212-.401-.371-.562l-3.895-3.954h19.629a1.68 1.68 0 0 0 1.198-.506c.318-.324.496-.763.496-1.221s-.179-.897-.496-1.221a1.68 1.68 0 0 0-1.198-.506z" fill="#4800ea"/></svg>