<svg xmlns="http://www.w3.org/2000/svg" width="128" height="128" xmlns:v="https://vecta.io/nano"><path d="M50.663 80.127c-.297-1.003-.767-1.926-1.214-2.871-1.104 0-2.148.118-3.334.348 1.477.927 3.018 1.717 4.548 2.523" fill="#6b7495"/><path d="M15.95 60.69c-1.838-3.365-2.971-7.687-3.496-10.266-1.208.646-2.456 1.258-3.563 2.095-.209.228-1.43 1.016-.611 2.39.871 1.416 2.126 2.139 3.372 3.047 1.456.972 2.675 1.82 4.298 2.733h0" fill="#b7b7c7"/><path d="M76.807 45.265c0 17.885-14.499 32.384-32.384 32.384-8.589 0-16.826-3.412-22.899-9.485s-9.485-14.31-9.485-22.899 3.412-16.826 9.485-22.899 14.31-9.485 22.899-9.485 16.826 3.412 22.899 9.485 9.485 14.31 9.485 22.899z" fill="#f3b5af"/><path d="M77.773 46.51c0 8.942-22.161 2.896-27.75 7.837-3.343 2.955-4.875 7.696-12.298 6.561-12.395-1.895-11.173-10.512-15.249-12.05-4.323-1.631-10.174 7.876-10.435-3.593-.407-17.88 14.499-32.384 32.384-32.384S77.773 28.626 77.773 46.51z" fill="#52380d"/><path d="M55.956 12.881c0 2.994-1.233 5.865-3.428 7.983s-5.172 3.306-8.277 3.306c-6.465 0-11.705-5.054-11.705-11.289S37.786 1.592 44.251 1.592c3.104 0 6.082 1.189 8.277 3.306s3.428 4.989 3.428 7.983z" fill="#e54a3a"/><path d="M44.199 9.184a4.21 4.21 0 0 1-8.42 0 4.21 4.21 0 0 1 8.42 0z" fill="#fff"/><path d="M112.232 66.095c0 8.589-3.412 16.826-9.485 22.899s-14.31 9.485-22.899 9.485-16.826-3.412-22.899-9.485-9.485-14.31-9.485-22.899c0-17.885 14.499-32.384 32.384-32.384s32.384 14.499 32.384 32.384z" fill="#f7e59e"/><path d="M112.232 66.095c0 4.471-6.321.5-8.47 2.783s-2.056 7.618-5.668 8.426-5.164-2.447-9.549-2.401-7.492 6.491-11.963 6.491c-8.942 0-11.146-2.69-15.375-8.333-3.171-4.231-13.741 1.977-13.741-6.966 0-17.885 14.499-32.384 32.384-32.384s32.384 14.499 32.384 32.384z" fill="#7b5315"/><path d="M91.526 34.678c0 2.994-1.233 5.865-3.428 7.983s-5.172 3.306-8.277 3.306-6.082-1.189-8.277-3.306-3.428-4.989-3.428-7.983 1.233-5.865 3.428-7.983 5.172-3.306 8.277-3.306 6.082 1.189 8.277 3.306 3.428 4.989 3.428 7.983z" fill="#e54a3a"/><path d="M79.963 30.654a4.21 4.21 0 0 1-4.21 4.21 4.21 4.21 0 0 1-4.21-4.21 4.21 4.21 0 0 1 8.42 0z" fill="#fff"/><path d="M75.749 100.615c-3.395-.541-6.02-1.887-32.046-16.354L10.682 65.905C1.526 60.816-.016 59.156 0 54.327c.014-4.236 1.516-5.967 8.82-10.161l3.29-1.815c-.17 4.594.113 6.323.344 8.073l-2.295 1.273c-5.8 3.218-1.339 5.194 30.802 23.044 38.066 21.14 37.476 20.878 44.37 17.95 1.965-.835 30.838-17.092 34.065-19.425 2.635-1.905 1.987-2.772-2.387-5.233l-4.786-2.704-.152-2.479c-.054-.88-.398-3.08-.686-4.113l-.757-2.708 1.818.992c3.774 2.06 4.378 2.579 6.486 3.716 1.73.884 3.29 2.043 4.998 2.959 3.975 2.871 5.036 7.247 3.196 11.218-1.241 2.679-2.37 3.451-19.669 13.436-22.498 12.987-23.859 13.513-31.706 12.264z" fill="#eaeef0"/><path d="M70.842 120.252c-2.666-.995-42.984-23.62-43.178-24.231-.284-.896.18-1.308 3.754-3.332l3.382-1.951 18.508 10.325c12.894 7.193 19.058 10.713 23.504 11.397s10.913-3.759 13.764-5.227l6.209-3.595 1.357.711c3.653 1.913 3.478 2-7.959 8.632-14.199 8.235-15.473 8.714-19.341 7.271zm5.093-13.668c-1.657-.355-3.892-1.16-8.457-3.673L38.092 86.736 5.897 68.949C1.665 66.713.231 64.455.093 59.81l-.091-4.645c.037 1.895.618 2.831.661 3.043.655 1.239 1.566 2.718 5.35 4.869l30.158 17.14 20.055 10.988c7.522 4.121 14.261 8.215 19.523 9.41 6.721 1.527 11.502-1.069 13.36-2.107l22.759-12.709c10.375-6.25 16.035-8.654 16.076-13.753l-.04 4.279c-.043 4.57-3.682 8.133-7.934 10.544l-15.382 8.721-16.546 9.247c-1.572.879-7.883 2.652-12.107 1.746zm34.353-29.439c1.132-3.745 1.934-5.685 1.934-11.816l3.768 2.123c6.67 3.758 6.829 3.966-.616 8.311l-5.921 3.456z" fill="#b5b5c5"/><path d="M72.142 126.182c-1.773-.293-43.805-23.386-44.337-24.359-.247-.188-.163-4.232-.21-6.166 0 .482.971.989 1.654 1.408l8.815 5.124 10.824 6.118 15.863 8.779c3.75 2.075 6.223 3.357 8.52 3.595s5.63-1.368 6.606-1.915l10.306-5.784 7.062-4.178c.996-.589 2.943-1.998 3.007-2.734l.132 3.913c.104 3.107 1.368 2.01-11.982 9.634-12.336 7.046-12.631 7.165-16.26 6.565zm2.66-14.166c-2.122-.554-2.497-.354-22.993-11.789L24.32 84.89c-5.659-3.157-10.512-6.088-11.422-6.9-1.411-1.26-4.017-6.061-5.092-7.987l29.709 16.414 34.205 18.665c1.844 1.006 6.015 2.222 10.287 1.467 2.815-.498 5.129-1.305 7.246-2.388l30.718-17.292-3.079 3.282c-3.932 4.192-3.212 3.622-19.098 12.898-16.914 9.876-17.887 10.299-22.992 8.967z" fill="#6a7394"/></svg>