<svg xmlns="http://www.w3.org/2000/svg" width="128" height="128" fill="none" xmlns:v="https://vecta.io/nano"><circle cx="64" cy="64" r="64" fill="url(#C)"/><mask id="A" mask-type="alpha" maskUnits="userSpaceOnUse" x="0" y="0" width="24" height="24"><circle cx="12" cy="12" r="12" fill="#fff"/></mask><g mask="url(#A)" transform="scale(5.3333333)"><path d="M11.475-2.865v8.361h.543v-8.361zm-1.239 0v8.361h.543v-8.361zm2.866 0v8.361h.541v-8.361zm-4.159.929v4.678L6.742-1.363l-.479.256L8.974 3.95l.51-.129v-5.756zm5.418-.154v5.756l.51.129 2.711-5.057-.479-.258-2.201 4.105V-2.09zm-2.457 21.678v8.361h.543v-8.361zm1.241 0v8.361h.541v-8.361zm-2.866 0v8.361h.541v-8.361zm4.746 1.652l-.51.127v5.758h.543v-4.678l2.201 4.105.477-.256zm-6.05.076l-2.711 5.057.479.256 2.201-4.105v4.678h.541v-5.756zm-12.42-8.83v.541h8.361v-.541zm0 1.239v.543h8.361v-.543zm0-2.866v.543h8.361v-.543zm.736 4.2v.541h4.676l-4.105 2.201.256.479 5.057-2.711-.127-.51zm1.369-7.942l-.256.477L2.51 9.795h-4.678v.543h5.756l.129-.51zm20.346 4.94v.541h8.361v-.541zm0-1.241v.543h8.361v-.543zm0 2.866v.541h8.361v-.541zm6.515-6.875l-5.057 2.711.129.51h5.756v-.543h-4.678l4.105-2.201zm-4.619 8.173l-.127.51 5.057 2.711.256-.479-4.105-2.201h4.678v-.541zM6.939 17.484l-5.912 5.912.383.383 5.912-5.912zm.877.875l-5.912 5.912.383.385 5.912-5.914zm-2.025-2.025l-5.912 5.912.383.385 5.912-5.914z" fill="#fff"/><path d="M7.75 20.635l-4.07 4.07.383.383 3.307-3.307-1.346 4.459.52.156 1.658-5.492zm-4.086-4.19l-5.492 1.658.156.52 4.461-1.348-3.309 3.307.383.385 4.07-4.07zm18.848-15.14L16.6 7.217l.383.383 5.912-5.912zm-.875-.877l-5.912 5.914.383.383L22.02.813zm2.025 2.027L17.75 8.367l.383.383 5.912-5.912zm-6.101-3.586l-1.658 5.492.451.27 4.07-4.07-.383-.383-3.307 3.307 1.346-4.46zm6.447 5.119l-4.07 4.07.27.451L25.7 6.851l-.156-.518-4.459 1.346 3.307-3.307zM17.287 17.18l-.385.385 5.914 5.912.383-.385zm.875-.875l-.383.383 5.912 5.912.383-.383zm-2.025 2.025l-.383.383 5.912 5.912.383-.383zm4.224-1.885l-.27.451 4.07 4.07.383-.383-3.307-3.307 4.459 1.346.158-.52zm-3.929 4.112l-.451.27 1.658 5.494.52-.158-1.346-4.459 3.307 3.307.383-.383zM1.107 1.609l-.383.383 5.912 5.912.383-.383zm-.877.875l-.383.383L5.76 8.779l.383-.383zM2.256.459l-.383.383 5.912 5.912.385-.383zM.25 4.377l-.383.383 3.307 3.307-4.459-1.346-.156.518 5.492 1.66.27-.451zM6.465-.898l-.52.156 1.35 4.463L3.984.41l-.383.383 4.07 4.07.451-.27z" fill="#fff"/></g><path d="M108.181 64.206c0 24.286-19.688 43.974-43.974 43.974S20.232 88.492 20.232 64.206 39.92 20.232 64.206 20.232s43.974 19.688 43.974 43.974z" fill="#f8ba3a"/><path d="M64.208 18.99c-24.956 0-45.219 20.263-45.219 45.219s20.263 45.208 45.219 45.208 45.208-20.253 45.208-45.208S89.164 18.99 64.208 18.99zm0 2.479c23.617 0 42.729 19.123 42.729 42.74s-19.112 42.729-42.729 42.729-42.74-19.112-42.74-42.729 19.123-42.74 42.74-42.74z" fill="#fff"/><mask id="B" mask-type="alpha" maskUnits="userSpaceOnUse" x="3" y="3" width="18" height="18"><circle cx="12.039" cy="12.039" r="8.245" fill="#fff" stroke="#fff" stroke-width=".465"/></mask><path fill-rule="evenodd" d="M12.426 3.484l-1.084 8.71h1.084L12 20.227l7.899-1.414 1.433-11.029-3.481-3.061z" fill="#fff" mask="url(#B)" transform="scale(5.3333333)"/><g fill="#01c1ae"><path d="M23.348 58.391c.995 8.1 6.264 16.527 14.362 15.533 27.484-3.374 23.622-21.036 23.252-26.756 1.989 16.2 14.293 22.146 34.906 19.615 6.135-.753 8.648-12.743 7.969-18.275-.849-6.915-19.157-7.926-41.978-5.123s-39.754 4.881-38.51 15.006z"/><path d="M91.313 40.042c-7.831-.797-18.213-.32-29.729 1.094-11.411 1.401-21.396 2.589-28.677 4.833-3.641 1.122-6.649 2.489-8.833 4.542s-3.367 4.997-2.979 8.156c.545 4.437 2.208 8.923 5.01 12.344s7.007 5.766 11.885 5.167c14.23-1.747 21.12-7.534 23.875-13.844.548-1.256.436-2.377.708-3.615 1.955 3.067 4.554 5.534 7.781 7.281 6.53 3.535 15.218 4.34 25.792 3.042 2.238-.275 4.07-1.591 5.406-3.208s2.283-3.586 3-5.656c1.434-4.141 1.947-8.649 1.542-11.948-.332-2.702-2.422-4.692-5-5.896s-5.866-1.893-9.781-2.292zm-.458 4.521c3.62.368 6.506 1.053 8.313 1.896s2.324 1.567 2.417 2.323c.274 2.233-.136 6.491-1.323 9.917-.593 1.713-1.38 3.224-2.219 4.24s-1.619 1.492-2.448 1.594C85.555 65.764 77.783 64.855 72.51 62s-8.362-7.533-9.292-15.104a2.27 2.27 0 0 0-1.49-1.188c.166-.02.24-.052.406-.073 11.305-1.388 21.479-1.81 28.719-1.073zm-31.052 1.469a2.27 2.27 0 0 0-1.104 1.281c.208 3.218 1.093 8.414-1 13.208s-7.007 9.519-20.26 11.146c-3.219.395-5.707-.972-7.812-3.542s-3.571-6.348-4.021-10.01c-.234-1.903.229-3.019 1.583-4.292s3.773-2.497 7.063-3.51c6.028-1.858 15.34-3.015 25.552-4.281z"/></g><path d="M64.463 92.001c9.575-.781 16.759-8.511 16.044-17.266l-34.675 2.829c.714 8.754 9.056 15.218 18.631 14.437z" fill="#fff"/><path d="M80.427 73.708L45.75 76.531l-.948 1.115c.764 9.362 9.667 16.208 19.75 15.385s17.743-9.023 16.979-18.385zm-1.333 2.177c-.042 7.652-6.096 14.38-14.719 15.083s-15.675-4.957-16.958-12.5z" fill="#fe9d51"/><path d="M68.958 81.75a.826.826 0 1 0 0 1.656h9.49a.826.826 0 1 0 0-1.656z" fill="#fe9a54"/><g fill="#000"><path d="M74.116 62.967c-7.433-2.808-10.391-10.254-10.942-13.626 0-4.542 5.161-5.161 17.755-5.161s20.232 1.032 20.852 4.335c.619 5.781-1.445 14.452-4.335 15.897s-14.039 2.065-23.329-1.445z"/><path d="M80.927 43.969c-6.3 0-10.739.152-13.646.885-1.453.367-2.531.889-3.25 1.625s-1.062 1.69-1.062 2.865v.01.021c.281 1.72 1.171 4.443 2.927 7.104s4.382 5.255 8.146 6.677c4.674 1.766 9.807 2.49 14.135 2.594s7.835-.391 9.365-1.156c.788-.394 1.472-1.238 2.073-2.365s1.107-2.536 1.51-4.083c.806-3.094 1.178-6.731.865-9.656l-.011-.01c-.168-.899-.811-1.64-1.843-2.219s-2.457-1.016-4.25-1.354c-3.587-.676-8.656-.938-14.958-.938zm0 .417c6.291 0 11.339.261 14.875.927 1.768.333 3.157.769 4.125 1.312s1.505 1.175 1.646 1.927c.304 2.854-.051 6.446-.844 9.49-.397 1.524-.9 2.903-1.479 3.99s-1.238 1.869-1.896 2.198c-1.361.68-4.876 1.217-9.167 1.115s-9.384-.829-14-2.573c-3.668-1.386-6.228-3.914-7.948-6.521-1.712-2.595-2.58-5.253-2.854-6.906 0-1.096.296-1.926.937-2.583s1.641-1.144 3.052-1.5c2.822-.712 7.259-.875 13.552-.875z"/></g><g fill="#000"><path d="M52.255 66.84c5.964-3.931 9.061-11.511 7.203-17.911-1.058-3.645-6.869-2.751-17.755-1.032-9.703 1.532-17.135 5.78-16.31 9.497.413 6.089 5.11 12.519 7.845 13.626s11.561.734 19.016-4.179z"/><path d="M54.271 46.198c-2.977-.017-7.161.641-12.604 1.5-4.873.769-9.168 2.212-12.167 3.948-1.499.868-2.681 1.805-3.438 2.781-.752.97-1.089 1.994-.875 2.99.212 3.089 1.503 6.244 3.083 8.771s3.427 4.431 4.885 5.021c1.447.585 4.349.761 7.854.188s7.597-1.91 11.354-4.385c6.038-3.98 9.179-11.635 7.292-18.135a3.19 3.19 0 0 0-1.802-2.073c-.907-.422-2.095-.595-3.583-.604zm-.011.406c1.457.009 2.597.191 3.417.573s1.334.952 1.583 1.813c1.829 6.299-1.225 13.795-7.114 17.677-3.698 2.437-7.743 3.748-11.198 4.313s-6.347.365-7.635-.156c-1.277-.516-3.134-2.37-4.687-4.854s-2.818-5.597-3.021-8.594l-.01-.011v-.021c-.19-.857.094-1.743.802-2.656S28.24 52.85 29.708 52c2.937-1.7 7.201-3.133 12.031-3.896 5.443-.859 9.607-1.517 12.521-1.5z"/></g><path d="M103.845 29.73l3.624 9.795 9.795 3.624-9.795 3.624-3.624 9.795-3.625-9.795-9.795-3.624 9.795-3.624z" fill="#fff"/><defs><linearGradient id="C" x1="64" y1="0" x2="64" y2="128" gradientUnits="userSpaceOnUse"><stop stop-color="#f5b745"/><stop offset="1" stop-color="#fc8b47"/></linearGradient></defs></svg>