<svg xmlns="http://www.w3.org/2000/svg" width="128" height="128" viewBox="0 0 33.867 33.867" xmlns:v="https://vecta.io/nano"><g fill="#f6e055"><path d="M13.326 7.041c-.367.035-.863-.022-1.098.326-.26.665-.347 1.387-.502 2.083-.334 1.765-.602 3.551-.572 5.352-.039 2.496.306 4.979.725 7.434l.881 3.794c.389.403.94.608 1.423.877l2.555 1.13c.102-.11.049-.43.089-.614l.004-2.575c-.41-.353-.924-.608-1.373-.927-.565-.403-1.199-.748-1.654-1.28.164.022.384.19.558.278l2.332 1.427c.113-.133.077-.434.113-.585l.026-3.457c-.38-.349-.828-.656-1.273-.934-.432-.294-.986-.181-1.457-.184.388-.304 1.033-.307 1.214-.841.192-.459.253-1.001.105-1.479-.442-.927-1.354-1.488-2.122-2.118l-1.672-1.31c.699.32 1.278.854 1.939 1.248.907.555 1.819 1.142 2.835 1.477.227.105.427-.129.381-.349l.047-4.167-1.847-2.918c.416.277.643.757.936 1.154.232.301.477 1.006.796 1.225.273.02.076-.618.114-.779l.096-2.701c-.365-.286-.884-.324-1.336-.416-.748-.113-1.505-.181-2.262-.173zm2.86 13.564c.237.04.15.42-.094.287-.157-.062-.054-.303.094-.287zm-1.103 1.26c.239.026.145.56-.094.411-.124-.092-.113-.436.094-.411zm5.892-16.292c-.152.066-.24.329-.342.451-.579.88-1.219 1.733-2.011 2.432-.028.016-.113.102-.085.015-.01-.181.219-.292.181-.471-.145-.164-.391-.164-.584-.238-.255-.059-.508-.159-.769-.182-.101.074-.05.23-.081.338l-.129 3.167c.008.294-.002.664.278.846.27.194.619.207.937.25.738.014 1.486.027 2.211-.125.319-.058.536-.322.69-.588l.925-1.603c-.024-.3-.122-.594-.179-.891-.244-1.088-.538-2.169-.937-3.211-.024-.053-.036-.199-.104-.19z" paint-order="stroke fill markers"/><path d="M22.315 12.023c-1.404.138-2.804.514-4.208.389-.296-.03-.631-.298-.921-.251-.1 1.292.014 2.663-.009 3.961.254.142.656-.002.97-.011 1.543-.247 3.095-.779 4.513-1.425.104-.659-.128-1.372-.164-2.047-.034-.082-.044-.438-.074-.564-.014-.061-.068-.052-.106-.052h0zm-5.042 8.707c-.116.048-.049.333-.066.431l-.032 2.893c.019.218.003.457.113.654.093.095.24.205.378.145.147-.1.186-.293.251-.448a3.03 3.03 0 0 0 .175-1.071c.02-.604-.094-1.213-.354-1.759-.113-.229-.21-.47-.353-.682-.022-.025-.078-.17-.113-.163zm-.07 4.335c-.129.012-.113.179-.136.272-.075.625-.048 1.256-.057 1.884l.005.926c.042.092.179.071.261.111l2.65.618c.225.039.415-.15.492-.345.105-.258.223-.518.256-.797.026-.214-.085-.414-.24-.554-.359-.343-.794-.592-1.2-.873L17.312 25.1c-.034-.016-.07-.037-.109-.034z" paint-order="stroke fill markers"/></g><path d="M13.1 26.801c-.238 0 .063.409.079.564l2.171 5.634c.055.144.178.38.348.199.339-.226.72-.422 1.012-.696l-.003-4.157c-.278-.203-.68-.23-.993-.399-.864-.338-1.585-.808-2.614-1.145zm3.7-10.523c-.347.12-.62.907-.804 1.189-.194.397-.417.804-.491 1.239.261.424.738.869 1.13 1.169.259.089.16-.391.165-.551l.04-2.814c-.014-.063.025-.239-.04-.231zM16.953.462c-.473.21-.949.812-1.331 1.152-1.125 1.075-1.942 2.419-2.599 3.819-.163.411-.518.817-.531 1.271.15.16.523.048.741.096 1.116.029 2.304.08 3.393.343.299.048.176-.398.211-.581l.137-5.817c-.011-.069.045-.29-.021-.284zm2.891 25.75c-.056-.004-.099.06-.073.11.034.057.094.091.145.131a6.53 6.53 0 0 0 .705.433c.07.031.137.081.216.079s.13-.089.147-.161c.015-.065.019-.142-.029-.195-.091-.111-.225-.173-.355-.225-.192-.072-.395-.112-.596-.152-.053-.009-.106-.02-.16-.021z" paint-order="stroke fill markers" fill="#0edcd5"/><path d="M18.457 22.357c-.16.053-.112.271-.123.4.033.541.03 1.097.196 1.619.219.555.686.966 1.149 1.321.352.248.736.49 1.166.565.176-.026.21-.247.276-.382.225-.654.405-1.329.485-2.018.027-.152-.022-.327-.182-.382-.896-.401-1.824-.728-2.747-1.062-.073-.021-.144-.056-.22-.062z" fill="#f6e055" paint-order="stroke fill markers"/><path d="M17.341.419l-.027 6.892c.59.125 1.518.904 1.997.238.507-.696 1.427-1.527 1.531-2.419-.16-.918-3.002-4.595-3.501-4.71zm-.147 16.01c-.121 1.121.038 2.344.024 3.504-.06.679.492 1.299.804 1.83.746.845 2.011.85 3.017 1.237.227.096.691.491.786-.015.484-2.197.657-4.492.774-6.738 0-.381.087-.967.014-1.385-1.34.769-4.068 1.487-5.419 1.566zm-.15 12.061c-.076.138-.012.319-.033.473v3.566c.079.136.271.17.395.265.377.198.739.467 1.166.54.153-.06.18-.261.256-.389l1.289-3.507c.055-.095.037-.223-.082-.252-.672-.241-1.385-.335-2.078-.499l-.884-.202-.024.004zm5.13-18.027c-.141.034-.206.189-.295.291l-.683 1.05c-.038.093.057.167.143.123.346-.065.702-.094 1.04-.195.131-.052.067-.216.066-.321-.044-.296-.07-.6-.171-.883-.019-.037-.056-.068-.1-.066z" paint-order="stroke fill markers" fill="#84f3ec"/><path d="M18.473 8.566l-3.314-1.375.922.112 1.275.146 1.45.365-.183.642-.143.121m4.015 4.063l-4.046.478c-.441 0-.83-.31-1.245-.466l-.018-.49-2.204-3.431 2.173 2.087c1.48.268 3.312.145 4.62-.154l-.866 1.549 1.554-.313.033.739m-8.393 6.548c.592-2.199-.536-2.958-.804-4.437l2.321 1.528.116 1.095-.427 1.544-1.207.271m7.134 6.343c-.933.003-1.934-.978-2.902-1.467-.468.312-.802.261-1.159-.011-.457.228-.797-.076-1.196-.114l3.406 2.088 1.646.421.203-.915" paint-order="stroke fill markers" fill="#f7c555"/><path d="M15.362 33.867l-2.217-5.412c-2.114-5.16-2.381-9.496-2.251-14.44.083-3.161.357-4.859 1.154-7.148.567-1.628.824-2.165 1.665-3.47.978-1.279 2.128-2.54 3.431-3.397.643.419 1.012.875 1.326 1.183 2.007 1.962 3.378 4.847 4.076 8.751.808 4.523.349 8.053.064 10.003-.691 4.729-2.039 9.717-3.55 13.133l-.328.741-.943-.475-.943-.475-.339.268zm4.054-2.588c.377-1.034.685-1.929.685-1.989s-.544-.217-1.207-.349-1.346-.279-1.517-.327l-.31-.087v2.005 2.005l.724.418c.398.23.773.37.832.311s.416-.954.793-1.988zm-3.288 1.608l.525-.364v-2.105-2.105l-.371-.093c-.204-.051-1.011-.395-1.794-.764s-1.423-.657-1.423-.639c0 .368 2.319 6.433 2.46 6.433.043 0 .314-.164.602-.364zm4.263-4.431c.41-1.077.444-1.023-1.389-2.234-.926-.612-1.74-1.112-1.809-1.112s-.126.681-.126 1.514v1.514l.724.203c.853.239 1.866.459 2.211.48.148.009.302-.136.389-.365zm-3.601-2.032v-1.584l-1.345-.875c-1.265-.823-1.802-1.272-1.674-1.4.031-.031.69.343 1.465.831s1.442.887 1.482.887.072-.897.072-1.994v-1.994l-.645-.493c-.734-.561-1.121-.691-1.705-.574-.619.124-.489-.136.174-.347.531-.169.599-.244.77-.853.327-1.163-.076-1.752-2.34-3.424-.823-.608-1.497-1.131-1.497-1.163 0-.171.347.025 1.393.786 1.194.869 3.161 1.915 3.601 1.915.229 0 .249-.174.248-2.242v-2.242l-.961-1.442c-.528-.793-.933-1.469-.9-1.503.123-.123.498.314 1.137 1.324l.655 1.035.104-1.639c.057-.901.078-1.707.047-1.791-.113-.299-2.807-.677-3.873-.544-.602.075-.746.146-.804.394-.929 3.939-1.159 6.316-.931 9.623.17 2.458.634 5.418 1.173 7.478l.352 1.412c0 .154 1.275.855 2.552 1.403l1.414.595c.019.002.035-.71.035-1.581zm-1.932-4.349c0-.153.092-.276.207-.276s.207.123.207.276-.092.276-.207.276-.207-.123-.207-.276zm1.104-1.311c0-.114.093-.207.207-.207s.207.093.207.207-.093.207-.207.207-.207-.093-.207-.207zm4.967 5.949c0-.107-.243-.252-.552-.33-.304-.077-.552-.122-.552-.099 0 .067.888.615 1 .617.057.001.103-.083.103-.188zm.416-1.751c.176-.71.257-1.3.188-1.363s-.711-.331-1.432-.6l-1.529-.575c-.188-.074-.211.026-.165.713.081 1.207.141 1.38.698 1.997.466.517 1.375 1.068 1.775 1.076.086.002.296-.56.466-1.248zm-3.479-.586c.299-.826.209-2.023-.214-2.86l-.379-.751-.039 1.921c-.029 1.444.005 1.949.138 2.033.276.175.317.146.494-.342zm3.948-1.577c.352-1.699.771-5.619.771-7.22v-.661l-.93.422c-1.045.474-3.28 1.079-3.986 1.079h-.465v1.992c0 1.228.055 2.026.143 2.081.079.049.333.425.565.836s.494.748.581.748.78.243 1.539.539 1.452.544 1.541.551.197-.158.24-.366zm-5.027-4.691l-.003-1.759-.272.345c-.413.524-.965 1.674-.955 1.993.006.214.88 1.066 1.199 1.169.019.006.033-.78.031-1.748zm2.643-2.295c.712-.181 1.723-.522 2.245-.759l.949-.431-.096-1.272c-.053-.699-.112-1.288-.132-1.308s-.56.051-1.2.159c-2.106.353-2.783.387-3.409.171l-.583-.201v1.984 1.984h.465c.256 0 1.048-.148 1.761-.329zm.857-3.76c.623-.085.652-.112 1.255-1.139l.617-1.052-.261-1.171a24.22 24.22 0 0 0-.59-2.129l-.329-.957-.53.798c-.682 1.028-1.907 2.369-1.976 2.163-.029-.088.022-.249.113-.36.184-.222.177-.227-.714-.458l-.505-.131-.058.641a41.17 41.17 0 0 0-.089 2.042c-.029 1.319-.013 1.414.283 1.621.334.234 1.601.295 2.784.133zm2.103-.377c.055-.084-.13-1.191-.199-1.189-.049.001-.295.318-.548.704l-.459.701.597-.099c.328-.054.602-.107.609-.117zm-2.628-4.813c.357-.474.744-1.059.859-1.298.205-.427.195-.462-.466-1.646-.429-.768-1.063-1.616-1.739-2.323L17.353.483l-.005 3.39-.005 3.39.655.218c.36.12.759.224.885.231s.513-.363.88-.849zm-2.855-3.603l.031-2.74-.526.416a11.91 11.91 0 0 0-2.328 2.595c-.463.724-1.571 2.942-1.571 3.144 0 .046.636.089 1.414.096s1.725.086 2.104.175l.749.15.019-.543c.043-.305.091-1.787.108-3.294z"/><path d="M13.134 6.154c.619-1.942 1.248-2.823 2.695-4.23.113-.109.25.247.14.359-1.293 1.318-1.844 2.083-2.513 3.986-.139.095-.282.027-.323-.115zm5.159 26.267c.42-.95.561-1.408.915-2.748.043-.162.289-.099.254.065-.253 1.176-.463 1.668-.927 2.76-.064.152-.308.074-.242-.077z" paint-order="stroke fill markers" fill="#fff"/></svg>