<svg xmlns="http://www.w3.org/2000/svg" width="128" height="128" viewBox="0 0 33.867 33.867" xmlns:v="https://vecta.io/nano"><path d="M15.13 33.866c-.206 0-.412-.009-.619-.018-5.021-.235-9.445-3.328-11.329-7.921s-.885-9.847 2.559-13.456c1.15-1.19 1.753-2.795 1.667-4.436-.009-.135-.009-.279-.009-.415C7.399 3.412 10.86 0 15.13 0h.232c4.204.172 7.517 3.591 7.499 7.738a1.53 1.53 0 0 1-.009.203c-.059 1.717.577 3.386 1.77 4.639 2.185 2.34 3.396 5.405 3.393 8.585-.003 7.013-5.77 12.697-12.885 12.699z" fill="#b6dd76"/><path fill-rule="evenodd" d="M16.887 9.773c-.332 1.408-1.235 2.622-2.499 3.364-1.887 1.107-3.405 2.728-4.369 4.666l-.142.355c-.498 1.242-.911 2.27-.998 3.564-.095 1.409.212 3.101.58 4.432 1.538 4.674 6.017 7.807 11.023 7.712s9.357-3.397 10.709-8.126a10.91 10.91 0 0 0-.793-8.063c-.708-1.339-.842-2.9-.371-4.336a.81.81 0 0 0 .06-.169c1.026-3.503-.958-7.174-4.489-8.308-1.76-.546-3.67-.369-5.294.491a6.71 6.71 0 0 0-3.322 4.073c-.005.023-.014.041-.018.065-.027.095-.055.186-.076.282zm7.925-2.427c2.184.708 3.361 2.928 2.793 5.017l-.009.018-.047.145c-.69 2.104-.496 4.392.536 6.351a8.31 8.31 0 0 1 .6 6.134l-.003.009c-1.03 3.603-4.364 6.162-8.25 6.236-3.865.074-7.284-2.331-8.475-5.863-.326-1.196-.54-2.532-.475-3.501.059-.869.32-1.523.862-2.881l.057-.144c.738-1.441 1.884-2.653 3.308-3.489h0c1.87-1.097 3.218-2.902 3.717-5.012l.005-.023.004-.018c.001-.003.003-.009.005-.023l.018-.059.027-.095h0l.003-.009c.302-1.053 1.03-1.955 2.037-2.488a4.32 4.32 0 0 1 3.285-.309z" fill="#22454b"/><path d="M25.653 23.104a5.26 5.26 0 0 1-5.262 5.255 5.08 5.08 0 0 1-1.862-.347 5.25 5.25 0 0 1-3.314-5.857c.457-2.495 2.636-4.307 5.176-4.305a4.87 4.87 0 0 1 1.247.154 5.25 5.25 0 0 1 4.015 5.101z" fill="#6d4d42"/></svg>