<svg xmlns="http://www.w3.org/2000/svg" width="128" height="128" viewBox="0 0 33.867 33.867" xmlns:v="https://vecta.io/nano"><style><![CDATA[.B{filter:url(#A)}]]></style><defs><filter id="A" x="0" y="0" width="1" height="1" color-interpolation-filters="sRGB"><feColorMatrix type="hueRotate" values="180"/><feColorMatrix values="-1 0 0 0 1 0 -1 0 0 1 0 0 -1 0 1 0.21 0.72 0.07 0 0 "/></filter></defs><g fill="#f2e5da"><path d="M10.954 7.897l.046-.02s-.018.006-.046.02z" class="B"/><path d="M23.068 7.966c-.033-.023-.085-.057-.162-.09a1.16 1.16 0 0 0-.643-.072c-.431.074-1.457-.082-1.819-.142-.074-.011-.126-.077-.123-.152l.084-1.853c.033-.873.406-3.013.465-3.342.003-.011.005-.021.006-.033.003-.046-.003-.085-.021-.124-.376-.85-3.903-.85-3.903-.85s-3.528 0-3.903.85c-.018.039-.025.079-.023.115.002.021.005.033.008.043l.465 3.342.083 1.853c.003.074-.049.139-.123.152-.362.061-1.387.216-1.819.142-.269-.046-.498.011-.643.072l-.046.02c-.74.334-.257 1.092-.203 1.218a3.56 3.56 0 0 0 1.1 1.082c.527.291 1.629.545 2.657.655s2.444.098 2.444.098l2.444-.092c1.028-.11 2.129-.363 2.657-.655a3.54 3.54 0 0 0 1.1-1.082c.051-.118.481-.797-.087-1.154zm-6.117 1.819s-3.221-.015-3.538-.835c-.007-.018-.01-.036-.01-.056v-.899-.046c.013-.165.156-.287.156-.287v.262c0 .028.007.054.021.077.102.169.657.766 3.37.766s3.268-.598 3.37-.766c.015-.023.021-.049.021-.077v-.262s.142.12.156.287v.046.899c0 .02 0 .038-.008.056-.319.82-3.538.835-3.538.835z" class="B"/><path d="M12.757 12.11s-.327-.534-1.018-.309-1 .812-1.031 1.202c-.028.363.097.752.35.915a.47.47 0 0 0 .139.057c.218.054.819.123 1.311-.585.612-.879.249-1.28.249-1.28zm-1.298.752c-.031.088-.139.211-.224.185-.07-.021-.09-.172-.028-.314.072-.167.17-.185.231-.164s.052.206.021.293z" class="B"/><path d="M23.265 13.002c-.031-.388-.339-.976-1.031-1.202s-1.018.309-1.018.309-.363.401.249 1.28c.429.616.941.643 1.21.604.129-.018.254-.069.344-.162.185-.192.272-.521.247-.83zm-.527.046c-.087.026-.195-.097-.224-.185s-.039-.273.021-.293.159-.003.231.164c.062.142.043.293-.028.314z" class="B"/><path d="M31.908 12.762a2.58 2.58 0 0 0-.951-.002c-.586.111-1.226.432-1.226 1.334 0 .679.545.873.545.025 0-.635 1.31-1.113 2.133-.265s.39 1.988-.072 2.521-1.876 1.241-3.153.534c-1.032-.57-1.079-1.736-2.184-2.16-.912-.35-1.781-.504-3.252.316-1.501.837-3.081 1.819-4.295 2.014l-.38.057c-1.418.198-2.857.198-4.275 0l-.38-.057c-1.213-.195-2.793-1.177-4.295-2.014-1.47-.819-2.34-.666-3.252-.316-1.104.424-1.153 1.59-2.184 2.16-1.279.707-2.693 0-3.153-.534s-.897-1.672-.072-2.521 2.133-.372 2.133.265c0 .85.545.655.545-.025 0-.902-.64-1.223-1.226-1.334-.314-.059-.639-.056-.951.002-2.04.373-1.978 2.368-1.958 2.557.061.583.208 1.436 1.626 2.413.861.594 1.758.812 3.093.606.946-.146 1.893-1.285 2.196-1.772.424-.679.974-.634 1.431-.57.121.016.251.093.381.203.098.082.124.226.056.334-.047.075-.085.152-.085.203 0 .134.146.341 0 .341s-.206-.206-.218-.121-.072.401.085.534.19.377.082.401c-.056.013-.085.144-.102.269s-.013.246.008.367l.061.352a1.21 1.21 0 0 0 .12.36c1.366 2.577 4.733 4.765 8.162 4.778h.033.033c3.43-.013 6.796-2.202 8.162-4.778a1.21 1.21 0 0 0 .12-.36l.061-.352c.021-.121.025-.246.008-.367s-.046-.255-.102-.269c-.106-.025-.075-.267.082-.401s.097-.449.085-.534-.072.121-.218.121 0-.206 0-.341c0-.051-.038-.128-.085-.203-.069-.108-.043-.252.056-.334.131-.11.26-.185.382-.203.457-.064 1.007-.11 1.431.57.303.485 1.249 1.624 2.196 1.772 1.334.206 2.232-.012 3.093-.606 1.418-.979 1.565-1.832 1.626-2.413.02-.188.084-2.184-1.958-2.557zm-14.971 7.211c-4.656 0-7.422-2.582-7.494-3.109-.012-.08.054-.138.106-.075l.128.142c.293.308 3.08 2.065 7.261 2.065s6.967-1.757 7.261-2.065l.128-.142c.052-.061.095-.003.106.075.074.503-2.905 3.109-7.496 3.109z" class="B"/><path d="M15.691 14.744s.63.476.463.72-.321.296-.347-.013-.309-.643-.116-.707z" class="B"/><path d="M18.214 14.744s-.63.476-.463.72.321.296.347-.013.309-.643.116-.707z" class="B"/><path d="M16.061 27.417h1.781c.124 0 .232-.082.267-.201l.688-2.436c.052-.188-.103-.37-.298-.347l-.111.013c-.951.11-1.912.11-2.865 0l-.111-.013c-.195-.023-.352.159-.3.347l.684 2.436c.033.119.142.201.267.201z" class="B"/><path d="M14.771 24.565a.2.2 0 0 0-.154-.139c-1.123-.228-2.115-.673-3.001-1.14-1.108-.583-1.588-.986-2.169-1.65-.106-.121-.229-.216-.367-.134-.368.223-.375.575-.38.709-.015.509.2.842.598 1.254s.876.792 1.431 1.136c1.169.722 2.597 1.221 4.146 1.462.142.021.26-.108.226-.247l-.327-1.253z" class="B"/><path d="M19.103 24.565a.2.2 0 0 1 .154-.139c1.123-.228 2.115-.673 3.001-1.14 1.108-.583 1.588-.986 2.169-1.65.106-.121.229-.216.367-.134.368.223.375.575.38.709.015.509-.2.842-.598 1.254s-.876.792-1.431 1.136c-1.169.722-2.597 1.221-4.146 1.462-.142.021-.26-.108-.226-.247l.327-1.253z" class="B"/><path d="M18.031 27.949c-.012-.12-.139-.211-.293-.211h-1.6c-.154 0-.283.092-.293.211l-.432 4.413a.13.13 0 0 0 .118.141l1.406.057 1.406-.057c.072-.007.124-.069.118-.141l-.432-4.413z" class="B"/></g></svg>