<svg xmlns="http://www.w3.org/2000/svg" xmlns:xlink="http://www.w3.org/1999/xlink" width="128" height="128" fill="none" xmlns:v="https://vecta.io/nano"><path d="M104.174 104.174a5.98 5.98 0 0 0 0 8.388l13.954 13.954c1.134.999 2.606 1.529 4.116 1.481s2.946-.669 4.014-1.738 1.69-2.504 1.738-4.014-.482-2.982-1.481-4.116l-13.954-13.954a5.98 5.98 0 0 0-8.388 0z" fill="url(#A)"/><path d="M90.634 50.763C31.585 82.48 30.09 84.539 27.101 81.506l-.411.262 5.868 5.879c6.017 6.029 4.858 4.381 59.273-24.602 14.949-8.013 24.741 22.205 9.268 37.708a27.39 27.39 0 0 1-8.896 5.969 27.35 27.35 0 0 1-21 0 27.39 27.39 0 0 1-8.896-5.969c-5.83-5.804-5.83-5.841-16.668 0l8.259 8.238c7.386 7.395 17.401 11.549 27.843 11.549a39.35 39.35 0 0 0 27.843-11.549c23.208-23.366 7.213-59.913-11.473-59.913-2.511.01-4.979.654-7.176 1.872" fill="url(#B)"/><path d="M40.639.001A40.89 40.89 0 0 0 25.1 3.098c-4.924 2.035-9.394 5.012-13.154 8.76-26.603 26.349-2.28 69.712 19.268 58.306 60.161-31.92 61.681-33.877 64.797-30.904l.418-.301-5.967-5.91c-6.119-6.06-4.941-4.366-60.275 24.768-15.202 8.018-25.159-22.359-9.425-37.942 2.588-2.57 5.662-4.609 9.047-6a28.09 28.09 0 0 1 21.355 0c3.385 1.391 6.459 3.43 9.047 6 5.929 5.834 5.929 5.872 16.95 0l-8.399-8.394c-3.687-3.618-8.059-6.478-12.866-8.416S45.867-.038 40.678.001" fill="url(#C)"/><path d="M96.008 39.264c-3.116-2.974-4.636-1.016-64.797 30.904l-1.026-12.346C85.519 28.687 84.341 26.992 90.46 33.053l5.967 5.91z" fill="url(#D)"/><path d="M27.11 81.131c3.116 2.974 4.637 1.016 64.797-30.904l1.026 12.347C37.599 91.708 38.777 93.402 32.658 87.342l-5.967-5.91z" fill="url(#E)"/><path d="M11.972 11.858c3.76-3.749 8.23-6.726 13.154-8.76A40.88 40.88 0 0 1 38.8.047a40.94 40.94 0 0 1 1.866-.046h.038c5.19-.039 10.412 1.127 15.218 3.065s9.18 4.798 12.866 8.416l8.399 8.394c-10.996 5.859-11.021 5.834-16.91.039l-.04-.039c-2.588-2.57-5.662-4.609-9.047-6a28.09 28.09 0 0 0-21.355 0c-3.385 1.391-6.459 3.43-9.047 6z" fill="#9bf7c3"/><defs><linearGradient id="A" x1="107.91" y1="106.619" x2="125.704" y2="125.847" xlink:href="#F"><stop offset=".094" stop-color="#eba7ac"/><stop offset=".536" stop-color="#f3d285"/></linearGradient><linearGradient id="B" x1="98.438" y1="45.635" x2="73.9" y2="120.54" xlink:href="#F"><stop offset=".171" stop-color="#ff7ad9"/><stop offset=".8" stop-color="#f3d583"/></linearGradient><linearGradient id="C" x1="-15.315" y1="14.189" x2="38.177" y2="67.464" xlink:href="#F"><stop offset=".385" stop-color="#9bf6c3"/><stop offset=".804" stop-color="#6850dd"/></linearGradient><linearGradient id="D" x1="93.433" y1="32.675" x2="43.62" y2="56.255" xlink:href="#F"><stop stop-color="#ff7ad9"/><stop offset=".464" stop-color="#684fdc"/></linearGradient><linearGradient id="E" x1="36.306" y1="84.804" x2="79.498" y2="64.14" xlink:href="#F"><stop offset=".246" stop-color="#684fdc"/><stop offset=".969" stop-color="#ff7ad9"/></linearGradient><linearGradient id="F" gradientUnits="userSpaceOnUse"/></defs></svg>