<svg xmlns="http://www.w3.org/2000/svg" width="128" height="128" fill="none" xmlns:v="https://vecta.io/nano"><path d="M64.004 128C99.348 128 128 99.346 128 64S99.348 0 64.004 0 .008 28.654.008 64s28.652 64 63.996 64z" fill="#ccb175"/><path d="M104.107 74.528l5.678-2.839c.946-.473 1.183-1.774.473-2.602l-7.097-17.39c-1.065-2.603-1.656-5.205-1.893-8.044C99.375 19.755 79.265 1.064 54.779 1.419c-24.605.355-44.714 20.347-45.187 45.072-.355 21.885 14.55 40.34 34.778 45.308l-2.366 1.302-15.496 34.78h42.23l10.41-22.832c1.183-2.602 3.903-4.14 6.742-4.022l9.582.828c3.194.237 5.796-2.248 5.678-5.442l-.118-3.076c0-2.129.592-4.14 1.774-5.915v-.592c0-1.183-.946-2.248-2.129-2.484-4.14-.71-6.506-2.721-6.506-2.721 2.839 0 6.269-.355 8.517-.71 1.301-.118 2.247-1.42 2.011-2.721z" fill="#fff"/><path d="M56.316 93.102l18.217-38.092c13.486-2.129 21.884-28.273 21.056-29.811-2.248-4.259-4.259-6.506-6.388-8.872C80.566 6.507 68.5 1.183 54.897 1.42c-24.96.237-45.306 20.821-45.306 45.9 0 12.421 4.968 23.778 13.012 31.941C9.709 80.207-.346 90.972.009 104.104c.355 12.895 10.765 23.423 23.658 23.778 9.937.237 18.572-5.323 22.594-13.604 0-.118.118-.236.118-.355z" fill="#3838f1"/><path d="M69.329 13.131C66.49 24.369 60.575 34.898 52.65 43.416l15.851-7.926c-7.098 15.734-18.572 28.037-32.53 32.651l13.84-.473c-10.883 11.002-25.433 13.96-38.918 9.228 0 0-.118 0-.118-.118C5.57 74.883 4.623 67.076 9 63.408z" fill="#fff"/><path d="M94.642 58.913c1.568 0 2.839-2.119 2.839-4.732s-1.271-4.732-2.839-4.732-2.839 2.118-2.839 4.732 1.271 4.732 2.839 4.732z" fill="#3838f1"/></svg>