<svg xmlns="http://www.w3.org/2000/svg" width="128" height="128" xmlns:v="https://vecta.io/nano"><linearGradient id="A" gradientUnits="userSpaceOnUse" x1="109.249" y1="18.756" x2="18.757" y2="109.248"><stop offset="0" stop-color="#3ef8f3"/><stop offset="1" stop-color="#07aefe"/></linearGradient><path d="M122.977 39.104c-3.224-7.617-7.84-14.46-13.715-20.334a64.66 64.66 0 0 0-3.468-3.224l-.398-.338c-4.95-4.205-10.473-7.604-16.481-10.144C81.024 1.723 72.641.032 64 .032S46.98 1.723 39.089 5.059a63.78 63.78 0 0 0-20.343 13.706C12.867 24.64 8.255 31.482 5.031 39.099 1.691 46.991 0 55.366 0 64.002s1.691 17.012 5.031 24.899c3.224 7.617 7.84 14.46 13.715 20.334a63.39 63.39 0 0 0 2.933 2.753l.569.497a63.62 63.62 0 0 0 16.84 10.456c7.891 3.336 16.275 5.027 24.911 5.027s17.02-1.691 24.911-5.027a63.71 63.71 0 0 0 20.343-13.706c5.879-5.875 10.49-12.717 13.715-20.334C126.304 81.014 128 72.634 128 64.002a63.49 63.49 0 0 0-5.023-24.899zM64 124.525c-14.447 0-27.729-5.082-38.147-13.552l63.435-26.697-21.722-22.043-.009.009-.043-.043-43.482 47.232C11.42 98.329 3.447 82.08 3.447 64.002 3.447 30.63 30.611 3.479 64 3.479c14.271 0 27.403 4.963 37.765 13.244L45.781 40.191l21.734 22.004.009-.009.043.043 36.014-43.995c12.841 11.107 20.977 27.506 20.977 45.768 0 33.372-27.164 60.523-60.557 60.523zm-31.351-19.816l34.957-37.971L83.808 83.18zm63.353-82.163L67.34 57.558 51.275 41.296z" fill="url(#A)"/></svg>