<svg xmlns="http://www.w3.org/2000/svg" width="128" height="128" fill="none" xmlns:v="https://vecta.io/nano"><g clip-path="url(#A)" transform="matrix(4.819132 0 0 4.819132 -10.96314 -.000001)" fill-rule="evenodd"><path d="M15.156-17.292c2.09-.929 4.525.145 5.248 2.315l1.97 5.91c1.279 1.11 2.016 2.722 2.016 4.421V9.997c0 1.316-1.067 2.383-2.383 2.383-.039 0-.078-.001-.116-.003v6.307c0 .958.687 1.778 1.63 1.945l.87.155c1.009.18 1.743 1.056 1.743 2.081a2.1 2.1 0 0 1-.127.72.79.79 0 0 1 .011.128c0 1.573-4.71 2.848-10.52 2.848s-10.52-1.275-10.52-2.848c0-1.33 3.365-2.446 7.916-2.76l.101-13.56a6.09 6.09 0 0 1-1.843-4.58l.316-9.46c.018-.538.222-1.053.578-1.458l1.028-1.17a.29.29 0 0 0 .071-.212l-.28-3.994c-.114-1.626.802-3.149 2.291-3.811zm1.446 29.152v10.382c-.174.032-.369.047-.58.044-.41-.005-.837-.072-1.214-.157-.287-.065-.525-.349-.522-.752l.075-10.128c.482.226 1.578.577 2.241.611zm3.022.345c0 .575.363 1.065.872 1.254v5.225a3.37 3.37 0 0 0 2.78 3.319l.87.155a.72.72 0 0 1 .593.708c0 .342-.233.609-.534.66-1.457.243-3.984.556-5.935.261-.129-.02-.272-.148-.272-.376V8.471a.74.74 0 0 0-.741-.741c-2.665 0-4.799-2.207-4.71-4.871l.316-9.46a.93.93 0 0 1 .231-.584l1.028-1.17c.297-.338.447-.781.415-1.23l-.28-3.994a2.48 2.48 0 0 1 4.824-.957l2.022 6.065c.049.146.137.275.256.372a4.46 4.46 0 0 1 1.636 3.453V9.997a.99.99 0 0 1-.988.988.99.99 0 0 1-.988-.988V-3.545h-1.395V9.997v.01z" fill="#000"/><path d="M16.592 11.86v10.382c-.174.032-.369.047-.581.044-.41-.004-.837-.072-1.214-.157-.287-.065-.525-.349-.522-.752l.075-10.128c.482.226 1.578.577 2.241.611zm3.022.345c0 .575.363 1.065.872 1.254v5.225a3.37 3.37 0 0 0 2.78 3.319l.87.155a.72.72 0 0 1 .593.708c0 .343-.233.609-.534.66-1.457.243-3.984.556-5.935.26-.129-.02-.272-.148-.272-.376V8.471a.74.74 0 0 0-.741-.741c-2.665 0-4.799-2.207-4.71-4.871l.316-9.46a.93.93 0 0 1 .231-.584l1.028-1.17c.297-.338.447-.781.415-1.23l-.28-3.994a2.48 2.48 0 0 1 4.824-.957l2.022 6.065c.049.146.137.275.256.372a4.46 4.46 0 0 1 1.636 3.453V9.997a.99.99 0 0 1-.988.988.99.99 0 0 1-.988-.988V-3.545h-1.395V9.997v.01z" fill="#f2fe67"/></g><defs><clipPath id="A"><path fill="#fff" d="M0 0h32v32H0z"/></clipPath></defs></svg>