<svg xmlns="http://www.w3.org/2000/svg" width="128" height="128" xmlns:v="https://vecta.io/nano"><path d="M55.921 48.591c-2.183-3.078-5.344-5.711-10.33-7.361 2.352 5.322-.19 9.208-4.027 15.067-1.32 2.014-2.821 4.306-4.27 7l11.205 19.321 12.174-23.467c-1.192-3.678-2.523-7.424-4.749-10.56zm7.696 2.649c7.546-16.935 20.7-17.073 36.124-17.235l7.769-.17 11.079-19.565-109.251-.318 10.79 19.526 3.977.127c7.252.216 14.314.426 21.638 1.937l.205.043c7.039 2.003 11.435 5.58 14.46 9.847 1.269 1.819 2.345 3.766 3.209 5.809zm22.687 5.347c-3.857-6.311-6.534-10.693-4.933-15.09-6.436 2.235-11.584 7.055-14.768 17.568l12.645 22.608L90.315 63.45c-1.383-2.565-2.775-4.833-4.011-6.863zm-4.742 31.875l-15.078 26.949-2.321 4.15-2.443-4.074-12.904-21.514-.04.078-2.516-4.338-14.484-24.967-.747-1.288.671-1.328c1.825-3.608 3.667-6.422 5.257-8.845 3.431-5.24 5.403-8.252 1.245-13.376-4.713-.533-9.434-.674-14.248-.816l-5.596-.187-1.556-.065-.75-1.356L2.255 12.519 0 8.438l4.669.012 118.628.344 4.703.014-2.315 4.086-14.138 24.965-.739 1.306-1.502.083c-3.182.177-6.399.21-9.525.243-3.544.036-6.95.072-10.162.364-4.675 3.963-2.49 7.548 1.383 13.867 1.501 2.457 3.208 5.248 4.914 8.557l.703 1.361-.799 1.318zm-29.771-.223l12.198 20.352 12.016-21.466-12.273-21.927z" fill="url(#A)"/><defs><linearGradient id="A" x1="64" y1="32.746" x2="64" y2="119.562" gradientUnits="userSpaceOnUse"><stop stop-color="#28e0b2"/><stop offset="1" stop-color="#67ffd9"/><stop offset="1" stop-color="#16866a"/></linearGradient></defs></svg>