<svg xmlns="http://www.w3.org/2000/svg" width="128" height="128" viewBox="0 0 33.867 33.867" xmlns:v="https://vecta.io/nano"><defs><mask id="A" maskUnits="userSpaceOnUse" x="0" y="3" width="27" height="30" fill="none"><path fill-rule="evenodd" d="M14.292 3.56a14.13 14.13 0 0 0-1.526.083C5.59 4.403 0 10.466 0 17.833c0 7.878 6.397 14.266 14.292 14.266h.032a14.231 14.231 0 0 0 6.534-1.594c.577-.3.328-1.17-.32-1.152h-.027c-5.716.145-10.848-2.269-12.938-6.742-1.255-2.678-1.204-5.157-.62-7.116l.014-.051c.299-1.207.858-2.32 1.684-3.187a2.21 2.21 0 0 1 .206-.216c.046-.049.096-.094.148-.135a.826.826 0 0 1 .06-.06c.02-.014.034-.029.053-.043a.747.747 0 0 1 .12-.097 7.858 7.858 0 0 1 4.988-1.761c4.263 0 7.722 3.326 7.722 7.431a7.176 7.176 0 0 1-1.198 3.97c3.408-1.175 5.846-4.316 5.845-8.003 0-2.099-.792-4.019-2.108-5.505A14.145 14.145 0 0 0 22.7 6.29l-.005-.005a14.235 14.235 0 0 0-8.38-2.726h-.023z" fill="#fff"/></mask><linearGradient id="B" x1="0" y1="32.099" x2="26.595" y2="32.099" gradientUnits="userSpaceOnUse"><stop stop-color="#2d2d4b"/><stop offset="1" stop-color="#1d1d3a"/></linearGradient><mask id="C" maskUnits="userSpaceOnUse" x="7" y="7" width="22" height="21" fill="none"><path fill-rule="evenodd" d="M26.513 13.26c0 3.684-2.321 6.826-5.573 8.002a8.255 8.255 0 0 1-2.852.501c-3.127 0-5.854-1.719-7.309-4.276-.354-.623-.632-1.683-.822-2.584a.99.99 0 0 0-1.783-.356 2.61 2.61 0 0 0-.374.81l-.031.125a.123.123 0 0 0-.005.038 8.723 8.723 0 0 0-.195 2.987 8.55 8.55 0 0 0 .24 1.327 9.5 9.5 0 0 0 .574 1.669c1.777 3.988 5.76 6.44 11.005 6.014a12.998 12.998 0 0 0 1.543-.22c4.327-.914 7.447-4.84 7.473-9.464v-.086a13.635 13.635 0 0 0-.103-1.715 14.444 14.444 0 0 0-3.809-8.268 8.486 8.486 0 0 1 2.021 5.495z" fill="#fff"/></mask><linearGradient id="D" x1="7.519" y1="27.565" x2="28.404" y2="27.565" gradientUnits="userSpaceOnUse"><stop stop-color="#95a1d4"/><stop offset="1" stop-color="#594da0"/></linearGradient></defs><path fill-rule="evenodd" d="M14.292 3.56a14.13 14.13 0 0 0-1.526.083C5.59 4.403 0 10.466 0 17.833c0 7.878 6.397 14.266 14.292 14.266h.032a14.23 14.23 0 0 0 6.534-1.594c.577-.3.328-1.17-.32-1.152h-.027c-5.716.145-10.848-2.269-12.938-6.742-1.255-2.678-1.204-5.157-.62-7.116l.014-.051c.299-1.207.858-2.32 1.684-3.187a2.21 2.21 0 0 1 .206-.216c.046-.049.096-.094.148-.135.019-.021.039-.041.06-.06s.034-.029.053-.043c.037-.036.077-.069.12-.097a7.86 7.86 0 0 1 4.988-1.761c4.263 0 7.722 3.326 7.722 7.431 0 1.412-.417 2.793-1.198 3.97 3.408-1.175 5.846-4.316 5.845-8.003 0-2.099-.792-4.019-2.108-5.505-.551-.565-1.149-1.083-1.787-1.548l-.005-.005c-2.435-1.772-5.369-2.727-8.38-2.726h-.023z" fill="url(#B)" mask="url(#A)" transform="matrix(1.186639 0 0 1.186639 .080654 -4.223246)"/><path fill-rule="evenodd" d="M26.513 13.26c0 3.684-2.321 6.826-5.573 8.002-.914.334-1.879.503-2.852.501-3.127 0-5.854-1.719-7.309-4.276-.354-.623-.632-1.683-.822-2.584a.99.99 0 0 0-1.783-.356 2.61 2.61 0 0 0-.374.81l-.031.125c-.004.012-.005.025-.005.038-.237.977-.303 1.988-.195 2.987a8.55 8.55 0 0 0 .24 1.327 9.5 9.5 0 0 0 .574 1.669c1.777 3.988 5.76 6.44 11.005 6.014a13 13 0 0 0 1.543-.22c4.327-.914 7.447-4.84 7.473-9.464v-.086c.002-.573-.033-1.146-.103-1.715-.345-3.095-1.681-5.995-3.809-8.268 1.304 1.534 2.021 3.482 2.021 5.495z" fill="url(#D)" mask="url(#C)" transform="matrix(1.186639 0 0 1.186639 .080654 -4.223246)"/></svg>