<svg xmlns="http://www.w3.org/2000/svg" height="128" width="128" xmlns:v="https://vecta.io/nano"><g transform="matrix(.249984 0 0 .249972 .008204 .014106)"><g fill-rule="evenodd"><circle cx="293.596" cy="31.067" fill="#9bcada" r="15"/><circle cx="480.933" cy="63.2" fill="#c6e0ea" r="15"/><circle cx="432.733" cy="368.467" fill="#f0f5fa" r="15"/><circle cx="336.333" cy="448.8" fill="#9bcada" r="15"/><circle cx="47.133" cy="191.733" fill="#f0f5fa" r="15"/></g><path d="M497 457.9h-9.1v-9.1c0-8.284-6.716-15-15-15s-15 6.716-15 15v9.1h-9.1c-8.284 0-15 6.716-15 15s6.716 15 15 15h9.1v9.1c0 8.284 6.716 15 15 15s15-6.716 15-15v-9.1h9.1c8.284 0 15-6.716 15-15s-6.716-15-15-15z" fill="#c6e0ea"/><ellipse cx="143.533" cy="368.467" fill="#00f4ff" rx="143.534" ry="143.533" transform="matrix(.707 -.707 .707 .707 -218.505 209.415)"/><circle cx="400.6" cy="207.8" fill="#ff6378" r="111.4"/><circle cx="151.567" cy="71.233" fill="#ffb428" transform="matrix(.924 -.383 .383 .924 -15.723 63.424)" r="71.233"/><g fill="#00b4fc"><path d="M143.533 224.933V512c79.145 0 143.534-64.389 143.534-143.533s-64.389-143.534-143.534-143.534z"/><path d="M287.067 368.467c0-79.145-64.389-143.534-143.534-143.534-61.844 0-114.678 39.316-134.822 94.267H159.6c9.447 0 17.133 7.686 17.133 17.133 0 9.599-7.775 17.133-17.133 17.133h-32.133c-25.487 0-47.133 20.553-47.133 47.133 0 25.989 21.144 47.133 47.133 47.133h135.665c15.114-22.727 23.935-49.984 23.935-79.265z"/></g><path d="M287.067 368.467c0-79.145-64.389-143.534-143.534-143.534V319.2H159.6c9.447 0 17.133 7.686 17.133 17.133 0 9.599-7.775 17.133-17.133 17.133h-16.067v94.267h119.599a142.69 142.69 0 0 0 23.935-79.266z" fill="#0073f9"/><g fill="#d000b1"><path d="M400.6 319.2V96.4c61.426 0 111.4 49.974 111.4 111.4s-49.974 111.4-111.4 111.4z"/><path d="M416.667 224.933H290.518c1.637 10.561 4.768 20.632 9.16 30h116.988c8.284 0 15-6.716 15-15s-6.715-15-14.999-15zm84.855-64.266H384.533c-8.284 0-15 6.716-15 15s6.716 15 15 15h126.149c-1.637-10.561-4.768-20.633-9.16-30z"/></g><path d="M431.667 239.933c0-8.284-6.716-15-15-15H400.6v30h16.066c8.285 0 15.001-6.716 15.001-15zm78.391-52.863l-.129-.671-1.661-7.214-.117-.431-1.011-3.518-.006-.022-2.554-7.384-3.057-7.162H400.6v30h110.082l-.624-3.598z" fill="#9330a0"/><path d="M222.8 71.233C222.8 31.955 190.845 0 151.567 0v142.467c39.278 0 71.233-31.955 71.233-71.234z" fill="#ff8c00"/></g></svg>