<?xml version="1.0" encoding="UTF-8" standalone="no"?>
<svg
   width="128"
   height="128"
   viewBox="0 0 128 128"
   fill="none"
   version="1.1"
   id="svg4"
   sodipodi:docname="Uniswap icon.svg"
   inkscape:export-filename="..\transparentSVGs\dex\uniswap_blushpnk.png"
   inkscape:export-xdpi="96"
   inkscape:export-ydpi="96"
   xmlns:inkscape="http://www.inkscape.org/namespaces/inkscape"
   xmlns:sodipodi="http://sodipodi.sourceforge.net/DTD/sodipodi-0.dtd"
   xmlns="http://www.w3.org/2000/svg"
   xmlns:svg="http://www.w3.org/2000/svg">
  <defs
     id="defs8" />
  <sodipodi:namedview
     id="namedview6"
     pagecolor="#ffffff"
     bordercolor="#000000"
     borderopacity="0.25"
     inkscape:showpageshadow="2"
     inkscape:pageopacity="0.0"
     inkscape:pagecheckerboard="0"
     inkscape:deskcolor="#d1d1d1"
     showgrid="false" />
  <path
     fill-rule="evenodd"
     clip-rule="evenodd"
     d="m 49.799218,47.697125 c -0.239075,0.922825 -0.656502,1.789385 -1.228499,2.550349 -1.064657,1.388095 -2.473772,2.470658 -4.08615,3.139262 -1.450306,0.627767 -2.986036,1.033516 -4.556091,1.203799 -0.322802,0.04105 -0.657281,0.06653 -0.981285,0.09116 h -2.12e-4 l -0.05294,0.004 c -0.994377,0.03801 -1.950537,0.394708 -2.728488,1.018088 -0.77795,0.623308 -1.336854,1.480455 -1.594826,2.445957 -0.118122,0.480345 -0.205882,0.967696 -0.262926,1.459223 -0.09031,0.741077 -0.136807,1.499848 -0.187127,2.320616 v 1.42e-4 c -0.03609,0.588983 -0.07417,1.209956 -0.131853,1.879268 -0.337735,2.726011 -1.122762,5.377214 -2.323235,7.845819 -0.245374,0.518775 -0.49549,1.02198 -0.741148,1.515984 -1.316329,2.648372 -2.505478,5.039833 -2.164063,8.243782 0.267243,2.468605 1.525892,4.122599 3.198287,5.828258 0.7943,0.816027 1.847562,1.513861 2.940882,2.237174 3.059924,2.026266 6.433519,4.259901 5.322081,9.887159 -0.90952,4.559285 -8.435369,9.343625 -19.012931,11.015305 1.026014,-0.15641 -1.233949,-4.02988 -1.485056,-4.46019 l -0.01493,-0.0255 c -0.29159,-0.45932 -0.590328,-0.91086 -0.888571,-1.3624 h -1.41e-4 v 0 c -0.86111,-1.30296 -1.718045,-2.59954 -2.387144,-4.03696 -1.767304,-3.754583 -2.586233,-8.09729 -1.862071,-12.210688 0.655936,-3.723432 3.106069,-6.697365 5.465116,-9.560891 0.384587,-0.466402 0.766768,-0.930681 1.138333,-1.394252 3.155115,-3.935755 6.465509,-9.093073 7.198234,-14.202406 0.06179,-0.443896 0.11699,-0.927851 0.175025,-1.437142 0.103826,-0.911431 0.216994,-1.903898 0.393929,-2.892826 0.263068,-1.707782 0.795573,-3.362413 1.577558,-4.901611 0.53385,-1.009382 1.236638,-1.918972 2.077648,-2.688925 0.438447,-0.408721 0.727772,-0.953471 0.821548,-1.546983 0.09378,-0.593442 -0.01338,-1.201393 -0.30433,-1.726467 L 16.251808,17.46938 40.471599,47.493649 c 0.275807,0.347855 0.624441,0.630528 1.021201,0.827917 0.396761,0.197389 0.831881,0.304612 1.274503,0.314096 0.442622,0.0095 0.881917,-0.07891 1.286746,-0.259104 0.404758,-0.180121 0.76514,-0.447577 1.055456,-0.78333 0.306806,-0.359391 0.48077,-0.814186 0.492589,-1.287454 0.01175,-0.473338 -0.139355,-0.936201 -0.427901,-1.310597 -1.12616,-1.445634 -2.298181,-2.911086 -3.464753,-4.369742 l -0.0022,-0.0028 C 41.23589,40.033337 40.765383,39.444991 40.299193,38.859618 L 34.204399,31.282104 21.971569,16.153121 8.3885083,-3.2083666e-7 23.540563,14.797795 l 13.021538,14.462218 6.49573,7.248414 c 0.596768,0.675044 1.193537,1.344073 1.790305,2.013173 1.558378,1.747132 3.116756,3.494265 4.675204,5.347842 l 0.353447,0.432997 0.07757,0.671152 c 0.105029,0.910015 0.05259,1.831495 -0.155137,2.723534 z m 62.248912,10.181651 0.0255,0.039 v -0.0036 c -0.006,-3.23049 -1.99725,-8.558728 -6.02572,-13.683561 l -0.0948,-0.125553 c -1.24142,-1.541322 -2.59392,-2.988584 -4.04762,-4.329968 l -0.1189,-0.114371 0.13588,0.117698 c -0.17339,-0.160799 -0.34962,-0.320042 -0.52585,-0.478576 l -0.33618,-0.305178 0.25054,0.231644 -0.26752,-0.234971 c -1.861359,-1.631275 -3.896829,-3.051501 -6.068889,-4.234776 l -0.155,-0.07792 c -6.823359,-3.732506 -15.702694,-5.655017 -26.65076,-3.489962 -1.470688,-1.793278 -3.054616,-3.489807 -4.741166,-5.079113 -2.584179,-2.473347 -5.625772,-4.413764 -8.95294,-5.711268 -3.29723,-1.212433 -6.828298,-1.645076 -10.318953,-1.264382 3.364819,0.30433 6.642161,1.244565 9.659479,2.771236 2.914058,1.568286 5.538367,3.627463 7.758625,6.087929 2.250125,2.511636 4.365567,5.142243 6.335921,7.880639 l 0.494712,0.646735 c 1.928598,2.52296 3.891875,5.091286 6.337833,7.376728 1.346126,1.272733 2.847955,2.368318 4.469392,3.260498 0.431015,0.220815 0.866277,0.428679 1.293046,0.610569 0.426768,0.181819 0.828058,0.350686 1.259073,0.506602 0.831597,0.324712 1.693627,0.593159 2.555658,0.840019 3.44812,0.98723 6.978339,1.342304 10.42646,1.532829 0.48056,0.02534 0.9597,0.04905 1.43672,0.07268 1.23147,0.06094 2.45161,0.121378 3.65407,0.208713 1.647619,0.09838 3.281799,0.356419 4.879169,0.770731 2.40067,0.628617 4.51399,2.065334 5.98751,4.070226 0.50037,0.667684 0.9505,1.372596 1.34471,2.108718 z M 97.710681,71.675363 C 86.621776,67.155721 75.022588,62.427366 76.749479,49.156631 c 3.7022,3.971071 9.51418,4.803872 15.835022,5.70964 5.73413,0.821618 11.886539,1.703253 17.264669,5.041744 12.68911,7.871935 10.83625,23.165538 6.52539,28.794213 0.38855,-9.260101 -8.94091,-13.063508 -18.663879,-17.026865 z m -44.75111,-6.643577 c 2.926726,-0.281681 9.163705,-1.810263 6.374988,-6.742165 -0.600024,-1.003296 -1.469556,-1.816279 -2.508805,-2.345529 -1.039178,-0.52925 -2.205891,-0.753321 -3.366164,-0.646452 -1.17747,0.126898 -2.287635,0.614604 -3.179744,1.396942 -0.892109,0.782338 -1.523132,1.821446 -1.807291,2.97634 -0.866418,3.225818 0.05166,5.793295 4.487016,5.360864 z M 52.190255,26.000789 c -1.836167,-2.130375 -4.685325,-3.247475 -7.47843,-3.654498 -0.104463,0.698754 -0.170708,1.402674 -0.198239,2.108718 -0.124987,5.815165 1.931004,12.201973 5.909436,16.640225 1.272592,1.434735 2.807543,2.610649 4.521553,3.463974 0.991406,0.484945 3.620668,1.688744 4.594805,0.606252 0.07417,-0.09923 0.120882,-0.216428 0.13525,-0.339646 0.01437,-0.123218 -0.004,-0.248134 -0.05336,-0.361868 -0.161369,-0.463571 -0.473272,-0.884183 -0.782838,-1.301751 v 0 C 58.61882,42.866076 58.40041,42.571514 58.2377,42.264353 58.073009,41.954504 57.896852,41.65251 57.720836,41.350729 v -7.1e-5 l -7.1e-5,-7.1e-5 v 0 -7e-5 l -7e-5,-7.1e-5 v -7.1e-5 c -0.330658,-0.566902 -0.66089,-1.133095 -0.91405,-1.749044 -0.667896,-1.612378 -1.015681,-3.326884 -1.362404,-5.036011 -0.0695,-0.342476 -0.138929,-0.68474 -0.210836,-1.025943 -0.53017,-2.636977 -1.206913,-5.408213 -3.04315,-7.538588 z M 91.423808,72.39443 c -2.848663,7.984748 1.746003,14.729532 6.313063,21.433975 5.108479,7.499955 10.182999,14.950355 4.768769,24.030685 10.522,-4.36464 15.51725,-17.54918 11.15119,-28.01032 -2.75171,-6.616682 -9.38255,-10.204228 -15.537779,-13.533448 -2.38863,-1.29163 -4.70507,-2.545041 -6.695243,-3.920892 z M 60.576081,91.458884 c -1.906729,0.781348 -3.704677,1.807574 -5.349187,3.052493 3.739144,-1.362404 7.664283,-2.140213 11.638256,-2.307948 0.720481,-0.04246 1.44521,-0.07644 2.177015,-0.110408 h 7.08e-4 c 1.264028,-0.05804 2.546457,-0.117485 3.856488,-0.227185 2.147998,-0.146503 4.26627,-0.58318 6.297491,-1.299415 2.128889,-0.748084 4.065979,-1.960446 5.672554,-3.550035 1.622853,-1.641255 2.760903,-3.7022 3.288879,-5.954236 0.463571,-2.126766 0.398459,-4.336337 -0.190383,-6.431962 -0.588134,-2.096333 -1.682303,-4.013607 -3.18484,-5.583379 0.724728,1.846499 1.170606,3.792083 1.323478,5.771638 0.130932,1.842961 -0.118193,3.692999 -0.733221,5.434045 -0.600166,1.650455 -1.580389,3.134591 -2.86211,4.329968 -1.323478,1.207408 -2.85574,2.161445 -4.521058,2.814691 -2.315025,0.937051 -4.932256,1.319939 -7.659187,1.719106 -1.243503,0.18189 -2.510362,0.368026 -3.78076,0.610782 -2.043959,0.375811 -4.045455,0.95616 -5.974123,1.731845 z m 33.26042,32.799616 -0.3843,0.30928 v 7.1e-4 c -0.48198,0.38926 -0.97173,0.78559 -1.499,1.14088 -0.672357,0.44517 -1.377268,0.83867 -2.107659,1.17768 -1.521646,0.74596 -3.195456,1.12673 -4.888376,1.11257 -4.58617,-0.0863 -7.82763,-3.51535 -9.723671,-7.39095 -0.497543,-1.01561 -0.935636,-2.06307 -1.373728,-3.11053 -0.700665,-1.67593 -1.402038,-3.35186 -2.346166,-4.9004 -2.194001,-3.59817 -5.948574,-6.49495 -10.344998,-5.95778 -1.793136,0.22506 -3.474166,1.03472 -4.469818,2.59812 -2.620699,4.08297 1.142226,9.80294 5.939728,8.99329 0.407659,-0.0623 0.807534,-0.17269 1.189715,-0.32911 0.380765,-0.16278 0.736759,-0.38005 1.055951,-0.64546 0.670232,-0.56053 1.17556,-1.29375 1.46078,-2.1211 0.315653,-0.86345 0.38572,-1.79696 0.203122,-2.69791 -0.196752,-0.9413 -0.750207,-1.76865 -1.543586,-2.30795 0.922188,0.43384 1.640547,1.21024 2.004326,2.16498 0.377935,0.98306 0.474896,2.05246 0.280266,3.08717 -0.188259,1.0786 -0.661739,2.08714 -1.370189,2.91873 -0.377226,0.42748 -0.812488,0.79975 -1.293753,1.10408 -0.47631,0.30079 -0.9873,0.54355 -1.520938,0.72331 -1.082916,0.37157 -2.235475,0.49118 -3.370976,0.35034 -1.594332,-0.2279 -3.098072,-0.88327 -4.353465,-1.89604 -0.271419,-0.21587 -0.530099,-0.44376 -0.779932,-0.68015 -0.795998,-0.70278 -1.522,-1.48272 -2.167248,-2.32918 -0.31806,-0.35245 -0.641215,-0.70066 -0.979516,-1.03542 -1.536721,-1.61932 -3.349815,-2.94987 -5.353433,-3.92726 -1.381726,-0.60937 -2.827714,-1.05949 -4.310363,-1.34188 -0.745678,-0.15641 -1.499989,-0.26895 -2.254301,-0.36378 -0.08203,-0.008 -0.240137,-0.0361 -0.436677,-0.0701 -0.62982,-0.11041 -1.654206,-0.28876 -1.834893,-0.12032 2.331445,-2.15649 4.873018,-4.07093 7.586219,-5.71572 2.785815,-1.66107 5.777018,-2.94633 8.896533,-3.823236 3.234383,-0.915107 6.617249,-1.175557 9.952556,-0.766481 1.716983,0.20666 3.398578,0.644041 5.000199,1.298711 1.678057,0.673066 3.226597,1.634176 4.577677,2.840176 1.336218,1.26544 2.41694,2.77859 3.180594,4.45594 0.690049,1.57048 1.204578,3.21315 1.534386,4.89687 0.176935,0.90662 0.310698,1.90241 0.448708,2.93359 0.628475,4.69729 1.353911,10.11647 6.736999,11.06131 0.34184,0.0665 0.687218,0.11607 1.034719,0.14721 l 1.072938,0.0262 c 0.738175,-0.0531 1.471396,-0.15853 2.194001,-0.31636 1.497583,-0.35387 2.956949,-0.85424 4.357569,-1.49404 z"
     fill="#FC72FF"
     id="path2"
     style="fill:#fc72ff;fill-opacity:1;stroke-width:7.07742" />
</svg>
