<svg xmlns="http://www.w3.org/2000/svg" width="128" height="128" xmlns:v="https://vecta.io/nano"><style><![CDATA[.B{fill:#fdbf41}.C{fill:#f1ece2}]]></style><defs><linearGradient x1="193.293" y1="230.73" x2="191.911" y2="266.61" id="A" gradientUnits="userSpaceOnUse"><stop stop-color="#191919" offset="16%"/><stop stop-color="#191919" stop-opacity="0" offset="97%"/></linearGradient></defs><g fill-rule="evenodd"><path d="M117.178 98.148l-.248.186-.252.182-.488.325-.058.039-.41.252-.615.356c-1.416.789-2.906 1.424-4.426 1.985l-4.357 1.397-6.377 1.501-6.28 1.076-6.322.782-2.078.205-4.167.329-2.086.128-4.678.205-.851.027-.782.023 1.861-2.407.252-.317 3.788-5.429.368-.019 2.298-.143 1.741-.128c4.059-.313 8.102-.762 12.126-1.393 1.172-.182 2.337-.383 3.498-.596 2.716-.503 5.409-1.107 8.064-1.865l1.745-.522.871-.282c.437.077.836.259 1.246.41.36.132.72.271 1.08.414 1.018.402 2.016.847 2.983 1.362a21.66 21.66 0 0 1 1.13.638c.491.298.971.611 1.42.971.132.104.17.147.12.209-.023.031-.062.062-.124.108z" class="C"/><path d="M109.327 94.039l-.871.282-1.745.522c-2.658.758-5.347 1.362-8.064 1.865l-3.498.596c-4.024.631-8.067 1.08-12.126 1.393l-1.741.128-2.298.143-.368.019a113.67 113.67 0 0 0 2.422-3.869 123.25 123.25 0 0 0 3.235-5.746 166.39 166.39 0 0 1 5.866.607c.143.015.286.046.433.07.874.062 1.741.193 2.604.321l3.328.526c1.494.252 2.987.53 4.469.851l2.399.526c.128.07.263.097.406.112 1.71.437 3.417.898 5.092 1.451.155.05.333.066.453.197z" class="B"/><path d="M30.072 121.937l-.004-.004zm-.139-.07h.004zm-.526-.34c.039.027.085.046.128.066l.093.043c.054.027.104.062.139.112a.44.44 0 0 1 .035.062.85.85 0 0 1-.48-.205z" fill="#404a5a"/><g class="C"><path d="M41.816 115.699l-.449.07c-.58.077-1.161.124-1.745.139l-.584.004c-.197 0-.391-.008-.588-.015l-.252-.023-.252-.027a.45.45 0 0 1-.271-.124l-.669-.65 4.81.631z"/><path d="M67.02 88.649l-3.459.035c-1.919 2.975-3.989 5.846-6.249 8.574l-1.447 1.695c-1.238 1.412-2.531 2.774-3.885 4.074-1.188 1.138-2.414 2.225-3.695 3.246a41.67 41.67 0 0 1-3.103 2.271c-1.973 1.308-4.043 2.434-6.272 3.254-1.13.414-2.283.751-3.475.948-.066.012-.128.039-.193.058.004.019.012.043.015.062.004.012.008.023.015.035.085.132.17.259.259.383a15.42 15.42 0 0 0 .553.743 14.52 14.52 0 0 0 .913 1.041l4.81.631c.429-.066.855-.151 1.277-.252a22.14 22.14 0 0 0 2.863-.898 25.33 25.33 0 0 0 1.377-.584c.453-.209.902-.429 1.347-.666l.577-.31c1.331-.731 2.608-1.552 3.831-2.434a48.81 48.81 0 0 0 3.544-2.836l.488-.433.36-.329c.731-.669 1.451-1.358 2.151-2.062l.805-.832a77.06 77.06 0 0 0 2.565-2.825 70.47 70.47 0 0 0 1.466-1.757c.058-.07.116-.143.174-.217l.979-1.242c1.018-1.316 1.997-2.658 2.941-4.028l1.501-2.244.813-1.277 1.083-1.768-4.929-.058z"/></g><path d="M57.246 88.885l-2.469.135-2.809 3.761-2.964 3.54-1.776 1.931-1.304 1.327c-1.768 1.73-3.622 3.362-5.614 4.837l-1.006.72c-1.118.778-2.275 1.497-3.478 2.144-.871.472-1.768.89-2.678 1.273.008.043 0 .089.019.132l.41 1.041.46 1.014c.325.666.689 1.316 1.083 1.95l.008.008c.027.039.074.074.108.108.066-.019.128-.046.193-.058 1.188-.197 2.341-.534 3.475-.948 2.229-.816 4.299-1.946 6.272-3.254l3.103-2.271 3.695-3.246 3.885-4.074 1.447-1.695c2.26-2.728 4.33-5.599 6.249-8.574l-6.315.205z" class="B"/><path d="M38.6 97.096l.248.043c-1.613 1.559-3.308 3.022-5.115 4.361l-2.028 1.389c-.132-.569-.19-1.149-.255-1.73-.224-1.85-.31-3.707-.313-5.564l1.35.317 3.97.813 2.147.375z" class="C"/><path d="M45.991 89.775l-.577.058c-1.904 2.422-3.935 4.732-6.141 6.895l-.422.41.193.035-.193-.031c-1.613 1.559-3.308 3.022-5.115 4.361l-2.028 1.389.019.236c0 .023 0 .043.008.066l.05.267.039.217.104.542.755 3.026c.139.445.252.902.476 1.319l2.678-1.273a37.11 37.11 0 0 0 3.478-2.144l1.006-.72c1.993-1.47 3.846-3.107 5.614-4.837l1.304-1.327 1.776-1.931 2.964-3.54 2.809-3.761-8.787.751zm-9.538 6.946l2.147.375-2.147-.375z" fill="#f10"/><path d="M44.157 90.011c.414-.089.836-.135 1.258-.178-1.904 2.422-3.935 4.732-6.141 6.895l-.422.41-.248-.039-2.147-.375-3.97-.813-1.35-.317.027-2.109.054-1.246 4.612-.979 7.955-1.234.128-.015a.66.66 0 0 1 .151-.008c.031 0 .062.008.093.015z" class="B"/><path d="M91.227 56.194l4.624.565c-.008.015-.019.031-.035.046l-2.871-.352-.836-.089-.832-.116a.31.31 0 0 0-.05-.05z" fill="#007fff"/><path d="M127.946 91.93v-6.357c-.135-.592-.321-1.169-.65-1.687-.53-.836-1.161-1.583-1.95-2.194-.824-.638-1.668-1.238-2.577-1.749-1.25-.7-2.55-1.292-3.854-1.877-.232-.104-.472-.155-.704-.248-2.948-1.153-5.982-2.02-9.054-2.767l-5.935-1.261-6.725-1.087-4.659-.58-2.078-.221-5.881-.507-3.475-.224-2.956-.151-4.651-.159c-.112 0-.224-.008-.337-.008l-7.352-.046h-.12l-7.564.186-.453.019-8.934.565c-4.368.368-8.721.867-13.051 1.548l-.31.05c-.166.588-.317 1.184-.526 1.761l-.445 1.761c-.399 1.559-.758 3.126-1.072 4.705l.662-.112.867-.147 1.288-.209 4.666-.654 4.682-.526 3.13-.29 4.744-.344 4.469-.228 1.149-.05 1.71-.058 1.107-.027 4.028-.066 1.517-.008 2.596.008.94.012 1.01.012 2.747.066 2.747.097c.151.004.302.015.453.019l2.945.143 2.264.135 3.393.248 3.126.286c.035 0 .074.008.108.012l2.24.224c1.196.12 2.391.263 3.587.422l3.575.507 1.482.228c1.482.24 2.96.503 4.43.793l2.592.534c.863.186 1.722.387 2.581.596 1.304.321 2.6.666 3.881 1.041 1.71.503 3.405 1.068 5.065 1.73.418.163.828.337 1.242.511.627.271 1.242.569 1.853.871l.453.224.352.174a10.39 10.39 0 0 1 .46.24 5.85 5.85 0 0 1 .561.34c.689.476 1.397.925 2.035 1.466.147.128.29.255.429.391.166.139.325.29.476.441a6.76 6.76 0 0 1 .689.805c.101.139.193.282.282.429.077.128.147.255.213.387s.128.267.182.41a5.59 5.59 0 0 1 .155.426l.097.306c.031.101 0 .008.004.012v-.012h0c.081-.429.031-.863.035-1.296z" class="C"/><path d="M127.969 84.737v-4.813l-.012-2.221c-.128-.418-.217-.847-.406-1.246-.484-1.002-1.207-1.807-2.043-2.527-.913-.789-1.923-1.443-2.983-2.02-1.536-.844-3.13-1.563-4.775-2.171l-5.792-1.861-4.512-1.126-5.189-1.041-5.429-.867-2.585-.34-5.792-.635-1.076-.112-4.384-.325-.627-.046-2.925-.19-3.807-.155h-.035l-3.978-.12-3.509-.035c-.515 0-1.029-.004-1.548-.004l-6.144.089h-.089l-7.208.321-5.533.375-2.233.228-7.766.925-.089.012-2.778 8.133-.058.205.31-.05c4.33-.681 8.683-1.184 13.051-1.548 2.975-.248 5.951-.437 8.934-.565l.453-.019a234.69 234.69 0 0 1 7.564-.186h.12l7.352.046c.112 0 .224.008.337.008l4.651.159 2.956.151 3.475.224 5.881.507 2.078.221 4.659.58c2.248.31 4.492.669 6.725 1.087 1.989.371 3.97.782 5.935 1.261 3.072.747 6.106 1.613 9.054 2.767.232.093.472.143.704.248 1.304.588 2.604 1.176 3.854 1.877.909.511 1.753 1.11 2.577 1.749.789.611 1.42 1.358 1.95 2.194.329.518.511 1.095.65 1.687.054-.279.023-.561.023-.84z" class="B"/><path d="M82.482 24.075c1.068 1.668 1.842 3.471 2.426 5.359l.491 1.764.584 2.995.124.886.193 1.776.07.89.112 4.856-.317 5.08-.681 5.011-.553 2.979-4.81-.313-2.318-.116 1.308-6.787c.379-2.527.65-5.061.751-7.611.081-2.167.07-4.337-.104-6.504-.147-1.807-.391-3.595-.778-5.367-.437-1.993-1.052-3.927-1.935-5.773-.348-.731-.758-1.432-1.169-2.128.337-.108.689-.12 1.033-.155l.542-.046.464-.019h.755l.526.019.406.027a.34.34 0 0 1 .066.008c.043.008.081.019.12.035s.074.035.108.058a1.02 1.02 0 0 1 .147.116l.348.333.658.7c.53.6 1.006 1.238 1.443 1.919z" class="C"/><path d="M78.969 28.973c.387 1.768.631 3.56.778 5.367.178 2.167.19 4.337.104 6.504-.097 2.55-.368 5.084-.751 7.611l-1.308 6.787-1.757-.081-4.012-.108-1.494-.027 1.285-5.556.731-4.21.371-2.836.263-2.983.132-3.196-.124-4.276-.279-2.813a34.18 34.18 0 0 0-.7-3.8c-.244-1.002-.522-2-.894-2.968.255-.163.549-.244.832-.348l1.737-.561 1.784-.395c.043-.008.081-.019.124-.019.027 0 .05 0 .074.008l1.169 2.128c.882 1.846 1.497 3.78 1.935 5.773z" class="B"/><path d="M127.938 100.857l.012-.302.004-4.972-.015-2.147c0-.043.019-.089.015-.132-.012-.027-.027-.046-.039-.07v.008l-.101-.321-.155-.426-.182-.41-.213-.387-.282-.429c-.205-.286-.433-.553-.689-.805l-.476-.441-.429-.391c-.638-.542-1.347-.991-2.035-1.466a6.99 6.99 0 0 0-.561-.34l-.46-.24-.352-.174-.453-.224-1.853-.871-1.242-.511-5.065-1.73-3.881-1.041-2.581-.596-2.592-.534-4.43-.793-1.482-.228-3.575-.507-3.587-.422-2.24-.224c-.035 0-.074-.008-.108-.012l-3.126-.286-3.393-.248-2.264-.135-2.945-.143-.453-.019-2.747-.097-2.747-.066-1.01-.012-.94-.012-2.596-.008-1.517.008-4.028.066-1.107.027-1.71.058-1.149.05-4.469.228-4.744.344-3.13.29-4.682.526-4.666.654-1.288.209-.867.147-.662.112 1.072-4.705.445-1.761c.209-.577.36-1.172.526-1.761l.058-.205 2.778-8.133 2.089-5.038 1.54-3.32c1.753-3.626 3.699-7.15 5.858-10.559a89.55 89.55 0 0 1 6.613-9.178c.05-.058.089-.128.135-.19l2.175-2.48c2.407-2.666 4.999-5.135 7.87-7.297.708-.534 1.439-1.037 2.163-1.552.066-.046.147-.054.224-.058.035-.104.132-.151.213-.201 1.482-.948 3.022-1.791 4.643-2.472.058-.023.112-.054.174-.074.015-.004.035-.008.054-.012s.039-.008.058-.008c.255-.163.549-.244.832-.348.573-.213 1.149-.399 1.737-.561a18.55 18.55 0 0 1 1.784-.395c.043-.008.081-.019.124-.019.027 0 .05 0 .074.008.337-.108.689-.12 1.033-.155a13.35 13.35 0 0 1 .542-.046l.464-.019c.252-.004.503-.004.755 0 .174.004.352.012.526.019l.406.027a.34.34 0 0 1 .066.008c.043.008.081.019.12.035s.074.035.108.058a1.02 1.02 0 0 1 .147.116c.12.108.236.221.348.333.228.224.449.46.658.7.53.6 1.006 1.238 1.443 1.919 1.068 1.668 1.842 3.471 2.426 5.359.182.584.344 1.172.491 1.764.244.987.433 1.989.584 2.995l.124.886.193 1.776.07.89c.108 1.617.155 3.235.112 4.856a69.78 69.78 0 0 1-.317 5.08 77.54 77.54 0 0 1-.681 5.011c-.166.998-.352 1.993-.553 2.979l.778.062 5.576.511a.31.31 0 0 0-.05-.05l4.624.565c-.008.015-.019.031-.035.046l.279.039c.31-1.525.588-3.049.824-4.585.209-1.377.395-2.759.538-4.144.135-1.296.255-2.592.317-3.896l.104-1.884c.004-.081-.039-.19.089-.224l-.012-3.509c-.062-.027-.066-.081-.074-.139-.015-.236-.043-.468-.05-.704-.046-1.699-.201-3.386-.429-5.065a39.22 39.22 0 0 0-1.138-5.502c-.128-.453-.236-.909-.437-1.339l-.043-.155s-.015-.012-.015-.019v-.015c-.012-.054-.019-.108-.039-.163-.747-2.155-1.722-4.198-3.064-6.055-1.292-1.791-2.852-3.289-4.775-4.403-.72-.418-1.501-.712-2.24-1.087-.066-.035-.151-.027-.228-.043-.066-.085-.17-.108-.259-.151l-5.235-2.314c-.224-.101-.429-.248-.681-.279-.043-.015-.085-.027-.128-.043-.298-.097-.604-.166-.89-.302-.027-.008-.05-.015-.077-.027-.012-.004-.027-.008-.039-.012h-.008c-.031.019-.05.004-.07-.023a14.99 14.99 0 0 0-1.691-.329c-.41-.058-.82-.101-1.234-.124a14.8 14.8 0 0 0-.414-.015c-.414-.012-.824-.008-1.234.012-.546.023-1.087.074-1.629.147-.944.132-1.88.329-2.809.584-.132.039-.267.074-.399.116-1.745.518-3.409 1.219-5.015 2.047a35.5 35.5 0 0 0-1.59.871 35.4 35.4 0 0 0-1.42.855l-.464.298-.46.306a29.1 29.1 0 0 0-.905.631l-.445.325v.031c0 .008-.008.015-.012.023-.012.012-.027.015-.05.015h-.004v.019c0 .015-.008.023-.015.027s-.015.004-.031 0c-.673.453-1.312.932-1.935 1.432a34.82 34.82 0 0 0-.824.677c-.043.035-.085.074-.128.108l-.832.72v.019c0 .019-.008.031-.019.043-.019.012-.031.015-.043.015-.008.015-.019.031-.031.043s-.027.031-.046.043-.05.031-.081.035c0 .035-.008.054-.023.062-.023.015-.066.004-.097.008l-.317.321c-.008.008-.012.015-.019.019v.015c0 .015-.008.023-.015.035h-.004s-.023.012-.046.012c-.093.077-.193.147-.282.228-.008.008-.015.012-.023.019l-1.021.971c-.023.023-.046.043-.066.062-.104.104-.213.201-.321.302-.271.252-.549.495-.809.758l-.422.426c-.805.816-1.602 1.641-2.372 2.492a93.34 93.34 0 0 0-2.867 3.324l-.399.484c-.019.023-.043.05-.058.077-.027.039-.054.077-.081.12l-.104.159c-.027.039-.054.074-.085.112-.012.012-.019.023-.027.031-.043.046-.085.089-.135.124 0 .012-.004.015-.008.023s0 .015-.008.023c-.019.015-.031.019-.039.023-.023.108-.112.163-.186.232-.035.031-.05.054-.066.077-.008.012-.015.023-.019.039s-.012.027-.015.043v.019c0 .019-.008.031-.023.043l-.023.004h-.015l-.515.638c-.008.012-.019.023-.027.035.004.027.004.05 0 .074s-.012.031-.019.046c-.019.027-.035.043-.05.05s-.043.019-.066.027c-.027.031-.054.058-.081.089-.012.012-.019.023-.027.031-.023.023-.043.05-.062.074l-1.312 1.768c0 .019-.008.031-.019.043s-.027.019-.039.019l-.909 1.277-.174.255-1.312 1.977c-.224.325-.437.658-.65.987s-.433.658-.669.979c-.375.515-.696 1.076-1.025 1.621l-.426.708c-1.59 2.639-3.134 5.305-4.45 8.095-.077.163-.166.313-.255.468s-.182.306-.259.46l-1.312 2.72-.472 1.025-.604 1.343-.751 1.718-.306.727-.379.909-1.281 3.239-.356.956-.832 2.325-.197.557-.147.437a37.2 37.2 0 0 0-.364 1.11l-.422 1.358-.306.971c-.236.724-.511 1.439-.604 2.202-.004.039-.05.074-.074.108-.116.317-.186.642-.263.967a10.43 10.43 0 0 1-.132.464l-.135.464-.515 2.004-.433 1.822-.445 2.055-.356 1.807-.259 1.436-.209 1.265-.24 1.61-.19 1.447a91.56 91.56 0 0 0-.399 3.989l-.074 1.145-.058 1.145-.077 2.291-.008.522v.159c-.004.979.035 1.954.066 2.925 0 .043.008.089.008.132l.027.522c.035.704.093 1.408.166 2.113l.166 1.432c.008.07.019.135.027.205.132.967.282 1.931.472 2.886.352 1.788.82 3.544 1.463 5.251a2.16 2.16 0 0 1 .035.089c.48 1.261 1.037 2.488 1.722 3.656 1.126 1.923 2.5 3.626 4.252 4.984a19.42 19.42 0 0 0 .638.472c.209.143.433.275.65.406.039.027.085.046.128.066.031.015.062.027.093.043.054.027.104.062.139.112a.44.44 0 0 1 .035.062v-.008c.058-.008.108.004.135.066h.004c.054 0 .104.015.132.066.015 0 .027 0 .039.004h.004c.035.008.066.023.089.058v.004h.012.023c.008 0 .012.004.023.004.023.004.031.012.039.015.019.012.027.019.035.027h.004c.074.077.174.097.267.139l5.796 2.565c.956.422 1.904.867 2.914 1.145s2.035.468 3.084.511h.522 1.567c.507-.015 1.01-.081 1.509-.159 2.031-.306 3.981-.905 5.866-1.714 3.451-1.482 6.566-3.506 9.487-5.846.642-.515 1.269-1.045 1.892-1.583l6.508.027 6.202-.139c.101-.058.209-.058.317-.015h.093c.124-.058.252-.054.379-.015h.093a.3.3 0 0 1 .228-.039h.008.004c.027.008.05.015.074.023h.093c.05-.031.101-.043.151-.046a.65.65 0 0 1 .166.027h.093c.035-.019.07-.031.104-.039.07-.015.143-.008.217.019h.089a.38.38 0 0 1 .317-.015h.089c.104-.066.209-.058.321-.019h.089c.104-.062.213-.054.321-.019h.089c.023-.015.043-.023.062-.031.035-.012.066-.012.101-.012s.066.008.097.023l1.412-.066c3.614-.213 7.216-.499 10.815-.898 5.463-.607 10.892-1.424 16.255-2.647 3.653-.832 7.255-1.83 10.737-3.235 1.869-.755 3.684-1.617 5.363-2.747 1.01-.681 1.946-1.447 2.697-2.426.472-.623.855-1.292 1.002-2.074.058-.062.081-.135.085-.213.035-.561.054-1.118.004-1.679zM79.437 89.021l-3.014-.159 3.014.159zm-22.314 18.267l-.488.433c-1.141 1.002-2.318 1.95-3.544 2.836a37.47 37.47 0 0 1-3.831 2.434l-.577.31c-.445.232-.894.453-1.347.666a25.33 25.33 0 0 1-1.377.584c-.929.364-1.88.666-2.863.898a16.53 16.53 0 0 1-1.277.252l-.449.07c-.58.077-1.161.124-1.745.139l-.584.004c-.197 0-.391-.008-.588-.015-.085-.004-.166-.015-.252-.023l-.252-.027a.45.45 0 0 1-.271-.124c-.232-.209-.453-.426-.669-.65a14.52 14.52 0 0 1-.913-1.041 15.42 15.42 0 0 1-.553-.743l-.259-.383c-.008-.012-.012-.023-.015-.035-.004-.019-.012-.043-.015-.062-.035-.035-.081-.07-.108-.108l-.008-.008a19.99 19.99 0 0 1-1.083-1.95c-.163-.337-.317-.669-.46-1.014a18.75 18.75 0 0 1-.41-1.041c-.015-.043-.012-.085-.019-.132-.224-.418-.337-.874-.476-1.319-.31-.994-.553-2.004-.755-3.026l-.104-.542c-.015-.074-.023-.143-.039-.217l-.05-.267c0-.023 0-.043-.008-.066-.008-.077-.012-.159-.019-.236-.132-.569-.19-1.149-.255-1.73-.224-1.85-.31-3.707-.313-5.564l.027-2.109c.012-.418.031-.832.054-1.246a103.88 103.88 0 0 1 4.612-.979c2.639-.499 5.293-.905 7.955-1.234.043-.004.085-.012.128-.015a.66.66 0 0 1 .151-.008c.031 0 .062.008.093.015.414-.089.836-.135 1.258-.178l.577-.058c2.925-.325 5.854-.573 8.787-.751l2.469-.135a215.05 215.05 0 0 1 6.315-.205l3.459-.035 4.929.058-1.083 1.768-.813 1.277L68.56 94c-.944 1.37-1.923 2.712-2.941 4.028l-.979 1.242-.174.217A64.06 64.06 0 0 1 63 101.244a77.06 77.06 0 0 1-2.565 2.825l-.805.832c-.696.704-1.416 1.393-2.151 2.062l.673.031-.673-.031-.36.329zm3.916-.186l2.558.066-2.558-.066zm56.267-9.062c-.023.031-.062.062-.124.108-.081.062-.163.128-.248.186s-.166.12-.252.182c-.159.112-.321.221-.488.325-.019.012-.039.023-.058.039l-.41.252a19.5 19.5 0 0 1-.615.356c-1.416.789-2.906 1.424-4.426 1.985-1.436.526-2.89.987-4.357 1.397-2.101.588-4.229 1.076-6.377 1.501-2.086.418-4.179.77-6.28 1.076a157.49 157.49 0 0 1-6.322.782l-2.078.205-4.167.329-2.086.128-4.678.205-.851.027-.782.023c.638-.789 1.277-1.575 1.861-2.407l.252-.317c1.25-1.683 2.449-3.397 3.602-5.142l.48-.735a114.63 114.63 0 0 0 2.132-3.417 123.25 123.25 0 0 0 3.235-5.746 166.39 166.39 0 0 1 5.866.607c.143.015.286.046.433.07.874.062 1.741.193 2.604.321l3.328.526c1.494.252 2.987.53 4.469.851l2.399.526c.008 0 .019 0 .027.004s.015 0 .027.004c.05.008.108.008.163.015.07.008.139.027.193.085 1.71.437 3.417.898 5.092 1.451.155.05.333.066.453.197.437.077.836.259 1.246.41a36.23 36.23 0 0 1 1.076.414c1.018.402 2.016.847 2.983 1.362a21.66 21.66 0 0 1 1.13.638c.491.298.971.611 1.42.971.132.104.17.147.12.209z" fill="#007fff"/><path d="M127.973 70.15c-.046-.925-.399-1.741-.936-2.484-.758-1.056-1.737-1.88-2.797-2.608-1.807-1.238-3.784-2.147-5.808-2.96l-3.42-1.227-5.332-1.49-6.76-1.439-4.156-.696c-.043 0-.085-.004-.128-.008-.023 0-.05-.004-.074-.008l-.155-.015c-.116-.015-.236-.039-.348-.066l-1.238-.201-.72-.101-.279-.039-2.871-.352-.836-.089-.832-.116-5.576-.511-.778-.062-4.81-.313-2.318-.116-1.757-.081-4.012-.108-1.494-.027c-.84-.015 0 0 0 0l1.285-5.556.731-4.21.371-2.836.263-2.983.132-3.196-.124-4.276-.279-2.813a34.18 34.18 0 0 0-.7-3.8c-.244-1.002-.522-2-.894-2.968-.019 0-.039 0-.058.008-.019 0-.039.008-.054.012-.062.019-.116.05-.174.074-1.625.681-3.161 1.528-4.643 2.472-.085.054-.178.097-.213.201.356 2.248.522 4.508.542 6.783.031 3.254-.209 6.489-.654 9.712l-1.323 7.224-1.613 6.164-4.38.108-5.823.279-5.135.368-6.647.681-1.54 3.32-2.089 5.038.089-.012 7.766-.925 2.233-.228 5.533-.375 7.208-.321h.089l6.144-.089 1.548.004 3.509.035 3.978.12h.035l3.807.155 2.925.19.627.046 4.384.325 1.076.112 5.792.635 2.585.34 5.429.867 5.189 1.041 4.512 1.126 5.792 1.861c1.644.611 3.235 1.331 4.775 2.171 1.06.58 2.066 1.23 2.983 2.02.832.716 1.559 1.521 2.043 2.527.193.399.282.828.406 1.246l.015-2.496v-3.707l-.008-1.347z" fill="#f10"/><path d="M79.127 11.128c-.298-.097-.604-.166-.89-.302a1.17 1.17 0 0 1 .008-.116c.356.108.693.259 1.006.46l-.128-.043z" fill="#404a5a"/><path d="M72.097 8.029h-.004z" class="B"/><path d="M78.222 10.687l-5.738-2.554c-.077-.035-.155-.008-.224-.05-.066.015-.135.031-.163-.054-.077.035-.151 0-.224-.027-1.675-.503-3.389-.658-5.135-.569-2.31.12-4.523.685-6.675 1.517l-1.993.851-.488.236-.565.286-.751.395c-1.304.712-2.569 1.505-3.796 2.356l-.762.538-.151.108-1.776 1.354-4.202 3.676c-3.749 3.579-7.081 7.53-10.13 11.716l-.232.329c-.077.108-.008.027-.015.035s-.019.012-.035.015l-.82 1.169-1.347 1.962-1.238 1.896-.956 1.521-.832 1.366-1.149 1.954-.561.987c-.019.039-.046.074-.07.112 0 .043-.015.077-.031.112a.72.72 0 0 0-.043.074l-.515.936c-.642 1.172-1.269 2.356-1.873 3.548l-.755 1.517c-1.339 2.739-2.581 5.521-3.722 8.342a127.98 127.98 0 0 0-1.733 4.523l-.851 2.426c-.507 1.501-.971 3.014-1.424 4.531l-.542 1.877-.012.046c-.275.983-.53 1.969-.77 2.96l-.631 2.681-.48 2.306-.104.549c-.015.074-.027.147-.043.221-.004.027-.012.054-.015.085l-.085.437a87.31 87.31 0 0 0-.588 3.626c-.166 1.172-.313 2.341-.437 3.517l-.077.789c0 .019-.004.039-.004.058l-.046.488-.139 1.966-.089 1.973c0 .085 0 .17-.008.255a61.83 61.83 0 0 0-.008 3.788c.039 1.192.104 2.38.217 3.567s.259 2.364.464 3.544a42.07 42.07 0 0 0 .333 1.718c.41 1.919.963 3.8 1.722 5.618l.163.379.166.375a22.44 22.44 0 0 0 .414.871 22.29 22.29 0 0 0 .766 1.405c.743 1.254 1.617 2.418 2.654 3.471.271.279.553.542.844.793a14.12 14.12 0 0 0 1.745 1.304c.116.074.252.116.337.228.012.015.023.035.031.054.058-.012.101 0 .116.062.24.058.433.221.654.317l3.525 1.567 2.016.882.085-.077c-.217-.135-.441-.263-.65-.406-.221-.151-.429-.31-.638-.472-1.753-1.362-3.126-3.061-4.252-4.984-.685-1.169-1.242-2.395-1.722-3.656l-.035-.089c-.642-1.706-1.11-3.463-1.463-5.251-.19-.956-.34-1.919-.472-2.886-.008-.07-.019-.135-.027-.205l-.166-1.432c-.074-.704-.128-1.405-.166-2.113l-.027-.522a1.5 1.5 0 0 0-.008-.132l-.066-2.925v-.159l.008-.522.077-2.291.058-1.145.074-1.145a85.91 85.91 0 0 1 .399-3.989l.19-1.447.24-1.61.209-1.265.259-1.436.356-1.807.445-2.055.433-1.822.515-2.004c.043-.155.089-.31.135-.464s.093-.31.132-.464c.081-.325.147-.65.263-.967.027-.035.07-.07.074-.108.093-.766.368-1.482.604-2.202l.306-.971.422-1.358.364-1.11.147-.437.197-.557.832-2.325.356-.956 1.281-3.239.379-.909.306-.727.751-1.718.604-1.343.472-1.025 1.312-2.72c.077-.159.17-.31.259-.46s.178-.306.255-.468c1.316-2.79 2.859-5.456 4.45-8.095l.426-.708c.333-.549.65-1.107 1.025-1.621a20.82 20.82 0 0 0 .669-.979l.65-.987c.449-.65.867-1.323 1.312-1.977l.174-.255.909-1.277v-.012-.012s.023-.023.035-.031c.008 0 .015-.008.023-.008l1.312-1.768c.019-.027.043-.05.062-.074.012-.012.019-.023.027-.031.027-.031.054-.058.081-.089v-.039c0-.012 0-.023.004-.031.008-.023.015-.039.027-.054s.031-.027.046-.043l.058-.035c.012-.012.019-.023.027-.035l.515-.638c.019-.023.039-.05.058-.074 0-.015.008-.027.015-.043a.18.18 0 0 1 .019-.039c.015-.023.035-.046.054-.066.085-.081.178-.139.197-.244v-.019c0-.019.015-.035.031-.043.008 0 .015-.004.023-.008a.83.83 0 0 0 .135-.124c.012-.012.019-.023.027-.031.031-.035.058-.074.085-.112.035-.05.07-.104.104-.159.027-.039.054-.081.081-.12.019-.027.039-.054.058-.077l.399-.484c.929-1.134 1.884-2.24 2.867-3.324.77-.851 1.567-1.675 2.372-2.492l.422-.426c.263-.263.538-.507.809-.758.108-.101.217-.197.321-.302.023-.019.043-.043.066-.062l1.021-.971c.008-.008.015-.012.023-.019.089-.081.19-.155.282-.228.023-.019.043-.039.066-.062l.019-.019.317-.321c.015-.023.031-.039.05-.05s.043-.019.07-.019.058-.019.081-.035c.015-.012.031-.027.046-.043s.019-.027.031-.043l.062-.074.832-.72a3.17 3.17 0 0 0 .128-.108l.824-.677c.623-.499 1.265-.983 1.919-1.439.023-.012.043-.023.066-.035h.004c.019-.027.043-.05.066-.07l.445-.325c.298-.217.604-.426.905-.631l.46-.302.464-.298a40.6 40.6 0 0 1 1.42-.855c.522-.302 1.056-.592 1.59-.871 1.61-.828 3.273-1.528 5.015-2.047l.399-.116c.929-.259 1.861-.457 2.809-.584.538-.074 1.083-.124 1.629-.147.41-.019.82-.023 1.234-.012l.414.015c.414.023.824.066 1.234.124a14.99 14.99 0 0 1 1.691.329c.015-.004.027-.008.043 0 .015 0 .027.012.035.023.012.004.027.008.039.012.027.008.05.015.077.027a1.17 1.17 0 0 1 .008-.116c-.008-.008-.015-.015-.027-.019z" class="C"/><path d="M72.101 8.025c-.027-.12-.143-.132-.228-.17l-4.953-2.19-1.323-.573c-.05.031-.104.027-.159.008-1.134-.371-2.31-.557-3.494-.631-1.087-.066-2.178 0-3.258.143-.89.12-1.764.306-2.631.538-1.683.453-3.301 1.068-4.86 1.838l-1.772.948-.592.31c-1.695 1.01-3.339 2.097-4.899 3.308l-1.153.925-.72.615-.155.104-.128.108v.008c-.019.05-.039.097-.07.124-.019.015-.039.023-.062.027h-.039-.008l-.039-.012c-.012.008-.023.015-.031.023-.135.097-.209.263-.333.36-.019.015-.039.027-.058.039-.325.17-.522.476-.813.685-.279.201-.511.468-.766.704l-3.645 3.645-1.037 1.192-.623.654-1.59 1.865-1.118 1.428c-.279.391-.611.739-.909 1.114l-2.612 3.537-2.418 3.595-2.066 3.304-.731 1.246-1.227 2.163c-.24.286-.383.635-.565.956l-1.072 2.055c-.104.224-.255.414-.364.638l-.936 1.865-2.236 4.744-2.194 5.239-1.323 3.622c-.062.201-.178.383-.248.58l-1.072 3.181-.913 2.952-.801 2.859-1.347 5.595-.298 1.497-.867 5.127-.557 4.91-.035.453v.418-.418l-.159 2.705-.058 3.099.046 1.482c-.008.755.058 1.505.101 2.256l.054.832.015.143.248 2.171.321 2.093.658 2.875c.093.294.143.604.228.905l.623 1.946 1.141 2.697a19.25 19.25 0 0 0 2.387 3.784 15.01 15.01 0 0 0 3.072 2.91c.046.035.097.066.147.097l.255.163.147.093.476.317.147.112c0 .008.008.015.012.023.027.039.081.043.124.062l6.032 2.67c.081.035.159.089.255.066l-.031-.054c-.085-.112-.221-.155-.337-.228-.615-.391-1.199-.828-1.745-1.304l-.844-.793a18.07 18.07 0 0 1-2.654-3.471l-.766-1.405-.414-.871-.166-.379-.163-.379c-.758-1.819-1.308-3.699-1.722-5.618l-.333-1.718-.464-3.544-.217-3.567.008-3.788.008-.255.089-1.973.139-1.966.046-.488c0-.019.004-.039.004-.058l.077-.789.437-3.517.588-3.626.085-.437.015-.085.043-.221.104-.549.48-2.306.631-2.681.77-2.96c0-.015.008-.031.012-.046l.542-1.877 1.424-4.531.851-2.426 1.733-4.523 3.722-8.342.755-1.517 1.873-3.548.515-.936a.72.72 0 0 0 .043-.074c.019-.035.035-.07.031-.112l.07-.112.561-.987 1.149-1.954.832-1.366.956-1.521 1.238-1.896 1.347-1.962.82-1.169v-.023c.015-.027.031-.031.046-.031l.232-.329c3.049-4.187 6.38-8.133 10.13-11.716 1.35-1.288 2.743-2.519 4.202-3.676.58-.464 1.172-.913 1.776-1.354l.151-.108.762-.538c1.23-.851 2.492-1.644 3.796-2.356.248-.135.499-.267.751-.395l.565-.286.488-.236c.654-.306 1.316-.592 1.993-.851 2.151-.828 4.365-1.393 6.675-1.517 1.741-.093 3.455.062 5.135.569.074.023.147.058.224.027s0-.004 0 0zM6.725 93.536v.108z" class="B"/><path d="M65.233 4.933l-4.488-1.997c-1.706-.778-3.478-1.258-5.355-1.347l-1.42.004h-.553c-.944.05-1.877.19-2.801.387-2.728.58-5.266 1.648-7.7 2.987-2.449 1.347-4.724 2.956-6.887 4.721-.275.224-.573.429-.813.7-.019.008-.039.023-.05.043v.023h-.012-.012l-.186.147c-2.395 2.051-4.62 4.276-6.725 6.624-2.5 2.794-4.806 5.742-6.961 8.807-3.212 4.566-6.055 9.356-8.59 14.328A124.42 124.42 0 0 0 8.014 50.63c-1.459 3.645-2.797 7.336-3.873 11.116-.12.418-.267.832-.387 1.25-.882 3.115-1.644 6.257-2.244 9.437C.999 75.13.592 77.838.325 80.57.128 82.551-.007 84.536 0 86.529l.008 2.716a5.97 5.97 0 0 1 .019.371 9.55 9.55 0 0 1-.008.577c.008 1.103.101 2.198.205 3.297.174 1.791.445 3.564.844 5.316.495 2.198 1.172 4.33 2.136 6.369 1.033 2.182 2.345 4.167 4.117 5.827 1.033.967 2.171 1.784 3.451 2.383 1.138.534 2.291 1.033 3.444 1.54.789.348 1.571.724 2.376 1.033-.046-.035-.093-.074-.139-.108-.163-.116-.321-.221-.484-.321l-.147-.093c-.085-.054-.17-.104-.255-.163-.05-.031-.097-.066-.147-.097-1.165-.824-2.178-1.799-3.072-2.91a19.25 19.25 0 0 1-2.387-3.784c-.422-.882-.809-1.78-1.141-2.697-.089-.081-.174-.166-.259-.252a7.95 7.95 0 0 0 .259.252c-.232-.638-.445-1.288-.623-1.946-.081-.298-.135-.607-.228-.905-.298-.94-.476-1.908-.658-2.875-.132-.693-.224-1.393-.321-2.093-.101-.72-.163-1.447-.248-2.171-.004-.046-.012-.097-.015-.143v2.774-2.774c-.027-.275-.039-.553-.054-.832-.039-.751-.104-1.501-.101-2.256 0-.491-.05-.987-.046-1.482l.058-3.099a70.39 70.39 0 0 1 .159-2.705l.035-.453a104.69 104.69 0 0 1 .557-4.91 95.09 95.09 0 0 1 .867-5.127l.298-1.497c.387-1.88.847-3.742 1.347-5.595l.801-2.859a96.46 96.46 0 0 1 .913-2.952l1.072-3.181c.066-.201.186-.383.248-.58.379-1.23.851-2.426 1.323-3.622.696-1.761 1.401-3.517 2.194-5.239.731-1.586 1.436-3.188 2.236-4.744l.936-1.865c.108-.221.263-.414.364-.638.329-.7.693-1.381 1.072-2.055.182-.321.325-.669.565-.956.383-.735.789-1.459 1.227-2.163.255-.406.48-.836.731-1.246l2.066-3.304c.801-1.203 1.575-2.422 2.418-3.595l2.612-3.537c.294-.379.627-.724.909-1.114.352-.491.724-.967 1.118-1.428l1.59-1.865c.197-.224.422-.426.623-.654.348-.395.673-.809 1.037-1.192 1.184-1.246 2.38-2.48 3.645-3.645.255-.236.488-.503.766-.704.29-.209.484-.515.813-.685.019-.012.043-.023.058-.039.124-.097.197-.263.333-.36.012-.008.023-.015.031-.023.008-.046.023-.085.046-.108s.05-.043.089-.046c.023 0 .054 0 .085.008.043-.035.085-.074.128-.108l.155-.104c.255-.186.484-.399.72-.615.364-.333.766-.623 1.153-.925 1.559-1.211 3.204-2.298 4.899-3.308.193-.112.395-.205.592-.31.592-.317 1.172-.654 1.772-.948 1.559-.77 3.181-1.385 4.86-1.838a21.72 21.72 0 0 1 2.631-.538c1.08-.147 2.171-.209 3.258-.143 1.188.074 2.36.259 3.494.631.058.019.108.023.159-.008-.097-.104-.244-.104-.364-.159z" fill="#f10"/><path d="M303.89 249.77c.5-.39.5-.43 0-.82-1.16-.93-2.4-1.74-3.67-2.51-4.24-2.57-8.77-4.53-13.41-6.23-1.06-.39-2.09-.86-3.22-1.06-.31-.35-.77-.38-1.17-.51-4.33-1.44-8.74-2.62-13.16-3.75-.37-.03-.73-.11-1.05-.29l-6.2-1.36c-3.83-.83-7.68-1.55-11.54-2.2l-8.6-1.36c-2.24-.33-4.48-.67-6.74-.83l-1.12-.18c-7.91-.97-15.83-1.7-23.78-2.25l-15.58-.83a532.96 532.96 0 0 0-20.39-.38 518.68 518.68 0 0 0-25.26.62c-9.72.47-19.42 1.21-29.09 2.29-1.58.18-3.18.28-4.74.62-.32-.09-.63 0-.95.03-6.89.85-13.75 1.9-20.57 3.19-4.03.76-8.04 1.6-12.02 2.55l-.08.13s-1.03 14.82 1.25 29.29c3.93.93 7.88 1.76 11.84 2.5 3.54.66 7.09 1.29 10.66 1.8l15.04 1.97 14.67 1.4 8.69.63 12.88.61 11.76.3c6.27.08 12.55.05 18.82-.08a520.84 520.84 0 0 0 18.11-.7 457.11 457.11 0 0 0 21.54-1.71c10.93-1.13 21.8-2.65 32.57-4.8 9.41-1.88 18.71-4.18 27.73-7.5 3.93-1.44 7.78-3.09 11.44-5.13 1.86-1.03 3.66-2.15 5.34-3.46z" fill="url(#A)" opacity=".48" transform="matrix(.386929 0 0 .386929 -.336313 1.447078)"/></g></svg>