<svg xmlns="http://www.w3.org/2000/svg" xmlns:xlink="http://www.w3.org/1999/xlink" width="128" height="128" xmlns:v="https://vecta.io/nano"><g fill="#4a4af6"><path d="M96.485 101.809a8.1 8.1 0 0 0 8.1-8.1 8.1 8.1 0 0 0-8.1-8.099 8.1 8.1 0 0 0-8.099 8.099 8.1 8.1 0 0 0 8.099 8.1zm-.057-23.928a6.97 6.97 0 0 0 6.968-6.967 6.97 6.97 0 0 0-6.968-6.968 6.97 6.97 0 0 0-6.967 6.968 6.97 6.97 0 0 0 6.967 6.967z"/><use xlink:href="#B"/><path d="M96.319 36.828c2.592 0 4.694-2.102 4.694-4.694s-2.101-4.694-4.694-4.694-4.694 2.101-4.694 4.694 2.102 4.694 4.694 4.694z"/><use xlink:href="#C"/><path d="M96.202 4.86a2.43 2.43 0 0 0 2.43-2.43A2.43 2.43 0 0 0 96.202 0a2.43 2.43 0 0 0-2.43 2.43 2.43 2.43 0 0 0 2.43 2.43z"/><use xlink:href="#D"/><use xlink:href="#E"/><use xlink:href="#E" x="32.534"/><path d="M112.703 88.518a5.83 5.83 0 0 0 5.826-5.826 5.83 5.83 0 0 0-5.826-5.826c-3.218 0-5.826 2.608-5.826 5.826s2.608 5.826 5.826 5.826zm-.057-19.39c2.592 0 4.694-2.101 4.694-4.694s-2.101-4.694-4.694-4.694-4.694 2.101-4.694 4.694 2.102 4.694 4.694 4.694z"/><use xlink:href="#C" x="16.326" y="32.29"/><use xlink:href="#F"/><path d="M64.097 128c5.098 0 9.231-4.133 9.231-9.232s-4.133-9.231-9.231-9.231-9.232 4.133-9.232 9.231S58.999 128 64.097 128zm-.059-26.191a8.1 8.1 0 0 0 8.099-8.1 8.1 8.1 0 0 0-8.099-8.099 8.1 8.1 0 0 0-8.1 8.099 8.1 8.1 0 0 0 8.1 8.1z"/><use xlink:href="#D" x="-32.445"/><use xlink:href="#E" x="-32.446"/><path d="M31.494 101.809a8.1 8.1 0 0 0 8.099-8.1 8.1 8.1 0 0 0-8.099-8.099 8.1 8.1 0 0 0-8.099 8.099 8.1 8.1 0 0 0 8.099 8.1z"/><use xlink:href="#G"/><use xlink:href="#B" x="-64.991"/><path d="M31.33 36.828c2.592 0 4.694-2.101 4.694-4.694s-2.101-4.694-4.694-4.694-4.694 2.101-4.694 4.694 2.101 4.694 4.694 4.694z"/><use xlink:href="#C" x="-64.989"/><path d="M31.212 4.86a2.43 2.43 0 0 0 2.43-2.43A2.43 2.43 0 0 0 31.212 0a2.43 2.43 0 0 0-2.43 2.43 2.43 2.43 0 0 0 2.43 2.43z"/><use xlink:href="#G" x="-16.197" y="11.73"/><use xlink:href="#B" x="-81.198" y="32.3"/><path d="M15.121 69.128c2.592 0 4.694-2.101 4.694-4.694s-2.101-4.694-4.694-4.694-4.694 2.102-4.694 4.694 2.101 4.694 4.694 4.694z"/><use xlink:href="#C" x="-81.188" y="32.29"/><use xlink:href="#F" x="-97.525"/></g><defs ><path id="B" d="M96.378 56.218c3.217 0 5.826-2.608 5.826-5.826s-2.608-5.826-5.826-5.826-5.826 2.608-5.826 5.826 2.608 5.826 5.826 5.826z"/><path id="C" d="M96.26 19.712c1.967 0 3.562-1.595 3.562-3.562s-1.595-3.562-3.562-3.562-3.562 1.595-3.562 3.562 1.595 3.562 3.562 3.562z"/><path id="D" d="M80.276 113.538a8.1 8.1 0 0 0 8.1-8.099 8.1 8.1 0 0 0-8.1-8.1 8.1 8.1 0 0 0-8.099 8.1 8.1 8.1 0 0 0 8.099 8.099z"/><path id="E" d="M80.228 89.61a6.97 6.97 0 0 0 6.967-6.967 6.97 6.97 0 0 0-6.967-6.968 6.97 6.97 0 0 0-6.968 6.968 6.97 6.97 0 0 0 6.968 6.967z"/><path id="F" d="M112.539 37.15a2.43 2.43 0 0 0 2.43-2.43 2.43 2.43 0 0 0-2.43-2.43 2.43 2.43 0 0 0-2.43 2.43 2.43 2.43 0 0 0 2.43 2.43z"/><path id="G" d="M31.435 77.881a6.97 6.97 0 0 0 6.967-6.968 6.97 6.97 0 0 0-6.967-6.967 6.97 6.97 0 0 0-6.967 6.967 6.97 6.97 0 0 0 6.967 6.968z"/></defs></svg>