<svg xmlns="http://www.w3.org/2000/svg" width="128" height="128" fill="#2c3851" xmlns:v="https://vecta.io/nano"><path d="M64.012 121.021a35.8 35.8 0 0 1-25.47-10.549L10.531 82.484c-14.041-14.042-14.041-36.897 0-50.939l13.994-13.994c6.819-6.819 15.871-10.573 25.493-10.573h27.988c9.622 0 18.674 3.754 25.469 10.549l13.994 13.994c14.042 14.041 14.042 36.897 0 50.939l-27.988 28.011c-6.795 6.795-15.847 10.549-25.469 10.549zM50.018 18.288a24.45 24.45 0 0 0-17.463 7.246L18.538 39.529c-9.622 9.622-9.622 25.303 0 34.949l27.988 27.988a24.59 24.59 0 0 0 17.462 7.246 24.45 24.45 0 0 0 17.463-7.246l27.988-27.988c9.623-9.622 9.623-25.303 0-34.949L95.445 25.535a24.59 24.59 0 0 0-17.462-7.246zM64.012 104.2c-5.654 0-11-2.21-14.992-6.225L23.694 72.672c-8.268-8.268-8.268-21.715 0-30.007l12.663-12.64a21.04 21.04 0 0 1 14.992-6.201h25.303c5.655 0 11 2.21 14.992 6.225l12.663 12.663c8.268 8.268 8.268 21.716 0 30.007L79.004 97.975c-3.991 4.015-9.337 6.225-14.992 6.225zM51.349 35.133c-2.637 0-5.132 1.022-6.985 2.899L31.7 50.695c-3.849 3.849-3.849 10.121 0 13.994l25.303 25.303c3.73 3.73 10.264 3.73 13.994 0L96.3 64.689c3.849-3.849 3.849-10.121 0-13.994L83.637 38.032c-1.877-1.877-4.348-2.899-6.985-2.899zm12.663 52.483L34.978 58.583l18.223-18.199h21.621l18.223 18.199z"/></svg>