<svg xmlns="http://www.w3.org/2000/svg" width="128" height="128" viewBox="0 0 33.867 33.867" xmlns:v="https://vecta.io/nano"><path d="M29.272 22.271c0 6.4-5.524 11.596-12.338 11.596S4.595 28.671 4.595 22.271c0-.83 0-5.16 1.931-8.697 1.842-3.383 5.075-5.64 5.075-5.64s.045.992.172 2.034a6.15 6.15 0 0 0 .248 1.041c.016-.892.352-3.042 1.708-5.622C15.299 2.406 18.14 0 18.14 0c-.087 1.465-.06 2.934.078 4.395.223 2.007 1.079 3.878 1.32 4.054a6.64 6.64 0 0 1 .223-1.26c.159-.435.384-.844.667-1.211.054-.207.109 1.599.747 2.716 1.483 2.602 5.236 6.005 6.112 7.27 1.29 1.85 1.983 4.051 1.985 6.306z" fill="#ca404f"/><path d="M17.752 32.446c-6.815 0-12.338-5.189-12.338-11.596 0-.794 0-4.781 1.684-8.222a12.17 12.17 0 0 0-.56.934c-1.942 3.548-1.942 7.879-1.942 8.708 0 6.4 5.524 11.596 12.338 11.596 5.013 0 9.328-2.808 11.259-6.839-2.19 3.251-6.048 5.419-10.441 5.419zm-5.97-22.445a5.98 5.98 0 0 0 .25 1.039c.013-.863.397-3.062 1.617-5.499-.223.355-.52.917-.718 1.291-.481.91-.878 1.863-1.186 2.845l.038.323z" fill="#92384b"/><path d="M19.172 18.669c-2.413 2.95-5.798 4.696-4.971 5.506.87.85 6.003 3.619 9.959-.446 2.089-2.141 1.904-5.506.743-7.555L25.572 14c-.123-.493-2.596-3.122-2.946-3.28-.157 1.116-.397 2.22-.718 3.3-.328.997-1.311 2.906-2.736 4.65z" fill="#ecd0cf"/><path d="M20.564 19.847c-1.561 1.9-3.586 3.187-2.981 3.626s2.796 1.561 5.352-1.035c1.904-1.953 1.102-4.531.495-4.971s-1.563.789-2.866 2.379z" fill="#dab2b5"/><path d="M21.173 20.946c-.631.872-.892 1.753-.604 1.967s1.048-.319 1.679-1.191.892-1.753.604-1.967-1.048.314-1.679 1.191z" fill="#c9949c"/><path d="M21.195 8.697a3.79 3.79 0 0 1-.248-.535 16.47 16.47 0 0 1-4.282 4.282c-2.13 1.485-3.318 2.587-3.911 5.798-.314 1.693-4.875-.834-6.351 1.322-.629.917-.586 1.844-.932 2.422.111 2.647 1.936 5.196 1.936 5.196-.31-.446-.098-3.106.946-4.87.995-1.677 4.451-1.795 6.054-3.579 1.681-1.855 1.626-3.499 2.821-4.977 1.69-2.087 3.905-3.934 5.129-3.345a14.4 14.4 0 0 1-1.162-1.713zm8.077 13.574c-.111.776-.957 2.422-2.049 2.676-1.994.459-2.805-.769-4.074.529a7.76 7.76 0 0 1-7.711 1.849c-2.453-.765-5.247 1.67-7.009 1.14 1.374 1.784 4.558 3.122 4.919 3.229-.265-.301-1.061-1.519-.292-1.916 1.467-.756 3.653.716 5.22.277 1.875-.529 2.676-2.076 3.666-2.692.495-.31 3.122-2.422 6.268-.379a10.95 10.95 0 0 0 1.061-4.712z" fill="#f4eae6"/></svg>