<svg xmlns="http://www.w3.org/2000/svg" width="128" height="128" xmlns:v="https://vecta.io/nano"><defs><linearGradient x1="0" y1="0" x2="1" y2="0" gradientUnits="userSpaceOnUse" gradientTransform="matrix(0,-42.419955,-42.419955,0,15.678358,885.05235)" spreadMethod="pad" id="A"><stop offset="0" stop-color="#fbcc5c"/><stop offset=".516" stop-color="#fbcc5c"/><stop offset="1" stop-color="#36cf7d"/></linearGradient><linearGradient x1="0" y1="0" x2="1" y2="0" gradientUnits="userSpaceOnUse" gradientTransform="matrix(0,67.909052,67.909052,0,76.553344,817.91349)" spreadMethod="pad" id="B"><stop offset="0" stop-color="#36cf7d"/><stop offset=".484" stop-color="#fbcc5c"/></linearGradient><linearGradient x1="0" y1="0" x2="1" y2="0" gradientUnits="userSpaceOnUse" gradientTransform="matrix(0,67.909299,67.909299,0,38.393504,818.17732)" spreadMethod="pad" id="C"><stop offset="0" stop-color="#36cf7d"/><stop offset=".484" stop-color="#fbcc5c"/></linearGradient></defs><g transform="matrix(1.333333 0 0 -1.333333 0 1200)"><path d="M5.448 884.065C2.002 882.38 0 878.927 0 875.335h0a9.67 9.67 0 0 1 .987-4.254h0l13.5-27.631c.221-.068 5.879-1.81 9.51.004h0c3.468 1.734 6.934 8.803 7.36 9.692h0l-12.926 26.457c-1.684 3.445-5.137 5.448-8.729 5.448h0c-1.43 0-2.882-.317-4.254-.988" fill="url(#A)"/><path d="M77.283 879.731l-19.475-48.491a9.71 9.71 0 0 1 5.39-12.625h0a9.71 9.71 0 0 1 12.625 5.39h0l19.475 48.489A9.69 9.69 0 0 1 96 876.11h0a9.71 9.71 0 0 1-6.091 9.01h0c-1.186.477-2.411.703-3.616.703h0a9.71 9.71 0 0 1-9.01-6.091" fill="url(#B)"/><path d="M43.063 879.995L31.72 851.75l-.006-.011c-.806-1.629-3.771-7.292-6.82-9.139h0l-.201-.116h0l-.168-.087h0c-3.702-1.852-9.52 0-9.52 0h0l8.362-17.51a9.67 9.67 0 0 1 5.612-6.008h0a9.71 9.71 0 0 1 12.627 5.392h0l19.475 48.489c.476 1.184.701 2.409.701 3.612h0c0 3.848-2.3 7.49-6.091 9.013h0a9.69 9.69 0 0 1-3.615.701h0c-3.848 0-7.489-2.302-9.012-6.091" fill="url(#C)"/></g></svg>