<svg xmlns="http://www.w3.org/2000/svg" width="128" height="128" viewBox="0 0 33.867 33.867" xmlns:v="https://vecta.io/nano"><g transform="matrix(.056444 0 0 .056444 .000001 .000001)"><path d="M353.7 339.1L300 391.5l-53.7-52.4-39.7-38.8v77.5L300 469l93.4-91.2v-77.5z" fill="#ffe600"/><path d="M600 467.8V314L341.8 127.9l51.6-50.3V0l-39.7 38.8L300 91.2l-53.7-52.4L206.6 0v77.5l51.6 50.3L0 314v153.8l244-242.5V288l56 54.7 56-54.7v-62.7zm-348.5-250l48.5-47.3 48.5 47.3-48.5 47.3zM246.3 470l-2.3-2.2v77.5l56 54.7 56-54.7v-77.5l-2.3 2.2-53.7 52.5z"/></g></svg>