<svg xmlns="http://www.w3.org/2000/svg" width="128" height="128" viewBox="0 0 33.867 33.867" xmlns:v="https://vecta.io/nano"><path d="M31.328 4.169H2.538v25.476h28.79z" fill="#b7a38e"/><path d="M7.612 25.399H2.538v1.71h5.074zm23.716 0h-5.074v1.71h5.074zm-5.074 2.539H7.612v1.71h18.642z" fill="#6a5c52"/><g fill="#312a1d"><path d="M23.716 4.169H10.148v2.486h13.568z"/><path d="M28.79 11.832h2.538V4.169 1.683H28.79h-5.074v2.486h5.074z"/><path d="M33.867 11.832h-2.538v15.275h2.538zM5.074 4.169h5.074V1.683H5.074 2.538v2.486 7.662h2.536zm0 22.94H2.538v2.536h2.536 2.538v-2.536z"/><path d="M26.254 29.645H7.612v2.538h18.642z"/><path d="M26.254 27.109v2.536h2.536 2.538v-2.536H28.79zM2.538 11.832H0v15.275h2.538z"/></g><path d="M26.254 5.05h-.829v1.707h.829v.829h1.707v-.829V5.05zm-17.76 0h-.829-1.71v1.707.829h1.71v-.829h.829z" fill="#6a5c52"/><g fill="#312a1d"><path d="M12.736 16.08h-2.588v2.588h2.588zm2.489 2.535h-1.71v1.71h1.71zm5.127 0h-1.71v1.71h1.71z"/><path d="M20.349 23.692h-1.707v-.831h-3.417v.831h-1.71v-3.367h-1.71v5.903h1.71v.881h1.71v.829h.829v.829h1.707v-.829h.881v-.829h1.707v-.881h1.71v-5.903h-1.71zm3.367-7.612h-2.588v2.588h2.588z"/></g></svg>