<svg xmlns="http://www.w3.org/2000/svg" width="128" height="128" viewBox="0 0 33.867 33.867" xmlns:v="https://vecta.io/nano"><path d="M21.818 28.347c-.392-.084-.792-.325-1.076-.65-.223-.255-.551-1.001-2.017-4.599l-1.792-4.345c-.023-.027-.812 1.847-1.753 4.166l-1.874 4.503c-.207.364-.585.677-.981.812-.455.155-4.042.154-4.498-.002-.39-.133-.844-.514-1.018-.855-.073-.142-1.591-4.996-3.374-10.785L.097 5.773 0 5.48l2.793.018 2.793.018 2.158 7.195 2.215 7.325c.044.099.43-.718 1.628-3.443.864-1.965 1.679-3.735 1.811-3.934.511-.77 1.512-1.463 2.461-1.703.52-.132 1.61-.133 2.103-.002.934.248 1.958.967 2.5 1.753.119.172.904 1.925 1.745 3.894 1.038 2.43 1.544 3.542 1.576 3.46.026-.066.256-.81.51-1.652l.463-1.532 2.765-.018c1.521-.01 2.765.001 2.765.024s-.714 2.365-1.587 5.205l-1.753 5.427c-.191.303-.507.562-.898.736-.234.104-.526.123-2.131.135-1.022.008-1.967-.009-2.1-.038z" fill="#fff"/><path d="M25.674 13.942c0-.043.573-1.949 1.274-4.235l1.274-4.191c0-.019 1.27-.035 2.823-.035l2.822.052c-.001.028-.598 1.942-1.329 4.252l-1.328 4.2-2.768.018c-2.032.013-2.768-.003-2.768-.06z" fill="#63b4ff"/></svg>