<svg xmlns="http://www.w3.org/2000/svg" width="128" height="128" viewBox="0 0 33.867 33.867" xmlns:v="https://vecta.io/nano"><g fill="#98c1d9"><path d="M7.198 22.241c-.633.129-1.307.164-1.901.394-.662.637-1.474 1.24-2.048 1.959-.297 1.128-.646 2.44-1.166 3.491-.224.31.319.634.482.824.207.211.654.256.935.156.332-.108.964.203 1.08-.234.703-1.298 1.652-2.531 2.386-3.797.051-.868.295-1.979.444-2.825-.008-.008-.202.034-.211.033zm-.768 1.39c-.025.173-.118.395-.217.438.051-.15.139-.301.217-.438z" paint-order="stroke fill markers"/><path d="M11.849 10.762c-.216.113-.559.63-.743.851-.498.754-.635 1.673-1 2.475-.516.408-1.099.748-1.524 1.253-.131.421-.33 1.159-.381 1.592.162.087.356-.29.48-.342-.263.558-.663 1.004-.989 1.569-.5.804-1.087 1.609-1.748 2.289-.062.511-.258 1.138-.431 1.62-.052.21.381.031.461.025.689-.248 1.346-.627 2.057-.794.151.607-.013 1.352.144 1.967.09.451.267.819.496 1.219-.054.472-.259 1.337-.253 1.809.235.099.45-.564.616-.606.185.266.275.87.581 1.038.212.067.206-.352.198-.463a27.83 27.83 0 0 1 .032-3.331c-.146-.12-.356.239-.483.25.222-.752.569-1.329.619-2.124.053-.699.076-1.704 0-2.4-.108-.107-.338.248-.434.281l-1.372 1.126c.262-.494.675-.806.911-1.353.475-.944.772-1.981.971-3.015.332-.489.802-.842 1.151-1.303.177-.588.2-1.264.235-1.87.266-.447.523-.958.499-1.464.004-.047-.025-.288-.092-.299zm-2.564 5.69c-.169.309-.179.544-.335.837 0 0-.222.103-.202.021l.537-.859zm7.723-12.423c-.315.225-.446.68-.672.989-.019.101-.357.413-.277.507.241.138.752-.009.926.229-.036.408-.43.536-.723.776-.271.242-.807.535-.85.936a10.43 10.43 0 0 0 .383 2.048c.212.119.449-.392.573-.499.575-.785 1.026-1.696 1.489-2.545.051-.158.378-.17.245-.388-.273-.642-.583-1.499-.965-2.084-.016-.016-.106.03-.13.031zm1.436 2.525c-.342.154-.618.62-.762.952l-.477 1.232c.292.567.74 1.8 1.065 2.348.14.136.249-.664.203-.794l.122-3.724c-.008-.039-.117-.016-.152-.014zm5.769 8.1c-.169.191-.202.702-.318.934-.085.301-.337.865-.354 1.176.135.089.553-.239.672-.291.348-.303.878-.598 1.188-.938-.048-.202-.25-.356-.4-.48-.136-.074-.631-.378-.788-.4zm3.602 6.252c-.068.032-.015.175-.026.233l.026 1.105 1.33.483c.037.023.152-.017.128-.086-.102-.221-.276-.425-.418-.621l-.913-1.068a.38.38 0 0 0-.127-.047z" paint-order="stroke fill markers"/></g><path d="M18.496 30.973l-3.172-.015-.466-.525-.466-.525-.125.004-.125.004-.423-.006-.423-.006h0 0l-.007-.047-.007-.047.378-.6.378-.6-1.116-1.161-1.116-1.161-.483-.789-.483-.789-.158-1.406-.158-1.406.194-.873.194-.873.648-.703.648-.703.491-.855.491-.855-.66-1.412-.66-1.412.151-2.442.151-2.442.076-.618.076-.618.242.039.242.039.115-.297.115-.297.115-.788.115-.788.37-.394.37-.394.185-.109.185-.109.779.064.779.064.062.2.062.2.401.13.401.13-.026.099-.026.099-.444.408-.444.408-.365.421-.365.421.336 1.615.336 1.615.455.634.455.634 1.876-.094 1.876-.094.566.437.566.437.309 1.097.309 1.097-.394 1.217-.394 1.217-.189.36-.189.36.763.411.763.411.326 1.412.326 1.412.129.661.129.661.465.643.465.643.855-.54.855-.54.608.266.608.266.274.78.274.78-2.368 1.384-1.301 1.787-3.752-2.322-1.655.671z" fill="#fff" paint-order="stroke fill markers"/><path d="M14.767 30.447c-.345-.399-.475-.526-.54-.525-.047.001-.085-.002-.085-.007s.375-.543.832-1.197l.822-1.199a3.55 3.55 0 0 0-.306-.087l-.295-.076-.303.301c-.167.166-.314.291-.327.278s.055-.169.151-.347c.114-.211.159-.329.131-.338-.038-.013-.454-.289-.669-.444-.064-.046-.079-.03-.194.222l-.124.272-.028-.277c-.038-.372-.178-.841-.357-1.2l-.179-.328c-.018-.018-.043.043-.057.139-.032.211-.077.247-.11.087a10.05 10.05 0 0 0-.46-1.332c-.176-.381-.381-.992-.467-1.389-.062-.29-.062-.301.022-.693l.113-.429c.015-.017.038.091.052.24.115 1.26.569 2.332 1.311 3.091.169.173.26.296.26.351 0 .12.131.485.245.684a5.83 5.83 0 0 0 .304.446c.164.219.21.262.221.203a1.17 1.17 0 0 1 .046-.155c.031-.081.031-.081.214.042.106.071.387.19.666.28.556.181.656.18 1.011-.009.263-.14.698-.538.99-.905l.213-.267-.058-.176a1.07 1.07 0 0 0-.084-.204c-.014-.016-.09-.002-.169.031-.222.093-.562.059-.735-.073s-.222-.254-.177-.456c.019-.086.026-.165.016-.175-.043-.043-.379-.015-.637.054l-.302.074c-.015 0-.028-.083-.028-.185 0-.391-.189-1.045-.495-1.712-.074-.161-.125-.3-.115-.311.03-.03.165.105.344.344l.166.222-.022-.14c-.044-.284-.195-.685-.449-1.189l-.26-.517-.222.01c-.299.014-.382-.041-.184-.123.343-.141 1.099-.703 1.661-1.233l.287-.258c.058-.044.062-.041.037.028-.043.117-.477.648-.853 1.045l-.336.355.129.472.277.863c.181.48.252.866.282 1.528.02.446.03.507.081.486.103-.04.718-.196.871-.22.144-.023.167-.05.901-1.046l.749-1.059c-.004-.038-.473-.121-.708-.126-.126-.003-.137.009-.365.385-.216.355-.332.486-.286.323a9.62 9.62 0 0 0 .082-.533 2.41 2.41 0 0 0-.002-.937l-.066-.469.12-.112c.147-.137.281-.416.337-.702.049-.247.096-.236.113.026l.011.181.177-.315c.2-.358.26-.59.333-1.307l.049-.475.124.129.124.129-.022-.186c-.03-.255-.152-.602-.349-.986-.129-.253-.182-.323-.245-.324-.044-.001-.113-.027-.153-.059-.073-.057-.073-.058.018-.119.051-.034.155-.118.232-.187s.146-.119.153-.111.03.142.051.299c.029.221.067.334.173.507.156.257.204.299.205.18s.039-.251.072-.251c.015 0 .056.104.09.231s.093.287.128.355l.065.124.099-.203c.055-.112.127-.226.16-.253.055-.045.059-.034.041.125-.011.096-.007.175.008.175s.099-.077.185-.171l.158-.171-.018.283-.018.283.108-.103c.059-.057.152-.174.207-.26s.128-.157.164-.157c.078 0 .077-.008.011.18-.03.084-.04.152-.024.152.066 0 .326-.2.467-.359.196-.221.255-.201.164.055-.084.239-.047.22.157-.077.154-.225.157-.234.167-.579.008-.266.029-.384.085-.488a1.11 1.11 0 0 0 .096-.332c.021-.18.039-.21.24-.393.119-.109.244-.249.276-.312.077-.149.045-.467-.075-.755a7.65 7.65 0 0 1-.34-1.376l-.026-.24-.048.148-.088.305c-.04.157-.111.215-.112.092s-.178-.494-.328-.684c-.281-.357-.482-.567-.46-.483.02.078-.049.493-.083.493-.009 0-.054-.024-.099-.053-.13-.084-.492-.163-.938-.205-.358-.034-1.062-.183-1.165-.247s.073.154.246.307l.2.176-.246.134-.429.248-.183.114.109.024.143.032c.019.004-.061.054-.177.111-.277.136-.708.459-1.081.81-.179.169-.332.283-.378.283s-.078-.009-.078-.019.1-.232.222-.492c.233-.497.259-.63.186-.946-.026-.112-.084-.189-.248-.33-.293-.252-.509-.479-.704-.742-.183-.246-.32-.495-.29-.525.011-.011.079.033.152.096s.266.183.428.265l.296.149-.147-.195c-.464-.619-.546-.874-.829-2.582l-.23-1.389-.129.092c-.071.051-.335.191-.586.313-.36.175-.463.211-.488.171-.017-.028-.042-.162-.055-.298l-.024-.248-.104.054c-.057.03-.251.194-.43.364l-.326.31-.165-.153-.165-.153-.071 1.172-.051 1.192c.011.011.083-.017.161-.063.133-.078.139-.079.109-.011-.306.692-.537 1.969-.535 2.952l.001.332.062-.127c.07-.141.31-.409.368-.409.022 0 .046.207.06.508a6.64 6.64 0 0 0 .1.877c.088.422.31 1.111.466 1.447l.106.229.439-.202c.241-.111.448-.193.459-.181s-.063.108-.166.214c-.239.248-.402.492-.518.775-.204.503-.665 1.33-1.086 1.947-.118.173-.372.477-.564.676-.515.531-.776.968-.932 1.558-.134.509-.077 1.711.141 2.969l.079.458.078-.098c.1-.125.131-.123.131.007 0 .306.308 1.122.566 1.503l.091.133.085-.15c.047-.083.095-.15.107-.15s.044.074.071.164c.115.389.736 1.22 1.505 2.014l.451.466-.439.672-.439.672H7.34l-6.648.024c-.55.019-.692.014-.692-.023 0-.026.444-.904.988-1.952l1.306-2.727c.386-.997.378-.986 1.613-2.219l.861-.859.256-.853.256-.853.527-.54c1.647-1.69 1.979-2.389 1.944-4.084-.009-.418-.001-.494.059-.585.096-.146.648-.592 1.084-.876l.365-.238.23-.461c.458-.916 1.317-2.405 2.088-3.619l.34-.535.096-.535.139-.868.054-.345c.005-.007.103.047.217.12l.208.133.109-.231c.093-.197.109-.275.109-.531a5.68 5.68 0 0 1 .077-.755c.063-.372.095-.476.175-.571.756-.894.839-.98 1.058-1.088.262-.13.311-.134.712-.058.168.032.46.069.65.082l.345.024.671-.993.712-.993c.022 0 .341.702.709 1.56l.669 1.56.171.062.171.062.433 1.331.494 1.4c.138.157.586.313.921.323.127.004.179.048.746.64l.609.637.655.255c.606.236.655.262.656.347 0 .051.034.325.076.609.094.644.244 1.1.605 1.846.272.56.28.572.459.663s.984.622 1.135.749c.063.054.108.217.237.878l.159.812.6 1.035.936 1.791.337.755.903 1.188.903 1.188.147.595.173.638c.015.024.54.731 1.167 1.571l1.627 2.408.896 2.087.023.092-7.41.009-7.41.009-.208.489-.24.489h-.123l-.023-.895c-.026-1.018-.04-1.097-.463-2.44l-.219-.696.426-.529.426-.529.281-.024c.539-.046 1.089-.165 1.796-.389.366-.116.369-.118.645-.415.253-.273.692-.639.726-.605.008.008-.045.078-.116.156a1.31 1.31 0 0 0-.308.596c-.033.149-.03.156.063.176.184.04.708-.105.949-.262.167-.109.144-.016-.038.153-.211.197-.575.386-.92.48l-.249.067.249.25c.241.243.273.261 1.06.612l.812.362.073.166c.11.251.242.407.41.483.374.17.539.071.986-.594.36-.535.748-.906 1.196-1.143.203-.107.436-.246.517-.308.228-.174.609-.554.609-.608 0-.065-.231-.525-.416-.827l-.15-.245-.234.129c-.129.071-.234.113-.234.093s.025-.106.055-.193.055-.178.055-.203c0-.069-.11-.085-.286-.04-.121.031-.306.169-.818.612l-.662.572-.027.203c-.05.375-.057.375-.284.006s-.907-1.335-.94-1.335c-.011 0-.013.183-.004.407s.005.394-.009.378-.104-.294-.199-.619c-.236-.804-.319-.965-.571-1.116-.368-.219-.572-.263-1.525-.326l-.946-.047c-.04.007-.536.579-1.146 1.322l-1.076 1.432c0 .146.076.34.16.41.034.028.061.072.061.097s-.172.277-.383.559c-.448.599-.574.701-1.502 1.206-.055.03-.385.48-.786 1.071l-.692 1.02.26.669.26.684c0 .008-.023.015-.051.015s-.255-.237-.505-.526zm-11.55-1.456c.119-.046.286-.063.634-.065l.472-.003.201-.378c.266-.501.875-1.467 1.685-2.67l.66-.981v-.293c0-.458.149-1.18.405-1.966l.112-.378c0-.062-.112-.038-1.076.236l-.947.269-.567.534-.982.895c-.483.421-.441.329-.747 1.645-.172.741-.187.782-.569 1.604l-.39.868a11.47 11.47 0 0 0 .926.743c.013.001.096-.026.185-.06zM6.3 23.843c.074-.141.14-.25.148-.243s-.021.114-.063.237c-.051.152-.099.23-.148.243-.063.016-.054-.015.063-.237zm3.436 2.654c-.118-.868-.123-2.49-.009-3.129l.057-.342c.002-.071-.135-.014-.3.125-.1.084-.19.144-.2.134s.04-.162.111-.339a6.74 6.74 0 0 0 .537-2.407c.062-1.114.044-1.824-.047-1.824-.021 0-.214.171-.429.38l-.652.589c-.243.196-.664.471-.72.471-.013 0 .115-.211.286-.47a10.61 10.61 0 0 0 .984-1.95c.277-.738.536-1.624.563-1.924l.025-.276.598-.572.598-.572.14-.624c.129-.575.137-.638.093-.792-.085-.302.028-.698.308-1.085.111-.153.129-.213.166-.551.056-.508.055-.525-.029-.525s-.765.997-.974 1.422c-.07.142-.249.629-.399 1.081-.269.812-.274.824-.42.92-.484.318-1.306.983-1.409 1.141-.06.092-.381 1.274-.382 1.405 0 .113.106.077.313-.105.092-.081.167-.139.167-.129 0 .043-.628 1.158-.888 1.576-.548.882-1.05 1.557-1.55 2.086l-.28.295-.081.508c-.065.406-.107.56-.21.765-.144.286-.159.37-.067.37.034 0 .355-.115.712-.256l1.696-.577c.016.01.04.256.053.546.047 1.067.264 2.011.565 2.466l.093.141-.096.427c-.078.346-.162.95-.167 1.195-.003.123.145.018.313-.221.175-.25.277-.342.277-.251 0 .023.05.171.112.33.137.356.378.705.486.705.069 0 .075-.016.055-.157zm-.809-9.551l.351-.538c.086-.086.093-.111-.138.484l-.174.447-.158.036-.158.036zm10.495 5.919l1.928-2.461.063-.083.232.242c.263.274.547.672.76 1.065.126.232.148.256.168.182.049-.183.022-.755-.05-1.054-.075-.312-.297-.8-.451-.992-.189-.235-.186-.211-.049-.403.15-.211.138-.258-.115-.436-.273-.193-.288-.192-.439.014l-.14.182a12.53 12.53 0 0 1-.243-.075c-.519-.163-1.157-.124-1.622.099l-.209.1.321.027c.445.038.682.115.996.326.262.176.615.501.582.534-.009.009-.112-.006-.23-.033l-.213-.05-.326.412-3.474 4.481c-.001.139.153.279.335.305.09.013.196.016.237.009.046-.009.784-.92 1.938-2.392zm9.821-.256c-.058-.152-1.291-1.658-1.369-1.671-.085-.014-.085-.017-.028.703l.043.543.372.156.612.259c.132.056.277.103.322.104.073.001.078-.009.046-.093zm-5.219-6.18c.165-.154.517-.421.782-.593.282-.184.482-.339.484-.374.003-.076-.91-.667-1.007-.652-.054.008-.135.201-.379.894l-.31.968c0 .126.084.078.43-.243zm-5.561-7.246l.089-2.163c.021-.425.018-.452-.047-.452-.084 0-.388.315-.57.591-.085.128-.223.461-.376.907l-.242.705.244.514.681 1.555c0 .061.087.124.122.089.019-.019.064-.804.1-1.745zm-2.056-.428c.591-.889.922-1.45 1.172-1.98.198-.421.201-.425.357-.464.125-.031.157-.056.157-.12 0-.044-.168-.455-.374-.913l-.633-1.258c-.049 0-.887 1.302-.906 1.408-.009.05.025.068.166.086.278.035.632.133.677.187.03.036.02.089-.04.209-.136.27-.312.453-.669.698-.435.298-.6.448-.721.653l-.096.164.044.41c.096.882.256 1.613.354 1.613.029 0 .259-.312.512-.692zm-1.833-1.029c.185-.183.194-.187.242-.115s.059.064.264-.161c.118-.13.277-.327.354-.439a1.39 1.39 0 0 1 .632-.558c.369-.192.708-.518.645-.62-.043-.07-.351-.085-.855-.043-.307.026-.52.029-.541.008s.049-.127.176-.269l.21-.235-.456-.025-.611-.064c-.275-.069-.387-.001-.827.502-.398.456-.393.444-.498 1.176-.053.374-.071.802-.034.839.011.011.14-.027.286-.085.401-.158.391-.164.367.211l-.02.319.236-.125a2.18 2.18 0 0 0 .428-.315zm6.035 9.083c-.245-.277-1.003-.434-1.409-.291-.195.069-.231.069-.111 0 .26-.149.417-.171.891-.13.452.039.456.039.52-.044l.065-.084.001.112a.39.39 0 0 0 .051.185c.059.086.149.348.126.37-.009.009-.069-.044-.134-.118zm.196-.675c-.049-.047-.482-.226-.681-.282l-.166-.047.335-.003c.319-.003.339.001.429.098.111.118.194.268.149.268-.017 0-.047-.015-.066-.033zm.463-.614c-.051-.028-.15-.053-.222-.054-.122-.002-.125-.005-.048-.048s.048-.057-.3-.175-.377-.124-.331-.052c.05.076.048.076-.211-.01-.144-.048-.389-.1-.545-.115l-.283-.027.266-.063c.146-.035.336-.063.422-.063.175 0 .17-.03-.012-.077-.096-.025-.083-.027.063-.011.102.011.33.086.508.165l.344.145a1.65 1.65 0 0 1 .2.077c.124.053.193.11.223.183.061.147.036.188-.074.127z" fill="#3d5a80"/></svg>