<svg xmlns="http://www.w3.org/2000/svg" width="128" height="128" viewBox="0 0 33.867 33.867" fill="#47dba7" xmlns:v="https://vecta.io/nano"><path d="M14.8 21.558l.44 12.308c-7.999-.721-13.198-7.124-11.898-17.218A25.56 25.56 0 0 1 5.2 9.863s4.75 7.403 9.6 11.695zm10.278-16.39c-2.694 4.874-5.464 8.979-8.273 12.245-2.837-2.783-5.868-6.694-9.192-11.854C9.975 2.285 13.037.119 16.227.003c2.777-.1 6.098 1.939 8.851 5.165zm-5.464 28.543l-.44-12.352c2.956-3.257 5.86-7.335 8.673-12.181 1.098 1.999 1.949 4.205 2.413 6.503 2.013 9.975-2.722 16.74-10.646 18.031z"/></svg>