<svg xmlns="http://www.w3.org/2000/svg" xmlns:xlink="http://www.w3.org/1999/xlink" width="128" height="128" fill="none" xmlns:v="https://vecta.io/nano"><path d="M69.855 128c24.839 0 44.971-20.101 44.971-44.895S94.692 38.21 69.855 38.21 24.882 58.311 24.882 83.105 45.018 128 69.855 128z" fill="url(#A)"/><path d="M69.855 38.21h-11.71c-24.839 0-44.973 20.101-44.973 44.895S33.306 128 58.145 128h11.71c24.839 0 44.973-20.101 44.973-44.895S94.694 38.21 69.855 38.21z" fill="url(#B)"/><path d="M69.857 121.687c21.345 0 38.646-17.274 38.646-38.582S91.202 44.523 69.857 44.523 31.208 61.797 31.208 83.107s17.303 38.58 38.648 38.58z" fill="#fff"/><g fill-rule="evenodd"><path d="M67.601 75.33l-1.154-21.714a3.763 3.763 0 0 0-4.806-3.412c-3.392.975-6.393 2.217-9.004 3.722s-5.186 3.478-7.73 5.921a3.755 3.755 0 0 0 .558 5.863l18.261 11.854a2.515 2.515 0 0 0 3.876-2.234z" fill="url(#C)"/><path d="M67.587 91.253l-1.156 21.714a3.763 3.763 0 0 1-4.806 3.412c-3.392-.975-6.393-2.217-9.002-3.722s-5.186-3.478-7.732-5.921a3.755 3.755 0 0 1 .558-5.861L63.71 89.018a2.515 2.515 0 0 1 3.876 2.234z" fill="url(#D)"/><path d="M72.001 91.217l1.154 21.714a3.763 3.763 0 0 0 4.806 3.414c3.392-.977 6.393-2.219 9.002-3.724s5.186-3.476 7.732-5.921a3.755 3.755 0 0 0-.56-5.861L75.877 88.985a2.515 2.515 0 0 0-3.876 2.232z" fill="url(#E)"/><path d="M72.107 75.33l1.154-21.714a3.763 3.763 0 0 1 4.806-3.412c3.392.975 6.393 2.217 9.002 3.722s5.186 3.478 7.732 5.921a3.755 3.755 0 0 1-.56 5.863L75.983 77.564a2.515 2.515 0 0 1-3.876-2.234z" fill="url(#F)"/><path d="M77.652 80.989l19.415-9.86a3.769 3.769 0 0 1 5.364 2.449c.848 3.422 1.271 6.637 1.271 9.645s-.423 6.223-1.271 9.643a3.767 3.767 0 0 1-5.364 2.449l-19.415-9.858a2.505 2.505 0 0 1 0-4.469z" fill="url(#G)"/><path d="M62.058 80.989l-19.415-9.86a3.769 3.769 0 0 0-5.362 2.449c-.85 3.422-1.273 6.637-1.273 9.645s.423 6.223 1.271 9.643a3.767 3.767 0 0 0 5.366 2.449l19.413-9.858a2.505 2.505 0 0 0 0-4.469z" fill="url(#H)"/></g><path d="M69.853 86.614a3.509 3.509 0 0 0 3.513-3.509 3.509 3.509 0 1 0-7.027.002 3.509 3.509 0 0 0 3.513 3.507z" fill="url(#I)"/><g fill-rule="evenodd"><path d="M67.344 0c-8.111 2.675-13.342 7.077-15.691 13.207-2.55 5.995-2.09 12.809 1.378 20.436 7.736-2.8 12.895-7.233 15.477-13.297S70.699 7.498 67.344 0z" fill="url(#J)"/><path d="M27.951 25.085c4.636-2.392 9.277-2.769 13.921-1.131s7.596 5.233 8.855 10.778c-5.508 2.17-10.279 2.398-14.311.69s-6.857-5.153-8.465-10.337z" fill="url(#K)"/></g><defs><linearGradient id="A" x1="59.958" y1="35.997" x2="83.951" y2="110.359" xlink:href="#L"><stop stop-color="#ed4962"/><stop offset="1" stop-color="#f98f81"/></linearGradient><linearGradient id="B" x1="52.817" y1="46.225" x2="74.739" y2="106.345" xlink:href="#L"><stop stop-color="#ed4962"/><stop offset="1" stop-color="#f98f81"/></linearGradient><linearGradient id="C" x1="50.235" y1="52.922" x2="65.694" y2="79.742" xlink:href="#L"><stop stop-color="#ed4962"/><stop offset="1" stop-color="#f98f81"/></linearGradient><linearGradient id="D" x1="52.885" y1="81.198" x2="64.179" y2="113.299" xlink:href="#L"><stop stop-color="#ed4962"/><stop offset="1" stop-color="#f98f81"/></linearGradient><linearGradient id="E" x1="72.768" y1="74.979" x2="85.714" y2="113.048" xlink:href="#L"><stop stop-color="#ed4962"/><stop offset="1" stop-color="#f98f81"/></linearGradient><linearGradient id="F" x1="89.472" y1="52.922" x2="74.014" y2="79.742" xlink:href="#L"><stop stop-color="#ed4962"/><stop offset="1" stop-color="#f98f81"/></linearGradient><linearGradient id="G" x1="89.991" y1="64.807" x2="93.124" y2="94.122" xlink:href="#L"><stop stop-color="#ed4962"/><stop offset="1" stop-color="#f98f81"/></linearGradient><linearGradient id="H" x1="42.776" y1="72.393" x2="56.718" y2="93.707" xlink:href="#L"><stop stop-color="#ed4962"/><stop offset="1" stop-color="#f98f81"/></linearGradient><linearGradient id="I" x1="69.853" y1="79.599" x2="70.956" y2="85.236" xlink:href="#L"><stop stop-color="#ed4962"/><stop offset="1" stop-color="#f98f81"/></linearGradient><linearGradient id="J" x1="54.704" y1="14.5" x2="67.431" y2="38.635" xlink:href="#L"><stop stop-color="#ed4962"/><stop offset="1" stop-color="#f98f81"/></linearGradient><linearGradient id="K" x1="10.48" y1="17.533" x2="52.686" y2="46.975" xlink:href="#L"><stop stop-color="#ed4962"/><stop offset="1" stop-color="#f98f81"/></linearGradient><linearGradient id="L" gradientUnits="userSpaceOnUse"/></defs></svg>