<svg xmlns="http://www.w3.org/2000/svg" width="128" height="128" fill-rule="evenodd" xmlns:v="https://vecta.io/nano"><g fill-opacity="1" id="08_\u4EA4\u6613\u9875\u9762\u4F18\u5316"><g id="\u5BFC\u822A-4" fill-opacity="1"><path d="M63.999 0l1.138.07c1.133.139 2.243.487 3.265 1.042h0l51.222 27.864.863.536c2.194 1.545 3.512 3.985 3.512 6.603h0v55.762l-.061.971c-.323 2.561-1.908 4.858-4.314 6.167h0l-51.251 27.88-1.042.483c-2.489.967-5.338.806-7.707-.483h0L8.374 99.015l-.863-.536C5.317 96.935 4 94.493 4 91.877h0V36.115l.061-.972c.322-2.563 1.907-4.858 4.313-6.167h0L59.596 1.112C60.958.371 62.478 0 63.999 0zM43.179 28.811L20.945 40.906c-.65.354-1.05 1.007-1.05 1.714v44.052c0 1.263.715 2.428 1.875 3.06l39.95 21.731a3.34 3.34 0 0 0 3.177 0l20.929-11.385a.74.74 0 0 0 0-1.327L45.643 76.89c-.774-.42-1.25-1.199-1.25-2.04V29.472c0-.588-.676-.954-1.215-.661z" fill="#fff" fill-opacity="1" id="Icons/00_Left_nov/-02_LI-\u672A\u9009"/></g></g></svg>