<svg xmlns="http://www.w3.org/2000/svg" width="128" height="128" xmlns:v="https://vecta.io/nano"><defs><linearGradient id="A" x1="12.186" y1="0" x2="115.814" y2="128" gradientUnits="userSpaceOnUse"><stop offset="0" stop-color="#01f3de" stop-opacity=".996"/><stop offset=".891" stop-color="#09a9f5"/></linearGradient></defs><path d="M95.95 127.877c-2.404-.338-3.95-.975-14.642-6.031l-17.069-8.02-4.264-2.022-3.2-1.506c-.033 0-1.288-.586-2.789-1.303l-10.701-5.031-4.264-2.024-3.096-1.454c-.032 0-2.115-.974-4.628-2.165l-5.489-2.6c-4.776-2.26-8.601-7.095-9.735-12.304-.914-4.199-.274-8.902 1.71-12.572 1.893-3.5 3.764-5.246 9.263-8.637L49.397 48.15c.106-.103-.283-.388-.92-.675-.607-.274-2.667-1.254-4.578-2.179l-9.688-4.635c-2.437-1.144-3.002-1.552-3.502-2.532-1.247-2.444.524-5.371 3.238-5.354 1.071.007 1.152.041 8.726 3.677l6.848 3.28c10.388 4.939 10.377 4.933 11.05 6.037.532.872.528 2.555-.007 3.604-.432.846-.718 1.04-11.393 7.736l-9.463 5.94-8.688 5.453c-4.583 2.873-5.676 3.88-6.83 6.287-1.091 2.276-1.371 4.154-.947 6.365.551 2.879 1.964 5.271 3.996 6.763.811.595 4.78 2.561 10.936 5.416l8.279 3.89 8.79 4.136 3.68 1.735 3.168 1.481 3.168 1.484 10.323 4.861 7.155 3.363c11.715 5.508 12.441 5.824 14.122 6.147 2.82.541 6.029-.261 8.354-2.089 1.198-.942 1.209-.959.715-1.169-.275-.117-1.82-.837-3.433-1.6l-2.99-1.387c-.031 0-1.104-.495-2.382-1.101L91.63 110.5l-10.017-4.697-4.804-2.25-6.133-2.866-8.075-3.779-5.799-2.733-2.686-1.252c-.031 0-1.33-.606-2.889-1.347l-3.446-1.609c-.739-.316-9.766-4.556-13.515-6.347-2.034-.972-2.815-1.457-3.238-2.012-1.005-1.317-.952-3.307.12-4.528.341-.389 2.153-1.663 4.027-2.832l8.517-5.352 14.105-8.884 5.519-3.475 13.793-8.673c1.24-.778 2.254-1.485 2.254-1.57s-.183-.214-.406-.285-1.994-.892-3.935-1.824l-9.457-4.516-18.572-8.869-3.502-1.657c-.031 0-1.563-.724-3.403-1.61l-10.092-4.829-4.088-1.942-7.155-3.403c-5.336-2.53-5.968-2.988-6.437-4.665-.402-1.435.044-2.394 2.312-4.974 3.42-3.889 5.238-5.257 8.886-6.685C25.26.354 26.826.076 29.283.012 33.1-.087 35.132.41 39.503 2.513l4.191 2 5.315 2.556 5.11 2.454 5.213 2.502 10.732 5.165 10.017 4.802 4.906 2.352 5.928 2.857 4.536 2.158c2.107.921 4.9 3.154 6.638 5.306 1.36 1.684 2.911 4.969 3.34 7.072.306 1.501.438 4.095.291 5.74-.517 5.809-3.422 10.357-8.876 13.895L84.68 69.108l-11.088 7.023c-.645.41-1.174.803-1.175.874s.435.317.969.548a161.5 161.5 0 0 1 3.526 1.635l7.461 3.513 3.168 1.487 7.258 3.421c.03 0 1.284.587 2.786 1.304l6.105 2.877c1.912.892 3.662 1.85 4.039 2.213 2.073 1.992.914 5.665-1.959 6.204-1.061.199-1.971-.106-5.824-1.954l-3.515-1.649c-.043 0-1.612-.736-3.486-1.635l-3.462-1.635c-.03 0-1.238-.561-2.685-1.247l-6.004-2.835-9.375-4.43-2.79-1.3c-.368 0-6.45-3.141-6.784-3.503-1.355-1.47-1.274-3.884.175-5.216.264-.242 1.353-.985 2.421-1.65l6.848-4.347 6.439-4.09 3.271-2.076 4.599-2.931c7.245-4.576 8.854-5.671 9.832-6.687 1.894-1.968 2.718-3.855 2.883-6.602.195-3.246-.774-5.839-3.042-8.136-1.26-1.276-1.679-1.537-5.114-3.193l-16.416-7.891-7.972-3.831-7.564-3.63-5.213-2.501-5.622-2.706-5.825-2.808C31.95 7.094 31.033 6.823 27.614 7.6c-1.891.43-2.914.898-4.472 2.045l-1.282.944 2.915 1.408 2.974 1.408c.033 0 1.702.792 3.709 1.761l7.738 3.703 8.586 4.09 10.63 5.063 4.599 2.199 4.293 2.046 4.088 1.94 4.599 2.197 4.395 2.097 5.519 2.612c3.569 1.675 4.544 2.421 4.899 3.744.369 1.374.102 2.408-.886 3.43-.482.498-3.258 2.383-6.466 4.39l-9.199 5.764-7.052 4.428-18.5 11.653-5.407 3.383-1.625.995 1.118.522 3.056 1.424 4.668 2.198 2.791 1.296c.033 0 1.412.644 3.063 1.431l3.059 1.431c.031 0 1.195.542 2.587 1.204l12.037 5.646 14.788 6.923 2.071.946c.032 0 1.778.828 3.878 1.84l3.892 1.84c.04 0 1.805.814 3.922 1.809l5.791 2.704c4.704 2.167 6.427 3.133 6.82 3.825 1.029 1.813.787 3.051-1.114 5.702-2.986 4.162-6.506 6.686-10.918 7.83-1.881.487-5.302.682-7.231.411zM21.545 34.854c-1.507-.603-2.483-2.098-2.483-3.803 0-3.698 4.554-5.463 7.029-2.724 1.76 1.948 1.367 4.741-.866 6.157-.747.473-1.15.586-2.063.576-.624-.007-1.352-.1-1.617-.206z" fill="url(#A)"/></svg>