<svg xmlns="http://www.w3.org/2000/svg" width="128" height="128" fill="none" xmlns:v="https://vecta.io/nano"><path d="M59.446 1.274L14.127 28.529c-1.385.832-2.536 2.03-3.336 3.472s-1.222 3.078-1.222 4.744v54.51c-.002 1.67.418 3.311 1.218 4.758s1.952 2.65 3.34 3.486l45.319 27.227a8.81 8.81 0 0 0 9.109 0l45.319-27.227c1.387-.833 2.537-2.031 3.337-3.474s1.221-3.081 1.22-4.748V36.745a9.78 9.78 0 0 0-1.22-4.745c-.801-1.442-1.952-2.64-3.338-3.471L68.554 1.274A8.81 8.81 0 0 0 64 0a8.81 8.81 0 0 0-4.554 1.274z" fill="#00ffb0"/><path d="M66.344 37.671a4.52 4.52 0 0 0-3.494-.386c-1.169.348-2.162 1.155-2.77 2.252a5.06 5.06 0 0 0-.489 3.624c.294 1.229 1.035 2.29 2.066 2.96l36.981 22.237a4.54 4.54 0 0 0 2.341.652c.822 0 1.629-.225 2.341-.653s1.303-1.043 1.715-1.783.629-1.581.63-2.437V41.63c.001-.856-.215-1.697-.626-2.438a4.77 4.77 0 0 0-1.714-1.784L66.344 15.171c-.712-.429-1.521-.655-2.344-.655a4.54 4.54 0 0 0-2.344.655L24.676 37.408a4.79 4.79 0 0 0-1.712 1.787 5.04 5.04 0 0 0 0 4.877 4.79 4.79 0 0 0 1.712 1.787l63.318 38.377c2.108 1.272 2.184 3.035 0 4.357l-21.69 13.041c-.685.475-1.49.728-2.313.728s-1.628-.253-2.313-.728L38.479 87.668l-5.151-3.099c-1.085-.644-1.88-1.71-2.21-2.964s-.168-2.593.45-3.723 1.642-1.958 2.846-2.302 2.49-.175 3.575.468l14.567 8.77v.071l9.075 5.465c1.077.648 2.356.823 3.557.488s2.224-1.154 2.846-2.275.79-2.454.468-3.705-1.108-2.317-2.184-2.964L29.357 59.66a4.55 4.55 0 0 0-4.7.011c-.713.433-1.304 1.054-1.713 1.801a5.04 5.04 0 0 0-.615 2.452V86.41a5.03 5.03 0 0 0 .627 2.437c.411.741 1.002 1.356 1.713 1.785l36.981 22.244a4.57 4.57 0 0 0 4.687 0l36.981-22.244c.712-.427 1.304-1.042 1.715-1.783s.626-1.582.625-2.438c.023-.866-.183-1.722-.596-2.474s-1.016-1.372-1.745-1.79L40 43.811c-2.108-1.272-2.183-3.042 0-4.364l21.697-13.034c.685-.477 1.49-.731 2.313-.731s1.628.254 2.313.731l20.619 12.409 7.819 4.698c1.079.646 1.866 1.713 2.19 2.964s.157 2.586-.464 3.709-1.645 1.944-2.846 2.281-2.482.163-3.561-.483l-14.595-8.77v-.071z" fill="#003340"/></svg>