<svg xmlns="http://www.w3.org/2000/svg" width="128" height="128" xmlns:v="https://vecta.io/nano"><path d="M71.453.001c-2.022.027-4.161.96-5.427 2.751L16.322 73.035c-3.428 4.847.328 12.103 6.265 12.103H49.5c.379 0 .583.203.583.583v35.727c0 2.924 2.148 5.499 4.592 6.275s5.684-.09 7.37-2.479l49.637-70.328c3.423-4.85-.335-12.102-6.271-12.102H78.573c-.379 0-.583-.203-.583-.583V6.554c0-2.924-2.147-5.5-4.591-6.277a6.17 6.17 0 0 0-1.946-.277zm-3.177 16.394v25.837c0 5.629 4.668 10.297 10.297 10.297h22.904l-41.68 59.055V85.721c0-5.629-4.668-10.297-10.297-10.297H26.53z" fill="#fff" paint-order="stroke fill markers"/><path d="M69.992 5.556L20.287 75.84c-.608.859-.685 1.986-.202 2.92s1.448 1.521 2.501 1.521H49.5a5.44 5.44 0 0 1 5.44 5.44v35.727c0 .752.487 1.418 1.204 1.646s1.499-.035 1.933-.65l49.636-70.328a2.82 2.82 0 0 0-2.303-4.445H78.573a5.44 5.44 0 0 1-5.44-5.44V6.554a1.73 1.73 0 0 0-3.141-.998z" fill="#34a4f4" paint-order="stroke fill markers"/></svg>