<svg xmlns="http://www.w3.org/2000/svg" xmlns:xlink="http://www.w3.org/1999/xlink" width="128" height="128" xmlns:v="https://vecta.io/nano"><g clip-path="url(#A)" transform="matrix(4.31724 0 0 4.31724 -15.486517 -26.149465)"><g fill-rule="evenodd"><g fill="#22222d"><path d="M24.078 31.405a8.24 8.24 0 1 1-14.272-8.24 8.24 8.24 0 1 1 14.272 8.24zm-10.432 1.589c3.153 1.82 7.184.74 9.005-2.413s.74-7.184-2.413-9.005a6.59 6.59 0 0 0-9.004 2.413c-1.82 3.153-.74 7.184 2.413 9.005zm7.72-3.155a5.11 5.11 0 0 1-6.979 1.87 5.11 5.11 0 0 1-1.87-6.978 5.11 5.11 0 0 1 6.979-1.87 5.11 5.11 0 0 1 1.87 6.979zm-6.155.443a3.461 3.461 0 1 0 3.461-5.994 3.461 3.461 0 1 0-3.461 5.994z"/></g><path d="M19.197 23.379a4.51 4.51 0 1 0-4.51 7.812 4.51 4.51 0 1 0 4.51-7.812zm-7.964.61c1.82-3.153 5.852-4.233 9.005-2.413s4.233 5.852 2.413 9.005-5.852 4.233-9.004 2.413-4.233-5.852-2.413-9.005z" fill="#dddde6"/></g><use xlink:href="#B" fill="#e89d39"/><use xlink:href="#B" fill="#ffc058"/><path d="M28.667 25.31a11.58 11.58 0 0 0-2.258-8.221l-.451.781c.681 3.247.128 3.309-.146 5.792-.051.461.26.89.694 1.055.205.078.406.173.602.286a4.12 4.12 0 1 1-4.12 7.136l2.854 1.648a4.12 4.12 0 0 0 5.628-1.508c1.134-1.964-.409-4.104-1.497-5.612l-.011-.015c-.196-.113-.397-.208-.602-.286-.434-.165-.744-.594-.694-1.055z" fill="#f1933c"/><g fill-rule="evenodd"><path d="M27.609 14.18c.603-.274 1.127-.731 1.485-1.35.91-1.576.37-3.592-1.206-4.502s-3.592-.37-4.502 1.206c-.358.619-.491 1.302-.427 1.961.094.968-.347 1.835-.837 2.39-.48.543-1.366 1.178-2.497 1.039a9.93 9.93 0 0 0-7.072 1.848c-1.079.792-2.437.561-3.278-.124-.102-.083-.212-.159-.331-.228-1.182-.683-2.694-.277-3.377.905s-.278 2.694.905 3.377l21.407 12.36c1.182.683 2.694.278 3.377-.905s.277-2.694-.905-3.377a2.5 2.5 0 0 0-.363-.172c-1.014-.385-1.893-1.446-1.747-2.776a9.93 9.93 0 0 0-1.936-7.048c-.686-.91-.579-1.995-.349-2.682.235-.702.765-1.517 1.651-1.92zm.683 1.5a4.92 4.92 0 0 0 2.229-2.026c1.365-2.365.555-5.388-1.81-6.753s-5.388-.555-6.753 1.81a4.92 4.92 0 0 0-.64 2.944c.074.766-.728 1.729-1.493 1.635a11.58 11.58 0 0 0-8.248 2.155c-.374.275-.901.22-1.261-.073-.17-.138-.353-.265-.549-.378a4.12 4.12 0 1 0-4.12 7.136l21.407 12.36a4.12 4.12 0 1 0 4.12-7.136c-.196-.113-.397-.208-.602-.286-.434-.165-.744-.594-.694-1.055a11.58 11.58 0 0 0-2.258-8.221c-.463-.615-.031-1.791.669-2.11z" fill="#22222d"/><path d="M20.662 17.975c-.11.442-.557.71-.999.6-.492-.123-1.395-.213-2.387-.036-.983.175-2.007.603-2.819 1.47-.311.332-.833.349-1.165.037s-.349-.833-.037-1.165c1.113-1.187 2.493-1.744 3.732-1.965 1.23-.219 2.367-.117 3.075.059.442.11.71.557.6.999z" fill="#1d1d28"/></g></g><defs><clipPath id="A"><rect x=".766" y=".66" width="40" height="40" rx="20" fill="#fff"/></clipPath><path id="B" d="M29.208 12.619a4.92 4.92 0 0 1-2.229 2.026c-.701.319-1.133 1.495-.669 2.11a11.58 11.58 0 0 1 2.258 8.221c-.051.461.26.89.694 1.055.205.078.178.758.374.871 1.971 1.138 2.874 3.073 1.736 5.043a4.12 4.12 0 0 1-5.628 1.508L7.118 22.7a4.12 4.12 0 0 1-1.508-5.628c1.138-1.97 3.388-1.951 5.358-.813.196.113.648-.455.818-.317.36.293.886.348 1.261.073 2.367-1.739 5.33-2.514 8.248-2.155.764.094 1.567-.868 1.493-1.635a4.92 4.92 0 0 1 .64-2.944c1.365-2.365 3.565-1.748 5.93-.382 0 0 .88 1.226-.149 3.72z"/></defs></svg>