<svg xmlns="http://www.w3.org/2000/svg" width="128" height="128" fill="none" xmlns:v="https://vecta.io/nano"><path d="M97.527 61.646c1.039-.272 2.094.384 2.35 1.439l1.695 7.003c.256 1.04-.384 2.111-1.423 2.367-1.039.272-2.094-.384-2.35-1.439l-1.695-7.004c-.256-1.04.384-2.111 1.423-2.367zM44.999 10.43c-.591-.927-.32-2.127.544-2.718l5.981-3.95a1.97 1.97 0 0 1 2.702.56c.591.927.32 2.127-.544 2.718l-5.98 3.95c-.896.608-2.095.336-2.703-.56z" fill="#fff"/><path fill-rule="evenodd" d="M75.893 34.915c-6.921-1.56-14.348-.278-20.435 3.85 9.162-3.07 19.7-.943 26.991 6.428 10.266 10.378 10.266 27.279 0 37.657a25.14 25.14 0 0 1-3.998 3.294c3.758-1.295 7.308-3.406 10.298-6.428 7.259-7.338 9.385-17.939 6.378-27.188-8.374-3.303-15.231-9.619-19.234-17.613z" fill="#ffae54"/><g stroke="#ac562a" stroke-width="1.103"><path d="M119.081 94.456v.001c-16.64 30.757-54.813 41.992-85.206 25.211C3.469 102.88-7.739 64.312 8.911 33.537 19.866 13.288 40.153 1.487 61.412.579c2.821-.12 5.007 1.366 6.526 4.002 1.555 2.7 2.248 6.406 1.878 9.912a39.3 39.3 0 0 0-.217 4.13 38.72 38.72 0 0 0 4.472 18.123c-13.218-4.991-28.428.483-35.373 13.305-7.608 14.048-2.489 31.748 11.461 39.457 13.967 7.718 31.519 2.494 39.134-11.565l.001-.002c4.261-7.885 4.523-16.922 1.463-24.697 5.316 2.728 11.343 4.268 17.729 4.268a38.94 38.94 0 0 0 10.349-1.393c1.884-.519 3.905-.297 5.414.476 1.46.747 2.328 1.922 2.423 3.437.729 11.576-1.671 23.491-7.592 34.424z" fill="url(#A)"/><path d="M102.979 81.794l2.318-.814c1.635 4.657-.483 8.711-2.042 11.696l-.143.273c-.945 1.814-1.699 3.29-2.042 4.765-.539 2.33-.457 4.498.204 6.134.619 1.531 1.79 2.74 3.896 3.298 1.402.364 3.553-.17 6.384-1.918 10.899-12.904 15.868-29.156 14.904-45.116-.092-1.514-.954-2.69-2.408-3.442-1.503-.778-3.518-1.009-5.402-.501a38.93 38.93 0 0 1-10.162 1.342c-6.475 0-12.582-1.583-17.952-4.383 3.143 7.783 2.82 16.642-1.037 24.178a28.68 28.68 0 0 1-2.161 3.56c1.624-.502 3.669-1.456 6.193-3.038 3.79-2.367 8.059-.016 9.45 3.966zm0 0c1.279 3.641-.382 6.829-2.045 10.02-.915 1.756-1.83 3.513-2.256 5.347zM58.753 35.402l-.102.018-.099.027c-6.171 1.639-11.131.852-14.927-1.17-3.834-2.041-6.672-5.444-8.363-9.328-1.697-3.898-2.177-8.14-1.444-11.719.725-3.539 2.583-6.273 5.477-7.662C46.962 2.291 55.14.618 63.325.552c2.325-.019 4.169 1.265 5.427 3.522 1.287 2.309 1.805 5.432 1.342 8.334-.325 2.036-.496 4.12-.496 6.215a38.72 38.72 0 0 0 4.551 18.273c-4.918-1.908-10.251-2.406-15.397-1.493z" fill="#ac562a"/></g><circle cx="16.385" cy="49.324" fill="#ac562a" r="3.275"/><circle cx="63.867" cy="106.634" fill="#ac562a" r="3.275"/><circle cx="43.809" cy="109.499" fill="#ac562a" r="5.322"/><defs><radialGradient id="A" cx="0" cy="0" r="1" gradientUnits="userSpaceOnUse" gradientTransform="matrix(0,65.921131,-65.256914,0,63.999223,63.987041)"><stop offset=".334" stop-color="#f7b450"/><stop offset=".648" stop-color="#ffc977"/><stop offset="1" stop-color="#f90"/></radialGradient></defs></svg>