<svg xmlns="http://www.w3.org/2000/svg" width="128" height="128" xmlns:v="https://vecta.io/nano"><g fill="#7e49fc"><path d="M3.667 57.816L43.793 0l20.279 29.339-20.566 29.196H4.099c-.144 0-.144 0-.288-.144-.144 0-.144-.144-.144-.144v-.288c-.144 0 0 0 0-.144z"/><path d="M124.333 57.816L84.207 0 64.072 29.339l20.422 29.339h39.407c.144 0 .144 0 .288-.144.144 0 .144-.144.144-.144v-.288c.144-.144 0-.144 0-.288z"/></g><path d="M125.052 66.157c.144 8.054-1.438 16.108-4.458 23.587s-7.479 14.382-13.231 20.135-12.512 10.355-19.847 13.375S72.126 128 63.928 128c-8.054 0-16.108-1.582-23.587-4.746s-14.238-7.622-19.847-13.375S10.283 97.366 7.263 89.744c-2.876-7.479-4.458-15.533-4.315-23.587H41.78c0 3.02.431 5.897 1.582 8.629s2.733 5.321 4.746 7.335c2.013 2.157 4.602 3.739 7.335 4.89s5.609 1.726 8.629 1.726 5.897-.575 8.629-1.726 5.178-2.876 7.335-4.89c2.013-2.157 3.739-4.602 4.746-7.335 1.151-2.733 1.582-5.753 1.582-8.629z" fill="#06f"/></svg>