<svg xmlns="http://www.w3.org/2000/svg" width="128" height="128" viewBox="0 0 33.867 33.867" xmlns:v="https://vecta.io/nano"><g fill="#b8cbef" transform="matrix(.651032 0 0 .651032 -5759.8875 -4343.032)"><path d="M8875.05 6718.604h-3.428l.184 3.4-5.905-3.492-.12-.542c-1.922-8.63-9.163-11.127-9.237-11.15l-.798-.265-.076-.836c-.023-.252-.17-2.853 1.688-16.354 1.992-14.487 15.597-17.287 15.734-17.314l.244-.047.244.047c.137.027 13.741 2.827 15.734 17.314 1.857 13.5 1.71 16.102 1.688 16.354l-.076.836-.799.265c-.294.1-7.327 2.576-9.236 11.15l-.12.542-5.905 3.492.185-3.4z" fill="#002d56" fill-rule="evenodd"/><path d="M8875.089 6719.036h-3.526l.189 3.468-6.071-3.562-.123-.553c-1.976-8.803-9.423-11.35-9.498-11.373l-.821-.27-.078-.853c-.024-.257-.175-2.91 1.736-16.681 2.048-14.777 16.038-17.633 16.179-17.66l.25-.048.252.048c.141.028 14.13 2.884 16.179 17.66 1.91 13.77 1.758 16.425 1.735 16.681l-.077.853-.822.271c-.302.102-7.534 2.627-9.497 11.372l-.124.553-6.071 3.562z" stroke-linejoin="round" stroke="#fff" fill="#000" fill-opacity="0" stroke-width="1.024"/><g fill-rule="evenodd"><path d="M8870.164 6717.322h6.757l3.62-18.994s4.611-5.457 4.49-10.371l-8.821 2.714-1.924 7.336-.558 2.728-.726-8.663-2.585-1.4-8.45-3.235s-.417 9.905 6.544 11.213z" fill="#002d56"/><path d="M8888.042 6689.539c-1.89-13.745-14.707-16.229-14.707-16.229s-12.815 2.484-14.706 16.229-1.68 16.063-1.68 16.063 7.984 2.65 10.084 12.09l3.36 1.986-1.26-23.184s-6.723-.993-5.673-7.12l7.354 2.816.84 8.611 1.681.497 1.681-.497.84-8.611 7.354-2.816c1.05 6.128-5.672 7.12-5.672 7.12l-1.261 23.184 3.361-1.987c2.101-9.44 10.085-12.089 10.085-12.089s.21-2.318-1.681-16.063z" fill="#78848a"/><path d="M8869.243 6696.495l1.247 22.93-.01.24-.61-.36-2.132-21.779-2.46-1.497c-3.85-2.566-1.708-6.655-1.708-6.655-1.049 6.127 5.673 7.121 5.673 7.121zm-10.678.628l-.32 7.62s4.972 2.004 6.896 7.538l-1.443-7.298s-2.406.72-3.77-.882-1.363-6.978-1.363-6.978z" fill="#b0bfc6"/><path d="M8867.388 6718.697l-4.385-17.538 1.417 11.523s1.791 5.588 2.968 6.015z" fill="#002d56"/><path d="M8877.539 6696.495l-1.247 22.93.011.24.609-.36 2.133-21.779 2.46-1.497c3.849-2.566 1.706-6.655 1.706-6.655 1.05 6.127-5.672 7.121-5.672 7.121z" fill="#acbac3"/><path d="M8888.239 6697.123l.32 7.62s-4.972 2.004-6.897 7.538l1.444-7.298s2.405.72 3.77-.882 1.363-6.978 1.363-6.978z" fill="#919ea5"/><path d="M8869.632 6676.512a13.375 13.375 0 0 0-8.1 9.865c.72-.562 2.565-3.77 6.496-3.93s5.534-2.326 4.812-4.25-2.404-2.006-3.208-1.685zm-5.855 9.063s1.122-1.444 2.486-1.524-1.604 3.368-2.486 1.524z" fill="#b0bfc6"/></g></g></svg>