<svg xmlns="http://www.w3.org/2000/svg" width="128" height="128" viewBox="0 0 33.867 33.867" xmlns:v="https://vecta.io/nano"><path d="M.004 26.218c0 2.304 2.017 4.148 4.471 4.148h.436l-.109-19.1c0-.666.164-1.229.491-1.741s.818-.87 1.472-1.178c.654-.256 1.309-.358 1.908-.256s1.2.358 1.69.819l7.961 6.708.654.563c.818.666 1.254 1.024 1.254 2.099 0 .922-.382 1.741-1.036 2.355s-1.527.973-2.508.973-1.854-.358-2.508-.973-1.036-1.434-1.036-2.355c0-1.127.491-1.536 1.363-2.253.109-.102.763-.666 1.036-.87l-3.653-3.072-.654.563c-1.963 1.639-2.999 2.509-2.999 5.684 0 2.202.927 4.148 2.454 5.581s3.653 2.304 5.943 2.304c2.345 0 4.417-.87 5.943-2.304s2.454-3.431 2.454-5.581c0-3.124-1.091-4.045-2.999-5.53l-.6-.512-7.797-6.81a8.19 8.19 0 0 0-4.199-1.895c-1.527-.205-3.108-.051-4.635.614a7.67 7.67 0 0 0-3.544 2.868C.44 8.296-.05 9.73.004 11.266z" fill="#131735"/><path d="M21.974 9.775l1.019-.871c.51-.461 1.133-.717 1.756-.82s1.303 0 1.982.256c.623.256 1.133.666 1.529 1.178.34.512.566 1.076.51 1.741l-.113 19.105h.453c2.548 0 4.701-1.844 4.757-4.149V11.261c0-1.537-.453-3.022-1.303-4.2-.849-1.229-2.152-2.202-3.681-2.868-1.586-.615-3.228-.82-4.814-.615s-3.115.871-4.361 1.895l-1.019.871-1.019.871 3.794 3.073z" fill="#4ca9dc"/></svg>