<svg xmlns="http://www.w3.org/2000/svg" width="128" height="128" viewBox="0 0 33.867 33.867" xmlns:v="https://vecta.io/nano"><path d="M11.289 16.459v-4.606h3.737c1.36 0 2.687.717 2.687 2.297s-1.343 2.309-2.687 2.309zm5.644 14.184a13.7 13.7 0 0 1-9.776-4.058h4.132v-5.865h2.354l3.9 5.865h6.209l-4.561-6.632c2.258-.943 3.991-2.788 3.991-5.786 0-5.131-3.782-6.948-8.168-6.948H7.157a13.74 13.74 0 0 1 12.386-3.796 13.74 13.74 0 0 1 10.036 8.191 13.74 13.74 0 0 1-1.236 12.895 13.74 13.74 0 0 1-11.41 6.135zM3.167 16.933a13.67 13.67 0 0 1 2.76-8.286v16.516a13.67 13.67 0 0 1-2.76-8.23zM16.933 0c-3.349 0-6.623.993-9.408 2.854s-4.955 4.505-6.237 7.599-1.617 6.499-.964 9.784 2.266 6.302 4.634 8.67 5.385 3.981 8.67 4.634 6.689.318 9.784-.964 5.739-3.452 7.599-6.237 2.854-6.059 2.854-9.408c0-4.491-1.784-8.798-4.96-11.974S21.424 0 16.933 0z" fill="#ed1c24" fill-rule="evenodd"/></svg>