<?xml version="1.0" encoding="UTF-8" standalone="no"?>
<!-- Generator: Adobe Illustrator 24.0.0, SVG Export Plug-In . SVG Version: 6.00 Build 0)  -->

<svg
   version="1.1"
   id="Layer_1"
   x="0px"
   y="0px"
   viewBox="0 0 128 128"
   xml:space="preserve"
   sodipodi:docname="aave-aave-logo.svg"
   width="128"
   height="128"
   inkscape:export-filename="..\All Crypto\aave.png"
   inkscape:export-xdpi="96"
   inkscape:export-ydpi="96"
   xmlns:inkscape="http://www.inkscape.org/namespaces/inkscape"
   xmlns:sodipodi="http://sodipodi.sourceforge.net/DTD/sodipodi-0.dtd"
   xmlns:xlink="http://www.w3.org/1999/xlink"
   xmlns="http://www.w3.org/2000/svg"
   xmlns:svg="http://www.w3.org/2000/svg"><defs
   id="defs1311" /><sodipodi:namedview
   id="namedview1309"
   pagecolor="#ffffff"
   bordercolor="#000000"
   borderopacity="0.25"
   inkscape:showpageshadow="2"
   inkscape:pageopacity="0.0"
   inkscape:pagecheckerboard="0"
   inkscape:deskcolor="#d1d1d1"
   showgrid="false" />
<style
   type="text/css"
   id="style1288">
	.st0{clip-path:url(#SVGID_2_);}
	.st1{fill:url(#SVGID_3_);}
	.st2{fill:#FFFFFF;}
</style>
<g
   id="g1306"
   transform="matrix(0.16494845,0,0,0.16494845,-1.97938,-1.97938)">
	<defs
   id="defs1291"><rect
     id="SVGID_1_"
     width="800"
     height="800"
     x="0"
     y="0" /></defs>
	<clipPath
   id="SVGID_2_">
		<use
   xlink:href="#SVGID_1_"
   style="overflow:visible"
   id="use1293" />
	</clipPath>
	<g
   id="b"
   class="st0"
   clip-path="url(#SVGID_2_)">
		
			<linearGradient
   id="SVGID_3_"
   gradientUnits="userSpaceOnUse"
   x1="-597.35529"
   y1="900.6861"
   x2="-598.0993"
   y2="900.06012"
   gradientTransform="matrix(776,0,0,-776,464237,699089)">
			<stop
   offset="0"
   style="stop-color:#B6509E"
   id="stop1296" />
			<stop
   offset="1"
   style="stop-color:#2EBAC6"
   id="stop1298" />
		</linearGradient>
		<circle
   class="st1"
   cx="400"
   cy="400"
   r="388"
   id="circle1301"
   style="fill:url(#SVGID_3_)" />
		<path
   class="st2"
   d="M 569.8,554.6 438.6,237.4 C 431.2,221 420.2,213 405.7,213 h -11.6 c -14.5,0 -25.5,8 -32.9,24.4 l -57.1,138.2 h -43.2 c -12.9,0.1 -23.4,10.5 -23.5,23.5 v 0.3 c 0.1,12.9 10.6,23.4 23.5,23.5 h 23.2 l -54.5,131.7 c -1,2.9 -1.6,5.9 -1.6,9 0,7.4 2.3,13.2 6.4,17.7 4.1,4.5 10,6.7 17.4,6.7 4.9,-0.1 9.6,-1.6 13.5,-4.5 4.2,-2.9 7.1,-7.1 9.4,-11.9 l 60,-148.8 h 41.6 c 12.9,-0.1 23.4,-10.5 23.5,-23.5 v -0.6 c -0.1,-12.9 -10.6,-23.4 -23.5,-23.5 h -22.2 l 45.8,-114.1 124.8,310.4 c 2.3,4.8 5.2,9 9.4,11.9 3.9,2.9 8.7,4.4 13.5,4.5 7.4,0 13.2,-2.2 17.4,-6.7 4.2,-4.5 6.4,-10.3 6.4,-17.7 0.1,-3 -0.4,-6.1 -1.6,-8.9 z"
   id="path1303" />
	</g>
</g>
</svg>
