<?xml version="1.0" encoding="UTF-8" standalone="no"?>
<svg
   width="128"
   height="128"
   viewBox="0 0 128 128"
   fill="none"
   version="1.1"
   id="svg15"
   sodipodi:docname="ACA.0fcdc69c.svg"
   xmlns:inkscape="http://www.inkscape.org/namespaces/inkscape"
   xmlns:sodipodi="http://sodipodi.sourceforge.net/DTD/sodipodi-0.dtd"
   xmlns="http://www.w3.org/2000/svg"
   xmlns:svg="http://www.w3.org/2000/svg">
  <sodipodi:namedview
     id="namedview17"
     pagecolor="#ffffff"
     bordercolor="#000000"
     borderopacity="0.25"
     inkscape:showpageshadow="2"
     inkscape:pageopacity="0.0"
     inkscape:pagecheckerboard="0"
     inkscape:deskcolor="#d1d1d1"
     showgrid="false" />
  <path
     d="m 63.999871,126.99963 c 34.793658,0 62.999759,-28.206101 62.999759,-62.999759 0,-34.793652 -28.206101,-62.9995005 -62.999759,-62.9995005 -34.793652,0 -62.9995005,28.2058485 -62.9995005,62.9995005 0,34.793658 28.2058485,62.999759 62.9995005,62.999759 z"
     fill="#ffffff"
     stroke="#e0e0e0"
     stroke-width="2.00074"
     id="path2" />
  <path
     fill-rule="evenodd"
     clip-rule="evenodd"
     d="m 63.999359,119.17638 c 30.472174,0 55.176001,-24.701468 55.176001,-55.176202 0,-30.474734 -24.703827,-55.1760956 -55.176001,-55.1760956 -30.472175,0 -55.1759926,24.7090426 -55.1759926,55.1760956 0,30.467053 24.7012586,55.176202 55.1759926,55.176202 z m 0.225306,-5.1759 c 27.612627,0 49.994975,-22.385217 49.994975,-49.997741 0,-27.612628 -22.382348,-49.997737 -49.994975,-49.997737 -27.612626,0 -49.997736,22.374664 -49.997736,49.995176 0,27.620205 22.38511,49.997232 49.997736,49.997232 z m -0.225306,-3.83021 c 9.13136,0 18.057281,-2.70778 25.649389,-7.78024 7.592312,-5.073185 13.509372,-12.283808 17.003662,-20.719687 3.49533,-8.436188 4.40884,-17.71881 2.6279,-26.674534 C 107.49834,46.040188 103.10179,37.813946 96.645022,31.357382 90.188152,24.900512 81.961909,20.503555 73.006288,18.722099 64.050565,16.940744 54.767942,17.854976 46.331755,21.349375 37.895875,24.843672 30.685457,30.761037 25.61248,38.35335 c -5.072978,7.592107 -7.780649,16.518336 -7.780649,25.649389 6.15e-4,12.243865 4.864979,23.986115 13.523196,32.64382 8.657908,8.657091 20.400467,13.521661 32.644332,13.521661 z m 0.111424,-5.62856 c 8.039853,0 15.898949,-2.38416 22.583891,-6.850549 6.684635,-4.466699 11.895155,-10.815217 14.972326,-18.242954 3.07645,-7.427634 3.88141,-15.60093 2.31349,-23.486346 C 102.41154,48.07665 98.540669,40.833256 92.85578,35.148162 87.17089,29.462965 79.928007,25.59128 72.042796,24.022533 64.157585,22.453684 55.984392,23.258335 48.55645,26.334586 c -7.427941,3.076457 -13.776972,8.286359 -18.243978,14.970789 -4.466903,6.684737 -6.851566,14.543834 -6.852079,22.583379 0,10.781217 4.282768,21.120731 11.906111,28.744279 7.623549,7.623247 17.963062,11.906627 28.744279,11.906627 z m 0.09053,-33.779576 c -1.994474,-0.002 -3.985568,0.164167 -5.952083,0.497006 l 2.962984,-5.118858 c 0.999028,-0.06728 1.99775,-0.100877 2.989099,-0.100877 2.330691,0.0013 4.657491,0.187415 6.958689,0.556405 L 59.690682,46.731162 40.586955,79.806956 37.856651,75.0788 59.646645,37.337218 l 0.04404,0.07753 0.04404,-0.07497 26.297862,45.546707 H 80.572178 L 74.425923,72.242499 c -3.316817,-0.9936 -6.762058,-1.49337 -10.224607,-1.482925 z M 87.72258,79.884482 62.26296,35.787213 h 5.460402 l 22.72932,39.369215 z M 62.454474,57.545868 51.999542,75.661012 c 3.742134,-1.128273 8.144005,-1.632959 12.297631,-1.632959 0.336423,0 0.672847,0 1.00927,0.0131 2.358548,0.05581 4.708903,0.299759 7.028535,0.729684 l 3.488357,6.042824 c -3.691133,-1.359827 -7.592518,-2.06053 -11.526162,-2.070565 -5.731487,-0.02018 -11.377767,1.388706 -16.428009,4.099346 l 0.07763,-0.137232 -0.105996,0.18127 h -5.4603 L 59.7424,52.817813 Z"
     fill="url(#paint0_linear_221_109)"
     id="path4"
     style="fill:url(#paint0_linear_221_109);stroke-width:1.02412" />
  <defs
     id="defs13">
    <linearGradient
       id="paint0_linear_221_109"
       x1="95.017502"
       y1="111.529"
       x2="32.013802"
       y2="14.9905"
       gradientUnits="userSpaceOnUse"
       gradientTransform="matrix(1.0241199,0,0,1.0241199,-1.5437993,-1.5437993)">
      <stop
         offset="0.01"
         stop-color="#645AFF"
         id="stop6" />
      <stop
         offset="0.5"
         stop-color="#E40C5B"
         id="stop8" />
      <stop
         offset="1"
         stop-color="#FF4C3B"
         id="stop10" />
    </linearGradient>
  </defs>
</svg>
