<?xml version="1.0" encoding="UTF-8" standalone="no"?>
<!-- Created with Inkscape (http://www.inkscape.org/) -->

<svg
   width="127.99999"
   height="127.99999"
   viewBox="0 0 33.866664 33.866664"
   version="1.1"
   id="svg577"
   inkscape:export-filename="ncash.svg"
   inkscape:export-xdpi="96"
   inkscape:export-ydpi="96"
   sodipodi:docname="cly.svg"
   xmlns:inkscape="http://www.inkscape.org/namespaces/inkscape"
   xmlns:sodipodi="http://sodipodi.sourceforge.net/DTD/sodipodi-0.dtd"
   xmlns="http://www.w3.org/2000/svg"
   xmlns:svg="http://www.w3.org/2000/svg">
  <sodipodi:namedview
     id="namedview579"
     pagecolor="#ffffff"
     bordercolor="#000000"
     borderopacity="0.25"
     inkscape:showpageshadow="2"
     inkscape:pageopacity="0.0"
     inkscape:pagecheckerboard="0"
     inkscape:deskcolor="#d1d1d1"
     inkscape:document-units="mm"
     showgrid="false" />
  <defs
     id="defs574" />
  <g
     inkscape:label="Layer 1"
     inkscape:groupmode="layer"
     id="layer1">
    <circle
       style="fill:#4446ef;fill-opacity:1;stroke:none;stroke-width:0;stroke-linecap:butt;stroke-linejoin:bevel;stroke-dasharray:none;stroke-opacity:1;paint-order:fill markers stroke"
       id="path800"
       cx="16.933332"
       cy="16.933332"
       r="16.933332" />
    <path
       d="m 16.932905,30.162436 h -0.0096 c -0.11074,7.22e-4 -0.219444,-0.03 -0.313592,-0.08819 l -4.135487,-2.087273 c -0.160778,-0.08133 -0.283703,-0.221852 -0.342963,-0.391974 -0.06241,-0.177296 -0.04822,-0.372569 0.03919,-0.538965 0.07563,-0.167222 0.21774,-0.295148 0.391976,-0.352777 0.178778,-0.05822 0.373618,-0.04052 0.538966,0.049 l 3.135794,1.587496 v -3.743355 c 0,-0.391977 0.303777,-0.695758 0.695754,-0.695758 0.391977,0 0.685957,0.294 0.685957,0.685958 v 3.753155 l 3.155394,-1.587496 c 0.341518,-0.16563 0.752847,-0.03148 0.930939,0.303777 0.166592,0.352777 0.02926,0.76435 -0.303777,0.930939 l -4.135329,2.087262 c -0.100852,0.05944 -0.216111,0.08996 -0.333184,0.08819 z m 6.918352,-3.478774 c -0.266258,-0.0019 -0.508821,-0.153444 -0.627161,-0.391974 -0.16563,-0.341517 -0.03148,-0.75285 0.303777,-0.930938 l 2.920208,-1.469905 -2.920208,-1.460108 c -0.164481,-0.0793 -0.291185,-0.220073 -0.352777,-0.391973 -0.05941,-0.178629 -0.04167,-0.373966 0.049,-0.538966 0.07563,-0.167184 0.21774,-0.29511 0.391977,-0.352777 0.178777,-0.05822 0.373617,-0.04052 0.538965,0.049 l 3.155394,1.567901 v -3.743359 c 0,-0.391973 0.293999,-0.685954 0.685954,-0.685954 0.391973,0 0.685954,0.293962 0.685954,0.685954 v 4.860486 c 0.0096,0.098 0,0.196 -0.049,0.293999 l -0.02926,0.03919 c -0.06107,0.129036 -0.164963,0.232925 -0.294,0.293999 l -4.154928,2.087266 c -0.0913,0.05659 -0.19637,0.08711 -0.303777,0.08819 z m -13.836701,0 c -0.1049245,-0.0015 -0.2084065,-0.02482 -0.3037765,-0.06859 L 5.5754465,24.527803 C 5.4457611,24.464248 5.3394503,24.361359 5.2716652,24.233804 l -0.029407,-0.049 c -0.045389,-0.09133 -0.068874,-0.192 -0.068596,-0.293962 v -4.870287 c 0,-0.391973 0.3037809,-0.685954 0.6859553,-0.685954 0.391975,0 0.695755,0.293963 0.695755,0.685954 v 3.743359 l 3.155393,-1.587496 c 0.3440735,-0.164148 0.7562985,-0.02519 0.9309385,0.313592 0.166592,0.342962 0.01963,0.76435 -0.303777,0.930942 l -2.9202115,1.469904 2.9202115,1.469905 c 0.160777,0.08133 0.283702,0.221851 0.342962,0.391973 0.06241,0.177296 0.04822,0.372566 -0.03918,0.538966 -0.114703,0.241814 -0.359555,0.394851 -0.627158,0.391973 z m 6.918349,-6.271591 c -0.182518,5.07e-4 -0.358147,-0.06974 -0.489966,-0.196 -0.128036,-0.130666 -0.198592,-0.307036 -0.195999,-0.489969 V 15.972958 L 12.474196,14.08168 c -0.436714,-0.223703 -0.51741,-0.813798 -0.156778,-1.146523 0.208148,-0.191629 0.514599,-0.230888 0.76435,-0.098 l 3.851148,1.920674 3.841351,-1.930474 c 0.341518,-0.165629 0.752847,-0.03148 0.930939,0.303777 0.166592,0.352777 0.02926,0.764351 -0.303777,0.930939 l -3.772751,1.910874 v 3.743359 c 0.007,0.284925 -0.165519,0.54358 -0.431174,0.646758 -0.08415,0.03333 -0.174036,0.05004 -0.264592,0.049 z m 11.073281,-4.870282 c -0.187296,4.59e-4 -0.367111,-0.07356 -0.49977,-0.205778 -0.128036,-0.130666 -0.198592,-0.307036 -0.195999,-0.489969 v -3.743355 l -3.155394,1.587496 c -0.343703,0.169815 -0.760017,0.02963 -0.930942,-0.313592 -0.16563,-0.341517 -0.03148,-0.752846 0.303777,-0.930938 l 2.920227,-1.4699051 -2.920209,-1.450304 c -0.164666,-0.08593 -0.288184,-0.234111 -0.342962,-0.411573 -0.05959,-0.17437 -0.04541,-0.365481 0.03918,-0.529166 0.186185,-0.342962 0.587962,-0.489969 0.930943,-0.293999 l 4.135328,2.077466 c 0.129704,0.06356 0.236,0.166444 0.303777,0.293999 l 0.02926,0.03918 c 0.05126,0.08556 0.07518,0.184667 0.06859,0.284185 v 4.8604821 c 0.0048,0.183333 -0.066,0.360592 -0.196,0.48997 -0.130666,0.128036 -0.307036,0.198629 -0.489969,0.195999 z m -22.1465585,0 c -0.1839,-0.0021 -0.3597068,-0.07596 -0.4899681,-0.205778 C 5.2416079,15.205345 5.1710525,15.028975 5.173671,14.846042 V 9.9757589 c 0,-0.098 0.00981,-0.195999 0.058796,-0.293999 l 0.029407,-0.03918 c 0.061059,-0.129037 0.1649478,-0.232926 0.2939815,-0.293962 l 4.154928,-2.087266 c 0.3411095,-0.171222 0.7564755,-0.03556 0.9309385,0.303777 0.166592,0.352777 0.01963,0.76435 -0.303777,0.930938 l -2.9202125,1.479705 2.9202125,1.4601041 c 0.160777,0.08133 0.283703,0.221852 0.342962,0.391977 0.06241,0.177296 0.04822,0.372566 -0.03918,0.538966 -0.186185,0.342962 -0.597758,0.489965 -0.9309385,0.323369 l -3.155394,-1.587496 v 3.743355 c 0.0037,0.183111 -0.067,0.359925 -0.195988,0.489969 -0.130655,0.128037 -0.307044,0.198629 -0.489968,0.196 z M 16.932905,9.9659479 c -0.282444,-0.0013 -0.536914,-0.170925 -0.646758,-0.431169 -0.03407,-0.08404 -0.05055,-0.174 -0.049,-0.264592 v -3.743355 l -3.155393,1.587496 c -0.343851,0.161852 -0.75394,0.01778 -0.921139,-0.323369 -0.164148,-0.344074 -0.02518,-0.756295 0.313592,-0.930939 l 4.135332,-2.087263 c 0.098,-0.049 0.196,-0.06859 0.313592,-0.06859 h 0.0096 c 0.107408,0.0011 0.212482,0.03148 0.303778,0.08818 l 4.145132,2.087266 c 0.161407,0.08048 0.284629,0.221296 0.342962,0.391973 0.06122,0.177444 0.04707,0.372244 -0.03918,0.538966 -0.07563,0.167185 -0.21774,0.29511 -0.391977,0.352777 -0.178777,0.05822 -0.373618,0.04052 -0.538966,-0.049 l -3.135793,-1.587497 v 3.743355 c 0.007,0.284926 -0.165518,0.543585 -0.431173,0.646758 -0.08422,0.03333 -0.174074,0.04978 -0.264592,0.049 z"
       style="fill:#ffffff;fill-opacity:1;stroke-width:0.979935"
       id="path3210" />
  </g>
</svg>
