<?xml version="1.0" encoding="UTF-8" standalone="no"?>
<!-- Created with Inkscape (http://www.inkscape.org/) -->

<svg
   width="127.99999"
   height="127.99999"
   viewBox="0 0 33.866664 33.866664"
   version="1.1"
   id="svg577"
   inkscape:export-filename="regen.svg"
   inkscape:export-xdpi="96"
   inkscape:export-ydpi="96"
   xmlns:inkscape="http://www.inkscape.org/namespaces/inkscape"
   xmlns:sodipodi="http://sodipodi.sourceforge.net/DTD/sodipodi-0.dtd"
   xmlns="http://www.w3.org/2000/svg"
   xmlns:svg="http://www.w3.org/2000/svg">
  <sodipodi:namedview
     id="namedview579"
     pagecolor="#ffffff"
     bordercolor="#000000"
     borderopacity="0.25"
     inkscape:showpageshadow="2"
     inkscape:pageopacity="0.0"
     inkscape:pagecheckerboard="0"
     inkscape:deskcolor="#d1d1d1"
     inkscape:document-units="mm"
     showgrid="false" />
  <defs
     id="defs574" />
  <g
     inkscape:label="Layer 1"
     inkscape:groupmode="layer"
     id="layer1">
    <circle
       style="fill:#000000;fill-opacity:1;stroke-width:0;stroke-linejoin:bevel;stroke-opacity:0.684597"
       id="path800"
       cx="16.933332"
       cy="16.933332"
       r="16.933332" />
    <path
       d="m 5.2918835,26.722918 c -0.016542,-0.330806 -0.02205,-0.661612 -0.00549,-0.992418 0.110268,-0.03308 0.2205368,-0.05513 0.3363191,-0.07168 0.3308049,-0.05513 0.6616107,-0.137836 0.9813897,-0.231563 0.088218,-0.02757 0.1764297,-0.06065 0.2646449,-0.09373 0.4245336,-0.165403 0.7994466,-0.441074 1.0861452,-0.793933 0.1984832,-0.248105 0.3693995,-0.518262 0.5182622,-0.799448 0.2095101,-0.38594 0.3914532,-0.78842 0.5568561,-1.196414 0.3308058,-0.827014 0.6616115,-1.648515 0.9869043,-2.47553 1.124739,-2.844928 2.249478,-5.689858 3.374218,-8.534787 1.064092,-2.7070921 2.111643,-5.4141854 3.137141,-8.1378192 0.02205,-0.055134 0.04411,-0.1102689 0.06616,-0.1654029 0.380427,-0.1047555 0.749826,-0.2150235 1.135766,-0.319779 0.02205,0.055134 0.04411,0.1047555 0.06065,0.1543761 0.435561,1.2129542 0.871122,2.4259084 1.301169,3.644376 1.483112,4.140584 2.966225,8.275656 4.487931,12.3997 0.419021,1.124739 0.838042,2.254993 1.262575,3.379732 0.165403,0.457614 0.363886,0.909716 0.589938,1.339763 0.09924,0.187456 0.203996,0.363886 0.319779,0.540317 0.352859,0.551342 0.898688,0.942795 1.532732,1.108198 0.341832,0.08822 0.683666,0.15989 1.036525,0.203997 l 0.248104,0.03859 c 0.03308,0.110269 0.01654,0.215023 0.01654,0.319779 0,0.104755 0,0.22605 0,0.336319 0.0055,0.110269 0,0.215024 -0.0055,0.325293 -0.03308,0.0055 -0.06065,0.01103 -0.09373,0.01654 -0.03859,0 -0.07718,0 -0.115781,0 h -8.606461 c -0.01103,-0.01654 -0.01654,-0.03859 -0.02205,-0.06065 0,-0.297726 0,-0.59545 0,-0.893176 0,-0.01103 0.0055,-0.02757 0.01103,-0.03859 0.07168,-0.02205 0.143349,-0.03308 0.220538,-0.04411 0.358373,-0.04962 0.711232,-0.115782 1.064092,-0.20951 0.137835,-0.03859 0.281185,-0.08822 0.413506,-0.143349 0.06616,-0.02757 0.132323,-0.06065 0.198484,-0.09924 0.347346,-0.19297 0.485181,-0.496208 0.452101,-0.882149 -0.01654,-0.176429 -0.04411,-0.347346 -0.09373,-0.518262 -0.07167,-0.264639 -0.165393,-0.523771 -0.253608,-0.777388 -1.808405,-5.044787 -3.594756,-10.095087 -5.364567,-15.1564138 -0.01654,-0.055134 -0.02757,-0.1157821 -0.0827,-0.1654027 -0.01654,0.011025 -0.04411,0.02205 -0.05513,0.033084 -0.01654,0.027567 -0.02757,0.055134 -0.03308,0.082701 -0.865608,2.4865545 -1.78635,4.9565715 -2.70158,7.4210735 -0.678151,1.824945 -1.356303,3.655404 -1.984833,5.496888 -0.253619,0.7388 -0.496209,1.483113 -0.733287,2.227425 -0.09373,0.286699 -0.15989,0.578911 -0.203997,0.871123 -0.03308,0.198483 -0.03859,0.396967 -0.01654,0.600963 0.02757,0.259132 0.165403,0.496209 0.380426,0.650585 0.137836,0.09924 0.292212,0.17643 0.457615,0.231564 0.259131,0.09373 0.523776,0.159889 0.793934,0.203996 0.297725,0.05513 0.59545,0.09924 0.898689,0.14335 0.02205,0.0055 0.03859,0.0055 0.06616,0.01103 0.0055,0.02205 0.01103,0.04411 0.01654,0.06616 0,0.286698 0,0.578909 0,0.865608 0,0.01654 -0.0055,0.03308 -0.01103,0.04962 -0.02757,0.0055 -0.05513,0.01103 -0.0827,0.01103 -0.03859,0 -0.07719,0 -0.115782,0 z"
       id="path6058"
       style="fill:#ffffff;fill-opacity:1;stroke-width:0.0551342" />
  </g>
</svg>
