<?xml version="1.0" encoding="UTF-8" standalone="no"?>
<!-- Generator: Adobe Illustrator 26.0.1, SVG Export Plug-In . SVG Version: 6.00 Build 0)  -->

<svg
   version="1.1"
   id="Layer_1"
   x="0px"
   y="0px"
   viewBox="0 0 128 128"
   xml:space="preserve"
   sodipodi:docname="apecoin-ape-ape-logo.svg"
   width="128"
   height="128"
   inkscape:export-filename="..\All Crypto\ape.png"
   inkscape:export-xdpi="96"
   inkscape:export-ydpi="96"
   xmlns:inkscape="http://www.inkscape.org/namespaces/inkscape"
   xmlns:sodipodi="http://sodipodi.sourceforge.net/DTD/sodipodi-0.dtd"
   xmlns:xlink="http://www.w3.org/1999/xlink"
   xmlns="http://www.w3.org/2000/svg"
   xmlns:svg="http://www.w3.org/2000/svg"><defs
   id="defs932" /><sodipodi:namedview
   id="namedview930"
   pagecolor="#ffffff"
   bordercolor="#000000"
   borderopacity="0.25"
   inkscape:showpageshadow="2"
   inkscape:pageopacity="0.0"
   inkscape:pagecheckerboard="0"
   inkscape:deskcolor="#d1d1d1"
   showgrid="false" />
<style
   type="text/css"
   id="style793">
	.st0{fill:url(#SVGID_1_);}
	.st1{fill:#FFFFFF;}
	.st2{clip-path:url(#SVGID_00000044141760761020611380000014920724805358450861_);}
	.st3{opacity:0.8;}
	
		.st4{opacity:0.8;fill:none;stroke:url(#SVGID_00000137132198576349032230000016209738196934323592_);stroke-width:1.0554;stroke-miterlimit:10;enable-background:new    ;}
	
		.st5{opacity:0.8;fill:none;stroke:url(#SVGID_00000006687254865981556760000000530147127117927586_);stroke-width:1.0554;stroke-miterlimit:10;enable-background:new    ;}
	
		.st6{opacity:0.8;fill:none;stroke:url(#SVGID_00000035517379965928027430000010010271205085670824_);stroke-width:0.9894;stroke-miterlimit:10;enable-background:new    ;}
	
		.st7{opacity:0.8;fill:none;stroke:url(#SVGID_00000080917806582070322240000003155992228992681353_);stroke-width:0.9235;stroke-miterlimit:10;enable-background:new    ;}
	
		.st8{opacity:0.8;fill:none;stroke:url(#SVGID_00000167363094587770395830000008658354487576327589_);stroke-width:0.8575;stroke-miterlimit:10;enable-background:new    ;}
	
		.st9{opacity:0.8;fill:none;stroke:url(#SVGID_00000005988563050017086460000007686233232170268041_);stroke-width:0.8575;stroke-miterlimit:10;enable-background:new    ;}
</style>
<g
   id="Layer_3"
   transform="scale(0.68965517)">
	
		<radialGradient
   id="SVGID_1_"
   cx="-109.7066"
   cy="-1.1131001"
   r="1.0001"
   gradientTransform="matrix(0,104.235,-104.235,0,-23.2204,11537.763)"
   gradientUnits="userSpaceOnUse">
		<stop
   offset="0.1667"
   style="stop-color:#073183"
   id="stop795" />
		<stop
   offset="1"
   style="stop-color:#0054F9"
   id="stop797" />
	</radialGradient>
	<path
   class="st0"
   d="M 185.6,92.8 C 185.6,41.5 144,0 92.8,0 41.5,0 0,41.5 0,92.8 c 0,51.2 41.5,92.8 92.8,92.8 51.2,0 92.8,-41.6 92.8,-92.8 z"
   id="path800"
   style="fill:url(#SVGID_1_)" />
</g>
<g
   id="Layer_1_00000019678216197568292700000009484231850298271916_"
   transform="scale(0.68965517)">
	<path
   class="st1"
   d="m 155.9,63.8 c -0.4,2.3 -0.8,3.4 -1.4,4.6 v 0 c -0.6,1.4 -1.2,2.9 -1.8,6.1 -0.2,1.2 -0.4,2.2 -0.5,3 v 0.1 0 c -0.2,1.3 -0.3,2.2 -0.8,3.7 -0.4,1.3 -1.1,3.4 -2.8,5.6 -1.4,1.8 -3.7,4.9 -6.8,5.3 -0.3,0 -0.8,0 -1.1,-0.1 -8.8,-4.5 -16.3,-7.8 -18.9,-8.5 -3,-0.9 -2.6,-7.5 -2.3,-13.3 0.2,-2.6 0.3,-5.1 0.2,-7.2 -0.4,-7.4 -1.7,-15.4 -8.1,-19.3 -3.8,-2.3 -8.8,-3 -13.5,-3 0.9,-0.4 1.8,-1 2.9,-1.6 v 0 c 2.8,-1.6 6.2,-3.6 9.7,-4 1.1,-0.1 2.2,-0.2 3.3,-0.4 6.9,-0.8 12.9,-1.5 19.2,0.7 2.9,1 8.7,4.2 10.2,7.3 1.1,2.1 2.9,3.8 6.4,7.1 1.9,1.7 3.1,2.7 4,3.5 v 0 c 1.3,1 1.5,1.3 1.9,2 1.2,2.4 0.8,4.9 0.2,8.4 z"
   id="path803" />
	<path
   class="st1"
   d="m 124,94.1 c 0.4,0.1 0.6,0.6 0.3,1 -0.9,1.4 -2,3.4 -3.3,5.7 -0.6,1.1 -1.2,2.2 -1.7,3 -1.7,2.9 -1.8,5.4 -1.9,7.3 -0.1,2.1 -0.2,3 -1.5,3.8 -1,0.7 -2.1,0.9 -9.3,2 -1.3,0.2 -1.8,0.4 -2.3,0.7 -0.1,0.1 -0.3,0.1 -0.4,0.2 -0.4,0.2 -0.8,-0.2 -0.8,-0.6 0.1,-1 0.1,-2.3 0.1,-4 v -0.3 c 0,-1.4 0,-2.6 -0.1,-3.5 -0.1,-1.8 -0.1,-2.6 0.4,-3.4 0.6,-1 1.1,-1.3 1.8,-1.8 1.1,-0.7 2.6,-1.6 4.7,-4.6 1.2,-1.6 1.4,-2.5 1.6,-3.2 0.1,-0.3 0.1,-0.4 1,-1.1 0.9,-0.7 3.8,-2.9 7.5,-2.3 1.2,0.2 2.5,0.6 3.9,1.1 z"
   id="path805" />
	<path
   class="st1"
   d="m 95.3,127.3 c -0.2,0.2 -0.3,0.3 -0.6,0.3 -0.8,0 -1.3,-0.2 -1.6,-0.6 -0.7,-0.9 -0.6,-2.7 -0.5,-3.8 l 3.1,-0.8 c 0.2,1.7 0.3,4 -0.4,4.9 z"
   id="path807" />
	<path
   class="st1"
   d="m 95.5,116.3 c -0.1,0.4 -0.1,0.9 -0.1,1.5 0,0.2 0,0.4 0,0.6 0,0.5 0,1.3 0,1.7 -1,0.3 -1.8,0.3 -2.8,0.3 0,-0.3 0,-0.8 0,-1.1 0,-0.2 0,-0.5 0,-0.7 0,-0.3 0,-0.5 0,-0.8 0,-0.6 0,-1.5 0.1,-1.8 0.3,0 0.6,-0.1 0.9,-0.2 0.6,-0.1 1.5,-0.3 2,-0.2 0,0.2 0,0.5 -0.1,0.7 z"
   id="path809" />
	<path
   class="st1"
   d="m 89.9,126.4 c -0.1,1.6 -0.6,3.5 -2.1,3.8 -0.7,0.1 -1,-0.1 -1.2,-0.3 -1,-0.9 -1.1,-3.7 -1,-5.7 0.7,0 1.5,-0.1 2.5,-0.3 0.6,-0.1 1.2,-0.3 1.7,-0.4 0.1,0.8 0.2,1.8 0.1,2.9 z"
   id="path811" />
	<path
   class="st1"
   d="m 89.2,120.8 -3.3,1.2 c 0.2,-1.3 0.4,-3.1 0.5,-4.3 0.1,-0.8 0.3,-1.1 0.4,-1.2 0,0 0.1,-0.1 0.2,-0.1 0,0 0,0 0.1,0 h 0.1 l 2.1,-0.1 c -0.1,1 -0.1,3.2 -0.1,4.5 z"
   id="path813" />
	<path
   class="st1"
   d="m 83.8,119.8 c -0.2,0.5 -0.4,1.9 -0.5,2.9 l -4.1,-0.1 c 0.2,-1.3 0.6,-2.6 0.9,-3.6 0.4,-1 0.7,-1.8 1.1,-2 0.4,-0.2 1.3,-0.3 1.9,0.2 0.9,0.6 1.1,1.5 0.7,2.6 z"
   id="path815" />
	<path
   class="st1"
   d="m 82.3,132.5 c -0.3,0.4 -0.7,0.7 -1.1,0.7 -0.5,0.1 -0.8,-0.1 -1.1,-0.3 -1.3,-1.2 -1.2,-5.1 -1.1,-7 1.7,-0.4 3.6,-0.7 4.5,-0.8 0,1.5 0.1,5.6 -1.2,7.4 z"
   id="path817" />
	<path
   class="st1"
   d="m 76.9,122.4 c -0.2,0.5 -0.4,1 -0.5,1.5 -0.5,0.2 -2,0 -3.5,-0.3 l 1,-6.5 c 1.7,-0.5 3.7,-0.6 4.1,-0.1 0.7,0.7 -0.6,4 -1.1,5.4 z"
   id="path819" />
	<path
   class="st1"
   d="m 75,133.4 c -0.8,1 -2,1.5 -3.7,1.4 -1.2,0 -1.6,-0.5 -1.8,-0.8 -0.9,-1.5 0,-5 0.9,-7.2 l 5.6,0.3 c 0.1,0.4 0.1,0.9 0.1,1.4 0.1,1.7 -0.1,3.7 -1.1,4.9 z"
   id="path821" />
	<path
   class="st1"
   d="m 121.4,86.1 c -5.1,-1.4 -4.6,-8.8 -4.2,-16 0.1,-2.5 0.3,-4.9 0.2,-6.9 -0.4,-6.7 -1.5,-14 -6.9,-17.3 -5.8,-3.5 -15.3,-2.7 -21.1,-2 v 0 0 c -2.1,0.6 -4.1,1.1 -5.7,1 -3.4,-0.2 -6.1,-1.6 -8.5,-2.9 -1.8,-1 -3.4,-1.9 -5,-1.9 -0.1,0 -0.2,0 -0.2,0 -4.5,0.3 -6.6,1.4 -8.5,3.1 -0.5,0.4 -1.1,1.6 -3,7.1 -1,2.8 -1.1,4.3 -1.3,5.7 -0.2,1.3 -0.3,2.7 -1,4.8 -0.5,1.4 -0.9,2.6 -1.2,3.8 -0.9,3.1 -1.7,5.6 -3.9,8.6 -0.3,0.3 -0.6,0.9 -1,1.4 -0.5,0.8 -1.1,1.8 -2,2.9 -0.6,0.8 -1.9,3.8 -1.8,4.7 0.1,1.5 0.6,2.4 1.1,3.4 0.5,1 1.2,2.2 1.3,3.9 v 0.3 c 0.2,2.6 -0.2,3.9 -5.1,8.3 -3.1,2.8 -5.4,5.5 -6.9,7.5 -0.1,0.2 0,0.4 0.3,0.4 0.1,0 0.1,0 0.1,0 0.1,0 0.2,0 0.3,0 0.1,0 0.2,0 0.3,0 0.1,0 0.2,0 0.3,0 1.2,0.1 2.4,0.6 3.2,1.5 0.1,0.2 0.4,0.2 0.6,0.1 0.8,-0.3 1.7,-0.3 2.5,-0.2 1,0.1 2.1,0.4 2.8,1.1 0.2,0.2 0.5,0.3 0.8,0.2 0.8,-0.2 1.7,-0.2 2.5,0.1 0.6,0.2 1.2,0.6 1.6,1.1 0.3,0.3 0.8,0.4 1.2,0.2 0.2,-0.1 0.5,-0.3 0.8,-0.4 1.1,-0.4 2.3,-0.2 3.3,0.2 0.5,0.2 1,0.3 1.5,0.7 0.8,0.6 1.4,1.4 1.7,2.3 0.2,0.5 0.9,0.7 1.3,0.3 0.8,-0.6 1.4,-0.7 2,-0.5 0.3,0.1 0.5,0.3 0.7,0.6 0.3,0.4 0.8,0.8 1.2,0.6 1.7,-0.5 3.7,-0.2 5.2,0.6 0.5,0.3 1.1,0.7 1.4,1.3 v 0 0 -0.3 c 0,-0.1 0.1,-0.2 0.2,-0.3 l 0.3,-0.1 c 0.8,-0.3 5,-1.5 6.6,0.2 0.1,0.1 0.2,0.1 0.3,0 0.2,-0.2 0.4,-0.4 0.5,-0.4 1.1,-0.6 2.9,-0.7 4.1,0.4 0.2,0.2 0.6,0.1 0.8,-0.1 0.1,-0.2 0.2,-0.3 0.4,-0.4 0.4,-0.4 1,-0.5 1.6,-0.5 l 2.3,-0.1 c 0.6,0 2.4,-0.2 2.9,-0.3 h 0.1 c 0.2,0 0.5,-0.1 0.8,-0.2 1.1,-0.2 2.4,-0.5 3.4,0 1,0.5 0.9,1.6 0.8,2.6 0,0.4 -0.1,0.8 -0.1,1.2 0,0.2 0,0.4 0,0.6 0,0.9 0,1.7 -0.1,2.3 v 0 0 l 0.1,0.5 c 0,0 0,0 0,0.1 0.1,0.4 0.6,0.7 0.9,0.4 0.8,-0.5 1.6,-1.1 1.9,-1.5 v -0.1 c 0,-0.1 0.1,-0.3 0.2,-0.7 0.1,-0.9 0.3,-2.6 0.3,-6.1 0,-0.2 0,-0.3 0,-0.4 0,-1.3 0,-2.4 -0.1,-3.3 -0.1,-1.9 -0.2,-3.4 0.8,-4.9 0.9,-1.5 1.8,-2 2.7,-2.6 1,-0.6 2.1,-1.3 4,-3.9 0.9,-1.3 1,-1.8 1.1,-2.2 0.2,-1 0.5,-1.6 2,-2.6 1.2,-0.9 4.7,-3.6 9.5,-2.8 1.6,0.3 4.1,1.1 6.7,2.1 v 0 0 c 0.1,0 0.2,0.1 0.3,0.1 h 0.1 c 2.3,0.9 4.4,1.9 5.9,2.7 0.3,0.2 0.7,0.1 1,-0.2 0.5,-0.6 1,-0.9 1.5,-1.3 0.2,-0.1 0.4,-0.2 0.5,-0.3 0.1,0 0.1,-0.1 0.1,-0.1 0.4,-0.3 0.4,-1.1 -0.1,-1.3 -6.7,-3.3 -13.1,-5.3 -15.2,-5.9 z M 73.2,87.6 C 71.6,94.4 61,102 56.2,102 h -0.1 c -0.1,0 -0.2,0 -0.2,0 -0.1,0 -0.2,0 -0.3,-0.1 -0.1,0 -0.1,0 -0.2,0 -0.9,-0.3 -2.1,-0.9 -3,-1.8 -0.6,-0.6 -1.1,-1.4 -1.3,-2.1 0,-0.1 -0.1,-0.3 -0.1,-0.4 -0.3,-1.2 -0.6,-2.6 0.4,-5 0.1,-0.3 0.3,-0.6 0.4,-0.9 0,-0.1 0.1,-0.2 0.1,-0.3 0.1,-0.3 0.2,-0.5 0.3,-0.7 0.1,-0.4 0.3,-0.7 0.4,-0.9 0,-0.1 0.1,-0.2 0.1,-0.3 0.3,-0.8 0.3,-1.1 0.4,-1.4 0,-0.2 0.1,-0.6 0.2,-1 0.3,-1.3 0.5,-2.4 0.6,-3.3 0.2,-1.7 0.5,-3.2 1.4,-4.6 0.2,-0.2 0.3,-0.4 0.5,-0.6 0.1,-0.1 0.1,-0.1 0.2,-0.2 0.1,-0.1 0.1,-0.1 0.2,-0.2 0.2,-0.2 0.5,-0.3 0.7,-0.4 0.1,0 0.2,-0.1 0.3,-0.1 0.2,-0.1 0.4,-0.1 0.6,-0.2 0.9,-0.2 1.9,-0.2 3.1,-0.1 1.3,0.1 2.5,0.3 3.5,0.6 0.9,0.2 1.7,0.5 2.3,0.8 0.1,0 0.1,0.1 0.2,0.1 0.1,0.1 0.2,0.1 0.4,0.2 0.2,0.1 0.3,0.1 0.5,0.2 0.2,0.1 0.4,0.2 0.6,0.3 l 0.2,0.1 c 0.7,0.3 1.4,0.7 1.9,1.1 0.3,0.2 0.5,0.4 0.7,0.6 0.1,0.1 0.2,0.1 0.2,0.2 0.1,0.1 0.1,0.1 0.2,0.2 2.1,1.8 2,4.3 1.6,5.8 z m 5,-25.9 -0.2,1.2 c -0.5,2.8 -1.6,6.6 -5.6,7.6 -3.9,0.9 -4.8,1.1 -7.5,1.3 -0.1,0 -0.1,0 -0.2,0 -2,0 -5.9,-1.3 -6.6,-4.4 -0.4,-2 0.5,-3.5 1.9,-5.9 0.2,-0.4 0.5,-0.8 0.8,-1.3 2,-3.3 2.7,-5.7 3.3,-7.6 0.6,-1.9 1.1,-3.4 2.4,-4.7 0.3,-0.3 0.6,-0.6 1,-0.8 0.2,-0.2 0.5,-0.3 0.8,-0.5 0.4,-0.2 0.8,-0.3 1.2,-0.5 0.9,-0.3 1.9,-0.4 2.8,-0.4 1.9,0 3.8,0.5 5.1,1.6 0.6,0.5 1.5,1.4 2,4.3 0.2,1.5 -0.2,4.2 -1.2,10.1 z m 28.7,8 c -1.4,2.4 -2.1,3.7 -3.3,4.7 -2.4,2 -5.1,2.4 -7.4,2.4 -1.6,0 -3,-0.3 -3.9,-0.4 C 89.9,76 85.6,75.2 84.1,71.7 83.8,71 83.8,70.6 83.8,70 c 0,-0.5 0,-1.5 -0.3,-3.6 v -0.1 c -0.1,-1 -0.2,-2.1 0,-3.5 v -0.2 c 0.8,-4.2 1.1,-4.8 1.2,-5.2 0.4,-0.8 1.4,-1.2 2.3,-0.7 0.8,0.4 1.1,1.4 0.8,2.2 -0.1,0.2 -0.3,1.1 -1,4.4 v 0.2 c -0.2,0.9 -0.1,1.6 0,2.5 v 0.1 c 0.3,2.4 0.3,3.4 0.3,4 0,0.1 0,0.2 0,0.3 v 0.1 c 0.3,0.7 0.9,1.1 1.6,1.5 0.5,0.2 1,-0.2 0.9,-0.7 -0.7,-3.7 -0.7,-8 0.7,-10.7 0.5,-0.9 1.3,-2.3 2.1,-3.7 v 0 0 c 0.1,-0.1 0.2,-0.3 0.2,-0.4 0.1,-0.1 0.1,-0.2 0.2,-0.3 0.4,-0.6 0.7,-1.1 1,-1.6 0,-0.1 0.1,-0.1 0.1,-0.2 L 94,54.3 c 0.1,-0.1 0.1,-0.2 0.2,-0.3 0,0 0,-0.1 0.1,-0.1 v 0 l 0.1,-0.1 c 0,-0.1 0.1,-0.1 0.1,-0.2 v 0 0 0 c 0.3,-0.4 0.6,-0.8 0.8,-1.2 0.4,-0.5 -0.1,-1.1 -0.6,-0.9 -1.4,0.6 -2.3,1.3 -2.5,1.4 -0.7,0.6 -1.8,0.5 -2.4,-0.3 -0.6,-0.7 -0.5,-1.8 0.3,-2.4 0.9,-0.7 5.5,-4 11,-2.5 4,1.1 6,4.2 6.8,5.3 0.6,0.9 2.6,3.7 2.5,7.7 0,2.9 -1.2,5.1 -3.5,9 z"
   id="path823" />
	<path
   class="st1"
   d="m 71.1,49.2 c -0.3,0.7 -0.6,1.5 -1,2.4 -0.8,2.1 -1.8,4.5 -2.3,5.4 -0.8,1.5 -1.4,2.5 -1.9,3.2 -0.6,0.9 -1,1.6 -1.4,2.6 -0.6,1.7 -0.7,3.6 -0.3,5.7 -1.1,-0.1 -2.8,-0.8 -3,-1.8 -0.1,-0.7 0.3,-1.4 1.5,-3.5 0.2,-0.4 0.5,-0.9 0.8,-1.3 2.1,-3.6 3,-6.3 3.6,-8.3 0.7,-2.1 1,-3 2.1,-3.8 0.7,-0.3 1.3,-0.5 1.9,-0.6 z"
   id="path825" />
	<path
   class="st1"
   d="m 69,124.8 c -1.2,2.4 -2.6,4.6 -3.5,5.7 -0.8,-2 -2.1,-6.7 -1.7,-10.4 0,-0.1 0,-0.2 0,-0.3 0.1,-1.2 0.4,-2.2 1,-3.1 0.4,-0.6 1.4,-0.9 2.5,-0.9 0.8,0 1.7,0.2 2.5,0.6 v 0 c 0.4,0.2 1,0.7 1,2 0.2,1.8 -0.7,4.2 -1.8,6.4 z"
   id="path827" />
	<path
   class="st1"
   d="m 133,98.1 c 0.1,0.1 0.1,0.2 0.1,0.3 -0.3,0.7 -0.8,1.2 -1.3,1.8 -0.6,0.7 -1.3,1.5 -1.9,2.8 -0.9,1.8 -1.2,3.4 -1.3,7.6 -0.2,4.9 0,7.6 0.2,9.6 0.1,1.9 0.2,3.1 -0.1,5 -0.7,3.8 -2.3,6.3 -4.4,9.5 -2.6,4 -5.2,8.1 -9.6,9.4 -0.4,0.1 -0.4,0.1 -1.6,0.1 -1,0 -2.7,0 -5.8,0.1 -5.8,0.2 -8.7,0.3 -11.1,0.8 -2.6,0.5 -3.9,1.1 -5.3,1.6 -1.2,0.5 -2.3,0.9 -4.4,1.4 -1.3,0.3 -3.2,0.5 -9.7,0.6 -6.8,0 -10.9,0 -16.2,-0.6 -7.4,-0.8 -11.1,-1.3 -13.6,-2.6 -5.8,-3.1 -8.3,-8.7 -12.3,-17.9 v 0 c 0,-0.1 0.1,-0.2 0.2,-0.2 0.2,0.1 0.4,0.2 0.6,0.3 0.2,0.1 0.4,0.1 0.5,0.1 0.4,0.1 0.8,0.1 1.2,0 0.1,0 0.1,0 0.2,-0.1 v 0 c 0.1,0 0.2,0 0.2,0.1 0.3,0.7 0.7,1.3 1.4,1.7 0.7,0.4 1.5,0.4 2.2,0.4 0.8,0 1.6,-0.1 2.4,-0.2 0.4,0 0.8,0.2 1,0.5 0.7,1.8 1.6,3 3,3.2 0.1,0 0.2,0 0.3,0 0.3,0 0.8,-0.1 1.4,-0.5 0.5,-0.4 1.3,-0.1 1.7,0.4 0.3,0.5 0.7,0.8 1.1,1.1 1.4,1.4 4.8,2.1 7.6,2.1 1.5,0 2.9,-0.2 3.7,-0.6 1.2,-0.6 1.2,-1.4 1.1,-1.8 -0.1,-0.6 -0.2,-1.3 -0.3,-1.9 0,-0.1 0.1,-0.1 0.1,0 0.2,0.4 0.4,0.8 0.9,0.9 0.1,0 0.1,0 0.2,0 0.8,0 2,0.3 2.2,1 0.1,0.4 0.3,0.7 0.5,1.1 0.5,0.7 1.4,1.6 3.3,1.7 h 0.1 c 2.2,0 3.9,-0.7 5,-2.1 0.1,-0.1 0.1,-0.2 0.2,-0.3 0.4,-0.6 1.6,-0.6 2.1,-0.1 0.6,0.5 1.3,0.8 2.1,0.8 0.1,0 0.3,0 0.4,0 1,-0.1 1.8,-0.6 2.5,-1.5 0.4,-0.6 0.7,-1.3 0.9,-2.1 0.1,-0.2 0.4,-0.3 0.6,-0.1 0.4,0.4 1.1,0.8 2.1,0.8 0.2,0 0.5,0 0.8,-0.1 1.9,-0.4 2.9,-2 3.3,-3.7 0,-0.1 0.1,-0.1 0.1,0 0.5,0.6 1.4,1.3 2.9,1.3 0.1,0 0.2,0 0.2,0 0.8,0 1.5,-0.4 2,-1 0.6,-0.8 0.8,-2 0.9,-3.1 0,-0.3 0.2,-0.6 0.6,-0.8 1.6,-0.7 3.6,-2.2 4.2,-3.2 0,0 0,-0.1 0.1,-0.1 0.1,-0.3 0.4,-0.5 0.6,-0.5 1.3,-0.2 1.8,-0.5 2.3,-0.7 0.4,-0.2 0.7,-0.3 1.7,-0.5 7.3,-1.1 8.7,-1.4 10.3,-2.4 2.4,-1.6 2.5,-3.8 2.6,-5.9 0.1,-1.8 0.2,-3.8 1.6,-6.2 0.5,-0.9 1.1,-1.9 1.7,-3.1 1.1,-2 2.6,-4.8 3.7,-6.3 0.2,-0.3 0.6,-0.4 0.9,-0.2 2.5,0.9 4.7,1.9 5.1,2.3 z"
   id="path829" />
	<path
   class="st1"
   d="m 62,119.9 c -0.3,2.5 -0.5,5.9 -0.1,10.3 0.1,1.2 0.3,2.5 0.5,3.8 -0.3,0.2 -1.4,0.5 -3.2,0.4 -2.6,-0.1 -5.2,-0.7 -6,-1.6 l -0.1,-0.1 c -0.6,-0.5 -1.1,-0.9 -1.1,-1.8 0,-0.3 0.1,-0.6 0.4,-1.1 0.2,-0.2 0.4,-0.5 0.6,-0.9 0.4,-0.6 1,-1.3 1.6,-2.3 1.7,-2.8 2.3,-3.7 3.1,-4.8 0.1,-0.1 0.1,-0.2 0.2,-0.3 0.5,-0.6 1,-1.4 1.9,-2.7 0.6,-0.9 1.1,-1.7 1.6,-2.3 0.7,-1 1.2,-1.5 1.5,-1.8 0,0.4 -0.1,1 -0.2,1.6 -0.4,1.2 -0.6,2.3 -0.7,3.6 z"
   id="path831" />
	<path
   class="st1"
   d="m 60.7,80.5 c 0,0.1 0,0.1 0,0 -0.4,0.5 -0.8,1.1 -1.3,2.1 -1.3,2.8 -1.3,4.4 -1.3,5.7 0,0.7 0,1.2 -0.2,1.8 -0.1,0.4 -0.3,0.9 -0.6,1.4 -0.7,1.7 -1.7,3.9 -1.3,6.9 -0.6,-0.3 -1.5,-1 -1.7,-1.3 0,-0.2 -0.1,-0.3 -0.1,-0.5 -0.2,-0.9 -0.3,-1.5 0.2,-2.9 1.6,-3.6 1.8,-4.5 1.9,-5.5 0,-0.2 0.1,-0.4 0.1,-0.7 0.3,-1.4 0.5,-2.6 0.6,-3.6 0.2,-1.5 0.4,-2.5 0.9,-3.2 0.2,-0.3 0.7,-0.4 1.4,-0.4 0.3,0 0.6,0 1,0.1 h 0.1 c 0.3,0.1 0.3,0.1 0.3,0.1 z"
   id="path833" />
	<path
   class="st1"
   d="m 58.7,116.2 c -0.1,-0.9 -0.2,-1.7 -0.6,-2.6 0,0 -0.1,-0.2 -0.1,-0.3 -0.1,-0.1 -0.1,-0.2 -0.2,-0.3 v 0 0 l -0.1,-0.1 c -0.1,-0.1 -0.1,-0.1 -0.2,-0.1 v 0 l -0.1,-0.1 c -0.1,0 -0.1,-0.1 -0.2,-0.1 h -0.1 v 0 0 0 0 0 0 c -0.5,-0.2 -1,-0.4 -1.6,-0.5 v 0 0 c -0.1,0 -0.2,0 -0.2,0 -0.1,0 -0.1,0 -0.2,0 H 55 v 0 0 0 0 c -0.1,0 -0.2,0.1 -0.4,0.1 -0.1,0 -0.1,0.1 -0.2,0.1 l -0.1,0.1 v 0 0 c -0.1,0.1 -0.1,0.1 -0.2,0.2 l -0.1,0.1 v 0 0 0 0 0.1 c -0.2,0.3 -0.4,0.6 -0.6,0.9 -0.5,0.7 -1,1.5 -1.5,2.2 -0.5,0.7 -0.9,1.3 -1.4,2 -0.3,0.4 -0.5,0.7 -0.8,1.1 0,0.1 -0.1,0.1 -0.1,0.2 0.3,0.1 0.6,0.1 0.9,0.2 0.7,0.1 1.4,0.2 2,0.3 1.4,0.2 2.9,0.3 4.3,0.2 0.1,0 0.1,0 0.2,0 0.3,-0.5 0.8,-1.1 1.3,-1.9 0.3,-0.4 0.6,-0.8 0.8,-1.2 -0.3,-0.1 -0.4,-0.4 -0.4,-0.6 z"
   id="path835" />
	<path
   class="st1"
   d="m 53.6,122.1 c -0.1,1.1 -1.3,3.9 -3.2,6.6 -1.6,2.2 -2.6,2.8 -2.8,2.8 -0.8,-0.1 -1.5,-2 -2.1,-3.9 -0.2,-0.8 -0.5,-1.5 -0.6,-2.2 -0.4,-1.4 -0.5,-3.4 -0.4,-4.6 1.6,0.9 4.4,1.1 8.4,1.1 v 0 c 0.2,0.1 0.5,0.1 0.7,0.2 z"
   id="path837" />
	<path
   class="st1"
   d="m 50.8,113.1 v 0 0 c -0.7,1.1 -1.4,2.1 -2.1,3.1 -0.4,0.5 -0.7,1 -1.1,1.5 -0.2,0.3 -0.5,0.6 -0.7,0.9 -0.6,-0.1 -1.1,-0.3 -1.7,-0.4 -0.5,-0.1 -0.9,-0.3 -1.4,-0.5 -0.1,0 -0.2,-0.1 -0.3,-0.1 -0.1,-0.1 -0.2,-0.3 -0.3,-0.4 v 0 c 0.2,-0.3 0.3,-0.7 0.5,-1 0.3,-0.6 0.6,-1.2 1,-1.8 0.6,-1 1.3,-2.1 2.4,-2.8 0.1,0 0.1,-0.1 0.2,-0.1 0.4,-0.2 0.8,-0.4 1.3,-0.5 0.1,0 0.4,0 0.6,0 h 0.1 v 0 c 0,0 0,0 0.1,0 0.1,0 0.2,0.1 0.4,0.1 0,0 0.1,0 0.1,0.1 0.1,0.1 0.2,0.1 0.3,0.2 -0.2,-0.1 0.2,0.3 0.2,0.2 0.2,0.6 0.3,0.9 0.4,1.5 z"
   id="path839" />
	<path
   class="st1"
   d="m 45.4,110.2 c -1.3,1 -2.2,2.4 -2.9,3.9 -0.4,0.8 -0.8,1.6 -1.2,2.4 0,0.1 -0.1,0.2 -0.1,0.2 -0.4,-0.1 -0.8,-0.2 -1.1,-0.3 -0.4,-0.1 -0.8,-0.3 -1.2,-0.4 -0.2,-0.1 -0.3,-0.2 -0.5,-0.3 0.4,-0.7 0.8,-1.4 1.3,-2.1 0.6,-0.9 1.3,-1.9 2,-2.7 0.3,-0.3 0.6,-0.7 0.9,-0.9 0.4,-0.2 0.8,-0.2 1.3,-0.1 0.5,0 1,0 1.4,0.2 -0.1,0 0,0.1 0.1,0.1 z"
   id="path841" />
	<path
   class="st1"
   d="m 43.4,127.2 c -0.1,0.1 -0.1,0.1 -0.2,0.2 h -0.1 c -0.3,0 -0.6,0.1 -0.9,0.1 -0.6,0 -1.2,0.1 -1.8,0 -0.3,0 -0.6,-0.1 -0.8,-0.3 -0.2,-0.3 -0.3,-0.9 -0.4,-1.3 -0.4,-2.2 -0.4,-4.4 -0.2,-6.6 1.1,0.4 2.3,0.7 3.5,0.9 -0.3,2 0.2,4.9 0.4,5.7 0.3,0.4 0.4,0.9 0.5,1.3 z"
   id="path843" />
	<path
   class="st1"
   d="m 39.8,109.5 c -1,1.2 -1.9,2.5 -2.7,3.9 -0.3,0.5 -0.7,1.1 -1,1.7 -0.4,-0.1 -0.8,-0.3 -1.1,-0.5 -0.3,-0.2 -0.6,-0.4 -0.8,-0.6 -0.1,-0.1 -0.3,-0.2 -0.4,-0.3 0,0 -0.1,0 -0.1,-0.1 0.1,-0.3 0.3,-0.5 0.3,-0.7 0.2,-0.5 0.4,-0.9 0.7,-1.3 0.5,-0.8 1,-1.6 1.6,-2.4 0.2,-0.3 0.4,-0.6 0.8,-0.7 0.3,-0.1 0.7,0 1,0 0.6,0.1 1.2,0.5 1.7,1 z"
   id="path845" />
	<path
   class="st1"
   d="m 32.1,114.8 c 0,-0.1 0.1,-0.1 0,0 0.4,0.4 0.7,0.7 1.1,1 0.2,0.1 0.3,0.3 0.5,0.4 0,0 0,0 0,0.1 -0.4,1.7 -0.7,3.5 -0.7,5.3 0,0.1 -0.1,0.1 -0.1,0 -0.5,-2.1 -1.1,-5.5 -0.8,-6.8 z"
   id="path847" />
	<path
   class="st1"
   d="m 37,118.5 c -0.2,1.5 -0.3,3 -0.2,4.5 0,0.8 0.1,1.6 0.2,2.5 v 0 0 c -0.2,0 -0.4,0 -0.6,0 h -0.1 v 0 h -0.1 c -0.2,-0.1 -0.2,-0.1 -0.4,-0.2 -0.2,-0.1 -0.4,-0.4 -0.6,-0.7 -0.4,-0.7 -0.5,-1.5 -0.5,-2.3 -0.1,-1.5 0.1,-3.1 0.4,-4.6 0.2,0.1 0.5,0.2 0.8,0.3 0.4,0.2 0.7,0.4 1.1,0.5 z"
   id="path849" />
</g>
<g
   id="g927"
   transform="scale(0.68965517)">
	<defs
   id="defs853"><path
     id="SVGID_00000128454529727717975320000012486895950618847389_"
     d="M 185.6,92.8 C 185.6,41.5 144,0 92.8,0 41.5,0 0,41.5 0,92.8 c 0,51.2 41.5,92.8 92.8,92.8 51.2,0 92.8,-41.6 92.8,-92.8 z" /></defs>
	<clipPath
   id="SVGID_00000112632825680152813190000016325904004000894366_">
		<use
   xlink:href="#SVGID_00000128454529727717975320000012486895950618847389_"
   style="overflow:visible"
   id="use855" />
	</clipPath>
	
		<g
   id="Layer_2_00000107572151008996527030000016290061794924690866_"
   clip-path="url(#SVGID_00000112632825680152813190000016325904004000894366_)">
		<g
   class="st3"
   id="g924">
			
				<linearGradient
   id="SVGID_00000174576723511659957990000012099251455123196824_"
   gradientUnits="userSpaceOnUse"
   x1="-12.9962"
   y1="635.13507"
   x2="199.63161"
   y2="858.30029"
   gradientTransform="translate(0,-656)">
				<stop
   offset="0.2057"
   style="stop-color:#89D0FF"
   id="stop858" />
				<stop
   offset="0.3984"
   style="stop-color:#EBBF9A"
   id="stop860" />
				<stop
   offset="0.6015"
   style="stop-color:#EB8280"
   id="stop862" />
				<stop
   offset="0.8411"
   style="stop-color:#A281FF"
   id="stop864" />
			</linearGradient>
			
				<path
   style="opacity:0.8;fill:none;stroke:url(#SVGID_00000174576723511659957990000012099251455123196824_);stroke-width:1.0554;stroke-miterlimit:10;enable-background:new"
   d="m 76.4,196.5 c -6.8,0 -13.2,-0.4 -18.6,-0.8 l -1.5,-0.1 -1.5,-0.2 c -0.7,-0.1 -1.5,-0.2 -2.4,-0.3 -5.2,-0.6 -14.9,-1.6 -25.6,-6.6 l -1.7,-0.8 -1.5,-0.9 C 3,175.2 -4.6,157.9 -8.8,148.6 c -0.3,-0.6 -0.6,-1.3 -0.9,-2 -2.1,-4.3 -3.4,-8.1 -4.5,-11.7 l -0.2,-0.8 -0.2,-0.8 c -3,-10.6 -3.7,-19.7 -2.4,-28.8 1.4,-9.1 4.7,-17.3 10.6,-26 l 3,-4.9 c 0.6,-1 1,-2.1 1.3,-3.2 C 0.2,59 5.4,50.9 8,47 8.7,42.3 9.9,37.7 11.5,33.2 l 0.2,-0.7 0.3,-0.7 c 0,-0.1 0.1,-0.3 0.2,-0.6 C 13.4,27.7 16.1,19.6 23,11 l 2.6,-3 2.7,-2.4 c 6.8,-6.2 15,-10.8 23.8,-13.4 4.9,-1.5 10,-2.4 15.2,-2.7 h 0.5 0.7 c 0.9,0 1.8,-0.1 2.6,-0.1 3.2,0 6.4,0.3 9.6,0.8 2,0.3 4,0.1 5.9,-0.7 5.5,-2.3 11.2,-3.8 17.1,-4.6 0.5,-0.1 0.9,-0.1 1.3,-0.2 0.9,-0.1 2.4,-0.3 4.2,-0.5 3.1,-0.3 7.9,-0.7 13,-0.7 10.1,0 18.8,1.3 26.6,4 l 0.7,0.2 0.6,0.2 c 17.2,6.5 25.9,15.6 32.2,23.5 l 0.3,0.4 0.9,0.8 c 5.7,4.4 10.5,9.9 14.3,16 l 1.2,1.9 1,2 c 8.4,17.1 5.7,33 4.7,38.9 l -0.1,0.3 c -0.7,4.4 -1.9,8.7 -3.4,12.9 -0.6,4 -1.5,8 -2.8,11.8 -2.2,6.8 -5.5,13.3 -9.7,19.1 -2.4,3.4 -5.2,6.7 -8.2,9.6 -1.1,1 -1.8,2.4 -2,3.9 -0.1,0.9 -0.3,1.8 -0.4,2.7 -2.5,13.2 -8.2,22.4 -10.6,26.1 l -7.1,10.2 c -8.6,10.7 -18.8,17.7 -31.1,21.5 l -3,0.9 -3.2,0.6 c -3.7,0.7 -7.4,1 -11.2,1 -0.5,0 -1,0 -1.6,0 h -0.2 -0.6 -0.7 v 0 c -1.4,0 -2.8,0.3 -4.2,0.7 -8.2,2.6 -17.2,3.8 -28.2,3.8 z"
   id="path867" />
			
				<linearGradient
   id="SVGID_00000078007290311443526780000002645036182949499018_"
   gradientUnits="userSpaceOnUse"
   x1="-4.7509999"
   y1="644.7373"
   x2="191.26849"
   y2="851.31262"
   gradientTransform="translate(0,-656)">
				<stop
   offset="0.2057"
   style="stop-color:#89D0FF"
   id="stop869" />
				<stop
   offset="0.3984"
   style="stop-color:#EBBF9A"
   id="stop871" />
				<stop
   offset="0.6015"
   style="stop-color:#EB80DA"
   id="stop873" />
				<stop
   offset="0.8411"
   style="stop-color:#A281FF"
   id="stop875" />
			</linearGradient>
			
				<path
   style="opacity:0.8;fill:none;stroke:url(#SVGID_00000078007290311443526780000002645036182949499018_);stroke-width:1.0554;stroke-miterlimit:10;enable-background:new"
   d="m 76.4,189.4 c -6.5,0 -12.8,-0.4 -18,-0.8 l -1.2,-0.1 -1.2,-0.2 c -0.8,-0.1 -1.7,-0.2 -2.6,-0.3 -5.1,-0.5 -13.5,-1.5 -22.9,-5.9 l -1.4,-0.7 -1.3,-0.7 c -18.3,-10.1 -25,-25.2 -29,-34.2 -0.3,-0.6 -0.6,-1.4 -1,-2.1 -1.9,-3.8 -3.1,-7.4 -4.1,-10.6 l -0.2,-0.7 -0.2,-0.6 C -9.3,123 -10,115 -8.8,107.1 -7.6,99.3 -4.6,92 0.6,84.4 L 4.5,78.1 C 5.2,77 5.7,75.7 5.9,74.4 7.8,63.6 12.9,56 15.2,52.5 l 0.3,-0.4 0.1,-0.2 c 0,-0.1 0.1,-0.2 0.1,-0.3 0.1,-0.5 0.3,-0.9 0.4,-1.3 0.6,-4.4 1.7,-8.8 3.2,-13 l 0.2,-0.6 0.2,-0.6 c 0.1,-0.2 0.1,-0.4 0.3,-1 1.1,-3.3 3.4,-10.2 9.4,-17.6 l 2.2,-2.6 2.2,-2 C 39.7,7.5 46.8,3.5 54.4,1.3 58.8,0 63.2,-0.8 67.8,-1 h 0.4 0.6 c 0.8,0 1.5,-0.1 2.2,-0.1 3.3,0 6.5,-0.9 9.7,-0.3 2.5,0.5 5,0.2 7.3,-0.8 4.3,-1.9 10.1,-2.6 16.7,-3.5 0.5,-0.1 0.9,-0.1 1.2,-0.2 0.9,-0.1 2.3,-0.3 3.9,-0.4 2.9,-0.3 7.4,-0.6 12.3,-0.6 9.2,0 17,1.2 23.9,3.5 l 0.6,0.2 0.5,0.2 c 15.2,5.8 22.7,13.4 28.6,20.9 0.3,0.4 0.7,0.8 0.8,1 l 0.1,0.1 1.1,1 0.1,0.2 c 5.1,3.9 9.4,8.7 12.7,14.1 l 1,1.6 0.8,1.7 c 7.2,14.7 5,28.2 4,33.9 l -0.1,0.3 c -0.7,4.2 -1.8,8.2 -3.3,12.2 -0.5,3.8 -1.4,7.6 -2.6,11.2 -2,6 -4.9,11.7 -8.6,16.9 -2.5,3.6 -5.5,6.9 -8.7,9.8 -1.5,1.4 -2.5,3.2 -2.7,5.3 -0.2,1.5 -0.4,2.9 -0.6,4.4 -2.2,11.7 -7.2,19.7 -9.6,23.3 l -5.8,8.4 c -7.7,9.9 -16.8,16.3 -27.8,19.7 l -2.5,0.8 -2.7,0.5 c -3.2,0.6 -6.5,0.9 -9.7,0.8 -0.5,0 -1,0 -1.5,0 h -0.1 -0.3 c 0,0 -0.1,0 -0.3,0 h -0.6 -0.6 -1.1 c -1.5,0.1 -3,0.3 -4.5,0.8 -7.3,2.4 -15.8,3.5 -26.2,3.5 z"
   id="path878" />
			
				<linearGradient
   id="SVGID_00000018943696915612414720000001476804467929569966_"
   gradientUnits="userSpaceOnUse"
   x1="3.5764999"
   y1="653.03961"
   x2="182.9841"
   y2="843.02112"
   gradientTransform="translate(0,-656)">
				<stop
   offset="0.2057"
   style="stop-color:#89D0FF"
   id="stop880" />
				<stop
   offset="0.3984"
   style="stop-color:#EBBF9A"
   id="stop882" />
				<stop
   offset="0.6015"
   style="stop-color:#EB8280"
   id="stop884" />
				<stop
   offset="0.8411"
   style="stop-color:#A281FF"
   id="stop886" />
			</linearGradient>
			
				<path
   style="opacity:0.8;fill:none;stroke:url(#SVGID_00000018943696915612414720000001476804467929569966_);stroke-width:0.9894;stroke-miterlimit:10;enable-background:new"
   d="m 76.4,181.1 c -6.2,0 -12.3,-0.4 -17.4,-0.8 l -1,-0.1 -1,-0.1 c -0.9,-0.1 -1.9,-0.2 -2.9,-0.3 -4.8,-0.5 -12.1,-1.3 -20.3,-5.2 l -1.1,-0.5 -1,-0.6 C 16,164.7 10.2,151.7 6.4,143.1 6.1,142.4 5.7,141.5 5.4,140.8 3.7,137.4 2.6,134.2 1.7,131.2 L 1.5,130.7 1.4,130.2 C -0.9,122 -1.5,115 -0.5,108.4 c 1,-6.7 3.7,-13 8.3,-19.7 L 8.4,87.9 9,87.1 c 0.4,-0.5 0.7,-1 1.1,-1.4 l 2.3,-4.3 c 0.8,-1.4 1.3,-2.9 1.5,-4.5 1.5,-9.6 6.1,-16.5 8.2,-19.7 v 0 c 0.1,-0.2 0.3,-0.4 0.4,-0.5 L 23,56 c 0.2,-0.4 0.4,-0.9 0.6,-1.5 0.2,-0.6 0.5,-1.5 0.7,-2.3 0.5,-4.1 1.5,-8.1 2.9,-12 l 0.2,-0.5 0.2,-0.5 c 0.1,-0.4 0.3,-0.7 0.5,-1.4 1,-3.1 2.9,-8.8 8,-15 l 1.7,-2.1 1.8,-1.6 c 5,-4.6 11,-7.9 17.5,-9.9 3.8,-1.1 7.6,-1.8 11.6,-2 h 0.3 0.5 c 0.6,0 1.2,0 1.9,0 3.4,0 6.7,0.4 10,1.3 2.8,0.7 5.8,0.4 8.4,-0.9 4.2,-2 9.8,-4.2 16.3,-5 0.4,-0.1 0.8,-0.1 1.1,-0.2 0.8,-0.1 2.1,-0.3 3.7,-0.4 2.7,-0.3 7,-0.6 11.5,-0.6 8.2,0 15.1,1 21.2,3.1 l 0.4,0.2 0.4,0.2 c 14,5.3 20.2,12.2 25,18.3 1.1,1.3 1.2,1.5 1.9,2.2 l 0.9,0.8 0.3,0.4 c 2.3,1.8 7,5.5 11.1,12.2 l 0.8,1.3 0.7,1.3 c 6.1,12.3 4.2,23.5 3.3,28.9 l -0.1,0.3 c -0.6,3.9 -1.7,7.8 -3.3,11.5 v 0.3 c -0.4,3.5 -1.2,7 -2.3,10.3 -1.7,5.3 -4.2,10.2 -7.5,14.7 -2.7,3.9 -6,7.4 -9.7,10.4 -0.9,0.7 -1.6,1.6 -2.1,2.6 -0.5,1 -0.8,2.1 -0.9,3.2 -0.1,2.2 -0.4,4.4 -0.8,6.6 -1.9,10.1 -6.3,17.1 -8.5,20.6 l -4.5,6.6 c -6.7,9 -14.7,14.8 -24.4,17.8 l -2,0.6 -2.2,0.4 c -2.7,0.5 -5.5,0.7 -8.3,0.7 -0.4,0 -0.9,0 -1.4,0 h -0.1 -0.5 c -0.1,0 -0.3,0 -0.8,0 h -0.5 -0.4 l -2.3,0.1 c -1.6,0.1 -3.2,0.3 -4.7,0.9 -6.9,2.2 -14.8,3.2 -24.7,3.2 z"
   id="path889" />
			
				<linearGradient
   id="SVGID_00000024689210688303160630000017284372851326692799_"
   gradientUnits="userSpaceOnUse"
   x1="11.8926"
   y1="661.37073"
   x2="174.6515"
   y2="834.70697"
   gradientTransform="translate(0,-656)">
				<stop
   offset="0.2057"
   style="stop-color:#89D0FF"
   id="stop891" />
				<stop
   offset="0.3984"
   style="stop-color:#EBBF9A"
   id="stop893" />
				<stop
   offset="0.6015"
   style="stop-color:#EB80E7"
   id="stop895" />
				<stop
   offset="0.8411"
   style="stop-color:#A281FF"
   id="stop897" />
			</linearGradient>
			
				<path
   style="opacity:0.8;fill:none;stroke:url(#SVGID_00000024689210688303160630000017284372851326692799_);stroke-width:0.9235;stroke-miterlimit:10;enable-background:new"
   d="m 76.4,172.8 c -5.9,0 -11.8,-0.4 -16.7,-0.8 l -0.7,-0.1 -0.7,-0.1 c -1,-0.1 -2.1,-0.3 -3.1,-0.4 -4.5,-0.5 -10.7,-1.2 -17.7,-4.4 l -0.8,-0.4 -0.8,-0.4 C 22.6,158.7 17.7,147.7 14.1,139.7 13.7,138.9 13.3,138 13,137.2 c -1.5,-3.1 -2.5,-6 -3.3,-8.5 L 9.6,128.3 9.3,128 C 5.4,114.2 6.9,104.5 14.5,93.4 l 0.4,-0.6 0.4,-0.6 c 0.5,-0.6 1,-1.3 1.5,-1.9 0.7,-0.9 1.4,-1.9 2.2,-2.8 0.5,-0.6 0.9,-1.3 1.2,-2 l 0.9,-2.2 c 0.4,-1 0.6,-2 0.7,-3 C 22.6,71.4 26.9,65 29,61.8 v 0 c 0.2,-0.2 0.4,-0.6 0.5,-0.7 l 0.5,-0.8 0.2,-0.2 c 0.3,-0.5 0.8,-1.7 1.2,-2.9 0.2,-0.8 0.6,-2.1 1,-3.2 V 53.9 C 32.8,50.2 33.7,46.5 35,43 l 0.1,-0.3 0.1,-0.3 c 0.2,-0.6 0.4,-1.1 0.6,-1.8 0.9,-2.7 2.4,-7.3 6.5,-12.4 l 1.3,-1.6 1.3,-1.2 C 54.6,16.6 65.4,15.9 69,15.6 h 0.2 0.4 c 0.5,0 1,0 1.5,0 4.3,0 8.5,0.9 12.5,2.6 0.7,0.3 1.5,0.4 2.2,0.4 0.8,0 1.5,-0.2 2.2,-0.6 v 0 c 3.7,-2.1 10.4,-6 19,-7 0.4,-0.1 0.8,-0.1 1.1,-0.1 0.8,-0.1 2,-0.2 3.4,-0.4 2.6,-0.2 6.5,-0.5 10.7,-0.5 7.3,0 13.3,0.9 18.4,2.6 l 0.3,0.1 0.3,0.1 c 12,4.5 17.1,10.2 21.4,15.6 1.1,1.5 1.7,2.1 2.9,3.3 l 0.7,0.6 0.5,0.6 0.4,0.3 c 2,1.6 5.8,4.5 9.2,10 l 0.6,1 0.5,1 c 4.9,10 3.3,19 2.5,23.8 v 0.3 c -0.6,3.5 -1.6,7 -3,10.3 l -0.1,0.3 c 0,0.1 0,0.1 -0.1,0.3 -0.1,0.3 -0.1,0.6 -0.1,0.9 l -0.1,0.4 c -0.3,3 -1,5.9 -2,8.7 -1.5,4.5 -3.6,8.7 -6.4,12.5 -2.7,3.9 -5.8,7.1 -9.2,9.6 -1.5,1.1 -2.7,2.5 -3.6,4.2 -0.9,1.7 -1.3,3.5 -1.3,5.4 0,2.3 -0.3,4.7 -0.7,7 -1.6,8.6 -5.2,14.4 -7.5,17.9 l -3.3,4.9 c -5.8,8.1 -12.7,13.3 -21,15.9 l -0.4,0.1 c -0.7,0.2 -1.4,0.4 -2.1,0.5 l -0.5,0.1 c -2.3,0.4 -4.6,0.6 -6.9,0.6 -0.4,0 -0.8,0 -1.2,0 h -0.1 c -0.2,0 -0.4,0 -0.6,0 -0.2,0 -0.6,0 -1.4,0 h -0.3 -0.3 c -1.1,0 -2.5,0.1 -3.7,0.1 -1.7,0.1 -3.3,0.4 -4.9,1 -6,1.8 -13.3,2.8 -22.7,2.8 z"
   id="path900" />
			
				<linearGradient
   id="SVGID_00000085930422432826479730000016146188682793707422_"
   gradientUnits="userSpaceOnUse"
   x1="20.1602"
   y1="669.71777"
   x2="166.30161"
   y2="826.39612"
   gradientTransform="translate(0,-656)">
				<stop
   offset="0.2057"
   style="stop-color:#89D0FF"
   id="stop902" />
				<stop
   offset="0.3984"
   style="stop-color:#EBBF9A"
   id="stop904" />
				<stop
   offset="0.6015"
   style="stop-color:#EB80D3"
   id="stop906" />
				<stop
   offset="0.8411"
   style="stop-color:#A281FF"
   id="stop908" />
			</linearGradient>
			
				<path
   style="opacity:0.8;fill:none;stroke:url(#SVGID_00000085930422432826479730000016146188682793707422_);stroke-width:0.8575;stroke-miterlimit:10;enable-background:new"
   d="m 76.4,164.5 c -5.7,0 -11.3,-0.4 -16.1,-0.8 h -0.5 l -0.5,-0.1 c -1.1,-0.2 -2.3,-0.3 -3.4,-0.4 -4.2,-0.5 -9.4,-1 -15,-3.7 l -0.6,-0.3 -0.5,-0.3 c -10.9,-6.1 -15,-15.3 -18.2,-22.7 -0.4,-0.9 -0.8,-1.8 -1.2,-2.8 -1.3,-2.6 -2.2,-5.2 -2.9,-7.4 l -0.1,-0.3 -0.1,-0.3 C 14.1,114 15.2,106.8 21.4,97.8 L 21.7,97.4 22,97 c 0.5,-0.7 1,-1.3 1.5,-2 1.6,-2.1 3.2,-4.2 5.5,-6.7 0.5,-0.5 0.8,-1.3 0.9,-2 L 30,84 29.9,83.1 v -0.9 c 0.2,-7.4 3.9,-12.9 5.9,-15.9 0.2,-0.3 0.5,-0.7 0.6,-0.9 l 0.3,-0.5 0.3,-0.4 c 0.4,-0.6 1.3,-2.7 2.1,-4.6 0.3,-0.8 0.7,-2.4 1.2,-3.7 0.1,-0.4 0.1,-0.5 0.2,-1.4 0.3,-3.1 1.1,-6.2 2.1,-9.1 l 0.1,-0.2 0.1,-0.2 c 0.3,-0.8 0.5,-1.4 0.8,-2.2 0.8,-2.4 2,-5.9 5.1,-9.8 l 0.9,-1.1 0.9,-0.8 c 6.8,-6.1 14.1,-7.3 19.1,-7.6 h 0.2 0.2 c 0.4,0 0.7,0 1.1,0 4.2,0 9.3,2 12,3.3 0.6,0.3 1.3,0.5 2,0.5 0.7,0 1.4,-0.1 2.1,-0.3 1.7,-0.6 3.3,-1.3 4.8,-2.1 3.4,-2 9,-5.2 16,-6 0.4,-0.1 0.7,-0.1 1,-0.1 0.7,-0.1 1.8,-0.2 3.2,-0.4 2.4,-0.2 6,-0.5 9.9,-0.5 6.3,0 11.5,0.7 15.7,2.2 l 0.2,0.1 0.2,0.1 c 10,3.8 14,8.1 17.8,13 1.2,1.6 2.1,2.7 3.9,4.3 l 0.4,0.4 0.4,0.4 c 0.4,0.4 0.8,0.7 1.2,1 1.7,1.3 4.6,3.6 7.1,7.8 l 0.4,0.6 0.3,0.7 c 3.7,7.5 2.5,14.6 1.8,18.8 v 0.3 c -0.5,2.9 -1.3,5.7 -2.5,8.4 v 0 c -0.3,0.7 -0.5,1.4 -0.7,2.2 -0.1,0.5 -0.2,1 -0.2,1.4 l -0.1,0.4 c -0.3,2.4 -0.8,4.8 -1.6,7.1 -1.2,3.7 -3,7.2 -5.2,10.3 -3.4,4.8 -7.3,8.2 -12,10.4 -1.1,0.5 -2.1,1.3 -2.8,2.4 -0.7,1 -1.1,2.3 -1.2,3.5 0,0.5 0,0.9 0,1.2 0.2,3.6 0.5,7.7 -0.3,12 -1.3,7 -4.3,11.7 -6.5,15.2 0,0 -10.2,14.2 -19.5,17.1 l -1,0.3 -1.1,0.2 c -1.8,0.3 -3.6,0.5 -5.5,0.5 -0.3,0 -0.7,0 -1.1,0 v 0 c -0.2,0 -0.5,0 -0.8,0 -0.4,0 -1,0 -1.9,0.1 h -0.2 -0.2 c -3.6,0.1 -6.9,0.2 -7.9,0.4 -0.5,0.1 -1,0.2 -1.5,0.4 -4.9,2.1 -11.8,3.1 -21.3,3.1 z"
   id="path911" />
			
				<linearGradient
   id="SVGID_00000038379881502420268080000011052478818508933564_"
   gradientUnits="userSpaceOnUse"
   x1="28.5352"
   y1="677.96448"
   x2="158.045"
   y2="818.04791"
   gradientTransform="translate(0,-656)">
				<stop
   offset="0.2057"
   style="stop-color:#89D0FF"
   id="stop913" />
				<stop
   offset="0.3984"
   style="stop-color:#EBBF9A"
   id="stop915" />
				<stop
   offset="0.6015"
   style="stop-color:#A280EB"
   id="stop917" />
				<stop
   offset="0.8411"
   style="stop-color:#A281FF"
   id="stop919" />
			</linearGradient>
			
				<path
   style="opacity:0.8;fill:none;stroke:url(#SVGID_00000038379881502420268080000011052478818508933564_);stroke-width:0.8575;stroke-miterlimit:10;enable-background:new"
   d="m 76.4,156.3 c -5.4,0 -10.8,-0.4 -15.4,-0.7 h -0.2 -0.2 c -1.3,-0.2 -2.5,-0.3 -3.6,-0.4 -3.9,-0.4 -8,-0.9 -12.4,-2.9 l -0.3,-0.1 -0.3,-0.1 c -8.5,-4.8 -11.7,-11.9 -14.7,-18.8 -0.4,-1 -0.9,-2 -1.4,-3 -1,-2 -1.8,-4.2 -2.4,-6.3 v -0.1 -0.1 c -2.6,-9.1 -1.9,-13.7 2.9,-20.7 l 0.1,-0.2 0.1,-0.2 c 0.6,-0.7 1.1,-1.4 1.6,-2 2.3,-3 4.3,-5.6 8.8,-9.8 v 0 c 0.3,-0.3 0.6,-0.7 0.7,-1.2 0.1,-0.4 0.1,-0.9 -0.1,-1.3 l -0.8,-2.3 c -0.2,-0.7 -0.3,-1.5 -0.3,-2.2 v 0 -0.6 -0.5 c 0.2,-5 2.8,-8.9 4.5,-11.5 0.3,-0.4 0.5,-0.8 0.7,-1.1 l 0.2,-0.3 0.2,-0.3 c 0.9,-1.2 2.4,-4.7 3.2,-6.8 0.2,-0.7 0.7,-2.4 1.2,-3.7 0.3,-1 0.5,-2 0.6,-3 0.3,-2.5 0.8,-5 1.7,-7.3 v -0.1 -0.1 c 0.4,-1 0.7,-1.8 0.9,-2.6 0.7,-2.1 1.5,-4.5 3.7,-7.2 l 0.4,-0.5 0.4,-0.4 C 61,33.5 66.3,32.7 70.3,32.4 h 0.1 0.1 c 0.2,0 0.5,0 0.7,0 4,0 7,1.6 9,2.7 l 0.5,0.2 h 0.1 c 0.6,0.3 1,0.6 1.5,0.8 1.2,0.6 2.7,0.8 4,0.4 2.8,-0.7 7.1,-2.4 9.9,-4 h 0.1 c 3,-1.8 7.6,-4.4 13,-5 0.3,-0.1 0.7,-0.1 1,-0.1 0.6,-0.1 1.7,-0.2 2.9,-0.3 2.2,-0.2 5.6,-0.5 9.1,-0.5 5.4,0 9.7,0.6 13,1.7 h 0.1 0.1 c 8,3 11,6.2 14.2,10.4 1.3,1.7 2.6,3.3 5,5.4 l 0.2,0.2 0.2,0.2 c 0.6,0.6 1.3,1.2 2.1,1.8 1.4,1.1 3.4,2.6 5.1,5.5 l 0.2,0.3 0.2,0.3 c 2.5,5.2 1.7,10.1 1.1,13.8 v 0.3 c -0.4,2.3 -1,4.5 -2,6.7 -0.5,1.2 -0.9,2.5 -1.1,3.8 -0.1,0.8 -0.2,1.4 -0.3,1.9 l -0.1,0.4 c -0.2,1.9 -0.6,3.7 -1.2,5.5 -0.9,2.9 -2.3,5.6 -4.1,8.1 -3,4.4 -6.4,7.1 -10.9,8.5 -2.2,0.7 -4,2.1 -5.2,4 l -0.4,0.5 -0.4,0.5 c -1.1,1.3 -0.8,6.3 -0.6,9.3 0.2,3.3 0.4,6.7 -0.2,9.9 -1,5.5 -3.4,9.2 -5.5,12.4 0,0 -7.8,11.3 -14.9,13.4 l -0.5,0.2 -0.5,0.1 c -1.3,0.2 -2.7,0.4 -4.1,0.4 -0.3,0 -0.6,0 -1,0 -0.3,0 -0.6,0 -1,0 -0.5,0 -1.2,0 -2.4,0.1 h -0.1 -0.1 c -4.7,0.2 -7.6,0.3 -9.2,0.6 -1.1,0.2 -2.1,0.5 -3.1,0.9 -4.3,1.7 -10.1,2.6 -18.5,2.6 z"
   id="path922" />
		</g>
	</g>
</g>
</svg>
