<?xml version="1.0" encoding="UTF-8" standalone="no"?>
<!-- Generator: Adobe Illustrator 24.0.0, SVG Export Plug-In . SVG Version: 6.00 Build 0)  -->

<svg
   version="1.1"
   id="svg8"
   x="0px"
   y="0px"
   viewBox="0 0 127.99999 127.99999"
   xml:space="preserve"
   sodipodi:docname="frax-frax-logo.svg"
   width="128"
   height="128"
   inkscape:export-filename="..\Tokens\avaxFrax.png"
   inkscape:export-xdpi="96"
   inkscape:export-ydpi="96"
   xmlns:inkscape="http://www.inkscape.org/namespaces/inkscape"
   xmlns:sodipodi="http://sodipodi.sourceforge.net/DTD/sodipodi-0.dtd"
   xmlns="http://www.w3.org/2000/svg"
   xmlns:svg="http://www.w3.org/2000/svg"><defs
   id="defs6521" />
<style
   type="text/css"
   id="style6514">
	.st0{fill-rule:evenodd;clip-rule:evenodd;stroke:#000000;stroke-width:1.2373;stroke-miterlimit:11.3386;}
	.st1{fill:#FFFFFF;}
</style>
<sodipodi:namedview
   bordercolor="#666666"
   borderopacity="1.0"
   id="base"
   inkscape:current-layer="layer1"
   inkscape:cx="184.71274"
   inkscape:cy="416.19233"
   inkscape:document-rotation="0"
   inkscape:document-units="mm"
   inkscape:pageopacity="0.0"
   inkscape:pageshadow="2"
   inkscape:snap-bbox="true"
   inkscape:window-height="1051"
   inkscape:window-maximized="1"
   inkscape:window-width="1842"
   inkscape:window-x="69"
   inkscape:window-y="-9"
   inkscape:zoom="0.39629945"
   pagecolor="#ffffff"
   showgrid="false"
   inkscape:showpageshadow="2"
   inkscape:pagecheckerboard="0"
   inkscape:deskcolor="#d1d1d1">
	</sodipodi:namedview>
<g
   id="layer1"
   transform="translate(295.65791,-75.71863)"
   inkscape:groupmode="layer"
   inkscape:label="Layer 1">
	<circle
   id="path854"
   class="st0"
   cx="-231.65791"
   cy="139.71863"
   r="63.999996"
   style="display:inline;fill:#e84142;fill-opacity:1;stroke:none" />
	<path
   id="path862"
   class="st1"
   d="m -267.02125,104.06358 c -2.69267,2.82731 -4.91412,5.20583 -4.93656,5.25071 -0.0224,0.0673 2.40096,2.44584 5.38534,5.27315 2.98438,2.84974 5.58729,5.34046 5.76681,5.49753 l 0.33658,0.31415 -0.60585,1.00975 c -5.31803,8.79606 -6.41754,19.38723 -3.07413,29.12572 0.62828,1.84 1.70535,4.19608 2.62535,5.74437 0.44878,0.76292 0.65073,1.25658 0.60585,1.34633 -0.0449,0.0898 -2.75999,2.96194 -6.03607,6.3951 -3.27608,3.41071 -5.94632,6.26046 -5.99119,6.30533 -0.0224,0.0673 9.15508,8.9307 10.03019,9.64874 l 0.33659,0.29171 5.18339,-5.40778 c 2.84974,-2.98438 5.51998,-5.78925 5.92388,-6.21559 l 0.76292,-0.76292 0.71805,0.44878 c 3.65754,2.33365 7.94337,3.94925 12.67799,4.80193 2.37852,0.42634 6.91119,0.53853 9.44678,0.22439 4.89169,-0.56098 9.7385,-2.19902 13.71019,-4.59998 l 1.03219,-0.62829 1.0995,1.07707 c 2.40097,2.33365 11.37654,10.86044 11.46629,10.90531 0.0898,0.0449 9.94045,-10.25458 9.91801,-10.38922 -0.0224,-0.0673 -6.77656,-6.55216 -10.90532,-10.4341 l -1.36877,-1.30145 0.62829,-1.03219 c 5.27314,-8.77362 6.37265,-19.40967 2.96193,-29.21548 -0.49365,-1.43609 -1.99706,-4.6673 -2.87218,-6.14827 l -0.42634,-0.74048 5.76681,-6.03607 c 3.16388,-3.29853 5.74436,-6.05851 5.72192,-6.12583 -0.0898,-0.22439 -10.18727,-9.760925 -10.3219,-9.760925 -0.0898,0 -2.62536,2.580475 -5.65461,5.766795 -3.02926,3.16389 -5.54242,5.76681 -5.60973,5.78924 -0.0449,0.0224 -0.33659,-0.11219 -0.60585,-0.31414 -0.76293,-0.51609 -2.69267,-1.57073 -3.76974,-2.06438 -3.27609,-1.50341 -6.32778,-2.4234 -9.87313,-2.9395 -1.83999,-0.26927 -7.35997,-0.31414 -9.06532,-0.0673 -4.08389,0.58342 -7.42729,1.59317 -10.83801,3.29853 -0.98731,0.47121 -2.13169,1.0995 -2.58047,1.36877 l -0.8078,0.49366 -0.92,-0.89756 c -0.49365,-0.49366 -2.73755,-2.60292 -4.959,-4.73462 -2.22145,-2.10925 -4.48779,-4.26339 -5.02632,-4.801917 l -0.98731,-0.964876 z m 37.67495,14.63018 c 3.56779,0.42634 6.75412,1.63804 9.69362,3.70242 1.50341,1.05463 3.7473,3.29853 4.80193,4.80193 5.99119,8.48192 4.84681,20.01552 -2.69267,27.08378 -6.43997,6.01363 -15.75213,7.35997 -23.58331,3.36584 -5.65461,-2.89462 -9.64874,-8.19021 -10.92776,-14.54042 -0.4039,-2.0195 -0.4039,-5.78924 0,-7.78631 0.38147,-1.97462 0.89756,-3.38827 1.86243,-5.3629 3.8595,-7.76387 12.22922,-12.29653 20.84576,-11.26434 z"
   style="display:inline;stroke-width:0.224389" /><rect
   x="-244.72009"
   y="125.80807"
   width="25.949392"
   height="23.600523"
   fill="#ffffff"
   id="rect6640"
   style="display:inline;stroke-width:0.0279627" /><path
   fill-rule="evenodd"
   clip-rule="evenodd"
   d="m -210.7314,139.62168 c 0,11.59808 -9.40192,21 -21,21 -11.59799,0 -21,-9.40192 -21,-21 0,-11.59799 9.40201,-21 21,-21 11.59808,0 21,9.40201 21,21 z m -26.9508,8.35692 h -4.07551 c -0.85638,0 -1.27941,0 -1.53735,-0.16498 -0.27858,-0.18066 -0.44882,-0.47983 -0.46945,-0.81009 -0.0154,-0.30423 0.19603,-0.6758 0.61905,-1.41868 l 10.06294,-17.7373 c 0.42821,-0.7532 0.64486,-1.1298 0.91828,-1.26909 0.29406,-0.1496 0.64488,-0.1496 0.93893,0 0.27342,0.13929 0.4901,0.51589 0.91828,1.26909 l 2.06872,3.61121 0.0108,0.0184 c 0.46248,0.80804 0.69701,1.21782 0.79941,1.64786 0.11351,0.46948 0.11351,0.96473 0,1.4342 -0.10322,0.43333 -0.33533,0.84606 -0.80481,1.66633 l -5.28581,9.34381 -0.0136,0.024 c -0.46553,0.81471 -0.70144,1.22761 -1.02841,1.53915 -0.35596,0.34055 -0.78417,0.58803 -1.25363,0.72756 -0.42819,0.11857 -0.90796,0.11857 -1.86752,0.11857 z m 10.29201,0 h 5.83971 c 0.86155,0 1.29496,0 1.55306,-0.17002 0.27852,-0.18065 0.45384,-0.48516 0.4695,-0.8151 0.0148,-0.29446 -0.19211,-0.65154 -0.59758,-1.35125 -0.0139,-0.0238 -0.0279,-0.0481 -0.0422,-0.0728 l -2.92517,-5.00409 -0.0333,-0.0564 c -0.41105,-0.6951 -0.61853,-1.0461 -0.88502,-1.18179 -0.29388,-0.14963 -0.63979,-0.14963 -0.93371,0 -0.26826,0.13929 -0.48493,0.50557 -0.91312,1.24328 l -2.91477,5.00412 -0.009,0.0173 c -0.42666,0.73653 -0.63991,1.1046 -0.62454,1.4066 0.0207,0.33023 0.19088,0.63447 0.46945,0.81511 0.2528,0.16497 0.68613,0.16497 1.54768,0.16497 z"
   fill="#e84142"
   id="path6642"
   style="display:inline;stroke-width:0.0279627" />
</g>
</svg>
