<?xml version="1.0" encoding="UTF-8" standalone="no"?>
<!-- Created with Inkscape (http://www.inkscape.org/) -->

<svg
   width="127.99999"
   height="127.99999"
   viewBox="0 0 33.866664 33.866664"
   version="1.1"
   id="svg262"
   inkscape:export-filename="bava.png"
   inkscape:export-xdpi="96"
   inkscape:export-ydpi="96"
   xmlns:inkscape="http://www.inkscape.org/namespaces/inkscape"
   xmlns:sodipodi="http://sodipodi.sourceforge.net/DTD/sodipodi-0.dtd"
   xmlns="http://www.w3.org/2000/svg"
   xmlns:svg="http://www.w3.org/2000/svg">
  <sodipodi:namedview
     id="namedview264"
     pagecolor="#ffffff"
     bordercolor="#000000"
     borderopacity="0.25"
     inkscape:showpageshadow="2"
     inkscape:pageopacity="0.0"
     inkscape:pagecheckerboard="0"
     inkscape:deskcolor="#d1d1d1"
     inkscape:document-units="mm"
     showgrid="false" />
  <defs
     id="defs259" />
  <g
     inkscape:label="Layer 1"
     inkscape:groupmode="layer"
     id="layer1">
    <circle
       style="display:inline;fill:#f9df4b;fill-opacity:1;stroke-width:0.74558;stroke-linecap:square;paint-order:stroke fill markers"
       id="path435"
       cx="16.933332"
       cy="16.933332"
       r="16.933332" />
    <path
       d="m 15.665232,3.7579218 c -0.274185,0.1713651 -0.736871,0.565505 -1.011054,0.8568257 -0.377004,0.3941399 -0.668325,0.531232 -1.079601,0.531232 -0.993918,0 -2.227747,0.7882796 -2.724705,1.7479244 -0.257048,0.5140955 -0.325594,1.970699 -0.08568,2.3477017 0.102818,0.154229 -0.274185,0.6511877 -1.3366485,1.7136504 -1.7136515,1.696516 -2.5019313,3.084572 -3.1188461,5.500821 -0.3255938,1.28524 -0.3941394,2.02211 -0.445549,6.117736 l -0.085683,4.678269 h 11.1558696 11.15587 v -4.335539 c 0,-2.381975 -0.08568,-4.798223 -0.1885,-5.363728 -0.565506,-3.204529 -1.91929,-5.603641 -4.232719,-7.488657 -0.548369,-0.4284127 -0.565506,-0.4969587 -0.39414,-1.0110534 0.102819,-0.2913207 0.188502,-0.7540066 0.188502,-1.0281908 0,-0.565505 -0.496961,-1.6279689 -0.976782,-2.0563817 -0.44555,-0.4112763 -1.490878,-0.8225526 -2.073518,-0.8225526 -0.325594,0 -0.668324,-0.1885017 -1.062465,-0.599778 C 19.041124,4.2206077 18.52703,3.8436044 18.218572,3.6893757 17.464566,3.3295089 16.299283,3.363782 15.665232,3.7579218 Z m 2.484794,2.0049722 c 0.685461,0.6340509 1.645105,1.0967369 2.347703,1.0967369 0.651187,0 1.250965,0.6169145 1.250965,1.3195115 0,0.3084575 -0.03427,0.5655045 -0.08568,0.5655045 -0.03427,0 -0.668325,-0.205638 -1.405195,-0.4455489 -1.919292,-0.6340509 -4.524041,-0.6511874 -6.477604,-0.017137 -1.47374,0.4798227 -1.713651,0.4284127 -1.542286,-0.3941398 0.137092,-0.5826414 0.702597,-1.0281908 1.302375,-1.0281908 0.73687,0 1.645105,-0.4284128 2.21061,-1.0281908 0.531232,-0.565505 1.148147,-0.8568257 1.542286,-0.7197336 0.137092,0.05141 0.531233,0.3427302 0.856826,0.651188 z m 1.902153,4.2327183 c 1.490877,0.5312317 3.238801,1.7821967 4.198447,2.9988887 0.411275,0.54837 0.754006,1.028191 0.754006,1.096738 0,0.05141 -0.411277,0 -0.891099,-0.137093 -2.090655,-0.548368 -4.91818,-0.925372 -7.111653,-0.925372 -2.227747,0 -5.483685,0.428413 -7.2144723,0.942509 -0.4284131,0.137092 -0.8225525,0.222774 -0.8396893,0.188502 -0.034274,-0.03427 0.291321,-0.531233 0.719734,-1.096737 1.2166916,-1.627969 3.1017076,-2.844662 5.1580906,-3.3758927 1.456603,-0.3598667 3.787169,-0.2227747 5.226636,0.308457 z m 1.782198,5.1752267 c 1.131009,0.222774 2.519067,0.548368 3.067435,0.719733 0.873963,0.274185 1.045328,0.39414 1.165283,0.822553 0.06855,0.274185 0.10282,0.531232 0.06855,0.548369 -0.03427,0.03427 -0.856826,-0.08568 -1.833607,-0.274184 -4.883906,-0.959645 -10.299044,-0.925372 -15.1315415,0.08568 -0.6511868,0.137092 -1.2166919,0.205639 -1.2681016,0.154229 -0.051406,-0.05141 -0.017141,-0.308458 0.068547,-0.565505 0.1885009,-0.548369 1.0281903,-0.856826 3.7528961,-1.422331 3.615805,-0.754007 6.563285,-0.771143 10.110543,-0.06855 z m -0.428413,3.016027 c 1.508013,0.171364 3.170255,0.496958 4.42122,0.822552 l 0.719734,0.205639 v 1.610832 1.627968 H 16.933334 7.3026133 l 0.1370921,-1.593695 c 0.051406,-0.856826 0.1713649,-1.627969 0.2227745,-1.696515 0.1542289,-0.137092 3.3416211,-0.78828 4.8324961,-0.976781 1.645105,-0.205638 7.23161,-0.222775 8.910988,0 z m 5.140954,6.923151 v 0.959645 l -9.545038,-0.05141 -9.5621746,-0.05141 -0.051406,-0.908235 -0.051406,-0.891099 h 9.5964476 9.613585 z"
       id="path2996"
       style="stroke-width:0.0171365" />
  </g>
</svg>
