<?xml version="1.0" encoding="UTF-8" standalone="no"?>
<!-- Generator: Adobe Illustrator 24.0.0, SVG Export Plug-In . SVG Version: 6.00 Build 0)  -->

<svg
   version="1.1"
   id="Layer_1"
   x="0px"
   y="0px"
   viewBox="0 0 128 128"
   xml:space="preserve"
   sodipodi:docname="bitcoin-cash-bch-logo.svg"
   width="128"
   height="128"
   inkscape:export-filename="..\All Crypto\bch.png"
   inkscape:export-xdpi="96"
   inkscape:export-ydpi="96"
   xmlns:inkscape="http://www.inkscape.org/namespaces/inkscape"
   xmlns:sodipodi="http://sodipodi.sourceforge.net/DTD/sodipodi-0.dtd"
   xmlns="http://www.w3.org/2000/svg"
   xmlns:svg="http://www.w3.org/2000/svg"><defs
   id="defs10" /><sodipodi:namedview
   id="namedview8"
   pagecolor="#ffffff"
   bordercolor="#000000"
   borderopacity="0.25"
   inkscape:showpageshadow="2"
   inkscape:pageopacity="0.0"
   inkscape:pagecheckerboard="0"
   inkscape:deskcolor="#d1d1d1"
   showgrid="false" />
<style
   type="text/css"
   id="style2">
	.st0{fill:#0AC18E;}
	.st1{fill:#FFFFFF;}
</style>
<circle
   class="st0"
   cx="64"
   cy="64"
   r="64"
   id="circle4"
   style="stroke-width:0.162437" />
<path
   id="symbol_1_"
   class="st1"
   d="M 83.963452,42.509645 C 80.747208,35.216244 73.356345,33.656853 64.308629,35.167513 l -2.907614,-11.273097 -6.854822,1.770559 2.858883,11.240609 c -1.803046,0.454822 -3.654822,0.84467 -5.490355,1.364467 l -2.858883,-11.175635 -6.854823,1.770559 2.907614,11.273096 c -1.478172,0.422335 -13.839593,3.589848 -13.839593,3.589848 l 1.884263,7.342132 c 0,0 5.035533,-1.413198 4.986803,-1.299493 2.793908,-0.730964 4.109644,0.66599 4.726903,1.981726 l 7.991878,30.895432 c 0.09746,0.893401 -0.06497,2.420304 -1.981726,2.940101 0.113706,0.06498 -4.986802,1.283249 -4.986802,1.283249 l 0.747208,8.560406 c 0,0 12.247716,-3.135025 13.855838,-3.541117 l 2.940102,11.403045 6.854822,-1.77056 -2.940102,-11.484261 C 67.232487,89.6 69.06802,89.145178 70.854822,88.674112 L 73.77868,100.0934 80.633503,98.322843 77.693401,86.936041 C 88.251777,84.369543 95.707614,77.709645 94.180711,67.524873 93.206091,61.384772 86.497462,56.349239 80.925888,55.780711 84.353299,52.743147 86.091371,48.308629 83.963452,42.509645 Z M 80.66599,69.392893 C 82.030457,79.480203 68.012183,80.714721 63.382741,81.932995 L 59.354315,66.84264 C 64,65.624365 78.359391,60.507614 80.66599,69.392893 Z M 72.219289,48.84467 C 73.664975,57.811168 61.677157,58.850761 57.811168,59.841624 L 54.140102,46.148223 c 3.882233,-0.958375 15.139086,-5.604061 18.079187,2.696447 z"
   style="stroke-width:0.162437" />
</svg>
