<?xml version="1.0" encoding="UTF-8" standalone="no"?>
<!-- Created with Inkscape (http://www.inkscape.org/) -->

<svg
   width="127.99999"
   height="127.99999"
   viewBox="0 0 33.866664 33.866664"
   version="1.1"
   id="svg577"
   inkscape:export-filename="time.svg"
   inkscape:export-xdpi="96"
   inkscape:export-ydpi="96"
   sodipodi:docname="cly.svg"
   xml:space="preserve"
   inkscape:version="1.2.2 (732a01da63, 2022-12-09)"
   xmlns:inkscape="http://www.inkscape.org/namespaces/inkscape"
   xmlns:sodipodi="http://sodipodi.sourceforge.net/DTD/sodipodi-0.dtd"
   xmlns="http://www.w3.org/2000/svg"
   xmlns:svg="http://www.w3.org/2000/svg"><sodipodi:namedview
     id="namedview579"
     pagecolor="#ffffff"
     bordercolor="#000000"
     borderopacity="0.25"
     inkscape:showpageshadow="2"
     inkscape:pageopacity="0.0"
     inkscape:pagecheckerboard="0"
     inkscape:deskcolor="#d1d1d1"
     inkscape:document-units="mm"
     showgrid="false"
     inkscape:zoom="6.2968754"
     inkscape:cx="52.645158"
     inkscape:cy="66.38213"
     inkscape:window-width="1920"
     inkscape:window-height="1009"
     inkscape:window-x="-8"
     inkscape:window-y="-8"
     inkscape:window-maximized="1"
     inkscape:current-layer="layer1" /><defs
     id="defs574"><linearGradient
       id="paint5_linear-5"
       x1="125.375"
       y1="184.226"
       x2="125.375"
       y2="107.421"
       gradientUnits="userSpaceOnUse"
       gradientTransform="matrix(0.15586432,0,0,0.15586432,-2.6068322,-2.4938302)"><stop
         stop-color="#FF78F1"
         id="stop332" /><stop
         offset="1"
         stop-color="#00FFF7"
         id="stop334" /></linearGradient><linearGradient
       id="paint4_linear-9"
       x1="56.104301"
       y1="207.713"
       x2="194.646"
       y2="207.713"
       gradientUnits="userSpaceOnUse"
       gradientTransform="matrix(0.15586432,0,0,0.15586432,-2.6068322,-2.4938302)"><stop
         stop-color="#009BEC"
         id="stop327" /><stop
         offset="1"
         stop-color="#00CAEF"
         id="stop329" /></linearGradient><linearGradient
       id="paint3_linear-4"
       x1="191.966"
       y1="41.163601"
       x2="85.2733"
       y2="41.163601"
       gradientUnits="userSpaceOnUse"
       gradientTransform="matrix(0.15586432,0,0,0.15586432,-2.6068322,-2.4938302)"><stop
         stop-color="#008DEB"
         id="stop322" /><stop
         offset="1"
         stop-color="#956DE7"
         id="stop324" /></linearGradient><linearGradient
       id="paint2_linear-8"
       x1="42.163601"
       y1="55.325199"
       x2="42.163601"
       y2="187.937"
       gradientUnits="userSpaceOnUse"
       gradientTransform="matrix(0.15586432,0,0,0.15586432,-2.6068322,-2.4938302)"><stop
         stop-color="#8172E8"
         id="stop317" /><stop
         offset="1"
         stop-color="#00C4EF"
         id="stop319" /></linearGradient><linearGradient
       id="paint1_linear-8"
       x1="208.58701"
       y1="54.580399"
       x2="208.58701"
       y2="193.886"
       gradientUnits="userSpaceOnUse"
       gradientTransform="matrix(0.15586432,0,0,0.15586432,-2.6068322,-2.4938302)"><stop
         stop-color="#8172E8"
         id="stop312" /><stop
         offset="1"
         stop-color="#00C4EF"
         id="stop314" /></linearGradient><linearGradient
       id="paint0_linear-1"
       x1="76.1483"
       y1="-51.576698"
       x2="171.994"
       y2="291.00601"
       gradientUnits="userSpaceOnUse"
       gradientTransform="matrix(0.15625986,0,0,0.15625986,-2.6564189,-2.5001584)"><stop
         offset="0.1399"
         stop-color="#FF78F1"
         id="stop297" /><stop
         offset="0.2989"
         stop-color="#C199F2"
         id="stop299" /><stop
         offset="0.489"
         stop-color="#7DBDF4"
         id="stop301" /><stop
         offset="0.6612"
         stop-color="#47D9F5"
         id="stop303" /><stop
         offset="0.8091"
         stop-color="#20EEF6"
         id="stop305" /><stop
         offset="0.9269"
         stop-color="#09FAF7"
         id="stop307" /><stop
         offset="1"
         stop-color="#00FFF7"
         id="stop309" /></linearGradient></defs><g
     inkscape:label="Layer 1"
     inkscape:groupmode="layer"
     id="layer1"><circle
       style="display:inline;fill:#1b063f;fill-opacity:1;stroke:none;stroke-width:0;stroke-linecap:butt;stroke-linejoin:bevel;stroke-dasharray:none;stroke-opacity:1;paint-order:fill markers stroke"
       id="path800"
       cx="16.933332"
       cy="16.933332"
       r="16.933332" /><path
       d="M 16.933254,-7.6395799e-7 C 7.564132,-7.6395799e-7 -7.6597199e-7,7.5641325 -7.6597199e-7,16.933254 -7.6597199e-7,26.302595 7.564132,33.866665 16.933254,33.866665 c 9.369341,0 16.933411,-7.56407 16.933411,-16.933411 C 33.866665,7.5641325 26.302595,-7.6395799e-7 16.933254,-7.6395799e-7 Z M 16.933254,26.04461 c -4.985377,0 -9.1112623,-4.039942 -9.1112623,-9.111356 0,-4.985377 4.0399273,-9.1112615 9.1112623,-9.1112615 4.98547,0 9.111356,4.0399265 9.111356,9.1112615 0,4.985471 -4.125886,9.111356 -9.111356,9.111356 z"
       fill="url(#paint0_linear)"
       id="path285"
       style="fill:url(#paint0_linear-1);stroke-width:0.15626" /><path
       d="m 33.823803,16.890391 c 0,-0.08573 0,-0.17145 0,-0.257175 C 33.738073,12.6035 32.28059,8.9167472 29.879812,6.087389 c -2.486347,2.9150991 -3.943991,6.687592 -3.943991,10.803002 0,4.115442 1.457644,7.887982 3.943991,10.803113 2.400778,-2.915131 3.858266,-6.51622 3.943991,-10.545936 0,-0.08573 0,-0.171451 0,-0.257177 z"
       fill="url(#paint1_linear)"
       id="path287"
       style="fill:url(#paint1_linear-8);stroke-width:0.155864" /><path
       d="M 3.9868208,6.087389 C 1.5861518,8.9167472 0.12860282,12.6035 0.04286182,16.633216 c 0,0.08573 0,0.171451 0,0.257175 0,0.08573 0,0.171451 0,0.257177 0.08574,4.029716 1.54328998,7.71653 3.94395898,10.545936 2.486426,-2.915131 3.943975,-6.687671 3.943975,-10.803113 0,-4.11541 -1.54329,-7.8879029 -3.943975,-10.803002 z"
       fill="url(#paint2_linear)"
       id="path289"
       style="fill:url(#paint2_linear-8);stroke-width:0.155864" /><path
       d="M 27.736366,3.9439585 C 24.906961,1.5432895 21.220302,0.08573982 17.190586,-1.175972e-6 c -0.08573,0 -0.17145,0 -0.257176,0 -0.08573,0 -0.171451,0 -0.257332,0 C 12.64644,0.08573882 8.9596878,1.5432895 6.1303298,3.9439585 9.0454288,6.430384 12.817922,7.8879336 16.93341,7.8879336 21.048852,7.8021926 24.821236,6.344643 27.736366,3.9439585 Z"
       fill="url(#paint3_linear)"
       id="path291"
       style="fill:url(#paint3_linear-4);stroke-width:0.155864" /><path
       d="m 6.1302828,29.922675 c 2.915115,2.400622 6.6875922,3.943991 10.8029712,3.943991 4.115442,0 7.887982,-1.457488 10.803112,-3.943991 -2.91513,-2.400622 -6.68767,-3.943991 -10.803112,-3.943991 -4.115379,0 -7.8878562,1.457643 -10.8029712,3.943991 z"
       fill="url(#paint4_linear)"
       id="path293"
       style="fill:url(#paint4_linear-9);stroke-width:0.155864" /><path
       d="m 16.933254,21.091714 c 2.320352,0 4.201323,-1.880971 4.201323,-4.201166 0,-2.320353 -1.880971,-4.20123 -4.201323,-4.20123 -2.320196,0 -4.201104,1.880877 -4.201104,4.20123 0,2.320195 1.880908,4.201166 4.201104,4.201166 z"
       fill="url(#paint5_linear)"
       id="path295"
       style="fill:url(#paint5_linear-5);stroke-width:0.155864" /></g></svg>
