<?xml version="1.0" encoding="UTF-8" standalone="no"?>
<!-- Created with Inkscape (http://www.inkscape.org/) -->

<svg
   width="127.99999"
   height="127.99999"
   viewBox="0 0 33.866664 33.866664"
   version="1.1"
   id="svg577"
   inkscape:export-filename="cly.svg"
   inkscape:export-xdpi="96"
   inkscape:export-ydpi="96"
   xmlns:inkscape="http://www.inkscape.org/namespaces/inkscape"
   xmlns:sodipodi="http://sodipodi.sourceforge.net/DTD/sodipodi-0.dtd"
   xmlns="http://www.w3.org/2000/svg"
   xmlns:svg="http://www.w3.org/2000/svg">
  <sodipodi:namedview
     id="namedview579"
     pagecolor="#ffffff"
     bordercolor="#000000"
     borderopacity="0.25"
     inkscape:showpageshadow="2"
     inkscape:pageopacity="0.0"
     inkscape:pagecheckerboard="0"
     inkscape:deskcolor="#d1d1d1"
     inkscape:document-units="mm"
     showgrid="false" />
  <defs
     id="defs574" />
  <g
     inkscape:label="Layer 1"
     inkscape:groupmode="layer"
     id="layer1">
    <circle
       style="fill:#e5be2f;fill-opacity:1;stroke:none;stroke-width:0;stroke-linecap:butt;stroke-linejoin:bevel;stroke-dasharray:none;stroke-opacity:1;paint-order:fill markers stroke"
       id="path800"
       cx="16.933332"
       cy="16.933332"
       r="16.933332" />
    <path
       d="M 13.828377,2.5624019 C 12.54666,2.8327647 11.785641,3.1031273 10.423819,3.7740251 8.9318211,4.5150172 7.8103192,5.3561439 6.5085766,6.7079538 3.9551569,9.3514929 2.6534143,12.39557 2.4030794,16.240719 c -0.2503348,4.08547 1.6722391,8.73169 4.7463546,11.445324 1.1215019,0.991329 3.254358,2.423246 3.394545,2.283058 C 10.564005,29.949075 10.22355,29.43839 9.7829604,28.847598 8.4211371,27.015144 7.4097832,24.692034 6.9992329,22.499098 6.7889518,21.327529 6.7589114,18.503749 6.9591824,17.39226 7.15945,16.210679 7.5700003,14.718681 7.9404959,13.787434 8.8817564,11.464323 10.674156,9.291413 12.576703,8.1899379 14.85976,6.8581541 17.433205,6.6378596 20.216933,7.5290527 l 0.791058,0.2503349 1.061422,-0.2603483 c 2.343138,-0.5507371 2.303084,-0.5507371 2.022709,-0.3604831 -1.191595,0.8210999 -1.742333,1.4018782 -2.192936,2.3531513 -1.151544,2.4132325 -0.150201,5.3872135 2.212962,6.5888225 2.042736,1.031382 4.305766,0.670899 6.088153,-0.981312 0.710952,-0.660886 1.101474,-1.181583 1.101474,-1.481986 0,-0.120161 -0.12016,-0.06007 -0.47063,0.250335 -2.403218,2.11283 -6.078137,1.031382 -7.039426,-2.072775 -0.200267,-0.670897 -0.250335,-1.421905 -0.100134,-1.782388 0.07009,-0.1802405 0.08011,-0.170227 0.140188,0.100135 0.210282,0.971302 0.390523,1.361823 0.801074,1.792401 0.720964,0.740991 1.151541,0.91122 2.263029,0.91122 1.071435,0 1.461958,-0.150202 2.222976,-0.831112 C 31.962661,9.4416132 26.515366,4.1945881 19.435887,2.67255 17.983943,2.3521209 15.090069,2.3020536 13.828379,2.5624019 Z"
       id="path14301"
       style="stroke-width:0.0100134" />
    <path
       d="M 17.823727,8.4803267 C 17.082734,8.7907424 17.1328,9.9022308 17.903827,10.172593 18.524658,10.392887 19.23561,9.7820693 19.105436,9.1311984 19.015306,8.6305277 18.304363,8.2700456 17.82372,8.4803267 Z"
       id="path14303"
       style="stroke-width:0.0100134" />
    <path
       d="m 30.751035,20.41631 c -1.181582,1.742332 -3.244344,3.724987 -5.066783,4.866515 -1.502012,0.951275 -3.895216,1.912562 -5.547429,2.232991 -1.041395,0.210281 -3.414572,0.18024 -4.405899,-0.05007 -1.091461,-0.250334 -2.152882,-0.680911 -3.05409,-1.241662 -0.901206,-0.560748 -2.212961,-1.792398 -2.923914,-2.74367 -0.2803753,-0.380511 -0.5206967,-0.670899 -0.5407236,-0.650871 -0.060084,0.06008 0.3204291,1.692265 0.5807775,2.473311 0.9813151,3.034062 3.1542221,5.076797 6.2884201,5.927937 1.191594,0.320429 3.444612,0.320429 4.726328,0 4.415913,-1.091462 7.750377,-3.945283 9.622884,-8.210995 0.360483,-0.801072 1.111488,-3.354491 1.051409,-3.534732 -0.02002,-0.06008 -0.35047,0.360482 -0.73098,0.931246 z"
       id="path14317"
       style="stroke-width:0.0100134" />
  </g>
</svg>
