<?xml version="1.0" encoding="UTF-8" standalone="no"?>
<svg
   class="sc-dnqmqq sc-fQejPQ ikjvZW"
   viewBox="0 0 128 128"
   version="1.1"
   id="svg47"
   sodipodi:docname="coot.svg"
   width="128"
   height="128"
   inkscape:export-filename="..\Tokens_128x128\coot.png"
   inkscape:export-xdpi="96"
   inkscape:export-ydpi="96"
   xmlns:inkscape="http://www.inkscape.org/namespaces/inkscape"
   xmlns:sodipodi="http://sodipodi.sourceforge.net/DTD/sodipodi-0.dtd"
   xmlns="http://www.w3.org/2000/svg"
   xmlns:svg="http://www.w3.org/2000/svg">
  <sodipodi:namedview
     id="namedview49"
     pagecolor="#ffffff"
     bordercolor="#000000"
     borderopacity="0.25"
     inkscape:showpageshadow="2"
     inkscape:pageopacity="0.0"
     inkscape:pagecheckerboard="0"
     inkscape:deskcolor="#d1d1d1"
     showgrid="false" />
  <path
     fill="url(#a)"
     d="M 63.990899,128 A 64.000001,64.000001 0 1 1 64.019343,1.570199e-6 64.000001,64.000001 0 0 1 63.990899,128 Z"
     id="path2"
     style="fill:url(#a);stroke-width:7.11111" />
  <path
     fill="#a8623e"
     fill-rule="evenodd"
     d="M 82.351787,105.45067 H 45.772232 c 1.792,4.15288 0.704,8.82488 17.92,8.96 h 0.746667 c 17.215999,-0.13512 16.120888,-4.80712 17.919999,-8.96 z"
     clip-rule="evenodd"
     id="path4"
     style="stroke-width:7.11111" />
  <path
     fill="#b66d37"
     fill-rule="evenodd"
     d="M 64.431788,52.423111 H 21.096678 V 72.184888 A 35.832888,35.832888 0 0 0 56.929566,108.02489 H 71.158899 A 35.832888,35.832888 0 0 0 106.9989,72.184888 V 52.423111 H 64.417565 Z"
     clip-rule="evenodd"
     id="path6"
     style="stroke-width:7.11111" />
  <path
     fill="#a35d3b"
     fill-rule="evenodd"
     d="M 106.92068,60.017778 H 78.511787 c -9.742222,0 -7.182222,6.208 -14.520888,6.449777 -7.338667,-0.241777 -4.771556,-6.449777 -14.513778,-6.449777 H 21.089566 a 1.472,1.472 0 0 0 -1.472,1.472 v 4.387555 c 0,0.810667 0.661334,1.472 1.472,1.472 h 1.884445 c 0,14.343111 4.309333,24.433777 20.380444,24.433777 12.728888,0 16.355555,-13.596444 17.315555,-19.256888 a 2.9297777,2.9297777 0 0 1 2.901333,-2.432 h 0.874667 c 1.422222,0 2.659555,1.024 2.894222,2.432 0.96,5.660444 4.593778,19.256888 17.315555,19.256888 16.071113,0 20.387553,-10.097777 20.387553,-24.433777 h 1.88445 a 1.472,1.472 0 0 0 1.472,-1.472 v -4.387555 a 1.472,1.472 0 0 0 -1.472,-1.472 z M 41.391788,88.71111 c 0,0 -14.499555,0.725334 -14.499555,-12.273777 v -9.450667 a 2.631111,2.631111 0 0 1 2.624,-2.631111 c 15.559111,-0.09955 24.931555,-0.853333 26.453333,5.169778 1.6,6.364444 -2.830223,19.178666 -14.577778,19.178666 z M 101.09668,76.437333 c 0,12.991999 -14.49956,12.273777 -14.49956,12.273777 -11.747555,0 -16.170666,-12.814222 -14.570666,-19.178666 1.521778,-6.030222 10.894222,-5.262222 26.453336,-5.169778 a 2.6382222,2.6382222 0 0 1 2.61689,2.631111 z"
     clip-rule="evenodd"
     id="path8"
     style="stroke-width:7.11111" />
  <path
     fill="#49211b"
     fill-rule="evenodd"
     d="M 24.865566,60.088889 H 49.484232 V 58.453333 A 3.9253332,3.9253332 0 0 0 45.381121,54.535111 L 28.5989,55.317333 a 3.9182221,3.9182221 0 0 0 -3.733334,3.925334 V 60.096 Z"
     clip-rule="evenodd"
     id="path10"
     style="stroke-width:7.11111" />
  <path
     fill="#b5a595"
     fill-rule="evenodd"
     d="M 52.392677,75.043555 H 31.265566 l 0.07822,-2.844444 a 5.7599999,5.7599999 0 0 1 5.76,-5.596445 h 8.625778 c 2.488889,0 4.792889,1.443556 5.767111,3.726223 0.526222,1.208888 0.903111,2.773333 0.903111,4.707555 v 0.0071 z"
     clip-rule="evenodd"
     id="path12"
     style="stroke-width:7.11111" />
  <path
     fill="#3a6c7c"
     fill-rule="evenodd"
     d="m 45.779344,75.043555 a 5.1697777,5.1697777 0 1 0 -8.014222,0 h 8.021333 z"
     clip-rule="evenodd"
     id="path14"
     style="stroke-width:7.11111" />
  <path
     fill="#49211b"
     fill-rule="evenodd"
     d="M 103.25845,60.088889 H 78.654009 v -1.635556 c 0,-2.24 1.870223,-4.017777 4.103111,-3.918222 l 16.77511,0.782222 a 3.9182221,3.9182221 0 0 1 3.73333,3.925334 V 60.096 Z"
     clip-rule="evenodd"
     id="path16"
     style="stroke-width:7.11111" />
  <path
     fill="#b5a595"
     fill-rule="evenodd"
     d="m 75.738454,75.043555 h 21.141333 l -0.08533,-2.844444 A 5.7599999,5.7599999 0 0 0 91.04868,66.602666 h -8.647111 a 6.2435554,6.2435554 0 0 0 -5.76,3.726223 c -0.526222,1.208888 -0.903111,2.773333 -0.903111,4.707555 z"
     clip-rule="evenodd"
     id="path18"
     style="stroke-width:7.11111" />
  <path
     fill="#3a6c7c"
     fill-rule="evenodd"
     d="m 82.337565,75.043555 a 5.1697777,5.1697777 0 1 1 8.014222,0 h -8.021333 z"
     clip-rule="evenodd"
     id="path20"
     style="stroke-width:7.11111" />
  <path
     fill="#7a8dac"
     fill-rule="evenodd"
     d="M 75.966009,16.000001 H 52.015788 A 31.736888,31.736888 0 0 0 20.286011,47.729778 v 5.447111 c 0,0.426667 0.355555,0.782222 0.782222,0.782222 0,0 5.056,-1.536 42.922666,-1.536 37.866661,0 42.929781,1.536 42.929781,1.536 0.42666,0 0.78222,-0.355555 0.78222,-0.782222 V 47.729778 A 31.729777,31.729777 0 0 0 75.966009,16.000001 Z"
     clip-rule="evenodd"
     id="path22"
     style="stroke-width:7.11111" />
  <path
     fill="#8a534b"
     fill-rule="evenodd"
     d="m 66.835343,31.338667 h -4.778666 c -6.833778,0 -13.155556,3.605333 -16.618667,9.500444 l -2.076444,3.534223 H 85.530454 L 83.454009,40.839111 A 19.271111,19.271111 0 0 0 66.849565,31.338667 h -0.0071 z"
     clip-rule="evenodd"
     id="path24"
     style="stroke-width:7.11111" />
  <path
     fill="#552416"
     fill-rule="evenodd"
     d="m 62.049565,35.534223 h 4.771556 c 6.563555,0 12.657777,3.342222 16.199111,8.839111 h 2.510222 L 83.446898,40.839111 A 19.271111,19.271111 0 0 0 66.835343,31.338667 h -4.778666 c -6.833778,0 -13.155556,3.605333 -16.618667,9.500444 l -2.076444,3.534223 h 2.503111 a 19.271111,19.271111 0 0 1 16.199111,-8.839111 z"
     clip-rule="evenodd"
     id="path26"
     style="stroke-width:7.11111" />
  <path
     fill="#574a2b"
     fill-rule="evenodd"
     d="m 41.171344,70.257777 a 3.7048888,3.7048888 0 0 1 1.472,0.263112 c 0.561777,0.213333 0.597333,1.294222 0.163555,1.671111 -1.109333,0.952888 -1.984,0.782222 -2.631111,-0.526223 -0.263111,-0.519111 0.419556,-1.436444 0.995556,-1.415111 z m 44.799999,0 a 3.7048888,3.7048888 0 0 1 1.472,0.263112 c 0.554666,0.213333 0.597333,1.294222 0.156444,1.671111 -1.102222,0.952888 -1.976889,0.782222 -2.631111,-0.526223 -0.256,-0.519111 0.426667,-1.436444 1.009778,-1.415111 h -0.0071 z"
     clip-rule="evenodd"
     id="path28"
     style="stroke-width:7.11111" />
  <path
     fill="#cbcbcb"
     fill-rule="evenodd"
     d="M 106.92068,57.088 H 78.511787 c -9.742222,0 -7.182222,6.208 -14.520888,6.449778 C 56.652232,63.296 59.219343,57.088 49.477121,57.088 H 21.089566 a 1.472,1.472 0 0 0 -1.472,1.472 v 6.307555 c 0,0.810667 0.661334,1.472 1.472,1.472 h 1.884445 c 0,14.350222 4.309333,22.513777 20.380444,22.513777 12.728888,0 16.355555,-13.596444 17.315555,-19.256888 a 2.9297777,2.9297777 0 0 1 2.901333,-2.432 h 0.874667 c 1.422222,0 2.659555,1.024 2.894222,2.424889 0.96,5.667555 4.593778,19.271111 17.315555,19.271111 16.071113,0 20.387553,-8.177778 20.387553,-22.520889 h 1.88445 a 1.472,1.472 0 0 0 1.472,-1.472 V 58.56 a 1.472,1.472 0 0 0 -1.472,-1.472 z M 41.391788,85.781333 c 0,0 -14.499555,0.725333 -14.499555,-12.280889 v -9.429333 a 2.631111,2.631111 0 0 1 2.624,-2.631111 c 15.559111,-0.09956 24.931555,-0.853333 26.453333,5.169777 1.6,6.364445 -2.830223,19.178667 -14.577778,19.178667 z M 101.09668,73.500444 c 0,12.999111 -14.49956,12.280889 -14.49956,12.280889 -11.747555,0 -16.170666,-12.814222 -14.570666,-19.178667 1.521778,-6.030222 10.894222,-5.262222 26.453336,-5.169777 a 2.6382222,2.6382222 0 0 1 2.61689,2.631111 z"
     clip-rule="evenodd"
     id="path30"
     style="stroke-width:7.11111" />
  <path
     fill="#98553f"
     fill-rule="evenodd"
     d="M 64.431788,91.150221 H 53.765121 v 1.308445 c 0,1.820444 1.472,3.292444 3.285333,3.292444 h 14.008889 a 3.2924444,3.2924444 0 0 0 3.285333,-3.292444 v -1.308445 z"
     clip-rule="evenodd"
     id="path32"
     style="stroke-width:7.11111" />
  <path
     fill="#824037"
     fill-rule="evenodd"
     d="m 58.351788,95.786666 c 0,-1.287111 1.045333,-2.339556 2.339555,-2.339556 h 7.153778 c 1.287111,0 2.339555,1.045333 2.339555,2.346667 H 58.358899 Z"
     clip-rule="evenodd"
     id="path34"
     style="stroke-width:7.11111" />
  <defs
     id="defs45">
    <radialGradient
       id="a"
       cx="0"
       cy="0"
       r="1"
       gradientTransform="matrix(-81.911962,131.9099,-131.98656,-81.959606,89.036231,14.257779)"
       gradientUnits="userSpaceOnUse">
      <stop
         stop-color="#93DBFE"
         id="stop36" />
      <stop
         offset=".51"
         stop-color="#E0DBC9"
         id="stop38" />
      <stop
         offset=".785"
         stop-color="#EDA6A7"
         id="stop40" />
      <stop
         offset="1"
         stop-color="#D39EFE"
         id="stop42" />
    </radialGradient>
  </defs>
</svg>
