<?xml version="1.0" encoding="UTF-8" standalone="no"?>
<!-- Creator: CorelDRAW 2019 (64-Bit) -->

<svg
   xml:space="preserve"
   width="128"
   height="128"
   version="1.1"
   shape-rendering="geometricPrecision"
   text-rendering="geometricPrecision"
   image-rendering="optimizeQuality"
   fill-rule="evenodd"
   clip-rule="evenodd"
   viewBox="0 0 128 128"
   id="svg8"
   sodipodi:docname="multi-collateral-dai-dai-logo.svg"
   inkscape:export-filename="..\Tokens\dai.png"
   inkscape:export-xdpi="96"
   inkscape:export-ydpi="96"
   xmlns:inkscape="http://www.inkscape.org/namespaces/inkscape"
   xmlns:sodipodi="http://sodipodi.sourceforge.net/DTD/sodipodi-0.dtd"
   xmlns="http://www.w3.org/2000/svg"
   xmlns:svg="http://www.w3.org/2000/svg"><defs
   id="defs12" /><sodipodi:namedview
   id="namedview10"
   pagecolor="#ffffff"
   bordercolor="#000000"
   borderopacity="0.25"
   inkscape:showpageshadow="2"
   inkscape:pageopacity="0.0"
   inkscape:pagecheckerboard="0"
   inkscape:deskcolor="#d1d1d1"
   showgrid="false" />
 <g
   id="Layer_x0020_1"
   inkscape:label="Layer 1"
   inkscape:groupmode="layer">
  <metadata
   id="CorelCorpID_0Corel-Layer" />
  <path
   fill="#f5ac37"
   fill-rule="nonzero"
   d="m 64,0 c 35.349473,0 64,28.656287 64,64 0,35.349473 -28.650527,64 -64,64 C 28.656287,128 0,99.346593 0,64 0,28.656287 28.656287,0 64,0 Z"
   id="path3"
   style="stroke-width:0.288003" />
  <path
   fill="#fefefd"
   fill-rule="nonzero"
   d="m 66.358744,68.518765 h 24.318963 c 0.518405,0 0.763207,0 0.800648,-0.679687 0.198722,-2.473944 0.198722,-4.962289 0,-7.439114 0,-0.480965 -0.239043,-0.679687 -0.760328,-0.679687 H 42.319143 c -0.599046,0 -0.760327,0.198722 -0.760327,0.760328 v 7.119431 c 0,0.918729 0,0.918729 0.959049,0.918729 z M 88.762488,51.399874 c 0.06912,-0.181442 0.06912,-0.380164 0,-0.558726 C 88.356404,49.95698 87.875439,49.113131 87.316713,48.321123 86.475745,46.96751 85.485015,45.720457 84.356044,44.600126 83.823238,43.923319 83.206912,43.315633 82.515705,42.800108 79.053911,39.853839 74.938349,37.768698 70.514625,36.720367 68.282603,36.219242 66.00162,35.9802 63.714877,36.00036 H 42.235622 c -0.599046,0 -0.679686,0.239042 -0.679686,0.760328 V 50.95923 c 0,0.599046 0,0.760327 0.760327,0.760327 h 46.158222 c 0,0 0.400324,-0.08064 0.480965,-0.319683 h -0.195842 z m 0,25.439294 c -0.679687,-0.07488 -1.365134,-0.07488 -2.044821,0 H 42.359464 c -0.599046,0 -0.800648,0 -0.800648,0.800648 v 13.881739 c 0,0.639367 0,0.800648 0.800648,0.800648 h 20.479884 c 0.97921,0.07488 1.95842,0.0058 2.91747,-0.198722 2.972189,-0.213122 5.895419,-0.858248 8.683286,-1.920979 1.013771,-0.351363 1.99298,-0.809288 2.91747,-1.359374 h 0.279362 c 4.801008,-2.496985 8.700567,-6.419584 11.160112,-11.234992 0,0 0.279363,-0.604806 -0.03456,-0.763208 z M 33.520655,99.519395 V 99.280353 89.96058 86.801188 77.400774 c 0,-0.521285 0,-0.599046 -0.639366,-0.599046 h -8.680407 c -0.480965,0 -0.679687,0 -0.679687,-0.639366 v -7.600396 h 9.279453 c 0.518405,0 0.720007,0 0.720007,-0.679687 v -7.519755 c 0,-0.480965 0,-0.599046 -0.639366,-0.599046 h -8.680407 c -0.480965,0 -0.679687,0 -0.679687,-0.639367 v -7.03879 c 0,-0.440645 0,-0.558726 0.639367,-0.558726 h 8.599766 c 0.599046,0 0.760327,0 0.760327,-0.760327 V 29.206372 c 0,-0.639366 0,-0.800648 0.800648,-0.800648 h 29.99838 c 2.177302,0.0864 4.340204,0.325443 6.480065,0.720007 4.409324,0.815048 8.645846,2.390424 12.519485,4.639727 2.568986,1.512015 4.93349,3.337953 7.038791,5.440374 1.584015,1.644497 3.01251,3.424354 4.279722,5.319413 1.258573,1.920979 2.304023,3.97444 3.124832,6.120061 0.100801,0.558726 0.636486,0.93601 1.195212,0.840969 h 7.15975 c 0.91873,0 0.91873,0 0.95905,0.881289 v 6.560705 c 0,0.639367 -0.23904,0.800648 -0.88129,0.800648 h -5.52101 c -0.55873,0 -0.72001,0 -0.67969,0.720007 0.21888,2.436505 0.21888,4.881649 0,7.318154 0,0.679686 0,0.760327 0.76321,0.760327 h 6.3159 c 0.27936,0.360004 0,0.720007 0,1.082891 0.0403,0.463685 0.0403,0.933129 0,1.396814 v 4.841328 c 0,0.679687 -0.19872,0.881289 -0.80065,0.881289 h -7.560073 c -0.527045,-0.100801 -1.03969,0.236163 -1.160651,0.760328 -1.800018,4.680047 -4.680047,8.876249 -8.401044,12.240122 -1.359374,1.224013 -2.787868,2.376024 -4.279723,3.438755 -1.601296,0.921609 -3.159392,1.880658 -4.801008,2.640986 -3.021151,1.359374 -6.189182,2.361624 -9.440735,2.99811 -3.087391,0.552966 -6.217982,0.803528 -9.360093,0.760328 H 33.509135 v -0.04032 z"
   id="path5"
   style="stroke-width:0.288003" />
 </g>
</svg>
