<?xml version="1.0" encoding="UTF-8" standalone="no"?>
<svg
   width="128"
   height="128"
   viewBox="0 0 204.8 204.8"
   version="1.1"
   id="svg17936"
   sodipodi:docname="degenx.svg"
   inkscape:export-filename="..\Tokens_128x128\degenx.png"
   inkscape:export-xdpi="96"
   inkscape:export-ydpi="96"
   xmlns:inkscape="http://www.inkscape.org/namespaces/inkscape"
   xmlns:sodipodi="http://sodipodi.sourceforge.net/DTD/sodipodi-0.dtd"
   xmlns="http://www.w3.org/2000/svg"
   xmlns:svg="http://www.w3.org/2000/svg">
  <defs
     id="defs17940" />
  <sodipodi:namedview
     id="namedview17938"
     pagecolor="#ffffff"
     bordercolor="#000000"
     borderopacity="0.25"
     inkscape:showpageshadow="2"
     inkscape:pageopacity="0.0"
     inkscape:pagecheckerboard="0"
     inkscape:deskcolor="#d1d1d1"
     showgrid="false" />
  <circle
     cx="102.4"
     cy="102.4"
     r="102.4"
     class="cls-1"
     style="fill:#ff6c26;stroke-width:3.2"
     id="circle17930" />
  <path
     d="M 161.952,90.879998 127.52,125.312 l -5.664,-6.24 a 23.7376,23.7376 0 0 0 0.448,-33.536002 23.68,23.68 0 0 0 -17.088,-7.168 H 85.055998 l -31.072,-34.4 H 104.768 c 10.432,-0.096 20.704,2.688 29.664,8.032 -1.088,1.056 -1.696,2.496 -1.696,4 v 18.592 c 0,3.008 2.4,5.472 5.408,5.472 h 18.688 c 0.576,0 1.184,-0.096 1.728,-0.288 1.536,3.552 2.656,7.264 3.392,11.072 z M 163.04,102.048 c 0.032,16.064 -6.592,31.456 -18.304,42.464 L 130.08,128.288 162.688,95.679998 c 0.224,2.112 0.352,4.224 0.352,6.336002 z m -41.088,28.832 -29.312002,29.312 h -42.208 v -19.616 h 5.216 c 3.04,0.064 5.568,-2.368 5.632,-5.408 v -18.72 c 0,-3.04 -2.464,-5.536 -5.536,-5.536 h -5.312 V 51.711998 l 34.016,37.664 V 125.792 H 105.344 c 3.456,0 6.88,-0.768 10.016,-2.24 l 6.624,7.328 z m 16.704,18.496 A 57.8784,57.8784 0 0 1 104.928,160 H 98.111998 L 124.544,133.568 Z"
     style="fill:#ffffff;fill-rule:evenodd;stroke-width:3.2"
     id="path17932" />
  <path
     d="m 141.632,56.031998 h 11.648 c 1.952,0 3.552,1.6 3.552,3.552 v 11.776 c 0,1.952 -1.6,3.552 -3.552,3.552 h -11.648 c -1.952,0 -3.552,-1.6 -3.552,-3.552 v -11.904 c 0.064,-1.92 1.632,-3.424 3.552,-3.424 z m 23.648,-7.808 h 8.544 c 1.376,0 2.464,1.12 2.464,2.464 v 8.576 c 0,1.376 -1.088,2.496 -2.432,2.528 h -8.576 c -1.376,0 -2.496,-1.12 -2.528,-2.528 v -8.544 c 0,-1.376 1.12,-2.528 2.528,-2.528 z m -16.832,-9.664 h 7.072 c 1.12,0 2.048,0.928 2.048,2.048 v 7.072 c 0,1.12 -0.928,2.048 -2.048,2.048 h -7.072 c -1.12,0 -2.048,-0.864 -2.048,-1.984 v -7.136 c 0,-1.12 0.928,-2.048 2.048,-2.048 z M 52.223998,135.104 h -11.808 c -1.952,0 -3.552,-1.6 -3.552,-3.552 v -11.744 c 0,-1.952 1.6,-3.552 3.552,-3.552 h 11.808 c 1.952,0 3.552,1.6 3.552,3.552 v 11.808 c -0.032,1.92 -1.6,3.456 -3.552,3.456 z m -24.16,3.424 h -8.544 c -1.376,0 -2.496,-1.088 -2.528,-2.432 v -8.384 c 0,-1.376 1.152,-2.464 2.528,-2.464 h 8.544 c 1.376,0 2.496,1.088 2.528,2.464 v 8.544 c -0.096,1.312 -1.184,2.336 -2.528,2.304 z m 12.48,15.072 h -7.072 c -1.12,0 -2.016,-0.896 -2.016,-2.016 v -7.072 c 0,-1.12 0.896,-1.984 2.016,-2.016 h 7.072 c 1.12,0 1.984,0.896 2.016,2.016 v 7.072 c 0,1.12 -0.896,2.016 -2.016,2.016 z"
     style="fill:#ffffff;fill-rule:evenodd;stroke-width:3.2"
     id="path17934" />
</svg>
