<?xml version="1.0" encoding="UTF-8" standalone="no"?>
<!-- Created with Inkscape (http://www.inkscape.org/) -->

<svg
   width="127.99999"
   height="127.99999"
   viewBox="0 0 33.866664 33.866664"
   version="1.1"
   id="svg23622"
   inkscape:export-filename="dep.svg"
   inkscape:export-xdpi="96"
   inkscape:export-ydpi="96"
   xmlns:inkscape="http://www.inkscape.org/namespaces/inkscape"
   xmlns:sodipodi="http://sodipodi.sourceforge.net/DTD/sodipodi-0.dtd"
   xmlns="http://www.w3.org/2000/svg"
   xmlns:svg="http://www.w3.org/2000/svg">
  <sodipodi:namedview
     id="namedview23624"
     pagecolor="#ffffff"
     bordercolor="#000000"
     borderopacity="0.25"
     inkscape:showpageshadow="2"
     inkscape:pageopacity="0.0"
     inkscape:pagecheckerboard="0"
     inkscape:deskcolor="#d1d1d1"
     inkscape:document-units="mm"
     showgrid="false" />
  <defs
     id="defs23619" />
  <g
     inkscape:label="Layer 1"
     inkscape:groupmode="layer"
     id="layer1">
    <circle
       style="fill:#554fd8;fill-opacity:1;stroke-width:2.38842;stroke-linejoin:bevel;paint-order:fill markers stroke"
       id="path23795"
       cx="16.933332"
       cy="16.933332"
       r="16.933332" />
    <path
       d="m 5.1308841,17.22102 7.7239419,5.765416 c 0.01217,0 0.01217,0.01217 0.02448,0.01217 l 2.864344,2.129905 c 0.244792,0.183588 0.587515,0.01217 0.587515,-0.293784 l 0.01217,-15.8762663 c -0.02447,-0.281533 -0.06119,-0.575315 -0.122399,-0.856849 -0.06121,-0.269302 -0.146918,-0.526358 -0.269319,-0.746687 0.208128,1.554572 -0.673237,3.3662073 -2.16658,4.5535573 -0.330517,0.269317 -0.783429,0.563104 -1.285279,0.771168 -0.538634,0.232586 -2.166635,0.795634 -2.166635,0.795634 l -4.9085409,1.774921 c -0.844614,0.30605 -1.015986,1.432201 -0.29378,1.970779 z"
       fill="#f2eeff"
       id="path26253"
       style="stroke-width:0.565081" />
    <path
       d="m 12.793684,12.545027 c 0.01217,-0.01217 0.03674,-0.01217 0.04893,-0.02448 0.02452,-0.01217 0.04899,-0.02448 0.08573,-0.04899 0.03667,-0.01217 0.06119,-0.03667 0.09792,-0.04893 0.01217,-0.01217 0.03667,-0.02448 0.04893,-0.02448 0.03673,-0.02447 0.08566,-0.04899 0.122399,-0.07347 0.01217,-0.01217 0.02448,-0.01217 0.03674,-0.02448 0.03673,-0.02448 0.07347,-0.04899 0.122399,-0.07347 0.02452,-0.01217 0.03674,-0.02447 0.06119,-0.03673 0.02452,-0.02448 0.06119,-0.03674 0.08573,-0.06119 0.03674,-0.02448 0.07341,-0.06119 0.122399,-0.08567 0.01217,0 0.01217,-0.01217 0.02448,-0.01217 0.04899,-0.03673 0.09792,-0.07347 0.146917,-0.11014 1.493343,-1.187348 2.3747,-2.9990063 2.16658,-4.5535853 -0.08566,-0.146897 -0.195847,-0.281536 -0.318253,-0.379464 l -2.546091,-1.885129 c -0.244794,-0.18361 -0.599778,-0.01217 -0.599778,0.293777 v 4.443394 c 0,2.7909213 -2.166635,3.6354923 -2.166635,3.6354923 0,0 1.640262,-0.550842 2.166635,-0.783373 0.09792,-0.04899 0.195848,-0.09792 0.293786,-0.146918 z"
       fill="#dbd9ff"
       id="path26255"
       style="stroke-width:0.565081" />
    <path
       d="m 28.731079,16.645711 -7.723931,-5.765416 c -0.01217,0 -0.01217,-0.01217 -0.02448,-0.01217 L 18.11833,8.7382487 c -0.24485,-0.18361 -0.587572,-0.01217 -0.587572,0.29378 V 24.908309 c 0.02447,0.281525 0.06119,0.575311 0.122399,0.856834 0.06119,0.269319 0.146918,0.526373 0.269317,0.746698 -0.208128,-1.554596 0.673239,-3.366189 2.16658,-4.553596 0.330517,-0.269261 0.783429,-0.563047 1.285279,-0.771167 0.526373,-0.232531 2.166635,-0.783373 2.166635,-0.783373 l 4.908527,-1.774921 c 0.844628,-0.318256 1.003753,-1.444407 0.28158,-1.982985 z"
       fill="#f2eeff"
       id="path26257"
       style="stroke-width:0.565081" />
    <path
       d="m 21.080664,21.321649 c -0.01217,0.01217 -0.03674,0.01217 -0.04893,0.02448 -0.02452,0.01217 -0.04899,0.02452 -0.08573,0.04899 -0.03674,0.01217 -0.06121,0.03673 -0.09792,0.04893 -0.01217,0.01217 -0.03674,0.02452 -0.04893,0.02452 -0.03674,0.02447 -0.08567,0.04893 -0.122399,0.07341 -0.01217,0.01217 -0.02452,0.01217 -0.03674,0.02452 -0.03674,0.02448 -0.07347,0.04893 -0.1224,0.07341 -0.02452,0.01217 -0.03673,0.02452 -0.06119,0.03674 -0.02452,0.02447 -0.06125,0.03673 -0.08573,0.06119 -0.03674,0.02452 -0.07347,0.06119 -0.1224,0.08573 -0.01217,0 -0.01217,0.01217 -0.02447,0.01217 -0.04899,0.03674 -0.09792,0.07347 -0.146918,0.110183 -1.493341,1.187349 -2.374699,2.999 -2.166578,4.55354 0.08566,0.146918 0.195848,0.281523 0.318254,0.379453 l 2.533825,1.885113 c 0.244794,0.183588 0.599778,0.01217 0.599778,-0.293786 v -4.443407 c 0,-2.778677 2.166637,-3.635511 2.166637,-3.635511 0,0 -1.640262,0.550842 -2.166637,0.783431 -0.08566,0.04893 -0.183589,0.09792 -0.281523,0.146875 z"
       fill="#dbd9ff"
       id="path26259"
       style="stroke-width:0.565081" />
  </g>
</svg>
