<?xml version="1.0" encoding="UTF-8" standalone="no"?>
<svg
   id="Layer_1"
   data-name="Layer 1"
   viewBox="0 0 128 128"
   version="1.1"
   sodipodi:docname="egg.svg"
   width="128"
   height="128"
   inkscape:export-filename="Networks\Tokens\egg.svg"
   inkscape:export-xdpi="96"
   inkscape:export-ydpi="96"
   xmlns:inkscape="http://www.inkscape.org/namespaces/inkscape"
   xmlns:sodipodi="http://sodipodi.sourceforge.net/DTD/sodipodi-0.dtd"
   xmlns="http://www.w3.org/2000/svg"
   xmlns:svg="http://www.w3.org/2000/svg">
  <sodipodi:namedview
     id="namedview15571"
     pagecolor="#ffffff"
     bordercolor="#000000"
     borderopacity="0.25"
     inkscape:showpageshadow="2"
     inkscape:pageopacity="0.0"
     inkscape:pagecheckerboard="0"
     inkscape:deskcolor="#d1d1d1"
     showgrid="false" />
  <defs
     id="defs15562">
    <style
       id="style15560">
            .cls-1 {
                fill: #df3f3e;
            }

            .cls-2 {
                fill: #fff;
            }

            .cls-25 {
                fill: #387cf4;
            }

            .cls-48 {
                fill: none;
                stroke: #387cf4;
                stroke-miterlimit: 10;
                stroke-width: 5px;
            }
        </style>
  </defs>
  <!-- egg -->
  <g
     transform="matrix(1.7066667,0,0,1.7066667,0,-165.40208)"
     id="g15568">
    <g
       id="Layer_5-2"
       data-name="Layer 5">
      <circle
         id="RED-2"
         data-name="RED"
         class="cls-1"
         cx="37.5"
         cy="134.41528"
         r="37.5"
         style="display:inline" />
    </g>
    <path
       class="cls-2"
       d="m 37.114902,104.41528 c -11.6492,0 -23.984358,16.84802 -23.984358,32.82957 0,15.10304 10.481876,26.93276 23.864015,26.93276 12.226848,0 24.874896,-10.07271 24.874896,-26.93276 0,-15.03084 -13.418243,-32.82957 -24.754553,-32.82957 z"
       id="path15566"
       style="display:inline;stroke-width:1.20343"
       inkscape:label="path15566"
       sodipodi:nodetypes="sssss" />
  </g>
  <g
     id="g17234"
     transform="matrix(2.5834052,-0.4679107,0.4679107,2.5834052,-137.11227,-98.197189)"
     inkscape:label="g17234">
    <path
       class="cls-2"
       d="M 70.88638,77.335167 69.341248,65.091966 c -0.340452,-2.684339 -2.003433,-4.465168 -4.465167,-4.465168 a 4.5306393,4.5306393 0 0 0 -4.41279,4.635394 2.5010176,2.5010176 0 0 0 -3.53547,0.170226 2.6188666,2.6188666 0 0 0 -0.60234,2.160565 l 1.309434,6.547167 5.237733,0.693999 v -0.327358 z"
       id="path15696-0"
       style="fill:#df3f3e;fill-opacity:1;stroke-width:1.30943" />
    <path
       class="cls-2"
       d="m 69.485286,81.315844 -0.510679,-5.237733 a 1.3879993,1.3879993 0 0 1 1.243962,-1.505848 1.3094333,1.3094333 0 0 1 0.772565,0.157132 l 5.342488,2.828376 a 1.3879993,1.3879993 0 0 1 0,2.461734 l -4.884186,2.396263 a 1.3094333,1.3094333 0 0 1 -1.846301,-0.615433 1.57132,1.57132 0 0 1 -0.117849,-0.484491 z"
       id="path15698-6"
       style="fill:#df3f3e;fill-opacity:1;stroke-width:1.30943" />
    <path
       class="cls-2"
       d="M 72.446886,96.808903 C 71.346962,84.081215 71.37087,82.376485 70.88638,77.335167 70.349512,71.87483 66.617627,68.169134 61.392988,68.509586 c -4.643473,0.350719 -8.22404,4.234433 -8.197052,8.891053 v 11.18256 c -2.768292,9.111097 -2.243846,3.389424 19.25095,8.225704 z M 67.062834,80.150449 c -1.644988,0 -2.468504,-1.988728 -1.305465,-3.151767 1.163038,-1.163039 3.151766,-0.339523 3.151766,1.305466 v 0 c 0,1.019682 -0.826619,1.846301 -1.846301,1.846301 z"
       id="path15700-4"
       sodipodi:nodetypes="ccccccsssss"
       style="fill:#df3f3e;fill-opacity:1;stroke-width:1.30943" />
  </g>
</svg>
