<?xml version="1.0" encoding="UTF-8" standalone="no"?>
<svg
   id="Layer_1"
   data-name="Layer 1"
   viewBox="0 0 128 128"
   version="1.1"
   sodipodi:docname="egg.svg"
   width="128"
   height="128"
   inkscape:export-filename="eggg.png"
   inkscape:export-xdpi="96"
   inkscape:export-ydpi="96"
   xmlns:inkscape="http://www.inkscape.org/namespaces/inkscape"
   xmlns:sodipodi="http://sodipodi.sourceforge.net/DTD/sodipodi-0.dtd"
   xmlns="http://www.w3.org/2000/svg"
   xmlns:svg="http://www.w3.org/2000/svg">
  <sodipodi:namedview
     id="namedview15571"
     pagecolor="#ffffff"
     bordercolor="#000000"
     borderopacity="0.25"
     inkscape:showpageshadow="2"
     inkscape:pageopacity="0.0"
     inkscape:pagecheckerboard="0"
     inkscape:deskcolor="#d1d1d1"
     showgrid="false" />
  <defs
     id="defs15562">
    <style
       id="style15560">
            .cls-1 {
                fill: #df3f3e;
            }

            .cls-2 {
                fill: #fff;
            }

            .cls-25 {
                fill: #387cf4;
            }

            .cls-48 {
                fill: none;
                stroke: #387cf4;
                stroke-miterlimit: 10;
                stroke-width: 5px;
            }
        </style>
  </defs>
  <!-- egg -->
  <g
     transform="matrix(1.7066667,0,0,1.7066667,0,-165.40208)"
     id="g15568">
    <g
       id="Layer_5-2"
       data-name="Layer 5">
      <circle
         id="circle137"
         data-name="RED"
         class="cls-1"
         cx="37.5"
         cy="134.41528"
         r="37.5"
         style="display:inline;fill:#ffffff;fill-opacity:1" />
      <circle
         id="RED-2"
         data-name="RED"
         class="cls-1"
         cx="37.5"
         cy="134.41528"
         r="37.5"
         style="display:none" />
    </g>
    <path
       class="cls-2"
       d="m 37.08992,102.59571 c -12.404887,0 -25.540229,17.94095 -25.540229,34.95923 0,16.08278 11.161838,28.6799 25.412079,28.6799 13.020007,0 26.488537,-10.72613 26.488537,-28.6799 0,-16.00589 -14.288688,-34.95923 -26.360387,-34.95923 z"
       id="path15566"
       style="display:inline;stroke:#df3f3e;stroke-width:4.6875;stroke-dasharray:none;stroke-opacity:1"
       inkscape:label="path15566"
       sodipodi:nodetypes="sssss" />
  </g>
  <g
     id="g17234"
     transform="matrix(2.5834052,-0.4679107,0.4679107,2.5834052,-137.11227,-98.197189)"
     inkscape:label="g17234">
    <path
       class="cls-2"
       d="m 71.294784,77.603781 -1.645365,-13.03742 c -0.362537,-2.858473 -2.133396,-4.754825 -4.754823,-4.754825 a 4.824543,4.824543 0 0 0 -4.699049,4.936094 2.6632592,2.6632592 0 0 0 -3.764817,0.181268 2.7887531,2.7887531 0 0 0 -0.641414,2.300721 l 1.394378,6.971884 5.577506,0.739019 v -0.348594 z"
       id="path15696-0"
       style="fill:#df3f3e;fill-opacity:1;stroke-width:1.39437" />
    <path
       class="cls-2"
       d="M 69.802801,81.842686 69.258994,76.26518 a 1.4780391,1.4780391 0 0 1 1.324658,-1.603533 1.3943766,1.3943766 0 0 1 0.822682,0.167325 l 5.689056,3.011854 a 1.4780391,1.4780391 0 0 1 0,2.621427 l -5.201024,2.551709 a 1.3943766,1.3943766 0 0 1 -1.966071,-0.655356 1.6732519,1.6732519 0 0 1 -0.125494,-0.51592 z"
       id="path15698-6"
       style="fill:#df3f3e;fill-opacity:1;stroke-width:1.39437" />
    <path
       class="cls-2"
       d="m 72.656264,93.322144 c -1.171277,-13.553337 -0.845561,-10.350013 -1.36148,-15.718363 -0.571694,-5.81455 -4.545668,-9.760635 -10.10923,-9.398098 -4.944696,0.37347 -8.757536,4.509121 -8.728797,9.467817 v 11.907976 c 0.576883,3.594248 9.824482,7.858114 20.199507,3.740668 z m -5.43306,-12.720453 c -1.751699,0 -2.628636,-2.117737 -1.390151,-3.356223 1.238485,-1.238485 3.356222,-0.361547 3.356222,1.390152 v 0 c 0,1.085829 -0.880242,1.966071 -1.966071,1.966071 z"
       id="path15700-4"
       sodipodi:nodetypes="ccccccsssss"
       style="fill:#df3f3e;fill-opacity:1;stroke-width:1.39437" />
  </g>
</svg>
