<?xml version="1.0" encoding="UTF-8" standalone="no"?>
<svg
   width="128"
   height="128"
   viewBox="0 0 128 128"
   fill="none"
   version="1.1"
   id="svg5912"
   sodipodi:docname="fitfi.svg"
   inkscape:export-filename="..\Downloads\Networks\Tokens\fitfi.png"
   inkscape:export-xdpi="96"
   inkscape:export-ydpi="96"
   xmlns:inkscape="http://www.inkscape.org/namespaces/inkscape"
   xmlns:sodipodi="http://sodipodi.sourceforge.net/DTD/sodipodi-0.dtd"
   xmlns="http://www.w3.org/2000/svg"
   xmlns:svg="http://www.w3.org/2000/svg">
  <defs
     id="defs5916" />
  <sodipodi:namedview
     id="namedview5914"
     pagecolor="#ffffff"
     bordercolor="#000000"
     borderopacity="0.25"
     inkscape:showpageshadow="2"
     inkscape:pageopacity="0.0"
     inkscape:pagecheckerboard="0"
     inkscape:deskcolor="#d1d1d1"
     showgrid="false" />
  <circle
     cx="64"
     cy="64"
     r="64"
     fill="#f9d549"
     id="circle5908"
     style="stroke-width:1.48837" />
  <path
     fill-rule="evenodd"
     clip-rule="evenodd"
     d="m 52.498605,31.773916 c 0.460502,-0.3392 1.0176,-0.520781 1.588539,-0.518102 0.268651,0.0016 0.535665,0.04391 0.791665,0.125619 0,0 5.770568,1.629916 7.125284,7.283646 0.713823,2.97347 2.31814,4.189619 4.432372,5.023256 1.16614,0.459907 2.434084,0.68346 3.640558,0.811163 v -2.527405 c 0,-2.960372 2.386605,-5.35814 5.333284,-5.35814 2.946977,0 5.333581,2.397768 5.333581,5.35814 v 5.35814 c 0,0.710548 -0.281153,1.391925 -0.781246,1.8944 -0.500093,0.502325 -1.178344,0.784669 -1.885321,0.784669 -4.43773,0.795684 -5.333581,5.58854 -5.333581,8.03721 0,6.874195 5.16852,16.05373 13.026381,16.05373 0.376707,-0.0442 0.758772,-0.0068 1.12,0.109395 2.225265,0.715312 1.38627,2.973768 2.536186,4.448 3.003684,3.850865 7.317879,5.648521 7.317879,11.537712 0,3.208186 -2.056781,5.815218 -4.396056,6.870474 -2.338828,1.054958 -4.839442,1.166735 -7.135404,1.166735 -9.220763,0 -15.283945,-6.319925 -17.974326,-8.497711 C 57.630958,81.952893 49.968223,71.531609 40.784967,63.279033 33.615628,56.836465 32.758623,47.607516 32.758623,47.607516 c -0.06311,-0.606511 0.08156,-1.216595 0.409898,-1.729339 0.328781,-0.512893 0.82173,-0.897637 1.397432,-1.090977 l 6.812726,-2.281377 c 0.470623,-1.237432 1.299795,-2.980018 3.229023,-4.64119 2.345675,-2.019424 7.890903,-6.090717 7.890903,-6.090717 z m 4.317916,8.147051 c -0.357954,-1.493432 -1.519479,-2.318139 -2.447926,-2.836093 -1.388651,1.035461 -4.771721,3.542028 -6.291944,4.850605 -0.668725,0.575851 -1.192335,1.461135 -1.562642,2.213358 l 4.146158,5.258716 c 2.256075,2.713749 -2.18493,6.005135 -4.182474,3.322642 L 42.561042,47.75933 38.58694,49.093656 c 0.47092,2.243721 1.625748,6.4768 5.755237,10.187758 9.107944,8.184707 16.717693,18.566102 26.245358,26.283163 2.972577,2.4064 6.824632,6.27706 12.406325,7.126623 -7.749655,-5.654177 -19.523572,-18.449414 -23.583553,-26.607479 0.679888,0.809079 3.023777,2.214995 3.895963,1.590772 0.946456,-0.680484 1.122977,-1.947684 0.53626,-2.898753 -0.629135,-1.000484 -1.754493,-2.141768 -2.926883,-3.330382 -2.017191,-2.04547 -4.172205,-4.230846 -4.172205,-6.077916 0,-1.832484 1.173284,-2.67907 2.666865,-2.67907 1.493284,0 2.770605,2.658233 5.333284,2.658233 1.127888,0 2.666865,-0.702512 2.666865,-2.658233 0,-1.562195 -0.847926,-3.410456 -2.468763,-3.868279 -4.041377,-1.141284 -7.170233,-4.921005 -8.125172,-8.899126 z m 28.411981,42.043684 c -0.518251,-0.664409 -0.977116,-1.468577 -1.307535,-2.370381 -1.645544,0.178456 -3.177079,0.722009 -3.177079,2.579646 0,5.430177 6.052317,8.366735 10.000224,9.727256 0.524353,-0.288298 0.666493,-0.591032 0.666493,-1.705823 0,-3.838512 -4.084391,-5.541656 -6.182103,-8.230698 z"
     fill="#141113"
     id="path5910"
     style="stroke-width:1.48837" />
</svg>
