<?xml version="1.0" encoding="UTF-8" standalone="no"?>
<!-- Generator: Adobe Illustrator 24.0.0, SVG Export Plug-In . SVG Version: 6.00 Build 0)  -->

<svg
   version="1.1"
   id="svg8"
   x="0px"
   y="0px"
   viewBox="0 0 127.99999 127.99999"
   xml:space="preserve"
   sodipodi:docname="frax-frax-logo.svg"
   width="128"
   height="128"
   inkscape:export-filename="..\Tokens\frax.png"
   inkscape:export-xdpi="96"
   inkscape:export-ydpi="96"
   xmlns:inkscape="http://www.inkscape.org/namespaces/inkscape"
   xmlns:sodipodi="http://sodipodi.sourceforge.net/DTD/sodipodi-0.dtd"
   xmlns="http://www.w3.org/2000/svg"
   xmlns:svg="http://www.w3.org/2000/svg"><defs
   id="defs8145" />
<style
   type="text/css"
   id="style8138">
	.st0{fill-rule:evenodd;clip-rule:evenodd;stroke:#000000;stroke-width:1.2373;stroke-miterlimit:11.3386;}
	.st1{fill:#FFFFFF;}
</style>
<sodipodi:namedview
   bordercolor="#666666"
   borderopacity="1.0"
   id="base"
   inkscape:current-layer="layer1"
   inkscape:cx="184.71274"
   inkscape:cy="416.19233"
   inkscape:document-rotation="0"
   inkscape:document-units="mm"
   inkscape:pageopacity="0.0"
   inkscape:pageshadow="2"
   inkscape:snap-bbox="true"
   inkscape:window-height="1051"
   inkscape:window-maximized="1"
   inkscape:window-width="1842"
   inkscape:window-x="69"
   inkscape:window-y="-9"
   inkscape:zoom="0.39629945"
   pagecolor="#ffffff"
   showgrid="false"
   inkscape:showpageshadow="2"
   inkscape:pagecheckerboard="0"
   inkscape:deskcolor="#d1d1d1">
	</sodipodi:namedview>
<g
   id="layer1"
   transform="translate(295.65791,-75.71863)"
   inkscape:groupmode="layer"
   inkscape:label="Layer 1">
	<ellipse
   id="path854"
   class="st0"
   cx="-231.65791"
   cy="139.71863"
   rx="64"
   ry="63.999996"
   style="stroke:none;stroke-width:1.2386;stroke-dasharray:none" />
	<path
   id="path862"
   class="st1"
   d="m -266.96362,104.12059 c -2.69853,2.83345 -4.9248,5.21714 -4.94729,5.26212 -0.0224,0.0674 2.40619,2.45116 5.39704,5.2846 2.99087,2.85595 5.59945,5.35207 5.77935,5.50949 l 0.33731,0.31483 -0.60717,1.01195 c -5.32959,8.81517 -6.43148,19.42936 -3.08081,29.18902 0.62966,1.844 1.70907,4.20521 2.63106,5.75686 0.44975,0.76458 0.65214,1.25931 0.60717,1.34927 -0.045,0.0899 -2.76599,2.96836 -6.0492,6.40899 -3.2832,3.41812 -5.95924,6.27407 -6.00421,6.31904 -0.0224,0.0675 9.17498,8.95011 10.052,9.66971 l 0.33732,0.29234 5.19465,-5.41953 c 2.85595,-2.99087 5.53198,-5.80184 5.93676,-6.22909 l 0.76458,-0.76458 0.71961,0.44975 c 3.66549,2.33872 7.96065,3.95783 12.70555,4.81236 2.3837,0.42727 6.92621,0.53971 9.46732,0.22488 4.90232,-0.56219 9.75966,-2.20379 13.73999,-4.60997 l 1.03443,-0.62967 1.1019,1.07942 c 2.40618,2.33872 11.40126,10.88404 11.49122,10.92902 0.09,0.045 9.96204,-10.27688 9.93955,-10.41181 -0.0224,-0.0675 -6.79128,-6.56641 -10.92901,-10.45678 l -1.37176,-1.30428 0.62966,-1.03444 c 5.28461,-8.79269 6.38651,-19.45186 2.96838,-29.27898 -0.49474,-1.43922 -2.0014,-4.67745 -2.87843,-6.16163 l -0.42726,-0.7421 5.77933,-6.04919 c 3.17077,-3.30568 5.75686,-6.07167 5.73437,-6.13914 -0.09,-0.22488 -10.20941,-9.78215 -10.34435,-9.78215 -0.0899,0 -2.63105,2.58608 -5.6669,5.77934 -3.03583,3.17076 -5.55446,5.77934 -5.62192,5.80183 -0.045,0.0224 -0.33731,-0.11244 -0.60717,-0.31483 -0.76458,-0.51722 -2.69852,-1.57414 -3.77793,-2.06886 -3.2832,-1.50669 -6.34153,-2.42868 -9.8946,-2.94589 -1.84398,-0.26986 -7.37595,-0.31484 -9.08502,-0.0676 -4.09277,0.58468 -7.44344,1.59662 -10.86156,3.30569 -0.98946,0.47224 -2.13633,1.10189 -2.58609,1.37174 l -0.80956,0.49474 -0.922,-0.89951 c -0.49472,-0.49473 -2.74349,-2.60857 -4.96978,-4.74491 -2.22627,-2.11384 -4.49753,-4.27266 -5.03724,-4.812357 l -0.98946,-0.966975 z m 37.75685,14.66198 c 3.57555,0.42726 6.76881,1.6416 9.71469,3.71047 1.50667,1.05692 3.75544,3.30569 4.81236,4.81236 6.00423,8.50035 4.85735,20.05902 -2.69852,27.14265 -6.45397,6.02671 -15.78636,7.37598 -23.63457,3.37315 -5.66691,-2.90091 -9.66971,-8.208 -10.95151,-14.57201 -0.40478,-2.0239 -0.40478,-5.80184 0,-7.80324 0.38229,-1.97892 0.8995,-3.39564 1.86648,-5.37456 3.86788,-7.78074 12.25579,-12.32326 20.89107,-11.28882 z"
   style="stroke-width:0.224877" />
</g>
</svg>
