<?xml version="1.0" encoding="UTF-8" standalone="no"?>
<svg
   width="128"
   height="127.99999"
   viewBox="0 0 33.866667 33.866664"
   version="1.1"
   id="svg8"
   inkscape:version="1.0.1 (3bc2e813f5, 2020-09-07)"
   sodipodi:docname="frax-share-fxs-logo.svg"
   inkscape:export-filename="..\Tokens\fxs.png"
   inkscape:export-xdpi="96"
   inkscape:export-ydpi="96"
   xmlns:inkscape="http://www.inkscape.org/namespaces/inkscape"
   xmlns:sodipodi="http://sodipodi.sourceforge.net/DTD/sodipodi-0.dtd"
   xmlns="http://www.w3.org/2000/svg"
   xmlns:svg="http://www.w3.org/2000/svg"
   xmlns:rdf="http://www.w3.org/1999/02/22-rdf-syntax-ns#"
   xmlns:cc="http://creativecommons.org/ns#"
   xmlns:dc="http://purl.org/dc/elements/1.1/">
  <style
     id="style833" />
  <defs
     id="defs2" />
  <sodipodi:namedview
     id="base"
     pagecolor="#ffffff"
     bordercolor="#666666"
     borderopacity="1.0"
     inkscape:pageopacity="0.0"
     inkscape:pageshadow="2"
     inkscape:zoom="0.39629945"
     inkscape:cx="184.71274"
     inkscape:cy="416.19233"
     inkscape:document-units="mm"
     inkscape:current-layer="layer1"
     inkscape:document-rotation="0"
     showgrid="false"
     inkscape:snap-bbox="true"
     inkscape:window-width="1842"
     inkscape:window-height="1051"
     inkscape:window-x="69"
     inkscape:window-y="-9"
     inkscape:window-maximized="1"
     inkscape:showpageshadow="2"
     inkscape:pagecheckerboard="0"
     inkscape:deskcolor="#d1d1d1" />
  <metadata
     id="metadata5">
    <rdf:RDF>
      <cc:Work
         rdf:about="">
        <dc:format>image/svg+xml</dc:format>
        <dc:type
           rdf:resource="http://purl.org/dc/dcmitype/StillImage" />
      </cc:Work>
    </rdf:RDF>
  </metadata>
  <g
     inkscape:label="Layer 1"
     inkscape:groupmode="layer"
     id="layer1"
     transform="translate(295.65791,-75.71863)">
    <circle
       style="font-variation-settings:normal;opacity:1;vector-effect:none;fill:#000000;fill-opacity:1;fill-rule:evenodd;stroke:none;stroke-width:0.0736231;stroke-linecap:butt;stroke-linejoin:miter;stroke-miterlimit:4;stroke-dasharray:none;stroke-dashoffset:0;stroke-opacity:1;stop-color:#000000;stop-opacity:1"
       id="path854"
       cx="-278.72458"
       cy="92.651962"
       r="16.933332" />
    <path
       d="m -286.22939,83.002041 -1.13528,1.135287 1.43636,1.436355 1.43949,1.436355 -0.11918,0.351249 c -0.15367,0.461013 -0.21639,0.846759 -0.21639,1.357952 0,1.665293 0.87185,3.082833 2.41483,3.926455 0.62096,0.338704 1.68725,0.721314 2.86958,1.025521 2.3082,0.592731 2.66258,0.696224 3.11733,0.909483 0.62095,0.294796 0.9283,0.614684 1.05688,1.09765 0.0564,0.210122 0.0533,0.680545 -0.003,0.906348 -0.14426,0.548825 -0.61155,1.100786 -1.19173,1.401856 -0.78404,0.410836 -2.14827,0.523738 -3.17692,0.260301 -0.38261,-0.09408 -0.92517,-0.360657 -1.19801,-0.583324 -0.5551,-0.457876 -0.98789,-1.248185 -1.17919,-2.160805 -0.0314,-0.144263 -0.0564,-0.266572 -0.0596,-0.272845 -0.009,-0.01255 -3.22082,0.301069 -3.2365,0.319887 -0.0125,0.0094 -0.003,0.141126 0.0188,0.291662 0.10035,0.72445 0.35438,1.58689 0.64604,2.185895 l 0.16935,0.348112 -1.39558,1.395585 -1.39245,1.39559 1.13842,1.13842 1.13528,1.13529 1.4395,-1.4395 1.43635,-1.43635 0.24776,0.10349 c 1.31091,0.55196 3.27727,0.72445 5.18405,0.44847 0.45788,-0.0659 1.1196,-0.22267 1.46771,-0.35125 l 0.20699,-0.0753 1.37677,1.37676 1.37363,1.37364 1.13529,-1.13529 1.13842,-1.13842 -1.27641,-1.276413 -1.27328,-1.273279 0.15994,-0.326158 c 0.33244,-0.668001 0.47043,-1.235643 0.49865,-2.016544 0.0502,-1.489669 -0.33557,-2.612409 -1.21369,-3.537573 -0.91575,-0.962798 -1.94754,-1.420675 -4.86102,-2.154533 -2.05418,-0.514329 -2.93857,-0.868713 -3.28982,-1.314046 -0.34812,-0.439061 -0.37948,-1.053745 -0.0753,-1.502215 0.17562,-0.260299 0.60841,-0.539417 1.07883,-0.696224 0.53001,-0.17876 1.42068,-0.260299 2.0824,-0.191305 1.39559,0.147398 2.09809,0.743266 2.40543,2.047905 0.0376,0.159942 0.0721,0.294797 0.0753,0.30107 0.006,0.0094 2.27684,-0.07213 2.95738,-0.106629 l 0.38889,-0.01882 -0.022,-0.272845 c -0.0439,-0.555096 -0.15367,-1.050608 -0.35438,-1.568072 l -0.10977,-0.291663 1.41441,-1.417539 1.4144,-1.414401 -1.13529,-1.138422 -1.13842,-1.135285 -1.43008,1.430083 -1.43322,1.43322 -0.34811,-0.131718 c -0.85617,-0.319887 -1.68411,-0.461015 -2.90408,-0.495512 -1.33286,-0.0345 -2.50264,0.13799 -3.39958,0.501783 l -0.33243,0.134855 -1.44263,-1.436357 -1.44263,-1.436354 z"
       id="path876"
       style="fill:#ffffff;stroke:none;stroke-width:0.00313615" />
  </g>
</svg>
