<?xml version="1.0" encoding="UTF-8" standalone="no"?>
<svg
   aria-hidden="true"
   class="MuiSvgIcon-root MuiSvgIcon-fontSizeLarge css-1xvzrvc"
   viewBox="0 0 128 128"
   version="1.1"
   id="svg17"
   sodipodi:docname="gohm.svg"
   width="128"
   height="128"
   inkscape:export-filename="..\Tokens_128x128\gohm.png"
   inkscape:export-xdpi="96"
   inkscape:export-ydpi="96"
   xmlns:inkscape="http://www.inkscape.org/namespaces/inkscape"
   xmlns:sodipodi="http://sodipodi.sourceforge.net/DTD/sodipodi-0.dtd"
   xmlns="http://www.w3.org/2000/svg"
   xmlns:svg="http://www.w3.org/2000/svg">
  <sodipodi:namedview
     id="namedview19"
     pagecolor="#ffffff"
     bordercolor="#000000"
     borderopacity="0.25"
     inkscape:showpageshadow="2"
     inkscape:pageopacity="0.0"
     inkscape:pagecheckerboard="0"
     inkscape:deskcolor="#d1d1d1"
     showgrid="false" />
  <defs
     id="defs7">
    <linearGradient
       id="a"
       x1="80"
       x2="80"
       y1="-84"
       y2="256"
       gradientTransform="matrix(0.71112,0,0,0.71112,7.112,7.112)"
       gradientUnits="userSpaceOnUse">
      <stop
         offset=".195"
         stop-color="#708B96"
         id="stop2" />
      <stop
         offset="1"
         stop-color="#F7FBE7"
         id="stop4" />
    </linearGradient>
  </defs>
  <path
     fill="#ffffff"
     d="M 7.112,64 C 7.112,32.58 32.58,7.112 64,7.112 95.42,7.112 120.888,32.58 120.888,64 120.888,95.42 95.42,120.888 64,120.888 32.58,120.888 7.112,95.42 7.112,64 Z"
     id="path9"
     style="stroke-width:4" />
  <path
     fill="#ffffff"
     d="M 38.968,39.084 H 89.032 V 89.148 H 38.968 Z"
     id="path11"
     style="stroke-width:4" />
  <path
     fill="#708b96"
     fill-rule="evenodd"
     d="m 58.54,89.144 v -9.48 C 51.408,77.42 46.252,70.9 46.252,63.204 c 0,-9.552 7.944,-17.296 17.748,-17.296 9.804,0 17.748,7.744 17.748,17.296 0,7.696 -5.156,14.216 -12.288,16.46 v 9.48 H 89.032 V 82.092 H 79.368 C 85.18,77.684 88.916,70.836 88.916,63.148 88.916,49.856 77.76,39.084 64,39.084 c -13.76,0 -24.916,10.772 -24.916,24.064 0,7.688 3.736,14.536 9.548,18.944 h -9.664 v 7.052 z"
     clip-rule="evenodd"
     id="path13"
     style="stroke-width:4" />
  <path
     fill="url(#a)"
     d="M 64,113.776 C 36.508,113.776 14.224,91.492 14.224,64 H 0 c 0,35.348 28.652,64 64,64 z M 113.776,64 c 0,27.492 -22.284,49.776 -49.776,49.776 V 128 c 35.348,0 64,-28.652 64,-64 z M 64,14.224 c 27.492,0 49.776,22.284 49.776,49.776 H 128 C 128,28.652 99.348,0 64,0 Z M 64,0 C 28.652,0 0,28.652 0,64 H 14.224 C 14.224,36.508 36.508,14.224 64,14.224 Z"
     id="path15"
     style="fill:url(#a);stroke-width:4" />
</svg>
