<?xml version="1.0" encoding="UTF-8" standalone="no"?>
<!-- Created with Inkscape (http://www.inkscape.org/) -->

<svg
   width="127.99999"
   height="127.99999"
   viewBox="0 0 33.866664 33.866664"
   version="1.1"
   id="svg577"
   inkscape:export-filename="hct.png"
   inkscape:export-xdpi="96"
   inkscape:export-ydpi="96"
   sodipodi:docname="hct.svg"
   xmlns:inkscape="http://www.inkscape.org/namespaces/inkscape"
   xmlns:sodipodi="http://sodipodi.sourceforge.net/DTD/sodipodi-0.dtd"
   xmlns="http://www.w3.org/2000/svg"
   xmlns:svg="http://www.w3.org/2000/svg">
  <sodipodi:namedview
     id="namedview579"
     pagecolor="#ffffff"
     bordercolor="#000000"
     borderopacity="0.25"
     inkscape:showpageshadow="2"
     inkscape:pageopacity="0.0"
     inkscape:pagecheckerboard="0"
     inkscape:deskcolor="#d1d1d1"
     inkscape:document-units="mm"
     showgrid="false" />
  <defs
     id="defs574">
    <radialGradient
       id="paint0_radial_2273_6856"
       cx="0"
       cy="0"
       r="1"
       gradientUnits="userSpaceOnUse"
       gradientTransform="matrix(14.565974,0,0,16.141154,25.461269,30.890194)">
      <stop
         stop-color="#2B80B9"
         id="stop17709" />
      <stop
         offset="1"
         stop-color="#2E4786"
         id="stop17711" />
    </radialGradient>
    <radialGradient
       id="paint1_radial_2273_6856"
       cx="0"
       cy="0"
       r="1"
       gradientUnits="userSpaceOnUse"
       gradientTransform="matrix(19.157405,0,0,21.721465,24.902832,20.321577)">
      <stop
         stop-color="#2587CD"
         id="stop17714" />
      <stop
         offset="0.4275"
         stop-color="#1174BF"
         id="stop17716" />
      <stop
         offset="0.8446"
         stop-color="#3F67B4"
         id="stop17718" />
    </radialGradient>
    <radialGradient
       id="paint2_radial_2273_6856"
       cx="0"
       cy="0"
       r="1"
       gradientUnits="userSpaceOnUse"
       gradientTransform="matrix(-10.148796,17.504774,-35.110908,-20.356355,11.193282,25.652764)">
      <stop
         stop-color="#6485AC"
         id="stop17721" />
      <stop
         offset="0.6435"
         stop-color="#3B629C"
         stop-opacity="0"
         id="stop17723" />
    </radialGradient>
    <radialGradient
       id="paint3_radial_2273_6856"
       cx="0"
       cy="0"
       r="1"
       gradientUnits="userSpaceOnUse"
       gradientTransform="matrix(35.839797,0,0,35.860465,30.053856,11.50508)">
      <stop
         stop-color="#2587CD"
         id="stop17726" />
      <stop
         offset="0.4275"
         stop-color="#1174BF"
         id="stop17728" />
      <stop
         offset="0.8446"
         stop-color="#575A93"
         id="stop17730" />
    </radialGradient>
    <radialGradient
       id="paint4_radial_2273_6856"
       cx="0"
       cy="0"
       r="1"
       gradientUnits="userSpaceOnUse"
       gradientTransform="matrix(4.9975166,5.8132473,-8.1650992,7.0193501,12.074345,11.108537)">
      <stop
         stop-color="white"
         id="stop17733" />
      <stop
         offset="1"
         stop-color="white"
         stop-opacity="0"
         id="stop17735" />
    </radialGradient>
    <radialGradient
       id="paint5_radial_2273_6856"
       cx="0"
       cy="0"
       r="1"
       gradientUnits="userSpaceOnUse"
       gradientTransform="matrix(31.731066,0,0,31.74967,10.982852,29.939016)">
      <stop
         stop-color="#005DA9"
         id="stop17738" />
      <stop
         offset="0.0001"
         stop-color="#0055A5"
         id="stop17740" />
      <stop
         offset="0.4171"
         stop-color="#6B96C8"
         stop-opacity="0.48"
         id="stop17742" />
      <stop
         offset="0.9259"
         stop-color="#89AADB"
         stop-opacity="0"
         id="stop17744" />
    </radialGradient>
    <radialGradient
       id="paint6_radial_2273_6856"
       cx="0"
       cy="0"
       r="1"
       gradientUnits="userSpaceOnUse"
       gradientTransform="matrix(9.1925345,0,0,9.1978262,19.888069,24.643132)">
      <stop
         offset="0.0181"
         stop-color="#004E91"
         id="stop17747" />
      <stop
         offset="1"
         stop-color="#004E91"
         stop-opacity="0"
         id="stop17749" />
    </radialGradient>
    <radialGradient
       id="paint7_radial_2273_6856"
       cx="0"
       cy="0"
       r="1"
       gradientUnits="userSpaceOnUse"
       gradientTransform="matrix(11.411727,0,0,11.418342,19.216025,22.037234)">
      <stop
         stop-color="#003887"
         id="stop17752" />
      <stop
         offset="1"
         stop-color="#003887"
         stop-opacity="0"
         id="stop17754" />
    </radialGradient>
    <radialGradient
       id="paint8_radial_2273_6856"
       cx="0"
       cy="0"
       r="1"
       gradientUnits="userSpaceOnUse"
       gradientTransform="matrix(9.0925717,0,0,9.0978632,16.695703,29.687332)">
      <stop
         stop-color="white"
         id="stop17757" />
      <stop
         offset="1"
         stop-color="white"
         stop-opacity="0"
         id="stop17759" />
    </radialGradient>
    <radialGradient
       id="paint9_radial_2273_6856"
       cx="0"
       cy="0"
       r="1"
       gradientUnits="userSpaceOnUse"
       gradientTransform="matrix(12.979053,0,0,12.986577,9.1343253,26.492569)">
      <stop
         stop-color="#00438D"
         id="stop17762" />
      <stop
         offset="1"
         stop-color="#00438D"
         stop-opacity="0.0260417"
         id="stop17764" />
    </radialGradient>
    <radialGradient
       id="paint10_radial_2273_6856"
       cx="0"
       cy="0"
       r="1"
       gradientUnits="userSpaceOnUse"
       gradientTransform="matrix(15.004934,0,0,15.013616,11.234703,11.025027)">
      <stop
         offset="0.0829"
         stop-color="#004591"
         id="stop17767" />
      <stop
         offset="0.7132"
         stop-color="#204885"
         stop-opacity="0"
         id="stop17769" />
    </radialGradient>
    <radialGradient
       id="paint11_radial_2273_6856"
       cx="0"
       cy="0"
       r="1"
       gradientUnits="userSpaceOnUse"
       gradientTransform="matrix(6.5033508,0,0,7.2040173,10.744727,26.298681)">
      <stop
         stop-color="white"
         id="stop17772" />
      <stop
         offset="1"
         stop-color="white"
         stop-opacity="0"
         id="stop17774" />
    </radialGradient>
    <radialGradient
       id="paint12_radial_2273_6856"
       cx="0"
       cy="0"
       r="1"
       gradientUnits="userSpaceOnUse"
       gradientTransform="matrix(35.582928,0.14764734,-0.11014516,26.544922,4.8262726,22.839335)">
      <stop
         offset="0.0829"
         stop-color="#003B7A"
         id="stop17777" />
      <stop
         offset="0.688279"
         stop-color="#1686D9"
         stop-opacity="0"
         id="stop17779" />
    </radialGradient>
    <radialGradient
       id="paint13_radial_2273_6856"
       cx="0"
       cy="0"
       r="1"
       gradientUnits="userSpaceOnUse"
       gradientTransform="matrix(19.341786,0,0,19.352948,4.0880353,4.8263683)">
      <stop
         offset="0.0264697"
         stop-color="#003C7C"
         id="stop17782" />
      <stop
         offset="1"
         stop-color="#004081"
         stop-opacity="0"
         id="stop17784" />
    </radialGradient>
    <radialGradient
       id="paint14_radial_2273_6856"
       cx="0"
       cy="0"
       r="1"
       gradientUnits="userSpaceOnUse"
       gradientTransform="matrix(16.339592,0,0,16.349101,6.6977931,29.687166)">
      <stop
         stop-color="white"
         id="stop17787" />
      <stop
         offset="1"
         stop-color="white"
         stop-opacity="0"
         id="stop17789" />
    </radialGradient>
  </defs>
  <g
     inkscape:label="Layer 1"
     inkscape:groupmode="layer"
     id="layer1">
    <circle
       style="fill:#ffffff;fill-opacity:1;stroke:none;stroke-width:0;stroke-linecap:butt;stroke-linejoin:bevel;stroke-dasharray:none;stroke-opacity:1;paint-order:fill markers stroke"
       id="path800"
       cx="16.933332"
       cy="16.933332"
       r="16.933332" />
    <path
       d="m 23.276387,31.19992 c -3.302579,0.217033 -5.702019,-2.224155 -5.740713,-5.148708 -0.009,-0.685106 0.111778,-1.352519 0.342799,-1.968749 0.393155,-1.050725 1.109845,-1.951054 2.057467,-2.53529 0.845263,-0.521227 1.875233,-0.790192 3.025344,-0.688493 -0.594732,-0.121027 -1.237506,-0.184968 -1.924678,-0.194218 -4.193975,-0.05878 -7.728478,3.344088 -7.67391,6.780528 0.02188,1.371038 0.56125,2.559594 1.473648,3.485387 v 5.82e-4 c 1.312252,1.330024 3.396671,2.117494 5.830589,2.118404 0.275595,-0.0629 0.547773,-0.132875 0.817398,-0.209938 2.177687,-0.619538 4.172974,-1.674647 5.884335,-3.064207 l 0.446152,-0.392572 c -0.175625,0.141219 -2.102859,1.656954 -4.538431,1.817274 z"
       fill="url(#paint0_radial_2273_6856)"
       id="path17655"
       style="fill:url(#paint0_radial_2273_6856);stroke-width:0.826822" />
    <path
       d="m 24.188868,15.565278 c -2.275994,-1.863742 -3.690772,-1.5283 -5.251732,-1.972138 -2.091943,0.05713 -4.827487,0.711151 -7.699868,2.978296 0.06381,-0.03095 1.322338,-0.640537 3.34706,-0.379095 0.24028,0.032 0.492375,0.07482 0.75365,0.132875 -3.650423,1.670262 -6.2876567,5.43545 -6.2876567,9.130852 0,1.686303 0.5200723,3.264132 1.4257727,4.612513 0.867833,1.294556 2.090209,2.378025 3.547896,3.143085 0.948531,0.169842 1.925588,0.258124 2.923646,0.258124 0.123528,0 0.24622,-0.0018 0.36802,-0.004 h 8.27e-4 c 1.149282,-0.02532 2.270041,-0.167438 3.35045,-0.416057 -2.433835,-9.08e-4 -4.518256,-0.78879 -5.830506,-2.118483 v -8.3e-4 c -0.912399,-0.925462 -1.451819,-2.114187 -1.473646,-3.485305 -0.05456,-3.436441 3.47985,-6.839316 7.673825,-6.780529 0.687255,0.0095 1.329946,0.07318 1.924762,0.194219 0.686428,0.137847 2.713716,0.882635 2.524622,1.723266 0,0 0.321798,-0.0874 0.65286,-0.506016 1.119021,-1.412296 0.740087,-4.308244 -1.949982,-6.510653 z"
       fill="url(#paint1_radial_2273_6856)"
       id="path17657"
       style="fill:url(#paint1_radial_2273_6856);stroke-width:0.826822" />
    <path
       d="m 24.188868,15.565278 c -2.275994,-1.863742 -3.690772,-1.5283 -5.251732,-1.972138 -2.091943,0.05713 -4.827487,0.711151 -7.699868,2.978296 0.06381,-0.03095 1.322338,-0.640537 3.34706,-0.379095 0.24028,0.032 0.492375,0.07482 0.75365,0.132875 -3.650423,1.670262 -6.2876567,5.43545 -6.2876567,9.130852 0,1.686303 0.5200723,3.264132 1.4257727,4.612513 0.867833,1.294556 2.090209,2.378025 3.547896,3.143085 0.948531,0.169842 1.925588,0.258124 2.923646,0.258124 0.123528,0 0.24622,-0.0018 0.36802,-0.004 h 8.27e-4 c 1.149282,-0.02532 2.270041,-0.167438 3.35045,-0.416057 -2.433835,-9.08e-4 -4.518256,-0.78879 -5.830506,-2.118483 v -8.3e-4 c -0.912399,-0.925462 -1.451819,-2.114187 -1.473646,-3.485305 -0.05456,-3.436441 3.47985,-6.839316 7.673825,-6.780529 0.687255,0.0095 1.329946,0.07318 1.924762,0.194219 0.686428,0.137847 2.713716,0.882635 2.524622,1.723266 0,0 0.321798,-0.0874 0.65286,-0.506016 1.119021,-1.412296 0.740087,-4.308244 -1.949982,-6.510653 z"
       fill="url(#paint2_radial_2273_6856)"
       id="path17659"
       style="fill:url(#paint2_radial_2273_6856);stroke-width:0.826822" />
    <path
       d="m 16.947636,0.39688108 c -9.140717,0 -16.55076176,7.36643052 -16.55076176,16.51247992 0,4.664604 1.92728506,8.878673 5.02909466,11.888141 0.9947245,0.965898 2.1095771,1.806444 3.320245,2.499238 v -9.09e-4 c -0.1185,-0.131125 -0.2335625,-0.264843 -0.346165,-0.40101 0.2537197,0.223562 0.520872,0.440616 0.7998447,0.651457 0.8871804,0.471534 1.8230624,0.865187 2.7976374,1.169375 0.658647,0.206718 1.334987,0.373227 2.026459,0.496093 -1.457687,-0.765143 -2.680063,-1.848613 -3.547896,-3.143168 -0.9057004,-1.348465 -1.4257727,-2.92629 -1.4257727,-4.612597 0,-3.695403 2.6372337,-7.460588 6.2875747,-9.130853 -0.261281,-0.05803 -0.513293,-0.100875 -0.753568,-0.132875 -2.024722,-0.261438 -3.283314,0.348008 -3.347145,0.379177 2.872466,-2.267227 5.607928,-2.921247 7.699872,-2.978381 2.318826,-0.06391 3.845388,0.606062 3.890698,0.62541 -0.951013,-2.296581 -2.287655,-2.157925 -2.287655,-2.157925 0.61243,-0.12775 1.09298,-0.110875 1.742448,-0.110875 5.197079,0 9.563447,4.206459 9.563447,9.499037 0,1.88805 -0.846005,4.00141 -1.771218,5.485141 0.651121,-0.859979 1.224937,-1.788912 1.705652,-2.773247 1.07371,-2.193229 1.689363,-4.661294 1.689363,-7.251234 0,-9.1460503 -7.381459,-16.51248176 -16.522154,-16.51248176 z"
       fill="url(#paint3_radial_2273_6856)"
       id="path17661"
       style="fill:url(#paint3_radial_2273_6856);stroke-width:0.826822" />
    <path
       opacity="0.19"
       d="m 16.947636,0.39688108 c -9.140717,0 -16.55076176,7.36643052 -16.55076176,16.51247992 0,4.664604 1.92728506,8.878673 5.02909466,11.888141 0.9947245,0.965898 2.1095771,1.806444 3.320245,2.499238 v -9.09e-4 c -0.1185,-0.131125 -0.2335625,-0.264843 -0.346165,-0.40101 0.2537197,0.223562 0.520872,0.440616 0.7998447,0.651457 0.8871804,0.471534 1.8230624,0.865187 2.7976374,1.169375 0.658647,0.206718 1.334987,0.373227 2.026459,0.496093 -1.457687,-0.765143 -2.680063,-1.848613 -3.547896,-3.143168 -0.9057004,-1.348465 -1.4257727,-2.92629 -1.4257727,-4.612597 0,-3.695403 2.6372337,-7.460588 6.2875747,-9.130853 -0.261281,-0.05803 -0.513293,-0.100875 -0.753568,-0.132875 -2.024722,-0.261438 -3.283314,0.348008 -3.347145,0.379177 2.872466,-2.267227 5.607928,-2.921247 7.699872,-2.978381 2.318826,-0.06391 3.845388,0.606062 3.890698,0.62541 -0.951013,-2.296581 -2.287655,-2.157925 -2.287655,-2.157925 0.61243,-0.12775 1.09298,-0.110875 1.742448,-0.110875 5.197079,0 9.563447,4.206459 9.563447,9.499037 0,1.88805 -0.846005,4.00141 -1.771218,5.485141 0.651121,-0.859979 1.224937,-1.788912 1.705652,-2.773247 1.07371,-2.193229 1.689363,-4.661294 1.689363,-7.251234 0,-9.1460503 -7.381459,-16.51248176 -16.522154,-16.51248176 z"
       fill="url(#paint4_radial_2273_6856)"
       id="path17663"
       style="fill:url(#paint4_radial_2273_6856);stroke-width:0.826822" />
    <path
       d="m 32.952446,18.674628 c 0,-0.31527 -0.01098,-0.627972 -0.03275,-0.938198 -0.484021,-6.873791 -6.2464,-12.3016985 -13.283405,-12.3016985 -3.726079,0 -7.09497,1.5215244 -9.512101,3.9744375 0,0 0.836744,-0.279875 2.137334,-0.300875 0.482204,-0.0085 1.028323,0.019375 1.619747,0.110125 -5.1886479,2.237715 -8.8021137,7.234372 -9.0793637,13.215442 -0.1638427,3.554183 1.130003,6.294684 3.5983349,8.461045 0.2537178,0.223562 0.5208311,0.440281 0.7998028,0.651452 0.887183,0.471538 1.823144,0.864857 2.797637,1.169295 0.658648,0.206718 1.334988,0.373309 2.02646,0.495843 -1.457687,-0.764809 -2.680062,-1.848528 -3.547897,-3.143083 -0.9057,-1.3483 -1.4257723,-2.926125 -1.4257723,-4.612432 0,-3.695403 2.6372353,-7.460588 6.2876573,-9.130935 -0.261281,-0.05797 -0.513375,-0.100875 -0.753651,-0.132778 -2.024721,-0.261437 -3.283231,0.348008 -3.347062,0.379096 2.872385,-2.267145 5.607927,-2.921165 7.699873,-2.9783 2.318742,-0.06391 3.845306,0.606063 3.890615,0.625329 -0.951013,-2.296585 -2.287653,-2.157844 -2.287653,-2.157844 0.612427,-0.12775 1.093059,-0.110972 1.742447,-0.110972 5.19716,0 9.56328,4.206462 9.56328,9.49912 0,1.888052 -0.846005,4.001327 -1.77089,5.48506 0.651125,-0.859978 1.224857,-1.788831 1.705326,-2.773246 l -0.0178,-0.0085 c 0.764812,-1.669522 1.189715,-3.523919 1.189715,-5.477539 z"
       fill="url(#paint5_radial_2273_6856)"
       id="path17665"
       style="fill:url(#paint5_radial_2273_6856);stroke-width:0.826822" />
    <path
       d="m 15.729396,28.34184 c 0,2.416803 1.722273,4.287243 5.754935,4.497422 -0.269625,0.07737 -0.541816,0.147094 -0.817398,0.21 -2.433918,-6.62e-4 -4.518256,-0.78846 -5.830589,-2.118154 V 30.9302 c -0.50246,-0.898013 -0.787216,-1.921704 -0.787216,-3.008645 0,-3.263305 2.56414,-5.959244 5.886893,-6.374474 -0.947703,0.584234 -1.664393,1.484477 -2.057548,2.535287 -1.253464,0.912894 -2.149077,2.593332 -2.149077,4.25946 z"
       fill="url(#paint6_radial_2273_6856)"
       id="path17667"
       style="fill:url(#paint6_radial_2273_6856);stroke-width:0.826822" />
    <path
       d="m 22.961284,20.85868 c -1.150111,-0.10168 -2.180081,0.167282 -3.025344,0.688493 -3.322672,0.415233 -5.886812,3.111089 -5.886812,6.374477 0,1.086858 0.28475,2.110713 0.787216,3.008725 -0.912398,-0.925794 -1.45182,-2.11435 -1.473648,-3.485387 -0.05455,-3.436442 3.479935,-6.839317 7.673828,-6.780529 0.687254,0.0095 1.329944,0.07318 1.92476,0.194218 z"
       fill="url(#paint7_radial_2273_6856)"
       id="path17669"
       style="fill:url(#paint7_radial_2273_6856);stroke-width:0.826822" />
    <path
       opacity="0.25"
       d="m 25.32815,22.6471 c 0.189,-0.840632 -0.499897,-1.144904 -0.499897,-1.144904 -0.557032,-0.290875 -1.180375,-0.505273 -1.866803,-0.643103 -0.594817,-0.121055 -1.237507,-0.184969 -1.92476,-0.194219 -4.193978,-0.05878 -7.728481,3.344085 -7.673829,6.780526 0.02187,1.371037 0.56125,2.559763 1.473648,3.485225 v 9.09e-4 c 1.31225,1.329697 3.396671,2.117494 5.830589,2.118403 -1.08049,0.248625 -2.20125,0.390671 -3.350533,0.416056 h -8.29e-4 c -2.720412,-1.107943 -4.610692,-3.549962 -4.610692,-6.38456 0,-3.876974 3.536155,-7.01923 7.897314,-7.01923 2.156686,0 4.111625,0.768283 5.536492,2.01414 -0.309157,0.435403 -0.8107,0.570757 -0.8107,0.570757 z"
       fill="url(#paint8_radial_2273_6856)"
       id="path17671"
       style="fill:url(#paint8_radial_2273_6856);stroke-width:0.826822" />
    <path
       d="m 9.5124307,26.366478 c 0,1.340777 0.3486709,2.584897 0.9754033,3.69383 l -0.01181,0.008 C 9.5703242,28.720008 9.0502519,27.1421 9.0502519,25.455795 c 0,-3.695402 2.6372341,-7.460589 6.2876571,-9.130852 -0.261282,-0.05803 -0.513375,-0.100875 -0.753651,-0.132875 -2.024721,-0.261438 -3.283231,0.34801 -3.347059,0.379098 2.872382,-2.267148 5.607925,-2.921163 7.699869,-2.978298 1.560959,0.443838 2.762334,0.979372 3.685647,1.545085 l -0.004,0.006 c -2.520489,-1.429082 -6.343139,0.042 -6.343139,0.042 3.44463,0.37827 3.82265,1.340857 3.82265,1.340857 -5.872507,0.45558 -10.5857298,4.913479 -10.5857298,9.839522 z"
       fill="url(#paint9_radial_2273_6856)"
       id="path17673"
       style="fill:url(#paint9_radial_2273_6856);stroke-width:0.826822" />
    <path
       d="m 9.5124307,26.366478 c 0,1.340777 0.3486709,2.584897 0.9754033,3.69383 l -0.01181,0.008 C 9.5703242,28.720008 9.0502519,27.1421 9.0502519,25.455795 c 0,-3.695402 2.6372341,-7.460589 6.2876571,-9.130852 -0.261282,-0.05803 -0.513375,-0.100875 -0.753651,-0.132875 -2.024721,-0.261438 -3.283231,0.34801 -3.347059,0.379098 2.872382,-2.267148 5.607925,-2.921163 7.699869,-2.978298 1.560959,0.443838 2.762334,0.979372 3.685647,1.545085 l -0.004,0.006 c -2.520489,-1.429082 -6.343139,0.042 -6.343139,0.042 3.44463,0.37827 3.82265,1.340857 3.82265,1.340857 -5.872507,0.45558 -10.5857298,4.913479 -10.5857298,9.839522 z"
       fill="url(#paint10_radial_2273_6856)"
       id="path17675"
       style="fill:url(#paint10_radial_2273_6856);stroke-width:0.826822" />
    <path
       opacity="0.29"
       d="m 8.3360684,25.231746 c 0,-4.011412 2.5649306,-7.46224 6.2422256,-8.993023 l 0.006,-0.04622 c 0.24028,0.0319 0.492375,0.07484 0.75365,0.132777 -3.650423,1.670348 -6.2876568,5.435535 -6.2876568,9.130939 0,1.686303 0.5200722,3.26413 1.4257718,4.612431 0.867834,1.294557 2.09029,2.378271 3.547897,3.143084 -0.691472,-0.122527 -1.367728,-0.289125 -2.026459,-0.495847 l 0.005,-0.01687 C 9.7576182,30.895146 8.3361036,28.218555 8.3361036,25.231739 Z"
       fill="url(#paint11_radial_2273_6856)"
       id="path17677"
       style="fill:url(#paint11_radial_2273_6856);stroke-width:0.826822" />
    <path
       d="m 12.261534,9.1082862 c -1.300591,0.020928 -2.137335,0.300875 -2.137335,0.300875 2.417132,-2.4529121 5.786022,-3.9744375 9.5121,-3.9744375 7.037006,0 12.799384,5.4279103 13.283407,12.3017003 -2.195216,-4.665431 -7.250411,-7.9304718 -13.136398,-7.9304718 -7.89988,0 -14.303389,5.8810288 -14.303389,13.1348288 0,2.989294 1.0879746,5.7465 2.9203369,7.954119 C 5.9319239,28.728541 4.638087,25.988038 4.801921,22.433856 5.079171,16.452784 8.6926368,11.456128 13.881281,9.2184112 13.289856,9.1275323 12.743736,9.0998418 12.261534,9.1082862 Z"
       fill="url(#paint12_radial_2273_6856)"
       id="path17679"
       style="fill:url(#paint12_radial_2273_6856);stroke-width:0.826822" />
    <path
       opacity="0.53"
       d="m 12.261534,9.1082862 c -1.300591,0.020928 -2.137335,0.300875 -2.137335,0.300875 2.417132,-2.4529121 5.786022,-3.9744375 9.5121,-3.9744375 7.037006,0 12.799384,5.4279103 13.283407,12.3017003 -2.195216,-4.665431 -7.250411,-7.9304718 -13.136398,-7.9304718 -7.89988,0 -14.303389,5.8810288 -14.303389,13.1348288 0,2.989294 1.0879746,5.7465 2.9203369,7.954119 C 5.9319239,28.728541 4.638087,25.988038 4.801921,22.433856 5.079171,16.452784 8.6926368,11.456128 13.881281,9.2184112 13.289856,9.1275323 12.743736,9.0998418 12.261534,9.1082862 Z"
       fill="url(#paint13_radial_2273_6856)"
       id="path17681"
       style="fill:url(#paint13_radial_2273_6856);stroke-width:0.826822" />
    <path
       opacity="0.25"
       d="m 12.261206,9.1086182 c 0.482284,-0.0085 1.028318,0.019375 1.619828,0.110125 -5.1887283,2.2377158 -8.8021853,7.2344528 -9.0794099,13.2154398 -0.1638125,3.554182 1.1299776,6.294688 3.5983096,8.460963 0.1125976,0.136097 0.2276552,0.269875 0.3461152,0.40101 v 9.09e-4 C 7.5354307,30.604271 6.4205772,29.76364 5.4258517,28.797746 4.4100988,26.832387 3.8413273,24.632459 3.8413273,22.310659 c 0,-5.675891 3.3966786,-10.619631 8.4198787,-13.2020476 z"
       fill="url(#paint14_radial_2273_6856)"
       id="path17683"
       style="fill:url(#paint14_radial_2273_6856);stroke-width:0.826822" />
  </g>
</svg>
