<?xml version="1.0" encoding="UTF-8" standalone="no"?>
<svg
   width="128"
   height="128"
   viewBox="0 0 128 128"
   version="1.1"
   id="svg12938"
   sodipodi:docname="hec.svg"
   inkscape:export-filename="..\Tokens_128x128\hec.png"
   inkscape:export-xdpi="96"
   inkscape:export-ydpi="96"
   xmlns:inkscape="http://www.inkscape.org/namespaces/inkscape"
   xmlns:sodipodi="http://sodipodi.sourceforge.net/DTD/sodipodi-0.dtd"
   xmlns="http://www.w3.org/2000/svg"
   xmlns:svg="http://www.w3.org/2000/svg">
  <defs
     id="defs12942" />
  <sodipodi:namedview
     id="namedview12940"
     pagecolor="#ffffff"
     bordercolor="#000000"
     borderopacity="0.25"
     inkscape:showpageshadow="2"
     inkscape:pageopacity="0.0"
     inkscape:pagecheckerboard="0"
     inkscape:deskcolor="#d1d1d1"
     showgrid="false" />
  <g
     fill-rule="nonzero"
     fill="none"
     id="g12936"
     transform="scale(2.6122449)">
    <path
       d="M 24.5,0 C 10.969,0 0,10.969 0,24.5 0,38.031 10.969,49 24.5,49 38.031,49 49,38.031 49,24.5 A 24.5,24.5 0 0 0 24.5,0 Z m 0,45.003 C 13.176,45.003 3.997,35.823 3.997,24.5 3.997,13.176 13.177,3.997 24.5,3.997 c 11.324,0 20.503,9.18 20.503,20.503 A 20.503,20.503 0 0 1 24.5,45.003 Z"
       fill="#d98b31"
       id="path12930" />
    <path
       d="m 24.5,3.999 a 20.503,20.503 0 1 0 0,41.006 20.503,20.503 0 0 0 0,-41.006 z m 7.754,32.456 H 26.367 V 25.252 l -3.778,2.39 v 6.832 l 1.757,1.81 -0.131,0.163 h -5.93 V 14.526 l -1.669,-1.81 0.175,-0.163 h 5.798 v 11.135 l 3.778,-2.255 v -6.907 l -2.065,-1.81 0.088,-0.163 h 6.282 v 21.921 l 1.713,1.81 z"
       fill="#000000"
       id="path12932" />
    <path
       fill="#d98b31"
       d="M 30.672,12.545 H 24.39 l -0.088,0.17 2.065,1.81 v 6.9 L 22.59,23.68 V 12.545 h -5.798 l -0.175,0.17 1.668,1.81 v 21.93 h 5.93 l 0.132,-0.17 -1.757,-1.81 v -6.832 l 3.778,-2.39 v 11.202 h 5.885 l 0.133,-0.17 -1.713,-1.81 z"
       id="path12934" />
  </g>
</svg>
