<?xml version="1.0" encoding="UTF-8" standalone="no"?>
<svg
   viewBox="0 0 128 128"
   version="1.1"
   id="svg17384"
   sodipodi:docname="husky.svg"
   width="128"
   height="128"
   inkscape:export-filename="..\Tokens\husky.png"
   inkscape:export-xdpi="96"
   inkscape:export-ydpi="96"
   xmlns:inkscape="http://www.inkscape.org/namespaces/inkscape"
   xmlns:sodipodi="http://sodipodi.sourceforge.net/DTD/sodipodi-0.dtd"
   xmlns="http://www.w3.org/2000/svg"
   xmlns:svg="http://www.w3.org/2000/svg">
  <sodipodi:namedview
     id="namedview17386"
     pagecolor="#ffffff"
     bordercolor="#000000"
     borderopacity="0.25"
     inkscape:showpageshadow="2"
     inkscape:pageopacity="0.0"
     inkscape:pagecheckerboard="0"
     inkscape:deskcolor="#d1d1d1"
     showgrid="false" />
  <defs
     id="defs17296">
    <style
       id="style17294">.cls-1{fill:#fff;}.cls-1,.cls-2{fill-rule:evenodd;}</style>
  </defs>
  <g
     id="Calque_2"
     data-name="Calque 2"
     transform="scale(0.12772794)">
    <g
       id="Layer_1"
       data-name="Layer 1">
      <path
         class="cls-1"
         d="m 501.06,4.26 c 274.38,0 496.81,222.43 496.81,496.81 0,274.38 -222.43,496.81 -496.81,496.81 C 226.68,997.88 4.26,775.44 4.26,501.07 4.26,226.7 226.69,4.26 501.06,4.26"
         id="path17298" />
      <path
         class="cls-2"
         d="m 386.25,975 h 229.63 q 16.75,-4.05 33.06,-9.23 H 353.2 q 16.28,5.19 33.05,9.23"
         id="path17300" />
      <path
         class="cls-2"
         d="m 311.25,950.26 h 379.63 q 10.35,-4.38 20.44,-9.23 H 290.81 q 10.1,4.83 20.44,9.23"
         id="path17302" />
      <path
         class="cls-2"
         d="M 261.19,925.55 H 741 q 7.89,-4.47 15.6,-9.21 h -511 q 7.71,4.74 15.61,9.21"
         id="path17304" />
      <path
         class="cls-2"
         d="m 222,900.86 h 558.09 c 4.31,-3 8.59,-6.07 12.8,-9.23 H 209.24 c 4.21,3.16 8.49,6.22 12.8,9.23"
         id="path17306" />
      <path
         class="cls-2"
         d="m 189.65,876.16 h 622.83 q 5.44,-4.53 10.75,-9.22 H 178.9 c 3.55,3.12 7.12,6.2 10.75,9.22"
         id="path17308" />
      <path
         class="cls-2"
         d="M 162.14,851.46 H 840 q 4.69,-4.55 9.27,-9.22 H 152.86 c 3.06,3.12 6.14,6.19 9.28,9.22"
         id="path17310" />
      <path
         class="cls-2"
         d="M 138.33,826.76 H 863.8 c 2.74,-3 5.42,-6.12 8.08,-9.22 H 130.25 q 4,4.65 8.08,9.22"
         id="path17312" />
      <path
         class="cls-2"
         d="M 117.53,802.07 H 884.6 q 3.58,-4.58 7.07,-9.23 H 110.46 q 3.48,4.65 7.07,9.23"
         id="path17314" />
      <path
         class="cls-2"
         d="m 99.39,777.37 h 803.36 q 3.13,-4.57 6.2,-9.23 H 93.18 q 3,4.65 6.21,9.23"
         id="path17316" />
      <path
         class="cls-2"
         d="m 83.41,752.66 h 835.31 q 2.76,-4.56 5.44,-9.22 H 78 q 2.69,4.65 5.44,9.22"
         id="path17318" />
      <path
         class="cls-2"
         d="m 69.5,728 h 863.14 q 2.42,-4.59 4.73,-9.23 H 64.76 q 2.31,4.65 4.74,9.23"
         id="path17320" />
      <path
         class="cls-2"
         d="m 57.34,703.27 h 887.45 c 1.39,-3 2.74,-6.14 4.08,-9.22 H 53.26 c 1.33,3.08 2.69,6.17 4.08,9.22"
         id="path17322" />
      <path
         class="cls-2"
         d="m 46.88,678.57 h 908.37 q 1.8,-4.59 3.5,-9.22 H 43.37 q 1.73,4.64 3.51,9.22"
         id="path17324" />
      <path
         class="cls-2"
         d="m 38,653.87 h 926.13 c 1,-3.06 2,-6.13 3,-9.22 h -932 c 1,3.09 2,6.16 3,9.22"
         id="path17326" />
      <path
         class="cls-2"
         d="m 30.58,629.18 h 941 q 1.26,-4.6 2.42,-9.23 H 28.17 q 1.17,4.62 2.41,9.23"
         id="path17328" />
      <path
         class="cls-2"
         d="m 24.57,604.48 h 953 c 0.66,-3.07 1.3,-6.14 1.9,-9.23 H 22.67 c 0.6,3.09 1.24,6.16 1.9,9.23"
         id="path17330" />
      <path
         class="cls-2"
         d="m 19.9,579.77 h 962.33 q 0.75,-4.59 1.41,-9.22 H 18.5 q 0.66,4.63 1.4,9.22"
         id="path17332" />
      <path
         class="cls-2"
         d="M 16.54,555.08 H 985.6 c 0.33,-3.07 0.64,-6.14 0.92,-9.23 H 15.61 c 0.29,3.09 0.59,6.16 0.93,9.23"
         id="path17334" />
      <path
         class="cls-2"
         d="m 14.44,530.38 h 973.24 c 0.19,-3.07 0.33,-6.15 0.46,-9.22 H 14 c 0.12,3.07 0.27,6.15 0.45,9.22"
         id="path17336" />
      <path
         class="cls-2"
         d="m 13.6,505.68 h 974.92 c 0,-1.54 0.06,-3.07 0.06,-4.61 0,-1.54 0,-3.07 -0.06,-4.61 H 13.6 c 0,1.54 -0.06,3.06 -0.06,4.61 0,1.55 0,3.07 0.06,4.61"
         id="path17338" />
      <path
         class="cls-2"
         d="m 14,481 h 974.14 c -0.13,-3.08 -0.27,-6.15 -0.46,-9.22 H 14.44 q -0.27,4.61 -0.45,9.22"
         id="path17340" />
      <path
         class="cls-2"
         d="m 15.61,456.29 h 970.91 c -0.28,-3.09 -0.59,-6.16 -0.92,-9.23 H 16.54 c -0.34,3.07 -0.64,6.14 -0.93,9.23"
         id="path17342" />
      <path
         class="cls-2"
         d="m 18.5,431.59 h 965.14 c -0.44,-3.09 -0.91,-6.16 -1.41,-9.23 H 19.9 c -0.49,3.07 -1,6.14 -1.4,9.23"
         id="path17344" />
      <path
         class="cls-2"
         d="m 22.67,406.88 h 956.79 c -0.6,-3.08 -1.24,-6.15 -1.9,-9.22 h -953 c -0.66,3.07 -1.3,6.14 -1.9,9.22"
         id="path17346" />
      <path
         class="cls-2"
         d="M 28.17,382.19 H 974 c -0.77,-3.09 -1.58,-6.16 -2.42,-9.23 h -941 c -0.83,3.07 -1.63,6.14 -2.41,9.23"
         id="path17348" />
      <path
         class="cls-2"
         d="m 35.05,357.49 h 932 c -1,-3.1 -2,-6.16 -3,-9.22 H 38 c -1,3.06 -2,6.12 -3,9.22"
         id="path17350" />
      <path
         class="cls-2"
         d="m 43.37,332.79 h 915.38 q -1.69,-4.64 -3.5,-9.23 H 46.88 c -1.19,3.06 -2.37,6.14 -3.51,9.23"
         id="path17352" />
      <path
         class="cls-2"
         d="m 53.26,308.09 h 895.61 c -1.34,-3.08 -2.69,-6.17 -4.08,-9.22 H 57.34 c -1.39,3.05 -2.75,6.14 -4.08,9.22"
         id="path17354" />
      <path
         class="cls-2"
         d="m 64.76,283.4 h 872.61 c -1.54,-3.1 -3.13,-6.17 -4.73,-9.23 H 69.5 q -2.43,4.59 -4.74,9.23"
         id="path17356" />
      <path
         class="cls-2"
         d="m 78,258.69 h 846.16 c -1.78,-3.1 -3.6,-6.16 -5.44,-9.22 H 83.41 c -1.84,3.06 -3.66,6.12 -5.44,9.22"
         id="path17358" />
      <path
         class="cls-2"
         d="M 93.18,234 H 909 q -3.06,-4.63 -6.2,-9.22 H 99.38 q -3.15,4.59 -6.2,9.22"
         id="path17360" />
      <path
         class="cls-2"
         d="m 110.46,209.3 h 781.21 q -3.48,-4.65 -7.07,-9.23 H 117.53 q -3.59,4.58 -7.07,9.23"
         id="path17362" />
      <path
         class="cls-2"
         d="m 130.24,184.6 h 741.64 q -4,-4.65 -8.07,-9.22 H 138.33 q -4.11,4.56 -8.09,9.22"
         id="path17364" />
      <path
         class="cls-2"
         d="m 152.86,159.9 h 696.42 q -4.59,-4.68 -9.28,-9.22 H 162.14 q -4.71,4.55 -9.28,9.22"
         id="path17366" />
      <path
         class="cls-2"
         d="m 178.89,135.2 h 644.34 c -3.54,-3.12 -7.11,-6.2 -10.75,-9.22 H 189.65 q -5.44,4.53 -10.76,9.22"
         id="path17368" />
      <path
         class="cls-2"
         d="m 209.24,110.51 h 583.65 c -4.21,-3.16 -8.48,-6.22 -12.8,-9.23 H 222 c -4.3,3 -8.58,6.07 -12.79,9.23"
         id="path17370" />
      <path
         class="cls-2"
         d="m 245.58,85.81 h 511 c -5.13,-3.18 -10.34,-6.24 -15.6,-9.23 h -479.8 c -5.26,3 -10.46,6 -15.6,9.23"
         id="path17372" />
      <path
         class="cls-2"
         d="m 290.81,61.1 h 420.51 q -10.1,-4.83 -20.44,-9.22 H 311.24 q -10.35,4.38 -20.43,9.22"
         id="path17374" />
      <path
         class="cls-2"
         d="M 353.19,36.41 H 649 Q 632.69,31.22 615.93,27.18 H 386.24 q -16.75,4 -33.05,9.23"
         id="path17376" />
      <path
         class="cls-1"
         d="m 663.33,262.26 c 0,0 30.34,-34.84 30,-67.39 -0.34,-32.55 -9.52,-83.27 -9.52,-83.27 l -28.7,13.83 c 0,0 -64.56,102.48 -93.26,112.72 -28.7,10.24 -46.11,8.2 -46.11,8.2 l 6.65,-29.72 -10.75,-15.11 c 0,0 -22.3,-65.08 -25.88,-74.82 -3.58,-9.74 -14.83,-31.76 -27.65,-27.7 -12.82,4.06 -42,48.17 -42,48.17 0,0 -44.11,108.65 -42.55,149.13 1.56,40.48 -32.29,-10.25 -70.2,60.46 -37.91,70.71 -46.14,100.42 -59,112.72 -12.86,12.3 -45.6,47.13 -62,84.54 -16.4,37.41 -114.22,95.81 -114.22,95.81 0,0 110.15,236.73 151.65,258.25 41.5,21.52 230.57,102.48 283.35,65.08 52.78,-37.4 43.55,-66.1 43.55,-66.1 0,0 40.47,-125.54 47.13,-148.06 6.66,-22.52 30.23,-123.48 30.23,-123.48 0,0 24.6,-78.4 28.69,-81 4.09,-2.6 32,-3.2 41,-5.19 9,-1.99 11.47,-6.64 15.49,-10.59 l -4.18,-15 10.24,-50 27.41,-10.25 c 0,0 15.88,-2.44 16.78,-8.46 0.9,-6.02 0.64,-12.95 -2.31,-16 -2.95,-3.05 -11.17,-12.5 -11.17,-12.5 0,0 -22.42,-15 -25.5,-17.18 -3.08,-2.18 -36.25,-19.47 -42.14,-36.13 C 672.47,356.56 678,353 678,353 c 0,0 5.58,-10.79 15.27,-0.53 0,0 8.95,-5.11 8,-15.58 -0.95,-10.47 -9.49,-28.89 -13.33,-35.29 -3.84,-6.4 -46.88,-37.15 -46.88,-37.15 z"
         id="path17378" />
      <path
         class="cls-2"
         d="m 567.87,340.15 c 2,0.75 5.89,3 9.58,9.67 5.36,9.69 -8.83,11.42 -16.63,10 -7.8,-1.42 -14.2,-5.54 -15.59,-11.09 -1,-4.11 3.58,-7.65 11.62,-8.78 a 6.93,6.93 0 1 0 12.37,4.28 7,7 0 0 0 -1.35,-4.12 M 472.11,245.7 c -25.29,-14.89 -19.23,-41.56 -19.23,-41.56 a 23.29,23.29 0 0 0 11.78,9.17 c -22.52,-22.16 -3.47,-64.42 -16.63,-52.64 -13.16,11.78 -19.75,36 -19.75,36 -2.42,-6.24 -1.72,-18 -1.72,-18 -12.83,34.29 3.8,68.76 3.8,68.76 -8.65,4.5 -16.28,16.62 -16.28,16.62 0,0 15.59,-10.39 24.95,-10.74 9.36,-0.35 12.11,19.75 12.11,19.75 -22.16,8.31 -66.49,46.75 -66.49,46.75 3.46,-13.16 13.5,-26.32 13.5,-26.32 C 376,271 393.3,224.93 393.3,224.93 c 5.89,15.93 22.17,27 22.17,27 -36,-59.57 32.21,-146.85 37.75,-139.92 5.54,6.93 8,23.55 8,23.55 l 2.42,-28 c 18,7.27 23.55,52.64 32.56,73.43 9.01,20.79 17,28.74 17,28.74 0,0 -28.62,10.34 -41.09,35.97 z m 282.44,211.73 c -13.4,-16.86 -40.41,-7.17 -40.41,-7.17 0,0 29.79,-22.62 40.41,7.17 z m -73.37,-9.84 c 1.4,12.81 5.37,29.7 2.6,38.36 a 15.5,15.5 0 0 1 9.61,-3.72 c 6.24,-0.35 14.54,13.21 5.54,20.83 -9,7.62 -68,43.23 -114.46,1.67 -46.46,-41.56 -59.92,-38.79 -62.68,-29.73 -2.76,9.06 5.54,6.58 14,9.35 8.46,2.77 23.3,6.49 44.78,21.73 49.69,35.26 84.78,21.64 117.75,34.12 12.82,4.85 13.86,-8 16.29,-14.2 2.43,-6.2 9.69,3.47 12.81,-10.74 3.12,-14.21 8.32,-21.82 17,-26.66 8.68,-4.84 -0.22,-10.88 -2.82,-12.09 -2.6,-1.21 13,3 18.42,-8.87 19.67,-43.11 -57.57,-67.45 -74.9,-85.69 -4.12,-4.34 3.58,-12.23 1,-22.27 a 58.81,58.81 0 0 0 -2.73,-8.29 c 2.33,-4.47 9.81,1.11 9.81,1.11 -6.93,-10.73 -13.77,-8.87 -13.77,-8.87 0.57,-3.12 3.8,-9 3.8,-9 -15.86,5.51 -15.7,24.25 -15.7,24.25 -9.24,-5.55 -15.7,-16.17 -15.7,-16.17 14.7,50.5 96.17,81.15 103.33,98.47 v 0 c -20.94,-19.24 -77,-21.25 -73.98,6.41 z M 334.83,944.05 c 6.62,-13.57 20,-45.34 15.23,-72.27 0,0 -13.16,33.94 -54.73,46.41 0,0 14.9,-8.67 23.9,-24.94 a 115.88,115.88 0 0 1 -44.68,20.43 c 0,0 18.36,-10 29.44,-28.75 0,0 -11.77,10.22 -39.83,15.76 0,0 18.71,-11.78 28.4,-26.66 0,0 -17.66,7.61 -36,9.69 0,0 18.35,-10.39 25.28,-21.13 0,0 -11.43,6.24 -29.1,9.36 0,0 10,-5.55 14.9,-13.51 0,0 -14.9,9 -24.59,12.81 -3.62,1.42 -8.45,8.11 -12.64,17.79 a 471.83,471.83 0 0 0 104.42,55.01 z m 101.25,25.63 a 470.58,470.58 0 0 1 -99,-24.79 C 363.56,914.79 366,870.4 366,870.4 c 6.23,17 1.39,35.67 1.39,35.67 20.78,-9 22.86,-18.36 22.86,-18.36 5.53,10 7.61,27.71 7.61,27.71 11.09,-13.86 11.43,-26 11.43,-26 11.09,13.86 15.59,32.91 15.59,32.91 9,-18.71 6.24,-35.34 6.24,-35.34 8.31,5.9 32.55,12.47 32.55,12.47 -47.79,-27.71 -62,-57.66 -62,-57.66 6.59,19 20.44,32.9 20.44,32.9 -58.18,-45 -67.54,-103.9 -67.54,-103.9 -2.77,22.51 3.46,38.8 3.46,38.8 -23.89,-25 -20.77,-61.31 -20.77,-61.31 a 44.57,44.57 0 0 0 -2.43,31.17 c -31.86,-40.87 -9.35,-83.13 -9.35,-83.13 -8.65,1.74 -13.51,9.7 -13.51,9.7 22.51,-47.45 53,-15.93 56.11,7.62 3.11,23.55 -4.85,36.72 -4.85,36.72 a 59,59 0 0 0 24.59,-19.74 c 10.4,46.4 49.18,57.49 49.18,57.49 -21.47,-17 -22.16,-35.49 -22.16,-35.49 7.45,12 23.37,16.44 23.37,16.44 -13.33,-7.77 -15.21,-23.7 -15.21,-23.7 5.71,9.87 22,16.62 22,16.62 -7.1,-6.57 -8.14,-18.53 -8.14,-18.53 7.27,9.7 20.78,10.75 20.78,10.75 -9,-6.24 -11.77,-19.06 -11.77,-19.06 7.61,9 21.12,12.12 21.12,12.12 -15.24,-13.16 -11.43,-32.55 -11.43,-32.55 5.55,11.08 18.35,14.89 18.35,14.89 -11.08,-11.43 -9.34,-29.09 -9.34,-29.09 7.61,8.31 15.58,10 15.58,10 -19.05,-19.39 -11.08,-51.95 -0.34,-48.48 10.74,3.47 25.45,3.46 25.45,3.46 -24.24,-15.24 -25.45,-46.76 -25.45,-46.76 7.61,6.24 23.55,12.47 23.55,12.47 -13.51,-10 -23.9,-35.67 -23.9,-35.67 11.43,6.58 26.32,8.65 26.32,8.65 -56.8,-35.32 -83.12,-99.74 -83.12,-99.74 a 48.39,48.39 0 0 0 3.12,15.24 c -19.4,-20.79 -11.09,-59.58 -11.09,-59.58 -6.92,3.12 -11.08,10.75 -11.08,10.75 0.7,-27 10.91,-50.22 10.91,-50.22 a 80,80 0 0 0 -12.3,8.65 81.55,81.55 0 0 1 14.55,-30.13 61.87,61.87 0 0 0 -16.1,6.58 c 24.93,-35.84 59.91,-48.14 59.91,-48.14 -2.43,7.27 -4.5,22.52 -4.5,22.52 9.35,-21.82 19.39,-28.41 28.58,-29.62 9.19,-1.21 16.44,7.28 16.44,7.28 7.28,-26.67 24.77,-27.37 24.77,-27.37 a 14.32,14.32 0 0 0 0.17,7.63 c 19,-20.79 46.76,-7.63 25.28,-3.81 -21.48,3.82 -33.59,19.91 -33.59,19.91 19.74,-3.11 26.67,5.89 35.67,15.24 9,9.35 25.6,9.4 25.6,9.4 -7.27,6.23 -20.77,9.69 -20.77,9.69 30.13,7.27 43.63,-5.54 43.63,-5.54 a 52.76,52.76 0 0 1 -2.94,10.74 c 24.59,-14.89 22.86,-52.3 22.86,-52.3 a 42,42 0 0 1 -13.86,19.74 c 1.22,-5.54 -1,-12.12 -1,-12.12 a 25.26,25.26 0 0 1 -4.5,9.7 c -5,-19.57 -18.87,-33.08 -18.87,-33.08 a 85.41,85.41 0 0 1 2.07,8.49 c -12.47,-10.57 -18.35,-20.78 -18.35,-20.78 a 23.84,23.84 0 0 0 8.3,-0.51 c -5.37,-1.91 -10.38,-8.32 -10.38,-8.32 8.31,3.81 20.77,2.08 20.77,2.08 -9.35,-5.89 -12.46,-25.63 -12.46,-25.63 12.13,9 32.9,12.12 32.9,12.12 -18,-22.86 -20.78,-53.34 -20.78,-53.34 34.64,18.36 54.72,53.34 54.72,53.34 27,-3.46 35,14.2 35,14.2 a 41.06,41.06 0 0 0 -6.59,-16.44 c 28.06,17.65 32.57,46.05 32.57,46.05 -2.09,-57.49 -49.54,-68.92 -40.53,-90 9.01,-21.08 9.35,-48 9.35,-48 2.95,4.32 3.64,14.89 3.64,14.89 5.19,-24.59 0.35,-56.11 -8.66,-47.8 -9.01,8.31 -26.67,33.59 -26.67,33.59 6.93,-2.59 13.69,0.7 13.69,0.7 -8.67,3.12 -11.09,7.53 -11.09,7.53 6.48,-1.55 14.46,-0.43 11.68,8.57 A 29.76,29.76 0 0 1 644,230 c -15.24,-2.77 -16.46,-21.3 -16.46,-21.3 -21.13,4.16 -14.21,-10.22 -4.85,-23 9.36,-12.78 51.31,-86.07 59.24,-66.7 7.93,19.37 11.43,75.85 11.43,75.85 C 704.72,73.62 677,92.31 659.7,107.55 c -17.3,15.24 -40.7,60.62 -54.55,72.39 -13.85,11.77 -15.76,26.5 -38.1,25.45 -22.34,-1.05 -34.29,0.18 -34.29,0.18 -8.31,-10 -14.2,-10.57 -14.2,-10.57 2.94,4.68 3.64,12.65 3.64,12.65 -20.09,-17 -22.86,-89.36 -48.49,-110.83 -25.63,-21.47 -42.26,9 -63.73,46.41 -21.47,37.41 -51.26,146.16 -51.26,146.16 C 288.07,333 243,451.48 243,451.48 c -33.25,18.7 -40.88,47.1 -40.88,47.1 -58.12,20.79 -68.52,92.13 -68.52,92.13 0,0 -33.35,24.61 -86.33,44.29 A 473.14,473.14 0 0 1 28,501.07 C 28,239.81 239.8,28 501.06,28 c 261.26,0 473.05,211.8 473.05,473.06 0,247 -189.37,449.81 -430.87,471.16 2.86,-8.37 5.81,-1.36 3.63,-22 -2.18,-20.64 16.37,-42.76 33,-85.24 28,-71.48 42.84,-171.56 62.52,-248.26 4.47,-17.41 1.79,-58 24.66,-60.94 12.59,-1.61 26.66,-6.47 26.66,-6.47 -64.19,0.46 -112.21,-19.86 -112.21,-19.86 0,0 35.48,25.28 65,27.82 -12.23,7.62 -15.47,44.57 -32.1,55.65 -16.63,11.08 -12,39.71 -18.47,46.64 -34.52,37 -2.48,-0.41 -6.47,51.49 -0.69,9 -10.39,28.17 -33.72,26.09 -23.33,-2.08 -34.15,14.86 -34.15,14.86 11.77,-5.31 26.55,-1.62 26.55,-1.62 -42.48,11.09 -27.95,52.42 -27.95,52.42 -9.92,-4.16 -9.46,-15.93 -9.46,-15.93 -4.61,15.7 0.46,26.78 19.4,24 18.94,-2.78 22.16,-18.48 22.16,-18.48 4.39,6.24 4.16,14.55 4.16,14.55 6.89,-8.38 14.29,-20.62 21.75,-35.11 -11.78,82.51 -43.2,196.46 -142.12,197.85 z m -179.42,-494 c -98.7,55.52 80,110.05 35.55,63.46 -33.54,-35.14 -23.36,-68 -35.55,-63.45 z m 29.28,-52.35 c -2.57,35.19 34.44,78 29.82,18.38 C 312.4,398.35 391,215.61 285.94,423.34 Z M 501.06,0 c 276.74,0 501.07,224.33 501.07,501.07 0,276.74 -224.33,501.06 -501.07,501.06 C 224.32,1002.13 0,777.8 0,501.07 0,224.34 224.33,0 501.06,0 Z"
         id="path17380" />
    </g>
  </g>
</svg>
