<?xml version="1.0" encoding="UTF-8" standalone="no"?>
<!-- Created with Inkscape (http://www.inkscape.org/) -->

<svg
   width="127.99999"
   height="127.99999"
   viewBox="0 0 33.866664 33.866664"
   version="1.1"
   id="svg1564"
   xmlns:inkscape="http://www.inkscape.org/namespaces/inkscape"
   xmlns:sodipodi="http://sodipodi.sourceforge.net/DTD/sodipodi-0.dtd"
   xmlns:xlink="http://www.w3.org/1999/xlink"
   xmlns="http://www.w3.org/2000/svg"
   xmlns:svg="http://www.w3.org/2000/svg">
  <sodipodi:namedview
     id="namedview1566"
     pagecolor="#ffffff"
     bordercolor="#000000"
     borderopacity="0.25"
     inkscape:showpageshadow="2"
     inkscape:pageopacity="0.0"
     inkscape:pagecheckerboard="0"
     inkscape:deskcolor="#d1d1d1"
     inkscape:document-units="mm"
     showgrid="false" />
  <defs
     id="defs1561">
    <linearGradient
       inkscape:collect="always"
       id="linearGradient14627">
      <stop
         style="stop-color:#12d145;stop-opacity:1;"
         offset="0"
         id="stop14623" />
      <stop
         style="stop-color:#24b66f;stop-opacity:1;"
         offset="1"
         id="stop14625" />
    </linearGradient>
    <linearGradient
       inkscape:collect="always"
       xlink:href="#linearGradient14627"
       id="linearGradient14629"
       x1="4.0217676"
       y1="6.0926375"
       x2="29.970613"
       y2="27.689991"
       gradientUnits="userSpaceOnUse" />
  </defs>
  <g
     inkscape:label="Layer 1"
     inkscape:groupmode="layer"
     id="layer1">
    <circle
       style="display:inline;fill:url(#linearGradient14629);fill-opacity:1;stroke-width:0.212859"
       id="path1737"
       cx="16.933332"
       cy="16.933332"
       r="16.933332" />
    <circle
       opacity="0.2"
       cx="16.933332"
       cy="16.933332"
       r="16.933332"
       fill="#ffffff"
       id="circle5286"
       style="stroke-width:0.846666" />
    <path
       d="m 16.933366,33.866667 c -1.409695,0 -2.83904,-0.177387 -4.268389,-0.551977 C 8.2881729,32.171278 4.6210855,29.401406 2.3341315,25.498029 0.0471765,21.604473 -0.58376905,17.040738 0.54988277,12.664215 1.6835338,8.2876042 4.4633686,4.6207992 8.3670289,2.3339812 12.270691,0.04715916 16.824946,-0.58373084 21.201755,0.54985616 25.57856,1.6932692 29.245564,4.4631412 31.532518,8.3665182 c 2.287037,3.9033778 2.917899,8.4572908 1.784249,12.8338148 -1.981352,7.60964 -8.862033,12.666334 -16.383401,12.666334 z M 16.903915,0.39219816 c -2.908073,0 -5.766767,0.76882304 -8.3395891,2.27691404 -3.8050654,2.237541 -6.5257782,5.815695 -7.63969524,10.0936588 -1.11391631,4.277967 -0.49288078,8.723416 1.73495024,12.538141 2.2376565,3.804817 5.8159785,6.52533 10.0941911,7.639188 8.822643,2.296726 17.87195,-3.00636 20.168816,-11.828419 1.113918,-4.277964 0.492881,-8.723496 -1.734951,-12.5381388 -2.237657,-3.80482 -5.815978,-6.525416 -10.094275,-7.63927504 -1.38005,-0.364682 -2.789662,-0.542069 -4.189447,-0.542069 z"
       fill="#ffffff"
       id="path5288"
       style="stroke-width:0.846869" />
    <path
       d="m 9.0791955,7.1931364 c -0.08865,0 -0.177291,-0.03936 -0.236495,-0.11828 -0.09857,-0.128104 -0.07882,-0.315411 0.04928,-0.413958 2.3551485,-1.833405 5.2818345,-2.819156 8.2577995,-2.769876 0.167562,0 0.295602,0.138025 0.295602,0.295762 0,0.157674 -0.137928,0.295667 -0.295602,0.285842 -2.838034,-0.04928 -5.636612,0.897016 -7.8734745,2.641682 -0.069,0.05911 -0.137929,0.07882 -0.197132,0.07882 z"
       fill="#ffffff"
       id="path5290"
       style="stroke-width:0.846719" />
    <path
       d="m 18.066275,29.933314 c -0.147849,0 -0.275953,-0.118279 -0.295666,-0.266129 -0.0099,-0.167562 0.108391,-0.305587 0.266033,-0.32531 2.394607,-0.206925 4.670928,-1.113775 6.572747,-2.602223 1.901901,-1.488448 3.320918,-3.489418 4.109213,-5.766332 0.04928,-0.157738 0.21675,-0.236559 0.374421,-0.187276 0.157737,0.04928 0.236558,0.216846 0.187307,0.374504 -0.817932,2.385461 -2.305872,4.475166 -4.296425,6.042445 -1.990553,1.557371 -4.375256,2.503664 -6.888066,2.720509 -0.01984,0.0099 -0.01984,0.0099 -0.02944,0.0099 z m -4.63147,-0.443513 c -0.02944,0 -0.04928,0 -0.07882,-0.0099 -2.660646,-0.759001 -4.9764225,-2.316372 -6.6910295,-4.504634 -1.409112,-1.80385 -2.325601,-3.952657 -2.64092,-6.209927 -0.01952,-0.157738 0.08874,-0.315412 0.256208,-0.335132 0.157674,-0.01984 0.315316,0.08865 0.335048,0.256208 0.305491,2.158711 1.172621,4.199136 2.522715,5.92416 1.635779,2.089618 3.8430905,3.578067 6.3854515,4.297609 0.157674,0.04928 0.246383,0.207021 0.206925,0.364769 -0.04928,0.137928 -0.167467,0.216845 -0.295603,0.216845 z M 29.674464,16.764369 c -0.157642,0 -0.285778,-0.1282 -0.295667,-0.285842 -0.08864,-2.641682 -1.005058,-5.135524 -2.64092,-7.2252296 -1.350011,-1.72502 -3.133623,-3.065549 -5.153727,-3.883648 -0.147753,-0.05917 -0.226574,-0.236591 -0.167467,-0.384495 0.05911,-0.147849 0.236495,-0.22667 0.384328,-0.167562 2.118661,0.847733 3.981104,2.257267 5.400037,4.061121 1.714693,2.1882626 2.670554,4.8003906 2.769028,7.5701796 0.0099,0.167563 -0.118216,0.295763 -0.285778,0.305587 0,0.0099 -0.0099,0.0099 -0.0099,0.0099 z"
       fill="#ffffff"
       id="path5292"
       style="stroke-width:0.846719" />
    <path
       d="m 4.5169005,14.369083 c -0.01984,0 -0.03936,0 -0.069,-0.0099 -0.157674,-0.03936 -0.256144,-0.197132 -0.226574,-0.354777 0.670093,-2.897983 2.325601,-5.5101116 4.670845,-7.3435126 0.128104,-0.09857 0.315316,-0.07882 0.413876,0.04928 0.09857,0.128104 0.07882,0.315412 -0.04928,0.413962 -2.236863,1.754574 -3.823363,4.2484166 -4.463905,7.0083846 -0.01984,0.138024 -0.147849,0.236559 -0.275953,0.236559 z"
       fill="#ffffff"
       id="path5294"
       style="stroke-width:0.846719" />
    <path
       d="m 12.804084,18.59777 c -0.295603,0.02944 -0.610992,0.0099 -0.916406,-0.069 -1.389466,-0.364682 -2.2172165,-1.7743 -1.852622,-3.164109 0.364599,-1.389805 1.773794,-2.217812 3.163174,-1.85313 0.07882,0.01984 0.147849,0.03946 0.216846,0.069 l 0.266032,-1.025123 c -0.069,-0.01984 -0.147849,-0.03946 -0.216749,-0.05917 -1.951181,-0.512518 -3.9417345,0.660442 -4.4540835,2.612132 -0.512435,1.95169 0.660189,3.942835 2.6112835,4.45544 0.571536,0.147849 1.152977,0.157674 1.694963,0.03936 -0.216845,-0.315411 -0.384328,-0.650536 -0.512435,-1.005397 z"
       fill="#ffffff"
       id="path5296"
       style="stroke-width:0.846719" />
    <path
       d="m 15.050938,16.685538 c -0.138025,0.512522 -0.413875,0.94621 -0.788379,1.27152 0.108455,0.344953 0.285778,0.660441 0.532161,0.926567 0.601088,-0.473147 1.064243,-1.143413 1.271181,-1.941869 l 1.39929,-5.372096 -1.02487,-0.266129 -0.748837,2.878257 C 15.523918,13.895937 15.326802,13.639636 15.09031,13.412969 l -0.335045,1.271519 c 0.354774,0.581611 0.482885,1.291332 0.295667,2.00105 z"
       fill="#ffffff"
       id="path5298"
       style="stroke-width:0.846719" />
    <path
       d="m 22.185227,10.62345 c -1.951094,-0.512604 -3.941648,0.660442 -4.454083,2.612132 0,0.0099 0,0.01984 -0.0099,0.02944 l -1.389382,5.342545 1.024784,0.266129 0.748923,-2.888162 c 0.22667,0.384495 0.512436,0.729447 0.86721,1.005481 l 0.30547,-1.173045 c -0.52234,-0.620986 -0.739102,-1.478543 -0.52234,-2.316372 0.364682,-1.389888 1.773791,-2.217812 3.163257,-1.85313 1.389383,0.364682 2.217137,1.7743 1.852538,3.164108 -0.354774,1.360255 -1.714606,2.178441 -3.074522,1.872857 l -0.266032,1.025123 c 1.921544,0.45342 3.862817,-0.709718 4.365431,-2.631857 0.512435,-1.961512 -0.660272,-3.952657 -2.61137,-4.455354 z"
       fill="#ffffff"
       id="path5300"
       style="stroke-width:0.846719" />
    <path
       d="m 19.002324,17.947236 c -0.364595,1.389806 -1.783612,2.217813 -3.163173,1.853048 -1.389467,-0.364683 -2.217221,-1.774217 -1.852622,-3.164109 l 1.005138,-3.863918 0.24632,-0.946296 -1.014963,-0.266129 -0.24632,0.946293 c -0.0099,0.03936 -0.01984,0.07882 -0.03946,0.118279 l -1.044513,4.031488 h 0.0099 c -0.335048,1.85313 0.81793,3.686531 2.670468,4.169585 0.985412,0.256208 1.970827,0.08865 2.778935,-0.394316 l -0.404054,1.537725 c -0.364598,1.389809 -1.773707,2.217816 -3.163177,1.853134 -0.748923,-0.197197 -1.330281,-0.6999 -1.655505,-1.330707 -0.167562,-0.32531 -0.266032,-0.689992 -0.275953,-1.054758 l -0.995233,0.581611 c 0.069,0.354861 0.197036,0.699814 0.364598,1.015219 0.463156,0.867462 1.271181,1.547549 2.305869,1.82358 1.468297,0.384411 2.966144,-0.187308 3.823449,-1.330704 0.285778,-0.37459 0.492706,-0.808281 0.620813,-1.281428 l 0.896677,-3.43023 0.147849,-0.581528 0.896764,-3.430314 -1.024871,-0.266128 z"
       fill="#ffffff"
       id="path5302"
       style="stroke-width:0.846719" />
  </g>
</svg>
