<?xml version="1.0" encoding="UTF-8" standalone="no"?>
<svg
   width="128"
   height="128"
   viewBox="0 0 128 128"
   fill="none"
   version="1.1"
   id="svg4"
   sodipodi:docname="ime.svg"
   inkscape:export-filename="..\Tokens_128x128\ime.png"
   inkscape:export-xdpi="96"
   inkscape:export-ydpi="96"
   xmlns:inkscape="http://www.inkscape.org/namespaces/inkscape"
   xmlns:sodipodi="http://sodipodi.sourceforge.net/DTD/sodipodi-0.dtd"
   xmlns="http://www.w3.org/2000/svg"
   xmlns:svg="http://www.w3.org/2000/svg">
  <defs
     id="defs8" />
  <sodipodi:namedview
     id="namedview6"
     pagecolor="#ffffff"
     bordercolor="#000000"
     borderopacity="0.25"
     inkscape:showpageshadow="2"
     inkscape:pageopacity="0.0"
     inkscape:pagecheckerboard="0"
     inkscape:deskcolor="#d1d1d1"
     showgrid="false" />
  <circle
     style="fill:#ffffff;fill-opacity:1;stroke-width:0.892328"
     id="path2401"
     cx="64"
     cy="64"
     r="60" />
  <path
     fill-rule="evenodd"
     clip-rule="evenodd"
     d="M 64,128 C 99.346176,128 128,99.346176 128,64 128,28.653824 99.346176,0 64,0 28.653824,0 0,28.653824 0,64 0,99.346176 28.653824,128 64,128 Z M 71.30624,20.906624 c 0,3.770368 -3.080064,6.826752 -6.879616,6.826752 -3.799424,0 -6.879488,-3.056384 -6.879488,-6.826752 0,-3.77024 3.080064,-6.826624 6.879488,-6.826624 3.799552,0 6.879616,3.056384 6.879616,6.826624 z M 47.36,24.77952 v 3.741568 c 0.02202,8.708224 0.06618,26.545152 0.06618,28.225536 0,1.680512 1.146624,2.100608 1.719808,2.100608 H 62.177536 V 63.31072 H 49.145984 c -1.32288,0 -1.389056,1.247232 -1.389056,1.96928 0,0.722048 0.06618,1.837952 1.389056,1.837952 h 13.031552 v 4.857472 H 49.145984 c -0.573184,0 -1.719808,0.420096 -1.719808,2.10048 0,1.680384 -0.04416,19.517312 -0.06618,28.225666 v 3.74157 c 0,0.15321 0.07936,0.45939 0.396928,0.45939 0.582144,0 1.565568,-1.31277 1.984512,-1.96915 l 13.229952,-19.3641 c 0.242432,-0.328192 0.873216,-0.984704 1.455232,-0.984704 0.582144,0 1.2128,0.656512 1.45536,0.984704 l 13.229952,19.3641 c 0.418944,0.65638 1.402368,1.96915 1.984512,1.96915 0.317568,0 0.396928,-0.30618 0.396928,-0.45939 v -3.74157 C 81.471232,93.593216 81.4272,75.756288 81.4272,74.075904 c 0,-1.680384 -1.146624,-2.10048 -1.719936,-2.10048 H 66.675712 v -4.857472 h 13.031552 c 1.323008,0 1.389184,-1.115904 1.389184,-1.837952 0,-0.722048 -0.06618,-1.96928 -1.389184,-1.96928 H 66.675712 v -4.463488 h 13.031552 c 0.573312,0 1.719936,-0.420096 1.719936,-2.100608 0,-1.680384 0.04403,-19.517312 0.06618,-28.225536 V 24.77952 c 0,-0.153216 -0.07936,-0.45952 -0.396928,-0.45952 -0.582144,0 -1.565568,1.312768 -1.984512,1.96928 L 65.881984,45.653376 c -0.24256,0.328192 -0.873216,0.984576 -1.45536,0.984576 -0.582016,0 -1.2128,-0.656384 -1.455232,-0.984576 L 49.74144,26.28928 C 49.322496,25.632768 48.339072,24.32 47.756928,24.32 47.43936,24.32 47.36,24.626304 47.36,24.77952 Z m 3.969024,14.178432 v 14.047232 c 0,0.577536 0.396928,0.678272 0.595328,0.656384 2.535936,-0.01856 7.28256,-0.0058 8.911488,-0.0013 l 0.07821,1.28e-4 0.46976,0.0012 c 0.462976,0 0.154368,-0.590848 0,-0.853376 0,0 -8.2688,-14.178432 -8.401024,-14.375424 -0.132352,-0.196864 -0.396928,-0.525056 -0.92608,-0.459392 -0.52928,0.06554 -0.72768,0.656384 -0.72768,0.984576 z m 0,52.906624 V 77.817472 c 0,-0.577664 0.396928,-0.6784 0.595328,-0.656384 2.535936,0.01843 7.28256,0.0058 8.911488,0.0013 0.297344,-7.68e-4 0.490752,-0.0013 0.547968,-0.0013 0.462976,0 0.154368,0.59072 0,0.853248 0,0 -8.2688,14.178432 -8.401024,14.375424 -0.132352,0.196864 -0.396928,0.525056 -0.92608,0.45952 -0.52928,-0.06566 -0.72768,-0.656512 -0.72768,-0.984704 z M 77.524352,53.005184 V 38.957952 c 0,-0.328192 -0.1984,-0.91904 -0.72768,-0.984576 -0.529152,-0.06566 -0.793728,0.262528 -0.92608,0.459392 -0.132352,0.196992 -8.401024,14.375424 -8.401024,14.375424 -0.154368,0.262528 -0.463104,0.853376 0,0.853376 0.05709,0 0.250624,-5.12e-4 0.547968,-0.0013 1.628928,-0.0045 6.375552,-0.01728 8.911488,0.0013 0.1984,0.02189 0.595328,-0.07885 0.595328,-0.656384 z m 0,38.859392 V 77.817472 c 0,-0.577664 -0.396928,-0.6784 -0.595328,-0.656384 -2.535936,0.01843 -7.28256,0.0058 -8.911488,0.0013 l -0.06477,-2.56e-4 -0.4832,-0.001 c -0.463104,0 -0.154368,0.59072 0,0.853248 0,0 8.268672,14.178432 8.401024,14.375424 0.132352,0.196864 0.396928,0.525056 0.92608,0.45952 0.52928,-0.06566 0.72768,-0.656512 0.72768,-0.984704 z M 64.426624,116.48 c 3.799552,0 6.879616,-3.05638 6.879616,-6.82662 0,-3.77037 -3.080064,-6.82676 -6.879616,-6.82676 -3.799424,0 -6.879488,3.05639 -6.879488,6.82676 0,3.77024 3.080064,6.82662 6.879488,6.82662 z"
     fill="#000000"
     id="path2"
     style="stroke-width:1.28" />
</svg>
