<?xml version="1.0" encoding="UTF-8" standalone="no"?>
<svg
   width="128"
   height="128"
   viewBox="0 0 128 128"
   version="1.1"
   id="svg25241"
   sodipodi:docname="INSUR token logo.svg"
   inkscape:export-filename="..\Tokens_128x128\insur.png"
   inkscape:export-xdpi="96"
   inkscape:export-ydpi="96"
   xmlns:inkscape="http://www.inkscape.org/namespaces/inkscape"
   xmlns:sodipodi="http://sodipodi.sourceforge.net/DTD/sodipodi-0.dtd"
   xmlns="http://www.w3.org/2000/svg"
   xmlns:svg="http://www.w3.org/2000/svg"
   xmlns:rdf="http://www.w3.org/1999/02/22-rdf-syntax-ns#"
   xmlns:cc="http://creativecommons.org/ns#"
   xmlns:dc="http://purl.org/dc/elements/1.1/">
  <defs
     id="defs25245" />
  <sodipodi:namedview
     id="namedview25243"
     pagecolor="#ffffff"
     bordercolor="#000000"
     borderopacity="0.25"
     inkscape:showpageshadow="2"
     inkscape:pageopacity="0.0"
     inkscape:pagecheckerboard="0"
     inkscape:deskcolor="#d1d1d1"
     showgrid="false" />
  <!-- Generator: Sketch 55.2 (78181) - https://sketchapp.com -->
  <title
     id="title25227">logo备份 2</title>
  <desc
     id="desc25229">Created with Sketch.</desc>
  <g
     id="网站"
     stroke="none"
     stroke-width="1"
     fill="none"
     fill-rule="evenodd"
     transform="scale(0.5)">
    <g
       id="画板"
       transform="translate(-404,-181)">
      <g
         id="logo备份-2"
         transform="translate(404,181)">
        <g
           id="logo备份">
          <circle
             id="椭圆形"
             fill="#FFFFFF"
             cx="128"
             cy="128"
             r="128"
             style="fill:#ffffff;fill-opacity:1" />
          <g
             id="logo-dark-(v)"
             transform="translate(26.763636,55.854545)">
            <path
               d="m 20.349881,60.057417 c 4.865572,-1.811471 8.706055,-5.645029 10.526752,-10.507767 -2.923539,-5.362719 -1.965748,-12.010698 2.352668,-16.329745 4.318415,-4.319046 10.965423,-5.276978 16.327357,-2.353011 2.419013,-0.858154 4.607533,-2.262757 6.395395,-4.104597 1.838831,-1.793039 3.24271,-3.98341 4.103997,-6.403171 C 56.895611,14.5688 58.287289,7.3499856 63.373709,3.1499938 c 5.08642,-4.1999917 12.437122,-4.1999917 17.523542,0 5.08642,4.1999918 6.478098,11.4188062 3.31766,17.2091322 0.860409,2.420192 2.264408,4.61075 4.103996,6.403171 1.790292,1.842145 3.981098,3.246713 6.402235,4.104597 1.231199,0.04789 9.432358,0.513074 14.760708,7.408797 2.46019,3.251804 3.83174,7.197089 3.91932,11.273959 1.81673,4.867681 5.66191,8.70343 10.53359,10.507767 5.78948,-3.1609 13.00724,-1.769019 17.20662,3.318145 4.19937,5.087163 4.19937,12.43894 0,17.526103 -4.19938,5.087164 -11.41714,6.479045 -17.20662,3.318145 -4.86179,1.81629 -8.69705,5.652107 -10.51307,10.514608 2.92354,5.362722 1.96574,12.010702 -2.35267,16.329742 -4.31842,4.31905 -10.96542,5.27698 -16.327358,2.35301 -4.865302,1.81083 -8.70251,5.6486 -10.513072,10.51461 3.160439,5.79033 1.768761,13.00914 -3.317659,17.20913 -5.08642,4.2 -12.437122,4.2 -17.523542,0 -5.08642,-4.19999 -6.478098,-11.4188 -3.317659,-17.20913 -1.816025,-4.8625 -5.651281,-8.69832 -10.513072,-10.51461 -5.360386,2.93184 -12.011671,1.97816 -16.332581,-2.3418 C 28.903166,106.75541 27.947193,100.1035 30.876633,94.741259 29.052156,89.879423 25.213376,86.045071 20.349881,84.226651 14.560336,87.383689 7.3453755,85.989758 3.1480181,80.90325 c -4.1973575,-5.086508 -4.1973575,-12.435924 0,-17.522432 C 7.3453755,58.29431 14.560336,56.90038 20.349881,60.057417 Z m 5.471996,5.472796 c 2.24323,4.112681 2.24323,9.083597 0,13.196278 1.821037,4.871049 5.663255,8.713828 10.533592,10.535132 5.361884,-2.935733 12.017329,-1.982339 16.339701,2.340665 4.322373,4.323005 5.275627,10.979422 2.340324,16.342092 1.816025,4.8625 5.65128,8.69832 10.513071,10.51461 4.112081,-2.24356 9.08227,-2.24356 13.19435,0 4.861791,-1.81629 8.697046,-5.65211 10.513072,-10.51461 -2.923539,-5.36272 -1.965748,-12.010699 2.352667,-16.329746 4.318415,-4.319046 10.965426,-5.276977 16.327356,-2.353011 4.86179,-1.816291 8.69705,-5.652107 10.51307,-10.514609 -2.2369,-4.114292 -2.2369,-9.081986 0,-13.196278 -1.81056,-4.866013 -5.64777,-8.703783 -10.51307,-10.514609 -3.87266,-0.561384 -7.52925,-2.132767 -10.60199,-4.556102 -4.316891,-3.558423 -7.188833,-8.56864 -8.078033,-14.092449 -1.805579,-4.873811 -5.643503,-8.719789 -10.513072,-10.535131 -4.113691,2.237232 -9.080659,2.237232 -13.19435,0 -4.865302,1.810825 -8.70251,5.648595 -10.513071,10.514608 2.911895,5.361851 1.948705,12.000874 -2.366816,16.313865 -4.315521,4.312991 -10.954277,5.271457 -16.313209,2.355209 -4.865338,1.806796 -8.708081,5.635127 -10.533592,10.494086 z"
               id="形状"
               fill="#217f52" />
            <path
               d="m 94.547486,55.022445 c -4.866667,1.810826 -8.704952,5.648596 -10.516021,10.514609 2.237533,4.114292 2.237533,9.081986 0,13.196278 0.857999,2.421491 2.262756,4.612617 4.105148,6.403171 1.99199,2.080328 4.506129,3.587663 7.279796,4.364555 2.374144,0.574643 0.684191,3.906207 -0.766294,5.342816 -1.450486,1.436609 -4.78934,3.140017 -5.343535,0.766192 -0.776995,-2.773295 -2.284533,-5.287096 -4.36514,-7.278818 -1.790795,-1.842146 -3.982215,-3.246714 -6.404031,-4.104597 -5.79117,3.157038 -13.008155,1.763107 -17.20669,-3.323401 -4.198535,-5.086508 -4.198535,-12.435924 0,-17.522432 4.198535,-5.086508 11.41552,-6.480438 17.20669,-3.323401 4.866667,-1.810825 8.704952,-5.648595 10.516021,-10.514608 -2.930262,-5.362243 -1.974021,-12.014151 2.348102,-16.334111 4.322123,-4.319959 10.975278,-5.273636 16.337168,-2.341804 2.41933,-0.862942 4.60967,-2.266817 6.40403,-4.104597 1.84143,-1.791334 3.24604,-3.982223 4.10514,-6.403171 -3.16132,-5.790326 -1.76925,-13.0091404 3.31859,-17.2091322 5.08785,-4.1999917 12.44062,-4.1999917 17.52846,0 5.08785,4.1999918 6.47992,11.4188062 3.31859,17.2091322 0.85711,2.421927 2.26199,4.613244 4.10515,6.403171 1.7907,1.838982 3.97912,3.24313 6.39719,4.104597 5.36189,-2.931832 12.01504,-1.978155 16.33716,2.341804 4.32213,4.31996 5.27837,10.971868 2.34811,16.334111 1.81106,4.866013 5.64935,8.703783 10.51602,10.514608 5.79117,-3.157037 13.00815,-1.763107 17.20669,3.323401 4.19853,5.086508 4.19853,12.435924 0,17.522432 -4.19854,5.086508 -11.41552,6.480439 -17.20669,3.323401 -4.86667,1.810825 -8.70496,5.648595 -10.51602,10.514608 2.93026,5.362241 1.97402,12.014151 -2.34811,16.334111 -4.32212,4.31996 -10.97527,5.27364 -16.33716,2.3418 -4.85966,1.82172 -8.69406,5.6556 -10.51602,10.51461 3.16132,5.79033 1.76926,13.00914 -3.31859,17.20913 -5.08785,4.2 -12.44061,4.2 -17.52846,0 -5.08785,-4.19999 -6.47991,-11.4188 -3.31859,-17.20913 -0.86092,-2.41806 -2.26535,-4.60633 -4.10515,-6.39633 -1.99304,-2.07901 -4.50679,-3.58611 -7.27979,-4.36455 -2.37415,-0.58149 -0.6842,-3.90621 0.76629,-5.34282 1.45049,-1.43661 4.78934,-3.14002 5.34354,-0.77303 0.77649,2.77548 2.28401,5.29162 4.36514,7.28566 1.79157,1.84119 3.98275,3.2456 6.40403,4.1046 4.11323,-2.24356 9.08481,-2.24356 13.19805,0 4.86315,-1.8163 8.69948,-5.65211 10.51602,-10.51461 -2.92436,-5.36272 -1.9663,-12.010701 2.35333,-16.329748 4.31962,-4.319046 10.9685,-5.276977 16.33193,-2.353011 4.86316,-1.816291 8.69949,-5.652107 10.51603,-10.514609 -2.24386,-4.112681 -2.24386,-9.083597 0,-13.196278 -1.81654,-4.862502 -5.65287,-8.698318 -10.51603,-10.514609 -5.36343,2.923967 -12.01231,1.966035 -16.33193,-2.353011 -4.31963,-4.319047 -5.27769,-10.967027 -2.35333,-16.329745 -1.81654,-4.862501 -5.65287,-8.698318 -10.51602,-10.514608 -4.11324,2.243558 -9.08482,2.243558 -13.19805,0 -2.42128,0.858991 -4.61246,2.263407 -6.40403,4.104596 -1.83803,1.794115 -3.24209,3.98416 -4.10515,6.403171 2.93222,5.36117 1.97842,12.013427 -2.34212,16.334969 -4.32054,4.321542 -10.973343,5.277656 -16.336306,2.347787 z"
               id="路径"
               fill="#2db269" />
            <circle
               id="circle25234"
               fill="#217f52"
               fill-rule="nonzero"
               cx="102.4"
               cy="101.04243"
               r="13.963636" />
          </g>
        </g>
      </g>
    </g>
  </g>
  <metadata
     id="metadata25247">
    <rdf:RDF>
      <cc:Work
         rdf:about="">
        <dc:title>logo备份 2</dc:title>
      </cc:Work>
    </rdf:RDF>
  </metadata>
</svg>
