<?xml version="1.0" encoding="UTF-8" standalone="no"?>
<!-- Created with Inkscape (http://www.inkscape.org/) -->

<svg
   width="127.99999"
   height="127.99999"
   viewBox="0 0 33.866664 33.866664"
   version="1.1"
   id="svg23622"
   inkscape:export-filename="jpyc.png"
   inkscape:export-xdpi="96"
   inkscape:export-ydpi="96"
   xmlns:inkscape="http://www.inkscape.org/namespaces/inkscape"
   xmlns:sodipodi="http://sodipodi.sourceforge.net/DTD/sodipodi-0.dtd"
   xmlns="http://www.w3.org/2000/svg"
   xmlns:svg="http://www.w3.org/2000/svg">
  <sodipodi:namedview
     id="namedview23624"
     pagecolor="#ffffff"
     bordercolor="#000000"
     borderopacity="0.25"
     inkscape:showpageshadow="2"
     inkscape:pageopacity="0.0"
     inkscape:pagecheckerboard="0"
     inkscape:deskcolor="#d1d1d1"
     inkscape:document-units="mm"
     showgrid="false" />
  <defs
     id="defs23619" />
  <g
     inkscape:label="Layer 1"
     inkscape:groupmode="layer"
     id="layer1">
    <circle
       style="display:inline;fill:#16449a;fill-opacity:1;stroke-width:2.38842;stroke-linejoin:bevel;paint-order:fill markers stroke"
       id="path23795"
       cx="16.933332"
       cy="16.933332"
       r="16.933332" />
    <path
       style="display:inline;fill:#ffffff;fill-opacity:1;stroke:none;stroke-width:0.0863025"
       d="m 12.718887,5.7441464 c 0.475698,-0.061482 1.958718,-0.2167914 1.670123,0.6680404 -0.172864,0.5299826 -0.866216,1.046994 -1.2286,1.4671396 -0.702414,0.8142623 -1.316197,1.6935967 -1.908662,2.5890696 -1.231189,1.860851 -2.3269694,4.193516 -2.3269694,6.472675 0,2.018093 0.8989249,3.979141 1.8718974,5.695953 0.837132,1.477151 1.912977,2.768924 3.008584,4.056209 0.299125,0.351423 1.077227,1.202882 0.206522,1.437538 -0.848265,0.228701 -2.033023,-0.126433 -2.846336,-0.366785 C 8.2228473,26.894404 5.8349828,24.579948 4.6420258,21.774001 1.9172285,15.365017 5.2860569,6.7047776 12.718887,5.7441464 m 7.0824,0.00719 c 0.92706,-0.2623936 2.221767,0.1101304 3.101273,0.4019444 2.914603,0.9670262 5.169251,3.2289151 6.350816,6.0411632 2.758568,6.56588 -0.954935,15.21415 -8.508373,15.954365 -0.549918,0.05385 -1.62887,0.0049 -1.202623,-0.851459 0.267365,-0.537145 0.877263,-1.007666 1.266918,-1.467139 0.712167,-0.839722 1.354774,-1.748745 1.948189,-2.675373 1.275375,-1.991339 2.355103,-4.489015 2.118463,-6.904185 C 24.691435,14.367967 23.896074,12.594282 22.93691,10.98621 22.096238,9.5768067 21.063545,8.346058 20.003839,7.1026054 19.742947,6.7964566 19.0357,5.9680233 19.801287,5.7513354 m -7.341306,1.092363 C 11.550872,7.1681175 10.647373,7.3471517 9.7846086,7.8177928 7.6883683,8.9613849 6.1445837,11.004851 5.3556251,13.230071 3.910769,17.30518 5.0457912,22.275935 8.4037714,25.074288 9.5326059,26.014897 11.050146,26.850648 12.546283,26.95214 11.742981,25.738903 10.750504,24.671515 9.993978,23.413745 7.9815978,20.067977 7.2371021,16.485136 8.7845373,12.798559 9.4035839,11.323652 10.235279,9.9473026 11.177873,8.6560473 11.518595,8.1892553 12.435384,7.412284 12.459981,6.8436984 m 8.889139,0 c 0.286695,0.684878 0.947599,1.2977022 1.391625,1.8986511 0.738056,0.9990358 1.408453,2.0765205 1.95302,3.1931855 0.745394,1.528502 1.314903,3.289673 1.314903,5.005536 0,2.31411 -1.022942,4.612772 -2.193546,6.558977 -0.726234,1.207369 -1.789738,2.23497 -2.466002,3.452092 4.953321,-0.336062 8.197339,-6.280048 7.755644,-10.78779 C 28.761626,12.66341 27.037306,9.3967801 23.851886,7.6947343 23.059631,7.2713955 22.208259,7.0710102 21.34912,6.8436984"
       id="path33078"
       sodipodi:nodetypes="ccccsccccsccccccccccccccccccccccccsccccc" />
    <path
       style="fill:#ffffff;fill-opacity:1;stroke:none;stroke-width:0.177054;stroke-linecap:square;stroke-linejoin:miter;stroke-dasharray:none;paint-order:stroke fill markers"
       d="m 18.113914,22.797555 h -2.436346 c -0.205461,-0.0034 -0.258007,0.0072 -0.255089,-0.208235 l -2e-5,-2.061527 h -2.675794 c -0.126785,-0.0017 -0.220423,-0.02091 -0.22389,-0.203025 v -1.462849 c -0.0024,-0.151395 7.95e-4,-0.288497 0.208272,-0.288967 h 2.691432 l -2e-5,-0.887559 -2.691412,-0.01562 c -0.132412,-0.0073 -0.201018,-0.02923 -0.208272,-0.18741 V 15.89978 c 0.0043,-0.200036 0.07481,-0.302521 0.244713,-0.301938 h 1.769995 l -2.28017,-4.159502 c -0.12886,-0.210263 0.01613,-0.367162 0.17615,-0.369598 l 2.317459,-5e-6 c 0.06946,0.01528 0.07728,-0.01784 0.114529,0.0416 l 2.051111,3.649346 2.051113,-3.649346 c 0.01308,-0.02688 0.02832,-0.03954 0.0937,-0.0416 h 2.405111 c 0.127973,0.0074 0.261056,0.163698 0.15097,0.369598 l -2.337433,4.159504 h 1.754376 c 0.177688,0.004 0.229341,0.09612 0.223894,0.26029 v 1.587789 c -0.0027,0.15079 0.0062,0.228878 -0.135395,0.234263 l -2.764288,-0.0052 v 0.89797 h 2.733054 c 0.140588,0.0027 0.169604,0.07378 0.166629,0.27335 v 1.436819 c 0.0017,0.143595 -4.35e-4,0.242936 -0.130188,0.244672 H 18.35861 v 2.025087 c 0.0061,0.154441 -0.04775,0.249015 -0.244701,0.244674 z"
       id="path38906"
       sodipodi:nodetypes="cccccccccccccccccccccccccccccccccccccc" />
  </g>
</svg>
