<?xml version="1.0" encoding="UTF-8" standalone="no"?>
<!-- Created with Inkscape (http://www.inkscape.org/) -->

<svg
   width="127.99999"
   height="127.99999"
   viewBox="0 0 33.866664 33.866664"
   version="1.1"
   id="svg577"
   inkscape:export-filename="klo.png"
   inkscape:export-xdpi="96"
   inkscape:export-ydpi="96"
   sodipodi:docname="klo.svg"
   xmlns:inkscape="http://www.inkscape.org/namespaces/inkscape"
   xmlns:sodipodi="http://sodipodi.sourceforge.net/DTD/sodipodi-0.dtd"
   xmlns="http://www.w3.org/2000/svg"
   xmlns:svg="http://www.w3.org/2000/svg">
  <sodipodi:namedview
     id="namedview579"
     pagecolor="#ffffff"
     bordercolor="#000000"
     borderopacity="0.25"
     inkscape:showpageshadow="2"
     inkscape:pageopacity="0.0"
     inkscape:pagecheckerboard="0"
     inkscape:deskcolor="#d1d1d1"
     inkscape:document-units="mm"
     showgrid="false" />
  <defs
     id="defs574" />
  <g
     inkscape:label="Layer 1"
     inkscape:groupmode="layer"
     id="layer1">
    <circle
       style="fill:#ffffff;fill-opacity:1;stroke:#08102c;stroke-width:0.264583;stroke-linecap:butt;stroke-linejoin:bevel;stroke-dasharray:none;stroke-opacity:1;paint-order:fill markers stroke"
       id="path800"
       cx="16.933332"
       cy="16.933332"
       r="16.801044" />
    <svg
       id="Logo"
       width="100%"
       height="100%"
       viewBox="0 0 31.249 31.444"
       version="1.1"
       inkscape:label="Logo">
      <g
         id="Groupe_143"
         data-name="Groupe 143"
         inkscape:label="Groupe_143"
         transform="matrix(0.703121,0,0,0.703121,4.6385178,4.667596)">
        <path
           id="Trac\xE9_73"
           data-name="Trac\xE9 73"
           d="m 127.816,137.347 -6.747,-6.75986 -7.78782,7.83711 6.74882,6.72571 c 1.64682,1.64118 5.225,1.54 7.284,-0.5 2.024,-2.078 2.128,-5.676 0.502,-7.303 z"
           transform="translate(-97.694,-114.9)"
           fill="#ffffff"
           opacity="0.2"
           style="opacity:1;fill:#31c4e5;fill-opacity:1"
           sodipodi:nodetypes="cccsccc" />
        <path
           id="Trac\xE9_74"
           data-name="Trac\xE9 74"
           d="M 120.98744,55.539137 127.715,48.788 c 1.64112,-1.646873 1.54,-5.225 -0.5,-7.284 -2.042,-2.042 -5.657,-2.163 -7.284,-0.519 l -6.73182,6.731551 z"
           transform="translate(-97.612,-39.852)"
           fill="#ffffff"
           opacity="0.2"
           style="display:inline;opacity:1;fill:#31c4e5;fill-opacity:1"
           sodipodi:nodetypes="cscccc" />
        <path
           id="Trac\xE9_75"
           data-name="Trac\xE9 75"
           d="m 30.847432,55.658496 7.839752,-7.819945 C 37.121531,46.282931 35.204989,44.362924 33.769,42.927 c 0,0 -2.607,-2.927 -5.15,-2.927 -2.907,0 -5.519,2.474 -5.519,4.792 v 21.834 c 0,2.318 2.612,4.792 5.5,4.792 2.561,0 5.138,-2.958 5.138,-2.958 l 4.949184,-4.961752 z"
           transform="translate(-23.1,-39.974)"
           fill="#ffffff"
           style="fill:#173565;fill-opacity:1"
           sodipodi:nodetypes="cccssssccc" />
      </g>
      <path
         id="Trac\xE9_76"
         data-name="Trac\xE9 76"
         d="m 21.074039,15.697866 2.4e-4,-3.15e-4 -5.476085,-5.500224 -5.512294,5.498367 5.51188,5.512253 4.14e-4,4.2e-5 z"
         fill="#ffffff"
         opacity="0.6"
         style="opacity:1;fill:#08102c;fill-opacity:1;stroke-width:0.704886"
         sodipodi:nodetypes="ccccccc" />
    </svg>
  </g>
</svg>
