<?xml version="1.0" encoding="UTF-8" standalone="no"?>
<!-- Created with Inkscape (http://www.inkscape.org/) -->

<svg
   width="127.99999"
   height="127.99999"
   viewBox="0 0 33.866664 33.866664"
   version="1.1"
   id="svg577"
   inkscape:export-filename="cly.svg"
   inkscape:export-xdpi="96"
   inkscape:export-ydpi="96"
   sodipodi:docname="cly.svg"
   xml:space="preserve"
   inkscape:version="1.2.2 (732a01da63, 2022-12-09)"
   xmlns:inkscape="http://www.inkscape.org/namespaces/inkscape"
   xmlns:sodipodi="http://sodipodi.sourceforge.net/DTD/sodipodi-0.dtd"
   xmlns="http://www.w3.org/2000/svg"
   xmlns:svg="http://www.w3.org/2000/svg"><sodipodi:namedview
     id="namedview579"
     pagecolor="#ffffff"
     bordercolor="#000000"
     borderopacity="0.25"
     inkscape:showpageshadow="2"
     inkscape:pageopacity="0.0"
     inkscape:pagecheckerboard="0"
     inkscape:deskcolor="#d1d1d1"
     inkscape:document-units="mm"
     showgrid="false"
     inkscape:zoom="6.2968754"
     inkscape:cx="52.645158"
     inkscape:cy="66.38213"
     inkscape:window-width="1920"
     inkscape:window-height="1009"
     inkscape:window-x="-8"
     inkscape:window-y="-8"
     inkscape:window-maximized="1"
     inkscape:current-layer="layer1" /><defs
     id="defs574"><linearGradient
       id="a"
       x1="20.612535"
       x2="29.225779"
       y1="57.290054"
       y2="69.627213"
       gradientTransform="scale(1.2819259,0.78007626)"
       gradientUnits="userSpaceOnUse"><stop
         offset="0%"
         stop-color="#F7D45C"
         id="stop1385" /><stop
         offset="100%"
         stop-color="#DE3633"
         id="stop1387" /></linearGradient><linearGradient
       id="b"
       x1="12.7789"
       x2="37.443096"
       y1="15.417033"
       y2="40.79377"
       gradientTransform="scale(1.0446479,0.95726034)"
       gradientUnits="userSpaceOnUse"><stop
         offset="0%"
         stop-color="#F7D45C"
         id="stop1390" /><stop
         offset="100%"
         stop-color="#DE3633"
         id="stop1392" /></linearGradient></defs><g
     inkscape:label="Layer 1"
     inkscape:groupmode="layer"
     id="layer1"><circle
       style="display:inline;fill:#172852;fill-opacity:1;stroke:none;stroke-width:0;stroke-linecap:butt;stroke-linejoin:bevel;stroke-dasharray:none;stroke-opacity:1;paint-order:fill markers stroke"
       id="path800"
       cx="16.933332"
       cy="16.933332"
       r="16.933332" /><g
       fill="none"
       fill-rule="evenodd"
       id="g1405"
       transform="matrix(0.41341233,0,0,0.41341233,3.7041378,2.1166656)"><path
         fill="#ffffff"
         d="M 0,0 H 64 V 63.948 H 0 Z"
         opacity="0"
         id="path1397" /><ellipse
         cx="32"
         cy="35.839924"
         fill="#f2e373"
         fill-rule="nonzero"
         rx="28.1"
         ry="28.177"
         id="ellipse1399" /><path
         fill="url(#a)"
         d="M 43.1,32.673 4.7,44.164 c 1.8,5.595 5.3,10.691 10.8,14.588 13.4,9.392 30.1,5.396 40.6,-5.795 0.2,-0.2 0,-0.6 -0.3,-0.5 -2,0.9 -4.2,1.2 -6.3,0.8 -4.1,-0.8 -7.2,-3.897 -8,-7.994 -1,-5.196 2.1,-10.292 7.2,-11.79 z"
         id="path1401"
         style="fill:url(#a)" /><path
         fill="url(#b)"
         d="m 38.7,30.475 c 0.8,-0.3 1.5,-0.7 2.2,-1.099 7.1,-4.096 16.1,-2.598 21.6,3.497 0.1,0.1 0.1,0.3 0,0.4 -0.1,0.1 -0.2,0.1 -0.3,0.1 -4.8,-1 -10,-1.2 -13.9,0.1 -4.7,1.598 -8.2,4.896 -10.6,9.092 C 34.2,48.66 32.7,50.459 27,52.657 17.1,56.554 7.8,52.957 4.7,44.164 0.6,31.074 6.5,16.886 18.7,10.491 22.1,8.693 26.3,7.094 29.8,6.095 33.2,5.095 38.9,3.697 40.4,0.1 40.5,0 40.7,0 40.8,0 40.9,0 41,0.1 41,0.3 c 0.6,4.296 -0.4,6.195 -2.9,8.593 -2.7,2.498 -6,3.697 -8.9,5.495 -4.5,2.998 -5.9,8.393 -2.9,12.89 1.8,2.698 4.8,4.096 8,4.096 1,0 1.9,-0.1 2.9,-0.4 0.5,-0.1 1,-0.299 1.5,-0.499 z"
         id="path1403"
         style="fill:url(#b)" /></g></g></svg>
