<?xml version="1.0" encoding="UTF-8" standalone="no"?>
<!-- Created with Inkscape (http://www.inkscape.org/) -->

<svg
   width="127.99999"
   height="127.99999"
   viewBox="0 0 33.866664 33.866664"
   version="1.1"
   id="svg247"
   inkscape:export-filename="..\..\Tokens_128x128\lunc.png"
   inkscape:export-xdpi="96"
   inkscape:export-ydpi="96"
   sodipodi:docname="dot.svg"
   xmlns:inkscape="http://www.inkscape.org/namespaces/inkscape"
   xmlns:sodipodi="http://sodipodi.sourceforge.net/DTD/sodipodi-0.dtd"
   xmlns="http://www.w3.org/2000/svg"
   xmlns:svg="http://www.w3.org/2000/svg">
  <sodipodi:namedview
     id="namedview249"
     pagecolor="#ffffff"
     bordercolor="#000000"
     borderopacity="0.25"
     inkscape:showpageshadow="2"
     inkscape:pageopacity="0.0"
     inkscape:pagecheckerboard="0"
     inkscape:deskcolor="#d1d1d1"
     inkscape:document-units="mm"
     showgrid="false" />
  <defs
     id="defs244" />
  <g
     inkscape:label="Layer 1"
     inkscape:groupmode="layer"
     id="layer1">
    <circle
       style="display:inline;fill:#172852;fill-opacity:1;stroke:none;stroke-width:4.50945;stroke-linejoin:bevel;stroke-opacity:1;paint-order:fill markers stroke"
       id="path420"
       cx="16.933332"
       cy="16.933332"
       r="16.933332" />
    <path
       d="M 18.081882,19.909941 C 12.899274,17.575431 9.6776507,12.906414 9.4768832,8.1626909 A 0.23811991,0.23811991 0 0 0 9.0800165,7.994606 11.910664,11.910664 0 1 0 28.082919,21.179912 0.23811991,0.23811991 0 0 0 27.807447,20.86242 14.968871,14.968871 0 0 1 18.081882,19.909941 Z"
       fill="#f9d65d"
       id="path1118"
       style="stroke-width:0.466901" />
    <path
       d="m 28.624525,14.788029 v 0 c 0,0 0,-0.04669 0,-0.0747 v 0 c -0.06536,-0.340838 -0.144738,-0.677008 -0.238119,-1.013177 v -0.04202 0 c -0.04669,-0.15875 -0.09339,-0.317494 -0.149414,-0.466901 v -0.03736 0 C 28.124935,12.82704 28.00354,12.504877 27.868138,12.192053 v 0 0 l -0.210099,-0.466907 v 0 0 c -0.0747,-0.154073 -0.154073,-0.303486 -0.233451,-0.466901 v 0 0 0 c -0.08405,-0.149414 -0.168085,-0.298818 -0.256797,-0.466902 v 0 0 C 27.083741,10.65594 26.999707,10.52054 26.910995,10.389808 v 0 l -0.02803,-0.04669 v 0 C 26.696212,10.067648 26.500113,9.7968462 26.290007,9.5353808 l -0.03736,-0.046695 v 0 C 26.145269,9.3532826 26.028536,9.2178818 25.911811,9.0871498 v 0 C 25.799754,8.9610816 25.687698,8.8350225 25.570972,8.713628 v 0 0 L 25.248811,8.3914667 v 0 l -0.130727,-0.093385 v 0 l -0.340839,-0.3128244 -0.04202,-0.037357 v 0 C 24.618494,7.8451793 24.497106,7.7424633 24.371044,7.6444146 v 0 l -0.03268,-0.028027 v 0 C 24.207636,7.5136671 24.076897,7.4109511 23.941495,7.3129003 v 0 l -0.415542,-0.289478 v 0 C 23.245812,6.8366611 22.956333,6.6592394 22.657516,6.495824 v 0 h -0.03268 l -0.42955,-0.2241126 v 0 l -0.0607,-0.02802 v 0 C 21.835767,6.0989535 21.522944,5.9635506 21.200781,5.8421554 l -0.05135,-0.023344 v 0 L 20.649847,5.6273823 v 0 C 20.495773,5.5760331 20.341692,5.5246607 20.182944,5.482644 h -0.04669 v 0 L 19.613321,5.3379374 v 0 C 19.44056,5.3005789 19.277152,5.2632388 19.109067,5.2352157 h -0.03268 v 0 l -0.5276,-0.093386 v 0 c -0.270806,-0.037358 -0.541609,-0.065363 -0.82175,-0.084051 h 0.135403 v 0 l 0.322164,0.032681 v 0 l 0.298816,0.037357 v 0 l 0.280141,0.046695 v 0 l 0.261465,0.051349 v 0 l 0.247458,0.056025 v 0 l 0.224113,0.060708 v 0 l 0.210105,0.065362 v 0 l 0.191431,0.074698 h 0.02801 l 0.177421,0.079375 h 0.03268 l 0.15875,0.084051 h 0.03736 l 0.144737,0.084052 0.04202,0.032681 0.126068,0.084052 0.05603,0.042019 0.10738,0.079374 0.0607,0.056025 0.09339,0.079375 a 0.63965543,0.63965543 0 0 0 0.07938,0.079374 0.86376828,0.86376828 0 0 0 0.06536,0.065362 l 0.135402,0.1540737 a 3.2683124,3.2683124 0 0 1 0.66767,1.3493461 c 0.219444,0.9338021 0.182091,1.8676063 0.392197,2.7733965 0.03268,0.154073 0.07004,0.303485 0.10738,0.466901 0,0.04202 0,0.07938 0.03268,0.116733 q 0.04669,0.177423 0.09804,0.336169 l 0.02801,0.102721 c 1.073875,3.455075 3.221622,5.098568 6.102407,7.297676 a 12.018052,12.018052 0 0 0 0.149414,-1.909628 11.630523,11.630523 0 0 0 -0.196099,-2.147748 z"
       fill="#ec7730"
       id="path1120"
       style="stroke-width:0.466901" />
    <path
       d="M 28.708568,15.301619 C 28.283686,14.325795 28.283686,14.325795 16.994001,10.249743 11.307138,8.1813666 10.25194,6.1970339 14.346669,5.3005825 14.547437,5.2585637 14.752874,5.2165316 14.953641,5.1838496 A 11.943348,11.943348 0 0 1 28.708568,15.301612"
       fill="#f9d65d"
       id="path1122"
       style="stroke-width:0.466901" />
  </g>
</svg>
