<?xml version="1.0" encoding="UTF-8" standalone="no"?>
<!-- Created with Inkscape (http://www.inkscape.org/) -->

<svg
   width="127.99999"
   height="127.99999"
   viewBox="0 0 33.866664 33.866664"
   version="1.1"
   id="svg577"
   inkscape:export-filename="ncash.png"
   inkscape:export-xdpi="96"
   inkscape:export-ydpi="96"
   sodipodi:docname="cly.svg"
   xmlns:inkscape="http://www.inkscape.org/namespaces/inkscape"
   xmlns:sodipodi="http://sodipodi.sourceforge.net/DTD/sodipodi-0.dtd"
   xmlns="http://www.w3.org/2000/svg"
   xmlns:svg="http://www.w3.org/2000/svg">
  <sodipodi:namedview
     id="namedview579"
     pagecolor="#ffffff"
     bordercolor="#000000"
     borderopacity="0.25"
     inkscape:showpageshadow="2"
     inkscape:pageopacity="0.0"
     inkscape:pagecheckerboard="0"
     inkscape:deskcolor="#d1d1d1"
     inkscape:document-units="mm"
     showgrid="false" />
  <defs
     id="defs574" />
  <g
     inkscape:label="Layer 1"
     inkscape:groupmode="layer"
     id="layer1">
    <circle
       style="fill:#00153e;fill-opacity:1;stroke:none;stroke-width:0;stroke-linecap:butt;stroke-linejoin:bevel;stroke-dasharray:none;stroke-opacity:1;paint-order:fill markers stroke"
       id="path800"
       cx="16.933332"
       cy="16.933332"
       r="16.933332" />
    <path
       fill-rule="evenodd"
       clip-rule="evenodd"
       d="m 30.576016,20.71811 c -0.05027,0.112448 -0.166687,0.170656 -0.259027,0.130704 -0.0926,-0.03969 -0.127,-0.162454 -0.07699,-0.274902 0.05001,-0.112183 0.166159,-0.169862 0.259028,-0.12991 0.09287,0.03995 0.127529,0.162454 0.07699,0.273314 z m -3.525043,6.148123 c -0.105834,0.102658 -0.259292,0.115888 -0.343165,0.03043 -0.08387,-0.08546 -0.06509,-0.237331 0.04154,-0.339196 0.106627,-0.101864 0.259027,-0.115887 0.343164,-0.03043 0.0844,0.08546 0.06482,0.237861 -0.04154,0.339461 z m -0.829469,-0.321469 -5.271558,1.767417 c -0.06747,-0.07064 -0.148696,-0.126735 -0.238655,-0.165365 l -0.247914,-3.485885 c 0.125412,-0.07144 0.227012,-0.178329 0.291571,-0.306917 h 2.548996 c 0.04498,0.09128 0.108479,0.17198 0.186795,0.237332 0.07832,0.06509 0.169598,0.113241 0.267759,0.141287 0.09816,0.02778 0.201083,0.03466 0.302154,0.02037 0.101071,-0.01429 0.197908,-0.04948 0.284427,-0.103452 l 1.88886,1.864519 c -0.005,0.01005 -0.0079,0.02064 -0.01243,0.03043 z m -5.516033,3.574786 c -0.04075,-0.03493 -0.08652,-0.06429 -0.135202,-0.08705 l 0.125677,-0.713581 c 0.210873,-0.08546 0.368564,-0.255323 0.415131,-0.461963 l 4.182269,-1.402292 z m -0.430742,0.690033 c -0.145256,0.02672 -0.280988,-0.04551 -0.302683,-0.162719 -0.02143,-0.117475 0.07832,-0.233098 0.223837,-0.259556 0.145786,-0.02646 0.281781,0.04551 0.302948,0.163248 0.02117,0.117475 -0.07832,0.232304 -0.224102,0.259027 z m -0.665427,-0.510646 -5.037931,-0.33946 5.253302,-0.822325 c 0.07911,0.08678 0.178064,0.153194 0.28866,0.19341 l -0.119062,0.676011 c -0.171186,0.05636 -0.307711,0.163248 -0.385234,0.293423 z m -4.925219,-5.555985 c 0.08334,-0.01826 0.162984,-0.05107 0.235215,-0.09684 l 4.691327,3.948377 -6.63575,1.03849 z m -2.198687,4.554008 -1.662907,-4.849019 c 0.01984,-0.0299 0.03757,-0.06112 0.05292,-0.0934 h 2.994554 c 0.05556,0.113241 0.139436,0.210079 0.243946,0.281516 z m 0.103981,0.789781 c -0.0254,0.115888 -0.162454,0.185473 -0.307181,0.154782 -0.144727,-0.03043 -0.242094,-0.150284 -0.216694,-0.266965 0.02513,-0.116681 0.162454,-0.185473 0.30771,-0.154517 0.144992,0.03069 0.2413,0.149755 0.216165,0.265642 z M 6.8741121,25.861875 c 0.009,-0.04842 0.01138,-0.09763 0.0069,-0.146844 l 2.805641,-1.18454 c 0.06853,0.0725 0.151077,0.13044 0.242888,0.169863 0.09181,0.03942 0.1907639,0.0598 0.2907769,0.0598 0.0336,-0.0011 0.06694,-0.0045 0.100277,-0.01005 l 1.588558,4.6355 z m -0.468841,-0.764646 -1.247775,-5.963708 4.468548,4.478073 c -0.08176,0.111918 -0.129117,0.245268 -0.135996,0.38391 l -2.889779,1.219464 c -0.05927,-0.04842 -0.124884,-0.08811 -0.194998,-0.118533 z m -0.03149,0.779727 c -0.07938,0.0889 -0.233362,0.08228 -0.344487,-0.01508 -0.11139,-0.09763 -0.136261,-0.248179 -0.05715,-0.337873 0.07911,-0.08996 0.234156,-0.08176 0.345017,0.01508 0.11086,0.09684 0.135995,0.248179 0.05662,0.337079 z m -2.369079,-5.561012 c 0.105569,-0.140759 0.156104,-0.33999 0.119856,-0.550069 -0.0045,-0.02593 -0.0127,-0.05001 -0.01958,-0.07461 l 0.407988,-0.840846 1.029758,4.922309 z m -0.03572,-5.566305 0.213519,2.833953 c -0.07011,0.105039 -0.110331,0.227277 -0.116152,0.353483 -0.0061,0.125941 0.02249,0.251354 0.08229,0.362744 l -0.364595,0.751152 z M 3.7044041,11.34895 c 0.04868,-0.138113 0.179917,-0.218546 0.293158,-0.179917 0.112978,0.03863 0.1651,0.182298 0.116417,0.321733 -0.04868,0.1397 -0.179917,0.218811 -0.293158,0.179652 -0.113242,-0.03889 -0.1651,-0.183091 -0.116417,-0.321468 z m 1.116806,6.61326 c 0,0.146844 -0.10795,0.265642 -0.242093,0.265642 -0.134144,0 -0.242359,-0.118798 -0.242359,-0.265642 0,-0.147108 0.108479,-0.265377 0.242359,-0.265377 0.133879,0 0.242093,0.119327 0.242093,0.265377 z m -0.3048,-6.270096 c 0.01693,-0.04921 0.02884,-0.100012 0.03598,-0.151606 l 2.520156,-1.6607897 -2.35294,7.2215377 -0.384704,-5.120746 c 0.08123,-0.08149 0.14314,-0.179917 0.181504,-0.288396 z M 8.5200851,7.0923329 7.5366291,8.6454371 C 7.3876691,8.6814201 7.2527311,8.7605308 7.1487501,8.8724495 7.0447691,8.9846329 6.9765061,9.124862 6.9521651,9.27541 l -1.650207,1.087173 z M 10.178758,5.5426684 c 0.12065,0.020373 0.244475,0.012435 0.361686,-0.023283 0.177006,-0.053181 0.320145,-0.1590146 0.406929,-0.2873375 l 4.322233,0.928952 c 0.01799,0.1225021 0.0672,0.2383896 0.143669,0.3360208 l -1.41605,2.9225875 c -0.112448,0.02196 -0.218281,0.06985 -0.308769,0.1399646 -0.09022,0.070379 -0.162983,0.160602 -0.211667,0.2637895 H 10.881492 C 10.830956,9.7175287 10.755814,9.6254537 10.662417,9.5545454 10.568754,9.4839016 10.459481,9.4365412 10.343858,9.4164329 c -0.115887,-0.020108 -0.234685,-0.012171 -0.3468679,0.023019 -0.111919,0.03519 -0.213784,0.096837 -0.297128,0.1793875 L 8.1425251,9.15476 c 0.0085,-0.1031875 -0.01402,-0.206375 -0.06429,-0.2968625 z m 0.0762,-0.8371417 c 0.141288,-0.042863 0.284163,0.015081 0.320411,0.1277938 0.03598,0.1127125 -0.05186,0.2402416 -0.193675,0.2831041 -0.141552,0.042863 -0.283898,-0.015081 -0.319352,-0.1280583 -0.03519,-0.1127125 0.05186,-0.2405062 0.19341,-0.2828396 z m 8.26479,-0.9792229 -2.296319,1.6462375 c -0.07408,-0.025929 -0.152135,-0.039688 -0.230717,-0.040481 -0.111125,2.646e-4 -0.220662,0.025665 -0.320145,0.074348 -0.09975,0.048683 -0.187061,0.1193271 -0.255323,0.2066396 l -3.42265,-0.7363358 z m 0.802746,0.1232958 c 0.04868,0.018785 0.09895,0.033073 0.150547,0.042333 0.216694,0.037306 0.42254,-0.015346 0.565415,-0.1232958 l 3.540919,1.9592396 c -0.0058,0.015081 -0.01164,0.030162 -0.01535,0.046567 l -6.67676,-0.1799167 z m 0.01217,-0.6273271 c 0.02037,-0.1169458 0.155046,-0.1912937 0.301096,-0.1658937 0.145786,0.025135 0.246856,0.1402292 0.226484,0.257175 -0.02037,0.1172104 -0.156105,0.1910291 -0.301625,0.1656291 -0.145521,-0.0254 -0.247121,-0.1399645 -0.226484,-0.2569104 z m 0.491861,13.3162145 c 2.64e-4,0.05794 -0.0164,0.1143 -0.04842,0.162719 -0.03201,0.04815 -0.07779,0.08573 -0.131233,0.108215 -0.05345,0.02223 -0.112448,0.02831 -0.169334,0.0172 -0.05715,-0.01111 -0.109537,-0.03863 -0.150548,-0.07938 -0.04128,-0.04075 -0.06932,-0.0926 -0.0807,-0.14949 -0.01164,-0.05662 -0.0058,-0.115358 0.01614,-0.168804 0.02223,-0.05345 0.0598,-0.09895 0.10795,-0.131233 0.04815,-0.03228 0.10504,-0.04948 0.162983,-0.04948 0.07752,0 0.151871,0.03043 0.206905,0.08467 0.05503,0.0545 0.08599,0.128323 0.08625,0.205581 z m -0.1651,-6.129602 c -0.05636,-2.65e-4 -0.11139,-0.0172 -0.158221,-0.04868 -0.04683,-0.03148 -0.08334,-0.07593 -0.10451,-0.127794 -0.02143,-0.05212 -0.02699,-0.109273 -0.01588,-0.164306 0.01111,-0.05503 0.03863,-0.1055688 0.07858,-0.1452563 0.03995,-0.039688 0.09075,-0.066675 0.146314,-0.077523 0.0553,-0.010848 0.112713,-0.00503 0.164571,0.016404 0.05212,0.021696 0.09684,0.057944 0.128059,0.104775 0.03122,0.046831 0.04815,0.1016003 0.04815,0.1579563 -2.65e-4,0.03731 -0.0077,0.07435 -0.02223,0.109008 -0.01429,0.03466 -0.03545,0.06588 -0.06218,0.09234 -0.02672,0.02646 -0.05821,0.04736 -0.09313,0.06165 -0.03466,0.01429 -0.07197,0.02143 -0.109537,0.02143 z M 15.701142,5.9535663 c -2.65e-4,-0.057679 0.01667,-0.1143 0.04868,-0.1624542 0.03201,-0.048154 0.07752,-0.085725 0.131233,-0.10795 0.05345,-0.022225 0.112184,-0.02831 0.169334,-0.017198 0.05689,0.011112 0.109008,0.038894 0.150283,0.07964 0.04101,0.040746 0.06906,0.092604 0.08043,0.149225 0.01138,0.056621 0.0058,0.1153583 -0.0164,0.1688041 -0.02222,0.053446 -0.05953,0.098954 -0.107685,0.1312333 -0.04842,0.032015 -0.10504,0.049212 -0.162984,0.049212 -0.03836,0 -0.07646,-0.00741 -0.111918,-0.02196 -0.03545,-0.014552 -0.06773,-0.035719 -0.09499,-0.062706 -0.02725,-0.026987 -0.04895,-0.059002 -0.0635,-0.094456 -0.01482,-0.035189 -0.02249,-0.073025 -0.02249,-0.1113895 z m 0.211931,0.8207374 c 0.02646,0.00423 0.05318,0.00714 0.0799,0.0082 0.111125,-7.937e-4 0.220662,-0.026723 0.320146,-0.075935 L 19.0333,9.7479541 c -0.07329,0.1143 -0.112448,0.2471208 -0.112713,0.3828519 2.65e-4,0.144198 0.04366,0.284956 0.124619,0.404284 0.08096,0.119327 0.195792,0.211931 0.329671,0.26617 v 5.0419 c -0.04048,0.0087 -0.0799,0.0209 -0.118269,0.03651 l -4.483889,-5.390616 c 0.09102,-0.153723 0.12065,-0.336021 0.08308,-0.5106461 -0.03784,-0.174625 -0.139965,-0.3288771 -0.286544,-0.4318 z m -2.061104,3.3501543 c -2.65e-4,-0.05794 0.01667,-0.1143 0.04868,-0.1624543 0.03202,-0.048154 0.07752,-0.085725 0.130969,-0.1082146 0.05345,-0.022225 0.112448,-0.028046 0.169333,-0.016933 0.05689,0.011113 0.109273,0.038629 0.150283,0.079375 0.04101,0.040746 0.06906,0.092869 0.08043,0.1494899 0.01138,0.05662 0.0058,0.115358 -0.0164,0.168539 -0.02223,0.05345 -0.0598,0.09895 -0.10795,0.130969 -0.04815,0.03228 -0.10504,0.04921 -0.162984,0.04921 -0.03836,0 -0.0762,-0.0074 -0.111654,-0.02196 -0.03572,-0.01455 -0.06773,-0.03572 -0.09498,-0.06271 -0.02725,-0.02699 -0.04895,-0.059 -0.0635,-0.09419 -0.01482,-0.03545 -0.02249,-0.07302 -0.02249,-0.11139 z m -3.9158339,0 c -2.64e-4,-0.05662 0.01614,-0.112183 0.04763,-0.1592793 0.03149,-0.047096 0.0762,-0.083873 0.1285879,-0.1058333 0.05239,-0.02196 0.110066,-0.027781 0.165894,-0.016669 0.05583,0.010848 0.106891,0.037835 0.147372,0.077788 0.04022,0.039952 0.06773,0.091017 0.07885,0.1463146 0.01111,0.05556 0.0056,0.112977 -0.01614,0.165365 -0.0217,0.05239 -0.05847,0.0971 -0.105834,0.128587 -0.04736,0.03148 -0.102923,0.04815 -0.159543,0.04815 -0.03757,0 -0.07488,-0.0071 -0.109802,-0.02143 -0.03466,-0.01429 -0.06615,-0.03519 -0.09287,-0.06165 -0.02672,-0.02646 -0.04789,-0.05768 -0.06218,-0.09234 -0.01455,-0.03466 -0.02196,-0.0717 -0.02196,-0.109008 z m 0.2868089,13.612548 c 0.05741,2.65e-4 0.11377,0.01746 0.161395,0.04974 0.04789,0.03201 0.08493,0.07726 0.106628,0.130439 0.02196,0.05292 0.02752,0.11139 0.01614,0.167482 -0.01138,0.05636 -0.03916,0.10795 -0.08017,0.148166 -0.04075,0.04048 -0.0926,0.068 -0.149225,0.07911 -0.05636,0.01111 -0.114829,0.0053 -0.16801,-0.01667 -0.05318,-0.02196 -0.09869,-0.05927 -0.1307039,-0.106892 -0.03175,-0.04763 -0.04895,-0.103716 -0.04895,-0.161131 2.65e-4,-0.07699 0.03122,-0.151077 0.08599,-0.205581 0.05503,-0.05424 0.129381,-0.08467 0.206904,-0.08467 z M 7.3175541,9.0346391 c 0.0979,-0.1103312 0.250561,-0.1357312 0.340254,-0.05715 0.08969,0.078581 0.08361,0.2312459 -0.01535,0.3413125 -0.09869,0.1103313 -0.249502,0.1354667 -0.339195,0.056621 -0.08969,-0.078846 -0.08334,-0.2309813 0.01376,-0.3407834 z m -2.153973,8.5560959 2.544498,-7.8123521 c 0.0598,-0.029369 0.115358,-0.066146 0.165365,-0.1098021 l 1.614487,0.4810122 c 0.0037,0.139171 0.04736,0.274373 0.126206,0.389467 0.07885,0.115094 0.189178,0.205052 0.31803,0.259027 v 12.312121 l -4.760384,-4.770967 c 0.06826,-0.113241 0.103717,-0.243416 0.102129,-0.375443 -0.0016,-0.132292 -0.03995,-0.261409 -0.11086,-0.373063 z M 20.09931,23.309969 c -0.059,7.93e-4 -0.117739,0.0085 -0.174889,0.02302 L 15.307706,17.76695 c 0.02937,-0.07779 0.04472,-0.160073 0.04577,-0.243152 0.0011,-0.127794 -0.03148,-0.253736 -0.09419,-0.365125 -0.06297,-0.11139 -0.154252,-0.204259 -0.264318,-0.269611 -0.110332,-0.06535 -0.236009,-0.100541 -0.364332,-0.102658 -0.128323,-0.0019 -0.254793,0.0299 -0.366977,0.09207 -0.112183,0.06191 -0.205846,0.1524 -0.271991,0.261937 -0.06615,0.109273 -0.102394,0.234157 -0.10504,0.36195 -0.0024,0.127794 0.02884,0.254 0.09049,0.366184 0.06165,0.111919 0.15187,0.205846 0.261408,0.272256 v 5.227637 c -0.09155,0.03889 -0.174096,0.09604 -0.242623,0.167746 -0.06853,0.07197 -0.121444,0.156898 -0.15584,0.250032 H 10.90557 c -0.0344,-0.09313 -0.08758,-0.178065 -0.156105,-0.250032 -0.06853,-0.0717 -0.151341,-0.128852 -0.242887,-0.167746 V 10.798087 c 0.08996,-0.03784 0.171185,-0.0934 0.239183,-0.162983 0.06773,-0.06985 0.120915,-0.1524 0.156369,-0.242888 h 2.554023 c 0.05371,0.13679 0.147373,0.254265 0.269081,0.337079 0.121709,0.08282 0.265906,0.127 0.413279,0.127 0.05953,-7.93e-4 0.118798,-0.0087 0.176477,-0.02355 l 4.538663,5.455974 c -0.03307,0.08281 -0.05027,0.171185 -0.05054,0.26035 -7.93e-4,0.126206 0.03122,0.250296 0.09287,0.360627 0.06165,0.110066 0.151077,0.202406 0.259292,0.267758 0.10795,0.06562 0.23151,0.102129 0.357981,0.106098 0.126471,0.004 0.251883,-0.02487 0.364067,-0.08334 0.112183,-0.05874 0.207169,-0.145256 0.275431,-0.251354 0.06853,-0.106098 0.108479,-0.228071 0.115623,-0.354012 0.0071,-0.125942 -0.01852,-0.251619 -0.07461,-0.364596 -0.05609,-0.112977 -0.140758,-0.209815 -0.245268,-0.280723 v -5.155411 c 0.177271,-0.07752 0.316177,-0.22225 0.386291,-0.401902 h 2.942961 c 0.03519,0.09049 0.08837,0.172773 0.156104,0.242623 0.068,0.06959 0.14896,0.125148 0.238654,0.163248 v 12.570354 c -0.09128,0.03889 -0.173831,0.09604 -0.242623,0.168011 -0.06853,0.0717 -0.121444,0.156633 -0.156104,0.249767 h -2.488406 c -0.05186,-0.1397 -0.145521,-0.260086 -0.268288,-0.345282 -0.122502,-0.08493 -0.268552,-0.130704 -0.417777,-0.130704 z m 0.327025,5.182393 c 0.161661,0 0.292629,0.115623 0.292629,0.258234 0,0.142345 -0.130968,0.258233 -0.292629,0.258233 -0.16166,0 -0.292894,-0.115623 -0.292894,-0.258233 0,-0.142611 0.131234,-0.258234 0.292894,-0.258234 z m -0.612246,-4.464843 c -2.64e-4,-0.05768 0.01667,-0.1143 0.04842,-0.162455 0.03202,-0.04842 0.07779,-0.08599 0.131233,-0.108214 0.05345,-0.02249 0.112448,-0.02858 0.169334,-0.01746 0.05715,0.01111 0.109537,0.03863 0.150548,0.07937 0.04127,0.04075 0.06932,0.09287 0.0807,0.14949 0.01164,0.05662 0.0058,0.115358 -0.01614,0.168804 -0.02222,0.05345 -0.0598,0.09922 -0.10795,0.131233 -0.04815,0.03228 -0.10504,0.04948 -0.162983,0.04948 -0.03836,2.65e-4 -0.07646,-0.0071 -0.111919,-0.0217 -0.03545,-0.01455 -0.06773,-0.03598 -0.09498,-0.06297 -0.02725,-0.02699 -0.04895,-0.059 -0.06377,-0.09419 -0.01482,-0.03519 -0.02249,-0.07303 -0.02249,-0.111389 z m -5.484547,-6.509544 c -2.65e-4,-0.05768 0.01667,-0.1143 0.04895,-0.162454 0.03202,-0.04815 0.07752,-0.08573 0.130969,-0.10795 0.05371,-0.02249 0.112713,-0.02831 0.169598,-0.0172 0.05689,0.01085 0.109273,0.03863 0.150283,0.07938 0.04128,0.04075 0.06932,0.09287 0.0807,0.149489 0.01138,0.05662 0.0058,0.115359 -0.0164,0.168805 -0.02222,0.05344 -0.05953,0.09895 -0.10795,0.131233 -0.04815,0.03201 -0.104775,0.04921 -0.162719,0.04921 -0.07752,2.65e-4 -0.152135,-0.03016 -0.207168,-0.08467 -0.05477,-0.0545 -0.08599,-0.128588 -0.08625,-0.205846 z m 0.197379,6.219031 c 0.05768,2.65e-4 0.113771,0.01746 0.16166,0.04974 0.04763,0.03201 0.08467,0.07726 0.106627,0.130439 0.0217,0.05292 0.02752,0.11139 0.01588,0.167482 -0.01138,0.05636 -0.03916,0.10795 -0.0799,0.148166 -0.04075,0.04048 -0.09287,0.068 -0.149225,0.07911 -0.05662,0.01111 -0.115094,0.0053 -0.168275,-0.01667 -0.05318,-0.02196 -0.09842,-0.05927 -0.13044,-0.106892 -0.03201,-0.04763 -0.04895,-0.103716 -0.04895,-0.161131 0,-0.0381 0.0077,-0.07594 0.02222,-0.11139 0.01482,-0.03519 0.03651,-0.0672 0.06376,-0.09419 0.02699,-0.02699 0.05927,-0.04815 0.09472,-0.06271 0.03545,-0.01455 0.07355,-0.02196 0.111919,-0.02196 z m 0.286014,-0.369094 v -5.146939 c 0.0344,-0.0085 0.06826,-0.01958 0.101071,-0.03307 l 4.551892,5.487987 c -0.06482,0.109009 -0.09948,0.233098 -0.100013,0.359569 5.29e-4,0.156633 0.05239,0.309033 0.147373,0.433917 0.09525,0.124883 0.228336,0.215635 0.379677,0.258762 l 0.241829,3.395398 c -0.04498,0.01508 -0.08837,0.03413 -0.12991,0.05689 L 15.245,24.173312 c 0.0093,-0.04551 0.01402,-0.09181 0.01402,-0.138113 0,-0.142875 -0.04233,-0.28231 -0.121709,-0.401108 -0.07938,-0.119062 -0.192352,-0.211931 -0.324379,-0.267229 z M 23.911956,6.5509954 23.659014,9.4712016 c -0.15875,0.070908 -0.286543,0.1957917 -0.360891,0.3521604 H 20.31521 C 20.255944,9.6984787 20.162281,9.59291 20.045071,9.5188266 19.92786,9.4450079 19.791864,9.405585 19.653223,9.405585 c -0.05001,0 -0.100013,0.00503 -0.148961,0.015346 L 16.689096,6.2723892 c 0.01217,-0.037571 0.0209,-0.075936 0.02619,-0.1150938 l 6.968067,0.1870604 c 0.06218,0.083344 0.1397,0.1539875 0.228865,0.2076979 z m 0.05424,3.2832146 c 0.05768,2.645e-4 0.11377,0.017727 0.161395,0.049742 0.04789,0.032015 0.08493,0.077523 0.106627,0.13044 0.02196,0.05318 0.02752,0.111389 0.01588,0.167745 -0.01138,0.05609 -0.03916,0.107686 -0.08017,0.148167 -0.04075,0.04022 -0.0926,0.06773 -0.148961,0.07885 -0.05662,0.01111 -0.115093,0.0053 -0.168275,-0.01667 -0.05318,-0.02223 -0.09842,-0.05927 -0.130439,-0.107156 -0.03202,-0.04763 -0.04895,-0.103717 -0.04895,-0.160867 0,-0.03837 0.0077,-0.0762 0.02249,-0.111389 0.01482,-0.03519 0.03625,-0.067469 0.0635,-0.094192 0.02725,-0.026987 0.05953,-0.048419 0.09499,-0.062971 0.03545,-0.014552 0.07355,-0.02196 0.111919,-0.021696 z m 0.130175,-4.1060687 c 0.07276,-0.1235604 0.245268,-0.1582208 0.385233,-0.077258 0.140229,0.081227 0.194204,0.2468562 0.121179,0.3706812 -0.07303,0.1235604 -0.245533,0.1576916 -0.385233,0.076729 -0.1397,-0.080963 -0.19394,-0.2468561 -0.121179,-0.3701522 z m 5.179218,6.8228107 -4.589462,-2.491846 C 24.673162,9.9276079 24.62395,9.8019308 24.54431,9.6960975 24.464671,9.5905287 24.357514,9.5085079 24.234218,9.4592954 L 24.477106,6.6666183 Z M 26.241612,7.4227975 c -0.0254,0.2145771 0.09075,0.4574646 0.316177,0.6135687 0.115359,0.080698 0.250296,0.1285875 0.39079,0.1381125 L 28.64006,11.108179 25.165023,6.7208579 Z m 0.503238,-0.073554 c 0.06826,-0.097631 0.22225,-0.10795 0.343429,-0.024077 0.121444,0.084137 0.164306,0.2309813 0.09499,0.3280834 -0.06906,0.097102 -0.22225,0.1082145 -0.343429,0.024077 C 26.718661,7.5931899 26.675534,7.4463457 26.74485,7.3492435 Z M 24.259618,24.026725 c 2.65e-4,0.05768 -0.01667,0.1143 -0.04868,0.162454 -0.03201,0.04815 -0.07779,0.08573 -0.131233,0.108215 -0.05345,0.02222 -0.112448,0.02831 -0.169334,0.0172 -0.05688,-0.01111 -0.109272,-0.03889 -0.150283,-0.07964 -0.04128,-0.04075 -0.06932,-0.09287 -0.0807,-0.14949 -0.01138,-0.05662 -0.0056,-0.115358 0.0164,-0.168539 0.02222,-0.05345 0.0598,-0.09922 0.10795,-0.131234 0.04816,-0.03201 0.10504,-0.04921 0.162984,-0.04921 0.03836,0 0.07646,0.0074 0.111918,0.02196 0.03545,0.01429 0.06773,0.03572 0.09472,0.06271 0.02725,0.02699 0.04895,0.059 0.06377,0.09419 0.01455,0.03519 0.02222,0.07303 0.02249,0.11139 z M 3.4759631,20.148991 c -0.118004,0.02037 -0.233574,-0.08043 -0.259212,-0.22516 -0.02561,-0.144727 0.05109,-0.277812 0.168486,-0.297921 0.117422,-0.02011 0.234236,0.0807 0.259107,0.225161 0.02514,0.144727 -0.05001,0.277812 -0.167614,0.29792 z M 29.896566,12.818975 c 0.09684,-0.03043 0.203994,0.04048 0.239977,0.157691 0.03598,0.116946 -0.01429,0.236538 -0.110595,0.266965 -0.09657,0.03016 -0.203994,-0.04048 -0.239713,-0.157692 -0.03572,-0.11721 0.01429,-0.236537 0.110331,-0.266964 z m 0.676011,7.289535 c -0.232569,-0.09922 -0.523346,0.04683 -0.649552,0.326231 -0.08864,0.19738 -0.07038,0.406136 0.02857,0.548217 l -2.978415,5.102754 c -0.107421,-0.01191 -0.216164,0.0032 -0.316177,0.04392 l -1.978549,-1.953153 c 0.03334,-0.163777 0.0087,-0.333904 -0.07012,-0.481277 -0.07858,-0.147373 -0.206375,-0.262996 -0.361421,-0.326761 V 10.798087 c 0.123825,-0.05265 0.230717,-0.138377 0.309034,-0.24765 l 4.859337,2.525183 c 0.0042,0.02037 0.0071,0.04048 0.01323,0.06059 0.0889,0.293159 0.356923,0.469636 0.598488,0.395023 0.241564,-0.07488 0.365125,-0.374385 0.275696,-0.667279 -0.0807,-0.267494 -0.311415,-0.435769 -0.534459,-0.4064 L 27.407102,7.9882121 c 0.0032,-0.0037 0.0069,-0.00661 0.0098,-0.010848 C 27.589135,7.7344766 27.481979,7.3667058 27.178766,7.1574204 26.984298,7.0224829 26.756227,6.9867642 26.571812,7.0420621 L 24.962616,5.9921955 C 24.936156,5.7781475 24.801485,5.5691267 24.583468,5.4429205 24.490598,5.3881515 24.387412,5.3532265 24.280256,5.3407913 24.1731,5.3283563 24.064621,5.3384113 23.961698,5.3706893 L 20.217314,3.2987371 C 20.164924,3.0756934 19.948233,2.8836059 19.659044,2.833335 19.338898,2.778302 19.041771,2.914298 18.938054,3.1452788 L 10.843392,4.5727059 C 10.685435,4.4599934 10.454983,4.4218934 10.224796,4.4914788 9.8924791,4.5917559 9.6853101,4.8759184 9.7321421,5.1452642 l -5.62954,5.7202918 c -0.248973,-0.01349 -0.505354,0.175419 -0.609864,0.472281 -0.08705,0.247385 -0.04331,0.499533 0.09049,0.660135 l -0.314007,7.298797 c -0.168646,0.134143 -0.259213,0.384175 -0.213466,0.650345 0.05061,0.294217 0.252492,0.512763 0.484558,0.558007 l 2.14794,4.827058 c -0.08731,0.220398 -0.0066,0.509323 0.221192,0.709083 0.182827,0.160602 0.413279,0.219869 0.605895,0.178594 l 5.2146729,3.648604 c -0.0127,0.265642 0.215107,0.522288 0.547423,0.592402 0.227542,0.04842 0.44794,-0.0029 0.595842,-0.119327 l 6.747404,0.455613 c 0.13044,0.185473 0.396346,0.286543 0.681037,0.23495 0.265907,-0.04868 0.470165,-0.217488 0.54028,-0.418836 l 5.741193,-3.334544 c 0.187061,0.02011 0.400315,-0.05292 0.567267,-0.21246 0.195792,-0.188648 0.271462,-0.445294 0.213519,-0.652992 l 2.944283,-5.265472 c 0.182033,-0.01667 0.363802,-0.148961 0.456406,-0.354542 0.126206,-0.2794 0.03969,-0.586317 -0.192352,-0.686065"
       fill="white"
       id="path4"
       style="display:inline;fill:#3399c3;fill-opacity:1;stroke-width:0.264583" />
  </g>
</svg>
