<?xml version="1.0" encoding="UTF-8" standalone="no"?>
<svg
   width="128"
   height="128"
   viewBox="0 0 128 128"
   version="1.1"
   id="svg28173"
   sodipodi:docname="oddz.svg"
   inkscape:export-filename="..\Tokens_128x128\oddz.png"
   inkscape:export-xdpi="96"
   inkscape:export-ydpi="96"
   xmlns:inkscape="http://www.inkscape.org/namespaces/inkscape"
   xmlns:sodipodi="http://sodipodi.sourceforge.net/DTD/sodipodi-0.dtd"
   xmlns="http://www.w3.org/2000/svg"
   xmlns:svg="http://www.w3.org/2000/svg"
   xmlns:rdf="http://www.w3.org/1999/02/22-rdf-syntax-ns#"
   xmlns:cc="http://creativecommons.org/ns#"
   xmlns:dc="http://purl.org/dc/elements/1.1/">
  <defs
     id="defs28177" />
  <sodipodi:namedview
     id="namedview28175"
     pagecolor="#ffffff"
     bordercolor="#000000"
     borderopacity="0.25"
     inkscape:showpageshadow="2"
     inkscape:pageopacity="0.0"
     inkscape:pagecheckerboard="0"
     inkscape:deskcolor="#d1d1d1"
     showgrid="false" />
  <title
     id="title28164">img_circle</title>
  <g
     id="Page-1"
     stroke="none"
     stroke-width="1"
     fill="none"
     fill-rule="evenodd"
     transform="matrix(0.25,0,0,0.25,0.18825,0)">
    <g
       id="Artboard"
       transform="translate(-197,-952)"
       fill-rule="nonzero">
      <g
         id="Group"
         transform="translate(197.251,952)">
        <path
           d="m 256,0 v 0 c 141.387,0 256,114.619 256,256 v 0 c 0,141.387 -114.613,256 -256,256 v 0 C 114.619,512 0,397.387 0,256 v 0 C 0,114.619 114.619,0 256,0 Z"
           id="-g-Path"
           fill="#1c7eff" />
        <g
           transform="translate(81.067944,120.46533)"
           fill="#ffffff"
           id="Shape">
          <path
             d="m 335.14806,7.7786717 c -6.182,0.693 -12.369,1.381 -18.557,2.063 -3.568,0.3930003 -7.147,0.7840003 -10.71,1.1930003 -3.097,0.341 -6.586,0.603 -8.824,3.04 -3.238,3.517 -0.153,8.045 2.478,10.813 2.625,2.772 5.238,5.534 7.852,8.301 0.909,0.949 1.802,1.893 2.705,2.847 0.204,0.228 -2.137,2.512 -2.409,2.813 -4.579,4.994 -9.182,9.983 -13.75,14.972 -0.233,0.244 -0.454,0.488 -0.671,0.728 -4.522,-6.308 -9.426,-12.375 -14.682,-18.08 -2.341,-2.534 -4.738,-5.011 -7.17,-7.466 -0.193,-0.193 -1.307,-1.579 -1.546,-1.347 -0.659,0.608 -1.307,1.21 -1.954,1.813 -0.591,0.546 -1.171,1.097 -1.762,1.647 -0.25,0.222 1.347,1.762 1.546,1.989 2.261,2.704 4.567,5.375 6.784,8.125 2.477,3.068 4.807,6.278 7.045,9.522 1.125,1.619 2.216,3.25 3.278,4.887 0.563,0.875 1.125,1.75 1.671,2.636 0.278,0.438 0.551,0.875 0.813,1.318 0.511,0.853 0.568,0.853 -0.108,1.58 -2.835,3.091 -5.676,6.198 -8.545,9.295 -13.153,-24.704 -33.591,-45.659 -58.864,-57.943 -29.852,-14.5220003 -64.659,-16.3690003 -96.065,-5.7840003 C 92.320056,17.332672 65.721056,39.911672 49.664056,68.798672 c -16.026,28.829 -20.983,63.556998 -14.199,95.783998 0.892,4.227 1.991,8.408 3.281,12.545 0.21,0.671 0.46,0.835 -0.057,1.387 -0.366,0.375 -0.728,0.761 -1.094,1.142 -0.71,0.762 -1.432,1.506 -2.143,2.256 -1.488,1.579 -2.972,3.147 -4.469,4.728 -4.897,5.176 -9.801,10.352 -14.707,15.517 -5.23,5.518 -10.4539999,11.052 -15.6899999,16.574 -0.076,0.079 -0.67,0.603 -0.576,0.688 1.267,1.238 2.548,2.454 3.82,3.682 0.421,0.415 0.753,1.182 1.216,0.693 0.549,-0.534 1.094,-1.097 1.631,-1.643 6.7019999,-6.835 13.4029999,-13.67 20.1079999,-20.488 5.037,-5.137 10.082,-10.284 15.133,-15.421 8.19,21.058 21.469,39.614 38.597,54.284 25.765004,22.08 60.458004,33.091 94.239004,30.091 16.667,-1.477 32.957,-6.216 47.838,-13.857 12.488,-6.393 23.466,-14.813 33.545,-24.512 8.875,-8.551 16.364,-18.892 22.29,-29.642 7.949,-14.397 13.278,-30.375 15.489,-46.653 1.892,-14.177 1.664,-28.54 -0.699,-42.631 -1.143,-6.676 -2.738,-13.284 -4.824,-19.732998 -0.472,-1.517 -0.994,-3.005 -1.539,-4.505 -0.25,-0.728 -0.858,-1.523 -0.262,-2.114 0.716,-0.716 1.443,-1.432 2.159,-2.159 2.613,-2.591 5.228,-5.17 7.847,-7.75 7.188,14.966 11.506,31.670998 13.017,48.158998 1.58,17.097 0.034,34.466 -4.522,51.018 -2.75,9.982 -6.397,19.755 -11.012,29.017 -4.147,8.284 -8.852,16.125 -13.926,23.853 5.767,3.647 11.528,7.301 17.301,10.954 7.296,-12.92 13.693,-26.159 18.302,-40.307 5.17,-15.875 8.295,-32.688 8.38,-49.415 0.086,-17.164 -2.397,-34.107 -7.738,-50.437998 -2.574,-7.852 -5.738,-15.528 -9.534,-22.886 -0.863,-1.693 -1.716,-3.387 -2.647,-5.04 -0.238,-0.397 -0.443,-0.79 -0.682,-1.176 -0.341,-0.603 0.079,-0.683 0.511,-1.114 0.841,-0.818 1.648,-1.636 2.495,-2.454 2.813,-2.784 5.636,-5.568 8.448,-8.341 2.864,-2.853 5.739,-5.693 8.625,-8.546 4.244,4.483 8.489,8.966 12.739,13.443 2.772,2.932 7.942,6.063 10.466,1.091 1.238,-2.432 1.192,-5.272 1.317,-7.943 0.393,-7.841 0.802,-15.688 1.183,-23.534 0.159,-3.267 0.329,-6.522 0.488,-9.784 0.159,-3.102 0.125,-6.113 -1.329,-8.966 -2.502,-4.9870003 -7.923,-7.4810003 -13.332,-6.8740003 z M 49.662056,155.94967 c -7.427,-30.756 -1.952,-64.272998 14.94,-91.027998 16.656,-26.393 43.554004,-45.296 74.514004,-50.398 31.847,-5.2440003 64.929,4.903 89.236,25.909 9.988,8.637 18.585,19.057 24.966,30.619 1.823,3.313 3.488,6.711 4.972,10.188 0.772,1.818 1.5,3.643 2.17,5.478 0.307,0.807 1.131,2.125 0.522,2.79 -0.813,0.869 -1.607,1.744 -2.409,2.613 -5.505,5.949 -11.028,11.892998 -16.563,17.846998 -11.522,12.421 -23.091,24.818 -34.653,37.21 -5.926,6.347 -11.841,12.699 -17.767,19.04 -2.085,2.25 -4.188,4.5 -6.284,6.739 -1.466,1.557 -4.613,4.875 -7.071,3.772 -3.19,-1.427 -3.602,-7.205 -4.185,-10.262 -1.582,-8.216 -3.104,-16.432 -4.636,-24.647 -3.097,-16.693 -5.87,-33.46 -9.281,-50.067998 -1.478,-7.17 -5.574,-14.762 -13.637,-15.613 -5.435,-0.58 -10.537,2.216 -14.324,5.909 -3.881,3.755 -7.5,7.807 -11.219,11.727 -5.979,6.317998 -11.975,12.636998 -17.954,18.954998 -16.333004,17.228 -32.656004,34.478 -48.989004,51.716 -0.882,-2.808 -1.675,-5.639 -2.348,-8.496 -5.255,-21.802 0.673,2.857 0,0 z M 171.91706,27.728672 c 10.696,2.153 21.061,6.188 30.299,12.04 8.454,5.357 15.659,11.971 22.262,19.471 -4.058,3.159 -8.108,6.33 -12.165,9.5 -4.29,-5.591 -8.927,-10.591 -14.296,-15.164 -6.17,-5.233 -13.551,-9.324 -21.076,-12.233 -15.787,-6.103 -33.037,-6.772 -49.449,-3.011 -9.869,2.261 -19.387,6.454 -27.923004,11.869 -4.015,2.539 -7.75,5.403 -11.409,8.414 -0.321,0.262 -0.355,0.455 -0.617,0.148 -0.349,-0.409 -0.71,-0.813 -1.076,-1.216 -0.7,-0.813 -1.407,-1.615 -2.112,-2.409 10.955,-10.353 23.336004,-18.659 37.608004,-23.739 15.912,-5.67 33.403,-7.022 49.954,-3.67 z m 41.765,199.509998 c -27.238,17.273 -61.988,21.25 -92.375,10.25 -8.821,-3.182 -17.137,-7.5 -24.897004,-12.732 -3.693,-2.506 -7.324,-5.244 -10.6,-8.262 -0.647,-0.585 -1.287,-1.164 -1.938,-1.767 -0.332,-0.296 -0.665,-0.591 -1.003,-0.897 -0.074,-0.068 -0.603,-0.58 -0.307,-0.25 -6.79,-6.875 -12.963,-14.029 -18.153,-22.217 -2.205,-3.477 -4.193,-7.085 -5.992,-10.807 -0.866,-1.772 -1.688,-3.573 -2.463,-5.397 -0.313,-0.75 -1.21,-2.028 -0.604,-2.637 0.798,-0.807 1.597,-1.619 2.397,-2.454 5.295,-5.375 10.591,-10.768 15.872,-16.159 11.485,-11.693 22.966,-23.397 34.438004,-35.085 6.1,-6.211 12.19,-12.427 18.287,-18.637 3.647,-3.715998 7.185,-7.602998 11.014,-11.118998 1.637,-1.455 4.364,-3.512 6.662,-2.603 3.097,1.193 3.708,6.022 4.196,8.824 1.488,8.425998 2.938,16.868998 4.415,25.300998 2.838,16.272 5.685,32.557 8.417,48.853 0.614,3.631 1.165,7.522 3.068,10.732 3.369,5.733 8.855,9.506 15.781,8.336 5.897,-1.012 10.205,-5.068 14.262,-9.131 6.136,-6.153 12.256,-12.307 18.392,-18.443 17.768,-17.835 35.552,-35.642 53.393,-53.426 2.27606,14.55355 2.02313,29.36782 -0.93802,43.81188 l -0.19004,0.90545 0.0778,-0.35908 c 1.02717,-4.7902 1.21667,-5.61988 1.0555,-4.81256 l -0.0342,0.16999 c -0.11425,0.56411 -0.32982,1.60023 -0.56004,2.69483 l -0.0772,0.36647 c -0.58101,2.75622 -1.19339,5.59072 -0.48284,2.04202 -6.017,30.295 -25.022,58.352 -51.113,74.908 z"
             id="path28167" />
        </g>
      </g>
    </g>
  </g>
  <metadata
     id="metadata28179">
    <rdf:RDF>
      <cc:Work
         rdf:about="">
        <dc:title>img_circle</dc:title>
      </cc:Work>
    </rdf:RDF>
  </metadata>
</svg>
