<?xml version="1.0" encoding="UTF-8" standalone="no"?>
<!-- Created with Inkscape (http://www.inkscape.org/) -->

<svg
   width="127.99999"
   height="127.99999"
   viewBox="0 0 33.866664 33.866664"
   version="1.1"
   id="svg360"
   inkscape:export-filename="snob.svg"
   inkscape:export-xdpi="96"
   inkscape:export-ydpi="96"
   xmlns:inkscape="http://www.inkscape.org/namespaces/inkscape"
   xmlns:sodipodi="http://sodipodi.sourceforge.net/DTD/sodipodi-0.dtd"
   xmlns="http://www.w3.org/2000/svg"
   xmlns:svg="http://www.w3.org/2000/svg">
  <sodipodi:namedview
     id="namedview362"
     pagecolor="#ffffff"
     bordercolor="#000000"
     borderopacity="0.25"
     inkscape:showpageshadow="2"
     inkscape:pageopacity="0.0"
     inkscape:pagecheckerboard="0"
     inkscape:deskcolor="#d1d1d1"
     inkscape:document-units="mm"
     showgrid="false"
     showguides="false" />
  <defs
     id="defs357" />
  <circle
     style="fill:#ffffff;fill-opacity:1;fill-rule:nonzero;stroke:none;stroke-width:0;stroke-linecap:butt;stroke-linejoin:bevel;stroke-dasharray:none;stroke-opacity:1;paint-order:stroke fill markers"
     id="path93659"
     cx="16.933332"
     cy="16.933332"
     r="16.933332" />
  <path
     style="fill:#000000;stroke-width:0.0364017"
     d="M 16.534079,28.878208 C 11.911628,28.599485 7.8441565,25.652306 6.1268055,21.337386 5.2022054,19.014286 5.0391462,16.381165 5.6685338,13.937094 6.403398,11.083429 8.2000582,8.5734734 10.673399,6.9452341 c 2.528668,-1.664661 5.582105,-2.3128827 8.549225,-1.8149344 0.682233,0.1144934 1.038534,0.1998376 1.674936,0.4011926 1.79739,0.5686867 3.4652,1.5830768 4.811526,2.9264511 1.431807,1.4286685 2.428886,3.0816236 3.019624,5.0059276 l 0.134098,0.436821 0.21504,-0.01174 c 0.569561,-0.0311 1.658176,-0.247861 2.268281,-0.451655 0.203078,-0.06783 0.377027,-0.115542 0.386554,-0.106017 0.0095,0.0095 0.01732,0.668645 0.01732,1.464708 v 1.447387 l -0.206835,0.07738 c -0.486074,0.181864 -1.324689,0.381448 -1.999404,0.475844 l -0.295148,0.04129 -0.01982,0.551695 c -0.0109,0.303431 -0.01397,0.557765 -0.0068,0.565185 0.023,0.02392 0.823236,-0.102952 1.235783,-0.195921 0.22023,-0.04963 0.583187,-0.147648 0.806571,-0.217816 0.223383,-0.07017 0.424233,-0.127579 0.446333,-0.127579 0.0288,0 0.03749,0.41462 0.03067,1.46377 l -0.0095,1.46377 -0.309415,0.103272 c -0.729208,0.243387 -1.750652,0.447081 -2.448184,0.488213 -0.215316,0.0127 -0.405233,0.04105 -0.422036,0.06302 -0.0168,0.02196 -0.08903,0.187358 -0.160498,0.367546 -0.646062,1.628811 -1.663313,3.110515 -2.972243,4.329291 -2.395505,2.230514 -5.610687,3.383328 -8.885353,3.185871 z m 1.820086,-3.165672 c 2.922067,-0.371514 5.495081,-2.170664 6.826325,-4.77323 0.113364,-0.221623 0.192276,-0.415098 0.175361,-0.429944 -0.04854,-0.0426 -1.720919,-0.460986 -2.324063,-0.581416 -0.300314,-0.05997 -0.762745,-0.127879 -1.027623,-0.150923 -1.025425,-0.08921 -2.521408,0.136905 -3.513494,0.531054 -0.06004,0.02385 -0.0637,-0.05952 -0.0637,-1.44896 0,-1.369924 0.0045,-1.476106 0.0637,-1.500193 0.975159,-0.396819 2.423657,-0.621992 3.412662,-0.530507 0.756428,0.06998 1.189815,0.160723 3.14185,0.65791 0.566801,0.144366 1.041,0.25203 1.053776,0.239254 0.02442,-0.02442 0.0641,-1.112892 0.04058,-1.113053 -0.0075,-3.7e-5 -0.488647,-0.12324 -1.069255,-0.273753 -2.656064,-0.688542 -3.329782,-0.772033 -4.695824,-0.581928 -0.622989,0.0867 -1.478065,0.301233 -1.883789,0.472634 -0.06007,0.02537 -0.0637,-0.05734 -0.0637,-1.448067 V 13.306436 L 18.7148,13.196524 c 0.370454,-0.141462 1.082022,-0.316308 1.568659,-0.385448 1.26205,-0.179308 2.075347,-0.0938 4.135556,0.434817 0.5027,0.128985 0.940886,0.244834 0.973746,0.257444 0.03286,0.01261 0.05974,0.01187 0.05974,-0.0017 0,-0.01351 -0.115496,-0.252175 -0.256656,-0.530373 -0.448475,-0.883832 -0.94583,-1.568541 -1.652861,-2.27547 C 22.069776,9.222801 20.190017,8.3388667 18.082894,8.12825 17.548471,8.0748334 16.442899,8.103775 15.933452,8.184525 14.391563,8.4289134 12.980185,9.0336318 11.781635,9.9634119 10.1114,11.259103 8.9324899,13.152482 8.5296149,15.186291 8.4041957,15.819435 8.3664991,16.21945 8.3660457,16.922003 c -9.166e-4,1.417918 0.2710175,2.604845 0.8840259,3.858584 0.4778984,0.977407 1.0386454,1.748827 1.8160474,2.498336 1.511979,1.457727 3.408909,2.305362 5.558966,2.483998 0.293377,0.02437 1.393006,-0.0077 1.729082,-0.05042 z"
     id="path93635" />
</svg>
