<?xml version="1.0" encoding="UTF-8" standalone="no"?>
<!-- Created with Inkscape (http://www.inkscape.org/) -->

<svg
   width="127.99999"
   height="127.99999"
   viewBox="0 0 33.866664 33.866664"
   version="1.1"
   id="svg1564"
   inkscape:export-filename="orbs.png"
   inkscape:export-xdpi="96"
   inkscape:export-ydpi="96"
   xmlns:inkscape="http://www.inkscape.org/namespaces/inkscape"
   xmlns:sodipodi="http://sodipodi.sourceforge.net/DTD/sodipodi-0.dtd"
   xmlns:xlink="http://www.w3.org/1999/xlink"
   xmlns="http://www.w3.org/2000/svg"
   xmlns:svg="http://www.w3.org/2000/svg">
  <sodipodi:namedview
     id="namedview1566"
     pagecolor="#ffffff"
     bordercolor="#000000"
     borderopacity="0.25"
     inkscape:showpageshadow="2"
     inkscape:pageopacity="0.0"
     inkscape:pagecheckerboard="0"
     inkscape:deskcolor="#d1d1d1"
     inkscape:document-units="mm"
     showgrid="false" />
  <defs
     id="defs1561">
    <mask
       id="mask0_1265_4904"
       maskUnits="userSpaceOnUse"
       x="0"
       y="0"
       width="42"
       height="41">
      <rect
         width="42"
         height="41"
         fill="#c4c4c4"
         id="rect15672"
         x="0"
         y="0" />
    </mask>
    <linearGradient
       id="paint0_linear_1265_4904"
       x1="21"
       y1="1.80548e-09"
       x2="21.0397"
       y2="49.799999"
       gradientUnits="userSpaceOnUse">
      <stop
         stop-color="#DA88DE"
         id="stop15753" />
      <stop
         offset="0.373617"
         stop-color="#5E75E8"
         id="stop15755" />
      <stop
         offset="1"
         stop-color="#80C6EB"
         id="stop15757" />
    </linearGradient>
    <linearGradient
       inkscape:collect="always"
       xlink:href="#paint0_linear_1265_4904"
       id="linearGradient16783"
       gradientUnits="userSpaceOnUse"
       x1="21"
       y1="1.80548e-09"
       x2="21.0397"
       y2="49.799999" />
    <linearGradient
       inkscape:collect="always"
       xlink:href="#paint0_linear_1265_4904"
       id="linearGradient16785"
       gradientUnits="userSpaceOnUse"
       x1="21"
       y1="1.80548e-09"
       x2="21.0397"
       y2="49.799999" />
    <linearGradient
       inkscape:collect="always"
       xlink:href="#paint0_linear_1265_4904"
       id="linearGradient16787"
       gradientUnits="userSpaceOnUse"
       x1="21"
       y1="1.80548e-09"
       x2="21.0397"
       y2="49.799999" />
    <linearGradient
       inkscape:collect="always"
       xlink:href="#paint0_linear_1265_4904"
       id="linearGradient16789"
       gradientUnits="userSpaceOnUse"
       x1="21"
       y1="1.80548e-09"
       x2="21.0397"
       y2="49.799999" />
    <linearGradient
       inkscape:collect="always"
       xlink:href="#paint0_linear_1265_4904"
       id="linearGradient16791"
       gradientUnits="userSpaceOnUse"
       x1="21"
       y1="1.80548e-09"
       x2="21.0397"
       y2="49.799999" />
    <linearGradient
       inkscape:collect="always"
       xlink:href="#paint0_linear_1265_4904"
       id="linearGradient16793"
       gradientUnits="userSpaceOnUse"
       x1="21"
       y1="1.80548e-09"
       x2="21.0397"
       y2="49.799999" />
    <linearGradient
       inkscape:collect="always"
       xlink:href="#paint0_linear_1265_4904"
       id="linearGradient16795"
       gradientUnits="userSpaceOnUse"
       x1="21"
       y1="1.80548e-09"
       x2="21.0397"
       y2="49.799999" />
    <linearGradient
       inkscape:collect="always"
       xlink:href="#paint0_linear_1265_4904"
       id="linearGradient16797"
       gradientUnits="userSpaceOnUse"
       x1="21"
       y1="1.80548e-09"
       x2="21.0397"
       y2="49.799999" />
    <linearGradient
       inkscape:collect="always"
       xlink:href="#paint0_linear_1265_4904"
       id="linearGradient16799"
       gradientUnits="userSpaceOnUse"
       x1="21"
       y1="1.80548e-09"
       x2="21.0397"
       y2="49.799999" />
    <linearGradient
       inkscape:collect="always"
       xlink:href="#paint0_linear_1265_4904"
       id="linearGradient16801"
       gradientUnits="userSpaceOnUse"
       x1="21"
       y1="1.80548e-09"
       x2="21.0397"
       y2="49.799999" />
    <linearGradient
       inkscape:collect="always"
       xlink:href="#paint0_linear_1265_4904"
       id="linearGradient16803"
       gradientUnits="userSpaceOnUse"
       x1="21"
       y1="1.80548e-09"
       x2="21.0397"
       y2="49.799999" />
    <linearGradient
       inkscape:collect="always"
       xlink:href="#paint0_linear_1265_4904"
       id="linearGradient16805"
       gradientUnits="userSpaceOnUse"
       x1="21"
       y1="1.80548e-09"
       x2="21.0397"
       y2="49.799999" />
    <linearGradient
       inkscape:collect="always"
       xlink:href="#paint0_linear_1265_4904"
       id="linearGradient16807"
       gradientUnits="userSpaceOnUse"
       x1="21"
       y1="1.80548e-09"
       x2="21.0397"
       y2="49.799999" />
    <linearGradient
       inkscape:collect="always"
       xlink:href="#paint0_linear_1265_4904"
       id="linearGradient16809"
       gradientUnits="userSpaceOnUse"
       x1="21"
       y1="1.80548e-09"
       x2="21.0397"
       y2="49.799999" />
    <linearGradient
       inkscape:collect="always"
       xlink:href="#paint0_linear_1265_4904"
       id="linearGradient16811"
       gradientUnits="userSpaceOnUse"
       x1="21"
       y1="1.80548e-09"
       x2="21.0397"
       y2="49.799999" />
    <linearGradient
       inkscape:collect="always"
       xlink:href="#paint0_linear_1265_4904"
       id="linearGradient16813"
       gradientUnits="userSpaceOnUse"
       x1="21"
       y1="1.80548e-09"
       x2="21.0397"
       y2="49.799999" />
    <linearGradient
       inkscape:collect="always"
       xlink:href="#paint0_linear_1265_4904"
       id="linearGradient16815"
       gradientUnits="userSpaceOnUse"
       x1="21"
       y1="1.80548e-09"
       x2="21.0397"
       y2="49.799999" />
    <linearGradient
       inkscape:collect="always"
       xlink:href="#paint0_linear_1265_4904"
       id="linearGradient16817"
       gradientUnits="userSpaceOnUse"
       x1="21"
       y1="1.80548e-09"
       x2="21.0397"
       y2="49.799999" />
    <linearGradient
       inkscape:collect="always"
       xlink:href="#paint0_linear_1265_4904"
       id="linearGradient16819"
       gradientUnits="userSpaceOnUse"
       x1="21"
       y1="1.80548e-09"
       x2="21.0397"
       y2="49.799999" />
    <linearGradient
       inkscape:collect="always"
       xlink:href="#paint0_linear_1265_4904"
       id="linearGradient16821"
       gradientUnits="userSpaceOnUse"
       x1="21"
       y1="1.80548e-09"
       x2="21.0397"
       y2="49.799999" />
    <linearGradient
       inkscape:collect="always"
       xlink:href="#paint0_linear_1265_4904"
       id="linearGradient16823"
       gradientUnits="userSpaceOnUse"
       x1="21"
       y1="1.80548e-09"
       x2="21.0397"
       y2="49.799999" />
    <linearGradient
       inkscape:collect="always"
       xlink:href="#paint0_linear_1265_4904"
       id="linearGradient16825"
       gradientUnits="userSpaceOnUse"
       x1="21"
       y1="1.80548e-09"
       x2="21.0397"
       y2="49.799999" />
    <linearGradient
       inkscape:collect="always"
       xlink:href="#paint0_linear_1265_4904"
       id="linearGradient16827"
       gradientUnits="userSpaceOnUse"
       x1="21"
       y1="1.80548e-09"
       x2="21.0397"
       y2="49.799999" />
    <linearGradient
       inkscape:collect="always"
       xlink:href="#paint0_linear_1265_4904"
       id="linearGradient16829"
       gradientUnits="userSpaceOnUse"
       x1="21"
       y1="1.80548e-09"
       x2="21.0397"
       y2="49.799999" />
    <linearGradient
       inkscape:collect="always"
       xlink:href="#paint0_linear_1265_4904"
       id="linearGradient16831"
       gradientUnits="userSpaceOnUse"
       x1="21"
       y1="1.80548e-09"
       x2="21.0397"
       y2="49.799999" />
    <linearGradient
       inkscape:collect="always"
       xlink:href="#paint0_linear_1265_4904"
       id="linearGradient16833"
       gradientUnits="userSpaceOnUse"
       x1="21"
       y1="1.80548e-09"
       x2="21.0397"
       y2="49.799999" />
    <linearGradient
       inkscape:collect="always"
       xlink:href="#paint0_linear_1265_4904"
       id="linearGradient16835"
       gradientUnits="userSpaceOnUse"
       x1="21"
       y1="1.80548e-09"
       x2="21.0397"
       y2="49.799999" />
    <linearGradient
       inkscape:collect="always"
       xlink:href="#paint0_linear_1265_4904"
       id="linearGradient16837"
       gradientUnits="userSpaceOnUse"
       x1="21"
       y1="1.80548e-09"
       x2="21.0397"
       y2="49.799999" />
    <linearGradient
       inkscape:collect="always"
       xlink:href="#paint0_linear_1265_4904"
       id="linearGradient16839"
       gradientUnits="userSpaceOnUse"
       x1="21"
       y1="1.80548e-09"
       x2="21.0397"
       y2="49.799999" />
    <linearGradient
       inkscape:collect="always"
       xlink:href="#paint0_linear_1265_4904"
       id="linearGradient16841"
       gradientUnits="userSpaceOnUse"
       x1="21"
       y1="1.80548e-09"
       x2="21.0397"
       y2="49.799999" />
    <linearGradient
       inkscape:collect="always"
       xlink:href="#paint0_linear_1265_4904"
       id="linearGradient16843"
       gradientUnits="userSpaceOnUse"
       x1="21"
       y1="1.80548e-09"
       x2="21.0397"
       y2="49.799999" />
    <linearGradient
       inkscape:collect="always"
       xlink:href="#paint0_linear_1265_4904"
       id="linearGradient16845"
       gradientUnits="userSpaceOnUse"
       x1="21"
       y1="1.80548e-09"
       x2="21.0397"
       y2="49.799999" />
    <linearGradient
       inkscape:collect="always"
       xlink:href="#paint0_linear_1265_4904"
       id="linearGradient16847"
       gradientUnits="userSpaceOnUse"
       x1="21"
       y1="1.80548e-09"
       x2="21.0397"
       y2="49.799999" />
    <linearGradient
       inkscape:collect="always"
       xlink:href="#paint0_linear_1265_4904"
       id="linearGradient16849"
       gradientUnits="userSpaceOnUse"
       x1="21"
       y1="1.80548e-09"
       x2="21.0397"
       y2="49.799999" />
    <linearGradient
       inkscape:collect="always"
       xlink:href="#paint0_linear_1265_4904"
       id="linearGradient16851"
       gradientUnits="userSpaceOnUse"
       x1="21"
       y1="1.80548e-09"
       x2="21.0397"
       y2="49.799999" />
    <linearGradient
       inkscape:collect="always"
       xlink:href="#paint0_linear_1265_4904"
       id="linearGradient16853"
       gradientUnits="userSpaceOnUse"
       x1="21"
       y1="1.80548e-09"
       x2="21.0397"
       y2="49.799999" />
    <linearGradient
       inkscape:collect="always"
       xlink:href="#paint0_linear_1265_4904"
       id="linearGradient16855"
       gradientUnits="userSpaceOnUse"
       x1="21"
       y1="1.80548e-09"
       x2="21.0397"
       y2="49.799999" />
    <linearGradient
       inkscape:collect="always"
       xlink:href="#paint0_linear_1265_4904"
       id="linearGradient16857"
       gradientUnits="userSpaceOnUse"
       x1="21"
       y1="1.80548e-09"
       x2="21.0397"
       y2="49.799999" />
  </defs>
  <g
     inkscape:label="Layer 1"
     inkscape:groupmode="layer"
     id="layer1">
    <circle
       style="display:inline;fill:#ffffff;fill-opacity:1;stroke-width:0.212859"
       id="path1737"
       cx="16.933332"
       cy="16.933332"
       r="16.933332" />
    <g
       mask="url(#mask0_1265_4904)"
       id="g15751"
       transform="matrix(0.79375,0,0,0.79375,0.26458333,0.66145833)">
      <path
         d="m 12.0517,26.154 c -0.1191,0.452 -0.5063,0.5614 -0.8487,0.2406 L 4.40613,20.1829 C 4.05624,19.8621 4.13068,19.4611 4.57735,19.2861 l 9.53645,-3.7329 c 0.4467,-0.175 0.7072,0.0583 0.5881,0.5104 z"
         fill="url(#paint0_linear_1265_4904)"
         id="path15675"
         style="fill:url(#linearGradient16783)" />
      <path
         d="M 6.43849,32.0595 C 6.07371,32.3657 5.70892,32.2418 5.62703,31.7752 L 3.7659,21.6775 c -0.08189,-0.4594 0.134,-0.576 0.4839,-0.2552 l 6.4693,5.9128 c 0.3499,0.3208 0.3424,0.8312 -0.0223,1.1374 z"
         fill="url(#paint1_linear_1265_4904)"
         id="path15677"
         style="fill:url(#linearGradient16785)" />
      <path
         d="m 14.2404,13.541 c 0.3126,0.3572 0.201,0.7874 -0.2383,0.9623 L 4.5178,18.2144 C 4.07113,18.3893 3.84779,18.1706 4.01157,17.7332 L 7.90506,7.48233 C 8.06884,7.04489 8.4634,6.97198 8.77607,7.32923 Z"
         fill="url(#paint2_linear_1265_4904)"
         id="path15679"
         style="fill:url(#linearGradient16787)" />
      <path
         d="m 4.30935,30.3389 c 0.08189,0.4593 -0.05956,0.5177 -0.32011,0.124 L 0.311636,24.9 C 0.0510769,24.5063 0.0734105,23.8793 0.356303,23.5002 L 2.00155,21.3421 C 2.28444,20.9703 2.58966,21.0359 2.679,21.4952 Z"
         fill="url(#paint3_linear_1265_4904)"
         id="path15681"
         style="fill:url(#linearGradient16789)" />
      <path
         d="M 3.148,17.1062 C 2.98422,17.5436 2.72367,17.5436 2.56733,17.0989 L 1.3092,13.4097 C 1.16031,12.965 1.32409,12.3453 1.68143,12.0318 L 6.16304,8.0583 C 6.52038,7.7448 6.66927,7.84687 6.50549,8.28432 Z"
         fill="url(#paint4_linear_1265_4904)"
         id="path15683"
         style="fill:url(#linearGradient16791)" />
      <path
         d="m 1.96432,18.5279 c 0.14889,0.4447 0.04467,1.1154 -0.24567,1.4873 l -1.280457,1.6914 c -0.282892,0.3719 -0.4764505,0.299 -0.43178327,-0.1677 L 0.624306,15.6772 C 0.676418,15.2105 0.840198,15.196 0.989089,15.6407 Z"
         fill="url(#paint5_linear_1265_4904)"
         id="path15685"
         style="fill:url(#linearGradient16793)" />
      <path
         d="m 7.01916,5.33155 c 0.15634,0.18227 0,0.58327 -0.35734,0.90406 L 4.6518,8.02185 C 4.29446,8.33535 4.24235,8.28432 4.52524,7.91249 L 6.21515,5.6888 C 6.49804,5.30968 6.86283,5.14928 7.01916,5.33155 Z"
         fill="url(#paint6_linear_1265_4904)"
         id="path15687"
         style="fill:url(#linearGradient16795)" />
      <path
         d="m 19.7344,36.5215 c -0.2382,0.401 -0.6625,0.4228 -0.9305,0.0364 l -5.2708,-7.5095 c -0.268,-0.3864 -0.1042,-0.7436 0.3723,-0.7874 l 10.5861,-1.0717 c 0.4764,-0.051 0.67,0.2406 0.4243,0.6489 z"
         fill="url(#paint7_linear_1265_4904)"
         id="path15689"
         style="fill:url(#linearGradient16797)" />
      <path
         d="m 17.5308,36.5288 c 0.2681,0.3864 0.1192,0.5759 -0.3275,0.4301 L 7.27972,33.6562 C 6.8256,33.5031 6.75116,33.1313 7.11594,32.8251 L 11.3668,29.238 c 0.3648,-0.3062 0.8784,-0.2406 1.1539,0.1458 z"
         fill="url(#paint8_linear_1265_4904)"
         id="path15691"
         style="fill:url(#linearGradient16799)" />
      <path
         d="m 24.7148,25.4468 c 0.3127,0.3572 0.1787,0.6853 -0.2978,0.7364 l -10.7424,1.0863 c -0.4765,0.051 -0.7668,-0.2843 -0.6477,-0.7364 l 2.6875,-10.2435 c 0.1191,-0.452 0.469,-0.5322 0.7817,-0.1823 z"
         fill="url(#paint9_linear_1265_4904)"
         id="path15693"
         style="fill:url(#linearGradient16801)" />
      <path
         d="m 32.4274,34.2249 c 0.3126,0.3572 0.1861,0.7218 -0.2829,0.8238 l -10.9286,2.2529 c -0.469,0.0948 -0.6551,-0.1531 -0.4095,-0.5614 l 5.1517,-8.6323 c 0.2382,-0.401 0.6923,-0.4447 1.005,-0.0875 z"
         fill="url(#paint10_linear_1265_4904)"
         id="path15695"
         style="fill:url(#linearGradient16803)" />
      <path
         d="m 14.8508,39.9846 c -0.4243,0.2187 -1.0571,0.1458 -1.4144,-0.1604 L 8.35918,35.4352 C 8.00184,35.1217 8.07629,34.9977 8.5304,35.1435 l 8.6803,2.8872 c 0.4541,0.1531 0.4765,0.452 0.0596,0.678 z"
         fill="url(#paint11_linear_1265_4904)"
         id="path15697"
         style="fill:url(#linearGradient16805)" />
      <path
         d="m 26.6355,40.4002 c -0.3722,0.2989 -1.0199,0.3645 -1.4517,0.1531 l -3.5361,-1.7644 c -0.4244,-0.2114 -0.3946,-0.4666 0.0744,-0.5614 l 9.4174,-1.9393 c 0.469,-0.0948 0.5509,0.0656 0.1786,0.3645 z"
         fill="url(#paint12_linear_1265_4904)"
         id="path15699"
         style="fill:url(#linearGradient16807)" />
      <path
         d="m 16.7789,40.6116 c -0.4764,-0.0219 -0.5211,-0.2187 -0.1042,-0.4447 l 1.8984,-0.9989 c 0.4243,-0.2187 1.1167,-0.226 1.541,-0.0145 l 2.7694,1.3779 c 0.4243,0.2114 0.3871,0.3718 -0.0968,0.35 z"
         fill="url(#paint13_linear_1265_4904)"
         id="path15701"
         style="fill:url(#linearGradient16809)" />
      <path
         d="m 34.1917,36.2226 c 0.1564,0.1822 -0.0521,0.5103 -0.4764,0.729 l -2.494,1.3051 c -0.4243,0.2187 -0.4615,0.1604 -0.0967,-0.1385 l 2.1068,-1.6842 c 0.3647,-0.2989 0.7965,-0.3937 0.9603,-0.2114 z"
         fill="url(#paint14_linear_1265_4904)"
         id="path15703"
         style="fill:url(#linearGradient16811)" />
      <path
         d="m 27.8787,25.3374 c -0.4466,0.175 -0.7072,-0.0583 -0.5881,-0.5103 l 2.6503,-10.0904 c 0.1191,-0.4521 0.5062,-0.5614 0.8561,-0.2406 l 6.7969,6.2117 c 0.3499,0.3208 0.2754,0.7218 -0.1713,0.8968 z"
         fill="url(#paint15_linear_1265_4904)"
         id="path15705"
         style="fill:url(#linearGradient16813)" />
      <path
         d="m 38.2341,19.2132 c 0.0819,0.4593 -0.134,0.576 -0.4839,0.2552 l -6.4693,-5.9129 c -0.3499,-0.3207 -0.3424,-0.8311 0.0223,-1.1373 l 4.2509,-3.58708 c 0.3648,-0.30621 0.7295,-0.18227 0.8114,0.28434 z"
         fill="url(#paint16_linear_1265_4904)"
         id="path15707"
         style="fill:url(#linearGradient16815)" />
      <path
         d="m 34.0875,33.4083 c -0.1638,0.4375 -0.5583,0.5104 -0.871,0.1531 l -5.4643,-6.2117 c -0.3127,-0.3573 -0.201,-0.7874 0.2382,-0.9624 l 9.4844,-3.711 c 0.4466,-0.175 0.67,0.0437 0.5062,0.4812 z"
         fill="url(#paint17_linear_1265_4904)"
         id="path15709"
         style="fill:url(#linearGradient16817)" />
      <path
         d="m 41.6809,15.9907 c 0.2606,0.3937 0.2383,1.0207 -0.0446,1.3998 l -1.6453,2.1508 c -0.2829,0.3718 -0.5881,0.3062 -0.6774,-0.1531 l -1.6304,-8.8365 c -0.0819,-0.4593 0.0596,-0.5176 0.3201,-0.1239 z"
         fill="url(#paint18_linear_1265_4904)"
         id="path15711"
         style="fill:url(#linearGradient16819)" />
      <path
         d="m 40.6759,27.4882 c 0.1489,0.4448 -0.0149,1.0645 -0.3722,1.378 l -4.4816,3.9734 c -0.3574,0.3135 -0.5063,0.2115 -0.3425,-0.226 l 3.3575,-8.8291 c 0.1638,-0.4374 0.4244,-0.4374 0.5807,0.0073 z"
         fill="url(#paint19_linear_1265_4904)"
         id="path15713"
         style="fill:url(#linearGradient16821)" />
      <path
         d="m 41.3757,25.2062 c -0.0521,0.4666 -0.2159,0.4812 -0.3648,0.0365 L 40.0282,22.3555 C 39.8793,21.9108 39.991,21.24 40.2739,20.8682 l 1.2879,-1.6915 c 0.2829,-0.3718 0.4765,-0.2989 0.4318,0.1677 z"
         fill="url(#paint20_linear_1265_4904)"
         id="path15715"
         style="fill:url(#linearGradient16823)" />
      <path
         d="m 35.7774,35.2019 c -0.2829,0.3791 -0.6477,0.5322 -0.8114,0.3572 -0.1564,-0.1823 -1e-4,-0.5833 0.3573,-0.9041 l 2.0175,-1.7862 c 0.3573,-0.3135 0.4094,-0.2625 0.1265,0.1094 z"
         fill="url(#paint21_linear_1265_4904)"
         id="path15717"
         style="fill:url(#linearGradient16825)" />
      <path
         d="m 28.4594,11.8422 c 0.268,0.3864 0.1042,0.7437 -0.3722,0.7874 l -10.5861,1.0718 c -0.4765,0.051 -0.67,-0.2406 -0.4244,-0.6489 l 5.1814,-8.68333 c 0.2383,-0.40099 0.6626,-0.42286 0.9306,-0.03645 z"
         fill="url(#paint22_linear_1265_4904)"
         id="path15719"
         style="fill:url(#linearGradient16827)" />
      <path
         d="m 30.6258,11.6527 c -0.3648,0.3062 -0.8785,0.2406 -1.1539,-0.1459 L 24.4617,4.36188 C 24.1937,3.97547 24.3426,3.78591 24.7893,3.93172 l 9.9235,3.30273 c 0.4542,0.1531 0.5286,0.52493 0.1638,0.83114 z"
         fill="url(#paint23_linear_1265_4904)"
         id="path15721"
         style="fill:url(#linearGradient16829)" />
      <path
         d="m 26.2782,24.6011 c -0.1191,0.452 -0.469,0.5322 -0.7817,0.1822 l -8.2113,-9.3394 c -0.3127,-0.3573 -0.1787,-0.6854 0.2978,-0.7364 l 10.7424,-1.0863 c 0.4765,-0.0511 0.7668,0.2843 0.6477,0.7363 z"
         fill="url(#paint24_linear_1265_4904)"
         id="path15723"
         style="fill:url(#linearGradient16831)" />
      <path
         d="m 16.0345,12.79 c -0.2382,0.401 -0.6923,0.4448 -1.005,0.0875 L 9.56519,6.66576 C 9.25252,6.30852 9.37908,5.94398 9.84809,5.84191 L 20.7767,3.58906 c 0.469,-0.09478 0.6551,0.1531 0.4094,0.56139 z"
         fill="url(#paint25_linear_1265_4904)"
         id="path15725"
         style="fill:url(#linearGradient16833)" />
      <path
         d="M 24.7818,2.85998 C 24.3277,2.70687 24.3054,2.40795 24.7223,2.18194 l 2.4194,-1.268595 c 0.4244,-0.218724 1.0572,-0.145816 1.4219,0.160395 l 5.0698,4.38905 c 0.3573,0.3135 0.2829,0.43744 -0.1712,0.29163 z"
         fill="url(#paint26_linear_1265_4904)"
         id="path15727"
         style="fill:url(#linearGradient16835)" />
      <path
         d="M 10.8531,4.60248 C 10.3841,4.69726 10.3022,4.53686 10.6744,4.23794 l 4.6752,-3.74746 c 0.3722,-0.298922 1.0199,-0.364539 1.4517,-0.153107 l 3.5436,1.764367 c 0.4243,0.21143 0.3945,0.46661 -0.0745,0.56139 z"
         fill="url(#paint27_linear_1265_4904)"
         id="path15729"
         style="fill:url(#linearGradient16837)" />
      <path
         d="m 23.4269,1.71533 c -0.4243,0.21872 -1.1167,0.22601 -1.541,0.01458 L 19.1165,0.351955 C 18.6922,0.140522 18.7294,-0.0198745 19.2133,0.00199782 L 25.2211,0.271756 c 0.4764,0.021873 0.5211,0.218724 0.1042,0.444738 z"
         fill="url(#paint28_linear_1265_4904)"
         id="path15731"
         style="fill:url(#linearGradient16839)" />
      <path
         d="M 8.76863,4.45666 C 8.3964,4.75558 7.96462,4.85036 7.80828,4.66809 7.65195,4.48582 7.8604,4.15774 8.28473,3.93902 L 10.7787,2.63397 c 0.4243,-0.21873 0.4615,-0.1604 0.0967,0.13852 z"
         fill="url(#paint29_linear_1265_4904)"
         id="path15733"
         style="fill:url(#linearGradient16841)" />
      <path
         d="m 5.56748,34.1301 c 0.18611,-0.1531 0.59556,0 0.92312,0.35 l 1.82391,1.9758 c 0.32012,0.3499 0.268,0.401 -0.11167,0.1239 L 5.92481,34.9248 C 5.54514,34.6478 5.38136,34.2905 5.56748,34.1301 Z"
         fill="url(#paint30_linear_1265_4904)"
         id="path15735"
         style="fill:url(#linearGradient16843)" />
      <path
         d="m 37.1025,7.52608 c 0.1861,-0.15311 0.5211,0.05103 0.7445,0.46661 l 1.3326,2.44241 c 0.2233,0.4156 0.1637,0.452 -0.1415,0.0948 L 37.3184,8.46659 C 37.0206,8.10934 36.9239,7.67918 37.1025,7.52608 Z"
         fill="url(#paint31_linear_1265_4904)"
         id="path15737"
         style="fill:url(#linearGradient16845)" />
      <path
         d="m 36.0677,5.96585 c 0.3871,0.27705 0.5435,0.6343 0.3648,0.79469 -0.1861,0.15311 -0.5955,0 -0.9231,-0.34995 L 33.6855,4.43479 C 33.3654,4.08483 33.4175,4.0338 33.7971,4.31084 Z"
         fill="url(#paint32_linear_1265_4904)"
         id="path15739"
         style="fill:url(#linearGradient16847)" />
      <path
         d="m 4.67413,32.4241 c 0.30523,0.3645 0.40201,0.7874 0.21589,0.9405 C 4.70391,33.5177 4.36891,33.3135 4.14557,32.898 L 2.813,30.4556 C 2.58966,30.04 2.64922,30.0035 2.95445,30.3608 Z"
         fill="url(#paint33_linear_1265_4904)"
         id="path15741"
         style="fill:url(#linearGradient16849)" />
      <path
         d="m 8.48355,47.1317 c 0.67518,0.3758 1.2095,0.8849 1.60295,1.5223 0.3935,0.6422 0.5926,1.3463 0.5926,2.1122 0,0.7659 -0.1991,1.4747 -0.5926,2.1216 -0.39345,0.647 -0.93262,1.1608 -1.60295,1.5413 C 7.80836,54.8097 7.07003,55 6.25884,55 5.45251,55 4.70932,54.8097 4.03413,54.4291 3.35895,54.0486 2.82463,53.5348 2.43118,52.8878 2.03772,52.2409 1.83857,51.5321 1.83857,50.7662 c 0,-0.7659 0.19915,-1.47 0.59261,-2.1122 0.39345,-0.6422 0.93262,-1.1465 1.60295,-1.5223 0.67519,-0.3758 1.41352,-0.5613 2.22471,-0.5613 0.81119,-0.0048 1.54952,0.1855 2.22471,0.5613 z m -4.00253,0.6327 c -0.54889,0.3092 -0.98606,0.7279 -1.30666,1.2559 -0.32544,0.528 -0.48574,1.1132 -0.48574,1.7459 0,0.6327 0.1603,1.2178 0.48574,1.7553 0.3206,0.5376 0.75777,0.961 1.30666,1.2749 0.54889,0.314 1.14635,0.471 1.79239,0.471 0.63633,0 1.22894,-0.157 1.77297,-0.471 0.54403,-0.3139 0.9812,-0.7373 1.30179,-1.2749 0.3206,-0.5375 0.48575,-1.1226 0.48575,-1.7553 0,-0.7707 -0.24287,-1.47 -0.72376,-2.0884 C 8.877,48.3781 8.59041,48.1117 8.26982,47.9024 7.66264,47.5028 6.99717,47.303 6.27341,47.303 c -0.64604,0 -1.2435,0.1522 -1.79239,0.4614 z"
         fill="url(#paint34_linear_1265_4904)"
         id="path15743"
         style="fill:url(#linearGradient16851)" />
      <path
         d="m 19.6362,54.7574 -1.7098,-2.5308 c -0.2574,0.0143 -0.4566,0.0238 -0.5926,0.0238 h -2.3267 v 2.2929 c 0,0.2141 -0.1749,0.3853 -0.3935,0.3853 h -0.0485 c -0.2186,0 -0.3935,-0.1712 -0.3935,-0.3853 V 46.637 h 3.1622 c 1.0589,0 1.875,0.2378 2.453,0.7183 0.5781,0.4805 0.8646,1.156 0.8646,2.0361 0,0.6897 -0.17,1.2606 -0.51,1.722 -0.34,0.4567 -0.8258,0.7802 -1.4524,0.961 l 1.603,2.2501 c 0.1846,0.2569 -0.0049,0.6089 -0.3255,0.6089 -0.1311,0 -0.2574,-0.0666 -0.3303,-0.176 z M 17.3338,51.513 c 0.8063,0 1.4281,-0.1807 1.8653,-0.5375 0.4371,-0.3616 0.6557,-0.8801 0.6557,-1.5604 0,-0.666 -0.2186,-1.1702 -0.6557,-1.5175 -0.4372,-0.3472 -1.059,-0.5233 -1.8653,-0.5233 h -2.3267 v 4.1387 z"
         fill="url(#paint35_linear_1265_4904)"
         id="path15745"
         style="fill:url(#linearGradient16853)" />
      <path
         d="m 30.1186,47.1793 c 0.4809,0.3663 0.7189,0.8753 0.7189,1.5223 0,0.49 -0.1409,0.9038 -0.4177,1.2321 -0.2769,0.333 -0.6704,0.5518 -1.1707,0.6517 0.6218,0.0809 1.1075,0.3045 1.4524,0.6755 0.3449,0.3711 0.5197,0.842 0.5197,1.4129 0,0.7135 -0.272,1.2654 -0.8112,1.6602 -0.5391,0.3948 -1.292,0.5946 -2.2538,0.5946 h -3.5848 v -8.3011 h 3.5508 c 0.85,0 1.5155,0.1807 1.9964,0.5518 z m -0.6363,2.7258 c 0.3303,-0.2569 0.4954,-0.6232 0.4954,-1.0989 0,-0.4566 -0.1651,-0.8134 -0.4954,-1.0656 -0.3303,-0.2521 -0.7966,-0.3758 -1.3941,-0.3663 h -2.6765 v 2.9162 h 2.6765 c 0.5975,0 1.0638,-0.1285 1.3941,-0.3854 z m 0.2963,3.8676 c 0.3983,-0.2807 0.5974,-0.6755 0.5974,-1.1798 0,-0.4995 -0.204,-0.8848 -0.6071,-1.1607 -0.4032,-0.2759 -0.9667,-0.4139 -1.6856,-0.4139 h -2.6764 v 3.1777 h 2.6764 c 0.7335,0 1.297,-0.1427 1.6953,-0.4233 z"
         fill="url(#paint36_linear_1265_4904)"
         id="path15747"
         style="fill:url(#linearGradient16855)" />
      <path
         d="m 38.4977,47.498 c -0.4129,-0.1141 -0.8015,-0.1712 -1.1609,-0.1712 -0.5829,0 -1.0492,0.1141 -1.399,0.3377 -0.3497,0.2236 -0.5246,0.5328 -0.5246,0.9181 0,0.3426 0.0972,0.6185 0.2915,0.8325 0.1943,0.2141 0.4323,0.3806 0.714,0.5043 0.2817,0.1237 0.6703,0.2569 1.1609,0.4091 0.5732,0.1665 1.0347,0.3282 1.3893,0.49 0.3497,0.1617 0.6509,0.3996 0.8986,0.704 0.2477,0.3093 0.3692,0.7184 0.3692,1.2226 0,0.4424 -0.1263,0.8325 -0.3838,1.175 -0.2526,0.3425 -0.612,0.6042 -1.0735,0.7897 -0.4614,0.1855 -0.9909,0.2807 -1.5884,0.2807 -0.5877,0 -1.1657,-0.1142 -1.7244,-0.3425 -0.4517,-0.1856 -0.8549,-0.4186 -1.2046,-0.6993 -0.1457,-0.1189 -0.1797,-0.3187 -0.0923,-0.4805 0.1166,-0.2045 0.3886,-0.2569 0.5732,-0.1142 0.2963,0.2284 0.6217,0.4139 0.9812,0.5614 0.5003,0.2045 0.9909,0.3092 1.4767,0.3092 0.646,0 1.1609,-0.1285 1.5398,-0.3853 0.3788,-0.2569 0.5683,-0.6042 0.5683,-1.0371 0,-0.3473 -0.0972,-0.6327 -0.2915,-0.8563 -0.1943,-0.2236 -0.4323,-0.3901 -0.714,-0.509 -0.2817,-0.1189 -0.6801,-0.2569 -1.1852,-0.4138 -0.5732,-0.1761 -1.0347,-0.3378 -1.3795,-0.49 -0.3498,-0.1523 -0.6412,-0.3854 -0.8841,-0.6898 -0.2429,-0.3045 -0.3643,-0.7041 -0.3643,-1.194 0,-0.4187 0.1214,-0.785 0.3643,-1.1037 0.2429,-0.314 0.5829,-0.5613 1.0201,-0.7278 0.4371,-0.1713 0.9423,-0.2569 1.5155,-0.2569 0.4615,0 0.9229,0.0666 1.3892,0.1998 0.3206,0.0951 0.6169,0.2093 0.8889,0.3425 0.1943,0.0951 0.272,0.3235 0.1749,0.5138 l -0.0097,0.0237 c -0.0972,0.1903 -0.3352,0.2617 -0.5295,0.1618 -0.2623,-0.1237 -0.5294,-0.2236 -0.8063,-0.3045 z"
         fill="url(#paint37_linear_1265_4904)"
         id="path15749"
         style="fill:url(#linearGradient16857)" />
    </g>
  </g>
</svg>
