<?xml version="1.0" encoding="UTF-8" standalone="no"?>
<!-- Created with Inkscape (http://www.inkscape.org/) -->

<svg
   width="127.99999"
   height="127.99999"
   viewBox="0 0 33.866664 33.866664"
   version="1.1"
   id="svg262"
   inkscape:export-filename="pefi.png"
   inkscape:export-xdpi="96"
   inkscape:export-ydpi="96"
   xmlns:inkscape="http://www.inkscape.org/namespaces/inkscape"
   xmlns:sodipodi="http://sodipodi.sourceforge.net/DTD/sodipodi-0.dtd"
   xmlns="http://www.w3.org/2000/svg"
   xmlns:svg="http://www.w3.org/2000/svg">
  <sodipodi:namedview
     id="namedview264"
     pagecolor="#ffffff"
     bordercolor="#000000"
     borderopacity="0.25"
     inkscape:showpageshadow="2"
     inkscape:pageopacity="0.0"
     inkscape:pagecheckerboard="0"
     inkscape:deskcolor="#d1d1d1"
     inkscape:document-units="mm"
     showgrid="false" />
  <defs
     id="defs259" />
  <g
     inkscape:label="Layer 1"
     inkscape:groupmode="layer"
     id="layer1">
    <circle
       style="display:none;fill:#ffffff;fill-opacity:1;stroke-width:0.74558;stroke-linecap:square;paint-order:stroke fill markers"
       id="path435"
       cx="16.933332"
       cy="16.933332"
       r="16.933332" />
    <path
       fill="#fffafa"
       d="m 13.616002,25.534202 c 0.09292,-0.156507 0.185835,-0.313012 0.278753,-0.474386 0.02465,-0.03943 0.03882,-0.08313 0.05361,-0.132043 0.410796,-0.577099 0.929251,-1.090654 1.418331,-1.584621 0.635807,-0.645586 1.291172,-1.271609 1.985669,-1.863398 0.410797,-0.352138 0.816763,-0.714061 1.217806,-1.08087 0.06845,-0.05854 0.132044,-0.122246 0.2005,-0.180967 0.0049,-0.0098 -0.0049,0.03943 0,0.02958 0.0049,-0.0098 0.07339,-0.07339 0.08313,-0.08313 0.767851,-0.537974 1.164008,-1.501476 1.462349,-2.362258 0.327676,-0.958598 0.469518,-2.010119 0.435258,-3.022521 C 20.678008,12.710785 19.78302,10.808261 18.384252,9.3018924 15.508461,6.2060172 10.602985,5.0028758 6.7147911,6.7831287 5.5116561,7.3308984 4.3476411,8.0547383 3.5455497,9.0915886 2.9635208,9.8447757 2.6162991,10.818044 2.3473001,11.742408 c -0.019722,0.07339 -0.024651,0.136912 -0.014785,0.2005 -0.1711709,0.405929 -0.31788,0.816768 -0.4255236,1.242267 -0.1613735,0.640694 -0.264088,1.300951 -0.3178788,1.961214 -0.1075828,1.281389 -0.00981,2.592123 0.2983461,3.839277 0.1075827,0.435259 0.2445564,0.860781 0.40593,1.281394 1.1737931,5.71246 5.5461747,10.529904 11.5912112,11.962905 0.953704,0.224961 1.907409,0.357006 2.856229,0.401062 l 0.0049,-0.09292 c 0.332545,0.03451 0.75318,0.264087 0.983048,0.06358 0.22496,0.03882 0.420595,-0.06845 0.645586,-0.03882 0.07339,0.02465 0.166303,0.0049 0.244556,0 0.185836,0.02465 0.308143,-0.03451 0.493978,-0.02958 0.180967,0.0049 0.361936,-0.0049 0.542902,0.01479 0.224963,0.02465 0.665152,-0.01479 0.78253,-0.224961 0.107581,-0.195633 -0.156507,-0.479314 -0.317879,-0.630916 -0.361936,-0.34727 -0.645587,-0.723839 -0.880344,-1.178685 -0.107584,-0.205429 -0.176101,-0.386398 -0.259221,-0.616239 -0.07825,-0.234758 -0.176039,-0.464649 -0.220094,-0.709167 -0.05361,-0.31788 -0.288551,-0.518441 -0.621138,-0.440189 -0.425522,0.09784 -0.748294,0.10272 -1.178678,0.185835 h -0.122258 c -0.361936,-0.156505 -0.72384,-0.112511 -1.100433,-0.132043 -0.06846,-0.01479 -0.136912,-0.03451 -0.205429,-0.05361 -0.313012,-0.224963 -0.655371,-0.40593 -1.012402,-0.562436 -0.09778,-0.09778 -0.185836,-0.200499 -0.254291,-0.308143 -0.185835,-0.278752 -0.303214,-0.493979 -0.391264,-0.811877 -0.05361,-0.2005 -0.273886,-0.317879 -0.474386,-0.308143 -0.0098,-0.200501 -0.0049,-0.391265 0.02465,-0.557567 0.03451,-0.244557 0.09784,-0.459721 0.190766,-0.665151 z"
       id="path2"
       style="stroke-width:0.0489081" />
    <path
       fill="#ec3e3f"
       d="m 33.301485,16.853018 c -0.04867,-1.687322 -0.22989,-3.41867 -0.616237,-5.066873 C 32.479819,10.92537 32.201065,10.045018 31.755992,9.2722742 31.540766,8.9006045 31.296271,8.5533283 31.02726,8.2207528 30.753375,7.8832803 30.445231,7.5458186 30.053992,7.3453005 c -0.0098,-0.0049 -0.01971,-0.00981 -0.03451,-0.014784 C 29.980673,7.2669327 29.941239,7.2082703 29.902106,7.1495494 29.39833,6.3914761 28.82613,5.6823083 28.185435,5.0367222 27.544742,4.3960279 26.835573,3.7700054 26.053044,3.3102719 25.637318,3.0657166 25.216718,2.8212231 24.781436,2.6059969 24.615132,2.5228717 24.443962,2.4494905 24.272791,2.3810352 23.954912,2.2098643 23.622314,2.0680234 23.27996,1.9653089 v 0.0049 c -0.117379,-0.024649 -0.239626,-0.0049 -0.337474,0.063585 C 22.619679,1.8870914 22.292008,1.7550469 21.969217,1.6376679 20.521541,1.1241563 18.976045,0.88937382 17.44033,0.85513912 c -1.423224,-0.034507 -2.8709,0.088053 -4.264782,0.40106178 -0.709167,0.1613736 -1.423222,0.4059288 -2.068809,0.7531805 -0.322809,0.1711709 -0.616244,0.3716708 -0.890129,0.6113578 -0.112511,0.097845 -0.3032144,0.058539 -0.3912654,0.1711709 -0.03882,0.019722 -0.07339,0.039434 -0.112512,0.058539 C 8.3140661,3.584073 7.0669067,4.6160307 5.8784426,5.6577739 5.3746664,6.1028291 4.812244,6.5870234 4.4601059,7.1788123 4.3965221,7.2324228 4.3329296,7.286395 4.2742705,7.3401859 4.22066,7.437967 4.1666889,7.5358186 4.1128981,7.6385331 4.0248443,7.8097029 3.9563917,7.9760066 3.7998863,8.0933857 3.7752355,8.1371299 3.7462758,8.1814384 3.7216353,8.2254291 3.8243444,8.3770672 4.0541787,8.4455237 4.2351458,8.2890134 4.7339934,7.8439578 5.2426561,7.4233398 5.8099895,7.0712018 6.382221,6.7141955 6.9935607,6.4158366 7.6244758,6.1859703 8.8960854,5.7213205 10.245947,5.5208205 11.59581,5.5990743 c 2.62147,0.146708 5.086437,1.4965829 6.812892,3.4724675 0.489049,0.5575669 0.978155,1.0857622 1.340077,1.7362402 0.180969,0.31788 0.332607,0.655366 0.469518,0.992833 0.10271,0.25429 0.17117,0.523307 0.283682,0.772744 -0.06358,0 -0.127176,-0.0049 -0.185835,-0.0049 0.03451,0.05854 0.06358,0.117379 0.07825,0.151638 0.112512,0.239626 0.161374,0.508643 0.215226,0.767851 0.06358,0.332545 0.122247,0.655371 0.127177,0.997724 0,0.07825 0,0.156506 -0.0049,0.239627 0.107581,0.767857 0.05361,1.565057 -0.136912,2.303567 -0.22989,0.899915 -0.616244,1.790038 -1.134667,2.582346 0,0 0.0049,-0.0049 0.0098,-0.0049 0.352138,-0.322807 0.709169,-0.640699 1.066198,-0.963489 0.361936,-0.322809 0.748296,-0.606491 1.115105,-0.919471 0.03451,-0.02958 0.08312,0.01479 0.05361,0.04868 -0.357006,0.357005 -0.684713,0.738516 -1.051522,1.085761 -0.361935,0.34727 -0.728731,0.699384 -1.100432,1.041744 -0.220094,0.210296 -0.445055,0.415725 -0.665151,0.626022 -0.493978,0.464649 -0.978159,0.92925 -1.452569,1.413439 -0.596694,0.611357 -1.217806,1.198248 -1.799816,1.824271 -0.542902,0.582028 -1.15423,1.188463 -1.496584,1.922088 -0.273884,0.591764 -0.293417,1.349862 0.239626,1.804708 0.474385,0.401062 1.173794,0.513512 1.770468,0.596693 1.310736,0.185836 2.699725,0.04375 3.976228,-0.283682 1.344968,-0.34234 2.567666,-1.046634 3.580067,-1.98567 0.04375,-0.04374 0.112512,0.01972 0.07339,0.06846 -1.056414,1.222698 -2.4992,2.15684 -4.02513,2.680161 -0.244556,0.08313 -0.49398,0.156505 -0.748294,0.215226 0.04374,0.136912 0.04867,0.293417 0.07339,0.43039 0.03451,0.180968 0.07339,0.357006 0.122247,0.533106 0.09784,0.342341 0.239626,0.665143 0.391264,0.98794 0.156507,0.332605 0.308145,0.665149 0.533106,0.953704 0.11738,0.151638 0.244555,0.298348 0.376599,0.440188 0.05854,0.06358 0.127177,0.127177 0.190765,0.2005 2.308459,-0.498845 4.4653,-1.516151 6.304249,-2.958938 0.313012,-0.107582 0.621131,-0.25922 0.895016,-0.415725 0.577099,-0.327677 1.124882,-0.738511 1.565057,-1.237376 0.689605,-0.767859 1.28628,-1.736234 1.462349,-2.777978 0.626023,-0.899907 1.159123,-1.863397 1.565058,-2.900248 0.635807,-1.66776 0.865674,-3.408886 0.816763,-5.184252 z"
       id="path4"
       style="stroke-width:0.0489081" />
    <path
       d="M 33.761225,15.058095 C 33.521598,12.945268 32.836862,10.83244 31.78534,8.9494779 31.257164,8.0104439 30.640888,7.1203206 29.95129,6.3084436 29.261685,5.5014659 28.488935,4.7482789 27.642824,4.0782364 26.806498,3.4179795 25.901704,2.8310834 24.952884,2.3468954 24.023635,1.8675811 23.025911,1.4714431 21.984167,1.1682095 20.961988,0.87473062 19.905573,0.67915972 18.844268,0.58618064 L 18.25737,0.54674644 c -0.07339,-0.004905 -0.13691,-0.00981 -0.205428,-0.00981 l -0.694498,-0.0147835 -0.792307,0.0246507 -0.704276,0.058538 h -0.03451 c -0.02465,0 -0.04868,0.004905 -0.07339,0.004905 l -0.09292,0.00981 C 14.603637,0.73256872 13.557009,0.95266322 12.539721,1.2705358 11.532212,1.5884147 10.549159,2.0041537 9.6101226,2.5176898 8.6710894,3.0263332 7.785859,3.6279012 6.9690893,4.2979427 6.152327,4.9777633 5.3942536,5.735842 4.7291039,6.5574971 l -0.063584,0.07825 -0.043744,0.058539 c -0.0049,0.00981 -0.014784,0.014785 -0.019712,0.029578 L 4.1863379,7.2716356 3.7314853,7.9270061 3.3646828,8.5187705 C 3.3252486,8.5773095 3.2912958,8.6361494 3.2571001,8.6997376 L 2.9685502,9.2181784 C 2.4697042,10.157213 2.0588579,11.150045 1.750739,12.167333 c -0.3130117,1.041742 -0.5233089,2.093263 -0.6260235,3.130115 -0.1075826,1.061306 -0.1125118,2.142168 -0.00981,3.203475 0.1027199,1.066199 0.3081445,2.122612 0.6162389,3.149678 0.3081435,1.02218 0.7189471,2.019904 1.222704,2.973609 0.5086434,0.953706 1.1053186,1.853614 1.7802529,2.680161 0.6798207,0.836327 1.4427857,1.604185 2.27422,2.288897 1.6628728,1.374317 3.6240877,2.425839 5.6733327,3.04697 1.550387,0.469517 3.183913,0.704276 4.797881,0.704276 0.54777,0 1.090649,-0.02958 1.62864,-0.08313 1.075977,-0.112512 2.147062,-0.332606 3.183913,-0.65048 1.027071,-0.317878 2.039465,-0.743402 2.998064,-1.26183 1.902524,-1.03685 3.619195,-2.469852 4.964165,-4.147402 0.665149,-0.826541 1.261825,-1.741126 1.770474,-2.724174 0.49398,-0.958598 0.899909,-1.970998 1.203135,-3.012736 0.596693,-2.044359 0.777636,-4.264781 0.533106,-6.406956 z m -14.990319,5.159804 c -0.06845,0.05854 -0.132042,0.122247 -0.200499,0.180967 -0.401061,0.366802 -0.806984,0.728731 -1.217805,1.080869 -0.689606,0.591765 -1.349862,1.21292 -1.98567,1.863399 -0.528239,0.537972 -1.090648,1.09554 -1.516147,1.726449 -0.04867,0.07825 -0.09784,0.151638 -0.146709,0.229891 -0.0098,0.01479 -0.01479,0.02465 -0.02465,0.03943 -0.04375,0.07339 -0.08312,0.14671 -0.117379,0.220094 -0.02465,0.04867 -0.04374,0.09784 -0.06845,0.146709 -0.09784,0.234759 -0.166303,0.484181 -0.190764,0.73851 -0.0049,0.03943 -0.0098,0.07825 -0.0098,0.11738 -0.01971,0.347269 0.04375,0.694496 0.210298,1.012395 0.254291,0.484181 0.709168,0.797204 1.21292,0.99773 0.05361,0.02465 0.112512,0.04375 0.17117,0.06358 0.151638,0.05361 0.308144,0.09784 0.45972,0.132043 0.220094,0.04867 0.445055,0.08805 0.670041,0.122247 0.02465,0.0049 0.04375,0.0049 0.06846,0.0098 0.166303,0.02465 0.332605,0.03882 0.498846,0.04867 l 0.249423,0.01479 c 0.528239,0.01971 1.061307,-0.0098 1.584621,-0.08805 0,0.151638 0.04868,0.322808 0.08313,0.45972 0.04375,0.185835 0.102709,0.371732 0.166303,0.552638 0.132045,0.37167 0.28855,0.748295 0.503776,1.075976 0.205429,0.32281 0.479315,0.591765 0.738516,0.870567 0.136974,0.146709 0.28855,0.28855 0.445056,0.415727 0.0098,0.0098 0.02465,0.01972 0.03451,0.02958 -0.449984,0.08805 -0.904794,0.156507 -1.35964,0.20543 -2.034575,0.215226 -4.157188,0.02465 -6.133072,-0.557567 C 11.830924,31.613842 10.794074,31.17856 9.8110206,30.64546 5.7565016,28.341924 2.9638536,24.311901 2.1911094,19.768342 2.0737305,19.083629 1.9172241,18.398916 1.8389714,17.709318 1.5112951,14.960683 2.1323885,11.894149 3.4040225,9.438962 3.4434571,9.365575 3.4871477,9.2237356 3.5507315,9.1650776 4.1571604,8.6173068 4.7734355,8.0890997 5.4630344,7.6391464 c 0.855896,-0.557567 1.7851455,-0.9977241 2.763306,-1.2911667 0.973269,-0.28855 1.9758866,-0.4205935 2.9882816,-0.3619343 1.041742,0.063584 2.0737,0.3228078 3.046975,0.6993832 1.76069,0.6798207 3.364868,1.7998155 4.504427,3.3159684 1.022179,1.364533 1.711784,3.00295 1.858505,4.709843 0.156507,1.814487 -0.317879,3.565398 -1.344969,5.042419 l -0.484182,0.440187 m 8.671398,8.720304 c -0.787421,0.655365 -1.648203,1.237375 -2.557895,1.736234 -0.909687,0.493979 -1.868285,0.899908 -2.846447,1.208033 -0.474383,0.146709 -0.958597,0.273885 -1.452569,0.3766 -0.03882,-0.04375 -0.08313,-0.08313 -0.117379,-0.122248 -0.132045,-0.14184 -0.254291,-0.28855 -0.376601,-0.440188 -0.224961,-0.288549 -0.376599,-0.626022 -0.533104,-0.953704 -0.151638,-0.322808 -0.29348,-0.645587 -0.391265,-0.987946 -0.04868,-0.176099 -0.09292,-0.352138 -0.122247,-0.533106 -0.02465,-0.136911 -0.02958,-0.293417 -0.07339,-0.43039 0.254292,-0.05854 0.503776,-0.132044 0.748289,-0.215226 1.525931,-0.523308 2.968723,-1.457463 4.025138,-2.680167 0.04375,-0.04867 -0.02465,-0.112512 -0.07339,-0.06846 -1.012395,0.939034 -2.235094,1.64331 -3.58007,1.985669 -1.276494,0.322809 -2.670375,0.469517 -3.976219,0.283683 -0.591764,-0.08313 -1.296064,-0.195633 -1.770474,-0.596695 -0.533106,-0.454853 -0.513512,-1.212913 -0.239627,-1.804702 0.337474,-0.728731 0.953712,-1.335191 1.49659,-1.922087 0.582029,-0.626024 1.203135,-1.212919 1.799817,-1.824271 0.474383,-0.484182 0.958597,-0.948814 1.452569,-1.413439 0.220094,-0.210297 0.445056,-0.415725 0.665151,-0.626029 l 1.100425,-1.041737 c 0.366803,-0.352138 0.694498,-0.728732 1.051528,-1.085761 0.03451,-0.03451 -0.01971,-0.07825 -0.05361,-0.04868 -0.366803,0.313012 -0.75318,0.596694 -1.115103,0.919472 -0.215165,0.190764 -0.43039,0.386396 -0.645586,0.582028 0.733624,-1.139559 1.124888,-2.469858 1.159122,-3.849062 0.04375,-1.785144 -0.552637,-3.580068 -1.516146,-5.066872 C 18.462981,8.656671 16.951721,7.3850679 15.191031,6.5487366 13.210254,5.6097014 10.994724,5.1890952 8.8378774,5.6732832 7.6542998,5.9373713 6.5245258,6.4264649 5.507238,7.0818353 5.0768472,7.3557208 4.6513483,7.6638642 4.2600839,8.0110849 4.524172,7.6149533 4.8029864,7.2383407 5.0964099,6.8715328 5.7468888,6.0694403 6.4756202,5.3260379 7.2679282,4.6657745 8.0553487,4.0104104 8.9210229,3.4235133 9.8307096,2.9246544 10.745289,2.4306756 11.703887,2.0247402 12.682047,1.7215131 13.669993,1.4133696 14.68728,1.2030724 15.714345,1.0954908 c 2.039468,-0.21516438 4.162081,-0.019722 6.137965,0.5624341 1.975886,0.5868971 3.858841,1.5748431 5.453246,2.8660152 0.802092,0.6504789 1.540602,1.3792041 2.200859,2.1715173 0.655371,0.7874151 1.242268,1.6530883 1.736241,2.5627819 0.493978,0.9145787 0.899907,1.8731767 1.203134,2.8513377 0.308144,0.983053 0.518441,2.005226 0.626024,3.027406 0.215226,2.039468 0.01971,4.157187 -0.562436,6.133072 -0.582029,1.975886 -1.574842,3.858841 -2.866013,5.448354 -0.650473,0.7972 -1.384097,1.535715 -2.176405,2.195972 z"
       id="path6"
       style="stroke-width:0.0489081" />
    <circle
       cx="13.860528"
       cy="15.009187"
       r="3.9664426"
       id="circle8"
       style="stroke-width:0.0489081" />
    <circle
       cx="12.236792"
       cy="14.583692"
       r="1.3694253"
       fill="#ffffff"
       id="circle10"
       style="stroke-width:0.0489081" />
    <circle
       cx="3.9664426"
       cy="15.669448"
       r="3.9664426"
       id="circle12"
       style="stroke-width:0.0489081" />
    <path
       fill="#ec3e3f"
       d="m 9.2778532,18.481658 c 0.1418404,0.498847 0.1663027,1.061306 0.1271767,1.579729 C 8.4659955,20.340139 7.5318466,20.345069 6.558578,20.178766 6.0059401,20.085849 5.4728231,19.909749 4.9446161,19.719045 4.6755989,19.6212 4.4115109,19.523413 4.1523028,19.410902 4.0202582,19.352363 3.8735491,19.27399 3.7219121,19.21527 3.8832846,19.19062 4.0397909,19.14188 4.1962963,19.107688 4.4163908,19.054078 4.6364844,19.000104 4.8516679,18.931587 5.3163167,18.794676 5.771133,18.618576 6.2161999,18.422944 6.6367943,18.237109 7.0427414,18.021882 7.4388986,17.78225 7.8008339,17.567024 8.182301,17.342063 8.4953127,17.053518 c 0.029578,0.09778 0.1075817,0.161373 0.1663027,0.244557 0.092917,0.122247 0.1809671,0.244555 0.264088,0.371669 0.1565053,0.254353 0.2738845,0.533107 0.3521385,0.811871 z"
       id="path14"
       style="stroke-width:0.0489081" />
    <circle
       cx="2.2791045"
       cy="15.151013"
       r="1.3694253"
       fill="#ffffff"
       id="circle16"
       style="stroke-width:0.0489081" />
    <path
       d="M 9.5810862,18.413191 C 9.4441129,18.119711 9.2778716,17.845826 9.0919751,17.576864 9.00885,17.454617 8.915937,17.332308 8.8132226,17.224726 8.739836,17.141602 8.6615845,17.038891 8.5540017,17.004632 l 0.014784,-0.01479 c 0.014784,-0.01479 -0.0049,-0.03943 -0.024651,-0.02957 -0.1125117,0.05361 -0.2200945,0.117378 -0.3276762,0.180966 -0.2836827,0.166304 -0.5575671,0.347271 -0.8412124,0.503776 -0.4205934,0.224962 -0.8510033,0.430392 -1.2960649,0.60643 -0.4157262,0.17117 -0.8461105,0.31788 -1.2765012,0.449985 -0.2152263,0.06845 -0.435259,0.127176 -0.6504789,0.180967 -0.2249617,0.05361 -0.4743852,0.08313 -0.6895988,0.161374 -0.034507,0.01479 -0.058539,0.03882 -0.068459,0.07339 v 0.0098 c -0.00981,0.04868 0.014784,0.09778 0.063584,0.11738 0.1760999,0.180968 0.4793144,0.293479 0.6944915,0.410858 0.2494236,0.132044 0.4939789,0.269017 0.7482952,0.391264 0.019712,0.0098 0.043744,0.01971 0.068458,0.02958 0.5037762,0.239627 1.0417368,0.445056 1.5797285,0.591765 1.0026168,0.273885 2.17641,0.317879 3.1496791,-0.09292 0.127176,-0.0098 0.244555,-0.102709 0.259219,-0.28855 0.02958,-0.332605 -0.0049,-0.645586 -0.06845,-0.973269 -0.05361,-0.327676 -0.166304,-0.606428 -0.3081444,-0.899907 z M 6.563458,20.183659 C 6.01082,20.090742 5.477703,19.914641 4.9494896,19.723938 4.6804725,19.626157 4.4163844,19.528306 4.1571828,19.415795 4.0251382,19.357256 3.8784301,19.278883 3.726792,19.220162 c 0.1613726,-0.02465 0.317879,-0.07339 0.4743843,-0.107582 0.2200945,-0.05361 0.440188,-0.107582 0.6553652,-0.1761 0.4646499,-0.136973 0.9194715,-0.313011 1.364533,-0.508643 0.4205935,-0.185836 0.8265469,-0.401062 1.2227041,-0.640694 0.3619354,-0.215165 0.7434024,-0.440188 1.0564141,-0.728732 0.029578,0.09778 0.1075817,0.161373 0.1663027,0.244556 0.092917,0.122247 0.1809671,0.244555 0.264088,0.37167 0.1565054,0.244555 0.2738838,0.523308 0.3521379,0.802092 0.1418414,0.498846 0.1663027,1.061306 0.1271767,1.579735 -0.9439218,0.288549 -1.8780695,0.288549 -2.8464453,0.127175 z"
       id="path18"
       style="stroke-width:0.0489081" />
    <path
       d="m 32.924899,19.645673 c 0.630908,-2.954046 0.386397,-5.908093 -0.449985,-8.788777 -0.04867,-0.166303 -0.112511,-0.352139 -0.269017,-0.420595 -0.366803,-0.161372 -0.5771,0.420595 -0.572232,0.826548 0.02957,3.941992 -1.863392,8.363279 -4.269668,11.366231 -2.274226,2.84645 -5.507049,5.448359 -9.277858,6.030362 -0.410858,0.06358 -0.821655,0.11738 -1.242261,0.09778 -0.410797,-0.01479 -0.816769,-0.166303 -1.203142,-0.303215 -0.415725,-0.146708 -0.841218,-0.283682 -1.242261,-0.464649 -0.381467,-0.176099 -0.660262,-0.479314 -0.743402,-0.895016 -0.0098,-0.04374 -0.07339,-0.02957 -0.07339,0.01479 -0.0049,0.166301 0.01971,0.327676 0.07339,0.484181 0.0098,0.02465 0.01479,0.04868 0.02465,0.07339 -0.0049,0.01479 -0.0098,0.02957 -0.01479,0.04867 -0.03882,0.743402 0.484182,1.252046 1.115103,1.64331 H 14.603944 C 10.412523,29.334029 6.2602339,27.431705 3.5115989,24.26735 3.3795543,24.115712 3.0714108,23.993465 3.0322845,24.189099 c -0.014784,0.07825 0.038816,0.151639 0.088053,0.215165 1.0026159,1.247159 1.8927401,2.73885 3.0176278,3.858846 0.4939789,0.616244 1.0613058,1.178686 1.731342,1.599297 0.6944969,0.43526 1.4770262,0.733619 2.2448777,1.017282 0.05854,0.04375 0.11738,0.08313 0.1761,0.122247 0.244556,0.17117 0.503776,0.308144 0.772744,0.440188 0.562436,0.273885 1.149338,0.503775 1.741126,0.704275 1.178687,0.396133 2.411169,0.601562 3.648538,0.694492 5.648884,0.435259 10.549468,-2.034575 13.704038,-6.754203 1.266716,-1.897632 2.220428,-4.010459 2.719287,-6.235774 0.01972,-0.06845 0.03451,-0.136912 0.04868,-0.205429 z M 4.2305426,19.508761 c 0.2004999,0.146709 0.3814682,0.11738 0.5673644,0.283683 0.2542907,0.09292 0.4939789,0.210295 0.7336242,0.332605 0.5575671,0.210297 1.1493367,0.337474 1.7362339,0.3766 0.8265478,0.05854 1.6384183,-0.09778 2.4600735,-0.185836 0.03451,-0.200499 0.05361,-0.401062 0.09778,-0.596693 -0.02958,-0.07825 -0.06846,-0.156506 -0.112512,-0.229891 -0.0098,-0.01971 -0.02957,-0.02465 -0.04868,-0.01971 -0.0098,-0.02465 0.0049,-0.332606 -0.0049,-0.357006 -0.04867,-0.112511 -0.03451,-0.117379 -0.127176,-0.08805 -0.5966937,0.185836 -1.1884644,0.410858 -1.8095951,0.513511 -0.8607814,0.146709 -1.7362401,0.07339 -2.5921287,-0.06358 -0.4450563,-0.07339 -0.9390352,-0.166302 -1.3645331,-0.361934 0.034507,0.07339 -0.1516382,0.06358 -0.1075827,0.127176 0.1516381,0.08312 0.5135116,0.269017 0.6455924,0.386396 0.014785,0.0098 0.029578,0.01971 0.038816,0.02958 -0.063584,-0.107584 -0.073387,-0.112512 0,-0.01479 0.068459,0.08805 -0.1271763,-0.14184 -0.1125107,-0.132045 z"
       opacity="0.3"
       id="path20"
       style="stroke-width:0.0489081" />
    <g
       opacity="0.3"
       id="g24"
       transform="matrix(0.04890804,0,0,0.04890804,-2.6312544,-2.6221625)">
      <path
         d="m 558,388.7 h -10.1 c -0.9,0 -1.8,-0.1 -2.7,-0.4 -3.4,-1.2 -4.2,-3.3 -2.2,-6.3 5.5,-8.3 11,-16.6 16.5,-25 8.4,-12.7 16.8,-25.3 25.2,-37.9 0.5,-0.8 1,-1.5 1.6,-2.2 2.2,-2.5 4.8,-2.6 7.1,-0.2 1.8,1.9 3,4.2 4.5,6.4 2.3,3.4 4.5,7 6.8,10.4 2.8,4 2.7,8.1 0.1,12 -8.4,12.6 -16.9,25.2 -25.5,37.7 -2.6,3.8 -6.6,5.2 -10.9,5.5 -3.5,0.2 -7,0 -10.4,0 z m 51.7,0 h -16.2 c -0.5,0 -1.1,0.1 -1.6,0 -4.4,-1 -6.9,-3.4 -4.1,-8 5.4,-8.7 11,-17.4 16.5,-26 2.7,-4.1 6.8,-4.1 9.4,0 5.6,8.8 11,17.7 16.5,26.6 2.2,3.6 0.9,6.4 -3.4,7 -6,0.9 -12.1,0.1 -17.1,0.4 z"
         id="path22" />
    </g>
  </g>
</svg>
