<?xml version="1.0" encoding="UTF-8" standalone="no"?>
<svg
   width="128"
   height="128"
   viewBox="0 0 128 128"
   fill="none"
   version="1.1"
   id="svg292"
   sodipodi:docname="PNG_Token.svg"
   inkscape:version="1.2.2 (732a01da63, 2022-12-09)"
   inkscape:export-filename="..\..\..\..\..\..\Users\llcry\Downloads\Networks\All Crypto\png.png"
   inkscape:export-xdpi="96"
   inkscape:export-ydpi="96"
   xmlns:inkscape="http://www.inkscape.org/namespaces/inkscape"
   xmlns:sodipodi="http://sodipodi.sourceforge.net/DTD/sodipodi-0.dtd"
   xmlns="http://www.w3.org/2000/svg"
   xmlns:svg="http://www.w3.org/2000/svg">
  <defs
     id="defs296" />
  <sodipodi:namedview
     id="namedview294"
     pagecolor="#ffffff"
     bordercolor="#000000"
     borderopacity="0.25"
     inkscape:showpageshadow="2"
     inkscape:pageopacity="0.0"
     inkscape:pagecheckerboard="0"
     inkscape:deskcolor="#d1d1d1"
     showgrid="false"
     inkscape:zoom="1.1225627"
     inkscape:cx="259.6737"
     inkscape:cy="572.79653"
     inkscape:window-width="1920"
     inkscape:window-height="1009"
     inkscape:window-x="-8"
     inkscape:window-y="-8"
     inkscape:window-maximized="1"
     inkscape:current-layer="svg292" />
  <path
     d="M 64,128 C 99.346184,128 128,99.346184 128,64 128,28.653816 99.346184,0 64,0 28.653816,0 0,28.653816 0,64 c 0,35.346184 28.653816,64 64,64 z"
     fill="#ffc800"
     id="path272"
     style="stroke-width:0.178273" />
  <path
     d="M 64,123.42855 C 96.821482,123.42855 123.42855,96.821482 123.42855,64 123.42855,31.178518 96.821482,4.5714184 64,4.5714184 31.178518,4.5714184 4.5714719,31.178518 4.5714719,64 4.5714719,96.821482 31.178518,123.42855 64,123.42855 Z"
     fill="#000000"
     id="path274"
     style="stroke-width:0.178273" />
  <path
     d="m 92.452189,32.246908 h -9.485727 l 2.102908,6.486997 0.708457,2.185092 -1.860457,1.348457 -16,11.611454 14.144,10.294908 16.795455,-12.182819 z"
     fill="#ffc800"
     id="path276"
     style="stroke-width:0.178273" />
  <path
     d="m 43.401092,42.230908 -1.856,-1.371454 0.713092,-2.18527 2.102908,-6.459365 h -9.453816 l -6.427454,19.725727 16.77727,12.210273 14.171454,-10.276546 z"
     fill="#e1aa00"
     id="path278"
     style="stroke-width:0.178273" />
  <path
     d="M 62.038641,42.683365 47.684457,32.237638 45.261727,39.675543 62.038641,51.885638 V 42.688 Z"
     fill="#e1aa00"
     id="path280"
     style="stroke-width:0.178273" />
  <path
     d="M 79.643097,32.251365 65.270552,42.678908 v 9.197638 L 82.056914,39.698184 Z"
     fill="#ffc800"
     id="path282"
     style="stroke-width:0.178273" />
  <path
     d="m 47.112914,66.729003 -1.828546,1.321181 -0.03655,0.105003 16.777092,12.210451 V 55.894819 Z"
     fill="#e1aa00"
     id="path284"
     style="stroke-width:0.178273" />
  <path
     d="M 82.016089,68.050184 80.187543,66.719911 65.284635,55.876457 V 80.338184 L 82.048,68.173549 Z"
     fill="#ffc800"
     id="path286"
     style="stroke-width:0.178273" />
  <path
     d="m 62.034184,84.269638 -1.856,-1.371454 -11.798819,-8.585092 -3.117638,9.572546 16.776914,12.210451 V 84.246641 Z"
     fill="#e1aa00"
     id="path288"
     style="stroke-width:0.178273" />
  <path
     d="M 78.948368,74.340724 67.11746,82.921359 65.289092,84.260546 V 96.109994 L 82.075276,83.936089 Z"
     fill="#ffc800"
     id="path290"
     style="stroke-width:0.178273" />
</svg>
