<?xml version="1.0" encoding="UTF-8" standalone="no"?>
<svg
   viewBox="0 0 128 128"
   width="128"
   height="128"
   version="1.1"
   id="svg253"
   sodipodi:docname="COINLOGO-NEAR_Circle.svg"
   inkscape:version="1.2.2 (732a01da63, 2022-12-09)"
   inkscape:export-filename="..\..\..\..\..\..\..\Users\llcry\Downloads\Networks\Tokens_128x128\pnr.png"
   inkscape:export-xdpi="96"
   inkscape:export-ydpi="96"
   xmlns:inkscape="http://www.inkscape.org/namespaces/inkscape"
   xmlns:sodipodi="http://sodipodi.sourceforge.net/DTD/sodipodi-0.dtd"
   xmlns="http://www.w3.org/2000/svg"
   xmlns:svg="http://www.w3.org/2000/svg">
  <sodipodi:namedview
     id="namedview255"
     pagecolor="#ffffff"
     bordercolor="#000000"
     borderopacity="0.25"
     inkscape:showpageshadow="2"
     inkscape:pageopacity="0.0"
     inkscape:pagecheckerboard="0"
     inkscape:deskcolor="#d1d1d1"
     showgrid="false"
     inkscape:zoom="0.7462963"
     inkscape:cx="429.45409"
     inkscape:cy="542.6799"
     inkscape:window-width="1920"
     inkscape:window-height="1009"
     inkscape:window-x="-8"
     inkscape:window-y="-8"
     inkscape:window-maximized="1"
     inkscape:current-layer="svg253"
     inkscape:lockguides="true" />
  <defs
     id="defs215" />
  <polygon
     class="cls-1"
     points="527.99,423.94 421.84,346.71 403.93,401.69 527.99,491.95 528.05,491.91 528.05,423.9 "
     id="polygon54"
     style="fill:#ffc800"
     transform="matrix(0.18205457,0,0,0.18205457,-34.31038,-34.310377)" />
  <polygon
     class="cls-1"
     points="676.01,401.87 658.16,346.8 551.89,423.9 551.89,491.91 "
     id="polygon56"
     style="fill:#ffc800"
     transform="matrix(0.18205457,0,0,0.18205457,-34.31038,-34.310377)" />
  <polygon
     class="cls-1"
     points="417.63,601.71 404.19,611.46 403.93,612.26 527.99,702.52 528.05,702.48 528.05,521.61 "
     id="polygon58"
     style="fill:#ffc800"
     transform="matrix(0.18205457,0,0,0.18205457,-34.31038,-34.310377)" />
  <polygon
     class="cls-1"
     points="675.71,611.51 662.21,601.69 552.02,521.51 551.89,521.61 551.89,702.48 676.01,612.44 "
     id="polygon60"
     style="fill:#ffc800"
     transform="matrix(0.18205457,0,0,0.18205457,-34.31038,-34.310377)" />
  <path
     class="cls-1"
     d="M 111.83028,43.791032 A 51.623394,51.623394 0 0 0 103.0771,29.825626 c -0.29675,-0.340441 -0.60077,-0.675423 -0.91027,-1.008583 -0.47698,-0.515213 -0.96307,-1.026788 -1.45644,-1.525617 a 51.885553,51.885553 0 0 0 -73.418965,0 c -0.493368,0.493368 -0.972172,0.997658 -1.443692,1.505592 Q 25.40352,29.279463 24.972051,29.77101 A 51.901938,51.901938 0 1 0 111.83211,43.789211 Z M 81.530943,103.63966 88.75851,98.39648 84.571255,85.481529 68.648761,97.032891 66.160076,98.837052 v 8.443698 c -0.717294,0.0346 -1.438232,0.0546 -2.164629,0.0546 -0.726397,0 -1.456435,-0.02 -2.184655,-0.0546 v -8.441877 l -0.01638,0.01093 -2.50143,-1.820545 -15.866055,-11.547721 -4.19818,12.889462 7.271261,5.290501 C 31.282062,96.92912 20.670101,81.705716 20.670101,63.999089 a 44.057207,44.057207 0 0 1 0.342262,-5.461637 l 18.21638,13.255393 19.070218,-13.836147 -21.57711,-15.694924 -2.501428,-1.820545 0.957606,-2.942004 2.610663,-8.010399 a 43.328988,43.328988 0 0 1 52.409869,-0.0091 l 2.612485,8.061377 0.953965,2.942002 -2.505071,1.820546 -21.5498,15.627563 19.04837,13.856174 18.24368,-13.233547 a 43.705842,43.705842 0 0 1 0.335,5.445252 c 0,17.693884 -10.606509,32.908185 -25.806247,39.640567 z"
     id="path62"
     style="fill:#ffc800;stroke-width:0.182054" />
  <path
     class="cls-2"
     d="M 63.999087,14.298193 A 49.700898,49.700898 0 1 1 28.847992,28.862558 49.391405,49.391405 0 0 1 63.999087,14.298193 m 0,-2.745384 c -28.970343,0 -52.455382,23.485039 -52.455382,52.455384 0,28.970342 23.485039,52.446277 52.455382,52.446277 28.970345,0 52.455383,-23.485037 52.455383,-52.455381 0,-28.970344 -23.485038,-52.455382 -52.455383,-52.455382 z"
     id="path64"
     style="fill:#e1aa00;stroke-width:0.182054" />
  <path
     class="cls-2"
     d="m 88.181396,96.610524 -6.650453,7.029136 c 0,0 5.569049,-2.37946 9.102728,-5.461645 L 88.75851,98.39648 Z"
     id="path66"
     style="fill:#e1aa00;stroke-width:0.182054" />
  <path
     class="cls-2"
     d="m 39.81678,96.610524 6.650453,7.029136 c 0,0 -5.569049,-2.37946 -9.102728,-5.461645 l 1.875161,0.218465 z"
     id="path68"
     style="fill:#e1aa00;stroke-width:0.182054" />
  <path
     class="cls-2"
     d="M 39.219641,71.787384 21.891687,50.368664 c 0,0 -0.546164,2.066319 -0.888427,8.163327 z"
     id="path70"
     style="fill:#e1aa00;stroke-width:0.182054" />
  <path
     class="cls-2"
     d="m 88.778535,71.787384 17.327955,-21.41872 c 0,0 0.54617,2.066319 0.88843,8.163327 z"
     id="path72"
     style="fill:#e1aa00;stroke-width:0.182054" />
  <polygon
     class="cls-2"
     points="528.05,702.48 403.93,612.26 528.05,665.95 "
     id="polygon74"
     style="fill:#e1aa00"
     transform="matrix(0.18205457,0,0,0.18205457,-34.31038,-34.310377)" />
  <polygon
     class="cls-2"
     points="551.95,702.48 676.07,612.26 551.95,665.95 "
     id="polygon76"
     style="fill:#e1aa00"
     transform="matrix(0.18205457,0,0,0.18205457,-34.31038,-34.310377)" />
  <polygon
     class="cls-2"
     points="527.99,491.95 528.05,468.37 403.93,401.69 "
     id="polygon78"
     style="fill:#e1aa00"
     transform="matrix(0.18205457,0,0,0.18205457,-34.31038,-34.310377)" />
  <polygon
     class="cls-2"
     points="552.01,491.95 551.95,468.37 676.07,401.69 "
     id="polygon80"
     style="fill:#e1aa00"
     transform="matrix(0.18205457,0,0,0.18205457,-34.31038,-34.310377)" />
  <circle
     class="cls-2"
     cx="90.227692"
     cy="90.227692"
     r="26.228603"
     id="circle82"
     style="fill:#e1aa00;stroke-width:0.182054" />
  <circle
     cx="90.227692"
     cy="90.227692"
     r="21.52067"
     id="circle84"
     style="stroke-width:0.182054" />
  <g
     id="Layer_1"
     data-name="Layer 1"
     transform="matrix(0.18205457,0,0,0.18205457,-34.31038,-34.310377)">
    <path
       class="cls-3"
       d="m 721.41,628.63 -25.79,38.3 a 2.74,2.74 0 0 0 4.07,3.6 l 25.39,-22 a 1,1 0 0 1 1.45,0.09 1,1 0 0 1 0.26,0.69 v 69 a 1,1 0 0 1 -1,1 1.06,1.06 0 0 1 -0.79,-0.37 L 648.23,627 a 13.15,13.15 0 0 0 -10,-4.65 h -2.69 a 13.14,13.14 0 0 0 -13.14,13.14 v 97.11 a 13.14,13.14 0 0 0 13.14,13.14 v 0 a 13.16,13.16 0 0 0 11.21,-6.26 l 25.79,-38.3 a 2.74,2.74 0 0 0 -4.07,-3.6 l -25.39,22 a 1,1 0 0 1 -1.45,-0.08 1.08,1.08 0 0 1 -0.26,-0.7 v -69 a 1,1 0 0 1 1,-1 1,1 0 0 1 0.79,0.36 l 76.73,91.89 a 13.16,13.16 0 0 0 10,4.65 h 2.68 a 13.14,13.14 0 0 0 13.15,-13.13 v 0 -97.06 a 13.14,13.14 0 0 0 -13.14,-13.14 v 0 a 13.16,13.16 0 0 0 -11.17,6.26 z"
       id="path86"
       style="fill:#ffffff" />
  </g>
</svg>
