<?xml version="1.0" encoding="UTF-8" standalone="no"?>
<!-- Created with Inkscape (http://www.inkscape.org/) -->

<svg
   width="127.99999"
   height="127.99999"
   viewBox="0 0 33.866664 33.866664"
   version="1.1"
   id="svg247"
   inkscape:export-filename="dot.svg"
   inkscape:export-xdpi="96"
   inkscape:export-ydpi="96"
   xmlns:inkscape="http://www.inkscape.org/namespaces/inkscape"
   xmlns:sodipodi="http://sodipodi.sourceforge.net/DTD/sodipodi-0.dtd"
   xmlns:xlink="http://www.w3.org/1999/xlink"
   xmlns="http://www.w3.org/2000/svg"
   xmlns:svg="http://www.w3.org/2000/svg">
  <sodipodi:namedview
     id="namedview249"
     pagecolor="#ffffff"
     bordercolor="#000000"
     borderopacity="0.25"
     inkscape:showpageshadow="2"
     inkscape:pageopacity="0.0"
     inkscape:pagecheckerboard="0"
     inkscape:deskcolor="#d1d1d1"
     inkscape:document-units="mm"
     showgrid="false" />
  <defs
     id="defs244">
    <linearGradient
       inkscape:collect="always"
       id="linearGradient15460">
      <stop
         style="stop-color:#0eb946;stop-opacity:1;"
         offset="0"
         id="stop15456" />
      <stop
         style="stop-color:#028cd4;stop-opacity:1;"
         offset="0.50594062"
         id="stop16916" />
      <stop
         style="stop-color:#00b4b8;stop-opacity:1;"
         offset="1"
         id="stop15458" />
    </linearGradient>
    <linearGradient
       inkscape:collect="always"
       xlink:href="#linearGradient15460"
       id="linearGradient15462"
       x1="1.0583345"
       y1="16.933332"
       x2="32.808331"
       y2="16.933332"
       gradientUnits="userSpaceOnUse" />
    <linearGradient
       inkscape:collect="always"
       xlink:href="#linearGradient15460"
       id="linearGradient24268"
       gradientUnits="userSpaceOnUse"
       x1="1.0583345"
       y1="16.933332"
       x2="32.808331"
       y2="16.933332" />
    <linearGradient
       inkscape:collect="always"
       xlink:href="#linearGradient15460"
       id="linearGradient24270"
       gradientUnits="userSpaceOnUse"
       x1="1.0583345"
       y1="16.933332"
       x2="32.808331"
       y2="16.933332" />
  </defs>
  <g
     inkscape:label="Layer 1"
     inkscape:groupmode="layer"
     id="layer1">
    <circle
       style="display:inline;fill:#000000;fill-opacity:1;stroke:none;stroke-width:4.50945;stroke-linejoin:bevel;stroke-opacity:1;paint-order:fill markers stroke"
       id="path420"
       cx="16.933332"
       cy="16.933332"
       r="16.933332" />
    <g
       id="g15454"
       style="fill:url(#linearGradient15462);fill-opacity:1">
      <path
         d="m 16.936509,32.808333 c -3.14002,6.6e-4 -6.20973,-0.93001 -8.8208491,-2.674145 -2.61112,-1.743999 -4.64636,-4.223409 -5.848295,-7.124299 -1.201935,-2.900895 -1.51658502,-6.093089 -0.904145,-9.172829 0.61244,-3.079735 2.124455,-5.908685 4.344795,-8.129044 2.22036,-2.22034 5.0493091,-3.732355 8.1290441,-4.344795 3.07974,-0.61244002 6.271935,-0.2978 9.172829,0.904145 2.90089,1.201935 5.3803,3.237175 7.1243,5.848294 1.744134,2.61112 2.674804,5.68083 2.674144,8.82085 -0.005,4.207934 -1.678914,8.242034 -4.654284,11.217539 -2.975505,2.975369 -7.009605,4.649259 -11.217539,4.654284 z m 0,-31.089462 c -3.009885,-6.3e-4 -5.95237,0.89134 -8.4553291,2.56308 -2.502945,1.67176 -4.45393,4.048219 -5.606215,6.828819 -1.152275,2.78061 -1.45409,5.840425 -0.86727,8.792644 0.58681,2.95209 2.035905,5.663935 4.164005,7.79251 2.128095,2.128569 4.8396241,3.578224 7.7916441,4.165599 2.952,0.587505 6.011905,0.2863 8.792804,-0.865455 2.780905,-1.1516 5.15766,-3.102104 6.829955,-5.604669 1.672299,-2.50269 2.564869,-5.44499 2.564869,-8.454889 C 32.146772,12.90241 30.542573,9.034675 27.690363,6.181806 24.838023,3.328951 20.970608,1.723941 16.936509,1.718871 Z"
         fill="#ffffff"
         id="path13088"
         style="fill:url(#linearGradient24268);fill-opacity:1;stroke-width:1.32291" />
      <path
         fill-rule="evenodd"
         clip-rule="evenodd"
         d="m 5.7496349,22.059369 c -0.0145,0.009 -0.031,0.014 -0.048,0.0145 -0.93815,-0.0607 -1.52527,-1.088095 -1.04344,-1.847585 L 15.258594,3.518421 c 0.0835,-0.12175 0.1954,-0.22135 0.3261,-0.29015 0.13055,-0.0688 0.2761,-0.10475 0.42375,-0.10475 0.14765,0 0.29305,0.036 0.42375,0.10475 0.1307,0.0688 0.2426,0.1684 0.3261,0.29015 l 3.076175,4.831104 c 0.23745,0.36575 0.3638,0.792455 0.3638,1.22851 0,0.4361 -0.12635,0.86278 -0.3638,1.22853 l -1.860415,2.93248 c 0.32225,0.10795 0.632355,0.2491 0.92538,0.4212 0.45405,0.26215 0.852885,0.610065 1.17435,1.02427 0.048,0.0614 0.09605,0.1339 0.14025,0.2008 0.0085,0.013 0.0175,0.026 0.0255,0.0385 l 0.048,0.07025 c 0.0623,0.08955 0.13055,0.17475 0.2041,0.2553 0.07345,0.08295 0.153199,0.1627 0.236149,0.2425 l 0.07025,0.06695 0.1213,0.13085 1.11998,-1.764505 c 0.0913,-0.1323 0.21325,-0.2405 0.3556,-0.3152 0.1422,-0.0747 0.30055,-0.11375 0.4613,-0.11375 0.16075,0 0.31895,0.039 0.4613,0.11375 0.1422,0.0747 0.2643,0.1829 0.3556,0.3152 l 3.82905,6.021254 c 0.1168,0.18375 0.1675,0.40175 0.14365,0.618065 -0.024,0.21645 -0.1205,0.4182 -0.2745,0.572165 0.49265,0.43525 0.873525,0.982395 1.11046,1.595435 0.0737,0.16865 0.12725,0.3454 0.15955,0.52652 0.028,0.1991 0.017,0.40175 -0.032,0.59677 -0.10715,0.36275 -0.32055,0.685005 -0.612645,0.92538 -0.525855,0.4368 -1.134795,0.762395 -1.79017,0.95726 -0.628385,0.1995 -1.27688,0.329 -1.933705,0.38615 -0.23615,0.032 -0.4531,0.032 -0.666885,0.032 h -0.3191 c -0.3503,-0.01 -0.697045,-0.0746 -1.02751,-0.19145 -0.62058,-0.2573 -1.19499,-0.614095 -1.700739,-1.056215 -0.4961,-0.41525 -0.96811,-0.85844 -1.41367,-1.327545 -0.2999,-0.2999 -0.59346,-0.618995 -0.874315,-0.93808 l -0.4244,-0.46595 c -0.0909,-0.10105 -0.1925,-0.19195 -0.3031,-0.2712 -0.1028,-0.07155 -0.2093,-0.1376 -0.3191,-0.1978 l -0.0639,-0.0385 c -0.3347,-0.1655 -0.61979,-0.41645 -0.82643,-0.727475 -0.188,-0.34475 -0.24685,-0.74533 -0.1659,-1.129635 0.05875,-0.3453 0.16615,-0.68051 0.3191,-0.99563 0.0495,-0.09245 0.1106,-0.17835 0.1819,-0.2552 0.0701,-0.0693 0.1471,-0.13135 0.2298,-0.1851 0.047,-0.0305 0.08995,-0.06695 0.12755,-0.1085 0.0325,-0.046 0.0602,-0.09525 0.0831,-0.14685 0.0285,-0.05755 0.05175,-0.1172 0.0701,-0.17875 0.0285,-0.0934 0.06245,-0.1851 0.10215,-0.274349 0.0917,-0.16615 0.21405,-0.3134 0.3606,-0.4339 0.26485,-0.2147 0.560655,-0.3879 0.87749,-0.51382 0.3032,-0.1237 0.61582,-0.2229 0.934905,-0.29675 0.31445,-0.07515 0.634735,-0.12315 0.957265,-0.14355 h 0.197899 l -0.07025,-0.0766 c -0.0495,-0.0529 -0.1085,-0.10875 -0.1704,-0.1676 l -0.005,-0.0048 -0.0766,-0.07025 c -0.10215,-0.09775 -0.19155,-0.19035 -0.26805,-0.27755 -0.0898,-0.10175 -0.17395,-0.20825 -0.25215,-0.3191 l -0.0574,-0.0893 c -0.048,-0.07025 -0.08945,-0.13085 -0.14035,-0.1979 -0.27225,-0.34555 -0.608015,-0.635795 -0.98928,-0.855135 -0.4027,-0.2278 -0.831185,-0.4068 -1.27635,-0.532925 -0.4482,-0.1488 -0.90408,-0.27345 -1.36578,-0.37335 -0.4769,-0.1052 -0.96348,-0.1608 -1.4519,-0.16595 -0.43095,-0.0024 -0.86028,0.0534 -1.27632,0.16595 -0.885325,0.26925 -1.70105,0.72886 -2.390035,1.34653 -0.3634,0.29935 -0.709615,0.618995 -1.0370491,0.957395 l -0.27445,0.2839 c -0.23935,0.2393 -0.48505,0.49145 -0.708395,0.74996 -0.626055,0.71742 -1.17574,1.498069 -1.64015,2.329389 -0.47865,0.823255 -0.934945,1.684735 -1.375305,2.52082 v 0.019 c -0.008,0.015 -0.02,0.0275 -0.035,0.0365 z m 11.4488091,-2.75193 c -0.09685,0.06445 -0.1733,0.1552 -0.22015,0.26165 -0.0145,0.0395 -0.026,0.08015 -0.035,0.1213 0.08385,-0.0848 0.17345,-0.16365 0.268,-0.23615 0.24725,-0.1844 0.54147,-0.295 0.848785,-0.3191 h 0.3192 0.0445 c 0.1061,-0.016 0.20425,-0.06535 0.28085,-0.1405 0.0938,-0.09895 0.17925,-0.2057 0.2552,-0.3191 0.0766,-0.11165 0.15635,-0.21695 0.2458,-0.3191 0.19565,-0.223049 0.43165,-0.407049 0.69559,-0.542394 0.13055,-0.06445 0.26485,-0.1209 0.40205,-0.1692 l 0.1532,-0.0415 c 0.08825,-0.0305 0.178999,-0.05305 0.271199,-0.06705 0.13135,-0.0155 0.26355,-0.023 0.3957,-0.0225 -0.09645,-0.1721 -0.20295,-0.33825 -0.3191,-0.4978 -0.12555,-0.0055 -0.251349,-0.0021 -0.376499,0.0095 -0.3072,0.0415 -0.61039,0.1085 -0.906195,0.20095 -0.58658,0.15385 -1.13149,0.43615 -1.59557,0.82656 -0.0955,0.0905 -0.1725,0.198949 -0.2265,0.319099 -0.0245,0.0574 -0.0425,0.11735 -0.05425,0.1786 -0.0215,0.0913 -0.049,0.18085 -0.08295,0.26815 -0.0365,0.0934 -0.0836,0.18215 -0.1405,0.26485 -0.06285,0.0852 -0.1381,0.16045 -0.2233,0.2233 z m 10.386484,5.53945 c 0.19935,-0.16735 0.3457,-0.38905 0.4212,-0.638175 0.0285,-0.1147 0.036,-0.2336 0.0225,-0.35095 -0.0245,-0.13215 -0.0651,-0.26075 -0.1212,-0.38285 -0.20505,-0.54888 -0.549275,-1.034785 -0.9988,-1.410495 -0.47305,-0.3564 -0.99404,-0.64426 -1.54768,-0.855135 l -0.0445,-0.019 c -0.268,-0.118 -0.56806,-0.2552 -0.887145,-0.41805 -0.22965,-0.12115 -0.4339,-0.2425 -0.638175,-0.36365 l -0.20745,-0.1213 -0.820075,-0.49465 -0.41155,-0.2552 -0.07025,-0.0445 c -0.1221,-0.0758 -0.24035,-0.1578 -0.35415,-0.24565 l -0.0445,-0.035 c -0.0145,-0.012 -0.0255,-0.027 -0.032,-0.0445 l -0.0225,-0.06705 c -0.14235,-0.4388 -0.3195,-0.865585 -0.5297,-1.276349 l -0.0285,-0.0574 h -0.0766 c -0.0831,0.017 -0.1651,0.038 -0.24565,0.06375 l -0.1405,0.0415 c -0.08625,0.016 -0.1716,0.0375 -0.255199,0.06375 l -0.13085,0.0385 c -0.11455,0.049 -0.2265,0.10465 -0.3351,0.1659 -0.22385,0.116149 -0.424,0.273049 -0.590285,0.462649 -0.06005,0.0676 -0.1143,0.13915 -0.17025,0.213 -0.0155,0.0205 -0.031,0.041 -0.0465,0.0615 -0.0958,0.1332 -0.20255,0.2581 -0.3192,0.3733 -0.1254,0.129 -0.28855,0.2151 -0.4658,0.24565 -0.038,0.006 -0.07685,0.006 -0.11485,0 h -0.3192 c -0.2327,0.027 -0.4535,0.1176 -0.638175,0.26165 -0.204,0.1565 -0.38365,0.34265 -0.53287,0.552055 -0.0425,0.0445 -0.08085,0.0893 -0.11485,0.134 -0.045,0.23655 -0.014,0.48125 0.0893,0.698765 0.15295,0.21645 0.35985,0.38905 0.59994,0.50099 l 0.06695,0.0385 c 0.0245,0.0145 0.0495,0.029 0.0745,0.044 0.09435,0.0553 0.19025,0.1114 0.28615,0.1795 0.14895,0.1037 0.28495,0.22475 0.4052,0.36065 0.0987,0.1029 0.1959,0.2102 0.29275,0.31695 0.047,0.0521 0.0942,0.104 0.1413,0.1553 0.0205,0.0225 0.041,0.045 0.06165,0.06775 0.26775,0.29435 0.52374,0.575735 0.793485,0.854475 0.4297,0.45205 0.88569,0.878285 1.365779,1.27635 0.4531,0.3965 0.965595,0.719535 1.51884,0.95726 0.27105,0.09485 0.55536,0.14645 0.84243,0.1532 h 0.29675 c 0.19145,0 0.39885,-0.0095 0.612645,-0.0285 0.61013,-0.05345 1.212455,-0.1733 1.79652,-0.35745 0.57137,-0.16375 1.104105,-0.44055 1.56673,-0.813725 z m -14.655814,-4.36814 c -0.0205,-3.95e-4 -0.0405,-0.007 -0.05745,-0.019 l -0.05745,-0.0445 c -0.765805,-0.5715 -1.49334,-1.14591 -2.166625,-1.681955 -0.0115,-0.01 -0.0205,-0.022 -0.027,-0.036 -0.006,-0.014 -0.009,-0.029 -0.0085,-0.044 l 0.2138,-2.575189 c 0.0023,-0.023 0.013,-0.0445 0.03,-0.06045 0.017,-0.016 0.039,-0.025 0.0625,-0.0255 l 4.713035,0.38615 c 0.0235,0.0016 0.0455,0.012 0.0614,0.029 0.016,0.017 0.025,0.04 0.0245,0.06325 l -0.032,1.873114 c -1.35e-4,0.014 -0.0033,0.028 -0.0095,0.0405 -0.006,0.0125 -0.015,0.024 -0.0255,0.033 l -0.15635,0.1212 c -0.3278,0.27105 -0.65339,0.52123 -0.98253,0.774175 v 1.3e-4 l -0.1758,0.1352 c -0.3625,0.27925 -0.744375,0.564095 -1.119845,0.844155 l -1.6e-4,1.3e-4 -0.083,0.0619 -0.14995,0.11165 c -0.016,0.01 -0.0355,0.0145 -0.05425,0.013 z m -0.714715,-0.93345 1.45e-4,1.35e-4 h 1.45e-4 c 0.2371,0.16085 0.4712,0.31975 0.704865,0.47705 0.3829,-0.3192 0.76582,-0.61595 1.155115,-0.915855 l 0.04,-0.0305 c 0.3752,-0.28905 0.73926,-0.569515 1.11219,-0.849975 l 0.05425,-0.0415 0.0606,-1.4646 -4.25991,-0.4372 -0.2553,2.329394 c 0.48535,0.3208 0.94214,0.630765 1.388125,0.933315 z m 2.28093,-1.730769 c 0,-0.012 -0.0044,-0.023 -0.012,-0.032 -0.1582,-0.1926 -0.3844,-0.3171 -0.63181,-0.3478 -0.2202,-0.0135 -0.44005,0.0305 -0.63819,0.1275 -0.41215,0.12965 -0.79793,0.33165 -1.139165,0.59677 -0.0031,0.0055 -0.0047,0.0115 -0.0047,0.0175 0,0.006 0.0016,0.012 0.0047,0.0175 0.0029,0.009 0.009,0.0165 0.0175,0.0215 0.0085,0.0048 0.018,0.006 0.0275,0.0041 0.39475,-0.07265 0.795205,-0.110049 1.196605,-0.111649 0.1886,0.0235 0.3794,0.0235 0.567985,0 0.214,-0.05065 0.4172,-0.1393 0.5999,-0.26165 0.008,-0.0085 0.012,-0.02 0.012,-0.032 z"
         fill="#ffffff"
         id="path13090"
         style="fill:url(#linearGradient24270);fill-opacity:1;stroke-width:1.32291" />
    </g>
  </g>
</svg>
