<?xml version="1.0" encoding="UTF-8" standalone="no"?>
<svg
   width="128"
   height="128"
   viewBox="0 0 128 128"
   version="1.1"
   id="svg330"
   sodipodi:docname="Benqi Token Ticker Black.svg"
   inkscape:export-filename="..\All Crypto\qi.png"
   inkscape:export-xdpi="96"
   inkscape:export-ydpi="96"
   xmlns:inkscape="http://www.inkscape.org/namespaces/inkscape"
   xmlns:sodipodi="http://sodipodi.sourceforge.net/DTD/sodipodi-0.dtd"
   xmlns:xlink="http://www.w3.org/1999/xlink"
   xmlns="http://www.w3.org/2000/svg"
   xmlns:svg="http://www.w3.org/2000/svg">
  <sodipodi:namedview
     id="namedview332"
     pagecolor="#ffffff"
     bordercolor="#000000"
     borderopacity="0.25"
     inkscape:showpageshadow="2"
     inkscape:pageopacity="0.0"
     inkscape:pagecheckerboard="0"
     inkscape:deskcolor="#d1d1d1"
     showgrid="false" />
  <defs
     id="defs312">
    <linearGradient
       id="a"
       x1="212.77"
       y1="38.389999"
       x2="436.94"
       y2="238.66"
       gradientTransform="matrix(1,0,0,-1,0,474)"
       gradientUnits="userSpaceOnUse">
      <stop
         offset="0.35"
         stop-color="#00b2ec"
         id="stop293" />
      <stop
         offset="0.43"
         stop-color="#2ec0ef"
         id="stop295" />
      <stop
         offset="0.55"
         stop-color="#6dd3f4"
         id="stop297" />
      <stop
         offset="0.66"
         stop-color="#a1e3f8"
         id="stop299" />
      <stop
         offset="0.77"
         stop-color="#caeffb"
         id="stop301" />
      <stop
         offset="0.86"
         stop-color="#e7f8fd"
         id="stop303" />
      <stop
         offset="0.94"
         stop-color="#f9fdff"
         id="stop305" />
      <stop
         offset="1"
         stop-color="#fff"
         id="stop307" />
    </linearGradient>
    <linearGradient
       id="b"
       x1="219.35001"
       y1="31.01"
       x2="443.53"
       y2="231.28999"
       xlink:href="#a"
       gradientTransform="scale(0.27138193)" />
    <linearGradient
       inkscape:collect="always"
       xlink:href="#a"
       id="linearGradient451"
       gradientUnits="userSpaceOnUse"
       gradientTransform="matrix(0.27138193,0,0,-0.27138193,0,128.63503)"
       x1="212.77"
       y1="38.389999"
       x2="436.94"
       y2="238.66" />
  </defs>
  <circle
     cx="64"
     cy="64"
     r="64"
     id="circle314"
     style="stroke-width:0.271382" />
  <path
     d="m 81.571979,100.81839 0.358224,0.27138 z"
     fill="none"
     id="path316"
     style="stroke-width:0.271382" />
  <path
     d="m 82.711783,101.63796 c -0.271382,-0.18183 -0.542764,-0.36637 -0.78158,-0.54277 0.246958,0.1764 0.507485,0.36094 0.78158,0.54277 z"
     fill="none"
     id="path318"
     style="stroke-width:0.271382" />
  <path
     d="m 78.904295,98.22126 -0.499343,-0.670313 0.499343,0.670313 a 15.723869,15.723869 0 0 0 1.696137,1.78298 15.723869,15.723869 0 0 1 -1.696137,-1.78298 z"
     fill="url(#a)"
     id="path320"
     style="fill:url(#linearGradient451);stroke-width:0.271382" />
  <path
     d="m 81.227324,100.54158 0.344655,0.27138 v 0 z"
     fill="url(#b)"
     id="path322"
     style="fill:url(#b);stroke-width:0.271382" />
  <path
     d="m 64.097697,88.378238 h -0.08413 A 24.380956,24.380956 0 1 1 63.98643,39.616333 v 0 A 24.367383,24.367383 0 0 1 87.113598,71.715388 L 98.069286,86.437857 A 40.804986,40.804986 0 1 0 75.286774,103.19569 C 74.868846,102.75062 64.097697,88.378238 64.097697,88.378238 Z"
     fill="#ffffff"
     id="path324"
     style="stroke-width:0.271382" />
  <path
     d="M 104.24594,104.70729 90.223635,85.865241 82.668362,75.715557 v 0 L 82.169019,75.045244 C 82.04147,74.890556 81.897637,74.706016 81.710384,74.50248 A 16.345333,16.345333 0 0 0 80.467455,73.254123 C 80.27206,73.077725 80.065809,72.898613 79.84599,72.711359 79.734724,72.619089 79.618029,72.52682 79.498621,72.439977 79.379213,72.353135 79.265233,72.258151 79.143111,72.168595 78.896153,71.984056 78.635627,71.799516 78.358817,71.625832 75.886528,69.99754 72.301573,68.475087 67.476402,68.475087 H 56.827375 l 0.04071,0.05428 -0.04071,0.02714 14.022304,18.844761 7.555273,10.152398 v 0 l 0.499343,0.670313 c 0.124836,0.157402 0.284951,0.339228 0.458635,0.542764 a 15.867701,15.867701 0 0 0 1.24293,1.248357 c 0.195395,0.1764 0.401645,0.35552 0.621464,0.54277 l 0.344655,0.27138 0.358224,0.27138 c 0.246958,0.18183 0.507485,0.36637 0.78158,0.54277 2.47229,1.62829 6.059959,3.15074 10.885129,3.15074 h 10.649028 l -0.0353,-0.0407 z"
     fill="#00b2ec"
     id="path328"
     style="stroke-width:0.271382" />
</svg>
