<?xml version="1.0" encoding="UTF-8" standalone="no"?>
<svg
   width="128"
   height="128"
   viewBox="0 0 128 128"
   version="1.1"
   id="svg6"
   sodipodi:docname="sAVAX Token Blue SVG-01.svg"
   inkscape:export-filename="..\All Crypto\savax.png"
   inkscape:export-xdpi="96"
   inkscape:export-ydpi="96"
   xmlns:inkscape="http://www.inkscape.org/namespaces/inkscape"
   xmlns:sodipodi="http://sodipodi.sourceforge.net/DTD/sodipodi-0.dtd"
   xmlns="http://www.w3.org/2000/svg"
   xmlns:svg="http://www.w3.org/2000/svg">
  <defs
     id="defs10" />
  <sodipodi:namedview
     id="namedview8"
     pagecolor="#ffffff"
     bordercolor="#000000"
     borderopacity="0.25"
     inkscape:showpageshadow="2"
     inkscape:pageopacity="0.0"
     inkscape:pagecheckerboard="0"
     inkscape:deskcolor="#d1d1d1"
     showgrid="false" />
  <circle
     cx="64"
     cy="64"
     r="64"
     fill="#00b3ed"
     id="circle2"
     style="stroke-width:0.128" />
  <path
     d="M 104.3648,96.94336 H 82.01728 l 0.128,-0.10752 0.48256,-0.42624 0.3008,-0.27392 0.47744,-0.42624 0.3008,-0.27776 c 0.16768,-0.16256 0.3328,-0.32896 0.4992,-0.49792 l 0.256,-0.256 c 0.18688,-0.2176 0.41344,-0.44416 0.6144,-0.66944 l 0.11904,-0.128 q 0.3584,-0.4288 0.70528,-0.85504 l 0.18816,-0.24192 c 0.16256,-0.2112 0.32384,-0.41856 0.48256,-0.64 0.07936,-0.11008 0.14976,-0.22656 0.23808,-0.33792 0.128,-0.19072 0.2688,-0.384 0.3968,-0.57984 0.08064,-0.128 0.16128,-0.256 0.2432,-0.384 0.12032,-0.19072 0.27648,-0.43008 0.35328,-0.58368 0.0768,-0.1536 0.15104,-0.29184 0.2304,-0.42752 0.11264,-0.19584 0.21888,-0.3968 0.32128,-0.6016 0.07296,-0.15104 0.15104,-0.28672 0.21248,-0.42624 0.10368,-0.21888 0.20224,-0.4288 0.3008,-0.64 0.06016,-0.15104 0.128,-0.28672 0.1792,-0.42624 0.09856,-0.24448 0.18944,-0.49152 0.27776,-0.73984 0.04608,-0.128 0.09472,-0.24192 0.13696,-0.36608 0.128,-0.37632 0.24448,-0.75264 0.34688,-1.14432 a 24.68096,24.68096 0 0 0 -3.616,-19.13088 l 0.384,-0.65408 a 7.24864,7.24864 0 0 1 1.37984,-1.74336 4.608,4.608 0 0 1 1.1776,-0.7936 3.744,3.744 0 0 1 0.8064,-0.26496 3.25888,3.25888 0 0 1 0.8192,-0.05376 3.22304,3.22304 0 0 1 0.54272,0.0768 3.75296,3.75296 0 0 1 1.21984,0.512 3.40224,3.40224 0 0 1 0.3008,0.19968 5.7216,5.7216 0 0 1 0.48,0.3968 6.75328,6.75328 0 0 1 0.896,1.03808 5.61408,5.61408 0 0 1 0.42624,0.64 l 13.8048,24.24448 a 8.15488,8.15488 0 0 1 0.56832,1.18784 c 0.0486,0.128 0.0934,0.256 0.128,0.384 a 5.856,5.856 0 0 1 0.1792,0.73856 4.352,4.352 0 0 1 0.0384,0.75264 3.86816,3.86816 0 0 1 -0.0896,0.85888 v 0 a 3.34336,3.34336 0 0 1 -0.384,1.024 3.48544,3.48544 0 0 1 -0.70016,0.85376 4.03328,4.03328 0 0 1 -0.72192,0.50432 l -0.27776,0.1408 a 6.6944,6.6944 0 0 1 -2.80576,0.54528 z M 78.41792,88.064 q -0.03072,-0.35584 -0.0768,-0.72192 a 0.58496,0.58496 0 0 0 -0.0256,-0.2048 c -0.03456,-0.2688 -0.07424,-0.54272 -0.12032,-0.8192 L 78.1696,86.16832 C 78.12736,85.92384 78.07872,85.6768 78.0288,85.42464 a 1.16992,1.16992 0 0 0 -0.03968,-0.19712 c -0.0512,-0.28544 -0.128,-0.57472 -0.20096,-0.85248 A 0.78976,0.78976 0 0 0 77.7408,84.18176 q -0.096,-0.39296 -0.21376,-0.7936 L 77.48096,83.22304 C 77.39136,82.91456 77.29408,82.60608 77.1904,82.2912 l -0.07296,-0.2176 -4.608,7.936 a 8.64384,8.64384 0 0 0 -0.42624,0.88448 6.1568,6.1568 0 0 0 -0.45184,1.664 4.48,4.48 0 0 0 -0.02176,0.768 3.9168,3.9168 0 0 0 0.07808,0.57216 3.40864,3.40864 0 0 0 1.088,1.88288 4.096,4.096 0 0 0 0.98944,0.64 6.56768,6.56768 0 0 0 2.784,0.54656 h 0.512 l 0.04352,-0.1024 c 0.06528,-0.19968 0.128,-0.36352 0.20224,-0.53376 l 0.0256,-0.064 c 0.06016,-0.1536 0.1152,-0.32 0.17152,-0.46976 l 0.04992,-0.1408 c 0.06016,-0.17408 0.1152,-0.35328 0.17536,-0.53248 l 0.03456,-0.11136 c 0.04736,-0.15872 0.09344,-0.32 0.13568,-0.48256 a 0.6912,0.6912 0 0 1 0.03968,-0.15104 c 0.04864,-0.18944 0.09344,-0.384 0.13568,-0.57984 l 0.02944,-0.15104 c 0.03456,-0.17152 0.06912,-0.34176 0.09984,-0.512 l 0.0256,-0.15104 c 0.03456,-0.2048 0.06528,-0.41472 0.09344,-0.62592 a 0.4928,0.4928 0 0 1 0.02048,-0.1728 c 0.02432,-0.18944 0.04608,-0.384 0.064,-0.57984 v -0.128 c 0,-0.2304 0.04224,-0.45184 0.04224,-0.68224 v -1.67808 -0.1856 c 0,-0.256 -0.0256,-0.512 -0.04608,-0.768 z M 61.0304,60.06144 c -6.4,-10.50624 -2.71872,-24.67968 9.58848,-27.488 0,0 -7.49696,12.0896 3.456,20.5248 0.384,0.29696 0.76032,0.5952 1.13664,0.896 l 2.9888,-5.12 c 0.04608,-0.1024 0.09344,-0.2048 0.13952,-0.30976 0.14592,-0.31744 0.27776,-0.64 0.39808,-0.9664 a 12.94208,12.94208 0 0 0 0.54912,-1.99296 c 0.06016,-0.33664 0.11392,-0.67968 0.15104,-1.024 v -0.0077 a 12.87808,12.87808 0 0 0 0,-2.96192 c -0.03584,-0.34048 -0.08704,-0.68352 -0.15104,-1.024 -0.04608,-0.256 -0.1024,-0.512 -0.17024,-0.75392 -0.096,-0.37632 -0.20864,-0.74752 -0.33664,-1.11872 -0.128,-0.3712 -0.27136,-0.73216 -0.4288,-1.088 -0.04608,-0.10368 -0.0896,-0.20864 -0.13952,-0.31104 l -7.2576,-12.75648 -3.072,-5.536 a 8.29952,8.29952 0 0 0 -0.88704,-1.25952 5.74336,5.74336 0 0 0 -0.97792,-0.90368 4.5568,4.5568 0 0 0 -0.5184,-0.31616 3.36512,3.36512 0 0 0 -3.2,0 4.72704,4.72704 0 0 0 -1.01504,0.7168 6.82624,6.82624 0 0 0 -0.93952,1.0752 q -0.22016,0.31616 -0.42752,0.67584 L 19.648,89.93664 a 7.04,7.04 0 0 0 -0.896,2.41024 4.67712,4.67712 0 0 0 -0.05376,0.6272 v 0.30208 a 3.73888,3.73888 0 0 0 0.07168,0.57216 3.24608,3.24608 0 0 0 0.15104,0.53376 c 0.03456,0.08576 0.06784,0.17152 0.10496,0.256 a 2.96192,2.96192 0 0 0 0.59008,0.84352 3.49312,3.49312 0 0 0 0.256,0.24448 4.12416,4.12416 0 0 0 0.33408,0.256 5.01248,5.01248 0 0 0 1.76,0.73728 7.47264,7.47264 0 0 0 1.10592,0.15872 h 20.8128 a 5.00864,5.00864 0 0 0 0.6784,-0.06528 l 0.2048,-0.0256 0.49536,-0.0768 0.2048,-0.03456 c 0.21888,-0.04224 0.4288,-0.08448 0.65408,-0.13568 h 0.07424 c 0.192,-0.03968 0.384,-0.09344 0.57472,-0.14976 l 0.22272,-0.06784 0.42624,-0.15104 0.21888,-0.0768 c 0.20608,-0.0768 0.40704,-0.1536 0.60288,-0.2432 A 22.60608,22.60608 0 0 1 44.9664,90.8544 C 39.37664,79.37024 47.616,65.44 47.616,65.44 c 0,0 -1.2288,13.2032 7.38176,13.80608 a 8.13568,8.13568 0 0 0 6.54336,-2.12864 6.528,6.528 0 0 0 1.19424,-1.5168 l 0.23424,-0.40192 a 6.79168,6.79168 0 0 0 0.71936,-1.792 16.1536,16.1536 0 0 0 -2.65856,-13.34528 z"
     fill="#ffffff"
     id="path4"
     style="stroke-width:0.128" />
</svg>
