<?xml version="1.0" encoding="UTF-8" standalone="no"?>
<!-- Created with Inkscape (http://www.inkscape.org/) -->

<svg
   width="127.99999"
   height="127.99999"
   viewBox="0 0 33.866664 33.866664"
   version="1.1"
   id="svg261"
   inkscape:export-filename="cand.svg"
   inkscape:export-xdpi="96"
   inkscape:export-ydpi="96"
   xml:space="preserve"
   xmlns:inkscape="http://www.inkscape.org/namespaces/inkscape"
   xmlns:sodipodi="http://sodipodi.sourceforge.net/DTD/sodipodi-0.dtd"
   xmlns="http://www.w3.org/2000/svg"
   xmlns:svg="http://www.w3.org/2000/svg"><sodipodi:namedview
     id="namedview263"
     pagecolor="#ffffff"
     bordercolor="#000000"
     borderopacity="0.25"
     inkscape:showpageshadow="2"
     inkscape:pageopacity="0.0"
     inkscape:pagecheckerboard="0"
     inkscape:deskcolor="#d1d1d1"
     inkscape:document-units="mm"
     showgrid="false" /><defs
     id="defs258" /><g
     inkscape:label="Layer 1"
     inkscape:groupmode="layer"
     id="layer1"><circle
       style="fill:#ffffff;fill-opacity:1;stroke-width:0;stroke-linejoin:bevel;paint-order:stroke fill markers"
       id="path434"
       cx="16.933332"
       cy="16.933332"
       r="16.933332" /><path
       style="fill:#000000;stroke-width:0.027878"
       d="m 21.632894,30.109808 c -0.482279,-0.294026 -1.545768,-0.496284 -3.082058,-0.586159 l -0.555435,-0.03249 -1.437844,0.01536 -1.437843,0.01536 -0.459988,0.03068 c -1.478087,0.0986 -2.695577,0.230492 -3.26173,0.353333 -0.176329,0.03826 -0.414687,0.08211 -0.529683,0.09744 l -0.209086,0.02789 -0.233208,-0.03101 -0.233208,-0.03101 -0.2165337,-0.07902 C 9.433031,29.691906 8.9974298,29.364521 7.627491,28.124882 L 6.8538755,27.424849 V 27.22601 27.027172 l 0.043391,-0.146111 0.04339,-0.146111 0.1010677,-0.11187 0.1010676,-0.11187 0.113414,-0.0592 0.1134137,-0.0592 0.2787803,-0.01092 0.2787804,-0.01092 0.2800931,0.05757 c 0.1540515,0.03166 0.4019772,0.0938 0.5509463,0.138091 l 0.2708529,0.08053 0.083682,-0.156565 c 0.046025,-0.08611 0.1482989,-0.242677 0.2272757,-0.347927 l 0.1435941,-0.191355 0.18109,-0.149372 0.181091,-0.149372 0.2115647,-0.10952 c 0.283788,-0.146908 0.591507,-0.250731 1.159896,-0.391342 l 0.474406,-0.117361 0.133722,-0.262201 c 0.248106,-0.486479 0.620122,-0.999212 1.002219,-1.381308 l 0.194147,-0.194146 -0.0037,-0.508239 -0.0037,-0.50824 0.02639,-0.236963 c 0.01451,-0.13033 0.03518,-0.309097 0.04592,-0.397262 L 13.1062,21.38569 h -0.04498 c -0.09035,0 -0.880782,-0.259982 -1.328721,-0.43703 L 11.272547,20.766851 10.784681,20.518926 C 9.439475,19.835313 8.3097893,18.921958 7.5186759,17.878349 7.2899091,17.576567 7.0263847,17.16486 7.0034185,17.073355 l -0.015942,-0.06352 0.2446604,-0.397761 c 0.3178188,-0.5167 0.9846162,-1.574951 1.2472167,-1.979414 L 8.6857355,14.314789 8.4938958,14.01004 C 8.3883798,13.842427 8.2096214,13.523387 8.0966507,13.30106 L 7.8912492,12.896828 7.7094521,12.436841 C 7.3209976,11.453962 7.0852122,10.477361 6.9321269,9.2172306 l -0.060998,-0.502107 -0.00141,-0.989671 -0.00141,-0.98967 0.050152,-0.404231 c 0.1319555,-1.063637 0.3654399,-1.843519 0.6855542,-2.289904 l 0.1127569,-0.157235 0.1330807,-0.08928 0.1330806,-0.08928 0.1686292,0.01495 0.1686293,0.01495 0.3471143,0.113487 0.3471144,0.113486 0.5296828,0.261406 0.5296827,0.261406 0.473927,0.284844 c 0.635966,0.382233 1.653278,1.061002 2.710609,1.808568 l 0.870659,0.615583 0.13295,-0.02505 c 0.196353,-0.037 0.854741,-0.107802 1.331707,-0.143207 l 0.41817,-0.03104 1.003609,-4.81e-4 1.003609,-4.8e-4 0.459987,0.03201 c 0.448145,0.03119 1.334337,0.128822 1.425382,0.157033 l 0.04542,0.01407 0.735166,-0.521989 c 2.382926,-1.691942 3.709602,-2.483718 4.738854,-2.828202 l 0.323784,-0.108369 0.165814,-0.01733 0.165813,-0.01733 0.08481,0.04386 c 0.04664,0.02412 0.147338,0.112273 0.223763,0.195894 l 0.138956,0.15204 0.113032,0.21873 c 0.643077,1.244426 0.774867,3.807534 0.314417,6.1149344 l -0.108481,0.543621 -0.125815,0.437827 c -0.286746,0.997864 -0.695983,1.924054 -1.177819,2.665662 l -0.150768,0.23205 0.414193,0.646108 c 0.448882,0.70022 0.983339,1.55543 1.176806,1.883061 l 0.121328,0.205467 -0.07936,0.143009 c -0.46718,0.841921 -1.386547,1.811384 -2.418859,2.550663 -0.985616,0.705837 -2.366365,1.339599 -3.623889,1.663359 l -0.299197,0.07703 0.01317,0.05865 c 0.0072,0.03225 0.02601,0.215461 0.0417,0.407123 l 0.02853,0.348475 0.213037,0.752707 c 0.11717,0.413989 0.221543,0.762535 0.23194,0.774547 l 0.0189,0.02184 0.407962,-0.181072 c 1.243855,-0.552078 1.917579,-1.125805 3.488842,-2.97101 0.22849,-0.268325 0.573196,-0.645399 0.766013,-0.83794 l 0.350578,-0.350076 0.292719,-0.233209 c 0.71129,-0.566685 1.337209,-0.880162 1.982096,-0.992688 l 0.262086,-0.04573 0.236963,0.01644 0.236964,0.01644 0.153329,0.04558 c 0.189439,0.05631 0.345377,0.13399 0.477218,0.237714 l 0.100864,0.07935 0.06281,0.145999 0.06281,0.145998 0.03747,0.210018 c 0.02061,0.115509 0.03791,0.299326 0.03844,0.408481 l 9.88e-4,0.198464 -0.04284,0.247584 -0.04284,0.247585 -0.08421,0.181207 -0.08421,0.181208 -0.089,0.09393 c -0.04895,0.05166 -0.129372,0.111249 -0.178712,0.13242 l -0.08971,0.03849 h -0.142059 -0.14206 l -0.336395,-0.0697 -0.336404,-0.06969 H 28.460691 28.30203 l -0.133948,0.04564 -0.133948,0.04564 -0.195773,0.184353 c -0.242963,0.228793 -0.726781,0.789962 -1.405803,1.630559 l -0.520735,0.644647 -0.294369,0.293139 c -0.527992,0.525789 -1.573189,1.426265 -2.433113,2.096222 -0.195986,0.15269 -0.356338,0.2818 -0.356338,0.286912 0,0.0051 0.145087,0.0855 0.322415,0.178637 0.177329,0.09314 0.49677,0.281396 0.709871,0.418349 l 0.387456,0.249007 0.219317,-0.0925 c 0.281337,-0.118653 0.779527,-0.279137 0.999596,-0.322006 l 0.171449,-0.0334 0.225468,0.01024 0.225468,0.01024 0.08605,0.08605 0.08605,0.08605 0.01543,0.115015 0.01543,0.115015 -0.07205,0.230857 -0.07205,0.230857 -0.146377,0.245402 -0.146377,0.245402 -0.22421,0.254696 -0.22421,0.254697 -0.292719,0.24714 -0.292719,0.247141 -0.390293,0.259958 c -0.774552,0.515897 -1.668137,0.94101 -2.351776,1.118828 -0.315887,0.08216 -0.328133,0.08245 -0.446306,0.01041 z m -6.798035,-9.710355 c 0.109017,-0.04665 0.228838,-0.170388 0.269701,-0.27853 l 0.03021,-0.07995 0.02749,-0.480536 0.02749,-0.480535 -0.02795,-0.46355 C 15.057669,16.88935 14.533723,15.589664 13.552032,14.623193 13.05595,14.134802 12.259716,13.653513 11.706587,13.5077 l -0.155262,-0.04093 -0.209086,-9.21e-4 -0.209085,-9.22e-4 -0.125451,0.02839 c -0.212244,0.04802 -0.445876,0.137396 -0.638398,0.244206 l -0.184005,0.102118 -0.2394747,0.239487 -0.239474,0.239487 -0.112132,0.195146 C 9.4513098,14.76247 9.3512488,15.016075 9.2733677,15.326958 l -0.061669,0.246169 -0.00106,0.446048 -0.00106,0.446049 0.061676,0.196019 0.061677,0.196021 0.1997146,0.291845 c 0.307039,0.44868 0.6981197,0.923681 1.0970547,1.332471 0.430419,0.441051 0.78968,0.744457 1.250317,1.055925 l 0.33826,0.228723 0.335601,0.166141 c 0.494649,0.244879 0.927077,0.386087 1.422845,0.464626 l 0.223024,0.03533 0.272706,0.0028 0.272706,0.0028 0.08971,-0.03838 z m 5.423496,-0.04376 c 0.142993,-0.031 0.393049,-0.100882 0.555682,-0.155302 l 0.295694,-0.09895 0.321913,-0.15893 0.321913,-0.15893 0.362978,-0.242482 c 0.845194,-0.564615 1.687012,-1.419642 2.348902,-2.38576 l 0.203872,-0.297579 0.05818,-0.182333 0.05818,-0.182333 0.01446,-0.353555 0.01446,-0.353557 -0.04883,-0.273699 -0.04883,-0.2737 -0.09269,-0.260696 -0.09269,-0.260696 -0.117517,-0.199292 -0.117515,-0.199291 -0.239429,-0.239487 -0.239428,-0.239487 -0.184004,-0.102085 c -0.192525,-0.10681 -0.426157,-0.196183 -0.638401,-0.244209 l -0.125451,-0.02839 -0.209085,9.22e-4 -0.209085,9.22e-4 -0.155263,0.04093 c -0.370586,0.09769 -0.996201,0.425004 -1.410568,0.737987 -0.409238,0.309109 -0.865166,0.809441 -1.146831,1.258523 -0.06278,0.100098 -0.18971,0.338454 -0.282065,0.529683 l -0.167918,0.347689 -0.109468,0.334536 c -0.194777,0.59524 -0.293816,1.159363 -0.336959,1.919329 l -0.02522,0.444215 0.0248,0.479033 0.0248,0.479033 0.03083,0.08157 c 0.03976,0.105218 0.15806,0.231064 0.264244,0.281107 l 0.08363,0.03942 0.376353,-0.01389 0.376354,-0.01389 0.259986,-0.05636 z"
       id="path2242" /></g></svg>
