<?xml version="1.0" encoding="UTF-8" standalone="no"?>
<!-- Created with Inkscape (http://www.inkscape.org/) -->

<svg
   width="127.99999"
   height="127.99999"
   viewBox="0 0 33.866664 33.866664"
   version="1.1"
   id="svg261"
   inkscape:export-filename="sfort.png"
   inkscape:export-xdpi="96"
   inkscape:export-ydpi="96"
   xmlns:inkscape="http://www.inkscape.org/namespaces/inkscape"
   xmlns:sodipodi="http://sodipodi.sourceforge.net/DTD/sodipodi-0.dtd"
   xmlns="http://www.w3.org/2000/svg"
   xmlns:svg="http://www.w3.org/2000/svg">
  <sodipodi:namedview
     id="namedview263"
     pagecolor="#ffffff"
     bordercolor="#000000"
     borderopacity="0.25"
     inkscape:showpageshadow="2"
     inkscape:pageopacity="0.0"
     inkscape:pagecheckerboard="0"
     inkscape:deskcolor="#d1d1d1"
     inkscape:document-units="mm"
     showgrid="false" />
  <defs
     id="defs258" />
  <g
     inkscape:label="Layer 1"
     inkscape:groupmode="layer"
     id="layer1">
    <circle
       style="fill:#ffffff;fill-opacity:1;stroke-width:0;stroke-linejoin:bevel;paint-order:stroke fill markers"
       id="path434"
       cx="16.933332"
       cy="16.933332"
       r="16.933332" />
    <path
       id="Line_2"
       class="st0"
       d="m 16.540819,5.408693 h 9.224073 c 1.700893,0 3.074691,1.373799 3.074691,3.074691 v 0 c 0,1.700893 -1.373798,3.074691 -3.074691,3.074691 h -9.224073 c -1.700892,0 -3.074691,-1.373798 -3.074691,-3.074691 v 0 c 0.02181,-1.700892 1.395605,-3.074691 3.074691,-3.074691 z"
       style="fill:#0669f8;stroke-width:0.218063" />
    <path
       id="Line_1"
       class="st0"
       d="m 8.1017746,13.847739 h 9.2240724 c 1.700893,0 3.074691,1.373798 3.074691,3.074691 v 0 c 0,1.700893 -1.373798,3.074691 -3.074691,3.074691 H 8.1017746 c -1.7008929,0 -3.074691,-1.373798 -3.074691,-3.074691 v 0 c 0,-1.700893 1.3737981,-3.074691 3.074691,-3.074691 z"
       style="fill:#0669f8;stroke-width:0.218063" />
    <circle
       id="Dot_2"
       class="st0"
       cx="8.2326126"
       cy="8.3525457"
       r="3.2055287"
       style="fill:#0669f8;stroke-width:0.218063" />
    <circle
       id="Dark_Dot_3"
       class="st1"
       cx="25.634054"
       cy="16.791592"
       r="3.2055287"
       style="fill:#031625;stroke-width:0.218063" />
    <circle
       id="Dark_Dot_2"
       class="st1"
       cx="25.634054"
       cy="25.51412"
       r="3.2055287"
       style="fill:#031625;stroke-width:0.218063" />
    <circle
       id="Dark_Dot_1"
       class="st1"
       cx="16.933332"
       cy="25.51412"
       r="3.2055287"
       style="fill:#031625;stroke-width:0.218063" />
    <circle
       id="Dot_1"
       class="st0"
       cx="8.2326126"
       cy="25.51412"
       r="3.2055287"
       style="fill:#0669f8;stroke-width:0.218063" />
  </g>
</svg>
