<?xml version="1.0" encoding="UTF-8" standalone="no"?>
<!-- Created with Inkscape (http://www.inkscape.org/) -->

<svg
   width="127.99999"
   height="127.99999"
   viewBox="0 0 33.866664 33.866664"
   version="1.1"
   id="svg360"
   inkscape:export-filename="snob.png"
   inkscape:export-xdpi="96"
   inkscape:export-ydpi="96"
   xmlns:inkscape="http://www.inkscape.org/namespaces/inkscape"
   xmlns:sodipodi="http://sodipodi.sourceforge.net/DTD/sodipodi-0.dtd"
   xmlns="http://www.w3.org/2000/svg"
   xmlns:svg="http://www.w3.org/2000/svg">
  <sodipodi:namedview
     id="namedview362"
     pagecolor="#ffffff"
     bordercolor="#000000"
     borderopacity="0.25"
     inkscape:showpageshadow="2"
     inkscape:pageopacity="0.0"
     inkscape:pagecheckerboard="0"
     inkscape:deskcolor="#d1d1d1"
     inkscape:document-units="mm"
     showgrid="false"
     showguides="false" />
  <defs
     id="defs357">
    <clipPath
       id="clip0_546_418">
      <rect
         width="116.348"
         height="113.808"
         fill="#ffffff"
         transform="translate(0,0.275513)"
         id="rect86870"
         x="0"
         y="0" />
    </clipPath>
    <clipPath
       id="clip1_546_418">
      <rect
         width="116.348"
         height="113.808"
         fill="#ffffff"
         transform="translate(0,0.275513)"
         id="rect86873"
         x="0"
         y="0" />
    </clipPath>
  </defs>
  <g
     clip-path="url(#clip0_546_418)"
     id="g86866"
     transform="matrix(0.29108078,0,0,0.29757855,9.9794897e-8,-0.08198691)">
    <g
       clip-path="url(#clip1_546_418)"
       id="g86864">
      <path
         d="m 116.348,57.1793 c 0,31.4197 -26.053,56.9037 -58.1741,56.9037 -11.6347,0 -22.4928,-3.34 -31.5709,-9.117 C 10.583,94.8355 0,77.2183 0,57.1793 0,25.7595 26.0367,0.275513 58.1739,0.275513 c 27.2989,0 50.1961,18.392787 56.4751,43.196187 1.1,4.4004 1.699,8.9907 1.699,13.7076 z"
         fill="#47c2ff"
         id="path86842" />
      <path
         d="m 58.1739,110.68 c -30.163,0 -54.6948,-23.9962 -54.6948,-53.5007 0,-29.5045 24.5318,-53.50062 54.6948,-53.50062 30.1631,0 54.6951,23.99612 54.6951,53.50062 0,29.5045 -24.5482,53.5007 -54.6951,53.5007 z m 0,-104.51623 c -28.7552,0 -52.15425,22.88813 -52.15425,51.01553 0,28.1274 23.39905,51.0157 52.15425,51.0157 28.7553,0 52.1541,-22.8883 52.1541,-51.0157 0,-28.1274 -23.3988,-51.01553 -52.1541,-51.01553 z"
         fill="#ffffff"
         id="path86844" />
      <path
         d="m 112.869,57.1793 c 0,28.9663 -23.6582,52.6297 -53.0607,53.4687 -0.5502,0.016 -1.0842,0.032 -1.6344,0.032 -10.8256,0 -20.9232,-3.087 -29.4187,-8.421 0.9224,-0.411 1.8286,-0.839 2.6862,-1.282 20.4863,-10.4785 26.0691,-30.8816 43.2866,-46.5361 7.4599,-6.7746 17.525,-13.0427 31.425,-17.2531 0.809,-0.2374 1.618,-0.4749 2.444,-0.6965 2.605,6.0782 4.11,12.7104 4.239,19.675 0.017,0.3324 0.033,0.6806 0.033,1.013 z"
         fill="#ffffff"
         id="path86846" />
      <path
         d="m 24.645,76.7434 c -0.0809,0 -0.1456,-0.0317 -0.1941,-0.095 -0.081,-0.1108 -0.0648,-0.2691 0.0323,-0.3482 l 5.4371,-4.3687 c 0.1133,-0.095 0.2751,-0.0633 0.356,0.0316 0.0809,0.1108 0.0648,0.2691 -0.0323,0.3483 l -5.4371,4.3687 c -0.0486,0.0475 -0.0971,0.0633 -0.1619,0.0633 z"
         fill="#ffffff"
         id="path86848" />
      <path
         d="m 26.5545,92.6512 c -0.0809,0 -0.1456,-0.0317 -0.1942,-0.095 -0.0809,-0.1108 -0.0809,-0.2691 0.0324,-0.3482 L 39.1278,81.9985 c 0.1133,-0.0791 0.2751,-0.0633 0.356,0.0317 0.0809,0.1108 0.0809,0.2691 -0.0323,0.3482 L 26.7001,92.6037 c -0.0323,0.0316 -0.0971,0.0475 -0.1456,0.0475 z"
         fill="#ffffff"
         id="path86850" />
      <path
         d="m 46.3935,82.0301 c 1.4121,0 2.5567,-1.1196 2.5567,-2.5009 0,-1.3812 -1.1446,-2.5009 -2.5567,-2.5009 -1.412,0 -2.5567,1.1197 -2.5567,2.5009 0,1.3813 1.1447,2.5009 2.5567,2.5009 z"
         fill="#ffffff"
         id="path86852" />
      <path
         d="m 58.3843,75.1289 c 12.2169,0 22.1207,-9.6875 22.1207,-21.6376 0,-11.9502 -9.9038,-21.6377 -22.1207,-21.6377 -12.2169,0 -22.1207,9.6875 -22.1207,21.6377 0,11.9501 9.9038,21.6376 22.1207,21.6376 z"
         fill="#b5d1ee"
         id="path86854" />
      <path
         d="m 56.6043,73.3086 c 12.2169,0 22.1207,-9.6875 22.1207,-21.6377 0,-11.9501 -9.9038,-21.6376 -22.1207,-21.6376 -12.2169,0 -22.1207,9.6875 -22.1207,21.6376 0,11.9502 9.9038,21.6377 22.1207,21.6377 z"
         fill="#ffffff"
         id="path86856" />
      <path
         d="m 10.8904,79.8933 c -0.2265,0 -0.4369,-0.095 -0.5825,-0.2691 -0.2589,-0.3166 -0.2104,-0.7914 0.1132,-1.0447 L 28.3021,64.223 c 0.3237,-0.2533 0.8091,-0.2058 1.0681,0.1108 0.2589,0.3166 0.2103,0.7914 -0.1133,1.0447 L 11.3597,79.7192 c -0.1456,0.1266 -0.3075,0.1741 -0.4693,0.1741 z"
         fill="#ffffff"
         id="path86858" />
      <path
         d="m 18.6092,91.2741 c -0.2265,0 -0.4369,-0.095 -0.5826,-0.2691 -0.2589,-0.3166 -0.2103,-0.7915 0.1133,-1.0447 L 33.6098,77.5507 c 0.3237,-0.2533 0.8091,-0.2058 1.068,0.1108 0.2589,0.3165 0.2104,0.7914 -0.1132,1.0447 L 19.0947,91.0999 c -0.1457,0.1108 -0.3075,0.1742 -0.4855,0.1742 z"
         fill="#ffffff"
         id="path86860" />
      <path
         d="m 84.089,80.3599 c 3.6489,-3.2572 6.1739,-6.3176 5.6398,-6.8356 -0.5341,-0.5181 -3.925,1.7023 -7.5739,4.9594 -3.6488,3.2572 -6.1738,6.3176 -5.6397,6.8356 0.534,0.5181 3.925,-1.7023 7.5738,-4.9594 z"
         fill="#b5d1ee"
         id="path86862" />
    </g>
  </g>
</svg>
