<?xml version="1.0" encoding="UTF-8" standalone="no"?>
<svg
   width="128"
   height="128"
   viewBox="0 0 128 128"
   fill="none"
   version="1.1"
   id="svg14494"
   sodipodi:docname="Stargate_Token.svg"
   inkscape:export-filename="..\Tokens_128x128\stg.png"
   inkscape:export-xdpi="96"
   inkscape:export-ydpi="96"
   xmlns:inkscape="http://www.inkscape.org/namespaces/inkscape"
   xmlns:sodipodi="http://sodipodi.sourceforge.net/DTD/sodipodi-0.dtd"
   xmlns="http://www.w3.org/2000/svg"
   xmlns:svg="http://www.w3.org/2000/svg">
  <defs
     id="defs14498" />
  <sodipodi:namedview
     id="namedview14496"
     pagecolor="#ffffff"
     bordercolor="#000000"
     borderopacity="0.25"
     inkscape:showpageshadow="2"
     inkscape:pageopacity="0.0"
     inkscape:pagecheckerboard="0"
     inkscape:deskcolor="#d1d1d1"
     showgrid="false" />
  <path
     d="M 0,64 C 0,28.65376 28.65376,0 64,0 v 0 c 35.34624,0 64,28.65376 64,64 v 0 c 0,35.34624 -28.65376,64 -64,64 v 0 C 28.65376,128 0,99.34624 0,64 Z"
     fill="#000000"
     id="path14480"
     style="stroke-width:1.06667" />
  <path
     d="M 0,64 C 0,28.65376 28.65376,0 64,0 v 0 c 35.34624,0 64,28.65376 64,64 v 0 c 0,35.34624 -28.65376,64 -64,64 v 0 C 28.65376,128 0,99.34624 0,64 Z"
     fill="#000000"
     id="path14482"
     style="stroke-width:1.06667" />
  <path
     d="m 73.490133,16.9392 2.76928,6.48576 c 5.435094,12.734293 15.579627,22.87776 28.315417,28.31232 l 6.4865,2.769173 c 1.69707,0.72352 3.0752,1.761707 4.13974,2.997974 C 111.97013,34.346027 93.652267,16.027413 70.491627,12.8 c 1.234026,1.061227 2.274666,2.441707 2.998506,4.1392 z"
     fill="#a6a6a6"
     id="path14484"
     style="stroke-width:1.06667" />
  <path
     d="M 16.93952,54.506453 23.426133,51.73728 C 36.162027,46.302613 46.306027,36.159147 51.744,23.42496 L 54.5104,16.9392 C 55.237013,15.241707 56.275307,13.861227 57.509227,12.8 34.348267,16.027413 16.030293,34.346027 12.8,57.504427 c 1.063787,-1.236267 2.442133,-2.274454 4.139627,-2.997974 z"
     fill="#a6a6a6"
     id="path14486"
     style="stroke-width:1.06667" />
  <path
     d="m 111.06133,73.490987 -6.4865,2.769066 C 91.83904,81.694827 81.694507,91.840427 76.259413,104.57504 l -2.76928,6.48309 c -0.723946,1.69707 -1.76448,3.0784 -2.998506,4.14187 23.16064,-3.22987 41.478503,-21.548693 44.709443,-44.707307 -1.06454,1.236374 -2.44267,2.27456 -4.13974,2.998294 z"
     fill="#a6a6a6"
     id="path14488"
     style="stroke-width:1.06667" />
  <path
     d="m 54.510507,111.05813 -2.7664,-6.48309 C 46.306133,91.840427 36.162027,81.694827 23.426133,76.260053 L 16.939627,73.490987 C 15.242133,72.767147 13.86368,71.729067 12.8,70.492693 16.030293,93.651307 34.348267,111.97013 57.509227,115.2 c -1.23392,-1.06347 -2.272214,-2.4448 -2.998827,-4.14187 z"
     fill="#a6a6a6"
     id="path14490"
     style="stroke-width:1.06667" />
  <path
     d="m 41.12992,59.068373 3.09856,-1.323093 c 6.08256,-2.596693 10.929067,-7.440107 13.525867,-13.522133 l 1.321173,-3.098454 c 1.85248,-4.3392 8.005013,-4.3392 9.8576,0 l 1.320853,3.098454 c 2.597227,6.082026 7.44352,10.92544 13.52608,13.522133 l 3.098774,1.323093 c 4.339413,1.85248 4.339413,8.00192 0,9.8544 l -3.098774,1.3232 C 77.6976,72.842347 72.8512,77.68608 70.253973,83.77056 l -1.320853,3.095893 c -1.852587,4.338774 -8.00512,4.338774 -9.8576,0 L 57.754347,83.77056 C 55.157547,77.68608 50.31104,72.842347 44.22848,70.245973 l -3.09856,-1.3232 c -4.33984,-1.85248 -4.33984,-8.00192 0,-9.8544 z"
     fill="#ffffff"
     id="path14492"
     style="stroke-width:1.06667" />
</svg>
