<?xml version="1.0" encoding="UTF-8" standalone="no"?>
<!-- Created with Inkscape (http://www.inkscape.org/) -->

<svg
   width="127.99999"
   height="127.99999"
   viewBox="0 0 33.866664 33.866664"
   version="1.1"
   id="svg247"
   inkscape:export-filename="sushi.png"
   inkscape:export-xdpi="96"
   inkscape:export-ydpi="96"
   xmlns:inkscape="http://www.inkscape.org/namespaces/inkscape"
   xmlns:sodipodi="http://sodipodi.sourceforge.net/DTD/sodipodi-0.dtd"
   xmlns:xlink="http://www.w3.org/1999/xlink"
   xmlns="http://www.w3.org/2000/svg"
   xmlns:svg="http://www.w3.org/2000/svg">
  <sodipodi:namedview
     id="namedview249"
     pagecolor="#ffffff"
     bordercolor="#000000"
     borderopacity="0.25"
     inkscape:showpageshadow="2"
     inkscape:pageopacity="0.0"
     inkscape:pagecheckerboard="0"
     inkscape:deskcolor="#d1d1d1"
     inkscape:document-units="mm"
     showgrid="false" />
  <defs
     id="defs244">
    <clipPath
       id="SVGID_2_">
		<use
   xlink:href="#SVGID_1_"
   style="overflow:visible"
   id="use11309" />

	</clipPath>
    <linearGradient
       id="SVGID_3_"
       gradientUnits="userSpaceOnUse"
       x1="20.644199"
       y1="1011.5057"
       x2="24.3328"
       y2="998.83948"
       gradientTransform="matrix(1,0,0,-1,-12,1012)">
			<stop
   offset="0"
   style="stop-color:#03B8FF"
   id="stop11312" />

			<stop
   offset="1"
   style="stop-color:#FA52A0"
   id="stop11314" />

		</linearGradient>
    <linearGradient
       id="SVGID_4_"
       gradientUnits="userSpaceOnUse"
       x1="23.681801"
       y1="1012.3904"
       x2="27.370501"
       y2="999.72412"
       gradientTransform="matrix(1,0,0,-1,-12,1012)">
			<stop
   offset="0"
   style="stop-color:#03B8FF"
   id="stop11319" />

			<stop
   offset="1"
   style="stop-color:#FA52A0"
   id="stop11321" />

		</linearGradient>
    <linearGradient
       id="SVGID_5_"
       gradientUnits="userSpaceOnUse"
       x1="17.615999"
       y1="1010.6239"
       x2="21.304701"
       y2="997.95758"
       gradientTransform="matrix(1,0,0,-1,-12,1012)">
			<stop
   offset="0"
   style="stop-color:#03B8FF"
   id="stop11326" />

			<stop
   offset="1"
   style="stop-color:#FA52A0"
   id="stop11328" />

		</linearGradient>
    <rect
       id="SVGID_1_"
       width="24"
       height="24"
       x="0"
       y="0" />
  </defs>
  <g
     inkscape:label="Layer 1"
     inkscape:groupmode="layer"
     id="layer1">
    <circle
       style="display:inline;fill:#121e37;fill-opacity:1;stroke:none;stroke-width:4.50945;stroke-linejoin:bevel;stroke-opacity:1;paint-order:fill markers stroke"
       id="path420"
       cx="16.933332"
       cy="16.933332"
       r="16.933332" />
    <g
       id="g11347"
       transform="matrix(1.1051677,0,0,1.1051677,3.6384753,3.6302147)">
	<defs
   id="defs11307" />

	<clipPath
   id="clipPath11857">
		<use
   xlink:href="#SVGID_1_"
   style="overflow:visible"
   id="use11855" />

	</clipPath>

	<g
   class="st0"
   clip-path="url(#SVGID_2_)"
   id="g11345">
		
			<linearGradient
   id="linearGradient11863"
   gradientUnits="userSpaceOnUse"
   x1="20.644199"
   y1="1011.5057"
   x2="24.3328"
   y2="998.83948"
   gradientTransform="matrix(1,0,0,-1,-12,1012)">
			<stop
   offset="0"
   style="stop-color:#03B8FF"
   id="stop11859" />

			<stop
   offset="1"
   style="stop-color:#FA52A0"
   id="stop11861" />

		</linearGradient>

		<path
   class="st1"
   d="M 5,2.3 23.6,15 19,21.8 0.4,9 Z"
   id="path11317"
   style="fill:url(#SVGID_3_)" />

		
			<linearGradient
   id="linearGradient11870"
   gradientUnits="userSpaceOnUse"
   x1="23.681801"
   y1="1012.3904"
   x2="27.370501"
   y2="999.72412"
   gradientTransform="matrix(1,0,0,-1,-12,1012)">
			<stop
   offset="0"
   style="stop-color:#03B8FF"
   id="stop11866" />

			<stop
   offset="1"
   style="stop-color:#FA52A0"
   id="stop11868" />

		</linearGradient>

		<path
   class="st2"
   d="M 23.6,15 C 22,17.3 16.6,16.4 11.5,12.8 6.3,9.3 3.5,4.6 5,2.3 6.6,0 12,0.9 17.1,4.5 c 5.2,3.4 8,8.2 6.5,10.5 z"
   id="path11324"
   style="fill:url(#SVGID_4_)" />

		
			<linearGradient
   id="linearGradient11877"
   gradientUnits="userSpaceOnUse"
   x1="17.615999"
   y1="1010.6239"
   x2="21.304701"
   y2="997.95758"
   gradientTransform="matrix(1,0,0,-1,-12,1012)">
			<stop
   offset="0"
   style="stop-color:#03B8FF"
   id="stop11873" />

			<stop
   offset="1"
   style="stop-color:#FA52A0"
   id="stop11875" />

		</linearGradient>

		<path
   class="st3"
   d="M 19,21.7 C 17.4,24 12,23.1 6.9,19.5 1.8,15.9 -1.1,11.3 0.5,8.9 c 1.6,-2.3 7,-1.4 12.1,2.2 5.1,3.6 7.9,8.3 6.4,10.6 z"
   id="path11331"
   style="fill:url(#SVGID_5_)" />

		<path
   class="st4"
   d="m 23.6,15 c 0,0 0,0 0,0 L 19,21.8 v 0 C 17.4,24.1 12,23.1 6.9,19.6 5.9,18.9 5,18.2 4.1,17.4 c 0.7,-0.1 1.6,-0.5 2.5,-1.5 1.6,-1.7 2.4,-2.1 3.1,-2 0.7,0 1.5,0.7 2.8,2.4 1.3,1.7 3.1,2.2 4.2,1.3 0.1,-0.1 0.2,-0.1 0.3,-0.2 0.9,-0.7 1.2,-1 2.9,-4.2 0.4,-0.8 1.8,-2.1 3.7,-1.5 0.5,1.3 0.5,2.4 0,3.3 z"
   id="path11333"
   style="fill:#0e0f23" />

		<path
   class="st5"
   d="m 22.9,14.6 c -1.4,2 -6.3,1 -11,-2.3 C 7.1,9 4.3,4.8 5.7,2.8 c 1.4,-2 6.3,-1 11,2.3 4.7,3.3 7.5,7.5 6.2,9.5 z m -4.4,-3 c -0.7,1 -3.1,0.5 -5.5,-1.1 -2.3,-1.6 -3.7,-3.7 -3,-4.7 0.7,-1 3.1,-0.5 5.5,1.1 2.3,1.6 3.7,3.7 3,4.7 z"
   id="path11335"
   style="clip-rule:evenodd;fill:#ffffff;fill-rule:evenodd" />

		<path
   class="st6"
   d="M 4.6,4.6 C 4.6,4.5 4.5,4.4 4.4,4.5 4.3,4.6 4.2,4.6 4.2,4.7 4.3,5 4.4,5.2 4.4,5.4 c 0,0.1 0.1,0.2 0.2,0.1 0.1,0 0.2,-0.1 0.1,-0.2 0,-0.2 0,-0.4 -0.1,-0.7 z"
   id="path11337"
   style="fill:#ffffff" />

		<path
   class="st6"
   d="M 5.1,6.2 C 5.1,6.1 5,6 4.9,6.1 4.8,6.2 4.8,6.2 4.8,6.3 c 1.1,2.5 3.4,5.2 6.4,7.2 0.1,0.1 0.2,0 0.3,0 0.1,-0.1 0,-0.2 0,-0.3 -3.1,-2 -5.3,-4.6 -6.4,-7 z"
   id="path11339"
   style="fill:#ffffff" />

		<path
   class="st6"
   d="m 17.2,16 c -0.1,0 -0.2,0 -0.2,0.1 0,0.1 0,0.2 0.1,0.2 0.3,0.1 0.7,0.2 1,0.3 0.1,0 0.2,0 0.2,-0.1 0,-0.1 0,-0.2 -0.1,-0.2 -0.3,-0.1 -0.7,-0.2 -1,-0.3 z"
   id="path11341"
   style="fill:#ffffff" />

		<path
   class="st6"
   d="m 19,16.4 c -0.1,0 -0.2,0.1 -0.2,0.2 0,0.1 0.1,0.2 0.2,0.2 0.8,0.1 1.7,0.2 2.4,0.1 0.1,0 0.2,-0.1 0.2,-0.2 0,-0.1 -0.1,-0.2 -0.2,-0.2 -0.8,0.1 -1.6,0 -2.4,-0.1 z"
   id="path11343"
   style="fill:#ffffff" />

	</g>

</g>
  </g>
</svg>
