<?xml version="1.0" encoding="UTF-8" standalone="no"?>
<!-- Created with Inkscape (http://www.inkscape.org/) -->

<svg
   width="127.99999"
   height="127.99999"
   viewBox="0 0 33.866664 33.866664"
   version="1.1"
   id="svg360"
   inkscape:export-filename="teddy.png"
   inkscape:export-xdpi="96"
   inkscape:export-ydpi="96"
   xmlns:inkscape="http://www.inkscape.org/namespaces/inkscape"
   xmlns:sodipodi="http://sodipodi.sourceforge.net/DTD/sodipodi-0.dtd"
   xmlns:xlink="http://www.w3.org/1999/xlink"
   xmlns="http://www.w3.org/2000/svg"
   xmlns:svg="http://www.w3.org/2000/svg">
  <sodipodi:namedview
     id="namedview362"
     pagecolor="#ffffff"
     bordercolor="#000000"
     borderopacity="0.25"
     inkscape:showpageshadow="2"
     inkscape:pageopacity="0.0"
     inkscape:pagecheckerboard="0"
     inkscape:deskcolor="#d1d1d1"
     inkscape:document-units="mm"
     showgrid="false"
     showguides="false" />
  <defs
     id="defs357">
    <linearGradient
       inkscape:collect="always"
       id="linearGradient56811">
      <stop
         style="stop-color:#f4d3ae;stop-opacity:1;"
         offset="0"
         id="stop56807" />
      <stop
         style="stop-color:#fde78a;stop-opacity:1;"
         offset="0.2820738"
         id="stop58267" />
      <stop
         style="stop-color:#eef7fb;stop-opacity:1;"
         offset="0.51449919"
         id="stop58995" />
      <stop
         style="stop-color:#97d4e5;stop-opacity:1;"
         offset="0.82073814"
         id="stop56809" />
    </linearGradient>
    <linearGradient
       inkscape:collect="always"
       xlink:href="#linearGradient56811"
       id="linearGradient56813"
       x1="0"
       y1="33.866665"
       x2="33.866665"
       y2="0"
       gradientUnits="userSpaceOnUse" />
    <inkscape:path-effect
       effect="fill_between_many"
       method="originald"
       linkedpaths="#path56609,0,1"
       id="path-effect69467"
       is_visible="true"
       lpeversion="0"
       join="true"
       close="true"
       autoreverse="true" />
  </defs>
  <g
     inkscape:label="Layer 1"
     inkscape:groupmode="layer"
     id="layer1">
    <circle
       style="display:inline;fill:url(#linearGradient56813);fill-opacity:1;stroke-width:0.235053"
       id="path533"
       cx="16.933332"
       cy="16.933332"
       r="16.933332" />
    <g
       transform="matrix(0.00305281,0,0,-0.00305281,-1.2602091,33.187126)"
       fill="#000000"
       stroke="none"
       id="g56617">
      <path
         inkscape:original-d="M 0,0"
         inkscape:path-effect="#path-effect69467"
         d="m 4451,9650 c -393,-55 -709,-386 -762,-797 -32,-249 77,-572 260,-767 l 48,-51 -18,-105 c -56,-331 -16,-613 115,-806 37,-56 157,-174 169,-167 5,3 16,22 24,42 l 16,36 18,-40 c 9,-22 18,-43 18,-47 1,-4 -25,-12 -56,-18 -225,-45 -396,-140 -396,-220 0,-17 7,-38 16,-47 15,-15 8,-21 -96,-76 -383,-203 -680,-470 -919,-826 -137,-205 -294,-545 -305,-661 -4,-38 0,-52 27,-93 18,-26 45,-54 61,-62 33,-17 82,-19 109,-5 17,9 20,6 25,-27 18,-109 51,-210 104,-318 132,-271 325,-486 587,-656 100,-65 113,-77 108,-98 -7,-34 14,-88 43,-111 34,-26 76,-25 194,5 168,42 334,116 472,208 42,28 69,41 72,34 37,-122 52,-160 80,-216 19,-36 44,-82 56,-102 l 21,-35 -66,-92 c -252,-350 -576,-958 -685,-1287 -20,-60 -45,-122 -55,-137 -27,-40 -13,-79 52,-150 297,-322 1310,-892 1702,-958 278,-47 493,91 450,288 -14,61 -71,145 -127,185 -33,23 -43,37 -40,52 2,11 61,216 130,457 69,240 127,457 129,482 2,25 3,46 4,46 1,0 73,-43 160,-96 267,-160 496,-265 827,-379 148,-50 137,-49 304,-26 277,38 727,351 1003,696 135,169 287,434 330,572 30,97 27,204 -6,271 -79,158 -281,201 -438,93 l -44,-31 -44,24 c -42,23 -469,171 -639,221 l -87,26 28,67 c 77,181 119,401 127,652 9,297 -28,532 -138,864 -32,99 -59,184 -59,188 0,4 5,8 11,8 6,0 72,23 147,51 172,64 386,166 540,258 120,70 301,200 336,239 36,41 -2,122 -56,122 -37,0 -14,17 105,78 163,84 286,174 430,312 177,170 327,379 405,565 18,44 41,95 50,112 21,41 9,89 -53,220 -118,250 -365,510 -641,676 -100,60 -284,145 -359,165 l -70,19 3,34 c 5,58 -17,206 -45,292 -82,260 -261,465 -491,561 -256,107 -626,96 -916,-29 l -83,-36 -45,20 c -92,39 -519,174 -688,218 -316,81 -437,68 -332,-37 l 38,-38 -60,-7 c -34,-4 -106,-15 -162,-26 l -101,-19 -69,46 c -217,146 -557,228 -803,194 z"
         id="path69469"
         class="UnoptimicedTransforms"
         style="fill:#ffffff;fill-opacity:1" />
      <path
         d="m 4451,9650 c -393,-55 -709,-386 -762,-797 -32,-249 77,-572 260,-767 l 48,-51 -18,-105 c -56,-331 -16,-613 115,-806 37,-56 157,-174 169,-167 5,3 16,22 24,42 l 16,36 18,-40 c 9,-22 18,-43 18,-47 1,-4 -25,-12 -56,-18 -225,-45 -396,-140 -396,-220 0,-17 7,-38 16,-47 15,-15 8,-21 -96,-76 -383,-203 -680,-470 -919,-826 -137,-205 -294,-545 -305,-661 -4,-38 0,-52 27,-93 18,-26 45,-54 61,-62 33,-17 82,-19 109,-5 17,9 20,6 25,-27 18,-109 51,-210 104,-318 132,-271 325,-486 587,-656 100,-65 113,-77 108,-98 -7,-34 14,-88 43,-111 34,-26 76,-25 194,5 168,42 334,116 472,208 42,28 69,41 72,34 37,-122 52,-160 80,-216 19,-36 44,-82 56,-102 l 21,-35 -66,-92 c -252,-350 -576,-958 -685,-1287 -20,-60 -45,-122 -55,-137 -27,-40 -13,-79 52,-150 297,-322 1310,-892 1702,-958 278,-47 493,91 450,288 -14,61 -71,145 -127,185 -33,23 -43,37 -40,52 2,11 61,216 130,457 69,240 127,457 129,482 2,25 3,46 4,46 1,0 73,-43 160,-96 267,-160 496,-265 827,-379 148,-50 137,-49 304,-26 277,38 727,351 1003,696 135,169 287,434 330,572 30,97 27,204 -6,271 -79,158 -281,201 -438,93 l -44,-31 -44,24 c -42,23 -469,171 -639,221 l -87,26 28,67 c 77,181 119,401 127,652 9,297 -28,532 -138,864 -32,99 -59,184 -59,188 0,4 5,8 11,8 6,0 72,23 147,51 172,64 386,166 540,258 120,70 301,200 336,239 36,41 -2,122 -56,122 -37,0 -14,17 105,78 163,84 286,174 430,312 177,170 327,379 405,565 18,44 41,95 50,112 21,41 9,89 -53,220 -118,250 -365,510 -641,676 -100,60 -284,145 -359,165 l -70,19 3,34 c 5,58 -17,206 -45,292 -82,260 -261,465 -491,561 -256,107 -626,96 -916,-29 l -83,-36 -45,20 c -92,39 -519,174 -688,218 -316,81 -437,68 -332,-37 l 38,-38 -60,-7 c -34,-4 -106,-15 -162,-26 l -101,-19 -69,46 c -217,146 -557,228 -803,194 z m 180,-429 c 134,-50 136,-53 43,-85 -179,-63 -325,-164 -358,-246 -9,-23 -14,-45 -11,-50 3,-4 23,-6 45,-3 48,7 50,-2 9,-53 -44,-55 -128,-180 -160,-237 l -26,-48 -42,46 c -85,92 -125,236 -103,366 17,100 55,174 126,245 87,87 138,105 281,100 93,-3 123,-8 196,-35 z m 3031,-249 c 253,-124 289,-485 70,-700 -35,-35 -67,-60 -71,-55 -4,4 -23,46 -41,93 -18,47 -52,124 -76,172 -24,48 -44,90 -44,94 0,3 20,3 45,0 44,-7 45,-6 45,19 0,91 -156,248 -338,339 -30,15 -52,29 -50,31 2,3 40,14 84,25 60,15 106,19 194,17 108,-2 120,-4 182,-35 z M 5430,8738 c 53,-28 90,-90 90,-152 0,-61 -10,-70 -61,-61 -24,4 -91,10 -149,14 -98,6 -105,7 -108,28 -5,32 15,97 40,128 52,66 114,80 188,43 z m 1160,-130 c 53,-37 73,-71 78,-135 3,-47 0,-63 -16,-83 l -20,-24 -65,26 c -36,15 -95,30 -131,34 -36,4 -71,13 -77,20 -24,30 27,129 84,164 44,27 106,26 147,-2 z m 1733,-329 c 192,-62 334,-147 477,-285 140,-135 254,-310 321,-494 l 29,-82 -51,-91 c -29,-51 -74,-125 -101,-164 -186,-277 -529,-583 -782,-698 -104,-47 -119,-66 -111,-135 4,-30 14,-66 22,-79 19,-29 23,-26 -129,-117 -192,-114 -398,-211 -614,-290 l -92,-33 -87,212 c -103,248 -128,300 -187,389 l -45,66 55,43 c 72,58 191,185 210,226 20,43 28,42 36,-6 3,-22 10,-42 14,-45 13,-8 134,77 191,134 170,170 252,401 268,758 5,124 9,144 24,153 42,22 142,114 193,177 97,120 152,221 209,385 8,20 16,19 150,-24 z M 6055,8062 c 181,-39 312,-107 425,-221 129,-130 190,-281 190,-473 0,-112 -22,-193 -70,-263 -56,-81 -148,-143 -247,-165 -71,-16 -195,-13 -264,6 -102,29 -188,127 -201,228 -3,27 -1,29 70,47 215,55 362,192 362,339 -1,170 -128,241 -488,269 -276,22 -427,-31 -463,-161 -42,-156 71,-320 289,-420 37,-17 69,-32 70,-34 2,-1 -8,-26 -23,-56 -58,-116 -137,-162 -275,-162 -139,1 -245,40 -335,125 -95,90 -137,217 -116,355 47,316 264,537 588,599 107,20 365,13 488,-13 z M 5858,6957 c 61,-65 183,-121 289,-134 49,-5 53,-8 53,-32 0,-43 -46,-128 -98,-179 -61,-62 -176,-119 -259,-130 -235,-32 -474,137 -499,352 l -7,56 h 89 c 146,0 261,44 332,126 l 36,41 19,-36 c 11,-20 31,-49 45,-64 z M 4535,6684 c 237,-264 622,-482 979,-555 400,-81 850,-10 1219,195 l 97,54 123,-182 c 68,-99 127,-187 131,-194 4,-6 -25,4 -63,23 -199,100 -479,111 -696,26 -41,-16 -111,-53 -157,-84 -113,-75 -309,-254 -359,-329 -189,-277 -225,-635 -108,-1053 48,-168 144,-399 188,-449 15,-18 13,-18 -64,-10 -125,14 -224,11 -234,-5 -25,-40 13,-54 211,-76 148,-16 263,-37 327,-60 22,-8 141,-37 263,-65 608,-140 872,-217 1593,-466 61,-20 115,-39 120,-41 6,-1 17,-8 27,-15 27,-20 88,6 154,65 69,63 111,87 152,87 46,0 55,-20 50,-101 -5,-62 -14,-87 -81,-222 -123,-249 -240,-413 -432,-603 -136,-135 -320,-274 -491,-373 -71,-41 -141,-82 -157,-93 -27,-19 -27,-19 -90,11 -34,16 -107,43 -162,59 -297,89 -838,317 -1082,457 -370,212 -563,372 -1060,879 -301,308 -297,303 -333,445 -7,24 -25,58 -41,74 l -30,29 64,67 c 208,217 344,490 392,786 28,169 18,236 -45,307 -46,53 -103,80 -230,109 -61,14 -88,24 -83,32 4,7 21,30 38,52 85,107 235,363 235,401 0,27 -24,47 -47,40 -10,-3 -30,-26 -46,-50 -45,-72 -169,-207 -258,-280 -46,-38 -99,-83 -117,-100 l -33,-31 -182,-1 c -160,0 -193,-3 -272,-25 -82,-22 -90,-26 -90,-48 0,-27 -25,-21 355,-86 186,-33 414,-89 513,-127 89,-34 87,-30 61,-156 -86,-423 -350,-772 -720,-953 -61,-29 -243,-99 -260,-99 -1,0 -7,13 -14,29 -17,41 -44,63 -135,111 -179,93 -379,277 -500,460 -74,110 -176,304 -231,439 -26,61 -46,96 -59,101 -11,4 -29,17 -39,29 -18,20 -18,22 9,98 42,114 160,343 237,458 221,330 502,596 828,783 159,91 238,165 215,202 -12,19 155,73 277,89 35,5 66,9 69,10 3,0 37,-33 74,-75 z m 2225,-701 c 102,-34 175,-80 276,-176 155,-146 242,-298 268,-462 44,-284 47,-742 8,-965 -38,-211 -119,-445 -151,-436 -56,16 -362,80 -482,101 -152,25 -367,50 -535,60 l -100,7 -11,61 c -6,34 -31,117 -56,184 -42.0282,111.33 -71.8621,207.2672 -92.0044,300.5035 C 5860.0877,4772.7991 5850,4883.9647 5850,5015 c 0,242 35,416 125,620 43,97 58,118 121,181 180,177 438,242 664,167 z M 4860,3335 c 36,-24 85,-53 110,-65 25,-12 74,-46 110,-75 148,-119 487,-368 652,-479 l 177,-119 -26,-33 c -14,-19 -38,-73 -54,-121 -63,-188 -289,-971 -289,-1002 0,-36 45,-90 77,-92 10,-1 31,-2 47,-3 22,-1 36,-10 53,-35 47,-70 39,-121 -22,-147 -76,-31 -107,-22 -440,128 -322,146 -608,300 -871,471 -165,106 -469,318 -468,325 0,4 44,97 98,207 255,523 327,654 548,992 l 119,182 57,-46 c 31,-26 86,-65 122,-88 z"
         id="path56609"
         style="stroke:none;stroke-width:982.701;stroke-linecap:round;stroke-linejoin:bevel;stroke-dasharray:none;stroke-opacity:1;paint-order:stroke markers fill"
         sodipodi:nodetypes="ccccccccccccssccccccccccccsccsccccccccccssccccccccccccccsscccscccccccccccccccsccccccccccccccccscccccssscsscscccsccccccccccsccccccccccccccccccccccscccccccsccccccccccscccccccsccccscccccccccccccccccscccccccsccccccccccccccccccscccccccsccccscccccccccccccccccccccccssccccscccccsccccccccsccc"
         class="UnoptimicedTransforms" />
      <path
         d="m 8372,8040 c -102,-62 -56,-220 64,-220 37,0 51,6 82,34 34,32 37,39 36,87 0,47 -4,55 -37,85 -44,40 -94,45 -145,14 z"
         id="path56611" />
      <path
         d="m 8110,7739 c -36,-15 -69,-48 -93,-94 -29,-53 -31,-221 -5,-306 37,-119 143,-236 249,-275 97,-36 260,-14 390,51 86,44 124,116 99,189 -24,73 -95,95 -235,71 -143,-23 -190,-18 -222,24 -22,30 -26,100 -10,182 18,89 13,118 -26,144 -31,20 -114,28 -147,14 z"
         id="path56613" />
      <path
         d="m 8799,7687 c -62,-42 -76,-108 -36,-168 26,-39 84,-64 123,-55 15,4 42,22 61,41 27,27 33,41 33,75 0,52 -25,95 -66,115 -44,21 -75,19 -115,-8 z"
         id="path56615" />
    </g>
  </g>
</svg>
