<?xml version="1.0" encoding="UTF-8" standalone="no"?>
<svg
   width="128"
   height="128"
   viewBox="0 0 128 128"
   fill="none"
   version="1.1"
   id="svg103"
   sodipodi:docname="tus-token.79315e95.svg"
   inkscape:export-filename="..\Tokens_128x128\tus.png"
   inkscape:export-xdpi="96"
   inkscape:export-ydpi="96"
   xmlns:inkscape="http://www.inkscape.org/namespaces/inkscape"
   xmlns:sodipodi="http://sodipodi.sourceforge.net/DTD/sodipodi-0.dtd"
   xmlns="http://www.w3.org/2000/svg"
   xmlns:svg="http://www.w3.org/2000/svg">
  <sodipodi:namedview
     id="namedview105"
     pagecolor="#ffffff"
     bordercolor="#000000"
     borderopacity="0.25"
     inkscape:showpageshadow="2"
     inkscape:pageopacity="0.0"
     inkscape:pagecheckerboard="0"
     inkscape:deskcolor="#d1d1d1"
     showgrid="false" />
  <circle
     style="fill:#ffffff;fill-opacity:1;stroke-width:2.27516;stroke-linecap:square;paint-order:stroke fill markers"
     id="path449"
     cx="64"
     cy="64"
     r="64" />
  <path
     d="M 128,63.943 127.956,63.662 95.9472,9.8072798 C 73.814379,9.885173 51.06745,9.6839775 32.08,9.764 L 0.044,63.662 0,63.948001 32.047,117.8568 v -0.0108 l 63.9114,1e-4 h 0.0059 0.0107 z"
     fill="#e25100"
     id="path2"
     style="display:inline;stroke-width:5.33333"
     sodipodi:nodetypes="cccccccccccc" />
  <path
     d="m 82.445867,57.050881 h -8.2992 v -3.2368 h -3.32 v 21.038986 h 3.32 v 8.092267 h -20.472 v -8.092267 h 3.319466 V 53.814081 h -3.319466 v 3.2368 h -8.29968 v -11.3288 h 37.07088 z"
     fill="url(#paint0_linear_6530_439038)"
     id="path4"
     style="fill:url(#paint0_linear_6530_439038);stroke-width:5.33333" />
  <path
     d="M 74.978133,83.756534 H 52.846347 v -9.7104 H 56.1664 v -19.42096 h -1.660267 v 3.2368 H 44.54688 v -12.9472 h 38.730987 v 12.9472 H 73.3184 v -3.2368 h -1.659733 v 19.42096 h 3.319466 z m -20.472,-1.618667 H 73.3184 v -6.4736 h -3.32 V 53.006774 h 4.979733 v 3.2368 H 81.6176 v -9.7104 H 46.206773 v 9.7104 h 6.639574 v -3.2368 h 4.979786 v 22.657493 h -3.32 z"
     fill="#962700"
     id="path6"
     style="stroke-width:5.33333" />
  <path
     style="mix-blend-mode:overlay;fill:url(#paint1_linear_6530_439038);stroke-width:5.33333"
     opacity="0.5"
     d="M 44.162,97.321 24.331611,63.837089 44.162,30.347 83.822118,30.346955 103.653,63.837 83.822,97.321 Z"
     fill="url(#paint1_linear_6530_439038)"
     id="path8"
     sodipodi:nodetypes="ccccccc" />
  <path
     style="display:inline;mix-blend-mode:overlay;fill:url(#paint2_linear_6530_439038);stroke-width:5.33333"
     d="M 32.08,9.764 44.162,30.347 83.824721,30.338579 95.952592,9.8098361 Z"
     fill="url(#paint2_linear_6530_439038)"
     id="path10"
     sodipodi:nodetypes="ccccc" />
  <path
     style="mix-blend-mode:overlay;fill:url(#paint3_linear_6530_439038);stroke-width:5.33333"
     d="M 34.364587,10.149167 45.585493,28.232054 H 82.424 L 93.728,10.149167 Z"
     fill="url(#paint3_linear_6530_439038)"
     id="path12" />
  <g
     style="mix-blend-mode:multiply"
     opacity="0.24"
     id="g16"
     transform="matrix(5.3333333,0,0,5.3333333,-0.08838835,9.3555861)">
    <path
       d="M 18.012084,20.34289 15.733198,16.493515 H 8.2969479 L 6.024776,20.34267 Z"
       fill="#000000"
       id="path14"
       sodipodi:nodetypes="ccccc" />
  </g>
  <path
     style="mix-blend-mode:overlay;fill:url(#paint4_linear_6530_439038);stroke-width:5.33333"
     opacity="0.25"
     d="M 91.916267,116.69893 81.381333,99.420001 H 46.79488 L 36.177067,116.69893 Z"
     fill="url(#paint4_linear_6530_439038)"
     id="path18" />
  <path
     style="mix-blend-mode:overlay;fill:url(#paint5_linear_6530_439038);stroke-width:5.33333"
     d="M 0.044,63.662 24.327503,63.825489 44.162,30.347 32.08,9.764 Z"
     fill="url(#paint5_linear_6530_439038)"
     id="path20"
     sodipodi:nodetypes="ccccc" />
  <g
     style="mix-blend-mode:multiply"
     opacity="0.23"
     id="g24"
     transform="matrix(5.3333333,0,0,5.3333333,0.59129915,10.060472)">
    <path
       d="m 23.889132,10.102974 -4.565063,-0.01987 -3.718312,6.278245 2.278687,3.84938 z"
       fill="#000000"
       id="path22"
       sodipodi:nodetypes="ccccc" />
  </g>
  <path
     style="mix-blend-mode:overlay;fill:url(#paint6_linear_6530_439038);stroke-width:5.33333"
     d="M 125.4192,67.428534 103.91787,67.326134 86.322667,96.932001 97.0624,115.1336 Z"
     fill="url(#paint6_linear_6530_439038)"
     id="path26" />
  <g
     style="mix-blend-mode:multiply"
     opacity="0.1"
     id="g30"
     transform="matrix(5.3333333,0,0,5.3333333,-0.22097087,9.4881687)">
    <path
       d="M 6.0496352,20.318558 8.3218071,16.468656 4.6037672,10.190175 0.04223633,10.21143 Z"
       fill="#000000"
       id="path28"
       sodipodi:nodetypes="ccccc" />
  </g>
  <path
     style="mix-blend-mode:overlay;fill:url(#paint7_linear_6530_439038);stroke-width:5.33333"
     opacity="0.53"
     d="M 3.239584,67.428534 24.740747,67.326134 42.33008,96.932001 31.59056,115.1336 Z"
     fill="url(#paint7_linear_6530_439038)"
     id="path32" />
  <path
     style="mix-blend-mode:overlay;fill:url(#paint8_linear_6530_439038);stroke-width:5.33333"
     d="M 2.9166667,60.947681 24.41232,61.060961 42.0072,31.449707 31.26768,13.248123 Z"
     fill="url(#paint8_linear_6530_439038)"
     id="path34" />
  <path
     style="mix-blend-mode:overlay;fill:url(#paint9_linear_6530_439038);stroke-width:5.33333"
     d="M 95.951437,9.8171358 83.824086,30.349018 103.653,63.837 127.956,63.662 Z"
     fill="url(#paint9_linear_6530_439038)"
     id="path36"
     sodipodi:nodetypes="ccccc" />
  <path
     style="mix-blend-mode:overlay;fill:url(#paint10_linear_6530_439038);stroke-width:5.33333"
     d="M 125.08533,60.947681 103.58987,61.060961 85.994667,31.449707 96.7344,13.248123 Z"
     fill="url(#paint10_linear_6530_439038)"
     id="path38" />
  <path
     opacity="0.7"
     d="m 58.342933,37.633547 c -3.4304,1.623787 -13.04128,7.6712 -13.04128,7.6712 0,0 -10.861226,9.046827 -11.2264,9.392107 -0.365226,0.345227 12.69264,-7.70896 12.69264,-7.70896 z"
     fill="#ffffff"
     id="path40"
     style="stroke-width:5.33333" />
  <path
     opacity="0.7"
     d="m 34.739573,37.690827 c 2.821814,2.4384 11.464374,9.640267 11.464374,9.640267 0,0 11.558186,5.998827 11.884586,6.14448 0.09973,0.0432 -10.872053,-7.676587 -10.872053,-7.676587 z"
     fill="#ffffff"
     id="path42"
     style="stroke-width:5.33333" />
  <path
     d="m 48.27392,47.996747 c 1.776107,-2.228 6.777813,-1.818026 8.189013,-1.839573 h -1.3504 0.498134 0.852266 c -0.597333,-0.0097 -1.194133,-0.04928 -1.7872,-0.11872 0,0 -5.01856,-0.658133 -6.0864,-1.82336 -2.368106,-2.643413 -1.919946,-9.2896 -1.975306,-6.73792 -0.188107,8.631413 -8.814027,8.631413 -11.619254,8.68 h 1.438614 -0.243467 -1.184053 c 6.69488,0.183413 10.927626,0.156427 11.492,7.6712 0.17152,2.486933 -0.29328,-3.2368 1.776053,-5.831627 z"
     fill="#ffffff"
     id="path44"
     style="stroke-width:5.33333" />
  <defs
     id="defs101">
    <linearGradient
       id="paint0_linear_6530_439038"
       x1="8.5078096"
       y1="10.2338"
       x2="15.4586"
       y2="10.2338"
       gradientUnits="userSpaceOnUse"
       gradientTransform="matrix(5.3333333,0,0,5.3333333,0,9.7533337)">
      <stop
         stop-color="#FFE800"
         id="stop46" />
      <stop
         offset="0.83"
         stop-color="#D45900"
         id="stop48" />
    </linearGradient>
    <linearGradient
       id="paint1_linear_6530_439038"
       x1="4.4404302"
       y1="10.2296"
       x2="19.311636"
       y2="10.2296"
       gradientUnits="userSpaceOnUse"
       gradientTransform="matrix(5.3333333,0,0,5.3333333,0.64931795,9.279222)">
      <stop
         stop-color="white"
         id="stop51" />
      <stop
         offset="1"
         stop-color="white"
         id="stop53" />
    </linearGradient>
    <linearGradient
       id="paint2_linear_6530_439038"
       x1="1568.5"
       y1="197.183"
       x2="1568.5"
       y2="46.731602"
       gradientUnits="userSpaceOnUse"
       gradientTransform="matrix(5.3333333,0,0,5.3333333,-0.00390625,9.3749403)">
      <stop
         stop-color="white"
         id="stop56" />
      <stop
         offset="1"
         stop-color="white"
         id="stop58" />
    </linearGradient>
    <linearGradient
       id="paint3_linear_6530_439038"
       x1="860.83099"
       y1="103.791"
       x2="2055.04"
       y2="103.791"
       gradientUnits="userSpaceOnUse"
       gradientTransform="matrix(5.3333333,0,0,5.3333333,0,9.7533337)">
      <stop
         stop-color="white"
         id="stop61" />
      <stop
         offset="1"
         stop-color="white"
         id="stop63" />
    </linearGradient>
    <linearGradient
       id="paint4_linear_6530_439038"
       x1="843.28998"
       y1="649.61603"
       x2="1896.14"
       y2="649.61603"
       gradientUnits="userSpaceOnUse"
       gradientTransform="matrix(5.3333333,0,0,5.3333333,0,9.7533337)">
      <stop
         stop-color="white"
         id="stop66" />
      <stop
         offset="1"
         stop-color="white"
         id="stop68" />
    </linearGradient>
    <linearGradient
       id="paint5_linear_6530_439038"
       x1="-14558.4"
       y1="-925.41302"
       x2="-14096.7"
       y2="-1742.61"
       gradientUnits="userSpaceOnUse"
       gradientTransform="matrix(5.3333333,0,0,5.3333333,-0.02416747,9.3742103)">
      <stop
         stop-color="white"
         id="stop71" />
      <stop
         offset="1"
         stop-color="white"
         id="stop73" />
    </linearGradient>
    <linearGradient
       id="paint6_linear_6530_439038"
       x1="1474.4399"
       y1="1584.86"
       x2="1738.16"
       y2="722.112"
       gradientUnits="userSpaceOnUse"
       gradientTransform="matrix(5.3333333,0,0,5.3333333,0,9.7533337)">
      <stop
         stop-color="white"
         id="stop76" />
      <stop
         offset="1"
         stop-color="white"
         id="stop78" />
    </linearGradient>
    <linearGradient
       id="paint7_linear_6530_439038"
       x1="197.99001"
       y1="830.81201"
       x2="765.16199"
       y2="1727.33"
       gradientUnits="userSpaceOnUse"
       gradientTransform="matrix(5.3333333,0,0,5.3333333,0,9.7533337)">
      <stop
         stop-color="white"
         id="stop81" />
      <stop
         offset="1"
         stop-color="white"
         id="stop83" />
    </linearGradient>
    <linearGradient
       id="paint8_linear_6530_439038"
       x1="146.55"
       y1="573.513"
       x2="664.37701"
       y2="573.513"
       gradientUnits="userSpaceOnUse"
       gradientTransform="matrix(5.3333333,0,0,5.3333333,0,9.7533337)">
      <stop
         stop-color="white"
         id="stop86" />
      <stop
         offset="1"
         stop-color="white"
         id="stop88" />
    </linearGradient>
    <linearGradient
       id="paint9_linear_6530_439038"
       x1="7223.77"
       y1="11295.8"
       x2="7685.9399"
       y2="12113.8"
       gradientUnits="userSpaceOnUse"
       gradientTransform="matrix(5.3333333,0,0,5.3333333,0.0625,9.5033337)">
      <stop
         stop-color="white"
         id="stop91" />
      <stop
         offset="1"
         stop-color="white"
         id="stop93" />
    </linearGradient>
    <linearGradient
       id="paint10_linear_6530_439038"
       x1="1262.72"
       y1="573.513"
       x2="1780.47"
       y2="573.513"
       gradientUnits="userSpaceOnUse"
       gradientTransform="matrix(5.3333333,0,0,5.3333333,0,9.7533337)">
      <stop
         stop-color="white"
         id="stop96" />
      <stop
         offset="1"
         stop-color="white"
         id="stop98" />
    </linearGradient>
  </defs>
</svg>
