<?xml version="1.0" encoding="UTF-8" standalone="no"?>
<!-- Created with Inkscape (http://www.inkscape.org/) -->

<svg
   width="127.99999"
   height="127.99999"
   viewBox="0 0 33.866664 33.866664"
   version="1.1"
   id="svg23622"
   inkscape:export-filename="uni.png"
   inkscape:export-xdpi="96"
   inkscape:export-ydpi="96"
   xmlns:inkscape="http://www.inkscape.org/namespaces/inkscape"
   xmlns:sodipodi="http://sodipodi.sourceforge.net/DTD/sodipodi-0.dtd"
   xmlns="http://www.w3.org/2000/svg"
   xmlns:svg="http://www.w3.org/2000/svg">
  <sodipodi:namedview
     id="namedview23624"
     pagecolor="#ffffff"
     bordercolor="#000000"
     borderopacity="0.25"
     inkscape:showpageshadow="2"
     inkscape:pageopacity="0.0"
     inkscape:pagecheckerboard="0"
     inkscape:deskcolor="#d1d1d1"
     inkscape:document-units="mm"
     showgrid="false" />
  <defs
     id="defs23619" />
  <g
     inkscape:label="Layer 1"
     inkscape:groupmode="layer"
     id="layer1">
    <circle
       style="fill:#ffffff;fill-opacity:1;stroke-width:2.38842;stroke-linejoin:bevel;paint-order:fill markers stroke"
       id="path23795"
       cx="16.933332"
       cy="16.933332"
       r="16.933332" />
    <path
       class="st0"
       d="m 13.711378,9.3239383 c -0.223512,-0.031941 -0.234155,-0.042569 -0.127721,-0.053216 0.202223,-0.031941 0.670532,0.010647 1.000476,0.085147 0.766325,0.1809376 1.458144,0.6492467 2.192537,1.4687887 l 0.191579,0.22351 0.276729,-0.04257 c 1.181414,-0.191581 2.394759,-0.04257 3.405881,0.425734 0.276727,0.127721 0.713105,0.383161 0.766321,0.447023 0.02129,0.02128 0.05323,0.15965 0.07451,0.298013 0.07451,0.50024 0.04257,0.872757 -0.117076,1.160129 -0.08515,0.159651 -0.08515,0.202225 -0.03193,0.340586 0.04257,0.106435 0.170295,0.18094 0.287373,0.18094 0.25544,0 0.521524,-0.404449 0.649245,-0.968549 l 0.05321,-0.22351 0.09579,0.106433 c 0.542812,0.606673 0.968547,1.447499 1.032407,2.043528 l 0.02128,0.15965 -0.09579,-0.138365 C 23.226554,14.592413 23.077547,14.432762 22.875323,14.294399 22.513449,14.049601 22.130287,13.975098 21.119167,13.92188 20.203837,13.868655 19.68231,13.79416 19.171429,13.623867 18.29867,13.336494 17.85165,12.963977 16.819243,11.590981 16.361577,10.984309 16.074206,10.654365 15.786836,10.377636 15.158876,9.7709621 14.530916,9.4516613 13.711377,9.3239415 Z"
       id="path27188"
       style="fill:#ff007a;stroke-width:0.106434" />
    <path
       class="st0"
       d="m 21.640691,10.675647 c 0.02128,-0.404449 0.07451,-0.670533 0.191582,-0.9153303 0.04257,-0.095794 0.08515,-0.1809375 0.09579,-0.1809375 0.01065,0 -0.01064,0.074509 -0.04257,0.1596504 -0.08515,0.2341537 -0.09579,0.5640974 -0.04257,0.9366174 0.07451,0.478952 0.106434,0.542812 0.617316,1.064337 0.234153,0.244798 0.510881,0.553455 0.617315,0.681176 l 0.180937,0.234154 -0.180937,-0.170293 c -0.223511,-0.212869 -0.734392,-0.617316 -0.85147,-0.670533 -0.07451,-0.04257 -0.08515,-0.04257 -0.138364,0.01065 -0.04257,0.04257 -0.05322,0.106433 -0.05322,0.415092 -0.01065,0.478952 -0.07451,0.776967 -0.234154,1.085623 -0.08515,0.159651 -0.09579,0.127722 -0.02128,-0.05322 0.05322,-0.138364 0.06385,-0.202225 0.06385,-0.659889 0,-0.925974 -0.106433,-1.149484 -0.755679,-1.522003 -0.15965,-0.09579 -0.436377,-0.234155 -0.596028,-0.308659 -0.170294,-0.07451 -0.298014,-0.138363 -0.287371,-0.138363 0.02128,-0.02128 0.649246,0.159651 0.894043,0.266085 0.372519,0.149007 0.436378,0.159651 0.478952,0.149007 0.03193,-0.03193 0.05323,-0.117078 0.06385,-0.383162 z"
       id="path27190"
       style="fill:#ff007a;stroke-width:0.106434" />
    <path
       class="st0"
       d="m 14.147755,12.261509 c -0.447021,-0.617315 -0.734392,-1.57522 -0.670532,-2.2883257 l 0.02129,-0.2235116 0.106435,0.021294 c 0.191578,0.031931 0.521525,0.1596511 0.681175,0.2554423 0.425734,0.25544 0.617316,0.606672 0.798253,1.479428 0.05323,0.255443 0.127721,0.553456 0.159651,0.649245 0.05323,0.159652 0.25544,0.53217 0.425734,0.766326 0.117077,0.170293 0.04257,0.255439 -0.223511,0.234153 -0.404447,-0.04257 -0.947261,-0.415093 -1.298491,-0.894046 z"
       id="path27192"
       style="fill:#ff007a;stroke-width:0.106434" />
    <path
       class="st0"
       d="m 21.09788,16.891377 c -2.107389,-0.851469 -2.852425,-1.585863 -2.852425,-2.831136 0,-0.180939 0.01065,-0.329946 0.01065,-0.329946 0.01064,0 0.08515,0.06385 0.180938,0.138364 0.425734,0.340587 0.904686,0.489594 2.235109,0.681176 0.776965,0.117077 1.223987,0.202225 1.628436,0.340588 1.287848,0.425735 2.086102,1.298491 2.277681,2.479906 0.05323,0.340589 0.02128,0.989834 -0.06385,1.330422 -0.07451,0.266085 -0.28737,0.755679 -0.340588,0.766323 -0.01065,0 -0.03193,-0.05322 -0.03193,-0.138363 -0.02128,-0.447022 -0.244799,-0.872757 -0.617317,-1.202702 -0.447021,-0.383161 -1.021764,-0.670533 -2.42669,-1.234632 z"
       id="path27194"
       style="fill:#ff007a;stroke-width:0.106434" />
    <path
       class="st0"
       d="m 19.607807,17.242609 c -0.02128,-0.159651 -0.07451,-0.361876 -0.106433,-0.447021 l -0.05322,-0.15965 0.09579,0.117076 c 0.138365,0.15965 0.244798,0.351231 0.340589,0.617315 0.07451,0.202224 0.07451,0.266085 0.07451,0.596029 0,0.319301 -0.01065,0.393805 -0.07451,0.574743 -0.106435,0.287371 -0.234154,0.489595 -0.447022,0.713106 -0.383162,0.393805 -0.8834,0.606673 -1.596506,0.702463 -0.127721,0.01065 -0.489595,0.04257 -0.808896,0.06385 -0.798253,0.04257 -1.330423,0.12772 -1.809375,0.298015 -0.06385,0.02128 -0.12772,0.04257 -0.138363,0.03193 -0.02129,-0.02128 0.308656,-0.212867 0.574742,-0.340587 0.372517,-0.180938 0.755679,-0.276728 1.596506,-0.425735 0.415092,-0.06385 0.840827,-0.149008 0.94726,-0.191581 1.053694,-0.329944 1.575219,-1.149484 1.404926,-2.149962 z"
       id="path27196"
       style="fill:#ff007a;stroke-width:0.106434" />
    <path
       class="st0"
       d="m 20.576354,18.956192 c -0.276728,-0.606671 -0.340589,-1.181414 -0.19158,-1.724226 0.02128,-0.05322 0.04257,-0.106434 0.06385,-0.106434 0.02128,0 0.08515,0.03193 0.149008,0.07451 0.12772,0.08515 0.393805,0.234155 1.07498,0.606673 0.862113,0.468307 1.351709,0.830183 1.692298,1.245274 0.298014,0.361875 0.478952,0.776967 0.564096,1.287849 0.05323,0.28737 0.02128,0.97919 -0.05323,1.266562 -0.234154,0.904687 -0.766322,1.628436 -1.54329,2.043528 -0.117077,0.06385 -0.212867,0.106433 -0.223509,0.106433 -0.01065,0 0.03193,-0.106433 0.09579,-0.234154 0.255441,-0.542813 0.28737,-1.064338 0.09579,-1.649724 -0.117078,-0.361874 -0.361875,-0.798253 -0.85147,-1.532645 -0.585385,-0.85147 -0.72375,-1.074981 -0.872757,-1.383639 z"
       id="path27198"
       style="fill:#ff007a;stroke-width:0.106434" />
    <path
       class="st0"
       d="m 12.647039,22.213066 c 0.787611,-0.65989 1.756158,-1.128198 2.6502,-1.277205 0.383162,-0.06385 1.021764,-0.04257 1.372996,0.05322 0.564099,0.149006 1.074981,0.468308 1.341066,0.862112 0.25544,0.383162 0.372517,0.713106 0.489594,1.447499 0.04257,0.287372 0.09579,0.585385 0.106435,0.649246 0.08515,0.383162 0.25544,0.681176 0.468309,0.840828 0.329944,0.244797 0.904686,0.25544 1.468786,0.04257 0.09579,-0.03193 0.180936,-0.06385 0.180936,-0.05322 0.02128,0.02128 -0.266084,0.212867 -0.457665,0.308656 -0.266084,0.138366 -0.478951,0.180939 -0.766322,0.180939 -0.510883,0 -0.94726,-0.266085 -1.298492,-0.798254 -0.07451,-0.106434 -0.223511,-0.415092 -0.351231,-0.702462 -0.372519,-0.862114 -0.564099,-1.117556 -1.000478,-1.404926 -0.383161,-0.244797 -0.872758,-0.298014 -1.245275,-0.117077 -0.489595,0.234154 -0.617316,0.862112 -0.276727,1.245275 0.138364,0.15965 0.393804,0.287371 0.606671,0.3193 0.393804,0.05323 0.734393,-0.25544 0.734393,-0.649245 0,-0.255441 -0.09579,-0.404448 -0.351232,-0.521525 -0.340588,-0.149008 -0.713105,0.02128 -0.702463,0.35123 0,0.138365 0.06385,0.223511 0.202225,0.287372 0.08515,0.04257 0.08515,0.04257 0.02128,0.03193 -0.308657,-0.06385 -0.383162,-0.447022 -0.138363,-0.691818 0.298014,-0.298016 0.925973,-0.170296 1.13884,0.244796 0.08515,0.170295 0.09579,0.510882 0.02129,0.723749 -0.180938,0.46831 -0.691818,0.713107 -1.213346,0.574742 -0.351226,-0.09578 -0.500234,-0.191576 -0.925969,-0.627955 -0.745036,-0.766324 -1.032407,-0.91533 -2.096745,-1.074981 l -0.202225,-0.03193 z"
       id="path27200"
       style="fill:#ff007a;stroke-width:0.106434" />
    <path
       class="st1"
       d="m 7.0486241,5.0878747 c 2.4799057,3.0120753 6.3008789,7.6951603 6.4924589,7.9506023 0.159651,0.212867 0.09579,0.415089 -0.170294,0.564098 -0.149007,0.08515 -0.457664,0.170293 -0.606672,0.170293 -0.170294,0 -0.372519,-0.08515 -0.510882,-0.22351 -0.09579,-0.09579 -0.510882,-0.702463 -1.447499,-2.160605 -0.713107,-1.117555 -1.3197796,-2.0435285 -1.3304227,-2.0541716 -0.042568,-0.021294 -0.042568,-0.021294 1.2559187,2.2989696 0.819539,1.458142 1.085624,1.979667 1.085624,2.043527 0,0.138364 -0.04257,0.212867 -0.212868,0.404449 -0.28737,0.319301 -0.415091,0.681176 -0.510881,1.436855 -0.106434,0.840828 -0.393805,1.436857 -1.2133452,2.447976 -0.4789518,0.59603 -0.5534555,0.702464 -0.6705325,0.94726 -0.1490073,0.298015 -0.1915807,0.46831 -0.2128678,0.851472 -0.021284,0.404447 0.021284,0.659889 0.1383642,1.043049 0.1064339,0.340589 0.2235109,0.5641 0.5108811,1.000478 0.2447981,0.383161 0.3938052,0.670533 0.3938052,0.776967 0,0.08515 0.02128,0.08515 0.40445,0 0.915329,-0.212867 1.671009,-0.574742 2.0861,-1.021765 0.255442,-0.276729 0.319302,-0.425734 0.319302,-0.808896 0,-0.244797 -0.01064,-0.298015 -0.07451,-0.447022 -0.106434,-0.234154 -0.308659,-0.425735 -0.745038,-0.723749 -0.574741,-0.393806 -0.819539,-0.713107 -0.883399,-1.138842 -0.05323,-0.361874 0.01065,-0.606673 0.329944,-1.277204 0.329945,-0.691819 0.415092,-0.979192 0.468309,-1.681654 0.03193,-0.447022 0.08515,-0.627958 0.212868,-0.766323 0.138364,-0.149008 0.255441,-0.202224 0.585384,-0.244798 0.542813,-0.07451 0.894044,-0.212867 1.170773,-0.478952 0.244797,-0.223511 0.351231,-0.447021 0.361874,-0.776966 l 0.01065,-0.244798 -0.138364,-0.149007 C 13.647516,12.250867 6.7186794,4.6302096 6.6867494,4.6302096 c -0.010648,0 0.1596503,0.2022242 0.3618747,0.4576651 z M 10.31614,20.222754 c 0.117076,-0.202224 0.05323,-0.457664 -0.138364,-0.585385 -0.1809375,-0.117078 -0.4576646,-0.06385 -0.4576646,0.09579 0,0.04257 0.021294,0.08515 0.085147,0.106434 0.095794,0.05323 0.1064329,0.106434 0.031941,0.223512 -0.07451,0.117077 -0.07451,0.22351 0.021284,0.298013 0.1490076,0.117077 0.3512306,0.05322 0.4576656,-0.138363 z"
       id="path27202"
       style="clip-rule:evenodd;fill:#ff007a;fill-rule:evenodd;stroke-width:0.106434" />
    <path
       class="st1"
       d="m 14.626708,14.62434 c -0.255442,0.07451 -0.500239,0.351231 -0.574742,0.627958 -0.04257,0.170294 -0.02129,0.478952 0.05322,0.574742 0.117077,0.149007 0.22351,0.191581 0.521524,0.191581 0.585386,0 1.085625,-0.255442 1.138842,-0.564098 0.05323,-0.255442 -0.170295,-0.606674 -0.478951,-0.766325 -0.159651,-0.08515 -0.489596,-0.117077 -0.659891,-0.06385 z m 0.681175,0.532167 c 0.08515,-0.12772 0.05322,-0.266084 -0.106433,-0.361875 -0.287373,-0.180937 -0.723751,-0.03194 -0.723751,0.244798 0,0.138364 0.223511,0.287372 0.436378,0.287372 0.138365,0 0.329946,-0.08515 0.393806,-0.170295 z"
       id="path27204"
       style="clip-rule:evenodd;fill:#ff007a;fill-rule:evenodd;stroke-width:0.106434" />
  </g>
</svg>
