<?xml version="1.0" encoding="UTF-8" standalone="no"?>
<svg
   data-name="86977684-12db-4850-8f30-233a7c267d11"
   viewBox="0 0 128 128"
   version="1.1"
   id="svg1784"
   sodipodi:docname="usd-coin-usdc-logo.svg"
   width="128"
   height="128"
   inkscape:export-filename="..\All Crypto\usdc.png"
   inkscape:export-xdpi="96"
   inkscape:export-ydpi="96"
   xmlns:inkscape="http://www.inkscape.org/namespaces/inkscape"
   xmlns:sodipodi="http://sodipodi.sourceforge.net/DTD/sodipodi-0.dtd"
   xmlns="http://www.w3.org/2000/svg"
   xmlns:svg="http://www.w3.org/2000/svg">
  <defs
     id="defs1788" />
  <sodipodi:namedview
     id="namedview1786"
     pagecolor="#ffffff"
     bordercolor="#000000"
     borderopacity="0.25"
     inkscape:showpageshadow="2"
     inkscape:pageopacity="0.0"
     inkscape:pagecheckerboard="0"
     inkscape:deskcolor="#d1d1d1"
     showgrid="false" />
  <path
     d="M 64,128 C 99.46688,128 128,99.46688 128,64 128,28.53312 99.46688,0 64,0 28.53312,0 0,28.53312 0,64 c 0,35.46688 28.53312,64 64,64 z"
     fill="#2775ca"
     id="path1778"
     style="stroke-width:0.064" />
  <path
     d="M 81.6,74.13312 C 81.6,64.8 76,61.6 64.8,60.26688 c -8,-1.06688 -9.6,-3.2 -9.6,-6.93376 0,-3.73376 2.66688,-6.13312 8,-6.13312 4.8,0 7.46688,1.6 8.8,5.6 0.26688,0.8 1.06688,1.33312 1.86688,1.33312 h 4.26624 C 79.2,54.13312 80,53.33312 80,52.26688 V 52 C 78.93312,46.13312 74.13312,41.6 68,41.06688 v -6.4 C 68,33.6 67.2,32.8 65.86688,32.53312 h -4 c -1.06688,0 -1.86688,0.8 -2.13376,2.13376 V 40.8 c -8,1.06688 -13.06624,6.4 -13.06624,13.06688 0,8.8 5.33312,12.26624 16.53312,13.6 7.46688,1.33312 9.86688,2.93312 9.86688,7.2 0,4.26688 -3.73376,7.2 -8.8,7.2 -6.93376,0 -9.33376,-2.93376 -10.13376,-6.93376 -0.26624,-1.06624 -1.06624,-1.6 -1.86624,-1.6 h -4.53376 c -1.06624,0 -1.86624,0.8 -1.86624,1.86688 v 0.26688 C 46.93312,82.13312 51.2,86.93312 60,88.26688 v 6.4 c 0,1.06624 0.8,1.86624 2.13312,2.13312 h 4 C 67.2,96.8 68,96 68.26688,94.66688 v -6.4 C 76.26688,86.93312 81.6,81.33312 81.6,74.13312 Z"
     fill="#ffffff"
     id="path1780"
     style="stroke-width:0.064" />
  <path
     d="M 50.4,102.13312 C 29.6,94.66688 18.93312,71.46688 26.66688,50.93312 30.66688,39.73312 39.46688,31.2 50.4,27.2 51.46688,26.66688 52,25.86688 52,24.53312 V 20.8 c 0,-1.06688 -0.53312,-1.86688 -1.6,-2.13312 -0.26688,0 -0.8,0 -1.06688,0.26624 -25.33312,8 -39.2,34.93376 -31.2,60.26688 4.8,14.93312 16.26688,26.4 31.2,31.2 1.06688,0.53312 2.13376,0 2.4,-1.06688 C 52,109.06688 52,108.8 52,108.26688 v -3.73376 c 0,-0.8 -0.8,-1.86624 -1.6,-2.4 z m 28.26688,-83.2 C 77.6,18.4 76.53312,18.93312 76.26688,20 76,20.26688 76,20.53312 76,21.06688 V 24.8 c 0,1.06688 0.8,2.13312 1.6,2.66688 20.8,7.46624 31.46688,30.66624 23.73312,51.2 -4,11.2 -12.8,19.73312 -23.73312,23.73312 -1.06688,0.53312 -1.6,1.33312 -1.6,2.66688 V 108.8 c 0,1.06688 0.53312,1.86688 1.6,2.13312 0.26688,0 0.8,0 1.06688,-0.26624 25.33312,-8 39.2,-34.93376 31.2,-60.26688 -4.8,-15.2 -16.53376,-26.66688 -31.2,-31.46688 z"
     fill="#ffffff"
     id="path1782"
     style="stroke-width:0.064" />
</svg>
