<?xml version="1.0" encoding="UTF-8" standalone="no"?>
<!-- Created with Inkscape (http://www.inkscape.org/) -->

<svg
   width="127.99999"
   height="127.99999"
   viewBox="0 0 33.866664 33.866664"
   version="1.1"
   id="svg254"
   inkscape:export-filename="xava.svg"
   inkscape:export-xdpi="96"
   inkscape:export-ydpi="96"
   xmlns:inkscape="http://www.inkscape.org/namespaces/inkscape"
   xmlns:sodipodi="http://sodipodi.sourceforge.net/DTD/sodipodi-0.dtd"
   xmlns="http://www.w3.org/2000/svg"
   xmlns:svg="http://www.w3.org/2000/svg">
  <sodipodi:namedview
     id="namedview256"
     pagecolor="#ffffff"
     bordercolor="#000000"
     borderopacity="0.25"
     inkscape:showpageshadow="2"
     inkscape:pageopacity="0.0"
     inkscape:pagecheckerboard="0"
     inkscape:deskcolor="#d1d1d1"
     inkscape:document-units="mm"
     showgrid="false" />
  <defs
     id="defs251" />
  <g
     inkscape:label="Layer 1"
     inkscape:groupmode="layer"
     id="layer1">
    <circle
       style="fill:#ffffff;fill-opacity:1;stroke-width:0;stroke-linejoin:bevel;stroke-opacity:0.684597"
       id="path427"
       cx="16.933332"
       cy="16.933332"
       r="16.933332" />
    <path
       d="M 7.709954,5.9859287 2.4030687,17.133046 a 0.21608257,0.21608257 0 0 0 0.046299,0.252097 L 16.781987,31.119247 a 0.21865497,0.21865497 0 0 0 0.302687,0 L 31.417299,17.386 a 0.21608257,0.21608257 0 0 0 0.0463,-0.252096 L 26.156717,5.9867867 A 0.21436762,0.21436762 0 0 0 25.961214,5.8615957 H 7.9071719 A 0.21436762,0.21436762 0 0 0 7.709954,5.9859287 Z"
       style="fill:#50af95;fill-rule:evenodd;stroke-width:0.085747"
       id="path14306" />
    <path
       d="m 18.774753,18.277769 v 0 c -0.102894,0.0077 -0.634528,0.03945 -1.82041,0.03945 -0.943218,0 -1.612902,-0.02829 -1.847849,-0.03945 v 0 c -3.645107,-0.160347 -6.3658614,-0.794874 -6.3658614,-1.554594 0,-0.759718 2.7207544,-1.39339 6.3658614,-1.556309 v 2.478947 c 0.238377,0.01715 0.920923,0.05745 1.864141,0.05745 1.131861,0 1.698649,-0.04716 1.800688,-0.0566 v -2.47809 c 3.63739,0.162062 6.352142,0.796591 6.352142,1.554594 0,0.758005 -2.713894,1.392532 -6.352142,1.553737 v 0 z m 0,-3.365571 v -2.218277 h 5.076226 V 9.3111991 h -13.82071 v 3.3827219 h 5.075368 v 2.217419 c -4.125291,0.189501 -7.2276195,1.00667 -7.2276195,1.985901 0,0.979232 3.1023285,1.795544 7.2276195,1.985902 v 7.10843 h 3.668258 v -7.111002 c 4.115859,-0.189501 7.213042,-1.005812 7.213042,-1.984187 0,-0.978374 -3.09461,-1.794686 -7.213042,-1.985044 v 0 z m 0,0 z"
       style="fill:#ffffff;fill-rule:evenodd;stroke-width:0.085747"
       id="path14308" />
  </g>
</svg>
