<?xml version="1.0" encoding="UTF-8" standalone="no"?>
<!-- Created with Inkscape (http://www.inkscape.org/) -->

<svg
   width="127.99999"
   height="127.99999"
   viewBox="0 0 33.866664 33.866664"
   version="1.1"
   id="svg23622"
   inkscape:export-filename="lunc.svg"
   inkscape:export-xdpi="96"
   inkscape:export-ydpi="96"
   xmlns:inkscape="http://www.inkscape.org/namespaces/inkscape"
   xmlns:sodipodi="http://sodipodi.sourceforge.net/DTD/sodipodi-0.dtd"
   xmlns:xlink="http://www.w3.org/1999/xlink"
   xmlns="http://www.w3.org/2000/svg"
   xmlns:svg="http://www.w3.org/2000/svg">
  <sodipodi:namedview
     id="namedview23624"
     pagecolor="#ffffff"
     bordercolor="#000000"
     borderopacity="0.25"
     inkscape:showpageshadow="2"
     inkscape:pageopacity="0.0"
     inkscape:pagecheckerboard="0"
     inkscape:deskcolor="#d1d1d1"
     inkscape:document-units="mm"
     showgrid="false" />
  <defs
     id="defs23619">
    <linearGradient
       id="b"
       x1="20.950001"
       x2="73.169998"
       y1="68.260002"
       y2="68.260002"
       gradientUnits="userSpaceOnUse">
      <stop
         offset="0"
         stop-color="#600000"
         id="stop45890" />
      <stop
         offset=".33"
         stop-color="#630000"
         id="stop45892" />
      <stop
         offset=".59"
         stop-color="#6d0000"
         id="stop45894" />
      <stop
         offset=".83"
         stop-color="#7e0000"
         id="stop45896" />
      <stop
         offset="1"
         stop-color="#8f0000"
         id="stop45898" />
    </linearGradient>
    <linearGradient
       id="c"
       x1="47.060001"
       x2="47.060001"
       y1="63.549999"
       y2="72.980003"
       gradientUnits="userSpaceOnUse">
      <stop
         offset=".35"
         stop-color="#bf1010"
         id="stop45901" />
      <stop
         offset=".65"
         stop-color="#bd1010"
         id="stop45903" />
      <stop
         offset=".75"
         stop-color="#b60f0f"
         id="stop45905" />
      <stop
         offset=".83"
         stop-color="#ab0d0d"
         id="stop45907" />
      <stop
         offset=".89"
         stop-color="#9a0a0a"
         id="stop45909" />
      <stop
         offset=".94"
         stop-color="#840606"
         id="stop45911" />
      <stop
         offset=".99"
         stop-color="#690202"
         id="stop45913" />
      <stop
         offset="1"
         stop-color="#600000"
         id="stop45915" />
    </linearGradient>
    <linearGradient
       id="d"
       x1="20.950001"
       x2="79.099998"
       y1="58.169998"
       y2="58.169998"
       gradientUnits="userSpaceOnUse">
      <stop
         offset=".38"
         stop-opacity=".06"
         id="stop45918" />
      <stop
         offset="1"
         stop-opacity="0"
         id="stop45920" />
    </linearGradient>
    <linearGradient
       id="e"
       x1="20.950001"
       x2="78.709999"
       y1="58.029999"
       y2="58.029999"
       gradientUnits="userSpaceOnUse">
      <stop
         offset=".38"
         stop-opacity=".13"
         id="stop45923" />
      <stop
         offset="1"
         stop-opacity="0"
         id="stop45925" />
    </linearGradient>
    <linearGradient
       id="f"
       x1="20.950001"
       x2="78.309998"
       y1="57.880001"
       y2="57.880001"
       gradientUnits="userSpaceOnUse">
      <stop
         offset=".38"
         stop-opacity=".19"
         id="stop45928" />
      <stop
         offset="1"
         stop-opacity="0"
         id="stop45930" />
    </linearGradient>
    <linearGradient
       id="g"
       x1="20.950001"
       x2="77.919998"
       y1="57.740002"
       y2="57.740002"
       gradientUnits="userSpaceOnUse">
      <stop
         offset=".38"
         stop-opacity=".25"
         id="stop45933" />
      <stop
         offset="1"
         stop-opacity="0"
         id="stop45935" />
    </linearGradient>
    <linearGradient
       id="h"
       x1="20.950001"
       x2="77.519997"
       y1="57.59"
       y2="57.59"
       gradientUnits="userSpaceOnUse">
      <stop
         offset=".38"
         stop-opacity=".31"
         id="stop45938" />
      <stop
         offset="1"
         stop-opacity="0"
         id="stop45940" />
    </linearGradient>
    <linearGradient
       id="i"
       x1="20.950001"
       x2="77.129997"
       y1="57.450001"
       y2="57.450001"
       gradientUnits="userSpaceOnUse">
      <stop
         offset=".38"
         stop-opacity=".38"
         id="stop45943" />
      <stop
         offset="1"
         stop-opacity="0"
         id="stop45945" />
    </linearGradient>
    <linearGradient
       id="j"
       x1="20.950001"
       x2="76.730003"
       y1="57.299999"
       y2="57.299999"
       gradientUnits="userSpaceOnUse">
      <stop
         offset=".38"
         stop-opacity=".44"
         id="stop45948" />
      <stop
         offset="1"
         stop-opacity="0"
         id="stop45950" />
    </linearGradient>
    <linearGradient
       id="k"
       x1="20.950001"
       x2="76.339996"
       y1="57.16"
       y2="57.16"
       gradientUnits="userSpaceOnUse">
      <stop
         offset=".38"
         stop-opacity=".5"
         id="stop45953" />
      <stop
         offset="1"
         stop-opacity="0"
         id="stop45955" />
    </linearGradient>
    <linearGradient
       id="l"
       x1="20.950001"
       x2="75.940002"
       y1="57.02"
       y2="57.02"
       gradientUnits="userSpaceOnUse">
      <stop
         offset=".38"
         stop-opacity=".56"
         id="stop45958" />
      <stop
         offset="1"
         stop-opacity="0"
         id="stop45960" />
    </linearGradient>
    <linearGradient
       id="m"
       x1="20.950001"
       x2="75.550003"
       y1="56.869999"
       y2="56.869999"
       gradientUnits="userSpaceOnUse">
      <stop
         offset=".38"
         stop-opacity=".63"
         id="stop45963" />
      <stop
         offset="1"
         stop-opacity="0"
         id="stop45965" />
    </linearGradient>
    <linearGradient
       id="n"
       x1="20.950001"
       x2="75.150002"
       y1="56.73"
       y2="56.73"
       gradientUnits="userSpaceOnUse">
      <stop
         offset=".38"
         stop-opacity=".69"
         id="stop45968" />
      <stop
         offset="1"
         stop-opacity="0"
         id="stop45970" />
    </linearGradient>
    <linearGradient
       id="o"
       x1="20.950001"
       x2="74.75"
       y1="56.59"
       y2="56.59"
       gradientUnits="userSpaceOnUse">
      <stop
         offset=".38"
         stop-opacity=".75"
         id="stop45973" />
      <stop
         offset="1"
         stop-opacity="0"
         id="stop45975" />
    </linearGradient>
    <linearGradient
       id="p"
       x1="20.950001"
       x2="74.360001"
       y1="56.450001"
       y2="56.450001"
       gradientUnits="userSpaceOnUse">
      <stop
         offset=".38"
         stop-opacity=".81"
         id="stop45978" />
      <stop
         offset="1"
         stop-opacity="0"
         id="stop45980" />
    </linearGradient>
    <linearGradient
       id="q"
       x1="20.950001"
       x2="73.959999"
       y1="56.310001"
       y2="56.310001"
       gradientUnits="userSpaceOnUse">
      <stop
         offset=".38"
         stop-opacity=".88"
         id="stop45983" />
      <stop
         offset="1"
         stop-opacity="0"
         id="stop45985" />
    </linearGradient>
    <linearGradient
       id="r"
       x1="20.950001"
       x2="73.57"
       y1="56.18"
       y2="56.18"
       gradientUnits="userSpaceOnUse">
      <stop
         offset=".38"
         stop-opacity=".94"
         id="stop45988" />
      <stop
         offset="1"
         stop-opacity="0"
         id="stop45990" />
    </linearGradient>
    <linearGradient
       id="s"
       x1="20.950001"
       x2="73.169998"
       y1="56.049999"
       y2="56.049999"
       gradientUnits="userSpaceOnUse">
      <stop
         offset=".38"
         id="stop45993" />
      <stop
         offset="1"
         stop-opacity="0"
         id="stop45995" />
    </linearGradient>
    <linearGradient
       id="t"
       x1="20.950001"
       x2="73.169998"
       y1="52.41"
       y2="52.41"
       gradientUnits="userSpaceOnUse">
      <stop
         offset="0"
         stop-color="#bf1010"
         id="stop45998" />
      <stop
         offset=".02"
         stop-color="#c11212"
         id="stop46000" />
      <stop
         offset=".24"
         stop-color="#d22323"
         id="stop46002" />
      <stop
         offset=".49"
         stop-color="#dc2d2d"
         id="stop46004" />
      <stop
         offset=".79"
         stop-color="#df3030"
         id="stop46006" />
      <stop
         offset=".84"
         stop-color="#dc2e2e"
         id="stop46008" />
      <stop
         offset=".88"
         stop-color="#d22626"
         id="stop46010" />
      <stop
         offset=".92"
         stop-color="#c11919"
         id="stop46012" />
      <stop
         offset=".95"
         stop-color="#a90808"
         id="stop46014" />
      <stop
         offset=".97"
         stop-color="#9f0000"
         id="stop46016" />
      <stop
         offset="1"
         stop-color="#df3030"
         id="stop46018" />
    </linearGradient>
    <linearGradient
       id="a"
       x1="20.950001"
       x2="73.169998"
       y1="47.07"
       y2="47.07"
       gradientUnits="userSpaceOnUse">
      <stop
         offset="0"
         stop-color="#dfdfdf"
         id="stop46021" />
      <stop
         offset=".02"
         stop-color="#e1e1e1"
         id="stop46023" />
      <stop
         offset=".24"
         stop-color="#f2f2f2"
         id="stop46025" />
      <stop
         offset=".49"
         stop-color="#fcfcfc"
         id="stop46027" />
      <stop
         offset=".79"
         stop-color="#fff"
         id="stop46029" />
      <stop
         offset=".84"
         stop-color="#fcfcfc"
         id="stop46031" />
      <stop
         offset=".88"
         stop-color="#f2f2f2"
         id="stop46033" />
      <stop
         offset=".92"
         stop-color="#e1e1e1"
         id="stop46035" />
      <stop
         offset=".95"
         stop-color="#c9c9c9"
         id="stop46037" />
      <stop
         offset=".97"
         stop-color="#bfbfbf"
         id="stop46039" />
      <stop
         offset="1"
         stop-color="#fff"
         id="stop46041" />
    </linearGradient>
    <linearGradient
       xlink:href="#a"
       id="u"
       x1="20.950001"
       x2="73.169998"
       y1="60.459999"
       y2="60.459999" />
    <linearGradient
       xlink:href="#a"
       id="v"
       x1="20.950001"
       x2="73.169998"
       y1="65.809998"
       y2="65.809998" />
    <linearGradient
       id="w"
       x1="20.950001"
       x2="73.169998"
       y1="46.209999"
       y2="46.209999"
       gradientUnits="userSpaceOnUse">
      <stop
         offset="0"
         stop-color="#00209f"
         id="stop46046" />
      <stop
         offset=".02"
         stop-color="#0222a1"
         id="stop46048" />
      <stop
         offset=".24"
         stop-color="#1333b2"
         id="stop46050" />
      <stop
         offset=".49"
         stop-color="#1d3dbc"
         id="stop46052" />
      <stop
         offset=".79"
         stop-color="#2040bf"
         id="stop46054" />
      <stop
         offset=".84"
         stop-color="#1e3dbc"
         id="stop46056" />
      <stop
         offset=".88"
         stop-color="#1933b2"
         id="stop46058" />
      <stop
         offset=".92"
         stop-color="#1122a1"
         id="stop46060" />
      <stop
         offset=".95"
         stop-color="#050a89"
         id="stop46062" />
      <stop
         offset=".97"
         stop-color="#00007f"
         id="stop46064" />
      <stop
         offset="1"
         stop-color="#2040bf"
         id="stop46066" />
    </linearGradient>
    <linearGradient
       xlink:href="#a"
       id="x"
       x1="20.950001"
       x2="73.169998"
       y1="39.599998"
       y2="39.599998" />
    <linearGradient
       xlink:href="#a"
       id="y"
       x1="20.950001"
       x2="73.169998"
       y1="48.849998"
       y2="48.849998" />
    <linearGradient
       xlink:href="#a"
       id="z"
       x1="20.950001"
       x2="73.169998"
       y1="52.580002"
       y2="52.580002" />
    <linearGradient
       xlink:href="#a"
       id="A"
       x1="20.950001"
       x2="73.169998"
       y1="47.080002"
       y2="47.080002" />
    <linearGradient
       xlink:href="#a"
       id="B"
       x1="20.950001"
       x2="73.169998"
       y1="50.810001"
       y2="50.810001" />
    <linearGradient
       xlink:href="#a"
       id="C"
       x1="20.950001"
       x2="73.169998"
       y1="43.34"
       y2="43.34" />
    <linearGradient
       xlink:href="#a"
       id="D"
       x1="20.950001"
       x2="73.18"
       y1="52.279999"
       y2="52.279999" />
    <linearGradient
       xlink:href="#a"
       id="E"
       x1="20.950001"
       x2="73.169998"
       y1="45.110001"
       y2="45.110001" />
    <linearGradient
       xlink:href="#a"
       id="F"
       x1="20.950001"
       x2="73.169998"
       y1="50.580002"
       y2="50.580002" />
    <linearGradient
       xlink:href="#a"
       id="G"
       x1="20.950001"
       x2="73.169998"
       y1="54.32"
       y2="54.32" />
    <linearGradient
       xlink:href="#a"
       id="H"
       x1="20.950001"
       x2="73.169998"
       y1="41.369999"
       y2="41.369999" />
    <linearGradient
       xlink:href="#a"
       id="I"
       x1="20.950001"
       x2="73.169998"
       y1="46.84"
       y2="46.84" />
    <linearGradient
       xlink:href="#a"
       id="J"
       x1="20.950001"
       x2="73.169998"
       y1="54.549999"
       y2="54.549999" />
    <linearGradient
       xlink:href="#a"
       id="K"
       x1="20.950001"
       x2="73.18"
       y1="47.189999"
       y2="47.189999" />
    <linearGradient
       xlink:href="#a"
       id="L"
       x1="20.950001"
       x2="73.18"
       y1="43.450001"
       y2="43.450001" />
    <linearGradient
       xlink:href="#a"
       id="M"
       x1="20.950001"
       x2="73.160004"
       y1="54.669998"
       y2="54.669998" />
    <linearGradient
       xlink:href="#a"
       id="N"
       x1="20.950001"
       x2="73.169998"
       y1="43.110001"
       y2="43.110001" />
    <linearGradient
       xlink:href="#a"
       id="O"
       x1="20.950001"
       x2="73.169998"
       y1="39.369999"
       y2="39.369999" />
    <linearGradient
       xlink:href="#a"
       id="P"
       x1="20.950001"
       x2="73.169998"
       y1="50.93"
       y2="50.93" />
    <linearGradient
       xlink:href="#a"
       id="Q"
       x1="20.950001"
       x2="73.169998"
       y1="41.540001"
       y2="41.540001" />
    <linearGradient
       xlink:href="#a"
       id="R"
       x1="20.950001"
       x2="73.169998"
       y1="45.279999"
       y2="45.279999" />
    <linearGradient
       xlink:href="#a"
       id="S"
       x1="20.950001"
       x2="73.169998"
       y1="52.75"
       y2="52.75" />
    <linearGradient
       xlink:href="#a"
       id="T"
       x1="20.950001"
       x2="73.169998"
       y1="49.02"
       y2="49.02" />
    <linearGradient
       xlink:href="#a"
       id="U"
       x1="20.950001"
       x2="73.18"
       y1="39.709999"
       y2="39.709999" />
    <linearGradient
       xlink:href="#a"
       id="V"
       x1="20.950001"
       x2="73.18"
       y1="48.540001"
       y2="48.540001" />
    <linearGradient
       xlink:href="#a"
       id="W"
       x1="20.959999"
       x2="73.169998"
       y1="47.599998"
       y2="47.599998" />
    <linearGradient
       xlink:href="#a"
       id="X"
       x1="20.959999"
       x2="73.169998"
       y1="43.860001"
       y2="43.860001" />
    <linearGradient
       xlink:href="#a"
       id="Y"
       x1="20.959999"
       x2="73.169998"
       y1="51.34"
       y2="51.34" />
    <linearGradient
       xlink:href="#a"
       id="Z"
       x1="20.950001"
       x2="73.18"
       y1="42.259998"
       y2="42.259998" />
    <linearGradient
       xlink:href="#a"
       id="aa"
       x1="20.959999"
       x2="73.169998"
       y1="40.119999"
       y2="40.119999" />
    <linearGradient
       xlink:href="#a"
       id="ab"
       x1="20.950001"
       x2="73.18"
       y1="38.529999"
       y2="38.529999" />
    <linearGradient
       xlink:href="#a"
       id="ac"
       x1="20.950001"
       x2="73.169998"
       y1="45.439999"
       y2="45.439999" />
    <linearGradient
       xlink:href="#a"
       id="ad"
       x1="20.950001"
       x2="73.169998"
       y1="41.700001"
       y2="41.700001" />
    <linearGradient
       xlink:href="#a"
       id="ae"
       x1="20.950001"
       x2="73.169998"
       y1="52.919998"
       y2="52.919998" />
    <linearGradient
       xlink:href="#a"
       id="af"
       x1="20.950001"
       x2="73.169998"
       y1="37.959999"
       y2="37.959999" />
    <linearGradient
       xlink:href="#a"
       id="ag"
       x1="20.950001"
       x2="73.169998"
       y1="49.18"
       y2="49.18" />
    <linearGradient
       xlink:href="#a"
       id="ah"
       x1="20.950001"
       x2="73.18"
       y1="46"
       y2="46" />
    <linearGradient
       xlink:href="#a"
       id="ai"
       x1="20.950001"
       x2="73.18"
       y1="41.07"
       y2="41.07" />
    <linearGradient
       xlink:href="#a"
       id="aj"
       x1="20.950001"
       x2="73.169998"
       y1="50.209999"
       y2="50.209999" />
    <linearGradient
       xlink:href="#a"
       id="ak"
       x1="20.950001"
       x2="73.18"
       y1="49.740002"
       y2="49.740002" />
    <linearGradient
       xlink:href="#a"
       id="al"
       x1="20.950001"
       x2="73.169998"
       y1="42.73"
       y2="42.73" />
    <linearGradient
       xlink:href="#a"
       id="am"
       x1="20.950001"
       x2="73.169998"
       y1="53.950001"
       y2="53.950001" />
    <linearGradient
       xlink:href="#a"
       id="an"
       x1="20.950001"
       x2="73.18"
       y1="44.799999"
       y2="44.799999" />
    <linearGradient
       xlink:href="#a"
       id="ao"
       x1="20.950001"
       x2="73.18"
       y1="38.990002"
       y2="38.990002" />
    <linearGradient
       xlink:href="#a"
       id="ap"
       x1="20.950001"
       x2="73.169998"
       y1="46.470001"
       y2="46.470001" />
    <linearGradient
       xlink:href="#a"
       id="aq"
       x1="20.950001"
       x2="73.18"
       y1="53.48"
       y2="53.48" />
    <linearGradient
       xlink:href="#a"
       id="ar"
       x1="20.950001"
       x2="73.169998"
       y1="51.860001"
       y2="51.860001" />
    <linearGradient
       xlink:href="#a"
       id="as"
       x1="20.950001"
       x2="73.169998"
       y1="40.639999"
       y2="40.639999" />
    <linearGradient
       xlink:href="#a"
       id="at"
       x1="20.950001"
       x2="73.169998"
       y1="48.119999"
       y2="48.119999" />
    <linearGradient
       xlink:href="#a"
       id="au"
       x1="20.950001"
       x2="73.169998"
       y1="44.380001"
       y2="44.380001" />
    <linearGradient
       inkscape:collect="always"
       xlink:href="#a"
       id="linearGradient47880"
       gradientUnits="userSpaceOnUse"
       x1="20.950001"
       y1="47.07"
       x2="73.169998"
       y2="47.07" />
  </defs>
  <g
     inkscape:label="Layer 1"
     inkscape:groupmode="layer"
     id="layer1">
    <circle
       style="display:inline;fill:#ffffff;fill-opacity:1;stroke-width:2.38842;stroke-linejoin:bevel;paint-order:fill markers stroke"
       id="path23795"
       cx="16.933332"
       cy="16.933332"
       r="16.933332" />
    <g
       data-name="Layer 1"
       id="g46273"
       transform="matrix(0.40650114,0,0,0.40650114,0.12492206,-0.30745362)">
      <path
         fill="url(#b)"
         d="M 21,70.69 A 2.13,2.13 0 0 0 22.89,73 C 48.47,73.18 73.17,72 73.17,68.17 73.17,56.51 21,70.69 21,70.69 Z"
         id="path46121"
         style="fill:url(#b)" />
      <path
         fill="url(#c)"
         d="M 21,70.69 A 2.13,2.13 0 0 0 22.9,73 C 48.48,73.2 73.14,72.39 73.17,68.17 73.17,56.51 21,70.69 21,70.69 Z m 1.9,2.11 h -0.2 a 2,2 0 0 1 -1.7,-1.48 2,2 0 0 0 1.86,1.47 c 25.56,-0.16 49.87,-8 49.87,-4.56 0,3.44 -24.27,4.77 -49.83,4.57 z"
         id="path46123"
         style="fill:url(#c)" />
      <g
         opacity="0.3"
         id="g46157">
        <path
           fill="url(#d)"
           d="m 22.91,38.12 a 1.83,1.83 0 0 0 -2,1.66 v 30.91 a 2.13,2.13 0 0 0 2,2.26 c 28.53,0.17 56.21,8.16 56.19,4.14 V 42.71 c 0.02,-4.1 -27.66,-4.57 -56.19,-4.59 z"
           opacity="0.06"
           id="path46125"
           style="fill:url(#d)" />
        <path
           fill="url(#e)"
           d="M 22.9,38.12 A 1.82,1.82 0 0 0 21,39.78 v 30.91 a 2.14,2.14 0 0 0 2,2.26 c 28.33,0.16 55.81,7.76 55.8,3.88 v -34 C 78.72,38.9 51.24,38.16 22.9,38.12 Z"
           opacity="0.13"
           id="path46127"
           style="fill:url(#e)" />
        <path
           fill="url(#f)"
           d="M 22.9,38.12 A 1.83,1.83 0 0 0 21,39.78 v 30.91 a 2.14,2.14 0 0 0 2,2.26 c 28.13,0.15 55.42,7.36 55.4,3.61 V 43.04 C 78.33,39.2 51,38.17 22.9,38.12 Z"
           opacity="0.19"
           id="path46129"
           style="fill:url(#f)" />
        <path
           fill="url(#g)"
           d="M 22.9,38.12 A 1.83,1.83 0 0 0 21,39.78 v 30.91 a 2.14,2.14 0 0 0 2,2.26 c 27.93,0.15 55,7 55,3.34 V 43.2 C 77.93,39.49 50.84,38.19 22.9,38.12 Z"
           opacity="0.25"
           id="path46131"
           style="fill:url(#g)" />
        <path
           fill="url(#h)"
           d="M 22.9,38.12 A 1.83,1.83 0 0 0 21,39.78 v 30.91 a 2.12,2.12 0 0 0 2,2.25 c 27.73,0.15 54.63,6.57 54.61,3.08 V 43.36 C 77.54,39.78 50.65,38.2 22.9,38.12 Z"
           opacity="0.31"
           id="path46133"
           style="fill:url(#h)" />
        <path
           fill="url(#i)"
           d="M 22.9,38.12 A 1.84,1.84 0 0 0 21,39.78 v 30.91 a 2.12,2.12 0 0 0 2,2.25 c 27.53,0.14 54.23,6.17 54.22,2.81 V 43.52 C 77.14,40.08 50.45,38.21 22.9,38.12 Z"
           opacity="0.38"
           id="path46135"
           style="fill:url(#i)" />
        <path
           fill="url(#j)"
           d="M 22.9,38.12 A 1.83,1.83 0 0 0 21,39.78 v 30.91 a 2.12,2.12 0 0 0 2,2.25 c 27.33,0.13 53.83,5.77 53.82,2.54 V 43.68 C 76.74,40.37 50.25,38.17 22.9,38.12 Z"
           opacity="0.44"
           id="path46137"
           style="fill:url(#j)" />
        <path
           fill="url(#k)"
           d="M 22.9,38.13 A 1.82,1.82 0 0 0 21,39.78 v 30.91 a 2.12,2.12 0 0 0 2,2.25 c 27.13,0.12 53.44,5.37 53.43,2.27 V 43.84 C 76.35,40.67 50.05,38.17 22.9,38.13 Z"
           opacity="0.5"
           id="path46139"
           style="fill:url(#k)" />
        <path
           fill="url(#l)"
           d="M 22.9,38.13 A 1.82,1.82 0 0 0 21,39.78 v 30.91 a 2.12,2.12 0 0 0 2,2.25 c 26.93,0.11 53,5 53,2 V 44 C 76,41 49.85,38.18 22.9,38.13 Z"
           opacity="0.56"
           id="path46141"
           style="fill:url(#l)" />
        <path
           fill="url(#m)"
           d="M 22.9,38.13 A 1.82,1.82 0 0 0 21,39.78 v 30.91 a 2.12,2.12 0 0 0 2,2.25 c 26.73,0.1 52.65,4.58 52.64,1.74 V 44.17 C 75.56,41.25 49.65,38.18 22.9,38.13 Z"
           opacity="0.63"
           id="path46143"
           style="fill:url(#m)" />
        <path
           fill="url(#n)"
           d="M 22.9,38.13 A 1.81,1.81 0 0 0 21,39.78 v 30.91 a 2.12,2.12 0 0 0 2,2.25 c 26.53,0.09 52.25,4.18 52.24,1.47 V 44.33 C 75.16,41.55 49.45,38.19 22.9,38.13 Z"
           opacity="0.69"
           id="path46145"
           style="fill:url(#n)" />
        <path
           fill="url(#o)"
           d="M 22.9,38.13 A 1.81,1.81 0 0 0 21,39.78 v 30.91 a 2.12,2.12 0 0 0 2,2.25 c 26.33,0.09 51.86,3.78 51.84,1.2 V 44.49 C 74.77,41.84 49.25,38.2 22.9,38.13 Z"
           opacity="0.75"
           id="path46147"
           style="fill:url(#o)" />
        <path
           fill="url(#p)"
           d="M 22.9,38.13 A 1.82,1.82 0 0 0 21,39.78 v 30.91 a 2.12,2.12 0 0 0 2,2.25 c 26.13,0.08 51.46,3.38 51.45,0.93 V 44.65 C 74.37,42.13 49.06,38.2 22.9,38.13 Z"
           opacity="0.81"
           id="path46149"
           style="fill:url(#p)" />
        <path
           fill="url(#q)"
           d="M 22.9,38.13 A 1.82,1.82 0 0 0 21,39.78 v 30.91 a 2.12,2.12 0 0 0 2,2.25 C 48.84,73 74,75.92 74,73.6 V 44.82 C 74,42.43 48.86,38.21 22.9,38.13 Z"
           opacity="0.88"
           id="path46151"
           style="fill:url(#q)" />
        <path
           fill="url(#r)"
           d="M 22.9,38.13 A 1.82,1.82 0 0 0 21,39.78 v 30.91 a 2.12,2.12 0 0 0 2,2.25 C 48.73,73 73.67,75.52 73.66,73.33 V 44.98 c -0.08,-2.26 -25,-6.77 -50.76,-6.85 z"
           opacity="0.94"
           id="path46153"
           style="fill:url(#r)" />
        <path
           fill="url(#s)"
           d="M 22.9,38.13 A 1.82,1.82 0 0 0 21,39.78 v 30.91 a 2.12,2.12 0 0 0 2,2.25 c 25.53,0.1 50.28,2.18 50.26,0.13 V 45.14 C 73.19,43 48.46,38.36 22.9,38.13 Z"
           id="path46155"
           style="fill:url(#s)" />
      </g>
      <path
         fill="#0e3ca5"
         d="m 33.66,55.69 c 1.67,6.17 7.65,10.88 10.67,10.68 0.1,0 11.45,-2.12 17.66,-12.5 4.84,-8.08 3.19,-15.88 -3.39,-16 C 56.24,38 30.48,44 33.66,55.69 M 58,16.09 A 28.84,28.84 0 0 0 27.58,11.7 17.27,17.27 0 0 0 25.75,12.6 c -0.4,0.21 -0.81,0.43 -1.2,0.66 h 0.09 a 13.45,13.45 0 0 0 -3,2.88 c -8.28,11 19.48,18.9 34.32,18.92 C 62.75,40 64.66,21.28 58,16.09 Z"
         id="path46159" />
      <path
         fill="#5493f7"
         d="m 29.25,16.31 c -3.81,5.73 -16.51,9.77 -18.6,9.14 l 0.27,-0.52 a 30.71,30.71 0 0 1 2.47,-4 30.28,30.28 0 0 1 3,-3.55 31.16,31.16 0 0 1 3.54,-3 c 0.78,-0.57 1.6,-1.11 2.43,-1.6 a 9,9 0 0 1 4.2,-1.12 c 5.66,0.11 2.7,4.65 2.67,4.69 m -3.1,40.47 c 0.27,1.8 0,8.92 -0.38,9.52 -0.32,0 -1,0.06 -2.89,-1 A 29.48,29.48 0 0 1 20,63.44 30.54,30.54 0 0 1 13.42,56.85 30.71,30.71 0 0 1 10.95,52.85 29.52,29.52 0 0 1 9.05,48.5 30.18,30.18 0 0 1 7.9,43.82 30.58,30.58 0 0 1 7.9,34 30.18,30.18 0 0 1 9.05,29.32 c 0.1,-0.31 0.21,-0.61 0.32,-0.91 2.19,2.92 4.73,5.56 6.89,8.5 2.16,2.94 4.88,7.38 5.45,8.36 3.57,6.06 4.14,9.8 4.42,11.6 M 68.33,38.89 A 30.28,30.28 0 0 1 66.21,50.06 C 62.63,53.91 38.48,44.43 38.21,44.33 34.94,42.88 24.88,38.48 24,31.56 22.7,21.56 42.89,14.67 51.77,14.4 c 1.06,0 4.3,0 6.19,1.59 a 30.35,30.35 0 0 1 10.4,22.9 M 52,65.87 c -2.63,1.23 -5.53,0.33 -4.78,-2.23 1.45,-4.93 14.07,-10 16.86,-10.25 0.34,0 0.49,0.2 0.34,0.47 A 30.75,30.75 0 0 1 52,65.87"
         id="path46161" />
      <path
         fill="url(#t)"
         d="m 22.9,37.83 a 2,2 0 0 0 -1.95,2 v 30.86 a 2,2 0 0 0 1.94,2 C 48.47,72.45 73.2,64 73.17,68.12 V 33.31 C 73.2,29.17 48.48,37.64 22.9,37.83 Z"
         id="path46163"
         style="fill:url(#t)" />
      <path
         fill="url(#a)"
         d="m 26.68,59.16 c 0.91,0 1.8,-0.07 2.68,-0.12 l 2.58,-0.17 c 0.84,-0.06 1.67,-0.13 2.48,-0.21 l 2.42,-0.23 2.35,-0.25 c 0.78,-0.08 1.54,-0.17 2.31,-0.27 L 43.77,57.62 46,57.31 48.25,57 l 2.26,-0.35 2.26,-0.37 2.29,-0.39 2.35,-0.41 2.4,-0.42 2.47,-0.43 2.57,-0.41 c 0.87,-0.13 1.66,-0.25 2.75,-0.38 a 19.19,19.19 0 0 1 3.56,-0.19 c 1.12,0.07 2,0.36 2,1.14 v -2.71 c 0,-0.77 -0.85,-1 -1.89,-1.13 a 17.79,17.79 0 0 0 -3.34,0.14 c -1,0.12 -1.79,0.23 -2.57,0.35 -0.78,0.12 -1.55,0.23 -2.3,0.36 l -2.23,0.37 -2.2,0.39 -2.22,0.44 -2.31,0.4 -2.42,0.4 -2.6,0.41 -2.82,0.43 v -2.72 l 2.82,-0.44 2.6,-0.41 2.42,-0.4 2.31,-0.4 2.23,-0.39 2.2,-0.38 2.23,-0.38 2.3,-0.36 c 0.78,-0.12 1.53,-0.23 2.57,-0.35 a 17.79,17.79 0 0 1 3.34,-0.14 c 1,0.09 1.89,0.36 1.89,1.13 v -2.67 c 0,-0.77 -0.85,-1 -1.89,-1.14 a 18.68,18.68 0 0 0 -3.34,0.14 c -1,0.12 -1.79,0.23 -2.57,0.35 l -2.3,0.36 -2.23,0.38 -2.2,0.39 -2.23,0.38 -2.31,0.41 -2.42,0.4 -2.6,0.42 -2.82,0.43 v -2.69 l 2.82,-0.43 2.6,-0.41 2.42,-0.41 2.31,-0.4 2.23,-0.38 2.2,-0.39 2.23,-0.38 2.3,-0.36 c 0.78,-0.11 1.53,-0.23 2.57,-0.35 a 19.66,19.66 0 0 1 3.34,-0.14 c 1,0.09 1.89,0.37 1.89,1.14 v -2.68 c 0,-0.77 -0.85,-1 -1.89,-1.13 a 17.79,17.79 0 0 0 -3.34,0.14 c -1,0.12 -1.79,0.23 -2.57,0.35 -0.78,0.12 -1.55,0.23 -2.3,0.36 l -2.23,0.37 -2.2,0.39 -2.23,0.39 -2.31,0.39 -2.42,0.37 -2.6,0.41 -2.82,0.43 V 41.2 l 2.82,-0.43 2.61,-0.41 c 0.83,-0.13 1.63,-0.27 2.41,-0.41 l 2.31,-0.39 2.23,-0.39 2.2,-0.39 2.23,-0.37 c 0.75,-0.13 1.52,-0.25 2.3,-0.36 0.78,-0.11 1.53,-0.23 2.57,-0.35 a 17.79,17.79 0 0 1 3.34,-0.14 c 1,0.08 1.89,0.36 1.89,1.13 V 36 c 0,-0.77 -0.85,-1 -1.89,-1.13 a 17.79,17.79 0 0 0 -3.34,0.14 c -1,0.12 -1.79,0.23 -2.57,0.35 -0.78,0.12 -1.55,0.24 -2.3,0.36 l -2.23,0.38 -2.2,0.38 -2.23,0.39 -2.31,0.4 -2.41,0.4 -2.61,0.41 -2.82,0.44 v -2.71 a 170.19,170.19 0 0 1 -23.36,2 2,2 0 0 0 -1.95,2 v 19.5 h 2.93 c 0.93,0 1.88,-0.11 2.8,-0.15 z"
         id="path46165"
         style="fill:url(#linearGradient47880)" />
      <path
         fill="url(#u)"
         d="M 26.67,64.52 29.36,64.4 31.94,64.23 34.42,64 36.84,63.77 39.19,63.52 41.5,63.25 43.77,63 46,62.66 48.23,62.32 50.5,62 l 2.27,-0.36 2.29,-0.4 2.35,-0.4 2.4,-0.42 2.47,-0.42 2.57,-0.41 c 0.87,-0.13 1.66,-0.25 2.75,-0.39 A 21.08,21.08 0 0 1 71.16,59 c 1.12,0.08 2,0.36 2,1.15 v -2.71 c 0,-0.78 -0.89,-1.07 -2,-1.15 a 21.08,21.08 0 0 0 -3.56,0.19 c -1.09,0.14 -1.88,0.26 -2.75,0.39 l -2.57,0.41 -2.47,0.43 -2.4,0.42 -2.35,0.4 -2.29,0.4 c -0.76,0.13 -1.51,0.25 -2.27,0.36 L 48.25,59.65 46,60 43.75,60.31 41.48,60.6 c -0.77,0.09 -1.53,0.19 -2.31,0.27 l -2.35,0.25 -2.42,0.23 c -0.81,0.08 -1.64,0.15 -2.48,0.21 l -2.58,0.17 c -0.88,0.05 -1.77,0.09 -2.69,0.12 l -2.79,0.09 C 22.91,61.97 22,62 21,62 v 2.68 h 2.93 z"
         id="path46167"
         style="fill:url(#u)" />
      <path
         fill="url(#v)"
         d="m 71.16,61.65 a 21.08,21.08 0 0 0 -3.56,0.19 c -1.09,0.13 -1.88,0.26 -2.75,0.39 l -2.56,0.41 -2.48,0.43 -2.4,0.42 -2.35,0.4 -2.29,0.39 L 50.5,64.65 48.25,65 46,65.34 43.75,65.66 41.5,66 l -2.31,0.27 -2.35,0.25 -2.42,0.23 -2.48,0.21 -2.58,0.16 -2.69,0.13 -2.79,0.08 H 20.95 V 70 h 2.93 c 0.93,0 1.88,0 2.79,-0.09 0.91,-0.09 1.81,-0.07 2.69,-0.12 0.88,-0.05 1.73,-0.1 2.58,-0.17 l 2.48,-0.2 2.42,-0.23 2.35,-0.25 2.31,-0.28 2.27,-0.29 L 46,68 l 2.23,-0.34 2.25,-0.35 2.29,-0.31 2.29,-0.39 2.35,-0.4 2.4,-0.42 2.48,-0.43 2.56,-0.41 c 0.87,-0.14 1.66,-0.26 2.75,-0.39 a 21.08,21.08 0 0 1 3.56,-0.19 c 1.12,0.07 2,0.36 2,1.14 v -2.72 c 0.01,-0.79 -0.88,-1.06 -2,-1.14 z"
         id="path46169"
         style="fill:url(#v)" />
      <path
         fill="url(#w)"
         d="m 26.5,56.49 2.5,-0.11 2.35,-0.14 2.29,-0.18 2.29,-0.21 2.35,-0.24 c 0.8,-0.08 1.62,-0.18 2.46,-0.28 L 43.37,55 c 0.92,-0.12 1.88,-0.26 2.89,-0.41 V 35.81 a 170.19,170.19 0 0 1 -23.36,2 2,2 0 0 0 -1.95,2 V 56.6 h 2.9 z"
         id="path46171"
         style="fill:url(#w)" />
      <path
         fill="url(#x)"
         d="m 27,38.62 c -0.1,0.3 -0.15,0.45 -0.24,0.75 h -0.77 l 0.62,0.43 c -0.09,0.3 -0.14,0.45 -0.24,0.75 L 27,40.1 27.62,40.53 C 27.52,40.24 27.48,40.1 27.38,39.8 L 28,39.32 h -0.77 z"
         id="path46173"
         style="fill:url(#x)" />
      <path
         fill="url(#y)"
         d="m 29.2,47.86 c -0.09,0.3 -0.14,0.45 -0.24,0.75 h -0.77 l 0.63,0.43 c -0.1,0.3 -0.15,0.45 -0.24,0.75 l 0.62,-0.49 0.63,0.42 C 29.73,49.43 29.68,49.29 29.59,49 l 0.62,-0.5 -0.77,0.05 C 29.35,48.3 29.3,48.15 29.2,47.86 Z"
         id="path46175"
         style="fill:url(#y)" />
      <path
         fill="url(#z)"
         d="M 29.44,52.32 C 29.35,52.03 29.3,51.89 29.2,51.6 c -0.09,0.3 -0.14,0.45 -0.24,0.75 h -0.77 l 0.63,0.43 c -0.1,0.3 -0.15,0.45 -0.24,0.75 l 0.62,-0.49 0.63,0.42 c -0.1,-0.29 -0.15,-0.43 -0.24,-0.72 l 0.62,-0.5 z"
         id="path46177"
         style="fill:url(#z)" />
      <path
         fill="url(#A)"
         d="m 27,46.09 c -0.1,0.31 -0.15,0.45 -0.24,0.75 h -0.77 l 0.62,0.44 c -0.09,0.3 -0.14,0.45 -0.24,0.75 l 0.63,-0.48 0.62,0.43 c -0.1,-0.29 -0.14,-0.44 -0.24,-0.73 0.25,-0.2 0.38,-0.29 0.62,-0.49 H 27.23 C 27.12,46.53 27.07,46.39 27,46.09 Z"
         id="path46179"
         style="fill:url(#A)" />
      <path
         fill="url(#B)"
         d="m 27,49.83 c -0.1,0.3 -0.15,0.45 -0.24,0.75 h -0.77 l 0.62,0.44 c -0.09,0.3 -0.14,0.45 -0.24,0.75 l 0.63,-0.49 0.62,0.44 c -0.1,-0.3 -0.14,-0.44 -0.24,-0.73 L 28,50.5 h -0.77 z"
         id="path46181"
         style="fill:url(#B)" />
      <path
         fill="url(#C)"
         d="m 27,42.36 c -0.1,0.3 -0.15,0.45 -0.24,0.75 h -0.77 l 0.62,0.44 c -0.09,0.3 -0.14,0.45 -0.24,0.75 l 0.63,-0.48 0.62,0.43 c -0.1,-0.29 -0.14,-0.44 -0.24,-0.73 0.25,-0.19 0.38,-0.29 0.62,-0.49 h -0.77 z"
         id="path46183"
         style="fill:url(#C)" />
      <path
         fill="url(#D)"
         d="m 33.66,51.28 c -0.1,0.31 -0.15,0.46 -0.24,0.76 l -0.77,0.07 0.62,0.4 c -0.09,0.31 -0.14,0.46 -0.24,0.76 l 0.63,-0.51 0.62,0.41 c -0.1,-0.29 -0.14,-0.43 -0.24,-0.72 L 34.67,51.93 33.89,52 Z"
         id="path46185"
         style="fill:url(#D)" />
      <path
         fill="url(#E)"
         d="m 29.2,44.12 c -0.09,0.3 -0.14,0.45 -0.24,0.76 h -0.77 l 0.63,0.43 c -0.1,0.3 -0.15,0.45 -0.24,0.76 l 0.62,-0.5 0.63,0.43 c -0.1,-0.29 -0.15,-0.44 -0.24,-0.73 l 0.62,-0.5 -0.77,0.05 z"
         id="path46187"
         style="fill:url(#E)" />
      <path
         fill="url(#F)"
         d="m 31.43,49.59 c -0.09,0.3 -0.14,0.45 -0.24,0.76 h -0.77 l 0.63,0.42 c -0.1,0.3 -0.15,0.45 -0.24,0.75 l 0.62,-0.5 0.63,0.41 C 31.96,51.14 31.91,51 31.82,50.71 l 0.62,-0.51 -0.77,0.06 C 31.57,50 31.53,49.88 31.43,49.59 Z"
         id="path46189"
         style="fill:url(#F)" />
      <path
         fill="url(#G)"
         d="m 31.67,54.05 c -0.1,-0.29 -0.14,-0.43 -0.24,-0.72 -0.09,0.3 -0.14,0.45 -0.24,0.75 l -0.77,0.06 0.63,0.41 c -0.1,0.3 -0.15,0.46 -0.24,0.76 l 0.62,-0.5 0.63,0.41 c -0.1,-0.29 -0.15,-0.43 -0.24,-0.72 l 0.62,-0.51 z"
         id="path46191"
         style="fill:url(#G)" />
      <path
         fill="url(#H)"
         d="m 29.2,40.38 c -0.09,0.31 -0.14,0.46 -0.24,0.76 h -0.77 l 0.63,0.42 c -0.1,0.31 -0.15,0.46 -0.24,0.76 l 0.62,-0.49 0.63,0.42 c -0.1,-0.29 -0.15,-0.44 -0.24,-0.73 l 0.62,-0.49 H 29.44 C 29.35,40.82 29.3,40.68 29.2,40.38 Z"
         id="path46193"
         style="fill:url(#H)" />
      <path
         fill="url(#I)"
         d="m 31.43,45.85 c -0.1,0.3 -0.14,0.46 -0.24,0.76 h -0.77 l 0.63,0.42 c -0.1,0.3 -0.15,0.45 -0.24,0.75 l 0.62,-0.5 0.63,0.42 c -0.1,-0.29 -0.15,-0.44 -0.24,-0.73 l 0.62,-0.5 -0.77,0.06 c -0.1,-0.24 -0.14,-0.39 -0.24,-0.68 z"
         id="path46195"
         style="fill:url(#I)" />
      <path
         fill="url(#J)"
         d="M 27.21,54.3 27,53.57 c -0.1,0.3 -0.15,0.45 -0.24,0.75 h -0.77 l 0.62,0.43 c -0.09,0.3 -0.14,0.45 -0.24,0.75 L 27,55.02 27.62,55.46 27.38,54.72 28,54.24 Z"
         id="path46197"
         style="fill:url(#J)" />
      <path
         fill="url(#K)"
         d="m 22.52,46.22 c -0.1,0.29 -0.14,0.44 -0.24,0.74 h -0.77 l 0.62,0.45 c -0.09,0.3 -0.14,0.44 -0.23,0.74 l 0.62,-0.46 0.62,0.45 C 23.05,47.84 23,47.7 22.91,47.4 l 0.62,-0.47 h -0.77 c -0.1,-0.27 -0.14,-0.42 -0.24,-0.71 z"
         id="path46199"
         style="fill:url(#K)" />
      <path
         fill="url(#L)"
         d="m 22.52,42.48 -0.24,0.74 h -0.77 l 0.62,0.45 c -0.09,0.3 -0.14,0.45 -0.23,0.74 l 0.62,-0.46 0.62,0.45 C 23.05,44.1 23,43.96 22.91,43.66 l 0.62,-0.47 h -0.77 c -0.1,-0.27 -0.14,-0.42 -0.24,-0.71 z"
         id="path46201"
         style="fill:url(#L)" />
      <path
         fill="url(#M)"
         d="m 22.76,54.43 -0.24,-0.74 c -0.1,0.3 -0.14,0.45 -0.24,0.74 h -0.77 l 0.62,0.45 -0.23,0.75 0.62,-0.47 0.62,0.45 C 23.05,55.32 23,55.17 22.91,54.87 l 0.62,-0.46 z"
         id="path46203"
         style="fill:url(#M)" />
      <path
         fill="url(#N)"
         d="m 30.81,44.1 0.62,-0.5 0.63,0.41 c -0.1,-0.29 -0.15,-0.44 -0.24,-0.73 l 0.62,-0.5 -0.77,0.06 c -0.1,-0.29 -0.14,-0.44 -0.24,-0.73 -0.09,0.31 -0.14,0.46 -0.24,0.76 l -0.77,0.05 0.63,0.42 C 31,43.64 30.9,43.79 30.81,44.1 Z"
         id="path46205"
         style="fill:url(#N)" />
      <path
         fill="url(#O)"
         d="m 30.81,40.36 0.62,-0.5 0.63,0.41 c -0.1,-0.29 -0.15,-0.43 -0.24,-0.72 l 0.62,-0.51 -0.77,0.06 -0.24,-0.72 c -0.09,0.3 -0.14,0.45 -0.24,0.75 h -0.77 l 0.63,0.42 C 31,39.9 30.9,40.06 30.81,40.36 Z"
         id="path46207"
         style="fill:url(#O)" />
      <path
         fill="url(#P)"
         d="m 22.52,50 c -0.1,0.3 -0.14,0.45 -0.24,0.75 h -0.77 l 0.62,0.46 c -0.09,0.3 -0.14,0.44 -0.23,0.74 l 0.62,-0.46 0.62,0.44 -0.23,-0.73 0.62,-0.47 H 22.76 C 22.66,50.4 22.62,50.25 22.52,50 Z"
         id="path46209"
         style="fill:url(#P)" />
      <path
         fill="url(#Q)"
         d="m 24.75,40.56 c -0.09,0.3 -0.14,0.45 -0.24,0.75 h -0.77 l 0.62,0.44 -0.23,0.75 0.62,-0.47 0.63,0.44 c -0.1,-0.3 -0.15,-0.45 -0.24,-0.74 l 0.62,-0.48 h -0.77 z"
         id="path46211"
         style="fill:url(#Q)" />
      <path
         fill="url(#R)"
         d="m 24.75,44.3 c -0.09,0.3 -0.14,0.45 -0.24,0.75 h -0.77 l 0.62,0.44 -0.23,0.75 0.62,-0.48 0.63,0.44 c -0.1,-0.29 -0.15,-0.44 -0.24,-0.73 L 25.76,44.99 25,45 Z"
         id="path46213"
         style="fill:url(#R)" />
      <path
         fill="url(#S)"
         d="m 25,52.51 c -0.1,-0.29 -0.15,-0.44 -0.24,-0.73 -0.1,0.3 -0.14,0.45 -0.24,0.74 h -0.77 l 0.62,0.45 c -0.09,0.29 -0.14,0.44 -0.24,0.74 l 0.63,-0.47 0.62,0.44 c -0.09,-0.3 -0.14,-0.44 -0.23,-0.74 l 0.62,-0.47 z"
         id="path46215"
         style="fill:url(#S)" />
      <path
         fill="url(#T)"
         d="m 24.75,48 c -0.1,0.3 -0.14,0.45 -0.24,0.75 h -0.77 l 0.62,0.45 -0.23,0.75 0.62,-0.48 0.62,0.44 -0.23,-0.73 0.62,-0.48 H 24.99 C 24.89,48.48 24.85,48.33 24.75,48 Z"
         id="path46217"
         style="fill:url(#T)" />
      <path
         fill="url(#U)"
         d="m 22.52,38.74 c -0.1,0.3 -0.14,0.45 -0.24,0.74 h -0.77 l 0.62,0.45 -0.23,0.75 0.62,-0.47 0.63,0.45 C 23.05,40.37 23,40.22 22.91,39.92 l 0.62,-0.47 h -0.77 z"
         id="path46219"
         style="fill:url(#U)" />
      <path
         fill="url(#V)"
         d="m 33.66,47.55 c -0.1,0.3 -0.15,0.45 -0.24,0.76 l -0.77,0.06 0.62,0.41 c -0.09,0.3 -0.14,0.45 -0.24,0.76 l 0.63,-0.51 0.62,0.4 C 34.18,49.14 34.14,49 34.04,48.71 l 0.63,-0.52 -0.78,0.07 z"
         id="path46221"
         style="fill:url(#V)" />
      <path
         fill="url(#W)"
         d="m 42.56,46.59 c -0.09,0.31 -0.14,0.46 -0.24,0.77 l -0.77,0.1 0.63,0.38 c -0.1,0.31 -0.15,0.46 -0.24,0.77 l 0.62,-0.54 0.63,0.38 c -0.1,-0.28 -0.15,-0.43 -0.24,-0.71 L 43.57,47.2 42.8,47.3 C 42.7,47 42.66,46.87 42.56,46.59 Z"
         id="path46223"
         style="fill:url(#W)" />
      <path
         fill="url(#X)"
         d="m 42.56,42.85 c -0.09,0.31 -0.14,0.47 -0.24,0.77 l -0.77,0.1 0.63,0.38 c -0.1,0.31 -0.15,0.46 -0.24,0.77 l 0.62,-0.54 0.63,0.38 C 43.09,44.43 43.04,44.29 42.95,44 l 0.62,-0.54 -0.77,0.1 c -0.09,-0.28 -0.14,-0.42 -0.24,-0.71 z"
         id="path46225"
         style="fill:url(#X)" />
      <path
         fill="url(#Y)"
         d="m 42.8,51 c -0.1,-0.29 -0.14,-0.43 -0.24,-0.71 -0.09,0.31 -0.14,0.46 -0.24,0.77 l -0.77,0.1 0.63,0.38 c -0.1,0.3 -0.15,0.46 -0.24,0.77 l 0.62,-0.54 0.63,0.38 c -0.1,-0.29 -0.15,-0.43 -0.24,-0.71 l 0.62,-0.54 z"
         id="path46227"
         style="fill:url(#Y)" />
      <path
         fill="url(#Z)"
         d="M 40.33,41.26 40.1,42 l -0.77,0.09 0.62,0.38 c -0.09,0.31 -0.14,0.46 -0.24,0.77 l 0.62,-0.53 0.63,0.38 c -0.1,-0.28 -0.15,-0.42 -0.24,-0.71 l 0.62,-0.53 -0.77,0.09 c -0.09,-0.25 -0.14,-0.4 -0.24,-0.68 z"
         id="path46229"
         style="fill:url(#Z)" />
      <path
         fill="url(#aa)"
         d="m 42.56,39.11 c -0.09,0.31 -0.14,0.47 -0.24,0.78 l -0.77,0.09 0.63,0.38 c -0.1,0.31 -0.15,0.47 -0.24,0.77 l 0.62,-0.53 0.63,0.38 c -0.1,-0.29 -0.15,-0.43 -0.24,-0.72 l 0.62,-0.54 c -0.3,0 -0.46,0.07 -0.77,0.1 -0.09,-0.28 -0.14,-0.42 -0.24,-0.71 z"
         id="path46231"
         style="fill:url(#aa)" />
      <path
         fill="url(#ab)"
         d="m 40.33,37.52 -0.23,0.77 -0.77,0.09 0.62,0.38 c -0.09,0.31 -0.14,0.47 -0.24,0.77 l 0.62,-0.53 0.63,0.39 c -0.1,-0.29 -0.15,-0.43 -0.24,-0.72 l 0.62,-0.53 -0.77,0.09 C 40.48,38 40.43,37.81 40.33,37.52 Z"
         id="path46233"
         style="fill:url(#ab)" />
      <path
         fill="url(#ac)"
         d="m 44.79,44.43 c -0.09,0.31 -0.14,0.46 -0.24,0.77 l -0.77,0.1 0.63,0.38 c -0.1,0.31 -0.15,0.46 -0.24,0.77 l 0.62,-0.54 0.62,0.37 -0.23,-0.71 0.62,-0.57 -0.77,0.11 c -0.09,-0.26 -0.14,-0.4 -0.24,-0.68 z"
         id="path46235"
         style="fill:url(#ac)" />
      <path
         fill="url(#ad)"
         d="M 44.79,40.69 C 44.7,41 44.65,41.15 44.55,41.46 l -0.77,0.11 0.63,0.37 c -0.1,0.31 -0.15,0.46 -0.24,0.77 l 0.62,-0.54 0.63,0.37 c -0.1,-0.28 -0.15,-0.42 -0.24,-0.71 L 45.8,41.29 45,41.4 C 44.94,41.11 44.89,41 44.79,40.69 Z"
         id="path46237"
         style="fill:url(#ad)" />
      <path
         fill="url(#ae)"
         d="m 45,52.61 c -0.1,-0.28 -0.14,-0.42 -0.24,-0.71 -0.1,0.31 -0.14,0.47 -0.24,0.78 l -0.77,0.1 0.62,0.37 -0.23,0.78 0.62,-0.55 0.62,0.38 c -0.09,-0.29 -0.14,-0.43 -0.24,-0.71 l 0.63,-0.55 z"
         id="path46239"
         style="fill:url(#ae)" />
      <path
         fill="url(#af)"
         d="m 44.79,37 -0.23,0.77 -0.78,0.11 0.63,0.37 c -0.1,0.31 -0.15,0.46 -0.24,0.77 0.25,-0.21 0.38,-0.32 0.62,-0.54 l 0.63,0.37 c -0.1,-0.28 -0.15,-0.42 -0.24,-0.71 L 45.8,37.6 45.03,37.71 C 44.94,37.37 44.89,37.23 44.79,37 Z"
         id="path46241"
         style="fill:url(#af)" />
      <path
         fill="url(#ag)"
         d="m 44.79,48.16 c -0.09,0.31 -0.14,0.47 -0.24,0.78 l -0.77,0.1 0.62,0.38 -0.23,0.77 0.62,-0.54 0.62,0.37 c -0.09,-0.29 -0.14,-0.43 -0.23,-0.71 l 0.62,-0.55 -0.77,0.11 c -0.1,-0.28 -0.14,-0.42 -0.24,-0.71 z"
         id="path46243"
         style="fill:url(#ag)" />
      <path
         fill="url(#ah)"
         d="m 40.33,45 -0.23,0.77 -0.77,0.08 0.62,0.39 c -0.09,0.31 -0.14,0.46 -0.24,0.77 l 0.62,-0.53 0.63,0.38 c -0.1,-0.28 -0.15,-0.43 -0.24,-0.71 l 0.62,-0.53 -0.77,0.09 C 40.48,45.42 40.43,45.28 40.33,45 Z"
         id="path46245"
         style="fill:url(#ah)" />
      <path
         fill="url(#ai)"
         d="m 33.66,40.07 c -0.1,0.3 -0.15,0.45 -0.24,0.76 l -0.77,0.06 0.62,0.41 c -0.09,0.3 -0.14,0.46 -0.24,0.76 l 0.63,-0.51 0.62,0.4 c -0.1,-0.28 -0.14,-0.43 -0.24,-0.72 l 0.63,-0.51 -0.78,0.07 z"
         id="path46247"
         style="fill:url(#ai)" />
      <path
         fill="url(#aj)"
         d="m 35.88,49.21 -0.23,0.76 -0.78,0.07 0.63,0.4 c -0.1,0.31 -0.15,0.46 -0.24,0.77 l 0.62,-0.52 0.63,0.4 c -0.1,-0.29 -0.14,-0.43 -0.24,-0.72 l 0.62,-0.52 -0.77,0.08 C 36,49.64 36,49.5 35.88,49.21 Z"
         id="path46249"
         style="fill:url(#aj)" />
      <path
         fill="url(#ak)"
         d="M 40.33,48.73 40.1,49.5 39.33,49.59 40,50 c -0.09,0.31 -0.14,0.46 -0.24,0.77 l 0.62,-0.53 0.63,0.38 c -0.1,-0.29 -0.15,-0.43 -0.24,-0.71 l 0.62,-0.54 -0.77,0.1 C 40.48,49.16 40.43,49 40.33,48.73 Z"
         id="path46251"
         style="fill:url(#ak)" />
      <path
         fill="url(#al)"
         d="m 35.88,41.73 -0.23,0.77 -0.78,0.07 0.63,0.4 c -0.1,0.3 -0.15,0.46 -0.24,0.76 l 0.62,-0.51 0.63,0.39 c -0.1,-0.28 -0.14,-0.43 -0.24,-0.72 l 0.62,-0.51 -0.77,0.07 C 36,42.16 36,42 35.88,41.73 Z"
         id="path46253"
         style="fill:url(#al)" />
      <path
         fill="url(#am)"
         d="m 35.88,53 -0.23,0.76 -0.78,0.07 0.63,0.4 c -0.1,0.31 -0.15,0.46 -0.24,0.77 l 0.62,-0.52 0.63,0.4 c -0.1,-0.29 -0.14,-0.43 -0.24,-0.72 l 0.62,-0.52 -0.77,0.07 C 36,53.38 36,53.23 35.88,53 Z"
         id="path46255"
         style="fill:url(#am)" />
      <path
         fill="url(#an)"
         d="m 33.66,43.81 c -0.1,0.3 -0.15,0.45 -0.24,0.76 l -0.77,0.06 0.62,0.41 c -0.09,0.3 -0.14,0.46 -0.24,0.76 l 0.63,-0.51 0.62,0.4 c -0.1,-0.29 -0.14,-0.43 -0.24,-0.72 l 0.63,-0.51 -0.78,0.07 z"
         id="path46257"
         style="fill:url(#an)" />
      <path
         fill="url(#ao)"
         d="m 35.88,38 c -0.09,0.3 -0.14,0.45 -0.23,0.76 l -0.78,0.07 0.63,0.4 c -0.1,0.31 -0.15,0.46 -0.24,0.76 l 0.62,-0.51 0.63,0.39 c -0.1,-0.28 -0.14,-0.43 -0.24,-0.71 l 0.63,-0.52 -0.78,0.07 C 36,38.43 36,38.28 35.88,38 Z"
         id="path46259"
         style="fill:url(#ao)" />
      <path
         fill="url(#ap)"
         d="m 35.88,45.47 c -0.09,0.31 -0.14,0.46 -0.23,0.76 l -0.78,0.08 0.63,0.4 c -0.1,0.3 -0.14,0.46 -0.24,0.76 l 0.62,-0.52 0.63,0.4 c -0.1,-0.29 -0.14,-0.43 -0.24,-0.72 l 0.62,-0.52 -0.77,0.08 C 36,45.9 36,45.76 35.88,45.47 Z"
         id="path46261"
         style="fill:url(#ap)" />
      <path
         fill="url(#aq)"
         d="M 40.57,53.19 C 40.48,52.9 40.43,52.76 40.33,52.47 l -0.23,0.77 -0.77,0.09 0.62,0.39 c -0.09,0.3 -0.14,0.46 -0.24,0.77 0.25,-0.22 0.38,-0.32 0.62,-0.54 l 0.63,0.39 c -0.1,-0.29 -0.15,-0.43 -0.24,-0.71 l 0.62,-0.54 z"
         id="path46263"
         style="fill:url(#aq)" />
      <path
         fill="url(#ar)"
         d="m 38.35,51.57 c -0.1,-0.29 -0.14,-0.43 -0.24,-0.72 -0.09,0.31 -0.14,0.46 -0.24,0.77 l -0.77,0.08 0.63,0.39 c -0.1,0.31 -0.15,0.46 -0.24,0.77 l 0.62,-0.53 0.63,0.4 C 38.64,52.44 38.59,52.3 38.5,52.01 l 0.62,-0.53 z"
         id="path46265"
         style="fill:url(#ar)" />
      <path
         fill="url(#as)"
         d="m 38.11,39.64 c -0.09,0.31 -0.14,0.46 -0.24,0.77 l -0.77,0.07 0.63,0.4 c -0.1,0.31 -0.15,0.46 -0.24,0.77 l 0.62,-0.53 0.63,0.39 C 38.64,41.23 38.59,41.08 38.5,40.8 l 0.62,-0.53 -0.77,0.08 c -0.09,-0.28 -0.14,-0.42 -0.24,-0.71 z"
         id="path46267"
         style="fill:url(#as)" />
      <path
         fill="url(#at)"
         d="m 38.11,47.12 c -0.09,0.3 -0.14,0.46 -0.24,0.76 L 37.1,48 l 0.63,0.39 c -0.1,0.31 -0.15,0.46 -0.24,0.77 l 0.62,-0.52 0.63,0.39 C 38.64,48.74 38.59,48.6 38.5,48.31 l 0.62,-0.52 -0.77,0.08 C 38.26,47.54 38.21,47.4 38.11,47.12 Z"
         id="path46269"
         style="fill:url(#at)" />
      <path
         fill="url(#au)"
         d="m 38.11,43.38 c -0.09,0.3 -0.14,0.46 -0.24,0.76 l -0.77,0.08 0.63,0.4 c -0.1,0.3 -0.15,0.46 -0.24,0.76 l 0.62,-0.52 0.63,0.39 c -0.1,-0.29 -0.15,-0.43 -0.24,-0.71 l 0.62,-0.53 -0.77,0.08 c -0.09,-0.28 -0.14,-0.43 -0.24,-0.71 z"
         id="path46271"
         style="fill:url(#au)" />
    </g>
  </g>
</svg>
