<?xml version="1.0" encoding="UTF-8" standalone="no"?>
<!-- Created with Inkscape (http://www.inkscape.org/) -->

<svg
   width="127.99999"
   height="127.99999"
   viewBox="0 0 33.866664 33.866664"
   version="1.1"
   id="svg23622"
   inkscape:export-filename="jpyc.svg"
   inkscape:export-xdpi="96"
   inkscape:export-ydpi="96"
   xmlns:inkscape="http://www.inkscape.org/namespaces/inkscape"
   xmlns:sodipodi="http://sodipodi.sourceforge.net/DTD/sodipodi-0.dtd"
   xmlns:xlink="http://www.w3.org/1999/xlink"
   xmlns="http://www.w3.org/2000/svg"
   xmlns:svg="http://www.w3.org/2000/svg">
  <sodipodi:namedview
     id="namedview23624"
     pagecolor="#ffffff"
     bordercolor="#000000"
     borderopacity="0.25"
     inkscape:showpageshadow="2"
     inkscape:pageopacity="0.0"
     inkscape:pagecheckerboard="0"
     inkscape:deskcolor="#d1d1d1"
     inkscape:document-units="mm"
     showgrid="false" />
  <defs
     id="defs23619">
    <linearGradient
       inkscape:collect="always"
       id="linearGradient43929">
      <stop
         style="stop-color:#5466fd;stop-opacity:1;"
         offset="0.51332152"
         id="stop43925" />
      <stop
         style="stop-color:#cbcffe;stop-opacity:1;"
         offset="1"
         id="stop43927" />
    </linearGradient>
    <linearGradient
       inkscape:collect="always"
       xlink:href="#linearGradient43929"
       id="linearGradient43931"
       x1="0.059422705"
       y1="0.17612995"
       x2="33.866665"
       y2="34.225338"
       gradientUnits="userSpaceOnUse" />
  </defs>
  <g
     inkscape:label="Layer 1"
     inkscape:groupmode="layer"
     id="layer1">
    <circle
       style="display:inline;fill:url(#linearGradient43931);fill-opacity:1;stroke-width:2.38842;stroke-linejoin:bevel;paint-order:fill markers stroke"
       id="path23795"
       cx="16.933332"
       cy="16.933332"
       r="16.933332" />
    <path
       d="m 17.569158,3.7360462 c 0.0159,0.0252 1.16989,1.97013 2.56501,4.32315 l 2.53719,4.2754598 0.0623,-0.007 c 0.0344,-0.004 0.13381,-0.005 0.22126,-0.005 0.314,0.003 0.60813,0.11262 0.83999,0.31533 0.0477,0.0411 0.0914,0.0742 0.0994,0.0742 0.0159,0 4.65703,-2.54778 4.65836,-2.55706 0,-0.004 -2.35303,-1.3871698 -5.22939,-3.0737698 -2.87636,-1.6866 -5.35393,-3.14001 -5.50629,-3.22878 -0.25836,-0.15237 -0.27425,-0.15899 -0.24776,-0.11659 z"
       id="path41312"
       style="fill:#ffffff;fill-opacity:1;stroke-width:0.0013249" />
    <path
       d="m 10.838658,6.9105062 c -3.0061997,1.76344 -5.4797897,3.2142098 -5.4956897,3.2234898 -0.0291,0.0159 0.12852,0.10466 2.30533,1.30105 l 2.3358,1.28515 0.0795,-0.0676 c 0.17621,-0.14839 0.3458,-0.23715 0.56043,-0.29412 0.10732,-0.0292 0.16031,-0.0345 0.32063,-0.0358 0.10599,0 0.20668,0.003 0.22523,0.008 0.0318,0.008 0.11924,-0.13779 2.56103,-4.2529298 1.38983,-2.34375 2.54249,-4.28738 2.56104,-4.31918 0.0186,-0.0305 0.0292,-0.0557 0.0225,-0.0543 -0.005,0 -2.46961,1.44282 -5.47582,3.20626 z"
       id="path41314"
       style="fill:#ffffff;fill-opacity:1;stroke-width:0.0013249" />
    <path
       d="m 16.417818,4.8622062 c -0.0384,0.0663 -1.09039,1.83764 -2.3358,3.93893 l -2.26558,3.8196998 0.098,0.10201 c 0.15899,0.16562 0.25703,0.33123 0.32328,0.55249 0.0292,0.0994 0.0358,0.15236 0.0411,0.31797 0.004,0.14044 0,0.22391 -0.0119,0.28486 l -0.0186,0.0861 2.11719,1.16458 c 1.16591,0.63993 2.12117,1.16062 2.12514,1.15797 0.003,-0.004 0.004,-2.60211 0.003,-5.77392 l -0.004,-5.7686198 z"
       id="path41316"
       style="fill:#ffffff;fill-opacity:1;stroke-width:0.0013249" />
    <path
       d="m 17.383678,10.515566 c 0,3.17579 0.004,5.77392 0.008,5.77392 0.005,0 0.95923,-0.52201 2.12116,-1.16194 l 2.11322,-1.16061 -0.008,-0.0384 c -0.0927,-0.46504 0.0384,-0.90888 0.36303,-1.22818 l 0.0782,-0.0768 -2.30135,-3.8806398 c -1.26661,-2.13442 -2.31858,-3.90714 -2.33845,-3.94026 l -0.0358,-0.0596 z"
       id="path41318"
       style="fill:#ffffff;fill-opacity:1;stroke-width:0.0013249" />
    <path
       d="m 4.9693483,16.787646 c 0,5.028 0.003,6.04818 0.0172,6.02698 0.0106,-0.0146 1.12485,-1.89461 2.47889,-4.17609 l 2.46167,-4.15092 -0.0782,-0.11659 c -0.14176,-0.21066 -0.21198,-0.42529 -0.22391,-0.67835 -0.005,-0.10732 -10e-4,-0.18548 0.0133,-0.26498 0.0106,-0.0623 0.0159,-0.11659 0.0106,-0.12189 -0.0106,-0.0106 -4.63318,-2.55309 -4.661,-2.56368 -0.0159,-0.005 -0.0186,0.95922 -0.0186,6.04552 z"
       id="path41334"
       style="fill:#ffffff;fill-opacity:1;stroke-width:0.0013249" />
    <path
       d="m 26.548018,12.020656 -2.32918,1.28118 0.007,0.0464 c 0.004,0.0252 0.0146,0.10201 0.0225,0.16826 0.0358,0.29148 -0.0596,0.63728 -0.24378,0.88636 l -0.0583,0.0808 2.463,4.15224 c 1.35537,2.28413 2.46829,4.16151 2.47491,4.17211 0.008,0.0119 0.0132,-2.42324 0.0132,-6.02565 0,-3.32418 -0.004,-6.0442 -0.009,-6.04287 -0.007,0 -1.0586,0.57765 -2.33978,1.28118 z"
       id="path41336"
       style="fill:#ffffff;fill-opacity:1;stroke-width:0.0013249" />
    <path
       d="m 11.840288,14.620106 c -0.14309,0.12322 -0.31798,0.22259 -0.47432,0.27293 l -0.0768,0.0239 v 2.00723 2.00855 l 0.11394,0.0397 c 0.14442,0.0477 0.29545,0.13514 0.42397,0.24246 l 0.0994,0.0835 2.15164,-1.18314 c 1.18446,-0.65052 2.15296,-1.18578 2.15296,-1.18976 0,-0.005 -4.27678,-2.35965 -4.30195,-2.3676 -0.007,-0.003 -0.0451,0.0265 -0.0888,0.0623 z"
       id="path41352"
       style="fill:#ffffff;fill-opacity:1;stroke-width:0.0013249" />
    <path
       d="m 19.794998,15.734346 c -1.17651,0.64788 -2.14104,1.18182 -2.14369,1.18844 -0.001,0.005 0.96585,0.54189 2.15031,1.19374 l 2.15297,1.18313 0.0689,-0.0636 c 0.13249,-0.11924 0.31665,-0.22258 0.49154,-0.27823 l 0.0755,-0.0238 v -2.00855 -2.00855 l -0.0795,-0.0239 c -0.16562,-0.0503 -0.34845,-0.15501 -0.48492,-0.27823 -0.0384,-0.0331 -0.0742,-0.0609 -0.0795,-0.0596 -0.007,0 -0.97513,0.53129 -2.15164,1.17916 z"
       id="path41354"
       style="fill:#ffffff;fill-opacity:1;stroke-width:0.0013249" />
    <path
       d="m 10.462388,14.900986 c -0.0848,0.13514 -4.5656097,7.70033 -4.5616297,7.70298 0.003,0.003 0.84793,-0.45842 1.87871,-1.02548 1.53821,-0.84661 1.87341,-1.03474 1.87076,-1.05594 0,-0.0146 -0.009,-0.0901 -0.0186,-0.16959 -0.0729,-0.60283 0.30738,-1.19374 0.8929797,-1.38585 l 0.0888,-0.0305 v -2.0112 -2.01252 l -0.0557,-0.0159 c -0.0318,-0.008 -0.0609,-0.0172 -0.0662,-0.0199 -0.005,-0.004 -0.0186,0.008 -0.0291,0.0238 z"
       id="path41356"
       style="fill:#ffffff;fill-opacity:1;stroke-width:0.0013249" />
    <path
       d="m 23.316588,14.895686 -0.0636,0.0212 v 2.00855 2.00855 l 0.0795,0.0238 c 0.45047,0.13514 0.80157,0.53261 0.90226,1.0215 0.0212,0.10334 0.0212,0.37627 0,0.47564 -0.0119,0.0503 -0.0119,0.0821 -0.004,0.0901 0.0159,0.0159 3.74284,2.06552 3.74682,2.06022 0.004,-0.005 -4.58416,-7.73345 -4.59211,-7.73212 -0.004,0 -0.0345,0.0106 -0.0689,0.0225 z"
       id="path41358"
       style="fill:#ffffff;fill-opacity:1;stroke-width:0.0013249" />
    <path
       d="m 14.354948,18.724656 -2.10659,1.15929 0.0186,0.0941 c 0.0292,0.15104 0.0146,0.44782 -0.0292,0.59488 -0.0636,0.21066 -0.16959,0.39218 -0.32858,0.55911 l -0.0914,0.0967 2.32785,3.92701 c 1.27985,2.15959 2.33315,3.93098 2.33977,3.93761 0.005,0.008 0.0106,-2.58489 0.0106,-5.75935 0,-4.60933 -0.004,-5.7726 -0.0159,-5.77127 -0.009,10e-4 -0.96585,0.52333 -2.12514,1.16194 z"
       id="path41360"
       style="fill:#ffffff;fill-opacity:1;stroke-width:0.0013249" />
    <path
       d="m 17.383678,23.333986 v 5.77392 l 0.0636,-0.10599 c 0.0344,-0.0583 1.0851,-1.83102 2.3358,-3.94026 l 2.27486,-3.83426 -0.0914,-0.0914 c -0.3087,-0.31268 -0.44119,-0.76977 -0.34977,-1.20964 l 0.009,-0.0411 -2.11454,-1.16194 c -1.16194,-0.6386 -2.11719,-1.16194 -2.12117,-1.16194 -0.004,0 -0.007,2.59814 -0.007,5.7726 z"
       id="path41362"
       style="fill:#ffffff;fill-opacity:1;stroke-width:0.0013249" />
    <path
       d="m 7.6549283,22.409206 c -1.27986,0.70352 -2.32653,1.28383 -2.32388,1.29045 0.003,0.0106 10.9821097,6.45095 10.9874097,6.44565 0.001,-0.003 -1.14869,-1.94628 -2.55574,-4.31918 -1.78597,-3.0115 -2.56501,-4.31388 -2.57826,-4.30991 -0.009,0.004 -0.0782,0.0106 -0.15236,0.0159 -0.35375,0.0212 -0.69425,-0.0967 -0.9685,-0.33387 l -0.0795,-0.0689 z"
       id="path41364"
       style="fill:#ffffff;fill-opacity:1;stroke-width:0.0013249" />
    <path
       d="m 23.827998,21.179696 c -0.0716,0.0742 -0.24908,0.18946 -0.37362,0.24378 -0.17622,0.0769 -0.31401,0.10467 -0.52599,0.10467 -0.10202,0.001 -0.20138,-0.003 -0.22126,-0.008 -0.0344,-0.0106 -0.0623,0.0358 -2.57428,4.27281 -1.39777,2.35435 -2.55176,4.30195 -2.56634,4.3258 l -0.0265,0.0437 0.0967,-0.057 c 0.0543,-0.0318 2.53189,-1.48521 5.50762,-3.23011 4.21981,-2.47359 5.4056,-3.17446 5.39235,-3.18639 -0.0119,-0.0106 -4.3682,-2.40734 -4.64908,-2.55838 -0.004,-0.003 -0.0305,0.0199 -0.0596,0.049 z"
       id="path41366"
       style="fill:#ffffff;fill-opacity:1;stroke-width:0.0013249" />
  </g>
</svg>
