<?xml version="1.0" encoding="UTF-8" standalone="no"?>
<svg
   viewBox="0 0 128 128"
   version="1.1"
   id="svg18"
   sodipodi:docname="wrapped-bitcoin-wbtc-logo.svg"
   width="128"
   height="128"
   inkscape:export-filename="..\All Crypto\wbtc.png"
   inkscape:export-xdpi="96"
   inkscape:export-ydpi="96"
   xmlns:inkscape="http://www.inkscape.org/namespaces/inkscape"
   xmlns:sodipodi="http://sodipodi.sourceforge.net/DTD/sodipodi-0.dtd"
   xmlns="http://www.w3.org/2000/svg"
   xmlns:svg="http://www.w3.org/2000/svg"
   xmlns:rdf="http://www.w3.org/1999/02/22-rdf-syntax-ns#"
   xmlns:cc="http://creativecommons.org/ns#"
   xmlns:dc="http://purl.org/dc/elements/1.1/">
  <sodipodi:namedview
     id="namedview20"
     pagecolor="#ffffff"
     bordercolor="#000000"
     borderopacity="0.25"
     inkscape:showpageshadow="2"
     inkscape:pageopacity="0.0"
     inkscape:pagecheckerboard="0"
     inkscape:deskcolor="#d1d1d1"
     showgrid="false" />
  <defs
     id="defs4">
    <style
       id="style2">.cls-1{fill:#5a5564;}.cls-2{fill:#f09242;}.cls-3{fill:#282138;}</style>
  </defs>
  <title
     id="title6">wrapped-bitcoin-wbtc</title>
  <g
     id="Layer_2"
     data-name="Layer 2"
     transform="matrix(1.1715175,0,0,1.1715175,-2.0974254e-6,-2.0974254e-6)">
    <g
       id="Layer_1-2"
       data-name="Layer 1">
      <g
         id="Page-1">
        <g
           id="wbtc_colour"
           data-name="wbtc colour">
          <path
             id="Shape"
             class="cls-1"
             d="m 89.09,22.93 -3,3 a 42.47,42.47 0 0 1 0,57.32 l 3,3 a 46.76,46.76 0 0 0 0,-63.39 z" />
          <path
             id="Shape-2"
             data-name="Shape"
             class="cls-1"
             d="m 26,23.19 a 42.47,42.47 0 0 1 57.32,0 l 3,-3 a 46.76,46.76 0 0 0 -63.39,0 z" />
          <path
             id="Shape-3"
             data-name="Shape"
             class="cls-1"
             d="m 23.19,83.28 a 42.47,42.47 0 0 1 0,-57.29 l -3,-3 a 46.76,46.76 0 0 0 0,63.39 z" />
          <path
             id="Shape-4"
             data-name="Shape"
             class="cls-1"
             d="m 83.28,86.05 a 42.47,42.47 0 0 1 -57.32,0 l -3,3 a 46.76,46.76 0 0 0 63.39,0 z" />
          <path
             id="Shape-5"
             data-name="Shape"
             class="cls-2"
             d="m 73.57,44.62 c -0.6,-6.26 -6,-8.36 -12.83,-9 V 27 h -5.28 v 8.46 c -1.39,0 -2.81,0 -4.22,0 V 27 H 46 v 8.68 H 35.29 v 5.65 c 0,0 3.9,-0.07 3.84,0 a 2.73,2.73 0 0 1 3,2.32 v 23.76 a 1.85,1.85 0 0 1 -0.64,1.29 1.83,1.83 0 0 1 -1.36,0.46 c 0.07,0.06 -3.84,0 -3.84,0 l -1,6.31 H 45.9 v 8.82 h 5.28 V 75.6 h 4.22 v 8.65 h 5.29 V 75.53 C 69.61,74.99 75.83,72.79 76.61,64.44 77.24,57.72 74.08,54.72 69.03,53.51 72.1,52 74,49.2 73.57,44.62 Z m -7.4,18.78 c 0,6.56 -11.24,5.81 -14.82,5.81 V 57.57 c 3.58,0.01 14.82,-1.02 14.82,5.83 z M 63.72,47 c 0,6 -9.38,5.27 -12.36,5.27 V 41.69 c 2.98,0 12.36,-0.94 12.36,5.31 z" />
          <path
             id="Shape-6"
             data-name="Shape"
             class="cls-3"
             d="m 54.62,109.26 a 54.63,54.63 0 1 1 54.64,-54.64 54.63,54.63 0 0 1 -54.64,54.64 z m 0,-105 A 50.34,50.34 0 1 0 105,54.62 50.34,50.34 0 0 0 54.62,4.26 Z" />
        </g>
      </g>
    </g>
  </g>
  <metadata
     id="metadata22">
    <rdf:RDF>
      <cc:Work
         rdf:about="">
        <dc:title>wrapped-bitcoin-wbtc</dc:title>
      </cc:Work>
    </rdf:RDF>
  </metadata>
</svg>
