<?xml version="1.0" encoding="UTF-8" standalone="no"?>
<svg
   width="128"
   height="128"
   viewBox="0 0 1.6384 1.6384"
   version="1.1"
   id="svg10373"
   sodipodi:docname="eth.svg"
   inkscape:export-filename="..\..\All Crypto\weth.png"
   inkscape:export-xdpi="96"
   inkscape:export-ydpi="96"
   xmlns:inkscape="http://www.inkscape.org/namespaces/inkscape"
   xmlns:sodipodi="http://sodipodi.sourceforge.net/DTD/sodipodi-0.dtd"
   xmlns="http://www.w3.org/2000/svg"
   xmlns:svg="http://www.w3.org/2000/svg">
  <defs
     id="defs10377" />
  <sodipodi:namedview
     id="namedview10375"
     pagecolor="#ffffff"
     bordercolor="#000000"
     borderopacity="0.25"
     inkscape:showpageshadow="2"
     inkscape:pageopacity="0.0"
     inkscape:pagecheckerboard="0"
     inkscape:deskcolor="#d1d1d1"
     showgrid="false" />
  <g
     fill="none"
     fill-rule="evenodd"
     id="g10371"
     inkscape:label="g10371"
     transform="scale(0.0512)">
    <circle
       cx="16"
       cy="16"
       r="16"
       fill="#627eea"
       id="circle10355"
       style="fill:#ffffff;fill-opacity:1" />
    <g
       id="_1421394342400"
       transform="matrix(0.0128,0,0,0.0128,7.2743625,7.8440684)">
   <g
   id="g2108"
   transform="matrix(1.4675425,0,0,1.4675425,145.20477,-300.12256)">
    <polygon
   fill="#343434"
   fill-rule="nonzero"
   points="392.07,0 383.5,29.11 383.5,873.74 392.07,882.29 784.13,650.54 "
   id="polygon2096" />

    <polygon
   fill="#8c8c8c"
   fill-rule="nonzero"
   points="392.07,0 0,650.54 392.07,882.29 392.07,472.33 "
   id="polygon2098" />

    <polygon
   fill="#3c3c3b"
   fill-rule="nonzero"
   points="392.07,956.52 387.24,962.41 387.24,1263.28 392.07,1277.38 784.37,724.89 "
   id="polygon2100" />

    <polygon
   fill="#8c8c8c"
   fill-rule="nonzero"
   points="0,724.89 392.07,1277.38 392.07,956.52 "
   id="polygon2102" />

    <polygon
   fill="#141414"
   fill-rule="nonzero"
   points="392.07,472.33 392.07,882.29 784.13,650.54 "
   id="polygon2104" />

    <polygon
   fill="#393939"
   fill-rule="nonzero"
   points="392.07,472.33 0,650.54 392.07,882.29 "
   id="polygon2106" />

   </g>

  </g>
  </g>
</svg>
