<?xml version="1.0" encoding="UTF-8" standalone="no"?>
<!-- Created with Inkscape (http://www.inkscape.org/) -->

<svg
   width="127.99999"
   height="127.99999"
   viewBox="0 0 33.866664 33.866664"
   version="1.1"
   id="svg254"
   inkscape:export-filename="xava.png"
   inkscape:export-xdpi="96"
   inkscape:export-ydpi="96"
   xmlns:inkscape="http://www.inkscape.org/namespaces/inkscape"
   xmlns:sodipodi="http://sodipodi.sourceforge.net/DTD/sodipodi-0.dtd"
   xmlns:xlink="http://www.w3.org/1999/xlink"
   xmlns="http://www.w3.org/2000/svg"
   xmlns:svg="http://www.w3.org/2000/svg">
  <sodipodi:namedview
     id="namedview256"
     pagecolor="#ffffff"
     bordercolor="#000000"
     borderopacity="0.25"
     inkscape:showpageshadow="2"
     inkscape:pageopacity="0.0"
     inkscape:pagecheckerboard="0"
     inkscape:deskcolor="#d1d1d1"
     inkscape:document-units="mm"
     showgrid="false" />
  <defs
     id="defs251">
    <linearGradient
       id="d"
       x1="113.14"
       y1="-27.690001"
       x2="113.14"
       y2="156.47"
       gradientUnits="userSpaceOnUse">
      <stop
         offset="0"
         stop-color="#ff6746"
         id="stop13590" />
      <stop
         offset="1"
         stop-color="#ff0546"
         id="stop13592" />
    </linearGradient>
    <linearGradient
       id="e"
       x1="113.14"
       y1="56.18"
       x2="113.14"
       y2="142.46001"
       xlink:href="#d" />
    <linearGradient
       id="f"
       x1="113.14"
       y1="85.099998"
       x2="113.14"
       y2="160.8"
       xlink:href="#d" />
    <linearGradient
       id="g"
       x1="113.14"
       y1="107.76"
       x2="113.14"
       y2="240.03"
       xlink:href="#d" />
    <linearGradient
       inkscape:collect="always"
       xlink:href="#d"
       id="linearGradient13774"
       gradientUnits="userSpaceOnUse"
       x1="113.14"
       y1="-27.690001"
       x2="113.14"
       y2="156.47" />
  </defs>
  <g
     inkscape:label="Layer 1"
     inkscape:groupmode="layer"
     id="layer1">
    <circle
       style="fill:#ffffff;fill-opacity:1;stroke-width:0;stroke-linejoin:bevel;stroke-opacity:0.684597"
       id="path427"
       cx="16.933332"
       cy="16.933332"
       r="16.933332" />
    <g
       id="b"
       transform="matrix(0.11692091,0,0,0.11692091,3.7038227,2.7671881)">
      <g
         id="c">
        <g
           id="g13609">
          <path
             class="j"
             d="m 87.16,15.57 c 11.11,-20.76 40.86,-20.76 51.97,0 l 83.48,156.02 c 14.69,27.46 -17.7,55.97 -43.07,37.91 l -49.3,-35.09 c -10.23,-7.28 -23.95,-7.28 -34.18,0 L 46.76,209.5 C 21.39,227.56 -11,199.05 3.69,171.59 Z"
             id="path13601"
             style="fill:url(#linearGradient13774)" />
          <path
             class="k"
             d="M 222.6,171.59 157.66,50.2 c -0.36,0.33 -0.71,0.66 -1.06,1 l -5.28,5.17 C 127.98,79.26 90.35,78.39 68.09,54.45 L 66.98,53.26 3.68,171.59 c -4.58,8.56 -4.58,17.22 -1.65,24.54 h 63.52 l 30.51,-21.72 c 10.23,-7.28 23.95,-7.28 34.18,0 l 30.51,21.72 h 63.52 c 2.93,-7.32 2.93,-15.98 -1.65,-24.54 z"
             id="path13603"
             style="fill:url(#e)" />
          <path
             class="h"
             d="m 46.75,209.5 49.3,-35.09 c 10.23,-7.28 23.95,-7.28 34.18,0 l 49.3,35.09 c 25.37,18.06 57.76,-10.45 43.07,-37.91 L 171.16,75.45 c -5.28,2.64 -10.21,6.11 -14.57,10.38 L 151.31,91 C 127.97,113.89 90.34,113.02 68.08,89.08 L 66.45,87.33 C 62.76,83.36 58.57,80.05 54.06,77.4 L 3.68,171.59 c -14.69,27.46 17.7,55.97 43.07,37.91 z"
             id="path13605"
             style="fill:url(#f)" />
          <path
             class="i"
             d="m 46.75,209.5 49.3,-35.09 c 10.23,-7.28 23.95,-7.28 34.18,0 l 49.3,35.09 c 25.37,18.06 57.76,-10.45 43.07,-37.91 l -35.7,-66.72 c -11.21,1.98 -21.83,7.27 -30.31,15.59 l -5.28,5.17 c -23.34,22.89 -60.97,22.02 -83.23,-1.92 l -1.63,-1.75 c -7.6,-8.17 -17.29,-13.6 -27.66,-16.02 L 3.68,171.59 c -14.69,27.46 17.7,55.97 43.07,37.91 z"
             id="path13607"
             style="fill:url(#g)" />
        </g>
      </g>
    </g>
  </g>
</svg>
