<?xml version="1.0" encoding="UTF-8" standalone="no"?>
<!-- Created with Inkscape (http://www.inkscape.org/) -->

<svg
   width="127.99999"
   height="127.99999"
   viewBox="0 0 33.866664 33.866664"
   version="1.1"
   id="svg262"
   inkscape:export-filename="bava.svg"
   inkscape:export-xdpi="96"
   inkscape:export-ydpi="96"
   xmlns:inkscape="http://www.inkscape.org/namespaces/inkscape"
   xmlns:sodipodi="http://sodipodi.sourceforge.net/DTD/sodipodi-0.dtd"
   xmlns="http://www.w3.org/2000/svg"
   xmlns:svg="http://www.w3.org/2000/svg">
  <sodipodi:namedview
     id="namedview264"
     pagecolor="#ffffff"
     bordercolor="#000000"
     borderopacity="0.25"
     inkscape:showpageshadow="2"
     inkscape:pageopacity="0.0"
     inkscape:pagecheckerboard="0"
     inkscape:deskcolor="#d1d1d1"
     inkscape:document-units="mm"
     showgrid="false" />
  <defs
     id="defs259" />
  <g
     inkscape:label="Layer 1"
     inkscape:groupmode="layer"
     id="layer1">
    <circle
       style="display:inline;fill:#262626;fill-opacity:1;stroke-width:0.74558;stroke-linecap:square;paint-order:stroke fill markers"
       id="path435"
       cx="16.933332"
       cy="16.933332"
       r="16.933332" />
    <g
       transform="matrix(0.00847884,0,0,-0.00847884,-0.02927122,32.981078)"
       fill="#000000"
       stroke="none"
       id="g4754">
      <path
         d="m 670,2922 c 0,-88 34,-233 75,-317 68,-142 199,-241 376,-286 70,-17 124,-22 325,-26 133,-3 247,-9 254,-13 7,-4 30,-69 51,-145 36,-130 45,-154 52,-144 2,2 18,23 36,46 l 32,43 63,-128 63,-127 65,129 64,128 34,-43 c 19,-24 35,-46 37,-48 7,-10 16,14 52,143 21,75 41,140 45,144 4,4 114,10 244,13 277,7 358,21 481,80 107,52 183,128 235,233 41,83 76,227 76,318 0,66 14,83 29,36 51,-159 61,-380 22,-522 -50,-187 -174,-337 -354,-427 -80,-41 -215,-85 -322,-104 -106,-20 -150,-41 -193,-90 -18,-19 -83,-137 -144,-261 l -113,-225 -4,-161 -3,-160 -60,-104 -61,-104 h -127 -128 l -61,105 -61,104 v 119 c 0,66 -4,144 -10,173 -10,60 -205,455 -253,515 -39,47 -86,69 -191,88 -380,72 -602,250 -682,546 -21,78 -24,282 -5,377 18,95 41,164 51,158 6,-4 10,-32 10,-63 z"
         id="path4752"
         sodipodi:nodetypes="scccscccccccccccscccscccccccccccccccsccccccs"
         style="fill:#00c864;fill-opacity:1" />
    </g>
  </g>
</svg>
