<?xml version="1.0" encoding="UTF-8" standalone="no"?>
<!-- Created with Inkscape (http://www.inkscape.org/) -->

<svg
   width="127.99999"
   height="127.99999"
   viewBox="0 0 33.866664 33.866664"
   version="1.1"
   id="svg360"
   inkscape:export-filename="yay.png"
   inkscape:export-xdpi="96"
   inkscape:export-ydpi="96"
   xmlns:inkscape="http://www.inkscape.org/namespaces/inkscape"
   xmlns:sodipodi="http://sodipodi.sourceforge.net/DTD/sodipodi-0.dtd"
   xmlns="http://www.w3.org/2000/svg"
   xmlns:svg="http://www.w3.org/2000/svg">
  <sodipodi:namedview
     id="namedview362"
     pagecolor="#ffffff"
     bordercolor="#000000"
     borderopacity="0.25"
     inkscape:showpageshadow="2"
     inkscape:pageopacity="0.0"
     inkscape:pagecheckerboard="0"
     inkscape:deskcolor="#d1d1d1"
     inkscape:document-units="mm"
     showgrid="false" />
  <defs
     id="defs357" />
  <g
     inkscape:label="Layer 1"
     inkscape:groupmode="layer"
     id="layer1">
    <circle
       style="fill:#272424;fill-opacity:1;stroke-width:0.235053"
       id="path533"
       cx="16.933332"
       cy="16.933332"
       r="16.933332" />
    <path
       d="M 9.2362768,21.925502 9.0729125,21.355884 8.6374967,21.141428 C 8.3980181,21.023477 8.0631747,20.885423 7.8934003,20.834639 L 7.5847199,20.742299 V 18.846727 16.95115 L 6.336162,14.863088 5.0876044,12.775027 5.2994266,12.519796 5.5112489,12.264566 H 4.6077066 3.7041643 v -0.440972 -0.440972 h 2.38125 2.3812499 v 0.440972 0.440972 H 8.036102 7.6055397 l -0.1229376,0.198918 -0.1229376,0.198917 0.6769986,1.388556 0.6769981,1.388556 0.1352799,-0.13528 c 0.074404,-0.0744 0.4171971,-0.714557 0.7617627,-1.422562 l 0.6264822,-1.287282 -0.101921,-0.164911 c -0.05606,-0.0907 -0.2758296,-0.164968 -0.4883856,-0.165036 l -0.3864652,-1.25e-4 -0.025784,-0.446387 -0.025784,-0.446387 2.3629358,0.02192 2.362935,0.02192 v 0.424594 0.424595 h -0.31353 c -0.507063,0 -1.059693,0.486884 -1.714523,1.510548 l -0.613398,0.958896 -0.310872,0.0027 -0.310871,0.0027 0.238697,0.151255 0.238698,0.151256 -0.200806,0.37521 c -0.110444,0.206365 -0.277389,0.37521 -0.370989,0.37521 H 10.40694 l -0.0056,0.30868 c -0.0031,0.169775 -0.122148,0.462759 -0.264584,0.651075 l -0.2589735,0.342394 v 2.700314 2.700314 H 9.6387065 9.3996398 Z M 8.8194419,19.437715 V 19.202528 H 8.5548586 c -0.4476819,0 -0.3077787,0.289625 0.220486,0.456445 0.024254,0.0077 0.044097,-0.09191 0.044097,-0.221258 z m -1.411111,-5.673843 c 0,-0.04851 -0.039688,-0.0882 -0.088194,-0.0882 -0.048507,0 -0.088195,0.03969 -0.088195,0.0882 0,0.04851 0.039687,0.08819 0.088195,0.08819 0.048507,0 0.088194,-0.03969 0.088194,-0.08819 z m 3.5277771,-0.07779 c 0,-0.09129 -0.07938,-0.215036 -0.176389,-0.274993 l -0.176388,-0.109014 v 0.274993 0.274993 h 0.176388 c 0.09701,0 0.176389,-0.07469 0.176389,-0.165979 z m -4.2333327,-1.50971 c 0,-0.04851 -0.039687,-0.08819 -0.088194,-0.08819 -0.048507,0 -0.088194,0.03969 -0.088194,0.08819 0,0.04851 0.039688,0.08819 0.088194,0.08819 0.048507,0 0.088194,-0.03969 0.088194,-0.08819 z M 7.3495347,11.617807 7.2319419,11.500214 v 0.235185 0.235186 l 0.1175928,-0.117593 0.1175924,-0.117593 z m 0.4115739,0.0294 c 0,-0.04851 -0.039687,-0.08819 -0.088194,-0.08819 -0.048507,0 -0.088194,0.03969 -0.088194,0.08819 0,0.04851 0.039687,0.08819 0.088194,0.08819 0.048507,0 0.088194,-0.03969 0.088194,-0.08819 z M 25.752774,22.318732 c 0,-0.09701 -0.003,-0.213023 -0.0068,-0.257799 -0.0037,-0.04477 -0.247963,-0.322587 -0.542735,-0.617361 L 24.667303,20.907621 H 24.2399 23.812496 v -2.012643 -2.012641 l -0.462903,-0.707026 c -0.254598,-0.388866 -0.433192,-0.746782 -0.396875,-0.79537 0.03632,-0.04859 -0.115769,-0.281858 -0.337968,-0.518376 l -0.403994,-0.430033 -0.0837,-0.461595 -0.0837,-0.461594 0.31131,0.100306 0.311309,0.100306 -0.258667,-0.182938 -0.258667,-0.182938 -0.198718,0.164921 -0.198717,0.16492 -0.190434,-0.417956 -0.190433,-0.417956 0.198026,-0.198027 0.198027,-0.198026 -0.432153,-0.02687 c -0.237684,-0.01478 -0.511528,-0.04531 -0.608542,-0.06785 -0.09701,-0.02254 -0.354982,-0.05014 -0.573264,-0.06133 l -0.396875,-0.02035 v -0.444594 -0.444594 l 2.38125,0.01828 2.38125,0.01828 v 0.426314 0.426313 h -0.529166 c -0.656461,0 -0.671084,-0.114948 0.211823,1.665291 l 0.740992,1.494086 0.229147,-0.190175 c 0.126032,-0.104597 0.229149,-0.29463 0.229149,-0.422297 0,-0.127667 0.247433,-0.682978 0.549854,-1.234027 l 0.549852,-1.001905 -0.241171,-0.152786 c -0.132646,-0.08403 -0.380079,-0.154 -0.549855,-0.155486 l -0.30868,-0.0027 v -0.440974 -0.440972 h 2.381249 2.38125 v 0.409864 0.409863 l -0.659447,0.163401 -0.659448,0.1634 -1.37057,2.263692 -1.370571,2.263694 -0.02553,2.719292 -0.02553,2.719294 h -0.14932 c -0.08212,0 -0.149319,-0.07937 -0.149319,-0.176389 z m -0.529166,-3.086805 c 0,-0.04851 -0.03969,-0.08819 -0.0882,-0.08819 -0.04851,0 -0.08819,0.03969 -0.08819,0.08819 0,0.04851 0.03969,0.08819 0.08819,0.08819 0.04851,0 0.0882,-0.03969 0.0882,-0.08819 z m 1.528705,-4.43912 -0.117594,-0.117593 -0.117595,0.117593 -0.117591,0.117592 h 0.235186 0.235185 z m -3.821761,-0.146991 c 0,-0.04851 -0.03969,-0.08819 -0.08819,-0.08819 -0.04851,0 -0.0882,0.03969 -0.0882,0.08819 0,0.04851 0.03969,0.08819 0.0882,0.08819 0.04851,0 0.08819,-0.03969 0.08819,-0.08819 z m 4.409723,-1.058333 c 0,-0.04851 -0.03969,-0.08819 -0.0882,-0.08819 -0.04851,0 -0.08819,0.03969 -0.08819,0.08819 0,0.04851 0.03969,0.08819 0.08819,0.08819 0.04851,0 0.0882,-0.03969 0.0882,-0.08819 z m -5.174074,-0.734954 -0.117593,-0.117592 -0.117593,0.117592 -0.117592,0.117593 h 0.235185 0.235184 z m 0.705556,-0.529167 -0.117594,-0.117592 v 0.235185 0.235185 l 0.117594,-0.117592 0.117591,-0.117593 z m -0.734955,-0.411574 c 0.05996,-0.09701 0.06933,-0.176389 0.02082,-0.176389 -0.04851,0 -0.137249,0.07937 -0.197207,0.176389 -0.05996,0.09701 -0.06933,0.176389 -0.02082,0.176389 0.04851,0 0.137249,-0.07937 0.197207,-0.176389 z m 3.615972,0.08819 c 0,-0.04851 -0.03969,-0.08819 -0.08819,-0.08819 -0.04851,0 -0.08819,0.03969 -0.08819,0.08819 0,0.04851 0.03969,0.08819 0.08819,0.08819 0.04851,0 0.08819,-0.03969 0.08819,-0.08819 z m 2.116668,0 c 0,-0.04851 -0.03969,-0.08819 -0.0882,-0.08819 -0.04851,0 -0.08819,0.03969 -0.08819,0.08819 0,0.04851 0.03969,0.08819 0.08819,0.08819 0.04851,0 0.0882,-0.03969 0.0882,-0.08819 z m -15.301737,8.940633 -0.396875,-0.05753 v -0.428705 -0.428704 h 0.237246 c 0.130485,0 0.362308,-0.138906 0.515162,-0.308681 l 0.277918,-0.308679 0.908573,-2.469444 c 0.499715,-1.358195 1.154725,-3.163976 1.455578,-4.012848 l 0.547005,-1.543402 h 1.032235 1.032237 l 0.17886,0.470434 0.178858,0.470435 -0.227323,0.144226 -0.227321,0.144225 0.266647,0.0027 0.266649,0.0027 1.033101,2.778124 c 0.568205,1.527969 1.194061,3.159467 1.390791,3.62555 l 0.35769,0.847425 0.503324,0.100666 0.503326,0.100665 v 0.418923 0.418924 l -0.48507,0.023 c -0.266788,0.01265 -0.8621,0.0347 -1.322916,0.049 l -0.837848,0.02601 -0.0027,-0.269485 -0.0027,-0.269487 -0.129589,0.191862 c -0.07127,0.105523 -0.313041,0.238267 -0.537256,0.294987 l -0.407662,0.103121 -0.103108,-0.268694 -0.103106,-0.268693 0.178317,-0.114488 c 0.09808,-0.06297 0.236519,-0.300856 0.307653,-0.528636 l 0.129337,-0.414143 -0.296539,-0.776478 -0.296542,-0.77648 h -1.272892 -1.272894 l -0.211823,0.585788 c -0.116508,0.322184 -0.211829,0.761237 -0.211829,0.975675 v 0.389888 l 0.261155,0.100213 0.261154,0.100216 -0.03504,0.423416 -0.03504,0.423416 -0.358403,0.02095 c -0.965109,0.05641 -2.695115,0.06325 -3.048334,0.01205 z m 0.572556,-0.739696 -0.09878,-0.159835 -0.258934,0.09936 -0.258935,0.09936 v 0.251916 0.251919 l 0.357718,-0.191439 0.357718,-0.191446 z m 8.026403,0.442119 c 0,-0.04851 -0.03969,-0.08819 -0.08819,-0.08819 -0.04851,0 -0.08819,0.03969 -0.08819,0.08819 0,0.04851 0.03969,0.08819 0.08819,0.08819 0.04851,0 0.08819,-0.03969 0.08819,-0.08819 z m -1.763889,-0.705555 c 0,-0.04851 -0.03969,-0.0882 -0.08819,-0.0882 -0.04851,0 -0.08819,0.03969 -0.08819,0.0882 0,0.04851 0.03969,0.08819 0.08819,0.08819 0.04851,0 0.08819,-0.03969 0.08819,-0.08819 z m -5.468056,-0.705556 c 0,-0.04851 -0.03969,-0.08819 -0.08819,-0.08819 -0.04851,0 -0.08819,0.03969 -0.08819,0.08819 0,0.04851 0.03969,0.08819 0.08819,0.08819 0.04851,0 0.08819,-0.03969 0.08819,-0.08819 z m 0,-0.705556 c 0,-0.04851 -0.03969,-0.08819 -0.08819,-0.08819 -0.04851,0 -0.08819,0.03969 -0.08819,0.08819 0,0.04851 0.03969,0.0882 0.08819,0.0882 0.04851,0 0.08819,-0.03969 0.08819,-0.0882 z m 5.232871,-0.382172 -0.117593,-0.117591 v 0.235184 0.235185 l 0.117593,-0.117592 0.117591,-0.117593 z m 0.764351,0.205788 c 0,-0.04851 -0.03969,-0.0882 -0.08819,-0.0882 -0.04851,0 -0.08819,0.03969 -0.08819,0.0882 0,0.04851 0.03969,0.08819 0.08819,0.08819 0.04851,0 0.08819,-0.03969 0.08819,-0.08819 z m -1.852243,-1.807986 c -0.06936,-0.169775 -0.289523,-0.78271 -0.489262,-1.362078 l -0.363164,-1.053397 -0.411554,1.220047 c -0.226355,0.671025 -0.411554,1.283961 -0.411554,1.362078 v 0.14203 h 0.900816 0.900816 z m -1.851923,0.0441 c 0,-0.04851 -0.03969,-0.08819 -0.08819,-0.08819 -0.04851,0 -0.08819,0.03969 -0.08819,0.08819 0,0.04851 0.03969,0.08819 0.08819,0.08819 0.04851,0 0.08819,-0.03969 0.08819,-0.08819 z m 2.822222,-0.285403 v -0.176389 l -0.176389,0.109014 c -0.09701,0.05996 -0.176389,0.188389 -0.176389,0.285403 v 0.176388 l 0.176389,-0.109013 c 0.09701,-0.05996 0.176389,-0.188389 0.176389,-0.285403 z m -3.527778,-0.243767 c 0,-0.04851 -0.03969,-0.08819 -0.08819,-0.08819 -0.04851,0 -0.08819,0.03969 -0.08819,0.08819 0,0.04851 0.03969,0.08819 0.08819,0.08819 0.04851,0 0.08819,-0.03969 0.08819,-0.08819 z m 2.822222,-0.686684 c 0,-0.03813 -0.119062,-0.115011 -0.264583,-0.170853 l -0.264583,-0.10153 v 0.170853 0.170853 h 0.264583 c 0.145521,0 0.264583,-0.0312 0.264583,-0.06932 z m -0.408673,-1.198472 -0.09264,-0.231511 -0.01392,0.338079 -0.01394,0.338079 0.106569,-0.106568 0.106567,-0.106569 -0.09264,-0.23151 z m 0.0559,-2.171788 c 0,-0.04851 -0.03969,-0.08819 -0.08819,-0.08819 -0.04851,0 -0.0882,0.03969 -0.0882,0.08819 0,0.04851 0.03969,0.0882 0.0882,0.0882 0.04851,0 0.08819,-0.03969 0.08819,-0.0882 z"
       style="fill:#4be43e;fill-opacity:1;stroke-width:0.176389"
       id="path2308" />
  </g>
</svg>
