<?xml version="1.0" encoding="UTF-8" standalone="no"?>
<!-- Generator: Adobe Illustrator 26.1.0, SVG Export Plug-In . SVG Version: 6.00 Build 0)  -->

<svg
   version="1.1"
   id="Layer_1"
   x="0px"
   y="0px"
   viewBox="0 0 128 128"
   xml:space="preserve"
   sodipodi:docname="zoo-ticker.svg"
   width="128"
   height="128"
   inkscape:export-filename="..\Tokens_128x128\zoo.png"
   inkscape:export-xdpi="96"
   inkscape:export-ydpi="96"
   xmlns:inkscape="http://www.inkscape.org/namespaces/inkscape"
   xmlns:sodipodi="http://sodipodi.sourceforge.net/DTD/sodipodi-0.dtd"
   xmlns="http://www.w3.org/2000/svg"
   xmlns:svg="http://www.w3.org/2000/svg"><defs
   id="defs2723" /><sodipodi:namedview
   id="namedview2721"
   pagecolor="#ffffff"
   bordercolor="#000000"
   borderopacity="0.25"
   inkscape:showpageshadow="2"
   inkscape:pageopacity="0.0"
   inkscape:pagecheckerboard="0"
   inkscape:deskcolor="#d1d1d1"
   showgrid="false" />
<style
   type="text/css"
   id="style2678">
	.st0{fill:#129487;}
	.st1{fill:#FFFFFF;}
	.st2{fill:#E4E4E4;}
</style>
<circle
   class="st0"
   cx="64"
   cy="64"
   id="circle2680"
   style="stroke-width:1.6"
   r="64" />
<g
   id="g2718"
   transform="scale(1.6)">
	<polygon
   class="st1"
   points="25.3,40.5 22.6,40.5 22.6,56.9 25.3,56.9 25.3,59.7 58.2,59.7 58.2,46.1 52.7,46.1 52.7,43.1 55.5,43.1 55.5,40.3 58.2,40.3 58.2,24 55.5,24 55.5,21.2 22.6,21.2 22.6,34.8 25.3,34.8 "
   id="polygon2682" />
	<g
   id="g2716">
		<g
   id="g2694">
			<polygon
   class="st2"
   points="52.8,29.4 52.8,26.6 52.8,23.9 50.1,23.9 50.1,26.6 50.1,29.4 50.1,32.2 50.1,34.9 50.1,37.7 52.8,37.7 52.8,34.9 52.8,32.2 "
   id="polygon2684" />
			<rect
   x="47.299999"
   y="37.700001"
   class="st2"
   width="2.8"
   height="2.8"
   id="rect2686" />
			<polygon
   class="st2"
   points="47.3,43.2 47.3,40.4 44.5,40.4 41.8,40.4 41.8,43.2 44.5,43.2 "
   id="polygon2688" />
			<rect
   x="39"
   y="43.200001"
   class="st2"
   width="2.8"
   height="2.8"
   id="rect2690" />
			<polygon
   class="st2"
   points="28,51.5 25.3,51.5 25.3,54.3 28,54.3 30.8,54.3 33.5,54.3 36.3,54.3 39,54.3 41.8,54.3 44.5,54.3 47.3,54.3 50.1,54.3 52.8,54.3 52.8,51.5 52.8,48.7 52.8,46 50.1,46 50.1,48.7 50.1,51.5 47.3,51.5 44.5,51.5 41.8,51.5 39,51.5 36.3,51.5 33.5,51.5 30.8,51.5 "
   id="polygon2692" />
		</g>
		<g
   id="g2708">
			<polygon
   class="st0"
   points="55.6,26.6 52.8,26.6 52.8,29.4 52.8,32.2 52.8,34.9 52.8,37.7 55.6,37.7 55.6,34.9 55.6,32.2 55.6,29.4 "
   id="polygon2696" />
			<rect
   x="50.099998"
   y="37.700001"
   class="st0"
   width="2.8"
   height="2.8"
   id="rect2698" />
			<rect
   x="47.299999"
   y="40.400002"
   class="st0"
   width="2.8"
   height="2.8"
   id="rect2700" />
			<rect
   x="41.799999"
   y="43.200001"
   class="st0"
   width="2.8"
   height="2.8"
   id="rect2702" />
			<polygon
   class="st0"
   points="28,32.2 28,34.9 30.8,34.9 33.5,34.9 36.3,34.9 39,34.9 41.8,34.9 41.8,32.2 39,32.2 36.3,32.2 33.5,32.2 30.8,32.2 "
   id="polygon2704" />
			<polygon
   class="st0"
   points="30.8,54.3 28,54.3 28,57 30.8,57 33.5,57 36.3,57 39,57 41.8,57 44.5,57 47.3,57 50.1,57 52.8,57 55.6,57 55.6,54.3 55.6,51.5 55.6,48.7 52.8,48.7 52.8,51.5 52.8,54.3 50.1,54.3 47.3,54.3 44.5,54.3 41.8,54.3 39,54.3 36.3,54.3 33.5,54.3 "
   id="polygon2706" />
		</g>
		<g
   id="g2714">
			<polygon
   points="33.5,21.1 30.8,21.1 28,21.1 25.3,21.1 22.5,21.1 22.5,23.9 22.5,26.6 22.5,29.4 22.5,32.2 22.5,34.9 25.3,34.9 25.3,37.7 25.3,40.4 28,40.4 28,37.7 30.8,37.7 33.5,37.7 33.5,34.9 30.8,34.9 28,34.9 28,32.2 25.3,32.2 25.3,29.4 25.3,26.6 25.3,23.9 28,23.9 30.8,23.9 33.5,23.9 36.3,23.9 39,23.9 41.8,23.9 44.5,23.9 47.3,23.9 50.1,23.9 52.8,23.9 52.8,26.6 55.6,26.6 55.6,29.4 55.6,32.2 55.6,34.9 55.6,37.7 52.8,37.7 52.8,40.4 50.1,40.4 50.1,43.2 47.3,43.2 44.5,43.2 44.5,46 47.3,46 50.1,46 52.8,46 52.8,43.2 55.6,43.2 55.6,40.4 58.3,40.4 58.3,37.7 58.3,34.9 58.3,32.2 58.3,29.4 58.3,26.6 58.3,23.9 55.6,23.9 55.6,21.1 52.8,21.1 50.1,21.1 47.3,21.1 44.5,21.1 41.8,21.1 39,21.1 36.3,21.1 "
   id="polygon2710" />
			<polygon
   points="39,57 36.3,57 33.5,57 30.8,57 28,57 28,54.3 25.3,54.3 25.3,51.5 25.3,48.7 25.3,46 25.3,43.2 25.3,40.4 22.5,40.4 22.5,43.2 22.5,46 22.5,48.7 22.5,51.5 22.5,54.3 22.5,57 25.3,57 25.3,59.8 28,59.8 30.8,59.8 33.5,59.8 36.3,59.8 39,59.8 41.8,59.8 44.5,59.8 47.3,59.8 50.1,59.8 52.8,59.8 55.6,59.8 58.3,59.8 58.3,57 58.3,54.3 58.3,51.5 58.3,48.7 58.3,46 55.6,46 52.8,46 52.8,48.7 55.6,48.7 55.6,51.5 55.6,54.3 55.6,57 52.8,57 50.1,57 47.3,57 44.5,57 41.8,57 "
   id="polygon2712" />
		</g>
	</g>
</g>
</svg>
