<?xml version="1.0" encoding="UTF-8" standalone="no"?>
<svg
   id="Layer_1"
   viewBox="0 0 577.78 577.78"
   version="1.1"
   sodipodi:docname="Coston1.svg"
   width="577.78003"
   height="577.78003"
   inkscape:export-filename="..\..\Testnet\Coston1.png"
   inkscape:export-xdpi="21.267609"
   inkscape:export-ydpi="21.267609"
   xmlns:inkscape="http://www.inkscape.org/namespaces/inkscape"
   xmlns:sodipodi="http://sodipodi.sourceforge.net/DTD/sodipodi-0.dtd"
   xmlns="http://www.w3.org/2000/svg"
   xmlns:svg="http://www.w3.org/2000/svg">
  <sodipodi:namedview
     id="namedview10039"
     pagecolor="#ffffff"
     bordercolor="#000000"
     borderopacity="0.25"
     inkscape:showpageshadow="2"
     inkscape:pageopacity="0.0"
     inkscape:pagecheckerboard="0"
     inkscape:deskcolor="#d1d1d1"
     showgrid="false" />
  <defs
     id="defs10028">
    <style
       id="style10026">.cls-1{fill:#fff;}.cls-2{fill:#ff9866;}</style>
  </defs>
  <circle
     class="cls-2"
     cx="-2.759833e-06"
     cy="408.55219"
     r="288.89001"
     transform="rotate(-45)"
     id="circle10030"
     style="stroke-width:1.03201" />
  <circle
     class="cls-1"
     cx="221.63"
     cy="289.10999"
     r="33.669998"
     id="circle10032" />
  <path
     class="cls-1"
     d="m 388.05,154.67 -132.82,-0.1 c -36.21,0 -66.32,28.63 -67.27,65.44 -0.03,0.99 0.78,1.79 1.77,1.8 l 132.82,0.08 v 0.02 c 36.21,0 66.32,-28.63 67.27,-65.44 0.03,-0.99 -0.78,-1.79 -1.77,-1.8 z"
     id="path10034" />
  <path
     class="cls-1"
     d="m 189.73,355.97 132.82,-0.1 c 36.21,0 66.32,28.63 67.27,65.44 0.03,0.99 -0.78,1.79 -1.77,1.8 l -132.82,0.08 v 0.02 c -36.21,0 -66.32,-28.63 -67.27,-65.44 -0.03,-0.99 0.78,-1.79 1.77,-1.8 z"
     id="path10036" />
</svg>
