<?xml version="1.0" encoding="UTF-8" standalone="no"?>
<svg
   id="Layer_1"
   viewBox="0 0 577.78 577.78"
   version="1.1"
   sodipodi:docname="Coston2.svg"
   width="577.78003"
   height="577.78003"
   inkscape:export-filename="..\..\Testnet\Coston2.png"
   inkscape:export-xdpi="21.267609"
   inkscape:export-ydpi="21.267609"
   xmlns:inkscape="http://www.inkscape.org/namespaces/inkscape"
   xmlns:sodipodi="http://sodipodi.sourceforge.net/DTD/sodipodi-0.dtd"
   xmlns="http://www.w3.org/2000/svg"
   xmlns:svg="http://www.w3.org/2000/svg">
  <sodipodi:namedview
     id="namedview10203"
     pagecolor="#ffffff"
     bordercolor="#000000"
     borderopacity="0.25"
     inkscape:showpageshadow="2"
     inkscape:pageopacity="0.0"
     inkscape:pagecheckerboard="0"
     inkscape:deskcolor="#d1d1d1"
     showgrid="false" />
  <defs
     id="defs10190">
    <style
       id="style10188">.cls-1{fill:#fff;}.cls-2{fill:#ff9866;}</style>
  </defs>
  <circle
     class="cls-2"
     cx="288.89001"
     cy="288.89001"
     r="288.89001"
     id="circle10192"
     style="stroke-width:1.03149" />
  <path
     class="cls-1"
     d="m 150.42,255.1 c -18.54,0 -33.57,15.03 -33.57,33.57 0,18.54 15.03,33.57 33.57,33.57 18.54,0 33.57,-15.03 33.57,-33.57 0,-18.54 -15.03,-33.57 -33.57,-33.57 z"
     id="path10194" />
  <path
     class="cls-1"
     d="m 316.33,154.64 -132.41,-0.1 c -36.09,0 -66.12,28.55 -67.06,65.24 -0.03,0.98 0.78,1.79 1.76,1.79 l 132.41,0.08 v 0.02 c 36.09,0 66.12,-28.55 67.06,-65.24 0.03,-0.98 -0.78,-1.79 -1.76,-1.79 z"
     id="path10196" />
  <path
     class="cls-1"
     d="m 118.62,355.32 132.41,-0.1 c 36.09,0 66.12,28.55 67.06,65.24 0.03,0.98 -0.78,1.79 -1.76,1.79 l -132.41,0.08 v 0.02 c -36.09,0 -66.12,-28.55 -67.06,-65.24 -0.03,-0.98 0.78,-1.79 1.76,-1.79 z"
     id="path10198" />
  <path
     class="cls-1"
     d="m 452.82,324.26 v 19.23 H 362.7 c 1.7,-31.67 17.16,-47.13 38.46,-60.52 14.33,-9.05 28.28,-16.21 28.28,-32.62 0,-11.88 -5.84,-19.61 -18.29,-19.61 -17.91,0 -20.55,14.52 -20.36,26.21 l -23.38,-3.58 c -0.19,-19.98 11.31,-41.29 44.49,-41.29 24.7,0 40.72,14.33 40.72,38.84 0,22.44 -14.14,33.37 -33.56,45.44 -14.14,8.67 -25.64,15.65 -28.85,27.9 h 62.59 z"
     id="path10200" />
</svg>
