<?xml version="1.0" encoding="UTF-8" standalone="no"?>
<svg
   viewBox="0 0 128 128"
   width="128"
   color="text"
   class="sc-cZwWEu jdXsDn"
   height="128"
   version="1.1"
   id="svg40"
   sodipodi:docname="apeswap.svg"
   inkscape:export-filename="..\transparentSVGs\dex\apeswap.png"
   inkscape:export-xdpi="96"
   inkscape:export-ydpi="96"
   xmlns:inkscape="http://www.inkscape.org/namespaces/inkscape"
   xmlns:sodipodi="http://sodipodi.sourceforge.net/DTD/sodipodi-0.dtd"
   xmlns="http://www.w3.org/2000/svg"
   xmlns:svg="http://www.w3.org/2000/svg">
  <sodipodi:namedview
     id="namedview42"
     pagecolor="#ffffff"
     bordercolor="#000000"
     borderopacity="0.25"
     inkscape:showpageshadow="2"
     inkscape:pageopacity="0.0"
     inkscape:pagecheckerboard="0"
     inkscape:deskcolor="#d1d1d1"
     showgrid="false" />
  <defs
     id="defs4">
    <style
       id="style2">.cls-1{fill:#a16552;}.cls-2{fill:#f5dcb4;}.cls-3,.cls-7{fill:#4e3f3f;}.cls-4{fill:#e6646e;}.cls-5{fill:#5d5360;}.cls-6{fill:#fff;}.cls-7{opacity:0.35;}</style>
  </defs>
  <path
     class="cls-1"
     d="m 17.130922,46.832843 a 44.267736,44.267736 0 0 0 -1.573237,11.528679 c 0,0.273743 0,0.541193 0,0.808644 A 59.301587,59.301587 0 0 1 13.984448,73.15624 C 11.813382,72.385354 9.579386,70.824704 7.4460769,68.121883 1.8327681,61.010853 3.6986269,49.608032 10.620868,46.92409 c 2.617866,-1.013164 4.807812,-0.799204 6.519493,-0.135298 a 0.23283904,0.23283904 0 0 0 -0.0094,0.04405 z"
     fill="#A16552"
     id="path6"
     style="stroke-width:0.314647" />
  <path
     class="cls-2"
     d="m 17.130922,46.832843 a 44.267736,44.267736 0 0 0 -1.573237,11.528679 c 0,0.273743 0,0.541193 0,0.808644 A 59.301587,59.301587 0 0 1 13.984448,73.15624 C 11.813382,72.385354 9.579386,70.824704 7.4460769,68.121883 1.8327681,61.010853 3.6986269,49.608032 10.620868,46.92409 c 2.617866,-1.013164 4.807812,-0.799204 6.519493,-0.135298 a 0.23283904,0.23283904 0 0 0 -0.0094,0.04405 z"
     fill="#F5DCB4"
     id="path8"
     style="stroke-width:0.314647" />
  <path
     class="cls-1"
     d="m 120.55865,68.125029 c -2.13016,2.696528 -4.3673,4.257179 -6.53837,5.034358 a 59.421153,59.421153 0 0 1 -1.57324,-13.982929 c 0,-0.26745 0,-0.5349 0,-0.808643 a 44.116706,44.116706 0 0 0 -1.58897,-11.57273 c 1.71169,-0.663906 3.90163,-0.877866 6.5195,0.135298 6.92224,2.677649 8.79124,14.08047 3.18108,21.194646 z"
     fill="#A16552"
     id="path10"
     style="stroke-width:0.314647" />
  <path
     class="cls-2"
     d="m 120.55865,68.125029 c -2.13016,2.696528 -4.3673,4.257179 -6.53837,5.034358 a 59.421153,59.421153 0 0 1 -1.57324,-13.982929 c 0,-0.26745 0,-0.5349 0,-0.808643 a 44.116706,44.116706 0 0 0 -1.58897,-11.57273 c 1.71169,-0.663906 3.90163,-0.877866 6.5195,0.135298 6.92224,2.677649 8.79124,14.08047 3.18108,21.194646 z"
     fill="#F5DCB4"
     id="path12"
     style="stroke-width:0.314647" />
  <path
     class="cls-1"
     d="m 98.989578,73.300978 a 12.535551,12.535551 0 0 0 -1.378155,10.754647 c 0.921916,2.71226 1.746292,5.783218 1.746292,8.067558 -0.0063,16.714077 -15.829908,30.243907 -35.356923,30.243907 -19.527015,0 -35.36007,-13.52983 -35.36007,-30.243907 0,-2.28434 0.824376,-5.349005 1.746293,-8.067558 a 12.526111,12.526111 0 0 0 -1.375009,-10.7515 19.445207,19.445207 0 0 1 -3.058372,-10.427414 c 0,-11.091319 9.439421,-20.087087 21.097105,-20.087087 a 21.808208,21.808208 0 0 1 10.745207,2.800362 12.548137,12.548137 0 0 0 12.409692,0 21.783036,21.783036 0 0 1 10.742061,-2.797215 c 11.641952,0 21.100251,8.995768 21.100251,20.087087 a 19.158877,19.158877 0 0 1 -1.75259,8.026654 19.385424,19.385424 0 0 1 -1.305782,2.394466 z"
     fill="#A16552"
     id="path14"
     style="stroke-width:0.314647" />
  <path
     class="cls-2"
     d="m 98.989578,73.300978 a 12.535551,12.535551 0 0 0 -1.378155,10.754647 c 0.921916,2.71226 1.746292,5.783218 1.746292,8.067558 -0.0063,16.714077 -15.829908,30.243907 -35.356923,30.243907 -19.527015,0 -35.36007,-13.52983 -35.36007,-30.243907 0,-2.28434 0.824376,-5.349005 1.746293,-8.067558 a 12.526111,12.526111 0 0 0 -1.375009,-10.7515 19.445207,19.445207 0 0 1 -3.058372,-10.427414 c 0,-11.091319 9.439421,-20.087087 21.097105,-20.087087 a 21.808208,21.808208 0 0 1 10.745207,2.800362 12.548137,12.548137 0 0 0 12.409692,0 21.783036,21.783036 0 0 1 10.742061,-2.797215 c 11.641952,0 21.100251,8.995768 21.100251,20.087087 a 19.158877,19.158877 0 0 1 -1.75259,8.026654 19.385424,19.385424 0 0 1 -1.305782,2.394466 z"
     fill="#F5DCB4"
     id="path16"
     style="stroke-width:0.314647" />
  <path
     class="cls-3"
     d="m 45.990377,95.861194 a 2.0294754,2.0294754 0 0 0 -2.016889,2.293779 c 1.258589,8.951727 9.754068,15.873967 20.027304,15.873967 10.273236,0 18.775008,-6.92224 20.027304,-15.873967 a 2.0294754,2.0294754 0 0 0 -2.013743,-2.293779 z"
     fill="#4E3F3F"
     id="path18"
     style="stroke-width:0.314647" />
  <path
     class="cls-4"
     d="m 52.368279,110.69682 a 21.971825,21.971825 0 0 0 23.265026,0 c -1.459964,-5.05324 -6.126184,-3.88904 -11.641952,-3.88904 -5.515768,0 -10.16311,-1.1642 -11.623074,3.88904 z"
     fill="#E6646E"
     id="path20"
     style="stroke-width:0.314647" />
  <path
     class="cls-1"
     d="m 119.77203,43.189226 c -4.18481,-1.62358 -7.50434,-0.767739 -9.83902,0.575805 a 51.334716,51.334716 0 0 0 -1.96654,-4.936817 q -0.8118,-1.768318 -1.75259,-3.489439 C 99.810812,23.624454 89.043575,13.90185 76.696813,9.792556 L 76.445095,3.1409109 68.446759,7.9424296 67.483938,7.8354495 c -0.591537,-0.05349 -1.176781,-0.094394 -1.774611,-0.119566 L 64.541986,2.6815258 64.19902,1.227855 c -0.399602,0 -0.789765,0 -1.170488,0.044051 C 55.587122,1.8760286 51.883722,8.6378002 51.304771,9.795703 38.93913,13.904997 28.190777,23.630747 21.787703,35.338775 q -0.943942,1.717974 -1.752586,3.489439 a 52.546108,52.546108 0 0 0 -1.969692,4.936817 L 17.76651,43.598268 c -2.315805,-1.242857 -5.531501,-1.960253 -9.5369612,-0.409042 -8.79439359,3.410778 -11.1668346,17.903435 -4.040072,26.9464 2.9073415,3.675081 5.9782992,5.688824 8.9108122,6.585569 -0.03776,0.163617 -0.07551,0.33038 -0.110126,0.497143 a 34.573451,34.573451 0 0 0 -0.796058,7.391066 c 0,17.252106 12.724339,32.094026 30.955007,38.616666 a 60.314752,60.314752 0 0 0 13.234068,3.10557 63.517862,63.517862 0 0 0 7.060686,0.4405 h 0.560073 c 28.610884,0 51.803541,-18.87884 51.803541,-42.162736 a 34.573451,34.573451 0 0 0 -0.79606,-7.397359 c -0.0378,-0.166763 -0.0724,-0.333526 -0.11327,-0.497143 2.94824,-0.896745 6.00661,-2.910488 8.91081,-6.588716 7.12991,-9.033525 4.75432,-23.529329 -4.03693,-26.93696 z M 17.130922,46.832843 a 44.267736,44.267736 0 0 0 -1.573237,11.528679 c 0,0.273743 0,0.541193 0,0.808644 A 59.301587,59.301587 0 0 1 13.984448,73.15624 C 11.813382,72.385354 9.579386,70.824704 7.4460769,68.121883 1.8327681,61.010853 3.6986269,49.608032 10.620868,46.92409 c 2.617866,-1.013164 4.807812,-0.799204 6.519493,-0.135298 a 0.23283904,0.23283904 0 0 0 -0.0094,0.04405 z m 83.164438,24.073669 a 19.385424,19.385424 0 0 1 -1.305782,2.394466 12.535551,12.535551 0 0 0 -1.378155,10.754647 c 0.921916,2.71226 1.746292,5.783218 1.746292,8.067558 -0.0063,16.714077 -15.829908,30.243907 -35.356923,30.243907 -19.527015,0 -35.36007,-13.52983 -35.36007,-30.243907 0,-2.28434 0.824376,-5.349005 1.746293,-8.067558 a 12.526111,12.526111 0 0 0 -1.375009,-10.7515 19.445207,19.445207 0 0 1 -3.058372,-10.427414 c 0,-11.091319 9.439421,-20.087087 21.097105,-20.087087 a 21.808208,21.808208 0 0 1 10.745207,2.800362 12.548137,12.548137 0 0 0 12.409692,0 21.783036,21.783036 0 0 1 10.742061,-2.797215 c 11.641952,0 21.100251,8.995768 21.100251,20.087087 a 19.158877,19.158877 0 0 1 -1.75259,8.026654 z m 20.26329,-2.781483 c -2.13016,2.696528 -4.3673,4.257179 -6.53837,5.034358 a 59.421153,59.421153 0 0 1 -1.57324,-13.982929 c 0,-0.26745 0,-0.5349 0,-0.808643 a 44.116706,44.116706 0 0 0 -1.58897,-11.57273 c 1.71169,-0.663906 3.90163,-0.877866 6.5195,0.135298 6.92224,2.677649 8.79124,14.08047 3.18108,21.194646 z"
     fill="#A16552"
     id="path22"
     style="stroke-width:0.314647" />
  <rect
     class="cls-3"
     x="-52.253765"
     y="83.776184"
     width="3.3981915"
     height="7.7151532"
     rx="1.6487521"
     transform="rotate(-65.45)"
     fill="#4E3F3F"
     id="rect24"
     style="stroke-width:0.314647" />
  <rect
     class="cls-3"
     x="-105.44088"
     y="24.936007"
     width="3.3981915"
     height="7.7151532"
     rx="1.6487521"
     transform="rotate(-114.55)"
     fill="#4E3F3F"
     id="rect26"
     style="stroke-width:0.314647" />
  <path
     class="cls-3"
     d="m 45.833054,70.900219 v 0 c -3.344702,0 -6.056962,-2.567522 -6.056962,-5.739168 v -1.913056 c 0,-3.168499 2.71226,-5.739168 6.056962,-5.739168 v 0 c 3.344701,0 6.053815,2.570669 6.053815,5.739168 v 1.913056 c 0,3.171646 -2.709114,5.739168 -6.053815,5.739168 z"
     fill="#4E3F3F"
     id="path28"
     style="stroke-width:0.314647" />
  <path
     class="cls-5"
     d="m 45.833054,57.508827 v 6.695696 a 3.030054,3.030054 0 0 0 6.053815,0 v -0.943942 c 0,-3.193671 -2.709114,-5.751754 -6.053815,-5.751754 z"
     fill="#5D5360"
     id="path30"
     style="stroke-width:0.314647" />
  <ellipse
     class="cls-6"
     cx="45.833057"
     cy="61.334938"
     rx="2.020036"
     ry="1.9130559"
     fill="#FFFFFF"
     id="ellipse32"
     style="stroke-width:0.314647" />
  <path
     class="cls-3"
     d="m 82.16853,70.900219 v 0 c -3.344701,0 -6.053815,-2.567522 -6.053815,-5.739168 v -1.913056 c 0,-3.168499 2.709114,-5.739168 6.053815,-5.739168 v 0 c 3.344702,0 6.056962,2.570669 6.056962,5.739168 v 1.913056 c 0,3.171646 -2.718553,5.739168 -6.056962,5.739168 z"
     fill="#4E3F3F"
     id="path34"
     style="stroke-width:0.314647" />
  <path
     class="cls-5"
     d="m 82.16853,57.508827 v 6.695696 a 3.0332005,3.0332005 0 0 0 6.056962,0 v -0.943942 c 0,-3.193671 -2.718553,-5.751754 -6.056962,-5.751754 z"
     fill="#5D5360"
     id="path36"
     style="stroke-width:0.314647" />
  <ellipse
     class="cls-6"
     cx="82.168533"
     cy="61.334938"
     rx="2.020036"
     ry="1.9130559"
     fill="#FFFFFF"
     id="ellipse38"
     style="stroke-width:0.314647" />
</svg>
