<?xml version="1.0" encoding="UTF-8" standalone="no"?>
<svg
   class="partner-logo"
   width="128"
   height="128"
   viewBox="0 0 128 128"
   fill="none"
   data-v-3e575820=""
   version="1.1"
   id="svg4"
   sodipodi:docname="balancer.svg"
   inkscape:export-filename="..\transparentSVGs\dex\balancer_wht.png"
   inkscape:export-xdpi="96"
   inkscape:export-ydpi="96"
   xmlns:inkscape="http://www.inkscape.org/namespaces/inkscape"
   xmlns:sodipodi="http://sodipodi.sourceforge.net/DTD/sodipodi-0.dtd"
   xmlns="http://www.w3.org/2000/svg"
   xmlns:svg="http://www.w3.org/2000/svg">
  <defs
     id="defs8" />
  <sodipodi:namedview
     id="namedview6"
     pagecolor="#ffffff"
     bordercolor="#000000"
     borderopacity="0.25"
     inkscape:showpageshadow="2"
     inkscape:pageopacity="0.0"
     inkscape:pagecheckerboard="0"
     inkscape:deskcolor="#d1d1d1"
     showgrid="false" />
  <path
     d="M 94.15455,75.825233 C 114.29837,79.541453 128,86.859958 128,95.28123 128,107.46796 99.34347,117.3338 64,117.3338 28.655121,117.3338 0,107.46233 0,95.28123 0,86.859958 13.705846,79.541453 33.844044,75.825233 42.595868,78.096881 52.931516,79.403607 64,79.403607 c 11.06567,0 21.401319,-1.306726 30.15455,-3.572748 z M 86.4422,40.107607 c 17.1098,2.848351 28.89565,8.836219 28.89565,15.774945 0,9.681582 -22.98655,17.53178 -51.33785,17.53178 -28.352703,0 -51.340659,-7.850198 -51.340659,-17.530374 0,-6.934505 11.787252,-12.928 28.897055,-15.776351 6.575824,1.669626 14.245978,2.623296 22.443604,2.623296 8.19622,0 15.866374,-0.959296 22.4422,-2.623296 z m -22.208705,-29.44 c 21.232527,0 38.449235,5.94145 38.449235,13.274022 0,7.328351 -17.216708,13.269802 -38.449235,13.269802 -21.232528,0 -38.447825,-5.941451 -38.447825,-13.269802 0,-7.332572 17.216704,-13.275429 38.447825,-13.275429 z"
     fill="#ffffff"
     id="path2"
     style="stroke-width:1.40659" />
</svg>
