<svg xmlns="http://www.w3.org/2000/svg" width="128" height="128" viewBox="0 0 33.867 33.867" xmlns:v="https://vecta.io/nano"><path d="M18.759 2.533H0l9.965 11.314c.599.684 1.487 1.077 2.421 1.077h3.98l-7.42-8.426h9.617c5.908 0 10.897 4.39 11.119 10.015.137 3.382-1.461 6.614-4.284 8.667l-4.579-5.199c-.599-.684-1.487-1.077-2.421-1.077h-3.98l7.119 8.109c-.906.226-1.84.342-2.777.342H4.979c-.934 0-1.82.394-2.421 1.075L0 31.334h18.532c8.303 0 15.228-6.291 15.334-14.201.106-7.957-6.576-14.489-14.929-14.59-.059 0-.119 0-.178-.002" fill="#0b5e8e"/></svg>