<svg xmlns="http://www.w3.org/2000/svg" xmlns:xlink="http://www.w3.org/1999/xlink" width="128" height="128" xmlns:v="https://vecta.io/nano"><defs><linearGradient id="A" x1="402.574" y1="403.243" x2="463.5" y2="256" gradientUnits="userSpaceOnUse"><stop offset=".5" stop-color="#ffa600"/><stop offset="1" stop-color="#ffa600" stop-opacity="0"/></linearGradient><linearGradient id="B" x1="423.495" y1="378.482" x2="463.5" y2="256" gradientUnits="userSpaceOnUse"><stop offset=".5" stop-color="#ffa600"/><stop offset="1" stop-color="#ffa600" stop-opacity="0"/></linearGradient><linearGradient id="C" x1="413.217" y1="391.422" x2="463.5" y2="256" gradientUnits="userSpaceOnUse"><stop offset=".5" stop-color="#ffa600"/><stop offset="1" stop-color="#ffa600" stop-opacity="0"/></linearGradient><path id="D" d="M451 256c0 107.843-87.157 195-195 195v25c121.354 0 220-98.646 220-220z"/></defs><path d="M64 32L36.287 48v32L64 96l27.713-16v-1.375V48zm0 5.501L86.949 50.75v26.499L64 90.499l-22.949-13.25V50.751zm-.711 40.096c-3.735-.624-6.923-2.394-9.018-5.008-1.035-1.292-2.073-3.375-2.494-5.004-.432-1.672-.54-4.131-.254-5.771.76-4.359 3.534-8.114 7.403-10.024 2.111-1.042 4.279-1.518 6.91-1.517 2.111.001 3.669.244 5.466.854 1.818.617 3.112 1.369 4.337 2.519l.998.936-3.092 2.92-.441-.372c-3.457-2.915-8.171-3.447-12.191-1.376-1.271.655-2.853 2.262-3.533 3.588-.823 1.605-1.079 2.701-1.079 4.618s.256 3.013 1.079 4.618c.746 1.456 2.383 3.069 3.846 3.79 1.73.853 2.74 1.072 4.937 1.068 2.121-.003 3.166-.262 4.664-.942l.902-.409V64h4.622v10.379l-.944.632c-1.668 1.116-3.613 1.9-5.958 2.403-1.509.324-4.744.42-6.16.183zm26.55-72.953c-7.902 0-14.375 6.473-14.375 14.375s6.473 14.375 14.375 14.375 14.375-6.473 14.375-14.375S97.741 4.644 89.839 4.644zm0 6.25c4.524 0 8.125 3.601 8.125 8.125s-3.601 8.125-8.125 8.125-8.125-3.601-8.125-8.125 3.601-8.125 8.125-8.125zm.093 88.659c-5.141 0-9.375 4.234-9.375 9.375s4.234 9.375 9.375 9.375 9.375-4.234 9.375-9.375-4.234-9.375-9.375-9.375zm0 6.25c1.763 0 3.125 1.362 3.125 3.125s-1.362 3.125-3.125 3.125-3.125-1.362-3.125-3.125 1.362-3.125 3.125-3.125zM12.125 52C5.58 52 .25 57.433.25 64s5.33 12 11.875 12S24 70.567 24 64s-5.33-12-11.875-12zm0 6.25c3.119 0 5.625 2.514 5.625 5.75s-2.506 5.75-5.625 5.75S6.5 67.236 6.5 64s2.506-5.75 5.625-5.75z" fill="#ffa600"/><use xlink:href="#D" transform="matrix(.053571 .244193 -.244193 .053571 112.79906 -12.227633)" fill="url(#C)"/><use xlink:href="#D" transform="matrix(.193984 -.157702 .157703 .193984 -26.031828 54.711848)" fill="url(#B)"/><use xlink:href="#D" transform="matrix(-.237842 -.077015 .077015 -.237842 105.17151 144.60339)" fill="url(#A)"/></svg>