<svg xmlns="http://www.w3.org/2000/svg" width="128" height="128" xmlns:v="https://vecta.io/nano"><path d="M95.885 93.032l14.652-20.836-26.285 13.891-5.386 11.287zm-63.771 0L17.463 72.196l26.285 13.891 5.386 11.287zm31.887 26.046l9.479-9.549H54.52z" fill="#fff"/><path d="M122.171 39.638l5.17-38.203m-63.34 72.063L43.748 86.087zm0 0l-9.481 36.031zm0 0l20.251 12.589zm0 0l9.479 36.031zm0 0L83.39 29.652zm0 0L44.61 29.652zM44.61 29.652h19.391H83.39zm0 0l-11.203 9.986zm0 0L.659 1.435zm-.862 56.435l5.386 11.287zm0 0l-26.285-13.89zm0 0L33.407 39.638zm10.771 23.442l-5.385-12.156zm0 0H38.148zm0 0l-8.618 12.589zm0 0l9.481 9.549zm0 0h18.96zM33.407 39.638H5.831zm0 0L.659 1.435zM17.464 72.196l14.651 20.836zm0 0L6.69 66.552zm0 0L5.831 39.638zm14.651 20.836l17.02 4.342zm0 0l6.033 16.497zm0 0l-12.066.869zm6.033 16.497l7.754 12.589zm0 0L20.049 93.901zm7.754 12.589l12.927 4.342zm0 0L20.049 93.901zm18.099-3.04l9.479-9.549zm0 0l-5.172 7.381zm0 0l5.17 7.381zm-5.172 7.381h10.342zm-38.78-32.559L6.69 66.552zM6.69 66.552l-.859-26.914zm-.859-26.914L.659 1.435zm77.559-9.986l11.204 9.986zm0 0l43.951-28.217zm.862 56.435l-5.386 11.287zm0 0l26.285-13.89zm0 0l10.342-46.449zM73.48 109.529l5.386-12.156zm0 0h16.374zm0 0l8.619 12.589zm21.114-69.891h27.577zm0 0l32.747-38.203zm15.943 32.559L95.885 93.032zm0 0l10.772-5.645zm0 0l11.634-32.559zM95.885 93.032l-17.019 4.342zm0 0l-6.031 16.497zm0 0l12.067.869zm-6.031 16.497l-7.755 12.589zm0 0l18.098-15.628zm-7.755 12.589l-12.928 4.342zm0 0l25.853-28.217zm25.853-28.217l13.358-27.349zm13.358-27.349l.861-26.914z" stroke="#fff" fill="#030303" stroke-width="1.33" stroke-linejoin="round"/></svg>