<?xml version="1.0" encoding="UTF-8" standalone="no"?>
<!-- Created with Inkscape (http://www.inkscape.org/) -->

<svg
   width="127.99999"
   height="127.99999"
   viewBox="0 0 33.866664 33.866664"
   version="1.1"
   id="svg8259"
   inkscape:export-filename="radioshackswap.png"
   inkscape:export-xdpi="96"
   inkscape:export-ydpi="96"
   xmlns:inkscape="http://www.inkscape.org/namespaces/inkscape"
   xmlns:sodipodi="http://sodipodi.sourceforge.net/DTD/sodipodi-0.dtd"
   xmlns="http://www.w3.org/2000/svg"
   xmlns:svg="http://www.w3.org/2000/svg">
  <sodipodi:namedview
     id="namedview8261"
     pagecolor="#ffffff"
     bordercolor="#000000"
     borderopacity="0.25"
     inkscape:showpageshadow="2"
     inkscape:pageopacity="0.0"
     inkscape:pagecheckerboard="0"
     inkscape:deskcolor="#d1d1d1"
     inkscape:document-units="mm"
     showgrid="false" />
  <defs
     id="defs8256" />
  <g
     inkscape:label="Layer 1"
     inkscape:groupmode="layer"
     id="layer1">
    <path
       d="m 11.288891,16.459196 v -4.605867 h 3.73662 c 1.360312,0 2.686757,0.716845 2.686757,2.297289 0,1.580443 -1.343377,2.308578 -2.686757,2.308578 z m 5.644443,14.184488 c -1.817228,0.0058 -3.617525,-0.350069 -5.295899,-1.046818 C 9.9590575,28.900115 8.4360755,27.876439 7.1571565,26.585329 h 4.1317345 v -5.864578 h 2.353732 l 3.900311,5.864578 h 6.20889 l -4.560713,-6.632222 c 2.25778,-0.942622 3.990622,-2.788356 3.990622,-5.785555 0,-5.130801 -3.781777,-6.948311 -8.167509,-6.948311 H 7.1571565 C 8.7502445,5.616715 10.714002,4.431879 12.874471,3.7697 c 2.160468,-0.662171 4.45087,-0.781237 6.668346,-0.346636 2.217421,0.4346 4.293446,1.40944 6.044128,2.838146 1.750681,1.428721 3.121886,3.267172 3.992202,5.352512 0.870317,2.085284 1.212822,4.353109 0.997204,6.602419 -0.215618,2.249367 -0.982754,4.410794 -2.233393,6.292766 -1.250639,1.882026 -2.946174,3.426517 -4.93635,4.49659 -1.990174,1.070074 -4.213634,1.632768 -6.473274,1.638187 z M 3.1665395,16.933329 c -0.01067,-2.989523 0.958844,-5.900139 2.760128,-8.286044 v 16.515644 c -1.789611,-2.370498 -2.758513,-5.259381 -2.760128,-8.2296 z M 16.933334,-3.9562325e-6 c -3.349075,0 -6.622965,0.9931219962325 -9.4076525,2.8537809562325 -2.78467,1.860657 -4.955055,4.505276 -6.236699,7.599448 -1.28164496,3.094171 -1.61698196,6.498901 -0.96360596,9.783628 0.653376,3.284728 2.26611896,6.301965 4.63428896,8.670148 2.368179,2.368184 5.3854175,3.980913 8.6701445,4.634315 3.284728,0.653344 6.689457,0.318007 9.783629,-0.96362 3.094171,-1.281628 5.738818,-3.452028 7.599454,-6.236715 1.860633,-2.784687 2.853774,-6.058577 2.853774,-9.407652 0,-4.491001 -1.78404,-8.798052 -4.95966,-11.973672 C 25.731386,1.784041 21.424336,-3.9562324e-6 16.933334,-3.9562325e-6 Z"
       style="clip-rule:evenodd;fill:#ed1c24;fill-rule:evenodd;stroke-width:0.564444"
       id="path8805" />
  </g>
</svg>
