<svg xmlns="http://www.w3.org/2000/svg" xmlns:xlink="http://www.w3.org/1999/xlink" width="128" height="128" xmlns:v="https://vecta.io/nano"><defs><linearGradient id="A" gradientUnits="userSpaceOnUse"><stop offset="0" stop-color="#7d0753"/><stop offset="1" stop-color="#f55d0e"/></linearGradient><linearGradient xlink:href="#A" id="B" x1="44.036" x2="44.036" y2="117.851" y1="35.841"/><linearGradient xlink:href="#A" id="C" x1="63.997" x2="63.997" y2="72.948" y1="10.159"/></defs><path d="M0 10.152h36.088l24.206 38.793 20.216-38.793h39.128L95.227 54.094a52.994 52.994 0 0 1-23.52-9.136S84.26 60.14 128 72.941c-45.391-1.594-79.393-28.742-93.453-43.194a41.016 41.016 0 0 0 10.108 19.652C21.246 35.476 0 10.152 0 10.152z" fill="url(#C)"/><path d="M86.419 70.511l-26.06 47.337-26.434-47.611a69.087 69.087 0 0 0 20.651 7.27C37.263 70.706 19.904 56.058 1.652 35.838c20.251 15.498 37.457 24.473 64.055 35.474a59.154 59.154 0 0 1-12.366-15.704 214.415 214.415 0 0 0 33.079 14.903z" fill="url(#B)"/></svg>