<svg xmlns="http://www.w3.org/2000/svg" width="128" height="128" fill="none" xmlns:v="https://vecta.io/nano"><path d="M94.155 75.825C114.298 79.541 128 86.86 128 95.281c0 12.187-28.657 22.053-64 22.053S0 107.462 0 95.281c0-8.421 13.706-15.74 33.844-19.456 8.752 2.272 19.087 3.578 30.156 3.578s21.401-1.307 30.155-3.573zm-7.712-35.718c17.11 2.848 28.896 8.836 28.896 15.775 0 9.682-22.987 17.532-51.338 17.532s-51.341-7.85-51.341-17.53c0-6.935 11.787-12.928 28.897-15.776 6.576 1.67 14.246 2.623 22.444 2.623s15.866-.959 22.442-2.623zm-22.209-29.44c21.233 0 38.449 5.941 38.449 13.274s-17.217 13.27-38.449 13.27-38.448-5.941-38.448-13.27 17.217-13.275 38.448-13.275z" fill="#000"/></svg>