<svg xmlns="http://www.w3.org/2000/svg" width="128" height="128" xmlns:v="https://vecta.io/nano"><path d="M64.046 18.997L25.037 41.499v45.003l38.916 22.594 39.009-22.594V41.499L64.046 18.997" fill="#fff" stroke="#fff" stroke-width="5" stroke-miterlimit="3.2"/><path d="M64.046 0L8.622 32v64l55.424 32 55.331-32V32zm38.916 86.501l-39.009 22.501-38.916-22.501V41.499l39.009-22.501 38.916 22.501z" fill="#002d74"/><linearGradient id="A" gradientUnits="userSpaceOnUse" x1="91.727" y1="128.003" x2="91.727" y2="64.001"><stop offset="0" stop-color="#002d74"/><stop offset="1" stop-color="#002d74" stop-opacity="0"/></linearGradient><path d="M64.046 128l55.331-32V32L64.046 0v18.997l38.916 22.501v45.095l-39.009 22.501V128z" fill="url(#A)"/><linearGradient id="B" gradientUnits="userSpaceOnUse" x1="36.31" y1="0" x2="36.31" y2="64.001"><stop offset="0" stop-color="#002d74"/><stop offset="1" stop-color="#002d74" stop-opacity="0"/></linearGradient><path d="M63.954 0L8.622 32v64l55.331 32v-18.997L25.037 86.501V41.406l38.916-22.409z" fill="url(#B)"/><path d="M89.867 78.939L64.046 93.879 38.133 78.939V49.061l25.914-14.939 25.821 14.939-10.79 6.271-15.124-8.761-15.032 8.761v17.429l15.124 8.761 15.124-8.761z" fill="#002d74"/></svg>