<svg xmlns="http://www.w3.org/2000/svg" xmlns:xlink="http://www.w3.org/1999/xlink" width="128" height="128" fill="none" xmlns:v="https://vecta.io/nano"><use xlink:href="#B" stroke="#fff" stroke-width="5.198"/><use xlink:href="#B" stroke="#000" stroke-width="2.079"/><g clip-path="none" transform="matrix(4.379572 0 0 4.379572 -.755277 2.606873)"><g fill="#000"><path d="M22.774 14.649c-.014.074-.228.296-.443.458-.631.467-1.759.901-2.906 1.109-.653.12-1.307.139-1.503.042-.128-.065-.146-.116-.101-.282.096-.347.407-.726.891-1.082.247-.18 1.247-.795 1.713-1.054.767-.425 1.389-.68 1.809-.74.133-.018.292-.023.343 0 .082.032.174.277.21.573.018.157.009.851-.014.975zm-10.763 1.53c-.027.055-.164.116-.32.139s-.63.009-.9-.023c-.969-.13-1.996-.43-2.746-.8-.42-.208-.722-.416-.946-.643l-.128-.134-.014-.176c-.023-.305-.018-.786.018-.957.023-.143.073-.282.142-.407.037-.046.037-.046.201-.046.201 0 .37.032.644.12.562.176 1.398.601 2.417 1.22.841.508 1.156.758 1.398 1.1.165.213.274.513.233.605zm6.469 6.434a11.75 11.75 0 0 1-.123.499l-.123.485c-.05.005-.096.009-.146.005h-.146l-.201.481-.224.545-.027.065-.096-.157-.096-.157v-1.28l-.037.009a15.18 15.18 0 0 1-.872.116 12.25 12.25 0 0 1-3.001-.065l-.302-.037c-.005.005 0 .3.009.666l.014.656-.078.12-.082.125c-.014.014-.059-.06-.164-.273-.114-.222-.197-.458-.256-.703l-.032-.134-.142.009-.142.014-.037-.171-.05-.314-.014-.148-.119-.106-.151-.129c-.023-.018-.032-.051-.032-.079V22.6l.571.005.571.005.018.06.018.06.197.009.768.023.571.014.146-.231.151-.231h.192l-.005-.481v-.481l-.251-.111c-.809-.36-1.284-.772-1.462-1.271-.037-.102-.037-.139-.046-.601s-.005-.499.027-.601c.064-.231.242-.411.471-.471.078-.023.455-.023 1.533-.023l1.546.024c.213.02.445.266.471.47a4.42 4.42 0 0 1 .027.601c0 .261.012.485-.044.601-.279.581-.688.913-1.478 1.271l-.264.111v.485l.005.485.101.009.101.009.137.208.132.208h.612l.663.009c.046.009.055.005.101-.074l.055-.083h.525c.393-.018.512-.009.512.005z"/><path d="M16.067 23.94c-.087.051-.146.074-.16.065s-.078-.06-.146-.111l-.123-.102-.128.139c-.279.305-.288.319-.37.324-.128.014-.155-.009-.311-.245l-.146-.222-.128-.014-.128-.014-.059.125-.059.125-.105-.032c-.082-.028-.164-.06-.242-.097l-.137-.069v-.264l1.215.005 1.215.005.005.125c.005.148.009.143-.192.259z"/></g><path d="M27.489 18.3c-.005-.018-.005-.051-.009-.102-1.096-.12-4.226-.194-7.131 2.233 0 0-.936-4.345-5.322-4.345s-6.012 4.345-6.012 4.345c-2.458-2.677-5.747-2.482-6.935-2.307 0 .028-.005.06-.005.088-.037.67-.018.989.091 1.41.343 1.317 1.398 2.769 3.052 4.193 2.709 2.33 6.382 4.012 9.164 4.206 2.901.199 7.182-1.516 10.032-4.022.448-.402.868-.827 1.261-1.28.283-.333.704-.906.672-.906-.009 0 0-.009.018-.018s.027-.023.018-.032.005-.018.018-.023.023-.014.018-.023 0-.018.018-.023.018-.018.014-.028 0-.018.009-.018.018-.014.018-.023.009-.023.018-.023.018-.009.018-.018c.014-.037.037-.074.059-.106a12.2 12.2 0 0 0 .379-.684c.26-.596.425-1.128.503-1.66.027-.254.05-.721.032-.832zM16.067 23.94c-.087.051-.146.074-.16.065s-.078-.06-.146-.111l-.123-.102-.128.139c-.279.305-.288.319-.37.324-.128.014-.155-.009-.311-.245-.082-.12-.146-.222-.146-.222s-.059-.009-.128-.014l-.128-.014-.059.125-.059.125-.105-.032c-.082-.028-.164-.06-.242-.097l-.137-.069v-.264l1.215.005 1.215.005.005.125c.005.148.009.143-.192.259zm2.284-.832l-.123.485c-.05.005-.096.009-.146.005h-.146l-.196.485-.224.546-.027.065-.096-.157-.096-.157v-1.28l-.037.009a14.95 14.95 0 0 1-.873.116c-1.001.102-2.005.078-3.001-.065a2.99 2.99 0 0 0-.302-.037 14.15 14.15 0 0 0 .009.666l.014.656-.078.12c-.041.065-.082.12-.082.125-.014.014-.059-.06-.165-.273a3.15 3.15 0 0 1-.256-.703l-.032-.134-.142.009-.142.014-.037-.171c-.018-.093-.041-.236-.05-.314l-.014-.148-.119-.106-.151-.129c-.023-.018-.032-.051-.032-.079v-.055l.571.005.571.005.018.06.018.06.196.009.768.023.571.014.146-.231.151-.231h.192l-.005-.481v-.481l-.256-.111c-.809-.361-1.279-.772-1.457-1.271-.037-.102-.037-.139-.046-.601s-.005-.498.027-.6a.67.67 0 0 1 .471-.472c.078-.023.455-.023 1.533-.023 0 0 1.269-.001 1.54.023.217.019.45.267.477.47.011.081.027.22.027.601 0 .201.012.485-.044.601-.28.582-.687.914-1.478 1.271l-.264.111v.485l.005.485.101.009.101.009.137.208.133.208h.612l.662.009c.046.009.055.005.101-.074l.055-.083h.525c.407 0 .525.005.525.018-.014-.005-.073.222-.142.481z" fill="#fff"/><path d="M27.452 17.829l-.041-.642a13.67 13.67 0 0 0-1.731-5.63 1.61 1.61 0 0 1-.101-.194c-.009-.014-.014-.028-.018-.037l1.183-4.285c.626-2.792 1.023-6.055-.192-7.035 0 0-2.102-.157-4.916 2.635a19.05 19.05 0 0 0-2.083 2.501l-.196-.065a14.11 14.11 0 0 0-3.49-.684c-.356-.028-1.686-.028-2.12 0-1.311.088-2.316.287-3.458.689l-.128.046a18.75 18.75 0 0 0-2.152-2.482C5.08-.162 2.901 0 2.901 0c-1.288 1.012-.85 4.424-.183 7.308l1.179 4.193a1.05 1.05 0 0 1-.05.102c-1.064 2.182-1.64 4.285-1.777 6.522 1.192-.176 4.477-.374 6.94 2.307 0 0 1.626-4.345 6.012-4.345s5.322 4.345 5.322 4.345c2.906-2.427 6.035-2.348 7.131-2.233l-.023-.37zM4.76 9.758s-1.709-4.322-1.27-6.79c.073-.416.21-.781.425-1.059 0 0 1.937.194 5.062 3.707 0 0-.594.291-1.389.911-.873.675-1.978 1.738-2.828 3.231zm7.25 6.421c-.027.055-.165.116-.32.139s-.63.009-.9-.023c-.969-.129-1.996-.43-2.746-.8-.42-.208-.722-.416-.946-.643l-.128-.134-.014-.176c-.023-.305-.018-.786.018-.957.023-.143.073-.282.142-.407.037-.046.037-.046.201-.046.201 0 .37.032.644.12.562.176 1.398.601 2.417 1.22.841.508 1.156.758 1.398 1.1.164.213.274.513.233.606zm10.763-1.53c-.014.074-.229.296-.443.458-.63.467-1.759.901-2.905 1.109-.653.12-1.307.139-1.503.042-.128-.065-.146-.116-.101-.282.096-.347.407-.726.891-1.082.247-.18 1.247-.795 1.713-1.054.767-.425 1.389-.68 1.809-.74.133-.018.292-.023.343 0 .082.032.174.277.21.573.018.157.009.851-.014.975zm-.758-8.122l-.009-.005c-.767-.619-1.343-.911-1.343-.911 3.02-3.513 4.888-3.707 4.888-3.707.206.282.338.643.411 1.059.425 2.468-1.224 6.795-1.224 6.795-.69-1.243-1.617-2.344-2.723-3.231z" fill="#ffa409"/><path d="M25.967 2.963c-.356-.046-2.042-.055-3.952 3.564l-.009-.005c-.767-.619-1.343-.911-1.343-.911 3.02-3.513 4.888-3.707 4.888-3.707.21.282.343.643.416 1.059z" fill="#ff9300"/><g fill="#ff8300"><path d="M24.743 9.758c-.694-1.248-1.617-2.344-2.727-3.231 1.91-3.619 3.591-3.61 3.952-3.564.425 2.473-1.224 6.795-1.224 6.795z"/><path d="M26.036 2.977l-.068-.014z"/></g><path d="M8.977 5.612s-.594.291-1.389.911C5.601 2.903 3.86 2.917 3.486 2.963c.073-.416.21-.781.425-1.059.005 0 1.942.194 5.066 3.707z" fill="#ff9300"/><g fill="#ff8300"><path d="M7.584 6.527C6.716 7.202 5.61 8.26 4.76 9.758c0 0-1.709-4.322-1.27-6.795.37-.046 2.115-.055 4.093 3.564z"/><path d="M3.49 2.963l-.073.014z"/></g><path d="M20.12 12.157s-1.462.092-1.279-1.063 1.325-1.294 1.645-1.248 1.599.508 1.37 1.479-.548.786-.731.832-1.005 0-1.005 0zm-10.782 0s-1.462.092-1.279-1.063S9.384 9.8 9.704 9.846s1.599.508 1.371 1.479-.548.786-.731.832-1.005 0-1.005 0z" fill="#fff"/></g><defs ><path id="B" d="M12.386 2.6c-.286-.005-.435.006-.435.006-5.642 4.434-3.723 19.373-.802 32.006 1.921 8.361 4.283 15.712 5.163 18.363a4.59 4.59 0 0 1-.221.445c-4.662 9.555-7.587 18.698-7.783 28.564-.004.218.007.379.011.558.054 2.005-.071 4.16.409 6.002 1.501 5.77 6.124 12.126 13.366 18.361 11.865 10.204 27.951 17.572 40.136 18.422 12.705.871 31.452-6.64 43.937-17.612 1.961-1.761 3.802-3.624 5.523-5.608 1.241-1.458 3.08-3.967 2.94-3.967-.04 0 .001-.041.081-.081.06-.04.119-.101.079-.142-.02-.02.019-.081.079-.102s.101-.061.081-.102-.001-.079.079-.1c.06-.02.081-.082.061-.122s-.001-.081.038-.081.081-.061.081-.102.039-.102.079-.102.081-.041.081-.081c.06-.162.16-.323.26-.465.3-.466 1.501-2.633 1.661-2.997 1.14-2.612 1.861-4.939 2.201-7.267.12-1.113.22-3.159.14-3.645-.02-.081-.021-.222-.041-.445l-.02-.002-.1-1.618a68.91 68.91 0 0 0-.181-2.814c-.86-9.191-3.182-16.702-7.584-24.658-.18-.304-.341-.606-.441-.849-.04-.06-.059-.122-.079-.162a213.51 213.51 0 0 0 5.182-18.767c2.741-12.228 4.481-26.52-.841-30.812 0 0-9.204-.689-21.529 11.539a83.42 83.42 0 0 0-9.123 10.952l-.861-.282c-4.962-1.64-10.103-2.653-15.285-2.997-1.56-.121-7.382-.121-9.283 0-5.742.385-10.145 1.256-15.147 3.017-.2.081-.38.14-.56.201-2.821-3.887-5.962-7.531-9.423-10.871C23.097 3.433 14.388 2.632 12.386 2.6z"/></defs></svg>