<svg xmlns="http://www.w3.org/2000/svg" width="128" height="128" viewBox="0 0 33.867 33.867" xmlns:v="https://vecta.io/nano"><path fill-rule="evenodd" d="M0 22.821v-5.888C0 7.581 7.581 0 16.933 0c4.613 0 8.795 1.844 11.849 4.836l-3.6 2.249c-2.232-1.871-5.109-2.998-8.249-2.998A12.85 12.85 0 0 0 4.087 16.933h4.087zm8.622 3.908c2.24 1.903 5.142 3.051 8.311 3.051a12.85 12.85 0 0 0 12.846-12.846h-4.087l8.174-5.985v5.985c0 9.352-7.581 16.933-16.933 16.933-4.641 0-8.847-1.867-11.906-4.892zm14.807-4.175h-4.671l-1.824-2.465-1.824 2.465h-4.671l4.232-5.523-4.232-5.717h4.379l2.117 2.763 2.117-2.763h4.379l-4.232 5.717z"/></svg>