<svg xmlns="http://www.w3.org/2000/svg" width="128" height="128" fill="none" xmlns:v="https://vecta.io/nano"><path fill-rule="evenodd" d="M49.799 47.697c-.239.923-.657 1.789-1.228 2.55-1.065 1.388-2.474 2.471-4.086 3.139a15.74 15.74 0 0 1-4.556 1.204l-.981.091h0l-.053.004c-.994.038-1.951.395-2.728 1.018s-1.337 1.48-1.595 2.446c-.118.48-.206.968-.263 1.459l-.187 2.321h0l-.132 1.879a24.96 24.96 0 0 1-2.323 7.846l-.741 1.516c-1.316 2.648-2.505 5.04-2.164 8.244.267 2.469 1.526 4.123 3.198 5.828.794.816 1.848 1.514 2.941 2.237 3.06 2.026 6.434 4.26 5.322 9.887-.91 4.559-8.435 9.344-19.013 11.015 1.026-.156-1.234-4.03-1.485-4.46l-.015-.025-.889-1.362h0 0c-.861-1.303-1.718-2.6-2.387-4.037-1.767-3.755-2.586-8.097-1.862-12.211.656-3.723 3.106-6.697 5.465-9.561l1.138-1.394c3.155-3.936 6.466-9.093 7.198-14.202.062-.444.117-.928.175-1.437.104-.911.217-1.904.394-2.893a16.3 16.3 0 0 1 1.578-4.902c.534-1.009 1.237-1.919 2.078-2.689a2.69 2.69 0 0 0 .822-1.547c.094-.593-.013-1.201-.304-1.726L16.252 17.469l24.22 30.024a3.02 3.02 0 0 0 1.021.828c.397.197.832.305 1.275.314s.882-.079 1.287-.259.765-.448 1.055-.783a2.06 2.06 0 0 0 .493-1.287c.012-.473-.139-.936-.428-1.311l-3.465-4.37-.002-.003-1.408-1.763-6.095-7.578-12.233-15.129L8.389 0l15.152 14.798L36.562 29.26l6.496 7.248 1.79 2.013 4.675 5.348.353.433.078.671c.105.91.053 1.831-.155 2.724zm62.249 10.182l.025.039v-.004c-.006-3.23-1.997-8.559-6.026-13.684l-.095-.126c-1.241-1.541-2.594-2.989-4.048-4.33l-.119-.114.136.118-.526-.479-.336-.305.251.232-.268-.235c-1.861-1.631-3.897-3.052-6.069-4.235l-.155-.078c-6.823-3.733-15.703-5.655-26.651-3.49a54.24 54.24 0 0 0-4.741-5.079c-2.584-2.473-5.626-4.414-8.953-5.711a22.75 22.75 0 0 0-10.319-1.264c3.365.304 6.642 1.245 9.659 2.771 2.914 1.568 5.538 3.627 7.759 6.088a94.71 94.71 0 0 1 6.336 7.881l.495.647c1.929 2.523 3.892 5.091 6.338 7.377a21.81 21.81 0 0 0 4.469 3.26 20.42 20.42 0 0 0 1.293.611c.427.182.828.351 1.259.507.832.325 1.694.593 2.556.84 3.448.987 6.978 1.342 10.426 1.533l1.437.073 3.654.209c1.648.098 3.282.356 4.879.771a10.84 10.84 0 0 1 5.988 4.07 16.53 16.53 0 0 1 1.345 2.109zM97.711 71.675c-11.089-4.52-22.688-9.248-20.961-22.519 3.702 3.971 9.514 4.804 15.835 5.71 5.734.822 11.887 1.703 17.265 5.042 12.689 7.872 10.836 23.166 6.525 28.794.389-9.26-8.941-13.064-18.664-17.027zM52.96 65.032c2.927-.282 9.164-1.81 6.375-6.742-.6-1.003-1.47-1.816-2.509-2.346a6.17 6.17 0 0 0-3.366-.646 5.76 5.76 0 0 0-3.18 1.397 5.8 5.8 0 0 0-1.807 2.976c-.866 3.226.052 5.793 4.487 5.361zm-.769-39.031c-1.836-2.13-4.685-3.247-7.478-3.654-.104.699-.171 1.403-.198 2.109-.125 5.815 1.931 12.202 5.909 16.64a14.95 14.95 0 0 0 4.522 3.464c.991.485 3.621 1.689 4.595.606.074-.099.121-.216.135-.34s-.004-.248-.053-.362c-.161-.464-.473-.884-.783-1.302h0c-.22-.296-.438-.591-.601-.898s-.341-.612-.517-.914h0 0 0 0 0 0c-.331-.567-.661-1.133-.914-1.749-.668-1.612-1.016-3.327-1.362-5.036l-.211-1.026c-.53-2.637-1.207-5.408-3.043-7.539zm39.234 46.394c-2.849 7.985 1.746 14.73 6.313 21.434 5.108 7.5 10.183 14.95 4.769 24.031 10.522-4.365 15.517-17.549 11.151-28.01-2.752-6.617-9.383-10.204-15.538-13.533-2.389-1.292-4.705-2.545-6.695-3.921zM60.576 91.459a23.84 23.84 0 0 0-5.349 3.052 38.77 38.77 0 0 1 11.638-2.308l2.177-.11h.001l3.856-.227c2.148-.147 4.266-.583 6.297-1.299 2.129-.748 4.066-1.96 5.673-3.55 1.623-1.641 2.761-3.702 3.289-5.954.464-2.127.398-4.336-.19-6.432a13.25 13.25 0 0 0-3.185-5.583c.725 1.846 1.171 3.792 1.323 5.772.131 1.843-.118 3.693-.733 5.434a11.11 11.11 0 0 1-2.862 4.33 14.64 14.64 0 0 1-4.521 2.815c-2.315.937-4.932 1.32-7.659 1.719-1.244.182-2.51.368-3.781.611-2.044.376-4.045.956-5.974 1.732zm33.26 32.8l-.384.309h0c-.482.389-.972.786-1.499 1.141-.672.445-1.377.839-2.108 1.178A10.9 10.9 0 0 1 84.957 128c-4.586-.086-7.828-3.515-9.724-7.391-.498-1.016-.936-2.063-1.374-3.111-.701-1.676-1.402-3.352-2.346-4.9-2.194-3.598-5.949-6.495-10.345-5.958-1.793.225-3.474 1.035-4.47 2.598-2.621 4.083 1.142 9.803 5.94 8.993.408-.062.808-.173 1.19-.329a4.29 4.29 0 0 0 1.056-.645 4.81 4.81 0 0 0 1.461-2.121c.316-.863.386-1.797.203-2.698-.197-.941-.75-1.769-1.544-2.308.922.434 1.641 1.21 2.004 2.165a5.68 5.68 0 0 1 .28 3.087c-.188 1.079-.662 2.087-1.37 2.919a6.01 6.01 0 0 1-1.294 1.104c-.476.301-.987.544-1.521.723a7.53 7.53 0 0 1-3.371.35 8.95 8.95 0 0 1-4.353-1.896c-.271-.216-.53-.444-.78-.68a16.24 16.24 0 0 1-2.167-2.329c-.318-.352-.641-.701-.98-1.035a18.66 18.66 0 0 0-5.353-3.927c-1.382-.609-2.828-1.059-4.31-1.342a27.97 27.97 0 0 0-2.254-.364c-.082-.008-.24-.036-.437-.07-.63-.11-1.654-.289-1.835-.12 2.331-2.156 4.873-4.071 7.586-5.716 2.786-1.661 5.777-2.946 8.897-3.823a25.26 25.26 0 0 1 9.953-.766c1.717.207 3.399.644 5 1.299a15.59 15.59 0 0 1 4.578 2.84c1.336 1.265 2.417 2.779 3.181 4.456.69 1.57 1.205 3.213 1.534 4.897.177.907.311 1.902.449 2.934.628 4.697 1.354 10.116 6.737 11.061.342.067.687.116 1.035.147l1.073.026a15.49 15.49 0 0 0 2.194-.316c1.498-.354 2.957-.854 4.358-1.494z" fill="#fc72ff"/></svg>