<svg xmlns="http://www.w3.org/2000/svg" width="128" height="128" fill="none" xmlns:v="https://vecta.io/nano"><defs><filter id="A" x="0" y="-.028" width="1.001" height="1.06" color-interpolation-filters="sRGB"><feColorMatrix type="hueRotate" values="180"/><feColorMatrix values="-1 0 0 0 1 0 -1 0 0 1 0 0 -1 0 1 -0.21 -0.72 -0.07 1 0 "/></filter></defs><g transform="matrix(.357576 0 0 .357576 -15.694151 -17.053426)" filter="url(#A)"><path d="M115.89 314.105c1.907-1.295 3.687-3.236 4.573-5.99.986-3.062.405-5.756-.057-7.247l-.047-.149.368-2.146c1.014.571 2.183 1.338 3.516 2.275l1.236.879 1.692 1.2 2.905 1.823c29.477 18.321 53.854 25.874 73.217 24.938 20.018-.967 34.057-11.037 41.298-25.734 6.999-14.205 7.243-31.807 2.338-48.113-4.937-16.412-15.319-32.361-30.794-43.399-26.077-18.599-49.971-46.878-62.053-70.925-6.136-12.212-8.577-22.061-7.933-28.492.3-2.993 1.217-4.803 2.314-5.969s3.097-2.452 6.95-3.087c8.161-1.344 17.601-4.283 27.179-7.266l11.153-3.403c13.807-4.037 28.423-7.429 43.787-7.4 29.798.056 64.769 12.993 101.589 66.813 47.3 69.136 21.332 146.393-33.158 186.979-27.175 20.24-61.08 30.984-95.921 26.899-31.371-3.678-64.228-19.465-94.152-52.486zm5.486-17.893c0 .001-.01.021-.034.057.021-.041.033-.059.034-.057zm-2.961 1.35c-.002-.002.029.001.094.017a.43.43 0 0 1-.094-.017z" fill="#fff" stroke="#000" stroke-width="17.8"/><g fill="#000"><path d="M142.967 107.5s84.5-22.5 103-22.5 92.426 35.898 114 101.5c30.585 93-52.605 153.978-62 148 89.5-74-57-210.784-129-200.5-9 1.286-4 9-4 9l-2 20-15-25z"/><path d="M347.656 158.526c26.684 46.972 21.138 20.079 15.215 73.776 10.962-17.733 28.102-4.455 35.181 2.326 1.269 1.215 3.362.461 3.303-1.294-.27-7.965-2.552-25.176-15.737-43.641-18.08-25.32-37.962-31.167-37.962-31.167z"/></g><path d="M362.871 232.302c5.923-53.697 11.469-26.804-15.215-73.776 0 0 19.882 5.847 37.962 31.167 13.185 18.465 15.467 35.676 15.737 43.641.059 1.755-2.034 2.509-3.303 1.294-7.079-6.781-24.219-20.059-35.181-2.326zm0 0l2.613-6.455" stroke="#000"/><g fill="#000"><path d="M132.971 225.139c-11.258 19.062-34.358 17.632-33.916 40.366 20.632 45.84 20.755 42.552 20.755 42.552 38.217-21.47 22.512-68.876 16.841-82.819-.641-1.576-2.815-1.563-3.68-.099z"/><path d="M46.339 267.283c21.951 2.864 35.046-16.219 52.689-1.874 23.421 44.48 20.754 42.552 20.754 42.552-40.447 16.898-68.134-24.664-75.63-37.717-.847-1.475.501-3.181 2.188-2.961z"/><path d="M230.467 239.002s22 22.503 10.5 26c-14.34-8.826-40.037-1.967-52.632 2.281-3.101 1.046-6.141-1.706-5.023-4.782 4.283-11.785 14.859-33.601 35.155-36.499 12-3.002 12 13 12 13z"/></g><path d="M243.967 129c-2.5-3.5-7.5-13 8-13s39.184 17.551 44 24.043c-1.5 3.957-11.5 4.842-16.5 4.457s-13.5-1.207-20-4.457-13-7.543-15.5-11.043z" fill="#fff"/></g><path d="M27.484 94.411c.663-.45 1.282-1.126 1.591-2.083.343-1.065.141-2.002-.02-2.521l-.016-.052.128-.746c.353.199.759.465 1.223.791l.43.306.589.417 1.01.634c10.253 6.373 18.732 9 25.467 8.674 6.963-.336 11.846-3.839 14.365-8.951 2.434-4.941 2.519-11.063.813-16.735-1.717-5.709-5.328-11.256-10.711-15.095-9.07-6.469-17.381-16.305-21.584-24.67-2.134-4.248-2.983-7.673-2.759-9.91.104-1.041.423-1.671.805-2.076s1.077-.853 2.417-1.074c2.839-.467 6.122-1.49 9.454-2.527l3.879-1.184c4.802-1.404 9.886-2.584 15.23-2.574 10.365.019 22.528 4.519 35.335 23.239 16.452 24.047 7.42 50.919-11.533 65.036-9.452 7.04-21.245 10.777-33.364 9.356-10.912-1.279-22.34-6.77-32.749-18.256zm1.908-6.224c0 0-.003.007-.012.02.007-.014.011-.021.012-.02zm-1.03.47c-.001-.001.01 0 .033.006a.15.15 0 0 1-.033-.006z" fill="#fff" stroke="#000" stroke-width="6.191"/><g fill="#000"><path d="M36.902 22.548s29.391-7.826 35.826-7.826 32.148 12.486 39.652 35.304c10.638 32.348-18.297 53.558-21.565 51.478 31.13-25.739-19.826-73.316-44.87-69.739-3.13.447-1.391 3.13-1.391 3.13l-.696 6.957-5.217-8.696z"/><path d="M108.098 40.296c9.281 16.338 7.352 6.984 5.292 25.661 3.813-6.168 9.775-1.55 12.237.809.441.423 1.169.16 1.149-.45-.094-2.77-.888-8.757-5.474-15.179-6.289-8.807-13.204-10.841-13.204-10.841z"/></g><path d="M113.39 65.957c2.06-18.677 3.989-9.323-5.292-25.661 0 0 6.915 2.034 13.204 10.841 4.586 6.423 5.38 12.409 5.474 15.179.021.61-.707.873-1.149.45-2.462-2.359-8.424-6.977-12.237-.809zm0 0l.909-2.245" stroke="#000" stroke-width=".348"/><g fill="#000"><path d="M33.425 63.466c-3.916 6.63-11.951 6.133-11.797 14.04 7.176 15.944 7.219 14.801 7.219 14.801 13.293-7.468 7.83-23.957 5.858-28.807-.223-.548-.979-.544-1.28-.034z"/><path d="M3.292 78.125c7.635.996 12.19-5.641 18.326-.652 8.146 15.471 7.219 14.801 7.219 14.801-14.069 5.878-23.699-8.579-26.306-13.119-.295-.513.174-1.106.761-1.03zm64.045-9.837s7.652 7.827 3.652 9.043c-4.988-3.07-13.926-.684-18.307.793-1.079.364-2.136-.593-1.747-1.663 1.49-4.099 5.168-11.687 12.228-12.695 4.174-1.044 4.174 4.522 4.174 4.522z"/></g><path d="M72.033 30.026c-.87-1.217-2.609-4.522 2.783-4.522s13.629 6.105 15.304 8.363c-.522 1.376-4 1.684-5.739 1.55s-4.696-.42-6.957-1.55-4.522-2.624-5.391-3.841z" fill="#fff"/></svg>