<?xml version="1.0" encoding="UTF-8" standalone="no"?>
<!-- Created with Inkscape (http://www.inkscape.org/) -->

<svg
   width="127.99999"
   height="127.99999"
   viewBox="0 0 33.866664 33.866664"
   version="1.1"
   id="svg275"
   inkscape:export-filename="kyberswap.png"
   inkscape:export-xdpi="96"
   inkscape:export-ydpi="96"
   xmlns:inkscape="http://www.inkscape.org/namespaces/inkscape"
   xmlns:sodipodi="http://sodipodi.sourceforge.net/DTD/sodipodi-0.dtd"
   xmlns="http://www.w3.org/2000/svg"
   xmlns:svg="http://www.w3.org/2000/svg">
  <sodipodi:namedview
     id="namedview277"
     pagecolor="#ffffff"
     bordercolor="#000000"
     borderopacity="0.25"
     inkscape:showpageshadow="2"
     inkscape:pageopacity="0.0"
     inkscape:pagecheckerboard="0"
     inkscape:deskcolor="#d1d1d1"
     inkscape:document-units="mm"
     showgrid="false" />
  <defs
     id="defs272" />
  <g
     inkscape:label="Layer 1"
     inkscape:groupmode="layer"
     id="layer1">
    <path
       d="m 15.195787,16.926361 12.578717,7.252961 c 0.100637,0.05719 0.214268,0.0871 0.329849,0.08677 0.115586,-3.2e-4 0.229072,-0.03086 0.3294,-0.08863 0.100323,-0.0577 0.183957,-0.140705 0.242755,-0.240772 0.05873,-0.100067 0.09061,-0.213743 0.09252,-0.329913 l 0.0021,-13.356372 c -0.0013,-0.11636 -0.03277,-0.230421 -0.09139,-0.3308707 -0.05859,-0.1003858 -0.142298,-0.1836467 -0.242754,-0.2415396 -0.100443,-0.057829 -0.214267,-0.088373 -0.330041,-0.088437 -0.11578,-6.39e-5 -0.229579,0.030289 -0.330103,0.087989 z"
       fill="#31cb9e"
       id="path2"
       style="stroke-width:0.638993" />
    <path
       d="M 27.043366,6.5520446 18.693253,0.1346028 c -0.08914,-0.067284 -0.193545,-0.1110895 -0.303778,-0.1274276 -0.110224,-0.016326 -0.222744,-0.00469 -0.327356,0.033889 -0.104598,0.038576 -0.197965,0.102854 -0.271572,0.1869766 -0.07354,0.084123 -0.125054,0.1854164 -0.149712,0.2946579 L 14.587659,14.8104 26.975637,7.6586552 C 27.071417,7.6047892 27.152253,7.5275977 27.21065,7.434177 27.26912,7.340756 27.30324,7.2341082 27.31001,7.1239456 27.31681,7.0137835 27.29576,6.9037494 27.24924,6.8038097 27.202656,6.7038707 27.131918,6.6172871 27.043356,6.5520463 Z"
       fill="#31cb9e"
       id="path4"
       style="stroke-width:0.638993" />
    <path
       d="m 18.687694,33.728954 8.371585,-6.424378 c 0.08651,-0.06658 0.15546,-0.153486 0.200719,-0.253105 0.04531,-0.09962 0.0655,-0.208952 0.05885,-0.318283 -0.0068,-0.109331 -0.03999,-0.215342 -0.09699,-0.308634 -0.05707,-0.09336 -0.136042,-0.171186 -0.229965,-0.226586 l -12.404971,-7.146122 3.058224,14.288729 c 0.02246,0.109524 0.07214,0.211506 0.144616,0.296429 0.0724,0.08486 0.165168,0.149779 0.269461,0.188631 0.104357,0.03885 0.216755,0.05035 0.326719,0.03348 0.109984,-0.01693 0.213808,-0.06173 0.301795,-0.130163 z"
       fill="#31cb9e"
       id="path6"
       style="stroke-width:0.638993" />
    <path
       d="M 11.970977,16.926106 15.265691,1.531919 c 0.02862,-0.1333397 0.0157,-0.2723072 -0.03726,-0.3979333 -0.05284,-0.1256332 -0.142998,-0.231808 -0.25809,-0.3040268 -0.115079,-0.072214 -0.249527,-0.1069621 -0.384994,-0.099492 -0.135536,0.00746 -0.265373,0.056786 -0.371956,0.1412226 L 5.7839442,7.3446504 c -0.213566,0.1641564 -0.386555,0.3757283 -0.505488,0.6181624 -0.118944,0.2424341 -0.180601,0.5091501 -0.180215,0.7794443 l -0.0027,16.3945309 c -4.81e-4,0.270358 0.0611,0.537074 0.179948,0.779573 0.118847,0.242434 0.291773,0.454068 0.505289,0.618353 l 8.4273708,6.465977 c 0.107351,0.0809 0.236486,0.12735 0.37049,0.133166 0.134062,0.0057 0.266716,-0.02933 0.38052,-0.100705 0.113872,-0.07138 0.203592,-0.175659 0.257386,-0.29924 0.05381,-0.123581 0.06914,-0.260582 0.0441,-0.393109 z"
       fill="#31cb9e"
       id="path8"
       style="stroke-width:0.638993" />
  </g>
</svg>
