<svg xmlns="http://www.w3.org/2000/svg" width="128" height="128" xmlns:v="https://vecta.io/nano"><style><![CDATA[.B{fill:#2e2d2c}.C{stroke-linejoin:round}.D{stroke-miterlimit:3.2}]]></style><g transform="matrix(2.633633 0 0 2.633633 .079067 .003794)"><g fill="#473532" stroke="#473532" class="C D"><path d="M21.898 28.857c-4.572-.247-8.56-.948-12.043-2.116-4.594-1.541-7.66-3.664-8.922-6.179-.255-.508-.264-.578-.162-1.248.12-.784.49-1.648 1.029-2.399.5-.698 1.457-1.611 2.376-2.268 3.433-2.454 9.252-4.219 15.711-4.765 2.717-.23 5.928-.238 8.574-.022 9.816.802 17.457 4.215 19.078 8.521.15.398.235.793.276 1.28.034.403.031.429-.091.696-.73 1.611-2.38 3.208-4.623 4.477-.614.348-2.033 1.023-2.732 1.3-3.612 1.434-7.621 2.278-12.66 2.663-1.061.081-4.725.12-5.812.061zm3.315-5.765c.77-.201 1.36-.658 1.657-1.282.24-.505.287-.746.287-1.459-.001-.673-.035-.805-.248-.962-.152-.112-.662-.232-1.381-.323-.842-.107-2.307-.067-3.087.085-.652.127-.87.219-.959.405-.102.215-.119 1.218-.028 1.63.24 1.077 1.04 1.79 2.212 1.97.362.056 1.224.02 1.547-.065zm-9.278-1.396c.441-.08.884-.322 1.239-.677 1.584-1.584.38-4.252-1.861-4.123-1.36.078-2.334 1.174-2.266 2.55.074 1.481 1.406 2.519 2.888 2.251zm17.662-.001c.845-.175 1.604-.901 1.824-1.743.087-.336.087-.929-.002-1.27-.273-1.052-1.242-1.796-2.343-1.799-1.031-.003-1.957.66-2.308 1.652-.151.428-.159 1.057-.019 1.509a2.49 2.49 0 0 0 1.725 1.631c.312.076.812.085 1.123.02z" stroke-width=".18" paint-order="markers fill stroke"/><path d="M21.876 37.757c-3.506-.182-6.437-.603-9.391-1.349-5.927-1.496-10.193-4.091-11.61-7.061l-.178-.374.02-.455c.021-.475.051-.571.138-.448l.332.474c.342.488 1.071 1.261 1.621 1.721 1.016.848 2.111 1.54 3.578 2.262 3.841 1.89 8.708 3.046 14.518 3.449 1.117.077 4.269.103 5.524.046 6.364-.293 11.883-1.543 16.02-3.626 2.312-1.165 3.94-2.456 5.001-3.968.158-.225.305-.409.328-.409s.041.234.041.529v.529l-.189.366c-.423.819-.874 1.405-1.686 2.19-3.503 3.386-10.634 5.664-19.117 6.108a110.66 110.66 0 0 1-4.95.017z" stroke-width=".408" paint-order="markers fill stroke"/></g><path d="M22.641 35.292l-2.031-.105-.891-.079a44.93 44.93 0 0 1-7.016-1.134c-1.804-.44-3.989-1.197-5.526-1.914-3.06-1.427-5.078-3.116-5.99-5.013-.083-.172-.302-.59-.405-1.059-.036-.161.278.598.368.75.338.572 1.027 1.328 1.71 1.878 2.661 2.14 7.446 3.821 13.234 4.649 1.542.221 2.853.354 4.641.474.929.062 4.69.09 5.844.043 4.867-.196 9.35-.93 13.078-2.142 1.245-.405 2.294-.829 3.391-1.373 1.442-.714 2.414-1.367 3.26-2.187.455-.441.706-.736.966-1.134.163-.25.469-.88.446-.785-.187.78-.614 1.396-.816 1.696a7.14 7.14 0 0 1-.963 1.154c-.393.402-1.029.958-1.371 1.199a22.76 22.76 0 0 1-1.474.962c-.965.558-2.346 1.203-3.555 1.66a42.1 42.1 0 0 1-2.643.859l-.728.201c-.14.04-.569.143-.953.23-2.632.59-4.755.891-7.746 1.098-1.116.077-3.574.114-4.828.073z" fill="#f2f2f2" stroke="#f2f2f2" stroke-width="1.006" paint-order="markers fill stroke" class="C D"/><path d="M7.631 30.829c-3.789-1.722-5.557-3.339-6.747-5.333-.248-.415-.221-1.05-.128-1.412.067-.262.227-.736.266-.757.013-.007.131.111.261.263 1.374 1.599 3.843 3.021 7.183 4.137s7.525 1.874 11.877 2.151c2.39.152 5.079.162 7.47.027 6.68-.377 12.696-1.847 16.55-4.044 1.165-.664 2.234-1.495 2.868-2.231.14-.162.269-.29.287-.285s.071.11.118.233c.459 1.207.287 1.819-.98 3.351-2.714 3.279-9.933 6.295-19.119 6.796-1.18.064-1.945.081-3.485.076-5.852-.004-11.65-.993-16.421-2.972z" fill="#fff" stroke="#fff" stroke-width=".186" paint-order="markers fill stroke" class="C D"/><path d="M23.171 39.624C10.378 39.374.361 34.741-.011 28.902l-.019-.292.019-.296a5.32 5.32 0 0 1 .24-1.312l.059-.19-.059-.19c-.41-1.328-.314-2.67.282-3.939l.082-.175-.084-.184c-1.616-3.538.502-7.138 5.735-9.75 9.644-4.812 26.417-4.812 36.061 0 5.234 2.612 7.352 6.211 5.735 9.75l-.084.184.082.175c.595 1.269.691 2.611.282 3.939l-.059.19.059.19c2.14 6.939-9.784 12.923-25.15 12.623zm2.392-1.813c11.005-.283 20.062-3.79 22.212-8.602l.076-.17.002-.397c.001-.357-.009-.514-.049-.741l-.009-.052-.132.215c-4.393 7.136-23.206 10.272-36.88 6.15-4.824-1.454-8.376-3.666-9.904-6.166l-.121-.199-.009.053c-.04.227-.051.384-.049.741l.002.397.076.17c2.335 5.226 12.939 8.906 24.788 8.602zm.267-2.495c13.935-.436 24.069-6.05 21.71-12.026l-.018-.046-.123.176c-2.525 3.606-9.195 6.407-17.373 7.295-12.411 1.347-25.062-1.849-28.875-7.295l-.123-.176-.018.046c-2.569 6.508 9.79 12.496 24.82 12.026zm.3-6.415c10.909-.432 19.648-3.912 21.661-8.627l.076-.178-.01-.284c-.179-5.106-9.167-9.463-20.771-10.068C13.263 9.024.906 13.741.693 19.821l-.01.275.076.178c2.067 4.843 11.237 8.375 22.455 8.649.413.01 2.502-.006 2.916-.022z" class="B"/><ellipse cx="11.812" cy="21.002" rx="2.8" ry="1.709" fill="#fce3e9" paint-order="markers fill stroke"/><circle cx="15.463" cy="19.31" r="2.412" paint-order="markers fill stroke" class="B"/><g fill="#fff"><circle cx="15.102" cy="18.881" r="1.013" paint-order="markers fill stroke"/><circle cx="16.366" cy="20.188" r=".55" paint-order="markers fill stroke"/></g><ellipse cx="36.641" cy="21.002" rx="2.8" ry="1.709" fill="#fce3e9" paint-order="markers fill stroke"/><circle cx="33.072" cy="19.317" r="2.412" paint-order="markers fill stroke" class="B"/><g fill="#fff"><circle cx="32.711" cy="18.888" r="1.013" paint-order="markers fill stroke"/><circle cx="33.975" cy="20.195" r=".55" paint-order="markers fill stroke"/><path d="M24.855 22.342c.599-.105 1.047-.414 1.286-.889.053-.105.061-.093-.149-.231a3.03 3.03 0 0 0-3.438.003c-.225.147-.213.119-.122.28.405.711 1.326 1.03 2.422.838z"/></g><path d="M23.975 23.166c-1.682-.103-2.692-1.27-2.57-2.969.051-.713.109-.811.537-.916a10.07 10.07 0 0 1 4.582-.021c.547.127.625.275.625 1.176-.001 1.813-1.207 2.85-3.174 2.729zm.883-.824c.599-.105 1.047-.414 1.286-.889.053-.105.061-.093-.149-.231a3.03 3.03 0 0 0-3.438.003c-.225.147-.213.119-.122.28.405.711 1.326 1.03 2.422.838z" class="B"/></g></svg>