<?xml version="1.0" encoding="UTF-8" standalone="no"?>
<svg
   width="128"
   height="128"
   viewBox="0 0 128 128"
   fill="none"
   version="1.1"
   id="svg5922"
   sodipodi:docname="aptos.svg"
   inkscape:export-filename="..\Mainnet_128x128\chains\aptos.png"
   inkscape:export-xdpi="96"
   inkscape:export-ydpi="96"
   xmlns:inkscape="http://www.inkscape.org/namespaces/inkscape"
   xmlns:sodipodi="http://sodipodi.sourceforge.net/DTD/sodipodi-0.dtd"
   xmlns="http://www.w3.org/2000/svg"
   xmlns:svg="http://www.w3.org/2000/svg">
  <defs
     id="defs5926" />
  <sodipodi:namedview
     id="namedview5924"
     pagecolor="#ffffff"
     bordercolor="#000000"
     borderopacity="0.25"
     inkscape:showpageshadow="2"
     inkscape:pageopacity="0.0"
     inkscape:pagecheckerboard="0"
     inkscape:deskcolor="#d1d1d1"
     showgrid="false" />
  <circle
     cx="64"
     cy="64"
     fill="#ffffff"
     id="circle5918"
     style="display:inline;stroke-width:1.01588"
     r="64" />
  <path
     d="M 97.306413,43.871492 H 86.531048 c -1.197715,0 -2.394413,-0.543492 -3.265016,-1.413079 L 78.912,37.566984 c -1.306413,-1.413079 -3.37473,-1.521778 -4.897524,-0.326095 l -0.326095,0.326095 -3.700825,4.239238 c -1.197715,1.41308 -3.047619,2.173968 -4.897524,2.173968 H 6.2039365 C 4.5714286,48.762921 3.4834286,53.871746 3.047619,58.981587 h 55.727746 c 0.979302,0 1.959619,-0.434793 2.612825,-1.086984 l 5.224635,-5.43492 c 0.653207,-0.652191 1.52381,-1.086985 2.503112,-1.086985 h 0.217396 c 0.979302,0 1.959619,0.434794 2.61181,1.195683 l 4.354032,4.891429 c 0.870603,0.978285 2.068317,1.521777 3.265015,1.521777 h 45.38819 C 124.51657,53.872762 123.42857,48.762921 121.79606,43.98019 H 97.306413 Z M 61.605587,73.87327 57.251556,68.981841 c -1.306413,-1.413079 -3.373715,-1.521778 -4.897524,-0.326095 l -0.326095,0.326095 -3.809524,4.239238 c -1.197715,1.41308 -2.938921,2.173969 -4.788826,2.173969 H 3.9182222 C 4.8975238,80.612571 6.639746,85.722413 8.9254603,90.613841 H 36.680127 c 0.979302,0 1.850921,-0.434793 2.612825,-1.086984 l 5.224635,-5.43492 c 0.653207,-0.652191 1.52381,-1.086985 2.503111,-1.086985 h 0.217397 c 0.979302,0 1.959619,0.434794 2.61181,1.195683 l 4.354032,4.891428 c 0.870603,0.978286 2.068317,1.521778 3.265015,1.521778 h 61.605588 c 2.28571,-4.78273 4.02794,-9.891555 5.00724,-15.218793 H 64.870603 c -1.306413,0 -2.503111,-0.543492 -3.265016,-1.521778 z m 21.333334,-47.395556 5.224635,-5.43492 c 0.653206,-0.652191 1.523809,-1.086984 2.503111,-1.086984 h 0.217396 c 0.979302,0 1.95962,0.434793 2.61181,1.086984 l 4.354032,4.891428 c 0.870603,0.978286 2.068315,1.41308 3.266035,1.41308 H 112.8706 C 92.407873,0.3890794 53.98654,-4.9371429 26.884063,15.390476 c -4.46273,3.369651 -8.48965,7.391492 -11.973079,11.957841 h 65.415111 c 1.089016,0.217397 1.959619,-0.217396 2.612826,-0.869587 z M 40.816762,105.61422 c -1.306413,0 -2.503111,-0.54349 -3.265016,-1.41308 l -4.354032,-4.89143 c -1.306412,-1.413075 -3.483428,-1.521773 -4.898539,-0.21739 l -0.217397,0.21739 -3.809524,4.23924 c -1.197714,1.41308 -2.938921,2.17397 -4.788825,2.17397 h -0.217397 c 22.965841,24.56686 61.822984,25.76356 86.531048,2.60876 0.9793,-0.86958 1.8499,-1.84787 2.83022,-2.82616 H 40.817778 v 0.1087 z"
     fill="#000000"
     id="path5920"
     style="stroke-width:1.01588" />
</svg>
