<?xml version="1.0" encoding="UTF-8" standalone="no"?>
<!-- Created with Inkscape (http://www.inkscape.org/) -->

<svg
   width="127.99999"
   height="127.99999"
   viewBox="0 0 33.866664 33.866664"
   version="1.1"
   id="svg4515"
   xml:space="preserve"
   inkscape:export-filename="arbitrumnova.png"
   inkscape:export-xdpi="96"
   inkscape:export-ydpi="96"
   xmlns:inkscape="http://www.inkscape.org/namespaces/inkscape"
   xmlns:sodipodi="http://sodipodi.sourceforge.net/DTD/sodipodi-0.dtd"
   xmlns="http://www.w3.org/2000/svg"
   xmlns:svg="http://www.w3.org/2000/svg"><sodipodi:namedview
     id="namedview4517"
     pagecolor="#ffffff"
     bordercolor="#000000"
     borderopacity="0.25"
     inkscape:showpageshadow="2"
     inkscape:pageopacity="0.0"
     inkscape:pagecheckerboard="0"
     inkscape:deskcolor="#d1d1d1"
     inkscape:document-units="mm"
     showgrid="false" /><defs
     id="defs4512" /><g
     inkscape:label="Layer 1"
     inkscape:groupmode="layer"
     id="layer1"><circle
       style="opacity:1;fill:#181818;fill-opacity:1;stroke:none;stroke-width:0;stroke-linejoin:bevel;stroke-dasharray:none;stroke-opacity:1;paint-order:stroke fill markers"
       id="path4636"
       cx="16.933332"
       cy="16.933332"
       r="16.933332" /><path
       class="st0"
       d="M 12.882965,7.9383285 H 10.45979 c -0.167353,0 -0.316708,0.1046424 -0.374122,0.2618031 L 3.7163745,25.660979 c -0.047324,0.129909 0.04882,0.267359 0.1870644,0.267359 h 2.4231747 c 0.1673462,0 0.3167081,-0.104643 0.374122,-0.261668 L 13.070022,8.2056867 c 0.04739,-0.1299088 -0.04882,-0.2673582 -0.187057,-0.2673582 z m 2.947318,7.3162285 c -0.06364,-0.174492 -0.310358,-0.174492 -0.374122,0 l -1.256239,3.444332 c -0.03216,0.08811 -0.03216,0.184814 0,0.27292 l 2.442097,6.694725 c 0.05725,0.157161 0.206769,0.261674 0.374115,0.261674 h 2.423181 c 0.138245,0 0.234422,-0.137449 0.187058,-0.267358 z m 6.177333,3.371314 c 0.06364,0.174485 0.310357,0.174485 0.373986,0 L 26.182595,8.2056867 c 0.04732,-0.1299088 -0.04882,-0.2673582 -0.187064,-0.2673582 h -2.423175 c -0.167346,0 -0.316708,0.1045132 -0.374122,0.2618031 l -2.446986,6.7083514 c -0.03216,0.08811 -0.03216,0.184684 0,0.272784 z M 17.229784,8.1982822 C 17.173009,8.0421753 17.024606,7.9383285 16.858579,7.9383285 h -2.431381 c -0.167217,0 -0.316572,0.1045132 -0.373986,0.2616739 L 7.6840543,25.660979 c -0.047324,0.129909 0.04882,0.267359 0.1870576,0.267359 h 2.4233111 c 0.167346,0 0.316708,-0.104507 0.374122,-0.261668 l 4.876518,-13.369086 c 0.03202,-0.0877 0.15597,-0.0877 0.187853,0 l 4.876647,13.369086 c 0.05725,0.157161 0.206769,0.261668 0.374122,0.261668 h 2.423303 c 0.138245,0 0.234422,-0.13745 0.187065,-0.267229 z M 29.963211,7.9383285 h -2.423447 c -0.16721,0 -0.316701,0.1045132 -0.373986,0.2616739 L 22.734952,20.346976 c -0.03216,0.08811 -0.03216,0.184678 0,0.272784 l 1.256504,3.444597 c 0.06364,0.174492 0.310351,0.174492 0.373986,0 l 4.386113,-12.02434 1.398713,-3.8344595 c 0.04739,-0.1297796 -0.04882,-0.267229 -0.187057,-0.267229 z"
       id="path8002"
       style="fill:#ef8220;stroke-width:0.0132291" /></g></svg>
