<?xml version="1.0" encoding="UTF-8" standalone="no"?>
<!-- Created with Inkscape (http://www.inkscape.org/) -->

<svg
   width="127.99999"
   height="127.99999"
   viewBox="0 0 33.866664 33.866664"
   version="1.1"
   id="svg474"
   xml:space="preserve"
   inkscape:export-filename="bitgert.svg"
   inkscape:export-xdpi="96"
   inkscape:export-ydpi="96"
   xmlns:inkscape="http://www.inkscape.org/namespaces/inkscape"
   xmlns:sodipodi="http://sodipodi.sourceforge.net/DTD/sodipodi-0.dtd"
   xmlns:xlink="http://www.w3.org/1999/xlink"
   xmlns="http://www.w3.org/2000/svg"
   xmlns:svg="http://www.w3.org/2000/svg"><sodipodi:namedview
     id="namedview476"
     pagecolor="#ffffff"
     bordercolor="#000000"
     borderopacity="0.25"
     inkscape:showpageshadow="2"
     inkscape:pageopacity="0.0"
     inkscape:pagecheckerboard="0"
     inkscape:deskcolor="#d1d1d1"
     inkscape:document-units="mm"
     showgrid="false" /><defs
     id="defs471"><linearGradient
       inkscape:collect="always"
       id="linearGradient6574"><stop
         style="stop-color:#4a0ee1;stop-opacity:1;"
         offset="0.2176259"
         id="stop6570" /><stop
         style="stop-color:#10dcb7;stop-opacity:1;"
         offset="0.86151081"
         id="stop6572" /></linearGradient><linearGradient
       inkscape:collect="always"
       xlink:href="#linearGradient6574"
       id="linearGradient6576"
       x1="9.517374"
       y1="23.809122"
       x2="26.456911"
       y2="23.809122"
       gradientUnits="userSpaceOnUse" /></defs><g
     inkscape:label="Layer 1"
     inkscape:groupmode="layer"
     id="layer1"><circle
       style="fill:#ffffff;fill-opacity:1;stroke-width:0;stroke-linejoin:bevel;paint-order:stroke fill markers"
       id="path647"
       cx="16.933332"
       cy="16.933332"
       r="16.933332" /><path
       style="display:inline;fill:#4a0ee1;fill-opacity:1;stroke-width:0.123646"
       d="M 9.5173271,16.933333 V 9.3937575 c 0,0 1.2173489,0.5711665 2.1674499,1.1216115 0.950101,0.550445 2.506428,1.448205 3.458504,1.995022 3.392513,1.94846 3.370625,1.783097 0.452603,3.419451 -1.082935,0.607283 -0.982114,0.599251 -1.731794,0.137968 -0.331569,-0.204017 -0.760862,-0.414422 -0.760862,-0.370939 v 1.236462 1.236463 c 0,0.03846 0.622944,-0.287599 1.213538,-0.639111 1.042419,-0.620428 3.526852,-2.060486 6.228646,-3.610328 1.001812,-0.574673 1.28618,-0.792188 1.17464,-0.898491 -0.08094,-0.07714 -1.093063,-0.685614 -2.249155,-1.352162 -1.15609,-0.666548 -2.602751,-1.504392 -3.2148,-1.8618766 C 15.644045,9.450343 14.698152,8.9064064 14.154108,8.5990791 L 13.103225,8.0403024 v 0.8462481 c 0,0.4965134 0.09958,1.5562775 -0.428027,1.2665695 L 10.81566,9.1320575 9.5173271,8.4092634 V 6.7211242 c 0,-2.2925323 0.4802553,-3.0170624 2.4729719,-3.0169574 1.154092,6.1e-5 1.191271,0.01391 3.214802,1.197736 0.578046,0.338174 1.774324,1.0334202 2.658394,1.5449918 9.222132,5.3364314 8.593413,4.8497794 8.593413,6.6516314 0,1.659199 -0.13281,1.80159 -3.462094,3.711864 -0.986079,0.565791 -2.098895,1.208838 -2.472925,1.428992 -0.703184,0.413896 -2.343736,1.362844 -5.440434,3.146921 -0.986079,0.568102 -2.535947,1.467814 -3.444152,1.999358 -0.908205,0.531545 -2.1199759,1.171626 -2.1199759,1.171626 z"
       id="path3416"
       sodipodi:nodetypes="ccssssscssssssscssccssssssssscc" /><path
       style="display:inline;fill:url(#linearGradient6576);fill-opacity:1;stroke-width:0.123646"
       d="M 10.547158,29.923443 C 9.6873625,29.399182 9.5173744,28.93595 9.5173744,27.117195 l -4.73e-5,-1.628769 1.0201289,-0.586011 c 0.561051,-0.322294 1.224956,-0.722027 1.475358,-0.888272 0.807673,-0.53622 1.057979,-0.286785 1.120298,1.116403 l 0.03183,0.716617 1.483755,-0.853677 c 0.816064,-0.469523 1.984521,-1.146344 2.59657,-1.504049 0.612049,-0.357704 1.904566,-1.102818 2.872261,-1.65581 2.052247,-1.172759 1.951694,-1.019755 1.02194,-1.55503 -1.187189,-0.683487 -1.164505,-0.825023 0.271596,-1.694542 1.839447,-1.113732 2.068973,-1.221317 2.300597,-1.078349 0.115776,0.07146 0.476658,0.277874 0.801959,0.458693 1.642454,0.912962 1.943291,1.34673 1.943291,2.801967 0,1.620749 -0.122567,1.743926 -3.89234,3.911729 -0.338644,0.194737 -0.708153,0.409707 -0.821132,0.477713 -0.112979,0.06801 -0.587058,0.341744 -1.053509,0.608309 -0.466451,0.266565 -1.585265,0.920345 -2.486255,1.452843 -0.900989,0.532499 -1.658941,0.96818 -1.684337,0.96818 -0.02539,0 -0.567962,0.315551 -1.205701,0.701225 -2.044004,1.236114 -2.148067,1.276074 -3.323335,1.276135 -0.821459,4.4e-5 -1.136637,-0.05217 -1.443141,-0.239057 z"
       id="path6568"
       sodipodi:nodetypes="sscssscsssssssssssssssss" /></g></svg>
