<?xml version="1.0" encoding="UTF-8" standalone="no"?>
<svg
   width="128"
   height="128"
   viewBox="0 0 128 128"
   fill="none"
   version="1.1"
   id="svg1578"
   sodipodi:docname="cube_icon.13312b2b.svg"
   inkscape:export-filename="..\Mainnet_128x128\chains\cube.png"
   inkscape:export-xdpi="96"
   inkscape:export-ydpi="96"
   xmlns:inkscape="http://www.inkscape.org/namespaces/inkscape"
   xmlns:sodipodi="http://sodipodi.sourceforge.net/DTD/sodipodi-0.dtd"
   xmlns="http://www.w3.org/2000/svg"
   xmlns:svg="http://www.w3.org/2000/svg">
  <defs
     id="defs1582" />
  <sodipodi:namedview
     id="namedview1580"
     pagecolor="#ffffff"
     bordercolor="#000000"
     borderopacity="0.25"
     inkscape:showpageshadow="2"
     inkscape:pageopacity="0.0"
     inkscape:pagecheckerboard="0"
     inkscape:deskcolor="#d1d1d1"
     showgrid="false" />
  <circle
     cx="64"
     cy="64"
     r="64"
     fill="#08dede"
     id="circle1540"
     style="stroke-width:5.33333" />
  <path
     d="m 77.764267,87.0192 -3.016,-0.0176 -1.8256,-3.384 -1.977067,-3.688533 c -0.101333,-0.187734 -0.263467,-0.328534 -0.455467,-0.394134 -0.191466,-0.06613 -0.399466,-0.0528 -0.5824,0.03733 h -3.1488 l 1.534934,-2.874134 h 3.882666 z"
     fill="#ffffff"
     id="path1542"
     style="stroke-width:5.33333" />
  <path
     d="m 68.7952,81.32 -5.52,10.291733 -11.039573,0.0091 1.461973,-2.8464 h 7.588267 c 0.03573,-5.33e-4 0.07147,-0.0027 0.106666,-0.0075 h 0.016 c 0.122667,-0.0176 0.239467,-0.06507 0.3424,-0.138666 0.102934,-0.0736 0.1888,-0.171734 0.2512,-0.2864 L 65.799467,81.3232 Z"
     fill="#ffffff"
     id="path1544"
     style="stroke-width:5.33333" />
  <path
     d="M 75.8048,92.489067 70.253333,103.12747 64.6832,92.491733 l 5.5744,-10.333866 1.267733,2.348266 z"
     fill="#ffffff"
     id="path1546"
     style="stroke-width:5.33333" />
  <path
     d="m 68.846933,104 h -11.0816 L 52.23152,93.371733 63.2752,93.36 Z"
     fill="#ffffff"
     id="path1548"
     style="stroke-width:5.33333" />
  <path
     d="m 59.884267,87.023467 h -11.0352 L 36.855573,64.6336 h 11.046134 z"
     fill="#ffffff"
     id="path1550"
     style="stroke-width:5.33333" />
  <path
     d="m 49.896373,59.288533 -1.989226,3.610134 -11.04752,-0.01333 1.42032,-2.621866 h 7.67712 c 0.03621,0 0.07237,-0.0032 0.10816,-0.0091 l 0.03648,-0.0069 0.06619,-0.01493 0.04053,-0.0144 c 0.02027,-0.0075 0.04059,-0.01333 0.05947,-0.02187 l 0.03653,-0.0192 c 0.01888,-0.01013 0.03915,-0.01867 0.05675,-0.0304 0.01173,-0.0075 0.02304,-0.01547 0.03376,-0.02453 0.01883,-0.0112 0.03691,-0.024 0.05408,-0.03787 l 0.03104,-0.02933 c 0.01621,-0.0144 0.03243,-0.02933 0.04731,-0.04533 l 0.03109,-0.03627 c 0.01355,-0.016 0.02704,-0.0304 0.0392,-0.048 0.01216,-0.0176 0.02027,-0.032 0.02976,-0.048 0.01067,-0.0144 0.02059,-0.02987 0.02971,-0.04533 l 1.777067,-3.261333 z"
     fill="#ffffff"
     id="path1552"
     style="stroke-width:5.33333" />
  <path
     d="m 66.888533,75.818133 -5.594666,10.341334 -11.984,-22.379734 1.989226,-3.6112 7.192107,0.0032 z"
     fill="#ffffff"
     id="path1554"
     style="stroke-width:5.33333" />
  <path
     d="m 84.213333,52.542613 -12.0272,22.407254 h -3.898666 l -3.56,-6.6336 4.588266,-8.5584 0.01067,-0.0176 3.845867,-7.17872 7.014933,-0.01893 z"
     fill="#ffffff"
     id="path1556"
     style="stroke-width:5.33333" />
  <path
     d="M 91.2592,63.7232 79.203733,86.1568 73.6048,75.8224 85.654933,53.378667 89.0864,59.7648 c 0.0368,0.06827 0.08213,0.130667 0.134933,0.185067 z"
     fill="#ffffff"
     id="path1558"
     style="stroke-width:5.33333" />
  <path
     d="M 100,47.253227 94.482133,57.531733 88.965867,47.240107 94.448533,36.89296 Z"
     fill="#ffffff"
     id="path1560"
     style="stroke-width:5.33333" />
  <path
     d="M 93.071467,58.430933 90.282133,58.4496 86.3632,51.196587 c -0.07093,-0.132534 -0.1728,-0.242667 -0.296,-0.31936 -0.122667,-0.07669 -0.261867,-0.11728 -0.403733,-0.117654 -0.04533,2.67e-4 -0.09067,0.0046 -0.135467,0.01307 l -5.3376,0.01605 h -2.336533 l -1.390934,-2.66 h 11.0816 z"
     fill="#ffffff"
     id="path1562"
     style="stroke-width:5.33333" />
  <path
     d="M 93.046933,36.01312 87.5472,46.3792 H 76.461867 l 5.5728,-10.36608 z"
     fill="#ffffff"
     id="path1564"
     style="stroke-width:5.33333" />
  <path
     d="m 74.356267,47.684427 1.630933,3.11008 -2.821333,0.01605 -2.020267,-3.570453 5.552533,-10.36608 1.473067,2.748853 -3.814933,7.186027 c -0.0091,0.01627 -0.01653,0.03333 -0.02293,0.05099 -0.008,0.01749 -0.016,0.03349 -0.02293,0.05099 -0.0069,0.01749 -0.01333,0.04224 -0.02027,0.06261 -0.0053,0.01477 -0.01013,0.02987 -0.01333,0.04517 -0.008,0.02864 -0.01333,0.05787 -0.01653,0.08741 -5.34e-4,0.0077 -5.34e-4,0.01557 0,0.02331 -0.0085,0.07451 -0.0085,0.149866 0,0.22432 0,0.0087 0,0.01605 0,0.02331 0.0037,0.02944 0.0085,0.05861 0.01493,0.08741 0,0.01312 0.008,0.02331 0.01067,0.03499 0.0027,0.01163 0.01387,0.04949 0.02293,0.07429 0.0096,0.02475 0.01227,0.02619 0.0192,0.0408 0.008,0.02395 0.0176,0.04731 0.02827,0.06992 z"
     fill="#ffffff"
     id="path1566"
     style="stroke-width:5.33333" />
  <path
     d="M 71.768533,51.699147 68.1616,58.426133 H 51.305813 l -5.533866,-10.333866 23.97472,0.03936 1.3232,2.330773 z"
     fill="#ffffff"
     id="path1568"
     style="stroke-width:5.33333" />
  <path
     d="M 75.2944,36 69.736,46.377707 45.76928,46.3384 51.305867,36 Z"
     fill="#ffffff"
     id="path1570"
     style="stroke-width:5.33333" />
  <path
     d="m 47.50848,54.825067 -0.589227,1.079466 -0.941866,1.736534 -5.501494,-10.38496 5.550134,-10.36896 1.46624,2.74592 -3.821707,7.137973 c -0.08891,0.166613 -0.12496,0.359947 -0.10272,0.550613 v 0.02043 c 0,0.02331 0.0081,0.04661 0.01355,0.06992 0.0054,0.02331 0,0.01456 0,0.02037 5.86e-4,0.0073 5.86e-4,0.01461 0,0.02187 0.0076,0.02821 0.01659,0.05589 0.02699,0.08304 0.01355,0.03205 0.02843,0.06555 0.04464,0.09611 v 0.0073 z"
     fill="#ffffff"
     id="path1572"
     style="stroke-width:5.33333" />
  <path
     d="M 44.56384,58.5152 H 33.44064 L 28,48.128693 l 11.063733,0.0029 z"
     fill="#ffffff"
     id="path1574"
     style="stroke-width:5.33333" />
  <path
     d="M 44.616533,36.01456 39.0664,46.38352 28.01488,46.38064 33.56768,36.011627 Z"
     fill="#ffffff"
     id="path1576"
     style="stroke-width:5.33333" />
</svg>
