<?xml version="1.0" encoding="UTF-8" standalone="no"?>
<!-- Created with Inkscape (http://www.inkscape.org/) -->

<svg
   width="127.99999"
   height="127.99999"
   viewBox="0 0 33.866664 33.866664"
   version="1.1"
   id="svg474"
   xml:space="preserve"
   inkscape:export-filename="tombchain.svg"
   inkscape:export-xdpi="96"
   inkscape:export-ydpi="96"
   xmlns:inkscape="http://www.inkscape.org/namespaces/inkscape"
   xmlns:sodipodi="http://sodipodi.sourceforge.net/DTD/sodipodi-0.dtd"
   xmlns="http://www.w3.org/2000/svg"
   xmlns:svg="http://www.w3.org/2000/svg"><sodipodi:namedview
     id="namedview476"
     pagecolor="#ffffff"
     bordercolor="#000000"
     borderopacity="0.25"
     inkscape:showpageshadow="2"
     inkscape:pageopacity="0.0"
     inkscape:pagecheckerboard="0"
     inkscape:deskcolor="#d1d1d1"
     inkscape:document-units="mm"
     showgrid="false" /><defs
     id="defs471"><linearGradient
       id="paint1_linear_6646_26088"
       x1="91.969002"
       y1="182.571"
       x2="91.969002"
       y2="0.50748003"
       gradientUnits="userSpaceOnUse"
       gradientTransform="matrix(0.18601578,0,0,0.18601578,-0.17434417,-0.09438167)"><stop
         stop-color="#7774F4"
         id="stop2716" /><stop
         offset="0.714952"
         stop-color="#9157F9"
         id="stop2718" /><stop
         offset="1"
         stop-color="#B133FF"
         id="stop2720" /></linearGradient><linearGradient
       id="paint2_linear_6646_26088"
       x1="92.160698"
       y1="20.375601"
       x2="92.160698"
       y2="145.76801"
       gradientUnits="userSpaceOnUse"
       gradientTransform="matrix(0.18601578,0,0,0.18601578,-0.17434417,-0.09438167)"><stop
         stop-color="#FBF476"
         id="stop2723" /><stop
         offset="0.449777"
         stop-color="#FFA725"
         id="stop2725" /><stop
         offset="1"
         stop-color="#FFA725"
         id="stop2727" /></linearGradient></defs><g
     inkscape:label="Layer 1"
     inkscape:groupmode="layer"
     id="layer1"><path
       d="m 16.933345,0.31841933 c -9.1761932,0 -16.61495617,7.43877697 -16.61495617,16.61495167 0,9.176104 7.43876297,16.614876 16.61495617,16.614876 9.176161,0 16.614933,-7.438772 16.614933,-16.614876 0,-9.1761747 -7.438772,-16.61495167 -16.614933,-16.61495167 z"
       fill="url(#paint1_linear_6646_26088)"
       stroke="#000000"
       stroke-width="0.636838"
       id="path2655"
       style="fill:url(#paint1_linear_6646_26088)" /><path
       d="m 3.9580208,15.846687 -0.851988,0.851988 -0.851993,-0.851988 0.851993,-0.851988 z"
       fill="#000000"
       id="path2657"
       style="stroke-width:0.186016" /><path
       d="m 31.595296,15.650867 -0.851951,0.851989 -0.852138,-0.851989 0.852138,-0.851988 z"
       fill="#000000"
       id="path2659"
       style="stroke-width:0.186016" /><path
       d="m 1.7457738,18.699724 3.369228,-0.839953 0.600032,2.406577 -0.481319,0.119979 0.11998,0.481412 -0.481314,0.119979 0.119979,0.48122 -1.443945,0.360125 -0.120026,-0.481412 -0.481318,0.11998 -0.11998,-0.481221 -0.481318,0.11998 z m 0.721328,0.842652 0.240005,0.962632 0.481314,-0.119979 0.119979,0.481412 1.44395,-0.360125 -0.119979,-0.48122 0.481314,-0.11998 -0.240006,-0.962818 z"
       fill="#000000"
       id="path2661"
       style="stroke-width:0.186016" /><path
       d="m 3.3683148,23.923419 0.416028,-0.270082 -0.270175,-0.416121 2.08012,-1.350849 0.270176,0.416122 0.416028,-0.270082 1.350848,2.080027 -0.416028,0.270082 0.270175,0.416121 -2.08012,1.350844 -0.270176,-0.415935 -0.416028,0.270082 z m 0.686194,0.145852 0.810507,1.248168 2.080121,-1.350848 -0.810507,-1.248163 z"
       fill="#000000"
       id="path2663"
       style="stroke-width:0.186016" /><path
       d="m 6.7237418,28.181689 0.312208,-0.385438 -0.385531,-0.312114 0.312208,-0.385624 -0.385531,-0.312115 0.936534,-1.156462 0.385485,0.312114 0.312161,-0.385437 0.385531,0.312114 0.312161,-0.385624 1.9275282,1.560861 -0.312161,0.385624 -1.5420352,-1.248723 -0.312161,0.385437 -0.385484,-0.312114 -0.936535,1.156644 0.385485,0.312115 -0.312161,0.385437 0.771015,0.624453 0.624345,-0.771034 -0.385484,-0.312114 0.312161,-0.385625 1.156518,0.936591 -1.248709,1.541886 z"
       fill="#000000"
       id="path2665"
       style="stroke-width:0.186016" /><path
       d="m 10.437286,30.651236 1.187618,-3.2629 3.262955,1.187524 -0.169671,0.46614 -2.330685,-0.848234 -0.339295,0.932126 1.86455,0.678773 -0.169671,0.466139 -1.864546,-0.678768 -0.339295,0.932308 2.330686,0.848234 -0.169671,0.46614 z"
       fill="#000000"
       id="path2667"
       style="stroke-width:0.186016" /><path
       d="M 16.084519,32.07742 V 31.581502 H 15.58847 v -0.496104 h -0.496067 v -1.488126 h 0.496067 v -0.496105 h 0.496049 v -0.496104 h 1.984212 v 0.496104 h 0.495973 v 0.496105 h -0.992022 v -0.496105 h -0.992115 v 0.496105 h -0.496048 v 1.488126 h 0.496048 v 0.496104 h 0.992115 v -0.496104 h 0.992022 v 0.496104 h -0.495973 v 0.495918 z"
       fill="#000000"
       id="path2669"
       style="stroke-width:0.186016" /><path
       d="m 20.441234,31.727336 -1.204828,-3.256576 0.930454,-0.344152 0.516378,1.395673 1.395678,-0.516378 -0.516383,-1.39586 0.930454,-0.344106 1.204823,3.256576 -0.930449,0.344293 -0.516383,-1.395678 -1.395673,0.516382 0.516378,1.395674 z"
       fill="#000000"
       id="path2671"
       style="stroke-width:0.186016" /><path
       d="m 25.231509,29.656052 -1.560857,-1.927496 0.385438,-0.312115 -0.312301,-0.385624 0.385811,-0.312161 -0.312301,-0.385438 1.156457,-0.93659 0.312301,0.385438 0.385251,-0.312161 0.312301,0.385624 0.385625,-0.312301 1.560861,1.927683 -0.771039,0.62427 -0.624266,-0.771038 -1.156649,0.93659 0.624458,0.771034 z m -0.165562,-1.780915 1.156645,-0.936404 -0.62464,-0.771034 -0.385251,0.312115 -0.312347,-0.385438 -0.385438,0.312114 0.312161,0.385438 -0.385438,0.312301 z"
       fill="#000000"
       id="path2673"
       style="stroke-width:0.186016" /><path
       d="m 28.923181,26.235965 -0.415934,-0.270082 0.540192,-0.832046 -2.080028,-1.350849 -0.540378,0.832051 -0.415935,-0.270082 1.62094,-2.49633 0.416121,0.270268 -0.540374,0.832052 2.080028,1.350848 0.540378,-0.832051 0.416121,0.270082 z"
       fill="#000000"
       id="path2675"
       style="stroke-width:0.186016" /><path
       d="m 31.216383,22.098603 -3.36912,-0.840046 0.239958,-0.962632 0.481407,0.119979 0.11998,-0.481407 0.481225,0.119979 0.119979,-0.481225 0.481407,0.11998 0.119979,-0.48122 -1.444043,-0.360125 0.240145,-0.962688 3.369116,0.840103 -0.239959,0.962631 -0.962632,-0.239958 -0.119979,0.481225 -0.481407,-0.11998 -0.119979,0.481407 -0.481225,-0.119979 -0.119979,0.48122 1.925263,0.480109 z"
       fill="#000000"
       id="path2677"
       style="stroke-width:0.186016" /><path
       d="m 18.900464,6.4582113 c -0.0984,0.104428 -0.181533,0.194237 -0.244816,0.26345 -0.73171,-0.159723 -1.615288,-0.242387 -2.357731,-0.242387 -0.560969,0 -1.111183,0.04712 -1.646854,0.13768 -0.806061,-0.240986 -1.441008,-0.470469 -2.213644,-1.282466 -0.06081,-0.06394 -0.125817,-0.133336 -0.194377,-0.206566 -0.396179,-0.423127 -0.912538,-0.974574 -1.442848,-1.341247 -0.312861,-0.216327 -0.666849,-0.395245 -1.0362772,-0.429244 -0.391789,-0.03596 -0.766962,0.09453 -1.082056,0.429058 -0.556262,0.590546 -1.048177,1.76313 -1.334959,3.267201 -0.285681,1.498228 -0.377452,3.3745657 -0.102887,5.4499267 -0.488216,1.16578 -0.75777,2.445514 -0.75777,3.787334 0,2.004061 0.601204,3.868812 1.633143,5.422233 1.565008,3.33861 4.9563362,5.651903 8.8886542,5.651903 4.584993,0 8.434586,-3.144784 9.511434,-7.394498 0.597669,-1.0815 0.932308,-2.285912 0.932308,-3.555768 0,-2.584431 -1.382653,-4.884311 -3.536905,-6.4474177 -0.621104,-1.1924 -0.648635,-2.028799 -0.678581,-2.941132 -0.0056,-0.169811 -0.01121,-0.342285 -0.02102,-0.520138 -0.0098,-0.181533 -0.01448,-0.340136 -0.01915,-0.494152 -0.0035,-0.113208 -0.007,-0.223986 -0.01214,-0.339576 -0.01121,-0.2507 -0.03082,-0.498654 -0.08799,-0.714673 -0.05824,-0.22067 -0.163693,-0.439612 -0.369232,-0.597052 -0.204231,-0.156501 -0.460395,-0.216187 -0.747411,-0.216187 -0.186764,0 -0.375023,0.06613 -0.541677,0.146507 -0.172427,0.08313 -0.353446,0.197365 -0.533681,0.326405 -0.360312,0.258266 -0.746109,0.597202 -1.096006,0.928441 -0.351391,0.332663 -0.673561,0.664393 -0.907569,0.912407 z"
       fill="url(#paint2_linear_6646_26088)"
       stroke="#000000"
       stroke-width="0.688342"
       id="path2679"
       style="fill:url(#paint2_linear_6646_26088)" /><path
       fill-rule="evenodd"
       clip-rule="evenodd"
       d="m 7.1903588,18.88518 c 0.27195,0.956495 0.690527,1.851418 1.229883,2.658726 1.505612,3.234626 4.7848862,5.476861 8.5878842,5.476861 4.439266,0 8.164976,-3.055311 9.188807,-7.177793 0.584835,-1.044105 0.910918,-2.205027 0.910918,-3.428176 0,-1.224691 -0.326825,-2.387028 -0.91315,-3.432067 -0.363301,-0.122314 -0.676914,-0.122828 -0.924126,0.01448 -0.381701,0.212171 -0.563445,0.729478 -0.565117,1.469506 -9.29e-4,0.468517 -0.483826,0.838244 -0.932312,0.702675 -1.305458,-0.394591 -2.571293,-0.342424 -3.631029,0.246684 -0.266953,0.148421 -0.511358,0.325751 -0.73327,0.528918 -1.014977,0.929146 -3.314731,1.529084 -4.382981,0.661805 -2.064737,-1.676301 -4.279104,-2.294561 -5.8871962,-1.400493 -1.168885,0.649882 -1.818935,1.988415 -1.948311,3.678685 z"
       fill="#ffffff"
       id="path2681"
       style="stroke-width:0.186016" /><path
       fill-rule="evenodd"
       clip-rule="evenodd"
       d="m 16.37677,24.890515 c -2.998034,0.276247 -6.003476,-1.89755 -8.1044682,-3.681066 1.43035,3.41339 4.8030012,5.811318 8.7357122,5.811318 4.428959,0 8.147416,-3.040987 9.18148,-7.148959 l -0.197179,0.444376 c -0.199608,0.449421 -0.75913,0.605669 -1.162599,0.324958 -0.06137,0.328507 -0.193069,0.636731 -0.381515,0.91315 -0.528096,0.668354 -1.214682,1.103819 -2.06533,1.261375 -0.192695,0.03222 -0.391369,0.04932 -0.595067,0.04932 -0.560652,0 -1.086329,-0.128713 -1.53928,-0.353447 0.107883,0.357883 -0.873528,2.102907 -3.871749,2.378958 z"
       fill="#f7ecdf"
       id="path2683"
       style="stroke-width:0.186016" /><path
       d="m 9.5047488,10.135481 c -0.541658,-1.7736427 -0.403044,-3.9450767 1.9e-5,-5.1983587 0.7057442,2.362103 2.4151752,3.752405 2.4151752,3.752405 -0.712926,0.154773 -1.731456,0.754086 -2.4151942,1.4459537 z"
       fill="#000000"
       id="path2685"
       style="stroke-width:0.186016" /><path
       d="m 20.593952,16.409086 c 0.535909,-1.143231 3.68497,-1.347406 4.181448,0 0.27606,0.749495 -0.836515,2.454331 -1.577972,2.564082 -1.065126,0.157762 -3.195195,-1.301759 -2.603476,-2.564082 z"
       fill="#000000"
       id="path2687"
       style="stroke-width:0.186016" /><path
       opacity="0.5"
       d="m 17.417414,10.922814 c -0.42789,0.332337 -2.019645,0.360405 -2.179116,-0.12605 -0.15949,-0.486451 0.867167,-1.5334607 1.614896,-1.2024087 0.623449,0.27606 1.117358,0.8988127 0.56422,1.3284547 z"
       fill="#ffffff"
       id="path2689"
       style="stroke-width:0.186016" /><path
       opacity="0.5"
       d="m 22.39719,10.279998 c -0.296889,0.444984 -1.09452,0.395525 -1.41186,0 -0.317159,-0.3955717 -0.268214,-1.1468597 0.559162,-1.0856977 0.689748,0.051 1.052105,0.786604 0.852698,1.0856977 z"
       fill="#ffffff"
       id="path2691"
       style="stroke-width:0.186016" /><path
       d="m 20.083523,22.819973 c -0.177844,-0.158135 0.04484,-0.361245 0.261349,-0.262469 0.430459,0.196245 0.921519,0.307491 1.442923,0.307491 1.340059,0 2.480334,-0.734765 2.904078,-1.760828 0.0383,-0.0928 0.176723,-0.08351 0.176723,0.01681 0,1.341171 -1.249471,2.428247 -2.790796,2.428247 -0.781267,0 -1.487753,-0.279189 -1.994277,-0.729366 z"
       fill="#000000"
       id="path2693"
       style="stroke-width:0.186016" /><path
       fill-rule="evenodd"
       clip-rule="evenodd"
       d="m 28.475811,10.294896 -19.5873322,2.317034 0.111199,0.940196 2.9772382,-0.352185 0.111199,0.940182 0.940159,-0.111199 0.111246,0.940177 0.940401,-0.111246 -1.12e-4,3.7e-5 0.111199,0.940201 3.133996,-0.370726 -0.111199,-0.940201 -1.31e-4,-1.9e-5 0.940252,-0.111199 -0.111199,-0.940196 0.940158,-0.111246 -0.111246,-0.940158 9.715418,-1.149261 z m -7.723747,1.867021 6.894863,-0.815584 0.111246,0.940196 -6.894864,0.815588 z m 6.065791,0.235849 -5.014429,0.593148 0.111246,0.940195 0.940681,-0.111245 -3.69e-4,9.3e-5 0.111246,0.940196 3.133991,-0.370726 -0.111246,-0.940201 -3.69e-4,-1.9e-5 0.940495,-0.111245 z"
       fill="#000000"
       id="path2695"
       style="stroke-width:0.186016" /><path
       d="m 25.766493,11.568713 0.940308,-0.111199 0.111246,0.9402 -0.940308,0.111199 z"
       fill="#ffffff"
       id="path2697"
       style="stroke-width:0.186016" /><path
       d="m 24.937422,12.620131 0.940308,-0.111199 0.111245,0.940196 -0.940308,0.111199 z"
       fill="#ffffff"
       id="path2699"
       style="stroke-width:0.186016" /><path
       d="m 16.991476,12.606331 0.940201,-0.1112 0.111199,0.940196 -0.940201,0.1112 z"
       fill="#ffffff"
       id="path2701"
       style="stroke-width:0.186016" /><path
       d="m 16.162778,13.657394 0.940196,-0.111199 0.1112,0.940196 -0.940196,0.111199 z"
       fill="#ffffff"
       id="path2703"
       style="stroke-width:0.186016" /><path
       d="m 21.504869,21.332403 c 1.898662,0.762478 3.016992,-0.704814 2.919145,-1.254673 l -1.318292,0.150663 z"
       fill="#000000"
       id="path2707"
       style="stroke-width:0.186016" /></g></svg>
