<?xml version="1.0" encoding="UTF-8" standalone="no"?>
<svg
   width="128"
   height="128"
   viewBox="0 0 128 128"
   fill="none"
   version="1.1"
   id="svg7880"
   sodipodi:docname="nrg.svg"
   xml:space="preserve"
   inkscape:export-filename="..\Mainnet_128x128\chains\energi.png"
   inkscape:export-xdpi="96"
   inkscape:export-ydpi="96"
   xmlns:inkscape="http://www.inkscape.org/namespaces/inkscape"
   xmlns:sodipodi="http://sodipodi.sourceforge.net/DTD/sodipodi-0.dtd"
   xmlns:xlink="http://www.w3.org/1999/xlink"
   xmlns="http://www.w3.org/2000/svg"
   xmlns:svg="http://www.w3.org/2000/svg"><sodipodi:namedview
     id="namedview7882"
     pagecolor="#ffffff"
     bordercolor="#000000"
     borderopacity="0.25"
     inkscape:showpageshadow="2"
     inkscape:pageopacity="0.0"
     inkscape:pagecheckerboard="0"
     inkscape:deskcolor="#d1d1d1"
     showgrid="false"
     inkscape:lockguides="false" /><path
     d="M 64,128 C 99.34624,128 128,99.34624 128,64 128,28.65376 99.34624,0 64,0 28.65376,0 0,28.65376 0,64 c 0,35.34624 28.65376,64 64,64 z"
     fill="url(#paint0_linear)"
     id="path7865"
     style="fill:url(#paint0_linear);stroke-width:1.06667" /><path
     d="M 64,125.86667 C 98.168,125.86667 125.86667,98.168 125.86667,64 125.86667,29.832 98.168,2.1333333 64,2.1333333 29.832,2.1333333 2.1333333,29.832 2.1333333,64 2.1333333,98.168 29.832,125.86667 64,125.86667 Z"
     stroke="#000000"
     stroke-opacity="0.097"
     id="path7869"
     style="fill:#273238;fill-opacity:1;stroke-width:1.06667" /><path
     d="M 64.013973,20.266667 90.66656,47.277013 64.00192,74.27104 53.334507,63.4736 69.334613,47.277013 64.00192,41.877013 42.667093,63.4736 64.00192,85.07008 96.00117,52.674453 106.66667,63.4736 64.001813,106.66667 21.333333,63.4736 Z"
     fill="#212121"
     id="path7867"
     style="fill:url(#linearGradient11453);fill-opacity:1;stroke-width:1.06667" /><defs
     id="defs7878"><linearGradient
       inkscape:collect="always"
       id="linearGradient11451"><stop
         style="stop-color:#01e46f;stop-opacity:1;"
         offset="0"
         id="stop11447" /><stop
         style="stop-color:#01e166;stop-opacity:1;"
         offset="0.5"
         id="stop11455" /><stop
         style="stop-color:#01d74a;stop-opacity:1;"
         offset="1"
         id="stop11449" /></linearGradient><linearGradient
       id="paint0_linear"
       x1="64"
       y1="0"
       x2="64"
       y2="120"
       gradientUnits="userSpaceOnUse"
       gradientTransform="matrix(1.0666667,0,0,1.0666667,-4.2666667,0)"><stop
         stop-color="#01E46F"
         id="stop7871" /><stop
         offset="0.473745"
         stop-color="#01DE5D"
         id="stop7873" /><stop
         offset="1"
         stop-color="#01D74A"
         id="stop7875" /></linearGradient><linearGradient
       inkscape:collect="always"
       xlink:href="#linearGradient11451"
       id="linearGradient11453"
       x1="64.178658"
       y1="100.15509"
       x2="63.980148"
       y2="18.844913"
       gradientUnits="userSpaceOnUse"
       gradientTransform="matrix(1.0666667,0,0,1.0666667,-4.2666667,0)" /></defs></svg>
