<?xml version="1.0" encoding="UTF-8" standalone="no"?>
<svg
   width="128"
   height="128"
   viewBox="0 0 128 128"
   fill="none"
   version="1.1"
   id="svg6"
   sodipodi:docname="conflux.svg"
   inkscape:export-filename="..\Mainnet_128x128\chains\ethereumfair.png"
   inkscape:export-xdpi="96"
   inkscape:export-ydpi="96"
   xmlns:inkscape="http://www.inkscape.org/namespaces/inkscape"
   xmlns:sodipodi="http://sodipodi.sourceforge.net/DTD/sodipodi-0.dtd"
   xmlns="http://www.w3.org/2000/svg"
   xmlns:svg="http://www.w3.org/2000/svg">
  <defs
     id="defs10" />
  <sodipodi:namedview
     id="namedview8"
     pagecolor="#ffffff"
     bordercolor="#000000"
     borderopacity="0.25"
     inkscape:showpageshadow="2"
     inkscape:pageopacity="0.0"
     inkscape:pagecheckerboard="0"
     inkscape:deskcolor="#d1d1d1"
     showgrid="false" />
  <circle
     cx="64"
     cy="64"
     r="64"
     fill="#000"
     id="circle2"
     style="fill:#270000;fill-opacity:1" />
  <path
     d="M 62.742586,94.074973 51.122965,87.606164 62.742586,104.34545 Z"
     fill="#b9a6ff"
     id="path1819"
     style="stroke-width:0.865392" />
  <path
     d="M 82.793722,69.45716 64.000866,80.432063 c -0.06144,0 -18.792856,-10.975769 -18.792856,-10.975769 L 33.313193,74.821726 63.970576,91.928798 94.62796,74.821726 82.793722,69.456294 Z"
     fill="#957bd9"
     id="path1821"
     style="stroke-width:0.865392" />
  <path
     d="M 65.22626,104.34545 76.845882,87.606164 65.22626,94.074973 Z"
     fill="#6481f8"
     id="path1823"
     style="stroke-width:0.865392" />
  <path
     d="M 65.22626,119 93.369679,78.408776 81.811502,84.847294 65.225396,108.75981 V 119 Z"
     fill="#7da2f5"
     id="path1825"
     style="stroke-width:0.865392" />
  <path
     d="m 65.22626,24.236958 v 52.73094 L 90.795137,61.792381 Z"
     fill="#6481f8"
     id="path1827"
     style="stroke-width:0.865392" />
  <path
     d="M 34.63032,78.408776 62.743451,119 V 108.75981 L 46.188499,84.847294 Z"
     fill="#cab7ff"
     id="path1829"
     style="stroke-width:0.865392" />
  <path
     d="M 62.743451,24.236958 37.174573,61.792381 62.743451,76.967898 Z"
     fill="#b9a6ff"
     id="path1831"
     style="stroke-width:0.865392" />
  <path
     d="M 65.22626,19.791438 92.940444,60.504678 98.182991,57.408305 65.22626,8.9999985 Z"
     fill="#7da2f5"
     id="path1833"
     style="stroke-width:0.865392" />
  <path
     d="M 62.743451,8.9999985 29.817009,57.408305 35.029267,60.504678 62.743451,19.791438 Z"
     fill="#cab7ff"
     id="path1835"
     style="stroke-width:0.865392" />
</svg>
