<?xml version="1.0" encoding="UTF-8" standalone="no"?>
<!-- Created with Inkscape (http://www.inkscape.org/) -->

<svg
   width="127.99999"
   height="127.99999"
   viewBox="0 0 33.866664 33.866664"
   version="1.1"
   id="svg474"
   xml:space="preserve"
   inkscape:export-filename="ethereumclassic.png"
   inkscape:export-xdpi="96"
   inkscape:export-ydpi="96"
   sodipodi:docname="syscoin.svg"
   xmlns:inkscape="http://www.inkscape.org/namespaces/inkscape"
   xmlns:sodipodi="http://sodipodi.sourceforge.net/DTD/sodipodi-0.dtd"
   xmlns="http://www.w3.org/2000/svg"
   xmlns:svg="http://www.w3.org/2000/svg"><sodipodi:namedview
     id="namedview476"
     pagecolor="#ffffff"
     bordercolor="#000000"
     borderopacity="0.25"
     inkscape:showpageshadow="2"
     inkscape:pageopacity="0.0"
     inkscape:pagecheckerboard="0"
     inkscape:deskcolor="#d1d1d1"
     inkscape:document-units="mm"
     showgrid="false" /><defs
     id="defs471" /><g
     inkscape:label="Layer 1"
     inkscape:groupmode="layer"
     id="layer1"><circle
       style="fill:#000000;fill-opacity:1;stroke-width:0;stroke-linejoin:bevel;paint-order:stroke fill markers"
       id="path647"
       cx="16.933332"
       cy="16.933332"
       r="16.933332" /><g
       id="Layer_2"
       data-name="Layer 2"
       transform="matrix(0.01058672,0,0,0.01058672,8.7656778,3.704167)"><g
         id="svg8"><g
           id="layer5"><g
             id="g1627"><path
               id="path1599"
               class="cls-1"
               d="m 0,1361.05 c 271.87,144.38 555.56,295.51 774.67,412.45 L 1543,1361.05 C 1264.8,1774.34 1033,2118.41 774.67,2499.2 515.88,2119.25 230.08,1700 0,1361.05 Z m 29.55,-114 L 775.51,849 1511.76,1244.14 775.93,1642.63 Z M 774.67,721.47 0,1129.28 771.29,0 1543,1131.81 Z"
               style="fill:#3ab83a" /><path
               id="path1593"
               class="cls-2"
               d="M 774.67,1773.5 1543,1361.05 C 1264.8,1774.34 774.67,2499.2 774.67,2499.2 Z m 0.84,-924.5 736.25,395.14 -735.83,398.49 z M 774.67,721.5 771.29,0 1543,1131.81 Z"
               style="fill:#0b8311" /><path
               id="path1603"
               class="cls-2"
               d="m 29.55,1247.06 746,61.22 736.25,-63.75 -735.87,398.52 z"
               style="fill:#0b8311" /><path
               id="path1606"
               class="cls-3"
               d="m 775.51,1308.28 736.25,-63.75 -735.83,398.52 z"
               style="fill:#146714" /></g></g></g></g></g></svg>
