<?xml version="1.0" encoding="UTF-8" standalone="no"?>
<svg
   width="128"
   height="128"
   viewBox="0 0 128 128"
   fill="none"
   version="1.1"
   id="svg8"
   sodipodi:docname="godwoken.svg"
   inkscape:export-filename="..\Mainnet_128x128\chains\godwoken.png"
   inkscape:export-xdpi="96"
   inkscape:export-ydpi="96"
   xmlns:inkscape="http://www.inkscape.org/namespaces/inkscape"
   xmlns:sodipodi="http://sodipodi.sourceforge.net/DTD/sodipodi-0.dtd"
   xmlns="http://www.w3.org/2000/svg"
   xmlns:svg="http://www.w3.org/2000/svg">
  <defs
     id="defs12" />
  <sodipodi:namedview
     id="namedview10"
     pagecolor="#ffffff"
     bordercolor="#000000"
     borderopacity="0.25"
     inkscape:showpageshadow="2"
     inkscape:pageopacity="0.0"
     inkscape:pagecheckerboard="0"
     inkscape:deskcolor="#d1d1d1"
     showgrid="false" />
  <circle
     style="fill:#ffffff;fill-opacity:1;stroke-width:0;stroke-linejoin:bevel;paint-order:stroke fill markers"
     id="path347"
     cx="64"
     cy="64"
     r="64" />
  <path
     d="M 55.226757,21.886624 C 34.390399,21.886624 17.5,38.777023 17.5,59.613382 V 106.11338 H 72.773969 C 93.609601,106.11338 110.5,89.222256 110.5,68.386624 v -46.5 z"
     fill="#000000"
     id="path2"
     style="stroke-width:0.726562" />
  <path
     d="m 57.561204,31.350827 c -16.534385,0 -29.943096,13.381102 -29.989596,29.904585 h -0.0015 V 80.192538 H 37.852474 V 61.341148 A 19.71164,19.71164 0 0 1 57.560517,41.63314 H 100.40446 V 31.350827 Z"
     fill="#00cc9b"
     id="path4"
     style="stroke-width:0.726562" />
  <path
     d="M 100.40514,47.800202 H 57.561204 c -7.317212,0 -13.275023,5.805961 -13.526416,13.061415 l -0.01162,-0.0022 v 19.365029 h 26.701899 c 0.765796,0 1.147242,-0.929273 0.601593,-1.466929 l -6.247715,-6.160508 -4.604226,-4.540288 -3.941601,-4.14722 c -0.462094,-0.467906 -1.542493,-1.371023 -1.542493,-2.570579 a 2.5720313,2.5720313 0 0 1 2.570579,-2.570577 h 32.560897 v 7.883201 A 19.71164,19.71164 0 0 1 70.414094,86.359601 H 27.570882 V 96.641914 H 70.41482 c 16.53511,0 29.94381,-13.381102 29.99032,-29.904586 h 7.3e-4 V 47.800202 Z"
     fill="#fefefe"
     id="path6"
     style="stroke-width:0.726562" />
</svg>
