<?xml version="1.0" encoding="UTF-8" standalone="no"?>
<svg
   width="128"
   height="128"
   viewBox="0 0 128 128"
   fill="none"
   version="1.1"
   id="svg6"
   sodipodi:docname="conflux.svg"
   inkscape:export-filename="..\Mainnet_128x128\chains\kardiachain.png"
   inkscape:export-xdpi="96"
   inkscape:export-ydpi="96"
   xmlns:inkscape="http://www.inkscape.org/namespaces/inkscape"
   xmlns:sodipodi="http://sodipodi.sourceforge.net/DTD/sodipodi-0.dtd"
   xmlns="http://www.w3.org/2000/svg"
   xmlns:svg="http://www.w3.org/2000/svg">
  <defs
     id="defs10" />
  <sodipodi:namedview
     id="namedview8"
     pagecolor="#ffffff"
     bordercolor="#000000"
     borderopacity="0.25"
     inkscape:showpageshadow="2"
     inkscape:pageopacity="0.0"
     inkscape:pagecheckerboard="0"
     inkscape:deskcolor="#d1d1d1"
     showgrid="false" />
  <circle
     cx="64"
     cy="64"
     r="64"
     fill="#000000"
     id="circle2" />
  <path
     d="m 55.999728,38.726649 1.923701,19.011512 7.121387,-21.671888 z"
     fill="#c9ced6"
     id="path1217"
     style="stroke-width:2.93158" />
  <path
     d="m 44.291303,26.958067 11.705494,11.766998 9.045381,-2.660347 z"
     fill="#e1e4e8"
     id="path1219"
     style="stroke-width:2.93158" />
  <path
     d="M 53.438996,56.406345 57.920498,57.736401 55.996797,38.725065 44.291303,26.958067 Z"
     fill="#f1f2f4"
     id="path1221"
     style="stroke-width:2.93158" />
  <path
     d="M 34.716626,28.943466 45.378566,64.592481 34.49151,83.194513 19.000002,48.179958 Z"
     fill="#c9ced6"
     id="path1223"
     style="stroke-width:2.93158" />
  <path
     d="M 76.116799,35.246076 86.492229,51.22874 67.603496,60.478599 Z"
     fill="#f1f2f4"
     id="path1225"
     style="stroke-width:2.93158" />
  <path
     d="M 98.157859,29.557552 86.493109,51.229298 76.117679,35.246633 Z"
     fill="#f7f8f9"
     id="path1227"
     style="stroke-width:2.93158" />
  <path
     d="M 108.93873,53.357592 86.489299,51.229298 98.154049,29.557552 Z"
     fill="#e1e4e8"
     id="path1229"
     style="stroke-width:2.93158" />
  <path
     d="M 96.496239,70.321369 C 96.046238,69.523099 86.489299,51.228037 86.489299,51.228037 L 109,53.274483 Z"
     fill="#c9ced6"
     id="path1231"
     style="stroke-width:2.93158" />
  <path
     d="M 67.603496,60.478012 96.499469,70.321369 86.492229,51.228037 Z"
     fill="#e1e4e8"
     id="path1233"
     style="stroke-width:2.93158" />
  <path
     d="M 55.629763,66.45286 70.302599,107.1153 89.559539,78.383503 Z"
     fill="#a83c3b"
     id="path1235"
     style="stroke-width:2.93158" />
  <path
     d="M 60.010712,109.04193 34.491686,83.195392 45.378742,64.59336 Z"
     fill="#c73c38"
     id="path1237"
     style="stroke-width:2.93158" />
  <path
     d="M 68.542774,78.936103 70.302599,107.1153 55.629763,66.45286 Z"
     fill="#f1f2f4"
     id="path1239"
     style="stroke-width:2.93158" />
  <path
     d="M 89.559539,78.383503 68.542774,78.936103 55.629763,66.45286 Z"
     fill="#e1e4e8"
     id="path1241"
     style="stroke-width:2.93158" />
  <path
     d="M 70.304651,107.11705 68.544826,78.937862 89.561599,78.385252 Z"
     fill="#c9ced6"
     id="path1243"
     style="stroke-width:2.93158" />
  <path
     d="M 19.000002,48.179958 45.378566,64.592481 34.716626,28.943466 Z"
     fill="#e1e4e8"
     id="path1245"
     style="stroke-width:2.93158" />
  <path
     d="m 45.378742,64.59336 -10.887056,18.602032 18.192722,3.58121 z"
     fill="#db4545"
     id="path1247"
     style="stroke-width:2.93158" />
  <path
     d="M 60.010712,109.04193 34.491686,83.195392 45.378742,64.59336 Z"
     fill="#c9ced6"
     id="path1249"
     style="stroke-width:2.93158" />
  <path
     d="m 45.378742,64.59336 -10.887056,18.602032 18.192722,3.58121 z"
     fill="#e1e4e8"
     id="path1251"
     style="stroke-width:2.93158" />
</svg>
