<?xml version="1.0" encoding="UTF-8" standalone="no"?>
<svg
   width="128"
   height="128"
   viewBox="0 0 128 128"
   fill="none"
   version="1.1"
   id="svg6"
   sodipodi:docname="conflux.svg"
   inkscape:export-filename="..\Mainnet_128x128\chains\kcc.png"
   inkscape:export-xdpi="96"
   inkscape:export-ydpi="96"
   xml:space="preserve"
   xmlns:inkscape="http://www.inkscape.org/namespaces/inkscape"
   xmlns:sodipodi="http://sodipodi.sourceforge.net/DTD/sodipodi-0.dtd"
   xmlns="http://www.w3.org/2000/svg"
   xmlns:svg="http://www.w3.org/2000/svg"><defs
     id="defs10" /><sodipodi:namedview
     id="namedview8"
     pagecolor="#ffffff"
     bordercolor="#000000"
     borderopacity="0.25"
     inkscape:showpageshadow="2"
     inkscape:pageopacity="0.0"
     inkscape:pagecheckerboard="0"
     inkscape:deskcolor="#d1d1d1"
     showgrid="false" /><circle
     cx="64"
     cy="64"
     r="64"
     fill="#000"
     id="circle2"
     style="fill:#12192c;fill-opacity:1" /><path
     d="m 113.92891,57.059773 -2.83282,-4.745312 -15.509372,-26.0625 h -0.07109 L 95.019533,25.330867 H 89.353909 L 67.32891,64.070711 89.708597,102.59806 h 5.665623 l 0.141404,-0.2125 L 114,70.728522 H 102.59765 L 92.753906,88.221492 78.731251,64.000398 92.470312,39.779304 102.45625,56.988679 Z M 27.739063,50.756648 38.078905,33.122273 34.608593,27.527741 32.200781,23.562117 14.496093,54.793368 14,55.643366 l 2.832812,4.957813 h 44.546877 l 22.45,-38.456249 -3.115626,-5.382813 -31.161718,0.07109 h -0.496094 l -4.957033,-0.07109 2.620314,4.957813 2.620313,4.957812 20.396875,-0.07109 -14.022656,24.15 z M 49.764845,30.359773 c -0.778906,0 -1.628906,0.141407 -2.478906,0.425 -0.920312,0.283594 -1.841407,0.707812 -2.691407,1.203907 -2.407814,1.487501 -4.107814,3.611718 -4.390627,5.59453 -0.141405,0.920313 0.07109,1.700001 0.566407,2.266408 0.07109,0.141406 0.2125,0.2125 0.283593,0.353906 0.07109,0.07109 0.141407,0.07109 0.2125,0.141406 l 0.141407,0.141406 c 0.141406,0.07109 0.2125,0.141405 0.353906,0.2125 1.4875,0.708594 3.824221,0.566406 6.090627,-0.496095 l 0.07109,-0.07109 c 0.2125,-0.07109 0.425,-0.2125 0.6375,-0.283594 0.2125,-0.07109 0.353906,-0.2125 0.566406,-0.353906 l 0.6375,-0.425 c 0.2125,-0.141406 0.353907,-0.283593 0.566406,-0.425 l 0.141406,-0.07109 c 0.141407,-0.141407 0.283594,-0.2125 0.425,-0.353907 l 0.141407,-0.141406 c 0.141406,-0.07109 0.2125,-0.2125 0.283593,-0.283594 a 0.97656245,0.97656245 0 0 0 0.2125,-0.283593 c 0.07109,-0.142188 0.212501,-0.2125 0.283594,-0.353907 l 0.141406,-0.141406 c 0.07109,-0.141406 0.2125,-0.2125 0.283594,-0.353906 l 0.141406,-0.141407 c 0.07109,-0.141405 0.141407,-0.2125 0.2125,-0.353905 v -0.07109 l 0.07109,-0.141407 c 0.141406,-0.141406 0.2125,-0.353906 0.283594,-0.496093 0.07109,-0.142188 0.141406,-0.353906 0.2125,-0.496095 l 0.07109,-0.07109 c 0,-0.07109 0.07109,-0.141406 0.07109,-0.141406 0,-0.07109 0,-0.07109 0.07109,-0.141405 0,-0.141407 0.07109,-0.2125 0.07109,-0.353907 0,-0.141406 0.07109,-0.141406 0.07109,-0.2125 v -0.141406 -0.283594 -0.141406 -0.353906 -0.141407 -0.141406 -0.141407 -0.07109 c 0,-0.141407 -0.07109,-0.2125 -0.141406,-0.353907 -0.07031,-0.141406 -0.141406,-0.2125 -0.2125,-0.353906 -0.496094,-1.0625 -1.841406,-1.557812 -3.399219,-1.557812 z m 5.170313,5.170312 c 0,0.141406 -0.07109,0.2125 -0.141407,0.353906 0,0.07109 0,0.07109 -0.07109,0.141407 -0.07109,0.2125 -0.141407,0.353906 -0.283594,0.566406 -0.778906,1.487501 -2.053906,2.903906 -3.611719,4.036719 l -0.6375,0.425 c -0.212501,0.141406 -0.425,0.283594 -0.637501,0.353906 h -0.07109 c -0.07109,0.07109 -0.141406,0.07109 -0.2125,0.141406 -0.141406,0.07109 -0.212501,0.141406 -0.353907,0.2125 h -0.07109 c -0.07109,0 -0.141407,0.07109 -0.212501,0.07109 -0.141406,0.07109 -0.283594,0.141406 -0.424999,0.141406 l -0.141407,0.07109 h -0.07109 c -0.07109,0 -0.141407,0.07109 -0.2125,0.07109 -0.141407,0.07109 -0.283594,0.07109 -0.425,0.141406 l -0.141407,0.07109 h -0.07109 c -0.141406,0.07109 -0.283593,0.07109 -0.425,0.141406 -0.07109,0 -0.141406,0.07109 -0.283593,0.07109 h -0.07109 c -0.141407,0 -0.283594,0.07109 -0.353907,0.07109 -0.07031,0 -0.2125,0 -0.283593,0.07109 h -0.07109 c -0.07109,0 -0.141406,0 -0.2125,0.07109 h -0.2125 c -0.2125,0 -0.496094,0.07109 -0.708594,0.07109 H 44.450809 43.813307 43.6719 43.60081 c -0.141406,0 -0.283593,0 -0.425,-0.07109 -0.07109,0 -0.141406,0 -0.2125,-0.07109 -0.141406,0 -0.283593,-0.07109 -0.425,-0.07109 -0.07109,0 -0.141406,-0.07109 -0.2125,-0.07109 l 3.895315,6.303124 8.357032,-0.07109 4.320311,-7.648437 -3.895311,-6.374219 c 0,0.07109 0,0.141407 -0.07109,0.2125 v 0.141407 c 0,0.07109 -0.07109,0.141406 -0.07109,0.283593 a 0.21875,0.21875 0 0 1 0.07109,0.141406 z m 44.404687,23.016406 c 0.425,0.637501 0.708595,1.416408 0.921095,2.3375 0.2125,0.921094 0.35391,1.9125 0.35391,2.903907 0,2.832811 -0.921105,5.38203 -2.478914,6.657031 -0.708591,0.566406 -1.487499,0.85 -2.266406,0.708593 -0.141406,0 -0.282812,-0.07109 -0.425,-0.07109 -0.07031,0 -0.141406,-0.07109 -0.2125,-0.07109 -0.07109,0 -0.141406,-0.07109 -0.2125,-0.07109 -0.141406,-0.07109 -0.282812,-0.141406 -0.353906,-0.2125 -1.416406,-0.920312 -2.478906,-2.974219 -2.761717,-5.453125 v -0.07109 c 0,-0.2125 -0.07109,-0.425 -0.07109,-0.708594 v -0.6375 -0.778906 c 0,-0.2125 0,-0.425 0.07109,-0.6375 v -0.141406 c 0,-0.141406 0.07109,-0.353906 0.07109,-0.495312 v -0.2125 c 0,-0.141407 0.07109,-0.283594 0.07109,-0.425 0,-0.141407 0.07109,-0.2125 0.07109,-0.353907 0.07031,-0.141406 0.07031,-0.283593 0.141405,-0.424999 0,-0.07109 0.07109,-0.141407 0.07109,-0.2125 0.07031,-0.141407 0.07031,-0.283594 0.141406,-0.425 l 0.07031,-0.2125 c 0.07109,-0.141407 0.142188,-0.2125 0.142188,-0.353907 v -0.07109 l 0.07031,-0.141406 c 0.07109,-0.2125 0.2125,-0.353906 0.283593,-0.496094 0.07109,-0.142187 0.2125,-0.283593 0.283594,-0.425 l 0.07031,-0.07109 0.142187,-0.141406 c 0.07031,-0.07109 0.07031,-0.07109 0.07031,-0.141406 l 0.2125,-0.2125 0.142188,-0.141407 0.141406,-0.141406 0.2125,-0.2125 0.141406,-0.07109 c 0.07109,-0.07109 0.2125,-0.141406 0.283594,-0.2125 0.07031,0 0.07031,0 0.141406,-0.07109 0.07109,0 0.141407,-0.07109 0.141407,-0.07109 0,0 0.07109,0 0.07109,-0.07109 h 0.07109 c 0.141406,0 0.2125,-0.07109 0.353906,-0.07109 h 0.425 c 1.486716,-0.07109 2.549216,0.778906 3.399216,2.125 z m -7.152346,-1.699218 c -0.07109,0.07109 -0.142186,0.2125 -0.212498,0.283594 0,0.07109 -0.07109,0.07109 -0.07109,0.141406 -0.141405,0.141406 -0.212499,0.353906 -0.353905,0.496094 -0.920313,1.416406 -1.416406,3.257812 -1.557813,5.170312 v 0.778907 0.707812 0.07109 0.283594 c 0,0.141406 0,0.283594 0.07109,0.425 v 0.07109 0.2125 c 0,0.141406 0.07109,0.283594 0.07109,0.425 v 0.141406 0.07109 c 0,0.07109 0,0.141407 0.07109,0.2125 0,0.141407 0.07109,0.283594 0.07109,0.425 l 0.07109,0.141407 v 0.07109 c 0,0.141407 0.07109,0.283594 0.141406,0.425 0,0.07109 0.07109,0.141407 0.07109,0.2125 v 0.07109 c 0.07109,0.141407 0.07109,0.2125 0.141406,0.353907 0,0.07109 0.07109,0.141406 0.141407,0.283593 v 0.07109 c 0,0.07109 0.07109,0.141407 0.07109,0.2125 a 0.21875,0.21875 0 0 1 0.07109,0.141407 c 0.07109,0.2125 0.2125,0.425 0.353907,0.6375 l 0.07109,0.07109 c 0.141406,0.2125 0.2125,0.353906 0.353906,0.496093 0,0.07109 0.07109,0.07109 0.07109,0.141407 l 0.07109,0.07109 c 0.07109,0.141407 0.2125,0.2125 0.283592,0.353907 0.07031,0.07109 0.07031,0.141406 0.141406,0.141406 0.141406,0.141407 0.2125,0.2125 0.282813,0.353907 0.07109,0.07109 0.142187,0.07109 0.142187,0.141406 h -7.436717 l -4.320313,-7.153125 4.249219,-7.648438 h 7.435936 l -0.141407,0.141407 -0.07109,0.07109 -0.282811,0.283593 v 0 z M 49.764844,97.569149 c -0.778906,0 -1.628906,-0.141409 -2.478906,-0.424218 -0.920312,-0.2836 -1.841406,-0.708596 -2.691406,-1.20469 -2.407815,-1.486718 -4.107815,-3.611718 -4.390627,-5.594529 -0.141405,-0.920314 0.07109,-1.700001 0.566406,-2.266407 0.07109,-0.141407 0.2125,-0.2125 0.283594,-0.353907 0.07109,-0.07109 0.141406,-0.07109 0.2125,-0.141405 l 0.141406,-0.141407 c 0.141406,-0.07109 0.212501,-0.141405 0.353906,-0.2125 1.4875,-0.708594 3.824222,-0.566406 6.090627,0.496095 l 0.07109,0.07109 c 0.2125,0.07109 0.425,0.2125 0.6375,0.283594 0.212501,0.07109 0.353906,0.2125 0.566406,0.353906 l 0.6375,0.425001 c 0.2125,0.141405 0.353907,0.283593 0.566407,0.425 l 0.141406,0.07109 c 0.141407,0.141406 0.283594,0.2125 0.425,0.353906 l 0.141407,0.141406 c 0.141406,0.07109 0.2125,0.2125 0.283593,0.283594 a 0.97656245,0.97656245 0 0 1 0.2125,0.283594 c 0.07109,0.142188 0.2125,0.2125 0.283594,0.353906 l 0.141406,0.141406 c 0.07109,0.141406 0.2125,0.2125 0.283594,0.353906 l 0.141406,0.141406 c 0.07109,0.141407 0.141407,0.2125 0.2125,0.353907 v 0.07109 l 0.07109,0.141406 c 0.141406,0.141406 0.2125,0.353905 0.283594,0.496093 0.07109,0.142188 0.141406,0.353906 0.2125,0.495312 l 0.07109,0.07109 c 0,0.07031 0.07109,0.141407 0.07109,0.141407 0,0.07109 0,0.07109 0.07109,0.141406 0,0.142187 0.07109,0.2125 0.07109,0.354687 0,0.142188 0.07109,0.141407 0.07109,0.2125 v 0.141407 0.282812 0.142188 0.353906 0.141406 0.142188 0.141406 0.07109 c 0,0.141406 -0.07109,0.2125 -0.141406,0.353906 -0.07031,0.141407 -0.141406,0.2125 -0.2125,0.353907 -0.496094,1.062499 -1.841406,1.628908 -3.399219,1.557808 z m 5.170313,-5.169532 c 0,-0.141407 -0.07109,-0.212501 -0.141406,-0.353905 0,-0.07109 0,-0.07109 -0.07109,-0.142187 -0.07109,-0.212501 -0.141407,-0.353907 -0.283594,-0.566408 -0.778906,-1.4875 -2.053906,-2.903906 -3.611719,-4.036719 l -0.6375,-0.425 c -0.2125,-0.141406 -0.425,-0.283593 -0.6375,-0.353906 h -0.07109 c -0.07109,-0.07109 -0.141406,-0.07109 -0.2125,-0.141406 -0.141406,-0.07109 -0.2125,-0.141406 -0.353906,-0.2125 h -0.07109 c -0.07109,0 -0.141407,-0.07109 -0.2125,-0.07109 -0.141407,-0.07109 -0.283594,-0.141408 -0.425,-0.141408 l -0.141407,-0.07109 h -0.07109 c -0.07109,0 -0.141406,-0.07109 -0.2125,-0.07109 -0.141406,-0.07109 -0.283593,-0.07109 -0.424999,-0.141406 l -0.141407,-0.07109 h -0.07109 c -0.141406,-0.07109 -0.283593,-0.07109 -0.425,-0.141406 -0.07109,0 -0.141406,-0.07109 -0.283593,-0.07109 h -0.07109 c -0.141407,0 -0.283594,-0.07109 -0.353907,-0.07109 -0.07031,0 -0.2125,0 -0.283593,-0.07109 h -0.07109 c -0.07109,0 -0.141407,0 -0.2125,-0.07109 h -0.2125 c -0.212501,0 -0.496095,-0.07109 -0.708594,-0.07109 h -0.07109 -0.637502 -0.141407 -0.07109 c -0.141406,0 -0.283593,0 -0.425,0.07109 -0.07109,0 -0.141406,0 -0.2125,0.07109 -0.141406,0 -0.283593,0.07109 -0.425,0.07109 -0.07109,0 -0.141406,0.07109 -0.2125,0.07109 l 3.895315,-6.303125 8.357032,0.07109 4.320311,7.648438 -3.895311,6.374218 c 0,-0.07109 0,-0.141407 -0.07109,-0.2125 V 92.82463 c 0,-0.07109 -0.07109,-0.142187 -0.07109,-0.283593 0.07109,-0.07031 0.07109,-0.141407 0.07109,-0.141407 z m 14.801563,8.923443 -20.396876,-0.0711 -3.116406,5.87811 -2.125002,4.0375 5.453127,-0.0711 v 0.0711 l 31.161718,0.0703 3.116407,-5.38204 L 61.378907,67.399637 16.832031,67.328547 14,72.28636 l 0.566406,0.920313 h -0.07031 L 32.201562,104.36837 38.079686,94.80743 27.739843,77.243368 h 27.97422 z"
     id="path2957"
     style="fill:#40e5ae;fill-opacity:1;stroke-width:0.78125" /></svg>
