<?xml version="1.0" encoding="UTF-8" standalone="no"?>
<!-- Created with Inkscape (http://www.inkscape.org/) -->

<svg
   width="127.99999"
   height="127.99999"
   viewBox="0 0 33.866664 33.866664"
   version="1.1"
   id="svg474"
   xml:space="preserve"
   inkscape:export-filename="meter.png"
   inkscape:export-xdpi="96"
   inkscape:export-ydpi="96"
   xmlns:inkscape="http://www.inkscape.org/namespaces/inkscape"
   xmlns:sodipodi="http://sodipodi.sourceforge.net/DTD/sodipodi-0.dtd"
   xmlns="http://www.w3.org/2000/svg"
   xmlns:svg="http://www.w3.org/2000/svg"><sodipodi:namedview
     id="namedview476"
     pagecolor="#ffffff"
     bordercolor="#000000"
     borderopacity="0.25"
     inkscape:showpageshadow="2"
     inkscape:pageopacity="0.0"
     inkscape:pagecheckerboard="0"
     inkscape:deskcolor="#d1d1d1"
     inkscape:document-units="mm"
     showgrid="false" /><defs
     id="defs471" /><g
     inkscape:label="Layer 1"
     inkscape:groupmode="layer"
     id="layer1"><circle
       style="fill:#ffffff;fill-opacity:1;stroke-width:0;stroke-linejoin:bevel;paint-order:stroke fill markers"
       id="path647"
       cx="16.933332"
       cy="16.933332"
       r="16.933332" /><path
       d="m 31.206082,15.227584 c 0.06775,0.569 0.102,1.141499 0.102251,1.714499 -0.008,3.24875 -1.13175,6.39775 -3.18525,8.92675 -2.0535,2.529001 -4.914,4.286501 -8.10925,4.982751 a 14.464999,14.464999 0 0 1 -9.46475,-1.153501 c -2.9309996,-1.443 -5.2787497,-3.835499 -6.6554996,-6.782499 l 2.2975,-1.117 c 1.1154999,2.436 3.0365,4.41975 5.4442486,5.621 2.40775,1.20125 5.156751,1.54825 7.790501,0.983 2.63375,-0.56525 4.993249,-2.008751 6.686749,-4.09025 1.6935,-2.081501 2.618251,-4.676 2.621251,-7.352 v -0.3645 l 2.472,-1.368 z M 16.933332,2.6833345 a 14.445,14.445 0 0 1 8.059251,2.4472501 c 2.379999,1.5969999 4.22375,3.8655001 5.29325,6.5129994 l -2.46,0.782499 C 26.775582,9.9233342 24.884082,7.8595845 22.473583,6.5868345 A 11.8725,11.8725 0 0 0 14.606082,5.4450846 11.815,11.815 0 0 0 7.7950834,9.5193348 c -1.7275,2.0997482 -2.6682501,4.7292492 -2.6625,7.4407482 v 0.239 L 2.7268333,19.152334 A 13.937501,13.937501 0 0 1 2.5583334,16.959833 c 0,-3.786499 1.5145,-7.4177483 4.21025,-10.0949985 2.69575,-2.6772499 6.3522506,-4.1815 10.1647486,-4.1815 z"
       fill="#ffffff"
       id="path18985"
       style="fill:#0b1636;fill-opacity:1;stroke-width:0.25" /><path
       d="m 1.0583334,22.683334 13.9367496,-11.500001 -0.5785,4.778001 8.13425,-4.65175 -0.4115,4.543499 10.669,-3.424 -14.4675,8.03975 1.079499,-4.573499 -8.361,4.940499 0.554501,-3.508249 z"
       fill="#0287d0"
       id="path18987"
       style="fill:#0b1636;fill-opacity:1;stroke-width:0.25" /></g></svg>
