<?xml version="1.0" encoding="UTF-8" standalone="no"?>
<svg
   width="128"
   height="128"
   viewBox="0 0 128 128"
   fill="none"
   version="1.1"
   id="svg5768"
   sodipodi:docname="milkomedacardano.svg"
   inkscape:export-filename="..\Mainnet_128x128\chains\milkomedacardano.png"
   inkscape:export-xdpi="96"
   inkscape:export-ydpi="96"
   xmlns:inkscape="http://www.inkscape.org/namespaces/inkscape"
   xmlns:sodipodi="http://sodipodi.sourceforge.net/DTD/sodipodi-0.dtd"
   xmlns="http://www.w3.org/2000/svg"
   xmlns:svg="http://www.w3.org/2000/svg">
  <defs
     id="defs5772" />
  <sodipodi:namedview
     id="namedview5770"
     pagecolor="#ffffff"
     bordercolor="#000000"
     borderopacity="0.25"
     inkscape:showpageshadow="2"
     inkscape:pageopacity="0.0"
     inkscape:pagecheckerboard="0"
     inkscape:deskcolor="#d1d1d1"
     showgrid="false" />
  <circle
     cx="64"
     cy="64"
     r="64"
     fill="#000000"
     id="circle5760" />
  <path
     d="m 114.316,52.646 8.265,14.308 -43.535,25.138 c 0,0 -26.662,16.114 -45.832,-17.108 L 46.77,67.162 c 0,0 8.809,19.472 24.077,10.629 L 114.315,52.646 Z M 13.265,74.884 5,60.576 49.462,34.907 c 0,0 26.663,-16.114 45.825,17.108 l -13.556,7.822 c 0,0 -8.809,-19.471 -24.077,-10.629 z"
     fill="#ffffff"
     id="path5762" />
  <path
     d="m 64.63,74.535 c 6,0 10.864,-4.864 10.864,-10.864 0,-6 -4.864,-10.864 -10.864,-10.864 -6,0 -10.864,4.864 -10.864,10.864 0,6 4.864,10.864 10.864,10.864 z"
     fill="#ff931e"
     id="path5764" />
  <path
     d="m 26.27,91.495 c 3.133,0 5.674,-2.54 5.674,-5.673 0,-3.133 -2.54,-5.674 -5.674,-5.674 -3.134,0 -5.674,2.54 -5.674,5.674 0,3.134 2.54,5.673 5.674,5.673 z m 75.732,-43.73 c 3.134,0 5.674,-2.54 5.674,-5.674 0,-3.134 -2.54,-5.674 -5.674,-5.674 -3.134,0 -5.673,2.54 -5.673,5.674 0,3.134 2.54,5.674 5.673,5.674 z"
     fill="#ffffff"
     id="path5766" />
</svg>
