<?xml version="1.0" encoding="UTF-8" standalone="no"?>
<svg
   width="128"
   height="128"
   viewBox="0 0 128 128"
   fill="none"
   version="1.1"
   id="svg8"
   sodipodi:docname="godwoken.svg"
   inkscape:export-filename="..\Mainnet_128x128\chains\godwoken.svg"
   inkscape:export-xdpi="96"
   inkscape:export-ydpi="96"
   xml:space="preserve"
   xmlns:inkscape="http://www.inkscape.org/namespaces/inkscape"
   xmlns:sodipodi="http://sodipodi.sourceforge.net/DTD/sodipodi-0.dtd"
   xmlns="http://www.w3.org/2000/svg"
   xmlns:svg="http://www.w3.org/2000/svg"><defs
     id="defs12" /><sodipodi:namedview
     id="namedview10"
     pagecolor="#ffffff"
     bordercolor="#000000"
     borderopacity="0.25"
     inkscape:showpageshadow="2"
     inkscape:pageopacity="0.0"
     inkscape:pagecheckerboard="0"
     inkscape:deskcolor="#d1d1d1"
     showgrid="false" /><circle
     style="fill:#b24141;fill-opacity:1;stroke-width:0;stroke-linejoin:bevel;paint-order:stroke fill markers"
     id="path347"
     cx="64"
     cy="64"
     r="64" /><path
     style="fill:#ffffff;fill-opacity:1;stroke-width:0.0991573"
     d="M 96.523714,98.786601 C 96.305585,98.671652 86.957527,92.955365 75.750253,86.083745 43.45369,66.281464 41.346154,64.993388 41.242434,64.993388 c -0.06392,0 -0.09813,2.782511 -0.09813,7.982171 0,4.390196 0.02083,7.982169 0.04631,7.982169 0.02549,0 1.518584,-0.937038 3.317999,-2.082302 1.813481,-1.154224 3.372775,-2.082156 3.498534,-2.08197 0.124786,1.97e-4 1.074682,0.51782 2.110872,1.150297 1.655953,1.010773 7.488461,4.598818 7.564466,4.653511 0.06059,0.04359 -26.479562,16.109621 -26.612207,16.109621 -0.02204,0 -0.04003,-11.512157 -0.04003,-25.582588 0,-21.49721 0.02154,-25.582606 0.134788,-25.582606 0.07413,0 3.08286,1.77368 6.686071,3.941508 3.603206,2.167828 18.377459,11.058527 32.831669,19.757108 l 26.28038,15.815602 0.0041,5.974237 c 0.0017,3.28582 -0.0074,5.97226 -0.02141,5.969852 -0.01359,-0.0028 -0.203247,-0.09845 -0.421393,-0.213397 z M 96.325383,80.131673 C 95.998162,79.952506 92.383876,77.787756 88.293636,75.321121 84.203394,72.854479 69.646488,64.089082 55.944964,55.842449 l -24.911876,-14.993878 -0.0016,-5.924658 c -5.47e-4,-3.258559 0.03204,-5.924317 0.07295,-5.923913 0.147049,0.0017 1.729864,0.959777 13.014403,7.879566 30.471915,18.685683 42.66306,26.138341 42.698865,26.102537 0.02154,-0.02154 0.02773,-3.62956 0.01378,-8.017849 l -0.02538,-7.978703 -2.776406,1.767511 c -3.553282,2.262111 -3.937522,2.480975 -4.186263,2.384561 -0.316613,-0.122724 -9.444049,-5.721438 -9.446033,-5.794146 -10e-4,-0.03647 1.169487,-0.777676 2.601075,-1.64711 17.35884,-10.542398 22.736885,-13.799586 23.301957,-14.112753 l 0.669316,-0.37094 v 25.624634 c 0,14.093547 -0.01112,25.623622 -0.02479,25.622381 -0.01359,-10e-4 -0.292518,-0.148843 -0.619748,-0.328016 z"
     id="path1058" /></svg>
