<?xml version="1.0" encoding="UTF-8" standalone="no"?>
<svg
   width="128"
   height="128"
   viewBox="0 0 128 128"
   fill="none"
   version="1.1"
   id="svg6"
   sodipodi:docname="conflux.svg"
   inkscape:export-filename="..\Mainnet_128x128\chains\kcc.svg"
   inkscape:export-xdpi="96"
   inkscape:export-ydpi="96"
   xml:space="preserve"
   xmlns:inkscape="http://www.inkscape.org/namespaces/inkscape"
   xmlns:sodipodi="http://sodipodi.sourceforge.net/DTD/sodipodi-0.dtd"
   xmlns:xlink="http://www.w3.org/1999/xlink"
   xmlns="http://www.w3.org/2000/svg"
   xmlns:svg="http://www.w3.org/2000/svg"><defs
     id="defs10"><linearGradient
       id="O"
       x1="79.497002"
       y1="95.540001"
       x2="85.928001"
       y2="95.540001"
       xlink:href="#R"
       gradientTransform="matrix(0.78125,0,0,0.78125,14.26012,14)"><stop
         offset=".289"
         stop-color="#fff"
         id="stop6218" /><stop
         offset=".78"
         stop-color="#fff"
         stop-opacity="0"
         id="stop6220" /></linearGradient><linearGradient
       id="R"
       gradientUnits="userSpaceOnUse" /><linearGradient
       id="N"
       x1="41.305"
       y1="106.241"
       x2="47.736"
       y2="106.241"
       xlink:href="#R"
       gradientTransform="matrix(0.78125,0,0,0.78125,14.26012,14)"><stop
         offset=".289"
         stop-color="#fff"
         id="stop6213" /><stop
         offset=".78"
         stop-color="#fff"
         stop-opacity="0"
         id="stop6215" /></linearGradient><linearGradient
       id="M"
       x1="73.542"
       y1="112.874"
       x2="76.498001"
       y2="112.874"
       xlink:href="#R"
       gradientTransform="matrix(0.78125,0,0,0.78125,14.26012,14)"><stop
         offset=".289"
         stop-color="#fff"
         id="stop6208" /><stop
         offset=".78"
         stop-color="#fff"
         stop-opacity="0"
         id="stop6210" /></linearGradient><linearGradient
       id="L"
       x1="61.576"
       y1="114.298"
       x2="64.531998"
       y2="114.298"
       xlink:href="#R"
       gradientTransform="matrix(0.78125,0,0,0.78125,14.26012,14)"><stop
         offset=".289"
         stop-color="#fff"
         id="stop6203" /><stop
         offset=".78"
         stop-color="#fff"
         stop-opacity="0"
         id="stop6205" /></linearGradient><linearGradient
       id="K"
       x1="67.602997"
       y1="107.521"
       x2="71.540001"
       y2="107.521"
       xlink:href="#R"
       gradientTransform="matrix(0.78125,0,0,0.78125,14.26012,14)"><stop
         offset=".289"
         stop-color="#fff"
         id="stop6198" /><stop
         offset=".78"
         stop-color="#fff"
         stop-opacity="0"
         id="stop6200" /></linearGradient><linearGradient
       id="J"
       x1="54.022999"
       y1="108.866"
       x2="57.960999"
       y2="108.866"
       xlink:href="#R"
       gradientTransform="matrix(0.78125,0,0,0.78125,14.26012,14)"><stop
         offset=".289"
         stop-color="#fff"
         id="stop6193" /><stop
         offset=".78"
         stop-color="#fff"
         stop-opacity="0"
         id="stop6195" /></linearGradient><linearGradient
       id="I"
       x1="107.809"
       y1="22.261"
       x2="100.536"
       y2="33.880001"
       xlink:href="#R"
       gradientTransform="matrix(0.78125,0,0,0.78125,14.26012,14)"><stop
         offset=".289"
         stop-color="#fff"
         id="stop6188" /><stop
         offset=".78"
         stop-color="#fff"
         stop-opacity="0"
         id="stop6190" /></linearGradient><linearGradient
       id="H"
       x1="10.693"
       y1="76.128998"
       x2="109.43"
       y2="76.128998"
       xlink:href="#R"
       gradientTransform="matrix(0.78125,0,0,0.78125,14.26012,14)"><stop
         stop-color="#000292"
         id="stop6183" /><stop
         offset=".995"
         stop-color="#be00c7"
         id="stop6185" /></linearGradient><linearGradient
       id="G"
       x1="10.627"
       y1="96.585999"
       x2="63.521999"
       y2="96.585999"
       xlink:href="#R"
       gradientTransform="matrix(0.78125,0,0,0.78125,14.26012,14)"><stop
         stop-color="#000292"
         id="stop6178" /><stop
         offset=".995"
         stop-color="#7d00c7"
         id="stop6180" /></linearGradient><linearGradient
       id="F"
       x1="114.177"
       y1="75.890999"
       x2="59.495998"
       y2="126.692"
       xlink:href="#R"
       gradientTransform="matrix(0.78125,0,0,0.78125,14.26012,14)"><stop
         offset=".289"
         stop-color="#fff"
         id="stop6173" /><stop
         offset=".78"
         stop-color="#fff"
         stop-opacity="0"
         id="stop6175" /></linearGradient><linearGradient
       id="E"
       x1="10.626"
       y1="96.585999"
       x2="109.496"
       y2="96.585999"
       xlink:href="#R"
       gradientTransform="matrix(0.78125,0,0,0.78125,14.26012,14)"><stop
         stop-color="#0002e9"
         id="stop6168" /><stop
         offset=".995"
         stop-color="#ff00c7"
         id="stop6170" /></linearGradient><linearGradient
       id="D"
       x1="96.764999"
       y1="36.011002"
       x2="53.073002"
       y2="75.421997"
       xlink:href="#R"
       gradientTransform="matrix(0.78125,0,0,0.78125,14.26012,14)"><stop
         offset=".289"
         stop-color="#fff"
         id="stop6163" /><stop
         offset=".78"
         stop-color="#fff"
         stop-opacity="0"
         id="stop6165" /></linearGradient><linearGradient
       id="C"
       x1="51.754002"
       y1="124.126"
       x2="68.957001"
       y2="19.785999"
       xlink:href="#R"
       gradientTransform="matrix(0.78125,0,0,0.78125,14.26012,14)"><stop
         stop-color="#81ffff"
         id="stop6158" /><stop
         offset=".62"
         stop-color="#fff"
         stop-opacity="0"
         id="stop6160" /></linearGradient><radialGradient
       id="B"
       cx="0"
       cy="0"
       r="1"
       gradientTransform="matrix(79.511719,0,0,80.88125,88.123948,41.707578)"
       xlink:href="#R"><stop
         stop-color="#ffeaff"
         stop-opacity=".6"
         id="stop6151" /><stop
         offset=".681"
         stop-color="#a087c9"
         id="stop6153" /><stop
         offset="1"
         stop-color="#10002f"
         id="stop6155" /></radialGradient><radialGradient
       id="A"
       cx="0"
       cy="0"
       r="1"
       gradientTransform="matrix(32.498438,0,0,33.057969,106.20465,27.609141)"
       xlink:href="#R"><stop
         stop-color="#ffeaff"
         stop-opacity=".6"
         id="stop6144" /><stop
         offset=".681"
         stop-color="#a087c9"
         id="stop6146" /><stop
         offset="1"
         stop-color="#10002f"
         id="stop6148" /></radialGradient></defs><sodipodi:namedview
     id="namedview8"
     pagecolor="#ffffff"
     bordercolor="#000000"
     borderopacity="0.25"
     inkscape:showpageshadow="2"
     inkscape:pageopacity="0.0"
     inkscape:pagecheckerboard="0"
     inkscape:deskcolor="#d1d1d1"
     showgrid="false" /><circle
     cx="64"
     cy="64"
     r="64"
     fill="#000"
     id="circle2"
     style="fill:#1b1452;fill-opacity:1" /><path
     d="M 109.56559,31.677344 C 108.54762,27.757031 105.27574,23.836719 99.385901,19.473437 94.659338,15.996875 89.642151,14 85.643714,14 c -0.8,0 -1.527344,0.07422 -2.253906,0.221875 -1.817969,0.369531 -3.417188,1.701563 -4.435157,3.698438 -1.235937,2.367187 -1.527343,5.547656 -0.727343,7.470312 0.290625,0.591406 0.654687,1.33125 1.090625,1.996875 -3.853907,2.367188 -6.035157,3.032813 -6.325782,3.10625 10.034375,3.402344 18.396094,10.503125 23.63125,19.748437 l 0.07266,-0.8875 c 0.21875,-2.440625 0.945312,-5.251562 1.963281,-8.135937 1.017969,0.296094 2.035938,0.44375 3.053908,0.44375 2.69062,0 5.01719,-1.109375 6.47187,-3.10625 1.45469,-1.996875 2.03594,-4.660156 1.38125,-6.878906 z"
     fill="#5e12a0"
     id="path6066"
     style="stroke-width:0.78125" /><path
     d="m 99.096057,39.073437 c 6.617183,1.849219 9.307033,-3.328906 8.434373,-6.804687 -0.94531,-3.476562 -3.99922,-7.026562 -9.379686,-11.021094 -5.380468,-3.994531 -10.834374,-5.621093 -14.324218,-4.88125 -3.489843,0.739844 -4.508593,6.139063 -3.635937,8.210157 0.363281,0.813281 1.163281,1.996875 2.253906,3.328125 -1.38125,0.961718 -2.690625,1.700781 -3.78125,2.367187 6.689844,3.032813 12.507031,7.766406 16.869531,13.683594 0.509375,-1.996875 1.236718,-3.771875 1.890625,-5.325781 a 8.0234375,8.0234375 0 0 1 1.672656,0.443749 z"
     fill="url(#A)"
     id="path6068"
     style="fill:url(#A);stroke-width:0.78125" /><path
     d="m 61.212464,111.55859 c 22.448437,0 40.646876,-18.511715 40.646876,-41.34609 0,-22.834375 -18.198439,-41.346094 -40.646876,-41.346094 -22.448438,0 -40.646094,18.510938 -40.646094,41.346094 0,22.835156 18.197656,41.34609 40.646875,41.34609 z"
     fill="url(#B)"
     id="path6070"
     style="fill:url(#B);stroke-width:0.78125" /><path
     opacity="0.6"
     d="m 104.1859,28.866406 c -5.525781,-5.917187 -10.179687,-7.470312 -15.778905,-8.728125 -4.3625,-1.035156 -3.199219,-3.55 2.108594,-3.032812 -2.545313,-0.8875 -4.944531,-1.109375 -6.689844,-0.739844 -3.490625,0.739844 -4.508594,6.139062 -3.635937,8.210156 0.363281,0.813282 1.163281,1.996875 2.253906,3.328125 a 55.1875,55.1875 0 0 1 -5.017188,3.032813 c 0.654688,0.296094 1.453907,0.665625 2.4,1.183593 2.471875,1.331251 5.1625,3.550001 5.1625,3.550001 -4.071875,-3.550001 -3.199218,-5.177344 2.4,-9.171875 1.745313,-1.257032 4.944531,-1.109375 7.925,0.443749 2.980468,1.553125 6.471874,5.473438 6.471874,5.473438 l -3.345312,6.509375 0.654688,0.221875 c 2.108594,0.591406 3.781254,0.44375 5.089844,-0.07422 1.52734,-0.961718 5.52656,-4.215625 0,-10.207031 z"
     fill="#a98698"
     id="path6072"
     style="stroke-width:0.78125" /><g
     fill="#5e12a0"
     id="g6078"
     transform="matrix(0.78125,0,0,0.78125,14.26012,14)"><path
       d="m 94.815,12.402 c 1.862,0.757 4.281,2.083 7.259,4.071 3.537,2.367 6.608,5.018 8.563,7.101 -3.258,4.355 -5.398,10.32 -6.701,14.485 0.651,0.947 1.396,1.893 2.047,2.84 0.652,-2.367 1.769,-5.87 3.258,-9.373 0.372,0.095 0.837,0.095 1.303,0.095 1.117,0 2.42,-0.19 3.443,-1.042 0.745,-0.568 1.583,-1.609 1.49,-3.503 0,-1.799 -1.396,-4.071 -4.282,-6.817 -2.047,-1.988 -4.839,-4.166 -7.632,-6.154 C 95.559,8.709 89.975,7.194 87.462,9.75 c -1.675,1.704 -1.489,3.787 -0.931,5.302 -2.978,1.988 -5.491,3.408 -7.166,4.355 1.117,0.379 2.141,0.852 3.258,1.325 2.978,-1.61 7.259,-4.355 12.192,-8.331 z m 17.59,13.539 c 0.28,0.473 0.373,0.947 0.373,1.231 0,0.852 -0.28,1.136 -0.466,1.326 -0.372,0.284 -1.117,0.473 -1.768,0.473 0.558,-1.136 1.21,-2.083 1.861,-3.03 z M 89.417,11.834 c 0.279,-0.284 1.024,-0.473 2.234,-0.284 -0.931,0.757 -1.862,1.42 -2.792,2.083 -0.093,-0.663 0,-1.325 0.558,-1.799 z"
       id="path6074" /><path
       d="M 60.099,15.905 C 29.664,15.905 5,40.994 5,71.952 5,102.91 29.664,128 60.099,128 c 30.435,0 55.099,-25.089 55.099,-56.048 0,-30.959 -24.758,-56.047 -55.099,-56.047 z m 0,108.971 c -28.759,0 -52.027,-23.669 -52.027,-52.924 0,-29.255 23.268,-52.923 52.027,-52.923 28.759,0 52.027,23.669 52.027,52.923 0,29.254 -23.361,52.924 -52.027,52.924 z"
       id="path6076" /></g><path
     opacity="0.6"
     d="m 61.212464,111.55938 c 22.448437,0 40.646876,-18.510942 40.646876,-41.346099 0,-22.835156 -18.198439,-41.346093 -40.646876,-41.346093 -22.448438,0 -40.646094,18.511718 -40.646094,41.346093 0,22.834375 18.197656,41.346099 40.646875,41.346099 z"
     fill="url(#C)"
     id="path6080"
     style="fill:url(#C);stroke-width:0.78125" /><path
     opacity="0.6"
     d="M 60.921839,106.52969 C 38.744495,102.90547 23.692933,81.678125 27.32887,59.11875 c 1.6,-9.985156 6.544531,-18.491406 13.524219,-24.630469 -10.179688,5.991406 -17.742188,16.420313 -19.778125,29.142188 -3.563281,22.559375 11.488281,43.787501 33.592969,47.411721 12.360937,2.07109 24.285937,-1.84922 33.084375,-9.54141 -7.780469,4.58516 -17.232813,6.58281 -26.830469,5.02891 z"
     fill="#a98698"
     id="path6082"
     style="stroke-width:0.78125" /><path
     opacity="0.6"
     d="M 67.683558,29.458594 C 57.431214,27.757813 47.469495,30.124219 39.325745,35.375781 l -0.290625,0.296094 c 3.126563,-1.923438 7.707813,-3.624219 7.707813,-3.624219 C 34.963245,39 31.327308,46.914844 31.327308,46.914844 35.908558,37.891406 49.36012,31.530469 59.903089,31.086719 c 10.542969,-0.44375 17.450781,2.736718 25.885937,9.615625 8.435156,6.952344 13.525,21.153906 13.015625,32.396875 -0.435938,11.242187 -6.253125,20.340625 -6.253125,20.340625 3.999218,-5.251563 6.398437,-9.097656 7.925784,-13.017969 0.29062,-1.183594 0.58203,-2.367188 0.72734,-3.624219 C 104.83981,54.3125 89.860901,33.084375 67.683558,29.460156 Z"
     fill="url(#D)"
     id="path6084"
     style="fill:url(#D);stroke-width:0.78125" /><path
     d="m 99.822619,69.842969 c 0,21.671875 -17.305468,39.275781 -38.610155,39.275781 -21.304688,0 -38.682813,-17.603906 -38.682813,-39.275781 z"
     fill="url(#E)"
     id="path6086"
     style="fill:url(#E);stroke-width:0.78125" /><path
     opacity="0.36"
     d="m 96.768713,69.842969 c 0,21.153906 -16.432812,38.461721 -37.082812,39.275781 h 1.526563 c 21.304687,0 38.610155,-17.603906 38.610155,-39.275781 z"
     fill="url(#F)"
     id="path6088"
     style="fill:url(#F);stroke-width:0.78125" /><path
     opacity="0.49"
     d="m 27.982776,69.842969 h -5.453125 c 0,21.671875 17.305469,39.275781 38.610157,39.275781 0.945312,0 1.817968,0 2.690625,-0.0742 C 43.834339,107.56484 27.982776,90.553125 27.982776,69.842969 Z"
     fill="url(#G)"
     id="path6090"
     style="fill:url(#G);stroke-width:0.78125" /><path
     d="m 99.749963,70.213281 c 0,-4.511719 -7.707812,-7.1 -17.960155,-7.988281 -7.416407,-0.591406 -14.90625,0.147656 -23.485938,2.810938 -7.416406,2.21875 -14.10625,1.849218 -18.978125,1.257812 C 28.49137,65.035938 22.52887,64.888281 22.52887,70.214063 c 0,7.692187 15.414844,17.307812 38.5375,13.979687 11.707031,-1.701562 17.742188,-5.177344 24.649219,-7.544531 7.489843,-2.514844 14.033593,-2.440625 14.033593,-6.435156 z"
     fill="url(#H)"
     id="path6092"
     style="fill:url(#H);stroke-width:0.78125" /><path
     d="m 73.864808,51.574219 c 3.614062,0 6.544531,-2.980469 6.544531,-6.657032 0,-3.676562 -2.929688,-6.657031 -6.544531,-6.657031 -3.614844,0 -6.54375,2.980469 -6.54375,6.657031 0,3.676563 2.929687,6.657032 6.54375,6.657032 z m 10.6875,4.954687 c 1.525781,0 2.763281,-1.258593 2.763281,-2.810937 0,-1.552344 -1.2375,-2.810938 -2.763281,-2.810938 -1.525782,0 -2.763282,1.258594 -2.763282,2.810938 0,1.552344 1.2375,2.810937 2.763282,2.810937 z"
     fill="#ffffff"
     id="path6094"
     style="stroke-width:0.78125" /><path
     opacity="0.36"
     d="m 94.441369,39.592188 h -0.145312 c -0.435938,-0.07422 -0.727344,-0.517969 -0.654688,-1.035938 0.654688,-3.402344 3.417969,-6.657031 3.563282,-6.804687 0.291406,-0.369532 0.872656,-0.369532 1.163281,-0.07422 0.364062,0.296094 0.364062,0.8875 0.07266,1.183594 -0.07266,0.07422 -2.617187,3.10625 -3.199219,6.064843 -0.07266,0.44375 -0.435937,0.665625 -0.8,0.665625 z"
     fill="url(#I)"
     id="path6096"
     style="fill:url(#I);stroke-width:0.78125" /><path
     id="use6098"
     d="m 58.526526,101.05625 c 1.124219,0 2.035938,-0.92734 2.035938,-2.071094 0,-1.14375 -0.911719,-2.071093 -2.035938,-2.071093 -1.124218,0 -2.035937,0.927343 -2.035937,2.071093 0,1.143754 0.911719,2.071094 2.035937,2.071094 z"
     style="opacity:0.2;fill:#ffffff;stroke-width:0.78125" /><path
     opacity="0.24"
     d="m 57.358558,100.31875 a 2.125,2.125 0 0 1 0,-2.957812 c 0.145312,-0.148438 0.290625,-0.221876 0.435937,-0.370313 -0.290625,0.07422 -0.509375,0.221875 -0.727344,0.44375 a 2.125,2.125 0 0 0 0,2.958595 c 0.654688,0.66562 1.671875,0.81328 2.471875,0.36953 -0.727343,0.29609 -1.6,0.14844 -2.18125,-0.44375 z"
     fill="url(#J)"
     id="path6100"
     style="fill:url(#J);stroke-width:0.78125" /><g
     fill="#ffffff"
     id="g6106"
     transform="matrix(0.78125,0,0,0.78125,14.26012,14)"><path
       opacity="0.3"
       d="m 57.586,108.024 c 0.308,0 0.558,-0.254 0.558,-0.568 0,-0.314 -0.25,-0.568 -0.558,-0.568 -0.308,0 -0.558,0.255 -0.558,0.568 0,0.313 0.25,0.568 0.558,0.568 z"
       id="path6102" /><path
       id="use6104"
       d="m 70.25,110.107 c 1.439,0 2.606,-1.187 2.606,-2.651 0,-1.464 -1.167,-2.651 -2.606,-2.651 -1.439,0 -2.606,1.187 -2.606,2.651 0,1.464 1.167,2.651 2.606,2.651 z"
       style="opacity:0.2" /></g><path
     opacity="0.24"
     d="m 67.974964,99.282813 a 2.125,2.125 0 0 1 0,-2.958594 c 0.145312,-0.148438 0.290625,-0.221875 0.435937,-0.370313 -0.290625,0.07422 -0.508593,0.221875 -0.727343,0.44375 a 2.125,2.125 0 0 0 0,2.958594 c 0.654687,0.66563 1.672656,0.81406 2.472656,0.370312 a 2.0078125,2.0078125 0 0 1 -2.18125,-0.443749 z"
     fill="url(#K)"
     id="path6108"
     style="fill:url(#K);stroke-width:0.78125" /><g
     fill="#ffffff"
     id="g6114"
     transform="matrix(0.78125,0,0,0.78125,14.26012,14)"><path
       opacity="0.3"
       d="m 71.175,106.699 c 0.308,0 0.558,-0.254 0.558,-0.568 0,-0.314 -0.25,-0.568 -0.558,-0.568 -0.308,0 -0.558,0.254 -0.558,0.568 0,0.314 0.25,0.568 0.558,0.568 z"
       id="path6110" /><path
       opacity="0.2"
       d="m 63.543,116.26 c 1.079,0 1.954,-0.89 1.954,-1.988 0,-1.098 -0.875,-1.988 -1.954,-1.988 -1.079,0 -1.954,0.89 -1.954,1.988 0,1.098 0.875,1.988 1.954,1.988 z"
       id="path6112" /></g><path
     opacity="0.24"
     d="m 63.030433,104.23906 c -0.582032,-0.5914 -0.582032,-1.62734 0,-2.21875 0.07266,-0.0742 0.217968,-0.14765 0.290625,-0.22187 -0.217969,0.0742 -0.363282,0.22187 -0.508594,0.36953 -0.582031,0.59141 -0.582031,1.62734 0,2.21875 0.508594,0.51797 1.235937,0.59219 1.890625,0.22187 a 1.5625,1.5625 0 0 1 -1.672656,-0.36953 z"
     fill="url(#L)"
     id="path6116"
     style="fill:url(#L);stroke-width:0.78125" /><g
     fill="#ffffff"
     id="g6122"
     transform="matrix(0.78125,0,0,0.78125,14.26012,14)"><path
       opacity="0.3"
       d="m 64.194,113.609 c 0.206,0 0.372,-0.169 0.372,-0.379 0,-0.21 -0.167,-0.378 -0.372,-0.378 -0.205,0 -0.372,0.169 -0.372,0.378 0,0.209 0.167,0.379 0.372,0.379 z"
       id="path6118" /><path
       opacity="0.2"
       d="m 75.548,114.84 c 1.079,0 1.955,-0.89 1.955,-1.988 0,-1.098 -0.875,-1.989 -1.955,-1.989 -1.08,0 -1.954,0.891 -1.954,1.989 0,1.098 0.875,1.988 1.954,1.988 z"
       id="path6120" /></g><path
     opacity="0.24"
     d="m 72.41012,103.12891 c -0.582031,-0.59141 -0.582031,-1.62657 0,-2.21875 0.07266,-0.0734 0.217969,-0.14766 0.290625,-0.22188 -0.217969,0.0742 -0.363281,0.22188 -0.508594,0.37031 -0.582031,0.59141 -0.582031,1.62657 0,2.21875 0.508594,0.51797 1.235938,0.59141 1.890625,0.22188 a 1.5625,1.5625 0 0 1 -1.672656,-0.37031 z"
     fill="url(#M)"
     id="path6124"
     style="fill:url(#M);stroke-width:0.78125" /><g
     fill="#ffffff"
     id="g6130"
     transform="matrix(0.78125,0,0,0.78125,14.26012,14)"><path
       opacity="0.3"
       d="m 76.2,112.188 c 0.206,0 0.372,-0.169 0.372,-0.378 0,-0.209 -0.167,-0.379 -0.372,-0.379 -0.205,0 -0.372,0.17 -0.372,0.379 0,0.209 0.167,0.378 0.372,0.378 z"
       id="path6126" /><path
       id="use6128"
       d="m 45.58,110.485 c 2.364,0 4.281,-1.95 4.281,-4.355 0,-2.405 -1.917,-4.355 -4.281,-4.355 -2.364,0 -4.281,1.95 -4.281,4.355 0,2.405 1.917,4.355 4.281,4.355 z"
       style="opacity:0.2" /></g><path
     opacity="0.24"
     d="m 47.981214,99.058594 c -1.308594,-1.33125 -1.308594,-3.475781 0,-4.807032 0.217969,-0.221875 0.435937,-0.370312 0.727344,-0.517968 -0.435938,0.147656 -0.8,0.44375 -1.163282,0.739844 -1.308593,1.331249 -1.308593,3.475781 0,4.807031 1.090625,1.109371 2.763282,1.331251 4.071875,0.517969 -1.235937,0.517972 -2.690625,0.296092 -3.635937,-0.739844 z"
     fill="url(#N)"
     id="path6132"
     style="fill:url(#N);stroke-width:0.78125" /><g
     fill="#ffffff"
     id="g6138"
     transform="matrix(0.78125,0,0,0.78125,14.26012,14)"><path
       opacity="0.3"
       d="M 47.069,104.805 A 0.94,0.94 0 0 0 48,103.858 c 0,-0.523 -0.417,-0.946 -0.931,-0.946 -0.514,0 -0.931,0.423 -0.931,0.946 a 0.94,0.94 0 0 0 0.931,0.947 z"
       id="path6134" /><path
       id="use6136"
       d="m 83.835001,99.787 c 2.364,0 4.281,-1.95 4.281,-4.355 0,-2.405 -1.917,-4.355 -4.281,-4.355 -2.364,0 -4.281,1.95 -4.281,4.355 0,2.405 1.917,4.355 4.281,4.355 z"
       style="opacity:0.2" /></g><path
     opacity="0.24"
     d="m 77.790589,90.701562 c -1.308594,-1.33125 -1.308594,-3.476562 0,-4.807812 0.217969,-0.221875 0.435937,-0.369531 0.727344,-0.517969 -0.435938,0.147656 -0.8,0.44375 -1.163282,0.739844 -1.308593,1.33125 -1.308593,3.476563 0,4.807813 1.090625,1.109375 2.763282,1.33125 4.071875,0.517968 -1.235937,0.517969 -2.617968,0.296094 -3.635937,-0.739844 z"
     fill="url(#O)"
     id="path6140"
     style="fill:url(#O);stroke-width:0.78125" /><path
     opacity="0.3"
     d="m 80.917151,87.521094 a 0.734375,0.734375 0 0 0 0.727344,-0.739844 0.734375,0.734375 0 0 0 -0.727344,-0.739844 0.734375,0.734375 0 0 0 -0.727343,0.739844 0.734375,0.734375 0 0 0 0.727343,0.739844 z"
     fill="#ffffff"
     id="path6142"
     style="stroke-width:0.78125" /></svg>
