<?xml version="1.0" encoding="UTF-8" standalone="no"?>
<!-- Created with Inkscape (http://www.inkscape.org/) -->

<svg
   width="127.99999"
   height="127.99999"
   viewBox="0 0 33.866664 33.866664"
   version="1.1"
   id="svg474"
   xml:space="preserve"
   inkscape:export-filename="proofofmemes.png"
   inkscape:export-xdpi="96"
   inkscape:export-ydpi="96"
   xmlns:inkscape="http://www.inkscape.org/namespaces/inkscape"
   xmlns:sodipodi="http://sodipodi.sourceforge.net/DTD/sodipodi-0.dtd"
   xmlns:xlink="http://www.w3.org/1999/xlink"
   xmlns="http://www.w3.org/2000/svg"
   xmlns:svg="http://www.w3.org/2000/svg"><sodipodi:namedview
     id="namedview476"
     pagecolor="#ffffff"
     bordercolor="#000000"
     borderopacity="0.25"
     inkscape:showpageshadow="2"
     inkscape:pageopacity="0.0"
     inkscape:pagecheckerboard="0"
     inkscape:deskcolor="#d1d1d1"
     inkscape:document-units="mm"
     showgrid="false" /><defs
     id="defs471"><linearGradient
       inkscape:collect="always"
       id="linearGradient15485"><stop
         style="stop-color:#768bff;stop-opacity:1;"
         offset="0"
         id="stop15483" /><stop
         style="stop-color:#5e4fff;stop-opacity:1;"
         offset="1"
         id="stop15481" /></linearGradient><linearGradient
       inkscape:collect="always"
       xlink:href="#linearGradient15485"
       id="linearGradient15487"
       x1="0.1403165"
       y1="33.303593"
       x2="33.960209"
       y2="0.42275745"
       gradientUnits="userSpaceOnUse" /></defs><g
     inkscape:label="Layer 1"
     inkscape:groupmode="layer"
     id="layer1"><circle
       style="fill:url(#linearGradient15487);fill-opacity:1;stroke-width:0;stroke-linejoin:bevel;paint-order:stroke fill markers"
       id="path647"
       cx="16.933332"
       cy="16.933332"
       r="16.933332" /><path
       d="m 5.688607,14.036175 v 13.192387 c 0,0.524182 0.4196145,0.949371 0.9368765,0.949371 H 9.9574108 V 12.907078 c 0,-0.332539 0.3638712,-0.532446 0.6389362,-0.350991 l 3.838234,2.532295 v 13.089743 h 4.893515 V 9.7423823 c 0,-0.332347 0.363871,-0.532447 0.638938,-0.350992 l 3.838232,2.5322957 v 16.254439 h 3.435726 c 0.517454,0 0.937068,-0.425189 0.937068,-0.949371 V 6.6388113 c 0,-0.655468 -0.640089,-1.11391 -1.25,-0.894973 L 6.3127426,13.141394 C 5.9386842,13.275755 5.688607,13.633859 5.688607,14.036175 Z"
       fill="url(#A)"
       id="path12617"
       style="fill:#ffffff;fill-opacity:1;stroke-width:0.192219" /></g></svg>
