<?xml version="1.0" encoding="UTF-8" standalone="no"?>
<!-- Created with Inkscape (http://www.inkscape.org/) -->

<svg
   width="127.99999"
   height="127.99999"
   viewBox="0 0 33.866664 33.866664"
   version="1.1"
   id="svg4515"
   xml:space="preserve"
   inkscape:export-filename="redlight.png"
   inkscape:export-xdpi="96"
   inkscape:export-ydpi="96"
   xmlns:inkscape="http://www.inkscape.org/namespaces/inkscape"
   xmlns:sodipodi="http://sodipodi.sourceforge.net/DTD/sodipodi-0.dtd"
   xmlns="http://www.w3.org/2000/svg"
   xmlns:svg="http://www.w3.org/2000/svg"><sodipodi:namedview
     id="namedview4517"
     pagecolor="#ffffff"
     bordercolor="#000000"
     borderopacity="0.25"
     inkscape:showpageshadow="2"
     inkscape:pageopacity="0.0"
     inkscape:pagecheckerboard="0"
     inkscape:deskcolor="#d1d1d1"
     inkscape:document-units="mm"
     showgrid="false" /><defs
     id="defs4512" /><g
     inkscape:label="Layer 1"
     inkscape:groupmode="layer"
     id="layer1"><circle
       style="opacity:1;fill:#be1510;fill-opacity:1;stroke:#ffffff;stroke-width:1.53904;stroke-linejoin:bevel;stroke-dasharray:none;stroke-opacity:1;paint-order:stroke fill markers"
       id="path4636"
       cx="16.933332"
       cy="16.933332"
       r="16.163816" /><path
       style="fill:#000000;stroke-width:0.0268681"
       d="m 13.882613,26.257524 c -0.04884,-0.03243 -0.349637,-0.472027 -0.763931,-1.11645 -0.0475,-0.07389 -0.188972,-0.291518 -0.314377,-0.483625 -0.125405,-0.192108 -0.286433,-0.439967 -0.35784,-0.550798 -0.311125,-0.482898 -0.936025,-1.439692 -1.132308,-1.733694 -0.07918,-0.118605 -0.143971,-0.230444 -0.143971,-0.24853 0,-0.01809 -0.0091,-0.03291 -0.02015,-0.03293 -0.01108,-2.7e-5 -0.0558,-0.05746 -0.09938,-0.127624 -0.04358,-0.07017 -0.161459,-0.251969 -0.261965,-0.404005 -0.100506,-0.152036 -0.182738,-0.287048 -0.182738,-0.300028 0,-0.01298 -0.0096,-0.02763 -0.02144,-0.03255 -0.01179,-0.0049 -0.08736,-0.111394 -0.167926,-0.236596 -0.08057,-0.125202 -0.231122,-0.356956 -0.334564,-0.515008 -0.3654753,-0.558419 -0.5648493,-0.866228 -0.6179673,-0.95407 -0.02956,-0.04888 -0.219983,-0.341919 -0.423173,-0.651208 -0.432864,-0.65889 -0.465111,-0.778606 -0.231654,-0.85999 0.12188,-0.04249 2.8526273,-0.04144 2.9336683,0.0011 0.07761,0.04076 0.05869,0.01499 0.598704,0.815522 0.259181,0.384214 0.564109,0.834679 0.677617,1.001034 0.113508,0.166355 0.236604,0.350385 0.273548,0.408956 0.03694,0.05857 0.120654,0.182412 0.186023,0.275202 0.06537,0.09279 0.24952,0.36216 0.409227,0.598599 0.159706,0.236441 0.384982,0.568934 0.500614,0.738874 0.115631,0.169941 0.397986,0.587069 0.627456,0.926951 0.22947,0.339883 0.473631,0.700344 0.542581,0.801026 0.06895,0.100681 0.125363,0.193376 0.125363,0.205988 0,0.01261 0.01,0.02696 0.0222,0.03189 0.0207,0.0084 0.220806,0.300377 1.124664,1.641291 0.384888,0.570998 0.408127,0.630319 0.297299,0.7589 l -0.06045,0.07013 -1.563283,0.0053 c -1.325561,0.0044 -1.572189,-6.4e-4 -1.621846,-0.03363 z m 5.755689,-0.01731 c -0.05386,-0.03773 -0.249701,-0.325489 -0.985733,-1.448427 -0.799996,-1.220526 -0.95773,-1.460315 -1.007416,-1.531484 -0.03095,-0.04433 -0.149048,-0.225692 -0.262441,-0.403022 -0.113393,-0.17733 -0.218558,-0.336487 -0.233701,-0.353683 -0.01514,-0.0172 -0.135617,-0.198557 -0.267722,-0.403022 -0.132104,-0.204466 -0.411224,-0.631706 -0.620266,-0.949421 -0.209042,-0.317716 -0.450684,-0.686481 -0.536984,-0.819479 -0.0863,-0.132997 -0.274917,-0.419909 -0.419153,-0.637582 -0.290969,-0.43912 -0.276264,-0.372073 -0.156921,-0.715519 0.07218,-0.207738 0.254685,-0.585975 0.308883,-0.640174 0.0217,-0.0217 0.05268,-0.06416 0.06883,-0.09434 0.07671,-0.143343 0.443948,-0.524915 0.601678,-0.625172 0.416236,-0.264569 0.962687,-0.300441 1.571786,-0.103181 0.765716,0.247981 0.994592,0.289985 1.461855,0.268285 0.919395,-0.0427 1.272947,-0.429747 1.157889,-1.267592 -0.08009,-0.583205 -0.08625,-0.643898 -0.07503,-0.738875 0.007,-0.05929 0.03779,-0.116961 0.08332,-0.156082 0.03972,-0.03412 0.122356,-0.105176 0.183641,-0.157894 0.180295,-0.155092 0.243567,-0.352821 0.185068,-0.578344 -0.03276,-0.126281 -0.03139,-0.133681 0.04157,-0.22549 0.167843,-0.211203 0.166449,-0.332591 -0.0072,-0.625014 -0.333069,-0.560959 -0.326204,-0.652623 0.08165,-1.090211 0.296569,-0.31819 0.406943,-0.504743 0.406943,-0.687817 0,-0.16435 -0.03913,-0.218814 -0.336987,-0.469068 -0.268919,-0.225937 -0.287197,-0.241662 -0.522794,-0.449774 -0.494528,-0.436835 -0.732454,-0.77056 -0.84782,-1.189182 -0.0862,-0.3127977 -0.08679,-1.0228744 -0.001,-1.2371151 0.09143,-0.228401 0.15027,-0.5088317 0.15027,-0.7162327 v -0.163104 l 0.119631,0.0164 c 0.309454,0.04241 1.632122,0.5765147 1.707402,0.6894567 0.0074,0.01109 0.05803,0.04393 0.112524,0.07298 0.539546,0.2876267 1.527884,1.2350851 1.764509,1.6915261 0.01664,0.0321 0.04545,0.07497 0.06401,0.09527 0.01857,0.0203 0.05637,0.07867 0.08402,0.129718 0.20818,0.384489 0.312466,0.590216 0.312466,0.616411 0,0.01685 0.02847,0.09334 0.06327,0.169978 0.0348,0.07663 0.09011,0.230016 0.122906,0.340847 0.0328,0.110831 0.07038,0.231738 0.08352,0.268682 0.192384,0.54103 0.280922,2.393563 0.149597,3.130138 -0.186711,1.047232 -0.446412,1.687254 -1.030264,2.539039 -0.456623,0.666171 -1.267117,1.350014 -2.15297,1.816539 -0.421561,0.222011 -0.426789,0.198616 0.283556,1.268804 0.320422,0.482739 0.870457,1.312972 1.222302,1.844961 0.351844,0.531989 0.652159,0.98539 0.667366,1.007556 0.05766,0.08405 0.417266,0.623837 0.442941,0.664879 0.01478,0.02362 0.247523,0.375434 0.517211,0.781805 0.559813,0.843532 0.582571,0.915433 0.343495,1.085226 -0.06362,0.04519 -4.834362,0.02358 -4.899709,-0.02219 z M 3.7131727,22.358432 c -0.0097,-0.01576 -0.01195,-0.03442 -0.0049,-0.04146 0.007,-0.007 0.01996,0.0059 0.02872,0.02866 0.01817,0.04734 0.0027,0.05567 -0.02381,0.0128 z M 14.61684,18.644651 c -0.358936,-0.543969 -0.769008,-1.178654 -0.934483,-1.446334 -0.07389,-0.119524 -0.147564,-0.231441 -0.163726,-0.248704 -0.01616,-0.01726 -0.0634,-0.08553 -0.10498,-0.151696 -0.04158,-0.06617 -0.274845,-0.422575 -0.518374,-0.792013 -0.698551,-1.059709 -0.797217,-1.208193 -0.812342,-1.2225 -0.01675,-0.01584 -0.32295,-0.478433 -0.871452,-1.316539 -0.730758,-1.11659 -0.956624,-1.460111 -1.5545973,-2.364396 -0.327358,-0.495046 -0.601388,-0.912751 -0.608956,-0.928233 -0.0076,-0.01548 -0.09363,-0.148481 -0.191248,-0.2955497 -0.281446,-0.4240227 -0.835052,-1.2683154 -0.985741,-1.5033321 -0.0758,-0.11822 -0.150371,-0.229548 -0.165715,-0.247397 -0.05686,-0.06614 -0.03169,-0.233714 0.04976,-0.331283 l 0.07766,-0.09302 4.4563413,-0.0085 c 4.120465,-0.0078 5.818891,0.01139 5.964952,0.06744 0.132754,0.05094 -0.340004,0.6812897 -0.685239,0.9136557 -0.08342,0.05615 -0.157713,0.109982 -0.165102,0.119636 -0.02315,0.03025 -0.599199,0.3094717 -0.712005,0.3451207 -0.05911,0.01868 -0.14979,0.04972 -0.201511,0.06898 -0.05172,0.01926 -0.233082,0.07325 -0.403022,0.119986 -0.701593,0.1929487 -1.482585,0.5297637 -2.036976,0.8784774 -1.485141,0.934159 -2.04747,2.476797 -1.51586,4.158459 0.03737,0.11822 0.07677,0.227036 0.08754,0.241814 0.01078,0.01478 0.02867,0.05639 0.03976,0.09248 0.123595,0.402041 0.567242,0.796677 0.913356,0.812458 0.205628,0.0094 0.268869,-0.04648 0.107473,-0.09493 -0.39371,-0.118175 -0.675088,-0.462026 -0.805759,-0.984655 -0.369984,-1.479799 -0.03133,-2.662406 1.000716,-3.494567 0.191879,-0.154716 0.71109,-0.508785 0.746089,-0.508785 0.0099,0 0.05001,-0.02203 0.08923,-0.04897 0.03923,-0.02693 0.137816,-0.0769 0.219093,-0.111046 0.08128,-0.03414 0.2445,-0.108282 0.36272,-0.164753 0.216954,-0.103633 0.781722,-0.3168127 1.128462,-0.4259527 0.103442,-0.03256 0.212258,-0.06967 0.241813,-0.08247 0.02955,-0.0128 0.153386,-0.06537 0.27518,-0.116825 0.428001,-0.1808217 0.927836,-0.5348457 1.139605,-0.8071594 0.05861,-0.07537 0.124901,-0.15943 0.147313,-0.186806 0.102006,-0.1246007 0.231349,-0.3541337 0.286073,-0.5076687 0.06979,-0.195792 0.02729,-0.18753 0.522996,-0.101668 0.441119,0.07641 0.426196,0.06223 0.370707,0.352239 -0.09803,0.5123637 -0.369859,0.9859674 -0.757335,1.3195021 -0.05684,0.04893 -0.133544,0.116163 -0.170447,0.149408 -0.0369,0.03325 -0.105936,0.07888 -0.153409,0.101403 -0.04747,0.02253 -0.120144,0.06901 -0.161493,0.103289 -0.102114,0.08466 -0.414864,0.2512087 -0.787185,0.4191947 -0.447299,0.201816 -0.806531,0.388306 -1.074725,0.55793 -0.138731,0.08774 -0.518379,0.343 -0.577665,0.388396 -1.096123,0.8393 -1.619311,1.664561 -1.734163,2.735415 -0.04175,0.389258 0.06569,1.17915 0.20283,1.491182 0.01948,0.04433 0.06131,0.15229 0.09295,0.239907 0.264888,0.733589 0.984379,1.491174 1.507297,1.587103 0.177918,0.03264 0.17526,0.04614 -0.05395,0.274126 -0.119059,0.11842 -0.21647,0.228114 -0.21647,0.243763 0,0.01565 -0.01021,0.03248 -0.02269,0.03741 -0.08919,0.03521 -0.39167,0.59688 -0.500245,0.92891 -0.0962,0.294177 -0.07659,0.302469 -0.383052,-0.161978 z m 15.526494,-0.798276 c 0,-0.03694 0.0061,-0.05206 0.01355,-0.03359 0.0075,0.01847 0.0075,0.0487 0,0.06717 -0.0075,0.01847 -0.01355,0.0034 -0.01355,-0.03359 z M 5.7159537,7.3693872 c 0,-0.0139 0.01195,-0.03267 0.02656,-0.0417 0.01523,-0.0094 0.01974,0.0014 0.01056,0.02528 -0.01786,0.04655 -0.03712,0.05506 -0.03712,0.01641 z m 5.7716123,-4.023292 c 0.01939,-0.0078 0.04257,-0.0068 0.0515,0.0021 0.0089,0.0089 -0.0069,0.01528 -0.03526,0.01411 -0.0313,-0.0013 -0.03767,-0.0077 -0.01623,-0.01623 z"
       id="path4501" /></g></svg>
