<?xml version="1.0" encoding="UTF-8" standalone="no"?>
<svg
   width="128"
   height="128"
   viewBox="0 0 128 128"
   fill="none"
   version="1.1"
   id="svg6"
   sodipodi:docname="conflux.svg"
   inkscape:export-filename="..\Mainnet_128x128\chains\ethereumfair.svg"
   inkscape:export-xdpi="96"
   inkscape:export-ydpi="96"
   xml:space="preserve"
   xmlns:inkscape="http://www.inkscape.org/namespaces/inkscape"
   xmlns:sodipodi="http://sodipodi.sourceforge.net/DTD/sodipodi-0.dtd"
   xmlns="http://www.w3.org/2000/svg"
   xmlns:svg="http://www.w3.org/2000/svg"><defs
     id="defs10" /><sodipodi:namedview
     id="namedview8"
     pagecolor="#ffffff"
     bordercolor="#000000"
     borderopacity="0.25"
     inkscape:showpageshadow="2"
     inkscape:pageopacity="0.0"
     inkscape:pagecheckerboard="0"
     inkscape:deskcolor="#d1d1d1"
     showgrid="false" /><circle
     cx="64"
     cy="64"
     r="64"
     fill="#000"
     id="circle2"
     style="fill:#021637;fill-opacity:1" /><path
     d="m 48.973933,63.5338 c -4.649396,2.558231 -10.573228,1.562844 -13.892888,-2.547171 -1.320378,-1.634308 -2.106479,-3.573187 -2.149867,-5.52823 -0.04424,-2.003536 0.691666,-4.018133 1.993327,-5.73071 3.267764,-4.299734 9.329419,-5.421034 14.092817,-2.824519 l 15.16137,8.263419 -15.203908,8.368062 z M 78.627976,29.500901 c 4.763398,-2.596515 10.825904,-1.474364 14.092817,2.824519 1.30081,1.712577 2.036716,3.728024 1.993328,5.73071 -0.04339,1.955044 -0.82949,3.893923 -2.149867,5.528231 -3.319661,4.110866 -9.243493,5.106253 -13.892889,2.548022 L 63.467457,37.76432 Z M 103.89551,24.327438 C 95.96899,13.77718 81.263627,11.024125 69.707772,17.395456 L 44.290507,31.409153 c -7.882279,0.133569 -15.55357,3.682083 -20.541567,10.320554 -3.156315,4.201897 -4.942908,9.147357 -4.834862,14.06304 0.104644,4.797428 2.012895,9.555721 5.215151,13.566198 8.054982,10.086594 22.425147,12.530824 33.702803,6.251374 L 82.916651,61.644265 c 7.806561,0.04169 15.477852,-3.277122 20.597719,-9.688439 3.2031,-4.011327 5.1105,-8.76877 5.21515,-13.566198 0.10804,-4.916535 -1.6777,-9.861144 -4.83486,-14.063891"
     fill="#c7e351"
     id="path2067"
     style="stroke-width:0.850759" /><path
     d="m 49.3287,98.479562 c -4.649396,2.559078 -10.573229,1.562848 -13.89374,-2.547171 -1.319526,-1.635158 -2.106478,-3.574037 -2.149867,-5.52823 -0.04424,-2.003537 0.691667,-4.018133 1.993328,-5.73071 3.267764,-4.299734 9.329419,-5.421885 14.092817,-2.824519 L 64.532607,90.112351 49.3287,98.480413 Z M 78.983593,64.446664 c 4.763398,-2.596515 10.825053,-1.474365 14.092817,2.824519 1.30081,1.712577 2.037567,3.728024 1.993328,5.731561 -0.04339,1.955043 -0.82949,3.893922 -2.149867,5.528229 -3.320511,4.110015 -9.244344,5.106254 -13.892889,2.547172 L 63.823075,72.710083 78.984444,64.446664 Z M 104.25027,59.273201 C 96.323756,48.722092 81.619244,45.969888 70.063389,52.341219 L 44.646124,66.354916 c -7.881428,0.133569 -15.553569,3.682083 -20.540717,10.321404 -3.157165,4.201897 -4.943758,9.147356 -4.835712,14.063891 0.104644,4.797428 2.012044,9.554869 5.215151,13.566199 8.054132,10.08659 22.425147,12.53082 33.702803,6.25137 L 83.272268,96.591729 c 7.806561,0.04169 15.478702,-3.277123 20.597722,-9.68844 3.2031,-4.010476 5.1105,-8.768769 5.216,-13.565346 0.10719,-4.916534 -1.67855,-9.861994 -4.83572,-14.063891"
     fill="#74dd54"
     id="path2069"
     style="stroke-width:0.850759" /></svg>
