<?xml version="1.0" encoding="UTF-8" standalone="no"?>
<svg
   width="128"
   height="128"
   viewBox="0 0 128 128"
   fill="none"
   version="1.1"
   id="svg8"
   sodipodi:docname="godwoken.svg"
   inkscape:export-filename="..\Mainnet_128x128\chains\sxnetwork.png"
   inkscape:export-xdpi="96"
   inkscape:export-ydpi="96"
   xml:space="preserve"
   xmlns:inkscape="http://www.inkscape.org/namespaces/inkscape"
   xmlns:sodipodi="http://sodipodi.sourceforge.net/DTD/sodipodi-0.dtd"
   xmlns="http://www.w3.org/2000/svg"
   xmlns:svg="http://www.w3.org/2000/svg"><defs
     id="defs12"><clipPath
       clipPathUnits="userSpaceOnUse"
       id="clipPath3176"><path
         d="m 203.432,258.93 c -9.759,-19.596 -4.009,-31.482 11.978,-39.839 v 0 c 16.002,-8.38 35.489,-7.758 41.12,-13.999 v 0 c 1.998,-2.218 2.338,-4.219 1.935,-5.855 v 0 l 15.121,23.311 c -0.117,0.128 -0.198,0.181 -0.198,0.181 v 0 c -6.735,8.029 -24.362,13.927 -32.799,14.839 v 0 c -8.426,0.931 -23.615,6.944 -9.941,13.12 v 0 c 12.545,5.666 24.45,0.376 28.792,-2.081 v 0 c -0.042,0.044 -0.1,0.067 -0.143,0.094 v 0 l -17.269,27.236 -2.365,3.439 c 0,0 -26.496,-0.811 -36.231,-20.446"
         id="path3174" /></clipPath><linearGradient
       x1="0"
       y1="0"
       x2="1"
       y2="0"
       gradientUnits="userSpaceOnUse"
       gradientTransform="matrix(74.939453,0,0,-74.939453,198.64746,239.30566)"
       spreadMethod="pad"
       id="linearGradient3186"><stop
         style="stop-opacity:1;stop-color:#2269d6"
         offset="0"
         id="stop3182" /><stop
         style="stop-opacity:1;stop-color:#2333a3"
         offset="1"
         id="stop3184" /></linearGradient><clipPath
       clipPathUnits="userSpaceOnUse"
       id="clipPath3196"><path
         d="m 196.428,190.46 c 15.356,-19.602 37.48,-22.486 37.48,-22.486 v 0 c 1.33,-0.238 2.624,-0.422 3.895,-0.589 v 0 l 18.26,28.148 c -0.765,-0.698 -1.413,-1.07 -1.413,-1.07 v 0 c -25.748,-8.744 -37.108,12.246 -37.108,12.246 v 0 z"
         id="path3194" /></clipPath><linearGradient
       x1="0"
       y1="0"
       x2="1"
       y2="0"
       gradientUnits="userSpaceOnUse"
       gradientTransform="matrix(59.635254,0,0,-59.635254,196.42773,187.04687)"
       spreadMethod="pad"
       id="linearGradient3206"><stop
         style="stop-opacity:1;stop-color:#2269d6"
         offset="0"
         id="stop3202" /><stop
         style="stop-opacity:1;stop-color:#2333a3"
         offset="1"
         id="stop3204" /></linearGradient><clipPath
       clipPathUnits="userSpaceOnUse"
       id="clipPath3216"><path
         d="M 0,595.28 H 841.89 V 0 H 0 Z"
         id="path3214" /></clipPath><clipPath
       clipPathUnits="userSpaceOnUse"
       id="clipPath3232"><path
         d="m 258.559,199.237 c -0.392,-1.608 -1.482,-2.898 -2.396,-3.704 v 0 l -18.276,-28.148 c 10.924,-0.479 19.355,1.443 25.778,4.325 v 0 c 12.678,6.413 18.56,17.136 18.56,17.136 v 0 c 4.893,18.854 -6.902,31.972 -8.548,33.702 v 0 z"
         id="path3230" /></clipPath><linearGradient
       x1="0"
       y1="0"
       x2="1"
       y2="0"
       gradientUnits="userSpaceOnUse"
       gradientTransform="matrix(45.518555,0,0,-45.518555,237.88672,194.92969)"
       spreadMethod="pad"
       id="linearGradient3242"><stop
         style="stop-opacity:1;stop-color:#2269d6"
         offset="0"
         id="stop3238" /><stop
         style="stop-opacity:1;stop-color:#2333a3"
         offset="1"
         id="stop3240" /></linearGradient><clipPath
       clipPathUnits="userSpaceOnUse"
       id="clipPath3252"><path
         d="M 0,595.28 H 841.89 V 0 H 0 Z"
         id="path3250" /></clipPath><clipPath
       clipPathUnits="userSpaceOnUse"
       id="clipPath3264"><path
         d="m 263.891,243.817 47.367,-72.107 h 31.743 l -58.108,86.745 -5.745,6.742 z"
         id="path3262" /></clipPath><linearGradient
       x1="0"
       y1="0"
       x2="1"
       y2="0"
       gradientUnits="userSpaceOnUse"
       gradientTransform="matrix(79.109375,0,0,-79.109375,263.89111,218.45312)"
       spreadMethod="pad"
       id="linearGradient3274"><stop
         style="stop-opacity:1;stop-color:#5ed6ad"
         offset="0"
         id="stop3270" /><stop
         style="stop-opacity:1;stop-color:#059cc9"
         offset="1"
         id="stop3272" /></linearGradient><clipPath
       clipPathUnits="userSpaceOnUse"
       id="clipPath3284"><path
         d="M 0,595.28 H 841.89 V 0 H 0 Z"
         id="path3282" /></clipPath><clipPath
       clipPathUnits="userSpaceOnUse"
       id="clipPath3296"><path
         d="m 237.887,222.548 h 45.518 v -55.236 h -45.518 z"
         id="path3294" /></clipPath></defs><sodipodi:namedview
     id="namedview10"
     pagecolor="#ffffff"
     bordercolor="#000000"
     borderopacity="0.25"
     inkscape:showpageshadow="2"
     inkscape:pageopacity="0.0"
     inkscape:pagecheckerboard="0"
     inkscape:deskcolor="#d1d1d1"
     showgrid="false" /><circle
     style="fill:#ffffff;fill-opacity:1;stroke-width:0;stroke-linejoin:bevel;paint-order:stroke fill markers"
     id="path347"
     cx="64"
     cy="64"
     r="64" /><g
     id="g3170"
     transform="matrix(0.68225389,0,0,-0.68225389,-120.01377,216.37726)"><g
       id="g3172"
       clip-path="url(#clipPath3176)"><g
         id="g3178"><g
           id="g3180"><path
             d="m 203.432,258.93 c -9.759,-19.596 -4.009,-31.482 11.978,-39.839 v 0 c 16.002,-8.38 35.489,-7.758 41.12,-13.999 v 0 c 1.998,-2.218 2.338,-4.219 1.935,-5.855 l 3e-5,6e-5 15.12047,23.31097 c -0.117,0.128 -0.1975,0.18097 -0.1975,0.18097 v 0 c -6.735,8.029 -24.362,13.927 -32.799,14.839 v 0 c -8.426,0.931 -23.615,6.944 -9.941,13.12 v 0 c 9.14229,3.52768 20.68092,2.37039 28.649,-1.987 l 5.6e-4,5e-5 -17.26956,27.23595 -2.36536,3.43885 c 0,0 -26.49564,-0.81085 -36.23064,-20.44585"
             style="fill:url(#linearGradient3186);stroke:none"
             id="path3188"
             sodipodi:nodetypes="cssssscccsssscccccc" /></g></g></g></g><g
     id="g3190"
     transform="matrix(0.68225389,0,0,-0.68225389,-120.01377,216.37726)"><g
       id="g3192"
       clip-path="url(#clipPath3196)"><g
         id="g3198"><g
           id="g3200"><path
             d="m 196.428,190.46 c 15.356,-19.602 37.48,-22.486 37.48,-22.486 v 0 c 1.33,-0.238 2.61308,-0.58868 3.895,-0.58872 h 0.0832 l 18.17682,28.14772 c -0.765,-0.698 -1.413,-1.07 -1.413,-1.07 v 0 c -25.748,-8.744 -37.108,12.246 -37.108,12.246 v 0 z"
             style="fill:url(#linearGradient3206);stroke:none"
             id="path3208"
             sodipodi:nodetypes="ccsscccsccc" /></g></g></g></g><g
     id="g3210"
     transform="matrix(0.68225389,0,0,-0.68225389,-120.01377,216.37726)"><g
       id="g3212"
       clip-path="url(#clipPath3216)"><g
         id="g3222"
         transform="translate(237.8037,167.3848)"><path
           d="M 0,0 Z"
           style="fill:none;stroke:#c1272d;stroke-width:1;stroke-linecap:butt;stroke-linejoin:miter;stroke-miterlimit:10;stroke-dasharray:none;stroke-opacity:1"
           id="path3224" /></g></g></g><g
     id="g3226"
     transform="matrix(0.68225389,0,0,-0.68225389,-120.01377,216.37726)"><g
       id="g3228"
       clip-path="url(#clipPath3232)"><g
         id="g3234"><g
           id="g3236"><path
             d="m 258.46503,199.23706 c -0.392,-1.608 -1.38803,-2.89806 -2.30203,-3.70406 v 0 l -18.36037,-28.14772 c 10.924,-0.479 19.43937,1.44272 25.86237,4.32472 v 0 c 12.678,6.413 18.47093,17.05503 18.47093,17.05503 l 0.34818,1.56274 C 286.72003,209.34018 275.323,220.818 273.677,222.548 v 0 z"
             style="fill:url(#linearGradient3242);stroke:none"
             id="path3244"
             sodipodi:nodetypes="csccsscsscc" /></g></g></g></g><g
     id="g3246"
     transform="matrix(0.68225389,0,0,-0.68225389,-120.01377,216.37726)"><g
       id="g3248"
       clip-path="url(#clipPath3252)"><g
         id="g3254"
         transform="translate(238.9067,279.376)"><path
           d="M 0.7559423,-1.5063694e-4 20.390861,-30.674948 24.984,-35.559 40.242,-14.18 C 30.111,-1.187 0.98478735,-0.00572551 0.98478735,-0.00572551"
           style="display:inline;fill:#5ed6ad;fill-opacity:1;fill-rule:nonzero;stroke:none"
           id="path3256"
           sodipodi:nodetypes="ccccc" /></g></g></g><g
     id="g3258"
     transform="matrix(0.68225389,0,0,-0.68225389,-120.01377,216.37726)"><g
       id="g3260"
       clip-path="url(#clipPath3264)"><g
         id="g3266"><g
           id="g3268"><path
             d="m 263.891,243.817 47.367,-72.107 h 31.743 l -58.17671,85.98923 -5.67629,7.49777 z"
             style="fill:url(#linearGradient3274);stroke:none"
             id="path3276"
             sodipodi:nodetypes="cccccc" /></g></g></g></g><g
     id="g3278"
     transform="matrix(0.68225389,0,0,-0.68225389,-120.01377,216.37726)"><g
       id="g3280"
       clip-path="url(#clipPath3284)"><g
         id="g3286"
         transform="translate(307.7578,275.1846)"><path
           d="m 0,0 -34.170837,-52.636569 c 1.654,-1.73 13.441837,-14.847431 8.549837,-33.702431 L 31.738,0 Z"
           style="fill:#4bc5a7;fill-opacity:1;fill-rule:nonzero;stroke:none"
           id="path3288"
           sodipodi:nodetypes="ccccc" /></g><g
         id="g3290"><g
           id="g3292" /><g
           id="g3304"><g
             clip-path="url(#clipPath3296)"
             opacity="0.5"
             id="g3302"><g
               transform="translate(273.6772,222.5479)"
               id="g3300"><path
                 d="M -0.09023665,1.3120287e-4 -15.212173,-23.310839 C -15.604173,-24.917839 -16.6,-26.209 -17.515,-27.015 l -18.276022,-28.147618 c 10.925,-0.479 19.355022,1.442618 25.778022,4.324618 12.679,6.413 18.561,17.136 18.561,17.136 4.892,18.854 -6.9937024,31.9721312 -8.63970238,33.70213120287"
                 style="display:inline;fill:#59d1af;fill-opacity:1;fill-rule:nonzero;stroke:none"
                 id="path3298"
                 sodipodi:nodetypes="ccccccc" /></g></g></g></g></g></g></svg>
