<?xml version="1.0" encoding="UTF-8" standalone="no"?>
<!-- Created with Inkscape (http://www.inkscape.org/) -->

<svg
   width="127.99999"
   height="127.99999"
   viewBox="0 0 33.866664 33.866664"
   version="1.1"
   id="svg474"
   xml:space="preserve"
   inkscape:export-filename="proofofmemes.svg"
   inkscape:export-xdpi="96"
   inkscape:export-ydpi="96"
   xmlns:inkscape="http://www.inkscape.org/namespaces/inkscape"
   xmlns:sodipodi="http://sodipodi.sourceforge.net/DTD/sodipodi-0.dtd"
   xmlns="http://www.w3.org/2000/svg"
   xmlns:svg="http://www.w3.org/2000/svg"><sodipodi:namedview
     id="namedview476"
     pagecolor="#ffffff"
     bordercolor="#000000"
     borderopacity="0.25"
     inkscape:showpageshadow="2"
     inkscape:pageopacity="0.0"
     inkscape:pagecheckerboard="0"
     inkscape:deskcolor="#d1d1d1"
     inkscape:document-units="mm"
     showgrid="false" /><defs
     id="defs471"><clipPath
       clipPathUnits="userSpaceOnUse"
       id="clipPath18712"><g
         id="g18716"><path
           fill="#ffffff"
           d="M 6.1950674,6.1112246 H 27.671467 V 27.587624 H 6.1950674 Z"
           id="path18714"
           style="stroke-width:0.167784" /></g></clipPath><clipPath
       clipPathUnits="userSpaceOnUse"
       id="clipPath18718"><g
         id="g18722"><path
           fill="#ffffff"
           d="M 6.1950674,6.1112246 H 27.671467 V 27.587624 H 6.1950674 Z"
           id="path18720"
           style="stroke-width:0.167784" /></g></clipPath><clipPath
       clipPathUnits="userSpaceOnUse"
       id="clipPath18724"><g
         id="g18728"><path
           fill="#ffffff"
           d="M 6.1950674,6.1112246 H 27.671467 V 27.587624 H 6.1950674 Z"
           id="path18726"
           style="stroke-width:0.167784" /></g></clipPath><clipPath
       clipPathUnits="userSpaceOnUse"
       id="clipPath18730"><g
         id="g18734"><path
           fill="#ffffff"
           d="M 6.1950674,6.1112246 H 27.671467 V 27.587624 H 6.1950674 Z"
           id="path18732"
           style="stroke-width:0.167784" /></g></clipPath></defs><g
     inkscape:label="Layer 1"
     inkscape:groupmode="layer"
     id="layer1"><circle
       style="fill:#1f5fff;fill-opacity:1;stroke-width:0;stroke-linejoin:bevel;paint-order:stroke fill markers"
       id="path647"
       cx="16.933332"
       cy="16.933332"
       r="16.933332" /><g
       id="g18748"><path
         d="m 112.52517,107.80271 a 66.261552,66.259421 0 0 1 -11.74927,8.10593 c 0.79902,-0.634 -1.715039,-3.26597 -0.939033,-3.94696 18.986453,-16.448861 23.310553,-37.760674 15.650383,-56.393512 -1.03403,-2.513977 1.15103,-3.524971 1.15103,-5.85095 17.6704,16.471856 15.79036,40.884649 -4.11211,58.085492 z"
         id="path17672-0"
         style="display:inline;fill:#ffffff;fill-opacity:1;stroke-width:1.00001"
         transform="matrix(0.16778437,0,0,0.16778437,6.1950674,6.1112247)" /><path
         d="M 25.796476,14.441047 C 24.50051,13.282664 22.939444,12.460689 21.250862,12.047939 v 0 c 0.646641,0.169462 0.693956,0.914593 1.139424,1.293114 0.950163,0.788587 1.206537,1.833212 1.305027,3.197299 0.145972,2.0265 0.134059,4.029174 -1.344289,5.815239 a 7.9999588,7.9999588 0 0 1 -2.917434,2.286565 l -0.271979,0.110402 c -0.01309,0.0023 -0.02634,0.0023 -0.03943,0 -0.601171,0.239428 -1.22449,0.418958 -1.860896,0.536239 -2.396968,0.453353 -5.574636,0.264092 -9.414717,-0.958049 2.899146,2.254854 6.573792,3.26844 10.218907,2.818945 0.260234,-0.02768 0.512581,-0.06711 0.764761,-0.110402 0.983384,-0.171308 1.945628,-0.447481 2.87012,-0.823989 a 12.499936,12.499936 0 0 0 1.407375,-0.670298 c 0.13406,-0.106376 0.268119,-0.216778 0.394293,-0.331207 3.642767,-3.126326 4.462897,-7.392076 2.294452,-10.77075 z"
         id="path17674"
         style="fill:#ffffff;fill-opacity:1;fill-rule:evenodd;stroke-width:0.167784"
         clip-path="url(#clipPath18730)" /><path
         d="m 19.161276,24.750558 c 4.502326,-1.825326 4.731016,-6.465571 -0.473152,-9.067738 -3.792598,-1.896299 -2.116936,-4.908364 2.562738,-3.626995 5.231685,1.368114 3.686223,10.475281 -2.089586,12.694733 z M 26.143455,9.5444284 C 21.207406,7.9674231 17.379238,8.1093687 14.867841,9.1185916 h -0.03943 c -3.733538,1.5375764 -4.529842,4.9872224 -1.691266,7.6247934 -0.74899,-0.618957 -1.600663,-1.28137 -1.971299,-2.117104 A 6.4227857,6.4227857 0 0 1 10.74001,11.113548 5.17447,5.17447 0 0 1 11.684972,8.9400691 5.1761478,5.1761478 0 0 1 13.499728,7.4155803 8.1727767,8.1727767 0 0 1 15.912467,6.7216241 13.833821,13.833821 0 0 1 26.143455,9.5444284 Z"
         id="path17676"
         style="fill:#ffffff;fill-opacity:1;fill-rule:evenodd;stroke-width:0.167784"
         clip-path="url(#clipPath18724)" /><path
         d="M 13.973047,22.08933 C 13.649727,21.982955 13.283118,21.93564 12.983455,21.813325 9.1710588,20.279776 7.1366733,17.429455 7.2076461,14.614369 7.2628471,12.615553 8.4338142,10.589054 10.361657,8.921445 a 13.135838,13.135838 0 0 1 1.919956,-1.2615707 v 0 c 0.923989,-0.3770114 1.8864,-0.6518422 2.87012,-0.8199622 0.256206,-0.047315 0.51644,-0.082718 0.788586,-0.1142611 -0.297985,0.043456 -0.59295,0.1053685 -0.883049,0.1852339 -4.936048,1.3404293 -5.2278254,7.0964401 -1.908212,9.8561571 a 9.4378708,9.4378708 0 0 0 2.172305,1.462744 c 3.445787,1.703179 2.37331,4.34075 -1.348316,3.859712 z"
         id="path17678"
         style="fill:#ffffff;fill-opacity:1;fill-rule:evenodd;stroke-width:0.167784"
         clip-path="url(#clipPath18718)" /><path
         d="M 13.973047,22.08933 A 8.8942495,8.8942495 0 0 1 12.750906,21.836982 C 5.4415478,19.842026 4.3692379,13.632662 8.910993,9.6862062 a 12.072085,12.072085 0 0 1 3.366761,-2.0263319 12.196246,12.196246 0 0 0 -1.813581,1.297141 C 5.6267817,13.159678 6.5886895,19.696389 13.973047,22.08933 Z"
         id="path17680"
         style="fill:#ffffff;fill-opacity:1;fill-rule:evenodd;stroke-width:0.167784"
         clip-path="url(#clipPath18712)" /></g></g></svg>
