<?xml version="1.0" encoding="UTF-8" standalone="no"?>
<!-- Created with Inkscape (http://www.inkscape.org/) -->

<svg
   width="127.99999"
   height="127.99999"
   viewBox="0 0 33.866664 33.866664"
   version="1.1"
   id="svg474"
   xml:space="preserve"
   inkscape:export-filename="syscoin.svg"
   inkscape:export-xdpi="96"
   inkscape:export-ydpi="96"
   sodipodi:docname="syscoin.svg"
   xmlns:inkscape="http://www.inkscape.org/namespaces/inkscape"
   xmlns:sodipodi="http://sodipodi.sourceforge.net/DTD/sodipodi-0.dtd"
   xmlns="http://www.w3.org/2000/svg"
   xmlns:svg="http://www.w3.org/2000/svg"><sodipodi:namedview
     id="namedview476"
     pagecolor="#ffffff"
     bordercolor="#000000"
     borderopacity="0.25"
     inkscape:showpageshadow="2"
     inkscape:pageopacity="0.0"
     inkscape:pagecheckerboard="0"
     inkscape:deskcolor="#d1d1d1"
     inkscape:document-units="mm"
     showgrid="false" /><defs
     id="defs471" /><g
     inkscape:label="Layer 1"
     inkscape:groupmode="layer"
     id="layer1"><circle
       style="fill:#1f5fff;fill-opacity:1;stroke-width:0;stroke-linejoin:bevel;paint-order:stroke fill markers"
       id="path647"
       cx="16.933332"
       cy="16.933332"
       r="16.933332" /><path
       d="m 25.342305,24.496551 a 11.573139,11.573139 0 0 1 -2.052111,1.415816 c 0.139556,-0.110736 -0.299546,-0.570448 -0.164007,-0.689394 3.316142,-2.873023 4.071383,-6.595432 2.733468,-9.849919 -0.1806,-0.439101 0.201037,-0.615685 0.201037,-1.02195 3.086287,2.877041 2.757921,7.141078 -0.718213,10.145447 z"
       id="path403"
       style="fill:#ffffff;fill-opacity:1;stroke-width:0.174662" /><path
       d="M 26.093354,14.338877 C 24.744261,13.133007 23.1192,12.277335 21.361396,11.847666 v 0 c 0.67315,0.176409 0.722405,0.952085 1.186134,1.346124 0.989113,0.820914 1.255997,1.908362 1.358524,3.328369 0.151957,2.109574 0.139557,4.194347 -1.399396,6.053629 a 8.3279096,8.3279096 0 0 1 -3.037032,2.380301 l -0.283127,0.114929 c -0.01363,0.0024 -0.02742,0.0024 -0.04105,0 -0.625816,0.249242 -1.274687,0.436131 -1.937182,0.55822 -2.495229,0.471938 -5.803163,0.274919 -9.8006645,-0.997323 3.0179945,2.347291 6.8432785,3.402427 10.6378225,2.934506 0.270901,-0.02883 0.533594,-0.06987 0.796111,-0.114929 1.023697,-0.17833 2.025387,-0.465824 2.987778,-0.857767 a 13.012359,13.012359 0 0 0 1.465069,-0.697777 c 0.139556,-0.110736 0.279111,-0.225663 0.410457,-0.344784 3.792098,-3.254487 4.645849,-7.695107 2.38851,-11.212287 z"
       id="path405"
       style="fill:#ffffff;fill-opacity:1;stroke-width:0.174662" /><path
       d="m 19.186149,25.071018 c 4.686895,-1.900154 4.924959,-6.730621 -0.492549,-9.439463 -3.948071,-1.974036 -2.203717,-5.109578 2.667796,-3.77568 5.446153,1.424198 3.837336,10.904707 -2.175247,13.215143 z M 26.454555,9.2415259 C 21.316159,7.5998728 17.331058,7.7476372 14.716709,8.7982324 h -0.04105 C 10.789068,10.39884 9.9601194,13.989902 12.91506,16.735598 12.135367,16.091267 11.24878,15.401699 10.86295,14.531705 A 6.686082,6.686082 0 0 1 10.419657,10.87497 5.3865926,5.3865926 0 0 1 11.403356,8.6123915 5.3883391,5.3883391 0 0 1 13.292506,7.0254076 8.5078121,8.5078121 0 0 1 15.804153,6.3030034 14.400926,14.400926 0 0 1 26.45455,9.2415259 Z"
       id="path407"
       style="fill:#ffffff;fill-opacity:1;stroke-width:0.174662" /><path
       d="m 13.785234,22.300694 c -0.336575,-0.110736 -0.718212,-0.159991 -1.03016,-0.28732 -3.9686817,-1.596415 -6.086465,-4.563582 -6.0125827,-7.49407 0.057464,-2.080755 1.2764339,-4.190329 3.2833067,-5.9263 a 13.67433,13.67433 0 0 1 1.998663,-1.3132876 v 0 c 0.961867,-0.3924668 1.963731,-0.6785641 2.987777,-0.8535759 0.26671,-0.049255 0.537612,-0.086109 0.820914,-0.1189452 -0.3102,0.045238 -0.617257,0.1096881 -0.919249,0.1928275 C 9.7755061,7.8954017 9.471768,13.887374 12.927466,16.760224 a 9.8247674,9.8247674 0 0 0 2.261356,1.522708 c 3.587045,1.772999 2.470601,4.518695 -1.403588,4.017937 z"
       id="path409"
       style="fill:#ffffff;fill-opacity:1;stroke-width:0.174662" /><path
       d="M 13.785234,22.300694 A 9.2588608,9.2588608 0 0 1 12.512992,22.038002 C 4.9039935,19.961265 3.7877252,13.497353 8.5156654,9.3891158 A 12.56697,12.56697 0 0 1 12.020444,7.2797164 12.696219,12.696219 0 0 0 10.132516,8.6300324 C 5.0968209,13.004979 6.0981612,19.809658 13.785234,22.300694 Z"
       id="path411"
       style="fill:#ffffff;fill-opacity:1;stroke-width:0.174662" /></g></svg>
