<?xml version="1.0" encoding="UTF-8" standalone="no"?>
<svg
   width="128"
   height="128"
   fill="none"
   viewBox="0 0 128 128"
   version="1.1"
   id="svg12428"
   sodipodi:docname="thundercore.svg"
   inkscape:export-filename="..\Mainnet_128x128\chains\thundercore.png"
   inkscape:export-xdpi="96"
   inkscape:export-ydpi="96"
   xmlns:inkscape="http://www.inkscape.org/namespaces/inkscape"
   xmlns:sodipodi="http://sodipodi.sourceforge.net/DTD/sodipodi-0.dtd"
   xmlns="http://www.w3.org/2000/svg"
   xmlns:svg="http://www.w3.org/2000/svg">
  <sodipodi:namedview
     id="namedview12430"
     pagecolor="#ffffff"
     bordercolor="#000000"
     borderopacity="0.25"
     inkscape:showpageshadow="2"
     inkscape:pageopacity="0.0"
     inkscape:pagecheckerboard="0"
     inkscape:deskcolor="#d1d1d1"
     showgrid="false" />
  <path
     d="m 27.355,60.112 a 2.87,2.87 0 0 0 -0.428,1.431 c -0.014,0.507 0.105,1.009 0.347,1.453 0.242,0.444 0.596,0.815 1.026,1.073 0.43,0.258 0.921,0.395 1.421,0.395 h 31.951 c 0.24,-0.001 0.475,0.063 0.682,0.186 a 1.35,1.35 0 0 1 0.494,0.512 c 0.117,0.212 0.175,0.453 0.169,0.696 a 1.37,1.37 0 0 1 -0.203,0.687 l -31.36,50.951 c -0.078,0.131 -0.181,0.245 -0.304,0.335 -0.123,0.09 -0.262,0.153 -0.409,0.186 a 1.09,1.09 0 0 1 -0.448,0.009 c -0.148,-0.027 -0.29,-0.085 -0.416,-0.17 C 18.579,110.449 9.906,99.575 5.124,86.816 0.342,74.057 -0.299,60.083 3.293,46.928 6.885,33.773 14.522,22.127 25.093,13.686 35.664,5.245 48.614,0.45 62.057,0 a 1.1,1.1 0 0 1 0.568,0.149 1.12,1.12 0 0 1 0.414,0.422 1.14,1.14 0 0 1 -0.021,1.149 z m 72.054,-49.16 c -0.124,-0.088 -0.264,-0.148 -0.413,-0.178 a 1.09,1.09 0 0 0 -0.449,0.003 c -0.148,0.032 -0.288,0.095 -0.41,0.184 a 1.12,1.12 0 0 0 -0.305,0.335 l -30.879,50.2 a 1.38,1.38 0 0 0 -0.203,0.685 c -0.006,0.242 0.052,0.482 0.167,0.694 a 1.35,1.35 0 0 0 0.491,0.512 c 0.206,0.123 0.441,0.188 0.679,0.189 h 31.951 a 2.77,2.77 0 0 1 1.421,0.396 c 0.43,0.258 0.784,0.629 1.026,1.073 a 2.88,2.88 0 0 1 -0.082,2.883 l -36.121,58.703 a 0.91,0.91 0 0 0 -0.133,0.461 c -0.002,0.163 0.04,0.324 0.121,0.464 a 0.89,0.89 0 0 0 0.34,0.335 c 0.141,0.078 0.301,0.115 0.461,0.108 13.235,-0.651 25.933,-5.512 36.295,-13.894 10.362,-8.382 17.861,-19.86 21.437,-32.808 A 64.96,64.96 0 0 0 123.288,41.962 C 118.727,29.337 110.368,18.487 99.393,10.952 Z"
     fill="url(#A)"
     id="path12407"
     style="fill:url(#A)" />
  <defs
     id="defs12426">
    <linearGradient
       id="A"
       x1="55.466999"
       y1="26.416"
       x2="78.268997"
       y2="122.956"
       gradientUnits="userSpaceOnUse">
      <stop
         offset=".18"
         stop-color="#00ffd5"
         id="stop12409" />
      <stop
         offset=".23"
         stop-color="#00f8d5"
         id="stop12411" />
      <stop
         offset=".31"
         stop-color="#00e4d5"
         id="stop12413" />
      <stop
         offset=".4"
         stop-color="#00c3d5"
         id="stop12415" />
      <stop
         offset=".51"
         stop-color="#0096d5"
         id="stop12417" />
      <stop
         offset=".62"
         stop-color="#005cd5"
         id="stop12419" />
      <stop
         offset=".74"
         stop-color="#0016d5"
         id="stop12421" />
      <stop
         offset=".78"
         stop-color="#0000d5"
         id="stop12423" />
    </linearGradient>
  </defs>
</svg>
