<?xml version="1.0" encoding="UTF-8" standalone="no"?>
<!-- Created with Inkscape (http://www.inkscape.org/) -->

<svg
   width="127.99999"
   height="127.99999"
   viewBox="0 0 33.866664 33.866664"
   version="1.1"
   id="svg474"
   xml:space="preserve"
   inkscape:export-filename="tombchain.png"
   inkscape:export-xdpi="96"
   inkscape:export-ydpi="96"
   xmlns:inkscape="http://www.inkscape.org/namespaces/inkscape"
   xmlns:sodipodi="http://sodipodi.sourceforge.net/DTD/sodipodi-0.dtd"
   xmlns="http://www.w3.org/2000/svg"
   xmlns:svg="http://www.w3.org/2000/svg"><sodipodi:namedview
     id="namedview476"
     pagecolor="#ffffff"
     bordercolor="#000000"
     borderopacity="0.25"
     inkscape:showpageshadow="2"
     inkscape:pageopacity="0.0"
     inkscape:pagecheckerboard="0"
     inkscape:deskcolor="#d1d1d1"
     inkscape:document-units="mm"
     showgrid="false" /><defs
     id="defs471" /><g
     inkscape:label="Layer 1"
     inkscape:groupmode="layer"
     id="layer1"><circle
       style="fill:#16072b;fill-opacity:1;stroke-width:0;stroke-linejoin:bevel;paint-order:stroke fill markers"
       id="path647"
       cx="16.933332"
       cy="16.933332"
       r="16.933332" /><g
       id="g972"
       transform="translate(0,-0.52916667)"><path
         d="m 9.635883,22.547877 c 0.09769,-1.424274 0.06977,-2.88917 0.244253,-4.347357 0.09769,-0.793452 0.272169,-1.580194 0.341952,-2.373719 0.0907,-1.085088 -0.02084,-2.170251 -0.04885,-3.262196 -0.007,-0.318692 -0.04189,-0.637458 0.04186,-0.956225 0.04186,-0.162774 0.104676,-0.332331 0.279127,-0.366242 0.300084,-0.06782 0.216337,-0.230597 0.15352,-0.406936 -0.0698,-0.196687 -0.132591,-0.393372 -0.209351,-0.583275 -0.418712,-0.9969191 -0.06282,-1.8921781 0.446624,-2.7331792 0.432664,-0.7188459 0.997923,-1.3631613 1.591097,-1.966783 0.662956,-0.6782266 1.48642,-1.0173399 2.456455,-1.0309046 0.181408,0 0.36289,-0.00679 0.551301,-0.020338 0.0907,-0.00679 0.181408,-0.00679 0.279126,-0.013578 0.08377,-0.00679 0.174479,0 0.258169,-0.013577 0.02789,-0.00679 0.05583,-0.013578 0.08377,-0.020338 0.04882,0 0.09772,0.013577 0.139606,0.013577 0.104647,0.013578 0.202337,0.027127 0.307064,0.047476 0.202366,0.033913 0.404701,0.067822 0.607126,0.1085153 0.404701,0.074606 0.802469,0.1695575 1.200237,0.2712898 0.216366,0.054259 0.432724,0.1152984 0.635073,0.2170335 0.369895,0.196687 0.635075,0.5290166 0.990956,0.7460493 0.244225,0.149211 0.516422,0.2373799 0.739714,0.4137182 0.251239,0.1966871 0.411707,0.4747588 0.565239,0.7528316 0.167465,0.2983452 0.335014,0.596765 0.446661,0.9223139 0.02789,0.081389 0.05583,0.1695574 0.07676,0.2509432 0.08369,0.3458956 0.125577,0.6985739 0.167464,1.0512519 0.04189,0.345896 0.0907,0.698499 0.209352,1.0308301 0.02789,0.08139 0.06282,0.162774 0.09772,0.24416 0.0138,0.03391 0.03487,0.06782 0.04189,0.101735 0,0.04748 -0.007,0.09495 -0.007,0.142428 -0.007,1.024122 -0.09772,2.041388 -0.118647,3.06551 -0.03487,1.654799 -0.153521,3.309672 -0.341946,4.957689 -0.03487,0.291637 0.007,0.576492 0.07676,0.854565 0.202366,0.827436 0.265183,1.654798 0.139605,2.509363 -0.104704,0.71892 -0.104704,1.458113 -0.15352,2.190599 -0.02085,0.325549 -0.202366,0.461194 -0.53036,0.467977 -0.383831,0.0068 -0.732782,-0.149211 -1.116615,-0.156 -0.53729,-0.01352 -1.053709,0.108507 -1.577136,0.162789 -0.879235,0.08138 -1.730671,-0.07462 -2.595971,-0.176338 -0.153521,-0.01352 -0.300059,-0.08138 -0.453591,-0.07462 -0.160535,0 -0.31407,0.0068 -0.474534,0 -0.07676,-0.0068 -0.153521,-0.0068 -0.23031,-0.02704 -0.04882,-0.01352 -0.08377,-0.03392 -0.132591,-0.0407 -0.209352,-0.02028 -0.418712,-0.02028 -0.628067,-0.03392 -0.209352,-0.0068 -0.418712,-0.02028 -0.628067,-0.02704 -0.418712,-0.02028 -0.844401,-0.03392 -1.263113,-0.04746 -0.418704,-0.01352 -0.84439,-0.02704 -1.263103,-0.0407 -0.104675,0 -0.209351,-0.0068 -0.314036,-0.0068 -0.09769,0 -0.209351,-0.02028 -0.307056,-0.0068 -0.02789,0.0068 -0.05583,0.02028 -0.07676,0.02704 -0.09769,0.02704 -0.216338,0.01352 -0.314033,-0.0068 -0.307051,-0.08138 -0.383817,-0.400154 -0.390791,-0.671444 -0.007,-0.183042 0.01408,-0.366168 0.02085,-0.549289 -0.01409,-0.183127 -0.01409,-0.366242 -0.01409,-0.590059 z"
         fill="#6b00fa"
         stroke="#362745"
         stroke-width="0.372653"
         stroke-miterlimit="10"
         id="path2" /><path
         d="m 22.511137,28.238052 c -0.05583,0.352678 -0.007,0.75283 -0.111718,1.132564 -0.0418,0.149211 -0.07676,0.291637 -0.244225,0.352676 -0.16045,0.05425 -0.272112,-0.01352 -0.348875,-0.149211 -0.05583,-0.09496 -0.153521,-0.08817 -0.251239,-0.09496 -0.788608,-0.04746 -1.577139,-0.09496 -2.35874,-0.135633 -2.693678,-0.135578 -5.380432,-0.271211 -8.074141,-0.406862 -0.753672,-0.03391 -1.507352,-0.05425 -2.261036,-0.09496 -0.202366,-0.01352 -0.607131,0 -0.655979,-0.264507 -0.01408,-0.08138 -0.06282,-0.149211 -0.08375,-0.230591 -0.04885,-0.169549 -0.05583,-0.352678 -0.05583,-0.529016 -0.01408,-0.406938 -0.02084,-0.820655 -0.0349,-1.22759 0,-0.06783 0,-0.135577 -0.007,-0.20338 0,-0.04746 -0.01408,-0.07462 -0.0349,-0.108507 -0.04885,-0.101746 -0.007,-0.217042 0.06282,-0.298422 0.09073,-0.108507 0.216337,-0.156 0.34892,-0.101746 0.432673,0.156 0.886272,0.122084 1.325919,0.149211 2.06564,0.115295 4.138256,0.203464 6.21085,0.298422 1.884203,0.08817 3.7614,0.183042 5.645603,0.277999 0.649011,0.03392 0.900252,0.291639 0.900252,0.929171 0,0.223831 0.0138,0.44763 0.02789,0.705357 z"
         fill="#4300bf"
         stroke="#362745"
         stroke-width="0.372653"
         stroke-miterlimit="10"
         id="path4" /><path
         d="m 16.502645,24.609612 c -0.634999,-0.02028 -1.277004,-0.04747 -1.90507,-0.135633 -0.404791,-0.06104 -0.795582,-0.149211 -1.200337,-0.203465 -0.432669,-0.05425 -0.879294,-0.06104 -1.311958,-0.06783 -0.662963,-0.01352 -1.339877,-0.02028 -1.981896,0.135634 -0.642022,0.156 -1.270088,0.501813 -1.612034,1.057959 0.607126,0.434064 1.402677,0.488323 2.156357,0.529016 0.460577,0.02704 0.921159,0.04747 1.381742,0.07462 3.398541,0.183126 6.797055,0.366241 10.195568,0.373024 -0.104648,-0.311985 -0.209352,-0.630751 -0.321005,-0.942733 -0.09772,-0.278085 -0.237239,-0.603622 -0.572245,-0.671447 -0.111633,-0.02028 -0.223295,0 -0.334937,0.0068 -0.195408,0 -0.397769,-0.01352 -0.593188,-0.02028 -0.830418,-0.02704 -1.667843,-0.06096 -2.498261,-0.08808 -0.467602,-0.01352 -0.935131,-0.03392 -1.402736,-0.04747 z"
         fill="#6b00fa"
         stroke="#362745"
         stroke-width="0.372653"
         stroke-miterlimit="10"
         id="path6" /><path
         d="m 24.227721,24.039903 c 0.104648,-0.05425 0.223295,-0.108507 0.286123,-0.203464 0.06276,-0.09496 0.06977,-0.210254 0.07676,-0.318769 0.02789,-0.447627 0.05583,-0.888401 0.08369,-1.336032 0.03487,-0.501886 0.06282,-1.003776 0.05583,-1.505662 -0.007,-0.47476 -0.05583,-0.949444 -0.02789,-1.417421 0.02789,-0.434064 0.118648,-0.861348 0.167465,-1.295412 0.174479,-1.532717 -0.195408,-3.079074 -0.125577,-4.618574 0.02789,-0.569711 0.118591,-1.139421 0.153464,-1.715839 C 25.002294,10.075591 24.723196,8.4953968 24.095121,7.0643387 24.03929,6.9422571 23.983459,6.8201785 23.878755,6.7387898 23.73915,6.6302745 23.550747,6.6167083 23.397215,6.5285394 23.180942,6.3996737 23.09717,6.142022 22.978517,5.9182071 22.685464,5.3620615 22.127158,4.9822544 21.520032,4.772004 20.912909,4.5617539 20.270901,4.5007134 19.635829,4.439673 19.189244,4.3989801 18.742583,4.3582844 18.295997,4.3108112 c -0.216366,-0.020338 -0.53036,0.047476 -0.495478,0.2577264 0.642005,0.4679765 1.381719,0.8070898 2.058603,1.2275903 0.676959,0.4205005 1.318964,0.956225 1.639966,1.6751454 0.139606,0.305202 0.209352,0.6375331 0.279183,0.9698642 0.209352,0.9494424 0.411706,1.8989605 0.460523,2.8688245 0.03487,0.705281 -0.0138,1.417419 -0.06276,2.129557 -0.06282,0.929171 -0.104704,1.865049 -0.146592,2.794219 -0.0418,0.929171 -0.06975,1.865047 -0.08369,2.794218 -0.02084,0.935953 -0.02789,1.86505 -0.02084,2.794221 0,0.467977 0.007,0.935951 0.0138,1.397071 0,0.230591 0.007,0.467977 0.0138,0.698574 0.007,0.217042 -0.0138,0.454413 0.01408,0.678227 0.04882,0.332332 0.432651,0.284856 0.669878,0.183126 0.432726,-0.183126 0.851436,-0.400154 1.284086,-0.603621 0.07676,-0.02704 0.230309,-0.135634 0.307064,-0.135634 z"
         fill="#4300bf"
         stroke="#362745"
         stroke-width="0.372653"
         stroke-miterlimit="10"
         id="path8" /><path
         d="m 22.406349,26.291615 c 0.02789,0.04746 0.06282,0.101747 0.118648,0.101747 0.03487,0 0.06977,-0.02028 0.09772,-0.03392 0.321002,-0.210253 0.586182,-0.495106 0.935058,-0.651097 0.237295,-0.108507 0.495478,-0.149211 0.739714,-0.230592 0.348952,-0.115295 0.663024,-0.311985 0.977021,-0.501886 0.111634,-0.06783 0.237295,-0.169549 0.216366,-0.298422 -0.007,-0.04746 -0.03487,-0.08817 -0.06282,-0.122085 -0.174479,-0.230591 -0.383833,-0.427283 -0.621061,-0.590058 -0.0489,-0.03392 -0.09772,-0.06096 -0.153549,-0.06775 -0.06983,-0.0068 -0.139605,0.02704 -0.202422,0.0542 -0.509416,0.244168 -1.011827,0.488323 -1.514311,0.739266 -0.251239,0.122085 -0.502483,0.25093 -0.753652,0.373025 -0.209352,0.101746 -0.383831,0.176338 -0.244225,0.420501 0.16045,0.271295 0.327932,0.535799 0.467529,0.807089 z"
         fill="#100342"
         stroke="#362745"
         stroke-width="0.372653"
         stroke-miterlimit="10"
         id="path10" /><path
         d="m 22.629715,29.207842 c 0.007,0.04747 0.0138,0.101746 0.04189,0.135634 0.07676,0.08138 0.209352,0.03392 0.307064,-0.02028 0.844357,-0.461194 1.688787,-0.92239 2.533214,-1.383584 0.08369,-0.04747 0.174394,-0.09496 0.230225,-0.176338 0.05589,-0.08817 0.06282,-0.196619 0.06983,-0.298346 0.02789,-0.549362 0.04882,-1.098728 0.07676,-1.654873 0.007,-0.156 0.007,-0.325549 -0.08378,-0.447631 -0.09772,-0.135633 -0.286123,-0.176337 -0.453593,-0.155999 -0.167465,0.02028 -0.321003,0.101746 -0.467529,0.183126 -0.67696,0.366245 -1.353846,0.725703 -2.030806,1.085165 -0.223295,0.122084 -0.495402,0.203464 -0.474534,0.488323 0.02085,0.332329 0.07676,0.664588 0.111718,0.990136 0.02085,0.210254 0.04882,0.413718 0.06975,0.623969 0.02085,0.210253 0.06975,0.427281 0.06975,0.630751 z"
         fill="#100342"
         stroke="#362745"
         stroke-width="0.372653"
         stroke-miterlimit="10"
         id="path12" /><path
         d="m 18.80556,7.9256836 c 0.132591,0.1085153 0.118648,0.3323313 -0.02085,0.4340653 -0.139521,0.101735 -0.362887,0.033913 -0.425642,-0.1220816 -0.06282,-0.1559913 0.05583,-0.3526777 0.223296,-0.3798067 0.07676,-0.00679 0.160478,0.013577 0.223295,0.067822 z"
         fill="#4300bf"
         id="path14"
         style="stroke-width:0.745303" /><path
         d="m 19.935964,8.8819089 c -0.007,0.03391 -0.0138,0.06104 -0.0138,0.09495 0.007,0.06104 0.04882,0.108515 0.104648,0.128862 0.146591,0.07461 0.362887,-0.03391 0.38383,-0.196687 0.0138,-0.162701 -0.167464,-0.318692 -0.328008,-0.271217 -0.0138,-0.0068 -0.03487,0.0068 -0.0418,0.02034 -0.06282,0.07461 -0.07676,0.142355 -0.104704,0.223741 z"
         fill="#4300bf"
         id="path16"
         style="stroke-width:0.745303" /><path
         d="m 19.245289,9.8382079 c -0.104648,0 -0.209352,0 -0.306991,0 -0.02789,0 -0.05583,0 -0.07676,0.02034 -0.01408,0.01358 -0.01408,0.03391 -0.02084,0.05426 -0.01408,0.08139 -0.02085,0.1559911 -0.02789,0.2373791 -0.007,0.09495 -0.007,0.217034 0.07676,0.26451 0.05583,0.02713 0.118648,0.02034 0.174479,0.03391 0.04882,0.01358 0.0907,0.04069 0.139605,0.03391 0.09763,0 0.160479,-0.101735 0.181409,-0.196687 0.02085,-0.101735 0.02789,-0.203467 -0.02085,-0.2984201 -0.04882,-0.09495 -0.146535,-0.162774 -0.251239,-0.149211"
         fill="#4300bf"
         id="path18"
         style="stroke-width:0.745303" /><path
         d="m 23.955761,12.78842 c -0.06983,-0.06782 -0.153521,-0.06104 -0.24431,-0.03391 -0.08369,0.02713 -0.132591,0.108515 -0.125577,0.189903 0,0.06782 0.04882,0.135645 0.09772,0.183121 0.07676,0.07461 0.216366,0.0068 0.272197,-0.06104 0.06975,-0.06782 0.06975,-0.196687 0,-0.278073 z"
         fill="#6b00fa"
         id="path20"
         style="stroke-width:0.745303" /><path
         d="m 23.467139,13.927841 c -0.007,-0.04069 -0.03496,-0.108515 -0.06983,-0.142428 -0.04189,-0.04069 -0.125577,-0.02034 -0.174479,0 -0.0418,0.02034 -0.08369,0.04748 -0.118591,0.08139 -0.01408,0.01358 -0.02789,0.02034 -0.03487,0.04069 -0.02084,0.03391 -0.02789,0.06782 -0.03496,0.108515 0,0.02034 -0.02085,0.115298 0,0.128862 0.08378,0.05426 0.195408,0.06782 0.293129,0.02713 0.08377,-0.04748 0.153521,-0.149211 0.139606,-0.244163 z"
         fill="#6b00fa"
         id="path22"
         style="stroke-width:0.745303" /><path
         d="m 11.443165,22.500404 c -0.132591,0 -0.258197,0.06104 -0.321011,0.169549 -0.06282,0.108507 -0.04186,0.264507 0.05583,0.345895 0.104676,0.08817 0.446625,0.08138 0.544326,-0.0068 0.09769,-0.08817 -0.0349,-0.244169 -0.09073,-0.373025 -0.08375,-0.04746 -0.17445,-0.09496 -0.265183,-0.135634"
         fill="#4300bf"
         id="path24"
         style="stroke-width:0.745303" /><path
         d="m 10.83609,20.255548 c -0.04186,0.108507 -0.07676,0.217042 -0.09769,0.332329 -0.007,0.02028 -0.007,0.04747 0.007,0.06783 0.02085,0.03392 0.06282,0.0407 0.104676,0.04746 0.104676,0.0068 0.223324,0.0068 0.286115,-0.06783 0.02085,-0.02028 0.0349,-0.05425 0.04186,-0.08138 0.0349,-0.108507 0.01409,-0.23738 -0.08375,-0.298419 -0.09769,-0.06104 -0.251211,-0.02704 -0.272169,0.08138"
         fill="#4300bf"
         id="path26"
         style="stroke-width:0.745303" /><path
         d="m 12.392085,21.367763 c -0.01409,-0.03392 -0.04186,-0.08817 -0.07676,-0.101718 -0.02084,-0.0068 -0.05583,0 -0.08375,0 -0.02789,0 -0.04885,0 -0.07676,0 -0.02085,0 -0.04186,0 -0.05583,0.0068 -0.02789,0.01352 -0.05583,0.05425 -0.07676,0.07459 -0.01408,0.0068 -0.02084,0.01352 -0.02789,0.02704 -0.02084,0.03392 -0.02789,0.08138 -0.02789,0.122084 0,0.01352 5e-6,0.122084 0.01408,0.122084 0.06977,0.01352 0.314028,0.03392 0.383811,0.04746 0.04186,0.0068 -0.07676,0.02028 -0.04186,-0.0068 0.01408,-0.01352 0.02789,-0.02704 0.04186,-0.04746 0.0349,-0.08138 0.05583,-0.169549 0.02789,-0.244169 z"
         fill="#4300bf"
         id="path28"
         style="stroke-width:0.745303" /><path
         d="m 19.231055,28.651696 c 0.132591,0.09496 0.348952,0.06783 0.439656,-0.06783 0.06977,-0.101746 0.05583,-0.230591 0.03487,-0.352675 -0.007,-0.03392 -0.0138,-0.06783 -0.03487,-0.08817 -0.02085,-0.02028 -0.05583,-0.02704 -0.0907,-0.02704 -0.09772,-0.01352 -0.181493,-0.0068 -0.279127,-0.0068 -0.01408,0 -0.02789,0 -0.04189,0 -0.03487,0.01352 -0.06983,0.0407 -0.09772,0.06783 -0.06975,0.06783 -0.09772,0.149211 -0.07676,0.244169 0.02085,0.08817 0.06977,0.176338 0.146535,0.230591 z"
         fill="#6b00fa"
         id="path30"
         style="stroke-width:0.745303" /><path
         d="m 18.345037,27.329228 c -0.09772,0.0407 -0.146535,0.156 -0.111634,0.250929 0.05583,0.04746 0.125577,0.08817 0.202338,0.09496 0.07676,0.0068 0.160535,-0.0407 0.174478,-0.115296 0.0138,-0.06104 -0.02085,-0.115295 -0.05583,-0.169549 -0.03487,-0.05425 -0.07676,-0.108507 -0.139605,-0.128873 -0.06276,-0.01352 -0.146535,0.0407 -0.118563,0.101718"
         fill="#6b00fa"
         id="path32"
         style="stroke-width:0.745303" /><path
         d="m 23.236765,22.622483 c -0.111634,-0.03392 -0.23724,0.01352 -0.313997,0.09496 -0.07676,0.08817 -0.111634,0.203465 -0.118648,0.311986 -0.007,0.06104 0,0.122084 0.03487,0.169549 0.0489,0.06104 0.139606,0.06783 0.216366,0.04746 0.153521,-0.02704 0.293127,-0.135634 0.334941,-0.278085 0.04189,-0.142422 -0.05583,-0.325548 -0.209352,-0.345895 0.111662,-0.01352 -0.02085,-0.07462 0.05583,0 z"
         fill="#6b00fa"
         id="path34"
         style="stroke-width:0.745303" /><path
         d="m 23.732169,20.90657 c -0.146535,0.02704 -0.286123,0.128873 -0.300058,0.271295 -0.01409,0.142423 0.153521,0.278084 0.28612,0.210253 0.132592,-0.122084 0.118564,-0.359458 -0.02085,-0.474757"
         fill="#6b00fa"
         id="path36"
         style="stroke-width:0.745303" /><path
         d="m 19.147579,7.0982471 c -0.08369,0.020338 -0.118563,0.1288646 -0.08369,0.2034673 0.03487,0.074605 0.125577,0.1152984 0.216281,0.1152984 0.04189,0 0.09079,-0.013577 0.111719,-0.047476 0.007,-0.020338 0.0138,-0.040693 0.0138,-0.061039 0,-0.074605 0,-0.1559913 -0.02085,-0.2305968 -0.07676,-0.00679 -0.153521,-0.00679 -0.230309,0.00679"
         fill="#100342"
         id="path38"
         style="stroke-width:0.745303" /><path
         d="m 18.379769,8.2987084 c -0.06282,0.00679 -0.132591,0.013577 -0.188422,0.040693 -0.05583,0.027127 -0.104704,0.088169 -0.09772,0.1492082 0.007,0.081312 0.09772,0.1355713 0.174478,0.1694813 0.06276,0.02713 0.146535,0.05426 0.202366,0.0068 0.05583,-0.04748 0.03487,-0.1288619 0.07676,-0.189828 0.0138,-0.020338 0.03487,-0.040693 0.04189,-0.067823 0.007,-0.047476 -0.0489,-0.081389 -0.09772,-0.088169 -0.04882,-0.00679 -0.104704,-0.013578 -0.125578,-0.054259"
         fill="#100342"
         id="path40"
         style="stroke-width:0.745303" /><path
         d="m 17.340142,6.8338134 c -0.06282,0.033913 -0.132591,0.081389 -0.167549,0.1424279 -0.06975,0.1152984 -0.0138,0.2984199 0.118648,0.3255488 0.132591,0.027127 0.251239,-0.088169 0.321002,-0.2034673 0.007,-0.013577 0.0138,-0.027127 0.0138,-0.040693 0,-0.013577 -0.0138,-0.027127 -0.02789,-0.033913 -0.07676,-0.054259 -0.153521,-0.1085153 -0.23031,-0.1559913 -0.02085,-0.013578 -0.05583,-0.027127 -0.06975,0"
         fill="#100342"
         id="path42"
         style="stroke-width:0.745303" /><path
         d="m 11.959429,8.0274178 c -0.03487,0.081386 -0.04885,0.1763378 -0.04189,0.2712897 0.06282,0.033913 0.139577,0.027127 0.202366,0 0.06282,-0.033913 0.111662,-0.081386 0.153521,-0.1424279 0.007,-0.013578 0.02085,-0.027127 0.02085,-0.047476 0,-0.027127 -0.01409,-0.054259 -0.0349,-0.074606 -0.04186,-0.047476 -0.09769,-0.081389 -0.160506,-0.088169 -0.06282,-0.00679 -0.132592,0.040693 -0.139578,0.094952"
         fill="#100342"
         id="path44"
         style="stroke-width:0.745303" /><path
         d="m 11.645537,9.1328529 c -0.05583,0.02713 -0.06282,0.115298 -0.02789,0.162774 0.04186,0.04748 0.111662,0.06782 0.174451,0.06104 0.04186,-0.0068 0.09073,-0.02034 0.104676,-0.05426 0.02789,-0.05426 -0.01409,-0.115299 -0.05583,-0.155992 -0.04189,-0.04748 -0.104676,-0.101735 -0.174451,-0.08139"
         fill="#100342"
         id="path46"
         style="stroke-width:0.745303" /><path
         d="m 14.471693,5.6469165 c -0.02789,0.067823 -0.02789,0.1492111 -0.007,0.2238138 0.03487,0.054259 0.118648,0.067822 0.174478,0.033913 0.05583,-0.033913 0.08377,-0.1017351 0.07676,-0.1695575 -0.0138,-0.074605 -0.09772,-0.149211 -0.167465,-0.1152984"
         fill="#100342"
         id="path48"
         style="stroke-width:0.745303" /><path
         d="m 20.599135,12.27975 c -0.0489,0.08139 -0.02789,0.203467 0.05583,0.257727 0.08369,0.05426 0.209351,0.02713 0.258168,-0.05426 0.02789,-0.04069 0.02789,-0.101735 0.0138,-0.149211 -0.02789,-0.06782 -0.104648,-0.115298 -0.181408,-0.115298 -0.07676,-0.0068 -0.153521,0.02713 -0.209352,0.07461 0.02789,0.0068 0.04882,0.02034 0.07676,0.02713"
         fill="#100342"
         id="path50"
         style="stroke-width:0.745303" /><path
         d="m 20.145245,22.242602 c -0.007,0.101746 -0.05583,0.196675 -0.05583,0.298419 0,0.101746 0.06975,0.217042 0.174479,0.217042 0.0907,0 0.153521,-0.08138 0.195352,-0.156 0.03496,-0.04747 0.06282,-0.101746 0.09079,-0.149211 0.02085,-0.02704 0.03487,-0.06104 0.02085,-0.09496 -0.007,-0.01352 -0.02085,-0.02704 -0.03496,-0.03392 -0.118564,-0.07459 -0.265183,-0.108507 -0.411707,-0.101746"
         fill="#100342"
         id="path52"
         style="stroke-width:0.745303" /><path
         d="m 20.145245,22.242602 c -0.007,0.101746 -0.05583,0.196675 -0.05583,0.298419 0,0.101746 0.06975,0.217042 0.174479,0.217042 0.0907,0 0.153521,-0.08138 0.195352,-0.156 0.03496,-0.04747 0.06282,-0.101746 0.09079,-0.149211 0.02085,-0.02704 0.03487,-0.06104 0.02085,-0.09496 -0.007,-0.01352 -0.02085,-0.02704 -0.03496,-0.03392 -0.118564,-0.07459 -0.265183,-0.108507 -0.411707,-0.101746"
         stroke="#362745"
         stroke-width="0.372653"
         stroke-miterlimit="10"
         id="path54" /><path
         d="m 19.53119,21.069344 c 0.03487,0.07459 0.0907,0.149211 0.167464,0.169549 0.132592,0.0407 0.286124,-0.115295 0.23031,-0.23738 -0.05583,-0.122084 -0.279183,-0.128873 -0.335017,0"
         fill="#100641"
         id="path56"
         style="stroke-width:0.745303" /><path
         d="m 16.684053,22.886992 c -0.04882,0.122085 0.05583,0.271296 0.188479,0.291636 0.132591,0.02028 0.265182,-0.08817 0.300058,-0.217042 0.007,-0.02028 0.007,-0.04746 -0.007,-0.06783 -0.0138,-0.02028 -0.03487,-0.02704 -0.06282,-0.03392 -0.111661,-0.02704 -0.230225,-0.05425 -0.341946,-0.08817 -0.0138,0.03392 -0.02789,0.07459 -0.03487,0.108507"
         fill="#100641"
         id="path58"
         style="stroke-width:0.745303" /><path
         d="m 11.471174,17.990343 c -0.01409,0.06104 -0.0349,0.122084 -0.02085,0.183127 0.007,0.06104 0.04885,0.121999 0.111661,0.135577 0.06977,0.02028 0.146563,-0.03392 0.174479,-0.101662 0.02789,-0.06783 0.02789,-0.142422 0.02085,-0.210253 -0.08375,-0.01352 -0.167493,-0.02704 -0.244253,-0.0407"
         fill="#100342"
         id="path60"
         style="stroke-width:0.745303" /><path
         d="m 10.808284,27.125761 c -0.02789,0.08817 -0.04885,0.203464 0.02789,0.264506 0.08375,0.06783 0.202366,0.0068 0.307056,0.02704 0.02085,-0.08138 0.02789,-0.169549 0.007,-0.250957 -0.02085,-0.08138 -0.08375,-0.16276 -0.167493,-0.176338 -0.08375,-0.02028 -0.181436,0.04747 -0.17445,0.135634 0.01408,0 0.04186,0 0.06282,0 z"
         fill="#100641"
         id="path62"
         style="stroke-width:0.745303" /><path
         d="m 12.399099,27.715743 c 0,0.108507 0,0.210253 0.007,0.318766 0.07676,0.01352 0.160507,0.02028 0.244253,0.03392 0.02084,0 0.04885,0.0068 0.06977,-0.0068 0.02084,-0.01352 0.02789,-0.0407 0.0349,-0.06783 0.02789,-0.115296 0.02789,-0.244169 -0.05583,-0.332332 -0.08375,-0.08138 -0.265182,-0.06104 -0.279154,0.05425"
         fill="#100641"
         id="path64"
         style="stroke-width:0.745303" /><path
         d="m 19.608105,27.90572 c -0.07676,0.06104 -0.118648,0.169549 -0.07676,0.257718 0.04189,0.08817 0.167464,0.135634 0.251239,0.07462 0.03487,-0.07462 0.06977,-0.156 0.05583,-0.23738 -0.0138,-0.08138 -0.125578,-0.142423 -0.195408,-0.08817"
         fill="#100641"
         id="path66"
         style="stroke-width:0.745303" /><path
         d="m 23.43226,27.919286 c -0.0138,0.05425 -0.02085,0.115296 0,0.169549 0.02085,0.05425 0.09772,0.08817 0.146591,0.05425 0.02085,-0.01352 0.02789,-0.03392 0.03487,-0.05425 0.02789,-0.06104 0.0418,-0.122084 0.03487,-0.183126 -0.007,-0.06104 -0.05583,-0.122085 -0.118648,-0.128873 -0.06282,-0.0068 -0.132591,0.05425 -0.111634,0.108507"
         fill="#100641"
         id="path68"
         style="stroke-width:0.745303" /><path
         d="m 23.055432,19.760442 c -0.01408,0.06104 -0.03487,0.122084 -0.02085,0.183126 0.0138,0.06104 0.06276,0.122085 0.125578,0.115296 0.09772,0 0.139605,-0.115296 0.153521,-0.210253 0.0138,-0.08138 0.0138,-0.189915 -0.06282,-0.223803 -0.08369,-0.03392 -0.160451,0.05425 -0.209352,0.122085"
         fill="#100641"
         id="path70"
         style="stroke-width:0.745303" /><path
         d="m 23.760119,9.5330069 c -0.01409,0.06104 -0.02085,0.128861 0.007,0.183121 0.02789,0.05426 0.104704,0.08817 0.160535,0.05426 0.02789,-0.01358 0.04189,-0.04069 0.05583,-0.06782 0.02085,-0.05426 0.04189,-0.108515 0.02789,-0.162774 -0.0138,-0.05426 -0.05583,-0.108516 -0.111633,-0.115299 -0.05583,-0.0068 -0.118564,0.04748 -0.104648,0.101735"
         fill="#100342"
         id="path72"
         style="stroke-width:0.745303" /><path
         d="m 23.376286,10.44183 c 0,0.07461 0,0.142428 0.007,0.217034 0.104704,0.01358 0.209352,-0.06104 0.223295,-0.162775 0.01409,-0.101735 -0.06977,-0.203467 -0.174394,-0.21025 0.007,0.04748 -0.007,0.09495 -0.02789,0.135645"
         fill="#100342"
         id="path74"
         style="stroke-width:0.745303" /><path
         d="m 24.297408,10.611387 c -0.02789,0.07461 -0.04882,0.155991 -0.03487,0.23738 0.0138,0.08139 0.09772,0.149211 0.174479,0.135645 0.104647,-0.02034 0.125577,-0.162775 0.118647,-0.27129 -0.007,-0.07461 -0.01408,-0.162774 -0.07676,-0.203467 -0.06282,-0.04069 -0.181493,0.0068 -0.153521,0.07461"
         fill="#100342"
         id="path76"
         style="stroke-width:0.745303" /><path
         d="m 13.487987,18.329382 c 0.11862,-0.406861 -0.104675,-0.773103 -0.425686,-1.139345 -0.495478,-0.562928 -0.949078,-1.152986 -1.053756,-1.939654 -0.230282,-1.776954 0.788567,-3.51314 2.470376,-4.143891 1.76555,-0.664662 3.719516,-0.06782 4.7733,1.451406 0.467529,0.671369 0.704833,1.410636 0.704833,2.224508 0,0.745975 -0.244225,1.390291 -0.781599,1.92609 -0.258169,0.250943 -0.474534,0.542581 -0.74672,0.779961 -0.286123,0.244168 -0.390763,0.522235 -0.369819,0.874838 0.0138,0.278084 -0.02085,0.556145 -0.0138,0.834218 0,0.02028 0,0.0407 0,0.05425 0,0.02704 -0.007,0.04746 -0.007,0.06783 0,0.01352 0,0.142422 0.007,0.142422 -0.0489,0 -0.09772,0 -0.139605,0.0068 -0.05583,0 -0.111634,0.0068 -0.167465,0 -0.104704,-0.01352 -0.202422,-0.01352 -0.307067,-0.02028 -0.02085,0 -0.04189,0 -0.06975,-0.0068 -0.04189,0 -0.07676,-0.0068 -0.118648,-0.0068 -0.01408,0 -0.02789,-0.0068 -0.0489,-0.0068 -0.02084,0 -0.0418,0 -0.06276,0 -0.07676,0 -0.160535,0 -0.244309,0 0,-0.0407 -0.007,-0.08138 -0.007,-0.122084 -0.007,-0.08138 -0.007,-0.162789 -0.007,-0.244169 0,-0.156 -0.007,-0.311985 -0.007,-0.467977 0,-0.0068 0,-0.01352 -0.007,-0.02028 -0.007,-0.0068 -0.0138,-0.0068 -0.02085,-0.0068 -0.167465,-0.01352 -0.334938,0 -0.502484,0.02028 0,0.09496 0,0.189915 -0.007,0.291639 0,0.02704 0,0.05425 0,0.08138 0,0.0407 0,0.07459 -0.007,0.115296 0,0.01352 -0.007,0.02028 -0.007,0.02704 -0.007,0.01352 -0.007,0.03392 -0.007,0.04746 -0.007,0.07459 -0.007,0.156 0.007,0.230592 -0.0489,0 -0.09772,0 -0.153521,0 -0.06282,0 -0.132591,0 -0.195408,-0.01352 -0.07676,-0.01352 -0.160535,-0.0068 -0.237295,-0.01352 -0.02789,0 -0.06276,0 -0.0907,-0.0068 -0.07676,0 -0.153521,-0.01352 -0.23031,-0.01352 -0.0418,0 -0.07676,0 -0.118591,0 -0.007,0 -0.111719,0.0068 -0.118648,0.01352 0,-0.06783 0.007,-0.142422 0.007,-0.210253 0,-0.03392 0,-0.06783 0.007,-0.108507 0,-0.03392 0.007,-0.06783 0.007,-0.101747 0,-0.135633 0,-0.271295 -0.007,-0.41372 -0.181408,-0.03391 -0.369822,-0.04746 -0.558309,-0.04746 -0.007,0.156 -0.0138,0.311983 -0.02789,0.467974 -0.007,0.07462 -0.007,0.156 -0.0138,0.23738 0,0.02028 0,0.0407 0,0.06104 0,0.01352 0,0.02704 -0.007,0.03392 -0.007,0.01352 -0.04189,0.01352 -0.05583,0.01352 -0.09772,0.0068 -0.202366,0 -0.300061,-0.0068 -0.04189,0 -0.09073,-0.0068 -0.13262,-0.0068 -0.111662,-0.0068 -0.223324,-0.0068 -0.334968,-0.01352 -0.0349,0 -0.07676,-0.0068 -0.111662,-0.0068 -0.02085,-0.0068 -0.04189,-0.01352 -0.06977,-0.01352 -0.007,0 -0.118647,-0.0068 -0.118647,-0.0068 0,-0.0068 0,-0.01352 0,-0.02028 0,-0.07459 0,-0.156 0,-0.23738 0,-0.03392 -0.007,-0.06783 0.007,-0.101746 0.007,-0.01352 0,-0.02704 0,-0.0407 0,-0.03392 0,-0.06783 0,-0.101746 0,-0.08817 0.007,-0.169549 0.007,-0.257718 0.01408,0 0.01408,-0.02704 0.02085,-0.135634 z m 2.261008,-1.247861 c 0.06282,0.0068 0.125662,0.0068 0.188423,0.01358 0.09772,0.0068 0.202422,0.01358 0.300134,0.02713 -0.03496,-0.101735 -0.06983,-0.203468 -0.111718,-0.29842 -0.0138,-0.04069 -0.03487,-0.0746 -0.04882,-0.108515 -0.0138,-0.03391 -0.03487,-0.06104 -0.04882,-0.09495 -0.007,-0.0068 -0.007,-0.02034 -0.007,-0.02713 -0.007,-0.03391 -0.02085,-0.06104 -0.02789,-0.09495 -0.03487,-0.08139 -0.06276,-0.169557 -0.09763,-0.257726 -0.01408,-0.04069 -0.02789,-0.07461 -0.0489,-0.115299 0,0.0068 -0.0138,0.02713 -0.0138,0.02713 -0.007,0.01358 -0.02085,0.02713 -0.02789,0.04069 -0.0907,0.122081 -0.174394,0.244163 -0.251155,0.373025 -0.04189,0.06104 -0.07676,0.128862 -0.118647,0.196687 -0.02085,0.03391 -0.03487,0.06782 -0.05583,0.09495 -0.007,0.01358 -0.0138,0.02713 -0.02085,0.04069 -0.007,0.02713 -0.03487,0.05426 -0.05583,0.08139 -0.02789,0.03391 -0.05583,0.06782 -0.07676,0.108516 0,0 0.02085,0 0.02789,0 0.007,0 0.02085,0 0.02789,0 0.02085,0 0.04189,0 0.06282,0 0.0418,0 0.07676,0 0.118563,-0.0068 0.01408,0 0.03496,-0.0068 0.0489,-0.0068 0.02085,0 0.04189,0 0.06276,0.0068 0.04189,0 0.07676,0.0068 0.118648,0.0068 0.02085,-0.01358 0.04189,-0.01358 0.05583,-0.0068 z"
         fill="#362745"
         stroke="#362745"
         stroke-width="0.372653"
         stroke-miterlimit="10"
         id="path78" /><path
         d="m 13.327455,18.139481 c 0.111656,-0.400154 -0.104676,-0.759541 -0.418712,-1.119001 -0.488492,-0.556146 -0.935117,-1.132639 -1.032812,-1.899035 -0.223324,-1.742968 0.77461,-3.43846 2.421509,-4.055646 1.73067,-0.651098 3.642823,-0.06782 4.682596,1.424201 0.453593,0.65788 0.690897,1.383583 0.69783,2.177108 0,0.73241 -0.237239,1.363161 -0.767591,1.885396 -0.251239,0.250943 -0.460596,0.535799 -0.732782,0.759614 -0.279126,0.237377 -0.383833,0.508594 -0.362889,0.861273 0.01408,0.271295 -0.02085,0.542582 -0.0138,0.813872 0,0.02028 0,0.03392 0,0.05425 0,0.02028 -0.007,0.04746 -0.007,0.06783 0,0.01352 0,0.135634 0.007,0.135634 -0.04882,0 -0.0907,0 -0.139606,0 -0.05583,0 -0.111661,0.0068 -0.167464,0 -0.09772,-0.01352 -0.202338,-0.01352 -0.300059,-0.02028 -0.02085,0 -0.04189,0 -0.06282,-0.0068 -0.0418,0 -0.07676,-0.0068 -0.118591,-0.0068 -0.01409,0 -0.02789,-0.0068 -0.04189,-0.0068 -0.02085,0 -0.04189,0 -0.06282,0 -0.07676,0 -0.160451,0 -0.237239,0 0,-0.0407 -0.007,-0.07459 -0.007,-0.115295 -0.007,-0.08138 -0.007,-0.156 -0.007,-0.23738 0,-0.156 -0.007,-0.305203 -0.007,-0.461194 0,-0.0068 0,-0.01352 -0.007,-0.02028 -0.007,-0.0068 -0.0138,-0.0068 -0.02085,-0.0068 -0.160479,-0.01352 -0.328008,0 -0.488473,0.02028 0,0.09496 0,0.189915 -0.007,0.284856 0,0.02704 0,0.05425 0,0.08138 0,0.03392 0,0.07462 -0.007,0.115295 0,0.01352 -0.007,0.02028 -0.007,0.02704 -0.007,0.01352 -0.007,0.03391 -0.007,0.04746 -0.007,0.07459 -0.007,0.149211 0.007,0.223803 -0.0489,0 -0.09772,0 -0.146535,0 -0.06282,0 -0.125662,0 -0.188423,-0.01352 -0.07676,-0.01352 -0.153521,-0.0068 -0.237295,-0.01352 -0.02789,0 -0.06282,0 -0.0907,-0.0068 -0.07676,0 -0.146535,-0.01352 -0.223296,-0.01352 -0.04189,0 -0.07676,0 -0.118647,0 -0.007,0 -0.111634,0.0068 -0.111634,0.01352 0,-0.06783 0.007,-0.135634 0.007,-0.210253 0,-0.03392 0,-0.06783 0.007,-0.101747 0,-0.03392 0.007,-0.06783 0.007,-0.101718 0,-0.135633 0,-0.271295 -0.007,-0.406937 -0.181492,-0.02704 -0.362889,-0.04746 -0.544297,-0.04746 -0.007,0.156 -0.01409,0.305202 -0.02085,0.461194 -0.007,0.07459 -0.007,0.156 -0.01409,0.230591 0,0.02028 0,0.0407 0,0.06104 0,0.01352 0,0.02704 -0.007,0.03392 -0.007,0.01352 -0.04189,0.01352 -0.05583,0.01352 -0.09772,0.0068 -0.195408,0 -0.293121,-0.0068 -0.04186,0 -0.0907,-0.0068 -0.132591,-0.0068 -0.111662,-0.0068 -0.223324,-0.0068 -0.327994,-0.01352 -0.03487,0 -0.06977,-0.0068 -0.111662,-0.0068 -0.02085,0 -0.04186,-0.01352 -0.06977,-0.01352 -0.007,0 -0.111662,-0.0068 -0.111662,-0.0068 0,-0.0068 0,-0.01352 0,-0.02028 0,-0.07459 0,-0.156 0,-0.230592 0,-0.03392 -0.007,-0.06783 0.007,-0.09496 0.007,-0.01352 0,-0.02704 0,-0.0407 0,-0.03392 0,-0.06783 0,-0.101747 0,-0.08138 0.007,-0.169549 0.007,-0.250957 -0.01408,0 -0.01408,-0.02028 -0.007,-0.128873 z m 2.219189,-1.227517 c 0.06276,0.0068 0.125577,0.0068 0.181408,0.01358 0.09772,0.0068 0.195408,0.01358 0.293126,0.02713 -0.03487,-0.09495 -0.06282,-0.196687 -0.104704,-0.29842 -0.0138,-0.04069 -0.03487,-0.0746 -0.04882,-0.108515 -0.0138,-0.03391 -0.03487,-0.06104 -0.0489,-0.09495 -0.007,-0.0068 -0.007,-0.02034 -0.007,-0.02713 -0.007,-0.03391 -0.02085,-0.06104 -0.02789,-0.09495 -0.03487,-0.08139 -0.06282,-0.169558 -0.09772,-0.250944 -0.0138,-0.04069 -0.02789,-0.0746 -0.04882,-0.115298 0,0.0068 -0.0138,0.02034 -0.0138,0.02713 -0.007,0.01358 -0.02085,0.02713 -0.02789,0.04069 -0.08377,0.122082 -0.167464,0.244163 -0.244225,0.366243 -0.04189,0.06104 -0.07676,0.128861 -0.111633,0.189904 -0.02085,0.03391 -0.03487,0.06104 -0.05583,0.09495 -0.007,0.01358 -0.01409,0.02713 -0.02085,0.04069 -0.007,0.02713 -0.03487,0.05426 -0.05583,0.07461 -0.02789,0.03391 -0.0489,0.06782 -0.07676,0.101735 0,0 0.02085,0 0.02789,0 0.007,0 0.02085,0 0.02789,0 0.02085,0 0.04189,0 0.06282,0 0.0418,0 0.07676,0 0.118563,-0.0068 0.01408,0 0.03496,-0.0068 0.0489,-0.0068 0.02085,0 0.04189,0 0.06276,0.0068 0.04189,0 0.07676,0.0068 0.118647,0.0068 0.0138,0.01358 0.03487,0.01358 0.0489,0.01358 z"
         fill="#e0e3bd"
         stroke="#362745"
         stroke-width="0.372653"
         stroke-miterlimit="10"
         id="path80" /><path
         d="m 18.247476,11.459096 c -1.277077,-0.990137 -2.721627,-1.152911 -4.215053,-0.501888 -2.393624,1.044469 -3.035643,4.137108 -1.598071,5.676608 0.202366,0.217034 0.355904,0.467977 0.565259,0.685009 0.188422,0.196684 0.251239,0.406935 0.237267,0.671445 -0.02085,0.366242 -0.05583,0.739266 0,1.139345 l 1.228252,0.05425 0.02085,-0.847708 0.474534,0.01352 v 0.0068 c 0,0.0068 0,0.01352 0,0.02028 0,0.0068 0,0.02028 0,0.02704 0,0.01352 0,0.02704 0,0.03392 0,0.01352 0,0.02704 0,0.0407 0,0.01352 0,0.03392 0,0.04746 0,0.02028 0,0.03392 0,0.05425 0,0.02028 0,0.0407 0,0.06104 0,0.02028 0,0.0407 0,0.06104 0,0.02028 0,0.0407 0,0.06104 0,0.02028 0,0.0407 0,0.06104 0,0.02028 0,0.0407 0,0.06104 0,0.02028 0,0.03392 0,0.05425 0,0.01352 0,0.03392 0,0.05425 0,0.01352 0,0.03392 0,0.04746 0,0.01352 0,0.02704 0,0.0407 0,0.0068 0,0.02028 0,0.03383 0,0.0068 0,0.01352 0,0.02028 0,0.02028 -0.007,0.0407 -0.007,0.06783 0.007,0 0.007,0 0.0138,0 h 0.007 0.007 c 0.007,0 0.02085,0 0.02789,0 0.02085,0 0.04189,0 0.06282,0 0.08369,0 0.160451,0.0068 0.244225,0.0068 0.09772,0.0068 0.202338,0.0068 0.307065,0.01352 0.0907,0.0068 0.188422,0.0068 0.279126,0.01352 0.05583,0 0.111634,0.0068 0.174479,0.0068 0.007,0 0.0138,0 0.02085,0 0.0138,0 0.02084,0 0.03487,-0.0068 0,-0.02028 0.007,-0.04747 0.007,-0.06783 v -0.0068 c 0,-0.0068 0,-0.02028 0.007,-0.02704 0,-0.02028 0.007,-0.04062 0.007,-0.0542 0,-0.01352 0,-0.02704 0,-0.0407 0,-0.01352 0,-0.02704 0,-0.03392 0,-0.01352 0,-0.02028 0,-0.03392 0,-0.01352 0,-0.02704 0,-0.0407 0,-0.01352 0,-0.03392 0,-0.05425 0,-0.02028 0,-0.0407 0,-0.05425 0,-0.02028 0,-0.0407 0,-0.06104 0,-0.02028 0,-0.0407 0,-0.06104 0,-0.02028 0,-0.0407 0,-0.06104 0,-0.02028 0,-0.0407 0,-0.06104 0,-0.01352 0,-0.03391 0,-0.05425 0,-0.01352 0,-0.02704 0,-0.0407 0,-0.01352 0,-0.02028 0,-0.03392 0,-0.0068 0,-0.01352 0,-0.02028 v -0.0068 l 0.474534,0.01352 -0.02085,0.840926 c 0.07676,0 1.291015,0.05425 1.291015,0.05425 0,-0.244084 0,-0.48825 0,-0.739193 0,-0.115296 0,-0.230592 0,-0.345896 0,-0.03392 0,-0.06783 -0.007,-0.09496 0,-0.08138 0,-0.162789 0.01408,-0.23738 0.0138,-0.08138 0.0418,-0.169549 0.09763,-0.23738 0.01408,-0.01352 0.02789,-0.03392 0.04189,-0.04746 0.02085,-0.02028 0.03487,-0.03392 0.05583,-0.05425 0.03487,-0.03392 0.06983,-0.07459 0.104704,-0.108507 0.06977,-0.0746 0.139521,-0.142425 0.209352,-0.217031 0.06975,-0.07461 0.132591,-0.142428 0.202338,-0.217033 0.06977,-0.07461 0.132591,-0.142428 0.195408,-0.217034 0.06282,-0.0746 0.132591,-0.142428 0.195408,-0.217033 0.06276,-0.07461 0.125577,-0.142428 0.188422,-0.217034 0.03487,-0.03391 0.06276,-0.07453 0.09772,-0.108442 0.23724,-0.284855 0.404701,-0.603621 0.460527,-0.969864 0.251239,-1.566704 -0.244225,-2.868824 -1.507305,-3.845471 z m -3.956819,6.653255 c -0.01409,0 -0.02789,0 -0.0489,0 -0.007,0 -0.0138,0 -0.02084,0 0,0.03392 0,0.06783 0,0.101747 0,0.06783 -0.007,0.142422 -0.007,0.210253 -0.007,0.142422 -0.01408,0.291639 -0.01408,0.434067 l -0.621087,-0.02704 c 0,-0.06104 0.007,-0.122085 0.007,-0.183127 0.007,-0.135662 0.01408,-0.271295 0.01408,-0.41372 0.007,-0.142423 0.01408,-0.291636 0.01408,-0.434064 0,-0.05425 0.007,-0.108507 0.007,-0.162789 0,-0.02704 -0.007,-0.05425 -0.007,-0.07459 0,-0.02704 -0.007,-0.05425 -0.007,-0.08138 0,-0.01352 -0.007,-0.02028 -0.007,-0.03392 -0.007,-0.0068 -0.007,-0.02028 -0.01408,-0.02704 -0.007,-0.02034 -0.01408,-0.04069 -0.02789,-0.06104 -0.02085,-0.04069 -0.04186,-0.08139 -0.06282,-0.122081 -0.02085,-0.04069 -0.04885,-0.07461 -0.07676,-0.115298 -0.01409,-0.02034 -0.03487,-0.04748 -0.05583,-0.06782 -0.29305,-0.346084 -0.572188,-0.705544 -0.851326,-1.06493 -0.397776,-0.529016 -0.467568,-1.146203 -0.390802,-1.770171 0.174451,-1.403855 0.928143,-2.421195 2.274983,-2.94343 1.332902,-0.515377 2.596041,-0.298419 3.656758,0.630751 1.08166,0.942736 1.479429,2.143122 1.130477,3.547051 -0.08369,0.359461 -0.321002,0.617187 -0.55823,0.874838 -0.293129,0.318767 -0.593188,0.630751 -0.89325,0.942736 -0.01408,0.01358 -0.02789,0.02034 -0.03487,0.03391 0,0.0068 0,0.0068 -0.007,0.01358 -0.007,0.0068 -0.007,0.01358 -0.0138,0.02034 -0.007,0.01358 -0.02085,0.02713 -0.02789,0.04069 -0.007,0.0068 -0.007,0.01358 -0.0138,0.02034 -0.007,0.0068 -0.007,0.0068 -0.007,0.01358 -0.0138,0.02704 -0.02789,0.05425 -0.04189,0.08138 -0.02789,0.06104 -0.0418,0.128873 -0.05583,0.196676 -0.007,0.03392 -0.007,0.06783 -0.007,0.101718 0,0.01352 0,0.03392 0,0.04746 0,0.0068 0,0.01352 0,0.02704 0,0.01352 0,0.02704 0,0.0407 0,0.02028 0,0.04746 0,0.06783 0,0.0407 0,0.07459 0,0.115296 0,0.07459 0,0.156 0,0.230591 0,0.07459 0,0.156 0,0.230591 0,0.07462 0,0.156 0,0.230591 0,0.04071 0,0.07459 0,0.115296 0,0.02028 0,0.0407 0,0.06104 0,0.0068 0,0.01352 0,0.02028 v 0.0068 c -0.007,0.0068 -0.01408,0 -0.01408,0 -0.007,0 -0.02085,0 -0.02789,0 -0.03487,0 -0.07676,0 -0.111634,-0.0068 -0.153521,-0.0068 -0.307067,-0.01352 -0.460599,-0.02028 0.007,-0.128873 0.007,-0.257718 0.0138,-0.379805 0,-0.0407 0.007,-0.08817 0.007,-0.128873 0,-0.05425 0,-0.101746 0,-0.156 0,-0.02028 0,-0.03392 0,-0.05425 l -0.0907,-0.01352 c -0.03487,-0.0068 -0.06983,-0.01352 -0.104704,-0.01352 -0.07676,-0.0068 -0.146535,-0.01352 -0.223296,-0.02028 -0.07676,-0.0068 -0.153521,-0.0068 -0.230309,-0.0068 -0.07676,0 -0.153521,0 -0.23031,0 -0.06276,0 -0.132591,0 -0.195408,0 l -0.02789,0.779963 -0.621064,-0.02704 0.02789,-0.766396 c -0.03487,-0.0068 -0.07676,-0.01352 -0.111662,-0.02028 -0.07676,-0.01352 -0.146535,-0.02028 -0.223295,-0.02704 -0.07676,-0.0068 -0.153521,-0.0068 -0.23031,-0.01352 -0.07676,0 -0.153521,0 -0.230309,-0.0068 -0.03487,0 -0.07676,0 -0.111634,0"
         fill="#362745"
         id="path82"
         style="stroke-width:0.745303" /><path
         d="m 15.839846,15.847073 c -0.007,-0.0068 -0.007,-0.02034 -0.0138,-0.02713 -0.0138,-0.02034 -0.02084,-0.04748 -0.03487,-0.06782 -0.007,-0.01358 -0.01409,-0.02713 -0.02085,-0.04069 -0.007,-0.01358 -0.01409,-0.02034 -0.02085,-0.03391 -0.02789,-0.04069 -0.0489,-0.08817 -0.07676,-0.128862 -0.0138,-0.02034 -0.02085,-0.04069 -0.03487,-0.06782 0,-0.0068 -0.007,-0.01358 -0.007,-0.01358 0,-0.0068 -0.007,-0.01358 -0.007,-0.01358 -0.007,0 -0.007,0 -0.007,0.0068 0,0.0068 -0.007,0.0068 -0.007,0.01358 0,0.0068 -0.007,0.01358 -0.007,0.02034 -0.007,0.01358 -0.01408,0.02713 -0.02085,0.03391 -0.02789,0.04069 -0.05583,0.08817 -0.07676,0.128862 -0.02789,0.04069 -0.05583,0.08817 -0.07676,0.128862 -0.03487,0.05426 -0.06282,0.108515 -0.09772,0.169557 -0.0138,0.02034 -0.02085,0.04069 -0.03487,0.05426 -0.01409,0.02034 -0.02789,0.04069 -0.03487,0.06104 -0.01408,0.02034 -0.02789,0.04069 -0.04189,0.06782 -0.01408,0.02034 -0.02789,0.04748 -0.04189,0.06782 -0.0138,0.02713 -0.02789,0.04748 -0.04189,0.07461 -0.0138,0.02713 -0.02789,0.04748 -0.04189,0.07461 -0.0138,0.02713 -0.02789,0.05426 -0.0418,0.07461 -0.01409,0.02713 -0.02789,0.05426 -0.04189,0.07461 -0.01408,0.02713 -0.02789,0.04748 -0.04189,0.0746 -0.0138,0.02713 -0.02789,0.04748 -0.04189,0.07461 -0.0138,0.02713 -0.02789,0.04748 -0.04189,0.0746 -0.0138,0.02034 -0.02789,0.04748 -0.0418,0.06782 -0.01409,0.02034 -0.02789,0.04069 -0.03496,0.06104 -0.0138,0.02034 -0.02085,0.04069 -0.03487,0.06104 -0.007,0.02034 -0.02085,0.03391 -0.02789,0.05426 -0.007,0.01358 -0.02085,0.02713 -0.02789,0.04748 -0.007,0.01358 -0.0138,0.02713 -0.02085,0.04069 -0.007,0.0068 -0.0138,0.02034 -0.0138,0.02713 -0.007,0.0068 -0.007,0.01358 -0.0138,0.02034 l -0.007,0.0068 h 0.007 c 0.04189,0 0.07676,0 0.118648,0.0068 0.007,0 0.0138,0 0.02789,0 0.007,0 0.02085,0 0.02789,0 0.007,0 0.007,0 0.0138,0 0.007,0 0.0138,0 0.02085,0 0.007,0 0.0138,0 0.02789,0 0.007,0 0.02085,0 0.02789,0 0.0138,0 0.02789,0 0.03487,0 0.0138,0 0.02789,0 0.04189,0 0.0138,0 0.02789,0 0.04189,0 0.0138,0 0.03487,0 0.04882,0 0.0138,0 0.03487,0 0.04882,0 0.02085,0 0.03496,0 0.05583,0 0.02085,0 0.03496,0 0.05589,0 0.02085,0 0.0418,0 0.05583,0 0.02084,0 0.0418,0 0.06276,0 0.02085,0 0.04189,0 0.06282,0 0.02084,0 0.04189,0 0.06282,0 0.02085,0 0.0418,0 0.06276,0 0.02085,0 0.04189,0 0.06285,0 0.02084,0 0.04189,0 0.06282,0 0.02085,0 0.04189,0 0.06276,0 0.02084,0 0.04189,0 0.06282,0 0.02085,0 0.04189,0 0.05583,0 0.02085,0 0.03487,0 0.05583,0 0.02084,0 0.03487,0 0.05583,0 0.01409,0 0.03496,0 0.0489,0 0.0138,0 0.03487,0 0.04882,0 0.0138,0 0.02789,0 0.04189,0 0.0138,0 0.02789,0 0.04189,0 0.0138,0 0.02085,0 0.03487,0 l 0.251239,0.0068 c 0.007,0 0.007,0 0.007,0 -0.0138,-0.04069 -0.03487,-0.0746 -0.04882,-0.115298 -0.04189,-0.09495 -0.565239,-1.152985 -0.572245,-1.16655 0,0.0068 0,0.0068 0,0 z m -0.718771,1.024123 c 0.167465,-0.278073 0.321003,-0.529017 0.495478,-0.820654 0.118648,0.311984 0.216282,0.556145 0.334941,0.854565 -0.286124,-0.01358 -0.523354,-0.02713 -0.830419,-0.03391 z"
         fill="#362745"
         id="path84"
         style="stroke-width:0.745303" /><path
         d="m 11.164323,11.642217 c 0,0.03391 0.007,0.06104 0.007,0.08817 z m 0,0 c 0,0.03391 0.007,0.06104 0.007,0.08817 z"
         fill="#e0e3bd"
         id="path86"
         style="stroke-width:0.745303" /><path
         d="m 11.164323,11.642217 c 0,0.03391 0.007,0.06104 0.007,0.08817 m -0.007,-0.08817 c 0,0.03391 0.007,0.06104 0.007,0.08817 z"
         stroke="#362745"
         stroke-width="1.49061"
         stroke-miterlimit="10"
         id="path88" /><path
         d="m 25.937673,24.596049 c -0.355884,-0.278084 -0.621061,-0.637534 -0.956077,-0.949517 0.02085,-0.345895 0.06282,-0.657881 0.06282,-0.969866 -0.007,-0.854489 0.04882,-1.709057 -0.02084,-2.563622 -0.04189,-0.52216 0.104647,-1.024046 0.251239,-1.525936 0.286123,-0.9563 0.125577,-1.939652 -0.02085,-2.882388 -0.104704,-0.671444 -0.118648,-1.322542 -0.06977,-1.987129 0.04882,-0.583275 0.05583,-1.16655 0.104648,-1.749825 0.06282,-0.827362 0.139605,-1.641234 -0.07676,-2.4754531 -0.1886,-0.705356 -0.230487,-1.4445484 -0.52354,-2.122775 C 24.458244,6.840521 24.458244,6.840521 23.746403,5.924915 23.111404,5.273892 23.013697,5.2671098 22.469326,4.9483432 22.050614,4.7041816 21.638908,4.4735845 21.129492,4.4261085 20.480481,4.3650691 19.880364,4.0869952 19.238283,3.9852612 18.121744,3.8089235 17.01914,3.9038752 15.916539,4.0666502 14.43711,4.2904639 12.978588,4.5685379 11.841088,5.667265 c -0.53734,0.52216 -1.088643,1.0172655 -1.318933,1.7429681 -0.06282,0.2034673 -0.202366,0.379807 -0.30705,0.5629282 -0.48152,0.7934509 -0.369864,1.1529109 -0.439647,2.1838147 0.04186,0.07461 -0.09772,0.522235 -0.146563,0.644316 -0.06282,0.691717 -0.06977,0.250943 -0.06282,0.549364 0.02085,0.901966 0.02789,1.804008 0.0349,2.699267 0.007,0.813798 0.04186,1.62767 -0.111662,2.427977 -0.167492,0.847709 -0.153521,1.702277 -0.160506,2.556842 0,0.189915 0.007,0.386585 -0.04186,0.569711 -0.146535,0.637459 -0.111661,1.27499 -0.07676,1.912524 0.04885,0.868126 0.007,1.729403 0.111662,2.617881 -0.516408,0.393371 -1.025838,0.786742 -1.542243,1.166474 -0.181436,0.128873 -0.286124,0.271296 -0.286124,0.50189 0.01409,0.956297 0.01409,1.912597 0.02085,2.868824 0,0.257718 0.125605,0.400151 0.397776,0.4205 1.263106,0.07459 2.519242,0.149211 3.775369,0.230592 1.632967,0.101746 3.258962,0.196675 4.891923,0.298419 1.849321,0.115296 3.698645,0.23738 5.547893,0.352678 0.251239,0.01352 0.48154,-0.0407 0.697903,-0.169549 0.970013,-0.569712 1.946958,-1.139421 2.923976,-1.695566 0.237239,-0.135578 0.328008,-0.31191 0.328008,-0.576419 0.007,-0.834219 0.02789,-1.668437 0.04882,-2.495799 0,-0.169549 -0.03487,-0.325549 -0.188422,-0.440848 z M 9.880134,20.309731 c 0.08375,-0.569712 0.160506,-1.132564 0.146535,-1.709056 -0.02085,-0.74605 0.06977,-1.478535 0.181436,-2.210946 0.153521,-1.01734 0.09769,-2.041462 0.07676,-3.06551 -0.007,-0.373024 -0.01408,-0.746049 -0.007,-1.112292 0,-0.09495 0.007,-0.189903 0.01408,-0.284855 0.007,-0.05426 0.01408,-0.108515 0.01408,-0.169557 0,-0.02713 0.02085,-0.04748 0.04186,-0.06782 0.02789,-0.03391 0.06282,-0.06782 0.09073,-0.101735 0.007,-0.0068 0.01408,-0.01358 0.02789,-0.02034 0.007,0 0.02084,0 0.02789,0.0068 0.125606,0.05426 0.341946,0.250943 0.348921,0.264509 0,0.0068 0.251239,0.189904 0.251239,0.196687 0.007,0.0068 -0.153521,0.345896 -0.153521,0.35946 0.300073,0 0.223295,-0.09495 0.467557,-0.522234 0.01408,-0.02713 -0.244253,-0.196687 -0.244253,-0.230597 -0.04186,-0.04069 -0.05583,-0.09495 -0.07676,-0.142428 -0.02084,-0.06104 -0.05583,-0.115225 -0.09073,-0.162701 -0.02085,-0.02713 -0.04186,-0.04748 -0.06282,-0.07461 -0.02085,-0.02034 -0.04186,-0.04069 -0.06279,-0.06104 -0.01409,-0.01358 -0.02085,-0.02713 -0.02085,-0.04748 -0.007,-0.02713 -0.02084,-0.04748 -0.02789,-0.07461 -0.02789,-0.06104 -0.05583,-0.128862 -0.07676,-0.196687 -0.04885,-0.128862 -0.09073,-0.26451 -0.132592,-0.400154 -0.04189,-0.135645 -0.08375,-0.27129 -0.132591,-0.406936 -0.02789,-0.07461 -0.05583,-0.1424281 -0.08375,-0.2170341 0.04885,-0.637533 0.17445,-1.247862 0.607131,-1.7633146 0.09769,-0.1220815 0.160507,-0.2780728 0.209352,-0.4205007 0.195408,-0.6239684 0.628061,-1.0715982 1.123539,-1.471752 0.307051,-0.2509432 0.586191,-0.549289 0.942095,-0.7188456 0.007,-0.00679 0.0349,0.013577 0.04186,0.013577 0.01408,0.00679 0.02789,0.013577 0.04189,0.020338 0.02789,0.020338 0.04885,0.040693 0.06282,0.067822 0.02789,0.033913 0.0349,0.081386 0.05583,0.1152985 0.01408,0.033913 0.02789,0.074605 0.04186,0.1085153 0.02789,0.074529 0.05583,0.1423519 0.07676,0.2169574 0.007,0.013578 0.007,0.020338 0.01409,0.027127 0,0.00679 0.007,0.013577 0.007,0.013577 0,0 0.01408,0.00679 0.02085,0.00679 0.02789,0.00679 0.05583,0.020338 0.08375,0.027127 0.007,0 -0.02789,0.1831209 -0.02789,0.196687 v 0.033913 c 0,0.027127 -0.007,0.061039 -0.007,0.088169 -0.007,0.061039 -0.007,0.1220815 -0.01409,0.1831208 0,0.020338 -0.007,0.047476 0,0.067822 0.007,0.020338 0.01409,0.033913 0.02085,0.054259 0.05583,0.1085154 0.08375,0.5154522 0.08375,0.5154522 0,0 0.09073,-0.2305968 0.08375,-0.2441602 -0.007,-0.020338 -0.007,-0.033913 -0.01408,-0.054259 -0.007,-0.033913 -0.01409,-0.074605 -0.02085,-0.1085153 -0.007,-0.047476 -0.01409,-0.094952 -0.02085,-0.149211 0,-0.020338 -0.007,-0.033913 -0.007,-0.054259 0,-0.013578 -0.007,-0.020338 0,-0.033913 0.007,-0.020338 0.01408,-0.040693 0.02789,-0.054259 0.007,-0.020338 0.02085,-0.040693 0.02789,-0.061039 0,0 0.04186,0.00679 0.04885,0.013578 0.01408,0.00679 0.02789,0.013577 0.04189,0.013577 0.04186,0.00679 0.07676,0.020338 0.111662,0.040693 0.01408,0.00679 0.02789,0.013578 0.04186,0.027127 0.007,0.013577 0.01409,0.027127 0.02085,0.040693 0.0349,0.088169 0.06977,0.1831209 0.111634,0.2712898 0.007,0.013577 0.01408,0.033913 0.02789,0.047476 0.0138,0.013577 0.02789,0.020338 0.04189,0.027127 0.0907,0.054259 0.188423,0.1085153 0.279127,0.1627744 C 14.541765,7.0576019 14.479007,7.0033424 14.423176,6.93552 14.339396,6.8337849 14.283571,6.7117062 14.262641,6.5828422 c -0.007,-0.027127 -0.007,-0.054259 -0.007,-0.081386 -0.06977,-0.047476 -0.139549,-0.088169 -0.209324,-0.1356449 -0.02789,-0.020338 -0.06282,-0.033913 -0.08375,-0.054259 -0.007,-0.00679 -0.01409,-0.020338 -0.01409,-0.033913 -0.007,-0.020338 -0.01408,-0.033913 -0.02084,-0.054259 -0.02789,-0.074605 -0.04885,-0.149211 -0.07676,-0.2170335 -0.007,-0.020338 -0.01409,-0.047476 -0.0349,-0.054259 -0.007,-0.00679 -0.02085,-0.00679 -0.0349,-0.013578 -0.02085,-0.013577 -0.02789,-0.040693 -0.0349,-0.061039 -0.007,-0.027127 -0.01408,-0.060966 -0.02084,-0.088096 -0.007,-0.020338 -0.01409,-0.047476 -0.01409,-0.074605 v -0.027127 c -0.007,-0.047476 -0.02085,-0.094952 -0.02085,-0.142428 -0.007,-0.1220815 0.02085,-0.244163 0.0907,-0.3526778 2.128417,-0.305202 4.2778,-0.5561459 6.148064,1.0376123 v 0.9495172 c 0,0.027127 0,0.061039 -0.0138,0.088169 -0.007,0.00679 -0.007,0.013577 -0.01409,0.027127 -0.007,0.020338 -0.0138,0.040693 -0.02789,0.054259 -0.02085,0.033913 -0.04189,0.067822 -0.06977,0.1085153 -0.02789,0.040693 -0.05589,0.081389 -0.06983,0.1288618 0.007,-0.00679 0.0138,-0.00679 0.02085,-0.013578 l 0.02085,-0.020338 c 0.0138,-0.013577 0.03487,-0.027127 0.04882,-0.033913 0.03496,-0.020338 0.06282,-0.047476 0.09079,-0.074606 0.0138,-0.013577 0.02085,-0.027127 0.03487,-0.047476 0.0138,-0.020338 0.02789,-0.054259 0.04189,-0.074606 0.02085,-0.020338 0.03487,-0.054259 0.0418,-0.088169 0.007,-0.013577 0.01409,-0.020338 0.01409,-0.03391 0.007,-0.013577 0.007,-0.027127 0.0138,-0.047476 0.007,-0.033913 0.0138,-0.061039 0.02085,-0.094952 0.02789,-0.1356448 0.03487,-0.2712897 0.05583,-0.406936 0.007,-0.054259 0.02085,-0.101735 0.03487,-0.1559913 0.57925,0.4408472 1.179371,0.8274365 1.263142,1.6006151 0.06977,0.6510225 0.188423,1.2885565 0.376825,1.9193066 0.05583,0.183121 0.104648,0.373025 0.104648,0.562928 0,1.26821 0.06282,2.529711 -0.146535,3.791139 -0.111662,0.671444 -0.104648,1.370017 -0.111662,2.055026 0,0.732411 -0.04189,1.464895 -0.111662,2.190598 -0.06983,0.712137 -0.06983,1.417421 0.111662,2.109211 0.09772,0.366242 0.03487,0.732484 -0.007,1.105509 -0.08369,0.725629 -0.118563,1.458113 -0.167465,2.190599 -0.0138,0.176338 -0.007,0.359459 -0.08377,0.549363 -3.796282,-0.203465 -7.585595,-0.406935 -11.395857,-0.617185 0,0 -0.01408,-0.115296 -0.01408,-0.122085 -0.007,-0.04746 -0.01408,-0.09496 -0.02084,-0.142422 -0.01409,-0.09496 -0.02085,-0.183126 -0.02789,-0.278084 -0.007,-0.09496 0,-0.183127 0.007,-0.271295 v -0.03392 c 0,-0.03391 0.007,-0.07462 0.01408,-0.101746 0.007,-0.03392 0.01409,-0.07459 0.02085,-0.108507 0.02084,-0.08138 0.04186,-0.16276 0.07676,-0.244169 0.007,-0.01352 0.007,-0.02028 0.01408,-0.03392 0.007,-0.0068 0.02085,-0.01352 0.0349,-0.02028 0.181436,-0.06783 0.355898,-0.135633 0.537342,-0.203408 0.02085,-0.0068 0.02789,-0.03392 0.04186,-0.05425 0.01408,-0.02028 0.02789,-0.0407 0.04885,-0.06104 0.01408,-0.01352 0.0349,-0.02704 0.04885,-0.0407 0.02789,-0.02704 0.04186,-0.06104 0.05583,-0.09496 0.02789,-0.05425 0.05583,-0.115296 0.07676,-0.169549 0.01408,-0.02704 0.02789,-0.05425 0.0349,-0.07462 0,-0.0068 0,-0.01352 0.007,-0.02028 0.02085,-0.03391 0.06977,-0.06104 0.09769,-0.08138 0.06282,-0.04746 0.118647,-0.101746 0.160506,-0.16276 -0.05583,0.02704 -0.09769,0.06104 -0.153521,0.09496 -0.02085,0.01352 -0.04885,0.02704 -0.07676,0.03392 -0.007,0 -0.01408,0 -0.02789,0.0068 -0.007,0 -0.007,0.0068 -0.007,0.0068 -0.01408,0.01352 -0.02789,0.03392 -0.04189,0.05425 -0.02789,0.0407 -0.05583,0.08138 -0.08375,0.122085 -0.0349,0.04746 -0.0698,0.09496 -0.104676,0.149211 -0.0349,0.05425 -0.05583,0.108507 -0.111662,0.135633 -0.01408,0.0068 -0.0349,0.01352 -0.05583,0.02028 -0.174478,0.05425 -0.355903,0.115296 -0.530365,0.169549 -0.0349,0.01352 -0.06977,0.02028 -0.104676,0.04741 v -0.06775 c 0.007,-0.03392 0,-0.06783 0.007,-0.09496 v -0.135633 c 0,-0.09496 -0.007,-0.183127 -0.007,-0.278084 -0.007,-0.183127 -0.02085,-0.366242 -0.02789,-0.54258 -0.05583,-0.339115 -0.06282,-0.69179 -0.01409,-1.044469 z m -0.153521,4.401616 c 0.09769,-0.07462 0.223323,-0.05425 0.334968,-0.04746 2.240101,0.122084 4.48018,0.237379 6.720266,0.359461 1.465491,0.08138 2.930982,0.162788 4.403481,0.237295 0.06975,0.0068 0.139606,0.02028 0.216282,0.02704 0.139605,0.271295 0.251239,0.549362 0.335013,0.888474 -4.277822,-0.271295 -8.520762,-0.535796 -12.840457,-0.807089 0.293098,-0.284779 0.572239,-0.46112 0.830441,-0.657804 z m 12.233308,4.537188 c -0.313996,0.04746 -0.621061,0.0068 -0.907184,-0.02704 -0.0138,0 -0.02789,-0.01352 -0.03487,-0.02028 -0.01409,-0.0068 -0.02085,-0.01352 -0.03487,-0.02704 -0.02085,-0.01352 -0.04189,-0.03392 -0.06282,-0.05425 -0.04189,-0.0407 -0.06983,-0.09496 -0.111662,-0.135633 -0.01409,-0.01352 -0.03487,-0.02704 -0.04189,-0.0407 -0.0138,-0.02704 -0.02084,-0.05425 -0.02789,-0.08138 0,-0.0068 0,-0.01352 -0.007,-0.02704 -0.007,-0.0068 -0.01408,-0.01352 -0.01408,-0.02704 -0.03487,-0.0407 -0.06276,-0.08138 -0.08369,-0.128873 -0.007,-0.01352 -0.007,-0.03392 -0.007,-0.04746 0.007,-0.0407 -0.0138,-0.08138 -0.02789,-0.115295 -0.007,-0.03392 -0.01408,-0.06104 -0.02084,-0.09496 0,-0.0068 -0.007,-0.02028 -0.0138,-0.02704 -0.01408,-0.02028 -0.03496,-0.03392 -0.05589,-0.04747 -0.04882,-0.05425 -0.09763,-0.101746 -0.146535,-0.149211 -0.02085,-0.02028 -0.04189,-0.03392 -0.06282,-0.04747 0.01409,0.0068 0.02085,0.02704 0.03496,0.04071 0.007,0.01352 0.02085,0.02704 0.03487,0.0407 0.02085,0.02704 0.04189,0.05425 0.05583,0.09496 0,0.01352 0.0138,0.03392 0.02085,0.04746 0.02085,0.0407 0.03487,0.07459 0.04189,0.115296 0.0138,0.05425 0.02085,0.108507 0.02085,0.162788 0.007,0.04747 0.007,0.101746 0.01408,0.149211 0,0 0.03487,0.01352 0.04189,0.01352 0.007,0.0068 0.007,0.02028 0.007,0.03392 0.0138,0.03392 0.03487,0.06783 0.05583,0.101746 0.007,0.01352 0.0138,0.02704 0.02084,0.0407 v 0.115296 c 0,0.01352 0,0.03392 -0.007,0.04746 -0.0138,0.02028 -0.0418,0.03392 -0.03487,0.06104 -0.02789,0 -0.06975,0.0068 -0.09772,0 -0.007,0 -0.0138,0 -0.02085,-0.0068 -0.0489,-0.0068 -0.09079,-0.0068 -0.139606,-0.0068 -0.0907,-0.0068 -0.181493,-0.01352 -0.272197,-0.01352 -0.788531,-0.04746 -1.577138,-0.101746 -2.365669,-0.149211 -0.788605,-0.04746 -1.577139,-0.101746 -2.365743,-0.149211 -0.788532,-0.04746 -1.577139,-0.101718 -2.365707,-0.149211 -0.78857,-0.04746 -1.577138,-0.101746 -2.365715,-0.149211 -0.397768,-0.02704 -0.78857,-0.04746 -1.186344,-0.07459 -0.195408,-0.01352 -0.397771,-0.02704 -0.593174,-0.03392 -0.09769,-0.0068 -0.195408,-0.01352 -0.293098,-0.02028 -0.02084,0 -0.286115,-0.01352 -0.286115,-0.02028 v -0.651024 l 0.007,-0.0068 c 0.007,-0.0068 0.007,-0.0068 0.01408,-0.01352 0.007,-0.01352 0.01409,-0.02028 0.02085,-0.03392 0.02085,-0.02704 0.0349,-0.04746 0.05583,-0.07459 0.02085,-0.02704 0.04885,-0.05425 0.06977,-0.08138 0.007,-0.01352 0.01408,-0.02028 0.02085,-0.03392 0.01409,-0.01352 0.0349,-0.02704 0.04885,-0.03392 0.02085,-0.01352 0.04186,-0.02028 0.06282,-0.03392 0.04186,-0.02028 0.08375,-0.0407 0.132591,-0.05425 0.0349,-0.01352 0.0698,-0.02028 0.104676,-0.01352 0.02789,0.0068 0.05583,0.02028 0.07676,0.0407 0.07676,0.05425 0.160506,0.108507 0.251239,0.128873 0.02084,0.0068 0.02789,-0.01352 0.04186,-0.02028 0.0349,-0.03392 0.07676,-0.06104 0.111661,-0.08138 0.007,-0.0068 0.02085,-0.01352 0.02789,-0.01352 0.02085,-0.01352 0.04186,-0.02028 0.06282,-0.03392 0.08375,-0.03392 0.174478,-0.0407 0.265182,-0.04746 -0.06282,-0.02028 -0.132591,-0.03392 -0.209352,-0.0407 -0.04186,0 -0.08375,0 -0.118647,0.02028 -0.007,0.0068 -0.01408,0.01352 -0.01408,0.01352 -0.007,0.0068 -0.02085,0.01352 -0.02789,0.02028 l -0.06282,0.0407 c -0.007,0 -0.007,0.0068 -0.01408,0.0068 -0.01409,0.0068 -0.02789,0.01352 -0.0349,0.02704 -0.007,0.0068 -0.02789,0.02028 -0.04186,0.02028 -0.007,0 -0.02085,-0.0068 -0.0349,-0.01352 -0.007,-0.0068 -0.02084,-0.0068 -0.02789,-0.01352 -0.02084,-0.01352 -0.04186,-0.02704 -0.05583,-0.03392 -0.05583,-0.0407 -0.111662,-0.09496 -0.167493,-0.142422 -0.007,-0.0068 -0.01408,-0.0068 -0.02085,-0.01352 h -0.02789 c -0.02085,0.0068 -0.04189,0.0068 -0.06282,0.01352 -0.01409,0 -0.02085,0.0068 -0.0349,0.0068 h -0.02085 c -0.02085,0 -0.04186,0.0068 -0.06282,0.0068 -0.02789,0.0068 -0.06282,0.01352 -0.09073,0.02028 -0.09073,0.02028 -0.17445,0.0407 -0.265182,0.06783 v -1.363235 c 4.577894,0.284856 9.141817,0.576492 13.726703,0.861348 z M 20.654957,6.0198667 20.452532,5.7418682 h -0.0907 c -0.0138,0 -0.02085,-0.013577 -0.03487,-0.013577 L 20.117603,5.5655164 C 19.977998,5.457001 19.831479,5.355266 19.684953,5.2603143 19.391824,5.0636273 19.084759,4.8805075 18.756825,4.7312976 18.610233,4.7177202 18.491642,4.649909 18.324101,4.5481767 c 0.181493,0.027127 0.307068,0.047476 0.432724,0.067823 0.43265,-0.00679 0.837424,0.1288618 1.24913,0.2509433 0.321003,0.094952 0.642005,0.196687 0.977019,0.2238137 0.509416,0.033913 0.907184,0.2984199 1.304953,0.5629282 0.313996,0.2101772 0.418712,0.5560713 0.516421,0.8816201 0.06977,0.2509433 -0.174478,0.3594603 -0.328008,0.501888 V 7.06432 c 0,0.013577 0.007,0.027127 0.007,0.040693 0.007,0.027127 0.02084,0.047476 0.02789,0.074605 0.02789,0.054259 0.05583,0.1017351 0.07676,0.1559914 0.0138,0.027127 0.02084,0.054259 0.02789,0.081386 0.007,0.027127 0.0138,0.061039 0.007,0.088169 0,0.013578 -0.02085,0.027127 -0.02789,0.033913 -0.04189,0.054259 -0.09079,0.1085153 -0.132592,0.1559913 l 0.293053,-0.094952 c 0.02084,-0.020338 0.03487,-0.040693 0.05583,-0.054259 0.02085,-0.013577 0.04189,-0.033913 0.06282,-0.047476 -0.02084,-0.013577 -0.02084,-0.020338 -0.02084,-0.040693 -0.007,-0.027127 -0.0138,-0.061039 -0.02085,-0.088169 -0.007,-0.027127 -0.0138,-0.054259 -0.02085,-0.081389 0,-0.013578 -0.007,-0.027127 -0.007,-0.040693 0,-0.00679 -0.01409,-0.03391 -0.007,-0.040693 0.07676,-0.1492111 0.244225,-0.1763378 0.328008,-0.2712898 0.516422,0.033913 0.802546,0.2984199 0.949072,0.7528319 0.188422,0.5764926 0.237239,1.1868221 0.411704,1.7633141 0.300061,1.0309051 0.111662,2.0481701 0.03487,3.0722931 -0.0418,0.590057 0.02085,1.193679 -0.09763,1.776879 -0.0489,0.223814 -0.104704,0.434065 -0.286123,0.562928 -0.06282,0.250944 -0.007,0.481541 -0.02085,0.712138 -0.02789,0.06782 -0.09079,0.122082 -0.146592,0.169558 -0.04882,0.04748 -0.104647,0.08817 -0.160478,0.128861 0,0 0,0 -0.007,0.0068 -0.04882,0.03391 -0.104648,0.06782 -0.146535,0.108515 -0.02085,0.02034 -0.04189,0.04069 -0.06282,0.06104 -0.02085,0.02034 -0.04882,0.03391 -0.07676,0.05426 -0.04882,0.02713 -0.09772,0.06104 -0.146535,0.09495 -0.0138,0.01358 -0.03487,0.02034 -0.04189,0.04069 l -0.02789,0.02713 c -0.007,0.0068 -0.02085,0.02034 -0.02789,0.02713 -0.007,0.0068 -0.0138,0.01358 -0.0138,0.02034 0,0.0068 0.007,0.0068 0.007,0.01358 0.03496,0.04069 0.0489,0.101735 0.07676,0.149208 0.007,0.01358 0.02084,0.02713 0.02789,0.04748 0.007,0.0068 0.007,0.01358 0.007,0.02713 0.0138,0.02713 0.02085,0.05426 0.02085,0.08138 v 0.04071 c -0.007,0.02713 0.007,0.05426 -0.01409,0.0746 -0.02789,0.02713 -0.06276,0.05426 -0.0907,0.08139 -0.0138,0.01358 -0.02789,0.02713 -0.04189,0.03391 -0.02789,0.02713 -0.06276,0.04748 -0.0907,0.07453 -0.007,0.0068 -0.0138,0.0068 -0.0138,0.01363 -0.007,0.0068 -0.007,0.02028 0,0.03384 0.02084,0.149211 0.04189,0.305202 0.06276,0.454414 0,0.02028 0.007,0.04746 0.007,0.07459 -0.007,0.02028 -0.007,0.0407 -0.007,0.06783 0,0.06104 0.007,0.122084 0.01408,0.176338 l 0.132592,-0.630752 c 0.09772,-0.176337 0.341946,-0.210177 0.4047,-0.386514 0,-0.155992 -0.146535,-0.196687 -0.195351,-0.332331 0.258168,-0.183121 0.523351,-0.373025 0.81648,-0.583276 0.007,-0.135644 0.02085,-0.298419 0.02789,-0.467976 0.09772,0.02034 0.111662,0.09495 0.118648,0.155992 0.04882,0.915606 0.279126,1.831137 0.07676,2.753526 -0.06975,0.332332 -0.188422,0.651098 -0.230309,0.98343 -0.111662,0.935877 0.03487,1.865048 0.0138,2.794218 -0.0138,0.467901 0.0489,0.942661 -0.111662,1.430984 -0.697827,0.352679 -1.402663,0.671444 -2.163321,1.024123 0.03487,-0.413718 0.04882,-0.77996 0.0907,-1.146204 0.06282,-0.590056 0.03487,-1.193604 0.167465,-1.776879 0.05589,-0.250958 0.03496,-0.522233 -0.02789,-0.77318 -0.216366,-0.813872 -0.209352,-1.627668 -0.104705,-2.448323 0.111719,-0.895257 0.08378,-1.797227 0.09772,-2.699268 0.01408,-0.902042 0.153521,-1.790444 0.202422,-2.692485 0.04882,-0.942736 0.132591,-1.892178 -0.03487,-2.821349 C 22.372028,9.4041309 22.155752,8.6784279 22.065048,7.9256712 21.995217,7.3695255 21.709091,6.9083313 21.262506,6.5488713 21.095041,6.4132264 20.941503,6.2707984 20.774033,6.1283705 c -0.04189,-0.033913 -0.07676,-0.067823 -0.118648,-0.1085154 -0.007,-0.00679 -0.01408,-0.00679 -0.01408,-0.013577 -0.0138,-0.013578 -0.0138,-0.027127 -0.02084,-0.047476 z m 3.670699,18.5354893 c 0,0 0.007,0.0068 0.0138,0.0068 0.007,0 0.007,0 0.0138,0.0068 0.01408,0 0.02085,0.0068 0.02789,0.01352 0.0138,0.01352 0.02085,0.02704 0.02789,0.0407 0,0.02028 0.007,0.0407 0.007,0.06783 0,0.04746 0.007,0.101718 0,0.149211 0,0.02704 0,0.04747 -0.007,0.07462 v 0.02704 c 0,0.01352 0.01409,0.01352 0.02789,0.02028 0.02085,0.0068 0.03487,0.02704 0.04189,0.0407 0.007,0.01352 0.0138,0.02704 0.007,0.0407 0,0.01352 -0.007,0.02704 -0.0138,0.03392 -0.0138,0.02704 -0.03487,0.0407 -0.06282,0.05425 -0.06276,0.02704 -0.125577,0.06104 -0.181408,0.09496 -0.558309,0.284779 -1.116542,0.576418 -1.702797,0.874838 -0.153521,-0.278084 -0.258169,-0.556146 -0.362887,-0.874838 0.774669,-0.352679 1.542257,-0.705357 2.316926,-1.064816 0.258169,0.156 0.418712,0.393371 0.607123,0.596839 -0.104704,0.115295 -0.237295,0.149211 -0.369892,0.210253 -0.0138,-0.0068 -0.02789,-0.01352 -0.04189,-0.02028 -0.0138,-0.0068 -0.03487,-0.02028 -0.04882,-0.02704 -0.0138,-0.0068 -0.02789,-0.02028 -0.0489,-0.02028 -0.02085,-0.0068 -0.04882,-0.02028 -0.06276,-0.03392 -0.007,-0.0068 -0.007,-0.01352 -0.007,-0.02704 -0.007,-0.02704 -0.0138,-0.04746 -0.0138,-0.07459 -0.007,-0.03392 -0.0138,-0.06104 -0.02789,-0.09496 -0.007,-0.02704 -0.02084,-0.06104 -0.02789,-0.08817 z m 0.474534,1.837918 v -0.101746 c 0,-0.02028 0,-0.04746 0.0138,-0.06783 0.007,-0.01352 0.007,-0.02028 0.0138,-0.02704 0,-0.0068 0.007,-0.0068 0.007,-0.01352 0.02085,-0.03392 0.04189,-0.06783 0.06975,-0.101718 0.118647,-0.135634 0.188422,-0.291639 0.174478,-0.481543 0.07676,-0.05425 0.153521,-0.115296 0.286124,-0.108507 0.04882,0.664661 0.0138,1.356454 -0.007,2.061808 -0.879236,0.508596 -1.758547,1.017266 -2.672737,1.539502 v -2.299115 c 0.711841,-0.366242 1.4166,-0.725703 2.128442,-1.085162 0.02085,0.02704 0.03487,0.06104 0.04189,0.09496 0.007,0.02028 0,0.04746 0,0.06783 0,0.01352 -0.007,0.02028 -0.0138,0.03392 0,0.0068 -0.007,0.01352 -0.01408,0.02704 -0.007,0.0068 -0.02084,0.02028 -0.02789,0.02704 -0.01408,0.0068 -0.02085,0.02028 -0.03487,0.03392 -0.01408,0.01352 -0.02789,0.03392 -0.03496,0.04746 -0.007,0.0068 -0.0138,0.01352 -0.0138,0.02704 -0.007,0.0068 -0.0138,0.02028 -0.0138,0.03391 -0.02084,0.03392 -0.04189,0.07459 -0.06977,0.108507 -0.01408,0.01352 -0.02789,0.03392 -0.02789,0.05425 0,0.0068 0,0.01352 0.007,0.02028 v 0.264507 c 0,0.04746 0.007,0.08817 0.007,0.135634 0,0.03392 -0.007,0.08138 -0.02789,0.108507 l -0.02085,0.02028 c 0,0 -0.007,0.0068 -0.007,0.01352 0,0.0068 -0.007,0.0068 -0.0138,0.01352 -0.04882,0.05425 -0.111662,0.09496 -0.174479,0.135634 0.04189,-0.0068 0.08377,-0.01352 0.118648,-0.03392 0.02789,-0.01352 0.05583,-0.03392 0.0907,-0.04747 0.007,0 0.0138,-0.01352 0.02789,-0.01352 0,0 0,0 0.007,0 0.01408,-0.02028 0.02085,-0.0407 0.03487,-0.06783 0.007,-0.0068 0.007,-0.02028 0.01408,-0.03392 0.007,-0.01352 0.007,-0.02028 0.0138,-0.03392 0,-0.0068 0.007,-0.01352 0.007,-0.02028 0.007,-0.02704 0.0138,-0.05425 0.02789,-0.08138 0.007,-0.01352 0.007,-0.02704 0.0138,-0.0407 0,-0.0068 0.007,-0.01352 0.007,-0.02704 0,-0.01352 0,-0.02704 0.007,-0.03392 0,-0.01352 0.007,-0.02704 0.02085,-0.03392 0.007,0 0.007,0 0.0138,0 z"
         fill="#e0e3bd"
         id="path90"
         style="stroke-width:0.745303" /><path
         d="M 20.654957,6.0198667 20.452535,5.7418671 h -0.0907 c -0.0138,0 -0.02085,-0.013578 -0.03487,-0.013578 L 20.117606,5.5655152 C 19.978,5.4569999 19.831482,5.3552648 19.684956,5.2603132 19.391827,5.0636261 19.084762,4.8805064 18.756828,4.7312965 18.610236,4.717719 18.491645,4.6499079 18.324104,4.5481756 c 0.181493,0.027127 0.307067,0.047476 0.432724,0.067822 0.43265,-0.00679 0.837424,0.1288617 1.24913,0.2509432 0.321002,0.094952 0.642005,0.1966871 0.977018,0.2238138 0.509417,0.033913 0.907185,0.2984198 1.304953,0.5629282 0.313997,0.2101771 0.418712,0.5560713 0.516422,0.8816201 0.06977,0.2509433 -0.174478,0.3594603 -0.328008,0.501888 v 0.027127 c 0,0.013577 0.007,0.027127 0.007,0.040693 0.007,0.027127 0.02085,0.047476 0.02789,0.074606 0.02789,0.054259 0.05583,0.1017351 0.07676,0.1559913 0.0138,0.027127 0.02085,0.054259 0.02789,0.081386 0.007,0.027127 0.0138,0.061039 0.007,0.088169 0,0.013578 -0.02084,0.027127 -0.02789,0.033913 -0.04189,0.054259 -0.09079,0.1085154 -0.132591,0.1559914 l 0.293053,-0.094952 c 0.02084,-0.020338 0.03487,-0.040693 0.05583,-0.054259 0.02085,-0.013577 0.04189,-0.033913 0.06282,-0.047476 -0.02085,-0.013577 -0.02085,-0.020338 -0.02085,-0.040693 -0.007,-0.027127 -0.0138,-0.061039 -0.02085,-0.088169 -0.007,-0.027127 -0.0138,-0.054259 -0.02085,-0.081389 0,-0.013577 -0.007,-0.027127 -0.007,-0.040693 0,-0.00679 -0.01408,-0.03391 -0.007,-0.040693 0.07676,-0.149211 0.244225,-0.1763377 0.328008,-0.2712897 0.516422,0.033913 0.802545,0.2984198 0.949072,0.7528318 0.188422,0.5764927 0.237239,1.1868222 0.411704,1.7633142 0.300061,1.0309051 0.111661,2.0481701 0.03487,3.0722931 -0.0418,0.590057 0.02085,1.193678 -0.09763,1.776879 -0.0489,0.223814 -0.104704,0.434065 -0.286123,0.562928 -0.06282,0.250943 -0.007,0.481541 -0.02084,0.712138 -0.02789,0.06782 -0.09079,0.122081 -0.146592,0.169557 -0.04882,0.04748 -0.104647,0.08817 -0.160478,0.128862 0,0 0,0 -0.007,0.0068 -0.04882,0.03391 -0.104647,0.06782 -0.146535,0.108515 -0.02084,0.02034 -0.04189,0.04069 -0.06282,0.06104 -0.02085,0.02034 -0.04882,0.03391 -0.07676,0.05426 -0.04882,0.02713 -0.09772,0.06104 -0.146535,0.09495 -0.0138,0.01358 -0.03487,0.02034 -0.04189,0.04069 l -0.02789,0.02713 c -0.007,0.0068 -0.02085,0.02034 -0.02789,0.02713 -0.007,0.0068 -0.0138,0.01358 -0.0138,0.02034 0,0.0068 0.007,0.0068 0.007,0.01358 0.03496,0.04069 0.0489,0.101736 0.07676,0.149209 0.007,0.01358 0.02084,0.02713 0.02789,0.04748 0.007,0.0068 0.007,0.01358 0.007,0.02713 0.0138,0.02713 0.02085,0.05426 0.02085,0.08139 v 0.04071 c -0.007,0.02713 0.007,0.05426 -0.01409,0.0746 -0.02789,0.02713 -0.06276,0.05426 -0.0907,0.08139 -0.0138,0.01358 -0.02789,0.02713 -0.04189,0.03391 -0.02789,0.02713 -0.06276,0.04748 -0.0907,0.07453 -0.007,0.0068 -0.0138,0.0068 -0.0138,0.01363 -0.007,0.0068 -0.007,0.02028 0,0.03384 0.02085,0.149211 0.04189,0.305202 0.06276,0.454414 0,0.02028 0.007,0.04746 0.007,0.07459 -0.007,0.02028 -0.007,0.0407 -0.007,0.06783 0,0.06104 0.007,0.122084 0.01408,0.176338 l 0.132591,-0.630752 c 0.09772,-0.176337 0.341946,-0.210177 0.404701,-0.386514 0,-0.155992 -0.146535,-0.196687 -0.195352,-0.332331 0.258169,-0.183121 0.523352,-0.373025 0.816481,-0.583276 0.007,-0.135644 0.02085,-0.298419 0.02789,-0.467976 0.09772,0.02034 0.111662,0.09495 0.118648,0.155992 0.04882,0.915606 0.279126,1.831137 0.07676,2.753526 -0.06975,0.332332 -0.188422,0.651098 -0.230309,0.98343 -0.111662,0.935877 0.03487,1.865048 0.0138,2.794218 -0.0138,0.467901 0.0489,0.942661 -0.111662,1.430984 -0.697827,0.352679 -1.402663,0.671444 -2.163321,1.024123 0.03487,-0.413718 0.04882,-0.77996 0.0907,-1.146204 0.06282,-0.590056 0.03487,-1.193604 0.167465,-1.776879 0.05589,-0.250958 0.03496,-0.522233 -0.02789,-0.77318 -0.216366,-0.813872 -0.209351,-1.627668 -0.104704,-2.448323 0.111718,-0.895257 0.08377,-1.797227 0.09772,-2.699268 0.01409,-0.902042 0.153521,-1.790444 0.202423,-2.692485 0.04882,-0.942736 0.132591,-1.892178 -0.03487,-2.821349 C 22.372031,9.4041309 22.155755,8.6784279 22.065051,7.9256712 21.99522,7.3695255 21.709094,6.9083313 21.262508,6.5488713 21.095044,6.4132264 20.941506,6.2707984 20.774036,6.1283705 20.732149,6.0944578 20.697275,6.060548 20.655388,6.0198551 Z m 0,0 c -0.007,-0.00679 -0.01408,-0.00679 -0.01408,-0.013577 -0.0138,-0.013577 -0.0138,-0.027127 -0.02085,-0.047476 z m 3.782344,18.5626163 c 0.007,0.02704 0.02085,0.06104 0.02789,0.08817 0.01409,0.03392 0.02085,0.06104 0.02789,0.09496 0,0.02704 0.007,0.04746 0.0138,0.07459 0,0.01352 0,0.02028 0.007,0.02704 0.0138,0.01352 0.04189,0.02704 0.06276,0.03391 0.02085,0 0.03496,0.01352 0.0489,0.02028 0.0138,0.0068 0.03487,0.02028 0.04882,0.02704 0.01409,0.0068 0.02789,0.01352 0.04189,0.02028 0.132592,-0.06104 0.265183,-0.09496 0.369893,-0.210253 -0.188423,-0.203465 -0.348952,-0.440848 -0.607123,-0.596839 -0.77467,0.359459 -1.542257,0.712137 -2.316926,1.064815 0.104704,0.318693 0.209351,0.596766 0.362886,0.874838 0.586256,-0.298419 1.144489,-0.590058 1.702798,-0.874838 0.05583,-0.03391 0.118648,-0.06783 0.181408,-0.09496 0.02789,-0.01352 0.0489,-0.02704 0.06282,-0.05425 0.007,-0.0068 0.0138,-0.02028 0.0138,-0.03392 0.007,-0.01352 0,-0.02704 -0.007,-0.0407 -0.007,-0.01352 -0.02085,-0.03392 -0.04189,-0.0407 -0.0138,-0.0068 -0.02789,-0.0068 -0.02789,-0.02028 v -0.02704 c 0.007,-0.02704 0.007,-0.04747 0.007,-0.07462 0.007,-0.04747 0,-0.101746 0,-0.149211 0,-0.02704 -0.007,-0.04746 -0.007,-0.06783 -0.007,-0.01352 -0.0138,-0.02704 -0.02789,-0.0407 -0.007,-0.0068 -0.0138,-0.01352 -0.02789,-0.01352 -0.007,-0.0068 -0.007,-0.0068 -0.0138,-0.0068 -0.007,0 -0.0138,-0.0068 -0.0138,-0.0068 z m 0,0 -0.146535,-0.05425 m 1.646899,0.06783 c -0.355884,-0.278084 -0.621061,-0.637534 -0.956078,-0.949517 0.02085,-0.345895 0.06282,-0.657881 0.06282,-0.969866 -0.007,-0.854489 0.04882,-1.709057 -0.02085,-2.563622 -0.04189,-0.522159 0.104648,-1.024046 0.251239,-1.525935 0.286124,-0.9563 0.125577,-1.939653 -0.02085,-2.882388 -0.104704,-0.671445 -0.118648,-1.322542 -0.06977,-1.98713 0.04882,-0.583275 0.05583,-1.16655 0.104647,-1.749825 0.06282,-0.827362 0.139606,-1.641234 -0.07676,-2.4754531 -0.18858,-0.70537 -0.230467,-1.4445624 -0.52352,-2.122789 C 24.458244,6.840521 24.458244,6.840521 23.746403,5.924915 23.111404,5.273892 23.013697,5.2671098 22.469326,4.9483432 22.050614,4.7041816 21.638908,4.4735845 21.129492,4.4261085 20.480481,4.3650691 19.880364,4.0869952 19.238283,3.9852612 18.121744,3.8089235 17.01914,3.9038752 15.916539,4.0666502 14.43711,4.2904639 12.978588,4.5685379 11.841088,5.667265 c -0.53734,0.52216 -1.088643,1.0172655 -1.318933,1.7429681 -0.06282,0.2034673 -0.202366,0.379807 -0.30705,0.5629282 -0.48152,0.7934509 -0.369864,1.1529109 -0.439647,2.1838147 0.04186,0.07461 -0.09772,0.522235 -0.146563,0.644316 -0.06282,0.691717 -0.06977,0.250943 -0.06282,0.549364 0.02085,0.901966 0.02789,1.804008 0.0349,2.699267 0.007,0.813798 0.04186,1.62767 -0.111662,2.427977 -0.167492,0.847709 -0.153521,1.702277 -0.160506,2.556842 0,0.189915 0.007,0.386585 -0.04186,0.569711 -0.146535,0.637459 -0.111661,1.27499 -0.07676,1.912524 0.04885,0.868126 0.007,1.729403 0.111662,2.617881 -0.516408,0.393371 -1.025838,0.786742 -1.542243,1.166474 -0.181436,0.128873 -0.286124,0.271296 -0.286124,0.50189 0.01409,0.956297 0.01409,1.912597 0.02085,2.868824 0,0.257718 0.125605,0.400151 0.397776,0.4205 1.263106,0.07459 2.519242,0.149211 3.775369,0.230592 1.632967,0.101746 3.258962,0.196675 4.891923,0.298419 1.849321,0.115296 3.698645,0.23738 5.547893,0.352678 0.251239,0.01352 0.48154,-0.0407 0.697903,-0.169549 0.970013,-0.569712 1.946958,-1.139421 2.923976,-1.695566 0.237239,-0.135578 0.328008,-0.31191 0.328008,-0.576419 0.007,-0.834219 0.02789,-1.668437 0.04882,-2.495799 0,-0.169549 -0.03487,-0.325549 -0.188422,-0.440848 z M 9.880125,20.309746 c 0.08375,-0.569712 0.160507,-1.132565 0.146535,-1.709057 -0.02084,-0.74605 0.06977,-1.478535 0.181437,-2.210946 0.15352,-1.017339 0.09769,-2.041462 0.07676,-3.06551 -0.007,-0.373024 -0.01408,-0.746049 -0.007,-1.112291 0,-0.09495 0.007,-0.189904 0.01408,-0.284856 0.007,-0.05426 0.01409,-0.108515 0.01409,-0.169557 0,-0.02713 0.02084,-0.04748 0.04186,-0.06782 0.02789,-0.03391 0.06282,-0.06782 0.09073,-0.101735 0.007,-0.0068 0.01409,-0.01358 0.02789,-0.02034 0.007,0 0.02085,0 0.02789,0.0068 0.125605,0.05426 0.341946,0.250943 0.34892,0.26451 0,0.0068 0.251239,0.189904 0.251239,0.196687 0.007,0.0068 -0.153521,0.345895 -0.153521,0.35946 0.300073,0 0.223296,-0.09495 0.467557,-0.522235 0.01409,-0.02713 -0.244253,-0.196687 -0.244253,-0.230597 -0.04186,-0.04069 -0.05583,-0.09495 -0.07676,-0.142428 -0.02084,-0.06104 -0.05583,-0.115225 -0.09073,-0.162701 -0.02084,-0.02713 -0.04186,-0.04748 -0.06282,-0.07461 -0.02085,-0.02034 -0.04186,-0.04069 -0.06279,-0.06104 -0.01408,-0.01358 -0.02085,-0.02713 -0.02085,-0.04748 -0.007,-0.02713 -0.02085,-0.04748 -0.02789,-0.07461 -0.02789,-0.06104 -0.05583,-0.128862 -0.07676,-0.196687 -0.04885,-0.128862 -0.09073,-0.26451 -0.132591,-0.400154 -0.04189,-0.135645 -0.08375,-0.27129 -0.132591,-0.406936 -0.02789,-0.07461 -0.05583,-0.1424281 -0.08375,-0.2170331 0.04885,-0.637534 0.174451,-1.247863 0.607132,-1.7633153 0.09769,-0.1220815 0.160507,-0.2780728 0.209352,-0.4205008 0.195408,-0.6239683 0.628061,-1.0715981 1.123539,-1.4717519 0.30705,-0.2509433 0.58619,-0.549289 0.942094,-0.7188457 0.007,-0.00679 0.0349,0.013578 0.04186,0.013578 0.01408,0.00679 0.02789,0.013577 0.04189,0.020338 0.02789,0.020338 0.04885,0.040693 0.06282,0.067822 0.02789,0.033913 0.0349,0.081386 0.05583,0.1152984 0.01409,0.033913 0.02789,0.074606 0.04186,0.1085154 0.02789,0.074529 0.05583,0.1423519 0.07676,0.2169574 0.007,0.013577 0.007,0.020338 0.01408,0.027127 0,0.00679 0.007,0.013577 0.007,0.013577 0,0 0.01408,0.00679 0.02084,0.00679 0.02789,0.00679 0.05583,0.020338 0.08375,0.027127 0.007,0 -0.02789,0.1831208 -0.02789,0.196687 v 0.033913 c 0,0.027127 -0.007,0.061039 -0.007,0.088169 -0.007,0.061039 -0.007,0.1220815 -0.01408,0.1831209 0,0.020338 -0.007,0.047476 0,0.067822 0.007,0.020338 0.01408,0.033913 0.02084,0.054259 0.05583,0.1085153 0.08375,0.5154522 0.08375,0.5154522 0,0 0.09073,-0.2305969 0.08375,-0.2441602 -0.007,-0.020338 -0.007,-0.033913 -0.01408,-0.054259 -0.007,-0.033913 -0.01408,-0.074606 -0.02085,-0.1085153 -0.007,-0.047476 -0.01408,-0.094952 -0.02085,-0.1492111 0,-0.020338 -0.007,-0.033913 -0.007,-0.054259 0,-0.013578 -0.007,-0.020338 0,-0.033913 0.007,-0.020338 0.01408,-0.040693 0.02789,-0.054259 0.007,-0.020338 0.02085,-0.040693 0.02789,-0.061039 0,0 0.04186,0.00679 0.04885,0.013577 0.01409,0.00679 0.02789,0.013577 0.04189,0.013577 0.04186,0.00679 0.07676,0.020338 0.111661,0.040693 0.01409,0.00679 0.02789,0.013577 0.04186,0.027127 0.007,0.013578 0.01408,0.027127 0.02085,0.040693 0.0349,0.088169 0.06977,0.1831209 0.111633,0.2712898 0.007,0.013577 0.01409,0.033913 0.02789,0.047476 0.0138,0.013578 0.02789,0.020338 0.04189,0.027127 0.0907,0.054259 0.188422,0.1085153 0.279126,0.1627744 -0.04189,-0.067823 -0.104648,-0.1220815 -0.160478,-0.189904 -0.08377,-0.101735 -0.139606,-0.2238137 -0.160535,-0.3526778 -0.007,-0.027127 -0.007,-0.054259 -0.007,-0.081386 -0.06977,-0.047476 -0.139549,-0.088169 -0.209323,-0.1356448 -0.02789,-0.020338 -0.06282,-0.033913 -0.08375,-0.054259 -0.007,-0.00679 -0.01408,-0.020338 -0.01408,-0.033913 -0.007,-0.020338 -0.01409,-0.033913 -0.02085,-0.054259 -0.02789,-0.074606 -0.04885,-0.1492111 -0.07676,-0.2170335 -0.007,-0.020338 -0.01408,-0.047476 -0.0349,-0.054259 -0.007,-0.00679 -0.02085,-0.00679 -0.0349,-0.013577 -0.02085,-0.013577 -0.02789,-0.040693 -0.0349,-0.061039 -0.007,-0.027127 -0.01408,-0.060966 -0.02085,-0.088096 -0.007,-0.020338 -0.01408,-0.047476 -0.01408,-0.074606 V 5.687657 c -0.007,-0.047476 -0.02085,-0.094952 -0.02085,-0.142428 -0.007,-0.1220815 0.02085,-0.244163 0.0907,-0.3526778 2.128416,-0.3052021 4.277799,-0.5561459 6.148064,1.0376123 v 0.9495172 c 0,0.027127 0,0.061039 -0.0138,0.088169 -0.007,0.00679 -0.007,0.013577 -0.01408,0.027127 -0.007,0.020338 -0.0138,0.040693 -0.02789,0.054259 -0.02085,0.033913 -0.04189,0.067823 -0.06977,0.1085154 -0.02789,0.040693 -0.05589,0.081389 -0.06983,0.1288618 0.007,-0.00679 0.0138,-0.00679 0.02085,-0.013577 l 0.02085,-0.020338 c 0.0138,-0.013577 0.03487,-0.027127 0.04882,-0.033913 0.03496,-0.020338 0.06282,-0.047476 0.09079,-0.074605 0.0138,-0.013578 0.02085,-0.027127 0.03487,-0.047476 0.0138,-0.020338 0.02789,-0.054259 0.04189,-0.074605 0.02084,-0.020338 0.03487,-0.054259 0.0418,-0.088169 0.007,-0.013577 0.01408,-0.020338 0.01408,-0.03391 0.007,-0.013577 0.007,-0.027127 0.0138,-0.047476 0.007,-0.033913 0.0138,-0.061039 0.02085,-0.094952 0.02789,-0.1356449 0.03487,-0.2712897 0.05583,-0.406936 0.007,-0.054259 0.02084,-0.1017351 0.03487,-0.1559913 0.57925,0.4408472 1.17937,0.8274365 1.263142,1.6006151 0.06977,0.6510232 0.188422,1.2885562 0.376825,1.9193063 0.05583,0.183121 0.104647,0.373025 0.104647,0.562929 0,1.268209 0.06282,2.529711 -0.146535,3.791138 -0.111661,0.671444 -0.104647,1.370018 -0.111661,2.055027 0,0.73241 -0.04189,1.464894 -0.111662,2.190598 -0.06983,0.712137 -0.06983,1.41742 0.111662,2.109211 0.09772,0.366241 0.03487,0.732483 -0.007,1.105508 -0.08369,0.72563 -0.118563,1.458113 -0.167464,2.190599 -0.0138,0.176338 -0.007,0.359459 -0.08378,0.549363 -3.796281,-0.203465 -7.585594,-0.406935 -11.395856,-0.617185 0,0 -0.01409,-0.115296 -0.01409,-0.122084 -0.007,-0.04746 -0.01408,-0.09496 -0.02085,-0.142423 -0.01408,-0.09496 -0.02084,-0.183126 -0.02789,-0.278084 -0.007,-0.09496 0,-0.183126 0.007,-0.271295 v -0.03392 c 0,-0.03392 0.007,-0.07462 0.01408,-0.101746 0.007,-0.03392 0.01408,-0.07459 0.02085,-0.108507 0.02085,-0.08138 0.04186,-0.16276 0.07676,-0.244168 0.007,-0.01352 0.007,-0.02028 0.01408,-0.03392 0.007,-0.0068 0.02085,-0.01352 0.0349,-0.02028 0.181436,-0.06783 0.355898,-0.135633 0.537343,-0.203408 0.02085,-0.0068 0.02789,-0.03392 0.04186,-0.05425 0.01409,-0.02028 0.02789,-0.0407 0.04885,-0.06104 0.01409,-0.01352 0.0349,-0.02704 0.04885,-0.0407 0.02789,-0.02704 0.04186,-0.06104 0.05583,-0.09496 0.02789,-0.05425 0.05583,-0.115296 0.07676,-0.169549 0.01409,-0.02704 0.02789,-0.05425 0.0349,-0.07462 0,-0.0068 0,-0.01352 0.007,-0.02028 0.02084,-0.03392 0.06977,-0.06104 0.09769,-0.08138 0.06282,-0.04746 0.118648,-0.101746 0.160507,-0.16276 -0.05583,0.02704 -0.09769,0.06104 -0.153521,0.09496 -0.02084,0.01352 -0.04885,0.02704 -0.07676,0.03392 -0.007,0 -0.01408,0 -0.02789,0.0068 -0.007,0 -0.007,0.0068 -0.007,0.0068 -0.01408,0.01352 -0.02789,0.03392 -0.04189,0.05425 -0.02789,0.0407 -0.05583,0.08138 -0.08375,0.122084 -0.0349,0.04747 -0.0698,0.09496 -0.104676,0.149211 -0.0349,0.05425 -0.05583,0.108507 -0.111661,0.135634 -0.01409,0.0068 -0.0349,0.01352 -0.05583,0.02028 -0.174479,0.05425 -0.355904,0.115296 -0.530366,0.169549 -0.0349,0.01352 -0.06977,0.02028 -0.104676,0.04741 v -0.06775 c 0.007,-0.03392 0,-0.06783 0.007,-0.09496 v -0.135716 c 0,-0.09496 -0.007,-0.183126 -0.007,-0.278084 C 9.9148,21.713662 9.90096,21.530546 9.89391,21.354209 9.83808,21.015094 9.83109,20.662418 9.87983,20.30974 Z m -0.153521,4.401616 c 0.09769,-0.07462 0.223324,-0.05425 0.334969,-0.04747 2.240101,0.122084 4.480179,0.23738 6.720266,0.359461 1.465491,0.08138 2.930982,0.162789 4.403481,0.237296 0.06975,0.0068 0.139605,0.02028 0.216281,0.02704 0.139606,0.271295 0.251239,0.549362 0.335014,0.888475 -4.277822,-0.271296 -8.520762,-0.535797 -12.840457,-0.807089 0.293098,-0.28478 0.572238,-0.461121 0.830441,-0.657805 z m 12.233309,4.537187 c -0.313997,0.04746 -0.621061,0.0068 -0.907185,-0.02704 -0.0138,0 -0.02789,-0.01352 -0.03487,-0.02028 -0.01408,-0.0068 -0.02085,-0.01352 -0.03487,-0.02704 -0.02085,-0.01352 -0.04189,-0.03392 -0.06282,-0.05425 -0.04189,-0.0407 -0.06983,-0.09496 -0.111662,-0.135634 -0.01408,-0.01352 -0.03487,-0.02704 -0.04189,-0.0407 -0.0138,-0.02704 -0.02085,-0.05425 -0.02789,-0.08138 0,-0.0068 0,-0.01352 -0.007,-0.02704 -0.007,-0.0068 -0.01409,-0.01352 -0.01409,-0.02704 -0.03487,-0.0407 -0.06276,-0.08138 -0.08369,-0.128873 -0.007,-0.01352 -0.007,-0.03392 -0.007,-0.04746 0.007,-0.0407 -0.0138,-0.08138 -0.02789,-0.115296 -0.007,-0.03392 -0.01409,-0.06104 -0.02085,-0.09496 0,-0.0068 -0.007,-0.02028 -0.0138,-0.02704 -0.01409,-0.02028 -0.03496,-0.03391 -0.05589,-0.04746 -0.04882,-0.05425 -0.09763,-0.101746 -0.146534,-0.149211 -0.02085,-0.02028 -0.04189,-0.03392 -0.06282,-0.04746 0.01408,0.0068 0.02085,0.02704 0.03496,0.0407 0.007,0.01352 0.02084,0.02704 0.03487,0.0407 0.02085,0.02704 0.04189,0.05425 0.05583,0.09496 0,0.01352 0.0138,0.03392 0.02085,0.04746 0.02085,0.0407 0.03487,0.07459 0.04189,0.115296 0.0138,0.05425 0.02085,0.108507 0.02085,0.162788 0.007,0.04746 0.007,0.101747 0.01408,0.149211 0,0 0.03487,0.01352 0.04189,0.01352 0.007,0.0068 0.007,0.02028 0.007,0.03392 0.0138,0.03392 0.03487,0.06783 0.05583,0.101746 0.007,0.01352 0.0138,0.02704 0.02085,0.0407 v 0.115296 c 0,0.01352 0,0.03392 -0.007,0.04746 -0.0138,0.02028 -0.0418,0.03392 -0.03487,0.06104 -0.02789,0 -0.06975,0.0068 -0.09772,0 -0.007,0 -0.0138,0 -0.02085,-0.0068 -0.0489,-0.0068 -0.09079,-0.0068 -0.139605,-0.0068 -0.0907,-0.0068 -0.181493,-0.01352 -0.272197,-0.01352 -0.788531,-0.04747 -1.577139,-0.101747 -2.36567,-0.149211 -0.788604,-0.04746 -1.577138,-0.101747 -2.365743,-0.149211 -0.788531,-0.04746 -1.577138,-0.101719 -2.365706,-0.149211 -0.788571,-0.04746 -1.577139,-0.101747 -2.365715,-0.149211 -0.397768,-0.02704 -0.788571,-0.04747 -1.186345,-0.07459 -0.195408,-0.01352 -0.397771,-0.02704 -0.593173,-0.03392 -0.09769,-0.0068 -0.195409,-0.01352 -0.293099,-0.02028 -0.02085,0 -0.286115,-0.01352 -0.286115,-0.02028 v -0.651024 l 0.007,-0.0068 c 0.007,-0.0068 0.007,-0.0068 0.01408,-0.01352 0.007,-0.01352 0.01409,-0.02028 0.02085,-0.03392 0.02085,-0.02704 0.0349,-0.04746 0.05583,-0.07459 0.02084,-0.02704 0.04885,-0.05425 0.06977,-0.08138 0.007,-0.01352 0.01408,-0.02028 0.02084,-0.03392 0.01408,-0.01352 0.0349,-0.02704 0.04885,-0.03392 0.02085,-0.01352 0.04186,-0.02028 0.06282,-0.03392 0.04186,-0.02028 0.08375,-0.0407 0.132592,-0.05425 0.0349,-0.01352 0.0698,-0.02028 0.104676,-0.01352 0.02789,0.0068 0.05583,0.02028 0.07676,0.04071 0.07676,0.05425 0.160507,0.108506 0.251239,0.128873 0.02085,0.0068 0.02789,-0.01352 0.04186,-0.02028 0.0349,-0.03392 0.07676,-0.06104 0.111662,-0.08138 0.007,-0.0068 0.02085,-0.01352 0.02789,-0.01352 0.02085,-0.01352 0.04186,-0.02028 0.06282,-0.03392 0.08375,-0.03392 0.174479,-0.0407 0.265183,-0.04746 -0.06282,-0.02028 -0.132592,-0.03392 -0.209352,-0.0407 -0.04186,0 -0.08375,0 -0.118648,0.02028 -0.007,0.0068 -0.01408,0.01352 -0.01408,0.01352 -0.007,0.0068 -0.02085,0.01352 -0.02789,0.02028 l -0.06282,0.0407 c -0.007,0 -0.007,0.0068 -0.01409,0.0068 -0.01408,0.0068 -0.02789,0.01352 -0.0349,0.02704 -0.007,0.0068 -0.02789,0.02028 -0.04186,0.02028 -0.007,0 -0.02084,-0.0068 -0.0349,-0.01352 -0.007,-0.0068 -0.02085,-0.0068 -0.02789,-0.01352 -0.02085,-0.01352 -0.04186,-0.02704 -0.05583,-0.03392 -0.05583,-0.0407 -0.111662,-0.09496 -0.167492,-0.142423 -0.007,-0.0068 -0.01409,-0.0068 -0.02085,-0.01352 h -0.02789 c -0.02085,0.0068 -0.04189,0.0068 -0.06282,0.01352 -0.01408,0 -0.02084,0.0068 -0.0349,0.0068 h -0.02085 c -0.02085,0 -0.04186,0.0068 -0.06282,0.0068 -0.02789,0.0068 -0.06282,0.01352 -0.09073,0.02028 -0.09073,0.02028 -0.17445,0.0407 -0.265183,0.06783 v -1.363235 c 4.577895,0.284856 9.141818,0.576493 13.726704,0.861348 z m 2.84028,-2.85526 v -0.101747 c 0,-0.02028 0,-0.04746 0.0138,-0.06783 0.007,-0.01352 0.007,-0.02028 0.0138,-0.02704 0,-0.0068 0.007,-0.0068 0.007,-0.01352 0.02084,-0.03392 0.04189,-0.06783 0.06975,-0.101718 0.118648,-0.135634 0.188423,-0.291639 0.174479,-0.481543 0.07676,-0.05425 0.153521,-0.115296 0.286124,-0.108507 0.04882,0.664661 0.0138,1.356454 -0.007,2.061808 -0.879235,0.508597 -1.758546,1.017266 -2.672737,1.539502 v -2.299122 c 0.711842,-0.366241 1.416601,-0.725703 2.128442,-1.085161 0.02084,0.02704 0.03487,0.06104 0.04189,0.09496 0.007,0.02028 0,0.04747 0,0.06783 0,0.01352 -0.007,0.02028 -0.0138,0.03392 0,0.0068 -0.007,0.01352 -0.01409,0.02704 -0.007,0.0068 -0.02085,0.02028 -0.02789,0.02704 -0.01408,0.0068 -0.02085,0.02028 -0.03487,0.03392 -0.01409,0.01352 -0.02789,0.03392 -0.03496,0.04746 -0.007,0.0068 -0.0138,0.01352 -0.0138,0.02704 -0.007,0.0068 -0.0138,0.02028 -0.0138,0.03392 -0.02084,0.03392 -0.04189,0.07459 -0.06977,0.108507 -0.01408,0.01352 -0.02789,0.03392 -0.02789,0.05425 0,0.0068 0,0.01352 0.007,0.02028 v 0.264506 c 0,0.04746 0.007,0.08817 0.007,0.135634 0,0.03392 -0.007,0.08138 -0.02789,0.108507 l -0.02085,0.02028 c 0,0 -0.007,0.0068 -0.007,0.01352 0,0.0068 -0.007,0.0068 -0.0138,0.01352 -0.04882,0.05425 -0.111662,0.09496 -0.174479,0.135633 0.04189,-0.0068 0.08377,-0.01352 0.118648,-0.03391 0.02789,-0.01352 0.05583,-0.03392 0.0907,-0.04747 0.007,0 0.0138,-0.01352 0.02789,-0.01352 0,0 0,0 0.007,0 0.01408,-0.02028 0.02085,-0.0407 0.03487,-0.06783 0.007,-0.0068 0.007,-0.02028 0.01408,-0.03392 0.007,-0.01352 0.007,-0.02028 0.0138,-0.03392 0,-0.0068 0.007,-0.01352 0.007,-0.02028 0.007,-0.02704 0.0138,-0.05425 0.02789,-0.08138 0.007,-0.01352 0.007,-0.02704 0.0138,-0.0407 0,-0.0068 0.007,-0.01352 0.007,-0.02704 0,-0.01352 0,-0.02704 0.007,-0.03392 0,-0.01352 0.007,-0.02704 0.02085,-0.03392 0.007,0 0.007,0 0.0138,0 z"
         stroke="#362745"
         stroke-width="0.372653"
         stroke-miterlimit="10"
         id="path92" /><path
         d="m 16.830729,14.544953 c -0.167549,0.244163 -0.181493,0.576492 -0.06282,0.847709 0.03487,0.08139 0.08369,0.155991 0.160479,0.203467 0.153521,0.08817 0.348951,0.0068 0.509489,-0.07461 0.209352,-0.108515 0.425645,-0.23738 0.509416,-0.454337 0.06276,-0.155991 0.03487,-0.339113 -0.04189,-0.488323 -0.04189,-0.09495 -0.104704,-0.176338 -0.174479,-0.250943 -0.04882,-0.04748 -0.0907,-0.108516 -0.167464,-0.115299 -0.174479,-0.02713 -0.36289,0.02713 -0.509416,0.115299 -0.0907,0.06104 -0.167465,0.135644 -0.223296,0.217033 z"
         fill="#6b00fa"
         stroke="#362745"
         stroke-width="0.372653"
         stroke-miterlimit="10"
         id="path94" /><path
         d="m 13.65519,14.592428 c -0.05583,0.09495 -0.09769,0.196687 -0.104676,0.305203 -0.01408,0.18312 0.07676,0.352677 0.160507,0.515452 0.01408,0.03391 0.0349,0.06782 0.06282,0.08817 0.02789,0.02034 0.06282,0.02713 0.09769,0.03391 0.348929,0.04748 0.711816,-0.08817 0.935108,-0.352678 0.04189,-0.05426 0.07676,-0.108515 0.09772,-0.169557 0.02789,-0.09495 0.02789,-0.189904 0.02085,-0.284855 -0.007,-0.135645 -0.02085,-0.291638 -0.125661,-0.38659 -0.04882,-0.04748 -0.111634,-0.08138 -0.174394,-0.108515 -0.07676,-0.04069 -0.16755,-0.08817 -0.25124,-0.115298 -0.06285,-0.01358 -0.139605,0.0068 -0.195408,0.02713 -0.146563,0.04748 -0.272168,0.142428 -0.376839,0.250944 -0.02789,0.03391 -0.05583,0.06104 -0.08375,0.09495 -0.01408,0.02034 -0.02789,0.03391 -0.0349,0.05426 -0.007,0.0068 -0.01409,0.03391 -0.02789,0.04748 z"
         fill="#6b00fa"
         stroke="#362745"
         stroke-width="0.372653"
         stroke-miterlimit="10"
         id="path96" /><path
         d="m 14.101975,15.725067 c -0.530365,0 -0.963029,-0.4205 -0.963029,-0.935953 0,-0.515452 0.432664,-0.935953 0.963029,-0.935953 0.530405,0 0.963052,0.420501 0.963052,0.935953 0,0.515453 -0.432647,0.935953 -0.963052,0.935953 z m 0,-1.600615 c -0.376839,0 -0.683889,0.29842 -0.683889,0.664662 0,0.366243 0.30705,0.664662 0.683889,0.664662 0.376873,0 0.683861,-0.298419 0.683861,-0.664662 0,-0.366242 -0.306988,-0.664662 -0.683861,-0.664662 z"
         fill="#362745"
         id="path98"
         style="stroke-width:0.745303" /><path
         d="m 17.200399,15.79289 c -0.530357,0 -0.963083,-0.420501 -0.963083,-0.935953 0,-0.515452 0.432726,-0.935953 0.963083,-0.935953 0.53036,0 0.963007,0.420501 0.963007,0.935953 0,0.515452 -0.432647,0.935953 -0.963007,0.935953 z m 0,-1.600615 c -0.376825,0 -0.683892,0.29842 -0.683892,0.664662 0,0.366242 0.307067,0.664662 0.683892,0.664662 0.376825,0 0.683892,-0.29842 0.683892,-0.664662 0,-0.366242 -0.307067,-0.664662 -0.683892,-0.664662 z"
         fill="#362745"
         id="path100"
         style="stroke-width:0.745303" /><path
         d="m 13.655227,15.392736 c -0.09769,-0.142428 -0.335053,-0.305202 -0.335053,-0.467976 0,-0.481541 0.237267,-0.86813 0.732748,-0.86813 0.007,0 0.369951,0 0.376884,0 0.05589,0.05426 0.111718,0.101735 0.153521,0.155991 -0.06276,-0.01358 -0.118564,-0.02034 -0.181408,-0.02034 -0.411738,0 -0.753684,0.325549 -0.753684,0.732485 0,0.196687 0.07676,0.373024 0.209352,0.50867 z"
         fill="#362745"
         id="path102"
         style="stroke-width:0.745303" /><path
         d="m 16.976957,15.514817 c -0.06975,-0.0068 -0.446661,-0.148913 -0.516422,-0.162476 -0.09772,-0.142428 0,-0.671444 0,-0.847783 0,-0.46112 0.572244,-0.413644 1.039849,-0.440773 L 17.63999,14.26688 C 17.5981,14.26008 17.5492,14.2533 17.500384,14.2533 c -0.411706,0 -0.753652,0.325549 -0.753652,0.732485 0.007,0.21025 0.0907,0.393371 0.230225,0.529017 z"
         fill="#362745"
         id="path104"
         style="stroke-width:0.745303" /></g></g></svg>
