<?xml version="1.0" encoding="UTF-8" standalone="no"?>
<svg
   width="128"
   height="128"
   viewBox="0 0 128 128"
   fill="none"
   version="1.1"
   id="svg6"
   sodipodi:docname="conflux.svg"
   inkscape:export-filename="..\Mainnet_128x128\chains\conflux.svg"
   inkscape:export-xdpi="96"
   inkscape:export-ydpi="96"
   xmlns:inkscape="http://www.inkscape.org/namespaces/inkscape"
   xmlns:sodipodi="http://sodipodi.sourceforge.net/DTD/sodipodi-0.dtd"
   xmlns="http://www.w3.org/2000/svg"
   xmlns:svg="http://www.w3.org/2000/svg">
  <defs
     id="defs10" />
  <sodipodi:namedview
     id="namedview8"
     pagecolor="#ffffff"
     bordercolor="#000000"
     borderopacity="0.25"
     inkscape:showpageshadow="2"
     inkscape:pageopacity="0.0"
     inkscape:pagecheckerboard="0"
     inkscape:deskcolor="#d1d1d1"
     showgrid="false" />
  <circle
     cx="64"
     cy="64"
     r="64"
     fill="#000"
     id="circle2"
     style="fill:#ffffff;fill-opacity:1" />
  <path
     d="M 63.999999,58.376993 20.698531,83.801966 V 97.775558 L 63.999999,72.350584 107.30147,97.775558 V 83.801966 Z"
     fill="#1269ab"
     id="path260"
     style="stroke-width:0.82479" />
  <path
     d="M 33.349982,42.955074 63.999999,25.259207 94.650017,42.955074 106.09315,38.302434 63.999999,14.000001 21.907673,38.302434 Z"
     fill="#3fbced"
     id="path262"
     style="stroke-width:0.82479" />
  <path
     d="m 94.650017,45.913595 v 39.13133 l -4.552016,2.628606 9.668188,5.676204 7.535281,-4.349942 V 40.770207 Z m -56.74802,41.76076 -4.589956,-2.65005 V 45.898749 l -12.61351,-5.128543 v 48.230411 l 7.53528,4.350767 9.669011,-5.676204 z"
     fill="#1269ab"
     id="path264"
     style="stroke-width:0.82479" />
  <path
     d="M 87.399288,89.231559 63.999999,102.74162 40.60071,89.231559 30.932522,94.908589 63.999999,114 97.067476,94.908589 Z"
     fill="#3fbced"
     id="path266"
     style="stroke-width:0.82479" />
</svg>
