<svg xmlns="http://www.w3.org/2000/svg" xmlns:xlink="http://www.w3.org/1999/xlink" width="128" height="128" xmlns:v="https://vecta.io/nano"><style><![CDATA[.B{clip-path:url(#E)}.C{fill:#128c6b}.D{fill:#17946e}.E{fill:#2eab7d}.F{fill:#33b07d}]]></style><g transform="matrix(.269259 0 0 .269261 -16.141832 -16.141665)"><defs><path id="A" d="M0 0h595.276v595.276H0z"/></defs><clipPath id="B"><use xlink:href="#A"/></clipPath><linearGradient id="C" gradientUnits="userSpaceOnUse" x1="0" y1="595.276" x2="1" y2="595.276" gradientTransform="matrix(547.357,199.222,199.222,-547.357,-118568.05,326026.44)"><stop offset="0" stop-color="#9c6026"/><stop offset=".045" stop-color="#9c6026"/><stop offset=".146" stop-color="#e8bf63"/><stop offset=".264" stop-color="#ab6728"/><stop offset=".396" stop-color="#e8bf63"/><stop offset=".544" stop-color="#b1792b"/><stop offset=".681" stop-color="#e8bf63"/><stop offset=".791" stop-color="#fff0c3"/><stop offset=".882" stop-color="#aa7029"/></linearGradient><path clip-path="url(#B)" fill="url(#C)" d="M297.638 525.823v-9.5c120.775-.219 218.471-97.906 218.689-218.687-.219-120.773-97.915-218.469-218.689-218.688-120.774.219-218.47 97.915-218.689 218.688.219 120.781 97.914 218.468 218.689 218.687v9.5 9.5c-131.275-.006-237.683-106.406-237.689-237.687.006-131.275 106.413-237.682 237.689-237.688 131.275.006 237.683 106.414 237.689 237.688-.007 131.282-106.414 237.681-237.689 237.687z"/><defs><path id="D" d="M124.569 288.418c0 26.418 5.268 46.559 13.113 66.706l.756-.313c1.943-19.893 7.024-53.528 27.985-68.461 0 0 1.504.756 1.378.756-15.436 21.777-17.444 47.688-17.444 73.61 0 .31 8.157 26.163 25.785 44.113v1.189c-13.868 4.767-27.297 10.668-27.297 22.902 0 18.957 31.758 21.844 36.587 40.038l.816.254c2.448-2.443 3.512-9.224 2.258-20.205 0 0 9.982.878 11.169 11.859l.943.251c1.254-2.444 3.329-10.414-1.567-21.335 4.145-.438 10.667 3.263 13.113 8.157l.816.125c2.448-13.686-8.158-19.079-14.81-22.468v-1.189c15.432 0 27.046-34.888 14.244-58.86l1.255-1.252c11.858 13.367 18.699 44.237 4.142 67.958 16.881 10.414 47.756 22.526 78.319 22.526 15.997 0 22.843 0 34.699-2.384 0-12.238-3.705-73.671-17.258-81.264l1.004-1.064c20.512 7.274 22.021 35.201 23.277 50.011 3.009 35.768 35.145 37.901 59.114 37.901 6.213.498 14.874 3.32 20.332 7.903l.817-.311c.627-3.389-2.391-9.539-9.729-17.822 0 0 8.725-5.018 15.94 3.328l.941-.376c-.375-2.698-3.263-10.414-13.489-16.563 3.142-2.698 10.603-3.446 15.375-.814l.754-.376c-5.841-12.609-17.76-11.669-24.977-9.912-7.78 1.879-10.478 7.15-19.138 7.15-7.473 0-11.991-4.581-11.991-9.977 0-5.521 2.831-8.348 7.474-10.479 62.063-28.3 87.664-92.812 92.06-128.516h-13.744v18.637h-13.426v18.072h-13.489v18.385H412.35v14.688c-4.585-.188-23.595-2.442-42.483 12.489l-.376-.253c0-1.258-.066-21.778 11.045-29.371h22.089l-.063-14.685h15.872v-16.252h14.688v-16.817h13.49v-18.326h9.79v-13.555c0-8.03-1.069-15.877-8.281-15.877-4.706 0-9.538 2.636-9.538 11.671 0 17.821-29.43 52.898-49.386 52.898-10.041 0-2.004-14.744-14.56-14.744-11.608 0-17.192 21.336-26.729 53.651-8.034 6.526-30.438 17.317-56.538 17.317-41.482 0-81.582-23.532-103.859-88.73-.064-.123 1.19-1.191 1.19-1.191 7.593 12.3 36.271 79.572 98.775 79.572 16.5 0 34.575-2.887 53.904-12.488 3.64-13.49 12.675-33.634 12.675-33.634l-.628-.504c-8.476 4.959-24.6 12.112-45.812 12.112-38.973 0-83.903-32.883-83.903-85.219 0-37.155 26.922-86.101 90.366-86.101 51.644 0 81.262 13.743 120.86 34.201l2.384-3.574c-35.268-35.328-83.397-56.917-137.239-56.917-102.414.002-175.522 78.696-175.514 171.749"/></defs><clipPath id="E"><use xlink:href="#D"/></clipPath><path fill="#0f8069" d="M135.885 84.704l-9.325 16.154 9.325 16.154h18.65l9.329-16.154-9.329-16.154z" class="B"/><path fill="#128a6b" d="M191.84 84.704l-9.325 16.154 9.325 16.154h18.652l9.325-16.154-9.325-16.154z" class="B"/><path fill="#14916b" d="M247.796 84.704l-9.328 16.154 9.328 16.154h18.652l9.327-16.154-9.327-16.154z" class="B"/><path fill="#179c6b" d="M303.752 84.704l-9.32 16.154 9.32 16.154H322.4l9.335-16.154-9.335-16.154z" class="B"/><path fill="#1ca66b" d="M359.71 84.704l-9.329 16.154 9.329 16.154h18.653l9.325-16.154-9.325-16.154z" class="B"/><path fill="#1fb06b" d="M415.671 84.704l-9.331 16.154 9.331 16.154h18.645l9.33-16.154-9.33-16.154z" class="B"/><path fill="#21ba69" d="M471.621 84.704l-9.322 16.154 9.322 16.154h18.654l9.322-16.154-9.322-16.154z" class="B"/><path fill="#0d7d69" d="M98.577 117.012l9.327 16.152h18.657l9.324-16.152-9.324-16.153h-18.657z" class="B"/><path fill="#0f856b" d="M135.885 117.012l-9.325 16.152 9.325 16.153h18.65l9.329-16.153-9.329-16.152z" class="B"/><path fill="#0f8769" d="M154.535 117.012l9.329 16.152h18.651l9.325-16.152-9.325-16.153h-18.651z" class="B"/><path d="M191.84 117.012l-9.325 16.152 9.325 16.153h18.652l9.325-16.153-9.325-16.152z" class="B C"/><path fill="#128f6b" d="M210.491 117.012l9.326 16.152h18.651l9.328-16.152-9.328-16.153h-18.651z" class="B"/><path d="M247.796 117.012l-9.328 16.152 9.328 16.153h18.652l9.327-16.153-9.327-16.152z" class="B D"/><path fill="#17996e" d="M266.448 117.012l9.327 16.152h18.657l9.32-16.152-9.32-16.153h-18.657z" class="B"/><path fill="#1aa16b" d="M303.752 117.012l-9.32 16.152 9.32 16.153H322.4l9.335-16.153-9.335-16.152z" class="B"/><path fill="#1ca36b" d="M322.401 117.012l9.334 16.152h18.645l9.329-16.152-9.329-16.153h-18.645z" class="B"/><path fill="#21ab6e" d="M359.71 117.012l-9.329 16.152 9.329 16.153h18.653l9.325-16.153-9.325-16.152z" class="B"/><path fill="#1fb06b" d="M378.364 117.012l9.325 16.152h18.652l9.331-16.152-9.331-16.153h-18.652z" class="B"/><path fill="#24b86b" d="M415.671 117.012l-9.331 16.152 9.331 16.153h18.645l9.33-16.153-9.33-16.152z" class="B"/><path fill="#24ba6b" d="M434.316 117.012l9.331 16.152h18.652l9.322-16.152-9.322-16.153h-18.652z" class="B"/><path fill="#29c46b" d="M471.621 117.012l-9.322 16.152 9.322 16.153h18.654l9.322-16.153-9.322-16.152z" class="B"/><path fill="#0d8269" d="M107.904 165.47h18.656l9.325-16.153-9.325-16.153h-18.656l-9.327 16.153z" class="B"/><path fill="#0f876b" d="M135.885 149.317l-9.325 16.153 9.325 16.152h18.65l9.329-16.152-9.329-16.153z" class="B"/><path fill="#128a6b" d="M154.535 149.317l9.329 16.153h18.651l9.325-16.153-9.325-16.153h-18.651z" class="B"/><path fill="#148f6b" d="M191.84 149.317l-9.325 16.153 9.325 16.152h18.652l9.325-16.152-9.325-16.153z" class="B"/><path fill="#14916b" d="M210.491 149.317l9.326 16.153h18.651l9.328-16.153-9.328-16.153h-18.651z" class="B"/><path fill="#17996e" d="M247.796 149.317l-9.328 16.153 9.328 16.152h18.652l9.327-16.152-9.327-16.153z" class="B"/><path fill="#1a9e6b" d="M266.448 149.317l9.327 16.153h18.657l9.32-16.153-9.32-16.153h-18.657z" class="B"/><path fill="#1fa66e" d="M303.752 149.317l-9.32 16.153 9.32 16.152H322.4l9.335-16.152-9.335-16.153z" class="B"/><path fill="#1fa86e" d="M322.401 149.317l9.334 16.153h18.645l9.329-16.153-9.329-16.153h-18.645z" class="B"/><path fill="#24b36e" d="M359.71 149.317l-9.329 16.153 9.329 16.152h18.653l9.325-16.152-9.325-16.153z" class="B"/><path fill="#24b56b" d="M378.364 149.317l9.325 16.153h18.652l9.331-16.153-9.331-16.153h-18.652z" class="B"/><path fill="#29bf6b" d="M415.671 149.317l-9.331 16.153 9.331 16.152h18.645l9.33-16.152-9.33-16.153z" class="B"/><path fill="#29c26b" d="M434.316 149.317l9.331 16.153h18.652l9.322-16.153-9.322-16.153h-18.652z" class="B"/><path fill="#30cc6b" d="M471.621 149.317l-9.322 16.153 9.322 16.152h18.654l9.322-16.152-9.322-16.153z" class="B"/><path fill="#0f8769" d="M107.904 197.776h18.656l9.325-16.154-9.325-16.152h-18.656l-9.327 16.152z" class="B"/><path d="M135.885 213.926h18.65l9.329-16.15-9.329-16.154h-18.65l-9.324 16.154z" class="B C"/><path fill="#128f6b" d="M154.535 181.622l9.329 16.154h18.651l9.325-16.154-9.325-16.152h-18.651z" class="B"/><path d="M191.84 181.622l-9.325 16.154 9.325 16.15h18.652l9.325-16.15-9.325-16.154z" class="B D"/><path fill="#17966e" d="M210.491 181.622l9.326 16.154h18.651l9.328-16.154-9.328-16.152h-18.651z" class="B"/><path fill="#1c9e6e" d="M247.796 181.622l-9.328 16.154 9.328 16.15h18.652l9.327-16.15-9.327-16.154z" class="B"/><path fill="#1ca16e" d="M266.448 181.622l9.327 16.154h18.657l9.32-16.154-9.32-16.152h-18.657z" class="B"/><path fill="#21ab70" d="M303.752 181.622l-9.32 16.154 9.32 16.15H322.4l9.335-16.15-9.335-16.154z" class="B"/><path fill="#24ad6e" d="M322.401 181.622l9.334 16.154h18.645l9.329-16.154-9.329-16.152h-18.645z" class="B"/><path fill="#29b870" d="M359.71 181.622l-9.329 16.154 9.329 16.15h18.653l9.325-16.15-9.325-16.154z" class="B"/><path fill="#29bd6e" d="M378.364 181.622l9.325 16.154h18.652l9.331-16.154-9.331-16.152h-18.652z" class="B"/><path fill="#30c76e" d="M415.671 181.622l-9.331 16.154 9.331 16.15h18.645l9.33-16.15-9.33-16.154z" class="B"/><path fill="#30c96e" d="M434.316 181.622l9.331 16.154h18.652l9.322-16.154-9.322-16.152h-18.652z" class="B"/><path fill="#3bd46b" d="M471.621 181.622l-9.322 16.154 9.322 16.15h18.654l9.322-16.15-9.322-16.154z" class="B"/><path d="M107.904 230.083h18.656l9.325-16.157-9.325-16.15h-18.656l-9.327 16.15z" class="B C"/><path fill="#179170" d="M135.885 246.233h18.65l9.329-16.15-9.329-16.157h-18.65l-9.324 16.157z" class="B"/><path d="M163.864 230.083h18.651l9.325-16.157-9.325-16.15h-18.651l-9.329 16.15z" class="B D"/><path fill="#1c9970" d="M191.84 213.926l-9.325 16.157 9.325 16.15h18.652l9.325-16.15-9.325-16.157z" class="B"/><path fill="#1c9c70" d="M210.491 213.926l9.326 16.157h18.651l9.328-16.157-9.328-16.15h-18.651z" class="B"/><path fill="#21a370" d="M247.796 213.926l-9.328 16.157 9.328 16.15h18.652l9.327-16.15-9.327-16.157z" class="B"/><path fill="#21a670" d="M266.448 213.926l9.327 16.157h18.657l9.32-16.157-9.32-16.15h-18.657z" class="B"/><path fill="#26b070" d="M303.752 213.926l-9.32 16.157 9.32 16.15H322.4l9.335-16.15-9.335-16.157z" class="B"/><path fill="#29b370" d="M322.401 213.926l9.334 16.157h18.645l9.329-16.157-9.329-16.15h-18.645z" class="B"/><path fill="#2ebf70" d="M359.71 213.926l-9.329 16.157 9.329 16.15h18.653l9.325-16.15-9.325-16.157z" class="B"/><path fill="#30c270" d="M378.364 213.926l9.325 16.157h18.652l9.331-16.157-9.331-16.15h-18.652z" class="B"/><path fill="#38cc70" d="M415.671 213.926l-9.331 16.157 9.331 16.15h18.645l9.33-16.15-9.33-16.157z" class="B"/><path fill="#3bd16e" d="M434.316 213.926l9.331 16.157h18.652l9.322-16.157-9.322-16.15h-18.652z" class="B"/><path fill="#45db6e" d="M471.621 213.926l-9.322 16.157 9.322 16.15h18.654l9.322-16.15-9.322-16.157z" class="B"/><path fill="#179170" d="M107.904 262.383h18.656l9.325-16.15-9.325-16.15h-18.656l-9.327 16.15z" class="B"/><g fill="#1c9973"><path d="M135.885 278.536h18.65l9.329-16.153-9.329-16.15h-18.65l-9.324 16.15z" class="B"/><path d="M163.864 262.383h18.651l9.325-16.15-9.325-16.15h-18.651l-9.329 16.15z" class="B"/></g><path fill="#21a173" d="M191.84 278.536h18.651l9.326-16.153-9.326-16.15H191.84l-9.325 16.15z" class="B"/><path fill="#21a373" d="M210.491 246.233l9.326 16.15h18.651l9.328-16.15-9.328-16.15h-18.651z" class="B"/><path fill="#26ab73" d="M247.796 246.233l-9.328 16.15 9.328 16.154h18.652l9.327-16.154-9.327-16.15z" class="B"/><path fill="#26ad73" d="M266.448 246.233l9.327 16.15h18.657l9.32-16.15-9.32-16.15h-18.657z" class="B"/><path fill="#2eb573" d="M303.752 246.233l-9.32 16.15 9.32 16.154H322.4l9.335-16.154-9.335-16.15z" class="B"/><path fill="#2eba73" d="M322.401 246.233l9.334 16.15h18.645l9.329-16.15-9.329-16.15h-18.645z" class="B"/><path fill="#36c473" d="M359.71 246.233l-9.329 16.15 9.329 16.154h18.653l9.325-16.154-9.325-16.15z" class="B"/><path fill="#38c973" d="M378.364 246.233l9.325 16.15h18.652l9.331-16.15-9.331-16.15h-18.652z" class="B"/><path fill="#42d173" d="M415.671 246.233l-9.331 16.15 9.331 16.154h18.645l9.33-16.154-9.33-16.15z" class="B"/><path fill="#45d670" d="M434.316 246.233l9.331 16.15h18.652l9.322-16.15-9.322-16.15h-18.652z" class="B"/><path fill="#4fe070" d="M471.621 246.233l-9.322 16.15 9.322 16.154h18.654l9.322-16.154-9.322-16.15z" class="B"/><path fill="#1c9973" d="M107.904 294.689h18.656l9.325-16.152-9.325-16.154h-18.656l-9.327 16.154z" class="B"/><g fill="#219e75"><path d="M135.885 310.845h18.65l9.329-16.156-9.329-16.152h-18.65l-9.324 16.152z" class="B"/><path d="M163.864 294.689h18.651l9.325-16.152-9.325-16.154h-18.651l-9.329 16.154z" class="B"/></g><path fill="#26a675" d="M191.84 310.845h18.651l9.326-16.156-9.326-16.152H191.84l-9.325 16.152z" class="B"/><path fill="#26a875" d="M219.817 294.689h18.651l9.328-16.152-9.328-16.154h-18.651l-9.326 16.154z" class="B"/><path fill="#2bb075" d="M247.796 278.536l-9.328 16.154 9.328 16.156h18.652l9.327-16.156-9.327-16.154z" class="B"/><path fill="#2eb373" d="M266.448 278.537l9.327 16.152h18.657l9.32-16.152-9.32-16.154h-18.657z" class="B"/><path fill="#33ba75" d="M303.752 278.536l-9.32 16.154 9.32 16.156H322.4l9.335-16.156-9.335-16.154z" class="B"/><path fill="#36bf75" d="M322.401 278.537l9.334 16.152h18.645l9.329-16.152-9.329-16.154h-18.645z" class="B"/><path fill="#40c775" d="M359.71 278.536l-9.329 16.154 9.329 16.156h18.653l9.325-16.156-9.325-16.154z" class="B"/><path fill="#40cc73" d="M378.364 278.537l9.325 16.152h18.652l9.331-16.152-9.331-16.154h-18.652z" class="B"/><path fill="#4ad673" d="M415.671 278.536l-9.331 16.154 9.331 16.156h18.645l9.33-16.156-9.33-16.154z" class="B"/><path fill="#4ddb70" d="M434.316 278.537l9.331 16.152h18.652l9.322-16.152-9.322-16.154h-18.652z" class="B"/><path fill="#59e370" d="M471.621 278.536l-9.322 16.154 9.322 16.156h18.654l9.322-16.156-9.322-16.154z" class="B"/><path fill="#219e75" d="M107.904 326.998h18.656l9.325-16.152-9.325-16.156h-18.656l-9.327 16.156z" class="B"/><path fill="#26a378" d="M135.885 343.152h18.65l9.329-16.154-9.329-16.152h-18.65l-9.324 16.152z" class="B"/><path fill="#26a675" d="M163.864 326.998h18.651l9.325-16.152-9.325-16.156h-18.651l-9.329 16.156z" class="B"/><path fill="#2bab78" d="M191.84 343.152h18.651l9.326-16.154-9.326-16.152H191.84l-9.325 16.152z" class="B"/><path fill="#2bad78" d="M219.817 326.998h18.651l9.328-16.152-9.328-16.156h-18.651l-9.326 16.156z" class="B"/><path fill="#33b37a" d="M247.796 343.152h18.652l9.327-16.154-9.327-16.152h-18.652l-9.328 16.152z" class="B"/><path fill="#33b878" d="M266.448 310.846l9.327 16.152h18.657l9.32-16.152-9.32-16.157h-18.657z" class="B"/><path fill="#3bbf78" d="M303.752 310.846l-9.32 16.153 9.32 16.153H322.4l9.335-16.153-9.335-16.153z" class="B"/><path fill="#3dc278" d="M322.401 310.846l9.334 16.152h18.645l9.329-16.152-9.329-16.157h-18.645z" class="B"/><path fill="#45c978" d="M359.71 310.846l-9.329 16.153 9.329 16.153h18.653l9.325-16.153-9.325-16.153z" class="B"/><path fill="#47d175" d="M378.364 310.846l9.325 16.152h18.652l9.331-16.152-9.331-16.157h-18.652z" class="B"/><path fill="#52d675" d="M415.671 310.846l-9.331 16.153 9.331 16.153h18.645l9.33-16.153-9.33-16.153z" class="B"/><path fill="#54de73" d="M434.316 310.846l9.331 16.152h18.652l9.322-16.152-9.322-16.157h-18.652z" class="B"/><path fill="#5ee673" d="M471.621 310.846l-9.322 16.153 9.322 16.153h18.654l9.322-16.153-9.322-16.153z" class="B"/><path fill="#26a378" d="M107.904 359.306h18.656l9.325-16.154-9.325-16.153h-18.656l-9.327 16.153z" class="B"/><path fill="#29a87a" d="M135.885 375.458h18.65l9.329-16.152-9.329-16.153h-18.65l-9.324 16.153z" class="B"/><path fill="#2ba878" d="M163.864 359.306h18.651l9.325-16.154-9.325-16.153h-18.651l-9.329 16.153z" class="B"/><path fill="#30ad7a" d="M191.84 375.458h18.651l9.326-16.152-9.326-16.153H191.84l-9.325 16.153z" class="B"/><path fill="#30b07a" d="M219.817 359.306h18.651l9.328-16.154-9.328-16.153h-18.651l-9.326 16.153z" class="B"/><path fill="#36b57a" d="M247.796 375.458h18.652l9.327-16.152-9.327-16.153h-18.652l-9.328 16.153z" class="B"/><path fill="#38ba7a" d="M275.775 359.306h18.657l9.32-16.154-9.32-16.153h-18.657l-9.327 16.153z" class="B"/><path fill="#40bf7a" d="M303.752 343.153l-9.32 16.153 9.32 16.152H322.4l9.335-16.152-9.335-16.153z" class="B"/><path fill="#40c478" d="M322.401 343.153l9.334 16.153h18.645l9.329-16.153-9.329-16.154h-18.645z" class="B"/><path fill="#47cc78" d="M359.71 343.153l-9.329 16.153 9.329 16.152h18.653l9.325-16.152-9.325-16.153z" class="B"/><path fill="#4dd178" d="M378.364 343.153l9.325 16.153h18.652l9.331-16.153-9.331-16.154h-18.652z" class="B"/><path fill="#54d978" d="M415.671 343.153l-9.331 16.153 9.331 16.152h18.645l9.33-16.152-9.33-16.153z" class="B"/><path fill="#59de73" d="M434.316 343.153l9.331 16.153h18.652l9.322-16.153-9.322-16.154h-18.652z" class="B"/><path fill="#61e673" d="M471.621 343.153l-9.322 16.153 9.322 16.152h18.654l9.322-16.152-9.322-16.153z" class="B"/><path fill="#29a67a" d="M107.904 391.611h18.656l9.325-16.153-9.325-16.152h-18.656l-9.327 16.152z" class="B"/><g class="E"><path d="M135.885 407.766h18.65l9.329-16.155-9.329-16.153h-18.65l-9.324 16.153z" class="B"/><path d="M163.864 391.611h18.651l9.325-16.153-9.325-16.152h-18.651l-9.329 16.152z" class="B"/></g><path d="M191.84 407.766h18.651l9.326-16.155-9.326-16.153H191.84l-9.325 16.153z" class="B F"/><path fill="#36b37d" d="M219.817 391.611h18.651l9.328-16.153-9.328-16.152h-18.651l-9.326 16.152z" class="B"/><path fill="#38b87d" d="M247.796 407.766h18.652l9.327-16.155-9.327-16.153h-18.652l-9.328 16.153z" class="B"/><path fill="#3dbd7d" d="M275.775 391.611h18.657l9.32-16.153-9.32-16.152h-18.657l-9.327 16.152z" class="B"/><path fill="#40bf7d" d="M303.752 407.766H322.4l9.335-16.155-9.335-16.153h-18.648l-9.319 16.153z" class="B"/><path fill="#45c47a" d="M322.401 375.458l9.334 16.153h18.645l9.329-16.153-9.329-16.152h-18.645z" class="B"/><path fill="#4ac97a" d="M359.71 375.458l-9.329 16.153 9.329 16.156h18.653l9.325-16.156-9.325-16.153z" class="B"/><path fill="#4fd178" d="M378.364 375.458l9.325 16.153h18.652l9.331-16.153-9.331-16.152h-18.652z" class="B"/><path fill="#54d678" d="M415.671 375.458l-9.331 16.153 9.331 16.156h18.645l9.33-16.156-9.33-16.153z" class="B"/><path fill="#59de75" d="M434.316 375.458l9.331 16.153h18.652l9.322-16.153-9.322-16.152h-18.652z" class="B"/><path fill="#5ee373" d="M471.621 375.458l-9.322 16.153 9.322 16.156h18.654l9.322-16.156-9.322-16.153z" class="B"/><path fill="#2ba87a" d="M107.904 423.918h18.656l9.325-16.151-9.325-16.156h-18.656l-9.327 16.156z" class="B"/><path d="M135.885 440.07h18.65l9.329-16.151-9.329-16.152h-18.65l-9.324 16.152z" class="B E"/><path fill="#30ad7d" d="M163.864 423.918h18.651l9.325-16.151-9.325-16.156h-18.651l-9.329 16.156z" class="B"/><path d="M191.84 440.07h18.651l9.326-16.151-9.326-16.152H191.84l-9.325 16.152z" class="B F"/><path fill="#36b37d" d="M219.817 423.918h18.651l9.328-16.151-9.328-16.156h-18.651l-9.326 16.156z" class="B"/><path fill="#38b57d" d="M247.796 440.07h18.652l9.327-16.151-9.327-16.152h-18.652l-9.328 16.152z" class="B"/><path fill="#3dba7d" d="M275.775 423.918h18.657l9.32-16.151-9.32-16.156h-18.657l-9.327 16.156z" class="B"/><path fill="#3dbf7d" d="M303.752 440.07H322.4l9.335-16.151-9.335-16.152h-18.648l-9.319 16.152z" class="B"/><path fill="#42c27a" d="M331.735 423.918h18.646l9.329-16.151-9.329-16.156h-18.646l-9.335 16.156z" class="B"/><path fill="#45c778" d="M359.71 407.767l-9.329 16.152 9.329 16.151h18.653l9.325-16.151-9.325-16.152z" class="B"/><path fill="#4acf78" d="M378.364 407.767l9.325 16.152h18.652l9.331-16.152-9.331-16.157h-18.652z" class="B"/><path fill="#4dd175" d="M415.671 407.767l-9.331 16.152 9.331 16.151h18.645l9.33-16.151-9.33-16.152z" class="B"/><path fill="#57d975" d="M434.316 407.767l9.331 16.152h18.652l9.322-16.152-9.322-16.157h-18.652z" class="B"/><path fill="#57de73" d="M471.621 407.767l-9.322 16.152 9.322 16.151h18.654l9.322-16.151-9.322-16.152z" class="B"/><g fill="#29a67a"><path d="M107.904 456.219h18.656l9.325-16.149-9.325-16.151h-18.656l-9.327 16.151z" class="B"/><path d="M135.885 472.377h18.65l9.329-16.159-9.329-16.148h-18.65l-9.324 16.148z" class="B"/></g><path d="M163.864 456.219h18.651l9.325-16.149-9.325-16.151h-18.651l-9.329 16.151z" class="B E"/><path fill="#2eab7a" d="M191.84 472.377h18.651l9.326-16.159-9.326-16.148H191.84l-9.325 16.148z" class="B"/><path d="M219.817 456.219h18.651l9.328-16.149-9.328-16.151h-18.651l-9.326 16.151z" class="B F"/><path fill="#33b07a" d="M247.796 472.377h18.652l9.327-16.159-9.327-16.148h-18.652l-9.328 16.148z" class="B"/><g fill="#38b87a"><path d="M275.775 456.219h18.657l9.32-16.149-9.32-16.151h-18.657l-9.327 16.151z" class="B"/><path d="M303.752 472.377H322.4l9.335-16.159-9.335-16.148h-18.648l-9.319 16.148z" class="B"/></g><path fill="#3dbf7a" d="M331.735 456.219h18.646l9.329-16.149-9.329-16.151h-18.646L322.4 440.07z" class="B"/><path fill="#3dc278" d="M359.71 472.377h18.654l9.325-16.159-9.325-16.148H359.71l-9.33 16.148z" class="B"/><path fill="#45c978" d="M378.364 440.07l9.325 16.148h18.652l9.331-16.148-9.331-16.152h-18.652z" class="B"/><path fill="#45cc73" d="M415.671 440.07l-9.331 16.148 9.331 16.159h18.645l9.33-16.159-9.33-16.148z" class="B"/><path fill="#4dd673" d="M434.316 440.07l9.331 16.148h18.652l9.322-16.148-9.322-16.152h-18.652z" class="B"/><path fill="#4dd670" d="M471.621 440.07l-9.322 16.148 9.322 16.159h18.654l9.322-16.159-9.322-16.148z" class="B"/><path fill="#26a178" d="M107.904 488.533h18.656l9.325-16.156-9.325-16.159h-18.656l-9.327 16.159z" class="B"/><path fill="#29a678" d="M163.864 488.533h18.651l9.325-16.156-9.325-16.159h-18.651l-9.329 16.159z" class="B"/><path fill="#2eab7a" d="M219.817 488.533h18.651l9.328-16.156-9.328-16.159h-18.651l-9.326 16.159z" class="B"/><path fill="#30b378" d="M275.775 488.533h18.657l9.32-16.156-9.32-16.159h-18.657l-9.327 16.159z" class="B"/><path fill="#36ba78" d="M331.735 488.533h18.646l9.329-16.156-9.329-16.159h-18.646l-9.335 16.159z" class="B"/><path fill="#3dc275" d="M406.341 488.534l9.331-16.157-9.331-16.159h-18.652l-9.325 16.159 9.325 16.157z" class="B"/><path fill="#42cf73" d="M462.299 488.534l9.322-16.157-9.322-16.159h-18.652l-9.331 16.159 9.331 16.157z" class="B"/></g></svg>