<svg xmlns="http://www.w3.org/2000/svg" width="128" height="128" fill-rule="evenodd" fill="#09bcab" xmlns:v="https://vecta.io/nano"><path d="M46.799 34.074l20.753 33.568 1.637-2.812 2.047-3.471.63-1.059.173-.29.06-.1.001-.001h0a6866.55 6866.55 0 0 1 2.893 1.729l2.785-1.899v.001l.212.312.61.896 2.239 3.304 7.384 10.997 17.031 26.343 3.113 5.12H0l3.356-5.198 2.831 1.828-2.831-1.828 1.674-2.593 4.429-6.86L23.015 71.06 43.92 38.634zM12.375 99.971h83.94c-4.085-6.466-9.212-14.252-13.699-20.984l-7.36-10.961-.068-.101-.183.312-4.336 7.617-2.754 5.188-21.2-34.29-18.036 27.962-13.555 21-2.748 4.256zm62.619-38.335l2.784-1.899-2.971-4.356-2.706 4.526z"/><path d="M71.688 21.289l21.558 34.943 6.37-8.448L128 90.984H92.967v-6.74h22.54l-16.27-24.763-6.548 8.684L71.278 33.46 61.026 46.745 57.3 41.276z"/></svg>