<svg xmlns="http://www.w3.org/2000/svg" xmlns:xlink="http://www.w3.org/1999/xlink" width="128.001" height="128.001" viewBox="0 0 33.867 33.867" xmlns:v="https://vecta.io/nano"><defs><radialGradient id="A" cx="0" cy="0" r="1" gradientTransform="matrix(14.915558,0,0,16.528542,25.665939,31.225159)" xlink:href="#T"><stop stop-color="#2b80b9"/><stop offset="1" stop-color="#2e4786"/></radialGradient><radialGradient id="B" cx="0" cy="0" r="1" gradientTransform="matrix(19.617182,0,0,22.242781,25.094099,20.402896)" xlink:href="#T"><stop stop-color="#2587cd"/><stop offset=".428" stop-color="#1174bf"/><stop offset=".845" stop-color="#3f67b4"/></radialGradient><radialGradient id="C" cx="0" cy="0" r="1" gradientTransform="matrix(-10.392367,17.92489,-35.953569,-20.844908,11.05552,25.862032)" xlink:href="#T"><stop stop-color="#6485ac"/><stop offset=".644" stop-color="#3b629c" stop-opacity="0"/></radialGradient><radialGradient id="D" cx="0" cy="0" r="1" gradientTransform="matrix(36.699953,0,0,36.721118,30.368749,11.374803)" xlink:href="#T"><stop stop-color="#2587cd"/><stop offset=".428" stop-color="#1174bf"/><stop offset=".845" stop-color="#575a93"/></radialGradient><radialGradient id="E" cx="0" cy="0" r="1" gradientTransform="matrix(5.117457,5.9527653,-8.3610617,7.187815,11.957728,10.968742)" xlink:href="#T"><stop stop-color="#fff"/><stop offset="1" stop-color="#fff" stop-opacity="0"/></radialGradient><radialGradient id="F" cx="0" cy="0" r="1" gradientTransform="matrix(32.492612,0,0,32.511662,10.840041,30.251152)" xlink:href="#T"><stop stop-color="#005da9"/><stop offset="0" stop-color="#0055a5"/><stop offset=".417" stop-color="#6b96c8" stop-opacity=".48"/><stop offset=".926" stop-color="#89aadb" stop-opacity="0"/></radialGradient><radialGradient id="G" cx="0" cy="0" r="1" gradientTransform="matrix(9.4131555,0,0,9.4185741,19.958982,24.828167)" xlink:href="#T"><stop offset=".018" stop-color="#004e91"/><stop offset="1" stop-color="#004e91" stop-opacity="0"/></radialGradient><radialGradient id="H" cx="0" cy="0" r="1" gradientTransform="matrix(11.685609,0,0,11.692382,19.27081,22.159728)" xlink:href="#T"><stop stop-color="#003887"/><stop offset="1" stop-color="#003887" stop-opacity="0"/></radialGradient><radialGradient id="I" cx="0" cy="0" r="1" gradientTransform="matrix(9.3107936,0,0,9.3162121,16.69,29.993428)" xlink:href="#T"><stop stop-color="#fff"/><stop offset="1" stop-color="#fff" stop-opacity="0"/></radialGradient><radialGradient id="J" cx="0" cy="0" r="1" gradientTransform="matrix(13.29055,0,0,13.298255,8.9471479,26.721991)" xlink:href="#T"><stop stop-color="#00438d"/><stop offset="1" stop-color="#00438d" stop-opacity=".026"/></radialGradient><radialGradient id="K" cx="0" cy="0" r="1" gradientTransform="matrix(15.365053,0,0,15.373943,11.097936,10.883229)" xlink:href="#T"><stop offset=".083" stop-color="#004591"/><stop offset=".713" stop-color="#204885" stop-opacity="0"/></radialGradient><radialGradient id="L" cx="0" cy="0" r="1" gradientTransform="matrix(6.6594312,0,0,7.3769138,10.596201,26.52345)" xlink:href="#T"><stop stop-color="#fff"/><stop offset="1" stop-color="#fff" stop-opacity="0"/></radialGradient><radialGradient id="M" cx="0" cy="0" r="1" gradientTransform="matrix(36.43692,0.15119088,-0.11278864,27.182,4.5357019,22.981078)" xlink:href="#T"><stop offset=".083" stop-color="#003b7a"/><stop offset=".688" stop-color="#1686d9" stop-opacity="0"/></radialGradient><radialGradient id="N" cx="0" cy="0" r="1" gradientTransform="matrix(19.805989,0,0,19.817419,3.7797469,4.5358009)" xlink:href="#T"><stop offset=".026" stop-color="#003c7c"/><stop offset="1" stop-color="#004081" stop-opacity="0"/></radialGradient><radialGradient id="O" cx="0" cy="0" r="1" gradientTransform="matrix(16.731742,0,0,16.741479,6.4521399,29.993258)" xlink:href="#T"><stop stop-color="#fff"/><stop offset="1" stop-color="#fff" stop-opacity="0"/></radialGradient><path id="P" d="M24.363 15.532c-2.331-1.908-3.779-1.565-5.378-2.019-2.142.059-4.943.728-7.885 3.05.065-.032 1.354-.656 3.427-.388l.772.136c-3.738 1.71-6.439 5.566-6.439 9.35 0 1.727.533 3.342 1.46 4.723.889 1.326 2.14 2.435 3.633 3.219.971.174 1.972.264 2.994.264l.377-.004h.001a16.95 16.95 0 0 0 3.431-.426c-2.492-.001-4.627-.808-5.97-2.169v-.001c-.934-.948-1.487-2.165-1.509-3.569-.056-3.519 3.563-7.003 7.858-6.943.704.01 1.362.075 1.971.199.703.141 2.779.904 2.585 1.765 0 0 .33-.09.669-.518 1.146-1.446.758-4.412-1.997-6.667z"/><path id="Q" d="M16.948 0C7.588 0 0 7.543 0 16.909a16.91 16.91 0 0 0 5.15 12.173c1.019.989 2.16 1.85 3.4 2.559h0a12.35 12.35 0 0 1-.354-.411c.26.229.533.451.819.667a16.72 16.72 0 0 0 2.865 1.197c.674.212 1.367.382 2.075.508-1.493-.784-2.744-1.893-3.633-3.219-.927-1.381-1.46-2.997-1.46-4.723 0-3.784 2.701-7.64 6.438-9.35a9.09 9.09 0 0 0-.772-.136c-2.073-.268-3.362.356-3.427.388 2.941-2.322 5.743-2.991 7.885-3.05 2.374-.065 3.938.621 3.984.64-.974-2.352-2.343-2.21-2.343-2.21.627-.131 1.119-.114 1.784-.114 5.322 0 9.793 4.307 9.793 9.727 0 1.933-.866 4.097-1.814 5.617.667-.881 1.254-1.832 1.747-2.84 1.099-2.246 1.73-4.773 1.73-7.425C33.867 7.543 26.308 0 16.948 0z"/><path id="R" d="M9.334 26.593c0 1.373.357 2.647.999 3.782l-.012.008c-.927-1.381-1.46-2.996-1.46-4.723 0-3.784 2.701-7.64 6.439-9.35a9.09 9.09 0 0 0-.772-.136c-2.073-.268-3.362.356-3.427.388 2.941-2.322 5.743-2.991 7.885-3.05 1.598.454 2.829 1.003 3.774 1.582l-.004.006c-2.581-1.463-6.495.043-6.495.043 3.527.387 3.914 1.373 3.914 1.373-6.013.467-10.84 5.031-10.84 10.076z"/><path id="S" d="M12.149 8.92c-1.332.021-2.189.308-2.189.308a13.63 13.63 0 0 1 9.74-4.07c7.206 0 13.107 5.558 13.602 12.597-2.248-4.777-7.424-8.121-13.452-8.121-8.089 0-14.647 6.022-14.647 13.45 0 3.061 1.114 5.884 2.99 8.145-2.528-2.218-3.852-5.025-3.685-8.664.284-6.125 3.984-11.241 9.297-13.533-.606-.093-1.165-.121-1.659-.113z"/><linearGradient id="T" gradientUnits="userSpaceOnUse"/></defs><path d="M23.429 31.542c-3.382.222-5.839-2.278-5.878-5.272-.009-.702.114-1.385.351-2.016.403-1.076 1.136-1.998 2.107-2.596.866-.534 1.92-.809 3.098-.705-.609-.124-1.267-.189-1.971-.199-4.295-.06-7.914 3.424-7.858 6.943.022 1.404.575 2.621 1.509 3.569v.001c1.344 1.362 3.478 2.168 5.971 2.169.282-.064.561-.136.837-.215 2.23-.634 4.273-1.715 6.026-3.138l.457-.402c-.18.145-2.153 1.697-4.647 1.861z" fill="url(#A)"/><use xlink:href="#P" fill="url(#B)"/><use xlink:href="#P" fill="url(#C)"/><use xlink:href="#Q" fill="url(#D)"/><use xlink:href="#Q" opacity=".19" fill="url(#E)"/><path d="M33.337 18.716l-.034-.961c-.496-7.039-6.396-12.597-13.602-12.597a13.63 13.63 0 0 0-9.74 4.07s.857-.287 2.189-.308a9.82 9.82 0 0 1 1.659.113c-5.313 2.291-9.013 7.408-9.297 13.533-.168 3.639 1.157 6.446 3.685 8.664.26.229.533.451.819.667a16.74 16.74 0 0 0 2.865 1.197 16.6 16.6 0 0 0 2.075.508c-1.493-.783-2.744-1.893-3.633-3.219-.927-1.381-1.46-2.996-1.46-4.723 0-3.784 2.701-7.64 6.439-9.35-.268-.059-.526-.103-.772-.136-2.073-.268-3.362.356-3.427.388 2.941-2.322 5.743-2.991 7.885-3.05 2.374-.065 3.938.621 3.984.64-.974-2.352-2.343-2.21-2.343-2.21.627-.131 1.119-.114 1.784-.114 5.322 0 9.793 4.307 9.793 9.727 0 1.933-.866 4.097-1.813 5.617.667-.881 1.254-1.832 1.746-2.84l-.018-.009a13.43 13.43 0 0 0 1.218-5.609z" fill="url(#F)"/><path d="M15.701 28.616c0 2.475 1.764 4.39 5.893 4.605l-.837.215c-2.492-.001-4.627-.807-5.971-2.169v-.001c-.515-.92-.806-1.968-.806-3.081 0-3.342 2.626-6.102 6.028-6.527-.97.598-1.704 1.52-2.107 2.596a5.61 5.61 0 0 0-2.201 4.362z" fill="url(#G)"/><path d="M23.106 20.953c-1.178-.104-2.232.171-3.098.705-3.402.425-6.028 3.186-6.028 6.527 0 1.113.292 2.161.806 3.081-.934-.948-1.487-2.165-1.509-3.569-.056-3.519 3.563-7.003 7.858-6.943.704.01 1.362.075 1.971.199z" fill="url(#H)"/><path opacity=".25" d="M25.53 22.784c.194-.861-.512-1.172-.512-1.172-.57-.298-1.209-.517-1.912-.659-.609-.124-1.267-.189-1.971-.199-4.295-.06-7.914 3.424-7.858 6.943.022 1.404.575 2.621 1.509 3.569h0c1.344 1.362 3.478 2.168 5.971 2.169a16.96 16.96 0 0 1-3.431.426h-.001c-2.786-1.135-4.721-3.635-4.721-6.538 0-3.97 3.621-7.188 8.087-7.188 2.208 0 4.21.787 5.669 2.062-.317.446-.83.584-.83.584z" fill="url(#I)"/><use xlink:href="#R" fill="url(#J)"/><use xlink:href="#R" fill="url(#K)"/><path opacity=".29" d="M8.13 25.431c0-4.108 2.626-7.641 6.392-9.209l.006-.047c.246.033.504.077.772.136-3.738 1.71-6.439 5.566-6.439 9.35 0 1.727.533 3.342 1.46 4.723.889 1.326 2.14 2.435 3.633 3.219-.708-.125-1.401-.296-2.075-.508l.005-.017C9.585 31.23 8.13 28.489 8.13 25.431z" fill="url(#L)"/><use xlink:href="#S" fill="url(#M)"/><use xlink:href="#S" opacity=".53" fill="url(#N)"/><path opacity=".25" d="M12.149 8.921a9.82 9.82 0 0 1 1.659.113c-5.313 2.291-9.013 7.408-9.297 13.533-.168 3.639 1.157 6.446 3.685 8.664a12.47 12.47 0 0 0 .354.411v.001c-1.24-.709-2.381-1.57-3.4-2.559a14.41 14.41 0 0 1-1.623-6.643c0-5.812 3.478-10.875 8.622-13.519z" fill="url(#O)"/></svg>