<svg xmlns="http://www.w3.org/2000/svg" width="128" height="128" viewBox="0 0 33.867 33.867" xmlns:v="https://vecta.io/nano"><defs><linearGradient id="A" x1="23.538" y1="36.585" x2="5.979" y2="5.57" gradientUnits="userSpaceOnUse"><stop stop-color="#44f3c8"/><stop offset=".56" stop-color="#1921f2"/><stop offset=".99" stop-color="#b426bf"/></linearGradient></defs><path d="M27.08 33.545H6.775c-1.16-.002-2.301-.296-3.313-.853a6.73 6.73 0 0 1-2.466-2.331C.391 29.39.05 28.284.005 27.146a6.55 6.55 0 0 1 .736-3.28L11.122 3.95C12.297 1.695 14.592.2 17.224.329a6.85 6.85 0 0 1 3.561 1.02c1.066.659 1.923 1.599 2.474 2.711l9.921 19.911c.505 1.014.738 2.138.678 3.265s-.411 2.221-1.021 3.178-1.457 1.747-2.464 2.295-2.138.835-3.289.836zM17.159 5.852c-.213-.005-.422.05-.604.159a1.09 1.09 0 0 0-.419.454L5.749 26.379a1.11 1.11 0 0 0-.125.557c.008.193.066.381.169.546a1.14 1.14 0 0 0 .419.395 1.17 1.17 0 0 0 .563.144H27.08a1.17 1.17 0 0 0 .558-.142c.171-.093.315-.227.418-.39s.163-.348.173-.54a1.11 1.11 0 0 0-.115-.554l-9.921-19.91c-.274-.554-.773-.687-1.034-.634z" fill="url(#A)"/></svg>