<svg xmlns="http://www.w3.org/2000/svg" width="128" height="128" fill="none" xmlns:v="https://vecta.io/nano"><path d="M115.816 4.724L98.741 4.71l3.785 12.036 1.277 4.061-3.349 2.503-28.815 21.56 25.461 19.111 30.235-22.619z" fill="#ffc800"/><path d="M27.522 23.267l-3.344-2.512 1.281-4.054 3.785-11.992-17.014-.013L.665 41.321l30.198 22.666L56.359 44.91zm33.553.837L35.238 4.719l-4.36 13.806 30.198 22.666.016-.013V24.101z" fill="#e1aa00"/><path d="M92.765 4.738L66.893 24.094V41.17l30.216-22.606z" fill="#ffc800"/><path d="M34.21 68.738l-3.269 2.449-.064.199 30.198 22.666.016-.013V48.626z" fill="#e1aa00"/><path d="M97.036 71.202l-3.285-2.468-26.823-20.132-.034.025V94.04l30.216-22.606z" fill="#ffc800"/><path d="M61.071 101.312l-3.344-2.511L36.49 82.865l-5.612 17.774 30.198 22.666.016-.013v-21.997z" fill="#e1aa00"/><path d="M91.513 82.876l-21.293 15.93-3.328 2.49v21.997l30.216-22.606z" fill="#ffc800"/></svg>